//Event file generated from Sappy .s format.
	#include "MPlayDef.event"

	#define	AllHailShadow_grp  voicegroup000
	#define	AllHailShadow_pri  0
	#define	AllHailShadow_rev  0
	#define	AllHailShadow_mvl  40
	#define	AllHailShadow_key  0
	#define	AllHailShadow_tbs  1
	#define	AllHailShadow_exg  0
	#define	AllHailShadow_cmp  1

	// .rodata
	//	AllHailShadow
	ALIGN 4

//**************** Track 1 (Midi-Chn.1) ****************//

AllHailShadow_1:
	BYTE	KEYSH   AllHailShadow_key+0
// 000   ----------------------------------------
	BYTE	TEMPO   87*AllHailShadow_tbs/2
	BYTE		VOICE   30
	BYTE		VOL     100*AllHailShadow_mvl/mxv
	BYTE	W72
	BYTE		BEND    c_v+0
	BYTE	W10
	BYTE	W01
	BYTE	W01
	BYTE		N12     En2   v100
	BYTE	W02
	BYTE		BEND    c_v-1
	BYTE	W01
	BYTE		        c_v+6
	BYTE	W01
	BYTE		        c_v-2
	BYTE	W01
	BYTE		        c_v-11
	BYTE	W01
	BYTE		        c_v-20
	BYTE	W01
	BYTE		        c_v-28
	BYTE	W01
	BYTE		        c_v-37
	BYTE	W01
	BYTE		        c_v-45
	BYTE	W01
	BYTE		        c_v-54
	BYTE	W01
	BYTE		        c_v-63
	BYTE	W01
// 001   ----------------------------------------
	BYTE		        c_v+0
	BYTE		N42     Fs1 
	BYTE		N42     Bn1 
	BYTE		N42     Dn2 
	BYTE		N42     Fs2 
	BYTE		N42     Bn2 
	BYTE	W42
	BYTE		N54     Fs1 
	BYTE		N54     An1 
	BYTE		N54     Dn2 
	BYTE		N54     Fs2 
	BYTE		N54     An2 
	BYTE	W54
// 002   ----------------------------------------
AllHailShadow_1_002:
	BYTE		N42     Dn1   v100
	BYTE		N42     Gn1 
	BYTE		N42     Bn1 
	BYTE		N42     Dn2 
	BYTE		N42     Gn2 
	BYTE	W42
	BYTE		N30     Cs1 
	BYTE		N30     Fs1 
	BYTE		N30     As1 
	BYTE		N30     Cs2 
	BYTE		N30     Fs2 
	BYTE	W30
	BYTE		N09     Cn1 
	BYTE		N09     Fn1 
	BYTE		N09     An1 
	BYTE		N09     Cn2 
	BYTE		N09     Fn2 
	BYTE	W12
	BYTE		        Bn0 
	BYTE		N09     En1 
	BYTE		N09     Gs1 
	BYTE		N09     Bn1 
	BYTE		N09     En2 
	BYTE	W12
	BYTE	PEND
// 003   ----------------------------------------
AllHailShadow_1_003:
	BYTE		N42     Fs1   v100
	BYTE		N42     Bn1 
	BYTE		N42     Dn2 
	BYTE		N42     Fs2 
	BYTE		N42     Bn2 
	BYTE	W42
	BYTE		N54     Fs1 
	BYTE		N54     An1 
	BYTE		N54     Dn2 
	BYTE		N54     Fs2 
	BYTE		N54     An2 
	BYTE	W54
	BYTE	PEND
// 004   ----------------------------------------
AllHailShadow_1_004:
	BYTE		N42     Dn1   v100
	BYTE		N42     Gn1 
	BYTE		N42     Bn1 
	BYTE		N42     Dn2 
	BYTE		N42     Gn2 
	BYTE	W42
	BYTE		N30     Cs1 
	BYTE		N30     Fs1 
	BYTE		N30     As1 
	BYTE		N30     Cs2 
	BYTE		N30     Fs2 
	BYTE	W30
	BYTE		N09     An1 
	BYTE		N09     Cn2 
	BYTE		N09     Fn2 
	BYTE		N09     Cn3 
	BYTE		N09     Fn3 
	BYTE	W12
	BYTE		        Gs1 
	BYTE		N09     Bn1 
	BYTE		N09     En2 
	BYTE		N09     Bn2 
	BYTE		N09     En3 
	BYTE	W12
	BYTE	PEND
// 005   ----------------------------------------
	BYTE	PATT
	 POIN2	AllHailShadow_1_003
// 006   ----------------------------------------
AllHailShadow_1_006:
	BYTE		N42     Dn1   v100
	BYTE		N42     Gn1 
	BYTE		N42     Bn1 
	BYTE		N42     Dn2 
	BYTE		N42     Gn2 
	BYTE	W42
	BYTE		N54     En1 
	BYTE		N54     An1 
	BYTE		N54     Cs2 
	BYTE		N54     En2 
	BYTE		N54     An2 
	BYTE	W54
	BYTE	PEND
// 007   ----------------------------------------
AllHailShadow_1_007:
	BYTE		N18     Fs1   v100
	BYTE		N18     Bn1 
	BYTE		N18     Dn2 
	BYTE		N18     Fs2 
	BYTE		N18     Bn2 
	BYTE	W18
	BYTE		N24     En1 
	BYTE		N24     An1 
	BYTE		N24     Cs2 
	BYTE		N24     En2 
	BYTE		N24     An2 
	BYTE	W24
	BYTE		N48     Dn1 
	BYTE		N48     Gn1 
	BYTE		N48     Bn1 
	BYTE		N48     Dn2 
	BYTE		N48     Gn2 
	BYTE	W48
	BYTE		N54     Gn1 
	BYTE		N54     Cn2 
	BYTE		N54     En2 
	BYTE		N54     Gn2 
	BYTE		N54     Cn3 
	BYTE	W06
	BYTE	PEND
// 008   ----------------------------------------
AllHailShadow_1_008:
	BYTE	W48
	BYTE		N06     Fn1   v100
	BYTE		N06     Fn2 
	BYTE	W06
	BYTE		        Bn0 
	BYTE		N06     Bn1 
	BYTE	W06
	BYTE		        Bn0 
	BYTE		N06     Bn1 
	BYTE	W06
	BYTE		        Fn1 
	BYTE		N06     Fn2 
	BYTE	W06
	BYTE		        Bn0 
	BYTE		N06     Bn1 
	BYTE	W06
	BYTE		        Bn0 
	BYTE		N06     Bn1 
	BYTE	W06
	BYTE		        Fs1 
	BYTE		N06     Fs2 
	BYTE	W12
	BYTE	PEND
// 009   ----------------------------------------
	BYTE		        Fn1 
	BYTE		N06     Fn2 
	BYTE	W06
	BYTE		        Bn0 
	BYTE		N06     Bn1 
	BYTE	W06
	BYTE		        Bn0 
	BYTE		N06     Bn1 
	BYTE	W06
	BYTE		        Fn1 
	BYTE		N06     Fn2 
	BYTE	W06
	BYTE		        Bn0 
	BYTE		N06     Bn1 
	BYTE	W06
	BYTE		        Bn0 
	BYTE		N06     Bn1 
	BYTE	W06
	BYTE		        Gn1 
	BYTE		N06     Gn2 
	BYTE	W12
	BYTE		        Bn0 
	BYTE		N06     Fs1 
	BYTE		N06     Bn1 
	BYTE		N06     Fs2 
	BYTE		N06     Bn2 
	BYTE	W06
	BYTE		        Bn0 
	BYTE		N06     Fs1 
	BYTE		N06     Bn1 
	BYTE		N06     Fs2 
	BYTE		N06     Bn2 
	BYTE	W06
	BYTE		        Bn0 
	BYTE		N06     Fs1 
	BYTE		N06     Bn1 
	BYTE		N06     Fs2 
	BYTE		N06     Bn2 
	BYTE	W06
	BYTE		        Bn0 
	BYTE		N06     Fs1 
	BYTE		N06     Bn1 
	BYTE		N06     Fs2 
	BYTE		N06     Bn2 
	BYTE	W06
	BYTE		        Bn0 
	BYTE		N06     Fs1 
	BYTE		N06     Bn1 
	BYTE		N06     Fs2 
	BYTE		N06     Bn2 
	BYTE	W24
// 010   ----------------------------------------
AllHailShadow_1_010:
	BYTE		N06     Gn0   v100
	BYTE		N06     Dn1 
	BYTE		N06     Gn1 
	BYTE		N06     Dn2 
	BYTE		N06     Gn2 
	BYTE	W06
	BYTE		        Gn0 
	BYTE		N06     Dn1 
	BYTE		N06     Gn1 
	BYTE		N06     Dn2 
	BYTE		N06     Gn2 
	BYTE	W06
	BYTE		        Gn0 
	BYTE		N06     Dn1 
	BYTE		N06     Gn1 
	BYTE		N06     Dn2 
	BYTE		N06     Gn2 
	BYTE	W06
	BYTE		        Gn0 
	BYTE		N06     Dn1 
	BYTE		N06     Gn1 
	BYTE		N06     Dn2 
	BYTE		N06     Gn2 
	BYTE	W30
	BYTE		        An0 
	BYTE		N06     En1 
	BYTE		N06     An1 
	BYTE		N06     En2 
	BYTE		N06     An2 
	BYTE	W06
	BYTE		        An0 
	BYTE		N06     En1 
	BYTE		N06     An1 
	BYTE		N06     En2 
	BYTE		N06     An2 
	BYTE	W06
	BYTE		        An0 
	BYTE		N06     En1 
	BYTE		N06     An1 
	BYTE		N06     En2 
	BYTE		N06     An2 
	BYTE	W06
	BYTE		N18     An0 
	BYTE		N18     En1 
	BYTE		N18     An1 
	BYTE		N18     En2 
	BYTE		N18     An2 
	BYTE	W18
	BYTE		N12     An0 
	BYTE		N12     En1 
	BYTE		N12     An1 
	BYTE		N12     En2 
	BYTE		N12     An2 
	BYTE	W12
	BYTE	PEND
// 011   ----------------------------------------
AllHailShadow_1_011:
	BYTE		N12     En0   v100
	BYTE		N12     Bn0 
	BYTE		N12     En1 
	BYTE		N12     Bn1 
	BYTE		N12     En2 
	BYTE	W12
	BYTE		N06     En0 
	BYTE		N06     Bn0 
	BYTE		N06     En1 
	BYTE		N06     Bn1 
	BYTE		N06     En2 
	BYTE	W06
	BYTE		N12     En0 
	BYTE		N12     Bn0 
	BYTE		N12     En1 
	BYTE		N12     Bn1 
	BYTE		N12     En2 
	BYTE	W12
	BYTE		N06     En0 
	BYTE		N06     Bn0 
	BYTE		N06     En1 
	BYTE		N06     Bn1 
	BYTE		N06     En2 
	BYTE	W06
	BYTE		N12     Dn1 
	BYTE		N12     An1 
	BYTE		N12     Dn2 
	BYTE		N12     An2 
	BYTE		N12     Dn3 
	BYTE	W12
	BYTE		N06     Bn0 
	BYTE		N06     Fs1 
	BYTE		N06     Bn1 
	BYTE		N06     Fs2 
	BYTE		N06     Bn2 
	BYTE	W06
	BYTE		        Bn0 
	BYTE		N06     Fs1 
	BYTE		N06     Bn1 
	BYTE		N06     Fs2 
	BYTE		N06     Bn2 
	BYTE	W06
	BYTE		        Bn0 
	BYTE		N06     Fs1 
	BYTE		N06     Bn1 
	BYTE		N06     Fs2 
	BYTE		N06     Bn2 
	BYTE	W06
	BYTE		        Bn0 
	BYTE		N06     Fs1 
	BYTE		N06     Bn1 
	BYTE		N06     Fs2 
	BYTE		N06     Bn2 
	BYTE	W06
	BYTE		        Bn0 
	BYTE		N06     Fs1 
	BYTE		N06     Bn1 
	BYTE		N06     Fs2 
	BYTE		N06     Bn2 
	BYTE	W24
	BYTE	PEND
// 012   ----------------------------------------
	BYTE	PATT
	 POIN2	AllHailShadow_1_010
// 013   ----------------------------------------
	BYTE	PATT
	 POIN2	AllHailShadow_1_011
// 014   ----------------------------------------
	BYTE	PATT
	 POIN2	AllHailShadow_1_010
// 015   ----------------------------------------
	BYTE	PATT
	 POIN2	AllHailShadow_1_011
// 016   ----------------------------------------
	BYTE		N06     Gn0   v100
	BYTE		N06     Dn1 
	BYTE		N06     Gn1 
	BYTE		N06     Dn2 
	BYTE		N06     Gn2 
	BYTE	W06
	BYTE		        Gn0 
	BYTE		N06     Dn1 
	BYTE		N06     Gn1 
	BYTE		N06     Dn2 
	BYTE		N06     Gn2 
	BYTE	W06
	BYTE		        Gn0 
	BYTE		N06     Dn1 
	BYTE		N06     Gn1 
	BYTE		N06     Dn2 
	BYTE		N06     Gn2 
	BYTE	W06
	BYTE		        Gn0 
	BYTE		N06     Dn1 
	BYTE		N06     Gn1 
	BYTE		N06     Dn2 
	BYTE		N06     Gn2 
	BYTE	W30
	BYTE		N48     En0 
	BYTE		N48     Bn0 
	BYTE		N48     En1 
	BYTE		N48     Bn1 
	BYTE		N48     En2 
	BYTE	W48
// 017   ----------------------------------------
	BYTE		N12     Fs0 
	BYTE		N12     Cs1 
	BYTE		N12     Fs1 
	BYTE		N12     Cs2 
	BYTE		N12     Fs2 
	BYTE	W12
	BYTE		N06     Fs0 
	BYTE		N06     Cs1 
	BYTE		N06     Fs1 
	BYTE		N06     Cs2 
	BYTE		N06     Fs2 
	BYTE	W06
	BYTE		N12     Fs0 
	BYTE		N12     Cs1 
	BYTE		N12     Fs1 
	BYTE		N12     Cs2 
	BYTE		N12     Fs2 
	BYTE	W12
	BYTE		N06     Fs0 
	BYTE		N06     Cs1 
	BYTE		N06     Fs1 
	BYTE		N06     Cs2 
	BYTE		N06     Fs2 
	BYTE	W06
	BYTE		N12     Dn1 
	BYTE		N12     An1 
	BYTE		N12     Dn2 
	BYTE		N12     An2 
	BYTE		N12     Dn3 
	BYTE	W12
	BYTE		N06     Bn0 
	BYTE		N06     Fs1 
	BYTE		N06     Bn1 
	BYTE		N06     Fs2 
	BYTE		N06     Bn2 
	BYTE	W06
	BYTE		        Bn0 
	BYTE		N06     Fs1 
	BYTE		N06     Bn1 
	BYTE		N06     Fs2 
	BYTE		N06     Bn2 
	BYTE	W06
	BYTE		        Bn0 
	BYTE		N06     Fs1 
	BYTE		N06     Bn1 
	BYTE		N06     Fs2 
	BYTE		N06     Bn2 
	BYTE	W06
	BYTE		        Bn0 
	BYTE		N06     Fs1 
	BYTE		N06     Bn1 
	BYTE		N06     Fs2 
	BYTE		N06     Bn2 
	BYTE	W06
	BYTE		        Bn0 
	BYTE		N06     Fs1 
	BYTE		N06     Bn1 
	BYTE		N06     Fs2 
	BYTE		N06     Bn2 
	BYTE	W24
// 018   ----------------------------------------
	BYTE	PATT
	 POIN2	AllHailShadow_1_010
// 019   ----------------------------------------
	BYTE	PATT
	 POIN2	AllHailShadow_1_011
// 020   ----------------------------------------
	BYTE	PATT
	 POIN2	AllHailShadow_1_010
// 021   ----------------------------------------
	BYTE		N12     Fs0   v100
	BYTE		N12     Cs1 
	BYTE		N12     Fs1 
	BYTE		N12     Cs2 
	BYTE		N12     Fs2 
	BYTE	W12
	BYTE		N06     Fs0 
	BYTE		N06     Cs1 
	BYTE		N06     Fs1 
	BYTE		N06     Cs2 
	BYTE		N06     Fs2 
	BYTE	W06
	BYTE		N12     Fs0 
	BYTE		N12     Cs1 
	BYTE		N12     Fs1 
	BYTE		N12     Cs2 
	BYTE		N12     Fs2 
	BYTE	W12
	BYTE		N06     Gn0 
	BYTE		N06     Dn1 
	BYTE		N06     Gn1 
	BYTE		N06     Dn2 
	BYTE		N06     Gn2 
	BYTE	W06
	BYTE		N12     An0 
	BYTE		N12     En1 
	BYTE		N12     An1 
	BYTE		N12     En2 
	BYTE		N12     An2 
	BYTE	W12
	BYTE		N06     Gn0 
	BYTE		N06     Dn1 
	BYTE		N06     Gn1 
	BYTE		N06     Dn2 
	BYTE		N06     Gn2 
	BYTE	W48
// 022   ----------------------------------------
	BYTE	W48
	BYTE		        An0 
	BYTE		N06     En1 
	BYTE		N06     An1 
	BYTE		N06     En2 
	BYTE		N06     An2 
	BYTE	W06
	BYTE		        Bn0 
	BYTE		N06     Fs1 
	BYTE		N06     Bn1 
	BYTE		N06     Fs2 
	BYTE		N06     Bn2 
	BYTE	W06
	BYTE		        Bn0 
	BYTE		N06     Fs1 
	BYTE		N06     Bn1 
	BYTE		N06     Fs2 
	BYTE		N06     Bn2 
	BYTE	W06
	BYTE		        An0 
	BYTE		N06     En1 
	BYTE		N06     An1 
	BYTE		N06     En2 
	BYTE		N06     An2 
	BYTE	W06
	BYTE		        Bn0 
	BYTE		N06     Fs1 
	BYTE		N06     Bn1 
	BYTE		N06     Fs2 
	BYTE		N06     Bn2 
	BYTE	W06
	BYTE		        Bn0 
	BYTE		N06     Fs1 
	BYTE		N06     Bn1 
	BYTE		N06     Fs2 
	BYTE		N06     Bn2 
	BYTE	W06
	BYTE		        An0 
	BYTE		N06     En1 
	BYTE		N06     An1 
	BYTE		N06     En2 
	BYTE		N06     An2 
	BYTE	W06
	BYTE		        Bn0 
	BYTE		N06     Fs1 
	BYTE		N06     Bn1 
	BYTE		N06     Fs2 
	BYTE		N06     Bn2 
	BYTE	W06
// 023   ----------------------------------------
	BYTE		        Dn1 
	BYTE		N06     An1 
	BYTE		N06     Dn2 
	BYTE		N06     An2 
	BYTE		N06     Dn3 
	BYTE	W06
	BYTE		        Dn1 
	BYTE		N06     An1 
	BYTE		N06     Dn2 
	BYTE		N06     An2 
	BYTE		N06     Dn3 
	BYTE	W06
	BYTE		        Dn1 
	BYTE		N06     An1 
	BYTE		N06     Dn2 
	BYTE		N06     An2 
	BYTE		N06     Dn3 
	BYTE	W06
	BYTE		        An0 
	BYTE		N06     En1 
	BYTE		N06     An1 
	BYTE		N06     En2 
	BYTE		N06     An2 
	BYTE	W06
	BYTE		        Dn1 
	BYTE		N06     An1 
	BYTE		N06     Dn2 
	BYTE		N06     An2 
	BYTE		N06     Dn3 
	BYTE	W06
	BYTE		N18     En1 
	BYTE		N18     Bn1 
	BYTE		N18     En2 
	BYTE		N18     Bn2 
	BYTE		N18     En3 
	BYTE	W66
// 024   ----------------------------------------
	BYTE	W96
// 025   ----------------------------------------
	BYTE	W48
	BYTE		N42     Fs1 
	BYTE		N42     Bn1 
	BYTE		N42     Dn2 
	BYTE		N42     Fs2 
	BYTE		N42     Bn2 
	BYTE	W42
	BYTE		N54     Fs1 
	BYTE		N54     An1 
	BYTE		N54     Dn2 
	BYTE		N54     Fs2 
	BYTE		N54     An2 
	BYTE	W06
// 026   ----------------------------------------
AllHailShadow_1_026:
	BYTE	W48
	BYTE		N42     Dn1   v100
	BYTE		N42     Gn1 
	BYTE		N42     Bn1 
	BYTE		N42     Dn2 
	BYTE		N42     Gn2 
	BYTE	W42
	BYTE		N30     Cs1 
	BYTE		N30     Fs1 
	BYTE		N30     As1 
	BYTE		N30     Cs2 
	BYTE		N30     Fs2 
	BYTE	W06
	BYTE	PEND
// 027   ----------------------------------------
AllHailShadow_1_027:
	BYTE	W24
	BYTE		N09     Cn1   v100
	BYTE		N09     Fn1 
	BYTE		N09     An1 
	BYTE		N09     Cn2 
	BYTE		N09     Fn2 
	BYTE	W12
	BYTE		        Bn0 
	BYTE		N09     En1 
	BYTE		N09     Gs1 
	BYTE		N09     Bn1 
	BYTE		N09     En2 
	BYTE	W12
	BYTE		N42     Fs1 
	BYTE		N42     Bn1 
	BYTE		N42     Dn2 
	BYTE		N42     Fs2 
	BYTE		N42     Bn2 
	BYTE	W42
	BYTE		N54     Fs1 
	BYTE		N54     An1 
	BYTE		N54     Dn2 
	BYTE		N54     Fs2 
	BYTE		N54     An2 
	BYTE	W06
	BYTE	PEND
// 028   ----------------------------------------
	BYTE	PATT
	 POIN2	AllHailShadow_1_026
// 029   ----------------------------------------
AllHailShadow_1_029:
	BYTE	W24
	BYTE		N09     An1   v100
	BYTE		N09     Cn2 
	BYTE		N09     Fn2 
	BYTE		N09     Cn3 
	BYTE		N09     Fn3 
	BYTE	W12
	BYTE		        Gs1 
	BYTE		N09     Bn1 
	BYTE		N09     En2 
	BYTE		N09     Bn2 
	BYTE		N09     En3 
	BYTE	W12
	BYTE		N42     Fs1 
	BYTE		N42     Bn1 
	BYTE		N42     Dn2 
	BYTE		N42     Fs2 
	BYTE		N42     Bn2 
	BYTE	W42
	BYTE		N54     Fs1 
	BYTE		N54     An1 
	BYTE		N54     Dn2 
	BYTE		N54     Fs2 
	BYTE		N54     An2 
	BYTE	W06
	BYTE	PEND
// 030   ----------------------------------------
AllHailShadow_1_030:
	BYTE	W48
	BYTE		N42     Dn1   v100
	BYTE		N42     Gn1 
	BYTE		N42     Bn1 
	BYTE		N42     Dn2 
	BYTE		N42     Gn2 
	BYTE	W42
	BYTE		N54     En1 
	BYTE		N54     An1 
	BYTE		N54     Cs2 
	BYTE		N54     En2 
	BYTE		N54     An2 
	BYTE	W06
	BYTE	PEND
// 031   ----------------------------------------
AllHailShadow_1_031:
	BYTE	W48
	BYTE		N18     Fs1   v100
	BYTE		N18     Bn1 
	BYTE		N18     Dn2 
	BYTE		N18     Fs2 
	BYTE		N18     Bn2 
	BYTE	W18
	BYTE		N24     En1 
	BYTE		N24     An1 
	BYTE		N24     Cs2 
	BYTE		N24     En2 
	BYTE		N24     An2 
	BYTE	W24
	BYTE		N48     Dn1 
	BYTE		N48     Gn1 
	BYTE		N48     Bn1 
	BYTE		N48     Dn2 
	BYTE		N48     Gn2 
	BYTE	W06
	BYTE	PEND
// 032   ----------------------------------------
AllHailShadow_1_032:
	BYTE	W42
	BYTE		N54     Gn1   v100
	BYTE		N54     Cn2 
	BYTE		N54     En2 
	BYTE		N54     Gn2 
	BYTE		N54     Cn3 
	BYTE	W54
	BYTE	PEND
// 033   ----------------------------------------
	BYTE		N06     Fn1 
	BYTE		N06     Fn2 
	BYTE	W06
	BYTE		        Bn0 
	BYTE		N06     Bn1 
	BYTE	W06
	BYTE		        Bn0 
	BYTE		N06     Bn1 
	BYTE	W06
	BYTE		        Fn1 
	BYTE		N06     Fn2 
	BYTE	W06
	BYTE		        Bn0 
	BYTE		N06     Bn1 
	BYTE	W06
	BYTE		        Bn0 
	BYTE		N06     Bn1 
	BYTE	W06
	BYTE		        Fs1 
	BYTE		N06     Fs2 
	BYTE	W12
	BYTE		        Fn1 
	BYTE		N06     Fn2 
	BYTE	W06
	BYTE		        Bn0 
	BYTE		N06     Bn1 
	BYTE	W06
	BYTE		        Bn0 
	BYTE		N06     Bn1 
	BYTE	W06
	BYTE		        Fn1 
	BYTE		N06     Fn2 
	BYTE	W06
	BYTE		        Bn0 
	BYTE		N06     Bn1 
	BYTE	W06
	BYTE		        Bn0 
	BYTE		N06     Bn1 
	BYTE	W06
	BYTE		        Gn1 
	BYTE		N06     Gn2 
	BYTE	W12
// 034   ----------------------------------------
AllHailShadow_1_034:
	BYTE		N06     Bn0   v100
	BYTE		N06     Fs1 
	BYTE		N06     Bn1 
	BYTE		N06     Fs2 
	BYTE		N06     Bn2 
	BYTE	W06
	BYTE		        Bn0 
	BYTE		N06     Fs1 
	BYTE		N06     Bn1 
	BYTE		N06     Fs2 
	BYTE		N06     Bn2 
	BYTE	W06
	BYTE		        Bn0 
	BYTE		N06     Fs1 
	BYTE		N06     Bn1 
	BYTE		N06     Fs2 
	BYTE		N06     Bn2 
	BYTE	W06
	BYTE		        Bn0 
	BYTE		N06     Fs1 
	BYTE		N06     Bn1 
	BYTE		N06     Fs2 
	BYTE		N06     Bn2 
	BYTE	W06
	BYTE		        Bn0 
	BYTE		N06     Fs1 
	BYTE		N06     Bn1 
	BYTE		N06     Fs2 
	BYTE		N06     Bn2 
	BYTE	W24
	BYTE		        Gn0 
	BYTE		N06     Dn1 
	BYTE		N06     Gn1 
	BYTE		N06     Dn2 
	BYTE		N06     Gn2 
	BYTE	W06
	BYTE		        Gn0 
	BYTE		N06     Dn1 
	BYTE		N06     Gn1 
	BYTE		N06     Dn2 
	BYTE		N06     Gn2 
	BYTE	W06
	BYTE		        Gn0 
	BYTE		N06     Dn1 
	BYTE		N06     Gn1 
	BYTE		N06     Dn2 
	BYTE		N06     Gn2 
	BYTE	W06
	BYTE		        Gn0 
	BYTE		N06     Dn1 
	BYTE		N06     Gn1 
	BYTE		N06     Dn2 
	BYTE		N06     Gn2 
	BYTE	W30
	BYTE	PEND
// 035   ----------------------------------------
AllHailShadow_1_035:
	BYTE		N06     An0   v100
	BYTE		N06     En1 
	BYTE		N06     An1 
	BYTE		N06     En2 
	BYTE		N06     An2 
	BYTE	W06
	BYTE		        An0 
	BYTE		N06     En1 
	BYTE		N06     An1 
	BYTE		N06     En2 
	BYTE		N06     An2 
	BYTE	W06
	BYTE		        An0 
	BYTE		N06     En1 
	BYTE		N06     An1 
	BYTE		N06     En2 
	BYTE		N06     An2 
	BYTE	W06
	BYTE		N18     An0 
	BYTE		N18     En1 
	BYTE		N18     An1 
	BYTE		N18     En2 
	BYTE		N18     An2 
	BYTE	W18
	BYTE		N12     An0 
	BYTE		N12     En1 
	BYTE		N12     An1 
	BYTE		N12     En2 
	BYTE		N12     An2 
	BYTE	W12
	BYTE		        En0 
	BYTE		N12     Bn0 
	BYTE		N12     En1 
	BYTE		N12     Bn1 
	BYTE		N12     En2 
	BYTE	W12
	BYTE		N06     En0 
	BYTE		N06     Bn0 
	BYTE		N06     En1 
	BYTE		N06     Bn1 
	BYTE		N06     En2 
	BYTE	W06
	BYTE		N12     En0 
	BYTE		N12     Bn0 
	BYTE		N12     En1 
	BYTE		N12     Bn1 
	BYTE		N12     En2 
	BYTE	W12
	BYTE		N06     En0 
	BYTE		N06     Bn0 
	BYTE		N06     En1 
	BYTE		N06     Bn1 
	BYTE		N06     En2 
	BYTE	W06
	BYTE		N12     Dn1 
	BYTE		N12     An1 
	BYTE		N12     Dn2 
	BYTE		N12     An2 
	BYTE		N12     Dn3 
	BYTE	W12
	BYTE	PEND
// 036   ----------------------------------------
	BYTE	PATT
	 POIN2	AllHailShadow_1_034
// 037   ----------------------------------------
	BYTE		N48     En0   v100
	BYTE		N48     Bn0 
	BYTE		N48     En1 
	BYTE		N48     Bn1 
	BYTE		N48     En2 
	BYTE	W48
	BYTE		N12     Fs0 
	BYTE		N12     Cs1 
	BYTE		N12     Fs1 
	BYTE		N12     Cs2 
	BYTE		N12     Fs2 
	BYTE	W12
	BYTE		N06     Fs0 
	BYTE		N06     Cs1 
	BYTE		N06     Fs1 
	BYTE		N06     Cs2 
	BYTE		N06     Fs2 
	BYTE	W06
	BYTE		N12     Fs0 
	BYTE		N12     Cs1 
	BYTE		N12     Fs1 
	BYTE		N12     Cs2 
	BYTE		N12     Fs2 
	BYTE	W12
	BYTE		N06     Fs0 
	BYTE		N06     Cs1 
	BYTE		N06     Fs1 
	BYTE		N06     Cs2 
	BYTE		N06     Fs2 
	BYTE	W06
	BYTE		N12     Dn1 
	BYTE		N12     An1 
	BYTE		N12     Dn2 
	BYTE		N12     An2 
	BYTE		N12     Dn3 
	BYTE	W12
// 038   ----------------------------------------
	BYTE	PATT
	 POIN2	AllHailShadow_1_034
// 039   ----------------------------------------
	BYTE	PATT
	 POIN2	AllHailShadow_1_035
// 040   ----------------------------------------
	BYTE	PATT
	 POIN2	AllHailShadow_1_034
// 041   ----------------------------------------
	BYTE		N06     An0   v100
	BYTE		N06     En1 
	BYTE		N06     An1 
	BYTE		N06     En2 
	BYTE		N06     An2 
	BYTE	W06
	BYTE		        An0 
	BYTE		N06     En1 
	BYTE		N06     An1 
	BYTE		N06     En2 
	BYTE		N06     An2 
	BYTE	W06
	BYTE		        An0 
	BYTE		N06     En1 
	BYTE		N06     An1 
	BYTE		N06     En2 
	BYTE		N06     An2 
	BYTE	W06
	BYTE		N18     An0 
	BYTE		N18     En1 
	BYTE		N18     An1 
	BYTE		N18     En2 
	BYTE		N18     An2 
	BYTE	W18
	BYTE		N12     An0 
	BYTE		N12     En1 
	BYTE		N12     An1 
	BYTE		N12     En2 
	BYTE		N12     An2 
	BYTE	W12
	BYTE		        Fs0 
	BYTE		N12     Cs1 
	BYTE		N12     Fs1 
	BYTE		N12     Cs2 
	BYTE		N12     Fs2 
	BYTE	W12
	BYTE		N06     Fs0 
	BYTE		N06     Cs1 
	BYTE		N06     Fs1 
	BYTE		N06     Cs2 
	BYTE		N06     Fs2 
	BYTE	W06
	BYTE		N12     Fs0 
	BYTE		N12     Cs1 
	BYTE		N12     Fs1 
	BYTE		N12     Cs2 
	BYTE		N12     Fs2 
	BYTE	W12
	BYTE		N06     Gn0 
	BYTE		N06     Dn1 
	BYTE		N06     Gn1 
	BYTE		N06     Dn2 
	BYTE		N06     Gn2 
	BYTE	W06
	BYTE		N12     An0 
	BYTE		N12     En1 
	BYTE		N12     An1 
	BYTE		N12     En2 
	BYTE		N12     An2 
	BYTE	W12
// 042   ----------------------------------------
	BYTE		N06     Gn0 
	BYTE		N06     Dn1 
	BYTE		N06     Gn1 
	BYTE		N06     Dn2 
	BYTE		N06     Gn2 
	BYTE	W96
// 043   ----------------------------------------
	BYTE		        An0 
	BYTE		N06     En1 
	BYTE		N06     An1 
	BYTE		N06     En2 
	BYTE		N06     An2 
	BYTE	W06
	BYTE		        Bn0 
	BYTE		N06     Fs1 
	BYTE		N06     Bn1 
	BYTE		N06     Fs2 
	BYTE		N06     Bn2 
	BYTE	W06
	BYTE		        Bn0 
	BYTE		N06     Fs1 
	BYTE		N06     Bn1 
	BYTE		N06     Fs2 
	BYTE		N06     Bn2 
	BYTE	W06
	BYTE		        An0 
	BYTE		N06     En1 
	BYTE		N06     An1 
	BYTE		N06     En2 
	BYTE		N06     An2 
	BYTE	W06
	BYTE		        Bn0 
	BYTE		N06     Fs1 
	BYTE		N06     Bn1 
	BYTE		N06     Fs2 
	BYTE		N06     Bn2 
	BYTE	W06
	BYTE		        Bn0 
	BYTE		N06     Fs1 
	BYTE		N06     Bn1 
	BYTE		N06     Fs2 
	BYTE		N06     Bn2 
	BYTE	W06
	BYTE		        An0 
	BYTE		N06     En1 
	BYTE		N06     An1 
	BYTE		N06     En2 
	BYTE		N06     An2 
	BYTE	W06
	BYTE		        Bn0 
	BYTE		N06     Fs1 
	BYTE		N06     Bn1 
	BYTE		N06     Fs2 
	BYTE		N06     Bn2 
	BYTE	W06
	BYTE		        Dn1 
	BYTE		N06     An1 
	BYTE		N06     Dn2 
	BYTE		N06     An2 
	BYTE		N06     Dn3 
	BYTE	W06
	BYTE		        Dn1 
	BYTE		N06     An1 
	BYTE		N06     Dn2 
	BYTE		N06     An2 
	BYTE		N06     Dn3 
	BYTE	W06
	BYTE		        Dn1 
	BYTE		N06     An1 
	BYTE		N06     Dn2 
	BYTE		N06     An2 
	BYTE		N06     Dn3 
	BYTE	W06
	BYTE		        An0 
	BYTE		N06     En1 
	BYTE		N06     An1 
	BYTE		N06     En2 
	BYTE		N06     An2 
	BYTE	W06
	BYTE		        Dn1 
	BYTE		N06     An1 
	BYTE		N06     Dn2 
	BYTE		N06     An2 
	BYTE		N06     Dn3 
	BYTE	W06
	BYTE		N18     En1 
	BYTE		N18     Bn1 
	BYTE		N18     En2 
	BYTE		N18     Bn2 
	BYTE		N18     En3 
	BYTE	W18
// 044   ----------------------------------------
	BYTE	W96
// 045   ----------------------------------------
	BYTE	W96
// 046   ----------------------------------------
	BYTE	PATT
	 POIN2	AllHailShadow_1_003
// 047   ----------------------------------------
	BYTE	PATT
	 POIN2	AllHailShadow_1_002
// 048   ----------------------------------------
	BYTE	PATT
	 POIN2	AllHailShadow_1_003
// 049   ----------------------------------------
	BYTE	PATT
	 POIN2	AllHailShadow_1_004
// 050   ----------------------------------------
	BYTE	PATT
	 POIN2	AllHailShadow_1_003
// 051   ----------------------------------------
	BYTE	PATT
	 POIN2	AllHailShadow_1_006
// 052   ----------------------------------------
	BYTE	PATT
	 POIN2	AllHailShadow_1_007
// 053   ----------------------------------------
	BYTE	PATT
	 POIN2	AllHailShadow_1_008
// 054   ----------------------------------------
	BYTE		N06     Fn1   v100
	BYTE		N06     Fn2 
	BYTE	W06
	BYTE		        Bn0 
	BYTE		N06     Bn1 
	BYTE	W06
	BYTE		        Bn0 
	BYTE		N06     Bn1 
	BYTE	W06
	BYTE		        Fn1 
	BYTE		N06     Fn2 
	BYTE	W06
	BYTE		        Bn0 
	BYTE		N06     Bn1 
	BYTE	W06
	BYTE		        Bn0 
	BYTE		N06     Bn1 
	BYTE	W06
	BYTE		        Gn1 
	BYTE		N06     Gn2 
	BYTE	W12
	BYTE		        Fn1 
	BYTE		N06     Fn2 
	BYTE	W06
	BYTE		        Bn0 
	BYTE		N06     Bn1 
	BYTE	W06
	BYTE		        Bn0 
	BYTE		N06     Bn1 
	BYTE	W06
	BYTE		        Fn1 
	BYTE		N06     Fn2 
	BYTE	W06
	BYTE		        Bn0 
	BYTE		N06     Bn1 
	BYTE	W06
	BYTE		        Bn0 
	BYTE		N06     Bn1 
	BYTE	W06
	BYTE		        Fs1 
	BYTE		N06     Fs2 
	BYTE	W12
// 055   ----------------------------------------
	BYTE		        Fn1 
	BYTE		N06     Fn2 
	BYTE	W06
	BYTE		        Bn0 
	BYTE		N06     Bn1 
	BYTE	W06
	BYTE		        Bn0 
	BYTE		N06     Bn1 
	BYTE	W06
	BYTE		        Fn1 
	BYTE		N06     Fn2 
	BYTE	W06
	BYTE		        Bn0 
	BYTE		N06     Bn1 
	BYTE	W06
	BYTE		        Bn0 
	BYTE		N06     Bn1 
	BYTE	W06
	BYTE		        Gn1 
	BYTE		N06     Gn2 
	BYTE	W12
	BYTE		        Gn1   v072
	BYTE		N06     Bn1 
	BYTE		N06     Dn2 
	BYTE		N06     Gn2 
	BYTE		N06     Bn2 
	BYTE	W06
	BYTE		        Gn1 
	BYTE		N06     Bn1 
	BYTE		N06     Dn2 
	BYTE		N06     Gn2 
	BYTE		N06     Bn2 
	BYTE	W06
	BYTE		        Gn1 
	BYTE		N06     Bn1 
	BYTE		N06     Dn2 
	BYTE		N06     Gn2 
	BYTE		N06     Bn2 
	BYTE	W06
	BYTE		        Gn1 
	BYTE		N06     Bn1 
	BYTE		N06     Dn2 
	BYTE		N06     Gn2 
	BYTE		N06     Bn2 
	BYTE	W06
	BYTE		        Gn1 
	BYTE		N06     Bn1 
	BYTE		N06     Dn2 
	BYTE		N06     Gn2 
	BYTE		N06     Bn2 
	BYTE	W06
	BYTE		        Gn1 
	BYTE		N06     Bn1 
	BYTE		N06     Dn2 
	BYTE		N06     Gn2 
	BYTE		N06     Bn2 
	BYTE	W06
	BYTE		        Gn1 
	BYTE		N06     Bn1 
	BYTE		N06     Dn2 
	BYTE		N06     Gn2 
	BYTE		N06     Bn2 
	BYTE	W06
	BYTE		        Gn1 
	BYTE		N06     Bn1 
	BYTE		N06     Dn2 
	BYTE		N06     Gn2 
	BYTE		N06     Bn2 
	BYTE	W06
// 056   ----------------------------------------
AllHailShadow_1_056:
	BYTE		N06     Gn1   v072
	BYTE		N06     Bn1 
	BYTE		N06     Dn2 
	BYTE		N06     Gn2 
	BYTE		N06     Bn2 
	BYTE	W06
	BYTE		        Gn1 
	BYTE		N06     Bn1 
	BYTE		N06     Dn2 
	BYTE		N06     Gn2 
	BYTE		N06     Bn2 
	BYTE	W06
	BYTE		        Gn1 
	BYTE		N06     Bn1 
	BYTE		N06     Dn2 
	BYTE		N06     Gn2 
	BYTE		N06     Bn2 
	BYTE	W06
	BYTE		        Gn1 
	BYTE		N06     Bn1 
	BYTE		N06     Dn2 
	BYTE		N06     Gn2 
	BYTE		N06     Bn2 
	BYTE	W06
	BYTE		        Gn1 
	BYTE		N06     Bn1 
	BYTE		N06     Dn2 
	BYTE		N06     Gn2 
	BYTE		N06     Bn2 
	BYTE	W06
	BYTE		        Gn1 
	BYTE		N06     Bn1 
	BYTE		N06     Dn2 
	BYTE		N06     Gn2 
	BYTE		N06     Bn2 
	BYTE	W06
	BYTE		        Gn1 
	BYTE		N06     Bn1 
	BYTE		N06     Dn2 
	BYTE		N06     Gn2 
	BYTE		N06     Bn2 
	BYTE	W06
	BYTE		        Gn1 
	BYTE		N06     Bn1 
	BYTE		N06     Dn2 
	BYTE		N06     Gn2 
	BYTE		N06     Bn2 
	BYTE	W06
	BYTE		        Ds1 
	BYTE		N06     An1 
	BYTE		N06     Cs2 
	BYTE		N06     En2 
	BYTE		N06     An2 
	BYTE	W06
	BYTE		        Ds1 
	BYTE		N06     An1 
	BYTE		N06     Cs2 
	BYTE		N06     En2 
	BYTE		N06     An2 
	BYTE	W06
	BYTE		        Ds1 
	BYTE		N06     An1 
	BYTE		N06     Cs2 
	BYTE		N06     En2 
	BYTE		N06     An2 
	BYTE	W06
	BYTE		        Ds1 
	BYTE		N06     An1 
	BYTE		N06     Cs2 
	BYTE		N06     En2 
	BYTE		N06     An2 
	BYTE	W06
	BYTE		        Ds1 
	BYTE		N06     An1 
	BYTE		N06     Cs2 
	BYTE		N06     En2 
	BYTE		N06     An2 
	BYTE	W06
	BYTE		        Ds1 
	BYTE		N06     An1 
	BYTE		N06     Cs2 
	BYTE		N06     En2 
	BYTE		N06     An2 
	BYTE	W06
	BYTE		        Ds1 
	BYTE		N06     An1 
	BYTE		N06     Cs2 
	BYTE		N06     En2 
	BYTE		N06     An2 
	BYTE	W06
	BYTE		        Ds1 
	BYTE		N06     An1 
	BYTE		N06     Cs2 
	BYTE		N06     En2 
	BYTE		N06     An2 
	BYTE	W06
	BYTE	PEND
// 057   ----------------------------------------
AllHailShadow_1_057:
	BYTE		N06     Ds1   v072
	BYTE		N06     An1 
	BYTE		N06     Cs2 
	BYTE		N06     En2 
	BYTE		N06     An2 
	BYTE	W06
	BYTE		        Ds1 
	BYTE		N06     An1 
	BYTE		N06     Cs2 
	BYTE		N06     En2 
	BYTE		N06     An2 
	BYTE	W06
	BYTE		        Ds1 
	BYTE		N06     An1 
	BYTE		N06     Cs2 
	BYTE		N06     En2 
	BYTE		N06     An2 
	BYTE	W06
	BYTE		        Ds1 
	BYTE		N06     An1 
	BYTE		N06     Cs2 
	BYTE		N06     En2 
	BYTE		N06     An2 
	BYTE	W06
	BYTE		        Ds1 
	BYTE		N06     An1 
	BYTE		N06     Cs2 
	BYTE		N06     En2 
	BYTE		N06     An2 
	BYTE	W06
	BYTE		        Ds1 
	BYTE		N06     An1 
	BYTE		N06     Cs2 
	BYTE		N06     En2 
	BYTE		N06     An2 
	BYTE	W06
	BYTE		        Ds1 
	BYTE		N06     An1 
	BYTE		N06     Cs2 
	BYTE		N06     En2 
	BYTE		N06     An2 
	BYTE	W06
	BYTE		        Ds1 
	BYTE		N06     An1 
	BYTE		N06     Cs2 
	BYTE		N06     En2 
	BYTE		N06     An2 
	BYTE	W06
	BYTE		        Fs1 
	BYTE		N06     Bn1 
	BYTE		N06     Dn2 
	BYTE		N06     Fs2 
	BYTE		N06     Bn2 
	BYTE	W06
	BYTE		        Fs1 
	BYTE		N06     Bn1 
	BYTE		N06     Dn2 
	BYTE		N06     Fs2 
	BYTE		N06     Bn2 
	BYTE	W06
	BYTE		        Fs1 
	BYTE		N06     Bn1 
	BYTE		N06     Dn2 
	BYTE		N06     Fs2 
	BYTE		N06     Bn2 
	BYTE	W06
	BYTE		        Fs1 
	BYTE		N06     Bn1 
	BYTE		N06     Dn2 
	BYTE		N06     Fs2 
	BYTE		N06     Bn2 
	BYTE	W06
	BYTE		        Fs1 
	BYTE		N06     Bn1 
	BYTE		N06     Dn2 
	BYTE		N06     Fs2 
	BYTE		N06     Bn2 
	BYTE	W06
	BYTE		        Fs1 
	BYTE		N06     Bn1 
	BYTE		N06     Dn2 
	BYTE		N06     Fs2 
	BYTE		N06     Bn2 
	BYTE	W06
	BYTE		        Fs1 
	BYTE		N06     Bn1 
	BYTE		N06     Dn2 
	BYTE		N06     Fs2 
	BYTE		N06     Bn2 
	BYTE	W06
	BYTE		        Fs1 
	BYTE		N06     Bn1 
	BYTE		N06     Dn2 
	BYTE		N06     Fs2 
	BYTE		N06     Bn2 
	BYTE	W06
	BYTE	PEND
// 058   ----------------------------------------
	BYTE		        Fs1 
	BYTE		N06     Bn1 
	BYTE		N06     Dn2 
	BYTE		N06     Fs2 
	BYTE		N06     Bn2 
	BYTE	W06
	BYTE		        Fs1 
	BYTE		N06     Bn1 
	BYTE		N06     Dn2 
	BYTE		N06     Fs2 
	BYTE		N06     Bn2 
	BYTE	W06
	BYTE		        Fs1 
	BYTE		N06     Bn1 
	BYTE		N06     Dn2 
	BYTE		N06     Fs2 
	BYTE		N06     Bn2 
	BYTE	W06
	BYTE		        Fs1 
	BYTE		N06     Bn1 
	BYTE		N06     Dn2 
	BYTE		N06     Fs2 
	BYTE		N06     Bn2 
	BYTE	W06
	BYTE		        Fs1 
	BYTE		N06     Bn1 
	BYTE		N06     Dn2 
	BYTE		N06     Fs2 
	BYTE		N06     Bn2 
	BYTE	W06
	BYTE		        Fs1 
	BYTE		N06     Bn1 
	BYTE		N06     Dn2 
	BYTE		N06     Fs2 
	BYTE		N06     Bn2 
	BYTE	W06
	BYTE		        Fs1 
	BYTE		N06     Bn1 
	BYTE		N06     Dn2 
	BYTE		N06     Fs2 
	BYTE		N06     Bn2 
	BYTE	W06
	BYTE		        Fs1 
	BYTE		N06     Bn1 
	BYTE		N06     Dn2 
	BYTE		N06     Fs2 
	BYTE		N06     Bn2 
	BYTE	W06
	BYTE		        Ds1 
	BYTE		N06     An1 
	BYTE		N06     Cs2 
	BYTE		N06     En2 
	BYTE		N06     An2 
	BYTE	W06
	BYTE		        Ds1 
	BYTE		N06     An1 
	BYTE		N06     Cs2 
	BYTE		N06     En2 
	BYTE		N06     An2 
	BYTE	W06
	BYTE		        Ds1 
	BYTE		N06     An1 
	BYTE		N06     Cs2 
	BYTE		N06     En2 
	BYTE		N06     An2 
	BYTE	W06
	BYTE		        Ds1 
	BYTE		N06     An1 
	BYTE		N06     Cs2 
	BYTE		N06     En2 
	BYTE		N06     An2 
	BYTE	W06
	BYTE		        Ds1 
	BYTE		N06     An1 
	BYTE		N06     Cs2 
	BYTE		N06     En2 
	BYTE		N06     An2 
	BYTE	W06
	BYTE		        Ds1 
	BYTE		N06     An1 
	BYTE		N06     Cs2 
	BYTE		N06     En2 
	BYTE		N06     An2 
	BYTE	W06
	BYTE		        Ds1 
	BYTE		N06     An1 
	BYTE		N06     Cs2 
	BYTE		N06     En2 
	BYTE		N06     An2 
	BYTE	W06
	BYTE		        Ds1 
	BYTE		N06     An1 
	BYTE		N06     Cs2 
	BYTE		N06     En2 
	BYTE		N06     An2 
	BYTE	W06
// 059   ----------------------------------------
	BYTE		        Ds1 
	BYTE		N06     An1 
	BYTE		N06     Cs2 
	BYTE		N06     En2 
	BYTE		N06     An2 
	BYTE	W06
	BYTE		        Ds1 
	BYTE		N06     An1 
	BYTE		N06     Cs2 
	BYTE		N06     En2 
	BYTE		N06     An2 
	BYTE	W06
	BYTE		        Ds1 
	BYTE		N06     An1 
	BYTE		N06     Cs2 
	BYTE		N06     En2 
	BYTE		N06     An2 
	BYTE	W06
	BYTE		        Ds1 
	BYTE		N06     An1 
	BYTE		N06     Cs2 
	BYTE		N06     En2 
	BYTE		N06     An2 
	BYTE	W06
	BYTE		        Ds1 
	BYTE		N06     An1 
	BYTE		N06     Cs2 
	BYTE		N06     En2 
	BYTE		N06     An2 
	BYTE	W06
	BYTE		        Ds1 
	BYTE		N06     An1 
	BYTE		N06     Cs2 
	BYTE		N06     En2 
	BYTE		N06     An2 
	BYTE	W06
	BYTE		        Ds1 
	BYTE		N06     An1 
	BYTE		N06     Cs2 
	BYTE		N06     En2 
	BYTE		N06     An2 
	BYTE	W06
	BYTE		        Ds1 
	BYTE		N06     An1 
	BYTE		N06     Cs2 
	BYTE		N06     En2 
	BYTE		N06     An2 
	BYTE	W06
	BYTE		        Gn1 
	BYTE		N06     Bn1 
	BYTE		N06     Dn2 
	BYTE		N06     Gn2 
	BYTE		N06     Bn2 
	BYTE	W06
	BYTE		        Gn1 
	BYTE		N06     Bn1 
	BYTE		N06     Dn2 
	BYTE		N06     Gn2 
	BYTE		N06     Bn2 
	BYTE	W06
	BYTE		        Gn1 
	BYTE		N06     Bn1 
	BYTE		N06     Dn2 
	BYTE		N06     Gn2 
	BYTE		N06     Bn2 
	BYTE	W06
	BYTE		        Gn1 
	BYTE		N06     Bn1 
	BYTE		N06     Dn2 
	BYTE		N06     Gn2 
	BYTE		N06     Bn2 
	BYTE	W06
	BYTE		        Gn1 
	BYTE		N06     Bn1 
	BYTE		N06     Dn2 
	BYTE		N06     Gn2 
	BYTE		N06     Bn2 
	BYTE	W06
	BYTE		        Gn1 
	BYTE		N06     Bn1 
	BYTE		N06     Dn2 
	BYTE		N06     Gn2 
	BYTE		N06     Bn2 
	BYTE	W06
	BYTE		        Gn1 
	BYTE		N06     Bn1 
	BYTE		N06     Dn2 
	BYTE		N06     Gn2 
	BYTE		N06     Bn2 
	BYTE	W06
	BYTE		        Gn1 
	BYTE		N06     Bn1 
	BYTE		N06     Dn2 
	BYTE		N06     Gn2 
	BYTE		N06     Bn2 
	BYTE	W06
// 060   ----------------------------------------
	BYTE	PATT
	 POIN2	AllHailShadow_1_056
// 061   ----------------------------------------
	BYTE	PATT
	 POIN2	AllHailShadow_1_057
// 062   ----------------------------------------
	BYTE		N06     Fs1   v072
	BYTE		N06     Bn1 
	BYTE		N06     Dn2 
	BYTE		N06     Fs2 
	BYTE		N06     Bn2 
	BYTE	W06
	BYTE		        Fs1 
	BYTE		N06     Bn1 
	BYTE		N06     Dn2 
	BYTE		N06     Fs2 
	BYTE		N06     Bn2 
	BYTE	W06
	BYTE		        Fs1 
	BYTE		N06     Bn1 
	BYTE		N06     Dn2 
	BYTE		N06     Fs2 
	BYTE		N06     Bn2 
	BYTE	W06
	BYTE		        Fs1 
	BYTE		N06     Bn1 
	BYTE		N06     Dn2 
	BYTE		N06     Fs2 
	BYTE		N06     Bn2 
	BYTE	W06
	BYTE		        Fs1 
	BYTE		N06     Bn1 
	BYTE		N06     Dn2 
	BYTE		N06     Fs2 
	BYTE		N06     Bn2 
	BYTE	W06
	BYTE		        Fs1 
	BYTE		N06     Bn1 
	BYTE		N06     Dn2 
	BYTE		N06     Fs2 
	BYTE		N06     Bn2 
	BYTE	W06
	BYTE		        Fs1 
	BYTE		N06     Bn1 
	BYTE		N06     Dn2 
	BYTE		N06     Fs2 
	BYTE		N06     Bn2 
	BYTE	W06
	BYTE		        Fs1 
	BYTE		N06     Bn1 
	BYTE		N06     Dn2 
	BYTE		N06     Fs2 
	BYTE		N06     Bn2 
	BYTE	W06
	BYTE		        An1 
	BYTE		N06     Dn2 
	BYTE		N06     Fs2 
	BYTE		N06     An2 
	BYTE		N06     Dn3 
	BYTE	W06
	BYTE		        An1 
	BYTE		N06     Dn2 
	BYTE		N06     Fs2 
	BYTE		N06     An2 
	BYTE		N06     Dn3 
	BYTE	W06
	BYTE		        An1 
	BYTE		N06     Dn2 
	BYTE		N06     Fs2 
	BYTE		N06     An2 
	BYTE		N06     Dn3 
	BYTE	W06
	BYTE		        An1 
	BYTE		N06     Dn2 
	BYTE		N06     Fs2 
	BYTE		N06     An2 
	BYTE		N06     Dn3 
	BYTE	W06
	BYTE		        An1 
	BYTE		N06     Dn2 
	BYTE		N06     Fs2 
	BYTE		N06     An2 
	BYTE		N06     Dn3 
	BYTE	W06
	BYTE		        An1 
	BYTE		N06     Dn2 
	BYTE		N06     Fs2 
	BYTE		N06     An2 
	BYTE		N06     Dn3 
	BYTE	W06
	BYTE		        An1 
	BYTE		N06     Dn2 
	BYTE		N06     Fs2 
	BYTE		N06     An2 
	BYTE		N06     Dn3 
	BYTE	W06
	BYTE		        An1 
	BYTE		N06     Dn2 
	BYTE		N06     Fs2 
	BYTE		N06     An2 
	BYTE		N06     Dn3 
	BYTE	W06
// 063   ----------------------------------------
	BYTE		        An1 
	BYTE		N06     Dn2 
	BYTE		N06     Fs2 
	BYTE		N06     An2 
	BYTE		N06     Dn3 
	BYTE	W06
	BYTE		        An1 
	BYTE		N06     Dn2 
	BYTE		N06     Fs2 
	BYTE		N06     An2 
	BYTE		N06     Dn3 
	BYTE	W06
	BYTE		        An1 
	BYTE		N06     Dn2 
	BYTE		N06     Fs2 
	BYTE		N06     An2 
	BYTE		N06     Dn3 
	BYTE	W06
	BYTE		        An1 
	BYTE		N06     Dn2 
	BYTE		N06     Fs2 
	BYTE		N06     An2 
	BYTE		N06     Dn3 
	BYTE	W06
	BYTE		        An1 
	BYTE		N06     Dn2 
	BYTE		N06     Fs2 
	BYTE		N06     An2 
	BYTE		N06     Dn3 
	BYTE	W06
	BYTE		        An1 
	BYTE		N06     Dn2 
	BYTE		N06     Fs2 
	BYTE		N06     An2 
	BYTE		N06     Dn3 
	BYTE	W06
	BYTE		        An1 
	BYTE		N06     Dn2 
	BYTE		N06     Fs2 
	BYTE		N06     An2 
	BYTE		N06     Dn3 
	BYTE	W06
	BYTE		        An1 
	BYTE		N06     Dn2 
	BYTE		N06     Fs2 
	BYTE		N06     An2 
	BYTE		N06     Dn3 
	BYTE	W06
	BYTE		N42     Fs1   v100
	BYTE		N42     Bn1 
	BYTE		N42     Dn2 
	BYTE		N42     Fs2 
	BYTE		N42     Bn2 
	BYTE	W42
	BYTE		N54     Fs1 
	BYTE		N54     An1 
	BYTE		N54     Dn2 
	BYTE		N54     Fs2 
	BYTE		N54     An2 
	BYTE	W06
// 064   ----------------------------------------
	BYTE	PATT
	 POIN2	AllHailShadow_1_026
// 065   ----------------------------------------
	BYTE	PATT
	 POIN2	AllHailShadow_1_027
// 066   ----------------------------------------
	BYTE	PATT
	 POIN2	AllHailShadow_1_026
// 067   ----------------------------------------
	BYTE	PATT
	 POIN2	AllHailShadow_1_029
// 068   ----------------------------------------
	BYTE	PATT
	 POIN2	AllHailShadow_1_030
// 069   ----------------------------------------
	BYTE	PATT
	 POIN2	AllHailShadow_1_031
// 070   ----------------------------------------
	BYTE	PATT
	 POIN2	AllHailShadow_1_032
// 071   ----------------------------------------
	BYTE		N06     Fn1   v100
	BYTE		N06     Fn2 
	BYTE	W06
	BYTE		        Bn0 
	BYTE		N06     Bn1 
	BYTE	W06
	BYTE		        Bn0 
	BYTE		N06     Bn1 
	BYTE	W06
	BYTE		        Fn1 
	BYTE		N06     Fn2 
	BYTE	W06
	BYTE		        Bn0 
	BYTE		N06     Bn1 
	BYTE	W06
	BYTE		        Bn0 
	BYTE		N06     Bn1 
	BYTE	W06
	BYTE		        Fs1 
	BYTE		N06     Fs2 
	BYTE	W12
	BYTE		        Fn1 
	BYTE		N06     Fn2 
	BYTE	W06
	BYTE		        Bn0 
	BYTE		N06     Bn1 
	BYTE	W06
	BYTE		        Bn0 
	BYTE		N06     Bn1 
	BYTE	W06
	BYTE		        Fn1 
	BYTE		N06     Fn2 
	BYTE	W06
	BYTE		        Bn0 
	BYTE		N06     Bn1 
	BYTE	W06
	BYTE		        Bn0 
	BYTE		N06     Bn1 
	BYTE	W06
	BYTE		        Gn1 
	BYTE		N06     Gn2 
	BYTE	W10
	BYTE	W01
	BYTE	W01
// 072   ----------------------------------------
	BYTE		N12     Bn0 
	BYTE		N12     Fs1 
	BYTE		N12     Bn1 
	BYTE		N12     Fs2 
	BYTE		N12     Bn2 
	BYTE	W05
	BYTE		BEND    c_v+0
	BYTE	W01
	BYTE		        c_v-8
	BYTE	W01
	BYTE		        c_v-21
	BYTE	W01
	BYTE		        c_v-29
	BYTE	W01
	BYTE		        c_v-37
	BYTE	W01
	BYTE		        c_v-46
	BYTE	W01
	BYTE		        c_v-54
	BYTE	W01
	BYTE		        c_v-63
	BYTE	FINE

//**************** Track 2 (Midi-Chn.2) ****************//

AllHailShadow_2:
	BYTE	KEYSH   AllHailShadow_key+0
// 000   ----------------------------------------
	BYTE		VOICE   33
	BYTE		VOL     127*AllHailShadow_mvl/mxv
	BYTE	W96
// 001   ----------------------------------------
AllHailShadow_2_001:
	BYTE		N06     Bn0   v100
	BYTE	W06
	BYTE		N06   
	BYTE	W06
	BYTE		        En1 
	BYTE	W06
	BYTE		        Dn1 
	BYTE	W06
	BYTE		        Fs1 
	BYTE	W06
	BYTE		N12     Dn1 
	BYTE	W12
	BYTE		N12   
	BYTE	W12
	BYTE		N06   
	BYTE	W06
	BYTE		        Fs1 
	BYTE	W06
	BYTE		        Dn1 
	BYTE	W06
	BYTE		        Gn1 
	BYTE	W06
	BYTE		N18     An1 
	BYTE	W18
	BYTE	PEND
// 002   ----------------------------------------
AllHailShadow_2_002:
	BYTE		N06     Gn0   v100
	BYTE	W06
	BYTE		N12   
	BYTE	W12
	BYTE		N12   
	BYTE	W12
	BYTE		N06   
	BYTE	W06
	BYTE		N06   
	BYTE	W06
	BYTE		N12     Fs0 
	BYTE	W12
	BYTE		N06   
	BYTE	W06
	BYTE		N06   
	BYTE	W06
	BYTE		N06   
	BYTE	W06
	BYTE		        Fn0 
	BYTE	W12
	BYTE		        En0 
	BYTE	W12
	BYTE	PEND
// 003   ----------------------------------------
	BYTE	PATT
	 POIN2	AllHailShadow_2_001
// 004   ----------------------------------------
	BYTE	PATT
	 POIN2	AllHailShadow_2_002
// 005   ----------------------------------------
	BYTE	PATT
	 POIN2	AllHailShadow_2_001
// 006   ----------------------------------------
AllHailShadow_2_006:
	BYTE		N12     Gn0   v100
	BYTE	W12
	BYTE		N06     An0 
	BYTE	W06
	BYTE		        Gn0 
	BYTE	W06
	BYTE		        Bn0 
	BYTE	W06
	BYTE		N12     Gn0 
	BYTE	W12
	BYTE		        An0 
	BYTE	W12
	BYTE		N06   
	BYTE	W06
	BYTE		        Cs1 
	BYTE	W06
	BYTE		        An0 
	BYTE	W06
	BYTE		        Dn1 
	BYTE	W06
	BYTE		N18     En1 
	BYTE	W18
	BYTE	PEND
// 007   ----------------------------------------
AllHailShadow_2_007:
	BYTE		N18     Bn0   v100
	BYTE	W18
	BYTE		N24     An0 
	BYTE	W24
	BYTE		N42     Gn0 
	BYTE	W42
	BYTE		N06     Bn0 
	BYTE	W06
	BYTE		N24     Cn1 
	BYTE	W06
	BYTE	PEND
// 008   ----------------------------------------
AllHailShadow_2_008:
	BYTE	W18
	BYTE		N06     Bn1   v100
	BYTE	W06
	BYTE		N24     Cn2 
	BYTE	W24
	BYTE		N06     Fn1 
	BYTE	W06
	BYTE		        Bn0 
	BYTE	W06
	BYTE		N06   
	BYTE	W06
	BYTE		        Fn1 
	BYTE	W06
	BYTE		        Bn0 
	BYTE	W06
	BYTE		N06   
	BYTE	W06
	BYTE		        Fs1 
	BYTE	W12
	BYTE	PEND
// 009   ----------------------------------------
	BYTE		        Fn1 
	BYTE	W06
	BYTE		        Bn0 
	BYTE	W06
	BYTE		N06   
	BYTE	W06
	BYTE		        Fn1 
	BYTE	W06
	BYTE		        Bn0 
	BYTE	W06
	BYTE		N06   
	BYTE	W06
	BYTE		        Gn1 
	BYTE	W12
	BYTE		        Bn0 
	BYTE	W06
	BYTE		N06   
	BYTE	W06
	BYTE		N06   
	BYTE	W06
	BYTE		N06   
	BYTE	W06
	BYTE		N06   
	BYTE	W06
	BYTE		        Dn0 
	BYTE	W06
	BYTE		N12     Fs0 
	BYTE	W12
// 010   ----------------------------------------
AllHailShadow_2_010:
	BYTE		N06     Gn0   v100
	BYTE	W06
	BYTE		N06   
	BYTE	W06
	BYTE		N06   
	BYTE	W06
	BYTE		N06   
	BYTE	W18
	BYTE		N12   
	BYTE	W12
	BYTE		N06     An0 
	BYTE	W06
	BYTE		N06   
	BYTE	W06
	BYTE		N06   
	BYTE	W06
	BYTE		N06   
	BYTE	W06
	BYTE		N06   
	BYTE	W06
	BYTE		        Gn0 
	BYTE	W06
	BYTE		N12     An0 
	BYTE	W12
	BYTE	PEND
// 011   ----------------------------------------
AllHailShadow_2_011:
	BYTE		N06     En0   v100
	BYTE	W06
	BYTE		N06   
	BYTE	W06
	BYTE		N06   
	BYTE	W06
	BYTE		N12   
	BYTE	W12
	BYTE		N06   
	BYTE	W06
	BYTE		N12     Dn1 
	BYTE	W12
	BYTE		N06     Bn0 
	BYTE	W06
	BYTE		N06   
	BYTE	W06
	BYTE		N06   
	BYTE	W06
	BYTE		N06   
	BYTE	W06
	BYTE		N06   
	BYTE	W06
	BYTE		        Dn0 
	BYTE	W06
	BYTE		N12     Fs0 
	BYTE	W12
	BYTE	PEND
// 012   ----------------------------------------
	BYTE	PATT
	 POIN2	AllHailShadow_2_010
// 013   ----------------------------------------
	BYTE	PATT
	 POIN2	AllHailShadow_2_011
// 014   ----------------------------------------
	BYTE	PATT
	 POIN2	AllHailShadow_2_010
// 015   ----------------------------------------
	BYTE	PATT
	 POIN2	AllHailShadow_2_011
// 016   ----------------------------------------
	BYTE		N06     Gn0   v100
	BYTE	W06
	BYTE		N06   
	BYTE	W06
	BYTE		N06   
	BYTE	W06
	BYTE		N06   
	BYTE	W18
	BYTE		N12   
	BYTE	W12
	BYTE		N48     En0 
	BYTE	W48
// 017   ----------------------------------------
	BYTE		N06     Fs0 
	BYTE	W06
	BYTE		N06   
	BYTE	W06
	BYTE		N06   
	BYTE	W06
	BYTE		N12   
	BYTE	W12
	BYTE		N06   
	BYTE	W06
	BYTE		N12     Dn1 
	BYTE	W12
	BYTE		N06     Bn0 
	BYTE	W06
	BYTE		N06   
	BYTE	W06
	BYTE		N06   
	BYTE	W06
	BYTE		N06   
	BYTE	W06
	BYTE		N06   
	BYTE	W06
	BYTE		        Dn0 
	BYTE	W06
	BYTE		N12     Fs0 
	BYTE	W12
// 018   ----------------------------------------
	BYTE	PATT
	 POIN2	AllHailShadow_2_010
// 019   ----------------------------------------
	BYTE	PATT
	 POIN2	AllHailShadow_2_011
// 020   ----------------------------------------
	BYTE	PATT
	 POIN2	AllHailShadow_2_010
// 021   ----------------------------------------
	BYTE		N12     Fs0   v100
	BYTE	W12
	BYTE		N06     En0 
	BYTE	W06
	BYTE		N12     Fs0 
	BYTE	W12
	BYTE		N06     Gn0 
	BYTE	W06
	BYTE		N12     An0 
	BYTE	W12
	BYTE		N06     Gn1 
	BYTE	W06
	BYTE		N06   
	BYTE	W06
	BYTE		        Fs1 
	BYTE	W06
	BYTE		N06   
	BYTE	W06
	BYTE		        En1 
	BYTE	W06
	BYTE		N06   
	BYTE	W06
	BYTE		        Dn1 
	BYTE	W06
	BYTE		N06   
	BYTE	W06
// 022   ----------------------------------------
	BYTE		        Cs1 
	BYTE	W06
	BYTE		N06   
	BYTE	W06
	BYTE		        Bn0 
	BYTE	W06
	BYTE		N06   
	BYTE	W06
	BYTE		        An0 
	BYTE	W06
	BYTE		N06   
	BYTE	W06
	BYTE		        Gn0 
	BYTE	W06
	BYTE		N06   
	BYTE	W06
	BYTE		        An0 
	BYTE	W06
	BYTE		        Bn0 
	BYTE	W06
	BYTE		N06   
	BYTE	W06
	BYTE		        An0 
	BYTE	W06
	BYTE		        Bn0 
	BYTE	W06
	BYTE		N06   
	BYTE	W06
	BYTE		        An0 
	BYTE	W06
	BYTE		        Bn0 
	BYTE	W06
// 023   ----------------------------------------
	BYTE		        Dn1 
	BYTE	W06
	BYTE		N06   
	BYTE	W06
	BYTE		N06   
	BYTE	W06
	BYTE		        An0 
	BYTE	W06
	BYTE		        Dn1 
	BYTE	W06
	BYTE		N18     En1 
	BYTE	W18
	BYTE		N06     Gn1 
	BYTE	W06
	BYTE		N06   
	BYTE	W06
	BYTE		        Fs1 
	BYTE	W06
	BYTE		N06   
	BYTE	W06
	BYTE		        En1 
	BYTE	W06
	BYTE		N06   
	BYTE	W06
	BYTE		        Dn1 
	BYTE	W06
	BYTE		N06   
	BYTE	W06
// 024   ----------------------------------------
	BYTE		        Cs1 
	BYTE	W06
	BYTE		N06   
	BYTE	W06
	BYTE		        Bn0 
	BYTE	W06
	BYTE		N06   
	BYTE	W06
	BYTE		        An0 
	BYTE	W06
	BYTE		N06   
	BYTE	W06
	BYTE		        Gn0 
	BYTE	W06
	BYTE		N06   
	BYTE	W06
	BYTE		        Cn1 
	BYTE	W06
	BYTE		N06   
	BYTE	W06
	BYTE		N06   
	BYTE	W06
	BYTE		N12     Gn1 
	BYTE	W12
	BYTE		N06     Cn1 
	BYTE	W06
	BYTE		N06   
	BYTE	W06
	BYTE		N12     Cn2 
	BYTE	W06
// 025   ----------------------------------------
	BYTE	W06
	BYTE		N06     Gn1 
	BYTE	W06
	BYTE		        Cn1 
	BYTE	W06
	BYTE		N06   
	BYTE	W06
	BYTE		        Gn1 
	BYTE	W12
	BYTE		N12     Cn2 
	BYTE	W12
	BYTE		N06     Bn0 
	BYTE	W06
	BYTE		N06   
	BYTE	W06
	BYTE		        En1 
	BYTE	W06
	BYTE		        Dn1 
	BYTE	W06
	BYTE		        Fs1 
	BYTE	W06
	BYTE		N12     Dn1 
	BYTE	W12
	BYTE		N12   
	BYTE	W06
// 026   ----------------------------------------
AllHailShadow_2_026:
	BYTE	W06
	BYTE		N06     Dn1   v100
	BYTE	W06
	BYTE		        Fs1 
	BYTE	W06
	BYTE		        Dn1 
	BYTE	W06
	BYTE		        Gn1 
	BYTE	W06
	BYTE		N18     An1 
	BYTE	W18
	BYTE		N06     Gn0 
	BYTE	W06
	BYTE		N12   
	BYTE	W12
	BYTE		N12   
	BYTE	W12
	BYTE		N06   
	BYTE	W06
	BYTE		N06   
	BYTE	W06
	BYTE		N12     Fs0 
	BYTE	W06
	BYTE	PEND
// 027   ----------------------------------------
AllHailShadow_2_027:
	BYTE	W06
	BYTE		N06     Fs0   v100
	BYTE	W06
	BYTE		N06   
	BYTE	W06
	BYTE		N06   
	BYTE	W06
	BYTE		        Fn0 
	BYTE	W12
	BYTE		        En0 
	BYTE	W12
	BYTE		        Bn0 
	BYTE	W06
	BYTE		N06   
	BYTE	W06
	BYTE		        En1 
	BYTE	W06
	BYTE		        Dn1 
	BYTE	W06
	BYTE		        Fs1 
	BYTE	W06
	BYTE		N12     Dn1 
	BYTE	W12
	BYTE		N12   
	BYTE	W06
	BYTE	PEND
// 028   ----------------------------------------
	BYTE	PATT
	 POIN2	AllHailShadow_2_026
// 029   ----------------------------------------
	BYTE	PATT
	 POIN2	AllHailShadow_2_027
// 030   ----------------------------------------
AllHailShadow_2_030:
	BYTE	W06
	BYTE		N06     Dn1   v100
	BYTE	W06
	BYTE		        Fs1 
	BYTE	W06
	BYTE		        Dn1 
	BYTE	W06
	BYTE		        Gn1 
	BYTE	W06
	BYTE		N18     An1 
	BYTE	W18
	BYTE		N12     Gn0 
	BYTE	W12
	BYTE		N06     An0 
	BYTE	W06
	BYTE		        Gn0 
	BYTE	W06
	BYTE		        Bn0 
	BYTE	W06
	BYTE		N12     Gn0 
	BYTE	W12
	BYTE		        An0 
	BYTE	W06
	BYTE	PEND
// 031   ----------------------------------------
AllHailShadow_2_031:
	BYTE	W06
	BYTE		N06     An0   v100
	BYTE	W06
	BYTE		        Cs1 
	BYTE	W06
	BYTE		        An0 
	BYTE	W06
	BYTE		        Dn1 
	BYTE	W06
	BYTE		N18     En1 
	BYTE	W18
	BYTE		        Bn0 
	BYTE	W18
	BYTE		N24     An0 
	BYTE	W24
	BYTE		N42     Gn0 
	BYTE	W06
	BYTE	PEND
// 032   ----------------------------------------
AllHailShadow_2_032:
	BYTE	W36
	BYTE		N06     Bn0   v100
	BYTE	W06
	BYTE		N24     Cn1 
	BYTE	W24
	BYTE		N06     Bn1 
	BYTE	W06
	BYTE		N24     Cn2 
	BYTE	W24
	BYTE	PEND
// 033   ----------------------------------------
	BYTE		N06     Fn1 
	BYTE	W06
	BYTE		        Bn0 
	BYTE	W06
	BYTE		N06   
	BYTE	W06
	BYTE		        Fn1 
	BYTE	W06
	BYTE		        Bn0 
	BYTE	W06
	BYTE		N06   
	BYTE	W06
	BYTE		        Fs1 
	BYTE	W12
	BYTE		        Fn1 
	BYTE	W06
	BYTE		        Bn0 
	BYTE	W06
	BYTE		N06   
	BYTE	W06
	BYTE		        Fn1 
	BYTE	W06
	BYTE		        Bn0 
	BYTE	W06
	BYTE		N06   
	BYTE	W06
	BYTE		        Gn1 
	BYTE	W12
// 034   ----------------------------------------
AllHailShadow_2_034:
	BYTE		N06     Bn0   v100
	BYTE	W06
	BYTE		N06   
	BYTE	W06
	BYTE		N06   
	BYTE	W06
	BYTE		N06   
	BYTE	W06
	BYTE		N06   
	BYTE	W06
	BYTE		        Dn0 
	BYTE	W06
	BYTE		N12     Fs0 
	BYTE	W12
	BYTE		N06     Gn0 
	BYTE	W06
	BYTE		N06   
	BYTE	W06
	BYTE		N06   
	BYTE	W06
	BYTE		N06   
	BYTE	W18
	BYTE		N12   
	BYTE	W12
	BYTE	PEND
// 035   ----------------------------------------
AllHailShadow_2_035:
	BYTE		N06     An0   v100
	BYTE	W06
	BYTE		N06   
	BYTE	W06
	BYTE		N06   
	BYTE	W06
	BYTE		N06   
	BYTE	W06
	BYTE		N06   
	BYTE	W06
	BYTE		        Gn0 
	BYTE	W06
	BYTE		N12     An0 
	BYTE	W12
	BYTE		N06     En0 
	BYTE	W06
	BYTE		N06   
	BYTE	W06
	BYTE		N06   
	BYTE	W06
	BYTE		N12   
	BYTE	W12
	BYTE		N06   
	BYTE	W06
	BYTE		N12     Dn1 
	BYTE	W12
	BYTE	PEND
// 036   ----------------------------------------
	BYTE	PATT
	 POIN2	AllHailShadow_2_034
// 037   ----------------------------------------
	BYTE		N48     En0   v100
	BYTE	W48
	BYTE		N06     Fs0 
	BYTE	W06
	BYTE		N06   
	BYTE	W06
	BYTE		N06   
	BYTE	W06
	BYTE		N12   
	BYTE	W12
	BYTE		N06   
	BYTE	W06
	BYTE		N12     Dn1 
	BYTE	W12
// 038   ----------------------------------------
	BYTE	PATT
	 POIN2	AllHailShadow_2_034
// 039   ----------------------------------------
	BYTE	PATT
	 POIN2	AllHailShadow_2_035
// 040   ----------------------------------------
	BYTE	PATT
	 POIN2	AllHailShadow_2_034
// 041   ----------------------------------------
	BYTE		N06     An0   v100
	BYTE	W06
	BYTE		N06   
	BYTE	W06
	BYTE		N06   
	BYTE	W06
	BYTE		N06   
	BYTE	W06
	BYTE		N06   
	BYTE	W06
	BYTE		        Gn0 
	BYTE	W06
	BYTE		N12     An0 
	BYTE	W12
	BYTE		        Fs0 
	BYTE	W12
	BYTE		N06     En0 
	BYTE	W06
	BYTE		N12     Fs0 
	BYTE	W12
	BYTE		N06     Gn0 
	BYTE	W06
	BYTE		N12     An0 
	BYTE	W12
// 042   ----------------------------------------
AllHailShadow_2_042:
	BYTE		N06     Gn1   v100
	BYTE	W06
	BYTE		N06   
	BYTE	W06
	BYTE		        Fs1 
	BYTE	W06
	BYTE		N06   
	BYTE	W06
	BYTE		        En1 
	BYTE	W06
	BYTE		N06   
	BYTE	W06
	BYTE		        Dn1 
	BYTE	W06
	BYTE		N06   
	BYTE	W06
	BYTE		        Cs1 
	BYTE	W06
	BYTE		N06   
	BYTE	W06
	BYTE		        Bn0 
	BYTE	W06
	BYTE		N06   
	BYTE	W06
	BYTE		        An0 
	BYTE	W06
	BYTE		N06   
	BYTE	W06
	BYTE		        Gn0 
	BYTE	W06
	BYTE		N06   
	BYTE	W06
	BYTE	PEND
// 043   ----------------------------------------
	BYTE		        An0 
	BYTE	W06
	BYTE		        Bn0 
	BYTE	W06
	BYTE		N06   
	BYTE	W06
	BYTE		        An0 
	BYTE	W06
	BYTE		        Bn0 
	BYTE	W06
	BYTE		N06   
	BYTE	W06
	BYTE		        An0 
	BYTE	W06
	BYTE		        Bn0 
	BYTE	W06
	BYTE		        Dn1 
	BYTE	W06
	BYTE		N06   
	BYTE	W06
	BYTE		N06   
	BYTE	W06
	BYTE		        An0 
	BYTE	W06
	BYTE		        Dn1 
	BYTE	W06
	BYTE		N18     En1 
	BYTE	W18
// 044   ----------------------------------------
	BYTE	PATT
	 POIN2	AllHailShadow_2_042
// 045   ----------------------------------------
	BYTE		N06     Cn1   v100
	BYTE	W06
	BYTE		N06   
	BYTE	W06
	BYTE		N06   
	BYTE	W06
	BYTE		N12     Gn1 
	BYTE	W12
	BYTE		N06     Cn1 
	BYTE	W06
	BYTE		N06   
	BYTE	W06
	BYTE		N12     Cn2 
	BYTE	W12
	BYTE		N06     Gn1 
	BYTE	W06
	BYTE		        Cn1 
	BYTE	W06
	BYTE		N06   
	BYTE	W06
	BYTE		        Gn1 
	BYTE	W24
// 046   ----------------------------------------
	BYTE	PATT
	 POIN2	AllHailShadow_2_001
// 047   ----------------------------------------
	BYTE	PATT
	 POIN2	AllHailShadow_2_002
// 048   ----------------------------------------
	BYTE	PATT
	 POIN2	AllHailShadow_2_001
// 049   ----------------------------------------
	BYTE	PATT
	 POIN2	AllHailShadow_2_002
// 050   ----------------------------------------
	BYTE	PATT
	 POIN2	AllHailShadow_2_001
// 051   ----------------------------------------
	BYTE	PATT
	 POIN2	AllHailShadow_2_006
// 052   ----------------------------------------
	BYTE	PATT
	 POIN2	AllHailShadow_2_007
// 053   ----------------------------------------
	BYTE	PATT
	 POIN2	AllHailShadow_2_008
// 054   ----------------------------------------
	BYTE		N06     Fn1   v100
	BYTE	W06
	BYTE		        Bn0 
	BYTE	W06
	BYTE		N06   
	BYTE	W06
	BYTE		        Fn1 
	BYTE	W06
	BYTE		        Bn0 
	BYTE	W06
	BYTE		N06   
	BYTE	W06
	BYTE		        Gn1 
	BYTE	W12
	BYTE		        Fn1 
	BYTE	W06
	BYTE		        Bn0 
	BYTE	W06
	BYTE		N06   
	BYTE	W06
	BYTE		        Fn1 
	BYTE	W06
	BYTE		        Bn0 
	BYTE	W06
	BYTE		N06   
	BYTE	W06
	BYTE		        Fs1 
	BYTE	W12
// 055   ----------------------------------------
	BYTE		        Fn1 
	BYTE	W06
	BYTE		        Bn0 
	BYTE	W06
	BYTE		N06   
	BYTE	W06
	BYTE		        Fn1 
	BYTE	W06
	BYTE		        Bn0 
	BYTE	W06
	BYTE		N06   
	BYTE	W06
	BYTE		        Gn1 
	BYTE	W12
	BYTE		N06   
	BYTE	W06
	BYTE		N06   
	BYTE	W06
	BYTE		N06   
	BYTE	W06
	BYTE		N06   
	BYTE	W06
	BYTE		N06   
	BYTE	W06
	BYTE		N06   
	BYTE	W06
	BYTE		N06   
	BYTE	W06
	BYTE		N06   
	BYTE	W06
// 056   ----------------------------------------
	BYTE		N06   
	BYTE	W06
	BYTE		N06   
	BYTE	W06
	BYTE		N06   
	BYTE	W06
	BYTE		N06   
	BYTE	W06
	BYTE		N06   
	BYTE	W06
	BYTE		N06   
	BYTE	W06
	BYTE		N06   
	BYTE	W06
	BYTE		N06   
	BYTE	W06
	BYTE		        Cs1 
	BYTE	W06
	BYTE		N06   
	BYTE	W06
	BYTE		N06   
	BYTE	W06
	BYTE		N06   
	BYTE	W06
	BYTE		N06   
	BYTE	W06
	BYTE		N06   
	BYTE	W06
	BYTE		N06   
	BYTE	W06
	BYTE		N06   
	BYTE	W06
// 057   ----------------------------------------
	BYTE		N06   
	BYTE	W06
	BYTE		N06   
	BYTE	W06
	BYTE		N06   
	BYTE	W06
	BYTE		N06   
	BYTE	W06
	BYTE		N06   
	BYTE	W06
	BYTE		N06   
	BYTE	W06
	BYTE		N06   
	BYTE	W06
	BYTE		N06   
	BYTE	W06
	BYTE		        Bn0 
	BYTE	W06
	BYTE		N06   
	BYTE	W06
	BYTE		N06   
	BYTE	W06
	BYTE		N06   
	BYTE	W06
	BYTE		N06   
	BYTE	W06
	BYTE		N06   
	BYTE	W06
	BYTE		N06   
	BYTE	W06
	BYTE		N06   
	BYTE	W06
// 058   ----------------------------------------
	BYTE		N06   
	BYTE	W06
	BYTE		N06   
	BYTE	W06
	BYTE		N06   
	BYTE	W06
	BYTE		N06   
	BYTE	W06
	BYTE		N06   
	BYTE	W06
	BYTE		N06   
	BYTE	W06
	BYTE		N06   
	BYTE	W06
	BYTE		N06   
	BYTE	W06
	BYTE		        An0 
	BYTE	W06
	BYTE		N06   
	BYTE	W06
	BYTE		N06   
	BYTE	W06
	BYTE		N06   
	BYTE	W06
	BYTE		N06   
	BYTE	W06
	BYTE		N06   
	BYTE	W06
	BYTE		N06   
	BYTE	W06
	BYTE		N06   
	BYTE	W06
// 059   ----------------------------------------
	BYTE		N06   
	BYTE	W06
	BYTE		N06   
	BYTE	W06
	BYTE		N06   
	BYTE	W06
	BYTE		N06   
	BYTE	W06
	BYTE		N06   
	BYTE	W06
	BYTE		N06   
	BYTE	W06
	BYTE		N06   
	BYTE	W06
	BYTE		N06   
	BYTE	W06
	BYTE		        Gn0   v072
	BYTE	W06
	BYTE		N06   
	BYTE	W06
	BYTE		N06   
	BYTE	W06
	BYTE		N06   
	BYTE	W06
	BYTE		N06   
	BYTE	W06
	BYTE		N06   
	BYTE	W06
	BYTE		N06   
	BYTE	W06
	BYTE		N06   
	BYTE	W06
// 060   ----------------------------------------
	BYTE		N06   
	BYTE	W06
	BYTE		N06   
	BYTE	W06
	BYTE		N06   
	BYTE	W06
	BYTE		N06   
	BYTE	W06
	BYTE		N06   
	BYTE	W06
	BYTE		N06   
	BYTE	W06
	BYTE		N06   
	BYTE	W06
	BYTE		N06   
	BYTE	W06
	BYTE		        Cs1 
	BYTE	W06
	BYTE		N06   
	BYTE	W06
	BYTE		N06   
	BYTE	W06
	BYTE		N06   
	BYTE	W06
	BYTE		N06   
	BYTE	W06
	BYTE		N06   
	BYTE	W06
	BYTE		N06   
	BYTE	W06
	BYTE		N06   
	BYTE	W06
// 061   ----------------------------------------
	BYTE		N06   
	BYTE	W06
	BYTE		N06   
	BYTE	W06
	BYTE		N06   
	BYTE	W06
	BYTE		N06   
	BYTE	W06
	BYTE		N06   
	BYTE	W06
	BYTE		N06   
	BYTE	W06
	BYTE		N06   
	BYTE	W06
	BYTE		N06   
	BYTE	W06
	BYTE		        Bn0 
	BYTE	W06
	BYTE		N06   
	BYTE	W06
	BYTE		N06   
	BYTE	W06
	BYTE		N06   
	BYTE	W06
	BYTE		N06   
	BYTE	W06
	BYTE		N06   
	BYTE	W06
	BYTE		N06   
	BYTE	W06
	BYTE		N06   
	BYTE	W06
// 062   ----------------------------------------
	BYTE		N06   
	BYTE	W06
	BYTE		N06   
	BYTE	W06
	BYTE		N06   
	BYTE	W06
	BYTE		N06   
	BYTE	W06
	BYTE		N06   
	BYTE	W06
	BYTE		N06   
	BYTE	W06
	BYTE		N06   
	BYTE	W06
	BYTE		N06   
	BYTE	W06
	BYTE		        Dn1 
	BYTE	W06
	BYTE		N06   
	BYTE	W06
	BYTE		N06   
	BYTE	W06
	BYTE		N06   
	BYTE	W06
	BYTE		        En1 
	BYTE	W06
	BYTE		N06   
	BYTE	W06
	BYTE		N06   
	BYTE	W06
	BYTE		N06   
	BYTE	W06
// 063   ----------------------------------------
	BYTE		        Fs1 
	BYTE	W06
	BYTE		N06   
	BYTE	W06
	BYTE		N06   
	BYTE	W06
	BYTE		N06   
	BYTE	W06
	BYTE		N06   
	BYTE	W06
	BYTE		N06   
	BYTE	W06
	BYTE		N06   
	BYTE	W06
	BYTE		N06   
	BYTE	W06
	BYTE		        Bn0   v100
	BYTE	W06
	BYTE		N06   
	BYTE	W06
	BYTE		        En1 
	BYTE	W06
	BYTE		        Dn1 
	BYTE	W06
	BYTE		        Fs1 
	BYTE	W06
	BYTE		N12     Dn1 
	BYTE	W12
	BYTE		N12   
	BYTE	W06
// 064   ----------------------------------------
	BYTE	PATT
	 POIN2	AllHailShadow_2_026
// 065   ----------------------------------------
	BYTE	PATT
	 POIN2	AllHailShadow_2_027
// 066   ----------------------------------------
	BYTE	PATT
	 POIN2	AllHailShadow_2_026
// 067   ----------------------------------------
	BYTE	PATT
	 POIN2	AllHailShadow_2_027
// 068   ----------------------------------------
	BYTE	PATT
	 POIN2	AllHailShadow_2_030
// 069   ----------------------------------------
	BYTE	PATT
	 POIN2	AllHailShadow_2_031
// 070   ----------------------------------------
	BYTE	PATT
	 POIN2	AllHailShadow_2_032
// 071   ----------------------------------------
	BYTE		N06     Fn1   v100
	BYTE	W06
	BYTE		        Bn0 
	BYTE	W06
	BYTE		N06   
	BYTE	W06
	BYTE		        Fn1 
	BYTE	W06
	BYTE		        Bn0 
	BYTE	W06
	BYTE		N06   
	BYTE	W06
	BYTE		        Fs1 
	BYTE	W12
	BYTE		        Fn1 
	BYTE	W06
	BYTE		        Bn0 
	BYTE	W06
	BYTE		N06   
	BYTE	W06
	BYTE		        Fn1 
	BYTE	W06
	BYTE		        Bn0 
	BYTE	W06
	BYTE		N06   
	BYTE	W06
	BYTE		        Gn1 
	BYTE	W06
	BYTE	FINE

//**************** Track 3 (Midi-Chn.3) ****************//

AllHailShadow_3:
	BYTE	KEYSH   AllHailShadow_key+0
// 000   ----------------------------------------
	BYTE		VOICE   18
	BYTE		VOL     100*AllHailShadow_mvl/mxv
	BYTE	W96
// 001   ----------------------------------------
AllHailShadow_3_001:
	BYTE		N48     An4   v100
	BYTE		N48     Dn5 
	BYTE	W48
	BYTE		        An4 
	BYTE		N48     Dn5 
	BYTE	W48
	BYTE	PEND
// 002   ----------------------------------------
AllHailShadow_3_002:
	BYTE		N42     An4   v100
	BYTE		N36     Dn5 
	BYTE	W36
	BYTE		N06     En5 
	BYTE	W06
	BYTE		N54     Fs4 
	BYTE		N54     Cs5 
	BYTE	W54
	BYTE	PEND
// 003   ----------------------------------------
	BYTE	PATT
	 POIN2	AllHailShadow_3_001
// 004   ----------------------------------------
AllHailShadow_3_004:
	BYTE		N42     An4   v100
	BYTE		N42     Dn5 
	BYTE	W42
	BYTE		N54     Fs4 
	BYTE		N54     Cs5 
	BYTE	W54
	BYTE	PEND
// 005   ----------------------------------------
	BYTE	PATT
	 POIN2	AllHailShadow_3_001
// 006   ----------------------------------------
AllHailShadow_3_006:
	BYTE		N42     An4   v100
	BYTE		N42     Dn5 
	BYTE	W42
	BYTE		        An4 
	BYTE		N42     Cs5 
	BYTE	W42
	BYTE		N12     An4 
	BYTE		N12     Dn5 
	BYTE	W12
	BYTE	PEND
// 007   ----------------------------------------
	BYTE	W96
// 008   ----------------------------------------
	BYTE	W96
// 009   ----------------------------------------
	BYTE	W96
// 010   ----------------------------------------
	BYTE	W96
// 011   ----------------------------------------
	BYTE	W96
// 012   ----------------------------------------
	BYTE	W96
// 013   ----------------------------------------
	BYTE	W96
// 014   ----------------------------------------
	BYTE	W96
// 015   ----------------------------------------
	BYTE	W96
// 016   ----------------------------------------
	BYTE	W96
// 017   ----------------------------------------
	BYTE	W96
// 018   ----------------------------------------
	BYTE	W96
// 019   ----------------------------------------
	BYTE	W96
// 020   ----------------------------------------
	BYTE	W96
// 021   ----------------------------------------
	BYTE	W96
// 022   ----------------------------------------
	BYTE	W96
// 023   ----------------------------------------
	BYTE	W96
// 024   ----------------------------------------
	BYTE	W96
// 025   ----------------------------------------
AllHailShadow_3_025:
	BYTE	W48
	BYTE		N48     An4   v100
	BYTE		N48     Dn5 
	BYTE	W48
	BYTE	PEND
// 026   ----------------------------------------
AllHailShadow_3_026:
	BYTE		N48     An4   v100
	BYTE		N48     Dn5 
	BYTE	W48
	BYTE		N42     An4 
	BYTE		N36     Dn5 
	BYTE	W36
	BYTE		N06     En5 
	BYTE	W06
	BYTE		N54     Fs4 
	BYTE		N54     Cs5 
	BYTE	W06
	BYTE	PEND
// 027   ----------------------------------------
	BYTE	PATT
	 POIN2	AllHailShadow_3_025
// 028   ----------------------------------------
AllHailShadow_3_028:
	BYTE		N48     An4   v100
	BYTE		N48     Dn5 
	BYTE	W48
	BYTE		N42     An4 
	BYTE		N42     Dn5 
	BYTE	W42
	BYTE		N54     Fs4 
	BYTE		N54     Cs5 
	BYTE	W06
	BYTE	PEND
// 029   ----------------------------------------
	BYTE	PATT
	 POIN2	AllHailShadow_3_025
// 030   ----------------------------------------
AllHailShadow_3_030:
	BYTE		N48     An4   v100
	BYTE		N48     Dn5 
	BYTE	W48
	BYTE		N42     An4 
	BYTE		N42     Dn5 
	BYTE	W42
	BYTE		        An4 
	BYTE		N42     Cs5 
	BYTE	W06
	BYTE	PEND
// 031   ----------------------------------------
	BYTE	W36
	BYTE		N12     An4 
	BYTE		N12     Dn5 
	BYTE	W60
// 032   ----------------------------------------
	BYTE	W96
// 033   ----------------------------------------
	BYTE	W96
// 034   ----------------------------------------
	BYTE	W96
// 035   ----------------------------------------
	BYTE	W96
// 036   ----------------------------------------
	BYTE	W96
// 037   ----------------------------------------
	BYTE	W96
// 038   ----------------------------------------
	BYTE	W96
// 039   ----------------------------------------
	BYTE	W96
// 040   ----------------------------------------
	BYTE	W96
// 041   ----------------------------------------
	BYTE	W96
// 042   ----------------------------------------
	BYTE	W96
// 043   ----------------------------------------
	BYTE	W96
// 044   ----------------------------------------
	BYTE	W96
// 045   ----------------------------------------
	BYTE	W96
// 046   ----------------------------------------
	BYTE	PATT
	 POIN2	AllHailShadow_3_001
// 047   ----------------------------------------
	BYTE	PATT
	 POIN2	AllHailShadow_3_002
// 048   ----------------------------------------
	BYTE	PATT
	 POIN2	AllHailShadow_3_001
// 049   ----------------------------------------
	BYTE	PATT
	 POIN2	AllHailShadow_3_004
// 050   ----------------------------------------
	BYTE	PATT
	 POIN2	AllHailShadow_3_001
// 051   ----------------------------------------
	BYTE	PATT
	 POIN2	AllHailShadow_3_006
// 052   ----------------------------------------
	BYTE	W96
// 053   ----------------------------------------
	BYTE	W96
// 054   ----------------------------------------
	BYTE	W96
// 055   ----------------------------------------
AllHailShadow_3_055:
	BYTE	W48
	BYTE		TIE     An4   v100
	BYTE		N96     Dn5 
	BYTE	W48
	BYTE	PEND
// 056   ----------------------------------------
	BYTE	W48
	BYTE		        Cs5 
	BYTE	W48
// 057   ----------------------------------------
	BYTE	W48
	BYTE		EOT     An4 
	BYTE		N96     Bn4 
	BYTE		N96     Dn5 
	BYTE	W48
// 058   ----------------------------------------
	BYTE	W48
	BYTE		        An4 
	BYTE		N96     Cs5 
	BYTE	W48
// 059   ----------------------------------------
	BYTE	PATT
	 POIN2	AllHailShadow_3_055
// 060   ----------------------------------------
	BYTE	W48
	BYTE		N96     Cs5   v100
	BYTE	W48
// 061   ----------------------------------------
	BYTE	W48
	BYTE		EOT     An4 
	BYTE		N96     Bn4 
	BYTE		N96     Dn5 
	BYTE	W48
// 062   ----------------------------------------
	BYTE	W48
	BYTE		        An4 
	BYTE		N96     Dn5 
	BYTE	W48
// 063   ----------------------------------------
	BYTE	PATT
	 POIN2	AllHailShadow_3_025
// 064   ----------------------------------------
	BYTE	PATT
	 POIN2	AllHailShadow_3_026
// 065   ----------------------------------------
	BYTE	PATT
	 POIN2	AllHailShadow_3_025
// 066   ----------------------------------------
	BYTE	PATT
	 POIN2	AllHailShadow_3_028
// 067   ----------------------------------------
	BYTE	PATT
	 POIN2	AllHailShadow_3_025
// 068   ----------------------------------------
	BYTE	PATT
	 POIN2	AllHailShadow_3_030
// 069   ----------------------------------------
	BYTE	W36
	BYTE		N12     An4   v100
	BYTE		N12     Dn5 
	BYTE	W12
	BYTE	FINE

//**************** Track 4 (Midi-Chn.4) ****************//

AllHailShadow_4:
	BYTE	KEYSH   AllHailShadow_key+0
// 000   ----------------------------------------
	BYTE		VOICE   29
	BYTE		VOL     127*AllHailShadow_mvl/mxv
	BYTE	W96
// 001   ----------------------------------------
AllHailShadow_4_001:
	BYTE	W12
	BYTE		N12     Fs2   v100
	BYTE		N12     Fs3 
	BYTE	W12
	BYTE		N06     En2 
	BYTE		N06     En3 
	BYTE	W06
	BYTE		N12     Dn2 
	BYTE		N12     Dn3 
	BYTE	W18
	BYTE		N18     An2 
	BYTE		N18     An3 
	BYTE	W18
	BYTE		        Fs2 
	BYTE		N18     Fs3 
	BYTE	W30
	BYTE	PEND
// 002   ----------------------------------------
AllHailShadow_4_002:
	BYTE		N06     En2   v100
	BYTE		N06     En3 
	BYTE	W06
	BYTE		N12     Dn2 
	BYTE		N12     Dn3 
	BYTE	W12
	BYTE		        Dn2 
	BYTE		N12     Dn3 
	BYTE	W18
	BYTE		N06     En2 
	BYTE		N06     En3 
	BYTE	W06
	BYTE		N18     Fs2 
	BYTE		N18     Fs3 
	BYTE	W54
	BYTE	PEND
// 003   ----------------------------------------
AllHailShadow_4_003:
	BYTE	W18
	BYTE		N06     Fs2   v100
	BYTE		N06     Fs3 
	BYTE	W06
	BYTE		        Fs2 
	BYTE		N06     Fs3 
	BYTE	W06
	BYTE		N12     Fs2 
	BYTE		N12     Fs3 
	BYTE	W12
	BYTE		        En2 
	BYTE		N12     En3 
	BYTE	W12
	BYTE		        Fs2 
	BYTE		N12     Fs3 
	BYTE	W12
	BYTE		        En2 
	BYTE		N12     En3 
	BYTE	W12
	BYTE		        Dn2 
	BYTE		N12     Dn3 
	BYTE	W12
	BYTE		        En2 
	BYTE		N12     En3 
	BYTE	W06
	BYTE	PEND
// 004   ----------------------------------------
AllHailShadow_4_004:
	BYTE	W06
	BYTE		N09     Dn2   v100
	BYTE		N09     Dn3 
	BYTE	W12
	BYTE		        Dn2 
	BYTE		N09     Dn3 
	BYTE	W12
	BYTE		        Fs2 
	BYTE		N09     Fs3 
	BYTE	W12
	BYTE		N18     Fs2 
	BYTE		N18     Fs3 
	BYTE	W54
	BYTE	PEND
// 005   ----------------------------------------
AllHailShadow_4_005:
	BYTE	W12
	BYTE		N12     Fs2   v100
	BYTE		N12     Fs3 
	BYTE	W12
	BYTE		        En2 
	BYTE		N12     En3 
	BYTE	W12
	BYTE		N06     Dn2 
	BYTE		N06     Dn3 
	BYTE	W06
	BYTE		N12     En2 
	BYTE		N12     En3 
	BYTE	W12
	BYTE		        Fs2 
	BYTE		N12     Fs3 
	BYTE	W12
	BYTE		N06     En2 
	BYTE		N06     En3 
	BYTE	W06
	BYTE		N18     Dn2 
	BYTE		N18     Dn3 
	BYTE	W24
	BYTE	PEND
// 006   ----------------------------------------
AllHailShadow_4_006:
	BYTE	W12
	BYTE		N12     Fs2   v100
	BYTE		N12     Fs3 
	BYTE	W12
	BYTE		        En2 
	BYTE		N12     En3 
	BYTE	W12
	BYTE		N06     Dn2 
	BYTE		N06     Dn3 
	BYTE	W06
	BYTE		N12     En2 
	BYTE		N12     En3 
	BYTE	W12
	BYTE		        Fs2 
	BYTE		N12     Fs3 
	BYTE	W12
	BYTE		N06     Gn2 
	BYTE		N06     Gn3 
	BYTE	W06
	BYTE		N12     Fs2 
	BYTE		N12     Fs3 
	BYTE	W12
	BYTE		N06     Dn2 
	BYTE		N06     Dn3 
	BYTE	W06
	BYTE		        Dn2 
	BYTE		N06     Dn3 
	BYTE	W06
	BYTE	PEND
// 007   ----------------------------------------
AllHailShadow_4_007:
	BYTE		N06     Fs2   v100
	BYTE		N06     Fs3 
	BYTE	W06
	BYTE		N12     Fs2 
	BYTE		N12     Fs3 
	BYTE	W12
	BYTE		        En2 
	BYTE		N12     En3 
	BYTE	W12
	BYTE		        En2 
	BYTE		N12     En3 
	BYTE	W12
	BYTE		N24     Fs2 
	BYTE		N24     Fs3 
	BYTE	W30
	BYTE		N36     Fs2 
	BYTE		N36     Fs3 
	BYTE	W24
	BYTE	PEND
// 008   ----------------------------------------
AllHailShadow_4_008:
	BYTE	W12
	BYTE		N36     En2   v100
	BYTE		N36     En3 
	BYTE	W84
	BYTE	PEND
// 009   ----------------------------------------
	BYTE	W96
// 010   ----------------------------------------
	BYTE	W96
// 011   ----------------------------------------
	BYTE	W96
// 012   ----------------------------------------
	BYTE	W96
// 013   ----------------------------------------
	BYTE	W72
	BYTE		N06     Fs2 
	BYTE		N06     Fs3 
	BYTE	W06
	BYTE		N12     Gn2 
	BYTE		N12     Gn3 
	BYTE	W12
	BYTE		        Fs2 
	BYTE		N12     Fs3 
	BYTE	W06
// 014   ----------------------------------------
	BYTE	W06
	BYTE		        En2 
	BYTE		N12     En3 
	BYTE	W12
	BYTE		        En2 
	BYTE		N12     En3 
	BYTE	W12
	BYTE		        Dn2 
	BYTE		N12     Dn3 
	BYTE	W12
	BYTE		        En2 
	BYTE		N12     En3 
	BYTE	W12
	BYTE		        Fs2 
	BYTE		N12     Fs3 
	BYTE	W12
	BYTE		N30     Fs2 
	BYTE		N30     Fs3 
	BYTE	W30
// 015   ----------------------------------------
	BYTE	W60
	BYTE		N12     Fs2 
	BYTE		N12     Fs3 
	BYTE	W12
	BYTE		N06     En2 
	BYTE		N06     En3 
	BYTE	W06
	BYTE		N12     Dn2 
	BYTE		N12     Dn3 
	BYTE	W12
	BYTE		        En2 
	BYTE		N12     En3 
	BYTE	W06
// 016   ----------------------------------------
	BYTE	W06
	BYTE		        Dn2 
	BYTE		N12     Dn3 
	BYTE	W12
	BYTE		        Dn2 
	BYTE		N12     Dn3 
	BYTE	W12
	BYTE		        Bn1 
	BYTE		N12     Bn2 
	BYTE	W18
	BYTE		        Fs2 
	BYTE		N12     Fs3 
	BYTE	W12
	BYTE		N06     En2 
	BYTE		N06     En3 
	BYTE	W06
	BYTE		        En2 
	BYTE		N06     En3 
	BYTE	W12
	BYTE		N12     Dn2 
	BYTE		N12     Dn3 
	BYTE	W12
	BYTE		N18     En2 
	BYTE		N18     En3 
	BYTE	W06
// 017   ----------------------------------------
	BYTE	W66
	BYTE		N06     Bn1 
	BYTE		N06     Bn2 
	BYTE	W06
	BYTE		        Fs2 
	BYTE		N06     Fs3 
	BYTE	W06
	BYTE		N12     Gn2 
	BYTE		N12     Gn3 
	BYTE	W12
	BYTE		N18     Fs2 
	BYTE		N18     Fs3 
	BYTE	W06
// 018   ----------------------------------------
	BYTE	W12
	BYTE		N06     En2 
	BYTE		N06     En3 
	BYTE	W06
	BYTE		N12     En2 
	BYTE		N12     En3 
	BYTE	W12
	BYTE		        Dn2 
	BYTE		N12     Dn3 
	BYTE	W12
	BYTE		N06     En2 
	BYTE		N06     En3 
	BYTE	W06
	BYTE		        Fs2 
	BYTE		N06     Fs3 
	BYTE	W06
	BYTE		N42     Fs2 
	BYTE		N42     Fs3 
	BYTE	W42
// 019   ----------------------------------------
	BYTE	W60
	BYTE		N12     Fs2 
	BYTE		N12     Fs3 
	BYTE	W12
	BYTE		N06     En2 
	BYTE		N06     En3 
	BYTE	W06
	BYTE		        Dn2 
	BYTE		N06     Dn3 
	BYTE	W12
	BYTE		N18     En2 
	BYTE		N18     En3 
	BYTE	W06
// 020   ----------------------------------------
	BYTE	W12
	BYTE		N06     Dn2 
	BYTE		N06     Dn3 
	BYTE	W06
	BYTE		N18     Dn2 
	BYTE		N18     Dn3 
	BYTE	W24
	BYTE		N06     Bn1 
	BYTE		N06     Bn2 
	BYTE	W06
	BYTE		        Fs2 
	BYTE		N06     Fs3 
	BYTE	W06
	BYTE		N12     En2 
	BYTE		N12     En3 
	BYTE	W12
	BYTE		        En2 
	BYTE		N12     En3 
	BYTE	W12
	BYTE		        Dn2 
	BYTE		N12     Dn3 
	BYTE	W12
	BYTE		        En2 
	BYTE		N12     En3 
	BYTE	W06
// 021   ----------------------------------------
	BYTE	W06
	BYTE		        Fs2 
	BYTE		N12     Fs3 
	BYTE	W12
	BYTE		N06     Gn2 
	BYTE		N06     Gn3 
	BYTE	W06
	BYTE		N18     Fs2 
	BYTE		N18     Fs3 
	BYTE	W42
	BYTE		N06     Dn2 
	BYTE		N06     Dn3 
	BYTE	W06
	BYTE		        Dn2 
	BYTE		N06     Dn3 
	BYTE	W06
	BYTE		N12     En2 
	BYTE		N12     En3 
	BYTE	W12
	BYTE		        En2 
	BYTE		N12     En3 
	BYTE	W06
// 022   ----------------------------------------
	BYTE	W06
	BYTE		        Dn2 
	BYTE		N12     Dn3 
	BYTE	W12
	BYTE		        Dn2 
	BYTE		N12     Dn3 
	BYTE	W12
	BYTE		        Fs2 
	BYTE		N12     Fs3 
	BYTE	W12
	BYTE		N54     Fs2 
	BYTE		N54     Fs3 
	BYTE	W54
// 023   ----------------------------------------
	BYTE	W48
	BYTE		N12     Fs2 
	BYTE		N12     Fs3 
	BYTE	W12
	BYTE		N06     Fs2 
	BYTE		N06     Fs3 
	BYTE	W06
	BYTE		N12     Fs2 
	BYTE		N12     Fs3 
	BYTE	W12
	BYTE		        Gn2 
	BYTE		N12     Gn3 
	BYTE	W12
	BYTE		        Fs2 
	BYTE		N12     Fs3 
	BYTE	W06
// 024   ----------------------------------------
	BYTE	W06
	BYTE		        En2 
	BYTE		N12     En3 
	BYTE	W12
	BYTE		        En2 
	BYTE		N12     En3 
	BYTE	W12
	BYTE		N18     Dn2 
	BYTE		N18     Dn3 
	BYTE	W18
	BYTE		        Fs2 
	BYTE		N18     Fs3 
	BYTE	W18
	BYTE		N54     Dn2 
	BYTE		N54     Dn3 
	BYTE	W30
// 025   ----------------------------------------
AllHailShadow_4_025:
	BYTE	W60
	BYTE		N12     Fs2   v100
	BYTE		N12     Fs3 
	BYTE	W12
	BYTE		N06     En2 
	BYTE		N06     En3 
	BYTE	W06
	BYTE		N12     Dn2 
	BYTE		N12     Dn3 
	BYTE	W18
	BYTE	PEND
// 026   ----------------------------------------
AllHailShadow_4_026:
	BYTE		N18     An2   v100
	BYTE		N18     An3 
	BYTE	W18
	BYTE		        Fs2 
	BYTE		N18     Fs3 
	BYTE	W30
	BYTE		N06     En2 
	BYTE		N06     En3 
	BYTE	W06
	BYTE		N12     Dn2 
	BYTE		N12     Dn3 
	BYTE	W12
	BYTE		        Dn2 
	BYTE		N12     Dn3 
	BYTE	W18
	BYTE		N06     En2 
	BYTE		N06     En3 
	BYTE	W06
	BYTE		N18     Fs2 
	BYTE		N18     Fs3 
	BYTE	W06
	BYTE	PEND
// 027   ----------------------------------------
AllHailShadow_4_027:
	BYTE	W66
	BYTE		N06     Fs2   v100
	BYTE		N06     Fs3 
	BYTE	W06
	BYTE		        Fs2 
	BYTE		N06     Fs3 
	BYTE	W06
	BYTE		N12     Fs2 
	BYTE		N12     Fs3 
	BYTE	W12
	BYTE		        En2 
	BYTE		N12     En3 
	BYTE	W06
	BYTE	PEND
// 028   ----------------------------------------
AllHailShadow_4_028:
	BYTE	W06
	BYTE		N12     Fs2   v100
	BYTE		N12     Fs3 
	BYTE	W12
	BYTE		        En2 
	BYTE		N12     En3 
	BYTE	W12
	BYTE		        Dn2 
	BYTE		N12     Dn3 
	BYTE	W12
	BYTE		        En2 
	BYTE		N12     En3 
	BYTE	W12
	BYTE		N09     Dn2 
	BYTE		N09     Dn3 
	BYTE	W12
	BYTE		        Dn2 
	BYTE		N09     Dn3 
	BYTE	W12
	BYTE		        Fs2 
	BYTE		N09     Fs3 
	BYTE	W12
	BYTE		N18     Fs2 
	BYTE		N18     Fs3 
	BYTE	W06
	BYTE	PEND
// 029   ----------------------------------------
AllHailShadow_4_029:
	BYTE	W60
	BYTE		N12     Fs2   v100
	BYTE		N12     Fs3 
	BYTE	W12
	BYTE		        En2 
	BYTE		N12     En3 
	BYTE	W12
	BYTE		N06     Dn2 
	BYTE		N06     Dn3 
	BYTE	W06
	BYTE		N12     En2 
	BYTE		N12     En3 
	BYTE	W06
	BYTE	PEND
// 030   ----------------------------------------
AllHailShadow_4_030:
	BYTE	W06
	BYTE		N12     Fs2   v100
	BYTE		N12     Fs3 
	BYTE	W12
	BYTE		N06     En2 
	BYTE		N06     En3 
	BYTE	W06
	BYTE		N18     Dn2 
	BYTE		N18     Dn3 
	BYTE	W36
	BYTE		N12     Fs2 
	BYTE		N12     Fs3 
	BYTE	W12
	BYTE		        En2 
	BYTE		N12     En3 
	BYTE	W12
	BYTE		N06     Dn2 
	BYTE		N06     Dn3 
	BYTE	W06
	BYTE		N12     En2 
	BYTE		N12     En3 
	BYTE	W06
	BYTE	PEND
// 031   ----------------------------------------
AllHailShadow_4_031:
	BYTE	W06
	BYTE		N12     Fs2   v100
	BYTE		N12     Fs3 
	BYTE	W12
	BYTE		N06     Gn2 
	BYTE		N06     Gn3 
	BYTE	W06
	BYTE		N12     Fs2 
	BYTE		N12     Fs3 
	BYTE	W12
	BYTE		N06     Dn2 
	BYTE		N06     Dn3 
	BYTE	W06
	BYTE		        Dn2 
	BYTE		N06     Dn3 
	BYTE	W06
	BYTE		        Fs2 
	BYTE		N06     Fs3 
	BYTE	W06
	BYTE		N12     Fs2 
	BYTE		N12     Fs3 
	BYTE	W12
	BYTE		        En2 
	BYTE		N12     En3 
	BYTE	W12
	BYTE		        En2 
	BYTE		N12     En3 
	BYTE	W12
	BYTE		N24     Fs2 
	BYTE		N24     Fs3 
	BYTE	W06
	BYTE	PEND
// 032   ----------------------------------------
AllHailShadow_4_032:
	BYTE	W24
	BYTE		N36     Fs2   v100
	BYTE		N36     Fs3 
	BYTE	W36
	BYTE		        En2 
	BYTE		N36     En3 
	BYTE	W36
	BYTE	PEND
// 033   ----------------------------------------
	BYTE	W96
// 034   ----------------------------------------
	BYTE	W12
	BYTE		N06     Fs2 
	BYTE		N06     Fs3 
	BYTE	W06
	BYTE		N12     Fs2 
	BYTE		N12     Fs3 
	BYTE	W12
	BYTE		        Fs2 
	BYTE		N12     Fs3 
	BYTE	W12
	BYTE		        Fs2 
	BYTE		N12     Fs3 
	BYTE	W12
	BYTE		        En2 
	BYTE		N12     En3 
	BYTE	W12
	BYTE		        En2 
	BYTE		N12     En3 
	BYTE	W12
	BYTE		        Dn2 
	BYTE		N12     Dn3 
	BYTE	W12
	BYTE		        En2 
	BYTE		N12     En3 
	BYTE	W06
// 035   ----------------------------------------
	BYTE	W06
	BYTE		        Fs2 
	BYTE		N12     Fs3 
	BYTE	W12
	BYTE		N30     Fs2 
	BYTE		N30     Fs3 
	BYTE	W78
// 036   ----------------------------------------
	BYTE	W24
	BYTE		N12     En2 
	BYTE		N12     En3 
	BYTE	W12
	BYTE		N06     Dn2 
	BYTE		N06     Dn3 
	BYTE	W06
	BYTE		N12     En2 
	BYTE		N12     En3 
	BYTE	W12
	BYTE		        Dn2 
	BYTE		N12     Dn3 
	BYTE	W12
	BYTE		        Dn2 
	BYTE		N12     Dn3 
	BYTE	W12
	BYTE		        Bn1 
	BYTE		N12     Bn2 
	BYTE	W12
	BYTE		        Fs2 
	BYTE		N12     Fs3 
	BYTE	W06
// 037   ----------------------------------------
	BYTE	W06
	BYTE		        En2 
	BYTE		N12     En3 
	BYTE	W12
	BYTE		        En2 
	BYTE		N12     En3 
	BYTE	W12
	BYTE		        Dn2 
	BYTE		N12     Dn3 
	BYTE	W12
	BYTE		N18     En2 
	BYTE		N18     En3 
	BYTE	W54
// 038   ----------------------------------------
	BYTE		N06     Fs2 
	BYTE		N06     Fs3 
	BYTE	W06
	BYTE		N12     En2 
	BYTE		N12     En3 
	BYTE	W12
	BYTE		N18     En2 
	BYTE		N18     En3 
	BYTE	W18
	BYTE		N06     Dn2 
	BYTE		N06     Dn3 
	BYTE	W06
	BYTE		N12     En2 
	BYTE		N12     En3 
	BYTE	W12
	BYTE		        Fs2 
	BYTE		N12     Fs3 
	BYTE	W12
	BYTE		N18     Dn2 
	BYTE		N18     Dn3 
	BYTE	W30
// 039   ----------------------------------------
	BYTE		N06     Fs2 
	BYTE		N06     Fs3 
	BYTE	W06
	BYTE		N12     En2 
	BYTE		N12     En3 
	BYTE	W12
	BYTE		N18     En2 
	BYTE		N18     En3 
	BYTE	W18
	BYTE		N06     Dn2 
	BYTE		N06     Dn3 
	BYTE	W06
	BYTE		N12     En2 
	BYTE		N12     En3 
	BYTE	W12
	BYTE		        Fs2 
	BYTE		N12     Fs3 
	BYTE	W12
	BYTE		N06     Gn2 
	BYTE		N06     Gn3 
	BYTE	W06
	BYTE		N12     Fs2 
	BYTE		N12     Fs3 
	BYTE	W24
// 040   ----------------------------------------
	BYTE	W24
	BYTE		N06     Fs2 
	BYTE		N06     Fs3 
	BYTE	W06
	BYTE		N12     Gn2 
	BYTE		N12     Gn3 
	BYTE	W12
	BYTE		        Fs2 
	BYTE		N12     Fs3 
	BYTE	W12
	BYTE		        En2 
	BYTE		N12     En3 
	BYTE	W12
	BYTE		        En2 
	BYTE		N12     En3 
	BYTE	W12
	BYTE		        Dn2 
	BYTE		N12     Dn3 
	BYTE	W12
	BYTE		        En2 
	BYTE		N12     En3 
	BYTE	W06
// 041   ----------------------------------------
	BYTE	W06
	BYTE		        Dn2 
	BYTE		N12     Dn3 
	BYTE	W12
	BYTE		        Dn2 
	BYTE		N12     Dn3 
	BYTE	W12
	BYTE		        En2 
	BYTE		N12     En3 
	BYTE	W12
	BYTE		        En2 
	BYTE		N12     En3 
	BYTE	W12
	BYTE		N06     Dn2 
	BYTE		N06     Dn3 
	BYTE	W06
	BYTE		N24     Bn1 
	BYTE		N24     Bn2 
	BYTE	W36
// 042   ----------------------------------------
	BYTE	W18
	BYTE		N06     Dn2 
	BYTE		N06     Dn3 
	BYTE	W06
	BYTE		        Dn2 
	BYTE		N06     Dn3 
	BYTE	W06
	BYTE		N12     En2 
	BYTE		N12     En3 
	BYTE	W12
	BYTE		        En2 
	BYTE		N12     En3 
	BYTE	W12
	BYTE		        Dn2 
	BYTE		N12     Dn3 
	BYTE	W12
	BYTE		        Dn2 
	BYTE		N12     Dn3 
	BYTE	W12
	BYTE		        Fs2 
	BYTE		N12     Fs3 
	BYTE	W12
	BYTE		N54     Fs2 
	BYTE		N54     Fs3 
	BYTE	W06
// 043   ----------------------------------------
	BYTE	W96
// 044   ----------------------------------------
	BYTE		N12     Fs2 
	BYTE		N12     Fs3 
	BYTE	W12
	BYTE		N06     Fs2 
	BYTE		N06     Fs3 
	BYTE	W06
	BYTE		N12     Fs2 
	BYTE		N12     Fs3 
	BYTE	W12
	BYTE		        Gn2 
	BYTE		N12     Gn3 
	BYTE	W12
	BYTE		        Fs2 
	BYTE		N12     Fs3 
	BYTE	W12
	BYTE		        En2 
	BYTE		N12     En3 
	BYTE	W12
	BYTE		        En2 
	BYTE		N12     En3 
	BYTE	W12
	BYTE		N18     Dn2 
	BYTE		N18     Dn3 
	BYTE	W18
// 045   ----------------------------------------
	BYTE		        Fs2 
	BYTE		N18     Fs3 
	BYTE	W18
	BYTE		N54     Dn2 
	BYTE		N54     Dn3 
	BYTE	W78
// 046   ----------------------------------------
	BYTE	PATT
	 POIN2	AllHailShadow_4_001
// 047   ----------------------------------------
	BYTE	PATT
	 POIN2	AllHailShadow_4_002
// 048   ----------------------------------------
	BYTE	PATT
	 POIN2	AllHailShadow_4_003
// 049   ----------------------------------------
	BYTE	PATT
	 POIN2	AllHailShadow_4_004
// 050   ----------------------------------------
	BYTE	PATT
	 POIN2	AllHailShadow_4_005
// 051   ----------------------------------------
	BYTE	PATT
	 POIN2	AllHailShadow_4_006
// 052   ----------------------------------------
	BYTE	PATT
	 POIN2	AllHailShadow_4_007
// 053   ----------------------------------------
	BYTE	PATT
	 POIN2	AllHailShadow_4_008
// 054   ----------------------------------------
	BYTE	W96
// 055   ----------------------------------------
	BYTE	W96
// 056   ----------------------------------------
	BYTE	W96
// 057   ----------------------------------------
	BYTE	W96
// 058   ----------------------------------------
	BYTE	W96
// 059   ----------------------------------------
	BYTE	W96
// 060   ----------------------------------------
	BYTE	W96
// 061   ----------------------------------------
	BYTE	W96
// 062   ----------------------------------------
	BYTE	W96
// 063   ----------------------------------------
	BYTE	PATT
	 POIN2	AllHailShadow_4_025
// 064   ----------------------------------------
	BYTE	PATT
	 POIN2	AllHailShadow_4_026
// 065   ----------------------------------------
	BYTE	PATT
	 POIN2	AllHailShadow_4_027
// 066   ----------------------------------------
	BYTE	PATT
	 POIN2	AllHailShadow_4_028
// 067   ----------------------------------------
	BYTE	PATT
	 POIN2	AllHailShadow_4_029
// 068   ----------------------------------------
	BYTE	PATT
	 POIN2	AllHailShadow_4_030
// 069   ----------------------------------------
	BYTE	PATT
	 POIN2	AllHailShadow_4_031
// 070   ----------------------------------------
	BYTE	PATT
	 POIN2	AllHailShadow_4_032
// 071   ----------------------------------------
	BYTE	FINE

//**************** Track 5 (Midi-Chn.5) ****************//

AllHailShadow_5:
	BYTE	KEYSH   AllHailShadow_key+0
// 000   ----------------------------------------
	BYTE		VOICE   30
	BYTE		VOL     127*AllHailShadow_mvl/mxv
	BYTE	W96
// 001   ----------------------------------------
AllHailShadow_5_001:
	BYTE	W12
	BYTE		N12     Dn3   v100
	BYTE	W12
	BYTE		N06     Cs3 
	BYTE	W06
	BYTE		N12     Bn2 
	BYTE	W18
	BYTE		N18     Cs3 
	BYTE	W18
	BYTE		        Dn3 
	BYTE	W30
	BYTE	PEND
// 002   ----------------------------------------
	BYTE	W96
// 003   ----------------------------------------
	BYTE	W96
// 004   ----------------------------------------
	BYTE	W96
// 005   ----------------------------------------
AllHailShadow_5_005:
	BYTE	W12
	BYTE		N12     Dn3   v100
	BYTE	W12
	BYTE		        Cs3 
	BYTE	W12
	BYTE		N06     Bn2 
	BYTE	W06
	BYTE		N12     Cs3 
	BYTE	W12
	BYTE		        Dn3 
	BYTE	W12
	BYTE		N06     Cs3 
	BYTE	W06
	BYTE		N18     Bn2 
	BYTE	W24
	BYTE	PEND
// 006   ----------------------------------------
AllHailShadow_5_006:
	BYTE	W12
	BYTE		N12     Dn3   v100
	BYTE	W12
	BYTE		        Cs3 
	BYTE	W12
	BYTE		N06     Bn2 
	BYTE	W06
	BYTE		N12     Cs3 
	BYTE	W12
	BYTE		        Dn3 
	BYTE	W12
	BYTE		N06     En3 
	BYTE	W06
	BYTE		N12     Dn3 
	BYTE	W12
	BYTE		N06     Bn2 
	BYTE	W06
	BYTE		N06   
	BYTE	W06
	BYTE	PEND
// 007   ----------------------------------------
AllHailShadow_5_007:
	BYTE		N06     Dn3   v100
	BYTE	W06
	BYTE		N12   
	BYTE	W12
	BYTE		        Cs3 
	BYTE	W12
	BYTE		N12   
	BYTE	W12
	BYTE		N24     Dn3 
	BYTE	W30
	BYTE		N36   
	BYTE	W24
	BYTE	PEND
// 008   ----------------------------------------
	BYTE	W12
	BYTE		        Cn3 
	BYTE	W84
// 009   ----------------------------------------
	BYTE	W96
// 010   ----------------------------------------
	BYTE	W96
// 011   ----------------------------------------
	BYTE	W96
// 012   ----------------------------------------
	BYTE	W96
// 013   ----------------------------------------
	BYTE	W96
// 014   ----------------------------------------
	BYTE	W96
// 015   ----------------------------------------
	BYTE	W96
// 016   ----------------------------------------
	BYTE	W96
// 017   ----------------------------------------
	BYTE	W96
// 018   ----------------------------------------
	BYTE	W96
// 019   ----------------------------------------
	BYTE	W96
// 020   ----------------------------------------
	BYTE	W96
// 021   ----------------------------------------
	BYTE	W96
// 022   ----------------------------------------
	BYTE	W96
// 023   ----------------------------------------
	BYTE	W96
// 024   ----------------------------------------
	BYTE	W96
// 025   ----------------------------------------
	BYTE	W60
	BYTE		N12     Dn3 
	BYTE	W12
	BYTE		N06     Cs3 
	BYTE	W06
	BYTE		N12     Bn2 
	BYTE	W18
// 026   ----------------------------------------
AllHailShadow_5_026:
	BYTE		N18     Cs3   v100
	BYTE	W18
	BYTE		        Dn3 
	BYTE	W78
	BYTE	PEND
// 027   ----------------------------------------
	BYTE	W96
// 028   ----------------------------------------
	BYTE	W96
// 029   ----------------------------------------
AllHailShadow_5_029:
	BYTE	W60
	BYTE		N12     Dn3   v100
	BYTE	W12
	BYTE		        Cs3 
	BYTE	W12
	BYTE		N06     Bn2 
	BYTE	W06
	BYTE		N12     Cs3 
	BYTE	W06
	BYTE	PEND
// 030   ----------------------------------------
AllHailShadow_5_030:
	BYTE	W06
	BYTE		N12     Dn3   v100
	BYTE	W12
	BYTE		N06     Cs3 
	BYTE	W06
	BYTE		N18     Bn2 
	BYTE	W36
	BYTE		N12     Dn3 
	BYTE	W12
	BYTE		        Cs3 
	BYTE	W12
	BYTE		N06     Bn2 
	BYTE	W06
	BYTE		N12     Cs3 
	BYTE	W06
	BYTE	PEND
// 031   ----------------------------------------
AllHailShadow_5_031:
	BYTE	W06
	BYTE		N12     Dn3   v100
	BYTE	W12
	BYTE		N06     En3 
	BYTE	W06
	BYTE		N12     Dn3 
	BYTE	W12
	BYTE		N06     Bn2 
	BYTE	W06
	BYTE		N06   
	BYTE	W06
	BYTE		        Dn3 
	BYTE	W06
	BYTE		N12   
	BYTE	W12
	BYTE		        Cs3 
	BYTE	W12
	BYTE		N12   
	BYTE	W12
	BYTE		N24     Dn3 
	BYTE	W06
	BYTE	PEND
// 032   ----------------------------------------
AllHailShadow_5_032:
	BYTE	W24
	BYTE		N36     Dn3   v100
	BYTE	W36
	BYTE		        Cn3 
	BYTE	W36
	BYTE	PEND
// 033   ----------------------------------------
	BYTE	W96
// 034   ----------------------------------------
	BYTE	W96
// 035   ----------------------------------------
	BYTE	W96
// 036   ----------------------------------------
	BYTE	W96
// 037   ----------------------------------------
	BYTE	W96
// 038   ----------------------------------------
	BYTE	W96
// 039   ----------------------------------------
	BYTE	W96
// 040   ----------------------------------------
	BYTE	W96
// 041   ----------------------------------------
	BYTE	W96
// 042   ----------------------------------------
	BYTE	W96
// 043   ----------------------------------------
	BYTE	W96
// 044   ----------------------------------------
	BYTE	W96
// 045   ----------------------------------------
	BYTE	W96
// 046   ----------------------------------------
	BYTE	PATT
	 POIN2	AllHailShadow_5_001
// 047   ----------------------------------------
	BYTE	W96
// 048   ----------------------------------------
	BYTE	W96
// 049   ----------------------------------------
	BYTE	W96
// 050   ----------------------------------------
	BYTE	PATT
	 POIN2	AllHailShadow_5_005
// 051   ----------------------------------------
	BYTE	PATT
	 POIN2	AllHailShadow_5_006
// 052   ----------------------------------------
	BYTE	PATT
	 POIN2	AllHailShadow_5_007
// 053   ----------------------------------------
	BYTE	W12
	BYTE		N36     Cn3   v100
	BYTE	W84
// 054   ----------------------------------------
	BYTE	W96
// 055   ----------------------------------------
	BYTE	W48
	BYTE		BEND    c_v-64
	BYTE		N42     Bn3 
	BYTE	W01
	BYTE		BEND    c_v-62
	BYTE	W01
	BYTE		        c_v-60
	BYTE	W01
	BYTE		        c_v-57
	BYTE	W01
	BYTE		        c_v-53
	BYTE	W01
	BYTE		        c_v-52
	BYTE	W01
	BYTE		        c_v-48
	BYTE	W01
	BYTE		        c_v-45
	BYTE	W01
	BYTE		        c_v-43
	BYTE	W01
	BYTE		        c_v-40
	BYTE	W01
	BYTE		        c_v-37
	BYTE	W01
	BYTE		        c_v-35
	BYTE	W01
	BYTE		        c_v-32
	BYTE	W01
	BYTE		        c_v-29
	BYTE	W01
	BYTE		        c_v-27
	BYTE	W01
	BYTE		        c_v-24
	BYTE	W01
	BYTE		        c_v-20
	BYTE	W01
	BYTE		        c_v-19
	BYTE	W01
	BYTE		        c_v-15
	BYTE	W01
	BYTE		        c_v-12
	BYTE	W01
	BYTE		        c_v-10
	BYTE	W01
	BYTE		        c_v-7
	BYTE	W01
	BYTE		        c_v-4
	BYTE	W01
	BYTE		        c_v-2
	BYTE	W01
	BYTE		        c_v+0
	BYTE	W18
	BYTE		        c_v+51
	BYTE		N48     An3 
	BYTE	W01
	BYTE		BEND    c_v+26
	BYTE	W01
	BYTE		        c_v+14
	BYTE	W01
	BYTE		        c_v+0
	BYTE	W03
// 056   ----------------------------------------
	BYTE	W42
	BYTE		        c_v+34
	BYTE		N12     Fs3 
	BYTE	W01
	BYTE		BEND    c_v+27
	BYTE	W01
	BYTE		        c_v+23
	BYTE	W01
	BYTE		        c_v+16
	BYTE	W01
	BYTE		        c_v+8
	BYTE	W01
	BYTE		        c_v+4
	BYTE	W01
	BYTE		        c_v+0
	BYTE	W06
	BYTE		N06     Bn2 
	BYTE	W06
	BYTE		        Dn3 
	BYTE	W06
	BYTE		        Bn2 
	BYTE	W06
	BYTE		        En3 
	BYTE	W06
	BYTE		        Bn2 
	BYTE	W06
	BYTE		        Cs3 
	BYTE	W06
	BYTE		        Dn3 
	BYTE	W06
// 057   ----------------------------------------
	BYTE		N36     Cs3 
	BYTE	W36
	BYTE		N03   
	BYTE	W03
	BYTE		        Bn2 
	BYTE	W03
	BYTE		N06     An2 
	BYTE	W06
	BYTE		N03     Cs3 
	BYTE	W03
	BYTE		        Dn3 
	BYTE	W03
	BYTE		        Cs3 
	BYTE	W03
	BYTE		        Bn2 
	BYTE	W03
	BYTE		        Cs3 
	BYTE	W03
	BYTE		        Dn3 
	BYTE	W03
	BYTE		        En3 
	BYTE	W03
	BYTE		        Fs3 
	BYTE	W03
	BYTE		        Gn3 
	BYTE	W03
	BYTE		        En3 
	BYTE	W03
	BYTE		        Fs3 
	BYTE	W03
	BYTE		        Gn3 
	BYTE	W03
	BYTE		        An3 
	BYTE	W03
	BYTE		        Fs3 
	BYTE	W03
	BYTE		        Gn3 
	BYTE	W03
	BYTE		        An3 
	BYTE	W03
// 058   ----------------------------------------
	BYTE		        Bn3 
	BYTE	W03
	BYTE		        Cs4 
	BYTE	W03
	BYTE		        An3 
	BYTE	W03
	BYTE		        Bn3 
	BYTE	W03
	BYTE		        Cs4 
	BYTE	W03
	BYTE		        Dn4 
	BYTE	W03
	BYTE		        Cs4 
	BYTE	W03
	BYTE		        Dn4 
	BYTE	W03
	BYTE		        Bn3 
	BYTE	W03
	BYTE		        Cs4 
	BYTE	W03
	BYTE		        Dn4 
	BYTE	W03
	BYTE		        En4 
	BYTE	W03
	BYTE		        Dn4 
	BYTE	W03
	BYTE		        En4 
	BYTE	W03
	BYTE		        Cs4 
	BYTE	W03
	BYTE		        Dn4 
	BYTE	W03
	BYTE		        En4 
	BYTE	W03
	BYTE		        Fs4 
	BYTE	W03
	BYTE		        Dn4 
	BYTE	W03
	BYTE		        En4 
	BYTE	W03
	BYTE		        Fs4 
	BYTE	W03
	BYTE		        Dn4 
	BYTE	W03
	BYTE		        En4 
	BYTE	W03
	BYTE		        Fs4 
	BYTE	W03
	BYTE		        Gn4 
	BYTE	W03
	BYTE		        En4 
	BYTE	W03
	BYTE		BEND    c_v-63
	BYTE		N09     Bn4 
	BYTE	W01
	BYTE		BEND    c_v-52
	BYTE	W01
	BYTE		        c_v-46
	BYTE	W01
	BYTE		        c_v-35
	BYTE	W01
	BYTE		        c_v-23
	BYTE	W01
	BYTE		        c_v-18
	BYTE	W01
	BYTE		        c_v-6
	BYTE	W01
	BYTE		        c_v+0
	BYTE	W02
	BYTE		        c_v-59
	BYTE		N09   
	BYTE	W01
	BYTE		BEND    c_v-50
	BYTE	W01
	BYTE		        c_v-45
	BYTE	W01
	BYTE		        c_v-36
	BYTE	W01
	BYTE		        c_v-27
	BYTE	W01
	BYTE		        c_v-23
	BYTE	W01
	BYTE		        c_v-14
	BYTE	W01
	BYTE		        c_v-5
	BYTE	W01
	BYTE		        c_v+0
	BYTE	W01
// 059   ----------------------------------------
	BYTE		N18     An4 
	BYTE	W18
	BYTE		N06     Gn4 
	BYTE	W06
	BYTE		        Fs4 
	BYTE	W06
	BYTE		        Gn4 
	BYTE	W06
	BYTE		N12     Fs4 
	BYTE	W12
	BYTE		N03     An4 
	BYTE	W03
	BYTE		        Fs4 
	BYTE	W03
	BYTE		        Dn4 
	BYTE	W03
	BYTE		        Fs4 
	BYTE	W03
	BYTE		        An4 
	BYTE	W03
	BYTE		        Fs4 
	BYTE	W03
	BYTE		        Dn4 
	BYTE	W03
	BYTE		        Fs4 
	BYTE	W03
	BYTE		        An4 
	BYTE	W03
	BYTE		        Fs4 
	BYTE	W03
	BYTE		        Dn4 
	BYTE	W03
	BYTE		        Fs4 
	BYTE	W03
	BYTE		        An4 
	BYTE	W03
	BYTE		        Fs4 
	BYTE	W03
	BYTE		        Dn4 
	BYTE	W03
	BYTE		        Fs4 
	BYTE	W03
// 060   ----------------------------------------
	BYTE		        An4 
	BYTE	W03
	BYTE		        Fs4 
	BYTE	W03
	BYTE		        An4 
	BYTE	W03
	BYTE		        Fs4 
	BYTE	W03
	BYTE		        Dn4 
	BYTE	W03
	BYTE		        Fs4 
	BYTE	W03
	BYTE		        An4 
	BYTE	W03
	BYTE		        Fs4 
	BYTE	W03
	BYTE		        An4 
	BYTE	W03
	BYTE		        Fs4 
	BYTE	W03
	BYTE		        Dn4 
	BYTE	W03
	BYTE		        Fs4 
	BYTE	W03
	BYTE		        An4 
	BYTE	W03
	BYTE		        Fs4 
	BYTE	W03
	BYTE		        Dn4 
	BYTE	W03
	BYTE		        Fs4 
	BYTE	W03
	BYTE		        An4 
	BYTE	W03
	BYTE		        Fs4 
	BYTE	W03
	BYTE		        An4 
	BYTE	W03
	BYTE		        Fs4 
	BYTE	W03
	BYTE		        Dn4 
	BYTE	W03
	BYTE		        Fs4 
	BYTE	W03
	BYTE		        An4 
	BYTE	W03
	BYTE		        Fs4 
	BYTE	W03
	BYTE		        An4 
	BYTE	W03
	BYTE		        Fs4 
	BYTE	W03
	BYTE		        Dn4 
	BYTE	W03
	BYTE		        Fs4 
	BYTE	W03
	BYTE		        Gn4 
	BYTE	W03
	BYTE		        Fs4 
	BYTE	W03
	BYTE		        En4 
	BYTE	W03
	BYTE		        Fs4 
	BYTE	W03
// 061   ----------------------------------------
	BYTE		        Gn4 
	BYTE	W03
	BYTE		        Fs4 
	BYTE	W03
	BYTE		        En4 
	BYTE	W03
	BYTE		        Dn4 
	BYTE	W03
	BYTE		        En4 
	BYTE	W03
	BYTE		        Dn4 
	BYTE	W03
	BYTE		        Cs4 
	BYTE	W03
	BYTE		        Bn3 
	BYTE	W03
	BYTE		        Dn4 
	BYTE	W03
	BYTE		        Cs4 
	BYTE	W03
	BYTE		        Bn3 
	BYTE	W03
	BYTE		        An3 
	BYTE	W03
	BYTE		        Gn3 
	BYTE	W03
	BYTE		        An3 
	BYTE	W03
	BYTE		        Gn3 
	BYTE	W03
	BYTE		        Fs3 
	BYTE	W03
	BYTE		N03   
	BYTE	W03
	BYTE		        Bn3 
	BYTE	W03
	BYTE		        An3 
	BYTE	W03
	BYTE		        Gn3 
	BYTE	W03
	BYTE		        Fs3 
	BYTE	W03
	BYTE		        Dn3 
	BYTE	W03
	BYTE		        En3 
	BYTE	W03
	BYTE		        Fs3 
	BYTE	W03
	BYTE		        Gn3 
	BYTE	W03
	BYTE		        Fs3 
	BYTE	W03
	BYTE		        Bn3 
	BYTE	W03
	BYTE		        An3 
	BYTE	W03
	BYTE		        Gn3 
	BYTE	W03
	BYTE		        Fs3 
	BYTE	W03
	BYTE		        En3 
	BYTE	W03
	BYTE		        Dn3 
	BYTE	W02
	BYTE		BEND    c_v-63
	BYTE	W01
// 062   ----------------------------------------
	BYTE		        c_v-60
	BYTE		N36     Bn3 
	BYTE	W01
	BYTE		BEND    c_v-59
	BYTE	W01
	BYTE		        c_v-56
	BYTE	W01
	BYTE		        c_v-52
	BYTE	W01
	BYTE		        c_v-51
	BYTE	W01
	BYTE		        c_v-48
	BYTE	W01
	BYTE		        c_v-45
	BYTE	W01
	BYTE		        c_v-43
	BYTE	W01
	BYTE		        c_v-40
	BYTE	W01
	BYTE		        c_v-37
	BYTE	W01
	BYTE		        c_v-35
	BYTE	W01
	BYTE		        c_v-32
	BYTE	W01
	BYTE		        c_v-29
	BYTE	W01
	BYTE		        c_v-27
	BYTE	W01
	BYTE		        c_v-24
	BYTE	W01
	BYTE		        c_v-21
	BYTE	W01
	BYTE		        c_v-19
	BYTE	W01
	BYTE		        c_v-16
	BYTE	W01
	BYTE		        c_v-13
	BYTE	W01
	BYTE		        c_v-12
	BYTE	W01
	BYTE		        c_v-8
	BYTE	W01
	BYTE		        c_v-5
	BYTE	W01
	BYTE		        c_v-4
	BYTE	W01
	BYTE		        c_v+0
	BYTE	W13
	BYTE		N06     Cs4 
	BYTE	W06
	BYTE		N18   
	BYTE	W18
	BYTE		N06     Dn4 
	BYTE	W06
	BYTE		N18   
	BYTE	W18
	BYTE		N06     En4 
	BYTE	W06
	BYTE		N18   
	BYTE	W06
// 063   ----------------------------------------
	BYTE	W12
	BYTE		N06     Fs4 
	BYTE	W06
	BYTE		N30   
	BYTE	W42
	BYTE		N12     Dn3 
	BYTE	W12
	BYTE		N06     Cs3 
	BYTE	W06
	BYTE		N12     Bn2 
	BYTE	W18
// 064   ----------------------------------------
	BYTE	PATT
	 POIN2	AllHailShadow_5_026
// 065   ----------------------------------------
	BYTE	W96
// 066   ----------------------------------------
	BYTE	W96
// 067   ----------------------------------------
	BYTE	PATT
	 POIN2	AllHailShadow_5_029
// 068   ----------------------------------------
	BYTE	PATT
	 POIN2	AllHailShadow_5_030
// 069   ----------------------------------------
	BYTE	PATT
	 POIN2	AllHailShadow_5_031
// 070   ----------------------------------------
	BYTE	PATT
	 POIN2	AllHailShadow_5_032
// 071   ----------------------------------------
	BYTE	FINE

//**************** Track 6 (Midi-Chn.6) ****************//

AllHailShadow_6:
	BYTE	KEYSH   AllHailShadow_key+0
// 000   ----------------------------------------
	BYTE		VOICE   29
	BYTE		VOL     100*AllHailShadow_mvl/mxv
	BYTE	W96
// 001   ----------------------------------------
AllHailShadow_6_001:
	BYTE		N30     Dn2   v100
	BYTE		N30     Dn3 
	BYTE	W30
	BYTE		N06     En2 
	BYTE		N06     En3 
	BYTE	W06
	BYTE		        Fs2 
	BYTE		N06     Fs3 
	BYTE	W06
	BYTE		N18     An2 
	BYTE		N18     An3 
	BYTE	W18
	BYTE		N12     Fs2 
	BYTE		N12     Fs3 
	BYTE	W12
	BYTE		N24     Dn2 
	BYTE		N24     Dn3 
	BYTE	W24
	BYTE	PEND
// 002   ----------------------------------------
AllHailShadow_6_002:
	BYTE		N36     Dn2   v100
	BYTE		N36     Dn3 
	BYTE	W36
	BYTE		N06     En2 
	BYTE		N06     En3 
	BYTE	W06
	BYTE		N30     Fs2 
	BYTE		N30     Fs3 
	BYTE	W30
	BYTE		N09     Fn2 
	BYTE		N09     Fn3 
	BYTE	W12
	BYTE		        En2 
	BYTE		N09     En3 
	BYTE	W12
	BYTE	PEND
// 003   ----------------------------------------
	BYTE	PATT
	 POIN2	AllHailShadow_6_001
// 004   ----------------------------------------
	BYTE	PATT
	 POIN2	AllHailShadow_6_002
// 005   ----------------------------------------
	BYTE	PATT
	 POIN2	AllHailShadow_6_001
// 006   ----------------------------------------
AllHailShadow_6_006:
	BYTE		N30     Dn2   v100
	BYTE		N30     Dn3 
	BYTE	W30
	BYTE		N06     En2 
	BYTE		N06     En3 
	BYTE	W06
	BYTE		        Fs2 
	BYTE		N06     Fs3 
	BYTE	W06
	BYTE		N18     Gn2 
	BYTE		N18     Gn3 
	BYTE	W18
	BYTE		N12     Fs2 
	BYTE		N12     Fs3 
	BYTE	W12
	BYTE		        En2 
	BYTE		N12     En3 
	BYTE	W12
	BYTE		        Dn2 
	BYTE		N12     Dn3 
	BYTE	W12
	BYTE	PEND
// 007   ----------------------------------------
AllHailShadow_6_007:
	BYTE		N18     Dn2   v100
	BYTE		N18     Dn3 
	BYTE	W18
	BYTE		N24     En2 
	BYTE		N24     En3 
	BYTE	W24
	BYTE		N48     Fs2 
	BYTE		N48     Fs3 
	BYTE	W48
	BYTE		N18     Fs2 
	BYTE		N18     Fs3 
	BYTE	W06
	BYTE	PEND
// 008   ----------------------------------------
AllHailShadow_6_008:
	BYTE	W12
	BYTE		N36     Gn2   v100
	BYTE		N36     Gn3 
	BYTE	W84
	BYTE	PEND
// 009   ----------------------------------------
	BYTE	W48
	BYTE		N06     Dn3 
	BYTE		N06     Fs3 
	BYTE	W06
	BYTE		        Dn3 
	BYTE		N06     Fs3 
	BYTE	W06
	BYTE		N06   
	BYTE		N06     An3 
	BYTE	W06
	BYTE		        Dn3 
	BYTE		N06     Fs3 
	BYTE	W06
	BYTE		        An3 
	BYTE		N06     Cs4 
	BYTE	W06
	BYTE		        Fs3 
	BYTE		N06     An3 
	BYTE	W06
	BYTE		        Dn3 
	BYTE		N06     Fs3 
	BYTE	W06
	BYTE		N06   
	BYTE		N06     An3 
	BYTE	W06
// 010   ----------------------------------------
AllHailShadow_6_010:
	BYTE		N06     Dn3   v100
	BYTE		N06     Fs3 
	BYTE	W06
	BYTE		        Dn3 
	BYTE		N06     Fs3 
	BYTE	W06
	BYTE		N06   
	BYTE		N06     An3 
	BYTE	W06
	BYTE		        Dn3 
	BYTE		N06     Fs3 
	BYTE	W06
	BYTE		        An3 
	BYTE		N06     Cs4 
	BYTE	W06
	BYTE		        Fs3 
	BYTE		N06     An3 
	BYTE	W06
	BYTE		        Dn3 
	BYTE		N06     Fs3 
	BYTE	W06
	BYTE		N06   
	BYTE		N06     An3 
	BYTE	W06
	BYTE		        Dn3 
	BYTE		N06     Fs3 
	BYTE	W06
	BYTE		        Dn3 
	BYTE		N06     Fs3 
	BYTE	W06
	BYTE		N06   
	BYTE		N06     An3 
	BYTE	W06
	BYTE		        Dn3 
	BYTE		N06     Fs3 
	BYTE	W06
	BYTE		        An3 
	BYTE		N06     Cs4 
	BYTE	W06
	BYTE		        Fs3 
	BYTE		N06     An3 
	BYTE	W06
	BYTE		        Dn3 
	BYTE		N06     Fs3 
	BYTE	W06
	BYTE		N06   
	BYTE		N06     An3 
	BYTE	W06
	BYTE	PEND
// 011   ----------------------------------------
	BYTE		        Dn3 
	BYTE		N06     Fs3 
	BYTE	W06
	BYTE		        Dn3 
	BYTE		N06     Fs3 
	BYTE	W06
	BYTE		N06   
	BYTE		N06     An3 
	BYTE	W06
	BYTE		        Dn3 
	BYTE		N06     Fs3 
	BYTE	W06
	BYTE		        Gn3 
	BYTE		N06     Bn3 
	BYTE	W06
	BYTE		        Fs3 
	BYTE		N06     An3 
	BYTE	W06
	BYTE		        En3 
	BYTE		N06     Gn3 
	BYTE	W06
	BYTE		        Fs3 
	BYTE		N06     An3 
	BYTE	W06
	BYTE		        Dn3 
	BYTE		N06     Fs3 
	BYTE	W06
	BYTE		        Dn3 
	BYTE		N06     Fs3 
	BYTE	W06
	BYTE		N06   
	BYTE		N06     An3 
	BYTE	W06
	BYTE		        Dn3 
	BYTE		N06     Fs3 
	BYTE	W06
	BYTE		        An3 
	BYTE		N06     Cs4 
	BYTE	W06
	BYTE		        Fs3 
	BYTE		N06     An3 
	BYTE	W06
	BYTE		        Dn3 
	BYTE		N06     Fs3 
	BYTE	W06
	BYTE		N06   
	BYTE		N06     An3 
	BYTE	W06
// 012   ----------------------------------------
	BYTE	PATT
	 POIN2	AllHailShadow_6_010
// 013   ----------------------------------------
	BYTE		N06     Dn3   v100
	BYTE		N06     Fs3 
	BYTE	W06
	BYTE		        Dn3 
	BYTE		N06     Fs3 
	BYTE	W06
	BYTE		N06   
	BYTE		N06     An3 
	BYTE	W06
	BYTE		        Dn3 
	BYTE		N06     Fs3 
	BYTE	W06
	BYTE		        Gn3 
	BYTE		N06     Bn3 
	BYTE	W06
	BYTE		        Fs3 
	BYTE		N06     An3 
	BYTE	W06
	BYTE		        Bn3 
	BYTE		N06     Dn4 
	BYTE	W06
	BYTE		        An3 
	BYTE		N06     Cs4 
	BYTE	W54
// 014   ----------------------------------------
	BYTE	W96
// 015   ----------------------------------------
	BYTE	W96
// 016   ----------------------------------------
	BYTE	W96
// 017   ----------------------------------------
	BYTE	W96
// 018   ----------------------------------------
	BYTE	W96
// 019   ----------------------------------------
	BYTE	W96
// 020   ----------------------------------------
	BYTE	W96
// 021   ----------------------------------------
	BYTE	W96
// 022   ----------------------------------------
	BYTE	W96
// 023   ----------------------------------------
	BYTE	W96
// 024   ----------------------------------------
	BYTE	W48
	BYTE		N12     Gn2 
	BYTE	W12
	BYTE		N06     Cn3 
	BYTE	W06
	BYTE		N12     Dn3 
	BYTE	W12
	BYTE		N06     Cn3 
	BYTE	W06
	BYTE		        Gn2 
	BYTE	W06
	BYTE		N54     Gn3 
	BYTE	W06
// 025   ----------------------------------------
AllHailShadow_6_025:
	BYTE	W48
	BYTE		N30     Dn2   v100
	BYTE		N30     Dn3 
	BYTE	W30
	BYTE		N06     En2 
	BYTE		N06     En3 
	BYTE	W06
	BYTE		        Fs2 
	BYTE		N06     Fs3 
	BYTE	W06
	BYTE		N18     An2 
	BYTE		N18     An3 
	BYTE	W06
	BYTE	PEND
// 026   ----------------------------------------
AllHailShadow_6_026:
	BYTE	W12
	BYTE		N12     Fs2   v100
	BYTE		N12     Fs3 
	BYTE	W12
	BYTE		N24     Dn2 
	BYTE		N24     Dn3 
	BYTE	W24
	BYTE		N36     Dn2 
	BYTE		N36     Dn3 
	BYTE	W36
	BYTE		N06     En2 
	BYTE		N06     En3 
	BYTE	W06
	BYTE		N30     Fs2 
	BYTE		N30     Fs3 
	BYTE	W06
	BYTE	PEND
// 027   ----------------------------------------
AllHailShadow_6_027:
	BYTE	W24
	BYTE		N09     Fn2   v100
	BYTE		N09     Fn3 
	BYTE	W12
	BYTE		        En2 
	BYTE		N09     En3 
	BYTE	W12
	BYTE		N30     Dn2 
	BYTE		N30     Dn3 
	BYTE	W30
	BYTE		N06     En2 
	BYTE		N06     En3 
	BYTE	W06
	BYTE		        Fs2 
	BYTE		N06     Fs3 
	BYTE	W06
	BYTE		N18     An2 
	BYTE		N18     An3 
	BYTE	W06
	BYTE	PEND
// 028   ----------------------------------------
	BYTE	PATT
	 POIN2	AllHailShadow_6_026
// 029   ----------------------------------------
	BYTE	PATT
	 POIN2	AllHailShadow_6_027
// 030   ----------------------------------------
AllHailShadow_6_030:
	BYTE	W12
	BYTE		N12     Fs2   v100
	BYTE		N12     Fs3 
	BYTE	W12
	BYTE		N24     Dn2 
	BYTE		N24     Dn3 
	BYTE	W24
	BYTE		N30     Dn2 
	BYTE		N30     Dn3 
	BYTE	W30
	BYTE		N06     En2 
	BYTE		N06     En3 
	BYTE	W06
	BYTE		        Fs2 
	BYTE		N06     Fs3 
	BYTE	W06
	BYTE		N18     Gn2 
	BYTE		N18     Gn3 
	BYTE	W06
	BYTE	PEND
// 031   ----------------------------------------
AllHailShadow_6_031:
	BYTE	W12
	BYTE		N12     Fs2   v100
	BYTE		N12     Fs3 
	BYTE	W12
	BYTE		        En2 
	BYTE		N12     En3 
	BYTE	W12
	BYTE		        Dn2 
	BYTE		N12     Dn3 
	BYTE	W12
	BYTE		N18     Dn2 
	BYTE		N18     Dn3 
	BYTE	W18
	BYTE		N24     En2 
	BYTE		N24     En3 
	BYTE	W24
	BYTE		N48     Fs2 
	BYTE		N48     Fs3 
	BYTE	W06
	BYTE	PEND
// 032   ----------------------------------------
AllHailShadow_6_032:
	BYTE	W42
	BYTE		N18     Fs2   v100
	BYTE		N18     Fs3 
	BYTE	W18
	BYTE		N36     Gn2 
	BYTE		N36     Gn3 
	BYTE	W36
	BYTE	PEND
// 033   ----------------------------------------
	BYTE	W96
// 034   ----------------------------------------
	BYTE	W96
// 035   ----------------------------------------
	BYTE	W96
// 036   ----------------------------------------
	BYTE	W96
// 037   ----------------------------------------
	BYTE	W96
// 038   ----------------------------------------
	BYTE	W96
// 039   ----------------------------------------
	BYTE	W96
// 040   ----------------------------------------
	BYTE	W96
// 041   ----------------------------------------
	BYTE	W96
// 042   ----------------------------------------
	BYTE	W96
// 043   ----------------------------------------
	BYTE	W96
// 044   ----------------------------------------
	BYTE	W96
// 045   ----------------------------------------
	BYTE		N12     Gn2 
	BYTE	W12
	BYTE		N06     Cn3 
	BYTE	W06
	BYTE		N12     Dn3 
	BYTE	W12
	BYTE		N06     Cn3 
	BYTE	W06
	BYTE		        Gn2 
	BYTE	W06
	BYTE		N54     Gn3 
	BYTE	W54
// 046   ----------------------------------------
	BYTE	PATT
	 POIN2	AllHailShadow_6_001
// 047   ----------------------------------------
	BYTE	PATT
	 POIN2	AllHailShadow_6_002
// 048   ----------------------------------------
	BYTE	PATT
	 POIN2	AllHailShadow_6_001
// 049   ----------------------------------------
	BYTE	PATT
	 POIN2	AllHailShadow_6_002
// 050   ----------------------------------------
	BYTE	PATT
	 POIN2	AllHailShadow_6_001
// 051   ----------------------------------------
	BYTE	PATT
	 POIN2	AllHailShadow_6_006
// 052   ----------------------------------------
	BYTE	PATT
	 POIN2	AllHailShadow_6_007
// 053   ----------------------------------------
	BYTE	PATT
	 POIN2	AllHailShadow_6_008
// 054   ----------------------------------------
	BYTE	W96
// 055   ----------------------------------------
	BYTE	W96
// 056   ----------------------------------------
	BYTE	W96
// 057   ----------------------------------------
	BYTE	W96
// 058   ----------------------------------------
	BYTE	W96
// 059   ----------------------------------------
	BYTE	W96
// 060   ----------------------------------------
	BYTE	W96
// 061   ----------------------------------------
	BYTE	W96
// 062   ----------------------------------------
	BYTE	W96
// 063   ----------------------------------------
	BYTE	PATT
	 POIN2	AllHailShadow_6_025
// 064   ----------------------------------------
	BYTE	PATT
	 POIN2	AllHailShadow_6_026
// 065   ----------------------------------------
	BYTE	PATT
	 POIN2	AllHailShadow_6_027
// 066   ----------------------------------------
	BYTE	PATT
	 POIN2	AllHailShadow_6_026
// 067   ----------------------------------------
	BYTE	PATT
	 POIN2	AllHailShadow_6_027
// 068   ----------------------------------------
	BYTE	PATT
	 POIN2	AllHailShadow_6_030
// 069   ----------------------------------------
	BYTE	PATT
	 POIN2	AllHailShadow_6_031
// 070   ----------------------------------------
	BYTE	PATT
	 POIN2	AllHailShadow_6_032
// 071   ----------------------------------------
	BYTE	FINE

//**************** Track 7 (Midi-Chn.10) ****************//

AllHailShadow_7:
	BYTE	KEYSH   AllHailShadow_key+0
// 000   ----------------------------------------
	BYTE		VOICE   0
	BYTE		VOL     100*AllHailShadow_mvl/mxv
	BYTE	W96
// 001   ----------------------------------------
AllHailShadow_7_001:
	BYTE		N03     Cn1   v100
	BYTE		N03     Cs2 
	BYTE	W12
	BYTE		        Dn1 
	BYTE		N03     As1 
	BYTE	W12
	BYTE		        Cn1 
	BYTE		N03     As1 
	BYTE	W06
	BYTE		        Cn1 
	BYTE	W06
	BYTE		        Dn1 
	BYTE	W06
	BYTE		        Cn1 
	BYTE		N03     As1 
	BYTE	W12
	BYTE		        Cn1 
	BYTE	W06
	BYTE		        Dn1 
	BYTE		N03     As1 
	BYTE	W12
	BYTE		        Cn1 
	BYTE		N03     As1 
	BYTE	W06
	BYTE		        Cn1 
	BYTE	W06
	BYTE		        Dn1 
	BYTE	W06
	BYTE		        As1 
	BYTE	W06
	BYTE	PEND
// 002   ----------------------------------------
AllHailShadow_7_002:
	BYTE		N03     Cn1   v100
	BYTE	W12
	BYTE		        Dn1 
	BYTE		N03     As1 
	BYTE	W12
	BYTE		        Cn1 
	BYTE		N03     As1 
	BYTE	W06
	BYTE		        Cn1 
	BYTE	W06
	BYTE		        Dn1 
	BYTE	W06
	BYTE		        Cn1 
	BYTE		N03     As1 
	BYTE	W12
	BYTE		        Cn1 
	BYTE	W06
	BYTE		        Dn1 
	BYTE		N03     As1 
	BYTE	W06
	BYTE		        Cn1 
	BYTE	W06
	BYTE		N03   
	BYTE		N03     Cs2 
	BYTE	W12
	BYTE		        Dn1 
	BYTE		N03     Cs2 
	BYTE	W12
	BYTE	PEND
// 003   ----------------------------------------
	BYTE	PATT
	 POIN2	AllHailShadow_7_001
// 004   ----------------------------------------
	BYTE	PATT
	 POIN2	AllHailShadow_7_002
// 005   ----------------------------------------
	BYTE	PATT
	 POIN2	AllHailShadow_7_001
// 006   ----------------------------------------
AllHailShadow_7_006:
	BYTE		N03     Cn1   v100
	BYTE	W12
	BYTE		        Dn1 
	BYTE		N03     As1 
	BYTE	W12
	BYTE		        Cn1 
	BYTE		N03     As1 
	BYTE	W06
	BYTE		        Cn1 
	BYTE	W06
	BYTE		        Dn1 
	BYTE	W06
	BYTE		        Cn1 
	BYTE		N03     As1 
	BYTE	W12
	BYTE		        Cn1 
	BYTE	W06
	BYTE		        Dn1 
	BYTE		N03     As1 
	BYTE	W06
	BYTE		        Cn1 
	BYTE	W06
	BYTE		N03   
	BYTE		N03     As1 
	BYTE	W12
	BYTE		        Dn1 
	BYTE		N03     As1 
	BYTE	W12
	BYTE	PEND
// 007   ----------------------------------------
AllHailShadow_7_007:
	BYTE		N03     Cn1   v100
	BYTE		N03     Cs2 
	BYTE	W12
	BYTE		        Dn1 
	BYTE	W06
	BYTE		        Cn1 
	BYTE		N03     Cs2 
	BYTE	W12
	BYTE		        Cn1 
	BYTE	W06
	BYTE		        Dn1 
	BYTE	W06
	BYTE		        Cn1 
	BYTE		N03     Cs2 
	BYTE	W12
	BYTE		        Cn1 
	BYTE	W06
	BYTE		N03   
	BYTE		N03     As1 
	BYTE	W12
	BYTE		N03   
	BYTE	W12
	BYTE		N03   
	BYTE	W06
	BYTE		        Cn1 
	BYTE	W06
	BYTE	PEND
// 008   ----------------------------------------
AllHailShadow_7_008:
	BYTE		N03     As1   v100
	BYTE	W12
	BYTE		        Cn1 
	BYTE		N03     An1 
	BYTE		N03     As1 
	BYTE	W03
	BYTE		        An1 
	BYTE	W03
	BYTE		N03   
	BYTE	W03
	BYTE		N03   
	BYTE	W03
	BYTE		        Cn2 
	BYTE	W03
	BYTE		N03   
	BYTE	W03
	BYTE		N03   
	BYTE	W03
	BYTE		N03   
	BYTE	W03
	BYTE		        An1 
	BYTE	W03
	BYTE		N03   
	BYTE	W03
	BYTE		N03   
	BYTE	W03
	BYTE		N03   
	BYTE	W03
	BYTE		        Dn1 
	BYTE		N03     Cn2 
	BYTE		N03     Cs2 
	BYTE	W18
	BYTE		        Dn1 
	BYTE		N03     Cn2 
	BYTE		N03     Cs2 
	BYTE	W18
	BYTE		        Dn1 
	BYTE		N03     An1 
	BYTE		N03     Cs2 
	BYTE	W12
	BYTE	PEND
// 009   ----------------------------------------
	BYTE		        Dn1 
	BYTE		N03     Cn2 
	BYTE		N03     Cs2 
	BYTE	W18
	BYTE		        Dn1 
	BYTE		N03     Cn2 
	BYTE		N03     Cs2 
	BYTE	W18
	BYTE		        Dn1 
	BYTE		N03     An1 
	BYTE		N03     Cs2 
	BYTE	W12
	BYTE		        Cn1 
	BYTE		N03     As1 
	BYTE	W12
	BYTE		        Dn1 
	BYTE		N03     As1 
	BYTE	W12
	BYTE		        Cn1 
	BYTE		N03     As1 
	BYTE	W06
	BYTE		        Cn1 
	BYTE	W06
	BYTE		        Dn1 
	BYTE		N03     As1 
	BYTE	W12
// 010   ----------------------------------------
AllHailShadow_7_010:
	BYTE		N03     Cn1   v100
	BYTE		N03     As1 
	BYTE	W06
	BYTE		        Cn1 
	BYTE	W06
	BYTE		        Dn1 
	BYTE		N03     As1 
	BYTE	W06
	BYTE		        Cn1 
	BYTE	W06
	BYTE		        As1 
	BYTE	W06
	BYTE		        Cn1 
	BYTE	W06
	BYTE		        Dn1 
	BYTE		N03     As1 
	BYTE	W12
	BYTE		        Cn1 
	BYTE		N03     As1 
	BYTE	W12
	BYTE		        Dn1 
	BYTE		N03     As1 
	BYTE	W12
	BYTE		        Cn1 
	BYTE		N03     As1 
	BYTE	W06
	BYTE		        Cn1 
	BYTE	W06
	BYTE		        Dn1 
	BYTE		N03     As1 
	BYTE	W12
	BYTE	PEND
// 011   ----------------------------------------
	BYTE	PATT
	 POIN2	AllHailShadow_7_010
// 012   ----------------------------------------
	BYTE	PATT
	 POIN2	AllHailShadow_7_010
// 013   ----------------------------------------
	BYTE	PATT
	 POIN2	AllHailShadow_7_010
// 014   ----------------------------------------
	BYTE	PATT
	 POIN2	AllHailShadow_7_010
// 015   ----------------------------------------
	BYTE	PATT
	 POIN2	AllHailShadow_7_010
// 016   ----------------------------------------
	BYTE	PATT
	 POIN2	AllHailShadow_7_010
// 017   ----------------------------------------
	BYTE	PATT
	 POIN2	AllHailShadow_7_010
// 018   ----------------------------------------
	BYTE	PATT
	 POIN2	AllHailShadow_7_010
// 019   ----------------------------------------
	BYTE	PATT
	 POIN2	AllHailShadow_7_010
// 020   ----------------------------------------
	BYTE	PATT
	 POIN2	AllHailShadow_7_010
// 021   ----------------------------------------
	BYTE		N03     Cn1   v100
	BYTE		N03     As1 
	BYTE	W12
	BYTE		        Dn1 
	BYTE		N03     As1 
	BYTE	W12
	BYTE		        Cn1 
	BYTE	W06
	BYTE		        Dn1 
	BYTE		N03     As1 
	BYTE	W06
	BYTE		        Dn1 
	BYTE		N03     As1 
	BYTE	W12
	BYTE		        Cn1 
	BYTE		N03     As1 
	BYTE		N03     Cs2 
	BYTE	W12
	BYTE		        Dn1 
	BYTE		N03     As1 
	BYTE	W06
	BYTE		        Cn1 
	BYTE	W06
	BYTE		        As1 
	BYTE	W06
	BYTE		        Cn1 
	BYTE	W06
	BYTE		        Dn1 
	BYTE		N03     As1 
	BYTE		N03     An2 
	BYTE	W12
// 022   ----------------------------------------
	BYTE		        Cn1 
	BYTE		N03     As1 
	BYTE	W12
	BYTE		        Dn1 
	BYTE		N03     As1 
	BYTE	W12
	BYTE		        Cn1 
	BYTE		N03     As1 
	BYTE	W06
	BYTE		        Cn1 
	BYTE	W06
	BYTE		        Dn1 
	BYTE		N03     As1 
	BYTE		N03     Cs2 
	BYTE	W12
	BYTE		        Cn1 
	BYTE	W06
	BYTE		N03   
	BYTE	W06
	BYTE		        Dn1 
	BYTE	W12
	BYTE		        Cn1 
	BYTE	W06
	BYTE		N03   
	BYTE	W06
	BYTE		        Dn1 
	BYTE		N03     Cs2 
	BYTE	W12
// 023   ----------------------------------------
	BYTE		        Cn1 
	BYTE	W06
	BYTE		N03   
	BYTE	W06
	BYTE		        Dn1 
	BYTE	W06
	BYTE		        Cn1 
	BYTE	W06
	BYTE		N03   
	BYTE	W06
	BYTE		N03   
	BYTE	W06
	BYTE		        Dn1 
	BYTE		N03     Cs2 
	BYTE	W12
	BYTE		        Cn1 
	BYTE		N03     As1 
	BYTE		N03     Cs2 
	BYTE		N03     An2 
	BYTE	W12
	BYTE		        Dn1 
	BYTE		N03     As1 
	BYTE	W06
	BYTE		        Cn1 
	BYTE	W06
	BYTE		        As1 
	BYTE	W06
	BYTE		        Cn1 
	BYTE	W06
	BYTE		        Dn1 
	BYTE		N03     As1 
	BYTE		N03     An2 
	BYTE	W12
// 024   ----------------------------------------
	BYTE		        Cn1 
	BYTE		N03     As1 
	BYTE	W12
	BYTE		        Dn1 
	BYTE		N03     As1 
	BYTE	W12
	BYTE		        Cn1 
	BYTE		N03     As1 
	BYTE	W06
	BYTE		        Cn1 
	BYTE	W06
	BYTE		        Dn1 
	BYTE		N03     As1 
	BYTE		N03     Cs2 
	BYTE	W12
	BYTE		        Dn1 
	BYTE		N03     As1 
	BYTE		N03     Cs2 
	BYTE	W06
	BYTE		        Cn1 
	BYTE	W06
	BYTE		N03   
	BYTE		N03     As1 
	BYTE	W06
	BYTE		        Dn1 
	BYTE	W06
	BYTE		        As1 
	BYTE	W06
	BYTE		        Cn1 
	BYTE	W06
	BYTE		N03   
	BYTE		N03     As1 
	BYTE	W12
// 025   ----------------------------------------
	BYTE		N03   
	BYTE	W06
	BYTE		        Cn1 
	BYTE	W06
	BYTE		N03   
	BYTE		N03     As1 
	BYTE	W06
	BYTE		        Cn1 
	BYTE	W06
	BYTE		        Dn1 
	BYTE		N03     Cn2 
	BYTE	W03
	BYTE		N03   
	BYTE	W03
	BYTE		N03   
	BYTE	W03
	BYTE		N03   
	BYTE	W03
	BYTE		        Dn1 
	BYTE		N03     As1 
	BYTE		N03     Bn1 
	BYTE	W12
	BYTE		        Cn1 
	BYTE		N03     Cs2 
	BYTE	W12
	BYTE		        Dn1 
	BYTE		N03     As1 
	BYTE	W12
	BYTE		        Cn1 
	BYTE		N03     As1 
	BYTE	W06
	BYTE		        Cn1 
	BYTE	W06
	BYTE		        Dn1 
	BYTE	W06
	BYTE		        Cn1 
	BYTE		N03     As1 
	BYTE	W06
// 026   ----------------------------------------
AllHailShadow_7_026:
	BYTE	W06
	BYTE		N03     Cn1   v100
	BYTE	W06
	BYTE		        Dn1 
	BYTE		N03     As1 
	BYTE	W12
	BYTE		        Cn1 
	BYTE		N03     As1 
	BYTE	W06
	BYTE		        Cn1 
	BYTE	W06
	BYTE		        Dn1 
	BYTE	W06
	BYTE		        As1 
	BYTE	W06
	BYTE		        Cn1 
	BYTE	W12
	BYTE		        Dn1 
	BYTE		N03     As1 
	BYTE	W12
	BYTE		        Cn1 
	BYTE		N03     As1 
	BYTE	W06
	BYTE		        Cn1 
	BYTE	W06
	BYTE		        Dn1 
	BYTE	W06
	BYTE		        Cn1 
	BYTE		N03     As1 
	BYTE	W06
	BYTE	PEND
// 027   ----------------------------------------
AllHailShadow_7_027:
	BYTE	W06
	BYTE		N03     Cn1   v100
	BYTE	W06
	BYTE		        Dn1 
	BYTE		N03     As1 
	BYTE	W06
	BYTE		        Cn1 
	BYTE	W06
	BYTE		N03   
	BYTE		N03     Cs2 
	BYTE	W12
	BYTE		        Dn1 
	BYTE		N03     Cs2 
	BYTE	W12
	BYTE		        Cn1 
	BYTE		N03     Cs2 
	BYTE	W12
	BYTE		        Dn1 
	BYTE		N03     As1 
	BYTE	W12
	BYTE		        Cn1 
	BYTE		N03     As1 
	BYTE	W06
	BYTE		        Cn1 
	BYTE	W06
	BYTE		        Dn1 
	BYTE	W06
	BYTE		        Cn1 
	BYTE		N03     As1 
	BYTE	W06
	BYTE	PEND
// 028   ----------------------------------------
	BYTE	PATT
	 POIN2	AllHailShadow_7_026
// 029   ----------------------------------------
	BYTE	PATT
	 POIN2	AllHailShadow_7_027
// 030   ----------------------------------------
	BYTE	PATT
	 POIN2	AllHailShadow_7_026
// 031   ----------------------------------------
AllHailShadow_7_031:
	BYTE	W06
	BYTE		N03     Cn1   v100
	BYTE	W06
	BYTE		        Dn1 
	BYTE		N03     As1 
	BYTE	W06
	BYTE		        Cn1 
	BYTE	W06
	BYTE		N03   
	BYTE		N03     As1 
	BYTE	W12
	BYTE		        Dn1 
	BYTE		N03     As1 
	BYTE	W12
	BYTE		        Cn1 
	BYTE		N03     Cs2 
	BYTE	W12
	BYTE		        Dn1 
	BYTE	W06
	BYTE		        Cn1 
	BYTE		N03     Cs2 
	BYTE	W12
	BYTE		        Cn1 
	BYTE	W06
	BYTE		        Dn1 
	BYTE	W06
	BYTE		        Cn1 
	BYTE		N03     Cs2 
	BYTE	W06
	BYTE	PEND
// 032   ----------------------------------------
AllHailShadow_7_032:
	BYTE	W06
	BYTE		N03     Cn1   v100
	BYTE	W06
	BYTE		N03   
	BYTE		N03     As1 
	BYTE	W12
	BYTE		N03   
	BYTE	W12
	BYTE		N03   
	BYTE	W06
	BYTE		        Cn1 
	BYTE	W06
	BYTE		        As1 
	BYTE	W12
	BYTE		        Cn1 
	BYTE		N03     An1 
	BYTE		N03     As1 
	BYTE	W03
	BYTE		        An1 
	BYTE	W03
	BYTE		N03   
	BYTE	W03
	BYTE		N03   
	BYTE	W03
	BYTE		        Cn2 
	BYTE	W03
	BYTE		N03   
	BYTE	W03
	BYTE		N03   
	BYTE	W03
	BYTE		N03   
	BYTE	W03
	BYTE		        An1 
	BYTE	W03
	BYTE		N03   
	BYTE	W03
	BYTE		N03   
	BYTE	W03
	BYTE		N03   
	BYTE	W03
	BYTE	PEND
// 033   ----------------------------------------
AllHailShadow_7_033:
	BYTE		N03     Dn1   v100
	BYTE		N03     Cn2 
	BYTE		N03     Cs2 
	BYTE	W18
	BYTE		        Dn1 
	BYTE		N03     Cn2 
	BYTE		N03     Cs2 
	BYTE	W18
	BYTE		        Dn1 
	BYTE		N03     An1 
	BYTE		N03     Cs2 
	BYTE	W12
	BYTE		        Dn1 
	BYTE		N03     Cn2 
	BYTE		N03     Cs2 
	BYTE	W18
	BYTE		        Dn1 
	BYTE		N03     Cn2 
	BYTE		N03     Cs2 
	BYTE	W18
	BYTE		        Dn1 
	BYTE		N03     An1 
	BYTE		N03     Cs2 
	BYTE	W12
	BYTE	PEND
// 034   ----------------------------------------
AllHailShadow_7_034:
	BYTE		N03     Cn1   v100
	BYTE		N03     As1 
	BYTE	W12
	BYTE		        Dn1 
	BYTE		N03     As1 
	BYTE	W12
	BYTE		        Cn1 
	BYTE		N03     As1 
	BYTE	W06
	BYTE		        Cn1 
	BYTE	W06
	BYTE		        Dn1 
	BYTE		N03     As1 
	BYTE	W12
	BYTE		        Cn1 
	BYTE		N03     As1 
	BYTE	W06
	BYTE		        Cn1 
	BYTE	W06
	BYTE		        Dn1 
	BYTE		N03     As1 
	BYTE	W06
	BYTE		        Cn1 
	BYTE	W06
	BYTE		        As1 
	BYTE	W06
	BYTE		        Cn1 
	BYTE	W06
	BYTE		        Dn1 
	BYTE		N03     As1 
	BYTE	W12
	BYTE	PEND
// 035   ----------------------------------------
	BYTE	PATT
	 POIN2	AllHailShadow_7_034
// 036   ----------------------------------------
	BYTE	PATT
	 POIN2	AllHailShadow_7_034
// 037   ----------------------------------------
	BYTE	PATT
	 POIN2	AllHailShadow_7_034
// 038   ----------------------------------------
	BYTE	PATT
	 POIN2	AllHailShadow_7_034
// 039   ----------------------------------------
	BYTE	PATT
	 POIN2	AllHailShadow_7_034
// 040   ----------------------------------------
	BYTE	PATT
	 POIN2	AllHailShadow_7_034
// 041   ----------------------------------------
	BYTE		N03     Cn1   v100
	BYTE		N03     As1 
	BYTE	W12
	BYTE		        Dn1 
	BYTE		N03     As1 
	BYTE	W12
	BYTE		        Cn1 
	BYTE		N03     As1 
	BYTE	W06
	BYTE		        Cn1 
	BYTE	W06
	BYTE		        Dn1 
	BYTE		N03     As1 
	BYTE	W12
	BYTE		        Cn1 
	BYTE		N03     As1 
	BYTE	W12
	BYTE		        Dn1 
	BYTE		N03     As1 
	BYTE	W12
	BYTE		        Cn1 
	BYTE	W06
	BYTE		        Dn1 
	BYTE		N03     As1 
	BYTE	W06
	BYTE		        Dn1 
	BYTE		N03     As1 
	BYTE	W12
// 042   ----------------------------------------
	BYTE		        Cn1 
	BYTE		N03     As1 
	BYTE		N03     Cs2 
	BYTE	W12
	BYTE		        Dn1 
	BYTE		N03     As1 
	BYTE	W06
	BYTE		        Cn1 
	BYTE	W06
	BYTE		        As1 
	BYTE	W06
	BYTE		        Cn1 
	BYTE	W06
	BYTE		        Dn1 
	BYTE		N03     As1 
	BYTE		N03     An2 
	BYTE	W12
	BYTE		        Cn1 
	BYTE		N03     As1 
	BYTE	W12
	BYTE		        Dn1 
	BYTE		N03     As1 
	BYTE	W12
	BYTE		        Cn1 
	BYTE		N03     As1 
	BYTE	W06
	BYTE		        Cn1 
	BYTE	W06
	BYTE		        Dn1 
	BYTE		N03     As1 
	BYTE		N03     Cs2 
	BYTE	W12
// 043   ----------------------------------------
	BYTE		        Cn1 
	BYTE	W06
	BYTE		N03   
	BYTE	W06
	BYTE		        Dn1 
	BYTE	W12
	BYTE		        Cn1 
	BYTE	W06
	BYTE		N03   
	BYTE	W06
	BYTE		        Dn1 
	BYTE		N03     Cs2 
	BYTE	W12
	BYTE		        Cn1 
	BYTE	W06
	BYTE		N03   
	BYTE	W06
	BYTE		        Dn1 
	BYTE	W06
	BYTE		        Cn1 
	BYTE	W06
	BYTE		N03   
	BYTE	W06
	BYTE		N03   
	BYTE	W06
	BYTE		        Dn1 
	BYTE		N03     Cs2 
	BYTE	W12
// 044   ----------------------------------------
	BYTE		        Cn1 
	BYTE		N03     As1 
	BYTE		N03     Cs2 
	BYTE		N03     An2 
	BYTE	W12
	BYTE		        Dn1 
	BYTE		N03     As1 
	BYTE	W06
	BYTE		        Cn1 
	BYTE	W06
	BYTE		        As1 
	BYTE	W06
	BYTE		        Cn1 
	BYTE	W06
	BYTE		        Dn1 
	BYTE		N03     As1 
	BYTE		N03     An2 
	BYTE	W12
	BYTE		        Cn1 
	BYTE		N03     As1 
	BYTE	W12
	BYTE		        Dn1 
	BYTE		N03     As1 
	BYTE	W12
	BYTE		        Cn1 
	BYTE		N03     As1 
	BYTE	W06
	BYTE		        Cn1 
	BYTE	W06
	BYTE		        Dn1 
	BYTE		N03     As1 
	BYTE		N03     Cs2 
	BYTE	W12
// 045   ----------------------------------------
	BYTE		        Dn1 
	BYTE		N03     As1 
	BYTE		N03     Cs2 
	BYTE	W06
	BYTE		        Cn1 
	BYTE	W06
	BYTE		N03   
	BYTE		N03     As1 
	BYTE	W06
	BYTE		        Dn1 
	BYTE	W06
	BYTE		        As1 
	BYTE	W06
	BYTE		        Cn1 
	BYTE	W06
	BYTE		N03   
	BYTE		N03     As1 
	BYTE	W12
	BYTE		N03   
	BYTE	W06
	BYTE		        Cn1 
	BYTE	W06
	BYTE		N03   
	BYTE		N03     As1 
	BYTE	W06
	BYTE		        Cn1 
	BYTE	W06
	BYTE		        Dn1 
	BYTE		N03     Cn2 
	BYTE	W03
	BYTE		N03   
	BYTE	W03
	BYTE		N03   
	BYTE	W03
	BYTE		N03   
	BYTE	W03
	BYTE		        Dn1 
	BYTE		N03     As1 
	BYTE		N03     Bn1 
	BYTE	W12
// 046   ----------------------------------------
	BYTE	PATT
	 POIN2	AllHailShadow_7_001
// 047   ----------------------------------------
	BYTE	PATT
	 POIN2	AllHailShadow_7_002
// 048   ----------------------------------------
	BYTE	PATT
	 POIN2	AllHailShadow_7_001
// 049   ----------------------------------------
	BYTE	PATT
	 POIN2	AllHailShadow_7_002
// 050   ----------------------------------------
	BYTE	PATT
	 POIN2	AllHailShadow_7_001
// 051   ----------------------------------------
	BYTE	PATT
	 POIN2	AllHailShadow_7_006
// 052   ----------------------------------------
	BYTE	PATT
	 POIN2	AllHailShadow_7_007
// 053   ----------------------------------------
	BYTE	PATT
	 POIN2	AllHailShadow_7_008
// 054   ----------------------------------------
	BYTE	PATT
	 POIN2	AllHailShadow_7_033
// 055   ----------------------------------------
	BYTE		N03     Dn1   v100
	BYTE		N03     Cn2 
	BYTE		N03     Cs2 
	BYTE	W18
	BYTE		        Dn1 
	BYTE		N03     Cn2 
	BYTE		N03     Cs2 
	BYTE	W18
	BYTE		        Dn1 
	BYTE		N03     An1 
	BYTE		N03     Cs2 
	BYTE	W12
	BYTE		        Cn1 
	BYTE		N03     As1 
	BYTE	W06
	BYTE		        Cn1 
	BYTE	W06
	BYTE		        Dn1 
	BYTE		N03     As1 
	BYTE	W06
	BYTE		        Cn1 
	BYTE	W06
	BYTE		N03   
	BYTE		N03     As1 
	BYTE	W06
	BYTE		        Cn1 
	BYTE	W06
	BYTE		        Dn1 
	BYTE		N03     As1 
	BYTE	W06
	BYTE		        Cn1 
	BYTE	W06
// 056   ----------------------------------------
AllHailShadow_7_056:
	BYTE		N03     Cn1   v100
	BYTE		N03     As1 
	BYTE	W06
	BYTE		        Cn1 
	BYTE	W06
	BYTE		        Dn1 
	BYTE		N03     As1 
	BYTE	W06
	BYTE		        Cn1 
	BYTE	W06
	BYTE		N03   
	BYTE		N03     As1 
	BYTE	W06
	BYTE		        Cn1 
	BYTE	W06
	BYTE		        Dn1 
	BYTE		N03     As1 
	BYTE	W06
	BYTE		        Cn1 
	BYTE	W06
	BYTE		N03   
	BYTE		N03     As1 
	BYTE	W06
	BYTE		        Cn1 
	BYTE	W06
	BYTE		        Dn1 
	BYTE		N03     As1 
	BYTE	W06
	BYTE		        Cn1 
	BYTE	W06
	BYTE		N03   
	BYTE		N03     As1 
	BYTE	W06
	BYTE		        Cn1 
	BYTE	W06
	BYTE		        Dn1 
	BYTE		N03     As1 
	BYTE	W06
	BYTE		        Cn1 
	BYTE	W06
	BYTE	PEND
// 057   ----------------------------------------
	BYTE		N03   
	BYTE		N03     As1 
	BYTE	W06
	BYTE		        Cn1 
	BYTE	W06
	BYTE		        Dn1 
	BYTE		N03     As1 
	BYTE	W06
	BYTE		        Cn1 
	BYTE	W06
	BYTE		N03   
	BYTE		N03     As1 
	BYTE	W06
	BYTE		        Cn1 
	BYTE	W06
	BYTE		        Dn1 
	BYTE		N03     As1 
	BYTE	W06
	BYTE		        Cn1 
	BYTE	W06
	BYTE		N03   
	BYTE		N03     As1 
	BYTE		N03     Cs2 
	BYTE	W06
	BYTE		        Cn1 
	BYTE	W06
	BYTE		        Dn1 
	BYTE		N03     As1 
	BYTE	W06
	BYTE		        Cn1 
	BYTE	W06
	BYTE		N03   
	BYTE		N03     As1 
	BYTE	W06
	BYTE		        Cn1 
	BYTE	W06
	BYTE		        Dn1 
	BYTE		N03     As1 
	BYTE	W06
	BYTE		        Cn1 
	BYTE	W06
// 058   ----------------------------------------
	BYTE	PATT
	 POIN2	AllHailShadow_7_056
// 059   ----------------------------------------
	BYTE		N03     Cn1   v100
	BYTE		N03     As1 
	BYTE	W06
	BYTE		        Cn1 
	BYTE	W06
	BYTE		        Dn1 
	BYTE		N03     As1 
	BYTE	W06
	BYTE		        Cn1 
	BYTE	W06
	BYTE		        Dn1 
	BYTE		N03     As1 
	BYTE	W06
	BYTE		        Cn1 
	BYTE	W06
	BYTE		        Dn1 
	BYTE		N03     As1 
	BYTE	W06
	BYTE		        Cn1 
	BYTE	W06
	BYTE		N03   
	BYTE		N03     As1 
	BYTE		N03     Cs2 
	BYTE	W12
	BYTE		        Cn1 
	BYTE		N03     As1 
	BYTE	W12
	BYTE		        Dn1 
	BYTE		N03     As1 
	BYTE	W12
	BYTE		        Cn1 
	BYTE		N03     As1 
	BYTE	W12
// 060   ----------------------------------------
AllHailShadow_7_060:
	BYTE		N03     Cn1   v100
	BYTE		N03     As1 
	BYTE	W12
	BYTE		        Cn1 
	BYTE		N03     As1 
	BYTE	W12
	BYTE		        Dn1 
	BYTE		N03     As1 
	BYTE	W12
	BYTE		        Cn1 
	BYTE		N03     As1 
	BYTE	W12
	BYTE		        Cn1 
	BYTE		N03     As1 
	BYTE	W12
	BYTE		        Cn1 
	BYTE		N03     As1 
	BYTE	W12
	BYTE		        Dn1 
	BYTE		N03     As1 
	BYTE	W12
	BYTE		        Cn1 
	BYTE		N03     As1 
	BYTE	W12
	BYTE	PEND
// 061   ----------------------------------------
	BYTE	PATT
	 POIN2	AllHailShadow_7_060
// 062   ----------------------------------------
	BYTE	PATT
	 POIN2	AllHailShadow_7_060
// 063   ----------------------------------------
	BYTE		N03     Cn1   v100
	BYTE		N03     As1 
	BYTE	W12
	BYTE		        Cn1 
	BYTE		N03     As1 
	BYTE	W12
	BYTE		        Dn1 
	BYTE		N03     As1 
	BYTE	W12
	BYTE		        Dn1 
	BYTE		N03     As1 
	BYTE	W03
	BYTE		        Dn1 
	BYTE	W03
	BYTE		N03   
	BYTE	W03
	BYTE		N03   
	BYTE	W03
	BYTE		        Cn1 
	BYTE		N03     Cs2 
	BYTE	W12
	BYTE		        Dn1 
	BYTE		N03     As1 
	BYTE	W12
	BYTE		        Cn1 
	BYTE		N03     As1 
	BYTE	W06
	BYTE		        Cn1 
	BYTE	W06
	BYTE		        Dn1 
	BYTE	W06
	BYTE		        Cn1 
	BYTE		N03     As1 
	BYTE	W06
// 064   ----------------------------------------
	BYTE	PATT
	 POIN2	AllHailShadow_7_026
// 065   ----------------------------------------
	BYTE	PATT
	 POIN2	AllHailShadow_7_027
// 066   ----------------------------------------
	BYTE	PATT
	 POIN2	AllHailShadow_7_026
// 067   ----------------------------------------
	BYTE	PATT
	 POIN2	AllHailShadow_7_027
// 068   ----------------------------------------
	BYTE	PATT
	 POIN2	AllHailShadow_7_026
// 069   ----------------------------------------
	BYTE	PATT
	 POIN2	AllHailShadow_7_031
// 070   ----------------------------------------
	BYTE	PATT
	 POIN2	AllHailShadow_7_032
// 071   ----------------------------------------
	BYTE		N03     Dn1   v100
	BYTE		N03     Cn2 
	BYTE		N03     Cs2 
	BYTE	W18
	BYTE		        Dn1 
	BYTE		N03     Cn2 
	BYTE		N03     Cs2 
	BYTE	W18
	BYTE		        Dn1 
	BYTE		N03     An1 
	BYTE		N03     Cs2 
	BYTE	W12
	BYTE		        Dn1 
	BYTE		N03     Cn2 
	BYTE		N03     Cs2 
	BYTE	W18
	BYTE		        Dn1 
	BYTE		N03     Cn2 
	BYTE		N03     Cs2 
	BYTE	W18
	BYTE		        Dn1 
	BYTE		N03     An1 
	BYTE		N03     Cs2 
	BYTE	W03
	BYTE	FINE

//******************************************************//
	ALIGN 4

AllHailShadow:
	BYTE	7	// NumTrks
	BYTE	0	// NumBlks
	BYTE	AllHailShadow_pri	// Priority
	BYTE	AllHailShadow_rev	// Reverb.

	POIN2	AllHailShadow_grp

	POIN2	AllHailShadow_1
	POIN2	AllHailShadow_2
	POIN2	AllHailShadow_3
	POIN2	AllHailShadow_4
	POIN2	AllHailShadow_5
	POIN2	AllHailShadow_6
	POIN2	AllHailShadow_7

	
