	.include "MPlayDef.s"

	.equ	AweOfShe_grp, voicegroup000
	.equ	AweOfShe_pri, 0
	.equ	AweOfShe_rev, 0
	.equ	AweOfShe_mvl, 127
	.equ	AweOfShe_key, 0
	.equ	AweOfShe_tbs, 1
	.equ	AweOfShe_exg, 0
	.equ	AweOfShe_cmp, 1

	.section .rodata
	.global	AweOfShe
	.align	2

@**************** Track 1 (Midi-Chn.2) ****************@

AweOfShe_1:
	.byte	KEYSH , AweOfShe_key+0
@ 000   ----------------------------------------
	.byte	TEMPO , 120*AweOfShe_tbs/2
	.byte		VOICE , 52
	.byte	W12
	.byte		VOL   , 85*AweOfShe_mvl/mxv
	.byte	W03
	.byte		PAN   , c_v+0
	.byte	W03
	.byte	W78
@ 001   ----------------------------------------
	.byte	W24
	.byte		        c_v+0
	.byte	W72
@ 002   ----------------------------------------
	.byte	W24
	.byte		N12   , Dn3 , v127
	.byte	W12
	.byte		        An3 
	.byte	W12
	.byte		N72   
	.byte	W48
@ 003   ----------------------------------------
	.byte	W24
	.byte		N24   , Cn4 
	.byte	W24
	.byte		N12   , Bn3 
	.byte	W12
	.byte		        Dn4 
	.byte	W12
	.byte		TIE   
	.byte	W24
@ 004   ----------------------------------------
	.byte	W96
@ 005   ----------------------------------------
	.byte	W96
@ 006   ----------------------------------------
	.byte	W96
@ 007   ----------------------------------------
	.byte	W24
	.byte		EOT   
	.byte		N96   , Fn4 
	.byte	W72
@ 008   ----------------------------------------
	.byte	W24
	.byte		N48   , Dn3 
	.byte		N48   , As3 
	.byte	W48
	.byte		        Cs3 
	.byte		N48   , An3 
	.byte	W24
@ 009   ----------------------------------------
	.byte	W24
	.byte		        En3 
	.byte		N48   , Gn3 
	.byte	W48
	.byte		TIE   , Fn3 
	.byte		N48   , As3 
	.byte	W24
@ 010   ----------------------------------------
	.byte	W24
	.byte		N96   , An3 
	.byte	W72
@ 011   ----------------------------------------
	.byte	W24
	.byte		EOT   , Fn3 
	.byte		TIE   , Dn3 
	.byte		TIE   , Fn3 
	.byte		TIE   , An3 
	.byte	W72
@ 012   ----------------------------------------
	.byte	W96
@ 013   ----------------------------------------
	.byte	W23
	.byte	W01
	.byte	W72
@ 014   ----------------------------------------
	.byte	W02
	.byte	W02
	.byte	W03
	.byte	W02
	.byte	W03
	.byte	W02
	.byte	W02
	.byte	W03
	.byte	W02
	.byte	W03
	.byte	W02
	.byte	W02
	.byte	W03
	.byte	W02
	.byte	W03
	.byte	W02
	.byte	W02
	.byte	W03
	.byte	W02
	.byte	W03
	.byte	W02
	.byte	W02
	.byte	W03
	.byte	W02
	.byte	W03
	.byte	W02
	.byte	W02
	.byte	W03
	.byte	W02
	.byte	W03
	.byte	W02
	.byte	W02
	.byte	W03
	.byte	W02
	.byte	W03
	.byte	W02
	.byte	W02
	.byte	W03
	.byte	W02
	.byte	W03
@ 015   ----------------------------------------
	.byte	W02
	.byte	W02
	.byte	W03
	.byte	W02
	.byte	W03
	.byte	W02
	.byte	W02
	.byte	W03
	.byte	W02
	.byte	W02
	.byte	W01
	.byte		EOT   , Dn3 
	.byte		        Fn3 
	.byte		        An3 
	.byte	W01
	.byte	W68
	.byte	W03
@ 016   ----------------------------------------
	.byte	W96
@ 017   ----------------------------------------
	.byte	W96
@ 018   ----------------------------------------
	.byte	W96
@ 019   ----------------------------------------
	.byte	W96
@ 020   ----------------------------------------
	.byte	W96
@ 021   ----------------------------------------
	.byte	W96
@ 022   ----------------------------------------
	.byte	W96
@ 023   ----------------------------------------
	.byte	W96
@ 024   ----------------------------------------
	.byte	W96
@ 025   ----------------------------------------
	.byte	W96
@ 026   ----------------------------------------
	.byte	W96
@ 027   ----------------------------------------
	.byte	W96
@ 028   ----------------------------------------
	.byte	W96
@ 029   ----------------------------------------
	.byte	W96
@ 030   ----------------------------------------
	.byte	W96
@ 031   ----------------------------------------
	.byte	W96
@ 032   ----------------------------------------
	.byte	W96
@ 033   ----------------------------------------
	.byte	W96
@ 034   ----------------------------------------
	.byte	W96
@ 035   ----------------------------------------
	.byte	W96
@ 036   ----------------------------------------
	.byte	W96
@ 037   ----------------------------------------
	.byte	W96
@ 038   ----------------------------------------
	.byte	W96
@ 039   ----------------------------------------
	.byte	W96
@ 040   ----------------------------------------
AweOfShe_1_040:
	.byte	W72
	.byte		N18   , Cn5 , v127
	.byte	W18
	.byte		        As4 
	.byte	W06
	.byte	PEND
@ 041   ----------------------------------------
AweOfShe_1_041:
	.byte	W12
	.byte		N12   , An4 , v127
	.byte	W12
	.byte		N48   
	.byte	W48
	.byte		N24   , As4 
	.byte	W24
	.byte	PEND
@ 042   ----------------------------------------
AweOfShe_1_042:
	.byte		N24   , Cn5 , v127
	.byte	W24
	.byte		N48   , As4 
	.byte	W48
	.byte		        An4 
	.byte	W24
	.byte	PEND
@ 043   ----------------------------------------
	.byte	W24
	.byte		N96   , Gn4 
	.byte	W72
@ 044   ----------------------------------------
AweOfShe_1_044:
	.byte	W24
	.byte		N24   , En4 , v127
	.byte	W24
	.byte		        Fn4 
	.byte	W24
	.byte		        Gn4 
	.byte	W24
	.byte	PEND
@ 045   ----------------------------------------
	.byte		        An4 
	.byte	W96
@ 046   ----------------------------------------
	.byte	W96
@ 047   ----------------------------------------
	.byte	W96
@ 048   ----------------------------------------
	.byte	PATT
	 .word	AweOfShe_1_040
@ 049   ----------------------------------------
	.byte	PATT
	 .word	AweOfShe_1_041
@ 050   ----------------------------------------
	.byte	PATT
	 .word	AweOfShe_1_042
@ 051   ----------------------------------------
	.byte	W24
	.byte		N96   , Gn4 , v127
	.byte	W72
@ 052   ----------------------------------------
	.byte	PATT
	 .word	AweOfShe_1_044
@ 053   ----------------------------------------
	.byte		N24   , An4 , v127
	.byte	W96
@ 054   ----------------------------------------
	.byte	W96
@ 055   ----------------------------------------
AweOfShe_1_055:
	.byte	W24
	.byte		N48   , Fn4 , v127
	.byte	W48
	.byte		        En4 
	.byte	W24
	.byte	PEND
@ 056   ----------------------------------------
AweOfShe_1_056:
	.byte	W24
	.byte		N24   , Cs4 , v127
	.byte	W24
	.byte		        Dn4 
	.byte	W24
	.byte		        En4 
	.byte	W24
	.byte	PEND
@ 057   ----------------------------------------
AweOfShe_1_057:
	.byte		N24   , Fn4 , v127
	.byte	W24
	.byte		TIE   , An4 
	.byte	W72
	.byte	PEND
@ 058   ----------------------------------------
	.byte	W96
@ 059   ----------------------------------------
	.byte	W24
	.byte		EOT   
	.byte		N96   , Fs4 
	.byte	W72
@ 060   ----------------------------------------
AweOfShe_1_060:
	.byte	W24
	.byte		N48   , Gn4 , v127
	.byte	W48
	.byte		N24   
	.byte	W24
	.byte	PEND
@ 061   ----------------------------------------
AweOfShe_1_061:
	.byte		N24   , Fn4 , v127
	.byte	W24
	.byte		N48   , Gn4 
	.byte	W48
	.byte		        An4 
	.byte	W24
	.byte	PEND
@ 062   ----------------------------------------
AweOfShe_1_062:
	.byte	W24
	.byte		N24   , Dn4 , v127
	.byte	W24
	.byte		        En4 
	.byte	W24
	.byte		        Fn4 
	.byte	W24
	.byte	PEND
@ 063   ----------------------------------------
AweOfShe_1_063:
	.byte		N24   , Gn4 , v127
	.byte	W24
	.byte		N48   , As2 
	.byte		N48   , As4 
	.byte	W48
	.byte		        Bn2 
	.byte		N48   , Bn4 
	.byte	W24
	.byte	PEND
@ 064   ----------------------------------------
AweOfShe_1_064:
	.byte	W24
	.byte		N96   , An2 , v127
	.byte		N96   , An4 
	.byte	W72
	.byte	PEND
@ 065   ----------------------------------------
	.byte	W96
@ 066   ----------------------------------------
	.byte	W96
@ 067   ----------------------------------------
	.byte	W96
@ 068   ----------------------------------------
	.byte	W96
@ 069   ----------------------------------------
	.byte	W96
@ 070   ----------------------------------------
	.byte	W96
@ 071   ----------------------------------------
	.byte	W96
@ 072   ----------------------------------------
	.byte	W96
@ 073   ----------------------------------------
	.byte	W96
@ 074   ----------------------------------------
	.byte	W96
@ 075   ----------------------------------------
	.byte	W96
@ 076   ----------------------------------------
	.byte	W96
@ 077   ----------------------------------------
	.byte	W96
@ 078   ----------------------------------------
	.byte	W96
@ 079   ----------------------------------------
	.byte	W96
@ 080   ----------------------------------------
	.byte	W96
@ 081   ----------------------------------------
	.byte	W96
@ 082   ----------------------------------------
	.byte	PATT
	 .word	AweOfShe_1_040
@ 083   ----------------------------------------
	.byte	PATT
	 .word	AweOfShe_1_041
@ 084   ----------------------------------------
	.byte	PATT
	 .word	AweOfShe_1_042
@ 085   ----------------------------------------
	.byte	W24
	.byte		N96   , Gn4 , v127
	.byte	W72
@ 086   ----------------------------------------
	.byte	PATT
	 .word	AweOfShe_1_044
@ 087   ----------------------------------------
	.byte		N24   , An4 , v127
	.byte	W96
@ 088   ----------------------------------------
	.byte	W96
@ 089   ----------------------------------------
	.byte	W96
@ 090   ----------------------------------------
	.byte	PATT
	 .word	AweOfShe_1_040
@ 091   ----------------------------------------
	.byte	PATT
	 .word	AweOfShe_1_041
@ 092   ----------------------------------------
	.byte	PATT
	 .word	AweOfShe_1_042
@ 093   ----------------------------------------
	.byte	W24
	.byte		N96   , Gn4 , v127
	.byte	W72
@ 094   ----------------------------------------
	.byte	PATT
	 .word	AweOfShe_1_044
@ 095   ----------------------------------------
	.byte		N24   , An4 , v127
	.byte	W96
@ 096   ----------------------------------------
	.byte	W96
@ 097   ----------------------------------------
	.byte	PATT
	 .word	AweOfShe_1_055
@ 098   ----------------------------------------
	.byte	PATT
	 .word	AweOfShe_1_056
@ 099   ----------------------------------------
	.byte	PATT
	 .word	AweOfShe_1_057
@ 100   ----------------------------------------
	.byte	W96
@ 101   ----------------------------------------
	.byte	W24
	.byte		EOT   , An4 
	.byte		N96   , Fs4 , v127
	.byte	W72
@ 102   ----------------------------------------
	.byte	PATT
	 .word	AweOfShe_1_060
@ 103   ----------------------------------------
	.byte	PATT
	 .word	AweOfShe_1_061
@ 104   ----------------------------------------
	.byte	PATT
	 .word	AweOfShe_1_062
@ 105   ----------------------------------------
	.byte	PATT
	 .word	AweOfShe_1_063
@ 106   ----------------------------------------
	.byte	PATT
	 .word	AweOfShe_1_064
@ 107   ----------------------------------------
	.byte	W96
@ 108   ----------------------------------------
	.byte	W96
@ 109   ----------------------------------------
	.byte	W96
@ 110   ----------------------------------------
	.byte	W96
@ 111   ----------------------------------------
	.byte	W96
@ 112   ----------------------------------------
	.byte	W96
@ 113   ----------------------------------------
	.byte	W96
@ 114   ----------------------------------------
	.byte	W96
@ 115   ----------------------------------------
	.byte	W96
@ 116   ----------------------------------------
	.byte	W96
@ 117   ----------------------------------------
	.byte	W96
@ 118   ----------------------------------------
	.byte	W96
@ 119   ----------------------------------------
	.byte	W96
@ 120   ----------------------------------------
	.byte	W96
@ 121   ----------------------------------------
	.byte	W96
@ 122   ----------------------------------------
	.byte	W96
@ 123   ----------------------------------------
	.byte	W96
@ 124   ----------------------------------------
	.byte	PATT
	 .word	AweOfShe_1_040
@ 125   ----------------------------------------
	.byte	PATT
	 .word	AweOfShe_1_041
@ 126   ----------------------------------------
	.byte	PATT
	 .word	AweOfShe_1_042
@ 127   ----------------------------------------
	.byte	W24
	.byte		N96   , Gn4 , v127
	.byte	W72
@ 128   ----------------------------------------
	.byte	PATT
	 .word	AweOfShe_1_044
@ 129   ----------------------------------------
	.byte		N24   , An4 , v127
	.byte	W96
@ 130   ----------------------------------------
	.byte	W96
@ 131   ----------------------------------------
	.byte	W96
@ 132   ----------------------------------------
	.byte	PATT
	 .word	AweOfShe_1_040
@ 133   ----------------------------------------
	.byte	PATT
	 .word	AweOfShe_1_041
@ 134   ----------------------------------------
	.byte	PATT
	 .word	AweOfShe_1_042
@ 135   ----------------------------------------
	.byte	W24
	.byte		N96   , Gn4 , v127
	.byte	W72
@ 136   ----------------------------------------
	.byte	PATT
	 .word	AweOfShe_1_044
@ 137   ----------------------------------------
	.byte		N24   , An4 , v127
	.byte	W96
@ 138   ----------------------------------------
	.byte	W96
@ 139   ----------------------------------------
	.byte	PATT
	 .word	AweOfShe_1_055
@ 140   ----------------------------------------
	.byte	PATT
	 .word	AweOfShe_1_056
@ 141   ----------------------------------------
	.byte		N24   , Cs4 , v127
	.byte	W24
	.byte		TIE   , Dn4 
	.byte	W72
@ 142   ----------------------------------------
	.byte	W96
@ 143   ----------------------------------------
	.byte	W96
@ 144   ----------------------------------------
	.byte	W24
	.byte		EOT   
	.byte	FINE

@**************** Track 2 (Midi-Chn.3) ****************@

AweOfShe_2:
	.byte	KEYSH , AweOfShe_key+0
@ 000   ----------------------------------------
	.byte		VOICE , 89
	.byte		VOL   , 71*AweOfShe_mvl/mxv
	.byte	W15
	.byte		PAN   , c_v+0
	.byte	W03
	.byte	W78
@ 001   ----------------------------------------
	.byte	W24
	.byte		        c_v+0
	.byte	W72
@ 002   ----------------------------------------
	.byte	W24
	.byte		N12   , Dn3 , v127
	.byte	W12
	.byte		        An3 
	.byte	W12
	.byte		N72   
	.byte	W48
@ 003   ----------------------------------------
	.byte	W24
	.byte		N24   , Cn4 
	.byte	W24
	.byte		N12   , Bn3 
	.byte	W12
	.byte		        Dn4 
	.byte	W12
	.byte		TIE   
	.byte	W24
@ 004   ----------------------------------------
	.byte	W96
@ 005   ----------------------------------------
	.byte	W96
@ 006   ----------------------------------------
	.byte	W96
@ 007   ----------------------------------------
	.byte	W24
	.byte		EOT   
	.byte		N96   , Fn4 
	.byte	W72
@ 008   ----------------------------------------
	.byte	W24
	.byte		N48   , Dn3 
	.byte		N48   , As3 
	.byte	W48
	.byte		        Cs3 
	.byte		N48   , An3 
	.byte	W24
@ 009   ----------------------------------------
	.byte	W24
	.byte		        En3 
	.byte		N48   , Gn3 
	.byte	W48
	.byte		TIE   , Fn3 
	.byte		N48   , As3 
	.byte	W24
@ 010   ----------------------------------------
	.byte	W24
	.byte		N96   , An3 
	.byte	W72
@ 011   ----------------------------------------
	.byte	W24
	.byte		EOT   , Fn3 
	.byte		TIE   , Dn3 
	.byte		TIE   , Fn3 
	.byte		TIE   , An3 
	.byte	W72
@ 012   ----------------------------------------
	.byte	W96
@ 013   ----------------------------------------
	.byte	W23
	.byte	W01
	.byte	W72
@ 014   ----------------------------------------
	.byte	W02
	.byte	W02
	.byte	W03
	.byte	W02
	.byte	W03
	.byte	W02
	.byte	W02
	.byte	W03
	.byte	W02
	.byte	W03
	.byte	W02
	.byte	W02
	.byte	W03
	.byte	W02
	.byte	W03
	.byte	W02
	.byte	W02
	.byte	W03
	.byte	W02
	.byte	W03
	.byte	W02
	.byte	W02
	.byte	W03
	.byte	W02
	.byte	W03
	.byte	W02
	.byte	W02
	.byte	W03
	.byte	W02
	.byte	W03
	.byte	W02
	.byte	W02
	.byte	W03
	.byte	W02
	.byte	W03
	.byte	W02
	.byte	W02
	.byte	W03
	.byte	W02
	.byte	W03
@ 015   ----------------------------------------
	.byte	W02
	.byte	W02
	.byte	W03
	.byte	W02
	.byte	W03
	.byte	W02
	.byte	W02
	.byte	W03
	.byte	W02
	.byte	W02
	.byte	W01
	.byte		EOT   , Dn3 
	.byte		        Fn3 
	.byte		        An3 
	.byte	W01
	.byte	W68
	.byte	W03
@ 016   ----------------------------------------
	.byte	W96
@ 017   ----------------------------------------
	.byte	W96
@ 018   ----------------------------------------
	.byte	W96
@ 019   ----------------------------------------
	.byte	W96
@ 020   ----------------------------------------
	.byte	W96
@ 021   ----------------------------------------
	.byte	W96
@ 022   ----------------------------------------
	.byte	W96
@ 023   ----------------------------------------
	.byte	W96
@ 024   ----------------------------------------
	.byte	W96
@ 025   ----------------------------------------
	.byte	W96
@ 026   ----------------------------------------
	.byte	W96
@ 027   ----------------------------------------
	.byte	W96
@ 028   ----------------------------------------
	.byte	W96
@ 029   ----------------------------------------
	.byte	W96
@ 030   ----------------------------------------
	.byte	W96
@ 031   ----------------------------------------
	.byte	W96
@ 032   ----------------------------------------
	.byte	W96
@ 033   ----------------------------------------
	.byte	W96
@ 034   ----------------------------------------
	.byte	W96
@ 035   ----------------------------------------
	.byte	W96
@ 036   ----------------------------------------
	.byte	W96
@ 037   ----------------------------------------
	.byte	W96
@ 038   ----------------------------------------
	.byte	W96
@ 039   ----------------------------------------
	.byte	W96
@ 040   ----------------------------------------
AweOfShe_2_040:
	.byte	W72
	.byte		N18   , Cn5 , v127
	.byte	W18
	.byte		        As4 
	.byte	W06
	.byte	PEND
@ 041   ----------------------------------------
AweOfShe_2_041:
	.byte	W12
	.byte		N12   , An4 , v127
	.byte	W12
	.byte		N48   
	.byte	W48
	.byte		N24   , As4 
	.byte	W24
	.byte	PEND
@ 042   ----------------------------------------
AweOfShe_2_042:
	.byte		N24   , Cn5 , v127
	.byte	W24
	.byte		N48   , As4 
	.byte	W48
	.byte		        An4 
	.byte	W24
	.byte	PEND
@ 043   ----------------------------------------
	.byte	W24
	.byte		N96   , Gn4 
	.byte	W72
@ 044   ----------------------------------------
AweOfShe_2_044:
	.byte	W24
	.byte		N24   , En4 , v127
	.byte	W24
	.byte		        Fn4 
	.byte	W24
	.byte		        Gn4 
	.byte	W24
	.byte	PEND
@ 045   ----------------------------------------
	.byte		        An4 
	.byte	W96
@ 046   ----------------------------------------
	.byte	W96
@ 047   ----------------------------------------
	.byte	W96
@ 048   ----------------------------------------
	.byte	PATT
	 .word	AweOfShe_2_040
@ 049   ----------------------------------------
	.byte	PATT
	 .word	AweOfShe_2_041
@ 050   ----------------------------------------
	.byte	PATT
	 .word	AweOfShe_2_042
@ 051   ----------------------------------------
	.byte	W24
	.byte		N96   , Gn4 , v127
	.byte	W72
@ 052   ----------------------------------------
	.byte	PATT
	 .word	AweOfShe_2_044
@ 053   ----------------------------------------
	.byte		N24   , An4 , v127
	.byte	W96
@ 054   ----------------------------------------
	.byte	W96
@ 055   ----------------------------------------
AweOfShe_2_055:
	.byte	W24
	.byte		N48   , Fn4 , v127
	.byte	W48
	.byte		        En4 
	.byte	W24
	.byte	PEND
@ 056   ----------------------------------------
AweOfShe_2_056:
	.byte	W24
	.byte		N24   , Cs4 , v127
	.byte	W24
	.byte		        Dn4 
	.byte	W24
	.byte		        En4 
	.byte	W24
	.byte	PEND
@ 057   ----------------------------------------
AweOfShe_2_057:
	.byte		N24   , Fn4 , v127
	.byte	W24
	.byte		TIE   , An4 
	.byte	W72
	.byte	PEND
@ 058   ----------------------------------------
	.byte	W96
@ 059   ----------------------------------------
	.byte	W24
	.byte		EOT   
	.byte		N96   , Fs4 
	.byte	W72
@ 060   ----------------------------------------
AweOfShe_2_060:
	.byte	W24
	.byte		N48   , Gn4 , v127
	.byte	W48
	.byte		N24   
	.byte	W24
	.byte	PEND
@ 061   ----------------------------------------
AweOfShe_2_061:
	.byte		N24   , Fn4 , v127
	.byte	W24
	.byte		N48   , Gn4 
	.byte	W48
	.byte		        An4 
	.byte	W24
	.byte	PEND
@ 062   ----------------------------------------
AweOfShe_2_062:
	.byte	W24
	.byte		N24   , Dn4 , v127
	.byte	W24
	.byte		        En4 
	.byte	W24
	.byte		        Fn4 
	.byte	W24
	.byte	PEND
@ 063   ----------------------------------------
AweOfShe_2_063:
	.byte		N24   , Gn4 , v127
	.byte	W24
	.byte		N48   , As2 
	.byte		N48   , As4 
	.byte	W48
	.byte		        Bn2 
	.byte		N48   , Bn4 
	.byte	W24
	.byte	PEND
@ 064   ----------------------------------------
AweOfShe_2_064:
	.byte	W24
	.byte		N96   , An2 , v127
	.byte		N96   , An4 
	.byte	W72
	.byte	PEND
@ 065   ----------------------------------------
	.byte	W96
@ 066   ----------------------------------------
	.byte	W96
@ 067   ----------------------------------------
	.byte	W96
@ 068   ----------------------------------------
	.byte	W96
@ 069   ----------------------------------------
	.byte	W96
@ 070   ----------------------------------------
	.byte	W96
@ 071   ----------------------------------------
	.byte	W96
@ 072   ----------------------------------------
	.byte	W96
@ 073   ----------------------------------------
	.byte	W96
@ 074   ----------------------------------------
	.byte	W96
@ 075   ----------------------------------------
	.byte	W96
@ 076   ----------------------------------------
	.byte	W96
@ 077   ----------------------------------------
	.byte	W96
@ 078   ----------------------------------------
	.byte	W96
@ 079   ----------------------------------------
	.byte	W96
@ 080   ----------------------------------------
	.byte	W96
@ 081   ----------------------------------------
	.byte	W96
@ 082   ----------------------------------------
	.byte	PATT
	 .word	AweOfShe_2_040
@ 083   ----------------------------------------
	.byte	PATT
	 .word	AweOfShe_2_041
@ 084   ----------------------------------------
	.byte	PATT
	 .word	AweOfShe_2_042
@ 085   ----------------------------------------
	.byte	W24
	.byte		N96   , Gn4 , v127
	.byte	W72
@ 086   ----------------------------------------
	.byte	PATT
	 .word	AweOfShe_2_044
@ 087   ----------------------------------------
	.byte		N24   , An4 , v127
	.byte	W96
@ 088   ----------------------------------------
	.byte	W96
@ 089   ----------------------------------------
	.byte	W96
@ 090   ----------------------------------------
	.byte	PATT
	 .word	AweOfShe_2_040
@ 091   ----------------------------------------
	.byte	PATT
	 .word	AweOfShe_2_041
@ 092   ----------------------------------------
	.byte	PATT
	 .word	AweOfShe_2_042
@ 093   ----------------------------------------
	.byte	W24
	.byte		N96   , Gn4 , v127
	.byte	W72
@ 094   ----------------------------------------
	.byte	PATT
	 .word	AweOfShe_2_044
@ 095   ----------------------------------------
	.byte		N24   , An4 , v127
	.byte	W96
@ 096   ----------------------------------------
	.byte	W96
@ 097   ----------------------------------------
	.byte	PATT
	 .word	AweOfShe_2_055
@ 098   ----------------------------------------
	.byte	PATT
	 .word	AweOfShe_2_056
@ 099   ----------------------------------------
	.byte	PATT
	 .word	AweOfShe_2_057
@ 100   ----------------------------------------
	.byte	W96
@ 101   ----------------------------------------
	.byte	W24
	.byte		EOT   , An4 
	.byte		N96   , Fs4 , v127
	.byte	W72
@ 102   ----------------------------------------
	.byte	PATT
	 .word	AweOfShe_2_060
@ 103   ----------------------------------------
	.byte	PATT
	 .word	AweOfShe_2_061
@ 104   ----------------------------------------
	.byte	PATT
	 .word	AweOfShe_2_062
@ 105   ----------------------------------------
	.byte	PATT
	 .word	AweOfShe_2_063
@ 106   ----------------------------------------
	.byte	PATT
	 .word	AweOfShe_2_064
@ 107   ----------------------------------------
	.byte	W96
@ 108   ----------------------------------------
	.byte	W96
@ 109   ----------------------------------------
	.byte	W96
@ 110   ----------------------------------------
	.byte	W96
@ 111   ----------------------------------------
	.byte	W96
@ 112   ----------------------------------------
	.byte	W96
@ 113   ----------------------------------------
	.byte	W96
@ 114   ----------------------------------------
	.byte	W96
@ 115   ----------------------------------------
	.byte	W96
@ 116   ----------------------------------------
	.byte	W96
@ 117   ----------------------------------------
	.byte	W96
@ 118   ----------------------------------------
	.byte	W96
@ 119   ----------------------------------------
	.byte	W96
@ 120   ----------------------------------------
	.byte	W96
@ 121   ----------------------------------------
	.byte	W96
@ 122   ----------------------------------------
	.byte	W96
@ 123   ----------------------------------------
	.byte	W96
@ 124   ----------------------------------------
	.byte	PATT
	 .word	AweOfShe_2_040
@ 125   ----------------------------------------
	.byte	PATT
	 .word	AweOfShe_2_041
@ 126   ----------------------------------------
	.byte	PATT
	 .word	AweOfShe_2_042
@ 127   ----------------------------------------
	.byte	W24
	.byte		N96   , Gn4 , v127
	.byte	W72
@ 128   ----------------------------------------
	.byte	PATT
	 .word	AweOfShe_2_044
@ 129   ----------------------------------------
	.byte		N24   , An4 , v127
	.byte	W96
@ 130   ----------------------------------------
	.byte	W96
@ 131   ----------------------------------------
	.byte	W96
@ 132   ----------------------------------------
	.byte	PATT
	 .word	AweOfShe_2_040
@ 133   ----------------------------------------
	.byte	PATT
	 .word	AweOfShe_2_041
@ 134   ----------------------------------------
	.byte	PATT
	 .word	AweOfShe_2_042
@ 135   ----------------------------------------
	.byte	W24
	.byte		N96   , Gn4 , v127
	.byte	W72
@ 136   ----------------------------------------
	.byte	PATT
	 .word	AweOfShe_2_044
@ 137   ----------------------------------------
	.byte		N24   , An4 , v127
	.byte	W96
@ 138   ----------------------------------------
	.byte	W96
@ 139   ----------------------------------------
	.byte	PATT
	 .word	AweOfShe_2_055
@ 140   ----------------------------------------
	.byte	PATT
	 .word	AweOfShe_2_056
@ 141   ----------------------------------------
	.byte		N24   , Cs4 , v127
	.byte	W24
	.byte		TIE   , Dn4 
	.byte	W72
@ 142   ----------------------------------------
	.byte	W96
@ 143   ----------------------------------------
	.byte	W96
@ 144   ----------------------------------------
	.byte	W24
	.byte		EOT   
	.byte	FINE

@**************** Track 3 (Midi-Chn.2) ****************@

AweOfShe_3:
	.byte	KEYSH , AweOfShe_key+0
@ 000   ----------------------------------------
	.byte		VOICE , 52
	.byte	W12
	.byte		VOL   , 75*AweOfShe_mvl/mxv
	.byte	W03
	.byte		PAN   , c_v+0
	.byte	W03
	.byte	W06
	.byte		        c_v+0
	.byte	W72
@ 001   ----------------------------------------
	.byte	W96
@ 002   ----------------------------------------
	.byte	W96
@ 003   ----------------------------------------
	.byte	W96
@ 004   ----------------------------------------
	.byte		N12   , An3 , v127
	.byte	W12
	.byte		        Gn3 
	.byte	W12
	.byte		TIE   , An3 
	.byte	W72
@ 005   ----------------------------------------
	.byte	W72
	.byte		EOT   
	.byte		N24   , Gn3 
	.byte	W24
@ 006   ----------------------------------------
	.byte		        An3 
	.byte	W24
	.byte		N12   , Cn4 
	.byte	W12
	.byte		        Dn4 
	.byte	W12
	.byte		N72   
	.byte	W48
@ 007   ----------------------------------------
	.byte	W24
	.byte		N96   , Fn3 
	.byte		N96   , An3 
	.byte	W72
@ 008   ----------------------------------------
	.byte	W24
	.byte		N12   , As3 
	.byte	W12
	.byte		        An3 
	.byte	W12
	.byte		N24   , As3 
	.byte	W24
	.byte		        An3 
	.byte	W24
@ 009   ----------------------------------------
	.byte		N12   , Gn3 
	.byte	W12
	.byte		        Fn3 
	.byte	W12
	.byte		N48   , Gn3 
	.byte	W48
	.byte		N12   , An3 
	.byte	W12
	.byte		        Fn3 
	.byte	W12
@ 010   ----------------------------------------
	.byte		        En3 
	.byte	W12
	.byte		        Fn3 
	.byte	W12
	.byte		N24   , Dn3 
	.byte	W24
	.byte		        En3 
	.byte	W24
	.byte		        Fn3 
	.byte	W24
@ 011   ----------------------------------------
	.byte		        Gn3 
	.byte	W24
	.byte		TIE   , Dn3 
	.byte	W72
@ 012   ----------------------------------------
	.byte	W96
@ 013   ----------------------------------------
	.byte	W23
	.byte	W01
	.byte	W72
@ 014   ----------------------------------------
	.byte	W01
	.byte	W03
	.byte	W02
	.byte	W03
	.byte	W02
	.byte	W02
	.byte	W03
	.byte	W02
	.byte	W03
	.byte	W02
	.byte	W02
	.byte	W03
	.byte	W02
	.byte	W03
	.byte	W02
	.byte	W02
	.byte	W03
	.byte	W02
	.byte	W03
	.byte	W02
	.byte	W02
	.byte	W03
	.byte	W02
	.byte	W03
	.byte	W02
	.byte	W02
	.byte	W03
	.byte	W02
	.byte	W03
	.byte	W02
	.byte	W02
	.byte	W03
	.byte	W02
	.byte	W03
	.byte	W02
	.byte	W02
	.byte	W03
	.byte	W02
	.byte	W03
	.byte	W02
	.byte	W01
@ 015   ----------------------------------------
	.byte	W01
	.byte	W03
	.byte	W02
	.byte	W03
	.byte	W02
	.byte	W02
	.byte	W03
	.byte	W02
	.byte	W03
	.byte	W02
	.byte	W01
	.byte		EOT   
	.byte	W02
	.byte	W01
	.byte	W68
	.byte	W01
@ 016   ----------------------------------------
	.byte	W96
@ 017   ----------------------------------------
	.byte	W96
@ 018   ----------------------------------------
	.byte	W96
@ 019   ----------------------------------------
	.byte	W96
@ 020   ----------------------------------------
	.byte	W96
@ 021   ----------------------------------------
	.byte	W96
@ 022   ----------------------------------------
	.byte	W96
@ 023   ----------------------------------------
	.byte	W96
@ 024   ----------------------------------------
	.byte	W96
@ 025   ----------------------------------------
	.byte	W96
@ 026   ----------------------------------------
	.byte	W96
@ 027   ----------------------------------------
	.byte	W96
@ 028   ----------------------------------------
	.byte	W96
@ 029   ----------------------------------------
	.byte	W96
@ 030   ----------------------------------------
	.byte	W96
@ 031   ----------------------------------------
	.byte	W96
@ 032   ----------------------------------------
	.byte	W96
@ 033   ----------------------------------------
	.byte	W96
@ 034   ----------------------------------------
	.byte	W96
@ 035   ----------------------------------------
	.byte	W96
@ 036   ----------------------------------------
	.byte	W96
@ 037   ----------------------------------------
	.byte	W96
@ 038   ----------------------------------------
	.byte	W96
@ 039   ----------------------------------------
	.byte	W96
@ 040   ----------------------------------------
AweOfShe_3_040:
	.byte	W72
	.byte		N18   , Gn4 , v127
	.byte	W18
	.byte		        Fn4 
	.byte	W06
	.byte	PEND
@ 041   ----------------------------------------
AweOfShe_3_041:
	.byte	W12
	.byte		N12   , En4 , v127
	.byte	W12
	.byte		N48   
	.byte	W48
	.byte		        Gn4 
	.byte	W24
	.byte	PEND
@ 042   ----------------------------------------
AweOfShe_3_042:
	.byte	W24
	.byte		N48   , Fn4 , v127
	.byte	W48
	.byte		        En4 
	.byte	W24
	.byte	PEND
@ 043   ----------------------------------------
	.byte	W24
	.byte		N96   
	.byte	W72
@ 044   ----------------------------------------
AweOfShe_3_044:
	.byte	W24
	.byte		N24   , En3 , v127
	.byte	W24
	.byte		        Fn3 
	.byte	W24
	.byte		        Gn3 
	.byte	W24
	.byte	PEND
@ 045   ----------------------------------------
	.byte		        An3 
	.byte	W96
@ 046   ----------------------------------------
	.byte	W96
@ 047   ----------------------------------------
	.byte	W96
@ 048   ----------------------------------------
	.byte	PATT
	 .word	AweOfShe_3_040
@ 049   ----------------------------------------
	.byte	PATT
	 .word	AweOfShe_3_041
@ 050   ----------------------------------------
	.byte	PATT
	 .word	AweOfShe_3_042
@ 051   ----------------------------------------
	.byte	W24
	.byte		N96   , En4 , v127
	.byte	W72
@ 052   ----------------------------------------
	.byte	PATT
	 .word	AweOfShe_3_044
@ 053   ----------------------------------------
	.byte		N24   , An3 , v127
	.byte	W96
@ 054   ----------------------------------------
	.byte	W96
@ 055   ----------------------------------------
AweOfShe_3_055:
	.byte	W24
	.byte		N48   , Dn3 , v127
	.byte	W48
	.byte		        En3 
	.byte	W24
	.byte	PEND
@ 056   ----------------------------------------
AweOfShe_3_056:
	.byte	W24
	.byte		N48   , Gn3 , v127
	.byte	W48
	.byte		        Fn3 
	.byte	W24
	.byte	PEND
@ 057   ----------------------------------------
AweOfShe_3_057:
	.byte	W24
	.byte		N96   , Dn3 , v127
	.byte		TIE   , An3 
	.byte	W72
	.byte	PEND
@ 058   ----------------------------------------
	.byte	W24
	.byte		N96   , En3 
	.byte	W72
@ 059   ----------------------------------------
	.byte	W24
	.byte		        Fs3 
	.byte	W72
@ 060   ----------------------------------------
	.byte	W24
	.byte		EOT   , An3 
	.byte		N48   , Gn3 
	.byte		N48   , As3 
	.byte	W48
	.byte		N24   , Gn3 
	.byte		N24   , As3 
	.byte	W24
@ 061   ----------------------------------------
AweOfShe_3_061:
	.byte		N24   , Fn3 , v127
	.byte		N24   , An3 
	.byte	W24
	.byte		N48   , En3 
	.byte	W48
	.byte		        An3 
	.byte	W24
	.byte	PEND
@ 062   ----------------------------------------
AweOfShe_3_062:
	.byte	W24
	.byte		N24   , Fn3 , v127
	.byte	W24
	.byte		        Gn3 
	.byte	W24
	.byte		        An3 
	.byte	W24
	.byte	PEND
@ 063   ----------------------------------------
AweOfShe_3_063:
	.byte		N24   , As3 , v127
	.byte	W24
	.byte		N48   , Gn3 
	.byte		N48   , As3 
	.byte	W48
	.byte		TIE   , An3 
	.byte		N48   , Bn3 
	.byte	W24
	.byte	PEND
@ 064   ----------------------------------------
	.byte	W24
	.byte		N96   , En3 
	.byte	W72
@ 065   ----------------------------------------
	.byte	W24
	.byte		EOT   , An3 
	.byte	W72
@ 066   ----------------------------------------
	.byte	W96
@ 067   ----------------------------------------
	.byte	W96
@ 068   ----------------------------------------
	.byte	W96
@ 069   ----------------------------------------
	.byte	W96
@ 070   ----------------------------------------
	.byte	W96
@ 071   ----------------------------------------
	.byte	W96
@ 072   ----------------------------------------
	.byte	W96
@ 073   ----------------------------------------
	.byte	W96
@ 074   ----------------------------------------
	.byte	W96
@ 075   ----------------------------------------
	.byte	W96
@ 076   ----------------------------------------
	.byte	W96
@ 077   ----------------------------------------
	.byte	W96
@ 078   ----------------------------------------
	.byte	W96
@ 079   ----------------------------------------
	.byte	W96
@ 080   ----------------------------------------
	.byte	W96
@ 081   ----------------------------------------
	.byte	W96
@ 082   ----------------------------------------
	.byte	PATT
	 .word	AweOfShe_3_040
@ 083   ----------------------------------------
	.byte	PATT
	 .word	AweOfShe_3_041
@ 084   ----------------------------------------
	.byte	PATT
	 .word	AweOfShe_3_042
@ 085   ----------------------------------------
	.byte	W24
	.byte		N96   , En4 , v127
	.byte	W72
@ 086   ----------------------------------------
	.byte	PATT
	 .word	AweOfShe_3_044
@ 087   ----------------------------------------
	.byte		N24   , An3 , v127
	.byte	W96
@ 088   ----------------------------------------
	.byte	W96
@ 089   ----------------------------------------
	.byte	W96
@ 090   ----------------------------------------
	.byte	PATT
	 .word	AweOfShe_3_040
@ 091   ----------------------------------------
	.byte	PATT
	 .word	AweOfShe_3_041
@ 092   ----------------------------------------
	.byte	PATT
	 .word	AweOfShe_3_042
@ 093   ----------------------------------------
	.byte	W24
	.byte		N96   , En4 , v127
	.byte	W72
@ 094   ----------------------------------------
	.byte	PATT
	 .word	AweOfShe_3_044
@ 095   ----------------------------------------
	.byte		N24   , An3 , v127
	.byte	W96
@ 096   ----------------------------------------
	.byte	W96
@ 097   ----------------------------------------
	.byte	PATT
	 .word	AweOfShe_3_055
@ 098   ----------------------------------------
	.byte	PATT
	 .word	AweOfShe_3_056
@ 099   ----------------------------------------
	.byte	PATT
	 .word	AweOfShe_3_057
@ 100   ----------------------------------------
	.byte	W24
	.byte		N96   , En3 , v127
	.byte	W72
@ 101   ----------------------------------------
	.byte	W24
	.byte		        Fs3 
	.byte	W72
@ 102   ----------------------------------------
	.byte	W24
	.byte		EOT   , An3 
	.byte		N48   , Gn3 
	.byte		N48   , As3 
	.byte	W48
	.byte		N24   , Gn3 
	.byte		N24   , As3 
	.byte	W24
@ 103   ----------------------------------------
	.byte	PATT
	 .word	AweOfShe_3_061
@ 104   ----------------------------------------
	.byte	PATT
	 .word	AweOfShe_3_062
@ 105   ----------------------------------------
	.byte	PATT
	 .word	AweOfShe_3_063
@ 106   ----------------------------------------
	.byte	W24
	.byte		N96   , En3 , v127
	.byte	W72
@ 107   ----------------------------------------
	.byte	W24
	.byte		EOT   , An3 
	.byte	W72
@ 108   ----------------------------------------
	.byte	W96
@ 109   ----------------------------------------
	.byte	W96
@ 110   ----------------------------------------
	.byte	W96
@ 111   ----------------------------------------
	.byte	W96
@ 112   ----------------------------------------
	.byte	W96
@ 113   ----------------------------------------
	.byte	W96
@ 114   ----------------------------------------
	.byte	W96
@ 115   ----------------------------------------
	.byte	W96
@ 116   ----------------------------------------
	.byte	W96
@ 117   ----------------------------------------
	.byte	W96
@ 118   ----------------------------------------
	.byte	W96
@ 119   ----------------------------------------
	.byte	W96
@ 120   ----------------------------------------
	.byte	W96
@ 121   ----------------------------------------
	.byte	W96
@ 122   ----------------------------------------
	.byte	W96
@ 123   ----------------------------------------
	.byte	W96
@ 124   ----------------------------------------
	.byte	PATT
	 .word	AweOfShe_3_040
@ 125   ----------------------------------------
	.byte	PATT
	 .word	AweOfShe_3_041
@ 126   ----------------------------------------
	.byte	PATT
	 .word	AweOfShe_3_042
@ 127   ----------------------------------------
	.byte	W24
	.byte		N96   , En4 , v127
	.byte	W72
@ 128   ----------------------------------------
	.byte	PATT
	 .word	AweOfShe_3_044
@ 129   ----------------------------------------
	.byte		N24   , An3 , v127
	.byte	W96
@ 130   ----------------------------------------
	.byte	W96
@ 131   ----------------------------------------
	.byte	W96
@ 132   ----------------------------------------
	.byte	PATT
	 .word	AweOfShe_3_040
@ 133   ----------------------------------------
	.byte	PATT
	 .word	AweOfShe_3_041
@ 134   ----------------------------------------
	.byte	PATT
	 .word	AweOfShe_3_042
@ 135   ----------------------------------------
	.byte	W24
	.byte		N96   , En4 , v127
	.byte	W72
@ 136   ----------------------------------------
	.byte	PATT
	 .word	AweOfShe_3_044
@ 137   ----------------------------------------
	.byte		N24   , An3 , v127
	.byte	W96
@ 138   ----------------------------------------
	.byte	W96
@ 139   ----------------------------------------
	.byte	PATT
	 .word	AweOfShe_3_055
@ 140   ----------------------------------------
	.byte	PATT
	 .word	AweOfShe_3_056
@ 141   ----------------------------------------
	.byte	W24
	.byte		TIE   , Dn3 , v127
	.byte		TIE   , An3 
	.byte	W72
@ 142   ----------------------------------------
	.byte	W96
@ 143   ----------------------------------------
	.byte	W96
@ 144   ----------------------------------------
	.byte	W24
	.byte		EOT   , Dn3 
	.byte		        An3 
	.byte	FINE

@**************** Track 4 (Midi-Chn.5) ****************@

AweOfShe_4:
	.byte	KEYSH , AweOfShe_key+0
@ 000   ----------------------------------------
	.byte		VOICE , 50
	.byte	W12
	.byte		VOL   , 75*AweOfShe_mvl/mxv
	.byte	W03
	.byte		PAN   , c_v+0
	.byte	W03
	.byte	W06
	.byte		        c_v+0
	.byte	W72
@ 001   ----------------------------------------
	.byte	W96
@ 002   ----------------------------------------
	.byte	W96
@ 003   ----------------------------------------
	.byte	W96
@ 004   ----------------------------------------
	.byte		N12   , An3 , v127
	.byte	W12
	.byte		        Gn3 
	.byte	W12
	.byte		TIE   , An3 
	.byte	W72
@ 005   ----------------------------------------
	.byte	W72
	.byte		EOT   
	.byte		N24   , Gn3 
	.byte	W24
@ 006   ----------------------------------------
	.byte		        An3 
	.byte	W24
	.byte		N12   , Cn4 
	.byte	W12
	.byte		        Dn4 
	.byte	W12
	.byte		N72   
	.byte	W48
@ 007   ----------------------------------------
	.byte	W24
	.byte		N96   , Fn3 
	.byte		N96   , An3 
	.byte	W72
@ 008   ----------------------------------------
	.byte	W24
	.byte		N12   , As3 
	.byte	W12
	.byte		        An3 
	.byte	W12
	.byte		N24   , As3 
	.byte	W24
	.byte		        An3 
	.byte	W24
@ 009   ----------------------------------------
	.byte		N12   , Gn3 
	.byte	W12
	.byte		        Fn3 
	.byte	W12
	.byte		N48   , Gn3 
	.byte	W48
	.byte		N12   , An3 
	.byte	W12
	.byte		        Fn3 
	.byte	W12
@ 010   ----------------------------------------
	.byte		        En3 
	.byte	W12
	.byte		        Fn3 
	.byte	W12
	.byte		N24   , Dn3 
	.byte	W24
	.byte		        En3 
	.byte	W24
	.byte		        Fn3 
	.byte	W24
@ 011   ----------------------------------------
	.byte		        Gn3 
	.byte	W24
	.byte		TIE   , Dn3 
	.byte	W72
@ 012   ----------------------------------------
	.byte	W96
@ 013   ----------------------------------------
	.byte	W23
	.byte	W01
	.byte	W72
@ 014   ----------------------------------------
	.byte	W01
	.byte	W03
	.byte	W02
	.byte	W03
	.byte	W02
	.byte	W02
	.byte	W03
	.byte	W02
	.byte	W03
	.byte	W02
	.byte	W02
	.byte	W03
	.byte	W02
	.byte	W03
	.byte	W02
	.byte	W02
	.byte	W03
	.byte	W02
	.byte	W03
	.byte	W02
	.byte	W02
	.byte	W03
	.byte	W02
	.byte	W03
	.byte	W02
	.byte	W02
	.byte	W03
	.byte	W02
	.byte	W03
	.byte	W02
	.byte	W02
	.byte	W03
	.byte	W02
	.byte	W03
	.byte	W02
	.byte	W02
	.byte	W03
	.byte	W02
	.byte	W03
	.byte	W02
	.byte	W01
@ 015   ----------------------------------------
	.byte	W01
	.byte	W03
	.byte	W02
	.byte	W03
	.byte	W02
	.byte	W02
	.byte	W03
	.byte	W02
	.byte	W03
	.byte	W02
	.byte	W01
	.byte		EOT   
	.byte	W02
	.byte	W01
	.byte	W68
	.byte	W01
@ 016   ----------------------------------------
	.byte	W96
@ 017   ----------------------------------------
	.byte	W96
@ 018   ----------------------------------------
	.byte	W96
@ 019   ----------------------------------------
	.byte	W96
@ 020   ----------------------------------------
	.byte	W96
@ 021   ----------------------------------------
	.byte	W96
@ 022   ----------------------------------------
	.byte	W96
@ 023   ----------------------------------------
	.byte	W96
@ 024   ----------------------------------------
	.byte	W96
@ 025   ----------------------------------------
	.byte	W96
@ 026   ----------------------------------------
	.byte	W96
@ 027   ----------------------------------------
	.byte	W96
@ 028   ----------------------------------------
	.byte	W96
@ 029   ----------------------------------------
	.byte	W96
@ 030   ----------------------------------------
	.byte	W96
@ 031   ----------------------------------------
	.byte	W96
@ 032   ----------------------------------------
	.byte	W96
@ 033   ----------------------------------------
	.byte	W96
@ 034   ----------------------------------------
	.byte	W96
@ 035   ----------------------------------------
	.byte	W96
@ 036   ----------------------------------------
	.byte	W96
@ 037   ----------------------------------------
	.byte	W96
@ 038   ----------------------------------------
	.byte	W96
@ 039   ----------------------------------------
	.byte	W96
@ 040   ----------------------------------------
AweOfShe_4_040:
	.byte	W72
	.byte		N18   , Gn4 , v127
	.byte	W18
	.byte		        Fn4 
	.byte	W06
	.byte	PEND
@ 041   ----------------------------------------
AweOfShe_4_041:
	.byte	W12
	.byte		N12   , En4 , v127
	.byte	W12
	.byte		N48   
	.byte	W48
	.byte		        Gn4 
	.byte	W24
	.byte	PEND
@ 042   ----------------------------------------
AweOfShe_4_042:
	.byte	W24
	.byte		N48   , Fn4 , v127
	.byte	W48
	.byte		        En4 
	.byte	W24
	.byte	PEND
@ 043   ----------------------------------------
	.byte	W24
	.byte		N96   
	.byte	W72
@ 044   ----------------------------------------
AweOfShe_4_044:
	.byte	W24
	.byte		N24   , En3 , v127
	.byte	W24
	.byte		        Fn3 
	.byte	W24
	.byte		        Gn3 
	.byte	W24
	.byte	PEND
@ 045   ----------------------------------------
	.byte		        An3 
	.byte	W96
@ 046   ----------------------------------------
	.byte	W96
@ 047   ----------------------------------------
	.byte	W96
@ 048   ----------------------------------------
	.byte	PATT
	 .word	AweOfShe_4_040
@ 049   ----------------------------------------
	.byte	PATT
	 .word	AweOfShe_4_041
@ 050   ----------------------------------------
	.byte	PATT
	 .word	AweOfShe_4_042
@ 051   ----------------------------------------
	.byte	W24
	.byte		N96   , En4 , v127
	.byte	W72
@ 052   ----------------------------------------
	.byte	PATT
	 .word	AweOfShe_4_044
@ 053   ----------------------------------------
	.byte		N24   , An3 , v127
	.byte	W96
@ 054   ----------------------------------------
	.byte	W96
@ 055   ----------------------------------------
AweOfShe_4_055:
	.byte	W24
	.byte		N48   , Dn3 , v127
	.byte	W48
	.byte		        En3 
	.byte	W24
	.byte	PEND
@ 056   ----------------------------------------
AweOfShe_4_056:
	.byte	W24
	.byte		N48   , Gn3 , v127
	.byte	W48
	.byte		        Fn3 
	.byte	W24
	.byte	PEND
@ 057   ----------------------------------------
AweOfShe_4_057:
	.byte	W24
	.byte		N96   , Dn3 , v127
	.byte		TIE   , An3 
	.byte	W72
	.byte	PEND
@ 058   ----------------------------------------
	.byte	W24
	.byte		N96   , En3 
	.byte	W72
@ 059   ----------------------------------------
	.byte	W24
	.byte		        Fs3 
	.byte	W72
@ 060   ----------------------------------------
	.byte	W24
	.byte		EOT   , An3 
	.byte		N48   , Gn3 
	.byte		N48   , As3 
	.byte	W48
	.byte		N24   , Gn3 
	.byte		N24   , As3 
	.byte	W24
@ 061   ----------------------------------------
AweOfShe_4_061:
	.byte		N24   , Fn3 , v127
	.byte		N24   , An3 
	.byte	W24
	.byte		N48   , En3 
	.byte	W48
	.byte		        An3 
	.byte	W24
	.byte	PEND
@ 062   ----------------------------------------
AweOfShe_4_062:
	.byte	W24
	.byte		N24   , Fn3 , v127
	.byte	W24
	.byte		        Gn3 
	.byte	W24
	.byte		        An3 
	.byte	W24
	.byte	PEND
@ 063   ----------------------------------------
AweOfShe_4_063:
	.byte		N24   , As3 , v127
	.byte	W24
	.byte		N48   , Gn3 
	.byte		N48   , As3 
	.byte	W48
	.byte		TIE   , An3 
	.byte		N48   , Bn3 
	.byte	W24
	.byte	PEND
@ 064   ----------------------------------------
	.byte	W24
	.byte		N96   , En3 
	.byte	W72
@ 065   ----------------------------------------
	.byte	W24
	.byte		EOT   , An3 
	.byte	W72
@ 066   ----------------------------------------
	.byte	W96
@ 067   ----------------------------------------
	.byte	W96
@ 068   ----------------------------------------
	.byte	W96
@ 069   ----------------------------------------
	.byte	W96
@ 070   ----------------------------------------
	.byte	W96
@ 071   ----------------------------------------
	.byte	W96
@ 072   ----------------------------------------
	.byte	W96
@ 073   ----------------------------------------
	.byte	W96
@ 074   ----------------------------------------
	.byte	W96
@ 075   ----------------------------------------
	.byte	W96
@ 076   ----------------------------------------
	.byte	W96
@ 077   ----------------------------------------
	.byte	W96
@ 078   ----------------------------------------
	.byte	W96
@ 079   ----------------------------------------
	.byte	W96
@ 080   ----------------------------------------
	.byte	W96
@ 081   ----------------------------------------
	.byte	W96
@ 082   ----------------------------------------
	.byte	PATT
	 .word	AweOfShe_4_040
@ 083   ----------------------------------------
	.byte	PATT
	 .word	AweOfShe_4_041
@ 084   ----------------------------------------
	.byte	PATT
	 .word	AweOfShe_4_042
@ 085   ----------------------------------------
	.byte	W24
	.byte		N96   , En4 , v127
	.byte	W72
@ 086   ----------------------------------------
	.byte	PATT
	 .word	AweOfShe_4_044
@ 087   ----------------------------------------
	.byte		N24   , An3 , v127
	.byte	W96
@ 088   ----------------------------------------
	.byte	W96
@ 089   ----------------------------------------
	.byte	W96
@ 090   ----------------------------------------
	.byte	PATT
	 .word	AweOfShe_4_040
@ 091   ----------------------------------------
	.byte	PATT
	 .word	AweOfShe_4_041
@ 092   ----------------------------------------
	.byte	PATT
	 .word	AweOfShe_4_042
@ 093   ----------------------------------------
	.byte	W24
	.byte		N96   , En4 , v127
	.byte	W72
@ 094   ----------------------------------------
	.byte	PATT
	 .word	AweOfShe_4_044
@ 095   ----------------------------------------
	.byte		N24   , An3 , v127
	.byte	W96
@ 096   ----------------------------------------
	.byte	W96
@ 097   ----------------------------------------
	.byte	PATT
	 .word	AweOfShe_4_055
@ 098   ----------------------------------------
	.byte	PATT
	 .word	AweOfShe_4_056
@ 099   ----------------------------------------
	.byte	PATT
	 .word	AweOfShe_4_057
@ 100   ----------------------------------------
	.byte	W24
	.byte		N96   , En3 , v127
	.byte	W72
@ 101   ----------------------------------------
	.byte	W24
	.byte		        Fs3 
	.byte	W72
@ 102   ----------------------------------------
	.byte	W24
	.byte		EOT   , An3 
	.byte		N48   , Gn3 
	.byte		N48   , As3 
	.byte	W48
	.byte		N24   , Gn3 
	.byte		N24   , As3 
	.byte	W24
@ 103   ----------------------------------------
	.byte	PATT
	 .word	AweOfShe_4_061
@ 104   ----------------------------------------
	.byte	PATT
	 .word	AweOfShe_4_062
@ 105   ----------------------------------------
	.byte	PATT
	 .word	AweOfShe_4_063
@ 106   ----------------------------------------
	.byte	W24
	.byte		N96   , En3 , v127
	.byte	W72
@ 107   ----------------------------------------
	.byte	W24
	.byte		EOT   , An3 
	.byte	W72
@ 108   ----------------------------------------
	.byte	W96
@ 109   ----------------------------------------
	.byte	W96
@ 110   ----------------------------------------
	.byte	W96
@ 111   ----------------------------------------
	.byte	W96
@ 112   ----------------------------------------
	.byte	W96
@ 113   ----------------------------------------
	.byte	W96
@ 114   ----------------------------------------
	.byte	W96
@ 115   ----------------------------------------
	.byte	W96
@ 116   ----------------------------------------
	.byte	W96
@ 117   ----------------------------------------
	.byte	W96
@ 118   ----------------------------------------
	.byte	W96
@ 119   ----------------------------------------
	.byte	W96
@ 120   ----------------------------------------
	.byte	W96
@ 121   ----------------------------------------
	.byte	W96
@ 122   ----------------------------------------
	.byte	W96
@ 123   ----------------------------------------
	.byte	W96
@ 124   ----------------------------------------
	.byte	PATT
	 .word	AweOfShe_4_040
@ 125   ----------------------------------------
	.byte	PATT
	 .word	AweOfShe_4_041
@ 126   ----------------------------------------
	.byte	PATT
	 .word	AweOfShe_4_042
@ 127   ----------------------------------------
	.byte	W24
	.byte		N96   , En4 , v127
	.byte	W72
@ 128   ----------------------------------------
	.byte	PATT
	 .word	AweOfShe_4_044
@ 129   ----------------------------------------
	.byte		N24   , An3 , v127
	.byte	W96
@ 130   ----------------------------------------
	.byte	W96
@ 131   ----------------------------------------
	.byte	W96
@ 132   ----------------------------------------
	.byte	PATT
	 .word	AweOfShe_4_040
@ 133   ----------------------------------------
	.byte	PATT
	 .word	AweOfShe_4_041
@ 134   ----------------------------------------
	.byte	PATT
	 .word	AweOfShe_4_042
@ 135   ----------------------------------------
	.byte	W24
	.byte		N96   , En4 , v127
	.byte	W72
@ 136   ----------------------------------------
	.byte	PATT
	 .word	AweOfShe_4_044
@ 137   ----------------------------------------
	.byte		N24   , An3 , v127
	.byte	W96
@ 138   ----------------------------------------
	.byte	W96
@ 139   ----------------------------------------
	.byte	PATT
	 .word	AweOfShe_4_055
@ 140   ----------------------------------------
	.byte	PATT
	 .word	AweOfShe_4_056
@ 141   ----------------------------------------
	.byte	W24
	.byte		TIE   , Dn3 , v127
	.byte		TIE   , An3 
	.byte	W72
@ 142   ----------------------------------------
	.byte	W96
@ 143   ----------------------------------------
	.byte	W96
@ 144   ----------------------------------------
	.byte	W24
	.byte		EOT   , Dn3 
	.byte		        An3 
	.byte	FINE

@**************** Track 5 (Midi-Chn.2) ****************@

AweOfShe_5:
	.byte	KEYSH , AweOfShe_key+0
@ 000   ----------------------------------------
	.byte		VOICE , 52
	.byte	W12
	.byte		VOL   , 80*AweOfShe_mvl/mxv
	.byte	W03
	.byte		PAN   , c_v+0
	.byte	W03
	.byte	W06
	.byte		        c_v+0
	.byte	W72
@ 001   ----------------------------------------
	.byte	W96
@ 002   ----------------------------------------
	.byte	W96
@ 003   ----------------------------------------
	.byte	W96
@ 004   ----------------------------------------
	.byte	W48
	.byte		N12   , Fn3 , v127
	.byte	W12
	.byte		        En3 
	.byte	W12
	.byte		N96   , Dn3 
	.byte		N96   , Fn3 
	.byte	W24
@ 005   ----------------------------------------
	.byte		N12   , An2 
	.byte	W12
	.byte		        Gn2 
	.byte	W12
	.byte		N24   , An2 
	.byte	W24
	.byte		        Dn2 
	.byte		N24   , Cn3 
	.byte	W24
	.byte		        Cn2 
	.byte		N24   , Cn3 
	.byte		N24   , En3 
	.byte	W24
@ 006   ----------------------------------------
	.byte		        Dn2 
	.byte		N24   , Dn3 
	.byte		N24   , Fn3 
	.byte	W24
	.byte		N12   , En2 
	.byte		N12   , En3 
	.byte		N12   , Gn3 
	.byte	W12
	.byte		        Fn2 
	.byte		N12   , Fn3 
	.byte		N12   , An3 
	.byte	W12
	.byte		N72   , Fn2 
	.byte		N72   , Fn3 
	.byte		N72   , An3 
	.byte	W48
@ 007   ----------------------------------------
	.byte	W24
	.byte		N24   , Fn2 
	.byte		N72   , As2 
	.byte	W24
	.byte		N24   , En2 
	.byte	W24
	.byte		        Dn2 
	.byte	W24
@ 008   ----------------------------------------
	.byte		        Cs2 
	.byte		N12   , An2 
	.byte	W12
	.byte		        Gn2 
	.byte	W12
	.byte		N48   , Dn2 
	.byte		N84   , An2 
	.byte	W48
	.byte		N48   , Cs2 
	.byte	W24
@ 009   ----------------------------------------
	.byte	W12
	.byte		N12   , As2 
	.byte	W12
	.byte		N48   , En2 
	.byte		N48   , An2 
	.byte	W48
	.byte		        Dn2 
	.byte		N48   , As2 
	.byte	W24
@ 010   ----------------------------------------
	.byte	W24
	.byte		N96   , Dn2 
	.byte		N96   , An2 
	.byte	W72
@ 011   ----------------------------------------
	.byte	W24
	.byte		TIE   , Dn2 
	.byte		TIE   , An2 
	.byte	W72
@ 012   ----------------------------------------
	.byte	W96
@ 013   ----------------------------------------
	.byte	W24
	.byte	W01
	.byte	W68
	.byte	W03
@ 014   ----------------------------------------
	.byte	W05
	.byte	W02
	.byte	W03
	.byte	W02
	.byte	W02
	.byte	W03
	.byte	W02
	.byte	W03
	.byte	W02
	.byte	W02
	.byte	W03
	.byte	W02
	.byte	W03
	.byte	W02
	.byte	W02
	.byte	W03
	.byte	W02
	.byte	W03
	.byte	W02
	.byte	W02
	.byte	W03
	.byte	W02
	.byte	W03
	.byte	W02
	.byte	W02
	.byte	W03
	.byte	W02
	.byte	W03
	.byte	W02
	.byte	W02
	.byte	W03
	.byte	W02
	.byte	W03
	.byte	W02
	.byte	W02
	.byte	W03
	.byte	W02
	.byte	W03
	.byte	W02
@ 015   ----------------------------------------
	.byte	W02
	.byte	W03
	.byte	W02
	.byte	W03
	.byte	W02
	.byte	W02
	.byte	W03
	.byte	W02
	.byte	W02
	.byte	W02
	.byte	W01
	.byte		EOT   , Dn2 
	.byte		        An2 
	.byte	W01
	.byte	W68
	.byte	W03
@ 016   ----------------------------------------
	.byte	W96
@ 017   ----------------------------------------
	.byte	W96
@ 018   ----------------------------------------
	.byte	W96
@ 019   ----------------------------------------
	.byte	W96
@ 020   ----------------------------------------
	.byte	W96
@ 021   ----------------------------------------
	.byte	W96
@ 022   ----------------------------------------
	.byte	W96
@ 023   ----------------------------------------
	.byte	W96
@ 024   ----------------------------------------
	.byte	W96
@ 025   ----------------------------------------
	.byte	W96
@ 026   ----------------------------------------
	.byte	W96
@ 027   ----------------------------------------
	.byte	W96
@ 028   ----------------------------------------
	.byte	W96
@ 029   ----------------------------------------
	.byte	W96
@ 030   ----------------------------------------
	.byte	W96
@ 031   ----------------------------------------
	.byte	W96
@ 032   ----------------------------------------
	.byte	W96
@ 033   ----------------------------------------
	.byte	W96
@ 034   ----------------------------------------
	.byte	W96
@ 035   ----------------------------------------
	.byte	W96
@ 036   ----------------------------------------
	.byte	W96
@ 037   ----------------------------------------
	.byte	W96
@ 038   ----------------------------------------
	.byte	W96
@ 039   ----------------------------------------
	.byte	W96
@ 040   ----------------------------------------
AweOfShe_5_040:
	.byte	W72
	.byte		N18   , Gn3 , v127
	.byte		N18   , Cn4 
	.byte	W18
	.byte		        Fn3 
	.byte		N18   , As3 
	.byte	W06
	.byte	PEND
@ 041   ----------------------------------------
AweOfShe_5_041:
	.byte	W12
	.byte		N12   , En3 , v127
	.byte		N12   , An3 
	.byte	W12
	.byte		N48   , En3 
	.byte		N48   , An3 
	.byte	W48
	.byte		        Gn3 
	.byte		N24   , As3 
	.byte	W24
	.byte	PEND
@ 042   ----------------------------------------
AweOfShe_5_042:
	.byte		N24   , Cn4 , v127
	.byte	W24
	.byte		N48   , Fn3 
	.byte		N48   , As3 
	.byte	W48
	.byte		        En3 
	.byte		N48   , An3 
	.byte	W24
	.byte	PEND
@ 043   ----------------------------------------
	.byte	W24
	.byte		N96   , En3 
	.byte		N96   , Gn3 
	.byte	W72
@ 044   ----------------------------------------
AweOfShe_5_044:
	.byte	W24
	.byte		N24   , En2 , v127
	.byte		N24   , En3 
	.byte	W24
	.byte		        Fn2 
	.byte		N24   , Fn3 
	.byte	W24
	.byte		        Gn2 
	.byte		N24   , Gn3 
	.byte	W24
	.byte	PEND
@ 045   ----------------------------------------
	.byte		        An2 
	.byte		N24   , An3 
	.byte	W96
@ 046   ----------------------------------------
	.byte	W96
@ 047   ----------------------------------------
	.byte	W96
@ 048   ----------------------------------------
	.byte	PATT
	 .word	AweOfShe_5_040
@ 049   ----------------------------------------
	.byte	PATT
	 .word	AweOfShe_5_041
@ 050   ----------------------------------------
	.byte	PATT
	 .word	AweOfShe_5_042
@ 051   ----------------------------------------
	.byte	W24
	.byte		N96   , En3 , v127
	.byte		N96   , Gn3 
	.byte	W72
@ 052   ----------------------------------------
	.byte	PATT
	 .word	AweOfShe_5_044
@ 053   ----------------------------------------
	.byte		N24   , An2 , v127
	.byte		N24   , An3 
	.byte	W96
@ 054   ----------------------------------------
	.byte	W96
@ 055   ----------------------------------------
AweOfShe_5_055:
	.byte	W24
	.byte		N48   , Dn2 , v127
	.byte		N48   , An2 
	.byte	W48
	.byte		        En2 
	.byte		N48   , An2 
	.byte	W24
	.byte	PEND
@ 056   ----------------------------------------
AweOfShe_5_056:
	.byte	W24
	.byte		N48   , Gn2 , v127
	.byte		N48   , As2 
	.byte	W48
	.byte		        Fn2 
	.byte		N48   , An2 
	.byte	W24
	.byte	PEND
@ 057   ----------------------------------------
AweOfShe_5_057:
	.byte	W24
	.byte		TIE   , An2 , v127
	.byte	W72
	.byte	PEND
@ 058   ----------------------------------------
	.byte	W96
@ 059   ----------------------------------------
	.byte	W24
	.byte		N96   , Fs2 
	.byte	W72
@ 060   ----------------------------------------
	.byte	W24
	.byte		EOT   , An2 
	.byte		N48   , Gn2 
	.byte		N48   , As2 
	.byte	W48
	.byte		N24   , Gn2 
	.byte		N24   , As2 
	.byte	W24
@ 061   ----------------------------------------
AweOfShe_5_061:
	.byte		N24   , Fn2 , v127
	.byte		N24   , An2 
	.byte	W24
	.byte		N48   , En2 
	.byte		N48   , Gn2 
	.byte	W48
	.byte		        An2 
	.byte	W24
	.byte	PEND
@ 062   ----------------------------------------
AweOfShe_5_062:
	.byte	W24
	.byte		N24   , Dn2 , v127
	.byte		N24   , Dn3 
	.byte	W24
	.byte		        En2 
	.byte		N24   , En3 
	.byte	W24
	.byte		        Fn2 
	.byte		N24   , Fn3 
	.byte	W24
	.byte	PEND
@ 063   ----------------------------------------
AweOfShe_5_063:
	.byte		N24   , Gn2 , v127
	.byte		N24   , Gn3 
	.byte	W24
	.byte		N48   , As2 
	.byte	W48
	.byte		        Bn2 
	.byte	W24
	.byte	PEND
@ 064   ----------------------------------------
	.byte	W24
	.byte		N96   , An2 
	.byte	W72
@ 065   ----------------------------------------
	.byte	W96
@ 066   ----------------------------------------
	.byte	W96
@ 067   ----------------------------------------
	.byte	W96
@ 068   ----------------------------------------
	.byte	W96
@ 069   ----------------------------------------
	.byte	W96
@ 070   ----------------------------------------
	.byte	W96
@ 071   ----------------------------------------
	.byte	W96
@ 072   ----------------------------------------
	.byte	W96
@ 073   ----------------------------------------
	.byte	W96
@ 074   ----------------------------------------
	.byte	W96
@ 075   ----------------------------------------
	.byte	W96
@ 076   ----------------------------------------
	.byte	W96
@ 077   ----------------------------------------
	.byte	W96
@ 078   ----------------------------------------
	.byte	W96
@ 079   ----------------------------------------
	.byte	W96
@ 080   ----------------------------------------
	.byte	W96
@ 081   ----------------------------------------
	.byte	W96
@ 082   ----------------------------------------
	.byte	PATT
	 .word	AweOfShe_5_040
@ 083   ----------------------------------------
	.byte	PATT
	 .word	AweOfShe_5_041
@ 084   ----------------------------------------
	.byte	PATT
	 .word	AweOfShe_5_042
@ 085   ----------------------------------------
	.byte	W24
	.byte		N96   , En3 , v127
	.byte		N96   , Gn3 
	.byte	W72
@ 086   ----------------------------------------
	.byte	PATT
	 .word	AweOfShe_5_044
@ 087   ----------------------------------------
	.byte		N24   , An2 , v127
	.byte		N24   , An3 
	.byte	W96
@ 088   ----------------------------------------
	.byte	W96
@ 089   ----------------------------------------
	.byte	W96
@ 090   ----------------------------------------
	.byte	PATT
	 .word	AweOfShe_5_040
@ 091   ----------------------------------------
	.byte	PATT
	 .word	AweOfShe_5_041
@ 092   ----------------------------------------
	.byte	PATT
	 .word	AweOfShe_5_042
@ 093   ----------------------------------------
	.byte	W24
	.byte		N96   , En3 , v127
	.byte		N96   , Gn3 
	.byte	W72
@ 094   ----------------------------------------
	.byte	PATT
	 .word	AweOfShe_5_044
@ 095   ----------------------------------------
	.byte		N24   , An2 , v127
	.byte		N24   , An3 
	.byte	W96
@ 096   ----------------------------------------
	.byte	W96
@ 097   ----------------------------------------
	.byte	PATT
	 .word	AweOfShe_5_055
@ 098   ----------------------------------------
	.byte	PATT
	 .word	AweOfShe_5_056
@ 099   ----------------------------------------
	.byte	PATT
	 .word	AweOfShe_5_057
@ 100   ----------------------------------------
	.byte	W96
@ 101   ----------------------------------------
	.byte	W24
	.byte		N96   , Fs2 , v127
	.byte	W72
@ 102   ----------------------------------------
	.byte	W24
	.byte		EOT   , An2 
	.byte		N48   , Gn2 
	.byte		N48   , As2 
	.byte	W48
	.byte		N24   , Gn2 
	.byte		N24   , As2 
	.byte	W24
@ 103   ----------------------------------------
	.byte	PATT
	 .word	AweOfShe_5_061
@ 104   ----------------------------------------
	.byte	PATT
	 .word	AweOfShe_5_062
@ 105   ----------------------------------------
	.byte	PATT
	 .word	AweOfShe_5_063
@ 106   ----------------------------------------
	.byte	W24
	.byte		N96   , An2 , v127
	.byte	W72
@ 107   ----------------------------------------
	.byte	W96
@ 108   ----------------------------------------
	.byte	W96
@ 109   ----------------------------------------
	.byte	W96
@ 110   ----------------------------------------
	.byte	W96
@ 111   ----------------------------------------
	.byte	W96
@ 112   ----------------------------------------
	.byte	W96
@ 113   ----------------------------------------
	.byte	W96
@ 114   ----------------------------------------
	.byte	W96
@ 115   ----------------------------------------
	.byte	W96
@ 116   ----------------------------------------
	.byte	W96
@ 117   ----------------------------------------
	.byte	W96
@ 118   ----------------------------------------
	.byte	W96
@ 119   ----------------------------------------
	.byte	W96
@ 120   ----------------------------------------
	.byte	W96
@ 121   ----------------------------------------
	.byte	W96
@ 122   ----------------------------------------
	.byte	W96
@ 123   ----------------------------------------
	.byte	W96
@ 124   ----------------------------------------
	.byte	PATT
	 .word	AweOfShe_5_040
@ 125   ----------------------------------------
	.byte	PATT
	 .word	AweOfShe_5_041
@ 126   ----------------------------------------
	.byte	PATT
	 .word	AweOfShe_5_042
@ 127   ----------------------------------------
	.byte	W24
	.byte		N96   , En3 , v127
	.byte		N96   , Gn3 
	.byte	W72
@ 128   ----------------------------------------
	.byte	PATT
	 .word	AweOfShe_5_044
@ 129   ----------------------------------------
	.byte		N24   , An2 , v127
	.byte		N24   , An3 
	.byte	W96
@ 130   ----------------------------------------
	.byte	W96
@ 131   ----------------------------------------
	.byte	W96
@ 132   ----------------------------------------
	.byte	PATT
	 .word	AweOfShe_5_040
@ 133   ----------------------------------------
	.byte	PATT
	 .word	AweOfShe_5_041
@ 134   ----------------------------------------
	.byte	PATT
	 .word	AweOfShe_5_042
@ 135   ----------------------------------------
	.byte	W24
	.byte		N96   , En3 , v127
	.byte		N96   , Gn3 
	.byte	W72
@ 136   ----------------------------------------
	.byte	PATT
	 .word	AweOfShe_5_044
@ 137   ----------------------------------------
	.byte		N24   , An2 , v127
	.byte		N24   , An3 
	.byte	W96
@ 138   ----------------------------------------
	.byte	W96
@ 139   ----------------------------------------
	.byte	PATT
	 .word	AweOfShe_5_055
@ 140   ----------------------------------------
	.byte	PATT
	 .word	AweOfShe_5_056
@ 141   ----------------------------------------
	.byte	W24
	.byte		N48   , Gn2 , v127
	.byte		TIE   , An2 
	.byte	W48
	.byte		N24   , Fn2 
	.byte	W24
@ 142   ----------------------------------------
	.byte		        En2 
	.byte	W24
	.byte		TIE   , Dn2 
	.byte	W72
@ 143   ----------------------------------------
	.byte	W96
@ 144   ----------------------------------------
	.byte	W24
	.byte		EOT   
	.byte		EOT   , An2 
	.byte	FINE

@**************** Track 6 (Midi-Chn.3) ****************@

AweOfShe_6:
	.byte	KEYSH , AweOfShe_key+0
@ 000   ----------------------------------------
	.byte		VOICE , 89
	.byte	W12
	.byte		VOL   , 80*AweOfShe_mvl/mxv
	.byte	W03
	.byte		PAN   , c_v+0
	.byte	W03
	.byte	W06
	.byte		        c_v+0
	.byte	W72
@ 001   ----------------------------------------
	.byte	W96
@ 002   ----------------------------------------
	.byte	W96
@ 003   ----------------------------------------
	.byte	W96
@ 004   ----------------------------------------
	.byte	W48
	.byte		N12   , Fn3 , v127
	.byte	W12
	.byte		        En3 
	.byte	W12
	.byte		N96   , Dn3 
	.byte		N96   , Fn3 
	.byte	W24
@ 005   ----------------------------------------
	.byte		N12   , An2 
	.byte	W12
	.byte		        Gn2 
	.byte	W12
	.byte		N24   , An2 
	.byte	W24
	.byte		        Dn2 
	.byte		N24   , Cn3 
	.byte	W24
	.byte		        Cn2 
	.byte		N24   , Cn3 
	.byte		N24   , En3 
	.byte	W24
@ 006   ----------------------------------------
	.byte		        Dn2 
	.byte		N24   , Dn3 
	.byte		N24   , Fn3 
	.byte	W24
	.byte		N12   , En2 
	.byte		N12   , En3 
	.byte		N12   , Gn3 
	.byte	W12
	.byte		        Fn2 
	.byte		N12   , Fn3 
	.byte		N12   , An3 
	.byte	W12
	.byte		N72   , Fn2 
	.byte		N72   , Fn3 
	.byte		N72   , An3 
	.byte	W48
@ 007   ----------------------------------------
	.byte	W24
	.byte		N24   , Fn2 
	.byte		N72   , As2 
	.byte	W24
	.byte		N24   , En2 
	.byte	W24
	.byte		        Dn2 
	.byte	W24
@ 008   ----------------------------------------
	.byte		        Cs2 
	.byte		N12   , An2 
	.byte	W12
	.byte		        Gn2 
	.byte	W12
	.byte		N48   , Dn2 
	.byte		N84   , An2 
	.byte	W48
	.byte		N48   , Cs2 
	.byte	W24
@ 009   ----------------------------------------
	.byte	W12
	.byte		N12   , As2 
	.byte	W12
	.byte		N48   , En2 
	.byte		N48   , An2 
	.byte	W48
	.byte		        Dn2 
	.byte		N48   , As2 
	.byte	W24
@ 010   ----------------------------------------
	.byte	W24
	.byte		N96   , Dn2 
	.byte		N96   , An2 
	.byte	W72
@ 011   ----------------------------------------
	.byte	W24
	.byte		TIE   , Dn2 
	.byte		TIE   , An2 
	.byte	W72
@ 012   ----------------------------------------
	.byte	W96
@ 013   ----------------------------------------
	.byte	W24
	.byte	W01
	.byte	W68
	.byte	W03
@ 014   ----------------------------------------
	.byte	W05
	.byte	W02
	.byte	W03
	.byte	W02
	.byte	W02
	.byte	W03
	.byte	W02
	.byte	W03
	.byte	W02
	.byte	W02
	.byte	W03
	.byte	W02
	.byte	W03
	.byte	W02
	.byte	W02
	.byte	W03
	.byte	W02
	.byte	W03
	.byte	W02
	.byte	W02
	.byte	W03
	.byte	W02
	.byte	W03
	.byte	W02
	.byte	W02
	.byte	W03
	.byte	W02
	.byte	W03
	.byte	W02
	.byte	W02
	.byte	W03
	.byte	W02
	.byte	W03
	.byte	W02
	.byte	W02
	.byte	W03
	.byte	W02
	.byte	W03
	.byte	W02
@ 015   ----------------------------------------
	.byte	W02
	.byte	W03
	.byte	W02
	.byte	W03
	.byte	W02
	.byte	W02
	.byte	W03
	.byte	W02
	.byte	W02
	.byte	W02
	.byte	W01
	.byte		EOT   , Dn2 
	.byte		        An2 
	.byte	W01
	.byte	W68
	.byte	W03
@ 016   ----------------------------------------
	.byte	W96
@ 017   ----------------------------------------
	.byte	W96
@ 018   ----------------------------------------
	.byte	W96
@ 019   ----------------------------------------
	.byte	W96
@ 020   ----------------------------------------
	.byte	W96
@ 021   ----------------------------------------
	.byte	W96
@ 022   ----------------------------------------
	.byte	W96
@ 023   ----------------------------------------
	.byte	W96
@ 024   ----------------------------------------
	.byte	W96
@ 025   ----------------------------------------
	.byte	W96
@ 026   ----------------------------------------
	.byte	W96
@ 027   ----------------------------------------
	.byte	W96
@ 028   ----------------------------------------
	.byte	W96
@ 029   ----------------------------------------
	.byte	W96
@ 030   ----------------------------------------
	.byte	W96
@ 031   ----------------------------------------
	.byte	W96
@ 032   ----------------------------------------
	.byte	W96
@ 033   ----------------------------------------
	.byte	W96
@ 034   ----------------------------------------
	.byte	W96
@ 035   ----------------------------------------
	.byte	W96
@ 036   ----------------------------------------
	.byte	W96
@ 037   ----------------------------------------
	.byte	W96
@ 038   ----------------------------------------
	.byte	W96
@ 039   ----------------------------------------
	.byte	W96
@ 040   ----------------------------------------
AweOfShe_6_040:
	.byte	W72
	.byte		N18   , Gn3 , v127
	.byte		N18   , Cn4 
	.byte	W18
	.byte		        Fn3 
	.byte		N18   , As3 
	.byte	W06
	.byte	PEND
@ 041   ----------------------------------------
AweOfShe_6_041:
	.byte	W12
	.byte		N12   , En3 , v127
	.byte		N12   , An3 
	.byte	W12
	.byte		N48   , En3 
	.byte		N48   , An3 
	.byte	W48
	.byte		        Gn3 
	.byte		N24   , As3 
	.byte	W24
	.byte	PEND
@ 042   ----------------------------------------
AweOfShe_6_042:
	.byte		N24   , Cn4 , v127
	.byte	W24
	.byte		N48   , Fn3 
	.byte		N48   , As3 
	.byte	W48
	.byte		        En3 
	.byte		N48   , An3 
	.byte	W24
	.byte	PEND
@ 043   ----------------------------------------
	.byte	W24
	.byte		N96   , En3 
	.byte		N96   , Gn3 
	.byte	W72
@ 044   ----------------------------------------
AweOfShe_6_044:
	.byte	W24
	.byte		N24   , En2 , v127
	.byte		N24   , En3 
	.byte	W24
	.byte		        Fn2 
	.byte		N24   , Fn3 
	.byte	W24
	.byte		        Gn2 
	.byte		N24   , Gn3 
	.byte	W24
	.byte	PEND
@ 045   ----------------------------------------
	.byte		        An2 
	.byte		N24   , An3 
	.byte	W96
@ 046   ----------------------------------------
	.byte	W96
@ 047   ----------------------------------------
	.byte	W96
@ 048   ----------------------------------------
	.byte	PATT
	 .word	AweOfShe_6_040
@ 049   ----------------------------------------
	.byte	PATT
	 .word	AweOfShe_6_041
@ 050   ----------------------------------------
	.byte	PATT
	 .word	AweOfShe_6_042
@ 051   ----------------------------------------
	.byte	W24
	.byte		N96   , En3 , v127
	.byte		N96   , Gn3 
	.byte	W72
@ 052   ----------------------------------------
	.byte	PATT
	 .word	AweOfShe_6_044
@ 053   ----------------------------------------
	.byte		N24   , An2 , v127
	.byte		N24   , An3 
	.byte	W96
@ 054   ----------------------------------------
	.byte	W96
@ 055   ----------------------------------------
AweOfShe_6_055:
	.byte	W24
	.byte		N48   , Dn2 , v127
	.byte		N48   , An2 
	.byte	W48
	.byte		        En2 
	.byte		N48   , An2 
	.byte	W24
	.byte	PEND
@ 056   ----------------------------------------
AweOfShe_6_056:
	.byte	W24
	.byte		N48   , Gn2 , v127
	.byte		N48   , As2 
	.byte	W48
	.byte		        Fn2 
	.byte		N48   , An2 
	.byte	W24
	.byte	PEND
@ 057   ----------------------------------------
AweOfShe_6_057:
	.byte	W24
	.byte		TIE   , An2 , v127
	.byte	W72
	.byte	PEND
@ 058   ----------------------------------------
	.byte	W96
@ 059   ----------------------------------------
	.byte	W24
	.byte		N96   , Fs2 
	.byte	W72
@ 060   ----------------------------------------
	.byte	W24
	.byte		EOT   , An2 
	.byte		N48   , Gn2 
	.byte		N48   , As2 
	.byte	W48
	.byte		N24   , Gn2 
	.byte		N24   , As2 
	.byte	W24
@ 061   ----------------------------------------
AweOfShe_6_061:
	.byte		N24   , Fn2 , v127
	.byte		N24   , An2 
	.byte	W24
	.byte		N48   , En2 
	.byte		N48   , Gn2 
	.byte	W48
	.byte		        An2 
	.byte	W24
	.byte	PEND
@ 062   ----------------------------------------
AweOfShe_6_062:
	.byte	W24
	.byte		N24   , Dn2 , v127
	.byte		N24   , Dn3 
	.byte	W24
	.byte		        En2 
	.byte		N24   , En3 
	.byte	W24
	.byte		        Fn2 
	.byte		N24   , Fn3 
	.byte	W24
	.byte	PEND
@ 063   ----------------------------------------
AweOfShe_6_063:
	.byte		N24   , Gn2 , v127
	.byte		N24   , Gn3 
	.byte	W24
	.byte		N48   , As2 
	.byte	W48
	.byte		        Bn2 
	.byte	W24
	.byte	PEND
@ 064   ----------------------------------------
	.byte	W24
	.byte		N96   , An2 
	.byte	W72
@ 065   ----------------------------------------
	.byte	W96
@ 066   ----------------------------------------
	.byte	W96
@ 067   ----------------------------------------
	.byte	W96
@ 068   ----------------------------------------
	.byte	W96
@ 069   ----------------------------------------
	.byte	W96
@ 070   ----------------------------------------
	.byte	W96
@ 071   ----------------------------------------
	.byte	W96
@ 072   ----------------------------------------
	.byte	W96
@ 073   ----------------------------------------
	.byte	W96
@ 074   ----------------------------------------
	.byte	W96
@ 075   ----------------------------------------
	.byte	W96
@ 076   ----------------------------------------
	.byte	W96
@ 077   ----------------------------------------
	.byte	W96
@ 078   ----------------------------------------
	.byte	W96
@ 079   ----------------------------------------
	.byte	W96
@ 080   ----------------------------------------
	.byte	W96
@ 081   ----------------------------------------
	.byte	W96
@ 082   ----------------------------------------
	.byte	PATT
	 .word	AweOfShe_6_040
@ 083   ----------------------------------------
	.byte	PATT
	 .word	AweOfShe_6_041
@ 084   ----------------------------------------
	.byte	PATT
	 .word	AweOfShe_6_042
@ 085   ----------------------------------------
	.byte	W24
	.byte		N96   , En3 , v127
	.byte		N96   , Gn3 
	.byte	W72
@ 086   ----------------------------------------
	.byte	PATT
	 .word	AweOfShe_6_044
@ 087   ----------------------------------------
	.byte		N24   , An2 , v127
	.byte		N24   , An3 
	.byte	W96
@ 088   ----------------------------------------
	.byte	W96
@ 089   ----------------------------------------
	.byte	W96
@ 090   ----------------------------------------
	.byte	PATT
	 .word	AweOfShe_6_040
@ 091   ----------------------------------------
	.byte	PATT
	 .word	AweOfShe_6_041
@ 092   ----------------------------------------
	.byte	PATT
	 .word	AweOfShe_6_042
@ 093   ----------------------------------------
	.byte	W24
	.byte		N96   , En3 , v127
	.byte		N96   , Gn3 
	.byte	W72
@ 094   ----------------------------------------
	.byte	PATT
	 .word	AweOfShe_6_044
@ 095   ----------------------------------------
	.byte		N24   , An2 , v127
	.byte		N24   , An3 
	.byte	W96
@ 096   ----------------------------------------
	.byte	W96
@ 097   ----------------------------------------
	.byte	PATT
	 .word	AweOfShe_6_055
@ 098   ----------------------------------------
	.byte	PATT
	 .word	AweOfShe_6_056
@ 099   ----------------------------------------
	.byte	PATT
	 .word	AweOfShe_6_057
@ 100   ----------------------------------------
	.byte	W96
@ 101   ----------------------------------------
	.byte	W24
	.byte		N96   , Fs2 , v127
	.byte	W72
@ 102   ----------------------------------------
	.byte	W24
	.byte		EOT   , An2 
	.byte		N48   , Gn2 
	.byte		N48   , As2 
	.byte	W48
	.byte		N24   , Gn2 
	.byte		N24   , As2 
	.byte	W24
@ 103   ----------------------------------------
	.byte	PATT
	 .word	AweOfShe_6_061
@ 104   ----------------------------------------
	.byte	PATT
	 .word	AweOfShe_6_062
@ 105   ----------------------------------------
	.byte	PATT
	 .word	AweOfShe_6_063
@ 106   ----------------------------------------
	.byte	W24
	.byte		N96   , An2 , v127
	.byte	W72
@ 107   ----------------------------------------
	.byte	W96
@ 108   ----------------------------------------
	.byte	W96
@ 109   ----------------------------------------
	.byte	W96
@ 110   ----------------------------------------
	.byte	W96
@ 111   ----------------------------------------
	.byte	W96
@ 112   ----------------------------------------
	.byte	W96
@ 113   ----------------------------------------
	.byte	W96
@ 114   ----------------------------------------
	.byte	W96
@ 115   ----------------------------------------
	.byte	W96
@ 116   ----------------------------------------
	.byte	W96
@ 117   ----------------------------------------
	.byte	W96
@ 118   ----------------------------------------
	.byte	W96
@ 119   ----------------------------------------
	.byte	W96
@ 120   ----------------------------------------
	.byte	W96
@ 121   ----------------------------------------
	.byte	W96
@ 122   ----------------------------------------
	.byte	W96
@ 123   ----------------------------------------
	.byte	W96
@ 124   ----------------------------------------
	.byte	PATT
	 .word	AweOfShe_6_040
@ 125   ----------------------------------------
	.byte	PATT
	 .word	AweOfShe_6_041
@ 126   ----------------------------------------
	.byte	PATT
	 .word	AweOfShe_6_042
@ 127   ----------------------------------------
	.byte	W24
	.byte		N96   , En3 , v127
	.byte		N96   , Gn3 
	.byte	W72
@ 128   ----------------------------------------
	.byte	PATT
	 .word	AweOfShe_6_044
@ 129   ----------------------------------------
	.byte		N24   , An2 , v127
	.byte		N24   , An3 
	.byte	W96
@ 130   ----------------------------------------
	.byte	W96
@ 131   ----------------------------------------
	.byte	W96
@ 132   ----------------------------------------
	.byte	PATT
	 .word	AweOfShe_6_040
@ 133   ----------------------------------------
	.byte	PATT
	 .word	AweOfShe_6_041
@ 134   ----------------------------------------
	.byte	PATT
	 .word	AweOfShe_6_042
@ 135   ----------------------------------------
	.byte	W24
	.byte		N96   , En3 , v127
	.byte		N96   , Gn3 
	.byte	W72
@ 136   ----------------------------------------
	.byte	PATT
	 .word	AweOfShe_6_044
@ 137   ----------------------------------------
	.byte		N24   , An2 , v127
	.byte		N24   , An3 
	.byte	W96
@ 138   ----------------------------------------
	.byte	W96
@ 139   ----------------------------------------
	.byte	PATT
	 .word	AweOfShe_6_055
@ 140   ----------------------------------------
	.byte	PATT
	 .word	AweOfShe_6_056
@ 141   ----------------------------------------
	.byte	W24
	.byte		N48   , Gn2 , v127
	.byte		TIE   , An2 
	.byte	W48
	.byte		N24   , Fn2 
	.byte	W24
@ 142   ----------------------------------------
	.byte		        En2 
	.byte	W24
	.byte		TIE   , Dn2 
	.byte	W72
@ 143   ----------------------------------------
	.byte	W96
@ 144   ----------------------------------------
	.byte	W24
	.byte		EOT   
	.byte		EOT   , An2 
	.byte	FINE

@**************** Track 7 (Midi-Chn.4) ****************@

AweOfShe_7:
	.byte	KEYSH , AweOfShe_key+0
@ 000   ----------------------------------------
	.byte		VOICE , 0
	.byte	W12
	.byte		VOL   , 100*AweOfShe_mvl/mxv
	.byte	W03
	.byte		PAN   , c_v+0
	.byte	W03
	.byte	W06
	.byte		        c_v+0
	.byte	W72
@ 001   ----------------------------------------
	.byte	W96
@ 002   ----------------------------------------
	.byte	W96
@ 003   ----------------------------------------
	.byte	W96
@ 004   ----------------------------------------
	.byte	W96
@ 005   ----------------------------------------
	.byte	W96
@ 006   ----------------------------------------
	.byte	W96
@ 007   ----------------------------------------
	.byte	W96
@ 008   ----------------------------------------
	.byte	W96
@ 009   ----------------------------------------
	.byte	W96
@ 010   ----------------------------------------
	.byte	W96
@ 011   ----------------------------------------
	.byte	W24
	.byte		N12   , Fn4 , v127
	.byte	W12
	.byte		        Dn3 
	.byte	W12
	.byte		        Fn4 
	.byte	W12
	.byte		        Dn3 
	.byte	W12
	.byte		        Gn4 
	.byte	W12
	.byte		        Dn3 
	.byte	W12
@ 012   ----------------------------------------
AweOfShe_7_012:
	.byte		N12   , Gn4 , v127
	.byte	W12
	.byte		N18   , Dn3 
	.byte	W12
	.byte		N12   , En4 
	.byte	W12
	.byte		        Dn3 
	.byte	W12
	.byte		        En4 
	.byte	W12
	.byte		        Dn3 
	.byte	W12
	.byte		        Fn4 
	.byte	W12
	.byte		        Dn3 
	.byte	W12
	.byte	PEND
@ 013   ----------------------------------------
AweOfShe_7_013:
	.byte		N12   , Fn4 , v127
	.byte	W12
	.byte		N18   , Dn3 
	.byte	W12
	.byte		N12   , Dn4 
	.byte	W12
	.byte		        Dn3 
	.byte	W12
	.byte		        Dn4 
	.byte	W12
	.byte		        Dn3 
	.byte	W12
	.byte		        En4 
	.byte	W12
	.byte		        Dn3 
	.byte	W12
	.byte	PEND
@ 014   ----------------------------------------
AweOfShe_7_014:
	.byte		N12   , En4 , v127
	.byte	W12
	.byte		N18   , Dn3 
	.byte	W12
	.byte		N06   , Cs4 
	.byte	W12
	.byte		N12   , Dn3 
	.byte	W12
	.byte		        Dn4 
	.byte	W12
	.byte		        Dn3 
	.byte	W12
	.byte		        En4 
	.byte	W12
	.byte		        Dn3 
	.byte	W12
	.byte	PEND
@ 015   ----------------------------------------
	.byte		        Fn4 
	.byte	W12
	.byte		N18   , Dn3 
	.byte	W12
	.byte		N06   , Fn4 
	.byte	W12
	.byte		N12   , Dn3 
	.byte	W12
	.byte		        Fn4 
	.byte	W12
	.byte		        Dn3 
	.byte	W12
	.byte		        Gn4 
	.byte	W12
	.byte		        Dn3 
	.byte	W12
@ 016   ----------------------------------------
	.byte	PATT
	 .word	AweOfShe_7_012
@ 017   ----------------------------------------
	.byte	PATT
	 .word	AweOfShe_7_013
@ 018   ----------------------------------------
	.byte	PATT
	 .word	AweOfShe_7_014
@ 019   ----------------------------------------
	.byte		N12   , Fn4 , v127
	.byte	W12
	.byte		N18   , Dn3 
	.byte	W18
	.byte	FINE

@**************** Track 8 (Midi-Chn.3) ****************@

AweOfShe_8:
	.byte	KEYSH , AweOfShe_key+0
@ 000   ----------------------------------------
	.byte		VOICE , 89
	.byte		VOL   , 127*AweOfShe_mvl/mxv
	.byte	W15
	.byte		PAN   , c_v+0
	.byte	W03
	.byte	W06
	.byte		        c_v+0
	.byte	W72
@ 001   ----------------------------------------
	.byte	W96
@ 002   ----------------------------------------
	.byte	W96
@ 003   ----------------------------------------
	.byte	W96
@ 004   ----------------------------------------
	.byte	W96
@ 005   ----------------------------------------
	.byte	W96
@ 006   ----------------------------------------
	.byte	W96
@ 007   ----------------------------------------
	.byte	W96
@ 008   ----------------------------------------
	.byte	W96
@ 009   ----------------------------------------
	.byte	W96
@ 010   ----------------------------------------
	.byte	W96
@ 011   ----------------------------------------
	.byte	W24
	.byte		N12   , Fn4 , v127
	.byte	W12
	.byte		        Dn3 
	.byte	W12
	.byte		        Fn4 
	.byte	W12
	.byte		        Dn3 
	.byte	W12
	.byte		        Gn4 
	.byte	W12
	.byte		        Dn3 
	.byte	W12
@ 012   ----------------------------------------
AweOfShe_8_012:
	.byte		N12   , Gn4 , v127
	.byte	W12
	.byte		N18   , Dn3 
	.byte	W12
	.byte		N12   , En4 
	.byte	W12
	.byte		        Dn3 
	.byte	W12
	.byte		        En4 
	.byte	W12
	.byte		        Dn3 
	.byte	W12
	.byte		        Fn4 
	.byte	W12
	.byte		        Dn3 
	.byte	W12
	.byte	PEND
@ 013   ----------------------------------------
AweOfShe_8_013:
	.byte		N12   , Fn4 , v127
	.byte	W12
	.byte		N18   , Dn3 
	.byte	W12
	.byte		N12   , Dn4 
	.byte	W12
	.byte		        Dn3 
	.byte	W12
	.byte		        Dn4 
	.byte	W12
	.byte		        Dn3 
	.byte	W12
	.byte		        En4 
	.byte	W12
	.byte		        Dn3 
	.byte	W12
	.byte	PEND
@ 014   ----------------------------------------
AweOfShe_8_014:
	.byte		N12   , En4 , v127
	.byte	W12
	.byte		N18   , Dn3 
	.byte	W12
	.byte		N06   , Cs4 
	.byte	W12
	.byte		N12   , Dn3 
	.byte	W12
	.byte		        Dn4 
	.byte	W12
	.byte		        Dn3 
	.byte	W12
	.byte		        En4 
	.byte	W12
	.byte		        Dn3 
	.byte	W12
	.byte	PEND
@ 015   ----------------------------------------
	.byte		        Fn4 
	.byte	W12
	.byte		N18   , Dn3 
	.byte	W12
	.byte		N06   , Fn4 
	.byte	W12
	.byte		N12   , Dn3 
	.byte	W12
	.byte		        Fn4 
	.byte	W12
	.byte		        Dn3 
	.byte	W12
	.byte		        Gn4 
	.byte	W12
	.byte		        Dn3 
	.byte	W12
@ 016   ----------------------------------------
	.byte	PATT
	 .word	AweOfShe_8_012
@ 017   ----------------------------------------
	.byte	PATT
	 .word	AweOfShe_8_013
@ 018   ----------------------------------------
	.byte	PATT
	 .word	AweOfShe_8_014
@ 019   ----------------------------------------
	.byte		N12   , Fn4 , v127
	.byte	W12
	.byte		N18   , Dn3 
	.byte	W18
	.byte	FINE

@**************** Track 9 (Midi-Chn.6) ****************@

AweOfShe_9:
	.byte	KEYSH , AweOfShe_key+0
@ 000   ----------------------------------------
	.byte		VOICE , 19
	.byte		VOL   , 73*AweOfShe_mvl/mxv
	.byte	W15
	.byte		PAN   , c_v+0
	.byte	W03
	.byte	W06
	.byte		        c_v+0
	.byte	W72
@ 001   ----------------------------------------
	.byte	W96
@ 002   ----------------------------------------
	.byte	W96
@ 003   ----------------------------------------
	.byte	W96
@ 004   ----------------------------------------
	.byte	W96
@ 005   ----------------------------------------
	.byte	W96
@ 006   ----------------------------------------
	.byte	W96
@ 007   ----------------------------------------
	.byte	W96
@ 008   ----------------------------------------
	.byte	W96
@ 009   ----------------------------------------
	.byte	W96
@ 010   ----------------------------------------
	.byte	W96
@ 011   ----------------------------------------
	.byte	W96
@ 012   ----------------------------------------
	.byte	W96
@ 013   ----------------------------------------
	.byte	W96
@ 014   ----------------------------------------
	.byte	W96
@ 015   ----------------------------------------
	.byte	W24
	.byte		        c_v+56
	.byte		N24   , Dn5 , v127
	.byte		N24   , Fn5 
	.byte	W24
	.byte		PAN   , c_v+21
	.byte		N24   , Dn5 
	.byte		N24   , Fn5 
	.byte	W23
	.byte		PAN   , c_v-15
	.byte	W01
	.byte		        c_v-23
	.byte		N24   , En5 
	.byte		N24   , Gn5 
	.byte	W24
@ 016   ----------------------------------------
	.byte		PAN   , c_v-56
	.byte		N24   , En5 
	.byte		N24   , Gn5 
	.byte	W02
	.byte		PAN   , c_v-55
	.byte	W22
	.byte		        c_v-55
	.byte		N24   , Cs5 
	.byte		N24   , En5 
	.byte	W23
	.byte		PAN   , c_v-22
	.byte	W01
	.byte		N24   , Cs5 
	.byte		N24   , En5 
	.byte	W24
	.byte		PAN   , c_v+22
	.byte		N24   , Dn5 
	.byte		N24   , Fn5 
	.byte	W24
@ 017   ----------------------------------------
	.byte		PAN   , c_v+54
	.byte		N24   , Dn5 
	.byte		N24   , Fn5 
	.byte	W02
	.byte		PAN   , c_v+55
	.byte	W22
	.byte		N24   , An4 
	.byte		N24   , Dn5 
	.byte	W24
	.byte		PAN   , c_v+25
	.byte		N24   , An4 
	.byte		N24   , Dn5 
	.byte	W24
	.byte		PAN   , c_v-25
	.byte		N24   , Cs5 
	.byte		N24   , En5 
	.byte	W24
@ 018   ----------------------------------------
	.byte		PAN   , c_v-58
	.byte		N24   , Cs5 
	.byte		N24   , En5 
	.byte	W01
	.byte		PAN   , c_v-57
	.byte	W04
	.byte		        c_v-56
	.byte	W19
	.byte		N24   , Gs4 
	.byte		N24   , Cs5 
	.byte	W24
	.byte		PAN   , c_v-26
	.byte		N24   , An4 
	.byte		N24   , Dn5 
	.byte	W24
	.byte		PAN   , c_v+27
	.byte		N24   , Cs5 
	.byte		N24   , En5 
	.byte	W24
@ 019   ----------------------------------------
	.byte		PAN   , c_v+53
	.byte		N24   , Dn5 
	.byte		N24   , Fn5 
	.byte	W24
	.byte		PAN   , c_v+0
	.byte	W72
@ 020   ----------------------------------------
	.byte	W96
@ 021   ----------------------------------------
	.byte	W96
@ 022   ----------------------------------------
	.byte	W96
@ 023   ----------------------------------------
	.byte	W24
	.byte		N09   , Fn5 , v104
	.byte	W12
	.byte		N09   
	.byte	W12
	.byte		        Gn5 
	.byte	W12
	.byte		N09   
	.byte	W12
	.byte		        En5 
	.byte	W12
	.byte		N09   
	.byte	W12
@ 024   ----------------------------------------
AweOfShe_9_024:
	.byte		N09   , Fn5 , v104
	.byte	W12
	.byte		N09   
	.byte	W12
	.byte		        Dn5 
	.byte	W12
	.byte		N09   
	.byte	W12
	.byte		        En5 
	.byte	W12
	.byte		N09   
	.byte	W12
	.byte		        Cs5 
	.byte	W12
	.byte		        Dn5 
	.byte	W12
	.byte	PEND
@ 025   ----------------------------------------
AweOfShe_9_025:
	.byte		N09   , En5 , v104
	.byte	W12
	.byte		        Fn5 
	.byte	W12
	.byte		N09   
	.byte	W12
	.byte		N09   
	.byte	W12
	.byte		        Gn5 
	.byte	W12
	.byte		N09   
	.byte	W12
	.byte		        En5 
	.byte	W12
	.byte		N09   
	.byte	W12
	.byte	PEND
@ 026   ----------------------------------------
	.byte	PATT
	 .word	AweOfShe_9_024
@ 027   ----------------------------------------
	.byte		N09   , As5 , v104
	.byte	W12
	.byte		        An5 
	.byte	W12
	.byte		        Fn5 
	.byte	W12
	.byte		N09   
	.byte	W12
	.byte		        Gn5 
	.byte	W12
	.byte		N09   
	.byte	W12
	.byte		        En5 
	.byte	W12
	.byte		N09   
	.byte	W12
@ 028   ----------------------------------------
	.byte	PATT
	 .word	AweOfShe_9_024
@ 029   ----------------------------------------
	.byte	PATT
	 .word	AweOfShe_9_025
@ 030   ----------------------------------------
	.byte	PATT
	 .word	AweOfShe_9_024
@ 031   ----------------------------------------
	.byte		N09   , As5 , v104
	.byte	W12
	.byte		        An5 
	.byte	W84
@ 032   ----------------------------------------
	.byte	W96
@ 033   ----------------------------------------
	.byte	W96
@ 034   ----------------------------------------
	.byte	W96
@ 035   ----------------------------------------
	.byte	W96
@ 036   ----------------------------------------
	.byte	W96
@ 037   ----------------------------------------
	.byte	W96
@ 038   ----------------------------------------
	.byte	W96
@ 039   ----------------------------------------
AweOfShe_9_039:
	.byte	W24
	.byte		N06   , As4 , v127
	.byte	W06
	.byte		        Fn5 
	.byte	W06
	.byte		        En5 
	.byte	W06
	.byte		        Fn5 
	.byte	W06
	.byte		        As4 
	.byte	W06
	.byte		        Fn5 
	.byte	W06
	.byte		        En5 
	.byte	W06
	.byte		        Fn5 
	.byte	W06
	.byte		        As4 
	.byte	W06
	.byte		        Fn5 
	.byte	W06
	.byte		        En5 
	.byte	W06
	.byte		        Fn5 
	.byte	W06
	.byte	PEND
@ 040   ----------------------------------------
AweOfShe_9_040:
	.byte		N06   , As4 , v127
	.byte	W06
	.byte		        Fn5 
	.byte	W06
	.byte		        En5 
	.byte	W06
	.byte		        Fn5 
	.byte	W06
	.byte		        An4 
	.byte	W06
	.byte		        En5 
	.byte	W06
	.byte		        Dn5 
	.byte	W06
	.byte		        En5 
	.byte	W06
	.byte		        An4 
	.byte	W06
	.byte		        En5 
	.byte	W06
	.byte		        Dn5 
	.byte	W06
	.byte		        En5 
	.byte	W06
	.byte		        An4 
	.byte	W06
	.byte		        En5 
	.byte	W06
	.byte		        Dn5 
	.byte	W06
	.byte		        En5 
	.byte	W06
	.byte	PEND
@ 041   ----------------------------------------
AweOfShe_9_041:
	.byte		N06   , An4 , v127
	.byte	W06
	.byte		        En5 
	.byte	W06
	.byte		        Dn5 
	.byte	W06
	.byte		        En5 
	.byte	W06
	.byte		        An4 
	.byte	W06
	.byte		        En5 
	.byte	W06
	.byte		        Dn5 
	.byte	W06
	.byte		        En5 
	.byte	W06
	.byte		        An4 
	.byte	W06
	.byte		        En5 
	.byte	W06
	.byte		        Dn5 
	.byte	W06
	.byte		        En5 
	.byte	W06
	.byte		        An4 
	.byte	W06
	.byte		        En5 
	.byte	W06
	.byte		        Dn5 
	.byte	W06
	.byte		        En5 
	.byte	W06
	.byte	PEND
@ 042   ----------------------------------------
AweOfShe_9_042:
	.byte		N06   , An4 , v127
	.byte	W06
	.byte		        En5 
	.byte	W06
	.byte		        Dn5 
	.byte	W06
	.byte		        En5 
	.byte	W06
	.byte		        Fn4 
	.byte	W06
	.byte		        Dn5 
	.byte	W06
	.byte		        Cn5 
	.byte	W06
	.byte		        Dn5 
	.byte	W06
	.byte		        Fn4 
	.byte	W06
	.byte		        Dn5 
	.byte	W06
	.byte		        Cn5 
	.byte	W06
	.byte		        Dn5 
	.byte	W06
	.byte		        Fn4 
	.byte	W06
	.byte		        Dn5 
	.byte	W06
	.byte		        Cn5 
	.byte	W06
	.byte		        Dn5 
	.byte	W06
	.byte	PEND
@ 043   ----------------------------------------
AweOfShe_9_043:
	.byte		N06   , Fn4 , v127
	.byte	W06
	.byte		        Dn5 
	.byte	W06
	.byte		        Cn5 
	.byte	W06
	.byte		        Dn5 
	.byte	W06
	.byte		        En4 
	.byte	W06
	.byte		        Dn5 
	.byte	W06
	.byte		        Cn5 
	.byte	W06
	.byte		        Dn5 
	.byte	W06
	.byte		        En4 
	.byte	W06
	.byte		        Dn5 
	.byte	W06
	.byte		        Cn5 
	.byte	W06
	.byte		        Dn5 
	.byte	W06
	.byte		        En4 
	.byte	W06
	.byte		        Dn5 
	.byte	W06
	.byte		        Cn5 
	.byte	W06
	.byte		        Dn5 
	.byte	W06
	.byte	PEND
@ 044   ----------------------------------------
AweOfShe_9_044:
	.byte		N06   , En4 , v127
	.byte	W06
	.byte		        Dn5 
	.byte	W06
	.byte		        Cn5 
	.byte	W06
	.byte		        Dn5 
	.byte	W06
	.byte		N06   
	.byte	W06
	.byte		        Cs5 
	.byte	W06
	.byte		        Bn4 
	.byte	W06
	.byte		        Cs5 
	.byte	W06
	.byte		        Dn5 
	.byte	W06
	.byte		        Cs5 
	.byte	W06
	.byte		        Bn4 
	.byte	W06
	.byte		        Cs5 
	.byte	W06
	.byte		        Dn5 
	.byte	W06
	.byte		        Cs5 
	.byte	W06
	.byte		        Bn4 
	.byte	W06
	.byte		        Cs5 
	.byte	W06
	.byte	PEND
@ 045   ----------------------------------------
AweOfShe_9_045:
	.byte		N06   , Dn5 , v127
	.byte	W06
	.byte		        Cs5 
	.byte	W06
	.byte		        Bn4 
	.byte	W06
	.byte		        Cs5 
	.byte	W06
	.byte		        Gn4 
	.byte	W06
	.byte		        Dn5 
	.byte	W06
	.byte		        Cs5 
	.byte	W06
	.byte		        Dn5 
	.byte	W06
	.byte		        Gn4 
	.byte	W06
	.byte		        Dn5 
	.byte	W06
	.byte		        Cs5 
	.byte	W06
	.byte		        Dn5 
	.byte	W06
	.byte		        An4 
	.byte	W06
	.byte		        En5 
	.byte	W06
	.byte		        Dn5 
	.byte	W06
	.byte		        En5 
	.byte	W06
	.byte	PEND
@ 046   ----------------------------------------
AweOfShe_9_046:
	.byte		N06   , An4 , v127
	.byte	W06
	.byte		        En5 
	.byte	W06
	.byte		        Dn5 
	.byte	W06
	.byte		        En5 
	.byte	W06
	.byte		        Gn5 
	.byte	W06
	.byte		        Fn5 
	.byte	W06
	.byte		        En5 
	.byte	W06
	.byte		        Dn5 
	.byte	W06
	.byte		        Cs5 
	.byte	W06
	.byte		        Dn5 
	.byte	W06
	.byte		        En5 
	.byte	W06
	.byte		        Fn5 
	.byte	W06
	.byte		        Gn5 
	.byte	W06
	.byte		        Fn5 
	.byte	W06
	.byte		        As5 
	.byte	W06
	.byte		N30   , An5 
	.byte	W06
	.byte	PEND
@ 047   ----------------------------------------
	.byte	PATT
	 .word	AweOfShe_9_039
@ 048   ----------------------------------------
	.byte	PATT
	 .word	AweOfShe_9_040
@ 049   ----------------------------------------
	.byte	PATT
	 .word	AweOfShe_9_041
@ 050   ----------------------------------------
	.byte	PATT
	 .word	AweOfShe_9_042
@ 051   ----------------------------------------
	.byte	PATT
	 .word	AweOfShe_9_043
@ 052   ----------------------------------------
	.byte	PATT
	 .word	AweOfShe_9_044
@ 053   ----------------------------------------
	.byte	PATT
	 .word	AweOfShe_9_045
@ 054   ----------------------------------------
AweOfShe_9_054:
	.byte		N06   , An4 , v127
	.byte	W06
	.byte		        En5 
	.byte	W06
	.byte		        Dn5 
	.byte	W06
	.byte		        En5 
	.byte	W06
	.byte		        Gn5 
	.byte	W06
	.byte		        Fn5 
	.byte	W06
	.byte		        En5 
	.byte	W06
	.byte		        Dn5 
	.byte	W06
	.byte		        Cs5 
	.byte	W06
	.byte		        Dn5 
	.byte	W06
	.byte		        En5 
	.byte	W06
	.byte		        Fn5 
	.byte	W06
	.byte		        Fs5 
	.byte	W06
	.byte		        Dn5 
	.byte	W06
	.byte		        Fs5 
	.byte	W06
	.byte		        An5 
	.byte	W06
	.byte	PEND
@ 055   ----------------------------------------
AweOfShe_9_055:
	.byte		N06   , As5 , v127
	.byte	W06
	.byte		        An5 
	.byte	W06
	.byte		        Gn5 
	.byte	W06
	.byte		        Fs5 
	.byte	W78
	.byte	PEND
@ 056   ----------------------------------------
	.byte	W96
@ 057   ----------------------------------------
AweOfShe_9_057:
	.byte	W24
	.byte		N30   , Dn5 , v127
	.byte	W30
	.byte		N06   , An4 
	.byte	W06
	.byte		        Dn5 
	.byte	W06
	.byte		        En5 
	.byte	W06
	.byte		N12   , Fn5 
	.byte	W12
	.byte		N06   , Gn5 
	.byte	W06
	.byte		        Fn5 
	.byte	W06
	.byte	PEND
@ 058   ----------------------------------------
AweOfShe_9_058:
	.byte		N18   , En5 , v127
	.byte	W18
	.byte		N06   , Fn5 
	.byte	W06
	.byte		N24   , En5 
	.byte	W24
	.byte		        An4 
	.byte	W24
	.byte		N36   , An5 
	.byte	W24
	.byte	PEND
@ 059   ----------------------------------------
AweOfShe_9_059:
	.byte	W12
	.byte		N06   , An5 , v127
	.byte	W06
	.byte		        Gn5 
	.byte	W06
	.byte		N36   , Fs5 
	.byte	W36
	.byte		N06   , Dn5 
	.byte	W06
	.byte		        Fs5 
	.byte	W06
	.byte		        An5 
	.byte	W06
	.byte		        Dn5 
	.byte	W06
	.byte		        Fs5 
	.byte	W06
	.byte		        An5 
	.byte	W06
	.byte	PEND
@ 060   ----------------------------------------
AweOfShe_9_060:
	.byte		N06   , Fs5 , v127
	.byte	W06
	.byte		        An5 
	.byte	W06
	.byte		        Dn6 
	.byte	W06
	.byte		        An5 
	.byte	W06
	.byte		N36   , Cn6 
	.byte	W36
	.byte		N06   , Dn6 
	.byte	W06
	.byte		        Cn6 
	.byte	W06
	.byte		N36   , As5 
	.byte	W24
	.byte	PEND
@ 061   ----------------------------------------
AweOfShe_9_061:
	.byte	W12
	.byte		N12   , An5 , v127
	.byte	W12
	.byte		N30   , Gn5 
	.byte	W30
	.byte		N06   
	.byte	W06
	.byte		        An5 
	.byte	W06
	.byte		        As5 
	.byte	W06
	.byte		        An5 
	.byte	W06
	.byte		        En5 
	.byte	W06
	.byte		        Gn5 
	.byte	W06
	.byte		        Fn5 
	.byte	W06
	.byte	PEND
@ 062   ----------------------------------------
AweOfShe_9_062:
	.byte		N06   , En5 , v127
	.byte	W06
	.byte		        Dn5 
	.byte	W06
	.byte		        En5 
	.byte	W06
	.byte		        Fn5 
	.byte	W06
	.byte		        Dn5 
	.byte	W06
	.byte		        An4 
	.byte	W06
	.byte		        Dn5 
	.byte	W06
	.byte		        Fn5 
	.byte	W06
	.byte		        Gn5 
	.byte	W06
	.byte		        Dn5 
	.byte	W06
	.byte		        Gn5 
	.byte	W06
	.byte		        An5 
	.byte	W06
	.byte		N36   , Dn6 
	.byte	W24
	.byte	PEND
@ 063   ----------------------------------------
AweOfShe_9_063:
	.byte	W12
	.byte		N06   , Dn6 , v127
	.byte	W06
	.byte		        Cn6 
	.byte	W06
	.byte		N36   , As5 
	.byte	W36
	.byte		N06   , En5 
	.byte	W06
	.byte		        Gn5 
	.byte	W06
	.byte		        An5 
	.byte	W06
	.byte		        Dn5 
	.byte	W06
	.byte		        Fn5 
	.byte	W06
	.byte		        Gs5 
	.byte	W06
	.byte	PEND
@ 064   ----------------------------------------
AweOfShe_9_064:
	.byte		N06   , En5 , v127
	.byte	W06
	.byte		        Bn5 
	.byte	W06
	.byte		        En6 
	.byte	W06
	.byte		        Bn5 
	.byte	W06
	.byte		N36   , Dn6 
	.byte	W36
	.byte		N06   , Cs6 
	.byte	W06
	.byte		        Bn5 
	.byte	W06
	.byte		N48   , Cs6 
	.byte	W24
	.byte	PEND
@ 065   ----------------------------------------
AweOfShe_9_065:
	.byte	W24
	.byte		N12   , Fn5 , v127
	.byte	W12
	.byte		N12   
	.byte	W12
	.byte		        Gn5 
	.byte	W12
	.byte		N12   
	.byte	W12
	.byte		        En5 
	.byte	W12
	.byte		N12   
	.byte	W12
	.byte	PEND
@ 066   ----------------------------------------
AweOfShe_9_066:
	.byte		N12   , Fn5 , v127
	.byte	W12
	.byte		N12   
	.byte	W12
	.byte		        Dn5 
	.byte	W12
	.byte		N12   
	.byte	W12
	.byte		        En5 
	.byte	W12
	.byte		N12   
	.byte	W12
	.byte		        Cs5 
	.byte	W12
	.byte		        Dn5 
	.byte	W12
	.byte	PEND
@ 067   ----------------------------------------
AweOfShe_9_067:
	.byte		N12   , En5 , v127
	.byte	W12
	.byte		        Fn5 
	.byte	W12
	.byte		N12   
	.byte	W12
	.byte		N12   
	.byte	W12
	.byte		        Gn5 
	.byte	W12
	.byte		N12   
	.byte	W12
	.byte		        En5 
	.byte	W12
	.byte		N12   
	.byte	W12
	.byte	PEND
@ 068   ----------------------------------------
	.byte	PATT
	 .word	AweOfShe_9_066
@ 069   ----------------------------------------
AweOfShe_9_069:
	.byte		N12   , As5 , v127
	.byte	W12
	.byte		        An5 
	.byte	W12
	.byte		        Fn5 
	.byte	W12
	.byte		N12   
	.byte	W12
	.byte		        Gn5 
	.byte	W12
	.byte		N12   
	.byte	W12
	.byte		        En5 
	.byte	W12
	.byte		N12   
	.byte	W12
	.byte	PEND
@ 070   ----------------------------------------
	.byte	PATT
	 .word	AweOfShe_9_066
@ 071   ----------------------------------------
	.byte	PATT
	 .word	AweOfShe_9_067
@ 072   ----------------------------------------
	.byte	PATT
	 .word	AweOfShe_9_066
@ 073   ----------------------------------------
AweOfShe_9_073:
	.byte		N12   , As5 , v127
	.byte	W12
	.byte		        An5 
	.byte	W84
	.byte	PEND
@ 074   ----------------------------------------
	.byte	W96
@ 075   ----------------------------------------
	.byte	W96
@ 076   ----------------------------------------
	.byte	W96
@ 077   ----------------------------------------
	.byte	W96
@ 078   ----------------------------------------
	.byte	W96
@ 079   ----------------------------------------
	.byte	W96
@ 080   ----------------------------------------
	.byte	W96
@ 081   ----------------------------------------
	.byte	PATT
	 .word	AweOfShe_9_039
@ 082   ----------------------------------------
	.byte	PATT
	 .word	AweOfShe_9_040
@ 083   ----------------------------------------
	.byte	PATT
	 .word	AweOfShe_9_041
@ 084   ----------------------------------------
	.byte	PATT
	 .word	AweOfShe_9_042
@ 085   ----------------------------------------
	.byte	PATT
	 .word	AweOfShe_9_043
@ 086   ----------------------------------------
	.byte	PATT
	 .word	AweOfShe_9_044
@ 087   ----------------------------------------
	.byte	PATT
	 .word	AweOfShe_9_045
@ 088   ----------------------------------------
	.byte	PATT
	 .word	AweOfShe_9_046
@ 089   ----------------------------------------
	.byte	PATT
	 .word	AweOfShe_9_039
@ 090   ----------------------------------------
	.byte	PATT
	 .word	AweOfShe_9_040
@ 091   ----------------------------------------
	.byte	PATT
	 .word	AweOfShe_9_041
@ 092   ----------------------------------------
	.byte	PATT
	 .word	AweOfShe_9_042
@ 093   ----------------------------------------
	.byte	PATT
	 .word	AweOfShe_9_043
@ 094   ----------------------------------------
	.byte	PATT
	 .word	AweOfShe_9_044
@ 095   ----------------------------------------
	.byte	PATT
	 .word	AweOfShe_9_045
@ 096   ----------------------------------------
	.byte	PATT
	 .word	AweOfShe_9_054
@ 097   ----------------------------------------
	.byte	PATT
	 .word	AweOfShe_9_055
@ 098   ----------------------------------------
	.byte	W96
@ 099   ----------------------------------------
	.byte	PATT
	 .word	AweOfShe_9_057
@ 100   ----------------------------------------
	.byte	PATT
	 .word	AweOfShe_9_058
@ 101   ----------------------------------------
	.byte	PATT
	 .word	AweOfShe_9_059
@ 102   ----------------------------------------
	.byte	PATT
	 .word	AweOfShe_9_060
@ 103   ----------------------------------------
	.byte	PATT
	 .word	AweOfShe_9_061
@ 104   ----------------------------------------
	.byte	PATT
	 .word	AweOfShe_9_062
@ 105   ----------------------------------------
	.byte	PATT
	 .word	AweOfShe_9_063
@ 106   ----------------------------------------
	.byte	PATT
	 .word	AweOfShe_9_064
@ 107   ----------------------------------------
	.byte	PATT
	 .word	AweOfShe_9_065
@ 108   ----------------------------------------
	.byte	PATT
	 .word	AweOfShe_9_066
@ 109   ----------------------------------------
	.byte	PATT
	 .word	AweOfShe_9_067
@ 110   ----------------------------------------
	.byte	PATT
	 .word	AweOfShe_9_066
@ 111   ----------------------------------------
	.byte	PATT
	 .word	AweOfShe_9_069
@ 112   ----------------------------------------
	.byte	PATT
	 .word	AweOfShe_9_066
@ 113   ----------------------------------------
	.byte	PATT
	 .word	AweOfShe_9_067
@ 114   ----------------------------------------
	.byte	PATT
	 .word	AweOfShe_9_066
@ 115   ----------------------------------------
	.byte	PATT
	 .word	AweOfShe_9_073
@ 116   ----------------------------------------
	.byte	W96
@ 117   ----------------------------------------
	.byte	W96
@ 118   ----------------------------------------
	.byte	W96
@ 119   ----------------------------------------
	.byte	W96
@ 120   ----------------------------------------
	.byte	W96
@ 121   ----------------------------------------
	.byte	W96
@ 122   ----------------------------------------
	.byte	W96
@ 123   ----------------------------------------
	.byte	PATT
	 .word	AweOfShe_9_039
@ 124   ----------------------------------------
	.byte	PATT
	 .word	AweOfShe_9_040
@ 125   ----------------------------------------
	.byte	PATT
	 .word	AweOfShe_9_041
@ 126   ----------------------------------------
	.byte	PATT
	 .word	AweOfShe_9_042
@ 127   ----------------------------------------
	.byte	PATT
	 .word	AweOfShe_9_043
@ 128   ----------------------------------------
	.byte	PATT
	 .word	AweOfShe_9_044
@ 129   ----------------------------------------
	.byte	PATT
	 .word	AweOfShe_9_045
@ 130   ----------------------------------------
	.byte	PATT
	 .word	AweOfShe_9_046
@ 131   ----------------------------------------
	.byte	PATT
	 .word	AweOfShe_9_039
@ 132   ----------------------------------------
	.byte	PATT
	 .word	AweOfShe_9_040
@ 133   ----------------------------------------
	.byte	PATT
	 .word	AweOfShe_9_041
@ 134   ----------------------------------------
	.byte	PATT
	 .word	AweOfShe_9_042
@ 135   ----------------------------------------
	.byte	PATT
	 .word	AweOfShe_9_043
@ 136   ----------------------------------------
	.byte	PATT
	 .word	AweOfShe_9_044
@ 137   ----------------------------------------
	.byte	PATT
	 .word	AweOfShe_9_045
@ 138   ----------------------------------------
	.byte	PATT
	 .word	AweOfShe_9_054
@ 139   ----------------------------------------
	.byte		N06   , As5 , v127
	.byte	W06
	.byte		        An5 
	.byte	W06
	.byte		        Gn5 
	.byte	W06
	.byte		        Fs5 
	.byte	W06
	.byte	FINE

@**************** Track 10 (Midi-Chn.5) ****************@

AweOfShe_10:
	.byte	KEYSH , AweOfShe_key+0
@ 000   ----------------------------------------
	.byte		VOICE , 50
	.byte		VOL   , 84*AweOfShe_mvl/mxv
	.byte	W15
	.byte		PAN   , c_v+0
	.byte	W03
	.byte	W06
	.byte		        c_v+0
	.byte	W72
@ 001   ----------------------------------------
	.byte	W96
@ 002   ----------------------------------------
	.byte	W96
@ 003   ----------------------------------------
	.byte	W96
@ 004   ----------------------------------------
	.byte	W96
@ 005   ----------------------------------------
	.byte	W96
@ 006   ----------------------------------------
	.byte	W96
@ 007   ----------------------------------------
	.byte	W96
@ 008   ----------------------------------------
	.byte	W96
@ 009   ----------------------------------------
	.byte	W96
@ 010   ----------------------------------------
	.byte	W96
@ 011   ----------------------------------------
	.byte	W96
@ 012   ----------------------------------------
	.byte	W96
@ 013   ----------------------------------------
	.byte	W96
@ 014   ----------------------------------------
	.byte	W96
@ 015   ----------------------------------------
	.byte	W24
	.byte		        c_v+56
	.byte		N24   , Dn5 , v127
	.byte		N24   , Fn5 
	.byte	W24
	.byte		PAN   , c_v+21
	.byte		N24   , Dn5 
	.byte		N24   , Fn5 
	.byte	W23
	.byte		PAN   , c_v-15
	.byte	W01
	.byte		        c_v-23
	.byte		N24   , En5 
	.byte		N24   , Gn5 
	.byte	W24
@ 016   ----------------------------------------
	.byte		PAN   , c_v-56
	.byte		N24   , En5 
	.byte		N24   , Gn5 
	.byte	W02
	.byte		PAN   , c_v-55
	.byte	W22
	.byte		        c_v-55
	.byte		N24   , Cs5 
	.byte		N24   , En5 
	.byte	W23
	.byte		PAN   , c_v-22
	.byte	W01
	.byte		N24   , Cs5 
	.byte		N24   , En5 
	.byte	W24
	.byte		PAN   , c_v+22
	.byte		N24   , Dn5 
	.byte		N24   , Fn5 
	.byte	W24
@ 017   ----------------------------------------
	.byte		PAN   , c_v+54
	.byte		N24   , Dn5 
	.byte		N24   , Fn5 
	.byte	W02
	.byte		PAN   , c_v+55
	.byte	W22
	.byte		N24   , An4 
	.byte		N24   , Dn5 
	.byte	W24
	.byte		PAN   , c_v+25
	.byte		N24   , An4 
	.byte		N24   , Dn5 
	.byte	W24
	.byte		PAN   , c_v-25
	.byte		N24   , Cs5 
	.byte		N24   , En5 
	.byte	W24
@ 018   ----------------------------------------
	.byte		PAN   , c_v-58
	.byte		N24   , Cs5 
	.byte		N24   , En5 
	.byte	W01
	.byte		PAN   , c_v-57
	.byte	W04
	.byte		        c_v-56
	.byte	W19
	.byte		N24   , Gs4 
	.byte		N24   , Cs5 
	.byte	W24
	.byte		PAN   , c_v-26
	.byte		N24   , An4 
	.byte		N24   , Dn5 
	.byte	W24
	.byte		PAN   , c_v+27
	.byte		N24   , Cs5 
	.byte		N24   , En5 
	.byte	W24
@ 019   ----------------------------------------
	.byte		PAN   , c_v+53
	.byte		N24   , Dn5 
	.byte		N24   , Fn5 
	.byte	W24
	.byte		PAN   , c_v+0
	.byte	W72
@ 020   ----------------------------------------
	.byte	W96
@ 021   ----------------------------------------
	.byte	W96
@ 022   ----------------------------------------
	.byte	W96
@ 023   ----------------------------------------
	.byte	W24
	.byte		N09   , Fn5 , v104
	.byte	W12
	.byte		N09   
	.byte	W12
	.byte		        Gn5 
	.byte	W12
	.byte		N09   
	.byte	W12
	.byte		        En5 
	.byte	W12
	.byte		N09   
	.byte	W12
@ 024   ----------------------------------------
AweOfShe_10_024:
	.byte		N09   , Fn5 , v104
	.byte	W12
	.byte		N09   
	.byte	W12
	.byte		        Dn5 
	.byte	W12
	.byte		N09   
	.byte	W12
	.byte		        En5 
	.byte	W12
	.byte		N09   
	.byte	W12
	.byte		        Cs5 
	.byte	W12
	.byte		        Dn5 
	.byte	W12
	.byte	PEND
@ 025   ----------------------------------------
AweOfShe_10_025:
	.byte		N09   , En5 , v104
	.byte	W12
	.byte		        Fn5 
	.byte	W12
	.byte		N09   
	.byte	W12
	.byte		N09   
	.byte	W12
	.byte		        Gn5 
	.byte	W12
	.byte		N09   
	.byte	W12
	.byte		        En5 
	.byte	W12
	.byte		N09   
	.byte	W12
	.byte	PEND
@ 026   ----------------------------------------
	.byte	PATT
	 .word	AweOfShe_10_024
@ 027   ----------------------------------------
	.byte		N09   , As5 , v104
	.byte	W12
	.byte		        An5 
	.byte	W12
	.byte		        Fn5 
	.byte	W12
	.byte		N09   
	.byte	W12
	.byte		        Gn5 
	.byte	W12
	.byte		N09   
	.byte	W12
	.byte		        En5 
	.byte	W12
	.byte		N09   
	.byte	W12
@ 028   ----------------------------------------
	.byte	PATT
	 .word	AweOfShe_10_024
@ 029   ----------------------------------------
	.byte	PATT
	 .word	AweOfShe_10_025
@ 030   ----------------------------------------
	.byte	PATT
	 .word	AweOfShe_10_024
@ 031   ----------------------------------------
	.byte		N09   , As5 , v104
	.byte	W12
	.byte		        An5 
	.byte	W84
@ 032   ----------------------------------------
	.byte	W96
@ 033   ----------------------------------------
	.byte	W96
@ 034   ----------------------------------------
	.byte	W96
@ 035   ----------------------------------------
	.byte	W96
@ 036   ----------------------------------------
	.byte	W96
@ 037   ----------------------------------------
	.byte	W96
@ 038   ----------------------------------------
	.byte	W96
@ 039   ----------------------------------------
AweOfShe_10_039:
	.byte	W24
	.byte		N06   , As4 , v127
	.byte	W06
	.byte		        Fn5 
	.byte	W06
	.byte		        En5 
	.byte	W06
	.byte		        Fn5 
	.byte	W06
	.byte		        As4 
	.byte	W06
	.byte		        Fn5 
	.byte	W06
	.byte		        En5 
	.byte	W06
	.byte		        Fn5 
	.byte	W06
	.byte		        As4 
	.byte	W06
	.byte		        Fn5 
	.byte	W06
	.byte		        En5 
	.byte	W06
	.byte		        Fn5 
	.byte	W06
	.byte	PEND
@ 040   ----------------------------------------
AweOfShe_10_040:
	.byte		N06   , As4 , v127
	.byte	W06
	.byte		        Fn5 
	.byte	W06
	.byte		        En5 
	.byte	W06
	.byte		        Fn5 
	.byte	W06
	.byte		        An4 
	.byte	W06
	.byte		        En5 
	.byte	W06
	.byte		        Dn5 
	.byte	W06
	.byte		        En5 
	.byte	W06
	.byte		        An4 
	.byte	W06
	.byte		        En5 
	.byte	W06
	.byte		        Dn5 
	.byte	W06
	.byte		        En5 
	.byte	W06
	.byte		        An4 
	.byte	W06
	.byte		        En5 
	.byte	W06
	.byte		        Dn5 
	.byte	W06
	.byte		        En5 
	.byte	W06
	.byte	PEND
@ 041   ----------------------------------------
AweOfShe_10_041:
	.byte		N06   , An4 , v127
	.byte	W06
	.byte		        En5 
	.byte	W06
	.byte		        Dn5 
	.byte	W06
	.byte		        En5 
	.byte	W06
	.byte		        An4 
	.byte	W06
	.byte		        En5 
	.byte	W06
	.byte		        Dn5 
	.byte	W06
	.byte		        En5 
	.byte	W06
	.byte		        An4 
	.byte	W06
	.byte		        En5 
	.byte	W06
	.byte		        Dn5 
	.byte	W06
	.byte		        En5 
	.byte	W06
	.byte		        An4 
	.byte	W06
	.byte		        En5 
	.byte	W06
	.byte		        Dn5 
	.byte	W06
	.byte		        En5 
	.byte	W06
	.byte	PEND
@ 042   ----------------------------------------
AweOfShe_10_042:
	.byte		N06   , An4 , v127
	.byte	W06
	.byte		        En5 
	.byte	W06
	.byte		        Dn5 
	.byte	W06
	.byte		        En5 
	.byte	W06
	.byte		        Fn4 
	.byte	W06
	.byte		        Dn5 
	.byte	W06
	.byte		        Cn5 
	.byte	W06
	.byte		        Dn5 
	.byte	W06
	.byte		        Fn4 
	.byte	W06
	.byte		        Dn5 
	.byte	W06
	.byte		        Cn5 
	.byte	W06
	.byte		        Dn5 
	.byte	W06
	.byte		        Fn4 
	.byte	W06
	.byte		        Dn5 
	.byte	W06
	.byte		        Cn5 
	.byte	W06
	.byte		        Dn5 
	.byte	W06
	.byte	PEND
@ 043   ----------------------------------------
AweOfShe_10_043:
	.byte		N06   , Fn4 , v127
	.byte	W06
	.byte		        Dn5 
	.byte	W06
	.byte		        Cn5 
	.byte	W06
	.byte		        Dn5 
	.byte	W06
	.byte		        En4 
	.byte	W06
	.byte		        Dn5 
	.byte	W06
	.byte		        Cn5 
	.byte	W06
	.byte		        Dn5 
	.byte	W06
	.byte		        En4 
	.byte	W06
	.byte		        Dn5 
	.byte	W06
	.byte		        Cn5 
	.byte	W06
	.byte		        Dn5 
	.byte	W06
	.byte		        En4 
	.byte	W06
	.byte		        Dn5 
	.byte	W06
	.byte		        Cn5 
	.byte	W06
	.byte		        Dn5 
	.byte	W06
	.byte	PEND
@ 044   ----------------------------------------
AweOfShe_10_044:
	.byte		N06   , En4 , v127
	.byte	W06
	.byte		        Dn5 
	.byte	W06
	.byte		        Cn5 
	.byte	W06
	.byte		        Dn5 
	.byte	W06
	.byte		N06   
	.byte	W06
	.byte		        Cs5 
	.byte	W06
	.byte		        Bn4 
	.byte	W06
	.byte		        Cs5 
	.byte	W06
	.byte		        Dn5 
	.byte	W06
	.byte		        Cs5 
	.byte	W06
	.byte		        Bn4 
	.byte	W06
	.byte		        Cs5 
	.byte	W06
	.byte		        Dn5 
	.byte	W06
	.byte		        Cs5 
	.byte	W06
	.byte		        Bn4 
	.byte	W06
	.byte		        Cs5 
	.byte	W06
	.byte	PEND
@ 045   ----------------------------------------
AweOfShe_10_045:
	.byte		N06   , Dn5 , v127
	.byte	W06
	.byte		        Cs5 
	.byte	W06
	.byte		        Bn4 
	.byte	W06
	.byte		        Cs5 
	.byte	W06
	.byte		        Gn4 
	.byte	W06
	.byte		        Dn5 
	.byte	W06
	.byte		        Cs5 
	.byte	W06
	.byte		        Dn5 
	.byte	W06
	.byte		        Gn4 
	.byte	W06
	.byte		        Dn5 
	.byte	W06
	.byte		        Cs5 
	.byte	W06
	.byte		        Dn5 
	.byte	W06
	.byte		        An4 
	.byte	W06
	.byte		        En5 
	.byte	W06
	.byte		        Dn5 
	.byte	W06
	.byte		        En5 
	.byte	W06
	.byte	PEND
@ 046   ----------------------------------------
AweOfShe_10_046:
	.byte		N06   , An4 , v127
	.byte	W06
	.byte		        En5 
	.byte	W06
	.byte		        Dn5 
	.byte	W06
	.byte		        En5 
	.byte	W06
	.byte		        Gn5 
	.byte	W06
	.byte		        Fn5 
	.byte	W06
	.byte		        En5 
	.byte	W06
	.byte		        Dn5 
	.byte	W06
	.byte		        Cs5 
	.byte	W06
	.byte		        Dn5 
	.byte	W06
	.byte		        En5 
	.byte	W06
	.byte		        Fn5 
	.byte	W06
	.byte		        Gn5 
	.byte	W06
	.byte		        Fn5 
	.byte	W06
	.byte		        As5 
	.byte	W06
	.byte		N30   , An5 
	.byte	W06
	.byte	PEND
@ 047   ----------------------------------------
	.byte	PATT
	 .word	AweOfShe_10_039
@ 048   ----------------------------------------
	.byte	PATT
	 .word	AweOfShe_10_040
@ 049   ----------------------------------------
	.byte	PATT
	 .word	AweOfShe_10_041
@ 050   ----------------------------------------
	.byte	PATT
	 .word	AweOfShe_10_042
@ 051   ----------------------------------------
	.byte	PATT
	 .word	AweOfShe_10_043
@ 052   ----------------------------------------
	.byte	PATT
	 .word	AweOfShe_10_044
@ 053   ----------------------------------------
	.byte	PATT
	 .word	AweOfShe_10_045
@ 054   ----------------------------------------
AweOfShe_10_054:
	.byte		N06   , An4 , v127
	.byte	W06
	.byte		        En5 
	.byte	W06
	.byte		        Dn5 
	.byte	W06
	.byte		        En5 
	.byte	W06
	.byte		        Gn5 
	.byte	W06
	.byte		        Fn5 
	.byte	W06
	.byte		        En5 
	.byte	W06
	.byte		        Dn5 
	.byte	W06
	.byte		        Cs5 
	.byte	W06
	.byte		        Dn5 
	.byte	W06
	.byte		        En5 
	.byte	W06
	.byte		        Fn5 
	.byte	W06
	.byte		        Fs5 
	.byte	W06
	.byte		        Dn5 
	.byte	W06
	.byte		        Fs5 
	.byte	W06
	.byte		        An5 
	.byte	W06
	.byte	PEND
@ 055   ----------------------------------------
AweOfShe_10_055:
	.byte		N06   , As5 , v127
	.byte	W06
	.byte		        An5 
	.byte	W06
	.byte		        Gn5 
	.byte	W06
	.byte		        Fs5 
	.byte	W78
	.byte	PEND
@ 056   ----------------------------------------
	.byte	W96
@ 057   ----------------------------------------
AweOfShe_10_057:
	.byte	W24
	.byte		N30   , Dn5 , v127
	.byte	W30
	.byte		N06   , An4 
	.byte	W06
	.byte		        Dn5 
	.byte	W06
	.byte		        En5 
	.byte	W06
	.byte		N12   , Fn5 
	.byte	W12
	.byte		N06   , Gn5 
	.byte	W06
	.byte		        Fn5 
	.byte	W06
	.byte	PEND
@ 058   ----------------------------------------
AweOfShe_10_058:
	.byte		N18   , En5 , v127
	.byte	W18
	.byte		N06   , Fn5 
	.byte	W06
	.byte		N24   , En5 
	.byte	W24
	.byte		        An4 
	.byte	W24
	.byte		N36   , An5 
	.byte	W24
	.byte	PEND
@ 059   ----------------------------------------
AweOfShe_10_059:
	.byte	W12
	.byte		N06   , An5 , v127
	.byte	W06
	.byte		        Gn5 
	.byte	W06
	.byte		N36   , Fs5 
	.byte	W36
	.byte		N06   , Dn5 
	.byte	W06
	.byte		        Fs5 
	.byte	W06
	.byte		        An5 
	.byte	W06
	.byte		        Dn5 
	.byte	W06
	.byte		        Fs5 
	.byte	W06
	.byte		        An5 
	.byte	W06
	.byte	PEND
@ 060   ----------------------------------------
AweOfShe_10_060:
	.byte		N06   , Fs5 , v127
	.byte	W06
	.byte		        An5 
	.byte	W06
	.byte		        Dn6 
	.byte	W06
	.byte		        An5 
	.byte	W06
	.byte		N36   , Cn6 
	.byte	W36
	.byte		N06   , Dn6 
	.byte	W06
	.byte		        Cn6 
	.byte	W06
	.byte		N36   , As5 
	.byte	W24
	.byte	PEND
@ 061   ----------------------------------------
AweOfShe_10_061:
	.byte	W12
	.byte		N12   , An5 , v127
	.byte	W12
	.byte		N30   , Gn5 
	.byte	W30
	.byte		N06   
	.byte	W06
	.byte		        An5 
	.byte	W06
	.byte		        As5 
	.byte	W06
	.byte		        An5 
	.byte	W06
	.byte		        En5 
	.byte	W06
	.byte		        Gn5 
	.byte	W06
	.byte		        Fn5 
	.byte	W06
	.byte	PEND
@ 062   ----------------------------------------
AweOfShe_10_062:
	.byte		N06   , En5 , v127
	.byte	W06
	.byte		        Dn5 
	.byte	W06
	.byte		        En5 
	.byte	W06
	.byte		        Fn5 
	.byte	W06
	.byte		        Dn5 
	.byte	W06
	.byte		        An4 
	.byte	W06
	.byte		        Dn5 
	.byte	W06
	.byte		        Fn5 
	.byte	W06
	.byte		        Gn5 
	.byte	W06
	.byte		        Dn5 
	.byte	W06
	.byte		        Gn5 
	.byte	W06
	.byte		        An5 
	.byte	W06
	.byte		N36   , Dn6 
	.byte	W24
	.byte	PEND
@ 063   ----------------------------------------
AweOfShe_10_063:
	.byte	W12
	.byte		N06   , Dn6 , v127
	.byte	W06
	.byte		        Cn6 
	.byte	W06
	.byte		N36   , As5 
	.byte	W36
	.byte		N06   , En5 
	.byte	W06
	.byte		        Gn5 
	.byte	W06
	.byte		        An5 
	.byte	W06
	.byte		        Dn5 
	.byte	W06
	.byte		        Fn5 
	.byte	W06
	.byte		        Gs5 
	.byte	W06
	.byte	PEND
@ 064   ----------------------------------------
AweOfShe_10_064:
	.byte		N06   , En5 , v127
	.byte	W06
	.byte		        Bn5 
	.byte	W06
	.byte		        En6 
	.byte	W06
	.byte		        Bn5 
	.byte	W06
	.byte		N36   , Dn6 
	.byte	W36
	.byte		N06   , Cs6 
	.byte	W06
	.byte		        Bn5 
	.byte	W06
	.byte		N48   , Cs6 
	.byte	W24
	.byte	PEND
@ 065   ----------------------------------------
AweOfShe_10_065:
	.byte	W24
	.byte		N12   , Fn5 , v127
	.byte	W12
	.byte		N12   
	.byte	W12
	.byte		        Gn5 
	.byte	W12
	.byte		N12   
	.byte	W12
	.byte		        En5 
	.byte	W12
	.byte		N12   
	.byte	W12
	.byte	PEND
@ 066   ----------------------------------------
AweOfShe_10_066:
	.byte		N12   , Fn5 , v127
	.byte	W12
	.byte		N12   
	.byte	W12
	.byte		        Dn5 
	.byte	W12
	.byte		N12   
	.byte	W12
	.byte		        En5 
	.byte	W12
	.byte		N12   
	.byte	W12
	.byte		        Cs5 
	.byte	W12
	.byte		        Dn5 
	.byte	W12
	.byte	PEND
@ 067   ----------------------------------------
AweOfShe_10_067:
	.byte		N12   , En5 , v127
	.byte	W12
	.byte		        Fn5 
	.byte	W12
	.byte		N12   
	.byte	W12
	.byte		N12   
	.byte	W12
	.byte		        Gn5 
	.byte	W12
	.byte		N12   
	.byte	W12
	.byte		        En5 
	.byte	W12
	.byte		N12   
	.byte	W12
	.byte	PEND
@ 068   ----------------------------------------
	.byte	PATT
	 .word	AweOfShe_10_066
@ 069   ----------------------------------------
AweOfShe_10_069:
	.byte		N12   , As5 , v127
	.byte	W12
	.byte		        An5 
	.byte	W12
	.byte		        Fn5 
	.byte	W12
	.byte		N12   
	.byte	W12
	.byte		        Gn5 
	.byte	W12
	.byte		N12   
	.byte	W12
	.byte		        En5 
	.byte	W12
	.byte		N12   
	.byte	W12
	.byte	PEND
@ 070   ----------------------------------------
	.byte	PATT
	 .word	AweOfShe_10_066
@ 071   ----------------------------------------
	.byte	PATT
	 .word	AweOfShe_10_067
@ 072   ----------------------------------------
	.byte	PATT
	 .word	AweOfShe_10_066
@ 073   ----------------------------------------
AweOfShe_10_073:
	.byte		N12   , As5 , v127
	.byte	W12
	.byte		        An5 
	.byte	W84
	.byte	PEND
@ 074   ----------------------------------------
	.byte	W96
@ 075   ----------------------------------------
	.byte	W96
@ 076   ----------------------------------------
	.byte	W96
@ 077   ----------------------------------------
	.byte	W96
@ 078   ----------------------------------------
	.byte	W96
@ 079   ----------------------------------------
	.byte	W96
@ 080   ----------------------------------------
	.byte	W96
@ 081   ----------------------------------------
	.byte	PATT
	 .word	AweOfShe_10_039
@ 082   ----------------------------------------
	.byte	PATT
	 .word	AweOfShe_10_040
@ 083   ----------------------------------------
	.byte	PATT
	 .word	AweOfShe_10_041
@ 084   ----------------------------------------
	.byte	PATT
	 .word	AweOfShe_10_042
@ 085   ----------------------------------------
	.byte	PATT
	 .word	AweOfShe_10_043
@ 086   ----------------------------------------
	.byte	PATT
	 .word	AweOfShe_10_044
@ 087   ----------------------------------------
	.byte	PATT
	 .word	AweOfShe_10_045
@ 088   ----------------------------------------
	.byte	PATT
	 .word	AweOfShe_10_046
@ 089   ----------------------------------------
	.byte	PATT
	 .word	AweOfShe_10_039
@ 090   ----------------------------------------
	.byte	PATT
	 .word	AweOfShe_10_040
@ 091   ----------------------------------------
	.byte	PATT
	 .word	AweOfShe_10_041
@ 092   ----------------------------------------
	.byte	PATT
	 .word	AweOfShe_10_042
@ 093   ----------------------------------------
	.byte	PATT
	 .word	AweOfShe_10_043
@ 094   ----------------------------------------
	.byte	PATT
	 .word	AweOfShe_10_044
@ 095   ----------------------------------------
	.byte	PATT
	 .word	AweOfShe_10_045
@ 096   ----------------------------------------
	.byte	PATT
	 .word	AweOfShe_10_054
@ 097   ----------------------------------------
	.byte	PATT
	 .word	AweOfShe_10_055
@ 098   ----------------------------------------
	.byte	W96
@ 099   ----------------------------------------
	.byte	PATT
	 .word	AweOfShe_10_057
@ 100   ----------------------------------------
	.byte	PATT
	 .word	AweOfShe_10_058
@ 101   ----------------------------------------
	.byte	PATT
	 .word	AweOfShe_10_059
@ 102   ----------------------------------------
	.byte	PATT
	 .word	AweOfShe_10_060
@ 103   ----------------------------------------
	.byte	PATT
	 .word	AweOfShe_10_061
@ 104   ----------------------------------------
	.byte	PATT
	 .word	AweOfShe_10_062
@ 105   ----------------------------------------
	.byte	PATT
	 .word	AweOfShe_10_063
@ 106   ----------------------------------------
	.byte	PATT
	 .word	AweOfShe_10_064
@ 107   ----------------------------------------
	.byte	PATT
	 .word	AweOfShe_10_065
@ 108   ----------------------------------------
	.byte	PATT
	 .word	AweOfShe_10_066
@ 109   ----------------------------------------
	.byte	PATT
	 .word	AweOfShe_10_067
@ 110   ----------------------------------------
	.byte	PATT
	 .word	AweOfShe_10_066
@ 111   ----------------------------------------
	.byte	PATT
	 .word	AweOfShe_10_069
@ 112   ----------------------------------------
	.byte	PATT
	 .word	AweOfShe_10_066
@ 113   ----------------------------------------
	.byte	PATT
	 .word	AweOfShe_10_067
@ 114   ----------------------------------------
	.byte	PATT
	 .word	AweOfShe_10_066
@ 115   ----------------------------------------
	.byte	PATT
	 .word	AweOfShe_10_073
@ 116   ----------------------------------------
	.byte	W96
@ 117   ----------------------------------------
	.byte	W96
@ 118   ----------------------------------------
	.byte	W96
@ 119   ----------------------------------------
	.byte	W96
@ 120   ----------------------------------------
	.byte	W96
@ 121   ----------------------------------------
	.byte	W96
@ 122   ----------------------------------------
	.byte	W96
@ 123   ----------------------------------------
	.byte	PATT
	 .word	AweOfShe_10_039
@ 124   ----------------------------------------
	.byte	PATT
	 .word	AweOfShe_10_040
@ 125   ----------------------------------------
	.byte	PATT
	 .word	AweOfShe_10_041
@ 126   ----------------------------------------
	.byte	PATT
	 .word	AweOfShe_10_042
@ 127   ----------------------------------------
	.byte	PATT
	 .word	AweOfShe_10_043
@ 128   ----------------------------------------
	.byte	PATT
	 .word	AweOfShe_10_044
@ 129   ----------------------------------------
	.byte	PATT
	 .word	AweOfShe_10_045
@ 130   ----------------------------------------
	.byte	PATT
	 .word	AweOfShe_10_046
@ 131   ----------------------------------------
	.byte	PATT
	 .word	AweOfShe_10_039
@ 132   ----------------------------------------
	.byte	PATT
	 .word	AweOfShe_10_040
@ 133   ----------------------------------------
	.byte	PATT
	 .word	AweOfShe_10_041
@ 134   ----------------------------------------
	.byte	PATT
	 .word	AweOfShe_10_042
@ 135   ----------------------------------------
	.byte	PATT
	 .word	AweOfShe_10_043
@ 136   ----------------------------------------
	.byte	PATT
	 .word	AweOfShe_10_044
@ 137   ----------------------------------------
	.byte	PATT
	 .word	AweOfShe_10_045
@ 138   ----------------------------------------
	.byte	PATT
	 .word	AweOfShe_10_054
@ 139   ----------------------------------------
	.byte		N06   , As5 , v127
	.byte	W06
	.byte		        An5 
	.byte	W06
	.byte		        Gn5 
	.byte	W06
	.byte		        Fs5 
	.byte	W06
	.byte	FINE

@**************** Track 11 (Midi-Chn.7) ****************@

AweOfShe_11:
	.byte	KEYSH , AweOfShe_key+0
@ 000   ----------------------------------------
	.byte		VOICE , 48
	.byte	W12
	.byte		VOL   , 100*AweOfShe_mvl/mxv
	.byte	W03
	.byte		PAN   , c_v+0
	.byte	W03
	.byte	W06
	.byte		        c_v+0
	.byte	W72
@ 001   ----------------------------------------
	.byte	W96
@ 002   ----------------------------------------
	.byte	W96
@ 003   ----------------------------------------
	.byte	W96
@ 004   ----------------------------------------
	.byte	W96
@ 005   ----------------------------------------
	.byte	W96
@ 006   ----------------------------------------
	.byte	W96
@ 007   ----------------------------------------
	.byte	W96
@ 008   ----------------------------------------
	.byte	W96
@ 009   ----------------------------------------
	.byte	W96
@ 010   ----------------------------------------
	.byte	W96
@ 011   ----------------------------------------
	.byte	W96
@ 012   ----------------------------------------
	.byte	W96
@ 013   ----------------------------------------
	.byte	W96
@ 014   ----------------------------------------
	.byte	W96
@ 015   ----------------------------------------
	.byte	W96
@ 016   ----------------------------------------
	.byte	W96
@ 017   ----------------------------------------
	.byte	W96
@ 018   ----------------------------------------
	.byte	W96
@ 019   ----------------------------------------
	.byte	W96
@ 020   ----------------------------------------
	.byte	W96
@ 021   ----------------------------------------
	.byte	W96
@ 022   ----------------------------------------
	.byte	W96
@ 023   ----------------------------------------
AweOfShe_11_023:
	.byte	W24
	.byte		N12   , Fn4 , v127
	.byte	W12
	.byte		N12   
	.byte	W12
	.byte		        Gn4 
	.byte	W12
	.byte		N12   
	.byte	W12
	.byte		        En4 
	.byte	W12
	.byte		N12   
	.byte	W12
	.byte	PEND
@ 024   ----------------------------------------
AweOfShe_11_024:
	.byte		N12   , Fn4 , v127
	.byte	W12
	.byte		N12   
	.byte	W12
	.byte		        Dn4 
	.byte	W12
	.byte		N12   
	.byte	W12
	.byte		        En4 
	.byte	W12
	.byte		N12   
	.byte	W12
	.byte		        Cs4 
	.byte	W12
	.byte		        Dn4 
	.byte	W12
	.byte	PEND
@ 025   ----------------------------------------
AweOfShe_11_025:
	.byte		N12   , En4 , v127
	.byte	W12
	.byte		        Fn4 
	.byte	W12
	.byte		N12   
	.byte	W12
	.byte		N12   
	.byte	W12
	.byte		        Gn4 
	.byte	W12
	.byte		N12   
	.byte	W12
	.byte		        En4 
	.byte	W12
	.byte		N12   
	.byte	W12
	.byte	PEND
@ 026   ----------------------------------------
	.byte	PATT
	 .word	AweOfShe_11_024
@ 027   ----------------------------------------
AweOfShe_11_027:
	.byte		N12   , As4 , v127
	.byte	W12
	.byte		        An4 
	.byte	W12
	.byte		        Fn4 
	.byte	W12
	.byte		N12   
	.byte	W12
	.byte		        Gn4 
	.byte	W12
	.byte		N12   
	.byte	W12
	.byte		        En4 
	.byte	W12
	.byte		N12   
	.byte	W12
	.byte	PEND
@ 028   ----------------------------------------
	.byte	PATT
	 .word	AweOfShe_11_024
@ 029   ----------------------------------------
	.byte	PATT
	 .word	AweOfShe_11_025
@ 030   ----------------------------------------
	.byte	PATT
	 .word	AweOfShe_11_024
@ 031   ----------------------------------------
AweOfShe_11_031:
	.byte		N12   , As4 , v127
	.byte	W12
	.byte		        An4 
	.byte	W12
	.byte		N96   , An3 
	.byte		N96   , Dn4 
	.byte	W72
	.byte	PEND
@ 032   ----------------------------------------
AweOfShe_11_032:
	.byte	W24
	.byte		N96   , Cn4 , v127
	.byte		N96   , Fn4 
	.byte	W72
	.byte	PEND
@ 033   ----------------------------------------
AweOfShe_11_033:
	.byte	W24
	.byte		N96   , An3 , v127
	.byte		N96   , Dn4 
	.byte	W72
	.byte	PEND
@ 034   ----------------------------------------
AweOfShe_11_034:
	.byte	W24
	.byte		N48   , Cn4 , v127
	.byte		N48   , Fn4 
	.byte	W48
	.byte		        En4 
	.byte		N48   , An4 
	.byte	W24
	.byte	PEND
@ 035   ----------------------------------------
	.byte	PATT
	 .word	AweOfShe_11_033
@ 036   ----------------------------------------
AweOfShe_11_036:
	.byte	W24
	.byte		N96   , Dn4 , v127
	.byte		N96   , An4 
	.byte	W72
	.byte	PEND
@ 037   ----------------------------------------
AweOfShe_11_037:
	.byte	W24
	.byte		N48   , Fn4 , v127
	.byte		N48   , As4 
	.byte	W48
	.byte		        An4 
	.byte		N48   , Cs5 
	.byte	W24
	.byte	PEND
@ 038   ----------------------------------------
AweOfShe_11_038:
	.byte	W24
	.byte		N48   , As4 , v127
	.byte		N48   , Dn5 
	.byte	W48
	.byte		        Cs5 
	.byte		N48   , En5 
	.byte	W24
	.byte	PEND
@ 039   ----------------------------------------
AweOfShe_11_039:
	.byte	W24
	.byte		N48   , As3 , v127
	.byte		N48   , Dn4 
	.byte	W48
	.byte		N24   , Cn4 
	.byte		N24   , En4 
	.byte	W24
	.byte	PEND
@ 040   ----------------------------------------
AweOfShe_11_040:
	.byte		N24   , Dn4 , v127
	.byte		N24   , Fn4 
	.byte	W24
	.byte		TIE   , An3 
	.byte		TIE   , Cn4 
	.byte	W72
	.byte	PEND
@ 041   ----------------------------------------
	.byte	W72
	.byte		EOT   , An3 
	.byte		        Cn4 
	.byte		N24   
	.byte		N24   , En4 
	.byte	W24
@ 042   ----------------------------------------
AweOfShe_11_042:
	.byte		N24   , Dn4 , v127
	.byte		N24   , Fn4 
	.byte	W24
	.byte		N96   , As3 
	.byte		N96   , Dn4 
	.byte	W72
	.byte	PEND
@ 043   ----------------------------------------
AweOfShe_11_043:
	.byte	W24
	.byte		N96   , As3 , v127
	.byte		N96   , Dn4 
	.byte	W72
	.byte	PEND
@ 044   ----------------------------------------
AweOfShe_11_044:
	.byte	W24
	.byte		TIE   , An3 , v127
	.byte		N96   , Cs4 
	.byte	W72
	.byte	PEND
@ 045   ----------------------------------------
	.byte	W24
	.byte		N48   , Dn4 
	.byte	W48
	.byte		EOT   , An3 
	.byte		TIE   
	.byte		N48   , En4 
	.byte	W24
@ 046   ----------------------------------------
	.byte	W24
	.byte		N96   , Fn4 
	.byte	W72
@ 047   ----------------------------------------
	.byte	W24
	.byte		EOT   , An3 
	.byte		N48   , As3 
	.byte		N48   , Dn4 
	.byte	W48
	.byte		N24   , Cn4 
	.byte		N24   , En4 
	.byte	W24
@ 048   ----------------------------------------
AweOfShe_11_048:
	.byte		N24   , Dn4 , v127
	.byte		N24   , Fn4 
	.byte	W24
	.byte		TIE   , Cn4 
	.byte		N96   , En4 
	.byte	W72
	.byte	PEND
@ 049   ----------------------------------------
	.byte	W24
	.byte		N48   , An3 
	.byte	W48
	.byte		EOT   , Cn4 
	.byte		N24   
	.byte		N24   , En4 
	.byte	W24
@ 050   ----------------------------------------
	.byte	PATT
	 .word	AweOfShe_11_042
@ 051   ----------------------------------------
	.byte	PATT
	 .word	AweOfShe_11_043
@ 052   ----------------------------------------
	.byte	PATT
	 .word	AweOfShe_11_044
@ 053   ----------------------------------------
	.byte	W24
	.byte		N48   , Dn4 , v127
	.byte	W48
	.byte		EOT   , An3 
	.byte		N48   
	.byte		N48   , En4 
	.byte	W24
@ 054   ----------------------------------------
AweOfShe_11_054:
	.byte	W24
	.byte		N48   , An3 , v127
	.byte		N48   , Cn4 
	.byte		N48   , Fn4 
	.byte	W48
	.byte		        An3 
	.byte		N48   , Dn4 
	.byte		N48   , Fs4 
	.byte	W24
	.byte	PEND
@ 055   ----------------------------------------
	.byte	W96
@ 056   ----------------------------------------
	.byte	W96
@ 057   ----------------------------------------
AweOfShe_11_057:
	.byte	W24
	.byte		N96   , Dn3 , v127
	.byte		N96   , An3 
	.byte	W72
	.byte	PEND
@ 058   ----------------------------------------
	.byte	W24
	.byte		        En3 
	.byte		N96   , Gn3 
	.byte	W72
@ 059   ----------------------------------------
AweOfShe_11_059:
	.byte	W24
	.byte		N48   , Fs3 , v127
	.byte		N48   , An3 
	.byte	W48
	.byte		N48   
	.byte		N48   , Dn4 
	.byte	W24
	.byte	PEND
@ 060   ----------------------------------------
AweOfShe_11_060:
	.byte	W24
	.byte		N60   , As3 , v127
	.byte		N60   , Dn4 
	.byte	W60
	.byte		N12   , An3 
	.byte		N12   , Cn4 
	.byte	W12
	.byte	PEND
@ 061   ----------------------------------------
AweOfShe_11_061:
	.byte		N12   , Gn3 , v127
	.byte		N12   , Bn3 
	.byte	W12
	.byte		        Fn3 
	.byte		N12   , An3 
	.byte	W12
	.byte		N48   , Gn3 
	.byte		N48   , As3 
	.byte	W48
	.byte		        Gn3 
	.byte		N48   , Cn4 
	.byte	W24
	.byte	PEND
@ 062   ----------------------------------------
AweOfShe_11_062:
	.byte	W24
	.byte		N12   , Dn3 , v127
	.byte		N12   , Fn3 
	.byte	W12
	.byte		N12   
	.byte		N12   , An3 
	.byte	W12
	.byte		        Gn3 
	.byte		N12   , Cn4 
	.byte	W12
	.byte		N12   
	.byte		N12   , En4 
	.byte	W12
	.byte		        Fn3 
	.byte		N12   , An3 
	.byte	W12
	.byte		N12   
	.byte		N12   , Cn4 
	.byte	W12
	.byte	PEND
@ 063   ----------------------------------------
AweOfShe_11_063:
	.byte		N12   , An3 , v127
	.byte		N12   , Dn4 
	.byte	W12
	.byte		N12   
	.byte		N12   , Fs4 
	.byte	W12
	.byte		N24   , As3 
	.byte		N24   , Dn4 
	.byte	W24
	.byte		N24   
	.byte		N24   , Gn4 
	.byte	W24
	.byte		        Bn3 
	.byte		N24   , En4 
	.byte	W24
	.byte	PEND
@ 064   ----------------------------------------
AweOfShe_11_064:
	.byte		N24   , En4 , v127
	.byte		N24   , Gs4 
	.byte	W24
	.byte		N48   , An4 
	.byte		N48   , Dn5 
	.byte	W48
	.byte		        An4 
	.byte		N48   , Cs5 
	.byte	W24
	.byte	PEND
@ 065   ----------------------------------------
	.byte	PATT
	 .word	AweOfShe_11_023
@ 066   ----------------------------------------
	.byte	PATT
	 .word	AweOfShe_11_024
@ 067   ----------------------------------------
	.byte	PATT
	 .word	AweOfShe_11_025
@ 068   ----------------------------------------
	.byte	PATT
	 .word	AweOfShe_11_024
@ 069   ----------------------------------------
	.byte	PATT
	 .word	AweOfShe_11_027
@ 070   ----------------------------------------
	.byte	PATT
	 .word	AweOfShe_11_024
@ 071   ----------------------------------------
	.byte	PATT
	 .word	AweOfShe_11_025
@ 072   ----------------------------------------
	.byte	PATT
	 .word	AweOfShe_11_024
@ 073   ----------------------------------------
	.byte	PATT
	 .word	AweOfShe_11_031
@ 074   ----------------------------------------
	.byte	PATT
	 .word	AweOfShe_11_032
@ 075   ----------------------------------------
	.byte	PATT
	 .word	AweOfShe_11_033
@ 076   ----------------------------------------
	.byte	PATT
	 .word	AweOfShe_11_034
@ 077   ----------------------------------------
	.byte	PATT
	 .word	AweOfShe_11_033
@ 078   ----------------------------------------
	.byte	PATT
	 .word	AweOfShe_11_036
@ 079   ----------------------------------------
	.byte	PATT
	 .word	AweOfShe_11_037
@ 080   ----------------------------------------
	.byte	PATT
	 .word	AweOfShe_11_038
@ 081   ----------------------------------------
	.byte	PATT
	 .word	AweOfShe_11_039
@ 082   ----------------------------------------
	.byte	PATT
	 .word	AweOfShe_11_040
@ 083   ----------------------------------------
	.byte	W72
	.byte		EOT   , An3 
	.byte		        Cn4 
	.byte		N24   , Cn4 , v127
	.byte		N24   , En4 
	.byte	W24
@ 084   ----------------------------------------
	.byte	PATT
	 .word	AweOfShe_11_042
@ 085   ----------------------------------------
	.byte	PATT
	 .word	AweOfShe_11_043
@ 086   ----------------------------------------
	.byte	PATT
	 .word	AweOfShe_11_044
@ 087   ----------------------------------------
	.byte	W24
	.byte		N48   , Dn4 , v127
	.byte	W48
	.byte		EOT   , An3 
	.byte		TIE   
	.byte		N48   , En4 
	.byte	W24
@ 088   ----------------------------------------
	.byte	W24
	.byte		N96   , Fn4 
	.byte	W72
@ 089   ----------------------------------------
	.byte	W24
	.byte		EOT   , An3 
	.byte		N48   , As3 
	.byte		N48   , Dn4 
	.byte	W48
	.byte		N24   , Cn4 
	.byte		N24   , En4 
	.byte	W24
@ 090   ----------------------------------------
	.byte	PATT
	 .word	AweOfShe_11_048
@ 091   ----------------------------------------
	.byte	W24
	.byte		N48   , An3 , v127
	.byte	W48
	.byte		EOT   , Cn4 
	.byte		N24   
	.byte		N24   , En4 
	.byte	W24
@ 092   ----------------------------------------
	.byte	PATT
	 .word	AweOfShe_11_042
@ 093   ----------------------------------------
	.byte	PATT
	 .word	AweOfShe_11_043
@ 094   ----------------------------------------
	.byte	PATT
	 .word	AweOfShe_11_044
@ 095   ----------------------------------------
	.byte	W24
	.byte		N48   , Dn4 , v127
	.byte	W48
	.byte		EOT   , An3 
	.byte		N48   
	.byte		N48   , En4 
	.byte	W24
@ 096   ----------------------------------------
	.byte	PATT
	 .word	AweOfShe_11_054
@ 097   ----------------------------------------
	.byte	W96
@ 098   ----------------------------------------
	.byte	W96
@ 099   ----------------------------------------
	.byte	PATT
	 .word	AweOfShe_11_057
@ 100   ----------------------------------------
	.byte	W24
	.byte		N96   , En3 , v127
	.byte		N96   , Gn3 
	.byte	W72
@ 101   ----------------------------------------
	.byte	PATT
	 .word	AweOfShe_11_059
@ 102   ----------------------------------------
	.byte	PATT
	 .word	AweOfShe_11_060
@ 103   ----------------------------------------
	.byte	PATT
	 .word	AweOfShe_11_061
@ 104   ----------------------------------------
	.byte	PATT
	 .word	AweOfShe_11_062
@ 105   ----------------------------------------
	.byte	PATT
	 .word	AweOfShe_11_063
@ 106   ----------------------------------------
	.byte	PATT
	 .word	AweOfShe_11_064
@ 107   ----------------------------------------
	.byte	PATT
	 .word	AweOfShe_11_023
@ 108   ----------------------------------------
	.byte	PATT
	 .word	AweOfShe_11_024
@ 109   ----------------------------------------
	.byte	PATT
	 .word	AweOfShe_11_025
@ 110   ----------------------------------------
	.byte	PATT
	 .word	AweOfShe_11_024
@ 111   ----------------------------------------
	.byte	PATT
	 .word	AweOfShe_11_027
@ 112   ----------------------------------------
	.byte	PATT
	 .word	AweOfShe_11_024
@ 113   ----------------------------------------
	.byte	PATT
	 .word	AweOfShe_11_025
@ 114   ----------------------------------------
	.byte	PATT
	 .word	AweOfShe_11_024
@ 115   ----------------------------------------
	.byte	PATT
	 .word	AweOfShe_11_031
@ 116   ----------------------------------------
	.byte	PATT
	 .word	AweOfShe_11_032
@ 117   ----------------------------------------
	.byte	PATT
	 .word	AweOfShe_11_033
@ 118   ----------------------------------------
	.byte	PATT
	 .word	AweOfShe_11_034
@ 119   ----------------------------------------
	.byte	PATT
	 .word	AweOfShe_11_033
@ 120   ----------------------------------------
	.byte	PATT
	 .word	AweOfShe_11_036
@ 121   ----------------------------------------
	.byte	PATT
	 .word	AweOfShe_11_037
@ 122   ----------------------------------------
	.byte	PATT
	 .word	AweOfShe_11_038
@ 123   ----------------------------------------
	.byte	PATT
	 .word	AweOfShe_11_039
@ 124   ----------------------------------------
	.byte	PATT
	 .word	AweOfShe_11_040
@ 125   ----------------------------------------
	.byte	W72
	.byte		EOT   , An3 
	.byte		        Cn4 
	.byte		N24   , Cn4 , v127
	.byte		N24   , En4 
	.byte	W24
@ 126   ----------------------------------------
	.byte	PATT
	 .word	AweOfShe_11_042
@ 127   ----------------------------------------
	.byte	PATT
	 .word	AweOfShe_11_043
@ 128   ----------------------------------------
	.byte	PATT
	 .word	AweOfShe_11_044
@ 129   ----------------------------------------
	.byte	W24
	.byte		N48   , Dn4 , v127
	.byte	W48
	.byte		EOT   , An3 
	.byte		TIE   
	.byte		N48   , En4 
	.byte	W24
@ 130   ----------------------------------------
	.byte	W24
	.byte		N96   , Fn4 
	.byte	W72
@ 131   ----------------------------------------
	.byte	W24
	.byte		EOT   , An3 
	.byte		N48   , As3 
	.byte		N48   , Dn4 
	.byte	W48
	.byte		N24   , Cn4 
	.byte		N24   , En4 
	.byte	W24
@ 132   ----------------------------------------
	.byte	PATT
	 .word	AweOfShe_11_048
@ 133   ----------------------------------------
	.byte	W24
	.byte		N48   , An3 , v127
	.byte	W48
	.byte		EOT   , Cn4 
	.byte		N24   
	.byte		N24   , En4 
	.byte	W24
@ 134   ----------------------------------------
	.byte	PATT
	 .word	AweOfShe_11_042
@ 135   ----------------------------------------
	.byte	PATT
	 .word	AweOfShe_11_043
@ 136   ----------------------------------------
	.byte	PATT
	 .word	AweOfShe_11_044
@ 137   ----------------------------------------
	.byte	W24
	.byte		N48   , Dn4 , v127
	.byte	W48
	.byte		EOT   , An3 
	.byte		N48   
	.byte		N48   , En4 
	.byte	W24
@ 138   ----------------------------------------
	.byte	PATT
	 .word	AweOfShe_11_054
@ 139   ----------------------------------------
	.byte	W24
	.byte	FINE

@**************** Track 12 (Midi-Chn.7) ****************@

AweOfShe_12:
	.byte	KEYSH , AweOfShe_key+0
@ 000   ----------------------------------------
	.byte		VOICE , 48
	.byte	W12
	.byte		VOL   , 80*AweOfShe_mvl/mxv
	.byte	W03
	.byte		PAN   , c_v+0
	.byte	W03
	.byte	W78
@ 001   ----------------------------------------
	.byte	W96
@ 002   ----------------------------------------
	.byte	W96
@ 003   ----------------------------------------
	.byte	W96
@ 004   ----------------------------------------
	.byte	W96
@ 005   ----------------------------------------
	.byte	W96
@ 006   ----------------------------------------
	.byte	W96
@ 007   ----------------------------------------
	.byte	W96
@ 008   ----------------------------------------
	.byte	W96
@ 009   ----------------------------------------
	.byte	W96
@ 010   ----------------------------------------
	.byte	W96
@ 011   ----------------------------------------
	.byte	W96
@ 012   ----------------------------------------
	.byte	W96
@ 013   ----------------------------------------
	.byte	W96
@ 014   ----------------------------------------
	.byte	W96
@ 015   ----------------------------------------
	.byte	W96
@ 016   ----------------------------------------
	.byte	W96
@ 017   ----------------------------------------
	.byte	W96
@ 018   ----------------------------------------
	.byte	W96
@ 019   ----------------------------------------
	.byte	W96
@ 020   ----------------------------------------
	.byte	W96
@ 021   ----------------------------------------
	.byte	W96
@ 022   ----------------------------------------
	.byte	W96
@ 023   ----------------------------------------
	.byte	W96
@ 024   ----------------------------------------
AweOfShe_12_024:
	.byte	W24
	.byte		TIE   , Fn4 , v127
	.byte	W72
	.byte	PEND
@ 025   ----------------------------------------
	.byte	W96
@ 026   ----------------------------------------
	.byte	W96
@ 027   ----------------------------------------
	.byte	W72
	.byte		EOT   
	.byte		N48   , En4 
	.byte		N24   , Gn4 
	.byte	W24
@ 028   ----------------------------------------
AweOfShe_12_028:
	.byte		N24   , Cs4 , v127
	.byte	W24
	.byte		TIE   , Fn4 
	.byte	W72
	.byte	PEND
@ 029   ----------------------------------------
	.byte	W96
@ 030   ----------------------------------------
	.byte	W96
@ 031   ----------------------------------------
	.byte	W72
	.byte		EOT   
	.byte		N48   , En4 
	.byte		N24   , Gn4 
	.byte	W24
@ 032   ----------------------------------------
	.byte		        Cs4 
	.byte	W96
@ 033   ----------------------------------------
	.byte	W96
@ 034   ----------------------------------------
	.byte	W96
@ 035   ----------------------------------------
	.byte	W96
@ 036   ----------------------------------------
	.byte	W96
@ 037   ----------------------------------------
	.byte	W96
@ 038   ----------------------------------------
	.byte	W96
@ 039   ----------------------------------------
	.byte	W96
@ 040   ----------------------------------------
	.byte	W96
@ 041   ----------------------------------------
	.byte	W96
@ 042   ----------------------------------------
	.byte	W96
@ 043   ----------------------------------------
	.byte	W96
@ 044   ----------------------------------------
	.byte	W96
@ 045   ----------------------------------------
	.byte	W96
@ 046   ----------------------------------------
	.byte	W96
@ 047   ----------------------------------------
	.byte	W96
@ 048   ----------------------------------------
	.byte	W96
@ 049   ----------------------------------------
	.byte	W96
@ 050   ----------------------------------------
	.byte	W96
@ 051   ----------------------------------------
	.byte	W96
@ 052   ----------------------------------------
	.byte	W96
@ 053   ----------------------------------------
	.byte	W96
@ 054   ----------------------------------------
	.byte	W96
@ 055   ----------------------------------------
	.byte	W96
@ 056   ----------------------------------------
	.byte	W96
@ 057   ----------------------------------------
	.byte	W96
@ 058   ----------------------------------------
	.byte	W96
@ 059   ----------------------------------------
	.byte	W96
@ 060   ----------------------------------------
	.byte	W96
@ 061   ----------------------------------------
	.byte	W96
@ 062   ----------------------------------------
	.byte	W96
@ 063   ----------------------------------------
	.byte	W96
@ 064   ----------------------------------------
	.byte	W96
@ 065   ----------------------------------------
	.byte	PATT
	 .word	AweOfShe_12_024
@ 066   ----------------------------------------
	.byte	W96
@ 067   ----------------------------------------
	.byte	W96
@ 068   ----------------------------------------
	.byte	W72
	.byte		EOT   , Fn4 
	.byte		N48   , En4 , v127
	.byte		N24   , Gn4 
	.byte	W24
@ 069   ----------------------------------------
	.byte	PATT
	 .word	AweOfShe_12_028
@ 070   ----------------------------------------
	.byte	W96
@ 071   ----------------------------------------
	.byte	W96
@ 072   ----------------------------------------
	.byte	W72
	.byte		EOT   , Fn4 
	.byte		N48   , En4 , v127
	.byte		N24   , Gn4 
	.byte	W24
@ 073   ----------------------------------------
	.byte		        Cs4 
	.byte	W96
@ 074   ----------------------------------------
	.byte	W96
@ 075   ----------------------------------------
	.byte	W96
@ 076   ----------------------------------------
	.byte	W96
@ 077   ----------------------------------------
	.byte	W96
@ 078   ----------------------------------------
	.byte	W96
@ 079   ----------------------------------------
	.byte	W96
@ 080   ----------------------------------------
	.byte	W96
@ 081   ----------------------------------------
	.byte	W96
@ 082   ----------------------------------------
	.byte	W96
@ 083   ----------------------------------------
	.byte	W96
@ 084   ----------------------------------------
	.byte	W96
@ 085   ----------------------------------------
	.byte	W96
@ 086   ----------------------------------------
	.byte	W96
@ 087   ----------------------------------------
	.byte	W96
@ 088   ----------------------------------------
	.byte	W96
@ 089   ----------------------------------------
	.byte	W96
@ 090   ----------------------------------------
	.byte	W96
@ 091   ----------------------------------------
	.byte	W96
@ 092   ----------------------------------------
	.byte	W96
@ 093   ----------------------------------------
	.byte	W96
@ 094   ----------------------------------------
	.byte	W96
@ 095   ----------------------------------------
	.byte	W96
@ 096   ----------------------------------------
	.byte	W96
@ 097   ----------------------------------------
	.byte	W96
@ 098   ----------------------------------------
	.byte	W96
@ 099   ----------------------------------------
	.byte	W96
@ 100   ----------------------------------------
	.byte	W96
@ 101   ----------------------------------------
	.byte	W96
@ 102   ----------------------------------------
	.byte	W96
@ 103   ----------------------------------------
	.byte	W96
@ 104   ----------------------------------------
	.byte	W96
@ 105   ----------------------------------------
	.byte	W96
@ 106   ----------------------------------------
	.byte	W96
@ 107   ----------------------------------------
	.byte	PATT
	 .word	AweOfShe_12_024
@ 108   ----------------------------------------
	.byte	W96
@ 109   ----------------------------------------
	.byte	W96
@ 110   ----------------------------------------
	.byte	W72
	.byte		EOT   , Fn4 
	.byte		N48   , En4 , v127
	.byte		N24   , Gn4 
	.byte	W24
@ 111   ----------------------------------------
	.byte	PATT
	 .word	AweOfShe_12_028
@ 112   ----------------------------------------
	.byte	W96
@ 113   ----------------------------------------
	.byte	W96
@ 114   ----------------------------------------
	.byte	W72
	.byte		EOT   , Fn4 
	.byte		N48   , En4 , v127
	.byte		N24   , Gn4 
	.byte	W24
@ 115   ----------------------------------------
	.byte		        Cs4 
	.byte	W24
	.byte	FINE

@**************** Track 13 (Midi-Chn.3) ****************@

AweOfShe_13:
	.byte	KEYSH , AweOfShe_key+0
@ 000   ----------------------------------------
	.byte		VOICE , 89
	.byte	W12
	.byte		VOL   , 80*AweOfShe_mvl/mxv
	.byte	W03
	.byte		PAN   , c_v+0
	.byte	W03
	.byte	W78
@ 001   ----------------------------------------
	.byte	W96
@ 002   ----------------------------------------
	.byte	W96
@ 003   ----------------------------------------
	.byte	W96
@ 004   ----------------------------------------
	.byte	W96
@ 005   ----------------------------------------
	.byte	W96
@ 006   ----------------------------------------
	.byte	W96
@ 007   ----------------------------------------
	.byte	W96
@ 008   ----------------------------------------
	.byte	W96
@ 009   ----------------------------------------
	.byte	W96
@ 010   ----------------------------------------
	.byte	W96
@ 011   ----------------------------------------
	.byte	W96
@ 012   ----------------------------------------
	.byte	W96
@ 013   ----------------------------------------
	.byte	W96
@ 014   ----------------------------------------
	.byte	W96
@ 015   ----------------------------------------
	.byte	W96
@ 016   ----------------------------------------
	.byte	W96
@ 017   ----------------------------------------
	.byte	W96
@ 018   ----------------------------------------
	.byte	W96
@ 019   ----------------------------------------
	.byte	W96
@ 020   ----------------------------------------
	.byte	W96
@ 021   ----------------------------------------
	.byte	W96
@ 022   ----------------------------------------
	.byte	W96
@ 023   ----------------------------------------
	.byte	W96
@ 024   ----------------------------------------
AweOfShe_13_024:
	.byte	W24
	.byte		TIE   , Fn4 , v127
	.byte	W72
	.byte	PEND
@ 025   ----------------------------------------
	.byte	W96
@ 026   ----------------------------------------
	.byte	W96
@ 027   ----------------------------------------
	.byte	W72
	.byte		EOT   
	.byte		N48   , En4 
	.byte		N24   , Gn4 
	.byte	W24
@ 028   ----------------------------------------
AweOfShe_13_028:
	.byte		N24   , Cs4 , v127
	.byte	W24
	.byte		TIE   , Fn4 
	.byte	W72
	.byte	PEND
@ 029   ----------------------------------------
	.byte	W96
@ 030   ----------------------------------------
	.byte	W96
@ 031   ----------------------------------------
	.byte	W72
	.byte		EOT   
	.byte		N48   , En4 
	.byte		N24   , Gn4 
	.byte	W24
@ 032   ----------------------------------------
	.byte		        Cs4 
	.byte	W96
@ 033   ----------------------------------------
	.byte	W96
@ 034   ----------------------------------------
	.byte	W96
@ 035   ----------------------------------------
	.byte	W96
@ 036   ----------------------------------------
	.byte	W96
@ 037   ----------------------------------------
	.byte	W96
@ 038   ----------------------------------------
	.byte	W96
@ 039   ----------------------------------------
	.byte	W96
@ 040   ----------------------------------------
	.byte	W96
@ 041   ----------------------------------------
	.byte	W96
@ 042   ----------------------------------------
	.byte	W96
@ 043   ----------------------------------------
	.byte	W96
@ 044   ----------------------------------------
	.byte	W96
@ 045   ----------------------------------------
	.byte	W96
@ 046   ----------------------------------------
	.byte	W96
@ 047   ----------------------------------------
	.byte	W96
@ 048   ----------------------------------------
	.byte	W96
@ 049   ----------------------------------------
	.byte	W96
@ 050   ----------------------------------------
	.byte	W96
@ 051   ----------------------------------------
	.byte	W96
@ 052   ----------------------------------------
	.byte	W96
@ 053   ----------------------------------------
	.byte	W96
@ 054   ----------------------------------------
	.byte	W96
@ 055   ----------------------------------------
	.byte	W96
@ 056   ----------------------------------------
	.byte	W96
@ 057   ----------------------------------------
	.byte	W96
@ 058   ----------------------------------------
	.byte	W96
@ 059   ----------------------------------------
	.byte	W96
@ 060   ----------------------------------------
	.byte	W96
@ 061   ----------------------------------------
	.byte	W96
@ 062   ----------------------------------------
	.byte	W96
@ 063   ----------------------------------------
	.byte	W96
@ 064   ----------------------------------------
	.byte	W96
@ 065   ----------------------------------------
	.byte	PATT
	 .word	AweOfShe_13_024
@ 066   ----------------------------------------
	.byte	W96
@ 067   ----------------------------------------
	.byte	W96
@ 068   ----------------------------------------
	.byte	W72
	.byte		EOT   , Fn4 
	.byte		N48   , En4 , v127
	.byte		N24   , Gn4 
	.byte	W24
@ 069   ----------------------------------------
	.byte	PATT
	 .word	AweOfShe_13_028
@ 070   ----------------------------------------
	.byte	W96
@ 071   ----------------------------------------
	.byte	W96
@ 072   ----------------------------------------
	.byte	W72
	.byte		EOT   , Fn4 
	.byte		N48   , En4 , v127
	.byte		N24   , Gn4 
	.byte	W24
@ 073   ----------------------------------------
	.byte		        Cs4 
	.byte	W96
@ 074   ----------------------------------------
	.byte	W96
@ 075   ----------------------------------------
	.byte	W96
@ 076   ----------------------------------------
	.byte	W96
@ 077   ----------------------------------------
	.byte	W96
@ 078   ----------------------------------------
	.byte	W96
@ 079   ----------------------------------------
	.byte	W96
@ 080   ----------------------------------------
	.byte	W96
@ 081   ----------------------------------------
	.byte	W96
@ 082   ----------------------------------------
	.byte	W96
@ 083   ----------------------------------------
	.byte	W96
@ 084   ----------------------------------------
	.byte	W96
@ 085   ----------------------------------------
	.byte	W96
@ 086   ----------------------------------------
	.byte	W96
@ 087   ----------------------------------------
	.byte	W96
@ 088   ----------------------------------------
	.byte	W96
@ 089   ----------------------------------------
	.byte	W96
@ 090   ----------------------------------------
	.byte	W96
@ 091   ----------------------------------------
	.byte	W96
@ 092   ----------------------------------------
	.byte	W96
@ 093   ----------------------------------------
	.byte	W96
@ 094   ----------------------------------------
	.byte	W96
@ 095   ----------------------------------------
	.byte	W96
@ 096   ----------------------------------------
	.byte	W96
@ 097   ----------------------------------------
	.byte	W96
@ 098   ----------------------------------------
	.byte	W96
@ 099   ----------------------------------------
	.byte	W96
@ 100   ----------------------------------------
	.byte	W96
@ 101   ----------------------------------------
	.byte	W96
@ 102   ----------------------------------------
	.byte	W96
@ 103   ----------------------------------------
	.byte	W96
@ 104   ----------------------------------------
	.byte	W96
@ 105   ----------------------------------------
	.byte	W96
@ 106   ----------------------------------------
	.byte	W96
@ 107   ----------------------------------------
	.byte	PATT
	 .word	AweOfShe_13_024
@ 108   ----------------------------------------
	.byte	W96
@ 109   ----------------------------------------
	.byte	W96
@ 110   ----------------------------------------
	.byte	W72
	.byte		EOT   , Fn4 
	.byte		N48   , En4 , v127
	.byte		N24   , Gn4 
	.byte	W24
@ 111   ----------------------------------------
	.byte	PATT
	 .word	AweOfShe_13_028
@ 112   ----------------------------------------
	.byte	W96
@ 113   ----------------------------------------
	.byte	W96
@ 114   ----------------------------------------
	.byte	W72
	.byte		EOT   , Fn4 
	.byte		N48   , En4 , v127
	.byte		N24   , Gn4 
	.byte	W24
@ 115   ----------------------------------------
	.byte		        Cs4 
	.byte	W24
	.byte	FINE

@**************** Track 14 (Midi-Chn.8) ****************@

AweOfShe_14:
	.byte	KEYSH , AweOfShe_key+0
@ 000   ----------------------------------------
	.byte		VOICE , 24
	.byte	W12
	.byte		VOL   , 100*AweOfShe_mvl/mxv
	.byte	W03
	.byte		PAN   , c_v+0
	.byte	W03
	.byte	W06
	.byte		        c_v+0
	.byte	W72
@ 001   ----------------------------------------
	.byte	W96
@ 002   ----------------------------------------
	.byte	W96
@ 003   ----------------------------------------
	.byte	W96
@ 004   ----------------------------------------
	.byte	W96
@ 005   ----------------------------------------
	.byte	W96
@ 006   ----------------------------------------
	.byte	W96
@ 007   ----------------------------------------
	.byte	W96
@ 008   ----------------------------------------
	.byte	W96
@ 009   ----------------------------------------
	.byte	W96
@ 010   ----------------------------------------
	.byte	W96
@ 011   ----------------------------------------
	.byte	W96
@ 012   ----------------------------------------
	.byte	W96
@ 013   ----------------------------------------
	.byte	W96
@ 014   ----------------------------------------
	.byte	W96
@ 015   ----------------------------------------
	.byte	W96
@ 016   ----------------------------------------
	.byte	W96
@ 017   ----------------------------------------
	.byte	W96
@ 018   ----------------------------------------
	.byte	W96
@ 019   ----------------------------------------
	.byte	W96
@ 020   ----------------------------------------
	.byte	W96
@ 021   ----------------------------------------
	.byte	W96
@ 022   ----------------------------------------
	.byte	W96
@ 023   ----------------------------------------
	.byte	W24
	.byte		N09   , Fn4 , v096
	.byte	W12
	.byte		N09   
	.byte	W12
	.byte		        Gn4 
	.byte	W12
	.byte		N09   
	.byte	W12
	.byte		        En4 
	.byte	W12
	.byte		N09   
	.byte	W12
@ 024   ----------------------------------------
AweOfShe_14_024:
	.byte		N09   , Fn4 , v096
	.byte	W12
	.byte		N09   
	.byte	W12
	.byte		        Dn4 
	.byte	W12
	.byte		N09   
	.byte	W12
	.byte		        En4 
	.byte	W12
	.byte		N09   
	.byte	W12
	.byte		        Cs4 
	.byte	W12
	.byte		        Dn4 
	.byte	W12
	.byte	PEND
@ 025   ----------------------------------------
AweOfShe_14_025:
	.byte		N09   , En4 , v096
	.byte	W12
	.byte		        Fn4 
	.byte	W12
	.byte		N09   
	.byte	W12
	.byte		N09   
	.byte	W12
	.byte		        Gn4 
	.byte	W12
	.byte		N09   
	.byte	W12
	.byte		        En4 
	.byte	W12
	.byte		N09   
	.byte	W12
	.byte	PEND
@ 026   ----------------------------------------
	.byte	PATT
	 .word	AweOfShe_14_024
@ 027   ----------------------------------------
	.byte		N09   , As4 , v096
	.byte	W12
	.byte		        An4 
	.byte	W12
	.byte		        Fn4 
	.byte	W12
	.byte		N09   
	.byte	W12
	.byte		        Gn4 
	.byte	W12
	.byte		N09   
	.byte	W12
	.byte		        En4 
	.byte	W12
	.byte		N09   
	.byte	W12
@ 028   ----------------------------------------
	.byte	PATT
	 .word	AweOfShe_14_024
@ 029   ----------------------------------------
	.byte	PATT
	 .word	AweOfShe_14_025
@ 030   ----------------------------------------
	.byte	PATT
	 .word	AweOfShe_14_024
@ 031   ----------------------------------------
	.byte		N09   , As4 , v096
	.byte	W12
	.byte		        An4 
	.byte	W84
@ 032   ----------------------------------------
	.byte	W96
@ 033   ----------------------------------------
	.byte	W96
@ 034   ----------------------------------------
	.byte	W96
@ 035   ----------------------------------------
	.byte	W96
@ 036   ----------------------------------------
	.byte	W96
@ 037   ----------------------------------------
	.byte	W96
@ 038   ----------------------------------------
	.byte	W96
@ 039   ----------------------------------------
AweOfShe_14_039:
	.byte	W24
	.byte		N06   , As3 , v127
	.byte	W06
	.byte		        Fn4 
	.byte	W06
	.byte		        En4 
	.byte	W06
	.byte		        Fn4 
	.byte	W06
	.byte		        As3 
	.byte	W06
	.byte		        Fn4 
	.byte	W06
	.byte		        En4 
	.byte	W06
	.byte		        Fn4 
	.byte	W06
	.byte		        As3 
	.byte	W06
	.byte		        Fn4 
	.byte	W06
	.byte		        En4 
	.byte	W06
	.byte		        Fn4 
	.byte	W06
	.byte	PEND
@ 040   ----------------------------------------
AweOfShe_14_040:
	.byte		N06   , As3 , v127
	.byte	W06
	.byte		        Fn4 
	.byte	W06
	.byte		        En4 
	.byte	W06
	.byte		        Fn4 
	.byte	W06
	.byte		        An3 
	.byte	W06
	.byte		        En4 
	.byte	W06
	.byte		        Dn4 
	.byte	W06
	.byte		        En4 
	.byte	W06
	.byte		        An3 
	.byte	W06
	.byte		        En4 
	.byte	W06
	.byte		        Dn4 
	.byte	W06
	.byte		        En4 
	.byte	W06
	.byte		        An3 
	.byte	W06
	.byte		        En4 
	.byte	W06
	.byte		        Dn4 
	.byte	W06
	.byte		        En4 
	.byte	W06
	.byte	PEND
@ 041   ----------------------------------------
AweOfShe_14_041:
	.byte		N06   , An3 , v127
	.byte	W06
	.byte		        En4 
	.byte	W06
	.byte		        Dn4 
	.byte	W06
	.byte		        En4 
	.byte	W06
	.byte		        An3 
	.byte	W06
	.byte		        En4 
	.byte	W06
	.byte		        Dn4 
	.byte	W06
	.byte		        En4 
	.byte	W06
	.byte		        An3 
	.byte	W06
	.byte		        En4 
	.byte	W06
	.byte		        Dn4 
	.byte	W06
	.byte		        En4 
	.byte	W06
	.byte		        An3 
	.byte	W06
	.byte		        En4 
	.byte	W06
	.byte		        Dn4 
	.byte	W06
	.byte		        En4 
	.byte	W06
	.byte	PEND
@ 042   ----------------------------------------
AweOfShe_14_042:
	.byte		N06   , An3 , v127
	.byte	W06
	.byte		        En4 
	.byte	W06
	.byte		        Dn4 
	.byte	W06
	.byte		        En4 
	.byte	W06
	.byte		        Fn3 
	.byte	W06
	.byte		        Dn4 
	.byte	W06
	.byte		        Cn4 
	.byte	W06
	.byte		        Dn4 
	.byte	W06
	.byte		        Fn3 
	.byte	W06
	.byte		        Dn4 
	.byte	W06
	.byte		        Cn4 
	.byte	W06
	.byte		        Dn4 
	.byte	W06
	.byte		        Fn3 
	.byte	W06
	.byte		        Dn4 
	.byte	W06
	.byte		        Cn4 
	.byte	W06
	.byte		        Dn4 
	.byte	W06
	.byte	PEND
@ 043   ----------------------------------------
AweOfShe_14_043:
	.byte		N06   , Fn3 , v127
	.byte	W06
	.byte		        Dn4 
	.byte	W06
	.byte		        Cn4 
	.byte	W06
	.byte		        Dn4 
	.byte	W06
	.byte		        En3 
	.byte	W06
	.byte		        Dn4 
	.byte	W06
	.byte		        Cn4 
	.byte	W06
	.byte		        Dn4 
	.byte	W06
	.byte		        En3 
	.byte	W06
	.byte		        Dn4 
	.byte	W06
	.byte		        Cn4 
	.byte	W06
	.byte		        Dn4 
	.byte	W06
	.byte		        En3 
	.byte	W06
	.byte		        Dn4 
	.byte	W06
	.byte		        Cn4 
	.byte	W06
	.byte		        Dn4 
	.byte	W06
	.byte	PEND
@ 044   ----------------------------------------
AweOfShe_14_044:
	.byte		N06   , En3 , v127
	.byte	W06
	.byte		        Dn4 
	.byte	W06
	.byte		        Cn4 
	.byte	W06
	.byte		        Dn4 
	.byte	W06
	.byte		N06   
	.byte	W06
	.byte		        Cs4 
	.byte	W06
	.byte		        Bn3 
	.byte	W06
	.byte		        Cs4 
	.byte	W06
	.byte		        Dn4 
	.byte	W06
	.byte		        Cs4 
	.byte	W06
	.byte		        Bn3 
	.byte	W06
	.byte		        Cs4 
	.byte	W06
	.byte		        Dn4 
	.byte	W06
	.byte		        Cs4 
	.byte	W06
	.byte		        Bn3 
	.byte	W06
	.byte		        Cs4 
	.byte	W06
	.byte	PEND
@ 045   ----------------------------------------
AweOfShe_14_045:
	.byte		N06   , Dn4 , v127
	.byte	W06
	.byte		        Cs4 
	.byte	W06
	.byte		        Bn3 
	.byte	W06
	.byte		        Cs4 
	.byte	W06
	.byte		        Gn3 
	.byte	W06
	.byte		        Dn4 
	.byte	W06
	.byte		        Cs4 
	.byte	W06
	.byte		        Dn4 
	.byte	W06
	.byte		        Gn3 
	.byte	W06
	.byte		        Dn4 
	.byte	W06
	.byte		        Cs4 
	.byte	W06
	.byte		        Dn4 
	.byte	W06
	.byte		        An3 
	.byte	W06
	.byte		        En4 
	.byte	W06
	.byte		        Dn4 
	.byte	W06
	.byte		        En4 
	.byte	W06
	.byte	PEND
@ 046   ----------------------------------------
AweOfShe_14_046:
	.byte		N06   , An3 , v127
	.byte	W06
	.byte		        En4 
	.byte	W06
	.byte		        Dn4 
	.byte	W06
	.byte		        En4 
	.byte	W06
	.byte		        Gn4 
	.byte	W06
	.byte		        Fn4 
	.byte	W06
	.byte		        En4 
	.byte	W06
	.byte		        Dn4 
	.byte	W06
	.byte		        Cs4 
	.byte	W06
	.byte		        Dn4 
	.byte	W06
	.byte		        En4 
	.byte	W06
	.byte		        Fn4 
	.byte	W06
	.byte		        Gn4 
	.byte	W06
	.byte		        Fn4 
	.byte	W06
	.byte		        As4 
	.byte	W06
	.byte		N30   , An4 
	.byte	W06
	.byte	PEND
@ 047   ----------------------------------------
	.byte	PATT
	 .word	AweOfShe_14_039
@ 048   ----------------------------------------
	.byte	PATT
	 .word	AweOfShe_14_040
@ 049   ----------------------------------------
	.byte	PATT
	 .word	AweOfShe_14_041
@ 050   ----------------------------------------
	.byte	PATT
	 .word	AweOfShe_14_042
@ 051   ----------------------------------------
	.byte	PATT
	 .word	AweOfShe_14_043
@ 052   ----------------------------------------
	.byte	PATT
	 .word	AweOfShe_14_044
@ 053   ----------------------------------------
	.byte	PATT
	 .word	AweOfShe_14_045
@ 054   ----------------------------------------
AweOfShe_14_054:
	.byte		N06   , An3 , v127
	.byte	W06
	.byte		        En4 
	.byte	W06
	.byte		        Dn4 
	.byte	W06
	.byte		        En4 
	.byte	W06
	.byte		        Gn4 
	.byte	W06
	.byte		        Fn4 
	.byte	W06
	.byte		        En4 
	.byte	W06
	.byte		        Dn4 
	.byte	W06
	.byte		        Cs4 
	.byte	W06
	.byte		        Dn4 
	.byte	W06
	.byte		        En4 
	.byte	W06
	.byte		        Fn4 
	.byte	W06
	.byte		        Fs4 
	.byte	W06
	.byte		        Dn4 
	.byte	W06
	.byte		        Fs4 
	.byte	W06
	.byte		        An4 
	.byte	W06
	.byte	PEND
@ 055   ----------------------------------------
AweOfShe_14_055:
	.byte		N06   , As4 , v127
	.byte	W06
	.byte		        An4 
	.byte	W06
	.byte		        Gn4 
	.byte	W06
	.byte		        Fs4 
	.byte	W78
	.byte	PEND
@ 056   ----------------------------------------
	.byte	W96
@ 057   ----------------------------------------
	.byte	W96
@ 058   ----------------------------------------
	.byte	W96
@ 059   ----------------------------------------
	.byte	W96
@ 060   ----------------------------------------
	.byte	W96
@ 061   ----------------------------------------
	.byte	W96
@ 062   ----------------------------------------
	.byte	W96
@ 063   ----------------------------------------
	.byte	W96
@ 064   ----------------------------------------
	.byte	W96
@ 065   ----------------------------------------
AweOfShe_14_065:
	.byte	W24
	.byte		N12   , Fn4 , v127
	.byte	W12
	.byte		N12   
	.byte	W12
	.byte		        Gn4 
	.byte	W12
	.byte		N12   
	.byte	W12
	.byte		        En4 
	.byte	W12
	.byte		N12   
	.byte	W12
	.byte	PEND
@ 066   ----------------------------------------
AweOfShe_14_066:
	.byte		N12   , Fn4 , v127
	.byte	W12
	.byte		N12   
	.byte	W12
	.byte		        Dn4 
	.byte	W12
	.byte		N12   
	.byte	W12
	.byte		        En4 
	.byte	W12
	.byte		N12   
	.byte	W12
	.byte		        Cs4 
	.byte	W12
	.byte		        Dn4 
	.byte	W12
	.byte	PEND
@ 067   ----------------------------------------
AweOfShe_14_067:
	.byte		N12   , En4 , v127
	.byte	W12
	.byte		        Fn4 
	.byte	W12
	.byte		N12   
	.byte	W12
	.byte		N12   
	.byte	W12
	.byte		        Gn4 
	.byte	W12
	.byte		N12   
	.byte	W12
	.byte		        En4 
	.byte	W12
	.byte		N12   
	.byte	W12
	.byte	PEND
@ 068   ----------------------------------------
	.byte	PATT
	 .word	AweOfShe_14_066
@ 069   ----------------------------------------
AweOfShe_14_069:
	.byte		N12   , As4 , v127
	.byte	W12
	.byte		        An4 
	.byte	W12
	.byte		        Fn4 
	.byte	W12
	.byte		N12   
	.byte	W12
	.byte		        Gn4 
	.byte	W12
	.byte		N12   
	.byte	W12
	.byte		        En4 
	.byte	W12
	.byte		N12   
	.byte	W12
	.byte	PEND
@ 070   ----------------------------------------
	.byte	PATT
	 .word	AweOfShe_14_066
@ 071   ----------------------------------------
	.byte	PATT
	 .word	AweOfShe_14_067
@ 072   ----------------------------------------
	.byte	PATT
	 .word	AweOfShe_14_066
@ 073   ----------------------------------------
AweOfShe_14_073:
	.byte		N12   , As4 , v127
	.byte	W12
	.byte		        An4 
	.byte	W84
	.byte	PEND
@ 074   ----------------------------------------
	.byte	W96
@ 075   ----------------------------------------
	.byte	W96
@ 076   ----------------------------------------
	.byte	W96
@ 077   ----------------------------------------
	.byte	W96
@ 078   ----------------------------------------
	.byte	W96
@ 079   ----------------------------------------
	.byte	W96
@ 080   ----------------------------------------
	.byte	W96
@ 081   ----------------------------------------
	.byte	PATT
	 .word	AweOfShe_14_039
@ 082   ----------------------------------------
	.byte	PATT
	 .word	AweOfShe_14_040
@ 083   ----------------------------------------
	.byte	PATT
	 .word	AweOfShe_14_041
@ 084   ----------------------------------------
	.byte	PATT
	 .word	AweOfShe_14_042
@ 085   ----------------------------------------
	.byte	PATT
	 .word	AweOfShe_14_043
@ 086   ----------------------------------------
	.byte	PATT
	 .word	AweOfShe_14_044
@ 087   ----------------------------------------
	.byte	PATT
	 .word	AweOfShe_14_045
@ 088   ----------------------------------------
	.byte	PATT
	 .word	AweOfShe_14_046
@ 089   ----------------------------------------
	.byte	PATT
	 .word	AweOfShe_14_039
@ 090   ----------------------------------------
	.byte	PATT
	 .word	AweOfShe_14_040
@ 091   ----------------------------------------
	.byte	PATT
	 .word	AweOfShe_14_041
@ 092   ----------------------------------------
	.byte	PATT
	 .word	AweOfShe_14_042
@ 093   ----------------------------------------
	.byte	PATT
	 .word	AweOfShe_14_043
@ 094   ----------------------------------------
	.byte	PATT
	 .word	AweOfShe_14_044
@ 095   ----------------------------------------
	.byte	PATT
	 .word	AweOfShe_14_045
@ 096   ----------------------------------------
	.byte	PATT
	 .word	AweOfShe_14_054
@ 097   ----------------------------------------
	.byte	PATT
	 .word	AweOfShe_14_055
@ 098   ----------------------------------------
	.byte	W96
@ 099   ----------------------------------------
	.byte	W96
@ 100   ----------------------------------------
	.byte	W96
@ 101   ----------------------------------------
	.byte	W96
@ 102   ----------------------------------------
	.byte	W96
@ 103   ----------------------------------------
	.byte	W96
@ 104   ----------------------------------------
	.byte	W96
@ 105   ----------------------------------------
	.byte	W96
@ 106   ----------------------------------------
	.byte	W96
@ 107   ----------------------------------------
	.byte	PATT
	 .word	AweOfShe_14_065
@ 108   ----------------------------------------
	.byte	PATT
	 .word	AweOfShe_14_066
@ 109   ----------------------------------------
	.byte	PATT
	 .word	AweOfShe_14_067
@ 110   ----------------------------------------
	.byte	PATT
	 .word	AweOfShe_14_066
@ 111   ----------------------------------------
	.byte	PATT
	 .word	AweOfShe_14_069
@ 112   ----------------------------------------
	.byte	PATT
	 .word	AweOfShe_14_066
@ 113   ----------------------------------------
	.byte	PATT
	 .word	AweOfShe_14_067
@ 114   ----------------------------------------
	.byte	PATT
	 .word	AweOfShe_14_066
@ 115   ----------------------------------------
	.byte	PATT
	 .word	AweOfShe_14_073
@ 116   ----------------------------------------
	.byte	W96
@ 117   ----------------------------------------
	.byte	W96
@ 118   ----------------------------------------
	.byte	W96
@ 119   ----------------------------------------
	.byte	W96
@ 120   ----------------------------------------
	.byte	W96
@ 121   ----------------------------------------
	.byte	W96
@ 122   ----------------------------------------
	.byte	W96
@ 123   ----------------------------------------
	.byte	PATT
	 .word	AweOfShe_14_039
@ 124   ----------------------------------------
	.byte	PATT
	 .word	AweOfShe_14_040
@ 125   ----------------------------------------
	.byte	PATT
	 .word	AweOfShe_14_041
@ 126   ----------------------------------------
	.byte	PATT
	 .word	AweOfShe_14_042
@ 127   ----------------------------------------
	.byte	PATT
	 .word	AweOfShe_14_043
@ 128   ----------------------------------------
	.byte	PATT
	 .word	AweOfShe_14_044
@ 129   ----------------------------------------
	.byte	PATT
	 .word	AweOfShe_14_045
@ 130   ----------------------------------------
	.byte	PATT
	 .word	AweOfShe_14_046
@ 131   ----------------------------------------
	.byte	PATT
	 .word	AweOfShe_14_039
@ 132   ----------------------------------------
	.byte	PATT
	 .word	AweOfShe_14_040
@ 133   ----------------------------------------
	.byte	PATT
	 .word	AweOfShe_14_041
@ 134   ----------------------------------------
	.byte	PATT
	 .word	AweOfShe_14_042
@ 135   ----------------------------------------
	.byte	PATT
	 .word	AweOfShe_14_043
@ 136   ----------------------------------------
	.byte	PATT
	 .word	AweOfShe_14_044
@ 137   ----------------------------------------
	.byte	PATT
	 .word	AweOfShe_14_045
@ 138   ----------------------------------------
	.byte	PATT
	 .word	AweOfShe_14_054
@ 139   ----------------------------------------
	.byte		N06   , As4 , v127
	.byte	W06
	.byte		        An4 
	.byte	W06
	.byte		        Gn4 
	.byte	W06
	.byte		        Fs4 
	.byte	W06
	.byte	FINE

@**************** Track 15 (Midi-Chn.9) ****************@

AweOfShe_15:
	.byte	KEYSH , AweOfShe_key+0
@ 000   ----------------------------------------
	.byte		VOICE , 93
	.byte	W12
	.byte		VOL   , 100*AweOfShe_mvl/mxv
	.byte	W03
	.byte		PAN   , c_v+0
	.byte	W03
	.byte	W06
	.byte		        c_v+0
	.byte	W72
@ 001   ----------------------------------------
	.byte	W96
@ 002   ----------------------------------------
	.byte	W96
@ 003   ----------------------------------------
	.byte	W96
@ 004   ----------------------------------------
	.byte	W96
@ 005   ----------------------------------------
	.byte	W96
@ 006   ----------------------------------------
	.byte	W96
@ 007   ----------------------------------------
	.byte	W96
@ 008   ----------------------------------------
	.byte	W96
@ 009   ----------------------------------------
	.byte	W96
@ 010   ----------------------------------------
	.byte	W96
@ 011   ----------------------------------------
	.byte	W96
@ 012   ----------------------------------------
	.byte	W96
@ 013   ----------------------------------------
	.byte	W96
@ 014   ----------------------------------------
	.byte	W96
@ 015   ----------------------------------------
	.byte	W96
@ 016   ----------------------------------------
	.byte	W96
@ 017   ----------------------------------------
	.byte	W96
@ 018   ----------------------------------------
	.byte	W96
@ 019   ----------------------------------------
	.byte	W96
@ 020   ----------------------------------------
	.byte	W96
@ 021   ----------------------------------------
	.byte	W96
@ 022   ----------------------------------------
	.byte	W96
@ 023   ----------------------------------------
	.byte	W24
	.byte		N09   , Fn4 , v096
	.byte	W12
	.byte		N09   
	.byte	W12
	.byte		        Gn4 
	.byte	W12
	.byte		N09   
	.byte	W12
	.byte		        En4 
	.byte	W12
	.byte		N09   
	.byte	W12
@ 024   ----------------------------------------
AweOfShe_15_024:
	.byte		N09   , Fn4 , v096
	.byte	W12
	.byte		N09   
	.byte	W12
	.byte		        Dn4 
	.byte	W12
	.byte		N09   
	.byte	W12
	.byte		        En4 
	.byte	W12
	.byte		N09   
	.byte	W12
	.byte		        Cs4 
	.byte	W12
	.byte		        Dn4 
	.byte	W12
	.byte	PEND
@ 025   ----------------------------------------
AweOfShe_15_025:
	.byte		N09   , En4 , v096
	.byte	W12
	.byte		        Fn4 
	.byte	W12
	.byte		N09   
	.byte	W12
	.byte		N09   
	.byte	W12
	.byte		        Gn4 
	.byte	W12
	.byte		N09   
	.byte	W12
	.byte		        En4 
	.byte	W12
	.byte		N09   
	.byte	W12
	.byte	PEND
@ 026   ----------------------------------------
	.byte	PATT
	 .word	AweOfShe_15_024
@ 027   ----------------------------------------
	.byte		N09   , As4 , v096
	.byte	W12
	.byte		        An4 
	.byte	W12
	.byte		        Fn4 
	.byte	W12
	.byte		N09   
	.byte	W12
	.byte		        Gn4 
	.byte	W12
	.byte		N09   
	.byte	W12
	.byte		        En4 
	.byte	W12
	.byte		N09   
	.byte	W12
@ 028   ----------------------------------------
	.byte	PATT
	 .word	AweOfShe_15_024
@ 029   ----------------------------------------
	.byte	PATT
	 .word	AweOfShe_15_025
@ 030   ----------------------------------------
	.byte	PATT
	 .word	AweOfShe_15_024
@ 031   ----------------------------------------
	.byte		N09   , As4 , v096
	.byte	W12
	.byte		        An4 
	.byte	W84
@ 032   ----------------------------------------
	.byte	W96
@ 033   ----------------------------------------
	.byte	W96
@ 034   ----------------------------------------
	.byte	W96
@ 035   ----------------------------------------
	.byte	W96
@ 036   ----------------------------------------
	.byte	W96
@ 037   ----------------------------------------
	.byte	W96
@ 038   ----------------------------------------
	.byte	W96
@ 039   ----------------------------------------
AweOfShe_15_039:
	.byte	W24
	.byte		N06   , As3 , v127
	.byte	W06
	.byte		        Fn4 
	.byte	W06
	.byte		        En4 
	.byte	W06
	.byte		        Fn4 
	.byte	W06
	.byte		        As3 
	.byte	W06
	.byte		        Fn4 
	.byte	W06
	.byte		        En4 
	.byte	W06
	.byte		        Fn4 
	.byte	W06
	.byte		        As3 
	.byte	W06
	.byte		        Fn4 
	.byte	W06
	.byte		        En4 
	.byte	W06
	.byte		        Fn4 
	.byte	W06
	.byte	PEND
@ 040   ----------------------------------------
AweOfShe_15_040:
	.byte		N06   , As3 , v127
	.byte	W06
	.byte		        Fn4 
	.byte	W06
	.byte		        En4 
	.byte	W06
	.byte		        Fn4 
	.byte	W06
	.byte		        An3 
	.byte	W06
	.byte		        En4 
	.byte	W06
	.byte		        Dn4 
	.byte	W06
	.byte		        En4 
	.byte	W06
	.byte		        An3 
	.byte	W06
	.byte		        En4 
	.byte	W06
	.byte		        Dn4 
	.byte	W06
	.byte		        En4 
	.byte	W06
	.byte		        An3 
	.byte	W06
	.byte		        En4 
	.byte	W06
	.byte		        Dn4 
	.byte	W06
	.byte		        En4 
	.byte	W06
	.byte	PEND
@ 041   ----------------------------------------
AweOfShe_15_041:
	.byte		N06   , An3 , v127
	.byte	W06
	.byte		        En4 
	.byte	W06
	.byte		        Dn4 
	.byte	W06
	.byte		        En4 
	.byte	W06
	.byte		        An3 
	.byte	W06
	.byte		        En4 
	.byte	W06
	.byte		        Dn4 
	.byte	W06
	.byte		        En4 
	.byte	W06
	.byte		        An3 
	.byte	W06
	.byte		        En4 
	.byte	W06
	.byte		        Dn4 
	.byte	W06
	.byte		        En4 
	.byte	W06
	.byte		        An3 
	.byte	W06
	.byte		        En4 
	.byte	W06
	.byte		        Dn4 
	.byte	W06
	.byte		        En4 
	.byte	W06
	.byte	PEND
@ 042   ----------------------------------------
AweOfShe_15_042:
	.byte		N06   , An3 , v127
	.byte	W06
	.byte		        En4 
	.byte	W06
	.byte		        Dn4 
	.byte	W06
	.byte		        En4 
	.byte	W06
	.byte		        Fn3 
	.byte	W06
	.byte		        Dn4 
	.byte	W06
	.byte		        Cn4 
	.byte	W06
	.byte		        Dn4 
	.byte	W06
	.byte		        Fn3 
	.byte	W06
	.byte		        Dn4 
	.byte	W06
	.byte		        Cn4 
	.byte	W06
	.byte		        Dn4 
	.byte	W06
	.byte		        Fn3 
	.byte	W06
	.byte		        Dn4 
	.byte	W06
	.byte		        Cn4 
	.byte	W06
	.byte		        Dn4 
	.byte	W06
	.byte	PEND
@ 043   ----------------------------------------
AweOfShe_15_043:
	.byte		N06   , Fn3 , v127
	.byte	W06
	.byte		        Dn4 
	.byte	W06
	.byte		        Cn4 
	.byte	W06
	.byte		        Dn4 
	.byte	W06
	.byte		        En3 
	.byte	W06
	.byte		        Dn4 
	.byte	W06
	.byte		        Cn4 
	.byte	W06
	.byte		        Dn4 
	.byte	W06
	.byte		        En3 
	.byte	W06
	.byte		        Dn4 
	.byte	W06
	.byte		        Cn4 
	.byte	W06
	.byte		        Dn4 
	.byte	W06
	.byte		        En3 
	.byte	W06
	.byte		        Dn4 
	.byte	W06
	.byte		        Cn4 
	.byte	W06
	.byte		        Dn4 
	.byte	W06
	.byte	PEND
@ 044   ----------------------------------------
AweOfShe_15_044:
	.byte		N06   , En3 , v127
	.byte	W06
	.byte		        Dn4 
	.byte	W06
	.byte		        Cn4 
	.byte	W06
	.byte		        Dn4 
	.byte	W06
	.byte		N06   
	.byte	W06
	.byte		        Cs4 
	.byte	W06
	.byte		        Bn3 
	.byte	W06
	.byte		        Cs4 
	.byte	W06
	.byte		        Dn4 
	.byte	W06
	.byte		        Cs4 
	.byte	W06
	.byte		        Bn3 
	.byte	W06
	.byte		        Cs4 
	.byte	W06
	.byte		        Dn4 
	.byte	W06
	.byte		        Cs4 
	.byte	W06
	.byte		        Bn3 
	.byte	W06
	.byte		        Cs4 
	.byte	W06
	.byte	PEND
@ 045   ----------------------------------------
AweOfShe_15_045:
	.byte		N06   , Dn4 , v127
	.byte	W06
	.byte		        Cs4 
	.byte	W06
	.byte		        Bn3 
	.byte	W06
	.byte		        Cs4 
	.byte	W06
	.byte		        Gn3 
	.byte	W06
	.byte		        Dn4 
	.byte	W06
	.byte		        Cs4 
	.byte	W06
	.byte		        Dn4 
	.byte	W06
	.byte		        Gn3 
	.byte	W06
	.byte		        Dn4 
	.byte	W06
	.byte		        Cs4 
	.byte	W06
	.byte		        Dn4 
	.byte	W06
	.byte		        An3 
	.byte	W06
	.byte		        En4 
	.byte	W06
	.byte		        Dn4 
	.byte	W06
	.byte		        En4 
	.byte	W06
	.byte	PEND
@ 046   ----------------------------------------
AweOfShe_15_046:
	.byte		N06   , An3 , v127
	.byte	W06
	.byte		        En4 
	.byte	W06
	.byte		        Dn4 
	.byte	W06
	.byte		        En4 
	.byte	W06
	.byte		        Gn4 
	.byte	W06
	.byte		        Fn4 
	.byte	W06
	.byte		        En4 
	.byte	W06
	.byte		        Dn4 
	.byte	W06
	.byte		        Cs4 
	.byte	W06
	.byte		        Dn4 
	.byte	W06
	.byte		        En4 
	.byte	W06
	.byte		        Fn4 
	.byte	W06
	.byte		        Gn4 
	.byte	W06
	.byte		        Fn4 
	.byte	W06
	.byte		        As4 
	.byte	W06
	.byte		N30   , An4 
	.byte	W06
	.byte	PEND
@ 047   ----------------------------------------
	.byte	PATT
	 .word	AweOfShe_15_039
@ 048   ----------------------------------------
	.byte	PATT
	 .word	AweOfShe_15_040
@ 049   ----------------------------------------
	.byte	PATT
	 .word	AweOfShe_15_041
@ 050   ----------------------------------------
	.byte	PATT
	 .word	AweOfShe_15_042
@ 051   ----------------------------------------
	.byte	PATT
	 .word	AweOfShe_15_043
@ 052   ----------------------------------------
	.byte	PATT
	 .word	AweOfShe_15_044
@ 053   ----------------------------------------
	.byte	PATT
	 .word	AweOfShe_15_045
@ 054   ----------------------------------------
AweOfShe_15_054:
	.byte		N06   , An3 , v127
	.byte	W06
	.byte		        En4 
	.byte	W06
	.byte		        Dn4 
	.byte	W06
	.byte		        En4 
	.byte	W06
	.byte		        Gn4 
	.byte	W06
	.byte		        Fn4 
	.byte	W06
	.byte		        En4 
	.byte	W06
	.byte		        Dn4 
	.byte	W06
	.byte		        Cs4 
	.byte	W06
	.byte		        Dn4 
	.byte	W06
	.byte		        En4 
	.byte	W06
	.byte		        Fn4 
	.byte	W06
	.byte		        Fs4 
	.byte	W06
	.byte		        Dn4 
	.byte	W06
	.byte		        Fs4 
	.byte	W06
	.byte		        An4 
	.byte	W06
	.byte	PEND
@ 055   ----------------------------------------
AweOfShe_15_055:
	.byte		N06   , As4 , v127
	.byte	W06
	.byte		        An4 
	.byte	W06
	.byte		        Gn4 
	.byte	W06
	.byte		        Fs4 
	.byte	W78
	.byte	PEND
@ 056   ----------------------------------------
	.byte	W96
@ 057   ----------------------------------------
	.byte	W96
@ 058   ----------------------------------------
	.byte	W96
@ 059   ----------------------------------------
	.byte	W96
@ 060   ----------------------------------------
	.byte	W96
@ 061   ----------------------------------------
	.byte	W96
@ 062   ----------------------------------------
	.byte	W96
@ 063   ----------------------------------------
	.byte	W96
@ 064   ----------------------------------------
	.byte	W96
@ 065   ----------------------------------------
AweOfShe_15_065:
	.byte	W24
	.byte		N12   , Fn4 , v127
	.byte	W12
	.byte		N12   
	.byte	W12
	.byte		        Gn4 
	.byte	W12
	.byte		N12   
	.byte	W12
	.byte		        En4 
	.byte	W12
	.byte		N12   
	.byte	W12
	.byte	PEND
@ 066   ----------------------------------------
AweOfShe_15_066:
	.byte		N12   , Fn4 , v127
	.byte	W12
	.byte		N12   
	.byte	W12
	.byte		        Dn4 
	.byte	W12
	.byte		N12   
	.byte	W12
	.byte		        En4 
	.byte	W12
	.byte		N12   
	.byte	W12
	.byte		        Cs4 
	.byte	W12
	.byte		        Dn4 
	.byte	W12
	.byte	PEND
@ 067   ----------------------------------------
AweOfShe_15_067:
	.byte		N12   , En4 , v127
	.byte	W12
	.byte		        Fn4 
	.byte	W12
	.byte		N12   
	.byte	W12
	.byte		N12   
	.byte	W12
	.byte		        Gn4 
	.byte	W12
	.byte		N12   
	.byte	W12
	.byte		        En4 
	.byte	W12
	.byte		N12   
	.byte	W12
	.byte	PEND
@ 068   ----------------------------------------
	.byte	PATT
	 .word	AweOfShe_15_066
@ 069   ----------------------------------------
AweOfShe_15_069:
	.byte		N12   , As4 , v127
	.byte	W12
	.byte		        An4 
	.byte	W12
	.byte		        Fn4 
	.byte	W12
	.byte		N12   
	.byte	W12
	.byte		        Gn4 
	.byte	W12
	.byte		N12   
	.byte	W12
	.byte		        En4 
	.byte	W12
	.byte		N12   
	.byte	W12
	.byte	PEND
@ 070   ----------------------------------------
	.byte	PATT
	 .word	AweOfShe_15_066
@ 071   ----------------------------------------
	.byte	PATT
	 .word	AweOfShe_15_067
@ 072   ----------------------------------------
	.byte	PATT
	 .word	AweOfShe_15_066
@ 073   ----------------------------------------
AweOfShe_15_073:
	.byte		N12   , As4 , v127
	.byte	W12
	.byte		        An4 
	.byte	W84
	.byte	PEND
@ 074   ----------------------------------------
	.byte	W96
@ 075   ----------------------------------------
	.byte	W96
@ 076   ----------------------------------------
	.byte	W96
@ 077   ----------------------------------------
	.byte	W96
@ 078   ----------------------------------------
	.byte	W96
@ 079   ----------------------------------------
	.byte	W96
@ 080   ----------------------------------------
	.byte	W96
@ 081   ----------------------------------------
	.byte	PATT
	 .word	AweOfShe_15_039
@ 082   ----------------------------------------
	.byte	PATT
	 .word	AweOfShe_15_040
@ 083   ----------------------------------------
	.byte	PATT
	 .word	AweOfShe_15_041
@ 084   ----------------------------------------
	.byte	PATT
	 .word	AweOfShe_15_042
@ 085   ----------------------------------------
	.byte	PATT
	 .word	AweOfShe_15_043
@ 086   ----------------------------------------
	.byte	PATT
	 .word	AweOfShe_15_044
@ 087   ----------------------------------------
	.byte	PATT
	 .word	AweOfShe_15_045
@ 088   ----------------------------------------
	.byte	PATT
	 .word	AweOfShe_15_046
@ 089   ----------------------------------------
	.byte	PATT
	 .word	AweOfShe_15_039
@ 090   ----------------------------------------
	.byte	PATT
	 .word	AweOfShe_15_040
@ 091   ----------------------------------------
	.byte	PATT
	 .word	AweOfShe_15_041
@ 092   ----------------------------------------
	.byte	PATT
	 .word	AweOfShe_15_042
@ 093   ----------------------------------------
	.byte	PATT
	 .word	AweOfShe_15_043
@ 094   ----------------------------------------
	.byte	PATT
	 .word	AweOfShe_15_044
@ 095   ----------------------------------------
	.byte	PATT
	 .word	AweOfShe_15_045
@ 096   ----------------------------------------
	.byte	PATT
	 .word	AweOfShe_15_054
@ 097   ----------------------------------------
	.byte	PATT
	 .word	AweOfShe_15_055
@ 098   ----------------------------------------
	.byte	W96
@ 099   ----------------------------------------
	.byte	W96
@ 100   ----------------------------------------
	.byte	W96
@ 101   ----------------------------------------
	.byte	W96
@ 102   ----------------------------------------
	.byte	W96
@ 103   ----------------------------------------
	.byte	W96
@ 104   ----------------------------------------
	.byte	W96
@ 105   ----------------------------------------
	.byte	W96
@ 106   ----------------------------------------
	.byte	W96
@ 107   ----------------------------------------
	.byte	PATT
	 .word	AweOfShe_15_065
@ 108   ----------------------------------------
	.byte	PATT
	 .word	AweOfShe_15_066
@ 109   ----------------------------------------
	.byte	PATT
	 .word	AweOfShe_15_067
@ 110   ----------------------------------------
	.byte	PATT
	 .word	AweOfShe_15_066
@ 111   ----------------------------------------
	.byte	PATT
	 .word	AweOfShe_15_069
@ 112   ----------------------------------------
	.byte	PATT
	 .word	AweOfShe_15_066
@ 113   ----------------------------------------
	.byte	PATT
	 .word	AweOfShe_15_067
@ 114   ----------------------------------------
	.byte	PATT
	 .word	AweOfShe_15_066
@ 115   ----------------------------------------
	.byte	PATT
	 .word	AweOfShe_15_073
@ 116   ----------------------------------------
	.byte	W96
@ 117   ----------------------------------------
	.byte	W96
@ 118   ----------------------------------------
	.byte	W96
@ 119   ----------------------------------------
	.byte	W96
@ 120   ----------------------------------------
	.byte	W96
@ 121   ----------------------------------------
	.byte	W96
@ 122   ----------------------------------------
	.byte	W96
@ 123   ----------------------------------------
	.byte	PATT
	 .word	AweOfShe_15_039
@ 124   ----------------------------------------
	.byte	PATT
	 .word	AweOfShe_15_040
@ 125   ----------------------------------------
	.byte	PATT
	 .word	AweOfShe_15_041
@ 126   ----------------------------------------
	.byte	PATT
	 .word	AweOfShe_15_042
@ 127   ----------------------------------------
	.byte	PATT
	 .word	AweOfShe_15_043
@ 128   ----------------------------------------
	.byte	PATT
	 .word	AweOfShe_15_044
@ 129   ----------------------------------------
	.byte	PATT
	 .word	AweOfShe_15_045
@ 130   ----------------------------------------
	.byte	PATT
	 .word	AweOfShe_15_046
@ 131   ----------------------------------------
	.byte	PATT
	 .word	AweOfShe_15_039
@ 132   ----------------------------------------
	.byte	PATT
	 .word	AweOfShe_15_040
@ 133   ----------------------------------------
	.byte	PATT
	 .word	AweOfShe_15_041
@ 134   ----------------------------------------
	.byte	PATT
	 .word	AweOfShe_15_042
@ 135   ----------------------------------------
	.byte	PATT
	 .word	AweOfShe_15_043
@ 136   ----------------------------------------
	.byte	PATT
	 .word	AweOfShe_15_044
@ 137   ----------------------------------------
	.byte	PATT
	 .word	AweOfShe_15_045
@ 138   ----------------------------------------
	.byte	PATT
	 .word	AweOfShe_15_054
@ 139   ----------------------------------------
	.byte		N06   , As4 , v127
	.byte	W06
	.byte		        An4 
	.byte	W06
	.byte		        Gn4 
	.byte	W06
	.byte		        Fs4 
	.byte	W06
	.byte	FINE

@**************** Track 16 (Midi-Chn.11) ****************@

AweOfShe_16:
	.byte	KEYSH , AweOfShe_key+0
@ 000   ----------------------------------------
	.byte		VOICE , 14
	.byte		VOL   , 127*AweOfShe_mvl/mxv
	.byte	W15
	.byte		PAN   , c_v+0
	.byte	W03
	.byte	W06
	.byte		        c_v+0
	.byte	W72
@ 001   ----------------------------------------
	.byte	W96
@ 002   ----------------------------------------
	.byte	W96
@ 003   ----------------------------------------
	.byte	W96
@ 004   ----------------------------------------
	.byte	W96
@ 005   ----------------------------------------
	.byte	W96
@ 006   ----------------------------------------
	.byte	W96
@ 007   ----------------------------------------
	.byte	W96
@ 008   ----------------------------------------
	.byte	W96
@ 009   ----------------------------------------
	.byte	W96
@ 010   ----------------------------------------
	.byte	W96
@ 011   ----------------------------------------
	.byte	W96
@ 012   ----------------------------------------
	.byte	W96
@ 013   ----------------------------------------
	.byte	W96
@ 014   ----------------------------------------
	.byte	W96
@ 015   ----------------------------------------
	.byte	W96
@ 016   ----------------------------------------
	.byte	W96
@ 017   ----------------------------------------
	.byte	W96
@ 018   ----------------------------------------
	.byte	W96
@ 019   ----------------------------------------
	.byte	W96
@ 020   ----------------------------------------
	.byte	W96
@ 021   ----------------------------------------
	.byte	W96
@ 022   ----------------------------------------
	.byte	W96
@ 023   ----------------------------------------
	.byte	W96
@ 024   ----------------------------------------
	.byte	W96
@ 025   ----------------------------------------
	.byte	W96
@ 026   ----------------------------------------
	.byte	W96
@ 027   ----------------------------------------
	.byte	W96
@ 028   ----------------------------------------
	.byte	W96
@ 029   ----------------------------------------
	.byte	W96
@ 030   ----------------------------------------
	.byte	W96
@ 031   ----------------------------------------
	.byte	W96
@ 032   ----------------------------------------
	.byte	W96
@ 033   ----------------------------------------
	.byte	W96
@ 034   ----------------------------------------
	.byte	W96
@ 035   ----------------------------------------
	.byte	W96
@ 036   ----------------------------------------
	.byte	W96
@ 037   ----------------------------------------
	.byte	W96
@ 038   ----------------------------------------
	.byte	W96
@ 039   ----------------------------------------
	.byte	W96
@ 040   ----------------------------------------
	.byte	W96
@ 041   ----------------------------------------
	.byte	W96
@ 042   ----------------------------------------
	.byte	W96
@ 043   ----------------------------------------
	.byte	W96
@ 044   ----------------------------------------
	.byte	W96
@ 045   ----------------------------------------
AweOfShe_16_045:
	.byte	W24
	.byte		N48   , Dn1 , v127
	.byte		N48   , An1 
	.byte		N48   , Dn2 
	.byte	W48
	.byte		        En1 
	.byte		N48   , An1 
	.byte		N48   , En2 
	.byte	W24
	.byte	PEND
@ 046   ----------------------------------------
AweOfShe_16_046:
	.byte	W24
	.byte		N48   , Fn1 , v127
	.byte		N48   , An1 
	.byte		N48   , Fn2 
	.byte	W48
	.byte		        Dn1 
	.byte		N48   , An1 
	.byte		N48   , Dn2 
	.byte	W24
	.byte	PEND
@ 047   ----------------------------------------
	.byte	W96
@ 048   ----------------------------------------
	.byte	W96
@ 049   ----------------------------------------
	.byte	W96
@ 050   ----------------------------------------
	.byte	W96
@ 051   ----------------------------------------
	.byte	W96
@ 052   ----------------------------------------
	.byte	W96
@ 053   ----------------------------------------
	.byte	PATT
	 .word	AweOfShe_16_045
@ 054   ----------------------------------------
AweOfShe_16_054:
	.byte	W24
	.byte		N48   , Fn1 , v127
	.byte		N48   , An1 
	.byte		N48   , Fn2 
	.byte	W48
	.byte		        Fs1 
	.byte		N48   , As1 
	.byte		N48   , Fs2 
	.byte	W24
	.byte	PEND
@ 055   ----------------------------------------
	.byte	W96
@ 056   ----------------------------------------
	.byte	W96
@ 057   ----------------------------------------
	.byte	W96
@ 058   ----------------------------------------
	.byte	W96
@ 059   ----------------------------------------
	.byte	W96
@ 060   ----------------------------------------
	.byte	W96
@ 061   ----------------------------------------
	.byte	W96
@ 062   ----------------------------------------
	.byte	W96
@ 063   ----------------------------------------
	.byte	W96
@ 064   ----------------------------------------
	.byte	W96
@ 065   ----------------------------------------
	.byte	W96
@ 066   ----------------------------------------
	.byte	W96
@ 067   ----------------------------------------
	.byte	W96
@ 068   ----------------------------------------
	.byte	W96
@ 069   ----------------------------------------
	.byte	W96
@ 070   ----------------------------------------
	.byte	W96
@ 071   ----------------------------------------
	.byte	W96
@ 072   ----------------------------------------
	.byte	W96
@ 073   ----------------------------------------
	.byte	W96
@ 074   ----------------------------------------
	.byte	W96
@ 075   ----------------------------------------
	.byte	W96
@ 076   ----------------------------------------
	.byte	W96
@ 077   ----------------------------------------
	.byte	W96
@ 078   ----------------------------------------
	.byte	W96
@ 079   ----------------------------------------
	.byte	W96
@ 080   ----------------------------------------
	.byte	W96
@ 081   ----------------------------------------
	.byte	W96
@ 082   ----------------------------------------
	.byte	W96
@ 083   ----------------------------------------
	.byte	W96
@ 084   ----------------------------------------
	.byte	W96
@ 085   ----------------------------------------
	.byte	W96
@ 086   ----------------------------------------
	.byte	W96
@ 087   ----------------------------------------
	.byte	PATT
	 .word	AweOfShe_16_045
@ 088   ----------------------------------------
	.byte	PATT
	 .word	AweOfShe_16_046
@ 089   ----------------------------------------
	.byte	W96
@ 090   ----------------------------------------
	.byte	W96
@ 091   ----------------------------------------
	.byte	W96
@ 092   ----------------------------------------
	.byte	W96
@ 093   ----------------------------------------
	.byte	W96
@ 094   ----------------------------------------
	.byte	W96
@ 095   ----------------------------------------
	.byte	PATT
	 .word	AweOfShe_16_045
@ 096   ----------------------------------------
	.byte	PATT
	 .word	AweOfShe_16_054
@ 097   ----------------------------------------
	.byte	W96
@ 098   ----------------------------------------
	.byte	W96
@ 099   ----------------------------------------
	.byte	W96
@ 100   ----------------------------------------
	.byte	W96
@ 101   ----------------------------------------
	.byte	W96
@ 102   ----------------------------------------
	.byte	W96
@ 103   ----------------------------------------
	.byte	W96
@ 104   ----------------------------------------
	.byte	W96
@ 105   ----------------------------------------
	.byte	W96
@ 106   ----------------------------------------
	.byte	W96
@ 107   ----------------------------------------
	.byte	W96
@ 108   ----------------------------------------
	.byte	W96
@ 109   ----------------------------------------
	.byte	W96
@ 110   ----------------------------------------
	.byte	W96
@ 111   ----------------------------------------
	.byte	W96
@ 112   ----------------------------------------
	.byte	W96
@ 113   ----------------------------------------
	.byte	W96
@ 114   ----------------------------------------
	.byte	W96
@ 115   ----------------------------------------
	.byte	W96
@ 116   ----------------------------------------
	.byte	W96
@ 117   ----------------------------------------
	.byte	W96
@ 118   ----------------------------------------
	.byte	W96
@ 119   ----------------------------------------
	.byte	W96
@ 120   ----------------------------------------
	.byte	W96
@ 121   ----------------------------------------
	.byte	W96
@ 122   ----------------------------------------
	.byte	W96
@ 123   ----------------------------------------
	.byte	W96
@ 124   ----------------------------------------
	.byte	W96
@ 125   ----------------------------------------
	.byte	W96
@ 126   ----------------------------------------
	.byte	W96
@ 127   ----------------------------------------
	.byte	W96
@ 128   ----------------------------------------
	.byte	W96
@ 129   ----------------------------------------
	.byte	PATT
	 .word	AweOfShe_16_045
@ 130   ----------------------------------------
	.byte	PATT
	 .word	AweOfShe_16_046
@ 131   ----------------------------------------
	.byte	W96
@ 132   ----------------------------------------
	.byte	W96
@ 133   ----------------------------------------
	.byte	W96
@ 134   ----------------------------------------
	.byte	W96
@ 135   ----------------------------------------
	.byte	W96
@ 136   ----------------------------------------
	.byte	W96
@ 137   ----------------------------------------
	.byte	PATT
	 .word	AweOfShe_16_045
@ 138   ----------------------------------------
	.byte	PATT
	 .word	AweOfShe_16_054
@ 139   ----------------------------------------
	.byte	W24
	.byte	FINE

@******************************************************@
	.align	2

AweOfShe:
	.byte	16	@ NumTrks
	.byte	0	@ NumBlks
	.byte	AweOfShe_pri	@ Priority
	.byte	AweOfShe_rev	@ Reverb.

	.word	AweOfShe_grp

	.word	AweOfShe_1
	.word	AweOfShe_2
	.word	AweOfShe_3
	.word	AweOfShe_4
	.word	AweOfShe_5
	.word	AweOfShe_6
	.word	AweOfShe_7
	.word	AweOfShe_8
	.word	AweOfShe_9
	.word	AweOfShe_10
	.word	AweOfShe_11
	.word	AweOfShe_12
	.word	AweOfShe_13
	.word	AweOfShe_14
	.word	AweOfShe_15
	.word	AweOfShe_16

	.end
