//Event file generated from Sappy .s format.
	#include "MPlayDef.event"

	#define	AweOfShe_grp  voicegroup000
	#define	AweOfShe_pri  0
	#define	AweOfShe_rev  0
	#define	AweOfShe_mvl  127
	#define	AweOfShe_key  0
	#define	AweOfShe_tbs  1
	#define	AweOfShe_exg  0
	#define	AweOfShe_cmp  1

	// .rodata
	//	AweOfShe
	ALIGN 4

//**************** Track 1 (Midi-Chn.2) ****************//

AweOfShe_1:
	BYTE	KEYSH   AweOfShe_key+0
// 000   ----------------------------------------
	BYTE	TEMPO   120*AweOfShe_tbs/2
	BYTE		VOICE   52
	BYTE	W12
	BYTE		VOL     85*AweOfShe_mvl/mxv
	BYTE	W03
	BYTE		PAN     c_v+0
	BYTE	W03
	BYTE	W78
// 001   ----------------------------------------
	BYTE	W24
	BYTE		        c_v+0
	BYTE	W72
// 002   ----------------------------------------
	BYTE	W24
	BYTE		N12     Dn3   v127
	BYTE	W12
	BYTE		        An3 
	BYTE	W12
	BYTE		N72   
	BYTE	W48
// 003   ----------------------------------------
	BYTE	W24
	BYTE		N24     Cn4 
	BYTE	W24
	BYTE		N12     Bn3 
	BYTE	W12
	BYTE		        Dn4 
	BYTE	W12
	BYTE		TIE   
	BYTE	W24
// 004   ----------------------------------------
	BYTE	W96
// 005   ----------------------------------------
	BYTE	W96
// 006   ----------------------------------------
	BYTE	W96
// 007   ----------------------------------------
	BYTE	W24
	BYTE		EOT   
	BYTE		N96     Fn4 
	BYTE	W72
// 008   ----------------------------------------
	BYTE	W24
	BYTE		N48     Dn3 
	BYTE		N48     As3 
	BYTE	W48
	BYTE		        Cs3 
	BYTE		N48     An3 
	BYTE	W24
// 009   ----------------------------------------
	BYTE	W24
	BYTE		        En3 
	BYTE		N48     Gn3 
	BYTE	W48
	BYTE		TIE     Fn3 
	BYTE		N48     As3 
	BYTE	W24
// 010   ----------------------------------------
	BYTE	W24
	BYTE		N96     An3 
	BYTE	W72
// 011   ----------------------------------------
	BYTE	W24
	BYTE		EOT     Fn3 
	BYTE		TIE     Dn3 
	BYTE		TIE     Fn3 
	BYTE		TIE     An3 
	BYTE	W72
// 012   ----------------------------------------
	BYTE	W96
// 013   ----------------------------------------
	BYTE	W23
	BYTE	W01
	BYTE	W72
// 014   ----------------------------------------
	BYTE	W02
	BYTE	W02
	BYTE	W03
	BYTE	W02
	BYTE	W03
	BYTE	W02
	BYTE	W02
	BYTE	W03
	BYTE	W02
	BYTE	W03
	BYTE	W02
	BYTE	W02
	BYTE	W03
	BYTE	W02
	BYTE	W03
	BYTE	W02
	BYTE	W02
	BYTE	W03
	BYTE	W02
	BYTE	W03
	BYTE	W02
	BYTE	W02
	BYTE	W03
	BYTE	W02
	BYTE	W03
	BYTE	W02
	BYTE	W02
	BYTE	W03
	BYTE	W02
	BYTE	W03
	BYTE	W02
	BYTE	W02
	BYTE	W03
	BYTE	W02
	BYTE	W03
	BYTE	W02
	BYTE	W02
	BYTE	W03
	BYTE	W02
	BYTE	W03
// 015   ----------------------------------------
	BYTE	W02
	BYTE	W02
	BYTE	W03
	BYTE	W02
	BYTE	W03
	BYTE	W02
	BYTE	W02
	BYTE	W03
	BYTE	W02
	BYTE	W02
	BYTE	W01
	BYTE		EOT     Dn3 
	BYTE		        Fn3 
	BYTE		        An3 
	BYTE	W01
	BYTE	W68
	BYTE	W03
// 016   ----------------------------------------
	BYTE	W96
// 017   ----------------------------------------
	BYTE	W96
// 018   ----------------------------------------
	BYTE	W96
// 019   ----------------------------------------
	BYTE	W96
// 020   ----------------------------------------
	BYTE	W96
// 021   ----------------------------------------
	BYTE	W96
// 022   ----------------------------------------
	BYTE	W96
// 023   ----------------------------------------
	BYTE	W96
// 024   ----------------------------------------
	BYTE	W96
// 025   ----------------------------------------
	BYTE	W96
// 026   ----------------------------------------
	BYTE	W96
// 027   ----------------------------------------
	BYTE	W96
// 028   ----------------------------------------
	BYTE	W96
// 029   ----------------------------------------
	BYTE	W96
// 030   ----------------------------------------
	BYTE	W96
// 031   ----------------------------------------
	BYTE	W96
// 032   ----------------------------------------
	BYTE	W96
// 033   ----------------------------------------
	BYTE	W96
// 034   ----------------------------------------
	BYTE	W96
// 035   ----------------------------------------
	BYTE	W96
// 036   ----------------------------------------
	BYTE	W96
// 037   ----------------------------------------
	BYTE	W96
// 038   ----------------------------------------
	BYTE	W96
// 039   ----------------------------------------
	BYTE	W96
// 040   ----------------------------------------
AweOfShe_1_040:
	BYTE	W72
	BYTE		N18     Cn5   v127
	BYTE	W18
	BYTE		        As4 
	BYTE	W06
	BYTE	PEND
// 041   ----------------------------------------
AweOfShe_1_041:
	BYTE	W12
	BYTE		N12     An4   v127
	BYTE	W12
	BYTE		N48   
	BYTE	W48
	BYTE		N24     As4 
	BYTE	W24
	BYTE	PEND
// 042   ----------------------------------------
AweOfShe_1_042:
	BYTE		N24     Cn5   v127
	BYTE	W24
	BYTE		N48     As4 
	BYTE	W48
	BYTE		        An4 
	BYTE	W24
	BYTE	PEND
// 043   ----------------------------------------
	BYTE	W24
	BYTE		N96     Gn4 
	BYTE	W72
// 044   ----------------------------------------
AweOfShe_1_044:
	BYTE	W24
	BYTE		N24     En4   v127
	BYTE	W24
	BYTE		        Fn4 
	BYTE	W24
	BYTE		        Gn4 
	BYTE	W24
	BYTE	PEND
// 045   ----------------------------------------
	BYTE		        An4 
	BYTE	W96
// 046   ----------------------------------------
	BYTE	W96
// 047   ----------------------------------------
	BYTE	W96
// 048   ----------------------------------------
	BYTE	PATT
	 POIN2	AweOfShe_1_040
// 049   ----------------------------------------
	BYTE	PATT
	 POIN2	AweOfShe_1_041
// 050   ----------------------------------------
	BYTE	PATT
	 POIN2	AweOfShe_1_042
// 051   ----------------------------------------
	BYTE	W24
	BYTE		N96     Gn4   v127
	BYTE	W72
// 052   ----------------------------------------
	BYTE	PATT
	 POIN2	AweOfShe_1_044
// 053   ----------------------------------------
	BYTE		N24     An4   v127
	BYTE	W96
// 054   ----------------------------------------
	BYTE	W96
// 055   ----------------------------------------
AweOfShe_1_055:
	BYTE	W24
	BYTE		N48     Fn4   v127
	BYTE	W48
	BYTE		        En4 
	BYTE	W24
	BYTE	PEND
// 056   ----------------------------------------
AweOfShe_1_056:
	BYTE	W24
	BYTE		N24     Cs4   v127
	BYTE	W24
	BYTE		        Dn4 
	BYTE	W24
	BYTE		        En4 
	BYTE	W24
	BYTE	PEND
// 057   ----------------------------------------
AweOfShe_1_057:
	BYTE		N24     Fn4   v127
	BYTE	W24
	BYTE		TIE     An4 
	BYTE	W72
	BYTE	PEND
// 058   ----------------------------------------
	BYTE	W96
// 059   ----------------------------------------
	BYTE	W24
	BYTE		EOT   
	BYTE		N96     Fs4 
	BYTE	W72
// 060   ----------------------------------------
AweOfShe_1_060:
	BYTE	W24
	BYTE		N48     Gn4   v127
	BYTE	W48
	BYTE		N24   
	BYTE	W24
	BYTE	PEND
// 061   ----------------------------------------
AweOfShe_1_061:
	BYTE		N24     Fn4   v127
	BYTE	W24
	BYTE		N48     Gn4 
	BYTE	W48
	BYTE		        An4 
	BYTE	W24
	BYTE	PEND
// 062   ----------------------------------------
AweOfShe_1_062:
	BYTE	W24
	BYTE		N24     Dn4   v127
	BYTE	W24
	BYTE		        En4 
	BYTE	W24
	BYTE		        Fn4 
	BYTE	W24
	BYTE	PEND
// 063   ----------------------------------------
AweOfShe_1_063:
	BYTE		N24     Gn4   v127
	BYTE	W24
	BYTE		N48     As2 
	BYTE		N48     As4 
	BYTE	W48
	BYTE		        Bn2 
	BYTE		N48     Bn4 
	BYTE	W24
	BYTE	PEND
// 064   ----------------------------------------
AweOfShe_1_064:
	BYTE	W24
	BYTE		N96     An2   v127
	BYTE		N96     An4 
	BYTE	W72
	BYTE	PEND
// 065   ----------------------------------------
	BYTE	W96
// 066   ----------------------------------------
	BYTE	W96
// 067   ----------------------------------------
	BYTE	W96
// 068   ----------------------------------------
	BYTE	W96
// 069   ----------------------------------------
	BYTE	W96
// 070   ----------------------------------------
	BYTE	W96
// 071   ----------------------------------------
	BYTE	W96
// 072   ----------------------------------------
	BYTE	W96
// 073   ----------------------------------------
	BYTE	W96
// 074   ----------------------------------------
	BYTE	W96
// 075   ----------------------------------------
	BYTE	W96
// 076   ----------------------------------------
	BYTE	W96
// 077   ----------------------------------------
	BYTE	W96
// 078   ----------------------------------------
	BYTE	W96
// 079   ----------------------------------------
	BYTE	W96
// 080   ----------------------------------------
	BYTE	W96
// 081   ----------------------------------------
	BYTE	W96
// 082   ----------------------------------------
	BYTE	PATT
	 POIN2	AweOfShe_1_040
// 083   ----------------------------------------
	BYTE	PATT
	 POIN2	AweOfShe_1_041
// 084   ----------------------------------------
	BYTE	PATT
	 POIN2	AweOfShe_1_042
// 085   ----------------------------------------
	BYTE	W24
	BYTE		N96     Gn4   v127
	BYTE	W72
// 086   ----------------------------------------
	BYTE	PATT
	 POIN2	AweOfShe_1_044
// 087   ----------------------------------------
	BYTE		N24     An4   v127
	BYTE	W96
// 088   ----------------------------------------
	BYTE	W96
// 089   ----------------------------------------
	BYTE	W96
// 090   ----------------------------------------
	BYTE	PATT
	 POIN2	AweOfShe_1_040
// 091   ----------------------------------------
	BYTE	PATT
	 POIN2	AweOfShe_1_041
// 092   ----------------------------------------
	BYTE	PATT
	 POIN2	AweOfShe_1_042
// 093   ----------------------------------------
	BYTE	W24
	BYTE		N96     Gn4   v127
	BYTE	W72
// 094   ----------------------------------------
	BYTE	PATT
	 POIN2	AweOfShe_1_044
// 095   ----------------------------------------
	BYTE		N24     An4   v127
	BYTE	W96
// 096   ----------------------------------------
	BYTE	W96
// 097   ----------------------------------------
	BYTE	PATT
	 POIN2	AweOfShe_1_055
// 098   ----------------------------------------
	BYTE	PATT
	 POIN2	AweOfShe_1_056
// 099   ----------------------------------------
	BYTE	PATT
	 POIN2	AweOfShe_1_057
// 100   ----------------------------------------
	BYTE	W96
// 101   ----------------------------------------
	BYTE	W24
	BYTE		EOT     An4 
	BYTE		N96     Fs4   v127
	BYTE	W72
// 102   ----------------------------------------
	BYTE	PATT
	 POIN2	AweOfShe_1_060
// 103   ----------------------------------------
	BYTE	PATT
	 POIN2	AweOfShe_1_061
// 104   ----------------------------------------
	BYTE	PATT
	 POIN2	AweOfShe_1_062
// 105   ----------------------------------------
	BYTE	PATT
	 POIN2	AweOfShe_1_063
// 106   ----------------------------------------
	BYTE	PATT
	 POIN2	AweOfShe_1_064
// 107   ----------------------------------------
	BYTE	W96
// 108   ----------------------------------------
	BYTE	W96
// 109   ----------------------------------------
	BYTE	W96
// 110   ----------------------------------------
	BYTE	W96
// 111   ----------------------------------------
	BYTE	W96
// 112   ----------------------------------------
	BYTE	W96
// 113   ----------------------------------------
	BYTE	W96
// 114   ----------------------------------------
	BYTE	W96
// 115   ----------------------------------------
	BYTE	W96
// 116   ----------------------------------------
	BYTE	W96
// 117   ----------------------------------------
	BYTE	W96
// 118   ----------------------------------------
	BYTE	W96
// 119   ----------------------------------------
	BYTE	W96
// 120   ----------------------------------------
	BYTE	W96
// 121   ----------------------------------------
	BYTE	W96
// 122   ----------------------------------------
	BYTE	W96
// 123   ----------------------------------------
	BYTE	W96
// 124   ----------------------------------------
	BYTE	PATT
	 POIN2	AweOfShe_1_040
// 125   ----------------------------------------
	BYTE	PATT
	 POIN2	AweOfShe_1_041
// 126   ----------------------------------------
	BYTE	PATT
	 POIN2	AweOfShe_1_042
// 127   ----------------------------------------
	BYTE	W24
	BYTE		N96     Gn4   v127
	BYTE	W72
// 128   ----------------------------------------
	BYTE	PATT
	 POIN2	AweOfShe_1_044
// 129   ----------------------------------------
	BYTE		N24     An4   v127
	BYTE	W96
// 130   ----------------------------------------
	BYTE	W96
// 131   ----------------------------------------
	BYTE	W96
// 132   ----------------------------------------
	BYTE	PATT
	 POIN2	AweOfShe_1_040
// 133   ----------------------------------------
	BYTE	PATT
	 POIN2	AweOfShe_1_041
// 134   ----------------------------------------
	BYTE	PATT
	 POIN2	AweOfShe_1_042
// 135   ----------------------------------------
	BYTE	W24
	BYTE		N96     Gn4   v127
	BYTE	W72
// 136   ----------------------------------------
	BYTE	PATT
	 POIN2	AweOfShe_1_044
// 137   ----------------------------------------
	BYTE		N24     An4   v127
	BYTE	W96
// 138   ----------------------------------------
	BYTE	W96
// 139   ----------------------------------------
	BYTE	PATT
	 POIN2	AweOfShe_1_055
// 140   ----------------------------------------
	BYTE	PATT
	 POIN2	AweOfShe_1_056
// 141   ----------------------------------------
	BYTE		N24     Cs4   v127
	BYTE	W24
	BYTE		TIE     Dn4 
	BYTE	W72
// 142   ----------------------------------------
	BYTE	W96
// 143   ----------------------------------------
	BYTE	W96
// 144   ----------------------------------------
	BYTE	W24
	BYTE		EOT   
	BYTE	FINE

//**************** Track 2 (Midi-Chn.3) ****************//

AweOfShe_2:
	BYTE	KEYSH   AweOfShe_key+0
// 000   ----------------------------------------
	BYTE		VOICE   89
	BYTE		VOL     71*AweOfShe_mvl/mxv
	BYTE	W15
	BYTE		PAN     c_v+0
	BYTE	W03
	BYTE	W78
// 001   ----------------------------------------
	BYTE	W24
	BYTE		        c_v+0
	BYTE	W72
// 002   ----------------------------------------
	BYTE	W24
	BYTE		N12     Dn3   v127
	BYTE	W12
	BYTE		        An3 
	BYTE	W12
	BYTE		N72   
	BYTE	W48
// 003   ----------------------------------------
	BYTE	W24
	BYTE		N24     Cn4 
	BYTE	W24
	BYTE		N12     Bn3 
	BYTE	W12
	BYTE		        Dn4 
	BYTE	W12
	BYTE		TIE   
	BYTE	W24
// 004   ----------------------------------------
	BYTE	W96
// 005   ----------------------------------------
	BYTE	W96
// 006   ----------------------------------------
	BYTE	W96
// 007   ----------------------------------------
	BYTE	W24
	BYTE		EOT   
	BYTE		N96     Fn4 
	BYTE	W72
// 008   ----------------------------------------
	BYTE	W24
	BYTE		N48     Dn3 
	BYTE		N48     As3 
	BYTE	W48
	BYTE		        Cs3 
	BYTE		N48     An3 
	BYTE	W24
// 009   ----------------------------------------
	BYTE	W24
	BYTE		        En3 
	BYTE		N48     Gn3 
	BYTE	W48
	BYTE		TIE     Fn3 
	BYTE		N48     As3 
	BYTE	W24
// 010   ----------------------------------------
	BYTE	W24
	BYTE		N96     An3 
	BYTE	W72
// 011   ----------------------------------------
	BYTE	W24
	BYTE		EOT     Fn3 
	BYTE		TIE     Dn3 
	BYTE		TIE     Fn3 
	BYTE		TIE     An3 
	BYTE	W72
// 012   ----------------------------------------
	BYTE	W96
// 013   ----------------------------------------
	BYTE	W23
	BYTE	W01
	BYTE	W72
// 014   ----------------------------------------
	BYTE	W02
	BYTE	W02
	BYTE	W03
	BYTE	W02
	BYTE	W03
	BYTE	W02
	BYTE	W02
	BYTE	W03
	BYTE	W02
	BYTE	W03
	BYTE	W02
	BYTE	W02
	BYTE	W03
	BYTE	W02
	BYTE	W03
	BYTE	W02
	BYTE	W02
	BYTE	W03
	BYTE	W02
	BYTE	W03
	BYTE	W02
	BYTE	W02
	BYTE	W03
	BYTE	W02
	BYTE	W03
	BYTE	W02
	BYTE	W02
	BYTE	W03
	BYTE	W02
	BYTE	W03
	BYTE	W02
	BYTE	W02
	BYTE	W03
	BYTE	W02
	BYTE	W03
	BYTE	W02
	BYTE	W02
	BYTE	W03
	BYTE	W02
	BYTE	W03
// 015   ----------------------------------------
	BYTE	W02
	BYTE	W02
	BYTE	W03
	BYTE	W02
	BYTE	W03
	BYTE	W02
	BYTE	W02
	BYTE	W03
	BYTE	W02
	BYTE	W02
	BYTE	W01
	BYTE		EOT     Dn3 
	BYTE		        Fn3 
	BYTE		        An3 
	BYTE	W01
	BYTE	W68
	BYTE	W03
// 016   ----------------------------------------
	BYTE	W96
// 017   ----------------------------------------
	BYTE	W96
// 018   ----------------------------------------
	BYTE	W96
// 019   ----------------------------------------
	BYTE	W96
// 020   ----------------------------------------
	BYTE	W96
// 021   ----------------------------------------
	BYTE	W96
// 022   ----------------------------------------
	BYTE	W96
// 023   ----------------------------------------
	BYTE	W96
// 024   ----------------------------------------
	BYTE	W96
// 025   ----------------------------------------
	BYTE	W96
// 026   ----------------------------------------
	BYTE	W96
// 027   ----------------------------------------
	BYTE	W96
// 028   ----------------------------------------
	BYTE	W96
// 029   ----------------------------------------
	BYTE	W96
// 030   ----------------------------------------
	BYTE	W96
// 031   ----------------------------------------
	BYTE	W96
// 032   ----------------------------------------
	BYTE	W96
// 033   ----------------------------------------
	BYTE	W96
// 034   ----------------------------------------
	BYTE	W96
// 035   ----------------------------------------
	BYTE	W96
// 036   ----------------------------------------
	BYTE	W96
// 037   ----------------------------------------
	BYTE	W96
// 038   ----------------------------------------
	BYTE	W96
// 039   ----------------------------------------
	BYTE	W96
// 040   ----------------------------------------
AweOfShe_2_040:
	BYTE	W72
	BYTE		N18     Cn5   v127
	BYTE	W18
	BYTE		        As4 
	BYTE	W06
	BYTE	PEND
// 041   ----------------------------------------
AweOfShe_2_041:
	BYTE	W12
	BYTE		N12     An4   v127
	BYTE	W12
	BYTE		N48   
	BYTE	W48
	BYTE		N24     As4 
	BYTE	W24
	BYTE	PEND
// 042   ----------------------------------------
AweOfShe_2_042:
	BYTE		N24     Cn5   v127
	BYTE	W24
	BYTE		N48     As4 
	BYTE	W48
	BYTE		        An4 
	BYTE	W24
	BYTE	PEND
// 043   ----------------------------------------
	BYTE	W24
	BYTE		N96     Gn4 
	BYTE	W72
// 044   ----------------------------------------
AweOfShe_2_044:
	BYTE	W24
	BYTE		N24     En4   v127
	BYTE	W24
	BYTE		        Fn4 
	BYTE	W24
	BYTE		        Gn4 
	BYTE	W24
	BYTE	PEND
// 045   ----------------------------------------
	BYTE		        An4 
	BYTE	W96
// 046   ----------------------------------------
	BYTE	W96
// 047   ----------------------------------------
	BYTE	W96
// 048   ----------------------------------------
	BYTE	PATT
	 POIN2	AweOfShe_2_040
// 049   ----------------------------------------
	BYTE	PATT
	 POIN2	AweOfShe_2_041
// 050   ----------------------------------------
	BYTE	PATT
	 POIN2	AweOfShe_2_042
// 051   ----------------------------------------
	BYTE	W24
	BYTE		N96     Gn4   v127
	BYTE	W72
// 052   ----------------------------------------
	BYTE	PATT
	 POIN2	AweOfShe_2_044
// 053   ----------------------------------------
	BYTE		N24     An4   v127
	BYTE	W96
// 054   ----------------------------------------
	BYTE	W96
// 055   ----------------------------------------
AweOfShe_2_055:
	BYTE	W24
	BYTE		N48     Fn4   v127
	BYTE	W48
	BYTE		        En4 
	BYTE	W24
	BYTE	PEND
// 056   ----------------------------------------
AweOfShe_2_056:
	BYTE	W24
	BYTE		N24     Cs4   v127
	BYTE	W24
	BYTE		        Dn4 
	BYTE	W24
	BYTE		        En4 
	BYTE	W24
	BYTE	PEND
// 057   ----------------------------------------
AweOfShe_2_057:
	BYTE		N24     Fn4   v127
	BYTE	W24
	BYTE		TIE     An4 
	BYTE	W72
	BYTE	PEND
// 058   ----------------------------------------
	BYTE	W96
// 059   ----------------------------------------
	BYTE	W24
	BYTE		EOT   
	BYTE		N96     Fs4 
	BYTE	W72
// 060   ----------------------------------------
AweOfShe_2_060:
	BYTE	W24
	BYTE		N48     Gn4   v127
	BYTE	W48
	BYTE		N24   
	BYTE	W24
	BYTE	PEND
// 061   ----------------------------------------
AweOfShe_2_061:
	BYTE		N24     Fn4   v127
	BYTE	W24
	BYTE		N48     Gn4 
	BYTE	W48
	BYTE		        An4 
	BYTE	W24
	BYTE	PEND
// 062   ----------------------------------------
AweOfShe_2_062:
	BYTE	W24
	BYTE		N24     Dn4   v127
	BYTE	W24
	BYTE		        En4 
	BYTE	W24
	BYTE		        Fn4 
	BYTE	W24
	BYTE	PEND
// 063   ----------------------------------------
AweOfShe_2_063:
	BYTE		N24     Gn4   v127
	BYTE	W24
	BYTE		N48     As2 
	BYTE		N48     As4 
	BYTE	W48
	BYTE		        Bn2 
	BYTE		N48     Bn4 
	BYTE	W24
	BYTE	PEND
// 064   ----------------------------------------
AweOfShe_2_064:
	BYTE	W24
	BYTE		N96     An2   v127
	BYTE		N96     An4 
	BYTE	W72
	BYTE	PEND
// 065   ----------------------------------------
	BYTE	W96
// 066   ----------------------------------------
	BYTE	W96
// 067   ----------------------------------------
	BYTE	W96
// 068   ----------------------------------------
	BYTE	W96
// 069   ----------------------------------------
	BYTE	W96
// 070   ----------------------------------------
	BYTE	W96
// 071   ----------------------------------------
	BYTE	W96
// 072   ----------------------------------------
	BYTE	W96
// 073   ----------------------------------------
	BYTE	W96
// 074   ----------------------------------------
	BYTE	W96
// 075   ----------------------------------------
	BYTE	W96
// 076   ----------------------------------------
	BYTE	W96
// 077   ----------------------------------------
	BYTE	W96
// 078   ----------------------------------------
	BYTE	W96
// 079   ----------------------------------------
	BYTE	W96
// 080   ----------------------------------------
	BYTE	W96
// 081   ----------------------------------------
	BYTE	W96
// 082   ----------------------------------------
	BYTE	PATT
	 POIN2	AweOfShe_2_040
// 083   ----------------------------------------
	BYTE	PATT
	 POIN2	AweOfShe_2_041
// 084   ----------------------------------------
	BYTE	PATT
	 POIN2	AweOfShe_2_042
// 085   ----------------------------------------
	BYTE	W24
	BYTE		N96     Gn4   v127
	BYTE	W72
// 086   ----------------------------------------
	BYTE	PATT
	 POIN2	AweOfShe_2_044
// 087   ----------------------------------------
	BYTE		N24     An4   v127
	BYTE	W96
// 088   ----------------------------------------
	BYTE	W96
// 089   ----------------------------------------
	BYTE	W96
// 090   ----------------------------------------
	BYTE	PATT
	 POIN2	AweOfShe_2_040
// 091   ----------------------------------------
	BYTE	PATT
	 POIN2	AweOfShe_2_041
// 092   ----------------------------------------
	BYTE	PATT
	 POIN2	AweOfShe_2_042
// 093   ----------------------------------------
	BYTE	W24
	BYTE		N96     Gn4   v127
	BYTE	W72
// 094   ----------------------------------------
	BYTE	PATT
	 POIN2	AweOfShe_2_044
// 095   ----------------------------------------
	BYTE		N24     An4   v127
	BYTE	W96
// 096   ----------------------------------------
	BYTE	W96
// 097   ----------------------------------------
	BYTE	PATT
	 POIN2	AweOfShe_2_055
// 098   ----------------------------------------
	BYTE	PATT
	 POIN2	AweOfShe_2_056
// 099   ----------------------------------------
	BYTE	PATT
	 POIN2	AweOfShe_2_057
// 100   ----------------------------------------
	BYTE	W96
// 101   ----------------------------------------
	BYTE	W24
	BYTE		EOT     An4 
	BYTE		N96     Fs4   v127
	BYTE	W72
// 102   ----------------------------------------
	BYTE	PATT
	 POIN2	AweOfShe_2_060
// 103   ----------------------------------------
	BYTE	PATT
	 POIN2	AweOfShe_2_061
// 104   ----------------------------------------
	BYTE	PATT
	 POIN2	AweOfShe_2_062
// 105   ----------------------------------------
	BYTE	PATT
	 POIN2	AweOfShe_2_063
// 106   ----------------------------------------
	BYTE	PATT
	 POIN2	AweOfShe_2_064
// 107   ----------------------------------------
	BYTE	W96
// 108   ----------------------------------------
	BYTE	W96
// 109   ----------------------------------------
	BYTE	W96
// 110   ----------------------------------------
	BYTE	W96
// 111   ----------------------------------------
	BYTE	W96
// 112   ----------------------------------------
	BYTE	W96
// 113   ----------------------------------------
	BYTE	W96
// 114   ----------------------------------------
	BYTE	W96
// 115   ----------------------------------------
	BYTE	W96
// 116   ----------------------------------------
	BYTE	W96
// 117   ----------------------------------------
	BYTE	W96
// 118   ----------------------------------------
	BYTE	W96
// 119   ----------------------------------------
	BYTE	W96
// 120   ----------------------------------------
	BYTE	W96
// 121   ----------------------------------------
	BYTE	W96
// 122   ----------------------------------------
	BYTE	W96
// 123   ----------------------------------------
	BYTE	W96
// 124   ----------------------------------------
	BYTE	PATT
	 POIN2	AweOfShe_2_040
// 125   ----------------------------------------
	BYTE	PATT
	 POIN2	AweOfShe_2_041
// 126   ----------------------------------------
	BYTE	PATT
	 POIN2	AweOfShe_2_042
// 127   ----------------------------------------
	BYTE	W24
	BYTE		N96     Gn4   v127
	BYTE	W72
// 128   ----------------------------------------
	BYTE	PATT
	 POIN2	AweOfShe_2_044
// 129   ----------------------------------------
	BYTE		N24     An4   v127
	BYTE	W96
// 130   ----------------------------------------
	BYTE	W96
// 131   ----------------------------------------
	BYTE	W96
// 132   ----------------------------------------
	BYTE	PATT
	 POIN2	AweOfShe_2_040
// 133   ----------------------------------------
	BYTE	PATT
	 POIN2	AweOfShe_2_041
// 134   ----------------------------------------
	BYTE	PATT
	 POIN2	AweOfShe_2_042
// 135   ----------------------------------------
	BYTE	W24
	BYTE		N96     Gn4   v127
	BYTE	W72
// 136   ----------------------------------------
	BYTE	PATT
	 POIN2	AweOfShe_2_044
// 137   ----------------------------------------
	BYTE		N24     An4   v127
	BYTE	W96
// 138   ----------------------------------------
	BYTE	W96
// 139   ----------------------------------------
	BYTE	PATT
	 POIN2	AweOfShe_2_055
// 140   ----------------------------------------
	BYTE	PATT
	 POIN2	AweOfShe_2_056
// 141   ----------------------------------------
	BYTE		N24     Cs4   v127
	BYTE	W24
	BYTE		TIE     Dn4 
	BYTE	W72
// 142   ----------------------------------------
	BYTE	W96
// 143   ----------------------------------------
	BYTE	W96
// 144   ----------------------------------------
	BYTE	W24
	BYTE		EOT   
	BYTE	FINE

//**************** Track 3 (Midi-Chn.2) ****************//

AweOfShe_3:
	BYTE	KEYSH   AweOfShe_key+0
// 000   ----------------------------------------
	BYTE		VOICE   52
	BYTE	W12
	BYTE		VOL     75*AweOfShe_mvl/mxv
	BYTE	W03
	BYTE		PAN     c_v+0
	BYTE	W03
	BYTE	W06
	BYTE		        c_v+0
	BYTE	W72
// 001   ----------------------------------------
	BYTE	W96
// 002   ----------------------------------------
	BYTE	W96
// 003   ----------------------------------------
	BYTE	W96
// 004   ----------------------------------------
	BYTE		N12     An3   v127
	BYTE	W12
	BYTE		        Gn3 
	BYTE	W12
	BYTE		TIE     An3 
	BYTE	W72
// 005   ----------------------------------------
	BYTE	W72
	BYTE		EOT   
	BYTE		N24     Gn3 
	BYTE	W24
// 006   ----------------------------------------
	BYTE		        An3 
	BYTE	W24
	BYTE		N12     Cn4 
	BYTE	W12
	BYTE		        Dn4 
	BYTE	W12
	BYTE		N72   
	BYTE	W48
// 007   ----------------------------------------
	BYTE	W24
	BYTE		N96     Fn3 
	BYTE		N96     An3 
	BYTE	W72
// 008   ----------------------------------------
	BYTE	W24
	BYTE		N12     As3 
	BYTE	W12
	BYTE		        An3 
	BYTE	W12
	BYTE		N24     As3 
	BYTE	W24
	BYTE		        An3 
	BYTE	W24
// 009   ----------------------------------------
	BYTE		N12     Gn3 
	BYTE	W12
	BYTE		        Fn3 
	BYTE	W12
	BYTE		N48     Gn3 
	BYTE	W48
	BYTE		N12     An3 
	BYTE	W12
	BYTE		        Fn3 
	BYTE	W12
// 010   ----------------------------------------
	BYTE		        En3 
	BYTE	W12
	BYTE		        Fn3 
	BYTE	W12
	BYTE		N24     Dn3 
	BYTE	W24
	BYTE		        En3 
	BYTE	W24
	BYTE		        Fn3 
	BYTE	W24
// 011   ----------------------------------------
	BYTE		        Gn3 
	BYTE	W24
	BYTE		TIE     Dn3 
	BYTE	W72
// 012   ----------------------------------------
	BYTE	W96
// 013   ----------------------------------------
	BYTE	W23
	BYTE	W01
	BYTE	W72
// 014   ----------------------------------------
	BYTE	W01
	BYTE	W03
	BYTE	W02
	BYTE	W03
	BYTE	W02
	BYTE	W02
	BYTE	W03
	BYTE	W02
	BYTE	W03
	BYTE	W02
	BYTE	W02
	BYTE	W03
	BYTE	W02
	BYTE	W03
	BYTE	W02
	BYTE	W02
	BYTE	W03
	BYTE	W02
	BYTE	W03
	BYTE	W02
	BYTE	W02
	BYTE	W03
	BYTE	W02
	BYTE	W03
	BYTE	W02
	BYTE	W02
	BYTE	W03
	BYTE	W02
	BYTE	W03
	BYTE	W02
	BYTE	W02
	BYTE	W03
	BYTE	W02
	BYTE	W03
	BYTE	W02
	BYTE	W02
	BYTE	W03
	BYTE	W02
	BYTE	W03
	BYTE	W02
	BYTE	W01
// 015   ----------------------------------------
	BYTE	W01
	BYTE	W03
	BYTE	W02
	BYTE	W03
	BYTE	W02
	BYTE	W02
	BYTE	W03
	BYTE	W02
	BYTE	W03
	BYTE	W02
	BYTE	W01
	BYTE		EOT   
	BYTE	W02
	BYTE	W01
	BYTE	W68
	BYTE	W01
// 016   ----------------------------------------
	BYTE	W96
// 017   ----------------------------------------
	BYTE	W96
// 018   ----------------------------------------
	BYTE	W96
// 019   ----------------------------------------
	BYTE	W96
// 020   ----------------------------------------
	BYTE	W96
// 021   ----------------------------------------
	BYTE	W96
// 022   ----------------------------------------
	BYTE	W96
// 023   ----------------------------------------
	BYTE	W96
// 024   ----------------------------------------
	BYTE	W96
// 025   ----------------------------------------
	BYTE	W96
// 026   ----------------------------------------
	BYTE	W96
// 027   ----------------------------------------
	BYTE	W96
// 028   ----------------------------------------
	BYTE	W96
// 029   ----------------------------------------
	BYTE	W96
// 030   ----------------------------------------
	BYTE	W96
// 031   ----------------------------------------
	BYTE	W96
// 032   ----------------------------------------
	BYTE	W96
// 033   ----------------------------------------
	BYTE	W96
// 034   ----------------------------------------
	BYTE	W96
// 035   ----------------------------------------
	BYTE	W96
// 036   ----------------------------------------
	BYTE	W96
// 037   ----------------------------------------
	BYTE	W96
// 038   ----------------------------------------
	BYTE	W96
// 039   ----------------------------------------
	BYTE	W96
// 040   ----------------------------------------
AweOfShe_3_040:
	BYTE	W72
	BYTE		N18     Gn4   v127
	BYTE	W18
	BYTE		        Fn4 
	BYTE	W06
	BYTE	PEND
// 041   ----------------------------------------
AweOfShe_3_041:
	BYTE	W12
	BYTE		N12     En4   v127
	BYTE	W12
	BYTE		N48   
	BYTE	W48
	BYTE		        Gn4 
	BYTE	W24
	BYTE	PEND
// 042   ----------------------------------------
AweOfShe_3_042:
	BYTE	W24
	BYTE		N48     Fn4   v127
	BYTE	W48
	BYTE		        En4 
	BYTE	W24
	BYTE	PEND
// 043   ----------------------------------------
	BYTE	W24
	BYTE		N96   
	BYTE	W72
// 044   ----------------------------------------
AweOfShe_3_044:
	BYTE	W24
	BYTE		N24     En3   v127
	BYTE	W24
	BYTE		        Fn3 
	BYTE	W24
	BYTE		        Gn3 
	BYTE	W24
	BYTE	PEND
// 045   ----------------------------------------
	BYTE		        An3 
	BYTE	W96
// 046   ----------------------------------------
	BYTE	W96
// 047   ----------------------------------------
	BYTE	W96
// 048   ----------------------------------------
	BYTE	PATT
	 POIN2	AweOfShe_3_040
// 049   ----------------------------------------
	BYTE	PATT
	 POIN2	AweOfShe_3_041
// 050   ----------------------------------------
	BYTE	PATT
	 POIN2	AweOfShe_3_042
// 051   ----------------------------------------
	BYTE	W24
	BYTE		N96     En4   v127
	BYTE	W72
// 052   ----------------------------------------
	BYTE	PATT
	 POIN2	AweOfShe_3_044
// 053   ----------------------------------------
	BYTE		N24     An3   v127
	BYTE	W96
// 054   ----------------------------------------
	BYTE	W96
// 055   ----------------------------------------
AweOfShe_3_055:
	BYTE	W24
	BYTE		N48     Dn3   v127
	BYTE	W48
	BYTE		        En3 
	BYTE	W24
	BYTE	PEND
// 056   ----------------------------------------
AweOfShe_3_056:
	BYTE	W24
	BYTE		N48     Gn3   v127
	BYTE	W48
	BYTE		        Fn3 
	BYTE	W24
	BYTE	PEND
// 057   ----------------------------------------
AweOfShe_3_057:
	BYTE	W24
	BYTE		N96     Dn3   v127
	BYTE		TIE     An3 
	BYTE	W72
	BYTE	PEND
// 058   ----------------------------------------
	BYTE	W24
	BYTE		N96     En3 
	BYTE	W72
// 059   ----------------------------------------
	BYTE	W24
	BYTE		        Fs3 
	BYTE	W72
// 060   ----------------------------------------
	BYTE	W24
	BYTE		EOT     An3 
	BYTE		N48     Gn3 
	BYTE		N48     As3 
	BYTE	W48
	BYTE		N24     Gn3 
	BYTE		N24     As3 
	BYTE	W24
// 061   ----------------------------------------
AweOfShe_3_061:
	BYTE		N24     Fn3   v127
	BYTE		N24     An3 
	BYTE	W24
	BYTE		N48     En3 
	BYTE	W48
	BYTE		        An3 
	BYTE	W24
	BYTE	PEND
// 062   ----------------------------------------
AweOfShe_3_062:
	BYTE	W24
	BYTE		N24     Fn3   v127
	BYTE	W24
	BYTE		        Gn3 
	BYTE	W24
	BYTE		        An3 
	BYTE	W24
	BYTE	PEND
// 063   ----------------------------------------
AweOfShe_3_063:
	BYTE		N24     As3   v127
	BYTE	W24
	BYTE		N48     Gn3 
	BYTE		N48     As3 
	BYTE	W48
	BYTE		TIE     An3 
	BYTE		N48     Bn3 
	BYTE	W24
	BYTE	PEND
// 064   ----------------------------------------
	BYTE	W24
	BYTE		N96     En3 
	BYTE	W72
// 065   ----------------------------------------
	BYTE	W24
	BYTE		EOT     An3 
	BYTE	W72
// 066   ----------------------------------------
	BYTE	W96
// 067   ----------------------------------------
	BYTE	W96
// 068   ----------------------------------------
	BYTE	W96
// 069   ----------------------------------------
	BYTE	W96
// 070   ----------------------------------------
	BYTE	W96
// 071   ----------------------------------------
	BYTE	W96
// 072   ----------------------------------------
	BYTE	W96
// 073   ----------------------------------------
	BYTE	W96
// 074   ----------------------------------------
	BYTE	W96
// 075   ----------------------------------------
	BYTE	W96
// 076   ----------------------------------------
	BYTE	W96
// 077   ----------------------------------------
	BYTE	W96
// 078   ----------------------------------------
	BYTE	W96
// 079   ----------------------------------------
	BYTE	W96
// 080   ----------------------------------------
	BYTE	W96
// 081   ----------------------------------------
	BYTE	W96
// 082   ----------------------------------------
	BYTE	PATT
	 POIN2	AweOfShe_3_040
// 083   ----------------------------------------
	BYTE	PATT
	 POIN2	AweOfShe_3_041
// 084   ----------------------------------------
	BYTE	PATT
	 POIN2	AweOfShe_3_042
// 085   ----------------------------------------
	BYTE	W24
	BYTE		N96     En4   v127
	BYTE	W72
// 086   ----------------------------------------
	BYTE	PATT
	 POIN2	AweOfShe_3_044
// 087   ----------------------------------------
	BYTE		N24     An3   v127
	BYTE	W96
// 088   ----------------------------------------
	BYTE	W96
// 089   ----------------------------------------
	BYTE	W96
// 090   ----------------------------------------
	BYTE	PATT
	 POIN2	AweOfShe_3_040
// 091   ----------------------------------------
	BYTE	PATT
	 POIN2	AweOfShe_3_041
// 092   ----------------------------------------
	BYTE	PATT
	 POIN2	AweOfShe_3_042
// 093   ----------------------------------------
	BYTE	W24
	BYTE		N96     En4   v127
	BYTE	W72
// 094   ----------------------------------------
	BYTE	PATT
	 POIN2	AweOfShe_3_044
// 095   ----------------------------------------
	BYTE		N24     An3   v127
	BYTE	W96
// 096   ----------------------------------------
	BYTE	W96
// 097   ----------------------------------------
	BYTE	PATT
	 POIN2	AweOfShe_3_055
// 098   ----------------------------------------
	BYTE	PATT
	 POIN2	AweOfShe_3_056
// 099   ----------------------------------------
	BYTE	PATT
	 POIN2	AweOfShe_3_057
// 100   ----------------------------------------
	BYTE	W24
	BYTE		N96     En3   v127
	BYTE	W72
// 101   ----------------------------------------
	BYTE	W24
	BYTE		        Fs3 
	BYTE	W72
// 102   ----------------------------------------
	BYTE	W24
	BYTE		EOT     An3 
	BYTE		N48     Gn3 
	BYTE		N48     As3 
	BYTE	W48
	BYTE		N24     Gn3 
	BYTE		N24     As3 
	BYTE	W24
// 103   ----------------------------------------
	BYTE	PATT
	 POIN2	AweOfShe_3_061
// 104   ----------------------------------------
	BYTE	PATT
	 POIN2	AweOfShe_3_062
// 105   ----------------------------------------
	BYTE	PATT
	 POIN2	AweOfShe_3_063
// 106   ----------------------------------------
	BYTE	W24
	BYTE		N96     En3   v127
	BYTE	W72
// 107   ----------------------------------------
	BYTE	W24
	BYTE		EOT     An3 
	BYTE	W72
// 108   ----------------------------------------
	BYTE	W96
// 109   ----------------------------------------
	BYTE	W96
// 110   ----------------------------------------
	BYTE	W96
// 111   ----------------------------------------
	BYTE	W96
// 112   ----------------------------------------
	BYTE	W96
// 113   ----------------------------------------
	BYTE	W96
// 114   ----------------------------------------
	BYTE	W96
// 115   ----------------------------------------
	BYTE	W96
// 116   ----------------------------------------
	BYTE	W96
// 117   ----------------------------------------
	BYTE	W96
// 118   ----------------------------------------
	BYTE	W96
// 119   ----------------------------------------
	BYTE	W96
// 120   ----------------------------------------
	BYTE	W96
// 121   ----------------------------------------
	BYTE	W96
// 122   ----------------------------------------
	BYTE	W96
// 123   ----------------------------------------
	BYTE	W96
// 124   ----------------------------------------
	BYTE	PATT
	 POIN2	AweOfShe_3_040
// 125   ----------------------------------------
	BYTE	PATT
	 POIN2	AweOfShe_3_041
// 126   ----------------------------------------
	BYTE	PATT
	 POIN2	AweOfShe_3_042
// 127   ----------------------------------------
	BYTE	W24
	BYTE		N96     En4   v127
	BYTE	W72
// 128   ----------------------------------------
	BYTE	PATT
	 POIN2	AweOfShe_3_044
// 129   ----------------------------------------
	BYTE		N24     An3   v127
	BYTE	W96
// 130   ----------------------------------------
	BYTE	W96
// 131   ----------------------------------------
	BYTE	W96
// 132   ----------------------------------------
	BYTE	PATT
	 POIN2	AweOfShe_3_040
// 133   ----------------------------------------
	BYTE	PATT
	 POIN2	AweOfShe_3_041
// 134   ----------------------------------------
	BYTE	PATT
	 POIN2	AweOfShe_3_042
// 135   ----------------------------------------
	BYTE	W24
	BYTE		N96     En4   v127
	BYTE	W72
// 136   ----------------------------------------
	BYTE	PATT
	 POIN2	AweOfShe_3_044
// 137   ----------------------------------------
	BYTE		N24     An3   v127
	BYTE	W96
// 138   ----------------------------------------
	BYTE	W96
// 139   ----------------------------------------
	BYTE	PATT
	 POIN2	AweOfShe_3_055
// 140   ----------------------------------------
	BYTE	PATT
	 POIN2	AweOfShe_3_056
// 141   ----------------------------------------
	BYTE	W24
	BYTE		TIE     Dn3   v127
	BYTE		TIE     An3 
	BYTE	W72
// 142   ----------------------------------------
	BYTE	W96
// 143   ----------------------------------------
	BYTE	W96
// 144   ----------------------------------------
	BYTE	W24
	BYTE		EOT     Dn3 
	BYTE		        An3 
	BYTE	FINE

//**************** Track 4 (Midi-Chn.5) ****************//

AweOfShe_4:
	BYTE	KEYSH   AweOfShe_key+0
// 000   ----------------------------------------
	BYTE		VOICE   50
	BYTE	W12
	BYTE		VOL     75*AweOfShe_mvl/mxv
	BYTE	W03
	BYTE		PAN     c_v+0
	BYTE	W03
	BYTE	W06
	BYTE		        c_v+0
	BYTE	W72
// 001   ----------------------------------------
	BYTE	W96
// 002   ----------------------------------------
	BYTE	W96
// 003   ----------------------------------------
	BYTE	W96
// 004   ----------------------------------------
	BYTE		N12     An3   v127
	BYTE	W12
	BYTE		        Gn3 
	BYTE	W12
	BYTE		TIE     An3 
	BYTE	W72
// 005   ----------------------------------------
	BYTE	W72
	BYTE		EOT   
	BYTE		N24     Gn3 
	BYTE	W24
// 006   ----------------------------------------
	BYTE		        An3 
	BYTE	W24
	BYTE		N12     Cn4 
	BYTE	W12
	BYTE		        Dn4 
	BYTE	W12
	BYTE		N72   
	BYTE	W48
// 007   ----------------------------------------
	BYTE	W24
	BYTE		N96     Fn3 
	BYTE		N96     An3 
	BYTE	W72
// 008   ----------------------------------------
	BYTE	W24
	BYTE		N12     As3 
	BYTE	W12
	BYTE		        An3 
	BYTE	W12
	BYTE		N24     As3 
	BYTE	W24
	BYTE		        An3 
	BYTE	W24
// 009   ----------------------------------------
	BYTE		N12     Gn3 
	BYTE	W12
	BYTE		        Fn3 
	BYTE	W12
	BYTE		N48     Gn3 
	BYTE	W48
	BYTE		N12     An3 
	BYTE	W12
	BYTE		        Fn3 
	BYTE	W12
// 010   ----------------------------------------
	BYTE		        En3 
	BYTE	W12
	BYTE		        Fn3 
	BYTE	W12
	BYTE		N24     Dn3 
	BYTE	W24
	BYTE		        En3 
	BYTE	W24
	BYTE		        Fn3 
	BYTE	W24
// 011   ----------------------------------------
	BYTE		        Gn3 
	BYTE	W24
	BYTE		TIE     Dn3 
	BYTE	W72
// 012   ----------------------------------------
	BYTE	W96
// 013   ----------------------------------------
	BYTE	W23
	BYTE	W01
	BYTE	W72
// 014   ----------------------------------------
	BYTE	W01
	BYTE	W03
	BYTE	W02
	BYTE	W03
	BYTE	W02
	BYTE	W02
	BYTE	W03
	BYTE	W02
	BYTE	W03
	BYTE	W02
	BYTE	W02
	BYTE	W03
	BYTE	W02
	BYTE	W03
	BYTE	W02
	BYTE	W02
	BYTE	W03
	BYTE	W02
	BYTE	W03
	BYTE	W02
	BYTE	W02
	BYTE	W03
	BYTE	W02
	BYTE	W03
	BYTE	W02
	BYTE	W02
	BYTE	W03
	BYTE	W02
	BYTE	W03
	BYTE	W02
	BYTE	W02
	BYTE	W03
	BYTE	W02
	BYTE	W03
	BYTE	W02
	BYTE	W02
	BYTE	W03
	BYTE	W02
	BYTE	W03
	BYTE	W02
	BYTE	W01
// 015   ----------------------------------------
	BYTE	W01
	BYTE	W03
	BYTE	W02
	BYTE	W03
	BYTE	W02
	BYTE	W02
	BYTE	W03
	BYTE	W02
	BYTE	W03
	BYTE	W02
	BYTE	W01
	BYTE		EOT   
	BYTE	W02
	BYTE	W01
	BYTE	W68
	BYTE	W01
// 016   ----------------------------------------
	BYTE	W96
// 017   ----------------------------------------
	BYTE	W96
// 018   ----------------------------------------
	BYTE	W96
// 019   ----------------------------------------
	BYTE	W96
// 020   ----------------------------------------
	BYTE	W96
// 021   ----------------------------------------
	BYTE	W96
// 022   ----------------------------------------
	BYTE	W96
// 023   ----------------------------------------
	BYTE	W96
// 024   ----------------------------------------
	BYTE	W96
// 025   ----------------------------------------
	BYTE	W96
// 026   ----------------------------------------
	BYTE	W96
// 027   ----------------------------------------
	BYTE	W96
// 028   ----------------------------------------
	BYTE	W96
// 029   ----------------------------------------
	BYTE	W96
// 030   ----------------------------------------
	BYTE	W96
// 031   ----------------------------------------
	BYTE	W96
// 032   ----------------------------------------
	BYTE	W96
// 033   ----------------------------------------
	BYTE	W96
// 034   ----------------------------------------
	BYTE	W96
// 035   ----------------------------------------
	BYTE	W96
// 036   ----------------------------------------
	BYTE	W96
// 037   ----------------------------------------
	BYTE	W96
// 038   ----------------------------------------
	BYTE	W96
// 039   ----------------------------------------
	BYTE	W96
// 040   ----------------------------------------
AweOfShe_4_040:
	BYTE	W72
	BYTE		N18     Gn4   v127
	BYTE	W18
	BYTE		        Fn4 
	BYTE	W06
	BYTE	PEND
// 041   ----------------------------------------
AweOfShe_4_041:
	BYTE	W12
	BYTE		N12     En4   v127
	BYTE	W12
	BYTE		N48   
	BYTE	W48
	BYTE		        Gn4 
	BYTE	W24
	BYTE	PEND
// 042   ----------------------------------------
AweOfShe_4_042:
	BYTE	W24
	BYTE		N48     Fn4   v127
	BYTE	W48
	BYTE		        En4 
	BYTE	W24
	BYTE	PEND
// 043   ----------------------------------------
	BYTE	W24
	BYTE		N96   
	BYTE	W72
// 044   ----------------------------------------
AweOfShe_4_044:
	BYTE	W24
	BYTE		N24     En3   v127
	BYTE	W24
	BYTE		        Fn3 
	BYTE	W24
	BYTE		        Gn3 
	BYTE	W24
	BYTE	PEND
// 045   ----------------------------------------
	BYTE		        An3 
	BYTE	W96
// 046   ----------------------------------------
	BYTE	W96
// 047   ----------------------------------------
	BYTE	W96
// 048   ----------------------------------------
	BYTE	PATT
	 POIN2	AweOfShe_4_040
// 049   ----------------------------------------
	BYTE	PATT
	 POIN2	AweOfShe_4_041
// 050   ----------------------------------------
	BYTE	PATT
	 POIN2	AweOfShe_4_042
// 051   ----------------------------------------
	BYTE	W24
	BYTE		N96     En4   v127
	BYTE	W72
// 052   ----------------------------------------
	BYTE	PATT
	 POIN2	AweOfShe_4_044
// 053   ----------------------------------------
	BYTE		N24     An3   v127
	BYTE	W96
// 054   ----------------------------------------
	BYTE	W96
// 055   ----------------------------------------
AweOfShe_4_055:
	BYTE	W24
	BYTE		N48     Dn3   v127
	BYTE	W48
	BYTE		        En3 
	BYTE	W24
	BYTE	PEND
// 056   ----------------------------------------
AweOfShe_4_056:
	BYTE	W24
	BYTE		N48     Gn3   v127
	BYTE	W48
	BYTE		        Fn3 
	BYTE	W24
	BYTE	PEND
// 057   ----------------------------------------
AweOfShe_4_057:
	BYTE	W24
	BYTE		N96     Dn3   v127
	BYTE		TIE     An3 
	BYTE	W72
	BYTE	PEND
// 058   ----------------------------------------
	BYTE	W24
	BYTE		N96     En3 
	BYTE	W72
// 059   ----------------------------------------
	BYTE	W24
	BYTE		        Fs3 
	BYTE	W72
// 060   ----------------------------------------
	BYTE	W24
	BYTE		EOT     An3 
	BYTE		N48     Gn3 
	BYTE		N48     As3 
	BYTE	W48
	BYTE		N24     Gn3 
	BYTE		N24     As3 
	BYTE	W24
// 061   ----------------------------------------
AweOfShe_4_061:
	BYTE		N24     Fn3   v127
	BYTE		N24     An3 
	BYTE	W24
	BYTE		N48     En3 
	BYTE	W48
	BYTE		        An3 
	BYTE	W24
	BYTE	PEND
// 062   ----------------------------------------
AweOfShe_4_062:
	BYTE	W24
	BYTE		N24     Fn3   v127
	BYTE	W24
	BYTE		        Gn3 
	BYTE	W24
	BYTE		        An3 
	BYTE	W24
	BYTE	PEND
// 063   ----------------------------------------
AweOfShe_4_063:
	BYTE		N24     As3   v127
	BYTE	W24
	BYTE		N48     Gn3 
	BYTE		N48     As3 
	BYTE	W48
	BYTE		TIE     An3 
	BYTE		N48     Bn3 
	BYTE	W24
	BYTE	PEND
// 064   ----------------------------------------
	BYTE	W24
	BYTE		N96     En3 
	BYTE	W72
// 065   ----------------------------------------
	BYTE	W24
	BYTE		EOT     An3 
	BYTE	W72
// 066   ----------------------------------------
	BYTE	W96
// 067   ----------------------------------------
	BYTE	W96
// 068   ----------------------------------------
	BYTE	W96
// 069   ----------------------------------------
	BYTE	W96
// 070   ----------------------------------------
	BYTE	W96
// 071   ----------------------------------------
	BYTE	W96
// 072   ----------------------------------------
	BYTE	W96
// 073   ----------------------------------------
	BYTE	W96
// 074   ----------------------------------------
	BYTE	W96
// 075   ----------------------------------------
	BYTE	W96
// 076   ----------------------------------------
	BYTE	W96
// 077   ----------------------------------------
	BYTE	W96
// 078   ----------------------------------------
	BYTE	W96
// 079   ----------------------------------------
	BYTE	W96
// 080   ----------------------------------------
	BYTE	W96
// 081   ----------------------------------------
	BYTE	W96
// 082   ----------------------------------------
	BYTE	PATT
	 POIN2	AweOfShe_4_040
// 083   ----------------------------------------
	BYTE	PATT
	 POIN2	AweOfShe_4_041
// 084   ----------------------------------------
	BYTE	PATT
	 POIN2	AweOfShe_4_042
// 085   ----------------------------------------
	BYTE	W24
	BYTE		N96     En4   v127
	BYTE	W72
// 086   ----------------------------------------
	BYTE	PATT
	 POIN2	AweOfShe_4_044
// 087   ----------------------------------------
	BYTE		N24     An3   v127
	BYTE	W96
// 088   ----------------------------------------
	BYTE	W96
// 089   ----------------------------------------
	BYTE	W96
// 090   ----------------------------------------
	BYTE	PATT
	 POIN2	AweOfShe_4_040
// 091   ----------------------------------------
	BYTE	PATT
	 POIN2	AweOfShe_4_041
// 092   ----------------------------------------
	BYTE	PATT
	 POIN2	AweOfShe_4_042
// 093   ----------------------------------------
	BYTE	W24
	BYTE		N96     En4   v127
	BYTE	W72
// 094   ----------------------------------------
	BYTE	PATT
	 POIN2	AweOfShe_4_044
// 095   ----------------------------------------
	BYTE		N24     An3   v127
	BYTE	W96
// 096   ----------------------------------------
	BYTE	W96
// 097   ----------------------------------------
	BYTE	PATT
	 POIN2	AweOfShe_4_055
// 098   ----------------------------------------
	BYTE	PATT
	 POIN2	AweOfShe_4_056
// 099   ----------------------------------------
	BYTE	PATT
	 POIN2	AweOfShe_4_057
// 100   ----------------------------------------
	BYTE	W24
	BYTE		N96     En3   v127
	BYTE	W72
// 101   ----------------------------------------
	BYTE	W24
	BYTE		        Fs3 
	BYTE	W72
// 102   ----------------------------------------
	BYTE	W24
	BYTE		EOT     An3 
	BYTE		N48     Gn3 
	BYTE		N48     As3 
	BYTE	W48
	BYTE		N24     Gn3 
	BYTE		N24     As3 
	BYTE	W24
// 103   ----------------------------------------
	BYTE	PATT
	 POIN2	AweOfShe_4_061
// 104   ----------------------------------------
	BYTE	PATT
	 POIN2	AweOfShe_4_062
// 105   ----------------------------------------
	BYTE	PATT
	 POIN2	AweOfShe_4_063
// 106   ----------------------------------------
	BYTE	W24
	BYTE		N96     En3   v127
	BYTE	W72
// 107   ----------------------------------------
	BYTE	W24
	BYTE		EOT     An3 
	BYTE	W72
// 108   ----------------------------------------
	BYTE	W96
// 109   ----------------------------------------
	BYTE	W96
// 110   ----------------------------------------
	BYTE	W96
// 111   ----------------------------------------
	BYTE	W96
// 112   ----------------------------------------
	BYTE	W96
// 113   ----------------------------------------
	BYTE	W96
// 114   ----------------------------------------
	BYTE	W96
// 115   ----------------------------------------
	BYTE	W96
// 116   ----------------------------------------
	BYTE	W96
// 117   ----------------------------------------
	BYTE	W96
// 118   ----------------------------------------
	BYTE	W96
// 119   ----------------------------------------
	BYTE	W96
// 120   ----------------------------------------
	BYTE	W96
// 121   ----------------------------------------
	BYTE	W96
// 122   ----------------------------------------
	BYTE	W96
// 123   ----------------------------------------
	BYTE	W96
// 124   ----------------------------------------
	BYTE	PATT
	 POIN2	AweOfShe_4_040
// 125   ----------------------------------------
	BYTE	PATT
	 POIN2	AweOfShe_4_041
// 126   ----------------------------------------
	BYTE	PATT
	 POIN2	AweOfShe_4_042
// 127   ----------------------------------------
	BYTE	W24
	BYTE		N96     En4   v127
	BYTE	W72
// 128   ----------------------------------------
	BYTE	PATT
	 POIN2	AweOfShe_4_044
// 129   ----------------------------------------
	BYTE		N24     An3   v127
	BYTE	W96
// 130   ----------------------------------------
	BYTE	W96
// 131   ----------------------------------------
	BYTE	W96
// 132   ----------------------------------------
	BYTE	PATT
	 POIN2	AweOfShe_4_040
// 133   ----------------------------------------
	BYTE	PATT
	 POIN2	AweOfShe_4_041
// 134   ----------------------------------------
	BYTE	PATT
	 POIN2	AweOfShe_4_042
// 135   ----------------------------------------
	BYTE	W24
	BYTE		N96     En4   v127
	BYTE	W72
// 136   ----------------------------------------
	BYTE	PATT
	 POIN2	AweOfShe_4_044
// 137   ----------------------------------------
	BYTE		N24     An3   v127
	BYTE	W96
// 138   ----------------------------------------
	BYTE	W96
// 139   ----------------------------------------
	BYTE	PATT
	 POIN2	AweOfShe_4_055
// 140   ----------------------------------------
	BYTE	PATT
	 POIN2	AweOfShe_4_056
// 141   ----------------------------------------
	BYTE	W24
	BYTE		TIE     Dn3   v127
	BYTE		TIE     An3 
	BYTE	W72
// 142   ----------------------------------------
	BYTE	W96
// 143   ----------------------------------------
	BYTE	W96
// 144   ----------------------------------------
	BYTE	W24
	BYTE		EOT     Dn3 
	BYTE		        An3 
	BYTE	FINE

//**************** Track 5 (Midi-Chn.2) ****************//

AweOfShe_5:
	BYTE	KEYSH   AweOfShe_key+0
// 000   ----------------------------------------
	BYTE		VOICE   52
	BYTE	W12
	BYTE		VOL     80*AweOfShe_mvl/mxv
	BYTE	W03
	BYTE		PAN     c_v+0
	BYTE	W03
	BYTE	W06
	BYTE		        c_v+0
	BYTE	W72
// 001   ----------------------------------------
	BYTE	W96
// 002   ----------------------------------------
	BYTE	W96
// 003   ----------------------------------------
	BYTE	W96
// 004   ----------------------------------------
	BYTE	W48
	BYTE		N12     Fn3   v127
	BYTE	W12
	BYTE		        En3 
	BYTE	W12
	BYTE		N96     Dn3 
	BYTE		N96     Fn3 
	BYTE	W24
// 005   ----------------------------------------
	BYTE		N12     An2 
	BYTE	W12
	BYTE		        Gn2 
	BYTE	W12
	BYTE		N24     An2 
	BYTE	W24
	BYTE		        Dn2 
	BYTE		N24     Cn3 
	BYTE	W24
	BYTE		        Cn2 
	BYTE		N24     Cn3 
	BYTE		N24     En3 
	BYTE	W24
// 006   ----------------------------------------
	BYTE		        Dn2 
	BYTE		N24     Dn3 
	BYTE		N24     Fn3 
	BYTE	W24
	BYTE		N12     En2 
	BYTE		N12     En3 
	BYTE		N12     Gn3 
	BYTE	W12
	BYTE		        Fn2 
	BYTE		N12     Fn3 
	BYTE		N12     An3 
	BYTE	W12
	BYTE		N72     Fn2 
	BYTE		N72     Fn3 
	BYTE		N72     An3 
	BYTE	W48
// 007   ----------------------------------------
	BYTE	W24
	BYTE		N24     Fn2 
	BYTE		N72     As2 
	BYTE	W24
	BYTE		N24     En2 
	BYTE	W24
	BYTE		        Dn2 
	BYTE	W24
// 008   ----------------------------------------
	BYTE		        Cs2 
	BYTE		N12     An2 
	BYTE	W12
	BYTE		        Gn2 
	BYTE	W12
	BYTE		N48     Dn2 
	BYTE		N84     An2 
	BYTE	W48
	BYTE		N48     Cs2 
	BYTE	W24
// 009   ----------------------------------------
	BYTE	W12
	BYTE		N12     As2 
	BYTE	W12
	BYTE		N48     En2 
	BYTE		N48     An2 
	BYTE	W48
	BYTE		        Dn2 
	BYTE		N48     As2 
	BYTE	W24
// 010   ----------------------------------------
	BYTE	W24
	BYTE		N96     Dn2 
	BYTE		N96     An2 
	BYTE	W72
// 011   ----------------------------------------
	BYTE	W24
	BYTE		TIE     Dn2 
	BYTE		TIE     An2 
	BYTE	W72
// 012   ----------------------------------------
	BYTE	W96
// 013   ----------------------------------------
	BYTE	W24
	BYTE	W01
	BYTE	W68
	BYTE	W03
// 014   ----------------------------------------
	BYTE	W05
	BYTE	W02
	BYTE	W03
	BYTE	W02
	BYTE	W02
	BYTE	W03
	BYTE	W02
	BYTE	W03
	BYTE	W02
	BYTE	W02
	BYTE	W03
	BYTE	W02
	BYTE	W03
	BYTE	W02
	BYTE	W02
	BYTE	W03
	BYTE	W02
	BYTE	W03
	BYTE	W02
	BYTE	W02
	BYTE	W03
	BYTE	W02
	BYTE	W03
	BYTE	W02
	BYTE	W02
	BYTE	W03
	BYTE	W02
	BYTE	W03
	BYTE	W02
	BYTE	W02
	BYTE	W03
	BYTE	W02
	BYTE	W03
	BYTE	W02
	BYTE	W02
	BYTE	W03
	BYTE	W02
	BYTE	W03
	BYTE	W02
// 015   ----------------------------------------
	BYTE	W02
	BYTE	W03
	BYTE	W02
	BYTE	W03
	BYTE	W02
	BYTE	W02
	BYTE	W03
	BYTE	W02
	BYTE	W02
	BYTE	W02
	BYTE	W01
	BYTE		EOT     Dn2 
	BYTE		        An2 
	BYTE	W01
	BYTE	W68
	BYTE	W03
// 016   ----------------------------------------
	BYTE	W96
// 017   ----------------------------------------
	BYTE	W96
// 018   ----------------------------------------
	BYTE	W96
// 019   ----------------------------------------
	BYTE	W96
// 020   ----------------------------------------
	BYTE	W96
// 021   ----------------------------------------
	BYTE	W96
// 022   ----------------------------------------
	BYTE	W96
// 023   ----------------------------------------
	BYTE	W96
// 024   ----------------------------------------
	BYTE	W96
// 025   ----------------------------------------
	BYTE	W96
// 026   ----------------------------------------
	BYTE	W96
// 027   ----------------------------------------
	BYTE	W96
// 028   ----------------------------------------
	BYTE	W96
// 029   ----------------------------------------
	BYTE	W96
// 030   ----------------------------------------
	BYTE	W96
// 031   ----------------------------------------
	BYTE	W96
// 032   ----------------------------------------
	BYTE	W96
// 033   ----------------------------------------
	BYTE	W96
// 034   ----------------------------------------
	BYTE	W96
// 035   ----------------------------------------
	BYTE	W96
// 036   ----------------------------------------
	BYTE	W96
// 037   ----------------------------------------
	BYTE	W96
// 038   ----------------------------------------
	BYTE	W96
// 039   ----------------------------------------
	BYTE	W96
// 040   ----------------------------------------
AweOfShe_5_040:
	BYTE	W72
	BYTE		N18     Gn3   v127
	BYTE		N18     Cn4 
	BYTE	W18
	BYTE		        Fn3 
	BYTE		N18     As3 
	BYTE	W06
	BYTE	PEND
// 041   ----------------------------------------
AweOfShe_5_041:
	BYTE	W12
	BYTE		N12     En3   v127
	BYTE		N12     An3 
	BYTE	W12
	BYTE		N48     En3 
	BYTE		N48     An3 
	BYTE	W48
	BYTE		        Gn3 
	BYTE		N24     As3 
	BYTE	W24
	BYTE	PEND
// 042   ----------------------------------------
AweOfShe_5_042:
	BYTE		N24     Cn4   v127
	BYTE	W24
	BYTE		N48     Fn3 
	BYTE		N48     As3 
	BYTE	W48
	BYTE		        En3 
	BYTE		N48     An3 
	BYTE	W24
	BYTE	PEND
// 043   ----------------------------------------
	BYTE	W24
	BYTE		N96     En3 
	BYTE		N96     Gn3 
	BYTE	W72
// 044   ----------------------------------------
AweOfShe_5_044:
	BYTE	W24
	BYTE		N24     En2   v127
	BYTE		N24     En3 
	BYTE	W24
	BYTE		        Fn2 
	BYTE		N24     Fn3 
	BYTE	W24
	BYTE		        Gn2 
	BYTE		N24     Gn3 
	BYTE	W24
	BYTE	PEND
// 045   ----------------------------------------
	BYTE		        An2 
	BYTE		N24     An3 
	BYTE	W96
// 046   ----------------------------------------
	BYTE	W96
// 047   ----------------------------------------
	BYTE	W96
// 048   ----------------------------------------
	BYTE	PATT
	 POIN2	AweOfShe_5_040
// 049   ----------------------------------------
	BYTE	PATT
	 POIN2	AweOfShe_5_041
// 050   ----------------------------------------
	BYTE	PATT
	 POIN2	AweOfShe_5_042
// 051   ----------------------------------------
	BYTE	W24
	BYTE		N96     En3   v127
	BYTE		N96     Gn3 
	BYTE	W72
// 052   ----------------------------------------
	BYTE	PATT
	 POIN2	AweOfShe_5_044
// 053   ----------------------------------------
	BYTE		N24     An2   v127
	BYTE		N24     An3 
	BYTE	W96
// 054   ----------------------------------------
	BYTE	W96
// 055   ----------------------------------------
AweOfShe_5_055:
	BYTE	W24
	BYTE		N48     Dn2   v127
	BYTE		N48     An2 
	BYTE	W48
	BYTE		        En2 
	BYTE		N48     An2 
	BYTE	W24
	BYTE	PEND
// 056   ----------------------------------------
AweOfShe_5_056:
	BYTE	W24
	BYTE		N48     Gn2   v127
	BYTE		N48     As2 
	BYTE	W48
	BYTE		        Fn2 
	BYTE		N48     An2 
	BYTE	W24
	BYTE	PEND
// 057   ----------------------------------------
AweOfShe_5_057:
	BYTE	W24
	BYTE		TIE     An2   v127
	BYTE	W72
	BYTE	PEND
// 058   ----------------------------------------
	BYTE	W96
// 059   ----------------------------------------
	BYTE	W24
	BYTE		N96     Fs2 
	BYTE	W72
// 060   ----------------------------------------
	BYTE	W24
	BYTE		EOT     An2 
	BYTE		N48     Gn2 
	BYTE		N48     As2 
	BYTE	W48
	BYTE		N24     Gn2 
	BYTE		N24     As2 
	BYTE	W24
// 061   ----------------------------------------
AweOfShe_5_061:
	BYTE		N24     Fn2   v127
	BYTE		N24     An2 
	BYTE	W24
	BYTE		N48     En2 
	BYTE		N48     Gn2 
	BYTE	W48
	BYTE		        An2 
	BYTE	W24
	BYTE	PEND
// 062   ----------------------------------------
AweOfShe_5_062:
	BYTE	W24
	BYTE		N24     Dn2   v127
	BYTE		N24     Dn3 
	BYTE	W24
	BYTE		        En2 
	BYTE		N24     En3 
	BYTE	W24
	BYTE		        Fn2 
	BYTE		N24     Fn3 
	BYTE	W24
	BYTE	PEND
// 063   ----------------------------------------
AweOfShe_5_063:
	BYTE		N24     Gn2   v127
	BYTE		N24     Gn3 
	BYTE	W24
	BYTE		N48     As2 
	BYTE	W48
	BYTE		        Bn2 
	BYTE	W24
	BYTE	PEND
// 064   ----------------------------------------
	BYTE	W24
	BYTE		N96     An2 
	BYTE	W72
// 065   ----------------------------------------
	BYTE	W96
// 066   ----------------------------------------
	BYTE	W96
// 067   ----------------------------------------
	BYTE	W96
// 068   ----------------------------------------
	BYTE	W96
// 069   ----------------------------------------
	BYTE	W96
// 070   ----------------------------------------
	BYTE	W96
// 071   ----------------------------------------
	BYTE	W96
// 072   ----------------------------------------
	BYTE	W96
// 073   ----------------------------------------
	BYTE	W96
// 074   ----------------------------------------
	BYTE	W96
// 075   ----------------------------------------
	BYTE	W96
// 076   ----------------------------------------
	BYTE	W96
// 077   ----------------------------------------
	BYTE	W96
// 078   ----------------------------------------
	BYTE	W96
// 079   ----------------------------------------
	BYTE	W96
// 080   ----------------------------------------
	BYTE	W96
// 081   ----------------------------------------
	BYTE	W96
// 082   ----------------------------------------
	BYTE	PATT
	 POIN2	AweOfShe_5_040
// 083   ----------------------------------------
	BYTE	PATT
	 POIN2	AweOfShe_5_041
// 084   ----------------------------------------
	BYTE	PATT
	 POIN2	AweOfShe_5_042
// 085   ----------------------------------------
	BYTE	W24
	BYTE		N96     En3   v127
	BYTE		N96     Gn3 
	BYTE	W72
// 086   ----------------------------------------
	BYTE	PATT
	 POIN2	AweOfShe_5_044
// 087   ----------------------------------------
	BYTE		N24     An2   v127
	BYTE		N24     An3 
	BYTE	W96
// 088   ----------------------------------------
	BYTE	W96
// 089   ----------------------------------------
	BYTE	W96
// 090   ----------------------------------------
	BYTE	PATT
	 POIN2	AweOfShe_5_040
// 091   ----------------------------------------
	BYTE	PATT
	 POIN2	AweOfShe_5_041
// 092   ----------------------------------------
	BYTE	PATT
	 POIN2	AweOfShe_5_042
// 093   ----------------------------------------
	BYTE	W24
	BYTE		N96     En3   v127
	BYTE		N96     Gn3 
	BYTE	W72
// 094   ----------------------------------------
	BYTE	PATT
	 POIN2	AweOfShe_5_044
// 095   ----------------------------------------
	BYTE		N24     An2   v127
	BYTE		N24     An3 
	BYTE	W96
// 096   ----------------------------------------
	BYTE	W96
// 097   ----------------------------------------
	BYTE	PATT
	 POIN2	AweOfShe_5_055
// 098   ----------------------------------------
	BYTE	PATT
	 POIN2	AweOfShe_5_056
// 099   ----------------------------------------
	BYTE	PATT
	 POIN2	AweOfShe_5_057
// 100   ----------------------------------------
	BYTE	W96
// 101   ----------------------------------------
	BYTE	W24
	BYTE		N96     Fs2   v127
	BYTE	W72
// 102   ----------------------------------------
	BYTE	W24
	BYTE		EOT     An2 
	BYTE		N48     Gn2 
	BYTE		N48     As2 
	BYTE	W48
	BYTE		N24     Gn2 
	BYTE		N24     As2 
	BYTE	W24
// 103   ----------------------------------------
	BYTE	PATT
	 POIN2	AweOfShe_5_061
// 104   ----------------------------------------
	BYTE	PATT
	 POIN2	AweOfShe_5_062
// 105   ----------------------------------------
	BYTE	PATT
	 POIN2	AweOfShe_5_063
// 106   ----------------------------------------
	BYTE	W24
	BYTE		N96     An2   v127
	BYTE	W72
// 107   ----------------------------------------
	BYTE	W96
// 108   ----------------------------------------
	BYTE	W96
// 109   ----------------------------------------
	BYTE	W96
// 110   ----------------------------------------
	BYTE	W96
// 111   ----------------------------------------
	BYTE	W96
// 112   ----------------------------------------
	BYTE	W96
// 113   ----------------------------------------
	BYTE	W96
// 114   ----------------------------------------
	BYTE	W96
// 115   ----------------------------------------
	BYTE	W96
// 116   ----------------------------------------
	BYTE	W96
// 117   ----------------------------------------
	BYTE	W96
// 118   ----------------------------------------
	BYTE	W96
// 119   ----------------------------------------
	BYTE	W96
// 120   ----------------------------------------
	BYTE	W96
// 121   ----------------------------------------
	BYTE	W96
// 122   ----------------------------------------
	BYTE	W96
// 123   ----------------------------------------
	BYTE	W96
// 124   ----------------------------------------
	BYTE	PATT
	 POIN2	AweOfShe_5_040
// 125   ----------------------------------------
	BYTE	PATT
	 POIN2	AweOfShe_5_041
// 126   ----------------------------------------
	BYTE	PATT
	 POIN2	AweOfShe_5_042
// 127   ----------------------------------------
	BYTE	W24
	BYTE		N96     En3   v127
	BYTE		N96     Gn3 
	BYTE	W72
// 128   ----------------------------------------
	BYTE	PATT
	 POIN2	AweOfShe_5_044
// 129   ----------------------------------------
	BYTE		N24     An2   v127
	BYTE		N24     An3 
	BYTE	W96
// 130   ----------------------------------------
	BYTE	W96
// 131   ----------------------------------------
	BYTE	W96
// 132   ----------------------------------------
	BYTE	PATT
	 POIN2	AweOfShe_5_040
// 133   ----------------------------------------
	BYTE	PATT
	 POIN2	AweOfShe_5_041
// 134   ----------------------------------------
	BYTE	PATT
	 POIN2	AweOfShe_5_042
// 135   ----------------------------------------
	BYTE	W24
	BYTE		N96     En3   v127
	BYTE		N96     Gn3 
	BYTE	W72
// 136   ----------------------------------------
	BYTE	PATT
	 POIN2	AweOfShe_5_044
// 137   ----------------------------------------
	BYTE		N24     An2   v127
	BYTE		N24     An3 
	BYTE	W96
// 138   ----------------------------------------
	BYTE	W96
// 139   ----------------------------------------
	BYTE	PATT
	 POIN2	AweOfShe_5_055
// 140   ----------------------------------------
	BYTE	PATT
	 POIN2	AweOfShe_5_056
// 141   ----------------------------------------
	BYTE	W24
	BYTE		N48     Gn2   v127
	BYTE		TIE     An2 
	BYTE	W48
	BYTE		N24     Fn2 
	BYTE	W24
// 142   ----------------------------------------
	BYTE		        En2 
	BYTE	W24
	BYTE		TIE     Dn2 
	BYTE	W72
// 143   ----------------------------------------
	BYTE	W96
// 144   ----------------------------------------
	BYTE	W24
	BYTE		EOT   
	BYTE		EOT     An2 
	BYTE	FINE

//**************** Track 6 (Midi-Chn.3) ****************//

AweOfShe_6:
	BYTE	KEYSH   AweOfShe_key+0
// 000   ----------------------------------------
	BYTE		VOICE   89
	BYTE	W12
	BYTE		VOL     80*AweOfShe_mvl/mxv
	BYTE	W03
	BYTE		PAN     c_v+0
	BYTE	W03
	BYTE	W06
	BYTE		        c_v+0
	BYTE	W72
// 001   ----------------------------------------
	BYTE	W96
// 002   ----------------------------------------
	BYTE	W96
// 003   ----------------------------------------
	BYTE	W96
// 004   ----------------------------------------
	BYTE	W48
	BYTE		N12     Fn3   v127
	BYTE	W12
	BYTE		        En3 
	BYTE	W12
	BYTE		N96     Dn3 
	BYTE		N96     Fn3 
	BYTE	W24
// 005   ----------------------------------------
	BYTE		N12     An2 
	BYTE	W12
	BYTE		        Gn2 
	BYTE	W12
	BYTE		N24     An2 
	BYTE	W24
	BYTE		        Dn2 
	BYTE		N24     Cn3 
	BYTE	W24
	BYTE		        Cn2 
	BYTE		N24     Cn3 
	BYTE		N24     En3 
	BYTE	W24
// 006   ----------------------------------------
	BYTE		        Dn2 
	BYTE		N24     Dn3 
	BYTE		N24     Fn3 
	BYTE	W24
	BYTE		N12     En2 
	BYTE		N12     En3 
	BYTE		N12     Gn3 
	BYTE	W12
	BYTE		        Fn2 
	BYTE		N12     Fn3 
	BYTE		N12     An3 
	BYTE	W12
	BYTE		N72     Fn2 
	BYTE		N72     Fn3 
	BYTE		N72     An3 
	BYTE	W48
// 007   ----------------------------------------
	BYTE	W24
	BYTE		N24     Fn2 
	BYTE		N72     As2 
	BYTE	W24
	BYTE		N24     En2 
	BYTE	W24
	BYTE		        Dn2 
	BYTE	W24
// 008   ----------------------------------------
	BYTE		        Cs2 
	BYTE		N12     An2 
	BYTE	W12
	BYTE		        Gn2 
	BYTE	W12
	BYTE		N48     Dn2 
	BYTE		N84     An2 
	BYTE	W48
	BYTE		N48     Cs2 
	BYTE	W24
// 009   ----------------------------------------
	BYTE	W12
	BYTE		N12     As2 
	BYTE	W12
	BYTE		N48     En2 
	BYTE		N48     An2 
	BYTE	W48
	BYTE		        Dn2 
	BYTE		N48     As2 
	BYTE	W24
// 010   ----------------------------------------
	BYTE	W24
	BYTE		N96     Dn2 
	BYTE		N96     An2 
	BYTE	W72
// 011   ----------------------------------------
	BYTE	W24
	BYTE		TIE     Dn2 
	BYTE		TIE     An2 
	BYTE	W72
// 012   ----------------------------------------
	BYTE	W96
// 013   ----------------------------------------
	BYTE	W24
	BYTE	W01
	BYTE	W68
	BYTE	W03
// 014   ----------------------------------------
	BYTE	W05
	BYTE	W02
	BYTE	W03
	BYTE	W02
	BYTE	W02
	BYTE	W03
	BYTE	W02
	BYTE	W03
	BYTE	W02
	BYTE	W02
	BYTE	W03
	BYTE	W02
	BYTE	W03
	BYTE	W02
	BYTE	W02
	BYTE	W03
	BYTE	W02
	BYTE	W03
	BYTE	W02
	BYTE	W02
	BYTE	W03
	BYTE	W02
	BYTE	W03
	BYTE	W02
	BYTE	W02
	BYTE	W03
	BYTE	W02
	BYTE	W03
	BYTE	W02
	BYTE	W02
	BYTE	W03
	BYTE	W02
	BYTE	W03
	BYTE	W02
	BYTE	W02
	BYTE	W03
	BYTE	W02
	BYTE	W03
	BYTE	W02
// 015   ----------------------------------------
	BYTE	W02
	BYTE	W03
	BYTE	W02
	BYTE	W03
	BYTE	W02
	BYTE	W02
	BYTE	W03
	BYTE	W02
	BYTE	W02
	BYTE	W02
	BYTE	W01
	BYTE		EOT     Dn2 
	BYTE		        An2 
	BYTE	W01
	BYTE	W68
	BYTE	W03
// 016   ----------------------------------------
	BYTE	W96
// 017   ----------------------------------------
	BYTE	W96
// 018   ----------------------------------------
	BYTE	W96
// 019   ----------------------------------------
	BYTE	W96
// 020   ----------------------------------------
	BYTE	W96
// 021   ----------------------------------------
	BYTE	W96
// 022   ----------------------------------------
	BYTE	W96
// 023   ----------------------------------------
	BYTE	W96
// 024   ----------------------------------------
	BYTE	W96
// 025   ----------------------------------------
	BYTE	W96
// 026   ----------------------------------------
	BYTE	W96
// 027   ----------------------------------------
	BYTE	W96
// 028   ----------------------------------------
	BYTE	W96
// 029   ----------------------------------------
	BYTE	W96
// 030   ----------------------------------------
	BYTE	W96
// 031   ----------------------------------------
	BYTE	W96
// 032   ----------------------------------------
	BYTE	W96
// 033   ----------------------------------------
	BYTE	W96
// 034   ----------------------------------------
	BYTE	W96
// 035   ----------------------------------------
	BYTE	W96
// 036   ----------------------------------------
	BYTE	W96
// 037   ----------------------------------------
	BYTE	W96
// 038   ----------------------------------------
	BYTE	W96
// 039   ----------------------------------------
	BYTE	W96
// 040   ----------------------------------------
AweOfShe_6_040:
	BYTE	W72
	BYTE		N18     Gn3   v127
	BYTE		N18     Cn4 
	BYTE	W18
	BYTE		        Fn3 
	BYTE		N18     As3 
	BYTE	W06
	BYTE	PEND
// 041   ----------------------------------------
AweOfShe_6_041:
	BYTE	W12
	BYTE		N12     En3   v127
	BYTE		N12     An3 
	BYTE	W12
	BYTE		N48     En3 
	BYTE		N48     An3 
	BYTE	W48
	BYTE		        Gn3 
	BYTE		N24     As3 
	BYTE	W24
	BYTE	PEND
// 042   ----------------------------------------
AweOfShe_6_042:
	BYTE		N24     Cn4   v127
	BYTE	W24
	BYTE		N48     Fn3 
	BYTE		N48     As3 
	BYTE	W48
	BYTE		        En3 
	BYTE		N48     An3 
	BYTE	W24
	BYTE	PEND
// 043   ----------------------------------------
	BYTE	W24
	BYTE		N96     En3 
	BYTE		N96     Gn3 
	BYTE	W72
// 044   ----------------------------------------
AweOfShe_6_044:
	BYTE	W24
	BYTE		N24     En2   v127
	BYTE		N24     En3 
	BYTE	W24
	BYTE		        Fn2 
	BYTE		N24     Fn3 
	BYTE	W24
	BYTE		        Gn2 
	BYTE		N24     Gn3 
	BYTE	W24
	BYTE	PEND
// 045   ----------------------------------------
	BYTE		        An2 
	BYTE		N24     An3 
	BYTE	W96
// 046   ----------------------------------------
	BYTE	W96
// 047   ----------------------------------------
	BYTE	W96
// 048   ----------------------------------------
	BYTE	PATT
	 POIN2	AweOfShe_6_040
// 049   ----------------------------------------
	BYTE	PATT
	 POIN2	AweOfShe_6_041
// 050   ----------------------------------------
	BYTE	PATT
	 POIN2	AweOfShe_6_042
// 051   ----------------------------------------
	BYTE	W24
	BYTE		N96     En3   v127
	BYTE		N96     Gn3 
	BYTE	W72
// 052   ----------------------------------------
	BYTE	PATT
	 POIN2	AweOfShe_6_044
// 053   ----------------------------------------
	BYTE		N24     An2   v127
	BYTE		N24     An3 
	BYTE	W96
// 054   ----------------------------------------
	BYTE	W96
// 055   ----------------------------------------
AweOfShe_6_055:
	BYTE	W24
	BYTE		N48     Dn2   v127
	BYTE		N48     An2 
	BYTE	W48
	BYTE		        En2 
	BYTE		N48     An2 
	BYTE	W24
	BYTE	PEND
// 056   ----------------------------------------
AweOfShe_6_056:
	BYTE	W24
	BYTE		N48     Gn2   v127
	BYTE		N48     As2 
	BYTE	W48
	BYTE		        Fn2 
	BYTE		N48     An2 
	BYTE	W24
	BYTE	PEND
// 057   ----------------------------------------
AweOfShe_6_057:
	BYTE	W24
	BYTE		TIE     An2   v127
	BYTE	W72
	BYTE	PEND
// 058   ----------------------------------------
	BYTE	W96
// 059   ----------------------------------------
	BYTE	W24
	BYTE		N96     Fs2 
	BYTE	W72
// 060   ----------------------------------------
	BYTE	W24
	BYTE		EOT     An2 
	BYTE		N48     Gn2 
	BYTE		N48     As2 
	BYTE	W48
	BYTE		N24     Gn2 
	BYTE		N24     As2 
	BYTE	W24
// 061   ----------------------------------------
AweOfShe_6_061:
	BYTE		N24     Fn2   v127
	BYTE		N24     An2 
	BYTE	W24
	BYTE		N48     En2 
	BYTE		N48     Gn2 
	BYTE	W48
	BYTE		        An2 
	BYTE	W24
	BYTE	PEND
// 062   ----------------------------------------
AweOfShe_6_062:
	BYTE	W24
	BYTE		N24     Dn2   v127
	BYTE		N24     Dn3 
	BYTE	W24
	BYTE		        En2 
	BYTE		N24     En3 
	BYTE	W24
	BYTE		        Fn2 
	BYTE		N24     Fn3 
	BYTE	W24
	BYTE	PEND
// 063   ----------------------------------------
AweOfShe_6_063:
	BYTE		N24     Gn2   v127
	BYTE		N24     Gn3 
	BYTE	W24
	BYTE		N48     As2 
	BYTE	W48
	BYTE		        Bn2 
	BYTE	W24
	BYTE	PEND
// 064   ----------------------------------------
	BYTE	W24
	BYTE		N96     An2 
	BYTE	W72
// 065   ----------------------------------------
	BYTE	W96
// 066   ----------------------------------------
	BYTE	W96
// 067   ----------------------------------------
	BYTE	W96
// 068   ----------------------------------------
	BYTE	W96
// 069   ----------------------------------------
	BYTE	W96
// 070   ----------------------------------------
	BYTE	W96
// 071   ----------------------------------------
	BYTE	W96
// 072   ----------------------------------------
	BYTE	W96
// 073   ----------------------------------------
	BYTE	W96
// 074   ----------------------------------------
	BYTE	W96
// 075   ----------------------------------------
	BYTE	W96
// 076   ----------------------------------------
	BYTE	W96
// 077   ----------------------------------------
	BYTE	W96
// 078   ----------------------------------------
	BYTE	W96
// 079   ----------------------------------------
	BYTE	W96
// 080   ----------------------------------------
	BYTE	W96
// 081   ----------------------------------------
	BYTE	W96
// 082   ----------------------------------------
	BYTE	PATT
	 POIN2	AweOfShe_6_040
// 083   ----------------------------------------
	BYTE	PATT
	 POIN2	AweOfShe_6_041
// 084   ----------------------------------------
	BYTE	PATT
	 POIN2	AweOfShe_6_042
// 085   ----------------------------------------
	BYTE	W24
	BYTE		N96     En3   v127
	BYTE		N96     Gn3 
	BYTE	W72
// 086   ----------------------------------------
	BYTE	PATT
	 POIN2	AweOfShe_6_044
// 087   ----------------------------------------
	BYTE		N24     An2   v127
	BYTE		N24     An3 
	BYTE	W96
// 088   ----------------------------------------
	BYTE	W96
// 089   ----------------------------------------
	BYTE	W96
// 090   ----------------------------------------
	BYTE	PATT
	 POIN2	AweOfShe_6_040
// 091   ----------------------------------------
	BYTE	PATT
	 POIN2	AweOfShe_6_041
// 092   ----------------------------------------
	BYTE	PATT
	 POIN2	AweOfShe_6_042
// 093   ----------------------------------------
	BYTE	W24
	BYTE		N96     En3   v127
	BYTE		N96     Gn3 
	BYTE	W72
// 094   ----------------------------------------
	BYTE	PATT
	 POIN2	AweOfShe_6_044
// 095   ----------------------------------------
	BYTE		N24     An2   v127
	BYTE		N24     An3 
	BYTE	W96
// 096   ----------------------------------------
	BYTE	W96
// 097   ----------------------------------------
	BYTE	PATT
	 POIN2	AweOfShe_6_055
// 098   ----------------------------------------
	BYTE	PATT
	 POIN2	AweOfShe_6_056
// 099   ----------------------------------------
	BYTE	PATT
	 POIN2	AweOfShe_6_057
// 100   ----------------------------------------
	BYTE	W96
// 101   ----------------------------------------
	BYTE	W24
	BYTE		N96     Fs2   v127
	BYTE	W72
// 102   ----------------------------------------
	BYTE	W24
	BYTE		EOT     An2 
	BYTE		N48     Gn2 
	BYTE		N48     As2 
	BYTE	W48
	BYTE		N24     Gn2 
	BYTE		N24     As2 
	BYTE	W24
// 103   ----------------------------------------
	BYTE	PATT
	 POIN2	AweOfShe_6_061
// 104   ----------------------------------------
	BYTE	PATT
	 POIN2	AweOfShe_6_062
// 105   ----------------------------------------
	BYTE	PATT
	 POIN2	AweOfShe_6_063
// 106   ----------------------------------------
	BYTE	W24
	BYTE		N96     An2   v127
	BYTE	W72
// 107   ----------------------------------------
	BYTE	W96
// 108   ----------------------------------------
	BYTE	W96
// 109   ----------------------------------------
	BYTE	W96
// 110   ----------------------------------------
	BYTE	W96
// 111   ----------------------------------------
	BYTE	W96
// 112   ----------------------------------------
	BYTE	W96
// 113   ----------------------------------------
	BYTE	W96
// 114   ----------------------------------------
	BYTE	W96
// 115   ----------------------------------------
	BYTE	W96
// 116   ----------------------------------------
	BYTE	W96
// 117   ----------------------------------------
	BYTE	W96
// 118   ----------------------------------------
	BYTE	W96
// 119   ----------------------------------------
	BYTE	W96
// 120   ----------------------------------------
	BYTE	W96
// 121   ----------------------------------------
	BYTE	W96
// 122   ----------------------------------------
	BYTE	W96
// 123   ----------------------------------------
	BYTE	W96
// 124   ----------------------------------------
	BYTE	PATT
	 POIN2	AweOfShe_6_040
// 125   ----------------------------------------
	BYTE	PATT
	 POIN2	AweOfShe_6_041
// 126   ----------------------------------------
	BYTE	PATT
	 POIN2	AweOfShe_6_042
// 127   ----------------------------------------
	BYTE	W24
	BYTE		N96     En3   v127
	BYTE		N96     Gn3 
	BYTE	W72
// 128   ----------------------------------------
	BYTE	PATT
	 POIN2	AweOfShe_6_044
// 129   ----------------------------------------
	BYTE		N24     An2   v127
	BYTE		N24     An3 
	BYTE	W96
// 130   ----------------------------------------
	BYTE	W96
// 131   ----------------------------------------
	BYTE	W96
// 132   ----------------------------------------
	BYTE	PATT
	 POIN2	AweOfShe_6_040
// 133   ----------------------------------------
	BYTE	PATT
	 POIN2	AweOfShe_6_041
// 134   ----------------------------------------
	BYTE	PATT
	 POIN2	AweOfShe_6_042
// 135   ----------------------------------------
	BYTE	W24
	BYTE		N96     En3   v127
	BYTE		N96     Gn3 
	BYTE	W72
// 136   ----------------------------------------
	BYTE	PATT
	 POIN2	AweOfShe_6_044
// 137   ----------------------------------------
	BYTE		N24     An2   v127
	BYTE		N24     An3 
	BYTE	W96
// 138   ----------------------------------------
	BYTE	W96
// 139   ----------------------------------------
	BYTE	PATT
	 POIN2	AweOfShe_6_055
// 140   ----------------------------------------
	BYTE	PATT
	 POIN2	AweOfShe_6_056
// 141   ----------------------------------------
	BYTE	W24
	BYTE		N48     Gn2   v127
	BYTE		TIE     An2 
	BYTE	W48
	BYTE		N24     Fn2 
	BYTE	W24
// 142   ----------------------------------------
	BYTE		        En2 
	BYTE	W24
	BYTE		TIE     Dn2 
	BYTE	W72
// 143   ----------------------------------------
	BYTE	W96
// 144   ----------------------------------------
	BYTE	W24
	BYTE		EOT   
	BYTE		EOT     An2 
	BYTE	FINE

//**************** Track 7 (Midi-Chn.4) ****************//

AweOfShe_7:
	BYTE	KEYSH   AweOfShe_key+0
// 000   ----------------------------------------
	BYTE		VOICE   0
	BYTE	W12
	BYTE		VOL     100*AweOfShe_mvl/mxv
	BYTE	W03
	BYTE		PAN     c_v+0
	BYTE	W03
	BYTE	W06
	BYTE		        c_v+0
	BYTE	W72
// 001   ----------------------------------------
	BYTE	W96
// 002   ----------------------------------------
	BYTE	W96
// 003   ----------------------------------------
	BYTE	W96
// 004   ----------------------------------------
	BYTE	W96
// 005   ----------------------------------------
	BYTE	W96
// 006   ----------------------------------------
	BYTE	W96
// 007   ----------------------------------------
	BYTE	W96
// 008   ----------------------------------------
	BYTE	W96
// 009   ----------------------------------------
	BYTE	W96
// 010   ----------------------------------------
	BYTE	W96
// 011   ----------------------------------------
	BYTE	W24
	BYTE		N12     Fn4   v127
	BYTE	W12
	BYTE		        Dn3 
	BYTE	W12
	BYTE		        Fn4 
	BYTE	W12
	BYTE		        Dn3 
	BYTE	W12
	BYTE		        Gn4 
	BYTE	W12
	BYTE		        Dn3 
	BYTE	W12
// 012   ----------------------------------------
AweOfShe_7_012:
	BYTE		N12     Gn4   v127
	BYTE	W12
	BYTE		N18     Dn3 
	BYTE	W12
	BYTE		N12     En4 
	BYTE	W12
	BYTE		        Dn3 
	BYTE	W12
	BYTE		        En4 
	BYTE	W12
	BYTE		        Dn3 
	BYTE	W12
	BYTE		        Fn4 
	BYTE	W12
	BYTE		        Dn3 
	BYTE	W12
	BYTE	PEND
// 013   ----------------------------------------
AweOfShe_7_013:
	BYTE		N12     Fn4   v127
	BYTE	W12
	BYTE		N18     Dn3 
	BYTE	W12
	BYTE		N12     Dn4 
	BYTE	W12
	BYTE		        Dn3 
	BYTE	W12
	BYTE		        Dn4 
	BYTE	W12
	BYTE		        Dn3 
	BYTE	W12
	BYTE		        En4 
	BYTE	W12
	BYTE		        Dn3 
	BYTE	W12
	BYTE	PEND
// 014   ----------------------------------------
AweOfShe_7_014:
	BYTE		N12     En4   v127
	BYTE	W12
	BYTE		N18     Dn3 
	BYTE	W12
	BYTE		N06     Cs4 
	BYTE	W12
	BYTE		N12     Dn3 
	BYTE	W12
	BYTE		        Dn4 
	BYTE	W12
	BYTE		        Dn3 
	BYTE	W12
	BYTE		        En4 
	BYTE	W12
	BYTE		        Dn3 
	BYTE	W12
	BYTE	PEND
// 015   ----------------------------------------
	BYTE		        Fn4 
	BYTE	W12
	BYTE		N18     Dn3 
	BYTE	W12
	BYTE		N06     Fn4 
	BYTE	W12
	BYTE		N12     Dn3 
	BYTE	W12
	BYTE		        Fn4 
	BYTE	W12
	BYTE		        Dn3 
	BYTE	W12
	BYTE		        Gn4 
	BYTE	W12
	BYTE		        Dn3 
	BYTE	W12
// 016   ----------------------------------------
	BYTE	PATT
	 POIN2	AweOfShe_7_012
// 017   ----------------------------------------
	BYTE	PATT
	 POIN2	AweOfShe_7_013
// 018   ----------------------------------------
	BYTE	PATT
	 POIN2	AweOfShe_7_014
// 019   ----------------------------------------
	BYTE		N12     Fn4   v127
	BYTE	W12
	BYTE		N18     Dn3 
	BYTE	W18
	BYTE	FINE

//**************** Track 8 (Midi-Chn.3) ****************//

AweOfShe_8:
	BYTE	KEYSH   AweOfShe_key+0
// 000   ----------------------------------------
	BYTE		VOICE   89
	BYTE		VOL     127*AweOfShe_mvl/mxv
	BYTE	W15
	BYTE		PAN     c_v+0
	BYTE	W03
	BYTE	W06
	BYTE		        c_v+0
	BYTE	W72
// 001   ----------------------------------------
	BYTE	W96
// 002   ----------------------------------------
	BYTE	W96
// 003   ----------------------------------------
	BYTE	W96
// 004   ----------------------------------------
	BYTE	W96
// 005   ----------------------------------------
	BYTE	W96
// 006   ----------------------------------------
	BYTE	W96
// 007   ----------------------------------------
	BYTE	W96
// 008   ----------------------------------------
	BYTE	W96
// 009   ----------------------------------------
	BYTE	W96
// 010   ----------------------------------------
	BYTE	W96
// 011   ----------------------------------------
	BYTE	W24
	BYTE		N12     Fn4   v127
	BYTE	W12
	BYTE		        Dn3 
	BYTE	W12
	BYTE		        Fn4 
	BYTE	W12
	BYTE		        Dn3 
	BYTE	W12
	BYTE		        Gn4 
	BYTE	W12
	BYTE		        Dn3 
	BYTE	W12
// 012   ----------------------------------------
AweOfShe_8_012:
	BYTE		N12     Gn4   v127
	BYTE	W12
	BYTE		N18     Dn3 
	BYTE	W12
	BYTE		N12     En4 
	BYTE	W12
	BYTE		        Dn3 
	BYTE	W12
	BYTE		        En4 
	BYTE	W12
	BYTE		        Dn3 
	BYTE	W12
	BYTE		        Fn4 
	BYTE	W12
	BYTE		        Dn3 
	BYTE	W12
	BYTE	PEND
// 013   ----------------------------------------
AweOfShe_8_013:
	BYTE		N12     Fn4   v127
	BYTE	W12
	BYTE		N18     Dn3 
	BYTE	W12
	BYTE		N12     Dn4 
	BYTE	W12
	BYTE		        Dn3 
	BYTE	W12
	BYTE		        Dn4 
	BYTE	W12
	BYTE		        Dn3 
	BYTE	W12
	BYTE		        En4 
	BYTE	W12
	BYTE		        Dn3 
	BYTE	W12
	BYTE	PEND
// 014   ----------------------------------------
AweOfShe_8_014:
	BYTE		N12     En4   v127
	BYTE	W12
	BYTE		N18     Dn3 
	BYTE	W12
	BYTE		N06     Cs4 
	BYTE	W12
	BYTE		N12     Dn3 
	BYTE	W12
	BYTE		        Dn4 
	BYTE	W12
	BYTE		        Dn3 
	BYTE	W12
	BYTE		        En4 
	BYTE	W12
	BYTE		        Dn3 
	BYTE	W12
	BYTE	PEND
// 015   ----------------------------------------
	BYTE		        Fn4 
	BYTE	W12
	BYTE		N18     Dn3 
	BYTE	W12
	BYTE		N06     Fn4 
	BYTE	W12
	BYTE		N12     Dn3 
	BYTE	W12
	BYTE		        Fn4 
	BYTE	W12
	BYTE		        Dn3 
	BYTE	W12
	BYTE		        Gn4 
	BYTE	W12
	BYTE		        Dn3 
	BYTE	W12
// 016   ----------------------------------------
	BYTE	PATT
	 POIN2	AweOfShe_8_012
// 017   ----------------------------------------
	BYTE	PATT
	 POIN2	AweOfShe_8_013
// 018   ----------------------------------------
	BYTE	PATT
	 POIN2	AweOfShe_8_014
// 019   ----------------------------------------
	BYTE		N12     Fn4   v127
	BYTE	W12
	BYTE		N18     Dn3 
	BYTE	W18
	BYTE	FINE

//**************** Track 9 (Midi-Chn.6) ****************//

AweOfShe_9:
	BYTE	KEYSH   AweOfShe_key+0
// 000   ----------------------------------------
	BYTE		VOICE   19
	BYTE		VOL     73*AweOfShe_mvl/mxv
	BYTE	W15
	BYTE		PAN     c_v+0
	BYTE	W03
	BYTE	W06
	BYTE		        c_v+0
	BYTE	W72
// 001   ----------------------------------------
	BYTE	W96
// 002   ----------------------------------------
	BYTE	W96
// 003   ----------------------------------------
	BYTE	W96
// 004   ----------------------------------------
	BYTE	W96
// 005   ----------------------------------------
	BYTE	W96
// 006   ----------------------------------------
	BYTE	W96
// 007   ----------------------------------------
	BYTE	W96
// 008   ----------------------------------------
	BYTE	W96
// 009   ----------------------------------------
	BYTE	W96
// 010   ----------------------------------------
	BYTE	W96
// 011   ----------------------------------------
	BYTE	W96
// 012   ----------------------------------------
	BYTE	W96
// 013   ----------------------------------------
	BYTE	W96
// 014   ----------------------------------------
	BYTE	W96
// 015   ----------------------------------------
	BYTE	W24
	BYTE		        c_v+56
	BYTE		N24     Dn5   v127
	BYTE		N24     Fn5 
	BYTE	W24
	BYTE		PAN     c_v+21
	BYTE		N24     Dn5 
	BYTE		N24     Fn5 
	BYTE	W23
	BYTE		PAN     c_v-15
	BYTE	W01
	BYTE		        c_v-23
	BYTE		N24     En5 
	BYTE		N24     Gn5 
	BYTE	W24
// 016   ----------------------------------------
	BYTE		PAN     c_v-56
	BYTE		N24     En5 
	BYTE		N24     Gn5 
	BYTE	W02
	BYTE		PAN     c_v-55
	BYTE	W22
	BYTE		        c_v-55
	BYTE		N24     Cs5 
	BYTE		N24     En5 
	BYTE	W23
	BYTE		PAN     c_v-22
	BYTE	W01
	BYTE		N24     Cs5 
	BYTE		N24     En5 
	BYTE	W24
	BYTE		PAN     c_v+22
	BYTE		N24     Dn5 
	BYTE		N24     Fn5 
	BYTE	W24
// 017   ----------------------------------------
	BYTE		PAN     c_v+54
	BYTE		N24     Dn5 
	BYTE		N24     Fn5 
	BYTE	W02
	BYTE		PAN     c_v+55
	BYTE	W22
	BYTE		N24     An4 
	BYTE		N24     Dn5 
	BYTE	W24
	BYTE		PAN     c_v+25
	BYTE		N24     An4 
	BYTE		N24     Dn5 
	BYTE	W24
	BYTE		PAN     c_v-25
	BYTE		N24     Cs5 
	BYTE		N24     En5 
	BYTE	W24
// 018   ----------------------------------------
	BYTE		PAN     c_v-58
	BYTE		N24     Cs5 
	BYTE		N24     En5 
	BYTE	W01
	BYTE		PAN     c_v-57
	BYTE	W04
	BYTE		        c_v-56
	BYTE	W19
	BYTE		N24     Gs4 
	BYTE		N24     Cs5 
	BYTE	W24
	BYTE		PAN     c_v-26
	BYTE		N24     An4 
	BYTE		N24     Dn5 
	BYTE	W24
	BYTE		PAN     c_v+27
	BYTE		N24     Cs5 
	BYTE		N24     En5 
	BYTE	W24
// 019   ----------------------------------------
	BYTE		PAN     c_v+53
	BYTE		N24     Dn5 
	BYTE		N24     Fn5 
	BYTE	W24
	BYTE		PAN     c_v+0
	BYTE	W72
// 020   ----------------------------------------
	BYTE	W96
// 021   ----------------------------------------
	BYTE	W96
// 022   ----------------------------------------
	BYTE	W96
// 023   ----------------------------------------
	BYTE	W24
	BYTE		N09     Fn5   v104
	BYTE	W12
	BYTE		N09   
	BYTE	W12
	BYTE		        Gn5 
	BYTE	W12
	BYTE		N09   
	BYTE	W12
	BYTE		        En5 
	BYTE	W12
	BYTE		N09   
	BYTE	W12
// 024   ----------------------------------------
AweOfShe_9_024:
	BYTE		N09     Fn5   v104
	BYTE	W12
	BYTE		N09   
	BYTE	W12
	BYTE		        Dn5 
	BYTE	W12
	BYTE		N09   
	BYTE	W12
	BYTE		        En5 
	BYTE	W12
	BYTE		N09   
	BYTE	W12
	BYTE		        Cs5 
	BYTE	W12
	BYTE		        Dn5 
	BYTE	W12
	BYTE	PEND
// 025   ----------------------------------------
AweOfShe_9_025:
	BYTE		N09     En5   v104
	BYTE	W12
	BYTE		        Fn5 
	BYTE	W12
	BYTE		N09   
	BYTE	W12
	BYTE		N09   
	BYTE	W12
	BYTE		        Gn5 
	BYTE	W12
	BYTE		N09   
	BYTE	W12
	BYTE		        En5 
	BYTE	W12
	BYTE		N09   
	BYTE	W12
	BYTE	PEND
// 026   ----------------------------------------
	BYTE	PATT
	 POIN2	AweOfShe_9_024
// 027   ----------------------------------------
	BYTE		N09     As5   v104
	BYTE	W12
	BYTE		        An5 
	BYTE	W12
	BYTE		        Fn5 
	BYTE	W12
	BYTE		N09   
	BYTE	W12
	BYTE		        Gn5 
	BYTE	W12
	BYTE		N09   
	BYTE	W12
	BYTE		        En5 
	BYTE	W12
	BYTE		N09   
	BYTE	W12
// 028   ----------------------------------------
	BYTE	PATT
	 POIN2	AweOfShe_9_024
// 029   ----------------------------------------
	BYTE	PATT
	 POIN2	AweOfShe_9_025
// 030   ----------------------------------------
	BYTE	PATT
	 POIN2	AweOfShe_9_024
// 031   ----------------------------------------
	BYTE		N09     As5   v104
	BYTE	W12
	BYTE		        An5 
	BYTE	W84
// 032   ----------------------------------------
	BYTE	W96
// 033   ----------------------------------------
	BYTE	W96
// 034   ----------------------------------------
	BYTE	W96
// 035   ----------------------------------------
	BYTE	W96
// 036   ----------------------------------------
	BYTE	W96
// 037   ----------------------------------------
	BYTE	W96
// 038   ----------------------------------------
	BYTE	W96
// 039   ----------------------------------------
AweOfShe_9_039:
	BYTE	W24
	BYTE		N06     As4   v127
	BYTE	W06
	BYTE		        Fn5 
	BYTE	W06
	BYTE		        En5 
	BYTE	W06
	BYTE		        Fn5 
	BYTE	W06
	BYTE		        As4 
	BYTE	W06
	BYTE		        Fn5 
	BYTE	W06
	BYTE		        En5 
	BYTE	W06
	BYTE		        Fn5 
	BYTE	W06
	BYTE		        As4 
	BYTE	W06
	BYTE		        Fn5 
	BYTE	W06
	BYTE		        En5 
	BYTE	W06
	BYTE		        Fn5 
	BYTE	W06
	BYTE	PEND
// 040   ----------------------------------------
AweOfShe_9_040:
	BYTE		N06     As4   v127
	BYTE	W06
	BYTE		        Fn5 
	BYTE	W06
	BYTE		        En5 
	BYTE	W06
	BYTE		        Fn5 
	BYTE	W06
	BYTE		        An4 
	BYTE	W06
	BYTE		        En5 
	BYTE	W06
	BYTE		        Dn5 
	BYTE	W06
	BYTE		        En5 
	BYTE	W06
	BYTE		        An4 
	BYTE	W06
	BYTE		        En5 
	BYTE	W06
	BYTE		        Dn5 
	BYTE	W06
	BYTE		        En5 
	BYTE	W06
	BYTE		        An4 
	BYTE	W06
	BYTE		        En5 
	BYTE	W06
	BYTE		        Dn5 
	BYTE	W06
	BYTE		        En5 
	BYTE	W06
	BYTE	PEND
// 041   ----------------------------------------
AweOfShe_9_041:
	BYTE		N06     An4   v127
	BYTE	W06
	BYTE		        En5 
	BYTE	W06
	BYTE		        Dn5 
	BYTE	W06
	BYTE		        En5 
	BYTE	W06
	BYTE		        An4 
	BYTE	W06
	BYTE		        En5 
	BYTE	W06
	BYTE		        Dn5 
	BYTE	W06
	BYTE		        En5 
	BYTE	W06
	BYTE		        An4 
	BYTE	W06
	BYTE		        En5 
	BYTE	W06
	BYTE		        Dn5 
	BYTE	W06
	BYTE		        En5 
	BYTE	W06
	BYTE		        An4 
	BYTE	W06
	BYTE		        En5 
	BYTE	W06
	BYTE		        Dn5 
	BYTE	W06
	BYTE		        En5 
	BYTE	W06
	BYTE	PEND
// 042   ----------------------------------------
AweOfShe_9_042:
	BYTE		N06     An4   v127
	BYTE	W06
	BYTE		        En5 
	BYTE	W06
	BYTE		        Dn5 
	BYTE	W06
	BYTE		        En5 
	BYTE	W06
	BYTE		        Fn4 
	BYTE	W06
	BYTE		        Dn5 
	BYTE	W06
	BYTE		        Cn5 
	BYTE	W06
	BYTE		        Dn5 
	BYTE	W06
	BYTE		        Fn4 
	BYTE	W06
	BYTE		        Dn5 
	BYTE	W06
	BYTE		        Cn5 
	BYTE	W06
	BYTE		        Dn5 
	BYTE	W06
	BYTE		        Fn4 
	BYTE	W06
	BYTE		        Dn5 
	BYTE	W06
	BYTE		        Cn5 
	BYTE	W06
	BYTE		        Dn5 
	BYTE	W06
	BYTE	PEND
// 043   ----------------------------------------
AweOfShe_9_043:
	BYTE		N06     Fn4   v127
	BYTE	W06
	BYTE		        Dn5 
	BYTE	W06
	BYTE		        Cn5 
	BYTE	W06
	BYTE		        Dn5 
	BYTE	W06
	BYTE		        En4 
	BYTE	W06
	BYTE		        Dn5 
	BYTE	W06
	BYTE		        Cn5 
	BYTE	W06
	BYTE		        Dn5 
	BYTE	W06
	BYTE		        En4 
	BYTE	W06
	BYTE		        Dn5 
	BYTE	W06
	BYTE		        Cn5 
	BYTE	W06
	BYTE		        Dn5 
	BYTE	W06
	BYTE		        En4 
	BYTE	W06
	BYTE		        Dn5 
	BYTE	W06
	BYTE		        Cn5 
	BYTE	W06
	BYTE		        Dn5 
	BYTE	W06
	BYTE	PEND
// 044   ----------------------------------------
AweOfShe_9_044:
	BYTE		N06     En4   v127
	BYTE	W06
	BYTE		        Dn5 
	BYTE	W06
	BYTE		        Cn5 
	BYTE	W06
	BYTE		        Dn5 
	BYTE	W06
	BYTE		N06   
	BYTE	W06
	BYTE		        Cs5 
	BYTE	W06
	BYTE		        Bn4 
	BYTE	W06
	BYTE		        Cs5 
	BYTE	W06
	BYTE		        Dn5 
	BYTE	W06
	BYTE		        Cs5 
	BYTE	W06
	BYTE		        Bn4 
	BYTE	W06
	BYTE		        Cs5 
	BYTE	W06
	BYTE		        Dn5 
	BYTE	W06
	BYTE		        Cs5 
	BYTE	W06
	BYTE		        Bn4 
	BYTE	W06
	BYTE		        Cs5 
	BYTE	W06
	BYTE	PEND
// 045   ----------------------------------------
AweOfShe_9_045:
	BYTE		N06     Dn5   v127
	BYTE	W06
	BYTE		        Cs5 
	BYTE	W06
	BYTE		        Bn4 
	BYTE	W06
	BYTE		        Cs5 
	BYTE	W06
	BYTE		        Gn4 
	BYTE	W06
	BYTE		        Dn5 
	BYTE	W06
	BYTE		        Cs5 
	BYTE	W06
	BYTE		        Dn5 
	BYTE	W06
	BYTE		        Gn4 
	BYTE	W06
	BYTE		        Dn5 
	BYTE	W06
	BYTE		        Cs5 
	BYTE	W06
	BYTE		        Dn5 
	BYTE	W06
	BYTE		        An4 
	BYTE	W06
	BYTE		        En5 
	BYTE	W06
	BYTE		        Dn5 
	BYTE	W06
	BYTE		        En5 
	BYTE	W06
	BYTE	PEND
// 046   ----------------------------------------
AweOfShe_9_046:
	BYTE		N06     An4   v127
	BYTE	W06
	BYTE		        En5 
	BYTE	W06
	BYTE		        Dn5 
	BYTE	W06
	BYTE		        En5 
	BYTE	W06
	BYTE		        Gn5 
	BYTE	W06
	BYTE		        Fn5 
	BYTE	W06
	BYTE		        En5 
	BYTE	W06
	BYTE		        Dn5 
	BYTE	W06
	BYTE		        Cs5 
	BYTE	W06
	BYTE		        Dn5 
	BYTE	W06
	BYTE		        En5 
	BYTE	W06
	BYTE		        Fn5 
	BYTE	W06
	BYTE		        Gn5 
	BYTE	W06
	BYTE		        Fn5 
	BYTE	W06
	BYTE		        As5 
	BYTE	W06
	BYTE		N30     An5 
	BYTE	W06
	BYTE	PEND
// 047   ----------------------------------------
	BYTE	PATT
	 POIN2	AweOfShe_9_039
// 048   ----------------------------------------
	BYTE	PATT
	 POIN2	AweOfShe_9_040
// 049   ----------------------------------------
	BYTE	PATT
	 POIN2	AweOfShe_9_041
// 050   ----------------------------------------
	BYTE	PATT
	 POIN2	AweOfShe_9_042
// 051   ----------------------------------------
	BYTE	PATT
	 POIN2	AweOfShe_9_043
// 052   ----------------------------------------
	BYTE	PATT
	 POIN2	AweOfShe_9_044
// 053   ----------------------------------------
	BYTE	PATT
	 POIN2	AweOfShe_9_045
// 054   ----------------------------------------
AweOfShe_9_054:
	BYTE		N06     An4   v127
	BYTE	W06
	BYTE		        En5 
	BYTE	W06
	BYTE		        Dn5 
	BYTE	W06
	BYTE		        En5 
	BYTE	W06
	BYTE		        Gn5 
	BYTE	W06
	BYTE		        Fn5 
	BYTE	W06
	BYTE		        En5 
	BYTE	W06
	BYTE		        Dn5 
	BYTE	W06
	BYTE		        Cs5 
	BYTE	W06
	BYTE		        Dn5 
	BYTE	W06
	BYTE		        En5 
	BYTE	W06
	BYTE		        Fn5 
	BYTE	W06
	BYTE		        Fs5 
	BYTE	W06
	BYTE		        Dn5 
	BYTE	W06
	BYTE		        Fs5 
	BYTE	W06
	BYTE		        An5 
	BYTE	W06
	BYTE	PEND
// 055   ----------------------------------------
AweOfShe_9_055:
	BYTE		N06     As5   v127
	BYTE	W06
	BYTE		        An5 
	BYTE	W06
	BYTE		        Gn5 
	BYTE	W06
	BYTE		        Fs5 
	BYTE	W78
	BYTE	PEND
// 056   ----------------------------------------
	BYTE	W96
// 057   ----------------------------------------
AweOfShe_9_057:
	BYTE	W24
	BYTE		N30     Dn5   v127
	BYTE	W30
	BYTE		N06     An4 
	BYTE	W06
	BYTE		        Dn5 
	BYTE	W06
	BYTE		        En5 
	BYTE	W06
	BYTE		N12     Fn5 
	BYTE	W12
	BYTE		N06     Gn5 
	BYTE	W06
	BYTE		        Fn5 
	BYTE	W06
	BYTE	PEND
// 058   ----------------------------------------
AweOfShe_9_058:
	BYTE		N18     En5   v127
	BYTE	W18
	BYTE		N06     Fn5 
	BYTE	W06
	BYTE		N24     En5 
	BYTE	W24
	BYTE		        An4 
	BYTE	W24
	BYTE		N36     An5 
	BYTE	W24
	BYTE	PEND
// 059   ----------------------------------------
AweOfShe_9_059:
	BYTE	W12
	BYTE		N06     An5   v127
	BYTE	W06
	BYTE		        Gn5 
	BYTE	W06
	BYTE		N36     Fs5 
	BYTE	W36
	BYTE		N06     Dn5 
	BYTE	W06
	BYTE		        Fs5 
	BYTE	W06
	BYTE		        An5 
	BYTE	W06
	BYTE		        Dn5 
	BYTE	W06
	BYTE		        Fs5 
	BYTE	W06
	BYTE		        An5 
	BYTE	W06
	BYTE	PEND
// 060   ----------------------------------------
AweOfShe_9_060:
	BYTE		N06     Fs5   v127
	BYTE	W06
	BYTE		        An5 
	BYTE	W06
	BYTE		        Dn6 
	BYTE	W06
	BYTE		        An5 
	BYTE	W06
	BYTE		N36     Cn6 
	BYTE	W36
	BYTE		N06     Dn6 
	BYTE	W06
	BYTE		        Cn6 
	BYTE	W06
	BYTE		N36     As5 
	BYTE	W24
	BYTE	PEND
// 061   ----------------------------------------
AweOfShe_9_061:
	BYTE	W12
	BYTE		N12     An5   v127
	BYTE	W12
	BYTE		N30     Gn5 
	BYTE	W30
	BYTE		N06   
	BYTE	W06
	BYTE		        An5 
	BYTE	W06
	BYTE		        As5 
	BYTE	W06
	BYTE		        An5 
	BYTE	W06
	BYTE		        En5 
	BYTE	W06
	BYTE		        Gn5 
	BYTE	W06
	BYTE		        Fn5 
	BYTE	W06
	BYTE	PEND
// 062   ----------------------------------------
AweOfShe_9_062:
	BYTE		N06     En5   v127
	BYTE	W06
	BYTE		        Dn5 
	BYTE	W06
	BYTE		        En5 
	BYTE	W06
	BYTE		        Fn5 
	BYTE	W06
	BYTE		        Dn5 
	BYTE	W06
	BYTE		        An4 
	BYTE	W06
	BYTE		        Dn5 
	BYTE	W06
	BYTE		        Fn5 
	BYTE	W06
	BYTE		        Gn5 
	BYTE	W06
	BYTE		        Dn5 
	BYTE	W06
	BYTE		        Gn5 
	BYTE	W06
	BYTE		        An5 
	BYTE	W06
	BYTE		N36     Dn6 
	BYTE	W24
	BYTE	PEND
// 063   ----------------------------------------
AweOfShe_9_063:
	BYTE	W12
	BYTE		N06     Dn6   v127
	BYTE	W06
	BYTE		        Cn6 
	BYTE	W06
	BYTE		N36     As5 
	BYTE	W36
	BYTE		N06     En5 
	BYTE	W06
	BYTE		        Gn5 
	BYTE	W06
	BYTE		        An5 
	BYTE	W06
	BYTE		        Dn5 
	BYTE	W06
	BYTE		        Fn5 
	BYTE	W06
	BYTE		        Gs5 
	BYTE	W06
	BYTE	PEND
// 064   ----------------------------------------
AweOfShe_9_064:
	BYTE		N06     En5   v127
	BYTE	W06
	BYTE		        Bn5 
	BYTE	W06
	BYTE		        En6 
	BYTE	W06
	BYTE		        Bn5 
	BYTE	W06
	BYTE		N36     Dn6 
	BYTE	W36
	BYTE		N06     Cs6 
	BYTE	W06
	BYTE		        Bn5 
	BYTE	W06
	BYTE		N48     Cs6 
	BYTE	W24
	BYTE	PEND
// 065   ----------------------------------------
AweOfShe_9_065:
	BYTE	W24
	BYTE		N12     Fn5   v127
	BYTE	W12
	BYTE		N12   
	BYTE	W12
	BYTE		        Gn5 
	BYTE	W12
	BYTE		N12   
	BYTE	W12
	BYTE		        En5 
	BYTE	W12
	BYTE		N12   
	BYTE	W12
	BYTE	PEND
// 066   ----------------------------------------
AweOfShe_9_066:
	BYTE		N12     Fn5   v127
	BYTE	W12
	BYTE		N12   
	BYTE	W12
	BYTE		        Dn5 
	BYTE	W12
	BYTE		N12   
	BYTE	W12
	BYTE		        En5 
	BYTE	W12
	BYTE		N12   
	BYTE	W12
	BYTE		        Cs5 
	BYTE	W12
	BYTE		        Dn5 
	BYTE	W12
	BYTE	PEND
// 067   ----------------------------------------
AweOfShe_9_067:
	BYTE		N12     En5   v127
	BYTE	W12
	BYTE		        Fn5 
	BYTE	W12
	BYTE		N12   
	BYTE	W12
	BYTE		N12   
	BYTE	W12
	BYTE		        Gn5 
	BYTE	W12
	BYTE		N12   
	BYTE	W12
	BYTE		        En5 
	BYTE	W12
	BYTE		N12   
	BYTE	W12
	BYTE	PEND
// 068   ----------------------------------------
	BYTE	PATT
	 POIN2	AweOfShe_9_066
// 069   ----------------------------------------
AweOfShe_9_069:
	BYTE		N12     As5   v127
	BYTE	W12
	BYTE		        An5 
	BYTE	W12
	BYTE		        Fn5 
	BYTE	W12
	BYTE		N12   
	BYTE	W12
	BYTE		        Gn5 
	BYTE	W12
	BYTE		N12   
	BYTE	W12
	BYTE		        En5 
	BYTE	W12
	BYTE		N12   
	BYTE	W12
	BYTE	PEND
// 070   ----------------------------------------
	BYTE	PATT
	 POIN2	AweOfShe_9_066
// 071   ----------------------------------------
	BYTE	PATT
	 POIN2	AweOfShe_9_067
// 072   ----------------------------------------
	BYTE	PATT
	 POIN2	AweOfShe_9_066
// 073   ----------------------------------------
AweOfShe_9_073:
	BYTE		N12     As5   v127
	BYTE	W12
	BYTE		        An5 
	BYTE	W84
	BYTE	PEND
// 074   ----------------------------------------
	BYTE	W96
// 075   ----------------------------------------
	BYTE	W96
// 076   ----------------------------------------
	BYTE	W96
// 077   ----------------------------------------
	BYTE	W96
// 078   ----------------------------------------
	BYTE	W96
// 079   ----------------------------------------
	BYTE	W96
// 080   ----------------------------------------
	BYTE	W96
// 081   ----------------------------------------
	BYTE	PATT
	 POIN2	AweOfShe_9_039
// 082   ----------------------------------------
	BYTE	PATT
	 POIN2	AweOfShe_9_040
// 083   ----------------------------------------
	BYTE	PATT
	 POIN2	AweOfShe_9_041
// 084   ----------------------------------------
	BYTE	PATT
	 POIN2	AweOfShe_9_042
// 085   ----------------------------------------
	BYTE	PATT
	 POIN2	AweOfShe_9_043
// 086   ----------------------------------------
	BYTE	PATT
	 POIN2	AweOfShe_9_044
// 087   ----------------------------------------
	BYTE	PATT
	 POIN2	AweOfShe_9_045
// 088   ----------------------------------------
	BYTE	PATT
	 POIN2	AweOfShe_9_046
// 089   ----------------------------------------
	BYTE	PATT
	 POIN2	AweOfShe_9_039
// 090   ----------------------------------------
	BYTE	PATT
	 POIN2	AweOfShe_9_040
// 091   ----------------------------------------
	BYTE	PATT
	 POIN2	AweOfShe_9_041
// 092   ----------------------------------------
	BYTE	PATT
	 POIN2	AweOfShe_9_042
// 093   ----------------------------------------
	BYTE	PATT
	 POIN2	AweOfShe_9_043
// 094   ----------------------------------------
	BYTE	PATT
	 POIN2	AweOfShe_9_044
// 095   ----------------------------------------
	BYTE	PATT
	 POIN2	AweOfShe_9_045
// 096   ----------------------------------------
	BYTE	PATT
	 POIN2	AweOfShe_9_054
// 097   ----------------------------------------
	BYTE	PATT
	 POIN2	AweOfShe_9_055
// 098   ----------------------------------------
	BYTE	W96
// 099   ----------------------------------------
	BYTE	PATT
	 POIN2	AweOfShe_9_057
// 100   ----------------------------------------
	BYTE	PATT
	 POIN2	AweOfShe_9_058
// 101   ----------------------------------------
	BYTE	PATT
	 POIN2	AweOfShe_9_059
// 102   ----------------------------------------
	BYTE	PATT
	 POIN2	AweOfShe_9_060
// 103   ----------------------------------------
	BYTE	PATT
	 POIN2	AweOfShe_9_061
// 104   ----------------------------------------
	BYTE	PATT
	 POIN2	AweOfShe_9_062
// 105   ----------------------------------------
	BYTE	PATT
	 POIN2	AweOfShe_9_063
// 106   ----------------------------------------
	BYTE	PATT
	 POIN2	AweOfShe_9_064
// 107   ----------------------------------------
	BYTE	PATT
	 POIN2	AweOfShe_9_065
// 108   ----------------------------------------
	BYTE	PATT
	 POIN2	AweOfShe_9_066
// 109   ----------------------------------------
	BYTE	PATT
	 POIN2	AweOfShe_9_067
// 110   ----------------------------------------
	BYTE	PATT
	 POIN2	AweOfShe_9_066
// 111   ----------------------------------------
	BYTE	PATT
	 POIN2	AweOfShe_9_069
// 112   ----------------------------------------
	BYTE	PATT
	 POIN2	AweOfShe_9_066
// 113   ----------------------------------------
	BYTE	PATT
	 POIN2	AweOfShe_9_067
// 114   ----------------------------------------
	BYTE	PATT
	 POIN2	AweOfShe_9_066
// 115   ----------------------------------------
	BYTE	PATT
	 POIN2	AweOfShe_9_073
// 116   ----------------------------------------
	BYTE	W96
// 117   ----------------------------------------
	BYTE	W96
// 118   ----------------------------------------
	BYTE	W96
// 119   ----------------------------------------
	BYTE	W96
// 120   ----------------------------------------
	BYTE	W96
// 121   ----------------------------------------
	BYTE	W96
// 122   ----------------------------------------
	BYTE	W96
// 123   ----------------------------------------
	BYTE	PATT
	 POIN2	AweOfShe_9_039
// 124   ----------------------------------------
	BYTE	PATT
	 POIN2	AweOfShe_9_040
// 125   ----------------------------------------
	BYTE	PATT
	 POIN2	AweOfShe_9_041
// 126   ----------------------------------------
	BYTE	PATT
	 POIN2	AweOfShe_9_042
// 127   ----------------------------------------
	BYTE	PATT
	 POIN2	AweOfShe_9_043
// 128   ----------------------------------------
	BYTE	PATT
	 POIN2	AweOfShe_9_044
// 129   ----------------------------------------
	BYTE	PATT
	 POIN2	AweOfShe_9_045
// 130   ----------------------------------------
	BYTE	PATT
	 POIN2	AweOfShe_9_046
// 131   ----------------------------------------
	BYTE	PATT
	 POIN2	AweOfShe_9_039
// 132   ----------------------------------------
	BYTE	PATT
	 POIN2	AweOfShe_9_040
// 133   ----------------------------------------
	BYTE	PATT
	 POIN2	AweOfShe_9_041
// 134   ----------------------------------------
	BYTE	PATT
	 POIN2	AweOfShe_9_042
// 135   ----------------------------------------
	BYTE	PATT
	 POIN2	AweOfShe_9_043
// 136   ----------------------------------------
	BYTE	PATT
	 POIN2	AweOfShe_9_044
// 137   ----------------------------------------
	BYTE	PATT
	 POIN2	AweOfShe_9_045
// 138   ----------------------------------------
	BYTE	PATT
	 POIN2	AweOfShe_9_054
// 139   ----------------------------------------
	BYTE		N06     As5   v127
	BYTE	W06
	BYTE		        An5 
	BYTE	W06
	BYTE		        Gn5 
	BYTE	W06
	BYTE		        Fs5 
	BYTE	W06
	BYTE	FINE

//**************** Track 10 (Midi-Chn.5) ****************//

AweOfShe_10:
	BYTE	KEYSH   AweOfShe_key+0
// 000   ----------------------------------------
	BYTE		VOICE   50
	BYTE		VOL     84*AweOfShe_mvl/mxv
	BYTE	W15
	BYTE		PAN     c_v+0
	BYTE	W03
	BYTE	W06
	BYTE		        c_v+0
	BYTE	W72
// 001   ----------------------------------------
	BYTE	W96
// 002   ----------------------------------------
	BYTE	W96
// 003   ----------------------------------------
	BYTE	W96
// 004   ----------------------------------------
	BYTE	W96
// 005   ----------------------------------------
	BYTE	W96
// 006   ----------------------------------------
	BYTE	W96
// 007   ----------------------------------------
	BYTE	W96
// 008   ----------------------------------------
	BYTE	W96
// 009   ----------------------------------------
	BYTE	W96
// 010   ----------------------------------------
	BYTE	W96
// 011   ----------------------------------------
	BYTE	W96
// 012   ----------------------------------------
	BYTE	W96
// 013   ----------------------------------------
	BYTE	W96
// 014   ----------------------------------------
	BYTE	W96
// 015   ----------------------------------------
	BYTE	W24
	BYTE		        c_v+56
	BYTE		N24     Dn5   v127
	BYTE		N24     Fn5 
	BYTE	W24
	BYTE		PAN     c_v+21
	BYTE		N24     Dn5 
	BYTE		N24     Fn5 
	BYTE	W23
	BYTE		PAN     c_v-15
	BYTE	W01
	BYTE		        c_v-23
	BYTE		N24     En5 
	BYTE		N24     Gn5 
	BYTE	W24
// 016   ----------------------------------------
	BYTE		PAN     c_v-56
	BYTE		N24     En5 
	BYTE		N24     Gn5 
	BYTE	W02
	BYTE		PAN     c_v-55
	BYTE	W22
	BYTE		        c_v-55
	BYTE		N24     Cs5 
	BYTE		N24     En5 
	BYTE	W23
	BYTE		PAN     c_v-22
	BYTE	W01
	BYTE		N24     Cs5 
	BYTE		N24     En5 
	BYTE	W24
	BYTE		PAN     c_v+22
	BYTE		N24     Dn5 
	BYTE		N24     Fn5 
	BYTE	W24
// 017   ----------------------------------------
	BYTE		PAN     c_v+54
	BYTE		N24     Dn5 
	BYTE		N24     Fn5 
	BYTE	W02
	BYTE		PAN     c_v+55
	BYTE	W22
	BYTE		N24     An4 
	BYTE		N24     Dn5 
	BYTE	W24
	BYTE		PAN     c_v+25
	BYTE		N24     An4 
	BYTE		N24     Dn5 
	BYTE	W24
	BYTE		PAN     c_v-25
	BYTE		N24     Cs5 
	BYTE		N24     En5 
	BYTE	W24
// 018   ----------------------------------------
	BYTE		PAN     c_v-58
	BYTE		N24     Cs5 
	BYTE		N24     En5 
	BYTE	W01
	BYTE		PAN     c_v-57
	BYTE	W04
	BYTE		        c_v-56
	BYTE	W19
	BYTE		N24     Gs4 
	BYTE		N24     Cs5 
	BYTE	W24
	BYTE		PAN     c_v-26
	BYTE		N24     An4 
	BYTE		N24     Dn5 
	BYTE	W24
	BYTE		PAN     c_v+27
	BYTE		N24     Cs5 
	BYTE		N24     En5 
	BYTE	W24
// 019   ----------------------------------------
	BYTE		PAN     c_v+53
	BYTE		N24     Dn5 
	BYTE		N24     Fn5 
	BYTE	W24
	BYTE		PAN     c_v+0
	BYTE	W72
// 020   ----------------------------------------
	BYTE	W96
// 021   ----------------------------------------
	BYTE	W96
// 022   ----------------------------------------
	BYTE	W96
// 023   ----------------------------------------
	BYTE	W24
	BYTE		N09     Fn5   v104
	BYTE	W12
	BYTE		N09   
	BYTE	W12
	BYTE		        Gn5 
	BYTE	W12
	BYTE		N09   
	BYTE	W12
	BYTE		        En5 
	BYTE	W12
	BYTE		N09   
	BYTE	W12
// 024   ----------------------------------------
AweOfShe_10_024:
	BYTE		N09     Fn5   v104
	BYTE	W12
	BYTE		N09   
	BYTE	W12
	BYTE		        Dn5 
	BYTE	W12
	BYTE		N09   
	BYTE	W12
	BYTE		        En5 
	BYTE	W12
	BYTE		N09   
	BYTE	W12
	BYTE		        Cs5 
	BYTE	W12
	BYTE		        Dn5 
	BYTE	W12
	BYTE	PEND
// 025   ----------------------------------------
AweOfShe_10_025:
	BYTE		N09     En5   v104
	BYTE	W12
	BYTE		        Fn5 
	BYTE	W12
	BYTE		N09   
	BYTE	W12
	BYTE		N09   
	BYTE	W12
	BYTE		        Gn5 
	BYTE	W12
	BYTE		N09   
	BYTE	W12
	BYTE		        En5 
	BYTE	W12
	BYTE		N09   
	BYTE	W12
	BYTE	PEND
// 026   ----------------------------------------
	BYTE	PATT
	 POIN2	AweOfShe_10_024
// 027   ----------------------------------------
	BYTE		N09     As5   v104
	BYTE	W12
	BYTE		        An5 
	BYTE	W12
	BYTE		        Fn5 
	BYTE	W12
	BYTE		N09   
	BYTE	W12
	BYTE		        Gn5 
	BYTE	W12
	BYTE		N09   
	BYTE	W12
	BYTE		        En5 
	BYTE	W12
	BYTE		N09   
	BYTE	W12
// 028   ----------------------------------------
	BYTE	PATT
	 POIN2	AweOfShe_10_024
// 029   ----------------------------------------
	BYTE	PATT
	 POIN2	AweOfShe_10_025
// 030   ----------------------------------------
	BYTE	PATT
	 POIN2	AweOfShe_10_024
// 031   ----------------------------------------
	BYTE		N09     As5   v104
	BYTE	W12
	BYTE		        An5 
	BYTE	W84
// 032   ----------------------------------------
	BYTE	W96
// 033   ----------------------------------------
	BYTE	W96
// 034   ----------------------------------------
	BYTE	W96
// 035   ----------------------------------------
	BYTE	W96
// 036   ----------------------------------------
	BYTE	W96
// 037   ----------------------------------------
	BYTE	W96
// 038   ----------------------------------------
	BYTE	W96
// 039   ----------------------------------------
AweOfShe_10_039:
	BYTE	W24
	BYTE		N06     As4   v127
	BYTE	W06
	BYTE		        Fn5 
	BYTE	W06
	BYTE		        En5 
	BYTE	W06
	BYTE		        Fn5 
	BYTE	W06
	BYTE		        As4 
	BYTE	W06
	BYTE		        Fn5 
	BYTE	W06
	BYTE		        En5 
	BYTE	W06
	BYTE		        Fn5 
	BYTE	W06
	BYTE		        As4 
	BYTE	W06
	BYTE		        Fn5 
	BYTE	W06
	BYTE		        En5 
	BYTE	W06
	BYTE		        Fn5 
	BYTE	W06
	BYTE	PEND
// 040   ----------------------------------------
AweOfShe_10_040:
	BYTE		N06     As4   v127
	BYTE	W06
	BYTE		        Fn5 
	BYTE	W06
	BYTE		        En5 
	BYTE	W06
	BYTE		        Fn5 
	BYTE	W06
	BYTE		        An4 
	BYTE	W06
	BYTE		        En5 
	BYTE	W06
	BYTE		        Dn5 
	BYTE	W06
	BYTE		        En5 
	BYTE	W06
	BYTE		        An4 
	BYTE	W06
	BYTE		        En5 
	BYTE	W06
	BYTE		        Dn5 
	BYTE	W06
	BYTE		        En5 
	BYTE	W06
	BYTE		        An4 
	BYTE	W06
	BYTE		        En5 
	BYTE	W06
	BYTE		        Dn5 
	BYTE	W06
	BYTE		        En5 
	BYTE	W06
	BYTE	PEND
// 041   ----------------------------------------
AweOfShe_10_041:
	BYTE		N06     An4   v127
	BYTE	W06
	BYTE		        En5 
	BYTE	W06
	BYTE		        Dn5 
	BYTE	W06
	BYTE		        En5 
	BYTE	W06
	BYTE		        An4 
	BYTE	W06
	BYTE		        En5 
	BYTE	W06
	BYTE		        Dn5 
	BYTE	W06
	BYTE		        En5 
	BYTE	W06
	BYTE		        An4 
	BYTE	W06
	BYTE		        En5 
	BYTE	W06
	BYTE		        Dn5 
	BYTE	W06
	BYTE		        En5 
	BYTE	W06
	BYTE		        An4 
	BYTE	W06
	BYTE		        En5 
	BYTE	W06
	BYTE		        Dn5 
	BYTE	W06
	BYTE		        En5 
	BYTE	W06
	BYTE	PEND
// 042   ----------------------------------------
AweOfShe_10_042:
	BYTE		N06     An4   v127
	BYTE	W06
	BYTE		        En5 
	BYTE	W06
	BYTE		        Dn5 
	BYTE	W06
	BYTE		        En5 
	BYTE	W06
	BYTE		        Fn4 
	BYTE	W06
	BYTE		        Dn5 
	BYTE	W06
	BYTE		        Cn5 
	BYTE	W06
	BYTE		        Dn5 
	BYTE	W06
	BYTE		        Fn4 
	BYTE	W06
	BYTE		        Dn5 
	BYTE	W06
	BYTE		        Cn5 
	BYTE	W06
	BYTE		        Dn5 
	BYTE	W06
	BYTE		        Fn4 
	BYTE	W06
	BYTE		        Dn5 
	BYTE	W06
	BYTE		        Cn5 
	BYTE	W06
	BYTE		        Dn5 
	BYTE	W06
	BYTE	PEND
// 043   ----------------------------------------
AweOfShe_10_043:
	BYTE		N06     Fn4   v127
	BYTE	W06
	BYTE		        Dn5 
	BYTE	W06
	BYTE		        Cn5 
	BYTE	W06
	BYTE		        Dn5 
	BYTE	W06
	BYTE		        En4 
	BYTE	W06
	BYTE		        Dn5 
	BYTE	W06
	BYTE		        Cn5 
	BYTE	W06
	BYTE		        Dn5 
	BYTE	W06
	BYTE		        En4 
	BYTE	W06
	BYTE		        Dn5 
	BYTE	W06
	BYTE		        Cn5 
	BYTE	W06
	BYTE		        Dn5 
	BYTE	W06
	BYTE		        En4 
	BYTE	W06
	BYTE		        Dn5 
	BYTE	W06
	BYTE		        Cn5 
	BYTE	W06
	BYTE		        Dn5 
	BYTE	W06
	BYTE	PEND
// 044   ----------------------------------------
AweOfShe_10_044:
	BYTE		N06     En4   v127
	BYTE	W06
	BYTE		        Dn5 
	BYTE	W06
	BYTE		        Cn5 
	BYTE	W06
	BYTE		        Dn5 
	BYTE	W06
	BYTE		N06   
	BYTE	W06
	BYTE		        Cs5 
	BYTE	W06
	BYTE		        Bn4 
	BYTE	W06
	BYTE		        Cs5 
	BYTE	W06
	BYTE		        Dn5 
	BYTE	W06
	BYTE		        Cs5 
	BYTE	W06
	BYTE		        Bn4 
	BYTE	W06
	BYTE		        Cs5 
	BYTE	W06
	BYTE		        Dn5 
	BYTE	W06
	BYTE		        Cs5 
	BYTE	W06
	BYTE		        Bn4 
	BYTE	W06
	BYTE		        Cs5 
	BYTE	W06
	BYTE	PEND
// 045   ----------------------------------------
AweOfShe_10_045:
	BYTE		N06     Dn5   v127
	BYTE	W06
	BYTE		        Cs5 
	BYTE	W06
	BYTE		        Bn4 
	BYTE	W06
	BYTE		        Cs5 
	BYTE	W06
	BYTE		        Gn4 
	BYTE	W06
	BYTE		        Dn5 
	BYTE	W06
	BYTE		        Cs5 
	BYTE	W06
	BYTE		        Dn5 
	BYTE	W06
	BYTE		        Gn4 
	BYTE	W06
	BYTE		        Dn5 
	BYTE	W06
	BYTE		        Cs5 
	BYTE	W06
	BYTE		        Dn5 
	BYTE	W06
	BYTE		        An4 
	BYTE	W06
	BYTE		        En5 
	BYTE	W06
	BYTE		        Dn5 
	BYTE	W06
	BYTE		        En5 
	BYTE	W06
	BYTE	PEND
// 046   ----------------------------------------
AweOfShe_10_046:
	BYTE		N06     An4   v127
	BYTE	W06
	BYTE		        En5 
	BYTE	W06
	BYTE		        Dn5 
	BYTE	W06
	BYTE		        En5 
	BYTE	W06
	BYTE		        Gn5 
	BYTE	W06
	BYTE		        Fn5 
	BYTE	W06
	BYTE		        En5 
	BYTE	W06
	BYTE		        Dn5 
	BYTE	W06
	BYTE		        Cs5 
	BYTE	W06
	BYTE		        Dn5 
	BYTE	W06
	BYTE		        En5 
	BYTE	W06
	BYTE		        Fn5 
	BYTE	W06
	BYTE		        Gn5 
	BYTE	W06
	BYTE		        Fn5 
	BYTE	W06
	BYTE		        As5 
	BYTE	W06
	BYTE		N30     An5 
	BYTE	W06
	BYTE	PEND
// 047   ----------------------------------------
	BYTE	PATT
	 POIN2	AweOfShe_10_039
// 048   ----------------------------------------
	BYTE	PATT
	 POIN2	AweOfShe_10_040
// 049   ----------------------------------------
	BYTE	PATT
	 POIN2	AweOfShe_10_041
// 050   ----------------------------------------
	BYTE	PATT
	 POIN2	AweOfShe_10_042
// 051   ----------------------------------------
	BYTE	PATT
	 POIN2	AweOfShe_10_043
// 052   ----------------------------------------
	BYTE	PATT
	 POIN2	AweOfShe_10_044
// 053   ----------------------------------------
	BYTE	PATT
	 POIN2	AweOfShe_10_045
// 054   ----------------------------------------
AweOfShe_10_054:
	BYTE		N06     An4   v127
	BYTE	W06
	BYTE		        En5 
	BYTE	W06
	BYTE		        Dn5 
	BYTE	W06
	BYTE		        En5 
	BYTE	W06
	BYTE		        Gn5 
	BYTE	W06
	BYTE		        Fn5 
	BYTE	W06
	BYTE		        En5 
	BYTE	W06
	BYTE		        Dn5 
	BYTE	W06
	BYTE		        Cs5 
	BYTE	W06
	BYTE		        Dn5 
	BYTE	W06
	BYTE		        En5 
	BYTE	W06
	BYTE		        Fn5 
	BYTE	W06
	BYTE		        Fs5 
	BYTE	W06
	BYTE		        Dn5 
	BYTE	W06
	BYTE		        Fs5 
	BYTE	W06
	BYTE		        An5 
	BYTE	W06
	BYTE	PEND
// 055   ----------------------------------------
AweOfShe_10_055:
	BYTE		N06     As5   v127
	BYTE	W06
	BYTE		        An5 
	BYTE	W06
	BYTE		        Gn5 
	BYTE	W06
	BYTE		        Fs5 
	BYTE	W78
	BYTE	PEND
// 056   ----------------------------------------
	BYTE	W96
// 057   ----------------------------------------
AweOfShe_10_057:
	BYTE	W24
	BYTE		N30     Dn5   v127
	BYTE	W30
	BYTE		N06     An4 
	BYTE	W06
	BYTE		        Dn5 
	BYTE	W06
	BYTE		        En5 
	BYTE	W06
	BYTE		N12     Fn5 
	BYTE	W12
	BYTE		N06     Gn5 
	BYTE	W06
	BYTE		        Fn5 
	BYTE	W06
	BYTE	PEND
// 058   ----------------------------------------
AweOfShe_10_058:
	BYTE		N18     En5   v127
	BYTE	W18
	BYTE		N06     Fn5 
	BYTE	W06
	BYTE		N24     En5 
	BYTE	W24
	BYTE		        An4 
	BYTE	W24
	BYTE		N36     An5 
	BYTE	W24
	BYTE	PEND
// 059   ----------------------------------------
AweOfShe_10_059:
	BYTE	W12
	BYTE		N06     An5   v127
	BYTE	W06
	BYTE		        Gn5 
	BYTE	W06
	BYTE		N36     Fs5 
	BYTE	W36
	BYTE		N06     Dn5 
	BYTE	W06
	BYTE		        Fs5 
	BYTE	W06
	BYTE		        An5 
	BYTE	W06
	BYTE		        Dn5 
	BYTE	W06
	BYTE		        Fs5 
	BYTE	W06
	BYTE		        An5 
	BYTE	W06
	BYTE	PEND
// 060   ----------------------------------------
AweOfShe_10_060:
	BYTE		N06     Fs5   v127
	BYTE	W06
	BYTE		        An5 
	BYTE	W06
	BYTE		        Dn6 
	BYTE	W06
	BYTE		        An5 
	BYTE	W06
	BYTE		N36     Cn6 
	BYTE	W36
	BYTE		N06     Dn6 
	BYTE	W06
	BYTE		        Cn6 
	BYTE	W06
	BYTE		N36     As5 
	BYTE	W24
	BYTE	PEND
// 061   ----------------------------------------
AweOfShe_10_061:
	BYTE	W12
	BYTE		N12     An5   v127
	BYTE	W12
	BYTE		N30     Gn5 
	BYTE	W30
	BYTE		N06   
	BYTE	W06
	BYTE		        An5 
	BYTE	W06
	BYTE		        As5 
	BYTE	W06
	BYTE		        An5 
	BYTE	W06
	BYTE		        En5 
	BYTE	W06
	BYTE		        Gn5 
	BYTE	W06
	BYTE		        Fn5 
	BYTE	W06
	BYTE	PEND
// 062   ----------------------------------------
AweOfShe_10_062:
	BYTE		N06     En5   v127
	BYTE	W06
	BYTE		        Dn5 
	BYTE	W06
	BYTE		        En5 
	BYTE	W06
	BYTE		        Fn5 
	BYTE	W06
	BYTE		        Dn5 
	BYTE	W06
	BYTE		        An4 
	BYTE	W06
	BYTE		        Dn5 
	BYTE	W06
	BYTE		        Fn5 
	BYTE	W06
	BYTE		        Gn5 
	BYTE	W06
	BYTE		        Dn5 
	BYTE	W06
	BYTE		        Gn5 
	BYTE	W06
	BYTE		        An5 
	BYTE	W06
	BYTE		N36     Dn6 
	BYTE	W24
	BYTE	PEND
// 063   ----------------------------------------
AweOfShe_10_063:
	BYTE	W12
	BYTE		N06     Dn6   v127
	BYTE	W06
	BYTE		        Cn6 
	BYTE	W06
	BYTE		N36     As5 
	BYTE	W36
	BYTE		N06     En5 
	BYTE	W06
	BYTE		        Gn5 
	BYTE	W06
	BYTE		        An5 
	BYTE	W06
	BYTE		        Dn5 
	BYTE	W06
	BYTE		        Fn5 
	BYTE	W06
	BYTE		        Gs5 
	BYTE	W06
	BYTE	PEND
// 064   ----------------------------------------
AweOfShe_10_064:
	BYTE		N06     En5   v127
	BYTE	W06
	BYTE		        Bn5 
	BYTE	W06
	BYTE		        En6 
	BYTE	W06
	BYTE		        Bn5 
	BYTE	W06
	BYTE		N36     Dn6 
	BYTE	W36
	BYTE		N06     Cs6 
	BYTE	W06
	BYTE		        Bn5 
	BYTE	W06
	BYTE		N48     Cs6 
	BYTE	W24
	BYTE	PEND
// 065   ----------------------------------------
AweOfShe_10_065:
	BYTE	W24
	BYTE		N12     Fn5   v127
	BYTE	W12
	BYTE		N12   
	BYTE	W12
	BYTE		        Gn5 
	BYTE	W12
	BYTE		N12   
	BYTE	W12
	BYTE		        En5 
	BYTE	W12
	BYTE		N12   
	BYTE	W12
	BYTE	PEND
// 066   ----------------------------------------
AweOfShe_10_066:
	BYTE		N12     Fn5   v127
	BYTE	W12
	BYTE		N12   
	BYTE	W12
	BYTE		        Dn5 
	BYTE	W12
	BYTE		N12   
	BYTE	W12
	BYTE		        En5 
	BYTE	W12
	BYTE		N12   
	BYTE	W12
	BYTE		        Cs5 
	BYTE	W12
	BYTE		        Dn5 
	BYTE	W12
	BYTE	PEND
// 067   ----------------------------------------
AweOfShe_10_067:
	BYTE		N12     En5   v127
	BYTE	W12
	BYTE		        Fn5 
	BYTE	W12
	BYTE		N12   
	BYTE	W12
	BYTE		N12   
	BYTE	W12
	BYTE		        Gn5 
	BYTE	W12
	BYTE		N12   
	BYTE	W12
	BYTE		        En5 
	BYTE	W12
	BYTE		N12   
	BYTE	W12
	BYTE	PEND
// 068   ----------------------------------------
	BYTE	PATT
	 POIN2	AweOfShe_10_066
// 069   ----------------------------------------
AweOfShe_10_069:
	BYTE		N12     As5   v127
	BYTE	W12
	BYTE		        An5 
	BYTE	W12
	BYTE		        Fn5 
	BYTE	W12
	BYTE		N12   
	BYTE	W12
	BYTE		        Gn5 
	BYTE	W12
	BYTE		N12   
	BYTE	W12
	BYTE		        En5 
	BYTE	W12
	BYTE		N12   
	BYTE	W12
	BYTE	PEND
// 070   ----------------------------------------
	BYTE	PATT
	 POIN2	AweOfShe_10_066
// 071   ----------------------------------------
	BYTE	PATT
	 POIN2	AweOfShe_10_067
// 072   ----------------------------------------
	BYTE	PATT
	 POIN2	AweOfShe_10_066
// 073   ----------------------------------------
AweOfShe_10_073:
	BYTE		N12     As5   v127
	BYTE	W12
	BYTE		        An5 
	BYTE	W84
	BYTE	PEND
// 074   ----------------------------------------
	BYTE	W96
// 075   ----------------------------------------
	BYTE	W96
// 076   ----------------------------------------
	BYTE	W96
// 077   ----------------------------------------
	BYTE	W96
// 078   ----------------------------------------
	BYTE	W96
// 079   ----------------------------------------
	BYTE	W96
// 080   ----------------------------------------
	BYTE	W96
// 081   ----------------------------------------
	BYTE	PATT
	 POIN2	AweOfShe_10_039
// 082   ----------------------------------------
	BYTE	PATT
	 POIN2	AweOfShe_10_040
// 083   ----------------------------------------
	BYTE	PATT
	 POIN2	AweOfShe_10_041
// 084   ----------------------------------------
	BYTE	PATT
	 POIN2	AweOfShe_10_042
// 085   ----------------------------------------
	BYTE	PATT
	 POIN2	AweOfShe_10_043
// 086   ----------------------------------------
	BYTE	PATT
	 POIN2	AweOfShe_10_044
// 087   ----------------------------------------
	BYTE	PATT
	 POIN2	AweOfShe_10_045
// 088   ----------------------------------------
	BYTE	PATT
	 POIN2	AweOfShe_10_046
// 089   ----------------------------------------
	BYTE	PATT
	 POIN2	AweOfShe_10_039
// 090   ----------------------------------------
	BYTE	PATT
	 POIN2	AweOfShe_10_040
// 091   ----------------------------------------
	BYTE	PATT
	 POIN2	AweOfShe_10_041
// 092   ----------------------------------------
	BYTE	PATT
	 POIN2	AweOfShe_10_042
// 093   ----------------------------------------
	BYTE	PATT
	 POIN2	AweOfShe_10_043
// 094   ----------------------------------------
	BYTE	PATT
	 POIN2	AweOfShe_10_044
// 095   ----------------------------------------
	BYTE	PATT
	 POIN2	AweOfShe_10_045
// 096   ----------------------------------------
	BYTE	PATT
	 POIN2	AweOfShe_10_054
// 097   ----------------------------------------
	BYTE	PATT
	 POIN2	AweOfShe_10_055
// 098   ----------------------------------------
	BYTE	W96
// 099   ----------------------------------------
	BYTE	PATT
	 POIN2	AweOfShe_10_057
// 100   ----------------------------------------
	BYTE	PATT
	 POIN2	AweOfShe_10_058
// 101   ----------------------------------------
	BYTE	PATT
	 POIN2	AweOfShe_10_059
// 102   ----------------------------------------
	BYTE	PATT
	 POIN2	AweOfShe_10_060
// 103   ----------------------------------------
	BYTE	PATT
	 POIN2	AweOfShe_10_061
// 104   ----------------------------------------
	BYTE	PATT
	 POIN2	AweOfShe_10_062
// 105   ----------------------------------------
	BYTE	PATT
	 POIN2	AweOfShe_10_063
// 106   ----------------------------------------
	BYTE	PATT
	 POIN2	AweOfShe_10_064
// 107   ----------------------------------------
	BYTE	PATT
	 POIN2	AweOfShe_10_065
// 108   ----------------------------------------
	BYTE	PATT
	 POIN2	AweOfShe_10_066
// 109   ----------------------------------------
	BYTE	PATT
	 POIN2	AweOfShe_10_067
// 110   ----------------------------------------
	BYTE	PATT
	 POIN2	AweOfShe_10_066
// 111   ----------------------------------------
	BYTE	PATT
	 POIN2	AweOfShe_10_069
// 112   ----------------------------------------
	BYTE	PATT
	 POIN2	AweOfShe_10_066
// 113   ----------------------------------------
	BYTE	PATT
	 POIN2	AweOfShe_10_067
// 114   ----------------------------------------
	BYTE	PATT
	 POIN2	AweOfShe_10_066
// 115   ----------------------------------------
	BYTE	PATT
	 POIN2	AweOfShe_10_073
// 116   ----------------------------------------
	BYTE	W96
// 117   ----------------------------------------
	BYTE	W96
// 118   ----------------------------------------
	BYTE	W96
// 119   ----------------------------------------
	BYTE	W96
// 120   ----------------------------------------
	BYTE	W96
// 121   ----------------------------------------
	BYTE	W96
// 122   ----------------------------------------
	BYTE	W96
// 123   ----------------------------------------
	BYTE	PATT
	 POIN2	AweOfShe_10_039
// 124   ----------------------------------------
	BYTE	PATT
	 POIN2	AweOfShe_10_040
// 125   ----------------------------------------
	BYTE	PATT
	 POIN2	AweOfShe_10_041
// 126   ----------------------------------------
	BYTE	PATT
	 POIN2	AweOfShe_10_042
// 127   ----------------------------------------
	BYTE	PATT
	 POIN2	AweOfShe_10_043
// 128   ----------------------------------------
	BYTE	PATT
	 POIN2	AweOfShe_10_044
// 129   ----------------------------------------
	BYTE	PATT
	 POIN2	AweOfShe_10_045
// 130   ----------------------------------------
	BYTE	PATT
	 POIN2	AweOfShe_10_046
// 131   ----------------------------------------
	BYTE	PATT
	 POIN2	AweOfShe_10_039
// 132   ----------------------------------------
	BYTE	PATT
	 POIN2	AweOfShe_10_040
// 133   ----------------------------------------
	BYTE	PATT
	 POIN2	AweOfShe_10_041
// 134   ----------------------------------------
	BYTE	PATT
	 POIN2	AweOfShe_10_042
// 135   ----------------------------------------
	BYTE	PATT
	 POIN2	AweOfShe_10_043
// 136   ----------------------------------------
	BYTE	PATT
	 POIN2	AweOfShe_10_044
// 137   ----------------------------------------
	BYTE	PATT
	 POIN2	AweOfShe_10_045
// 138   ----------------------------------------
	BYTE	PATT
	 POIN2	AweOfShe_10_054
// 139   ----------------------------------------
	BYTE		N06     As5   v127
	BYTE	W06
	BYTE		        An5 
	BYTE	W06
	BYTE		        Gn5 
	BYTE	W06
	BYTE		        Fs5 
	BYTE	W06
	BYTE	FINE

//**************** Track 11 (Midi-Chn.7) ****************//

AweOfShe_11:
	BYTE	KEYSH   AweOfShe_key+0
// 000   ----------------------------------------
	BYTE		VOICE   48
	BYTE	W12
	BYTE		VOL     100*AweOfShe_mvl/mxv
	BYTE	W03
	BYTE		PAN     c_v+0
	BYTE	W03
	BYTE	W06
	BYTE		        c_v+0
	BYTE	W72
// 001   ----------------------------------------
	BYTE	W96
// 002   ----------------------------------------
	BYTE	W96
// 003   ----------------------------------------
	BYTE	W96
// 004   ----------------------------------------
	BYTE	W96
// 005   ----------------------------------------
	BYTE	W96
// 006   ----------------------------------------
	BYTE	W96
// 007   ----------------------------------------
	BYTE	W96
// 008   ----------------------------------------
	BYTE	W96
// 009   ----------------------------------------
	BYTE	W96
// 010   ----------------------------------------
	BYTE	W96
// 011   ----------------------------------------
	BYTE	W96
// 012   ----------------------------------------
	BYTE	W96
// 013   ----------------------------------------
	BYTE	W96
// 014   ----------------------------------------
	BYTE	W96
// 015   ----------------------------------------
	BYTE	W96
// 016   ----------------------------------------
	BYTE	W96
// 017   ----------------------------------------
	BYTE	W96
// 018   ----------------------------------------
	BYTE	W96
// 019   ----------------------------------------
	BYTE	W96
// 020   ----------------------------------------
	BYTE	W96
// 021   ----------------------------------------
	BYTE	W96
// 022   ----------------------------------------
	BYTE	W96
// 023   ----------------------------------------
AweOfShe_11_023:
	BYTE	W24
	BYTE		N12     Fn4   v127
	BYTE	W12
	BYTE		N12   
	BYTE	W12
	BYTE		        Gn4 
	BYTE	W12
	BYTE		N12   
	BYTE	W12
	BYTE		        En4 
	BYTE	W12
	BYTE		N12   
	BYTE	W12
	BYTE	PEND
// 024   ----------------------------------------
AweOfShe_11_024:
	BYTE		N12     Fn4   v127
	BYTE	W12
	BYTE		N12   
	BYTE	W12
	BYTE		        Dn4 
	BYTE	W12
	BYTE		N12   
	BYTE	W12
	BYTE		        En4 
	BYTE	W12
	BYTE		N12   
	BYTE	W12
	BYTE		        Cs4 
	BYTE	W12
	BYTE		        Dn4 
	BYTE	W12
	BYTE	PEND
// 025   ----------------------------------------
AweOfShe_11_025:
	BYTE		N12     En4   v127
	BYTE	W12
	BYTE		        Fn4 
	BYTE	W12
	BYTE		N12   
	BYTE	W12
	BYTE		N12   
	BYTE	W12
	BYTE		        Gn4 
	BYTE	W12
	BYTE		N12   
	BYTE	W12
	BYTE		        En4 
	BYTE	W12
	BYTE		N12   
	BYTE	W12
	BYTE	PEND
// 026   ----------------------------------------
	BYTE	PATT
	 POIN2	AweOfShe_11_024
// 027   ----------------------------------------
AweOfShe_11_027:
	BYTE		N12     As4   v127
	BYTE	W12
	BYTE		        An4 
	BYTE	W12
	BYTE		        Fn4 
	BYTE	W12
	BYTE		N12   
	BYTE	W12
	BYTE		        Gn4 
	BYTE	W12
	BYTE		N12   
	BYTE	W12
	BYTE		        En4 
	BYTE	W12
	BYTE		N12   
	BYTE	W12
	BYTE	PEND
// 028   ----------------------------------------
	BYTE	PATT
	 POIN2	AweOfShe_11_024
// 029   ----------------------------------------
	BYTE	PATT
	 POIN2	AweOfShe_11_025
// 030   ----------------------------------------
	BYTE	PATT
	 POIN2	AweOfShe_11_024
// 031   ----------------------------------------
AweOfShe_11_031:
	BYTE		N12     As4   v127
	BYTE	W12
	BYTE		        An4 
	BYTE	W12
	BYTE		N96     An3 
	BYTE		N96     Dn4 
	BYTE	W72
	BYTE	PEND
// 032   ----------------------------------------
AweOfShe_11_032:
	BYTE	W24
	BYTE		N96     Cn4   v127
	BYTE		N96     Fn4 
	BYTE	W72
	BYTE	PEND
// 033   ----------------------------------------
AweOfShe_11_033:
	BYTE	W24
	BYTE		N96     An3   v127
	BYTE		N96     Dn4 
	BYTE	W72
	BYTE	PEND
// 034   ----------------------------------------
AweOfShe_11_034:
	BYTE	W24
	BYTE		N48     Cn4   v127
	BYTE		N48     Fn4 
	BYTE	W48
	BYTE		        En4 
	BYTE		N48     An4 
	BYTE	W24
	BYTE	PEND
// 035   ----------------------------------------
	BYTE	PATT
	 POIN2	AweOfShe_11_033
// 036   ----------------------------------------
AweOfShe_11_036:
	BYTE	W24
	BYTE		N96     Dn4   v127
	BYTE		N96     An4 
	BYTE	W72
	BYTE	PEND
// 037   ----------------------------------------
AweOfShe_11_037:
	BYTE	W24
	BYTE		N48     Fn4   v127
	BYTE		N48     As4 
	BYTE	W48
	BYTE		        An4 
	BYTE		N48     Cs5 
	BYTE	W24
	BYTE	PEND
// 038   ----------------------------------------
AweOfShe_11_038:
	BYTE	W24
	BYTE		N48     As4   v127
	BYTE		N48     Dn5 
	BYTE	W48
	BYTE		        Cs5 
	BYTE		N48     En5 
	BYTE	W24
	BYTE	PEND
// 039   ----------------------------------------
AweOfShe_11_039:
	BYTE	W24
	BYTE		N48     As3   v127
	BYTE		N48     Dn4 
	BYTE	W48
	BYTE		N24     Cn4 
	BYTE		N24     En4 
	BYTE	W24
	BYTE	PEND
// 040   ----------------------------------------
AweOfShe_11_040:
	BYTE		N24     Dn4   v127
	BYTE		N24     Fn4 
	BYTE	W24
	BYTE		TIE     An3 
	BYTE		TIE     Cn4 
	BYTE	W72
	BYTE	PEND
// 041   ----------------------------------------
	BYTE	W72
	BYTE		EOT     An3 
	BYTE		        Cn4 
	BYTE		N24   
	BYTE		N24     En4 
	BYTE	W24
// 042   ----------------------------------------
AweOfShe_11_042:
	BYTE		N24     Dn4   v127
	BYTE		N24     Fn4 
	BYTE	W24
	BYTE		N96     As3 
	BYTE		N96     Dn4 
	BYTE	W72
	BYTE	PEND
// 043   ----------------------------------------
AweOfShe_11_043:
	BYTE	W24
	BYTE		N96     As3   v127
	BYTE		N96     Dn4 
	BYTE	W72
	BYTE	PEND
// 044   ----------------------------------------
AweOfShe_11_044:
	BYTE	W24
	BYTE		TIE     An3   v127
	BYTE		N96     Cs4 
	BYTE	W72
	BYTE	PEND
// 045   ----------------------------------------
	BYTE	W24
	BYTE		N48     Dn4 
	BYTE	W48
	BYTE		EOT     An3 
	BYTE		TIE   
	BYTE		N48     En4 
	BYTE	W24
// 046   ----------------------------------------
	BYTE	W24
	BYTE		N96     Fn4 
	BYTE	W72
// 047   ----------------------------------------
	BYTE	W24
	BYTE		EOT     An3 
	BYTE		N48     As3 
	BYTE		N48     Dn4 
	BYTE	W48
	BYTE		N24     Cn4 
	BYTE		N24     En4 
	BYTE	W24
// 048   ----------------------------------------
AweOfShe_11_048:
	BYTE		N24     Dn4   v127
	BYTE		N24     Fn4 
	BYTE	W24
	BYTE		TIE     Cn4 
	BYTE		N96     En4 
	BYTE	W72
	BYTE	PEND
// 049   ----------------------------------------
	BYTE	W24
	BYTE		N48     An3 
	BYTE	W48
	BYTE		EOT     Cn4 
	BYTE		N24   
	BYTE		N24     En4 
	BYTE	W24
// 050   ----------------------------------------
	BYTE	PATT
	 POIN2	AweOfShe_11_042
// 051   ----------------------------------------
	BYTE	PATT
	 POIN2	AweOfShe_11_043
// 052   ----------------------------------------
	BYTE	PATT
	 POIN2	AweOfShe_11_044
// 053   ----------------------------------------
	BYTE	W24
	BYTE		N48     Dn4   v127
	BYTE	W48
	BYTE		EOT     An3 
	BYTE		N48   
	BYTE		N48     En4 
	BYTE	W24
// 054   ----------------------------------------
AweOfShe_11_054:
	BYTE	W24
	BYTE		N48     An3   v127
	BYTE		N48     Cn4 
	BYTE		N48     Fn4 
	BYTE	W48
	BYTE		        An3 
	BYTE		N48     Dn4 
	BYTE		N48     Fs4 
	BYTE	W24
	BYTE	PEND
// 055   ----------------------------------------
	BYTE	W96
// 056   ----------------------------------------
	BYTE	W96
// 057   ----------------------------------------
AweOfShe_11_057:
	BYTE	W24
	BYTE		N96     Dn3   v127
	BYTE		N96     An3 
	BYTE	W72
	BYTE	PEND
// 058   ----------------------------------------
	BYTE	W24
	BYTE		        En3 
	BYTE		N96     Gn3 
	BYTE	W72
// 059   ----------------------------------------
AweOfShe_11_059:
	BYTE	W24
	BYTE		N48     Fs3   v127
	BYTE		N48     An3 
	BYTE	W48
	BYTE		N48   
	BYTE		N48     Dn4 
	BYTE	W24
	BYTE	PEND
// 060   ----------------------------------------
AweOfShe_11_060:
	BYTE	W24
	BYTE		N60     As3   v127
	BYTE		N60     Dn4 
	BYTE	W60
	BYTE		N12     An3 
	BYTE		N12     Cn4 
	BYTE	W12
	BYTE	PEND
// 061   ----------------------------------------
AweOfShe_11_061:
	BYTE		N12     Gn3   v127
	BYTE		N12     Bn3 
	BYTE	W12
	BYTE		        Fn3 
	BYTE		N12     An3 
	BYTE	W12
	BYTE		N48     Gn3 
	BYTE		N48     As3 
	BYTE	W48
	BYTE		        Gn3 
	BYTE		N48     Cn4 
	BYTE	W24
	BYTE	PEND
// 062   ----------------------------------------
AweOfShe_11_062:
	BYTE	W24
	BYTE		N12     Dn3   v127
	BYTE		N12     Fn3 
	BYTE	W12
	BYTE		N12   
	BYTE		N12     An3 
	BYTE	W12
	BYTE		        Gn3 
	BYTE		N12     Cn4 
	BYTE	W12
	BYTE		N12   
	BYTE		N12     En4 
	BYTE	W12
	BYTE		        Fn3 
	BYTE		N12     An3 
	BYTE	W12
	BYTE		N12   
	BYTE		N12     Cn4 
	BYTE	W12
	BYTE	PEND
// 063   ----------------------------------------
AweOfShe_11_063:
	BYTE		N12     An3   v127
	BYTE		N12     Dn4 
	BYTE	W12
	BYTE		N12   
	BYTE		N12     Fs4 
	BYTE	W12
	BYTE		N24     As3 
	BYTE		N24     Dn4 
	BYTE	W24
	BYTE		N24   
	BYTE		N24     Gn4 
	BYTE	W24
	BYTE		        Bn3 
	BYTE		N24     En4 
	BYTE	W24
	BYTE	PEND
// 064   ----------------------------------------
AweOfShe_11_064:
	BYTE		N24     En4   v127
	BYTE		N24     Gs4 
	BYTE	W24
	BYTE		N48     An4 
	BYTE		N48     Dn5 
	BYTE	W48
	BYTE		        An4 
	BYTE		N48     Cs5 
	BYTE	W24
	BYTE	PEND
// 065   ----------------------------------------
	BYTE	PATT
	 POIN2	AweOfShe_11_023
// 066   ----------------------------------------
	BYTE	PATT
	 POIN2	AweOfShe_11_024
// 067   ----------------------------------------
	BYTE	PATT
	 POIN2	AweOfShe_11_025
// 068   ----------------------------------------
	BYTE	PATT
	 POIN2	AweOfShe_11_024
// 069   ----------------------------------------
	BYTE	PATT
	 POIN2	AweOfShe_11_027
// 070   ----------------------------------------
	BYTE	PATT
	 POIN2	AweOfShe_11_024
// 071   ----------------------------------------
	BYTE	PATT
	 POIN2	AweOfShe_11_025
// 072   ----------------------------------------
	BYTE	PATT
	 POIN2	AweOfShe_11_024
// 073   ----------------------------------------
	BYTE	PATT
	 POIN2	AweOfShe_11_031
// 074   ----------------------------------------
	BYTE	PATT
	 POIN2	AweOfShe_11_032
// 075   ----------------------------------------
	BYTE	PATT
	 POIN2	AweOfShe_11_033
// 076   ----------------------------------------
	BYTE	PATT
	 POIN2	AweOfShe_11_034
// 077   ----------------------------------------
	BYTE	PATT
	 POIN2	AweOfShe_11_033
// 078   ----------------------------------------
	BYTE	PATT
	 POIN2	AweOfShe_11_036
// 079   ----------------------------------------
	BYTE	PATT
	 POIN2	AweOfShe_11_037
// 080   ----------------------------------------
	BYTE	PATT
	 POIN2	AweOfShe_11_038
// 081   ----------------------------------------
	BYTE	PATT
	 POIN2	AweOfShe_11_039
// 082   ----------------------------------------
	BYTE	PATT
	 POIN2	AweOfShe_11_040
// 083   ----------------------------------------
	BYTE	W72
	BYTE		EOT     An3 
	BYTE		        Cn4 
	BYTE		N24     Cn4   v127
	BYTE		N24     En4 
	BYTE	W24
// 084   ----------------------------------------
	BYTE	PATT
	 POIN2	AweOfShe_11_042
// 085   ----------------------------------------
	BYTE	PATT
	 POIN2	AweOfShe_11_043
// 086   ----------------------------------------
	BYTE	PATT
	 POIN2	AweOfShe_11_044
// 087   ----------------------------------------
	BYTE	W24
	BYTE		N48     Dn4   v127
	BYTE	W48
	BYTE		EOT     An3 
	BYTE		TIE   
	BYTE		N48     En4 
	BYTE	W24
// 088   ----------------------------------------
	BYTE	W24
	BYTE		N96     Fn4 
	BYTE	W72
// 089   ----------------------------------------
	BYTE	W24
	BYTE		EOT     An3 
	BYTE		N48     As3 
	BYTE		N48     Dn4 
	BYTE	W48
	BYTE		N24     Cn4 
	BYTE		N24     En4 
	BYTE	W24
// 090   ----------------------------------------
	BYTE	PATT
	 POIN2	AweOfShe_11_048
// 091   ----------------------------------------
	BYTE	W24
	BYTE		N48     An3   v127
	BYTE	W48
	BYTE		EOT     Cn4 
	BYTE		N24   
	BYTE		N24     En4 
	BYTE	W24
// 092   ----------------------------------------
	BYTE	PATT
	 POIN2	AweOfShe_11_042
// 093   ----------------------------------------
	BYTE	PATT
	 POIN2	AweOfShe_11_043
// 094   ----------------------------------------
	BYTE	PATT
	 POIN2	AweOfShe_11_044
// 095   ----------------------------------------
	BYTE	W24
	BYTE		N48     Dn4   v127
	BYTE	W48
	BYTE		EOT     An3 
	BYTE		N48   
	BYTE		N48     En4 
	BYTE	W24
// 096   ----------------------------------------
	BYTE	PATT
	 POIN2	AweOfShe_11_054
// 097   ----------------------------------------
	BYTE	W96
// 098   ----------------------------------------
	BYTE	W96
// 099   ----------------------------------------
	BYTE	PATT
	 POIN2	AweOfShe_11_057
// 100   ----------------------------------------
	BYTE	W24
	BYTE		N96     En3   v127
	BYTE		N96     Gn3 
	BYTE	W72
// 101   ----------------------------------------
	BYTE	PATT
	 POIN2	AweOfShe_11_059
// 102   ----------------------------------------
	BYTE	PATT
	 POIN2	AweOfShe_11_060
// 103   ----------------------------------------
	BYTE	PATT
	 POIN2	AweOfShe_11_061
// 104   ----------------------------------------
	BYTE	PATT
	 POIN2	AweOfShe_11_062
// 105   ----------------------------------------
	BYTE	PATT
	 POIN2	AweOfShe_11_063
// 106   ----------------------------------------
	BYTE	PATT
	 POIN2	AweOfShe_11_064
// 107   ----------------------------------------
	BYTE	PATT
	 POIN2	AweOfShe_11_023
// 108   ----------------------------------------
	BYTE	PATT
	 POIN2	AweOfShe_11_024
// 109   ----------------------------------------
	BYTE	PATT
	 POIN2	AweOfShe_11_025
// 110   ----------------------------------------
	BYTE	PATT
	 POIN2	AweOfShe_11_024
// 111   ----------------------------------------
	BYTE	PATT
	 POIN2	AweOfShe_11_027
// 112   ----------------------------------------
	BYTE	PATT
	 POIN2	AweOfShe_11_024
// 113   ----------------------------------------
	BYTE	PATT
	 POIN2	AweOfShe_11_025
// 114   ----------------------------------------
	BYTE	PATT
	 POIN2	AweOfShe_11_024
// 115   ----------------------------------------
	BYTE	PATT
	 POIN2	AweOfShe_11_031
// 116   ----------------------------------------
	BYTE	PATT
	 POIN2	AweOfShe_11_032
// 117   ----------------------------------------
	BYTE	PATT
	 POIN2	AweOfShe_11_033
// 118   ----------------------------------------
	BYTE	PATT
	 POIN2	AweOfShe_11_034
// 119   ----------------------------------------
	BYTE	PATT
	 POIN2	AweOfShe_11_033
// 120   ----------------------------------------
	BYTE	PATT
	 POIN2	AweOfShe_11_036
// 121   ----------------------------------------
	BYTE	PATT
	 POIN2	AweOfShe_11_037
// 122   ----------------------------------------
	BYTE	PATT
	 POIN2	AweOfShe_11_038
// 123   ----------------------------------------
	BYTE	PATT
	 POIN2	AweOfShe_11_039
// 124   ----------------------------------------
	BYTE	PATT
	 POIN2	AweOfShe_11_040
// 125   ----------------------------------------
	BYTE	W72
	BYTE		EOT     An3 
	BYTE		        Cn4 
	BYTE		N24     Cn4   v127
	BYTE		N24     En4 
	BYTE	W24
// 126   ----------------------------------------
	BYTE	PATT
	 POIN2	AweOfShe_11_042
// 127   ----------------------------------------
	BYTE	PATT
	 POIN2	AweOfShe_11_043
// 128   ----------------------------------------
	BYTE	PATT
	 POIN2	AweOfShe_11_044
// 129   ----------------------------------------
	BYTE	W24
	BYTE		N48     Dn4   v127
	BYTE	W48
	BYTE		EOT     An3 
	BYTE		TIE   
	BYTE		N48     En4 
	BYTE	W24
// 130   ----------------------------------------
	BYTE	W24
	BYTE		N96     Fn4 
	BYTE	W72
// 131   ----------------------------------------
	BYTE	W24
	BYTE		EOT     An3 
	BYTE		N48     As3 
	BYTE		N48     Dn4 
	BYTE	W48
	BYTE		N24     Cn4 
	BYTE		N24     En4 
	BYTE	W24
// 132   ----------------------------------------
	BYTE	PATT
	 POIN2	AweOfShe_11_048
// 133   ----------------------------------------
	BYTE	W24
	BYTE		N48     An3   v127
	BYTE	W48
	BYTE		EOT     Cn4 
	BYTE		N24   
	BYTE		N24     En4 
	BYTE	W24
// 134   ----------------------------------------
	BYTE	PATT
	 POIN2	AweOfShe_11_042
// 135   ----------------------------------------
	BYTE	PATT
	 POIN2	AweOfShe_11_043
// 136   ----------------------------------------
	BYTE	PATT
	 POIN2	AweOfShe_11_044
// 137   ----------------------------------------
	BYTE	W24
	BYTE		N48     Dn4   v127
	BYTE	W48
	BYTE		EOT     An3 
	BYTE		N48   
	BYTE		N48     En4 
	BYTE	W24
// 138   ----------------------------------------
	BYTE	PATT
	 POIN2	AweOfShe_11_054
// 139   ----------------------------------------
	BYTE	W24
	BYTE	FINE

//**************** Track 12 (Midi-Chn.7) ****************//

AweOfShe_12:
	BYTE	KEYSH   AweOfShe_key+0
// 000   ----------------------------------------
	BYTE		VOICE   48
	BYTE	W12
	BYTE		VOL     80*AweOfShe_mvl/mxv
	BYTE	W03
	BYTE		PAN     c_v+0
	BYTE	W03
	BYTE	W78
// 001   ----------------------------------------
	BYTE	W96
// 002   ----------------------------------------
	BYTE	W96
// 003   ----------------------------------------
	BYTE	W96
// 004   ----------------------------------------
	BYTE	W96
// 005   ----------------------------------------
	BYTE	W96
// 006   ----------------------------------------
	BYTE	W96
// 007   ----------------------------------------
	BYTE	W96
// 008   ----------------------------------------
	BYTE	W96
// 009   ----------------------------------------
	BYTE	W96
// 010   ----------------------------------------
	BYTE	W96
// 011   ----------------------------------------
	BYTE	W96
// 012   ----------------------------------------
	BYTE	W96
// 013   ----------------------------------------
	BYTE	W96
// 014   ----------------------------------------
	BYTE	W96
// 015   ----------------------------------------
	BYTE	W96
// 016   ----------------------------------------
	BYTE	W96
// 017   ----------------------------------------
	BYTE	W96
// 018   ----------------------------------------
	BYTE	W96
// 019   ----------------------------------------
	BYTE	W96
// 020   ----------------------------------------
	BYTE	W96
// 021   ----------------------------------------
	BYTE	W96
// 022   ----------------------------------------
	BYTE	W96
// 023   ----------------------------------------
	BYTE	W96
// 024   ----------------------------------------
AweOfShe_12_024:
	BYTE	W24
	BYTE		TIE     Fn4   v127
	BYTE	W72
	BYTE	PEND
// 025   ----------------------------------------
	BYTE	W96
// 026   ----------------------------------------
	BYTE	W96
// 027   ----------------------------------------
	BYTE	W72
	BYTE		EOT   
	BYTE		N48     En4 
	BYTE		N24     Gn4 
	BYTE	W24
// 028   ----------------------------------------
AweOfShe_12_028:
	BYTE		N24     Cs4   v127
	BYTE	W24
	BYTE		TIE     Fn4 
	BYTE	W72
	BYTE	PEND
// 029   ----------------------------------------
	BYTE	W96
// 030   ----------------------------------------
	BYTE	W96
// 031   ----------------------------------------
	BYTE	W72
	BYTE		EOT   
	BYTE		N48     En4 
	BYTE		N24     Gn4 
	BYTE	W24
// 032   ----------------------------------------
	BYTE		        Cs4 
	BYTE	W96
// 033   ----------------------------------------
	BYTE	W96
// 034   ----------------------------------------
	BYTE	W96
// 035   ----------------------------------------
	BYTE	W96
// 036   ----------------------------------------
	BYTE	W96
// 037   ----------------------------------------
	BYTE	W96
// 038   ----------------------------------------
	BYTE	W96
// 039   ----------------------------------------
	BYTE	W96
// 040   ----------------------------------------
	BYTE	W96
// 041   ----------------------------------------
	BYTE	W96
// 042   ----------------------------------------
	BYTE	W96
// 043   ----------------------------------------
	BYTE	W96
// 044   ----------------------------------------
	BYTE	W96
// 045   ----------------------------------------
	BYTE	W96
// 046   ----------------------------------------
	BYTE	W96
// 047   ----------------------------------------
	BYTE	W96
// 048   ----------------------------------------
	BYTE	W96
// 049   ----------------------------------------
	BYTE	W96
// 050   ----------------------------------------
	BYTE	W96
// 051   ----------------------------------------
	BYTE	W96
// 052   ----------------------------------------
	BYTE	W96
// 053   ----------------------------------------
	BYTE	W96
// 054   ----------------------------------------
	BYTE	W96
// 055   ----------------------------------------
	BYTE	W96
// 056   ----------------------------------------
	BYTE	W96
// 057   ----------------------------------------
	BYTE	W96
// 058   ----------------------------------------
	BYTE	W96
// 059   ----------------------------------------
	BYTE	W96
// 060   ----------------------------------------
	BYTE	W96
// 061   ----------------------------------------
	BYTE	W96
// 062   ----------------------------------------
	BYTE	W96
// 063   ----------------------------------------
	BYTE	W96
// 064   ----------------------------------------
	BYTE	W96
// 065   ----------------------------------------
	BYTE	PATT
	 POIN2	AweOfShe_12_024
// 066   ----------------------------------------
	BYTE	W96
// 067   ----------------------------------------
	BYTE	W96
// 068   ----------------------------------------
	BYTE	W72
	BYTE		EOT     Fn4 
	BYTE		N48     En4   v127
	BYTE		N24     Gn4 
	BYTE	W24
// 069   ----------------------------------------
	BYTE	PATT
	 POIN2	AweOfShe_12_028
// 070   ----------------------------------------
	BYTE	W96
// 071   ----------------------------------------
	BYTE	W96
// 072   ----------------------------------------
	BYTE	W72
	BYTE		EOT     Fn4 
	BYTE		N48     En4   v127
	BYTE		N24     Gn4 
	BYTE	W24
// 073   ----------------------------------------
	BYTE		        Cs4 
	BYTE	W96
// 074   ----------------------------------------
	BYTE	W96
// 075   ----------------------------------------
	BYTE	W96
// 076   ----------------------------------------
	BYTE	W96
// 077   ----------------------------------------
	BYTE	W96
// 078   ----------------------------------------
	BYTE	W96
// 079   ----------------------------------------
	BYTE	W96
// 080   ----------------------------------------
	BYTE	W96
// 081   ----------------------------------------
	BYTE	W96
// 082   ----------------------------------------
	BYTE	W96
// 083   ----------------------------------------
	BYTE	W96
// 084   ----------------------------------------
	BYTE	W96
// 085   ----------------------------------------
	BYTE	W96
// 086   ----------------------------------------
	BYTE	W96
// 087   ----------------------------------------
	BYTE	W96
// 088   ----------------------------------------
	BYTE	W96
// 089   ----------------------------------------
	BYTE	W96
// 090   ----------------------------------------
	BYTE	W96
// 091   ----------------------------------------
	BYTE	W96
// 092   ----------------------------------------
	BYTE	W96
// 093   ----------------------------------------
	BYTE	W96
// 094   ----------------------------------------
	BYTE	W96
// 095   ----------------------------------------
	BYTE	W96
// 096   ----------------------------------------
	BYTE	W96
// 097   ----------------------------------------
	BYTE	W96
// 098   ----------------------------------------
	BYTE	W96
// 099   ----------------------------------------
	BYTE	W96
// 100   ----------------------------------------
	BYTE	W96
// 101   ----------------------------------------
	BYTE	W96
// 102   ----------------------------------------
	BYTE	W96
// 103   ----------------------------------------
	BYTE	W96
// 104   ----------------------------------------
	BYTE	W96
// 105   ----------------------------------------
	BYTE	W96
// 106   ----------------------------------------
	BYTE	W96
// 107   ----------------------------------------
	BYTE	PATT
	 POIN2	AweOfShe_12_024
// 108   ----------------------------------------
	BYTE	W96
// 109   ----------------------------------------
	BYTE	W96
// 110   ----------------------------------------
	BYTE	W72
	BYTE		EOT     Fn4 
	BYTE		N48     En4   v127
	BYTE		N24     Gn4 
	BYTE	W24
// 111   ----------------------------------------
	BYTE	PATT
	 POIN2	AweOfShe_12_028
// 112   ----------------------------------------
	BYTE	W96
// 113   ----------------------------------------
	BYTE	W96
// 114   ----------------------------------------
	BYTE	W72
	BYTE		EOT     Fn4 
	BYTE		N48     En4   v127
	BYTE		N24     Gn4 
	BYTE	W24
// 115   ----------------------------------------
	BYTE		        Cs4 
	BYTE	W24
	BYTE	FINE

//**************** Track 13 (Midi-Chn.3) ****************//

AweOfShe_13:
	BYTE	KEYSH   AweOfShe_key+0
// 000   ----------------------------------------
	BYTE		VOICE   89
	BYTE	W12
	BYTE		VOL     80*AweOfShe_mvl/mxv
	BYTE	W03
	BYTE		PAN     c_v+0
	BYTE	W03
	BYTE	W78
// 001   ----------------------------------------
	BYTE	W96
// 002   ----------------------------------------
	BYTE	W96
// 003   ----------------------------------------
	BYTE	W96
// 004   ----------------------------------------
	BYTE	W96
// 005   ----------------------------------------
	BYTE	W96
// 006   ----------------------------------------
	BYTE	W96
// 007   ----------------------------------------
	BYTE	W96
// 008   ----------------------------------------
	BYTE	W96
// 009   ----------------------------------------
	BYTE	W96
// 010   ----------------------------------------
	BYTE	W96
// 011   ----------------------------------------
	BYTE	W96
// 012   ----------------------------------------
	BYTE	W96
// 013   ----------------------------------------
	BYTE	W96
// 014   ----------------------------------------
	BYTE	W96
// 015   ----------------------------------------
	BYTE	W96
// 016   ----------------------------------------
	BYTE	W96
// 017   ----------------------------------------
	BYTE	W96
// 018   ----------------------------------------
	BYTE	W96
// 019   ----------------------------------------
	BYTE	W96
// 020   ----------------------------------------
	BYTE	W96
// 021   ----------------------------------------
	BYTE	W96
// 022   ----------------------------------------
	BYTE	W96
// 023   ----------------------------------------
	BYTE	W96
// 024   ----------------------------------------
AweOfShe_13_024:
	BYTE	W24
	BYTE		TIE     Fn4   v127
	BYTE	W72
	BYTE	PEND
// 025   ----------------------------------------
	BYTE	W96
// 026   ----------------------------------------
	BYTE	W96
// 027   ----------------------------------------
	BYTE	W72
	BYTE		EOT   
	BYTE		N48     En4 
	BYTE		N24     Gn4 
	BYTE	W24
// 028   ----------------------------------------
AweOfShe_13_028:
	BYTE		N24     Cs4   v127
	BYTE	W24
	BYTE		TIE     Fn4 
	BYTE	W72
	BYTE	PEND
// 029   ----------------------------------------
	BYTE	W96
// 030   ----------------------------------------
	BYTE	W96
// 031   ----------------------------------------
	BYTE	W72
	BYTE		EOT   
	BYTE		N48     En4 
	BYTE		N24     Gn4 
	BYTE	W24
// 032   ----------------------------------------
	BYTE		        Cs4 
	BYTE	W96
// 033   ----------------------------------------
	BYTE	W96
// 034   ----------------------------------------
	BYTE	W96
// 035   ----------------------------------------
	BYTE	W96
// 036   ----------------------------------------
	BYTE	W96
// 037   ----------------------------------------
	BYTE	W96
// 038   ----------------------------------------
	BYTE	W96
// 039   ----------------------------------------
	BYTE	W96
// 040   ----------------------------------------
	BYTE	W96
// 041   ----------------------------------------
	BYTE	W96
// 042   ----------------------------------------
	BYTE	W96
// 043   ----------------------------------------
	BYTE	W96
// 044   ----------------------------------------
	BYTE	W96
// 045   ----------------------------------------
	BYTE	W96
// 046   ----------------------------------------
	BYTE	W96
// 047   ----------------------------------------
	BYTE	W96
// 048   ----------------------------------------
	BYTE	W96
// 049   ----------------------------------------
	BYTE	W96
// 050   ----------------------------------------
	BYTE	W96
// 051   ----------------------------------------
	BYTE	W96
// 052   ----------------------------------------
	BYTE	W96
// 053   ----------------------------------------
	BYTE	W96
// 054   ----------------------------------------
	BYTE	W96
// 055   ----------------------------------------
	BYTE	W96
// 056   ----------------------------------------
	BYTE	W96
// 057   ----------------------------------------
	BYTE	W96
// 058   ----------------------------------------
	BYTE	W96
// 059   ----------------------------------------
	BYTE	W96
// 060   ----------------------------------------
	BYTE	W96
// 061   ----------------------------------------
	BYTE	W96
// 062   ----------------------------------------
	BYTE	W96
// 063   ----------------------------------------
	BYTE	W96
// 064   ----------------------------------------
	BYTE	W96
// 065   ----------------------------------------
	BYTE	PATT
	 POIN2	AweOfShe_13_024
// 066   ----------------------------------------
	BYTE	W96
// 067   ----------------------------------------
	BYTE	W96
// 068   ----------------------------------------
	BYTE	W72
	BYTE		EOT     Fn4 
	BYTE		N48     En4   v127
	BYTE		N24     Gn4 
	BYTE	W24
// 069   ----------------------------------------
	BYTE	PATT
	 POIN2	AweOfShe_13_028
// 070   ----------------------------------------
	BYTE	W96
// 071   ----------------------------------------
	BYTE	W96
// 072   ----------------------------------------
	BYTE	W72
	BYTE		EOT     Fn4 
	BYTE		N48     En4   v127
	BYTE		N24     Gn4 
	BYTE	W24
// 073   ----------------------------------------
	BYTE		        Cs4 
	BYTE	W96
// 074   ----------------------------------------
	BYTE	W96
// 075   ----------------------------------------
	BYTE	W96
// 076   ----------------------------------------
	BYTE	W96
// 077   ----------------------------------------
	BYTE	W96
// 078   ----------------------------------------
	BYTE	W96
// 079   ----------------------------------------
	BYTE	W96
// 080   ----------------------------------------
	BYTE	W96
// 081   ----------------------------------------
	BYTE	W96
// 082   ----------------------------------------
	BYTE	W96
// 083   ----------------------------------------
	BYTE	W96
// 084   ----------------------------------------
	BYTE	W96
// 085   ----------------------------------------
	BYTE	W96
// 086   ----------------------------------------
	BYTE	W96
// 087   ----------------------------------------
	BYTE	W96
// 088   ----------------------------------------
	BYTE	W96
// 089   ----------------------------------------
	BYTE	W96
// 090   ----------------------------------------
	BYTE	W96
// 091   ----------------------------------------
	BYTE	W96
// 092   ----------------------------------------
	BYTE	W96
// 093   ----------------------------------------
	BYTE	W96
// 094   ----------------------------------------
	BYTE	W96
// 095   ----------------------------------------
	BYTE	W96
// 096   ----------------------------------------
	BYTE	W96
// 097   ----------------------------------------
	BYTE	W96
// 098   ----------------------------------------
	BYTE	W96
// 099   ----------------------------------------
	BYTE	W96
// 100   ----------------------------------------
	BYTE	W96
// 101   ----------------------------------------
	BYTE	W96
// 102   ----------------------------------------
	BYTE	W96
// 103   ----------------------------------------
	BYTE	W96
// 104   ----------------------------------------
	BYTE	W96
// 105   ----------------------------------------
	BYTE	W96
// 106   ----------------------------------------
	BYTE	W96
// 107   ----------------------------------------
	BYTE	PATT
	 POIN2	AweOfShe_13_024
// 108   ----------------------------------------
	BYTE	W96
// 109   ----------------------------------------
	BYTE	W96
// 110   ----------------------------------------
	BYTE	W72
	BYTE		EOT     Fn4 
	BYTE		N48     En4   v127
	BYTE		N24     Gn4 
	BYTE	W24
// 111   ----------------------------------------
	BYTE	PATT
	 POIN2	AweOfShe_13_028
// 112   ----------------------------------------
	BYTE	W96
// 113   ----------------------------------------
	BYTE	W96
// 114   ----------------------------------------
	BYTE	W72
	BYTE		EOT     Fn4 
	BYTE		N48     En4   v127
	BYTE		N24     Gn4 
	BYTE	W24
// 115   ----------------------------------------
	BYTE		        Cs4 
	BYTE	W24
	BYTE	FINE

//**************** Track 14 (Midi-Chn.8) ****************//

AweOfShe_14:
	BYTE	KEYSH   AweOfShe_key+0
// 000   ----------------------------------------
	BYTE		VOICE   24
	BYTE	W12
	BYTE		VOL     100*AweOfShe_mvl/mxv
	BYTE	W03
	BYTE		PAN     c_v+0
	BYTE	W03
	BYTE	W06
	BYTE		        c_v+0
	BYTE	W72
// 001   ----------------------------------------
	BYTE	W96
// 002   ----------------------------------------
	BYTE	W96
// 003   ----------------------------------------
	BYTE	W96
// 004   ----------------------------------------
	BYTE	W96
// 005   ----------------------------------------
	BYTE	W96
// 006   ----------------------------------------
	BYTE	W96
// 007   ----------------------------------------
	BYTE	W96
// 008   ----------------------------------------
	BYTE	W96
// 009   ----------------------------------------
	BYTE	W96
// 010   ----------------------------------------
	BYTE	W96
// 011   ----------------------------------------
	BYTE	W96
// 012   ----------------------------------------
	BYTE	W96
// 013   ----------------------------------------
	BYTE	W96
// 014   ----------------------------------------
	BYTE	W96
// 015   ----------------------------------------
	BYTE	W96
// 016   ----------------------------------------
	BYTE	W96
// 017   ----------------------------------------
	BYTE	W96
// 018   ----------------------------------------
	BYTE	W96
// 019   ----------------------------------------
	BYTE	W96
// 020   ----------------------------------------
	BYTE	W96
// 021   ----------------------------------------
	BYTE	W96
// 022   ----------------------------------------
	BYTE	W96
// 023   ----------------------------------------
	BYTE	W24
	BYTE		N09     Fn4   v096
	BYTE	W12
	BYTE		N09   
	BYTE	W12
	BYTE		        Gn4 
	BYTE	W12
	BYTE		N09   
	BYTE	W12
	BYTE		        En4 
	BYTE	W12
	BYTE		N09   
	BYTE	W12
// 024   ----------------------------------------
AweOfShe_14_024:
	BYTE		N09     Fn4   v096
	BYTE	W12
	BYTE		N09   
	BYTE	W12
	BYTE		        Dn4 
	BYTE	W12
	BYTE		N09   
	BYTE	W12
	BYTE		        En4 
	BYTE	W12
	BYTE		N09   
	BYTE	W12
	BYTE		        Cs4 
	BYTE	W12
	BYTE		        Dn4 
	BYTE	W12
	BYTE	PEND
// 025   ----------------------------------------
AweOfShe_14_025:
	BYTE		N09     En4   v096
	BYTE	W12
	BYTE		        Fn4 
	BYTE	W12
	BYTE		N09   
	BYTE	W12
	BYTE		N09   
	BYTE	W12
	BYTE		        Gn4 
	BYTE	W12
	BYTE		N09   
	BYTE	W12
	BYTE		        En4 
	BYTE	W12
	BYTE		N09   
	BYTE	W12
	BYTE	PEND
// 026   ----------------------------------------
	BYTE	PATT
	 POIN2	AweOfShe_14_024
// 027   ----------------------------------------
	BYTE		N09     As4   v096
	BYTE	W12
	BYTE		        An4 
	BYTE	W12
	BYTE		        Fn4 
	BYTE	W12
	BYTE		N09   
	BYTE	W12
	BYTE		        Gn4 
	BYTE	W12
	BYTE		N09   
	BYTE	W12
	BYTE		        En4 
	BYTE	W12
	BYTE		N09   
	BYTE	W12
// 028   ----------------------------------------
	BYTE	PATT
	 POIN2	AweOfShe_14_024
// 029   ----------------------------------------
	BYTE	PATT
	 POIN2	AweOfShe_14_025
// 030   ----------------------------------------
	BYTE	PATT
	 POIN2	AweOfShe_14_024
// 031   ----------------------------------------
	BYTE		N09     As4   v096
	BYTE	W12
	BYTE		        An4 
	BYTE	W84
// 032   ----------------------------------------
	BYTE	W96
// 033   ----------------------------------------
	BYTE	W96
// 034   ----------------------------------------
	BYTE	W96
// 035   ----------------------------------------
	BYTE	W96
// 036   ----------------------------------------
	BYTE	W96
// 037   ----------------------------------------
	BYTE	W96
// 038   ----------------------------------------
	BYTE	W96
// 039   ----------------------------------------
AweOfShe_14_039:
	BYTE	W24
	BYTE		N06     As3   v127
	BYTE	W06
	BYTE		        Fn4 
	BYTE	W06
	BYTE		        En4 
	BYTE	W06
	BYTE		        Fn4 
	BYTE	W06
	BYTE		        As3 
	BYTE	W06
	BYTE		        Fn4 
	BYTE	W06
	BYTE		        En4 
	BYTE	W06
	BYTE		        Fn4 
	BYTE	W06
	BYTE		        As3 
	BYTE	W06
	BYTE		        Fn4 
	BYTE	W06
	BYTE		        En4 
	BYTE	W06
	BYTE		        Fn4 
	BYTE	W06
	BYTE	PEND
// 040   ----------------------------------------
AweOfShe_14_040:
	BYTE		N06     As3   v127
	BYTE	W06
	BYTE		        Fn4 
	BYTE	W06
	BYTE		        En4 
	BYTE	W06
	BYTE		        Fn4 
	BYTE	W06
	BYTE		        An3 
	BYTE	W06
	BYTE		        En4 
	BYTE	W06
	BYTE		        Dn4 
	BYTE	W06
	BYTE		        En4 
	BYTE	W06
	BYTE		        An3 
	BYTE	W06
	BYTE		        En4 
	BYTE	W06
	BYTE		        Dn4 
	BYTE	W06
	BYTE		        En4 
	BYTE	W06
	BYTE		        An3 
	BYTE	W06
	BYTE		        En4 
	BYTE	W06
	BYTE		        Dn4 
	BYTE	W06
	BYTE		        En4 
	BYTE	W06
	BYTE	PEND
// 041   ----------------------------------------
AweOfShe_14_041:
	BYTE		N06     An3   v127
	BYTE	W06
	BYTE		        En4 
	BYTE	W06
	BYTE		        Dn4 
	BYTE	W06
	BYTE		        En4 
	BYTE	W06
	BYTE		        An3 
	BYTE	W06
	BYTE		        En4 
	BYTE	W06
	BYTE		        Dn4 
	BYTE	W06
	BYTE		        En4 
	BYTE	W06
	BYTE		        An3 
	BYTE	W06
	BYTE		        En4 
	BYTE	W06
	BYTE		        Dn4 
	BYTE	W06
	BYTE		        En4 
	BYTE	W06
	BYTE		        An3 
	BYTE	W06
	BYTE		        En4 
	BYTE	W06
	BYTE		        Dn4 
	BYTE	W06
	BYTE		        En4 
	BYTE	W06
	BYTE	PEND
// 042   ----------------------------------------
AweOfShe_14_042:
	BYTE		N06     An3   v127
	BYTE	W06
	BYTE		        En4 
	BYTE	W06
	BYTE		        Dn4 
	BYTE	W06
	BYTE		        En4 
	BYTE	W06
	BYTE		        Fn3 
	BYTE	W06
	BYTE		        Dn4 
	BYTE	W06
	BYTE		        Cn4 
	BYTE	W06
	BYTE		        Dn4 
	BYTE	W06
	BYTE		        Fn3 
	BYTE	W06
	BYTE		        Dn4 
	BYTE	W06
	BYTE		        Cn4 
	BYTE	W06
	BYTE		        Dn4 
	BYTE	W06
	BYTE		        Fn3 
	BYTE	W06
	BYTE		        Dn4 
	BYTE	W06
	BYTE		        Cn4 
	BYTE	W06
	BYTE		        Dn4 
	BYTE	W06
	BYTE	PEND
// 043   ----------------------------------------
AweOfShe_14_043:
	BYTE		N06     Fn3   v127
	BYTE	W06
	BYTE		        Dn4 
	BYTE	W06
	BYTE		        Cn4 
	BYTE	W06
	BYTE		        Dn4 
	BYTE	W06
	BYTE		        En3 
	BYTE	W06
	BYTE		        Dn4 
	BYTE	W06
	BYTE		        Cn4 
	BYTE	W06
	BYTE		        Dn4 
	BYTE	W06
	BYTE		        En3 
	BYTE	W06
	BYTE		        Dn4 
	BYTE	W06
	BYTE		        Cn4 
	BYTE	W06
	BYTE		        Dn4 
	BYTE	W06
	BYTE		        En3 
	BYTE	W06
	BYTE		        Dn4 
	BYTE	W06
	BYTE		        Cn4 
	BYTE	W06
	BYTE		        Dn4 
	BYTE	W06
	BYTE	PEND
// 044   ----------------------------------------
AweOfShe_14_044:
	BYTE		N06     En3   v127
	BYTE	W06
	BYTE		        Dn4 
	BYTE	W06
	BYTE		        Cn4 
	BYTE	W06
	BYTE		        Dn4 
	BYTE	W06
	BYTE		N06   
	BYTE	W06
	BYTE		        Cs4 
	BYTE	W06
	BYTE		        Bn3 
	BYTE	W06
	BYTE		        Cs4 
	BYTE	W06
	BYTE		        Dn4 
	BYTE	W06
	BYTE		        Cs4 
	BYTE	W06
	BYTE		        Bn3 
	BYTE	W06
	BYTE		        Cs4 
	BYTE	W06
	BYTE		        Dn4 
	BYTE	W06
	BYTE		        Cs4 
	BYTE	W06
	BYTE		        Bn3 
	BYTE	W06
	BYTE		        Cs4 
	BYTE	W06
	BYTE	PEND
// 045   ----------------------------------------
AweOfShe_14_045:
	BYTE		N06     Dn4   v127
	BYTE	W06
	BYTE		        Cs4 
	BYTE	W06
	BYTE		        Bn3 
	BYTE	W06
	BYTE		        Cs4 
	BYTE	W06
	BYTE		        Gn3 
	BYTE	W06
	BYTE		        Dn4 
	BYTE	W06
	BYTE		        Cs4 
	BYTE	W06
	BYTE		        Dn4 
	BYTE	W06
	BYTE		        Gn3 
	BYTE	W06
	BYTE		        Dn4 
	BYTE	W06
	BYTE		        Cs4 
	BYTE	W06
	BYTE		        Dn4 
	BYTE	W06
	BYTE		        An3 
	BYTE	W06
	BYTE		        En4 
	BYTE	W06
	BYTE		        Dn4 
	BYTE	W06
	BYTE		        En4 
	BYTE	W06
	BYTE	PEND
// 046   ----------------------------------------
AweOfShe_14_046:
	BYTE		N06     An3   v127
	BYTE	W06
	BYTE		        En4 
	BYTE	W06
	BYTE		        Dn4 
	BYTE	W06
	BYTE		        En4 
	BYTE	W06
	BYTE		        Gn4 
	BYTE	W06
	BYTE		        Fn4 
	BYTE	W06
	BYTE		        En4 
	BYTE	W06
	BYTE		        Dn4 
	BYTE	W06
	BYTE		        Cs4 
	BYTE	W06
	BYTE		        Dn4 
	BYTE	W06
	BYTE		        En4 
	BYTE	W06
	BYTE		        Fn4 
	BYTE	W06
	BYTE		        Gn4 
	BYTE	W06
	BYTE		        Fn4 
	BYTE	W06
	BYTE		        As4 
	BYTE	W06
	BYTE		N30     An4 
	BYTE	W06
	BYTE	PEND
// 047   ----------------------------------------
	BYTE	PATT
	 POIN2	AweOfShe_14_039
// 048   ----------------------------------------
	BYTE	PATT
	 POIN2	AweOfShe_14_040
// 049   ----------------------------------------
	BYTE	PATT
	 POIN2	AweOfShe_14_041
// 050   ----------------------------------------
	BYTE	PATT
	 POIN2	AweOfShe_14_042
// 051   ----------------------------------------
	BYTE	PATT
	 POIN2	AweOfShe_14_043
// 052   ----------------------------------------
	BYTE	PATT
	 POIN2	AweOfShe_14_044
// 053   ----------------------------------------
	BYTE	PATT
	 POIN2	AweOfShe_14_045
// 054   ----------------------------------------
AweOfShe_14_054:
	BYTE		N06     An3   v127
	BYTE	W06
	BYTE		        En4 
	BYTE	W06
	BYTE		        Dn4 
	BYTE	W06
	BYTE		        En4 
	BYTE	W06
	BYTE		        Gn4 
	BYTE	W06
	BYTE		        Fn4 
	BYTE	W06
	BYTE		        En4 
	BYTE	W06
	BYTE		        Dn4 
	BYTE	W06
	BYTE		        Cs4 
	BYTE	W06
	BYTE		        Dn4 
	BYTE	W06
	BYTE		        En4 
	BYTE	W06
	BYTE		        Fn4 
	BYTE	W06
	BYTE		        Fs4 
	BYTE	W06
	BYTE		        Dn4 
	BYTE	W06
	BYTE		        Fs4 
	BYTE	W06
	BYTE		        An4 
	BYTE	W06
	BYTE	PEND
// 055   ----------------------------------------
AweOfShe_14_055:
	BYTE		N06     As4   v127
	BYTE	W06
	BYTE		        An4 
	BYTE	W06
	BYTE		        Gn4 
	BYTE	W06
	BYTE		        Fs4 
	BYTE	W78
	BYTE	PEND
// 056   ----------------------------------------
	BYTE	W96
// 057   ----------------------------------------
	BYTE	W96
// 058   ----------------------------------------
	BYTE	W96
// 059   ----------------------------------------
	BYTE	W96
// 060   ----------------------------------------
	BYTE	W96
// 061   ----------------------------------------
	BYTE	W96
// 062   ----------------------------------------
	BYTE	W96
// 063   ----------------------------------------
	BYTE	W96
// 064   ----------------------------------------
	BYTE	W96
// 065   ----------------------------------------
AweOfShe_14_065:
	BYTE	W24
	BYTE		N12     Fn4   v127
	BYTE	W12
	BYTE		N12   
	BYTE	W12
	BYTE		        Gn4 
	BYTE	W12
	BYTE		N12   
	BYTE	W12
	BYTE		        En4 
	BYTE	W12
	BYTE		N12   
	BYTE	W12
	BYTE	PEND
// 066   ----------------------------------------
AweOfShe_14_066:
	BYTE		N12     Fn4   v127
	BYTE	W12
	BYTE		N12   
	BYTE	W12
	BYTE		        Dn4 
	BYTE	W12
	BYTE		N12   
	BYTE	W12
	BYTE		        En4 
	BYTE	W12
	BYTE		N12   
	BYTE	W12
	BYTE		        Cs4 
	BYTE	W12
	BYTE		        Dn4 
	BYTE	W12
	BYTE	PEND
// 067   ----------------------------------------
AweOfShe_14_067:
	BYTE		N12     En4   v127
	BYTE	W12
	BYTE		        Fn4 
	BYTE	W12
	BYTE		N12   
	BYTE	W12
	BYTE		N12   
	BYTE	W12
	BYTE		        Gn4 
	BYTE	W12
	BYTE		N12   
	BYTE	W12
	BYTE		        En4 
	BYTE	W12
	BYTE		N12   
	BYTE	W12
	BYTE	PEND
// 068   ----------------------------------------
	BYTE	PATT
	 POIN2	AweOfShe_14_066
// 069   ----------------------------------------
AweOfShe_14_069:
	BYTE		N12     As4   v127
	BYTE	W12
	BYTE		        An4 
	BYTE	W12
	BYTE		        Fn4 
	BYTE	W12
	BYTE		N12   
	BYTE	W12
	BYTE		        Gn4 
	BYTE	W12
	BYTE		N12   
	BYTE	W12
	BYTE		        En4 
	BYTE	W12
	BYTE		N12   
	BYTE	W12
	BYTE	PEND
// 070   ----------------------------------------
	BYTE	PATT
	 POIN2	AweOfShe_14_066
// 071   ----------------------------------------
	BYTE	PATT
	 POIN2	AweOfShe_14_067
// 072   ----------------------------------------
	BYTE	PATT
	 POIN2	AweOfShe_14_066
// 073   ----------------------------------------
AweOfShe_14_073:
	BYTE		N12     As4   v127
	BYTE	W12
	BYTE		        An4 
	BYTE	W84
	BYTE	PEND
// 074   ----------------------------------------
	BYTE	W96
// 075   ----------------------------------------
	BYTE	W96
// 076   ----------------------------------------
	BYTE	W96
// 077   ----------------------------------------
	BYTE	W96
// 078   ----------------------------------------
	BYTE	W96
// 079   ----------------------------------------
	BYTE	W96
// 080   ----------------------------------------
	BYTE	W96
// 081   ----------------------------------------
	BYTE	PATT
	 POIN2	AweOfShe_14_039
// 082   ----------------------------------------
	BYTE	PATT
	 POIN2	AweOfShe_14_040
// 083   ----------------------------------------
	BYTE	PATT
	 POIN2	AweOfShe_14_041
// 084   ----------------------------------------
	BYTE	PATT
	 POIN2	AweOfShe_14_042
// 085   ----------------------------------------
	BYTE	PATT
	 POIN2	AweOfShe_14_043
// 086   ----------------------------------------
	BYTE	PATT
	 POIN2	AweOfShe_14_044
// 087   ----------------------------------------
	BYTE	PATT
	 POIN2	AweOfShe_14_045
// 088   ----------------------------------------
	BYTE	PATT
	 POIN2	AweOfShe_14_046
// 089   ----------------------------------------
	BYTE	PATT
	 POIN2	AweOfShe_14_039
// 090   ----------------------------------------
	BYTE	PATT
	 POIN2	AweOfShe_14_040
// 091   ----------------------------------------
	BYTE	PATT
	 POIN2	AweOfShe_14_041
// 092   ----------------------------------------
	BYTE	PATT
	 POIN2	AweOfShe_14_042
// 093   ----------------------------------------
	BYTE	PATT
	 POIN2	AweOfShe_14_043
// 094   ----------------------------------------
	BYTE	PATT
	 POIN2	AweOfShe_14_044
// 095   ----------------------------------------
	BYTE	PATT
	 POIN2	AweOfShe_14_045
// 096   ----------------------------------------
	BYTE	PATT
	 POIN2	AweOfShe_14_054
// 097   ----------------------------------------
	BYTE	PATT
	 POIN2	AweOfShe_14_055
// 098   ----------------------------------------
	BYTE	W96
// 099   ----------------------------------------
	BYTE	W96
// 100   ----------------------------------------
	BYTE	W96
// 101   ----------------------------------------
	BYTE	W96
// 102   ----------------------------------------
	BYTE	W96
// 103   ----------------------------------------
	BYTE	W96
// 104   ----------------------------------------
	BYTE	W96
// 105   ----------------------------------------
	BYTE	W96
// 106   ----------------------------------------
	BYTE	W96
// 107   ----------------------------------------
	BYTE	PATT
	 POIN2	AweOfShe_14_065
// 108   ----------------------------------------
	BYTE	PATT
	 POIN2	AweOfShe_14_066
// 109   ----------------------------------------
	BYTE	PATT
	 POIN2	AweOfShe_14_067
// 110   ----------------------------------------
	BYTE	PATT
	 POIN2	AweOfShe_14_066
// 111   ----------------------------------------
	BYTE	PATT
	 POIN2	AweOfShe_14_069
// 112   ----------------------------------------
	BYTE	PATT
	 POIN2	AweOfShe_14_066
// 113   ----------------------------------------
	BYTE	PATT
	 POIN2	AweOfShe_14_067
// 114   ----------------------------------------
	BYTE	PATT
	 POIN2	AweOfShe_14_066
// 115   ----------------------------------------
	BYTE	PATT
	 POIN2	AweOfShe_14_073
// 116   ----------------------------------------
	BYTE	W96
// 117   ----------------------------------------
	BYTE	W96
// 118   ----------------------------------------
	BYTE	W96
// 119   ----------------------------------------
	BYTE	W96
// 120   ----------------------------------------
	BYTE	W96
// 121   ----------------------------------------
	BYTE	W96
// 122   ----------------------------------------
	BYTE	W96
// 123   ----------------------------------------
	BYTE	PATT
	 POIN2	AweOfShe_14_039
// 124   ----------------------------------------
	BYTE	PATT
	 POIN2	AweOfShe_14_040
// 125   ----------------------------------------
	BYTE	PATT
	 POIN2	AweOfShe_14_041
// 126   ----------------------------------------
	BYTE	PATT
	 POIN2	AweOfShe_14_042
// 127   ----------------------------------------
	BYTE	PATT
	 POIN2	AweOfShe_14_043
// 128   ----------------------------------------
	BYTE	PATT
	 POIN2	AweOfShe_14_044
// 129   ----------------------------------------
	BYTE	PATT
	 POIN2	AweOfShe_14_045
// 130   ----------------------------------------
	BYTE	PATT
	 POIN2	AweOfShe_14_046
// 131   ----------------------------------------
	BYTE	PATT
	 POIN2	AweOfShe_14_039
// 132   ----------------------------------------
	BYTE	PATT
	 POIN2	AweOfShe_14_040
// 133   ----------------------------------------
	BYTE	PATT
	 POIN2	AweOfShe_14_041
// 134   ----------------------------------------
	BYTE	PATT
	 POIN2	AweOfShe_14_042
// 135   ----------------------------------------
	BYTE	PATT
	 POIN2	AweOfShe_14_043
// 136   ----------------------------------------
	BYTE	PATT
	 POIN2	AweOfShe_14_044
// 137   ----------------------------------------
	BYTE	PATT
	 POIN2	AweOfShe_14_045
// 138   ----------------------------------------
	BYTE	PATT
	 POIN2	AweOfShe_14_054
// 139   ----------------------------------------
	BYTE		N06     As4   v127
	BYTE	W06
	BYTE		        An4 
	BYTE	W06
	BYTE		        Gn4 
	BYTE	W06
	BYTE		        Fs4 
	BYTE	W06
	BYTE	FINE

//**************** Track 15 (Midi-Chn.9) ****************//

AweOfShe_15:
	BYTE	KEYSH   AweOfShe_key+0
// 000   ----------------------------------------
	BYTE		VOICE   93
	BYTE	W12
	BYTE		VOL     100*AweOfShe_mvl/mxv
	BYTE	W03
	BYTE		PAN     c_v+0
	BYTE	W03
	BYTE	W06
	BYTE		        c_v+0
	BYTE	W72
// 001   ----------------------------------------
	BYTE	W96
// 002   ----------------------------------------
	BYTE	W96
// 003   ----------------------------------------
	BYTE	W96
// 004   ----------------------------------------
	BYTE	W96
// 005   ----------------------------------------
	BYTE	W96
// 006   ----------------------------------------
	BYTE	W96
// 007   ----------------------------------------
	BYTE	W96
// 008   ----------------------------------------
	BYTE	W96
// 009   ----------------------------------------
	BYTE	W96
// 010   ----------------------------------------
	BYTE	W96
// 011   ----------------------------------------
	BYTE	W96
// 012   ----------------------------------------
	BYTE	W96
// 013   ----------------------------------------
	BYTE	W96
// 014   ----------------------------------------
	BYTE	W96
// 015   ----------------------------------------
	BYTE	W96
// 016   ----------------------------------------
	BYTE	W96
// 017   ----------------------------------------
	BYTE	W96
// 018   ----------------------------------------
	BYTE	W96
// 019   ----------------------------------------
	BYTE	W96
// 020   ----------------------------------------
	BYTE	W96
// 021   ----------------------------------------
	BYTE	W96
// 022   ----------------------------------------
	BYTE	W96
// 023   ----------------------------------------
	BYTE	W24
	BYTE		N09     Fn4   v096
	BYTE	W12
	BYTE		N09   
	BYTE	W12
	BYTE		        Gn4 
	BYTE	W12
	BYTE		N09   
	BYTE	W12
	BYTE		        En4 
	BYTE	W12
	BYTE		N09   
	BYTE	W12
// 024   ----------------------------------------
AweOfShe_15_024:
	BYTE		N09     Fn4   v096
	BYTE	W12
	BYTE		N09   
	BYTE	W12
	BYTE		        Dn4 
	BYTE	W12
	BYTE		N09   
	BYTE	W12
	BYTE		        En4 
	BYTE	W12
	BYTE		N09   
	BYTE	W12
	BYTE		        Cs4 
	BYTE	W12
	BYTE		        Dn4 
	BYTE	W12
	BYTE	PEND
// 025   ----------------------------------------
AweOfShe_15_025:
	BYTE		N09     En4   v096
	BYTE	W12
	BYTE		        Fn4 
	BYTE	W12
	BYTE		N09   
	BYTE	W12
	BYTE		N09   
	BYTE	W12
	BYTE		        Gn4 
	BYTE	W12
	BYTE		N09   
	BYTE	W12
	BYTE		        En4 
	BYTE	W12
	BYTE		N09   
	BYTE	W12
	BYTE	PEND
// 026   ----------------------------------------
	BYTE	PATT
	 POIN2	AweOfShe_15_024
// 027   ----------------------------------------
	BYTE		N09     As4   v096
	BYTE	W12
	BYTE		        An4 
	BYTE	W12
	BYTE		        Fn4 
	BYTE	W12
	BYTE		N09   
	BYTE	W12
	BYTE		        Gn4 
	BYTE	W12
	BYTE		N09   
	BYTE	W12
	BYTE		        En4 
	BYTE	W12
	BYTE		N09   
	BYTE	W12
// 028   ----------------------------------------
	BYTE	PATT
	 POIN2	AweOfShe_15_024
// 029   ----------------------------------------
	BYTE	PATT
	 POIN2	AweOfShe_15_025
// 030   ----------------------------------------
	BYTE	PATT
	 POIN2	AweOfShe_15_024
// 031   ----------------------------------------
	BYTE		N09     As4   v096
	BYTE	W12
	BYTE		        An4 
	BYTE	W84
// 032   ----------------------------------------
	BYTE	W96
// 033   ----------------------------------------
	BYTE	W96
// 034   ----------------------------------------
	BYTE	W96
// 035   ----------------------------------------
	BYTE	W96
// 036   ----------------------------------------
	BYTE	W96
// 037   ----------------------------------------
	BYTE	W96
// 038   ----------------------------------------
	BYTE	W96
// 039   ----------------------------------------
AweOfShe_15_039:
	BYTE	W24
	BYTE		N06     As3   v127
	BYTE	W06
	BYTE		        Fn4 
	BYTE	W06
	BYTE		        En4 
	BYTE	W06
	BYTE		        Fn4 
	BYTE	W06
	BYTE		        As3 
	BYTE	W06
	BYTE		        Fn4 
	BYTE	W06
	BYTE		        En4 
	BYTE	W06
	BYTE		        Fn4 
	BYTE	W06
	BYTE		        As3 
	BYTE	W06
	BYTE		        Fn4 
	BYTE	W06
	BYTE		        En4 
	BYTE	W06
	BYTE		        Fn4 
	BYTE	W06
	BYTE	PEND
// 040   ----------------------------------------
AweOfShe_15_040:
	BYTE		N06     As3   v127
	BYTE	W06
	BYTE		        Fn4 
	BYTE	W06
	BYTE		        En4 
	BYTE	W06
	BYTE		        Fn4 
	BYTE	W06
	BYTE		        An3 
	BYTE	W06
	BYTE		        En4 
	BYTE	W06
	BYTE		        Dn4 
	BYTE	W06
	BYTE		        En4 
	BYTE	W06
	BYTE		        An3 
	BYTE	W06
	BYTE		        En4 
	BYTE	W06
	BYTE		        Dn4 
	BYTE	W06
	BYTE		        En4 
	BYTE	W06
	BYTE		        An3 
	BYTE	W06
	BYTE		        En4 
	BYTE	W06
	BYTE		        Dn4 
	BYTE	W06
	BYTE		        En4 
	BYTE	W06
	BYTE	PEND
// 041   ----------------------------------------
AweOfShe_15_041:
	BYTE		N06     An3   v127
	BYTE	W06
	BYTE		        En4 
	BYTE	W06
	BYTE		        Dn4 
	BYTE	W06
	BYTE		        En4 
	BYTE	W06
	BYTE		        An3 
	BYTE	W06
	BYTE		        En4 
	BYTE	W06
	BYTE		        Dn4 
	BYTE	W06
	BYTE		        En4 
	BYTE	W06
	BYTE		        An3 
	BYTE	W06
	BYTE		        En4 
	BYTE	W06
	BYTE		        Dn4 
	BYTE	W06
	BYTE		        En4 
	BYTE	W06
	BYTE		        An3 
	BYTE	W06
	BYTE		        En4 
	BYTE	W06
	BYTE		        Dn4 
	BYTE	W06
	BYTE		        En4 
	BYTE	W06
	BYTE	PEND
// 042   ----------------------------------------
AweOfShe_15_042:
	BYTE		N06     An3   v127
	BYTE	W06
	BYTE		        En4 
	BYTE	W06
	BYTE		        Dn4 
	BYTE	W06
	BYTE		        En4 
	BYTE	W06
	BYTE		        Fn3 
	BYTE	W06
	BYTE		        Dn4 
	BYTE	W06
	BYTE		        Cn4 
	BYTE	W06
	BYTE		        Dn4 
	BYTE	W06
	BYTE		        Fn3 
	BYTE	W06
	BYTE		        Dn4 
	BYTE	W06
	BYTE		        Cn4 
	BYTE	W06
	BYTE		        Dn4 
	BYTE	W06
	BYTE		        Fn3 
	BYTE	W06
	BYTE		        Dn4 
	BYTE	W06
	BYTE		        Cn4 
	BYTE	W06
	BYTE		        Dn4 
	BYTE	W06
	BYTE	PEND
// 043   ----------------------------------------
AweOfShe_15_043:
	BYTE		N06     Fn3   v127
	BYTE	W06
	BYTE		        Dn4 
	BYTE	W06
	BYTE		        Cn4 
	BYTE	W06
	BYTE		        Dn4 
	BYTE	W06
	BYTE		        En3 
	BYTE	W06
	BYTE		        Dn4 
	BYTE	W06
	BYTE		        Cn4 
	BYTE	W06
	BYTE		        Dn4 
	BYTE	W06
	BYTE		        En3 
	BYTE	W06
	BYTE		        Dn4 
	BYTE	W06
	BYTE		        Cn4 
	BYTE	W06
	BYTE		        Dn4 
	BYTE	W06
	BYTE		        En3 
	BYTE	W06
	BYTE		        Dn4 
	BYTE	W06
	BYTE		        Cn4 
	BYTE	W06
	BYTE		        Dn4 
	BYTE	W06
	BYTE	PEND
// 044   ----------------------------------------
AweOfShe_15_044:
	BYTE		N06     En3   v127
	BYTE	W06
	BYTE		        Dn4 
	BYTE	W06
	BYTE		        Cn4 
	BYTE	W06
	BYTE		        Dn4 
	BYTE	W06
	BYTE		N06   
	BYTE	W06
	BYTE		        Cs4 
	BYTE	W06
	BYTE		        Bn3 
	BYTE	W06
	BYTE		        Cs4 
	BYTE	W06
	BYTE		        Dn4 
	BYTE	W06
	BYTE		        Cs4 
	BYTE	W06
	BYTE		        Bn3 
	BYTE	W06
	BYTE		        Cs4 
	BYTE	W06
	BYTE		        Dn4 
	BYTE	W06
	BYTE		        Cs4 
	BYTE	W06
	BYTE		        Bn3 
	BYTE	W06
	BYTE		        Cs4 
	BYTE	W06
	BYTE	PEND
// 045   ----------------------------------------
AweOfShe_15_045:
	BYTE		N06     Dn4   v127
	BYTE	W06
	BYTE		        Cs4 
	BYTE	W06
	BYTE		        Bn3 
	BYTE	W06
	BYTE		        Cs4 
	BYTE	W06
	BYTE		        Gn3 
	BYTE	W06
	BYTE		        Dn4 
	BYTE	W06
	BYTE		        Cs4 
	BYTE	W06
	BYTE		        Dn4 
	BYTE	W06
	BYTE		        Gn3 
	BYTE	W06
	BYTE		        Dn4 
	BYTE	W06
	BYTE		        Cs4 
	BYTE	W06
	BYTE		        Dn4 
	BYTE	W06
	BYTE		        An3 
	BYTE	W06
	BYTE		        En4 
	BYTE	W06
	BYTE		        Dn4 
	BYTE	W06
	BYTE		        En4 
	BYTE	W06
	BYTE	PEND
// 046   ----------------------------------------
AweOfShe_15_046:
	BYTE		N06     An3   v127
	BYTE	W06
	BYTE		        En4 
	BYTE	W06
	BYTE		        Dn4 
	BYTE	W06
	BYTE		        En4 
	BYTE	W06
	BYTE		        Gn4 
	BYTE	W06
	BYTE		        Fn4 
	BYTE	W06
	BYTE		        En4 
	BYTE	W06
	BYTE		        Dn4 
	BYTE	W06
	BYTE		        Cs4 
	BYTE	W06
	BYTE		        Dn4 
	BYTE	W06
	BYTE		        En4 
	BYTE	W06
	BYTE		        Fn4 
	BYTE	W06
	BYTE		        Gn4 
	BYTE	W06
	BYTE		        Fn4 
	BYTE	W06
	BYTE		        As4 
	BYTE	W06
	BYTE		N30     An4 
	BYTE	W06
	BYTE	PEND
// 047   ----------------------------------------
	BYTE	PATT
	 POIN2	AweOfShe_15_039
// 048   ----------------------------------------
	BYTE	PATT
	 POIN2	AweOfShe_15_040
// 049   ----------------------------------------
	BYTE	PATT
	 POIN2	AweOfShe_15_041
// 050   ----------------------------------------
	BYTE	PATT
	 POIN2	AweOfShe_15_042
// 051   ----------------------------------------
	BYTE	PATT
	 POIN2	AweOfShe_15_043
// 052   ----------------------------------------
	BYTE	PATT
	 POIN2	AweOfShe_15_044
// 053   ----------------------------------------
	BYTE	PATT
	 POIN2	AweOfShe_15_045
// 054   ----------------------------------------
AweOfShe_15_054:
	BYTE		N06     An3   v127
	BYTE	W06
	BYTE		        En4 
	BYTE	W06
	BYTE		        Dn4 
	BYTE	W06
	BYTE		        En4 
	BYTE	W06
	BYTE		        Gn4 
	BYTE	W06
	BYTE		        Fn4 
	BYTE	W06
	BYTE		        En4 
	BYTE	W06
	BYTE		        Dn4 
	BYTE	W06
	BYTE		        Cs4 
	BYTE	W06
	BYTE		        Dn4 
	BYTE	W06
	BYTE		        En4 
	BYTE	W06
	BYTE		        Fn4 
	BYTE	W06
	BYTE		        Fs4 
	BYTE	W06
	BYTE		        Dn4 
	BYTE	W06
	BYTE		        Fs4 
	BYTE	W06
	BYTE		        An4 
	BYTE	W06
	BYTE	PEND
// 055   ----------------------------------------
AweOfShe_15_055:
	BYTE		N06     As4   v127
	BYTE	W06
	BYTE		        An4 
	BYTE	W06
	BYTE		        Gn4 
	BYTE	W06
	BYTE		        Fs4 
	BYTE	W78
	BYTE	PEND
// 056   ----------------------------------------
	BYTE	W96
// 057   ----------------------------------------
	BYTE	W96
// 058   ----------------------------------------
	BYTE	W96
// 059   ----------------------------------------
	BYTE	W96
// 060   ----------------------------------------
	BYTE	W96
// 061   ----------------------------------------
	BYTE	W96
// 062   ----------------------------------------
	BYTE	W96
// 063   ----------------------------------------
	BYTE	W96
// 064   ----------------------------------------
	BYTE	W96
// 065   ----------------------------------------
AweOfShe_15_065:
	BYTE	W24
	BYTE		N12     Fn4   v127
	BYTE	W12
	BYTE		N12   
	BYTE	W12
	BYTE		        Gn4 
	BYTE	W12
	BYTE		N12   
	BYTE	W12
	BYTE		        En4 
	BYTE	W12
	BYTE		N12   
	BYTE	W12
	BYTE	PEND
// 066   ----------------------------------------
AweOfShe_15_066:
	BYTE		N12     Fn4   v127
	BYTE	W12
	BYTE		N12   
	BYTE	W12
	BYTE		        Dn4 
	BYTE	W12
	BYTE		N12   
	BYTE	W12
	BYTE		        En4 
	BYTE	W12
	BYTE		N12   
	BYTE	W12
	BYTE		        Cs4 
	BYTE	W12
	BYTE		        Dn4 
	BYTE	W12
	BYTE	PEND
// 067   ----------------------------------------
AweOfShe_15_067:
	BYTE		N12     En4   v127
	BYTE	W12
	BYTE		        Fn4 
	BYTE	W12
	BYTE		N12   
	BYTE	W12
	BYTE		N12   
	BYTE	W12
	BYTE		        Gn4 
	BYTE	W12
	BYTE		N12   
	BYTE	W12
	BYTE		        En4 
	BYTE	W12
	BYTE		N12   
	BYTE	W12
	BYTE	PEND
// 068   ----------------------------------------
	BYTE	PATT
	 POIN2	AweOfShe_15_066
// 069   ----------------------------------------
AweOfShe_15_069:
	BYTE		N12     As4   v127
	BYTE	W12
	BYTE		        An4 
	BYTE	W12
	BYTE		        Fn4 
	BYTE	W12
	BYTE		N12   
	BYTE	W12
	BYTE		        Gn4 
	BYTE	W12
	BYTE		N12   
	BYTE	W12
	BYTE		        En4 
	BYTE	W12
	BYTE		N12   
	BYTE	W12
	BYTE	PEND
// 070   ----------------------------------------
	BYTE	PATT
	 POIN2	AweOfShe_15_066
// 071   ----------------------------------------
	BYTE	PATT
	 POIN2	AweOfShe_15_067
// 072   ----------------------------------------
	BYTE	PATT
	 POIN2	AweOfShe_15_066
// 073   ----------------------------------------
AweOfShe_15_073:
	BYTE		N12     As4   v127
	BYTE	W12
	BYTE		        An4 
	BYTE	W84
	BYTE	PEND
// 074   ----------------------------------------
	BYTE	W96
// 075   ----------------------------------------
	BYTE	W96
// 076   ----------------------------------------
	BYTE	W96
// 077   ----------------------------------------
	BYTE	W96
// 078   ----------------------------------------
	BYTE	W96
// 079   ----------------------------------------
	BYTE	W96
// 080   ----------------------------------------
	BYTE	W96
// 081   ----------------------------------------
	BYTE	PATT
	 POIN2	AweOfShe_15_039
// 082   ----------------------------------------
	BYTE	PATT
	 POIN2	AweOfShe_15_040
// 083   ----------------------------------------
	BYTE	PATT
	 POIN2	AweOfShe_15_041
// 084   ----------------------------------------
	BYTE	PATT
	 POIN2	AweOfShe_15_042
// 085   ----------------------------------------
	BYTE	PATT
	 POIN2	AweOfShe_15_043
// 086   ----------------------------------------
	BYTE	PATT
	 POIN2	AweOfShe_15_044
// 087   ----------------------------------------
	BYTE	PATT
	 POIN2	AweOfShe_15_045
// 088   ----------------------------------------
	BYTE	PATT
	 POIN2	AweOfShe_15_046
// 089   ----------------------------------------
	BYTE	PATT
	 POIN2	AweOfShe_15_039
// 090   ----------------------------------------
	BYTE	PATT
	 POIN2	AweOfShe_15_040
// 091   ----------------------------------------
	BYTE	PATT
	 POIN2	AweOfShe_15_041
// 092   ----------------------------------------
	BYTE	PATT
	 POIN2	AweOfShe_15_042
// 093   ----------------------------------------
	BYTE	PATT
	 POIN2	AweOfShe_15_043
// 094   ----------------------------------------
	BYTE	PATT
	 POIN2	AweOfShe_15_044
// 095   ----------------------------------------
	BYTE	PATT
	 POIN2	AweOfShe_15_045
// 096   ----------------------------------------
	BYTE	PATT
	 POIN2	AweOfShe_15_054
// 097   ----------------------------------------
	BYTE	PATT
	 POIN2	AweOfShe_15_055
// 098   ----------------------------------------
	BYTE	W96
// 099   ----------------------------------------
	BYTE	W96
// 100   ----------------------------------------
	BYTE	W96
// 101   ----------------------------------------
	BYTE	W96
// 102   ----------------------------------------
	BYTE	W96
// 103   ----------------------------------------
	BYTE	W96
// 104   ----------------------------------------
	BYTE	W96
// 105   ----------------------------------------
	BYTE	W96
// 106   ----------------------------------------
	BYTE	W96
// 107   ----------------------------------------
	BYTE	PATT
	 POIN2	AweOfShe_15_065
// 108   ----------------------------------------
	BYTE	PATT
	 POIN2	AweOfShe_15_066
// 109   ----------------------------------------
	BYTE	PATT
	 POIN2	AweOfShe_15_067
// 110   ----------------------------------------
	BYTE	PATT
	 POIN2	AweOfShe_15_066
// 111   ----------------------------------------
	BYTE	PATT
	 POIN2	AweOfShe_15_069
// 112   ----------------------------------------
	BYTE	PATT
	 POIN2	AweOfShe_15_066
// 113   ----------------------------------------
	BYTE	PATT
	 POIN2	AweOfShe_15_067
// 114   ----------------------------------------
	BYTE	PATT
	 POIN2	AweOfShe_15_066
// 115   ----------------------------------------
	BYTE	PATT
	 POIN2	AweOfShe_15_073
// 116   ----------------------------------------
	BYTE	W96
// 117   ----------------------------------------
	BYTE	W96
// 118   ----------------------------------------
	BYTE	W96
// 119   ----------------------------------------
	BYTE	W96
// 120   ----------------------------------------
	BYTE	W96
// 121   ----------------------------------------
	BYTE	W96
// 122   ----------------------------------------
	BYTE	W96
// 123   ----------------------------------------
	BYTE	PATT
	 POIN2	AweOfShe_15_039
// 124   ----------------------------------------
	BYTE	PATT
	 POIN2	AweOfShe_15_040
// 125   ----------------------------------------
	BYTE	PATT
	 POIN2	AweOfShe_15_041
// 126   ----------------------------------------
	BYTE	PATT
	 POIN2	AweOfShe_15_042
// 127   ----------------------------------------
	BYTE	PATT
	 POIN2	AweOfShe_15_043
// 128   ----------------------------------------
	BYTE	PATT
	 POIN2	AweOfShe_15_044
// 129   ----------------------------------------
	BYTE	PATT
	 POIN2	AweOfShe_15_045
// 130   ----------------------------------------
	BYTE	PATT
	 POIN2	AweOfShe_15_046
// 131   ----------------------------------------
	BYTE	PATT
	 POIN2	AweOfShe_15_039
// 132   ----------------------------------------
	BYTE	PATT
	 POIN2	AweOfShe_15_040
// 133   ----------------------------------------
	BYTE	PATT
	 POIN2	AweOfShe_15_041
// 134   ----------------------------------------
	BYTE	PATT
	 POIN2	AweOfShe_15_042
// 135   ----------------------------------------
	BYTE	PATT
	 POIN2	AweOfShe_15_043
// 136   ----------------------------------------
	BYTE	PATT
	 POIN2	AweOfShe_15_044
// 137   ----------------------------------------
	BYTE	PATT
	 POIN2	AweOfShe_15_045
// 138   ----------------------------------------
	BYTE	PATT
	 POIN2	AweOfShe_15_054
// 139   ----------------------------------------
	BYTE		N06     As4   v127
	BYTE	W06
	BYTE		        An4 
	BYTE	W06
	BYTE		        Gn4 
	BYTE	W06
	BYTE		        Fs4 
	BYTE	W06
	BYTE	FINE

//**************** Track 16 (Midi-Chn.11) ****************//

AweOfShe_16:
	BYTE	KEYSH   AweOfShe_key+0
// 000   ----------------------------------------
	BYTE		VOICE   14
	BYTE		VOL     127*AweOfShe_mvl/mxv
	BYTE	W15
	BYTE		PAN     c_v+0
	BYTE	W03
	BYTE	W06
	BYTE		        c_v+0
	BYTE	W72
// 001   ----------------------------------------
	BYTE	W96
// 002   ----------------------------------------
	BYTE	W96
// 003   ----------------------------------------
	BYTE	W96
// 004   ----------------------------------------
	BYTE	W96
// 005   ----------------------------------------
	BYTE	W96
// 006   ----------------------------------------
	BYTE	W96
// 007   ----------------------------------------
	BYTE	W96
// 008   ----------------------------------------
	BYTE	W96
// 009   ----------------------------------------
	BYTE	W96
// 010   ----------------------------------------
	BYTE	W96
// 011   ----------------------------------------
	BYTE	W96
// 012   ----------------------------------------
	BYTE	W96
// 013   ----------------------------------------
	BYTE	W96
// 014   ----------------------------------------
	BYTE	W96
// 015   ----------------------------------------
	BYTE	W96
// 016   ----------------------------------------
	BYTE	W96
// 017   ----------------------------------------
	BYTE	W96
// 018   ----------------------------------------
	BYTE	W96
// 019   ----------------------------------------
	BYTE	W96
// 020   ----------------------------------------
	BYTE	W96
// 021   ----------------------------------------
	BYTE	W96
// 022   ----------------------------------------
	BYTE	W96
// 023   ----------------------------------------
	BYTE	W96
// 024   ----------------------------------------
	BYTE	W96
// 025   ----------------------------------------
	BYTE	W96
// 026   ----------------------------------------
	BYTE	W96
// 027   ----------------------------------------
	BYTE	W96
// 028   ----------------------------------------
	BYTE	W96
// 029   ----------------------------------------
	BYTE	W96
// 030   ----------------------------------------
	BYTE	W96
// 031   ----------------------------------------
	BYTE	W96
// 032   ----------------------------------------
	BYTE	W96
// 033   ----------------------------------------
	BYTE	W96
// 034   ----------------------------------------
	BYTE	W96
// 035   ----------------------------------------
	BYTE	W96
// 036   ----------------------------------------
	BYTE	W96
// 037   ----------------------------------------
	BYTE	W96
// 038   ----------------------------------------
	BYTE	W96
// 039   ----------------------------------------
	BYTE	W96
// 040   ----------------------------------------
	BYTE	W96
// 041   ----------------------------------------
	BYTE	W96
// 042   ----------------------------------------
	BYTE	W96
// 043   ----------------------------------------
	BYTE	W96
// 044   ----------------------------------------
	BYTE	W96
// 045   ----------------------------------------
AweOfShe_16_045:
	BYTE	W24
	BYTE		N48     Dn1   v127
	BYTE		N48     An1 
	BYTE		N48     Dn2 
	BYTE	W48
	BYTE		        En1 
	BYTE		N48     An1 
	BYTE		N48     En2 
	BYTE	W24
	BYTE	PEND
// 046   ----------------------------------------
AweOfShe_16_046:
	BYTE	W24
	BYTE		N48     Fn1   v127
	BYTE		N48     An1 
	BYTE		N48     Fn2 
	BYTE	W48
	BYTE		        Dn1 
	BYTE		N48     An1 
	BYTE		N48     Dn2 
	BYTE	W24
	BYTE	PEND
// 047   ----------------------------------------
	BYTE	W96
// 048   ----------------------------------------
	BYTE	W96
// 049   ----------------------------------------
	BYTE	W96
// 050   ----------------------------------------
	BYTE	W96
// 051   ----------------------------------------
	BYTE	W96
// 052   ----------------------------------------
	BYTE	W96
// 053   ----------------------------------------
	BYTE	PATT
	 POIN2	AweOfShe_16_045
// 054   ----------------------------------------
AweOfShe_16_054:
	BYTE	W24
	BYTE		N48     Fn1   v127
	BYTE		N48     An1 
	BYTE		N48     Fn2 
	BYTE	W48
	BYTE		        Fs1 
	BYTE		N48     As1 
	BYTE		N48     Fs2 
	BYTE	W24
	BYTE	PEND
// 055   ----------------------------------------
	BYTE	W96
// 056   ----------------------------------------
	BYTE	W96
// 057   ----------------------------------------
	BYTE	W96
// 058   ----------------------------------------
	BYTE	W96
// 059   ----------------------------------------
	BYTE	W96
// 060   ----------------------------------------
	BYTE	W96
// 061   ----------------------------------------
	BYTE	W96
// 062   ----------------------------------------
	BYTE	W96
// 063   ----------------------------------------
	BYTE	W96
// 064   ----------------------------------------
	BYTE	W96
// 065   ----------------------------------------
	BYTE	W96
// 066   ----------------------------------------
	BYTE	W96
// 067   ----------------------------------------
	BYTE	W96
// 068   ----------------------------------------
	BYTE	W96
// 069   ----------------------------------------
	BYTE	W96
// 070   ----------------------------------------
	BYTE	W96
// 071   ----------------------------------------
	BYTE	W96
// 072   ----------------------------------------
	BYTE	W96
// 073   ----------------------------------------
	BYTE	W96
// 074   ----------------------------------------
	BYTE	W96
// 075   ----------------------------------------
	BYTE	W96
// 076   ----------------------------------------
	BYTE	W96
// 077   ----------------------------------------
	BYTE	W96
// 078   ----------------------------------------
	BYTE	W96
// 079   ----------------------------------------
	BYTE	W96
// 080   ----------------------------------------
	BYTE	W96
// 081   ----------------------------------------
	BYTE	W96
// 082   ----------------------------------------
	BYTE	W96
// 083   ----------------------------------------
	BYTE	W96
// 084   ----------------------------------------
	BYTE	W96
// 085   ----------------------------------------
	BYTE	W96
// 086   ----------------------------------------
	BYTE	W96
// 087   ----------------------------------------
	BYTE	PATT
	 POIN2	AweOfShe_16_045
// 088   ----------------------------------------
	BYTE	PATT
	 POIN2	AweOfShe_16_046
// 089   ----------------------------------------
	BYTE	W96
// 090   ----------------------------------------
	BYTE	W96
// 091   ----------------------------------------
	BYTE	W96
// 092   ----------------------------------------
	BYTE	W96
// 093   ----------------------------------------
	BYTE	W96
// 094   ----------------------------------------
	BYTE	W96
// 095   ----------------------------------------
	BYTE	PATT
	 POIN2	AweOfShe_16_045
// 096   ----------------------------------------
	BYTE	PATT
	 POIN2	AweOfShe_16_054
// 097   ----------------------------------------
	BYTE	W96
// 098   ----------------------------------------
	BYTE	W96
// 099   ----------------------------------------
	BYTE	W96
// 100   ----------------------------------------
	BYTE	W96
// 101   ----------------------------------------
	BYTE	W96
// 102   ----------------------------------------
	BYTE	W96
// 103   ----------------------------------------
	BYTE	W96
// 104   ----------------------------------------
	BYTE	W96
// 105   ----------------------------------------
	BYTE	W96
// 106   ----------------------------------------
	BYTE	W96
// 107   ----------------------------------------
	BYTE	W96
// 108   ----------------------------------------
	BYTE	W96
// 109   ----------------------------------------
	BYTE	W96
// 110   ----------------------------------------
	BYTE	W96
// 111   ----------------------------------------
	BYTE	W96
// 112   ----------------------------------------
	BYTE	W96
// 113   ----------------------------------------
	BYTE	W96
// 114   ----------------------------------------
	BYTE	W96
// 115   ----------------------------------------
	BYTE	W96
// 116   ----------------------------------------
	BYTE	W96
// 117   ----------------------------------------
	BYTE	W96
// 118   ----------------------------------------
	BYTE	W96
// 119   ----------------------------------------
	BYTE	W96
// 120   ----------------------------------------
	BYTE	W96
// 121   ----------------------------------------
	BYTE	W96
// 122   ----------------------------------------
	BYTE	W96
// 123   ----------------------------------------
	BYTE	W96
// 124   ----------------------------------------
	BYTE	W96
// 125   ----------------------------------------
	BYTE	W96
// 126   ----------------------------------------
	BYTE	W96
// 127   ----------------------------------------
	BYTE	W96
// 128   ----------------------------------------
	BYTE	W96
// 129   ----------------------------------------
	BYTE	PATT
	 POIN2	AweOfShe_16_045
// 130   ----------------------------------------
	BYTE	PATT
	 POIN2	AweOfShe_16_046
// 131   ----------------------------------------
	BYTE	W96
// 132   ----------------------------------------
	BYTE	W96
// 133   ----------------------------------------
	BYTE	W96
// 134   ----------------------------------------
	BYTE	W96
// 135   ----------------------------------------
	BYTE	W96
// 136   ----------------------------------------
	BYTE	W96
// 137   ----------------------------------------
	BYTE	PATT
	 POIN2	AweOfShe_16_045
// 138   ----------------------------------------
	BYTE	PATT
	 POIN2	AweOfShe_16_054
// 139   ----------------------------------------
	BYTE	W24
	BYTE	FINE

//******************************************************//
	ALIGN 4

AweOfShe:
	BYTE	16	// NumTrks
	BYTE	0	// NumBlks
	BYTE	AweOfShe_pri	// Priority
	BYTE	AweOfShe_rev	// Reverb.

	POIN2	AweOfShe_grp

	POIN2	AweOfShe_1
	POIN2	AweOfShe_2
	POIN2	AweOfShe_3
	POIN2	AweOfShe_4
	POIN2	AweOfShe_5
	POIN2	AweOfShe_6
	POIN2	AweOfShe_7
	POIN2	AweOfShe_8
	POIN2	AweOfShe_9
	POIN2	AweOfShe_10
	POIN2	AweOfShe_11
	POIN2	AweOfShe_12
	POIN2	AweOfShe_13
	POIN2	AweOfShe_14
	POIN2	AweOfShe_15
	POIN2	AweOfShe_16

	
