//Event file generated from Sappy .s format.
	#include "MPlayDef.event"

	#define	boss06_grp  voicegroup000
	#define	boss06_pri  0
	#define	boss06_rev  0
	#define	boss06_mvl  60
	#define	boss06_key  0
	#define	boss06_tbs  1
	#define	boss06_exg  0
	#define	boss06_cmp  1

	// .rodata
	//	boss06
	ALIGN 4

//**************** Track 1 (Midi-Chn.1) ****************//

boss06_1:
	BYTE	KEYSH   boss06_key+0
// 000   ----------------------------------------
	BYTE	TEMPO   145*boss06_tbs/2
	BYTE		PAN     c_v+0
	BYTE		MOD     0
	BYTE		BEND    c_v+0
	BYTE	W06
	BYTE		VOICE   34
	BYTE		VOL     127*boss06_mvl/mxv
	BYTE	W06
// 001   ----------------------------------------
	BYTE		TIE     Gs0   v100
	BYTE	W96
// 002   ----------------------------------------
	BYTE	W96
	BYTE		EOT   
// 003   ----------------------------------------
	BYTE		TIE     An0 
	BYTE	W96
// 004   ----------------------------------------
	BYTE	W96
	BYTE		EOT   
// 005   ----------------------------------------
	BYTE		TIE     Gs0 
	BYTE	W96
// 006   ----------------------------------------
	BYTE	W96
	BYTE		EOT   
// 007   ----------------------------------------
	BYTE		TIE     An0 
	BYTE	W96
// 008   ----------------------------------------
	BYTE	W96
	BYTE		EOT   
// 009   ----------------------------------------
boss06_1_009:
	BYTE		N12     Gs0   v100
	BYTE	W12
	BYTE		N12   
	BYTE	W12
	BYTE		N12   
	BYTE	W12
	BYTE		N12   
	BYTE	W12
	BYTE		N12   
	BYTE	W12
	BYTE		N12   
	BYTE	W12
	BYTE		N12   
	BYTE	W12
	BYTE		N12   
	BYTE	W12
	BYTE	PEND
// 010   ----------------------------------------
boss06_1_010:
	BYTE		N12     An0   v100
	BYTE	W12
	BYTE		N12   
	BYTE	W12
	BYTE		N12   
	BYTE	W12
	BYTE		N12   
	BYTE	W12
	BYTE		N12   
	BYTE	W12
	BYTE		N12   
	BYTE	W12
	BYTE		N12   
	BYTE	W12
	BYTE		N12   
	BYTE	W12
	BYTE	PEND
// 011   ----------------------------------------
	BYTE	PATT
	 POIN2	boss06_1_009
// 012   ----------------------------------------
	BYTE	PATT
	 POIN2	boss06_1_010
// 013   ----------------------------------------
	BYTE	PATT
	 POIN2	boss06_1_009
// 014   ----------------------------------------
	BYTE	PATT
	 POIN2	boss06_1_010
// 015   ----------------------------------------
	BYTE	PATT
	 POIN2	boss06_1_009
// 016   ----------------------------------------
	BYTE	PATT
	 POIN2	boss06_1_010
// 017   ----------------------------------------
	BYTE		TIE     Gs0   v100
	BYTE	W96
// 018   ----------------------------------------
	BYTE	W96
	BYTE		EOT   
// 019   ----------------------------------------
	BYTE		TIE     An0 
	BYTE	W96
// 020   ----------------------------------------
	BYTE	W96
	BYTE		EOT   
// 021   ----------------------------------------
	BYTE		TIE     Gs0 
	BYTE	W96
// 022   ----------------------------------------
	BYTE	W96
	BYTE		EOT   
// 023   ----------------------------------------
	BYTE		TIE     An0 
	BYTE	W96
// 024   ----------------------------------------
	BYTE	W96
	BYTE		EOT   
// 025   ----------------------------------------
	BYTE	PATT
	 POIN2	boss06_1_009
// 026   ----------------------------------------
	BYTE	PATT
	 POIN2	boss06_1_010
// 027   ----------------------------------------
	BYTE	PATT
	 POIN2	boss06_1_009
// 028   ----------------------------------------
	BYTE	PATT
	 POIN2	boss06_1_010
// 029   ----------------------------------------
	BYTE	PATT
	 POIN2	boss06_1_009
// 030   ----------------------------------------
	BYTE	PATT
	 POIN2	boss06_1_010
// 031   ----------------------------------------
	BYTE	PATT
	 POIN2	boss06_1_009
// 032   ----------------------------------------
	BYTE	PATT
	 POIN2	boss06_1_010
// 033   ----------------------------------------
boss06_1_033:
	BYTE		N12     Cs1   v100
	BYTE	W12
	BYTE		N12   
	BYTE	W12
	BYTE		N12   
	BYTE	W12
	BYTE		N12   
	BYTE	W12
	BYTE		        Bn0 
	BYTE	W12
	BYTE		N12   
	BYTE	W12
	BYTE		N12   
	BYTE	W12
	BYTE		N12   
	BYTE	W12
	BYTE	PEND
// 034   ----------------------------------------
boss06_1_034:
	BYTE		N12     An0   v100
	BYTE	W12
	BYTE		N12   
	BYTE	W12
	BYTE		N12   
	BYTE	W12
	BYTE		N12   
	BYTE	W12
	BYTE		        Bn0 
	BYTE	W12
	BYTE		N12   
	BYTE	W12
	BYTE		N12   
	BYTE	W12
	BYTE		N12   
	BYTE	W12
	BYTE	PEND
// 035   ----------------------------------------
	BYTE	PATT
	 POIN2	boss06_1_033
// 036   ----------------------------------------
	BYTE	PATT
	 POIN2	boss06_1_034
// 037   ----------------------------------------
	BYTE	PATT
	 POIN2	boss06_1_033
// 038   ----------------------------------------
	BYTE	PATT
	 POIN2	boss06_1_034
// 039   ----------------------------------------
	BYTE	PATT
	 POIN2	boss06_1_034
// 040   ----------------------------------------
	BYTE		N12     Fs0   v100
	BYTE	W12
	BYTE		N12   
	BYTE	W12
	BYTE		N12   
	BYTE	W12
	BYTE		N12   
	BYTE	W12
	BYTE		        Gs0 
	BYTE	W12
	BYTE		N12   
	BYTE	W12
	BYTE		N12   
	BYTE	W12
	BYTE		N12   
	BYTE	W12
// 041   ----------------------------------------
	BYTE	PATT
	 POIN2	boss06_1_033
// 042   ----------------------------------------
	BYTE	PATT
	 POIN2	boss06_1_034
// 043   ----------------------------------------
	BYTE	PATT
	 POIN2	boss06_1_033
// 044   ----------------------------------------
	BYTE	PATT
	 POIN2	boss06_1_034
// 045   ----------------------------------------
	BYTE	PATT
	 POIN2	boss06_1_033
// 046   ----------------------------------------
	BYTE	PATT
	 POIN2	boss06_1_034
// 047   ----------------------------------------
	BYTE		N12     Fs0   v100
	BYTE	W12
	BYTE		N12   
	BYTE	W12
	BYTE		N12   
	BYTE	W12
	BYTE		N12   
	BYTE	W12
	BYTE		N12   
	BYTE	W12
	BYTE		N12   
	BYTE	W12
	BYTE		N12   
	BYTE	W12
	BYTE		N12   
	BYTE	W12
// 048   ----------------------------------------
	BYTE	PATT
	 POIN2	boss06_1_009
// 049   ----------------------------------------
boss06_1_049:
	BYTE		N12     Cs1   v100
	BYTE	W12
	BYTE		N12   
	BYTE	W12
	BYTE		N12   
	BYTE	W12
	BYTE		N12   
	BYTE	W12
	BYTE		N12   
	BYTE	W12
	BYTE		N12   
	BYTE	W12
	BYTE		N12   
	BYTE	W12
	BYTE		N12   
	BYTE	W12
	BYTE	PEND
// 050   ----------------------------------------
boss06_1_050:
	BYTE		N12     Dn1   v100
	BYTE	W12
	BYTE		N12   
	BYTE	W12
	BYTE		N12   
	BYTE	W12
	BYTE		N12   
	BYTE	W12
	BYTE		N12   
	BYTE	W12
	BYTE		N12   
	BYTE	W12
	BYTE		N12   
	BYTE	W12
	BYTE		N12   
	BYTE	W12
	BYTE	PEND
// 051   ----------------------------------------
	BYTE	PATT
	 POIN2	boss06_1_049
// 052   ----------------------------------------
	BYTE	PATT
	 POIN2	boss06_1_050
// 053   ----------------------------------------
	BYTE	PATT
	 POIN2	boss06_1_049
// 054   ----------------------------------------
	BYTE	PATT
	 POIN2	boss06_1_050
// 055   ----------------------------------------
	BYTE	PATT
	 POIN2	boss06_1_049
// 056   ----------------------------------------
	BYTE	PATT
	 POIN2	boss06_1_049
// 057   ----------------------------------------
	BYTE	FINE

//**************** Track 2 (Midi-Chn.2) ****************//

boss06_2:
	BYTE	KEYSH   boss06_key+0
// 000   ----------------------------------------
	BYTE		PAN     c_v+0
	BYTE		MOD     0
	BYTE		BEND    c_v+0
	BYTE	W06
	BYTE		VOICE   50
	BYTE	W06
// 001   ----------------------------------------
boss06_2_001:
	BYTE		VOL     100*boss06_mvl/mxv
	BYTE		TIE     Gs1   v100
	BYTE		TIE     Gs2 
	BYTE	W96
	BYTE	PEND
// 002   ----------------------------------------
	BYTE	W96
	BYTE		EOT     Gs1 
	BYTE		        Gs2 
// 003   ----------------------------------------
boss06_2_003:
	BYTE		TIE     An1   v100
	BYTE		TIE     An2 
	BYTE	W96
	BYTE	PEND
// 004   ----------------------------------------
	BYTE	W96
	BYTE		EOT     An1 
	BYTE		        An2 
// 005   ----------------------------------------
boss06_2_005:
	BYTE		TIE     Gs1   v100
	BYTE		TIE     Gs2 
	BYTE	W96
	BYTE	PEND
// 006   ----------------------------------------
	BYTE	W96
	BYTE		EOT     Gs1 
	BYTE		        Gs2 
// 007   ----------------------------------------
	BYTE	PATT
	 POIN2	boss06_2_003
// 008   ----------------------------------------
	BYTE	W96
	BYTE		EOT     An1 
	BYTE		        An2 
// 009   ----------------------------------------
boss06_2_009:
	BYTE		VOL     80*boss06_mvl/mxv
	BYTE		N96     Gs2   v100
	BYTE		N96     Cn3 
	BYTE		N96     Ds3 
	BYTE		N96     Gs3 
	BYTE	W96
	BYTE	PEND
// 010   ----------------------------------------
boss06_2_010:
	BYTE		N96     An2   v100
	BYTE		N96     Cs3 
	BYTE		N96     En3 
	BYTE		N96     An3 
	BYTE	W96
	BYTE	PEND
// 011   ----------------------------------------
boss06_2_011:
	BYTE		N96     Gs2   v100
	BYTE		N96     Cn3 
	BYTE		N96     Ds3 
	BYTE		N96     Gs3 
	BYTE	W96
	BYTE	PEND
// 012   ----------------------------------------
	BYTE	PATT
	 POIN2	boss06_2_010
// 013   ----------------------------------------
	BYTE	PATT
	 POIN2	boss06_2_011
// 014   ----------------------------------------
	BYTE	PATT
	 POIN2	boss06_2_010
// 015   ----------------------------------------
	BYTE	PATT
	 POIN2	boss06_2_011
// 016   ----------------------------------------
boss06_2_016:
	BYTE		N96     An2   v100
	BYTE		N96     Cs3 
	BYTE		N96     En3 
	BYTE		N96     Gs3 
	BYTE	W96
	BYTE	PEND
// 017   ----------------------------------------
	BYTE	PATT
	 POIN2	boss06_2_001
// 018   ----------------------------------------
	BYTE	W96
	BYTE		EOT     Gs1 
	BYTE		        Gs2 
// 019   ----------------------------------------
	BYTE	PATT
	 POIN2	boss06_2_003
// 020   ----------------------------------------
	BYTE	W96
	BYTE		EOT     An1 
	BYTE		        An2 
// 021   ----------------------------------------
	BYTE	PATT
	 POIN2	boss06_2_005
// 022   ----------------------------------------
	BYTE	W96
	BYTE		EOT     Gs1 
	BYTE		        Gs2 
// 023   ----------------------------------------
	BYTE	PATT
	 POIN2	boss06_2_003
// 024   ----------------------------------------
	BYTE	W96
	BYTE		EOT     An1 
	BYTE		        An2 
// 025   ----------------------------------------
	BYTE	PATT
	 POIN2	boss06_2_009
// 026   ----------------------------------------
	BYTE	PATT
	 POIN2	boss06_2_010
// 027   ----------------------------------------
	BYTE	PATT
	 POIN2	boss06_2_011
// 028   ----------------------------------------
	BYTE	PATT
	 POIN2	boss06_2_010
// 029   ----------------------------------------
	BYTE	PATT
	 POIN2	boss06_2_011
// 030   ----------------------------------------
	BYTE	PATT
	 POIN2	boss06_2_010
// 031   ----------------------------------------
	BYTE	PATT
	 POIN2	boss06_2_011
// 032   ----------------------------------------
	BYTE	PATT
	 POIN2	boss06_2_016
// 033   ----------------------------------------
	BYTE	W96
// 034   ----------------------------------------
	BYTE	W96
// 035   ----------------------------------------
	BYTE	W96
// 036   ----------------------------------------
	BYTE	W96
// 037   ----------------------------------------
	BYTE	W96
// 038   ----------------------------------------
	BYTE	W96
// 039   ----------------------------------------
boss06_2_039:
	BYTE		N48     En2   v100
	BYTE		N48     An2 
	BYTE		N48     Cs3 
	BYTE	W48
	BYTE		        Fs2 
	BYTE		N48     Bn2 
	BYTE		N48     Ds3 
	BYTE	W48
	BYTE	PEND
// 040   ----------------------------------------
	BYTE		        An2 
	BYTE		N48     Cs3 
	BYTE		N48     En3 
	BYTE	W48
	BYTE		        Gs2 
	BYTE		N48     Cn3 
	BYTE		N48     Ds3 
	BYTE	W48
// 041   ----------------------------------------
boss06_2_041:
	BYTE		N48     Gs2   v100
	BYTE		N48     Cs3 
	BYTE		N48     En3 
	BYTE	W48
	BYTE		        Fs2 
	BYTE		N48     Bn2 
	BYTE		N48     Ds3 
	BYTE	W48
	BYTE	PEND
// 042   ----------------------------------------
	BYTE	PATT
	 POIN2	boss06_2_039
// 043   ----------------------------------------
	BYTE	PATT
	 POIN2	boss06_2_041
// 044   ----------------------------------------
	BYTE	PATT
	 POIN2	boss06_2_039
// 045   ----------------------------------------
	BYTE	PATT
	 POIN2	boss06_2_041
// 046   ----------------------------------------
	BYTE	PATT
	 POIN2	boss06_2_039
// 047   ----------------------------------------
	BYTE	PATT
	 POIN2	boss06_2_010
// 048   ----------------------------------------
	BYTE		N48     Gs2   v100
	BYTE		N96     Cn3 
	BYTE		N96     Ds3 
	BYTE		N96     Gs3 
	BYTE	W48
	BYTE		N48     Cn4 
	BYTE	W48
// 049   ----------------------------------------
boss06_2_049:
	BYTE		N96     Gs2   v100
	BYTE		N96     Cs3 
	BYTE		N96     En3 
	BYTE		N96     Gs3 
	BYTE	W96
	BYTE	PEND
// 050   ----------------------------------------
boss06_2_050:
	BYTE		N96     An2   v100
	BYTE		N96     Dn3 
	BYTE		N96     Fs3 
	BYTE		N96     An3 
	BYTE	W96
	BYTE	PEND
// 051   ----------------------------------------
	BYTE	PATT
	 POIN2	boss06_2_049
// 052   ----------------------------------------
	BYTE	PATT
	 POIN2	boss06_2_050
// 053   ----------------------------------------
	BYTE		N96     Cs3   v100
	BYTE		N96     En3 
	BYTE		N96     Gs3 
	BYTE		N96     Cs4 
	BYTE	W96
// 054   ----------------------------------------
	BYTE		        Dn3 
	BYTE		N96     Fs3 
	BYTE		N96     An3 
	BYTE		N96     Dn4 
	BYTE	W96
// 055   ----------------------------------------
	BYTE		TIE     Gs2 
	BYTE		TIE     Cs3 
	BYTE		TIE     En3 
	BYTE		TIE     Cs4 
	BYTE	W96
// 056   ----------------------------------------
	BYTE	W96
	BYTE		EOT     Gs2 
	BYTE		        Cs3 
	BYTE		        En3 
	BYTE		        Cs4 
// 057   ----------------------------------------
	BYTE	FINE

//**************** Track 3 (Midi-Chn.3) ****************//

boss06_3:
	BYTE	KEYSH   boss06_key+0
// 000   ----------------------------------------
	BYTE		PAN     c_v-18
	BYTE		MOD     0
	BYTE		BEND    c_v-2
	BYTE	W06
	BYTE		VOICE   19
	BYTE		VOL     100*boss06_mvl/mxv
	BYTE	W06
// 001   ----------------------------------------
	BYTE		TIE     Gs1   v100
	BYTE	W96
// 002   ----------------------------------------
	BYTE	W96
	BYTE		EOT   
// 003   ----------------------------------------
	BYTE		TIE     An1 
	BYTE	W96
// 004   ----------------------------------------
	BYTE	W96
	BYTE		EOT   
// 005   ----------------------------------------
	BYTE		TIE     Gs1 
	BYTE	W96
// 006   ----------------------------------------
	BYTE	W96
	BYTE		EOT   
// 007   ----------------------------------------
	BYTE		N96     An1 
	BYTE	W96
// 008   ----------------------------------------
boss06_3_008:
	BYTE		N24     An2   v100
	BYTE	W24
	BYTE		        Cs3 
	BYTE	W24
	BYTE		        En3 
	BYTE	W24
	BYTE		        An3 
	BYTE	W24
	BYTE	PEND
// 009   ----------------------------------------
	BYTE		TIE     Cn4 
	BYTE	W96
// 010   ----------------------------------------
	BYTE	W24
	BYTE		EOT   
	BYTE		N24     Cs4 
	BYTE	W24
	BYTE		        An3 
	BYTE	W24
	BYTE		        Cs4 
	BYTE	W24
// 011   ----------------------------------------
	BYTE		TIE     Cn4 
	BYTE	W96
// 012   ----------------------------------------
	BYTE	W24
	BYTE		EOT   
	BYTE		N24   
	BYTE	W24
	BYTE		        Cs4 
	BYTE	W24
	BYTE		        Dn4 
	BYTE	W24
// 013   ----------------------------------------
	BYTE		N96     Ds4 
	BYTE	W96
// 014   ----------------------------------------
boss06_3_014:
	BYTE		N24     En4   v100
	BYTE	W24
	BYTE		N24   
	BYTE	W24
	BYTE		N18     An4 
	BYTE	W18
	BYTE		N18   
	BYTE	W18
	BYTE		N12   
	BYTE	W12
	BYTE	PEND
// 015   ----------------------------------------
boss06_3_015:
	BYTE		N18     Gs4   v100
	BYTE	W18
	BYTE		TIE     Cn5 
	BYTE	W78
	BYTE	PEND
// 016   ----------------------------------------
	BYTE	W96
	BYTE		EOT   
// 017   ----------------------------------------
	BYTE		TIE     Gs1 
	BYTE	W96
// 018   ----------------------------------------
	BYTE	W96
	BYTE		EOT   
// 019   ----------------------------------------
	BYTE		TIE     An1 
	BYTE	W96
// 020   ----------------------------------------
	BYTE	W96
	BYTE		EOT   
// 021   ----------------------------------------
	BYTE		TIE     Gs1 
	BYTE	W96
// 022   ----------------------------------------
	BYTE	W96
	BYTE		EOT   
// 023   ----------------------------------------
	BYTE		N96     An1 
	BYTE	W96
// 024   ----------------------------------------
	BYTE	PATT
	 POIN2	boss06_3_008
// 025   ----------------------------------------
	BYTE		TIE     Cn4   v100
	BYTE	W96
// 026   ----------------------------------------
	BYTE	W24
	BYTE		EOT   
	BYTE		N24     Cs4 
	BYTE	W24
	BYTE		        An3 
	BYTE	W24
	BYTE		        Cs4 
	BYTE	W24
// 027   ----------------------------------------
	BYTE		TIE     Cn4 
	BYTE	W96
// 028   ----------------------------------------
	BYTE	W24
	BYTE		EOT   
	BYTE		N24   
	BYTE	W24
	BYTE		        Cs4 
	BYTE	W24
	BYTE		        Dn4 
	BYTE	W24
// 029   ----------------------------------------
	BYTE		N96     Ds4 
	BYTE	W96
// 030   ----------------------------------------
	BYTE	PATT
	 POIN2	boss06_3_014
// 031   ----------------------------------------
	BYTE	PATT
	 POIN2	boss06_3_015
// 032   ----------------------------------------
	BYTE	W96
	BYTE		EOT     Cn5 
// 033   ----------------------------------------
	BYTE		VOICE   20
	BYTE		VOL     80*boss06_mvl/mxv
	BYTE		N06     Gs5   v100
	BYTE	W06
	BYTE		        Cs5 
	BYTE	W06
	BYTE		        En5 
	BYTE	W06
	BYTE		        Cs5 
	BYTE	W06
	BYTE		        Gs5 
	BYTE	W06
	BYTE		        Cs5 
	BYTE	W06
	BYTE		        En5 
	BYTE	W06
	BYTE		        Cs5 
	BYTE	W06
	BYTE		        Fs5 
	BYTE	W06
	BYTE		        Bn4 
	BYTE	W06
	BYTE		        Ds5 
	BYTE	W06
	BYTE		        Bn4 
	BYTE	W06
	BYTE		        Fs5 
	BYTE	W06
	BYTE		        Bn4 
	BYTE	W06
	BYTE		        Ds5 
	BYTE	W06
	BYTE		        Bn4 
	BYTE	W06
// 034   ----------------------------------------
boss06_3_034:
	BYTE		N06     En5   v100
	BYTE	W06
	BYTE		        An4 
	BYTE	W06
	BYTE		        Cs5 
	BYTE	W06
	BYTE		        An4 
	BYTE	W06
	BYTE		        En5 
	BYTE	W06
	BYTE		        An4 
	BYTE	W06
	BYTE		        Cs5 
	BYTE	W06
	BYTE		        An4 
	BYTE	W06
	BYTE		        Fs5 
	BYTE	W06
	BYTE		        Bn4 
	BYTE	W06
	BYTE		        Ds5 
	BYTE	W06
	BYTE		        Bn4 
	BYTE	W06
	BYTE		        Fs5 
	BYTE	W06
	BYTE		        Bn4 
	BYTE	W06
	BYTE		        Ds5 
	BYTE	W06
	BYTE		        Bn4 
	BYTE	W06
	BYTE	PEND
// 035   ----------------------------------------
boss06_3_035:
	BYTE		N06     Gs5   v100
	BYTE	W06
	BYTE		        Cs5 
	BYTE	W06
	BYTE		        En5 
	BYTE	W06
	BYTE		        Cs5 
	BYTE	W06
	BYTE		        Gs5 
	BYTE	W06
	BYTE		        Cs5 
	BYTE	W06
	BYTE		        En5 
	BYTE	W06
	BYTE		        Cs5 
	BYTE	W06
	BYTE		        Fs5 
	BYTE	W06
	BYTE		        Bn4 
	BYTE	W06
	BYTE		        Ds5 
	BYTE	W06
	BYTE		        Bn4 
	BYTE	W06
	BYTE		        Fs5 
	BYTE	W06
	BYTE		        Bn4 
	BYTE	W06
	BYTE		        Ds5 
	BYTE	W06
	BYTE		        Bn4 
	BYTE	W06
	BYTE	PEND
// 036   ----------------------------------------
	BYTE	PATT
	 POIN2	boss06_3_034
// 037   ----------------------------------------
	BYTE	PATT
	 POIN2	boss06_3_035
// 038   ----------------------------------------
	BYTE	PATT
	 POIN2	boss06_3_034
// 039   ----------------------------------------
	BYTE		N06     An4   v100
	BYTE	W06
	BYTE		N06   
	BYTE	W06
	BYTE		        Cs5 
	BYTE	W06
	BYTE		N06   
	BYTE	W06
	BYTE		        En5 
	BYTE	W06
	BYTE		N06   
	BYTE	W06
	BYTE		        An5 
	BYTE	W06
	BYTE		N06   
	BYTE	W06
	BYTE		        Bn4 
	BYTE	W06
	BYTE		N06   
	BYTE	W06
	BYTE		        Ds5 
	BYTE	W06
	BYTE		N06   
	BYTE	W06
	BYTE		        Fs5 
	BYTE	W06
	BYTE		N06   
	BYTE	W06
	BYTE		        Bn5 
	BYTE	W06
	BYTE		N06   
	BYTE	W06
// 040   ----------------------------------------
	BYTE		        Cs5 
	BYTE	W06
	BYTE		N06   
	BYTE	W06
	BYTE		        En5 
	BYTE	W06
	BYTE		N06   
	BYTE	W06
	BYTE		        An5 
	BYTE	W06
	BYTE		N06   
	BYTE	W06
	BYTE		        Cs6 
	BYTE	W06
	BYTE		N06   
	BYTE	W06
	BYTE		        Cn5 
	BYTE	W06
	BYTE		N06   
	BYTE	W06
	BYTE		        Ds5 
	BYTE	W06
	BYTE		N06   
	BYTE	W06
	BYTE		        Gs5 
	BYTE	W06
	BYTE		N06   
	BYTE	W06
	BYTE		        Cn6 
	BYTE	W06
	BYTE		N06   
	BYTE	W06
// 041   ----------------------------------------
	BYTE	PATT
	 POIN2	boss06_3_035
// 042   ----------------------------------------
	BYTE	PATT
	 POIN2	boss06_3_034
// 043   ----------------------------------------
	BYTE	PATT
	 POIN2	boss06_3_035
// 044   ----------------------------------------
	BYTE	PATT
	 POIN2	boss06_3_034
// 045   ----------------------------------------
	BYTE	PATT
	 POIN2	boss06_3_035
// 046   ----------------------------------------
	BYTE	PATT
	 POIN2	boss06_3_034
// 047   ----------------------------------------
	BYTE		VOICE   19
	BYTE		VOL     100*boss06_mvl/mxv
	BYTE		N96     An3   v100
	BYTE	W96
// 048   ----------------------------------------
	BYTE		N24     Gs3 
	BYTE	W24
	BYTE		        Cn4 
	BYTE	W24
	BYTE		        Ds4 
	BYTE	W24
	BYTE		        Fs4 
	BYTE	W24
// 049   ----------------------------------------
	BYTE		N96     En4 
	BYTE	W96
// 050   ----------------------------------------
	BYTE		        Fs4 
	BYTE	W96
// 051   ----------------------------------------
	BYTE		        En4 
	BYTE	W96
// 052   ----------------------------------------
	BYTE		        Fs4 
	BYTE	W96
// 053   ----------------------------------------
	BYTE		        En4 
	BYTE	W96
// 054   ----------------------------------------
	BYTE		N24     Fs4 
	BYTE	W24
	BYTE		        An4 
	BYTE	W24
	BYTE		        Dn5 
	BYTE	W24
	BYTE		        Fs5 
	BYTE	W24
// 055   ----------------------------------------
	BYTE		TIE     En5 
	BYTE	W96
// 056   ----------------------------------------
	BYTE	W96
	BYTE		EOT   
// 057   ----------------------------------------
	BYTE	FINE

//**************** Track 4 (Midi-Chn.4) ****************//

boss06_4:
	BYTE	KEYSH   boss06_key+0
// 000   ----------------------------------------
	BYTE		PAN     c_v+18
	BYTE		MOD     0
	BYTE		BEND    c_v+1
	BYTE	W06
	BYTE		VOICE   19
	BYTE		VOL     90*boss06_mvl/mxv
	BYTE	W06
// 001   ----------------------------------------
	BYTE		TIE     Gs2   v100
	BYTE	W96
// 002   ----------------------------------------
	BYTE	W96
	BYTE		EOT   
// 003   ----------------------------------------
	BYTE		TIE     An2 
	BYTE	W96
// 004   ----------------------------------------
	BYTE	W96
	BYTE		EOT   
// 005   ----------------------------------------
	BYTE		TIE     Gs2 
	BYTE	W96
// 006   ----------------------------------------
	BYTE	W96
	BYTE		EOT   
// 007   ----------------------------------------
	BYTE		N96     An2 
	BYTE	W96
// 008   ----------------------------------------
boss06_4_008:
	BYTE		N24     Cs3   v100
	BYTE	W24
	BYTE		        En3 
	BYTE	W24
	BYTE		        An3 
	BYTE	W24
	BYTE		        Cs4 
	BYTE	W24
	BYTE	PEND
// 009   ----------------------------------------
	BYTE		TIE     Ds4 
	BYTE	W96
// 010   ----------------------------------------
	BYTE	W24
	BYTE		EOT   
	BYTE		N24     En4 
	BYTE	W24
	BYTE		        Cs4 
	BYTE	W24
	BYTE		        En4 
	BYTE	W24
// 011   ----------------------------------------
	BYTE		TIE     Ds4 
	BYTE	W96
// 012   ----------------------------------------
	BYTE	W24
	BYTE		EOT   
	BYTE		N24   
	BYTE	W24
	BYTE		        En4 
	BYTE	W24
	BYTE		        Gn4 
	BYTE	W24
// 013   ----------------------------------------
	BYTE		N96     Gs4 
	BYTE	W96
// 014   ----------------------------------------
boss06_4_014:
	BYTE		N24     An4   v100
	BYTE	W24
	BYTE		N24   
	BYTE	W24
	BYTE		N18     Cs5 
	BYTE	W18
	BYTE		N18   
	BYTE	W18
	BYTE		N12   
	BYTE	W12
	BYTE	PEND
// 015   ----------------------------------------
boss06_4_015:
	BYTE		N18     Cn5   v100
	BYTE	W18
	BYTE		TIE     Ds5 
	BYTE	W78
	BYTE	PEND
// 016   ----------------------------------------
	BYTE	W96
	BYTE		EOT   
// 017   ----------------------------------------
	BYTE		TIE     Gs2 
	BYTE	W96
// 018   ----------------------------------------
	BYTE	W96
	BYTE		EOT   
// 019   ----------------------------------------
	BYTE		TIE     An2 
	BYTE	W96
// 020   ----------------------------------------
	BYTE	W96
	BYTE		EOT   
// 021   ----------------------------------------
	BYTE		TIE     Gs2 
	BYTE	W96
// 022   ----------------------------------------
	BYTE	W96
	BYTE		EOT   
// 023   ----------------------------------------
	BYTE		N96     An2 
	BYTE	W96
// 024   ----------------------------------------
	BYTE	PATT
	 POIN2	boss06_4_008
// 025   ----------------------------------------
	BYTE		TIE     Ds4   v100
	BYTE	W96
// 026   ----------------------------------------
	BYTE	W24
	BYTE		EOT   
	BYTE		N24     En4 
	BYTE	W24
	BYTE		        Cs4 
	BYTE	W24
	BYTE		        En4 
	BYTE	W24
// 027   ----------------------------------------
	BYTE		TIE     Ds4 
	BYTE	W96
// 028   ----------------------------------------
	BYTE	W24
	BYTE		EOT   
	BYTE		N24   
	BYTE	W24
	BYTE		        En4 
	BYTE	W24
	BYTE		        Gn4 
	BYTE	W24
// 029   ----------------------------------------
	BYTE		N96     Gs4 
	BYTE	W96
// 030   ----------------------------------------
	BYTE	PATT
	 POIN2	boss06_4_014
// 031   ----------------------------------------
	BYTE	PATT
	 POIN2	boss06_4_015
// 032   ----------------------------------------
	BYTE	W96
	BYTE		EOT     Ds5 
// 033   ----------------------------------------
	BYTE	W96
// 034   ----------------------------------------
	BYTE	W96
// 035   ----------------------------------------
boss06_4_035:
	BYTE		N24     Gs3   v100
	BYTE	W24
	BYTE		        Cs4 
	BYTE	W24
	BYTE		N18     Ds4 
	BYTE	W18
	BYTE		        En4 
	BYTE	W18
	BYTE		N12     Fs4 
	BYTE	W12
	BYTE	PEND
// 036   ----------------------------------------
boss06_4_036:
	BYTE		N18     Gs4   v100
	BYTE	W18
	BYTE		        Fs4 
	BYTE	W18
	BYTE		N12     En4 
	BYTE	W12
	BYTE		N24     Bn4 
	BYTE	W24
	BYTE		        An4 
	BYTE	W24
	BYTE	PEND
// 037   ----------------------------------------
	BYTE		TIE     Gs4 
	BYTE	W96
// 038   ----------------------------------------
	BYTE	W96
	BYTE		EOT   
// 039   ----------------------------------------
	BYTE		N18     En4 
	BYTE	W18
	BYTE		        Ds4 
	BYTE	W18
	BYTE		N12     Cs4 
	BYTE	W12
	BYTE		N18     Ds4 
	BYTE	W18
	BYTE		        Cs4 
	BYTE	W18
	BYTE		N12     Bn3 
	BYTE	W12
// 040   ----------------------------------------
	BYTE		N18     Cs4 
	BYTE	W18
	BYTE		        Bn3 
	BYTE	W18
	BYTE		N12     An3 
	BYTE	W12
	BYTE		N48     Gs3 
	BYTE	W48
// 041   ----------------------------------------
	BYTE	W96
// 042   ----------------------------------------
	BYTE	W96
// 043   ----------------------------------------
	BYTE	PATT
	 POIN2	boss06_4_035
// 044   ----------------------------------------
	BYTE	PATT
	 POIN2	boss06_4_036
// 045   ----------------------------------------
	BYTE		TIE     Gs4   v100
	BYTE	W96
// 046   ----------------------------------------
	BYTE	W48
	BYTE		EOT   
	BYTE		N12   
	BYTE	W12
	BYTE		        Fs4 
	BYTE	W12
	BYTE		        En4 
	BYTE	W12
	BYTE		        Ds4 
	BYTE	W12
// 047   ----------------------------------------
	BYTE		N96     Cs4 
	BYTE	W96
// 048   ----------------------------------------
	BYTE		N24     Cn4 
	BYTE	W24
	BYTE		        Ds4 
	BYTE	W24
	BYTE		        Fs4 
	BYTE	W24
	BYTE		        An4 
	BYTE	W24
// 049   ----------------------------------------
	BYTE		N96     Gs4 
	BYTE	W96
// 050   ----------------------------------------
	BYTE		        An4 
	BYTE	W96
// 051   ----------------------------------------
	BYTE		        Gs4 
	BYTE	W96
// 052   ----------------------------------------
	BYTE		        An4 
	BYTE	W96
// 053   ----------------------------------------
	BYTE		        Gs4 
	BYTE	W96
// 054   ----------------------------------------
	BYTE		N24     An4 
	BYTE	W24
	BYTE		        Dn5 
	BYTE	W24
	BYTE		        Fs5 
	BYTE	W24
	BYTE		        An5 
	BYTE	W24
// 055   ----------------------------------------
	BYTE		TIE     Gs5 
	BYTE	W96
// 056   ----------------------------------------
	BYTE	W96
	BYTE		EOT   
// 057   ----------------------------------------
	BYTE	FINE

//**************** Track 5 (Midi-Chn.5) ****************//

boss06_5:
	BYTE	KEYSH   boss06_key+0
// 000   ----------------------------------------
	BYTE		PAN     c_v+0
	BYTE		MOD     0
	BYTE		BEND    c_v+0
	BYTE	W06
	BYTE		VOICE   19
	BYTE		VOL     110*boss06_mvl/mxv
	BYTE	W06
// 001   ----------------------------------------
boss06_5_001:
	BYTE		N06     Gs4   v100
	BYTE	W06
	BYTE		N06   
	BYTE	W06
	BYTE		        An4 
	BYTE	W06
	BYTE		        Fs4 
	BYTE	W06
	BYTE		        Gs4 
	BYTE	W06
	BYTE		        En4 
	BYTE	W06
	BYTE		        Fs4 
	BYTE	W06
	BYTE		        Ds4 
	BYTE	W06
	BYTE		        En4 
	BYTE	W06
	BYTE		        Cs4 
	BYTE	W06
	BYTE		        Ds4 
	BYTE	W06
	BYTE		        Cn4 
	BYTE	W06
	BYTE		        Cs4 
	BYTE	W06
	BYTE		        Gs3 
	BYTE	W06
	BYTE		        An3 
	BYTE	W06
	BYTE		        Fs3 
	BYTE	W06
	BYTE	PEND
// 002   ----------------------------------------
boss06_5_002:
	BYTE		N06     Gs3   v100
	BYTE	W06
	BYTE		N06   
	BYTE	W06
	BYTE		        An3 
	BYTE	W06
	BYTE		        Gs3 
	BYTE	W06
	BYTE		        Cn4 
	BYTE	W06
	BYTE		        Gs3 
	BYTE	W06
	BYTE		        Cs4 
	BYTE	W06
	BYTE		        Gs3 
	BYTE	W06
	BYTE		        Ds4 
	BYTE	W06
	BYTE		        Gs3 
	BYTE	W06
	BYTE		        Fs4 
	BYTE	W06
	BYTE		        Gs3 
	BYTE	W06
	BYTE		        En4 
	BYTE	W06
	BYTE		        Gs3 
	BYTE	W06
	BYTE		        Ds4 
	BYTE	W06
	BYTE		        Gs3 
	BYTE	W06
	BYTE	PEND
// 003   ----------------------------------------
boss06_5_003:
	BYTE		N06     An4   v100
	BYTE	W06
	BYTE		N06   
	BYTE	W06
	BYTE		        Bn4 
	BYTE	W06
	BYTE		        Gs4 
	BYTE	W06
	BYTE		        An4 
	BYTE	W06
	BYTE		        Fs4 
	BYTE	W06
	BYTE		        Gs4 
	BYTE	W06
	BYTE		        En4 
	BYTE	W06
	BYTE		        Fs4 
	BYTE	W06
	BYTE		        Ds4 
	BYTE	W06
	BYTE		        En4 
	BYTE	W06
	BYTE		        Cs4 
	BYTE	W06
	BYTE		        Ds4 
	BYTE	W06
	BYTE		        Bn3 
	BYTE	W06
	BYTE		        Cs4 
	BYTE	W06
	BYTE		        Gs3 
	BYTE	W06
	BYTE	PEND
// 004   ----------------------------------------
boss06_5_004:
	BYTE		N06     An3   v100
	BYTE	W06
	BYTE		N06   
	BYTE	W06
	BYTE		        Bn3 
	BYTE	W06
	BYTE		        An3 
	BYTE	W06
	BYTE		        Cs4 
	BYTE	W06
	BYTE		        An3 
	BYTE	W06
	BYTE		        Ds4 
	BYTE	W06
	BYTE		        An3 
	BYTE	W06
	BYTE		        En4 
	BYTE	W06
	BYTE		        Cs4 
	BYTE	W06
	BYTE		        Fs4 
	BYTE	W06
	BYTE		        Cs4 
	BYTE	W06
	BYTE		        Gs4 
	BYTE	W06
	BYTE		        En4 
	BYTE	W06
	BYTE		        An4 
	BYTE	W06
	BYTE		        Gn4 
	BYTE	W06
	BYTE	PEND
// 005   ----------------------------------------
	BYTE	PATT
	 POIN2	boss06_5_001
// 006   ----------------------------------------
	BYTE	PATT
	 POIN2	boss06_5_002
// 007   ----------------------------------------
	BYTE	PATT
	 POIN2	boss06_5_003
// 008   ----------------------------------------
	BYTE	PATT
	 POIN2	boss06_5_004
// 009   ----------------------------------------
	BYTE		TIE     Gs4   v100
	BYTE	W96
// 010   ----------------------------------------
	BYTE	W24
	BYTE		EOT   
	BYTE		N24     An4 
	BYTE	W24
	BYTE		        Gn4 
	BYTE	W24
	BYTE		        An4 
	BYTE	W24
// 011   ----------------------------------------
	BYTE		TIE     Gs4 
	BYTE	W96
// 012   ----------------------------------------
	BYTE	W24
	BYTE		EOT   
	BYTE		N24   
	BYTE	W24
	BYTE		        An4 
	BYTE	W24
	BYTE		        Cs5 
	BYTE	W24
// 013   ----------------------------------------
	BYTE		TIE     Cn5 
	BYTE	W96
// 014   ----------------------------------------
	BYTE	W24
	BYTE		EOT   
	BYTE		N12   
	BYTE	W12
	BYTE		        Cs5 
	BYTE	W12
	BYTE		N18     Ds5 
	BYTE	W18
	BYTE		        En5 
	BYTE	W18
	BYTE		N12     Ds5 
	BYTE	W12
// 015   ----------------------------------------
boss06_5_015:
	BYTE		N12     Ds5   v100
	BYTE	W12
	BYTE		N06     Cn5 
	BYTE	W06
	BYTE		TIE     Gs5 
	BYTE	W78
	BYTE	PEND
// 016   ----------------------------------------
	BYTE	W96
	BYTE		EOT   
// 017   ----------------------------------------
	BYTE	PATT
	 POIN2	boss06_5_001
// 018   ----------------------------------------
	BYTE	PATT
	 POIN2	boss06_5_002
// 019   ----------------------------------------
	BYTE	PATT
	 POIN2	boss06_5_003
// 020   ----------------------------------------
	BYTE	PATT
	 POIN2	boss06_5_004
// 021   ----------------------------------------
	BYTE	PATT
	 POIN2	boss06_5_001
// 022   ----------------------------------------
	BYTE	PATT
	 POIN2	boss06_5_002
// 023   ----------------------------------------
	BYTE	PATT
	 POIN2	boss06_5_003
// 024   ----------------------------------------
	BYTE	PATT
	 POIN2	boss06_5_004
// 025   ----------------------------------------
	BYTE		TIE     Gs4   v100
	BYTE	W96
// 026   ----------------------------------------
	BYTE	W24
	BYTE		EOT   
	BYTE		N24     An4 
	BYTE	W24
	BYTE		        Gn4 
	BYTE	W24
	BYTE		        An4 
	BYTE	W24
// 027   ----------------------------------------
	BYTE		TIE     Gs4 
	BYTE	W96
// 028   ----------------------------------------
	BYTE	W24
	BYTE		EOT   
	BYTE		N24   
	BYTE	W24
	BYTE		        An4 
	BYTE	W24
	BYTE		        Cs5 
	BYTE	W24
// 029   ----------------------------------------
	BYTE		TIE     Cn5 
	BYTE	W96
// 030   ----------------------------------------
	BYTE	W24
	BYTE		EOT   
	BYTE		N12   
	BYTE	W12
	BYTE		        Cs5 
	BYTE	W12
	BYTE		N18     Ds5 
	BYTE	W18
	BYTE		        En5 
	BYTE	W18
	BYTE		N12     Ds5 
	BYTE	W12
// 031   ----------------------------------------
	BYTE	PATT
	 POIN2	boss06_5_015
// 032   ----------------------------------------
	BYTE	W96
	BYTE		EOT     Gs5 
// 033   ----------------------------------------
boss06_5_033:
	BYTE		N24     Gs3   v100
	BYTE	W24
	BYTE		        Cs4 
	BYTE	W24
	BYTE		N18     Ds4 
	BYTE	W18
	BYTE		        En4 
	BYTE	W18
	BYTE		N12     Fs4 
	BYTE	W12
	BYTE	PEND
// 034   ----------------------------------------
boss06_5_034:
	BYTE		N18     Gs4   v100
	BYTE	W18
	BYTE		        Fs4 
	BYTE	W18
	BYTE		N12     En4 
	BYTE	W12
	BYTE		N24     Bn4 
	BYTE	W24
	BYTE		        An4 
	BYTE	W24
	BYTE	PEND
// 035   ----------------------------------------
	BYTE		TIE     Gs4 
	BYTE	W96
// 036   ----------------------------------------
	BYTE	W96
	BYTE		EOT   
// 037   ----------------------------------------
	BYTE	PATT
	 POIN2	boss06_5_033
// 038   ----------------------------------------
	BYTE	PATT
	 POIN2	boss06_5_034
// 039   ----------------------------------------
	BYTE		N18     Gs4   v100
	BYTE	W18
	BYTE		        Fs4 
	BYTE	W18
	BYTE		N12     En4 
	BYTE	W12
	BYTE		N18     Fs4 
	BYTE	W18
	BYTE		        En4 
	BYTE	W18
	BYTE		N12     Ds4 
	BYTE	W12
// 040   ----------------------------------------
	BYTE		N18     En4 
	BYTE	W18
	BYTE		        Ds4 
	BYTE	W18
	BYTE		N12     Cs4 
	BYTE	W12
	BYTE		N24     Cn4 
	BYTE	W24
	BYTE		        Ds4 
	BYTE	W24
// 041   ----------------------------------------
	BYTE	PATT
	 POIN2	boss06_5_033
// 042   ----------------------------------------
	BYTE	PATT
	 POIN2	boss06_5_034
// 043   ----------------------------------------
	BYTE		TIE     Gs4   v100
	BYTE	W96
// 044   ----------------------------------------
	BYTE	W96
	BYTE		EOT   
// 045   ----------------------------------------
	BYTE	PATT
	 POIN2	boss06_5_033
// 046   ----------------------------------------
	BYTE		N18     Gs4   v100
	BYTE	W18
	BYTE		        Fs4 
	BYTE	W18
	BYTE		N12     En4 
	BYTE	W12
	BYTE		        Bn4 
	BYTE	W12
	BYTE		        An4 
	BYTE	W12
	BYTE		        Gs4 
	BYTE	W12
	BYTE		        Fs4 
	BYTE	W12
// 047   ----------------------------------------
	BYTE		        En4 
	BYTE	W12
	BYTE		        Ds4 
	BYTE	W12
	BYTE		N06     En4 
	BYTE	W06
	BYTE		N12     Fs4 
	BYTE	W12
	BYTE		N78     Gs4 
	BYTE	W54
// 048   ----------------------------------------
	BYTE	W24
	BYTE		N24     Fs4 
	BYTE	W24
	BYTE		        An4 
	BYTE	W24
	BYTE		        Cn5 
	BYTE	W24
// 049   ----------------------------------------
	BYTE		TIE     Cs5 
	BYTE	W96
// 050   ----------------------------------------
	BYTE	W24
	BYTE		EOT   
	BYTE		N24     Bn4 
	BYTE	W24
	BYTE		        Cs5 
	BYTE	W24
	BYTE		        Dn5 
	BYTE	W24
// 051   ----------------------------------------
	BYTE		TIE     Cs5 
	BYTE	W96
// 052   ----------------------------------------
	BYTE	W48
	BYTE		EOT   
	BYTE		N18     Fs5 
	BYTE	W18
	BYTE		        En5 
	BYTE	W18
	BYTE		N12     Cn5 
	BYTE	W12
// 053   ----------------------------------------
	BYTE		N96     Cs5 
	BYTE	W96
// 054   ----------------------------------------
	BYTE		N24     Dn5 
	BYTE	W24
	BYTE		        Fs5 
	BYTE	W24
	BYTE		        An5 
	BYTE	W24
	BYTE		        Cn6 
	BYTE	W24
// 055   ----------------------------------------
	BYTE		TIE     Cs6 
	BYTE	W96
// 056   ----------------------------------------
	BYTE	W96
	BYTE		EOT   
// 057   ----------------------------------------
	BYTE	FINE

//**************** Track 6 (Midi-Chn.10) ****************//

boss06_6:
	BYTE	KEYSH   boss06_key+0
// 000   ----------------------------------------
	BYTE		PAN     c_v+0
	BYTE		MOD     0
	BYTE		BEND    c_v+0
	BYTE	W06
	BYTE		VOICE   16
	BYTE		VOL     100*boss06_mvl/mxv
	BYTE	W06
// 001   ----------------------------------------
	BYTE		N06     Dn1   v100
	BYTE		N06     Fs1 
	BYTE		N06     Cs2 
	BYTE	W06
	BYTE		        Gs1 
	BYTE	W06
	BYTE		N06   
	BYTE	W06
	BYTE		N06   
	BYTE	W06
	BYTE		        Cn1 
	BYTE		N06     Fs1 
	BYTE	W06
	BYTE		        Gs1 
	BYTE	W06
	BYTE		N06   
	BYTE	W06
	BYTE		N06   
	BYTE	W06
	BYTE		        Cn1 
	BYTE		N06     Fs1 
	BYTE	W06
	BYTE		        Gs1 
	BYTE	W06
	BYTE		N06   
	BYTE	W06
	BYTE		N06   
	BYTE	W06
	BYTE		        Cn1 
	BYTE		N06     Fs1 
	BYTE	W06
	BYTE		        Gs1 
	BYTE	W06
	BYTE		N06   
	BYTE	W06
	BYTE		N06   
	BYTE	W06
// 002   ----------------------------------------
boss06_6_002:
	BYTE		N06     Cn1   v100
	BYTE		N06     Fs1 
	BYTE	W06
	BYTE		        Gs1 
	BYTE	W06
	BYTE		N06   
	BYTE	W06
	BYTE		N06   
	BYTE	W06
	BYTE		        Cn1 
	BYTE		N06     Fs1 
	BYTE	W06
	BYTE		        Gs1 
	BYTE	W06
	BYTE		N06   
	BYTE	W06
	BYTE		N06   
	BYTE	W06
	BYTE		        Cn1 
	BYTE		N06     Fs1 
	BYTE	W06
	BYTE		        Gs1 
	BYTE	W06
	BYTE		        Dn1 
	BYTE		N06     Gs1 
	BYTE	W06
	BYTE		        Dn1 
	BYTE		N06     Gs1 
	BYTE	W06
	BYTE		        Dn1 
	BYTE		N06     Fs1 
	BYTE	W06
	BYTE		        Dn1 
	BYTE		N06     Gs1 
	BYTE	W06
	BYTE		        Dn1 
	BYTE		N06     Gs1 
	BYTE	W06
	BYTE		        Dn1 
	BYTE		N06     Gs1 
	BYTE	W06
	BYTE	PEND
// 003   ----------------------------------------
boss06_6_003:
	BYTE		N06     Dn1   v100
	BYTE		N06     Fs1 
	BYTE		N06     Cs2 
	BYTE	W06
	BYTE		        Gs1 
	BYTE	W06
	BYTE		N06   
	BYTE	W06
	BYTE		N06   
	BYTE	W06
	BYTE		        Cn1 
	BYTE		N06     Fs1 
	BYTE	W06
	BYTE		        Gs1 
	BYTE	W06
	BYTE		N06   
	BYTE	W06
	BYTE		N06   
	BYTE	W06
	BYTE		        Cn1 
	BYTE		N06     Fs1 
	BYTE	W06
	BYTE		        Gs1 
	BYTE	W06
	BYTE		N06   
	BYTE	W06
	BYTE		N06   
	BYTE	W06
	BYTE		        Cn1 
	BYTE		N06     Fs1 
	BYTE	W06
	BYTE		        Gs1 
	BYTE	W06
	BYTE		N06   
	BYTE	W06
	BYTE		N06   
	BYTE	W06
	BYTE	PEND
// 004   ----------------------------------------
	BYTE	PATT
	 POIN2	boss06_6_002
// 005   ----------------------------------------
	BYTE	PATT
	 POIN2	boss06_6_003
// 006   ----------------------------------------
	BYTE	PATT
	 POIN2	boss06_6_002
// 007   ----------------------------------------
	BYTE	PATT
	 POIN2	boss06_6_003
// 008   ----------------------------------------
boss06_6_008:
	BYTE		N06     Cn1   v100
	BYTE		N06     Fs1 
	BYTE	W06
	BYTE		        Gs1 
	BYTE	W06
	BYTE		N06   
	BYTE	W06
	BYTE		N06   
	BYTE	W06
	BYTE		        Cn1 
	BYTE		N06     Fs1 
	BYTE	W06
	BYTE		        Gs1 
	BYTE	W06
	BYTE		N06   
	BYTE	W06
	BYTE		N06   
	BYTE	W06
	BYTE		        Dn1 
	BYTE		N06     Fs1 
	BYTE		N06     An2 
	BYTE	W06
	BYTE		        Gs1 
	BYTE		N06     Bn1 
	BYTE	W06
	BYTE		        Gs1 
	BYTE		N06     An1 
	BYTE	W06
	BYTE		        Dn1 
	BYTE		N06     Gs1 
	BYTE		N06     Cs2 
	BYTE	W06
	BYTE		        Fs1 
	BYTE		N06     Gn1 
	BYTE	W06
	BYTE		        Fn1 
	BYTE		N06     Gs1 
	BYTE	W06
	BYTE		        Dn1 
	BYTE		N06     Gs1 
	BYTE		N06     An2 
	BYTE	W06
	BYTE		        Fs1 
	BYTE		N06     Gs1 
	BYTE	W06
	BYTE	PEND
// 009   ----------------------------------------
boss06_6_009:
	BYTE		N06     Cn1   v100
	BYTE		N06     Cs2 
	BYTE	W12
	BYTE		        Dn1 
	BYTE		N06     As1 
	BYTE	W12
	BYTE		        Cn1 
	BYTE		N06     As1 
	BYTE	W12
	BYTE		        Dn1 
	BYTE		N06     As1 
	BYTE	W12
	BYTE		        Cn1 
	BYTE		N06     As1 
	BYTE	W12
	BYTE		        Dn1 
	BYTE		N06     As1 
	BYTE	W06
	BYTE		        Cn1 
	BYTE	W06
	BYTE		        As1 
	BYTE	W06
	BYTE		        Cn1 
	BYTE	W06
	BYTE		        Dn1 
	BYTE		N06     As1 
	BYTE	W12
	BYTE	PEND
// 010   ----------------------------------------
boss06_6_010:
	BYTE		N06     Cn1   v100
	BYTE		N06     As1 
	BYTE	W12
	BYTE		        Dn1 
	BYTE		N06     As1 
	BYTE	W12
	BYTE		        Cn1 
	BYTE		N06     As1 
	BYTE	W12
	BYTE		        Dn1 
	BYTE		N06     As1 
	BYTE	W12
	BYTE		        Cn1 
	BYTE		N06     As1 
	BYTE	W12
	BYTE		        Dn1 
	BYTE		N06     As1 
	BYTE	W06
	BYTE		        Cn1 
	BYTE	W06
	BYTE		        As1 
	BYTE	W06
	BYTE		        Cn1 
	BYTE	W06
	BYTE		        Dn1 
	BYTE		N06     As1 
	BYTE	W12
	BYTE	PEND
// 011   ----------------------------------------
	BYTE	PATT
	 POIN2	boss06_6_009
// 012   ----------------------------------------
boss06_6_012:
	BYTE		N06     Cn1   v100
	BYTE		N06     As1 
	BYTE	W12
	BYTE		        Dn1 
	BYTE		N06     As1 
	BYTE	W12
	BYTE		        Cn1 
	BYTE		N06     As1 
	BYTE	W12
	BYTE		        Dn1 
	BYTE		N06     As1 
	BYTE	W12
	BYTE		        Cn1 
	BYTE		N06     Cn2 
	BYTE	W06
	BYTE		N06   
	BYTE	W06
	BYTE		        Dn1 
	BYTE		N06     Bn1 
	BYTE	W06
	BYTE		N06   
	BYTE	W06
	BYTE		        Cn1 
	BYTE		N06     An1 
	BYTE	W06
	BYTE		        Dn1 
	BYTE	W06
	BYTE		N06   
	BYTE		N06     An2 
	BYTE	W06
	BYTE		        Dn1 
	BYTE	W06
	BYTE	PEND
// 013   ----------------------------------------
	BYTE	PATT
	 POIN2	boss06_6_009
// 014   ----------------------------------------
	BYTE	PATT
	 POIN2	boss06_6_010
// 015   ----------------------------------------
	BYTE	PATT
	 POIN2	boss06_6_009
// 016   ----------------------------------------
	BYTE		N06     Cn1   v100
	BYTE		N06     As1 
	BYTE	W12
	BYTE		        Dn1 
	BYTE		N06     As1 
	BYTE	W12
	BYTE		        Cn1 
	BYTE		N06     As1 
	BYTE	W12
	BYTE		        Dn1 
	BYTE		N06     As1 
	BYTE	W12
	BYTE		        Dn1 
	BYTE		N06     Cn2 
	BYTE		N06     An2 
	BYTE	W06
	BYTE		        Bn1 
	BYTE	W06
	BYTE		        An1 
	BYTE	W06
	BYTE		        Dn1 
	BYTE		N06     Bn1 
	BYTE		N06     Cs2 
	BYTE	W06
	BYTE		        An1 
	BYTE	W06
	BYTE		        Gn1 
	BYTE	W06
	BYTE		        Dn1 
	BYTE		N06     An1 
	BYTE		N06     An2 
	BYTE	W06
	BYTE		        Dn1 
	BYTE		N06     Gn1 
	BYTE	W06
// 017   ----------------------------------------
	BYTE	PATT
	 POIN2	boss06_6_003
// 018   ----------------------------------------
	BYTE	PATT
	 POIN2	boss06_6_002
// 019   ----------------------------------------
	BYTE	PATT
	 POIN2	boss06_6_003
// 020   ----------------------------------------
	BYTE	PATT
	 POIN2	boss06_6_002
// 021   ----------------------------------------
	BYTE	PATT
	 POIN2	boss06_6_003
// 022   ----------------------------------------
	BYTE	PATT
	 POIN2	boss06_6_002
// 023   ----------------------------------------
	BYTE	PATT
	 POIN2	boss06_6_003
// 024   ----------------------------------------
	BYTE	PATT
	 POIN2	boss06_6_008
// 025   ----------------------------------------
	BYTE	PATT
	 POIN2	boss06_6_009
// 026   ----------------------------------------
	BYTE	PATT
	 POIN2	boss06_6_010
// 027   ----------------------------------------
	BYTE	PATT
	 POIN2	boss06_6_009
// 028   ----------------------------------------
	BYTE	PATT
	 POIN2	boss06_6_012
// 029   ----------------------------------------
	BYTE	PATT
	 POIN2	boss06_6_009
// 030   ----------------------------------------
	BYTE	PATT
	 POIN2	boss06_6_010
// 031   ----------------------------------------
	BYTE	PATT
	 POIN2	boss06_6_009
// 032   ----------------------------------------
	BYTE		N06     Cn1   v100
	BYTE		N06     As1 
	BYTE	W12
	BYTE		        Dn1 
	BYTE		N06     As1 
	BYTE	W12
	BYTE		        Cn1 
	BYTE		N06     As1 
	BYTE	W12
	BYTE		        Dn1 
	BYTE		N06     As1 
	BYTE	W06
	BYTE		        Cn1 
	BYTE	W06
	BYTE		        Dn1 
	BYTE		N06     Cs2 
	BYTE	W06
	BYTE		        Dn1 
	BYTE	W06
	BYTE		N06   
	BYTE	W06
	BYTE		N06   
	BYTE	W06
	BYTE		N06   
	BYTE		N06     An2 
	BYTE	W06
	BYTE		        Dn1 
	BYTE	W06
	BYTE		N06   
	BYTE	W06
	BYTE		N06   
	BYTE	W06
// 033   ----------------------------------------
	BYTE	PATT
	 POIN2	boss06_6_009
// 034   ----------------------------------------
	BYTE	PATT
	 POIN2	boss06_6_010
// 035   ----------------------------------------
	BYTE	PATT
	 POIN2	boss06_6_009
// 036   ----------------------------------------
boss06_6_036:
	BYTE		N06     Cn1   v100
	BYTE		N06     As1 
	BYTE	W12
	BYTE		        Dn1 
	BYTE		N06     As1 
	BYTE	W12
	BYTE		        Cn1 
	BYTE		N06     As1 
	BYTE	W12
	BYTE		        Dn1 
	BYTE		N06     As1 
	BYTE	W12
	BYTE		        Cn1 
	BYTE		N06     As1 
	BYTE	W12
	BYTE		        Dn1 
	BYTE		N06     As1 
	BYTE	W12
	BYTE		        Cn1 
	BYTE		N06     As1 
	BYTE	W06
	BYTE		        Dn1 
	BYTE	W06
	BYTE		N06   
	BYTE	W06
	BYTE		N06   
	BYTE	W06
	BYTE	PEND
// 037   ----------------------------------------
	BYTE	PATT
	 POIN2	boss06_6_009
// 038   ----------------------------------------
	BYTE	PATT
	 POIN2	boss06_6_010
// 039   ----------------------------------------
	BYTE	PATT
	 POIN2	boss06_6_009
// 040   ----------------------------------------
	BYTE		N06     Dn1   v100
	BYTE		N06     Cs2 
	BYTE	W06
	BYTE		        Cn1 
	BYTE	W06
	BYTE		N06   
	BYTE	W06
	BYTE		N06   
	BYTE	W06
	BYTE		        Dn1 
	BYTE		N06     An2 
	BYTE	W06
	BYTE		        Cn1 
	BYTE	W06
	BYTE		N06   
	BYTE	W06
	BYTE		N06   
	BYTE	W06
	BYTE		        Dn1 
	BYTE		N06     Cs2 
	BYTE	W06
	BYTE		        Cn1 
	BYTE	W06
	BYTE		N06   
	BYTE	W06
	BYTE		N06   
	BYTE	W06
	BYTE		        Dn1 
	BYTE		N06     An2 
	BYTE	W06
	BYTE		        Dn1 
	BYTE	W06
	BYTE		N06   
	BYTE	W06
	BYTE		N06   
	BYTE	W06
// 041   ----------------------------------------
	BYTE	PATT
	 POIN2	boss06_6_009
// 042   ----------------------------------------
	BYTE	PATT
	 POIN2	boss06_6_010
// 043   ----------------------------------------
	BYTE	PATT
	 POIN2	boss06_6_009
// 044   ----------------------------------------
	BYTE	PATT
	 POIN2	boss06_6_036
// 045   ----------------------------------------
	BYTE	PATT
	 POIN2	boss06_6_009
// 046   ----------------------------------------
	BYTE	PATT
	 POIN2	boss06_6_010
// 047   ----------------------------------------
	BYTE		N06     Dn1   v100
	BYTE		N06     Cs2 
	BYTE	W06
	BYTE		        Cn1 
	BYTE	W06
	BYTE		N06   
	BYTE	W06
	BYTE		N06   
	BYTE	W06
	BYTE		        Dn1 
	BYTE	W06
	BYTE		        Cn1 
	BYTE	W06
	BYTE		N06   
	BYTE	W06
	BYTE		N06   
	BYTE	W06
	BYTE		        Dn1 
	BYTE		N06     An2 
	BYTE	W06
	BYTE		        Cn1 
	BYTE	W06
	BYTE		N06   
	BYTE	W06
	BYTE		N06   
	BYTE	W06
	BYTE		        Dn1 
	BYTE	W06
	BYTE		        Cn1 
	BYTE	W06
	BYTE		N06   
	BYTE	W06
	BYTE		N06   
	BYTE	W06
// 048   ----------------------------------------
	BYTE		        Dn1 
	BYTE		N06     Cs2 
	BYTE	W06
	BYTE		        Cn1 
	BYTE	W06
	BYTE		N06   
	BYTE	W06
	BYTE		N06   
	BYTE	W06
	BYTE		        Dn1 
	BYTE	W06
	BYTE		        Cn1 
	BYTE	W06
	BYTE		N06   
	BYTE	W06
	BYTE		N06   
	BYTE	W06
	BYTE		        Dn1 
	BYTE		N06     Cn2 
	BYTE		N06     An2 
	BYTE	W06
	BYTE		        Bn1 
	BYTE	W06
	BYTE		        An1 
	BYTE	W06
	BYTE		        Dn1 
	BYTE		N06     Bn1 
	BYTE		N06     Cs2 
	BYTE	W06
	BYTE		        An1 
	BYTE	W06
	BYTE		        Gn1 
	BYTE	W06
	BYTE		        Dn1 
	BYTE		N06     An1 
	BYTE		N06     An2 
	BYTE	W06
	BYTE		        Dn1 
	BYTE		N06     Gn1 
	BYTE	W06
// 049   ----------------------------------------
	BYTE	PATT
	 POIN2	boss06_6_009
// 050   ----------------------------------------
	BYTE	PATT
	 POIN2	boss06_6_010
// 051   ----------------------------------------
	BYTE	PATT
	 POIN2	boss06_6_009
// 052   ----------------------------------------
	BYTE		N06     Cn1   v100
	BYTE		N06     As1 
	BYTE	W12
	BYTE		        Dn1 
	BYTE		N06     As1 
	BYTE	W12
	BYTE		        Cn1 
	BYTE		N06     As1 
	BYTE	W12
	BYTE		        Dn1 
	BYTE		N06     As1 
	BYTE	W12
	BYTE		        Cn1 
	BYTE		N06     Cn2 
	BYTE	W06
	BYTE		N06   
	BYTE	W06
	BYTE		        Dn1 
	BYTE		N06     Bn1 
	BYTE	W06
	BYTE		N06   
	BYTE	W06
	BYTE		        Cn1 
	BYTE		N06     An1 
	BYTE	W06
	BYTE		        Dn1 
	BYTE	W06
	BYTE		N06   
	BYTE	W06
	BYTE		N06   
	BYTE	W06
// 053   ----------------------------------------
	BYTE	PATT
	 POIN2	boss06_6_009
// 054   ----------------------------------------
	BYTE	PATT
	 POIN2	boss06_6_010
// 055   ----------------------------------------
	BYTE		N06     Dn1   v100
	BYTE		N06     Cs2 
	BYTE	W06
	BYTE		        Cn2 
	BYTE	W06
	BYTE		        Cn1 
	BYTE	W06
	BYTE		        Dn1 
	BYTE	W06
	BYTE		        Bn1 
	BYTE	W06
	BYTE		        Cn1 
	BYTE	W06
	BYTE		N06   
	BYTE	W06
	BYTE		        An1 
	BYTE	W06
	BYTE		        Dn1 
	BYTE		N06     An2 
	BYTE	W06
	BYTE		        Cn2 
	BYTE	W06
	BYTE		        Cn1 
	BYTE	W06
	BYTE		        Dn1 
	BYTE	W06
	BYTE		        Bn1 
	BYTE	W06
	BYTE		        Cn1 
	BYTE	W06
	BYTE		N06   
	BYTE	W06
	BYTE		        An1 
	BYTE	W06
// 056   ----------------------------------------
	BYTE		        Dn1 
	BYTE		N06     Cs2 
	BYTE	W06
	BYTE		        Gn1 
	BYTE	W06
	BYTE		        Cn1 
	BYTE	W06
	BYTE		N06   
	BYTE	W06
	BYTE		        Dn1 
	BYTE		N06     An2 
	BYTE	W06
	BYTE		        Gn1 
	BYTE	W06
	BYTE		        Cn1 
	BYTE	W06
	BYTE		N06   
	BYTE	W06
	BYTE		        Dn1 
	BYTE		N06     Cs2 
	BYTE	W06
	BYTE		        Dn1 
	BYTE	W06
	BYTE		N06   
	BYTE	W06
	BYTE		N06   
	BYTE	W06
	BYTE		N06   
	BYTE		N06     An2 
	BYTE	W06
	BYTE		        Dn1 
	BYTE	W06
	BYTE		N06   
	BYTE	W06
	BYTE		N06   
	BYTE	W06
// 057   ----------------------------------------
	BYTE	FINE

//******************************************************//
	ALIGN 4

boss06:
	BYTE	6	// NumTrks
	BYTE	0	// NumBlks
	BYTE	boss06_pri	// Priority
	BYTE	boss06_rev	// Reverb.

	POIN2	boss06_grp

	POIN2	boss06_1
	POIN2	boss06_2
	POIN2	boss06_3
	POIN2	boss06_4
	POIN2	boss06_5
	POIN2	boss06_6

	
