//Event file generated from Sappy .s format.
	#include "MPlayDef.event"

	#define	Clash!_grp  voicegroup000
	#define	Clash!_pri  0
	#define	Clash!_rev  0
	#define	Clash!_mvl  127
	#define	Clash!_key  0
	#define	Clash!_tbs  1
	#define	Clash!_exg  0
	#define	Clash!_cmp  1

	// .rodata
	//	Clash!
	ALIGN 4

//**************** Track 1 (Midi-Chn.1) ****************//

Clash!_1:
	BYTE	KEYSH   Clash!_key+0
// 000   ----------------------------------------
	BYTE	TEMPO   150*Clash!_tbs/2
	BYTE		VOICE   56
	BYTE		VOL     100*Clash!_mvl/mxv
	BYTE		PAN     c_v+0
	BYTE		N05     An2   v080
	BYTE	W06
	BYTE		        Bn2 
	BYTE	W06
	BYTE		        Cn3 
	BYTE	W06
	BYTE		        Dn3 
	BYTE	W06
	BYTE		        En3 
	BYTE	W12
	BYTE		        An2 
	BYTE	W06
	BYTE		        Bn2 
	BYTE	W06
	BYTE		        Cn3 
	BYTE	W06
	BYTE		        Dn3 
	BYTE	W06
	BYTE		        En3 
	BYTE	W12
	BYTE		        An2 
	BYTE	W06
	BYTE		        Bn2 
	BYTE	W06
	BYTE		        Cn3 
	BYTE	W06
	BYTE		        Dn3 
	BYTE	W06
// 001   ----------------------------------------
Clash!_1_001:
	BYTE		N05     En3   v080
	BYTE	W12
	BYTE		        Cn3 
	BYTE	W12
	BYTE		        Dn3 
	BYTE	W12
	BYTE		        Gn3 
	BYTE	W12
	BYTE		        Fs3 
	BYTE	W12
	BYTE		        Dn3 
	BYTE	W12
	BYTE		        En3 
	BYTE	W12
	BYTE		        Cn3 
	BYTE	W12
	BYTE	PEND
// 002   ----------------------------------------
Clash!_1_002:
	BYTE		N05     Dn3   v080
	BYTE	W12
	BYTE		N80     An3 
	BYTE	W84
	BYTE	PEND
// 003   ----------------------------------------
	BYTE	W96
// 004   ----------------------------------------
Clash!_1_004:
	BYTE		N05     An2   v080
	BYTE	W06
	BYTE		        Bn2 
	BYTE	W06
	BYTE		        Cn3 
	BYTE	W06
	BYTE		        Dn3 
	BYTE	W06
	BYTE		        En3 
	BYTE	W12
	BYTE		        An2 
	BYTE	W06
	BYTE		        Bn2 
	BYTE	W06
	BYTE		        Cn3 
	BYTE	W06
	BYTE		        Dn3 
	BYTE	W06
	BYTE		        En3 
	BYTE	W12
	BYTE		        An2 
	BYTE	W06
	BYTE		        Bn2 
	BYTE	W06
	BYTE		        Cn3 
	BYTE	W06
	BYTE		        Dn3 
	BYTE	W06
	BYTE	PEND
// 005   ----------------------------------------
	BYTE	PATT
	 POIN2	Clash!_1_001
// 006   ----------------------------------------
Clash!_1_006:
	BYTE		N05     Dn3   v080
	BYTE	W12
	BYTE		TIE     An2 
	BYTE	W84
	BYTE	PEND
// 007   ----------------------------------------
	BYTE	W92
	BYTE	W03
	BYTE		EOT   
	BYTE	W01
// 008   ----------------------------------------
	BYTE	W96
// 009   ----------------------------------------
	BYTE	W96
// 010   ----------------------------------------
	BYTE	W96
// 011   ----------------------------------------
	BYTE	W96
// 012   ----------------------------------------
	BYTE		N92     En3 
	BYTE	W96
// 013   ----------------------------------------
	BYTE		        Fs3 
	BYTE	W96
// 014   ----------------------------------------
	BYTE		        Gn3 
	BYTE	W96
// 015   ----------------------------------------
	BYTE	W96
// 016   ----------------------------------------
Clash!_1_016:
	BYTE	W72
	BYTE		N11     Gn2   v064
	BYTE	W12
	BYTE		        Gn3 
	BYTE	W12
	BYTE	PEND
// 017   ----------------------------------------
Clash!_1_017:
	BYTE		N32     Fn3   v064
	BYTE	W36
	BYTE		        En3 
	BYTE	W60
	BYTE	PEND
// 018   ----------------------------------------
	BYTE	W96
// 019   ----------------------------------------
	BYTE	W96
// 020   ----------------------------------------
	BYTE	W96
// 021   ----------------------------------------
Clash!_1_021:
	BYTE	W24
	BYTE		N23     As2   v064
	BYTE	W24
	BYTE		        Dn3 
	BYTE	W24
	BYTE		        Fn3 
	BYTE	W24
	BYTE	PEND
// 022   ----------------------------------------
Clash!_1_022:
	BYTE		N44     As3   v064
	BYTE	W48
	BYTE		        Gs3 
	BYTE	W48
	BYTE	PEND
// 023   ----------------------------------------
	BYTE	TEMPO   150*Clash!_tbs/2
	BYTE		N05     An2   v080
	BYTE	W06
	BYTE		        Bn2 
	BYTE	W06
	BYTE		        Cn3 
	BYTE	W06
	BYTE		        Dn3 
	BYTE	W06
	BYTE		        En3 
	BYTE	W12
	BYTE		        An2 
	BYTE	W06
	BYTE		        Bn2 
	BYTE	W06
	BYTE		        Cn3 
	BYTE	W06
	BYTE		        Dn3 
	BYTE	W06
	BYTE		        En3 
	BYTE	W12
	BYTE		        An2 
	BYTE	W06
	BYTE		        Bn2 
	BYTE	W06
	BYTE		        Cn3 
	BYTE	W06
	BYTE		        Dn3 
	BYTE	W06
// 024   ----------------------------------------
	BYTE	PATT
	 POIN2	Clash!_1_001
// 025   ----------------------------------------
	BYTE	PATT
	 POIN2	Clash!_1_002
// 026   ----------------------------------------
	BYTE	W96
// 027   ----------------------------------------
	BYTE	PATT
	 POIN2	Clash!_1_004
// 028   ----------------------------------------
	BYTE	PATT
	 POIN2	Clash!_1_001
// 029   ----------------------------------------
	BYTE	PATT
	 POIN2	Clash!_1_006
// 030   ----------------------------------------
	BYTE	W92
	BYTE	W03
	BYTE		EOT     An2 
	BYTE	W01
// 031   ----------------------------------------
	BYTE	W96
// 032   ----------------------------------------
	BYTE	W96
// 033   ----------------------------------------
	BYTE	W96
// 034   ----------------------------------------
	BYTE	W96
// 035   ----------------------------------------
	BYTE		N92     En3   v080
	BYTE	W96
// 036   ----------------------------------------
	BYTE		        Fs3 
	BYTE	W96
// 037   ----------------------------------------
	BYTE		        Gn3 
	BYTE	W96
// 038   ----------------------------------------
	BYTE	W96
// 039   ----------------------------------------
	BYTE	PATT
	 POIN2	Clash!_1_016
// 040   ----------------------------------------
	BYTE	PATT
	 POIN2	Clash!_1_017
// 041   ----------------------------------------
	BYTE	W96
// 042   ----------------------------------------
	BYTE	W96
// 043   ----------------------------------------
	BYTE	W96
// 044   ----------------------------------------
	BYTE	PATT
	 POIN2	Clash!_1_021
// 045   ----------------------------------------
	BYTE	PATT
	 POIN2	Clash!_1_022
// 046   ----------------------------------------
	BYTE	FINE

//**************** Track 2 (Midi-Chn.3) ****************//

Clash!_2:
	BYTE	KEYSH   Clash!_key+0
// 000   ----------------------------------------
	BYTE		VOICE   40
	BYTE		VOL     100*Clash!_mvl/mxv
	BYTE		PAN     c_v+0
	BYTE		N32     An3   v080
	BYTE	W36
	BYTE		        Gs3 
	BYTE	W36
	BYTE		N23     Gn3 
	BYTE	W24
// 001   ----------------------------------------
Clash!_2_001:
	BYTE		N32     Fs3   v080
	BYTE	W36
	BYTE		        Fn3 
	BYTE	W36
	BYTE		N23     En3 
	BYTE	W24
	BYTE	PEND
// 002   ----------------------------------------
Clash!_2_002:
	BYTE		N32     Ds3   v080
	BYTE	W36
	BYTE		        Dn3 
	BYTE	W36
	BYTE		N23     Cs3 
	BYTE	W24
	BYTE	PEND
// 003   ----------------------------------------
Clash!_2_003:
	BYTE		N32     Cn3   v080
	BYTE	W36
	BYTE		        Bn2 
	BYTE	W36
	BYTE		N23     As2 
	BYTE	W24
	BYTE	PEND
// 004   ----------------------------------------
Clash!_2_004:
	BYTE		N32     An2   v080
	BYTE	W36
	BYTE		        Gs3 
	BYTE	W36
	BYTE		N23     Gn3 
	BYTE	W24
	BYTE	PEND
// 005   ----------------------------------------
	BYTE	PATT
	 POIN2	Clash!_2_001
// 006   ----------------------------------------
	BYTE	PATT
	 POIN2	Clash!_2_002
// 007   ----------------------------------------
	BYTE	PATT
	 POIN2	Clash!_2_003
// 008   ----------------------------------------
Clash!_2_008:
	BYTE		N32     An3   v080
	BYTE	W36
	BYTE		N02     Bn3 
	BYTE	W60
	BYTE	PEND
// 009   ----------------------------------------
	BYTE	W96
// 010   ----------------------------------------
	BYTE	PATT
	 POIN2	Clash!_2_008
// 011   ----------------------------------------
	BYTE	W96
// 012   ----------------------------------------
	BYTE	PATT
	 POIN2	Clash!_2_008
// 013   ----------------------------------------
	BYTE	W96
// 014   ----------------------------------------
	BYTE	W96
// 015   ----------------------------------------
	BYTE	W96
// 016   ----------------------------------------
	BYTE	W96
// 017   ----------------------------------------
Clash!_2_017:
	BYTE		N11     Fn4   v080
	BYTE	W12
	BYTE		        En4 
	BYTE	W12
	BYTE		        Dn4 
	BYTE	W12
	BYTE		        En4 
	BYTE	W12
	BYTE		        Dn4 
	BYTE	W12
	BYTE		        Cn4 
	BYTE	W36
	BYTE	PEND
// 018   ----------------------------------------
Clash!_2_018:
	BYTE		N11     An4   v080
	BYTE	W12
	BYTE		        Gn4 
	BYTE	W12
	BYTE		        Fn4 
	BYTE	W12
	BYTE		        Gn4 
	BYTE	W12
	BYTE		        Fn4 
	BYTE	W12
	BYTE		        En4 
	BYTE	W36
	BYTE	PEND
// 019   ----------------------------------------
Clash!_2_019:
	BYTE		N11     Fn4   v080
	BYTE	W12
	BYTE		        En4 
	BYTE	W12
	BYTE		        Dn4 
	BYTE	W12
	BYTE		        En4 
	BYTE	W12
	BYTE		        Dn4 
	BYTE	W12
	BYTE		        Cn4 
	BYTE	W24
	BYTE		N05     An4 
	BYTE	W06
	BYTE		        Bn4 
	BYTE	W06
	BYTE	PEND
// 020   ----------------------------------------
Clash!_2_020:
	BYTE		N11     Cn5   v080
	BYTE	W12
	BYTE		        Bn4 
	BYTE	W12
	BYTE		        An4 
	BYTE	W12
	BYTE		        Bn4 
	BYTE	W12
	BYTE		        An4 
	BYTE	W12
	BYTE		        Gn4 
	BYTE	W12
	BYTE		        An4 
	BYTE	W12
	BYTE		        Gn4 
	BYTE	W12
	BYTE	PEND
// 021   ----------------------------------------
	BYTE		TIE     An4 
	BYTE	W96
// 022   ----------------------------------------
	BYTE	W44
	BYTE	W03
	BYTE		EOT   
	BYTE	W01
	BYTE		N44     Gs4 
	BYTE	W48
// 023   ----------------------------------------
	BYTE		N32     An3 
	BYTE	W36
	BYTE		        Gs3 
	BYTE	W36
	BYTE		N23     Gn3 
	BYTE	W24
// 024   ----------------------------------------
	BYTE	PATT
	 POIN2	Clash!_2_001
// 025   ----------------------------------------
	BYTE	PATT
	 POIN2	Clash!_2_002
// 026   ----------------------------------------
	BYTE	PATT
	 POIN2	Clash!_2_003
// 027   ----------------------------------------
	BYTE	PATT
	 POIN2	Clash!_2_004
// 028   ----------------------------------------
	BYTE	PATT
	 POIN2	Clash!_2_001
// 029   ----------------------------------------
	BYTE	PATT
	 POIN2	Clash!_2_002
// 030   ----------------------------------------
	BYTE	PATT
	 POIN2	Clash!_2_003
// 031   ----------------------------------------
	BYTE	PATT
	 POIN2	Clash!_2_008
// 032   ----------------------------------------
	BYTE	W96
// 033   ----------------------------------------
	BYTE	PATT
	 POIN2	Clash!_2_008
// 034   ----------------------------------------
	BYTE	W96
// 035   ----------------------------------------
	BYTE	PATT
	 POIN2	Clash!_2_008
// 036   ----------------------------------------
	BYTE	W96
// 037   ----------------------------------------
	BYTE	W96
// 038   ----------------------------------------
	BYTE	W96
// 039   ----------------------------------------
	BYTE	W96
// 040   ----------------------------------------
	BYTE	PATT
	 POIN2	Clash!_2_017
// 041   ----------------------------------------
	BYTE	PATT
	 POIN2	Clash!_2_018
// 042   ----------------------------------------
	BYTE	PATT
	 POIN2	Clash!_2_019
// 043   ----------------------------------------
	BYTE	PATT
	 POIN2	Clash!_2_020
// 044   ----------------------------------------
	BYTE		TIE     An4   v080
	BYTE	W96
// 045   ----------------------------------------
	BYTE	W44
	BYTE	W03
	BYTE		EOT   
	BYTE	W01
	BYTE		N44     Gs4 
	BYTE	W48
// 046   ----------------------------------------
	BYTE	FINE

//**************** Track 3 (Midi-Chn.6) ****************//

Clash!_3:
	BYTE	KEYSH   Clash!_key+0
// 000   ----------------------------------------
	BYTE		VOICE   40
	BYTE		VOL     100*Clash!_mvl/mxv
	BYTE		PAN     c_v+0
	BYTE		N32     Cn4   v064
	BYTE	W36
	BYTE		        Bn3 
	BYTE	W36
	BYTE		N23     As3 
	BYTE	W24
// 001   ----------------------------------------
Clash!_3_001:
	BYTE		N32     An3   v064
	BYTE	W36
	BYTE		        Gs3 
	BYTE	W36
	BYTE		N23     Gn3 
	BYTE	W24
	BYTE	PEND
// 002   ----------------------------------------
Clash!_3_002:
	BYTE		N32     Fs3   v064
	BYTE	W36
	BYTE		        Fn3 
	BYTE	W36
	BYTE		N23     En3 
	BYTE	W24
	BYTE	PEND
// 003   ----------------------------------------
Clash!_3_003:
	BYTE		N32     Ds3   v064
	BYTE	W36
	BYTE		        Dn3 
	BYTE	W36
	BYTE		N23     Cs3 
	BYTE	W24
	BYTE	PEND
// 004   ----------------------------------------
Clash!_3_004:
	BYTE		N32     Cn3   v064
	BYTE	W36
	BYTE		        Bn3 
	BYTE	W36
	BYTE		N23     As3 
	BYTE	W24
	BYTE	PEND
// 005   ----------------------------------------
	BYTE	PATT
	 POIN2	Clash!_3_001
// 006   ----------------------------------------
	BYTE	PATT
	 POIN2	Clash!_3_002
// 007   ----------------------------------------
	BYTE	PATT
	 POIN2	Clash!_3_003
// 008   ----------------------------------------
Clash!_3_008:
	BYTE		N32     Cn4   v064
	BYTE	W36
	BYTE		N02     Dn4 
	BYTE	W24
	BYTE		N05     An3 
	BYTE	W06
	BYTE		        Bn3 
	BYTE	W06
	BYTE		        Cn4 
	BYTE	W06
	BYTE		        Dn4 
	BYTE	W06
	BYTE		        En4 
	BYTE	W06
	BYTE		        Gn4 
	BYTE	W06
	BYTE	PEND
// 009   ----------------------------------------
	BYTE		N92     Fs4 
	BYTE	W96
// 010   ----------------------------------------
Clash!_3_010:
	BYTE		N32     Cn4   v064
	BYTE	W36
	BYTE		N02     Dn4 
	BYTE	W24
	BYTE		N05     Cn4 
	BYTE	W06
	BYTE		        Dn4 
	BYTE	W06
	BYTE		        En4 
	BYTE	W06
	BYTE		        Fs4 
	BYTE	W06
	BYTE		        Gn4 
	BYTE	W06
	BYTE		        Bn4 
	BYTE	W06
	BYTE	PEND
// 011   ----------------------------------------
	BYTE		N92     An4 
	BYTE	W96
// 012   ----------------------------------------
	BYTE	PATT
	 POIN2	Clash!_3_008
// 013   ----------------------------------------
	BYTE		N92     Fs4   v064
	BYTE	W96
// 014   ----------------------------------------
Clash!_3_014:
	BYTE	W48
	BYTE		TIE     En4   v064
	BYTE	W48
	BYTE	PEND
// 015   ----------------------------------------
	BYTE	W92
	BYTE	W03
	BYTE		EOT   
	BYTE	W01
// 016   ----------------------------------------
Clash!_3_016:
	BYTE		N11     An4   v080
	BYTE	W12
	BYTE		        Gn4 
	BYTE	W12
	BYTE		        Fn4 
	BYTE	W12
	BYTE		        Gn4 
	BYTE	W12
	BYTE		        Fn4 
	BYTE	W12
	BYTE		        En4 
	BYTE	W36
	BYTE	PEND
// 017   ----------------------------------------
	BYTE	W96
// 018   ----------------------------------------
Clash!_3_018:
	BYTE		N11     Fn4   v080
	BYTE	W12
	BYTE		        En4 
	BYTE	W12
	BYTE		        Dn4 
	BYTE	W12
	BYTE		        En4 
	BYTE	W12
	BYTE		        Dn4 
	BYTE	W12
	BYTE		        Cn4 
	BYTE	W36
	BYTE	PEND
// 019   ----------------------------------------
Clash!_3_019:
	BYTE		N11     Dn4   v080
	BYTE	W12
	BYTE		        Cn4 
	BYTE	W12
	BYTE		        Bn3 
	BYTE	W12
	BYTE		        Cn4 
	BYTE	W12
	BYTE		        Bn3 
	BYTE	W12
	BYTE		        An3 
	BYTE	W36
	BYTE	PEND
// 020   ----------------------------------------
Clash!_3_020:
	BYTE		N11     An4   v080
	BYTE	W12
	BYTE		        Gn4 
	BYTE	W12
	BYTE		        Fn4 
	BYTE	W12
	BYTE		        Gn4 
	BYTE	W12
	BYTE		        Fn4 
	BYTE	W12
	BYTE		        En4 
	BYTE	W12
	BYTE		        Fn4 
	BYTE	W12
	BYTE		        En4 
	BYTE	W12
	BYTE	PEND
// 021   ----------------------------------------
	BYTE		TIE     Fn4 
	BYTE	W96
// 022   ----------------------------------------
	BYTE	W44
	BYTE	W03
	BYTE		EOT   
	BYTE	W01
	BYTE		N44     En4 
	BYTE	W48
// 023   ----------------------------------------
	BYTE		N32     Cn4   v064
	BYTE	W36
	BYTE		        Bn3 
	BYTE	W36
	BYTE		N23     As3 
	BYTE	W24
// 024   ----------------------------------------
	BYTE	PATT
	 POIN2	Clash!_3_001
// 025   ----------------------------------------
	BYTE	PATT
	 POIN2	Clash!_3_002
// 026   ----------------------------------------
	BYTE	PATT
	 POIN2	Clash!_3_003
// 027   ----------------------------------------
	BYTE	PATT
	 POIN2	Clash!_3_004
// 028   ----------------------------------------
	BYTE	PATT
	 POIN2	Clash!_3_001
// 029   ----------------------------------------
	BYTE	PATT
	 POIN2	Clash!_3_002
// 030   ----------------------------------------
	BYTE	PATT
	 POIN2	Clash!_3_003
// 031   ----------------------------------------
	BYTE	PATT
	 POIN2	Clash!_3_008
// 032   ----------------------------------------
	BYTE		N92     Fs4   v064
	BYTE	W96
// 033   ----------------------------------------
	BYTE	PATT
	 POIN2	Clash!_3_010
// 034   ----------------------------------------
	BYTE		N92     An4   v064
	BYTE	W96
// 035   ----------------------------------------
	BYTE	PATT
	 POIN2	Clash!_3_008
// 036   ----------------------------------------
	BYTE		N92     Fs4   v064
	BYTE	W96
// 037   ----------------------------------------
	BYTE	PATT
	 POIN2	Clash!_3_014
// 038   ----------------------------------------
	BYTE	W92
	BYTE	W03
	BYTE		EOT     En4 
	BYTE	W01
// 039   ----------------------------------------
	BYTE	PATT
	 POIN2	Clash!_3_016
// 040   ----------------------------------------
	BYTE	W96
// 041   ----------------------------------------
	BYTE	PATT
	 POIN2	Clash!_3_018
// 042   ----------------------------------------
	BYTE	PATT
	 POIN2	Clash!_3_019
// 043   ----------------------------------------
	BYTE	PATT
	 POIN2	Clash!_3_020
// 044   ----------------------------------------
	BYTE		TIE     Fn4   v080
	BYTE	W96
// 045   ----------------------------------------
	BYTE	W44
	BYTE	W03
	BYTE		EOT   
	BYTE	W01
	BYTE		N44     En4 
	BYTE	W48
// 046   ----------------------------------------
	BYTE	FINE

//**************** Track 4 (Midi-Chn.9) ****************//

Clash!_4:
	BYTE	KEYSH   Clash!_key+0
// 000   ----------------------------------------
	BYTE		VOICE   71
	BYTE		VOL     100*Clash!_mvl/mxv
	BYTE		PAN     c_v+0
	BYTE	W96
// 001   ----------------------------------------
	BYTE	W96
// 002   ----------------------------------------
Clash!_4_002:
	BYTE	W48
	BYTE		N05     An3   v080
	BYTE	W06
	BYTE		        Bn3 
	BYTE	W06
	BYTE		        Cn4 
	BYTE	W06
	BYTE		        Dn4 
	BYTE	W06
	BYTE		        En4 
	BYTE	W06
	BYTE		        Fs4 
	BYTE	W06
	BYTE		        Gn4 
	BYTE	W06
	BYTE		        Bn4 
	BYTE	W06
	BYTE	PEND
// 003   ----------------------------------------
	BYTE		N92     An4 
	BYTE	W96
// 004   ----------------------------------------
	BYTE	W96
// 005   ----------------------------------------
	BYTE	W96
// 006   ----------------------------------------
Clash!_4_006:
	BYTE		N05     An4   v080
	BYTE	W12
	BYTE		        En4 
	BYTE	W12
	BYTE		        Gn4 
	BYTE	W12
	BYTE		        Dn4 
	BYTE	W12
	BYTE		        Fs4 
	BYTE	W12
	BYTE		        Cn4 
	BYTE	W12
	BYTE		        En4 
	BYTE	W12
	BYTE		        Cn4 
	BYTE	W12
	BYTE	PEND
// 007   ----------------------------------------
Clash!_4_007:
	BYTE		N05     En4   v080
	BYTE	W06
	BYTE		        Fn4 
	BYTE	W06
	BYTE		        En4 
	BYTE	W06
	BYTE		        Fn4 
	BYTE	W06
	BYTE		        En4 
	BYTE	W06
	BYTE		        Fn4 
	BYTE	W06
	BYTE		        En4 
	BYTE	W06
	BYTE		        Fn4 
	BYTE	W06
	BYTE		        En4 
	BYTE	W06
	BYTE		        Fn4 
	BYTE	W06
	BYTE		        En4 
	BYTE	W06
	BYTE		        Fn4 
	BYTE	W06
	BYTE		        En4 
	BYTE	W06
	BYTE		        Fn4 
	BYTE	W06
	BYTE		        En4 
	BYTE	W06
	BYTE		        Fn4 
	BYTE	W06
	BYTE	PEND
// 008   ----------------------------------------
	BYTE	W96
// 009   ----------------------------------------
Clash!_4_009:
	BYTE	W48
	BYTE		N05     Dn5   v080
	BYTE	W06
	BYTE		        Cn5 
	BYTE	W06
	BYTE		        Bn4 
	BYTE	W06
	BYTE		        An4 
	BYTE	W06
	BYTE		        Gn4 
	BYTE	W06
	BYTE		        Fs4 
	BYTE	W06
	BYTE		        En4 
	BYTE	W06
	BYTE		        Dn4 
	BYTE	W06
	BYTE	PEND
// 010   ----------------------------------------
	BYTE		N23     Cn4 
	BYTE	W96
// 011   ----------------------------------------
	BYTE	PATT
	 POIN2	Clash!_4_009
// 012   ----------------------------------------
	BYTE		N92     An3   v080
	BYTE	W96
// 013   ----------------------------------------
	BYTE		        Bn3 
	BYTE	W96
// 014   ----------------------------------------
	BYTE		        Cn4 
	BYTE	W96
// 015   ----------------------------------------
	BYTE		        Dn4 
	BYTE	W96
// 016   ----------------------------------------
	BYTE	W96
// 017   ----------------------------------------
Clash!_4_017:
	BYTE	W72
	BYTE		N05     Gn3   v080
	BYTE	W06
	BYTE		        Cn4 
	BYTE	W06
	BYTE		        En4 
	BYTE	W06
	BYTE		        Gn4 
	BYTE	W06
	BYTE	PEND
// 018   ----------------------------------------
Clash!_4_018:
	BYTE		N32     An4   v080
	BYTE	W36
	BYTE		        Gn4 
	BYTE	W60
	BYTE	PEND
// 019   ----------------------------------------
Clash!_4_019:
	BYTE		N32     Fn4   v080
	BYTE	W48
	BYTE		        En4 
	BYTE	W48
	BYTE	PEND
// 020   ----------------------------------------
Clash!_4_020:
	BYTE		N32     An4   v080
	BYTE	W36
	BYTE		        Gn4 
	BYTE	W36
	BYTE		TIE     Fn4 
	BYTE	W24
	BYTE	PEND
// 021   ----------------------------------------
	BYTE	W96
// 022   ----------------------------------------
	BYTE	W44
	BYTE	W03
	BYTE		EOT   
	BYTE	W01
	BYTE		N44     En4 
	BYTE	W48
// 023   ----------------------------------------
	BYTE	W96
// 024   ----------------------------------------
	BYTE	W96
// 025   ----------------------------------------
	BYTE	PATT
	 POIN2	Clash!_4_002
// 026   ----------------------------------------
	BYTE		N92     An4   v080
	BYTE	W96
// 027   ----------------------------------------
	BYTE	W96
// 028   ----------------------------------------
	BYTE	W96
// 029   ----------------------------------------
	BYTE	PATT
	 POIN2	Clash!_4_006
// 030   ----------------------------------------
	BYTE	PATT
	 POIN2	Clash!_4_007
// 031   ----------------------------------------
	BYTE	W96
// 032   ----------------------------------------
	BYTE	PATT
	 POIN2	Clash!_4_009
// 033   ----------------------------------------
	BYTE		N23     Cn4   v080
	BYTE	W96
// 034   ----------------------------------------
	BYTE	PATT
	 POIN2	Clash!_4_009
// 035   ----------------------------------------
	BYTE		N92     An3   v080
	BYTE	W96
// 036   ----------------------------------------
	BYTE		        Bn3 
	BYTE	W96
// 037   ----------------------------------------
	BYTE		        Cn4 
	BYTE	W96
// 038   ----------------------------------------
	BYTE		        Dn4 
	BYTE	W96
// 039   ----------------------------------------
	BYTE	W96
// 040   ----------------------------------------
	BYTE	PATT
	 POIN2	Clash!_4_017
// 041   ----------------------------------------
	BYTE	PATT
	 POIN2	Clash!_4_018
// 042   ----------------------------------------
	BYTE	PATT
	 POIN2	Clash!_4_019
// 043   ----------------------------------------
	BYTE	PATT
	 POIN2	Clash!_4_020
// 044   ----------------------------------------
	BYTE	W96
// 045   ----------------------------------------
	BYTE	W44
	BYTE	W03
	BYTE		EOT     Fn4 
	BYTE	W01
	BYTE		N44     En4   v080
	BYTE	W48
// 046   ----------------------------------------
	BYTE	FINE

//**************** Track 5 (Midi-Chn.11) ****************//

Clash!_5:
	BYTE	KEYSH   Clash!_key+0
// 000   ----------------------------------------
	BYTE		VOICE   71
	BYTE		VOL     100*Clash!_mvl/mxv
	BYTE		PAN     c_v+0
	BYTE	W96
// 001   ----------------------------------------
Clash!_5_001:
	BYTE	W84
	BYTE		N05     An3   v064
	BYTE	W06
	BYTE		        Bn3 
	BYTE	W06
	BYTE	PEND
// 002   ----------------------------------------
Clash!_5_002:
	BYTE		N05     Cn4   v064
	BYTE	W12
	BYTE		        An3 
	BYTE	W12
	BYTE		        Bn3 
	BYTE	W12
	BYTE		        Gn3 
	BYTE	W60
	BYTE	PEND
// 003   ----------------------------------------
Clash!_5_003:
	BYTE		N05     Fs4   v064
	BYTE	W06
	BYTE		        Gn4 
	BYTE	W06
	BYTE		        Fs4 
	BYTE	W06
	BYTE		        Gn4 
	BYTE	W06
	BYTE		        Fs4 
	BYTE	W06
	BYTE		        Gn4 
	BYTE	W06
	BYTE		        Fs4 
	BYTE	W06
	BYTE		        Gn4 
	BYTE	W06
	BYTE		        Fs4 
	BYTE	W06
	BYTE		        Gn4 
	BYTE	W06
	BYTE		        Fs4 
	BYTE	W06
	BYTE		        Gn4 
	BYTE	W06
	BYTE		        Fs4 
	BYTE	W06
	BYTE		        Gn4 
	BYTE	W06
	BYTE		        Fs4 
	BYTE	W06
	BYTE		        Gn4 
	BYTE	W06
	BYTE	PEND
// 004   ----------------------------------------
	BYTE	W96
// 005   ----------------------------------------
	BYTE	W96
// 006   ----------------------------------------
Clash!_5_006:
	BYTE	W72
	BYTE		N05     En5   v064
	BYTE	W06
	BYTE		        Dn5 
	BYTE	W06
	BYTE		        Cn5 
	BYTE	W06
	BYTE		        Bn4 
	BYTE	W06
	BYTE	PEND
// 007   ----------------------------------------
	BYTE		N92     An4 
	BYTE	W96
// 008   ----------------------------------------
	BYTE	W96
// 009   ----------------------------------------
	BYTE	W96
// 010   ----------------------------------------
	BYTE	W96
// 011   ----------------------------------------
Clash!_5_011:
	BYTE	W48
	BYTE		N05     Fs5   v064
	BYTE	W06
	BYTE		        En5 
	BYTE	W06
	BYTE		        Dn5 
	BYTE	W06
	BYTE		        Cn5 
	BYTE	W06
	BYTE		        Bn4 
	BYTE	W06
	BYTE		        An4 
	BYTE	W06
	BYTE		        Gn4 
	BYTE	W06
	BYTE		        Fs4 
	BYTE	W06
	BYTE	PEND
// 012   ----------------------------------------
	BYTE	W96
// 013   ----------------------------------------
	BYTE	W96
// 014   ----------------------------------------
	BYTE	W96
// 015   ----------------------------------------
Clash!_5_015:
	BYTE	W48
	BYTE		N05     Fn4   v064
	BYTE	W06
	BYTE		        En4 
	BYTE	W06
	BYTE		        Ds4 
	BYTE	W06
	BYTE		        Dn4 
	BYTE	W06
	BYTE		        Cs4 
	BYTE	W06
	BYTE		        Cn4 
	BYTE	W06
	BYTE		        Bn3 
	BYTE	W06
	BYTE		        As3 
	BYTE	W06
	BYTE	PEND
// 016   ----------------------------------------
Clash!_5_016:
	BYTE		N32     Cn3   v064
	BYTE	W36
	BYTE		N32   
	BYTE	W60
	BYTE	PEND
// 017   ----------------------------------------
	BYTE	PATT
	 POIN2	Clash!_5_016
// 018   ----------------------------------------
	BYTE	PATT
	 POIN2	Clash!_5_016
// 019   ----------------------------------------
	BYTE	PATT
	 POIN2	Clash!_5_016
// 020   ----------------------------------------
	BYTE		N32     Cn3   v064
	BYTE	W96
// 021   ----------------------------------------
Clash!_5_021:
	BYTE	W48
	BYTE		N05     Fn4   v064
	BYTE	W06
	BYTE		        En4 
	BYTE	W06
	BYTE		        Dn4 
	BYTE	W06
	BYTE		        Cn4 
	BYTE	W06
	BYTE		        As3 
	BYTE	W06
	BYTE		        Cn4 
	BYTE	W06
	BYTE		        Dn4 
	BYTE	W06
	BYTE		        En4 
	BYTE	W06
	BYTE	PEND
// 022   ----------------------------------------
Clash!_5_022:
	BYTE		N44     Fn4   v064
	BYTE	W48
	BYTE		        En4 
	BYTE	W48
	BYTE	PEND
// 023   ----------------------------------------
	BYTE	W96
// 024   ----------------------------------------
	BYTE	PATT
	 POIN2	Clash!_5_001
// 025   ----------------------------------------
	BYTE	PATT
	 POIN2	Clash!_5_002
// 026   ----------------------------------------
	BYTE	PATT
	 POIN2	Clash!_5_003
// 027   ----------------------------------------
	BYTE	W96
// 028   ----------------------------------------
	BYTE	W96
// 029   ----------------------------------------
	BYTE	PATT
	 POIN2	Clash!_5_006
// 030   ----------------------------------------
	BYTE		N92     An4   v064
	BYTE	W96
// 031   ----------------------------------------
	BYTE	W96
// 032   ----------------------------------------
	BYTE	W96
// 033   ----------------------------------------
	BYTE	W96
// 034   ----------------------------------------
	BYTE	PATT
	 POIN2	Clash!_5_011
// 035   ----------------------------------------
	BYTE	W96
// 036   ----------------------------------------
	BYTE	W96
// 037   ----------------------------------------
	BYTE	W96
// 038   ----------------------------------------
	BYTE	PATT
	 POIN2	Clash!_5_015
// 039   ----------------------------------------
	BYTE	PATT
	 POIN2	Clash!_5_016
// 040   ----------------------------------------
	BYTE	PATT
	 POIN2	Clash!_5_016
// 041   ----------------------------------------
	BYTE	PATT
	 POIN2	Clash!_5_016
// 042   ----------------------------------------
	BYTE	PATT
	 POIN2	Clash!_5_016
// 043   ----------------------------------------
	BYTE		N32     Cn3   v064
	BYTE	W96
// 044   ----------------------------------------
	BYTE	PATT
	 POIN2	Clash!_5_021
// 045   ----------------------------------------
	BYTE	PATT
	 POIN2	Clash!_5_022
// 046   ----------------------------------------
	BYTE	FINE

//**************** Track 6 (Midi-Chn.12) ****************//

Clash!_6:
	BYTE	KEYSH   Clash!_key+0
// 000   ----------------------------------------
	BYTE		VOICE   47
	BYTE		VOL     100*Clash!_mvl/mxv
	BYTE		PAN     c_v+0
	BYTE		N32     An1   v080
	BYTE	W36
	BYTE		N32   
	BYTE	W36
	BYTE		N23     En1 
	BYTE	W24
// 001   ----------------------------------------
Clash!_6_001:
	BYTE		N32     An1   v080
	BYTE	W36
	BYTE		N32   
	BYTE	W36
	BYTE		N23     En1 
	BYTE	W24
	BYTE	PEND
// 002   ----------------------------------------
	BYTE	PATT
	 POIN2	Clash!_6_001
// 003   ----------------------------------------
	BYTE	PATT
	 POIN2	Clash!_6_001
// 004   ----------------------------------------
	BYTE	PATT
	 POIN2	Clash!_6_001
// 005   ----------------------------------------
	BYTE	PATT
	 POIN2	Clash!_6_001
// 006   ----------------------------------------
	BYTE	PATT
	 POIN2	Clash!_6_001
// 007   ----------------------------------------
	BYTE	PATT
	 POIN2	Clash!_6_001
// 008   ----------------------------------------
Clash!_6_008:
	BYTE		N32     An1   v080
	BYTE	W36
	BYTE		N05     En1 
	BYTE	W60
	BYTE	PEND
// 009   ----------------------------------------
Clash!_6_009:
	BYTE	W24
	BYTE		N23     An1   v080
	BYTE	W24
	BYTE		        En1 
	BYTE	W24
	BYTE		        An1 
	BYTE	W24
	BYTE	PEND
// 010   ----------------------------------------
	BYTE	PATT
	 POIN2	Clash!_6_008
// 011   ----------------------------------------
	BYTE	PATT
	 POIN2	Clash!_6_009
// 012   ----------------------------------------
	BYTE	PATT
	 POIN2	Clash!_6_008
// 013   ----------------------------------------
	BYTE	PATT
	 POIN2	Clash!_6_009
// 014   ----------------------------------------
Clash!_6_014:
	BYTE		N32     An1   v080
	BYTE	W36
	BYTE		        En1 
	BYTE	W36
	BYTE		        An1 
	BYTE	W24
	BYTE	PEND
// 015   ----------------------------------------
Clash!_6_015:
	BYTE	W12
	BYTE		N32     En1   v080
	BYTE	W36
	BYTE		N44   
	BYTE	W48
	BYTE	PEND
// 016   ----------------------------------------
Clash!_6_016:
	BYTE		N32     An1   v080
	BYTE	W36
	BYTE		N32   
	BYTE	W60
	BYTE	PEND
// 017   ----------------------------------------
	BYTE	PATT
	 POIN2	Clash!_6_016
// 018   ----------------------------------------
	BYTE	PATT
	 POIN2	Clash!_6_016
// 019   ----------------------------------------
	BYTE	PATT
	 POIN2	Clash!_6_016
// 020   ----------------------------------------
Clash!_6_020:
	BYTE		N32     An1   v080
	BYTE	W36
	BYTE		N32   
	BYTE	W36
	BYTE		N23   
	BYTE	W24
	BYTE	PEND
// 021   ----------------------------------------
Clash!_6_021:
	BYTE		N23     An1   v080
	BYTE	W24
	BYTE		N23   
	BYTE	W24
	BYTE		N23   
	BYTE	W24
	BYTE		N23   
	BYTE	W24
	BYTE	PEND
// 022   ----------------------------------------
Clash!_6_022:
	BYTE		N23     An1   v080
	BYTE	W24
	BYTE		N23   
	BYTE	W24
	BYTE		N23   
	BYTE	W48
	BYTE	PEND
// 023   ----------------------------------------
	BYTE	PATT
	 POIN2	Clash!_6_001
// 024   ----------------------------------------
	BYTE	PATT
	 POIN2	Clash!_6_001
// 025   ----------------------------------------
	BYTE	PATT
	 POIN2	Clash!_6_001
// 026   ----------------------------------------
	BYTE	PATT
	 POIN2	Clash!_6_001
// 027   ----------------------------------------
	BYTE	PATT
	 POIN2	Clash!_6_001
// 028   ----------------------------------------
	BYTE	PATT
	 POIN2	Clash!_6_001
// 029   ----------------------------------------
	BYTE	PATT
	 POIN2	Clash!_6_001
// 030   ----------------------------------------
	BYTE	PATT
	 POIN2	Clash!_6_001
// 031   ----------------------------------------
	BYTE	PATT
	 POIN2	Clash!_6_008
// 032   ----------------------------------------
	BYTE	PATT
	 POIN2	Clash!_6_009
// 033   ----------------------------------------
	BYTE	PATT
	 POIN2	Clash!_6_008
// 034   ----------------------------------------
	BYTE	PATT
	 POIN2	Clash!_6_009
// 035   ----------------------------------------
	BYTE	PATT
	 POIN2	Clash!_6_008
// 036   ----------------------------------------
	BYTE	PATT
	 POIN2	Clash!_6_009
// 037   ----------------------------------------
	BYTE	PATT
	 POIN2	Clash!_6_014
// 038   ----------------------------------------
	BYTE	PATT
	 POIN2	Clash!_6_015
// 039   ----------------------------------------
	BYTE	PATT
	 POIN2	Clash!_6_016
// 040   ----------------------------------------
	BYTE	PATT
	 POIN2	Clash!_6_016
// 041   ----------------------------------------
	BYTE	PATT
	 POIN2	Clash!_6_016
// 042   ----------------------------------------
	BYTE	PATT
	 POIN2	Clash!_6_016
// 043   ----------------------------------------
	BYTE	PATT
	 POIN2	Clash!_6_020
// 044   ----------------------------------------
	BYTE	PATT
	 POIN2	Clash!_6_021
// 045   ----------------------------------------
	BYTE	PATT
	 POIN2	Clash!_6_022
// 046   ----------------------------------------
	BYTE	FINE

//**************** Track 7 (Midi-Chn.10) ****************//

Clash!_7:
	BYTE	KEYSH   Clash!_key+0
// 000   ----------------------------------------
	BYTE		VOICE   48
	BYTE		VOL     100*Clash!_mvl/mxv
	BYTE		PAN     c_v+0
	BYTE		N02     Dn1   v064
	BYTE	W02
	BYTE		N02   
	BYTE	W03
	BYTE		N02   
	BYTE	W03
	BYTE		N02   
	BYTE	W03
	BYTE		N02   
	BYTE	W03
	BYTE		N02   
	BYTE	W03
	BYTE		N02   
	BYTE	W03
	BYTE		N02   
	BYTE	W03
	BYTE		N02   
	BYTE	W03
	BYTE		N02   
	BYTE	W03
	BYTE		N02   
	BYTE	W03
	BYTE		N02   
	BYTE	W04
	BYTE		N32   
	BYTE	W36
	BYTE		N02   
	BYTE	W03
	BYTE		N02   
	BYTE	W03
	BYTE		N02   
	BYTE	W03
	BYTE		N02   
	BYTE	W03
	BYTE		N02   
	BYTE	W03
	BYTE		N02   
	BYTE	W03
	BYTE		N02   
	BYTE	W03
	BYTE		N02   
	BYTE	W03
// 001   ----------------------------------------
Clash!_7_001:
	BYTE		N32     Dn1   v064
	BYTE	W36
	BYTE		N32   
	BYTE	W36
	BYTE		N02   
	BYTE	W03
	BYTE		N02   
	BYTE	W03
	BYTE		N02   
	BYTE	W03
	BYTE		N02   
	BYTE	W03
	BYTE		N02   
	BYTE	W03
	BYTE		N02   
	BYTE	W03
	BYTE		N02   
	BYTE	W03
	BYTE		N02   
	BYTE	W03
	BYTE	PEND
// 002   ----------------------------------------
	BYTE	PATT
	 POIN2	Clash!_7_001
// 003   ----------------------------------------
	BYTE	PATT
	 POIN2	Clash!_7_001
// 004   ----------------------------------------
	BYTE	PATT
	 POIN2	Clash!_7_001
// 005   ----------------------------------------
	BYTE	PATT
	 POIN2	Clash!_7_001
// 006   ----------------------------------------
	BYTE	PATT
	 POIN2	Clash!_7_001
// 007   ----------------------------------------
Clash!_7_007:
	BYTE		N32     Dn1   v064
	BYTE	W36
	BYTE		N23   
	BYTE	W24
	BYTE		N11   
	BYTE	W12
	BYTE		N02   
	BYTE	W03
	BYTE		N02   
	BYTE	W03
	BYTE		N02   
	BYTE	W03
	BYTE		N02   
	BYTE	W03
	BYTE		N02   
	BYTE	W03
	BYTE		N02   
	BYTE	W03
	BYTE		N02   
	BYTE	W03
	BYTE		N02   
	BYTE	W03
	BYTE	PEND
// 008   ----------------------------------------
Clash!_7_008:
	BYTE		N11     Dn1   v064
	BYTE	W12
	BYTE		N11   
	BYTE	W12
	BYTE		N11   
	BYTE	W12
	BYTE		N11   
	BYTE	W12
	BYTE		N11   
	BYTE	W12
	BYTE		N11   
	BYTE	W12
	BYTE		N11   
	BYTE	W12
	BYTE		N11   
	BYTE	W12
	BYTE	PEND
// 009   ----------------------------------------
Clash!_7_009:
	BYTE		N11     Dn1   v064
	BYTE	W12
	BYTE		N11   
	BYTE	W12
	BYTE		N11   
	BYTE	W12
	BYTE		N11   
	BYTE	W12
	BYTE		N11   
	BYTE	W12
	BYTE		N11   
	BYTE	W12
	BYTE		N05   
	BYTE	W06
	BYTE		N05   
	BYTE	W06
	BYTE		N05   
	BYTE	W06
	BYTE		N05   
	BYTE	W06
	BYTE	PEND
// 010   ----------------------------------------
	BYTE	PATT
	 POIN2	Clash!_7_008
// 011   ----------------------------------------
	BYTE	PATT
	 POIN2	Clash!_7_009
// 012   ----------------------------------------
	BYTE	PATT
	 POIN2	Clash!_7_008
// 013   ----------------------------------------
	BYTE	PATT
	 POIN2	Clash!_7_009
// 014   ----------------------------------------
	BYTE	PATT
	 POIN2	Clash!_7_008
// 015   ----------------------------------------
Clash!_7_015:
	BYTE		N11     Dn1   v064
	BYTE	W12
	BYTE		N11   
	BYTE	W12
	BYTE		N11   
	BYTE	W12
	BYTE		N11   
	BYTE	W12
	BYTE		N05   
	BYTE	W06
	BYTE		N05   
	BYTE	W06
	BYTE		N05   
	BYTE	W06
	BYTE		N05   
	BYTE	W06
	BYTE		N05   
	BYTE	W06
	BYTE		N05   
	BYTE	W06
	BYTE		N05   
	BYTE	W06
	BYTE		N05   
	BYTE	W06
	BYTE	PEND
// 016   ----------------------------------------
Clash!_7_016:
	BYTE	W12
	BYTE		N11     Dn1   v064
	BYTE	W12
	BYTE		N11   
	BYTE	W24
	BYTE		N11   
	BYTE	W12
	BYTE		N11   
	BYTE	W12
	BYTE		N05   
	BYTE	W06
	BYTE		N05   
	BYTE	W06
	BYTE		N05   
	BYTE	W06
	BYTE		N05   
	BYTE	W06
	BYTE	PEND
// 017   ----------------------------------------
	BYTE	PATT
	 POIN2	Clash!_7_016
// 018   ----------------------------------------
	BYTE	PATT
	 POIN2	Clash!_7_016
// 019   ----------------------------------------
	BYTE	PATT
	 POIN2	Clash!_7_016
// 020   ----------------------------------------
Clash!_7_020:
	BYTE	W12
	BYTE		N11     Dn1   v064
	BYTE	W12
	BYTE		N11   
	BYTE	W24
	BYTE		N11   
	BYTE	W12
	BYTE		N11   
	BYTE	W12
	BYTE		N11   
	BYTE	W12
	BYTE		N11   
	BYTE	W12
	BYTE	PEND
// 021   ----------------------------------------
	BYTE	PATT
	 POIN2	Clash!_7_008
// 022   ----------------------------------------
Clash!_7_022:
	BYTE		N05     Dn1   v064
	BYTE	W06
	BYTE		N05   
	BYTE	W06
	BYTE		N05   
	BYTE	W12
	BYTE		N11   
	BYTE	W12
	BYTE		N11   
	BYTE	W12
	BYTE		N05   
	BYTE	W06
	BYTE		N05   
	BYTE	W06
	BYTE		N05   
	BYTE	W06
	BYTE		N05   
	BYTE	W06
	BYTE		N05   
	BYTE	W06
	BYTE		N05   
	BYTE	W06
	BYTE		N05   
	BYTE	W06
	BYTE		N05   
	BYTE	W06
	BYTE	PEND
// 023   ----------------------------------------
	BYTE		N02   
	BYTE	W02
	BYTE		N02   
	BYTE	W03
	BYTE		N02   
	BYTE	W03
	BYTE		N02   
	BYTE	W03
	BYTE		N02   
	BYTE	W03
	BYTE		N02   
	BYTE	W03
	BYTE		N02   
	BYTE	W03
	BYTE		N02   
	BYTE	W03
	BYTE		N02   
	BYTE	W03
	BYTE		N02   
	BYTE	W03
	BYTE		N02   
	BYTE	W03
	BYTE		N02   
	BYTE	W04
	BYTE		N32   
	BYTE	W36
	BYTE		N02   
	BYTE	W03
	BYTE		N02   
	BYTE	W03
	BYTE		N02   
	BYTE	W03
	BYTE		N02   
	BYTE	W03
	BYTE		N02   
	BYTE	W03
	BYTE		N02   
	BYTE	W03
	BYTE		N02   
	BYTE	W03
	BYTE		N02   
	BYTE	W03
// 024   ----------------------------------------
	BYTE	PATT
	 POIN2	Clash!_7_001
// 025   ----------------------------------------
	BYTE	PATT
	 POIN2	Clash!_7_001
// 026   ----------------------------------------
	BYTE	PATT
	 POIN2	Clash!_7_001
// 027   ----------------------------------------
	BYTE	PATT
	 POIN2	Clash!_7_001
// 028   ----------------------------------------
	BYTE	PATT
	 POIN2	Clash!_7_001
// 029   ----------------------------------------
	BYTE	PATT
	 POIN2	Clash!_7_001
// 030   ----------------------------------------
	BYTE	PATT
	 POIN2	Clash!_7_007
// 031   ----------------------------------------
	BYTE	PATT
	 POIN2	Clash!_7_008
// 032   ----------------------------------------
	BYTE	PATT
	 POIN2	Clash!_7_009
// 033   ----------------------------------------
	BYTE	PATT
	 POIN2	Clash!_7_008
// 034   ----------------------------------------
	BYTE	PATT
	 POIN2	Clash!_7_009
// 035   ----------------------------------------
	BYTE	PATT
	 POIN2	Clash!_7_008
// 036   ----------------------------------------
	BYTE	PATT
	 POIN2	Clash!_7_009
// 037   ----------------------------------------
	BYTE	PATT
	 POIN2	Clash!_7_008
// 038   ----------------------------------------
	BYTE	PATT
	 POIN2	Clash!_7_015
// 039   ----------------------------------------
	BYTE	PATT
	 POIN2	Clash!_7_016
// 040   ----------------------------------------
	BYTE	PATT
	 POIN2	Clash!_7_016
// 041   ----------------------------------------
	BYTE	PATT
	 POIN2	Clash!_7_016
// 042   ----------------------------------------
	BYTE	PATT
	 POIN2	Clash!_7_016
// 043   ----------------------------------------
	BYTE	PATT
	 POIN2	Clash!_7_020
// 044   ----------------------------------------
	BYTE	PATT
	 POIN2	Clash!_7_008
// 045   ----------------------------------------
	BYTE	PATT
	 POIN2	Clash!_7_022
// 046   ----------------------------------------
	BYTE	FINE

//**************** Track 8 (Midi-Chn.10) ****************//

Clash!_8:
	BYTE	KEYSH   Clash!_key+0
// 000   ----------------------------------------
	BYTE		VOICE   48
	BYTE		VOL     100*Clash!_mvl/mxv
	BYTE		PAN     c_v-4
	BYTE	W96
// 001   ----------------------------------------
	BYTE	W96
// 002   ----------------------------------------
	BYTE	W96
// 003   ----------------------------------------
	BYTE	W96
// 004   ----------------------------------------
	BYTE	W96
// 005   ----------------------------------------
	BYTE	W96
// 006   ----------------------------------------
	BYTE	W96
// 007   ----------------------------------------
	BYTE	W96
// 008   ----------------------------------------
	BYTE	W96
// 009   ----------------------------------------
	BYTE	W96
// 010   ----------------------------------------
	BYTE	W96
// 011   ----------------------------------------
	BYTE	W96
// 012   ----------------------------------------
	BYTE	W96
// 013   ----------------------------------------
	BYTE	W96
// 014   ----------------------------------------
	BYTE	W96
// 015   ----------------------------------------
	BYTE	W96
// 016   ----------------------------------------
	BYTE	W72
	BYTE		N23     An2   v080
	BYTE	W24
// 017   ----------------------------------------
	BYTE	W72
	BYTE		N23   
	BYTE	W24
// 018   ----------------------------------------
	BYTE	W72
	BYTE		N23   
	BYTE	W24
// 019   ----------------------------------------
	BYTE	W72
	BYTE		N23   
	BYTE	W24
// 020   ----------------------------------------
	BYTE	W72
	BYTE		N11   
	BYTE	W24
// 021   ----------------------------------------
	BYTE		N11   
	BYTE	W96
// 022   ----------------------------------------
Clash!_8_022:
	BYTE		N44     An2   v080
	BYTE	W48
	BYTE		N44   
	BYTE	W48
	BYTE	PEND
// 023   ----------------------------------------
	BYTE	W96
// 024   ----------------------------------------
	BYTE	W96
// 025   ----------------------------------------
	BYTE	W96
// 026   ----------------------------------------
	BYTE	W96
// 027   ----------------------------------------
	BYTE	W96
// 028   ----------------------------------------
	BYTE	W96
// 029   ----------------------------------------
	BYTE	W96
// 030   ----------------------------------------
	BYTE	W96
// 031   ----------------------------------------
	BYTE	W96
// 032   ----------------------------------------
	BYTE	W96
// 033   ----------------------------------------
	BYTE	W96
// 034   ----------------------------------------
	BYTE	W96
// 035   ----------------------------------------
	BYTE	W96
// 036   ----------------------------------------
	BYTE	W96
// 037   ----------------------------------------
	BYTE	W96
// 038   ----------------------------------------
	BYTE	W96
// 039   ----------------------------------------
	BYTE	W72
	BYTE		N23   
	BYTE	W24
// 040   ----------------------------------------
	BYTE	W72
	BYTE		N23   
	BYTE	W24
// 041   ----------------------------------------
	BYTE	W72
	BYTE		N23   
	BYTE	W24
// 042   ----------------------------------------
	BYTE	W72
	BYTE		N23   
	BYTE	W24
// 043   ----------------------------------------
	BYTE	W72
	BYTE		N11   
	BYTE	W24
// 044   ----------------------------------------
	BYTE		N11   
	BYTE	W96
// 045   ----------------------------------------
	BYTE	PATT
	 POIN2	Clash!_8_022
// 046   ----------------------------------------
	BYTE	FINE

//******************************************************//
	ALIGN 4

Clash!:
	BYTE	8	// NumTrks
	BYTE	0	// NumBlks
	BYTE	Clash!_pri	// Priority
	BYTE	Clash!_rev	// Reverb.

	POIN2	Clash!_grp

	POIN2	Clash!_1
	POIN2	Clash!_2
	POIN2	Clash!_3
	POIN2	Clash!_4
	POIN2	Clash!_5
	POIN2	Clash!_6
	POIN2	Clash!_7
	POIN2	Clash!_8

	
