//Event file generated from Sappy .s format.
	#include "MPlayDef.event"

	#define	Colin_grp  voicegroup000
	#define	Colin_pri  0
	#define	Colin_rev  0
	#define	Colin_mvl  80
	#define	Colin_key  0
	#define	Colin_tbs  1
	#define	Colin_exg  0
	#define	Colin_cmp  1

	// .rodata
	//	Colin
	ALIGN 4

//**************** Track 1 (Midi-Chn.15) ****************//

Colin_1:
	BYTE	KEYSH   Colin_key+0
// 000   ----------------------------------------
	BYTE	TEMPO   140*Colin_tbs/2
	BYTE		VOICE   73
	BYTE		VOL     95*Colin_mvl/mxv
	BYTE		PAN     c_v+15
	BYTE	W24
// 001   ----------------------------------------
	BYTE	W96
// 002   ----------------------------------------
	BYTE	W96
// 003   ----------------------------------------
	BYTE	W96
// 004   ----------------------------------------
	BYTE	W96
// 005   ----------------------------------------
	BYTE	W96
// 006   ----------------------------------------
	BYTE	W96
// 007   ----------------------------------------
	BYTE	W96
// 008   ----------------------------------------
	BYTE	W96
// 009   ----------------------------------------
	BYTE	W96
// 010   ----------------------------------------
	BYTE	W96
// 011   ----------------------------------------
	BYTE	W96
// 012   ----------------------------------------
	BYTE	W96
// 013   ----------------------------------------
	BYTE	W96
// 014   ----------------------------------------
	BYTE	W96
// 015   ----------------------------------------
	BYTE	W96
// 016   ----------------------------------------
	BYTE	W96
// 017   ----------------------------------------
	BYTE	W96
// 018   ----------------------------------------
	BYTE	W96
// 019   ----------------------------------------
	BYTE	W96
// 020   ----------------------------------------
Colin_1_020:
	BYTE	W72
	BYTE		N10     Gs2   v088
	BYTE	W12
	BYTE		N04     Ds3   v084
	BYTE	W12
	BYTE	PEND
// 021   ----------------------------------------
Colin_1_021:
	BYTE	W12
	BYTE		N04     Ds3   v088
	BYTE	W24
	BYTE		        Ds3   v092
	BYTE	W24
	BYTE		        Ds3   v100
	BYTE	W12
	BYTE		N10     Gs2   v092
	BYTE	W12
	BYTE		N04     Ds3 
	BYTE	W12
	BYTE	PEND
// 022   ----------------------------------------
Colin_1_022:
	BYTE	W12
	BYTE		N04     Ds3   v100
	BYTE	W12
	BYTE		N10     Gs2   v092
	BYTE	W12
	BYTE		N04     En3   v100
	BYTE	W36
	BYTE		N10     Gs2   v088
	BYTE	W12
	BYTE		N04     Ds3   v084
	BYTE	W12
	BYTE	PEND
// 023   ----------------------------------------
Colin_1_023:
	BYTE	W12
	BYTE		N04     Ds3   v088
	BYTE	W24
	BYTE		        Ds3   v092
	BYTE	W24
	BYTE		        Ds3   v100
	BYTE	W12
	BYTE		N06     As2 
	BYTE	W12
	BYTE		        Cn3 
	BYTE	W06
	BYTE		        As2 
	BYTE	W06
	BYTE	PEND
// 024   ----------------------------------------
Colin_1_024:
	BYTE		N06     Gs2   v100
	BYTE	W12
	BYTE		        Gn2 
	BYTE	W06
	BYTE		        Gs2 
	BYTE	W06
	BYTE		        Cn2 
	BYTE	W06
	BYTE		        Dn2 
	BYTE	W06
	BYTE		        Ds2 
	BYTE	W06
	BYTE		        Fn2 
	BYTE	W06
	BYTE		        Gn2 
	BYTE	W06
	BYTE		        An2 
	BYTE	W06
	BYTE		        Bn2 
	BYTE	W06
	BYTE		N05     Cs3 
	BYTE	W06
	BYTE		        As2   v092
	BYTE	W12
	BYTE		        Cn3   v088
	BYTE	W06
	BYTE		        As2 
	BYTE	W06
	BYTE	PEND
// 025   ----------------------------------------
Colin_1_025:
	BYTE		N05     Gs2   v100
	BYTE	W12
	BYTE		        Fs2   v092
	BYTE	W12
	BYTE		        Gs2   v088
	BYTE	W12
	BYTE		N11     Fn2   v100
	BYTE	W12
	BYTE		N05     Fs2   v088
	BYTE	W12
	BYTE		        Gs2 
	BYTE	W12
	BYTE		        As2   v100
	BYTE	W12
	BYTE		        Cn3   v092
	BYTE	W06
	BYTE		        As2 
	BYTE	W06
	BYTE	PEND
// 026   ----------------------------------------
Colin_1_026:
	BYTE		N05     Gs2   v092
	BYTE	W12
	BYTE		        Fs2 
	BYTE	W12
	BYTE		        Gs2   v100
	BYTE	W48
	BYTE		        As2   v092
	BYTE	W12
	BYTE		        Cn3   v088
	BYTE	W06
	BYTE		        As2 
	BYTE	W06
	BYTE	PEND
// 027   ----------------------------------------
Colin_1_027:
	BYTE		N05     Gs2   v100
	BYTE	W12
	BYTE		        Fs2   v092
	BYTE	W12
	BYTE		        Gs2   v088
	BYTE	W12
	BYTE		N11     Fn2   v100
	BYTE	W12
	BYTE		N05     Fs2   v088
	BYTE	W12
	BYTE		        Gs2 
	BYTE	W12
	BYTE		N11     As2   v100
	BYTE	W12
	BYTE		N05     Cn3   v092
	BYTE	W06
	BYTE		        As2 
	BYTE	W06
	BYTE	PEND
// 028   ----------------------------------------
	BYTE		        Gs2 
	BYTE	W12
	BYTE		        Fs2 
	BYTE	W84
// 029   ----------------------------------------
	BYTE	W96
// 030   ----------------------------------------
	BYTE	W96
// 031   ----------------------------------------
	BYTE	W96
// 032   ----------------------------------------
	BYTE	W96
// 033   ----------------------------------------
	BYTE	W96
// 034   ----------------------------------------
	BYTE	W96
// 035   ----------------------------------------
	BYTE	W96
// 036   ----------------------------------------
	BYTE	W96
// 037   ----------------------------------------
	BYTE	W96
// 038   ----------------------------------------
	BYTE	W96
// 039   ----------------------------------------
	BYTE	W96
// 040   ----------------------------------------
	BYTE	W96
// 041   ----------------------------------------
	BYTE	W96
// 042   ----------------------------------------
	BYTE	W96
// 043   ----------------------------------------
	BYTE	W96
// 044   ----------------------------------------
	BYTE	W96
// 045   ----------------------------------------
	BYTE	W96
// 046   ----------------------------------------
	BYTE	W96
// 047   ----------------------------------------
	BYTE	W96
// 048   ----------------------------------------
	BYTE	W96
// 049   ----------------------------------------
	BYTE	W96
// 050   ----------------------------------------
	BYTE	W96
// 051   ----------------------------------------
	BYTE	W96
// 052   ----------------------------------------
	BYTE	W96
// 053   ----------------------------------------
	BYTE	W96
// 054   ----------------------------------------
	BYTE	W96
// 055   ----------------------------------------
	BYTE	W96
// 056   ----------------------------------------
	BYTE	W96
// 057   ----------------------------------------
	BYTE	W96
// 058   ----------------------------------------
	BYTE	W96
// 059   ----------------------------------------
	BYTE	W96
// 060   ----------------------------------------
	BYTE	PATT
	 POIN2	Colin_1_020
// 061   ----------------------------------------
	BYTE	PATT
	 POIN2	Colin_1_021
// 062   ----------------------------------------
	BYTE	PATT
	 POIN2	Colin_1_022
// 063   ----------------------------------------
	BYTE	PATT
	 POIN2	Colin_1_023
// 064   ----------------------------------------
	BYTE	PATT
	 POIN2	Colin_1_024
// 065   ----------------------------------------
	BYTE	PATT
	 POIN2	Colin_1_025
// 066   ----------------------------------------
	BYTE	PATT
	 POIN2	Colin_1_026
// 067   ----------------------------------------
	BYTE	PATT
	 POIN2	Colin_1_027
// 068   ----------------------------------------
	BYTE		N05     Gs2   v092
	BYTE	W12
	BYTE		        Fs2 
	BYTE	W05
	BYTE	FINE

//**************** Track 2 (Midi-Chn.14) ****************//

Colin_2:
	BYTE	KEYSH   Colin_key+0
// 000   ----------------------------------------
	BYTE		VOICE   21
	BYTE		VOL     0*Colin_mvl/mxv
	BYTE	W24
// 001   ----------------------------------------
	BYTE	W96
// 002   ----------------------------------------
	BYTE	W96
// 003   ----------------------------------------
	BYTE	W96
// 004   ----------------------------------------
	BYTE	W96
// 005   ----------------------------------------
	BYTE	W96
// 006   ----------------------------------------
	BYTE	W96
// 007   ----------------------------------------
	BYTE	W96
// 008   ----------------------------------------
	BYTE	W96
// 009   ----------------------------------------
	BYTE	W96
// 010   ----------------------------------------
	BYTE	W96
// 011   ----------------------------------------
	BYTE	W96
// 012   ----------------------------------------
	BYTE	W96
// 013   ----------------------------------------
	BYTE	W96
// 014   ----------------------------------------
	BYTE	W96
// 015   ----------------------------------------
	BYTE	W96
// 016   ----------------------------------------
	BYTE	W96
// 017   ----------------------------------------
	BYTE	W96
// 018   ----------------------------------------
	BYTE	W96
// 019   ----------------------------------------
	BYTE	W96
// 020   ----------------------------------------
	BYTE	W96
// 021   ----------------------------------------
	BYTE	W96
// 022   ----------------------------------------
	BYTE	W96
// 023   ----------------------------------------
	BYTE	W96
// 024   ----------------------------------------
	BYTE	W96
// 025   ----------------------------------------
	BYTE	W96
// 026   ----------------------------------------
	BYTE	W96
// 027   ----------------------------------------
Colin_2_027:
	BYTE	W72
	BYTE		VOL     89*Colin_mvl/mxv
	BYTE		PAN     c_v+2
	BYTE	W24
	BYTE	PEND
// 028   ----------------------------------------
Colin_2_028:
	BYTE	W24
	BYTE		VOL     127*Colin_mvl/mxv
	BYTE		PAN     c_v-19
	BYTE		N05     Ds2   v104
	BYTE	W06
	BYTE		        Fn2 
	BYTE	W06
	BYTE		        Fs2 
	BYTE	W06
	BYTE		        Gn2 
	BYTE	W06
	BYTE		        An2 
	BYTE	W06
	BYTE		        Bn2 
	BYTE	W06
	BYTE		        Cn3 
	BYTE	W06
	BYTE		        Dn3 
	BYTE	W06
	BYTE		N03     Fs3   v127
	BYTE	W03
	BYTE		N66     Fs3   v044
	BYTE	W21
	BYTE	PEND
// 029   ----------------------------------------
Colin_2_029:
	BYTE	W48
	BYTE		N02     Gs2   v104
	BYTE	W03
	BYTE		        As2 
	BYTE	W03
	BYTE		        Cn3 
	BYTE	W03
	BYTE		        Cs3 
	BYTE	W03
	BYTE		        Ds3 
	BYTE	W03
	BYTE		        Fn3 
	BYTE	W03
	BYTE		        Fs3 
	BYTE	W03
	BYTE		        Gs3 
	BYTE	W03
	BYTE		        An3 
	BYTE	W03
	BYTE		        As3 
	BYTE	W09
	BYTE		N03     Cs3   v127
	BYTE	W03
	BYTE		N42     Cs3   v044
	BYTE	W09
	BYTE	PEND
// 030   ----------------------------------------
Colin_2_030:
	BYTE	W36
	BYTE		N03     Cs3   v127
	BYTE	W03
	BYTE		N06     Cs3   v044
	BYTE	W09
	BYTE		N03     Cn3   v127
	BYTE	W03
	BYTE		N06     Cn3   v044
	BYTE	W09
	BYTE		N03     Cs3   v127
	BYTE	W03
	BYTE		N06     Cs3   v044
	BYTE	W09
	BYTE		N03     Ds3   v127
	BYTE	W03
	BYTE		N06     Ds3   v044
	BYTE	W09
	BYTE		N03     En3   v127
	BYTE	W03
	BYTE		N06     En3   v044
	BYTE	W09
	BYTE	PEND
// 031   ----------------------------------------
Colin_2_031:
	BYTE		N03     Ds3   v127
	BYTE	W03
	BYTE		N06     Ds3   v044
	BYTE	W09
	BYTE		N03     En3   v127
	BYTE	W03
	BYTE		N06     En3   v044
	BYTE	W09
	BYTE		N03     Ds3   v127
	BYTE	W03
	BYTE		N06     Ds3   v044
	BYTE	W09
	BYTE		N03     En3   v127
	BYTE	W03
	BYTE		N06     En3   v044
	BYTE	W09
	BYTE		N03     Ds3   v127
	BYTE	W03
	BYTE		N06     Ds3   v044
	BYTE	W09
	BYTE		N03     Cs3   v127
	BYTE	W03
	BYTE		N06     Cs3   v044
	BYTE	W09
	BYTE		N03     Fs3   v127
	BYTE	W03
	BYTE		N06     Fs3   v044
	BYTE	W09
	BYTE		N03     Cs3   v127
	BYTE	W03
	BYTE		N06     Cs3   v044
	BYTE	W09
	BYTE	PEND
// 032   ----------------------------------------
Colin_2_032:
	BYTE		N03     Fn3   v127
	BYTE	W03
	BYTE		N06     Fn3   v044
	BYTE	W09
	BYTE		N03     Gs3   v127
	BYTE	W03
	BYTE		N06     Gs3   v044
	BYTE	W09
	BYTE		N03     Fs3   v127
	BYTE	W03
	BYTE		N06     Fs3   v044
	BYTE	W09
	BYTE		N03     Fn3   v127
	BYTE	W03
	BYTE		N06     Fn3   v044
	BYTE	W09
	BYTE		N03     Fs3   v127
	BYTE	W03
	BYTE		N06     Fs3   v044
	BYTE	W09
	BYTE		N03     Gs3   v127
	BYTE	W03
	BYTE		N06     Gs3   v044
	BYTE	W09
	BYTE		N03     Fs3   v127
	BYTE	W03
	BYTE		N66     Fs3   v044
	BYTE	W21
	BYTE	PEND
// 033   ----------------------------------------
	BYTE	PATT
	 POIN2	Colin_2_029
// 034   ----------------------------------------
	BYTE	PATT
	 POIN2	Colin_2_030
// 035   ----------------------------------------
	BYTE	PATT
	 POIN2	Colin_2_031
// 036   ----------------------------------------
Colin_2_036:
	BYTE		N03     Fn3   v127
	BYTE	W03
	BYTE		N06     Fn3   v044
	BYTE	W09
	BYTE		N03     Gs3   v127
	BYTE	W03
	BYTE		N06     Gs3   v044
	BYTE	W09
	BYTE		N03     Fs3   v127
	BYTE	W03
	BYTE		N06     Fs3   v044
	BYTE	W09
	BYTE		N03     Fn3   v127
	BYTE	W03
	BYTE		N06     Fn3   v044
	BYTE	W09
	BYTE		N03     Fs3   v127
	BYTE	W03
	BYTE		N06     Fs3   v044
	BYTE	W09
	BYTE		N03     Gs3   v127
	BYTE	W03
	BYTE		N06     Gs3   v044
	BYTE	W09
	BYTE		PAN     c_v-18
	BYTE		VOL     127*Colin_mvl/mxv
	BYTE		PAN     c_v-19
	BYTE		N03     An3   v127
	BYTE	W03
	BYTE		TIE     An3   v044
	BYTE	W21
	BYTE	PEND
// 037   ----------------------------------------
	BYTE	W72
	BYTE		PAN     c_v-18
	BYTE	W21
	BYTE		EOT   
	BYTE	W03
// 038   ----------------------------------------
	BYTE		N03     Fn3   v127
	BYTE	W03
	BYTE		N42     Fn3   v044
	BYTE	W44
	BYTE		VOL     127*Colin_mvl/mxv
	BYTE	W01
	BYTE		        80*Colin_mvl/mxv
	BYTE	W48
// 039   ----------------------------------------
	BYTE	W96
// 040   ----------------------------------------
	BYTE	W96
// 041   ----------------------------------------
	BYTE	W96
// 042   ----------------------------------------
	BYTE	W96
// 043   ----------------------------------------
	BYTE	W96
// 044   ----------------------------------------
	BYTE	W96
// 045   ----------------------------------------
	BYTE	W96
// 046   ----------------------------------------
	BYTE	W96
// 047   ----------------------------------------
	BYTE	W96
// 048   ----------------------------------------
	BYTE	W96
// 049   ----------------------------------------
	BYTE	W96
// 050   ----------------------------------------
	BYTE	W96
// 051   ----------------------------------------
	BYTE	W96
// 052   ----------------------------------------
	BYTE	W96
// 053   ----------------------------------------
	BYTE	W96
// 054   ----------------------------------------
	BYTE	W96
// 055   ----------------------------------------
	BYTE	W96
// 056   ----------------------------------------
	BYTE	W96
// 057   ----------------------------------------
	BYTE	W96
// 058   ----------------------------------------
	BYTE	W96
// 059   ----------------------------------------
	BYTE	W96
// 060   ----------------------------------------
	BYTE	W96
// 061   ----------------------------------------
	BYTE	W96
// 062   ----------------------------------------
	BYTE	W96
// 063   ----------------------------------------
	BYTE	W96
// 064   ----------------------------------------
	BYTE	W96
// 065   ----------------------------------------
	BYTE	W96
// 066   ----------------------------------------
	BYTE	W96
// 067   ----------------------------------------
	BYTE	PATT
	 POIN2	Colin_2_027
// 068   ----------------------------------------
	BYTE	PATT
	 POIN2	Colin_2_028
// 069   ----------------------------------------
	BYTE	PATT
	 POIN2	Colin_2_029
// 070   ----------------------------------------
	BYTE	PATT
	 POIN2	Colin_2_030
// 071   ----------------------------------------
	BYTE	PATT
	 POIN2	Colin_2_031
// 072   ----------------------------------------
	BYTE	PATT
	 POIN2	Colin_2_032
// 073   ----------------------------------------
	BYTE	PATT
	 POIN2	Colin_2_029
// 074   ----------------------------------------
	BYTE	PATT
	 POIN2	Colin_2_030
// 075   ----------------------------------------
	BYTE	PATT
	 POIN2	Colin_2_031
// 076   ----------------------------------------
	BYTE	PATT
	 POIN2	Colin_2_036
// 077   ----------------------------------------
	BYTE	W72
	BYTE		PAN     c_v-18
	BYTE	W21
	BYTE		EOT     An3 
	BYTE	W03
// 078   ----------------------------------------
	BYTE		N03     Fn3   v127
	BYTE	W03
	BYTE		N42     Fn3   v044
	BYTE	W44
	BYTE		VOL     127*Colin_mvl/mxv
	BYTE	W01
	BYTE		        80*Colin_mvl/mxv
	BYTE	FINE

//**************** Track 3 (Midi-Chn.12) ****************//

Colin_3:
	BYTE	KEYSH   Colin_key+0
// 000   ----------------------------------------
	BYTE		VOICE   72
	BYTE		VOL     83*Colin_mvl/mxv
	BYTE		PAN     c_v-64
	BYTE	W24
// 001   ----------------------------------------
	BYTE	W96
// 002   ----------------------------------------
	BYTE	W96
// 003   ----------------------------------------
	BYTE	W96
// 004   ----------------------------------------
Colin_3_004:
	BYTE	W72
	BYTE		N11     Fn3   v108
	BYTE	W12
	BYTE		N05     Cn4 
	BYTE	W12
	BYTE	PEND
// 005   ----------------------------------------
Colin_3_005:
	BYTE		N05     Bn3   v104
	BYTE	W12
	BYTE		N64     Cn4   v088
	BYTE	W72
	BYTE		N12     As3   v104
	BYTE	W12
	BYTE	PEND
// 006   ----------------------------------------
Colin_3_006:
	BYTE		N12     An3   v104
	BYTE	W12
	BYTE		N05     Cn4   v112
	BYTE	W12
	BYTE		N23     As3   v100
	BYTE	W24
	BYTE		N05     An3   v096
	BYTE	W12
	BYTE		N11     Gn3   v092
	BYTE	W12
	BYTE		N23     An3   v100
	BYTE	W24
	BYTE	PEND
// 007   ----------------------------------------
Colin_3_007:
	BYTE		N06     Fn3   v104
	BYTE	W18
	BYTE		N05     An3 
	BYTE	W06
	BYTE		N23     Cn4   v108
	BYTE	W24
	BYTE		        As3   v092
	BYTE	W24
	BYTE		N11     An3   v100
	BYTE	W12
	BYTE		        Gn3 
	BYTE	W12
	BYTE	PEND
// 008   ----------------------------------------
Colin_3_008:
	BYTE		N11     Fn3   v092
	BYTE	W12
	BYTE		N05     Gn3   v100
	BYTE	W06
	BYTE		        An3 
	BYTE	W06
	BYTE		N32     Gn3   v096
	BYTE	W36
	BYTE		N05     Fn3   v100
	BYTE	W06
	BYTE		        En3 
	BYTE	W06
	BYTE		N11     Fn3   v116
	BYTE	W12
	BYTE		N05     Cn4   v096
	BYTE	W12
	BYTE	PEND
// 009   ----------------------------------------
Colin_3_009:
	BYTE		N05     Bn3   v096
	BYTE	W12
	BYTE		N64     Cn4   v092
	BYTE	W72
	BYTE		N11     As3   v108
	BYTE	W12
	BYTE	PEND
// 010   ----------------------------------------
Colin_3_010:
	BYTE		N05     An3   v100
	BYTE	W12
	BYTE		N11     Cn4   v108
	BYTE	W12
	BYTE		N23     As3   v104
	BYTE	W24
	BYTE		N11     Fn3   v096
	BYTE	W12
	BYTE		        Gn3   v088
	BYTE	W12
	BYTE		N23     An3   v096
	BYTE	W24
	BYTE	PEND
// 011   ----------------------------------------
Colin_3_011:
	BYTE		N23     As3   v096
	BYTE	W24
	BYTE		        As3   v100
	BYTE	W24
	BYTE		N11     An3   v092
	BYTE	W12
	BYTE		        Gn3 
	BYTE	W12
	BYTE		        Fn3   v096
	BYTE	W12
	BYTE		        Gn3   v100
	BYTE	W12
	BYTE	PEND
// 012   ----------------------------------------
Colin_3_012:
	BYTE		N11     An3   v104
	BYTE	W12
	BYTE		N05   
	BYTE	W06
	BYTE		        As3   v096
	BYTE	W06
	BYTE		N23     Cn4   v104
	BYTE	W24
	BYTE		N05     As3   v124
	BYTE	W06
	BYTE		        Cn4   v100
	BYTE	W06
	BYTE		        Dn4 
	BYTE	W06
	BYTE		        En4   v104
	BYTE	W06
	BYTE		N04     Fn4   v120
	BYTE	W12
	BYTE		        Cn4   v124
	BYTE	W12
	BYTE	PEND
// 013   ----------------------------------------
Colin_3_013:
	BYTE		N04     Bn3   v124
	BYTE	W12
	BYTE		N32     Cn4   v116
	BYTE	W36
	BYTE		N22     En4   v104
	BYTE	W24
	BYTE		N11     Fn4   v116
	BYTE	W12
	BYTE		        Gn4 
	BYTE	W12
	BYTE	PEND
// 014   ----------------------------------------
Colin_3_014:
	BYTE		N11     Fn4   v108
	BYTE	W12
	BYTE		        En4   v116
	BYTE	W12
	BYTE		N23     Fn4 
	BYTE	W24
	BYTE		N11   
	BYTE	W12
	BYTE		        En4   v104
	BYTE	W12
	BYTE		N23     Fn4   v116
	BYTE	W24
	BYTE	PEND
// 015   ----------------------------------------
Colin_3_015:
	BYTE		N11     Cn4   v116
	BYTE	W12
	BYTE		        An3 
	BYTE	W12
	BYTE		N23     Cn4 
	BYTE	W24
	BYTE		        As3   v108
	BYTE	W24
	BYTE		N11     An3   v116
	BYTE	W12
	BYTE		        Gn3 
	BYTE	W12
	BYTE	PEND
// 016   ----------------------------------------
Colin_3_016:
	BYTE		N11     Fn3   v108
	BYTE	W12
	BYTE		N05     Gn3   v116
	BYTE	W06
	BYTE		        An3 
	BYTE	W06
	BYTE		N23     Gn3   v108
	BYTE	W24
	BYTE		N05     As3   v124
	BYTE	W06
	BYTE		        Cn4   v104
	BYTE	W06
	BYTE		        Dn4   v100
	BYTE	W06
	BYTE		        En4   v104
	BYTE	W06
	BYTE		N04     Fn4   v124
	BYTE	W12
	BYTE		        Cn4 
	BYTE	W12
	BYTE	PEND
// 017   ----------------------------------------
Colin_3_017:
	BYTE		N04     Bn3   v112
	BYTE	W12
	BYTE		N32     Cn4   v104
	BYTE	W36
	BYTE		N22     En4   v092
	BYTE	W24
	BYTE		N10     Fn4 
	BYTE	W12
	BYTE		        Fn4   v100
	BYTE	W12
	BYTE	PEND
// 018   ----------------------------------------
Colin_3_018:
	BYTE		N10     Dn4   v100
	BYTE	W12
	BYTE		        Cn4   v104
	BYTE	W12
	BYTE		N22     As3   v096
	BYTE	W24
	BYTE		N10     Gs3   v120
	BYTE	W12
	BYTE		        As3   v127
	BYTE	W12
	BYTE		N44     Cn4   v096
	BYTE	W24
	BYTE	PEND
// 019   ----------------------------------------
Colin_3_019:
	BYTE	W24
	BYTE		N44     Gs3   v100
	BYTE	W48
	BYTE		        Gn3   v080
	BYTE	W24
	BYTE	PEND
// 020   ----------------------------------------
Colin_3_020:
	BYTE	W18
	BYTE		PAN     c_v+2
	BYTE	W06
	BYTE		N05     Ds3   v096
	BYTE	W06
	BYTE		        Fn3   v072
	BYTE	W06
	BYTE		        Gn3 
	BYTE	W06
	BYTE		        An3   v084
	BYTE	W06
	BYTE		        Bn3   v100
	BYTE	W06
	BYTE		        Cs4   v096
	BYTE	W06
	BYTE		        Ds4 
	BYTE	W06
	BYTE		        Fn4 
	BYTE	W06
	BYTE		PAN     c_v-19
	BYTE		N04     Fs4   v112
	BYTE	W12
	BYTE		        Gs4   v108
	BYTE	W06
	BYTE		        Fs4 
	BYTE	W06
	BYTE	PEND
// 021   ----------------------------------------
Colin_3_021:
	BYTE		N04     Fn4   v120
	BYTE	W12
	BYTE		        Ds4   v112
	BYTE	W12
	BYTE		        Fn4   v108
	BYTE	W12
	BYTE		        Dn4   v120
	BYTE	W12
	BYTE		        Ds4   v108
	BYTE	W12
	BYTE		        Fn4 
	BYTE	W12
	BYTE		        Fs4   v120
	BYTE	W12
	BYTE		        Gs4   v112
	BYTE	W06
	BYTE		        Fs4 
	BYTE	W06
	BYTE	PEND
// 022   ----------------------------------------
Colin_3_022:
	BYTE		N04     Fn4   v112
	BYTE	W12
	BYTE		        Ds4 
	BYTE	W12
	BYTE		        Fn4   v120
	BYTE	W48
	BYTE		        Fs4   v112
	BYTE	W12
	BYTE		        Gs4   v108
	BYTE	W06
	BYTE		        Fs4 
	BYTE	W06
	BYTE	PEND
// 023   ----------------------------------------
Colin_3_023:
	BYTE		N04     Fn4   v120
	BYTE	W12
	BYTE		        Ds4   v104
	BYTE	W12
	BYTE		        Fn4   v108
	BYTE	W12
	BYTE		        Dn4   v120
	BYTE	W12
	BYTE		        Ds4   v108
	BYTE	W12
	BYTE		        Fn4 
	BYTE	W12
	BYTE		        Fs4   v120
	BYTE	W12
	BYTE		        Gs4   v112
	BYTE	W06
	BYTE		        Fs4 
	BYTE	W06
	BYTE	PEND
// 024   ----------------------------------------
Colin_3_024:
	BYTE		N04     Fn4   v112
	BYTE	W12
	BYTE		        Ds4 
	BYTE	W12
	BYTE		N06     Fn4   v120
	BYTE	W06
	BYTE		        Fn3 
	BYTE	W06
	BYTE		        Gn3 
	BYTE	W06
	BYTE		        An3 
	BYTE	W06
	BYTE		        Bn3   v112
	BYTE	W06
	BYTE		        Cs4   v120
	BYTE	W06
	BYTE		        Ds4 
	BYTE	W06
	BYTE		N04     Fn4 
	BYTE	W06
	BYTE		N05     Fs4   v112
	BYTE	W12
	BYTE		        Gs4   v108
	BYTE	W06
	BYTE		        Fs4 
	BYTE	W06
	BYTE	PEND
// 025   ----------------------------------------
Colin_3_025:
	BYTE		N05     Fn4   v112
	BYTE	W12
	BYTE		        Ds4 
	BYTE	W12
	BYTE		        Fn4   v108
	BYTE	W12
	BYTE		N11     Dn4   v120
	BYTE	W12
	BYTE		N05     Ds4   v108
	BYTE	W12
	BYTE		        Fn4 
	BYTE	W12
	BYTE		N04     Fs4   v120
	BYTE	W12
	BYTE		        Gs4   v112
	BYTE	W06
	BYTE		        Fs4 
	BYTE	W06
	BYTE	PEND
// 026   ----------------------------------------
	BYTE	PATT
	 POIN2	Colin_3_022
// 027   ----------------------------------------
Colin_3_027:
	BYTE		N04     Fn4   v120
	BYTE	W12
	BYTE		        Ds4   v112
	BYTE	W12
	BYTE		        Fn4   v108
	BYTE	W12
	BYTE		N10     Dn4   v120
	BYTE	W12
	BYTE		N04     Ds4   v108
	BYTE	W12
	BYTE		        Fn4 
	BYTE	W12
	BYTE		N10     Fs4   v120
	BYTE	W12
	BYTE		N04     Gs4   v112
	BYTE	W06
	BYTE		        Fs4 
	BYTE	W06
	BYTE	PEND
// 028   ----------------------------------------
	BYTE		        Fn4 
	BYTE	W12
	BYTE		        Ds4 
	BYTE	W06
	BYTE		PAN     c_v-19
	BYTE	W78
// 029   ----------------------------------------
	BYTE	W96
// 030   ----------------------------------------
	BYTE	W96
// 031   ----------------------------------------
	BYTE	W96
// 032   ----------------------------------------
	BYTE	W96
// 033   ----------------------------------------
	BYTE	W96
// 034   ----------------------------------------
	BYTE	W96
// 035   ----------------------------------------
	BYTE	W96
// 036   ----------------------------------------
	BYTE	W96
// 037   ----------------------------------------
	BYTE	W96
// 038   ----------------------------------------
	BYTE	W96
// 039   ----------------------------------------
	BYTE	W96
// 040   ----------------------------------------
	BYTE	W96
// 041   ----------------------------------------
	BYTE	W96
// 042   ----------------------------------------
	BYTE	W96
// 043   ----------------------------------------
	BYTE	W96
// 044   ----------------------------------------
	BYTE	PATT
	 POIN2	Colin_3_004
// 045   ----------------------------------------
	BYTE	PATT
	 POIN2	Colin_3_005
// 046   ----------------------------------------
	BYTE	PATT
	 POIN2	Colin_3_006
// 047   ----------------------------------------
	BYTE	PATT
	 POIN2	Colin_3_007
// 048   ----------------------------------------
	BYTE	PATT
	 POIN2	Colin_3_008
// 049   ----------------------------------------
	BYTE	PATT
	 POIN2	Colin_3_009
// 050   ----------------------------------------
	BYTE	PATT
	 POIN2	Colin_3_010
// 051   ----------------------------------------
	BYTE	PATT
	 POIN2	Colin_3_011
// 052   ----------------------------------------
	BYTE	PATT
	 POIN2	Colin_3_012
// 053   ----------------------------------------
	BYTE	PATT
	 POIN2	Colin_3_013
// 054   ----------------------------------------
	BYTE	PATT
	 POIN2	Colin_3_014
// 055   ----------------------------------------
	BYTE	PATT
	 POIN2	Colin_3_015
// 056   ----------------------------------------
	BYTE	PATT
	 POIN2	Colin_3_016
// 057   ----------------------------------------
	BYTE	PATT
	 POIN2	Colin_3_017
// 058   ----------------------------------------
	BYTE	PATT
	 POIN2	Colin_3_018
// 059   ----------------------------------------
	BYTE	PATT
	 POIN2	Colin_3_019
// 060   ----------------------------------------
	BYTE	PATT
	 POIN2	Colin_3_020
// 061   ----------------------------------------
	BYTE	PATT
	 POIN2	Colin_3_021
// 062   ----------------------------------------
	BYTE	PATT
	 POIN2	Colin_3_022
// 063   ----------------------------------------
	BYTE	PATT
	 POIN2	Colin_3_023
// 064   ----------------------------------------
	BYTE	PATT
	 POIN2	Colin_3_024
// 065   ----------------------------------------
	BYTE	PATT
	 POIN2	Colin_3_025
// 066   ----------------------------------------
	BYTE	PATT
	 POIN2	Colin_3_022
// 067   ----------------------------------------
	BYTE	PATT
	 POIN2	Colin_3_027
// 068   ----------------------------------------
	BYTE		N04     Fn4   v112
	BYTE	W12
	BYTE		        Ds4 
	BYTE	W06
	BYTE		PAN     c_v-19
	BYTE	W54
	BYTE		        c_v-19
	BYTE	FINE

//**************** Track 4 (Midi-Chn.11) ****************//

Colin_4:
	BYTE	KEYSH   Colin_key+0
// 000   ----------------------------------------
	BYTE		VOICE   37
	BYTE		VOL     95*Colin_mvl/mxv
	BYTE	W24
// 001   ----------------------------------------
	BYTE	W96
// 002   ----------------------------------------
	BYTE	W96
// 003   ----------------------------------------
	BYTE	W96
// 004   ----------------------------------------
Colin_4_004:
	BYTE	W72
	BYTE		N05     Fn0   v120
	BYTE	W12
	BYTE		N11   
	BYTE	W12
	BYTE	PEND
// 005   ----------------------------------------
Colin_4_005:
	BYTE	W12
	BYTE		N05     Fn0   v127
	BYTE	W12
	BYTE		N23     Gn0 
	BYTE	W24
	BYTE		N17     Cn0 
	BYTE	W24
	BYTE		N05     Gn0 
	BYTE	W12
	BYTE		N11   
	BYTE	W12
	BYTE	PEND
// 006   ----------------------------------------
Colin_4_006:
	BYTE	W12
	BYTE		N05     Gn0   v120
	BYTE	W12
	BYTE		        As0   v116
	BYTE	W12
	BYTE		        An0 
	BYTE	W12
	BYTE		N23     Gn0   v120
	BYTE	W24
	BYTE		N05     Fn0 
	BYTE	W12
	BYTE		        Cn0 
	BYTE	W12
	BYTE	PEND
// 007   ----------------------------------------
Colin_4_007:
	BYTE	W12
	BYTE		N11     Fn0   v127
	BYTE	W12
	BYTE		        Cn0   v120
	BYTE	W24
	BYTE		N23     An0   v127
	BYTE	W24
	BYTE		N05     Gn0   v124
	BYTE	W12
	BYTE		N05   
	BYTE	W12
	BYTE	PEND
// 008   ----------------------------------------
Colin_4_008:
	BYTE	W12
	BYTE		N11     En0   v124
	BYTE	W12
	BYTE		N23     Cn0   v120
	BYTE	W24
	BYTE		        Cn0   v127
	BYTE	W24
	BYTE		N05     Fn0   v120
	BYTE	W12
	BYTE		N11   
	BYTE	W12
	BYTE	PEND
// 009   ----------------------------------------
Colin_4_009:
	BYTE	W12
	BYTE		N11     Fn0   v127
	BYTE	W12
	BYTE		        Gn0 
	BYTE	W24
	BYTE		N23     Cn0 
	BYTE	W24
	BYTE		N05     Gn0 
	BYTE	W12
	BYTE		N11   
	BYTE	W12
	BYTE	PEND
// 010   ----------------------------------------
Colin_4_010:
	BYTE	W12
	BYTE		N11     Gn0   v120
	BYTE	W12
	BYTE		N23     As0   v116
	BYTE	W24
	BYTE		N11     Gn0   v120
	BYTE	W24
	BYTE		N23     Fn0 
	BYTE	W24
	BYTE	PEND
// 011   ----------------------------------------
Colin_4_011:
	BYTE	W12
	BYTE		N11     Fn0   v127
	BYTE	W12
	BYTE		N23     Cn0   v120
	BYTE	W24
	BYTE		N11     An0   v127
	BYTE	W24
	BYTE		        Gn0   v124
	BYTE	W12
	BYTE		N05   
	BYTE	W12
	BYTE	PEND
// 012   ----------------------------------------
Colin_4_012:
	BYTE	W12
	BYTE		N11     En0   v124
	BYTE	W12
	BYTE		        Cn0   v120
	BYTE	W24
	BYTE		        Cn0   v127
	BYTE	W12
	BYTE		N05     Cn1 
	BYTE	W12
	BYTE		N11     Fn0   v120
	BYTE	W12
	BYTE		N17   
	BYTE	W12
	BYTE	PEND
// 013   ----------------------------------------
Colin_4_013:
	BYTE	W12
	BYTE		N05     Fn0   v127
	BYTE	W12
	BYTE		N23     Gn0 
	BYTE	W24
	BYTE		        Cn0 
	BYTE	W24
	BYTE		N05     Gn0 
	BYTE	W12
	BYTE		N05   
	BYTE	W12
	BYTE	PEND
// 014   ----------------------------------------
Colin_4_014:
	BYTE		N05     Fs0   v127
	BYTE	W12
	BYTE		N11     Gn0   v120
	BYTE	W12
	BYTE		N23     As0   v116
	BYTE	W24
	BYTE		        Gn0   v120
	BYTE	W24
	BYTE		        Fn0 
	BYTE	W24
	BYTE	PEND
// 015   ----------------------------------------
Colin_4_015:
	BYTE	W12
	BYTE		N05     Fn0   v127
	BYTE	W12
	BYTE		N23     Cn0   v120
	BYTE	W24
	BYTE		        An0   v127
	BYTE	W24
	BYTE		N11     Gn0   v124
	BYTE	W12
	BYTE		N23   
	BYTE	W12
	BYTE	PEND
// 016   ----------------------------------------
Colin_4_016:
	BYTE	W12
	BYTE		N11     En0   v124
	BYTE	W12
	BYTE		N23     Cn0   v120
	BYTE	W24
	BYTE		        Cn0   v127
	BYTE	W24
	BYTE		N11     Fn0   v120
	BYTE	W12
	BYTE		N11   
	BYTE	W12
	BYTE	PEND
// 017   ----------------------------------------
Colin_4_017:
	BYTE		N11     Fn0   v120
	BYTE	W12
	BYTE		        Fn0   v127
	BYTE	W12
	BYTE		N23     Gn0 
	BYTE	W24
	BYTE		        Cn0 
	BYTE	W24
	BYTE		N11     Gn0 
	BYTE	W12
	BYTE		N11   
	BYTE	W12
	BYTE	PEND
// 018   ----------------------------------------
Colin_4_018:
	BYTE		N11     Gn0   v127
	BYTE	W12
	BYTE		        Gn0   v120
	BYTE	W12
	BYTE		N23     As0   v116
	BYTE	W24
	BYTE		        Gn0   v120
	BYTE	W24
	BYTE		N11     Cs1 
	BYTE	W12
	BYTE		N11   
	BYTE	W12
	BYTE	PEND
// 019   ----------------------------------------
Colin_4_019:
	BYTE		N11     Cs1   v120
	BYTE	W12
	BYTE		        Cs1   v127
	BYTE	W12
	BYTE		        Cs1   v120
	BYTE	W12
	BYTE		N11   
	BYTE	W12
	BYTE		        Fn0   v127
	BYTE	W12
	BYTE		N11   
	BYTE	W12
	BYTE		        Ds1   v124
	BYTE	W12
	BYTE		N11   
	BYTE	W12
	BYTE	PEND
// 020   ----------------------------------------
Colin_4_020:
	BYTE		N11     Ds1   v120
	BYTE	W12
	BYTE		        Ds1   v124
	BYTE	W12
	BYTE		N23     Gn0   v120
	BYTE	W24
	BYTE		N11     Ds0   v127
	BYTE	W12
	BYTE		N11   
	BYTE	W12
	BYTE		        Gs0   v124
	BYTE	W12
	BYTE		N05     Gs0   v116
	BYTE	W12
	BYTE	PEND
// 021   ----------------------------------------
Colin_4_021:
	BYTE		N05     Gs1   v127
	BYTE	W24
	BYTE		N11     Gs0 
	BYTE	W24
	BYTE		        Gs0   v124
	BYTE	W24
	BYTE		        Gs0   v127
	BYTE	W12
	BYTE		N05     Gs0   v124
	BYTE	W12
	BYTE	PEND
// 022   ----------------------------------------
Colin_4_022:
	BYTE	W12
	BYTE		N05     Gs1   v127
	BYTE	W24
	BYTE		N11     Gs0 
	BYTE	W24
	BYTE		        Gs0   v124
	BYTE	W12
	BYTE		        Gs0   v127
	BYTE	W12
	BYTE		N05   
	BYTE	W12
	BYTE	PEND
// 023   ----------------------------------------
Colin_4_023:
	BYTE		N05     Gs1   v127
	BYTE	W24
	BYTE		N11     Gs0 
	BYTE	W24
	BYTE		N11   
	BYTE	W24
	BYTE		        Gs0   v112
	BYTE	W12
	BYTE		        Gs0   v116
	BYTE	W12
	BYTE	PEND
// 024   ----------------------------------------
Colin_4_024:
	BYTE	W12
	BYTE		N11     Gs0   v124
	BYTE	W60
	BYTE		N11   
	BYTE	W12
	BYTE		N05     Gs0   v116
	BYTE	W12
	BYTE	PEND
// 025   ----------------------------------------
	BYTE	PATT
	 POIN2	Colin_4_021
// 026   ----------------------------------------
	BYTE	PATT
	 POIN2	Colin_4_022
// 027   ----------------------------------------
Colin_4_027:
	BYTE		N05     Gs1   v127
	BYTE	W24
	BYTE		N11     Gs0 
	BYTE	W24
	BYTE		N11   
	BYTE	W24
	BYTE		N11   
	BYTE	W12
	BYTE		        Gs0   v116
	BYTE	W12
	BYTE	PEND
// 028   ----------------------------------------
Colin_4_028:
	BYTE	W12
	BYTE		N11     Gs0   v124
	BYTE	W12
	BYTE		N23     Gs0   v127
	BYTE	W24
	BYTE		N23   
	BYTE	W24
	BYTE		N11     Fs0 
	BYTE	W12
	BYTE		N11   
	BYTE	W12
	BYTE	PEND
// 029   ----------------------------------------
Colin_4_029:
	BYTE	W12
	BYTE		N11     Fs0   v127
	BYTE	W24
	BYTE		N11   
	BYTE	W12
	BYTE		        Fs0   v124
	BYTE	W12
	BYTE		N11   
	BYTE	W12
	BYTE		N11   
	BYTE	W12
	BYTE		        Fs0   v127
	BYTE	W12
	BYTE	PEND
// 030   ----------------------------------------
Colin_4_030:
	BYTE	W12
	BYTE		N11     Fs0   v127
	BYTE	W24
	BYTE		        Gs0 
	BYTE	W12
	BYTE		N11   
	BYTE	W12
	BYTE		N11   
	BYTE	W12
	BYTE		        Fs0 
	BYTE	W12
	BYTE		N11   
	BYTE	W12
	BYTE	PEND
// 031   ----------------------------------------
	BYTE	PATT
	 POIN2	Colin_4_029
// 032   ----------------------------------------
	BYTE	PATT
	 POIN2	Colin_4_030
// 033   ----------------------------------------
Colin_4_033:
	BYTE	W12
	BYTE		N11     Fs0   v127
	BYTE	W24
	BYTE		N11   
	BYTE	W12
	BYTE		        Gs0   v124
	BYTE	W12
	BYTE		        As0 
	BYTE	W12
	BYTE		        Cs1 
	BYTE	W12
	BYTE		        Cn1   v127
	BYTE	W12
	BYTE	PEND
// 034   ----------------------------------------
Colin_4_034:
	BYTE	W12
	BYTE		N11     Gs0   v127
	BYTE	W24
	BYTE		        As0 
	BYTE	W12
	BYTE		N11   
	BYTE	W12
	BYTE		N11   
	BYTE	W12
	BYTE		        Fs0 
	BYTE	W12
	BYTE		N11   
	BYTE	W12
	BYTE	PEND
// 035   ----------------------------------------
	BYTE	PATT
	 POIN2	Colin_4_033
// 036   ----------------------------------------
	BYTE	W12
	BYTE		N11     Gs0   v127
	BYTE	W24
	BYTE		        As0 
	BYTE	W12
	BYTE		N11   
	BYTE	W12
	BYTE		N11   
	BYTE	W12
	BYTE		BEND    c_v+0
	BYTE	W24
// 037   ----------------------------------------
	BYTE	W96
// 038   ----------------------------------------
	BYTE	W96
// 039   ----------------------------------------
	BYTE	W96
// 040   ----------------------------------------
	BYTE	W96
// 041   ----------------------------------------
	BYTE	W96
// 042   ----------------------------------------
	BYTE	W96
// 043   ----------------------------------------
	BYTE	W96
// 044   ----------------------------------------
	BYTE	PATT
	 POIN2	Colin_4_004
// 045   ----------------------------------------
	BYTE	PATT
	 POIN2	Colin_4_005
// 046   ----------------------------------------
	BYTE	PATT
	 POIN2	Colin_4_006
// 047   ----------------------------------------
	BYTE	PATT
	 POIN2	Colin_4_007
// 048   ----------------------------------------
	BYTE	PATT
	 POIN2	Colin_4_008
// 049   ----------------------------------------
	BYTE	PATT
	 POIN2	Colin_4_009
// 050   ----------------------------------------
	BYTE	PATT
	 POIN2	Colin_4_010
// 051   ----------------------------------------
	BYTE	PATT
	 POIN2	Colin_4_011
// 052   ----------------------------------------
	BYTE	PATT
	 POIN2	Colin_4_012
// 053   ----------------------------------------
	BYTE	PATT
	 POIN2	Colin_4_013
// 054   ----------------------------------------
	BYTE	PATT
	 POIN2	Colin_4_014
// 055   ----------------------------------------
	BYTE	PATT
	 POIN2	Colin_4_015
// 056   ----------------------------------------
	BYTE	PATT
	 POIN2	Colin_4_016
// 057   ----------------------------------------
	BYTE	PATT
	 POIN2	Colin_4_017
// 058   ----------------------------------------
	BYTE	PATT
	 POIN2	Colin_4_018
// 059   ----------------------------------------
	BYTE	PATT
	 POIN2	Colin_4_019
// 060   ----------------------------------------
	BYTE	PATT
	 POIN2	Colin_4_020
// 061   ----------------------------------------
	BYTE	PATT
	 POIN2	Colin_4_021
// 062   ----------------------------------------
	BYTE	PATT
	 POIN2	Colin_4_022
// 063   ----------------------------------------
	BYTE	PATT
	 POIN2	Colin_4_023
// 064   ----------------------------------------
	BYTE	PATT
	 POIN2	Colin_4_024
// 065   ----------------------------------------
	BYTE	PATT
	 POIN2	Colin_4_021
// 066   ----------------------------------------
	BYTE	PATT
	 POIN2	Colin_4_022
// 067   ----------------------------------------
	BYTE	PATT
	 POIN2	Colin_4_027
// 068   ----------------------------------------
	BYTE	PATT
	 POIN2	Colin_4_028
// 069   ----------------------------------------
	BYTE	PATT
	 POIN2	Colin_4_029
// 070   ----------------------------------------
	BYTE	PATT
	 POIN2	Colin_4_030
// 071   ----------------------------------------
	BYTE	PATT
	 POIN2	Colin_4_029
// 072   ----------------------------------------
	BYTE	PATT
	 POIN2	Colin_4_030
// 073   ----------------------------------------
	BYTE	PATT
	 POIN2	Colin_4_033
// 074   ----------------------------------------
	BYTE	PATT
	 POIN2	Colin_4_034
// 075   ----------------------------------------
	BYTE	PATT
	 POIN2	Colin_4_033
// 076   ----------------------------------------
	BYTE	W12
	BYTE		N11     Gs0   v127
	BYTE	W24
	BYTE		        As0 
	BYTE	W12
	BYTE		N11   
	BYTE	W12
	BYTE		N11   
	BYTE	W12
	BYTE		BEND    c_v+0
	BYTE	FINE

//**************** Track 5 (Midi-Chn.9) ****************//

Colin_5:
	BYTE	KEYSH   Colin_key+0
// 000   ----------------------------------------
	BYTE		VOICE   56
	BYTE		PAN     c_v+63
	BYTE		VOL     127*Colin_mvl/mxv
	BYTE	W24
// 001   ----------------------------------------
	BYTE	W96
// 002   ----------------------------------------
	BYTE	W96
// 003   ----------------------------------------
	BYTE	W96
// 004   ----------------------------------------
Colin_5_004:
	BYTE	W72
	BYTE		BEND    c_v+0
	BYTE		N11     Fn3   v120
	BYTE	W12
	BYTE		N05     Cn4 
	BYTE	W12
	BYTE	PEND
// 005   ----------------------------------------
Colin_5_005:
	BYTE		N05     Bn3   v116
	BYTE	W12
	BYTE		N64     Cn4   v084
	BYTE	W72
	BYTE		N12     As3   v104
	BYTE	W12
	BYTE	PEND
// 006   ----------------------------------------
Colin_5_006:
	BYTE		N12     An3   v104
	BYTE	W12
	BYTE		N06     Cn4 
	BYTE	W12
	BYTE		N23     As3   v112
	BYTE	W24
	BYTE		N06     An3   v104
	BYTE	W12
	BYTE		N11     Gn3   v088
	BYTE	W12
	BYTE		N23     An3   v096
	BYTE	W24
	BYTE	PEND
// 007   ----------------------------------------
Colin_5_007:
	BYTE		N06     Fn3   v104
	BYTE	W18
	BYTE		N05     An3   v116
	BYTE	W06
	BYTE		N23     Cn4   v124
	BYTE	W24
	BYTE		        As3   v108
	BYTE	W24
	BYTE		N12     An3   v096
	BYTE	W12
	BYTE		        Gn3 
	BYTE	W12
	BYTE	PEND
// 008   ----------------------------------------
Colin_5_008:
	BYTE		N12     Fn3   v104
	BYTE	W12
	BYTE		N05     Gn3   v096
	BYTE	W06
	BYTE		        An3 
	BYTE	W06
	BYTE		N32     Gn3   v088
	BYTE	W36
	BYTE		N05     Fn3   v100
	BYTE	W06
	BYTE		        En3 
	BYTE	W06
	BYTE		BEND    c_v+0
	BYTE		N11     Fn3   v127
	BYTE	W12
	BYTE		N05     Cn4   v108
	BYTE	W12
	BYTE	PEND
// 009   ----------------------------------------
Colin_5_009:
	BYTE		N06     Bn3   v108
	BYTE	W12
	BYTE		N64     Cn4   v084
	BYTE	W72
	BYTE		N11     As3   v120
	BYTE	W12
	BYTE	PEND
// 010   ----------------------------------------
Colin_5_010:
	BYTE		N05     An3   v112
	BYTE	W12
	BYTE		N11     Cn4   v120
	BYTE	W12
	BYTE		N23     As3   v096
	BYTE	W24
	BYTE		N11     An3 
	BYTE	W12
	BYTE		        As3   v104
	BYTE	W12
	BYTE		N23     Cn4   v096
	BYTE	W24
	BYTE	PEND
// 011   ----------------------------------------
Colin_5_011:
	BYTE		N23     Fn3   v096
	BYTE	W24
	BYTE		        Dn4 
	BYTE	W24
	BYTE		N11     Cn4   v088
	BYTE	W12
	BYTE		        As3 
	BYTE	W12
	BYTE		        An3   v096
	BYTE	W12
	BYTE		        As3 
	BYTE	W12
	BYTE	PEND
// 012   ----------------------------------------
Colin_5_012:
	BYTE		N17     Cn4   v088
	BYTE	W18
	BYTE		N05     Bn3 
	BYTE	W06
	BYTE		N23     Cn4 
	BYTE	W24
	BYTE		N11     Dn4   v084
	BYTE	W12
	BYTE		        En4 
	BYTE	W12
	BYTE		BEND    c_v+0
	BYTE		N05     Fn4   v096
	BYTE	W12
	BYTE		        Cn4 
	BYTE	W12
	BYTE	PEND
// 013   ----------------------------------------
Colin_5_013:
	BYTE		N05     Bn3   v096
	BYTE	W12
	BYTE		N66     Cn4   v084
	BYTE	W72
	BYTE		N12     As3   v104
	BYTE	W12
	BYTE	PEND
// 014   ----------------------------------------
Colin_5_014:
	BYTE		N12     An3   v104
	BYTE	W12
	BYTE		        Cn4 
	BYTE	W12
	BYTE		N23     As3   v096
	BYTE	W24
	BYTE		N11     An3 
	BYTE	W12
	BYTE		        Gn3   v088
	BYTE	W12
	BYTE		N23     An3   v096
	BYTE	W24
	BYTE	PEND
// 015   ----------------------------------------
Colin_5_015:
	BYTE		N11     Fn3   v096
	BYTE	W12
	BYTE		        An3 
	BYTE	W12
	BYTE		N23     Cn4 
	BYTE	W24
	BYTE		        As3   v088
	BYTE	W24
	BYTE		N11     An3   v096
	BYTE	W12
	BYTE		        Gn3 
	BYTE	W12
	BYTE	PEND
// 016   ----------------------------------------
Colin_5_016:
	BYTE		N11     Fn3   v088
	BYTE	W12
	BYTE		N05     Gn3   v096
	BYTE	W06
	BYTE		        An3 
	BYTE	W06
	BYTE		N44     Gn3   v088
	BYTE	W48
	BYTE		N05     Fn3   v096
	BYTE	W12
	BYTE		        Cn4 
	BYTE	W12
	BYTE	PEND
// 017   ----------------------------------------
Colin_5_017:
	BYTE		N05     Bn3   v096
	BYTE	W12
	BYTE		N80     Cn4   v084
	BYTE	W84
	BYTE	PEND
// 018   ----------------------------------------
Colin_5_018:
	BYTE		N11     As3   v088
	BYTE	W12
	BYTE		        An3   v096
	BYTE	W12
	BYTE		N23     Gn3 
	BYTE	W24
	BYTE		N11     Fn3   v088
	BYTE	W12
	BYTE		        Gn3 
	BYTE	W12
	BYTE		N23     Gs3   v096
	BYTE	W24
	BYTE	PEND
// 019   ----------------------------------------
Colin_5_019:
	BYTE		N11     Gn3   v096
	BYTE	W12
	BYTE		        Gs3 
	BYTE	W12
	BYTE		        As3 
	BYTE	W12
	BYTE		N05     Gs3 
	BYTE	W06
	BYTE		        As3 
	BYTE	W06
	BYTE		N11     Cn4   v088
	BYTE	W12
	BYTE		        Dn4 
	BYTE	W12
	BYTE		N23     Ds4   v096
	BYTE	W24
	BYTE	PEND
// 020   ----------------------------------------
Colin_5_020:
	BYTE		N23     Dn4   v096
	BYTE	W24
	BYTE		        Cn4 
	BYTE	W24
	BYTE		        Bn3 
	BYTE	W24
	BYTE		N92     Cn4 
	BYTE	W24
	BYTE	PEND
// 021   ----------------------------------------
	BYTE	W12
	BYTE		VOL     126*Colin_mvl/mxv
	BYTE	W01
	BYTE		        124*Colin_mvl/mxv
	BYTE	W01
	BYTE		        122*Colin_mvl/mxv
	BYTE	W01
	BYTE		        120*Colin_mvl/mxv
	BYTE	W01
	BYTE		        118*Colin_mvl/mxv
	BYTE	W01
	BYTE		        116*Colin_mvl/mxv
	BYTE	W01
	BYTE		        114*Colin_mvl/mxv
	BYTE	W01
	BYTE		        112*Colin_mvl/mxv
	BYTE	W01
	BYTE		        110*Colin_mvl/mxv
	BYTE	W01
	BYTE		        108*Colin_mvl/mxv
	BYTE	W01
	BYTE		        105*Colin_mvl/mxv
	BYTE	W01
	BYTE		        103*Colin_mvl/mxv
	BYTE	W01
	BYTE		        101*Colin_mvl/mxv
	BYTE	W01
	BYTE		        99*Colin_mvl/mxv
	BYTE	W01
	BYTE		        97*Colin_mvl/mxv
	BYTE	W01
	BYTE		        95*Colin_mvl/mxv
	BYTE	W01
	BYTE		        92*Colin_mvl/mxv
	BYTE	W01
	BYTE		        90*Colin_mvl/mxv
	BYTE	W01
	BYTE		        88*Colin_mvl/mxv
	BYTE	W01
	BYTE		        86*Colin_mvl/mxv
	BYTE	W01
	BYTE		        84*Colin_mvl/mxv
	BYTE	W01
	BYTE		        82*Colin_mvl/mxv
	BYTE	W01
	BYTE		        80*Colin_mvl/mxv
	BYTE	W01
	BYTE		        78*Colin_mvl/mxv
	BYTE	W01
	BYTE		        76*Colin_mvl/mxv
	BYTE	W01
	BYTE		        74*Colin_mvl/mxv
	BYTE	W01
	BYTE		        72*Colin_mvl/mxv
	BYTE	W01
	BYTE		        70*Colin_mvl/mxv
	BYTE	W01
	BYTE		        67*Colin_mvl/mxv
	BYTE	W01
	BYTE		        65*Colin_mvl/mxv
	BYTE	W01
	BYTE		        63*Colin_mvl/mxv
	BYTE	W01
	BYTE		        61*Colin_mvl/mxv
	BYTE	W01
	BYTE		        59*Colin_mvl/mxv
	BYTE	W01
	BYTE		        57*Colin_mvl/mxv
	BYTE	W01
	BYTE		        54*Colin_mvl/mxv
	BYTE	W01
	BYTE		        52*Colin_mvl/mxv
	BYTE	W01
	BYTE		        50*Colin_mvl/mxv
	BYTE	W01
	BYTE		        48*Colin_mvl/mxv
	BYTE	W01
	BYTE		        46*Colin_mvl/mxv
	BYTE	W01
	BYTE		        44*Colin_mvl/mxv
	BYTE	W01
	BYTE		        42*Colin_mvl/mxv
	BYTE	W01
	BYTE		        40*Colin_mvl/mxv
	BYTE	W01
	BYTE		        38*Colin_mvl/mxv
	BYTE	W01
	BYTE		        36*Colin_mvl/mxv
	BYTE	W01
	BYTE		        34*Colin_mvl/mxv
	BYTE	W01
	BYTE		        32*Colin_mvl/mxv
	BYTE	W01
	BYTE		        29*Colin_mvl/mxv
	BYTE	W01
	BYTE		        27*Colin_mvl/mxv
	BYTE	W01
	BYTE		        25*Colin_mvl/mxv
	BYTE	W01
	BYTE		        23*Colin_mvl/mxv
	BYTE	W01
	BYTE		        21*Colin_mvl/mxv
	BYTE	W01
	BYTE		        19*Colin_mvl/mxv
	BYTE	W01
	BYTE		        16*Colin_mvl/mxv
	BYTE	W01
	BYTE		        14*Colin_mvl/mxv
	BYTE	W01
	BYTE		        13*Colin_mvl/mxv
	BYTE	W30
// 022   ----------------------------------------
	BYTE	W96
// 023   ----------------------------------------
	BYTE	W96
// 024   ----------------------------------------
	BYTE	W96
// 025   ----------------------------------------
	BYTE	W96
// 026   ----------------------------------------
	BYTE	W96
// 027   ----------------------------------------
	BYTE	W96
// 028   ----------------------------------------
	BYTE	W96
// 029   ----------------------------------------
	BYTE	W96
// 030   ----------------------------------------
	BYTE	W96
// 031   ----------------------------------------
	BYTE	W96
// 032   ----------------------------------------
	BYTE	W96
// 033   ----------------------------------------
	BYTE	W96
// 034   ----------------------------------------
	BYTE	W96
// 035   ----------------------------------------
	BYTE	W96
// 036   ----------------------------------------
	BYTE	W96
// 037   ----------------------------------------
	BYTE	W96
// 038   ----------------------------------------
	BYTE	W96
// 039   ----------------------------------------
	BYTE	W96
// 040   ----------------------------------------
	BYTE	W72
	BYTE		        127*Colin_mvl/mxv
	BYTE	W24
// 041   ----------------------------------------
	BYTE	W96
// 042   ----------------------------------------
	BYTE	W96
// 043   ----------------------------------------
	BYTE	W96
// 044   ----------------------------------------
	BYTE	PATT
	 POIN2	Colin_5_004
// 045   ----------------------------------------
	BYTE	PATT
	 POIN2	Colin_5_005
// 046   ----------------------------------------
	BYTE	PATT
	 POIN2	Colin_5_006
// 047   ----------------------------------------
	BYTE	PATT
	 POIN2	Colin_5_007
// 048   ----------------------------------------
	BYTE	PATT
	 POIN2	Colin_5_008
// 049   ----------------------------------------
	BYTE	PATT
	 POIN2	Colin_5_009
// 050   ----------------------------------------
	BYTE	PATT
	 POIN2	Colin_5_010
// 051   ----------------------------------------
	BYTE	PATT
	 POIN2	Colin_5_011
// 052   ----------------------------------------
	BYTE	PATT
	 POIN2	Colin_5_012
// 053   ----------------------------------------
	BYTE	PATT
	 POIN2	Colin_5_013
// 054   ----------------------------------------
	BYTE	PATT
	 POIN2	Colin_5_014
// 055   ----------------------------------------
	BYTE	PATT
	 POIN2	Colin_5_015
// 056   ----------------------------------------
	BYTE	PATT
	 POIN2	Colin_5_016
// 057   ----------------------------------------
	BYTE	PATT
	 POIN2	Colin_5_017
// 058   ----------------------------------------
	BYTE	PATT
	 POIN2	Colin_5_018
// 059   ----------------------------------------
	BYTE	PATT
	 POIN2	Colin_5_019
// 060   ----------------------------------------
	BYTE	PATT
	 POIN2	Colin_5_020
// 061   ----------------------------------------
	BYTE	W12
	BYTE		VOL     126*Colin_mvl/mxv
	BYTE	W01
	BYTE		        124*Colin_mvl/mxv
	BYTE	W01
	BYTE		        122*Colin_mvl/mxv
	BYTE	W01
	BYTE		        120*Colin_mvl/mxv
	BYTE	W01
	BYTE		        118*Colin_mvl/mxv
	BYTE	W01
	BYTE		        116*Colin_mvl/mxv
	BYTE	W01
	BYTE		        114*Colin_mvl/mxv
	BYTE	W01
	BYTE		        112*Colin_mvl/mxv
	BYTE	W01
	BYTE		        110*Colin_mvl/mxv
	BYTE	W01
	BYTE		        108*Colin_mvl/mxv
	BYTE	W01
	BYTE		        105*Colin_mvl/mxv
	BYTE	W01
	BYTE		        103*Colin_mvl/mxv
	BYTE	W01
	BYTE		        101*Colin_mvl/mxv
	BYTE	W01
	BYTE		        99*Colin_mvl/mxv
	BYTE	W01
	BYTE		        97*Colin_mvl/mxv
	BYTE	W01
	BYTE		        95*Colin_mvl/mxv
	BYTE	W01
	BYTE		        92*Colin_mvl/mxv
	BYTE	W01
	BYTE		        90*Colin_mvl/mxv
	BYTE	W01
	BYTE		        88*Colin_mvl/mxv
	BYTE	W01
	BYTE		        86*Colin_mvl/mxv
	BYTE	W01
	BYTE		        84*Colin_mvl/mxv
	BYTE	W01
	BYTE		        82*Colin_mvl/mxv
	BYTE	W01
	BYTE		        80*Colin_mvl/mxv
	BYTE	W01
	BYTE		        78*Colin_mvl/mxv
	BYTE	W01
	BYTE		        76*Colin_mvl/mxv
	BYTE	W01
	BYTE		        74*Colin_mvl/mxv
	BYTE	W01
	BYTE		        72*Colin_mvl/mxv
	BYTE	W01
	BYTE		        70*Colin_mvl/mxv
	BYTE	W01
	BYTE		        67*Colin_mvl/mxv
	BYTE	W01
	BYTE		        65*Colin_mvl/mxv
	BYTE	W01
	BYTE		        63*Colin_mvl/mxv
	BYTE	W01
	BYTE		        61*Colin_mvl/mxv
	BYTE	W01
	BYTE		        59*Colin_mvl/mxv
	BYTE	W01
	BYTE		        57*Colin_mvl/mxv
	BYTE	W01
	BYTE		        54*Colin_mvl/mxv
	BYTE	W01
	BYTE		        52*Colin_mvl/mxv
	BYTE	W01
	BYTE		        50*Colin_mvl/mxv
	BYTE	W01
	BYTE		        48*Colin_mvl/mxv
	BYTE	W01
	BYTE		        46*Colin_mvl/mxv
	BYTE	W01
	BYTE		        44*Colin_mvl/mxv
	BYTE	W01
	BYTE		        42*Colin_mvl/mxv
	BYTE	W01
	BYTE		        40*Colin_mvl/mxv
	BYTE	W01
	BYTE		        38*Colin_mvl/mxv
	BYTE	W01
	BYTE		        36*Colin_mvl/mxv
	BYTE	W01
	BYTE		        34*Colin_mvl/mxv
	BYTE	W01
	BYTE		        32*Colin_mvl/mxv
	BYTE	W01
	BYTE		        29*Colin_mvl/mxv
	BYTE	W01
	BYTE		        27*Colin_mvl/mxv
	BYTE	W01
	BYTE		        25*Colin_mvl/mxv
	BYTE	W01
	BYTE		        23*Colin_mvl/mxv
	BYTE	W01
	BYTE		        21*Colin_mvl/mxv
	BYTE	W01
	BYTE		        19*Colin_mvl/mxv
	BYTE	W01
	BYTE		        16*Colin_mvl/mxv
	BYTE	W01
	BYTE		        14*Colin_mvl/mxv
	BYTE	W01
	BYTE		        13*Colin_mvl/mxv
	BYTE	W05
	BYTE	FINE

//**************** Track 6 (Midi-Chn.10) ****************//

Colin_6:
	BYTE	KEYSH   Colin_key+0
// 000   ----------------------------------------
	BYTE		VOICE   0
	BYTE		VOL     127*Colin_mvl/mxv
	BYTE		BEND    c_v+0
	BYTE		N06     Cn1   v064
	BYTE		N03     Dn1   v032
	BYTE	W03
	BYTE		N03   
	BYTE	W03
	BYTE		N03   
	BYTE	W03
	BYTE		N03   
	BYTE	W03
	BYTE		N03   
	BYTE	W03
	BYTE		N03   
	BYTE	W03
	BYTE		N03   
	BYTE	W03
	BYTE		N03   
	BYTE	W03
// 001   ----------------------------------------
	BYTE		N06     En1   v052
	BYTE	W12
	BYTE		N06   
	BYTE	W12
	BYTE		N03     Dn1   v032
	BYTE	W03
	BYTE		N03   
	BYTE	W03
	BYTE		N03   
	BYTE	W03
	BYTE		N03   
	BYTE	W03
	BYTE		N06     En1   v052
	BYTE	W12
	BYTE		N03     Dn1   v032
	BYTE	W03
	BYTE		N03   
	BYTE	W03
	BYTE		N03   
	BYTE	W03
	BYTE		N03   
	BYTE	W03
	BYTE		N03   
	BYTE	W03
	BYTE		N03   
	BYTE	W03
	BYTE		N03   
	BYTE	W03
	BYTE		N03   
	BYTE	W03
	BYTE		N06     Cn1   v064
	BYTE		N03     Dn1   v032
	BYTE	W03
	BYTE		N03   
	BYTE	W03
	BYTE		N03   
	BYTE	W03
	BYTE		N03   
	BYTE	W03
	BYTE		N03   
	BYTE	W03
	BYTE		N03   
	BYTE	W03
	BYTE		N03   
	BYTE	W03
	BYTE		N03   
	BYTE	W03
// 002   ----------------------------------------
	BYTE		N06     En1   v052
	BYTE	W12
	BYTE		N06   
	BYTE	W12
	BYTE		N03     Dn1   v032
	BYTE	W03
	BYTE		N03   
	BYTE	W03
	BYTE		N03   
	BYTE	W03
	BYTE		N03   
	BYTE	W03
	BYTE		N06     En1   v052
	BYTE	W12
	BYTE		N06   
	BYTE	W06
	BYTE		N03     Dn1   v032
	BYTE	W03
	BYTE		N03   
	BYTE	W03
	BYTE		N03   
	BYTE	W03
	BYTE		N03   
	BYTE	W03
	BYTE		N03   
	BYTE	W03
	BYTE		N03   
	BYTE	W03
	BYTE		N06     Cn1   v064
	BYTE		N03     Dn1   v032
	BYTE	W03
	BYTE		N03   
	BYTE	W03
	BYTE		N03   
	BYTE	W03
	BYTE		N03   
	BYTE	W03
	BYTE		N06     Cn1   v064
	BYTE		N03     Dn1   v032
	BYTE	W03
	BYTE		N03   
	BYTE	W03
	BYTE		N03   
	BYTE	W03
	BYTE		N03   
	BYTE	W03
// 003   ----------------------------------------
	BYTE		N03   
	BYTE	W03
	BYTE		N03   
	BYTE	W03
	BYTE		N03   
	BYTE	W03
	BYTE		N03   
	BYTE	W03
	BYTE		N06     En1   v052
	BYTE	W12
	BYTE		N03     Dn1   v032
	BYTE	W03
	BYTE		N03   
	BYTE	W03
	BYTE		N03   
	BYTE	W03
	BYTE		N03   
	BYTE	W03
	BYTE		N06     En1   v052
	BYTE	W12
	BYTE		N03     Dn1   v032
	BYTE	W03
	BYTE		N03   
	BYTE	W03
	BYTE		N03   
	BYTE	W03
	BYTE		N03   
	BYTE	W03
	BYTE		N06     Cn1   v064
	BYTE		N03     Dn1   v032
	BYTE	W03
	BYTE		N03   
	BYTE	W03
	BYTE		N03   
	BYTE	W03
	BYTE		N03   
	BYTE	W03
	BYTE		        Ds5   v096
	BYTE	W12
	BYTE		N03   
	BYTE	W12
// 004   ----------------------------------------
Colin_6_004:
	BYTE		N06     Cn1   v064
	BYTE	W12
	BYTE		N03     Ds5   v096
	BYTE	W12
	BYTE		N03   
	BYTE	W12
	BYTE		N06     En1   v076
	BYTE	W12
	BYTE		N06   
	BYTE	W06
	BYTE		N06   
	BYTE	W06
	BYTE		N06   
	BYTE	W12
	BYTE		        Cn1   v064
	BYTE		N03     As1 
	BYTE	W24
	BYTE	PEND
// 005   ----------------------------------------
Colin_6_005:
	BYTE		N06     En1   v052
	BYTE	W12
	BYTE		N06   
	BYTE	W06
	BYTE		N03     As1   v004
	BYTE	W06
	BYTE		N06     Cn1   v064
	BYTE	W12
	BYTE		N03     Dn1   v032
	BYTE	W03
	BYTE		N03   
	BYTE	W03
	BYTE		N03   
	BYTE	W03
	BYTE		N03   
	BYTE	W03
	BYTE		N06     En1   v052
	BYTE	W12
	BYTE		        Cn1   v064
	BYTE	W12
	BYTE		N06   
	BYTE	W24
	BYTE	PEND
// 006   ----------------------------------------
Colin_6_006:
	BYTE		N06     En1   v052
	BYTE	W12
	BYTE		N06   
	BYTE	W12
	BYTE		        Cn1   v064
	BYTE	W12
	BYTE		        En1   v052
	BYTE	W12
	BYTE		N06   
	BYTE	W12
	BYTE		        Cn1   v064
	BYTE	W12
	BYTE		N06   
	BYTE		N03     As1 
	BYTE	W24
	BYTE	PEND
// 007   ----------------------------------------
Colin_6_007:
	BYTE		N06     En1   v052
	BYTE	W12
	BYTE		N06   
	BYTE		N03     As1   v004
	BYTE	W12
	BYTE		N06     Cn1   v064
	BYTE	W12
	BYTE		N03     Dn1   v032
	BYTE	W03
	BYTE		N03   
	BYTE	W03
	BYTE		N03   
	BYTE	W03
	BYTE		N03   
	BYTE	W03
	BYTE		N06     En1   v052
	BYTE	W12
	BYTE		        Cn1   v064
	BYTE	W12
	BYTE		N06   
	BYTE		N03     Dn1   v032
	BYTE	W03
	BYTE		N03   
	BYTE	W03
	BYTE		N03   
	BYTE	W03
	BYTE		N03   
	BYTE	W03
	BYTE		N03   
	BYTE	W03
	BYTE		N03   
	BYTE	W03
	BYTE		N03   
	BYTE	W03
	BYTE		N03   
	BYTE	W03
	BYTE	PEND
// 008   ----------------------------------------
Colin_6_008:
	BYTE		N06     En1   v052
	BYTE	W12
	BYTE		N06   
	BYTE	W12
	BYTE		        Cn1   v064
	BYTE		N03     Dn1   v032
	BYTE	W03
	BYTE		N03   
	BYTE	W03
	BYTE		N03   
	BYTE	W03
	BYTE		N03   
	BYTE	W03
	BYTE		N06     En1   v052
	BYTE	W12
	BYTE		N06   
	BYTE	W06
	BYTE		N06   
	BYTE	W06
	BYTE		N06   
	BYTE	W12
	BYTE		        Cn1   v064
	BYTE		N03     As1 
	BYTE	W24
	BYTE	PEND
// 009   ----------------------------------------
Colin_6_009:
	BYTE		N06     En1   v052
	BYTE	W12
	BYTE		N06   
	BYTE		N03     As1   v004
	BYTE	W12
	BYTE		N06     Cn1   v064
	BYTE		N03     Dn1   v032
	BYTE	W03
	BYTE		N03   
	BYTE	W03
	BYTE		N03   
	BYTE	W03
	BYTE		N03   
	BYTE	W03
	BYTE		N03   
	BYTE	W03
	BYTE		N03   
	BYTE	W03
	BYTE		N03   
	BYTE	W03
	BYTE		N03   
	BYTE	W03
	BYTE		N06     En1   v052
	BYTE	W12
	BYTE		        Cn1   v064
	BYTE	W12
	BYTE		N06   
	BYTE		N03     Dn1   v032
	BYTE	W03
	BYTE		N03   
	BYTE	W03
	BYTE		N03   
	BYTE	W03
	BYTE		N03   
	BYTE	W03
	BYTE		N03   
	BYTE	W03
	BYTE		N03   
	BYTE	W03
	BYTE		N03   
	BYTE	W03
	BYTE		N03   
	BYTE	W03
	BYTE	PEND
// 010   ----------------------------------------
Colin_6_010:
	BYTE		N06     En1   v052
	BYTE	W12
	BYTE		N06   
	BYTE	W12
	BYTE		        Cn1   v064
	BYTE		N03     Dn1   v032
	BYTE	W03
	BYTE		N03   
	BYTE	W03
	BYTE		N03   
	BYTE	W03
	BYTE		N03   
	BYTE	W03
	BYTE		N06     En1   v052
	BYTE	W12
	BYTE		N06   
	BYTE	W12
	BYTE		        Cn1   v064
	BYTE	W12
	BYTE		N06   
	BYTE		N03     As1 
	BYTE	W24
	BYTE	PEND
// 011   ----------------------------------------
Colin_6_011:
	BYTE		N06     En1   v052
	BYTE	W12
	BYTE		N06   
	BYTE		N03     As1   v004
	BYTE	W12
	BYTE		N06     Cn1   v064
	BYTE		N03     Dn1   v032
	BYTE	W03
	BYTE		N03   
	BYTE	W03
	BYTE		N03   
	BYTE	W03
	BYTE		N03   
	BYTE	W03
	BYTE		N03   
	BYTE	W03
	BYTE		N03   
	BYTE	W03
	BYTE		N03   
	BYTE	W03
	BYTE		N03   
	BYTE	W03
	BYTE		N06     En1   v052
	BYTE	W12
	BYTE		        Cn1   v064
	BYTE	W12
	BYTE		N06   
	BYTE		N03     Dn1   v032
	BYTE	W03
	BYTE		N03   
	BYTE	W03
	BYTE		N03   
	BYTE	W03
	BYTE		N03   
	BYTE	W03
	BYTE		N03   
	BYTE	W03
	BYTE		N03   
	BYTE	W09
	BYTE	PEND
// 012   ----------------------------------------
	BYTE		N03   
	BYTE		N06     En1   v052
	BYTE	W03
	BYTE		N03     Dn1   v032
	BYTE	W03
	BYTE		N03   
	BYTE	W03
	BYTE		N03   
	BYTE	W03
	BYTE		N06     En1   v052
	BYTE	W12
	BYTE		        Cn1   v064
	BYTE		N03     Dn1   v032
	BYTE	W03
	BYTE		N03   
	BYTE	W03
	BYTE		N03   
	BYTE	W03
	BYTE		N03   
	BYTE	W03
	BYTE		N03   
	BYTE		N06     En1   v052
	BYTE	W03
	BYTE		N03     Dn1   v032
	BYTE	W03
	BYTE		N03   
	BYTE	W03
	BYTE		N03   
	BYTE	W03
	BYTE		N06     En1   v052
	BYTE	W06
	BYTE		N06   
	BYTE	W06
	BYTE		N06   
	BYTE	W12
	BYTE		        Cn1   v064
	BYTE		N03     As1 
	BYTE	W24
// 013   ----------------------------------------
Colin_6_013:
	BYTE		N06     En1   v052
	BYTE	W12
	BYTE		N06   
	BYTE		N03     As1   v004
	BYTE	W12
	BYTE		N06     Cn1   v064
	BYTE	W12
	BYTE		N03     Dn1   v044
	BYTE	W12
	BYTE		        Dn1   v032
	BYTE		N06     En1   v052
	BYTE	W03
	BYTE		N03     Dn1   v032
	BYTE	W03
	BYTE		N03   
	BYTE	W03
	BYTE		N03   
	BYTE	W03
	BYTE		N06     Cn1   v064
	BYTE		N03     Dn1   v032
	BYTE	W03
	BYTE		N03   
	BYTE	W03
	BYTE		N03   
	BYTE	W03
	BYTE		N03   
	BYTE	W03
	BYTE		N06     Cn1   v064
	BYTE	W24
	BYTE	PEND
// 014   ----------------------------------------
Colin_6_014:
	BYTE		N06     En1   v052
	BYTE	W12
	BYTE		N06   
	BYTE	W12
	BYTE		        Cn1   v064
	BYTE	W12
	BYTE		N03     Dn1   v044
	BYTE		N06     En1   v052
	BYTE	W12
	BYTE		N06   
	BYTE		N03     As1   v064
	BYTE	W12
	BYTE		N06     Cn1 
	BYTE	W12
	BYTE		N06   
	BYTE	W09
	BYTE		N03     As1   v004
	BYTE	W15
	BYTE	PEND
// 015   ----------------------------------------
Colin_6_015:
	BYTE		N06     En1   v052
	BYTE	W12
	BYTE		N06   
	BYTE	W12
	BYTE		        Cn1   v064
	BYTE		N03     Dn1   v032
	BYTE	W03
	BYTE		N03   
	BYTE	W03
	BYTE		N03   
	BYTE	W03
	BYTE		N03   
	BYTE	W03
	BYTE		        Dn1   v044
	BYTE	W12
	BYTE		        Dn1   v032
	BYTE		N06     En1   v052
	BYTE	W03
	BYTE		N03     Dn1   v032
	BYTE	W03
	BYTE		N03   
	BYTE	W03
	BYTE		N03   
	BYTE	W03
	BYTE		N06     Cn1   v064
	BYTE		N03     Dn1   v032
	BYTE	W03
	BYTE		N03   
	BYTE	W03
	BYTE		N03   
	BYTE	W03
	BYTE		N03   
	BYTE	W03
	BYTE		N06     Cn1   v064
	BYTE	W24
	BYTE	PEND
// 016   ----------------------------------------
Colin_6_016:
	BYTE		N06     En1   v052
	BYTE	W12
	BYTE		N06   
	BYTE	W12
	BYTE		        Cn1   v064
	BYTE		N03     Dn1   v032
	BYTE	W03
	BYTE		N03   
	BYTE	W03
	BYTE		N03   
	BYTE	W03
	BYTE		N03   
	BYTE	W03
	BYTE		        Dn1   v044
	BYTE		N06     En1   v052
	BYTE	W12
	BYTE		N03     Dn1   v044
	BYTE		N06     En1   v052
	BYTE	W06
	BYTE		N03     Dn1   v032
	BYTE		N06     En1   v052
	BYTE	W03
	BYTE		N03     Dn1   v032
	BYTE	W03
	BYTE		N03   
	BYTE		N06     En1   v052
	BYTE	W03
	BYTE		N03     Dn1   v032
	BYTE	W03
	BYTE		N03   
	BYTE	W03
	BYTE		N03   
	BYTE	W03
	BYTE		N06     Cn1   v064
	BYTE	W24
	BYTE	PEND
// 017   ----------------------------------------
Colin_6_017:
	BYTE		N06     En1   v052
	BYTE		N03     As1   v064
	BYTE	W12
	BYTE		N06     En1   v052
	BYTE	W12
	BYTE		        Cn1   v064
	BYTE	W12
	BYTE		N03     Dn1   v044
	BYTE		N03     As1   v004
	BYTE	W12
	BYTE		        Dn1   v032
	BYTE		N06     En1   v052
	BYTE	W03
	BYTE		N03     Dn1   v032
	BYTE	W03
	BYTE		N03   
	BYTE	W03
	BYTE		N03   
	BYTE	W03
	BYTE		N06     Cn1   v064
	BYTE		N03     Dn1   v032
	BYTE	W03
	BYTE		N03   
	BYTE	W03
	BYTE		N03   
	BYTE	W03
	BYTE		N03   
	BYTE	W03
	BYTE		N06     Cn1   v064
	BYTE	W24
	BYTE	PEND
// 018   ----------------------------------------
Colin_6_018:
	BYTE		N06     En1   v052
	BYTE		N03     As1   v064
	BYTE	W12
	BYTE		N06     En1   v052
	BYTE	W12
	BYTE		        Cn1   v064
	BYTE	W12
	BYTE		N03     Dn1   v044
	BYTE		N06     En1   v052
	BYTE		N03     As1   v004
	BYTE	W12
	BYTE		N06     En1   v052
	BYTE		N03     As1   v064
	BYTE	W12
	BYTE		N06     Cn1 
	BYTE	W12
	BYTE		N06   
	BYTE	W21
	BYTE		N03     As1   v004
	BYTE	W03
	BYTE	PEND
// 019   ----------------------------------------
Colin_6_019:
	BYTE		N06     En1   v052
	BYTE		N03     As1   v064
	BYTE	W12
	BYTE		N06     En1   v052
	BYTE	W12
	BYTE		        Cn1   v064
	BYTE	W09
	BYTE		N03     As1   v004
	BYTE	W03
	BYTE		        Dn1   v044
	BYTE	W12
	BYTE		N06     En1   v052
	BYTE		N03     As1   v064
	BYTE	W12
	BYTE		N06     Cn1 
	BYTE	W09
	BYTE		N03     As1   v004
	BYTE	W03
	BYTE		N06     Cn1   v064
	BYTE		N03     Dn1   v032
	BYTE	W03
	BYTE		N03   
	BYTE	W03
	BYTE		N03   
	BYTE	W03
	BYTE		N03   
	BYTE	W03
	BYTE		N03   
	BYTE	W03
	BYTE		N03   
	BYTE	W03
	BYTE		N06     En1   v052
	BYTE	W06
	BYTE	PEND
// 020   ----------------------------------------
Colin_6_020:
	BYTE		N03     Dn1   v032
	BYTE	W03
	BYTE		N03   
	BYTE	W03
	BYTE		N03   
	BYTE	W03
	BYTE		N03   
	BYTE	W03
	BYTE		N06     En1   v052
	BYTE	W06
	BYTE		N06   
	BYTE	W06
	BYTE		        Cn1   v064
	BYTE		N03     As1 
	BYTE	W21
	BYTE		        As1   v004
	BYTE	W03
	BYTE		N06     En1   v052
	BYTE		N03     As1   v064
	BYTE	W06
	BYTE		N06     En1   v052
	BYTE	W06
	BYTE		N06   
	BYTE	W06
	BYTE		N06   
	BYTE	W03
	BYTE		N03     As1   v004
	BYTE	W03
	BYTE		        As1   v064
	BYTE	W24
	BYTE	PEND
// 021   ----------------------------------------
Colin_6_021:
	BYTE		N03     Dn1   v044
	BYTE	W12
	BYTE		        As1   v004
	BYTE	W12
	BYTE		        Dn1   v044
	BYTE	W24
	BYTE		N03   
	BYTE	W24
	BYTE		N06     Cn1   v064
	BYTE	W12
	BYTE		N06   
	BYTE	W12
	BYTE	PEND
// 022   ----------------------------------------
Colin_6_022:
	BYTE		N03     Dn1   v044
	BYTE	W24
	BYTE		N03   
	BYTE	W12
	BYTE		N03   
	BYTE	W06
	BYTE		N03   
	BYTE	W06
	BYTE		N03   
	BYTE	W24
	BYTE		N06     Cn1   v064
	BYTE	W24
	BYTE	PEND
// 023   ----------------------------------------
Colin_6_023:
	BYTE		N03     Dn1   v044
	BYTE	W24
	BYTE		N03   
	BYTE	W24
	BYTE		N03   
	BYTE	W24
	BYTE		N06     Cn1   v064
	BYTE	W06
	BYTE		N03     En1   v044
	BYTE	W12
	BYTE		N03   
	BYTE	W06
	BYTE	PEND
// 024   ----------------------------------------
Colin_6_024:
	BYTE		N03     En1   v044
	BYTE	W12
	BYTE		N03   
	BYTE	W06
	BYTE		N03   
	BYTE	W06
	BYTE		        Dn1   v032
	BYTE	W03
	BYTE		N03   
	BYTE	W03
	BYTE		N03   
	BYTE	W03
	BYTE		N03   
	BYTE	W03
	BYTE		N03   
	BYTE	W03
	BYTE		N03   
	BYTE	W03
	BYTE		N03   
	BYTE	W06
	BYTE		        En1   v044
	BYTE	W12
	BYTE		N03   
	BYTE	W12
	BYTE		N06     Cn1   v064
	BYTE		N03     As1 
	BYTE	W12
	BYTE		N06     Dn1   v032
	BYTE	W06
	BYTE		N06   
	BYTE	W06
	BYTE	PEND
// 025   ----------------------------------------
Colin_6_025:
	BYTE		N06     En1   v052
	BYTE	W09
	BYTE		N03     As1   v004
	BYTE	W03
	BYTE		N06     En1   v052
	BYTE	W06
	BYTE		N06   
	BYTE	W06
	BYTE		        Dn1   v032
	BYTE	W06
	BYTE		N06   
	BYTE	W06
	BYTE		N06   
	BYTE	W06
	BYTE		N06   
	BYTE	W06
	BYTE		        En1   v052
	BYTE	W12
	BYTE		N06   
	BYTE	W06
	BYTE		N06   
	BYTE	W06
	BYTE		        Cn1   v064
	BYTE	W12
	BYTE		N06   
	BYTE	W12
	BYTE	PEND
// 026   ----------------------------------------
Colin_6_026:
	BYTE		N06     En1   v052
	BYTE	W12
	BYTE		N06   
	BYTE	W06
	BYTE		N06   
	BYTE	W06
	BYTE		        Dn1   v032
	BYTE	W06
	BYTE		N06   
	BYTE	W06
	BYTE		N06   
	BYTE	W06
	BYTE		N06   
	BYTE	W06
	BYTE		        En1   v052
	BYTE	W12
	BYTE		N06   
	BYTE	W06
	BYTE		N06   
	BYTE	W06
	BYTE		        Cn1   v064
	BYTE	W24
	BYTE	PEND
// 027   ----------------------------------------
	BYTE	PATT
	 POIN2	Colin_6_026
// 028   ----------------------------------------
Colin_6_028:
	BYTE		N06     En1   v052
	BYTE	W12
	BYTE		N06   
	BYTE	W06
	BYTE		N06   
	BYTE	W54
	BYTE		        Cn1   v064
	BYTE		N03     As1 
	BYTE	W12
	BYTE		N06     Cn1 
	BYTE	W12
	BYTE	PEND
// 029   ----------------------------------------
Colin_6_029:
	BYTE	W06
	BYTE		N06     Cn1   v064
	BYTE	W06
	BYTE		N06   
	BYTE	W09
	BYTE		N03     As1   v004
	BYTE	W03
	BYTE		N06     Dn1   v032
	BYTE	W06
	BYTE		        Cn1   v064
	BYTE	W06
	BYTE		        Dn1   v032
	BYTE	W06
	BYTE		N06   
	BYTE	W06
	BYTE		        En1   v052
	BYTE	W12
	BYTE		N06   
	BYTE	W06
	BYTE		N06   
	BYTE	W06
	BYTE		        Cn1   v064
	BYTE	W12
	BYTE		N06   
	BYTE	W12
	BYTE	PEND
// 030   ----------------------------------------
Colin_6_030:
	BYTE	W06
	BYTE		N06     Cn1   v064
	BYTE	W06
	BYTE		N06   
	BYTE	W12
	BYTE		        En1   v052
	BYTE	W12
	BYTE		N06   
	BYTE	W06
	BYTE		N06   
	BYTE	W06
	BYTE		N06   
	BYTE	W06
	BYTE		        Dn1   v032
	BYTE	W06
	BYTE		N06   
	BYTE	W06
	BYTE		N06   
	BYTE	W06
	BYTE		        Cn1   v064
	BYTE	W12
	BYTE		N06   
	BYTE	W12
	BYTE	PEND
// 031   ----------------------------------------
Colin_6_031:
	BYTE	W06
	BYTE		N06     Cn1   v064
	BYTE	W06
	BYTE		N06   
	BYTE	W12
	BYTE		        Dn1   v032
	BYTE	W12
	BYTE		N06   
	BYTE	W06
	BYTE		N06   
	BYTE	W06
	BYTE		        En1   v052
	BYTE	W12
	BYTE		N06   
	BYTE	W06
	BYTE		N06   
	BYTE	W06
	BYTE		        Cn1   v064
	BYTE	W12
	BYTE		N06   
	BYTE	W12
	BYTE	PEND
// 032   ----------------------------------------
Colin_6_032:
	BYTE	W06
	BYTE		N06     Cn1   v064
	BYTE	W06
	BYTE		N06   
	BYTE	W12
	BYTE		        En1   v052
	BYTE	W12
	BYTE		N06   
	BYTE	W06
	BYTE		N06   
	BYTE	W06
	BYTE		N06   
	BYTE	W06
	BYTE		        Dn1   v032
	BYTE	W06
	BYTE		N06   
	BYTE	W06
	BYTE		N06   
	BYTE	W06
	BYTE		        Cn1   v064
	BYTE		N03     As1 
	BYTE	W12
	BYTE		N06     Cn1 
	BYTE	W12
	BYTE	PEND
// 033   ----------------------------------------
Colin_6_033:
	BYTE	W06
	BYTE		N06     Cn1   v064
	BYTE	W03
	BYTE		N03     As1   v004
	BYTE	W03
	BYTE		N06     Cn1   v064
	BYTE	W12
	BYTE		        Dn1   v032
	BYTE	W06
	BYTE		        Cn1   v064
	BYTE	W06
	BYTE		        Dn1   v032
	BYTE	W06
	BYTE		N06   
	BYTE	W06
	BYTE		        En1   v052
	BYTE	W12
	BYTE		N06   
	BYTE	W06
	BYTE		N06   
	BYTE	W06
	BYTE		        Cn1   v064
	BYTE		N03     As1 
	BYTE	W12
	BYTE		N06     Cn1 
	BYTE	W12
	BYTE	PEND
// 034   ----------------------------------------
Colin_6_034:
	BYTE	W06
	BYTE		N06     Cn1   v064
	BYTE	W06
	BYTE		N06   
	BYTE	W09
	BYTE		N03     As1   v004
	BYTE	W03
	BYTE		N06     En1   v052
	BYTE	W12
	BYTE		N06   
	BYTE	W06
	BYTE		N06   
	BYTE	W06
	BYTE		N06   
	BYTE	W06
	BYTE		        Dn1   v032
	BYTE	W06
	BYTE		N06   
	BYTE	W06
	BYTE		N06   
	BYTE	W06
	BYTE		N06   
	BYTE		N03     As1   v064
	BYTE	W06
	BYTE		N06     Dn1   v032
	BYTE	W06
	BYTE		N06   
	BYTE	W06
	BYTE		N06   
	BYTE	W06
	BYTE	PEND
// 035   ----------------------------------------
Colin_6_035:
	BYTE		N06     En1   v052
	BYTE	W06
	BYTE		        Dn1   v032
	BYTE	W06
	BYTE		N06   
	BYTE	W06
	BYTE		N06   
	BYTE	W03
	BYTE		N03     As1   v004
	BYTE	W03
	BYTE		N06     Dn1   v032
	BYTE	W06
	BYTE		N06   
	BYTE	W06
	BYTE		N06   
	BYTE	W06
	BYTE		N06   
	BYTE	W06
	BYTE		        En1   v052
	BYTE	W12
	BYTE		N06   
	BYTE	W06
	BYTE		N06   
	BYTE	W06
	BYTE		        Cn1   v064
	BYTE		N03     As1 
	BYTE	W06
	BYTE		N06     En1   v052
	BYTE	W06
	BYTE		N06   
	BYTE	W06
	BYTE		N06   
	BYTE	W06
	BYTE	PEND
// 036   ----------------------------------------
	BYTE		N06   
	BYTE	W06
	BYTE		N06   
	BYTE	W06
	BYTE		N06   
	BYTE	W06
	BYTE		N06   
	BYTE	W03
	BYTE		N03     As1   v004
	BYTE	W03
	BYTE		N06     En1   v052
	BYTE	W12
	BYTE		N06   
	BYTE	W06
	BYTE		N06   
	BYTE	W06
	BYTE		N06   
	BYTE	W06
	BYTE		N06   
	BYTE	W06
	BYTE		N06   
	BYTE	W06
	BYTE		N06   
	BYTE	W06
	BYTE		        Cn1   v064
	BYTE		N03     Dn1   v032
	BYTE		N03     As1   v064
	BYTE	W03
	BYTE		        Dn1   v032
	BYTE	W03
	BYTE		N03   
	BYTE	W03
	BYTE		N03   
	BYTE	W03
	BYTE		N03   
	BYTE	W03
	BYTE		N03   
	BYTE	W03
	BYTE		N03   
	BYTE	W03
	BYTE		N03   
	BYTE	W03
// 037   ----------------------------------------
Colin_6_037:
	BYTE		N06     En1   v052
	BYTE	W12
	BYTE		N06   
	BYTE	W09
	BYTE		N03     As1   v004
	BYTE	W03
	BYTE		        Dn1   v032
	BYTE	W03
	BYTE		N03   
	BYTE	W03
	BYTE		N03   
	BYTE	W03
	BYTE		N03   
	BYTE	W03
	BYTE		N06     En1   v052
	BYTE	W12
	BYTE		N03     Dn1   v032
	BYTE	W03
	BYTE		N03   
	BYTE	W03
	BYTE		N03   
	BYTE	W03
	BYTE		N03   
	BYTE	W03
	BYTE		N03   
	BYTE	W03
	BYTE		N03   
	BYTE	W03
	BYTE		N03   
	BYTE	W03
	BYTE		N03   
	BYTE	W03
	BYTE		N06     Cn1   v064
	BYTE		N03     Dn1   v032
	BYTE	W03
	BYTE		N03   
	BYTE	W03
	BYTE		N03   
	BYTE	W03
	BYTE		N03   
	BYTE	W03
	BYTE		N03   
	BYTE	W03
	BYTE		N03   
	BYTE	W03
	BYTE		N03   
	BYTE	W03
	BYTE		N03   
	BYTE	W03
	BYTE	PEND
// 038   ----------------------------------------
Colin_6_038:
	BYTE		N06     En1   v052
	BYTE	W12
	BYTE		N06   
	BYTE	W12
	BYTE		N03     Dn1   v032
	BYTE	W03
	BYTE		N03   
	BYTE	W03
	BYTE		N03   
	BYTE	W03
	BYTE		N03   
	BYTE	W03
	BYTE		N06     En1   v052
	BYTE	W12
	BYTE		N06   
	BYTE	W06
	BYTE		N03     Dn1   v032
	BYTE	W03
	BYTE		N03   
	BYTE	W03
	BYTE		N03   
	BYTE	W03
	BYTE		N03   
	BYTE	W03
	BYTE		N03   
	BYTE	W03
	BYTE		N03   
	BYTE	W03
	BYTE		N06     Cn1   v064
	BYTE		N03     As1 
	BYTE	W12
	BYTE		N06     Cn1 
	BYTE	W12
	BYTE	PEND
// 039   ----------------------------------------
Colin_6_039:
	BYTE	W12
	BYTE		N06     En1   v052
	BYTE	W12
	BYTE		N03     Dn1   v032
	BYTE		N03     As1   v004
	BYTE	W03
	BYTE		        Dn1   v032
	BYTE	W03
	BYTE		N03   
	BYTE	W03
	BYTE		N03   
	BYTE	W03
	BYTE		N06     En1   v052
	BYTE	W12
	BYTE		N03     Dn1   v032
	BYTE	W03
	BYTE		N03   
	BYTE	W03
	BYTE		N03   
	BYTE	W03
	BYTE		N03   
	BYTE	W03
	BYTE		N06     Cn1   v064
	BYTE		N03     Dn1   v032
	BYTE	W03
	BYTE		N03   
	BYTE	W03
	BYTE		N03   
	BYTE	W03
	BYTE		N03   
	BYTE	W03
	BYTE		        Ds5   v096
	BYTE	W12
	BYTE		N03   
	BYTE	W12
	BYTE	PEND
// 040   ----------------------------------------
	BYTE	PATT
	 POIN2	Colin_6_004
// 041   ----------------------------------------
Colin_6_041:
	BYTE		N06     En1   v052
	BYTE	W12
	BYTE		N06   
	BYTE	W12
	BYTE		N03     Dn1   v032
	BYTE		N03     As1   v004
	BYTE	W03
	BYTE		        Dn1   v032
	BYTE	W03
	BYTE		N03   
	BYTE	W03
	BYTE		N03   
	BYTE	W03
	BYTE		N06     En1   v052
	BYTE	W12
	BYTE		N03     Dn1   v032
	BYTE	W03
	BYTE		N03   
	BYTE	W03
	BYTE		N03   
	BYTE	W03
	BYTE		N03   
	BYTE	W03
	BYTE		N03   
	BYTE	W03
	BYTE		N03   
	BYTE	W03
	BYTE		N03   
	BYTE	W03
	BYTE		N03   
	BYTE	W03
	BYTE		N04     En1   v052
	BYTE	W04
	BYTE		N04   
	BYTE	W04
	BYTE		N04   
	BYTE	W04
	BYTE		N06     Cn1   v064
	BYTE	W12
	BYTE	PEND
// 042   ----------------------------------------
Colin_6_042:
	BYTE		N06     En1   v052
	BYTE		N03     As1   v064
	BYTE	W12
	BYTE		N06     En1   v052
	BYTE	W24
	BYTE		N06   
	BYTE	W12
	BYTE		N06   
	BYTE		N03     As1   v004
	BYTE	W06
	BYTE		        Dn1   v032
	BYTE	W03
	BYTE		N03   
	BYTE	W03
	BYTE		N03   
	BYTE	W03
	BYTE		N03   
	BYTE	W03
	BYTE		N03   
	BYTE	W03
	BYTE		N03   
	BYTE	W03
	BYTE		N06     Cn1   v064
	BYTE		N03     As1 
	BYTE	W12
	BYTE		N06     Cn1 
	BYTE	W12
	BYTE	PEND
// 043   ----------------------------------------
	BYTE	PATT
	 POIN2	Colin_6_039
// 044   ----------------------------------------
	BYTE	PATT
	 POIN2	Colin_6_004
// 045   ----------------------------------------
	BYTE	PATT
	 POIN2	Colin_6_005
// 046   ----------------------------------------
	BYTE	PATT
	 POIN2	Colin_6_006
// 047   ----------------------------------------
	BYTE	PATT
	 POIN2	Colin_6_007
// 048   ----------------------------------------
	BYTE	PATT
	 POIN2	Colin_6_008
// 049   ----------------------------------------
	BYTE	PATT
	 POIN2	Colin_6_009
// 050   ----------------------------------------
	BYTE	PATT
	 POIN2	Colin_6_010
// 051   ----------------------------------------
	BYTE	PATT
	 POIN2	Colin_6_011
// 052   ----------------------------------------
	BYTE		N03     Dn1   v032
	BYTE		N06     En1   v052
	BYTE	W03
	BYTE		N03     Dn1   v032
	BYTE	W03
	BYTE		N03   
	BYTE	W03
	BYTE		N03   
	BYTE	W03
	BYTE		N06     En1   v052
	BYTE	W12
	BYTE		VOL     35*Colin_mvl/mxv
	BYTE		N06     Cn1   v064
	BYTE		N03     Dn1   v032
	BYTE	W03
	BYTE		N03   
	BYTE	W03
	BYTE		VOL     45*Colin_mvl/mxv
	BYTE		N03   
	BYTE	W03
	BYTE		N03   
	BYTE	W03
	BYTE		VOL     45*Colin_mvl/mxv
	BYTE		N03   
	BYTE		N06     En1   v052
	BYTE	W03
	BYTE		N03     Dn1   v032
	BYTE	W03
	BYTE		VOL     66*Colin_mvl/mxv
	BYTE		N03   
	BYTE	W03
	BYTE		N03   
	BYTE	W03
	BYTE		VOL     86*Colin_mvl/mxv
	BYTE		N06     En1   v052
	BYTE	W06
	BYTE		VOL     96*Colin_mvl/mxv
	BYTE		N06   
	BYTE	W06
	BYTE		VOL     106*Colin_mvl/mxv
	BYTE		N06   
	BYTE	W06
	BYTE		VOL     116*Colin_mvl/mxv
	BYTE	W06
	BYTE		N06     Cn1   v064
	BYTE		N03     As1 
	BYTE	W24
// 053   ----------------------------------------
	BYTE	PATT
	 POIN2	Colin_6_013
// 054   ----------------------------------------
	BYTE	PATT
	 POIN2	Colin_6_014
// 055   ----------------------------------------
	BYTE	PATT
	 POIN2	Colin_6_015
// 056   ----------------------------------------
	BYTE	PATT
	 POIN2	Colin_6_016
// 057   ----------------------------------------
	BYTE	PATT
	 POIN2	Colin_6_017
// 058   ----------------------------------------
	BYTE	PATT
	 POIN2	Colin_6_018
// 059   ----------------------------------------
	BYTE	PATT
	 POIN2	Colin_6_019
// 060   ----------------------------------------
	BYTE	PATT
	 POIN2	Colin_6_020
// 061   ----------------------------------------
	BYTE	PATT
	 POIN2	Colin_6_021
// 062   ----------------------------------------
	BYTE	PATT
	 POIN2	Colin_6_022
// 063   ----------------------------------------
	BYTE	PATT
	 POIN2	Colin_6_023
// 064   ----------------------------------------
	BYTE	PATT
	 POIN2	Colin_6_024
// 065   ----------------------------------------
	BYTE	PATT
	 POIN2	Colin_6_025
// 066   ----------------------------------------
	BYTE	PATT
	 POIN2	Colin_6_026
// 067   ----------------------------------------
	BYTE	PATT
	 POIN2	Colin_6_026
// 068   ----------------------------------------
	BYTE	PATT
	 POIN2	Colin_6_028
// 069   ----------------------------------------
	BYTE	PATT
	 POIN2	Colin_6_029
// 070   ----------------------------------------
	BYTE	PATT
	 POIN2	Colin_6_030
// 071   ----------------------------------------
	BYTE	PATT
	 POIN2	Colin_6_031
// 072   ----------------------------------------
	BYTE	PATT
	 POIN2	Colin_6_032
// 073   ----------------------------------------
	BYTE	PATT
	 POIN2	Colin_6_033
// 074   ----------------------------------------
	BYTE	PATT
	 POIN2	Colin_6_034
// 075   ----------------------------------------
	BYTE	PATT
	 POIN2	Colin_6_035
// 076   ----------------------------------------
	BYTE		N06     En1   v052
	BYTE	W06
	BYTE		N06   
	BYTE	W06
	BYTE		N06   
	BYTE	W06
	BYTE		N06   
	BYTE	W03
	BYTE		N03     As1   v004
	BYTE	W03
	BYTE		N06     En1   v052
	BYTE	W12
	BYTE		N06   
	BYTE	W06
	BYTE		N06   
	BYTE	W06
	BYTE		N06   
	BYTE	W06
	BYTE		N06   
	BYTE	W06
	BYTE		N06   
	BYTE	W06
	BYTE		N06   
	BYTE	W06
	BYTE		BEND    c_v+0
	BYTE		N06     Cn1   v064
	BYTE		N03     Dn1   v032
	BYTE		N03     As1   v064
	BYTE	W03
	BYTE		        Dn1   v032
	BYTE	W03
	BYTE		N03   
	BYTE	W03
	BYTE		N03   
	BYTE	W03
	BYTE		N03   
	BYTE	W03
	BYTE		N03   
	BYTE	W03
	BYTE		N03   
	BYTE	W03
	BYTE		N03   
	BYTE	W03
// 077   ----------------------------------------
	BYTE	PATT
	 POIN2	Colin_6_037
// 078   ----------------------------------------
	BYTE	PATT
	 POIN2	Colin_6_038
// 079   ----------------------------------------
	BYTE	PATT
	 POIN2	Colin_6_039
// 080   ----------------------------------------
	BYTE	PATT
	 POIN2	Colin_6_004
// 081   ----------------------------------------
	BYTE	PATT
	 POIN2	Colin_6_041
// 082   ----------------------------------------
	BYTE	PATT
	 POIN2	Colin_6_042
// 083   ----------------------------------------
	BYTE	PATT
	 POIN2	Colin_6_039
// 084   ----------------------------------------
	BYTE		N06     Cn1   v064
	BYTE	W12
	BYTE		N03     Ds5   v096
	BYTE	W12
	BYTE		N03   
	BYTE	W12
	BYTE		N06     En1   v076
	BYTE	W12
	BYTE		N06   
	BYTE	W06
	BYTE		N06   
	BYTE	W06
	BYTE		N06   
	BYTE	W06
	BYTE	FINE

//**************** Track 7 (Midi-Chn.7) ****************//

Colin_7:
	BYTE	KEYSH   Colin_key+0
// 000   ----------------------------------------
	BYTE		VOICE   71
	BYTE		VOL     64*Colin_mvl/mxv
	BYTE		N06     Fn3   v096
	BYTE	W12
	BYTE		N05     Cn4   v100
	BYTE	W12
// 001   ----------------------------------------
	BYTE		        Fn4   v084
	BYTE	W12
	BYTE		        Cn4   v092
	BYTE	W12
	BYTE		        Fn3   v088
	BYTE	W12
	BYTE		        Bn3   v104
	BYTE	W12
	BYTE		        Fn4   v092
	BYTE	W12
	BYTE		        Ds4   v104
	BYTE	W12
	BYTE		        Fn3   v088
	BYTE	W12
	BYTE		        Cn4   v092
	BYTE	W12
// 002   ----------------------------------------
	BYTE		        Fn4   v096
	BYTE	W12
	BYTE		        Fn4   v088
	BYTE	W12
	BYTE		        Fn3 
	BYTE	W12
	BYTE		        Cn4   v096
	BYTE	W12
	BYTE		        Fn4 
	BYTE	W12
	BYTE		        Ds4   v104
	BYTE	W12
	BYTE		        Fn3   v096
	BYTE	W12
	BYTE		        Cn4   v100
	BYTE	W12
// 003   ----------------------------------------
	BYTE		        Gn4   v084
	BYTE	W12
	BYTE		        Cn4   v092
	BYTE	W12
	BYTE		        Fn3   v088
	BYTE	W12
	BYTE		        Bn3   v104
	BYTE	W12
	BYTE		        An4   v092
	BYTE	W12
	BYTE		        Ds4   v104
	BYTE	W12
	BYTE		        Cn4   v096
	BYTE	W12
	BYTE		        Dn4 
	BYTE	W12
// 004   ----------------------------------------
	BYTE		        Cn4 
	BYTE	W12
	BYTE		        Bn3 
	BYTE	W12
	BYTE		        Cn4 
	BYTE	W12
	BYTE		        Gn3 
	BYTE	W12
	BYTE		        Fn3 
	BYTE	W12
	BYTE		        En3 
	BYTE	W36
// 005   ----------------------------------------
	BYTE	W96
// 006   ----------------------------------------
	BYTE	W96
// 007   ----------------------------------------
	BYTE	W96
// 008   ----------------------------------------
	BYTE	W96
// 009   ----------------------------------------
	BYTE	W96
// 010   ----------------------------------------
	BYTE	W96
// 011   ----------------------------------------
	BYTE	W72
	BYTE		BEND    c_v+0
	BYTE	W24
// 012   ----------------------------------------
	BYTE	W96
// 013   ----------------------------------------
	BYTE	W96
// 014   ----------------------------------------
	BYTE	W96
// 015   ----------------------------------------
	BYTE	W96
// 016   ----------------------------------------
	BYTE	W96
// 017   ----------------------------------------
	BYTE	W96
// 018   ----------------------------------------
	BYTE	W96
// 019   ----------------------------------------
	BYTE	W96
// 020   ----------------------------------------
Colin_7_020:
	BYTE	W72
	BYTE		N05     Gs3   v100
	BYTE	W12
	BYTE		        Gs4   v088
	BYTE	W12
	BYTE	PEND
// 021   ----------------------------------------
Colin_7_021:
	BYTE	W12
	BYTE		N05     Gs4   v084
	BYTE	W24
	BYTE		        Gs4   v088
	BYTE	W24
	BYTE		N05   
	BYTE	W12
	BYTE		        Gs3   v100
	BYTE	W12
	BYTE		        Gs4   v088
	BYTE	W12
	BYTE	PEND
// 022   ----------------------------------------
	BYTE	PATT
	 POIN2	Colin_7_021
// 023   ----------------------------------------
Colin_7_023:
	BYTE	W12
	BYTE		N05     Gs4   v084
	BYTE	W24
	BYTE		        Gs4   v088
	BYTE	W24
	BYTE		        Gs4   v100
	BYTE	W12
	BYTE		        Gs3   v064
	BYTE	W12
	BYTE		        Gs4   v072
	BYTE	W12
	BYTE	PEND
// 024   ----------------------------------------
Colin_7_024:
	BYTE	W12
	BYTE		N05     Gs4   v092
	BYTE	W60
	BYTE		        Gs3   v100
	BYTE	W12
	BYTE		        Gs4   v088
	BYTE	W12
	BYTE	PEND
// 025   ----------------------------------------
	BYTE	PATT
	 POIN2	Colin_7_021
// 026   ----------------------------------------
	BYTE	PATT
	 POIN2	Colin_7_021
// 027   ----------------------------------------
Colin_7_027:
	BYTE	W12
	BYTE		N05     Gs4   v084
	BYTE	W24
	BYTE		        Gs4   v088
	BYTE	W24
	BYTE		N05   
	BYTE	W12
	BYTE		        Gs3   v064
	BYTE	W12
	BYTE		        Gs4   v072
	BYTE	W12
	BYTE	PEND
// 028   ----------------------------------------
Colin_7_028:
	BYTE	W12
	BYTE		N05     Gs4   v084
	BYTE	W12
	BYTE		        Fs3   v060
	BYTE	W06
	BYTE		        Gs3 
	BYTE	W06
	BYTE		        As3 
	BYTE	W06
	BYTE		        Bn3 
	BYTE	W06
	BYTE		        Cs4 
	BYTE	W06
	BYTE		        Dn4 
	BYTE	W06
	BYTE		        Ds4 
	BYTE	W06
	BYTE		        Fn4 
	BYTE	W06
	BYTE		        Fs4 
	BYTE	W24
	BYTE	PEND
// 029   ----------------------------------------
	BYTE	W96
// 030   ----------------------------------------
	BYTE	W96
// 031   ----------------------------------------
	BYTE	W96
// 032   ----------------------------------------
	BYTE	W72
	BYTE		BEND    c_v+0
	BYTE	W24
// 033   ----------------------------------------
	BYTE	W96
// 034   ----------------------------------------
	BYTE	W96
// 035   ----------------------------------------
	BYTE	W96
// 036   ----------------------------------------
	BYTE	W96
// 037   ----------------------------------------
	BYTE	W96
// 038   ----------------------------------------
	BYTE	W96
// 039   ----------------------------------------
	BYTE	W96
// 040   ----------------------------------------
	BYTE	W96
// 041   ----------------------------------------
	BYTE	W96
// 042   ----------------------------------------
	BYTE	W96
// 043   ----------------------------------------
	BYTE	W96
// 044   ----------------------------------------
	BYTE	W96
// 045   ----------------------------------------
	BYTE	W96
// 046   ----------------------------------------
	BYTE	W96
// 047   ----------------------------------------
	BYTE	W96
// 048   ----------------------------------------
	BYTE	W96
// 049   ----------------------------------------
	BYTE	W96
// 050   ----------------------------------------
	BYTE	W96
// 051   ----------------------------------------
	BYTE	W72
	BYTE		        c_v+0
	BYTE	W24
// 052   ----------------------------------------
	BYTE	W96
// 053   ----------------------------------------
	BYTE	W96
// 054   ----------------------------------------
	BYTE	W96
// 055   ----------------------------------------
	BYTE	W96
// 056   ----------------------------------------
	BYTE	W96
// 057   ----------------------------------------
	BYTE	W96
// 058   ----------------------------------------
	BYTE	W96
// 059   ----------------------------------------
	BYTE	W96
// 060   ----------------------------------------
	BYTE	PATT
	 POIN2	Colin_7_020
// 061   ----------------------------------------
	BYTE	PATT
	 POIN2	Colin_7_021
// 062   ----------------------------------------
	BYTE	PATT
	 POIN2	Colin_7_021
// 063   ----------------------------------------
	BYTE	PATT
	 POIN2	Colin_7_023
// 064   ----------------------------------------
	BYTE	PATT
	 POIN2	Colin_7_024
// 065   ----------------------------------------
	BYTE	PATT
	 POIN2	Colin_7_021
// 066   ----------------------------------------
	BYTE	PATT
	 POIN2	Colin_7_021
// 067   ----------------------------------------
	BYTE	PATT
	 POIN2	Colin_7_027
// 068   ----------------------------------------
	BYTE	PATT
	 POIN2	Colin_7_028
// 069   ----------------------------------------
	BYTE	W96
// 070   ----------------------------------------
	BYTE	W96
// 071   ----------------------------------------
	BYTE	W96
// 072   ----------------------------------------
	BYTE	W72
	BYTE		BEND    c_v+0
	BYTE	FINE

//**************** Track 8 (Midi-Chn.6) ****************//

Colin_8:
	BYTE	KEYSH   Colin_key+0
// 000   ----------------------------------------
	BYTE		VOICE   47
	BYTE		PAN     c_v-64
	BYTE		VOL     108*Colin_mvl/mxv
	BYTE		PAN     c_v+0
	BYTE		BEND    c_v+0
	BYTE		N24     Fn2   v088
	BYTE	W24
// 001   ----------------------------------------
	BYTE		N44   
	BYTE	W72
	BYTE		N11     Fn1   v084
	BYTE	W12
	BYTE		N23     Fn1   v096
	BYTE	W12
// 002   ----------------------------------------
	BYTE	W12
	BYTE		        Fn2   v084
	BYTE	W24
	BYTE		N32     Fn1   v088
	BYTE	W60
// 003   ----------------------------------------
	BYTE		N44     Fn2 
	BYTE	W72
	BYTE		N11     Cn2   v084
	BYTE	W12
	BYTE		N23     Cn2   v096
	BYTE	W12
// 004   ----------------------------------------
	BYTE	W12
	BYTE		        Cn2   v084
	BYTE	W24
	BYTE		N32     Cn2   v088
	BYTE	W60
// 005   ----------------------------------------
	BYTE	W96
// 006   ----------------------------------------
	BYTE	W96
// 007   ----------------------------------------
	BYTE	W96
// 008   ----------------------------------------
	BYTE	W96
// 009   ----------------------------------------
	BYTE	W96
// 010   ----------------------------------------
	BYTE	W96
// 011   ----------------------------------------
	BYTE	W96
// 012   ----------------------------------------
	BYTE	W96
// 013   ----------------------------------------
	BYTE	W96
// 014   ----------------------------------------
	BYTE	W96
// 015   ----------------------------------------
	BYTE	W96
// 016   ----------------------------------------
	BYTE	W96
// 017   ----------------------------------------
	BYTE	W96
// 018   ----------------------------------------
	BYTE	W96
// 019   ----------------------------------------
	BYTE	W96
// 020   ----------------------------------------
	BYTE	W84
	BYTE		N11     Ds2 
	BYTE	W12
// 021   ----------------------------------------
	BYTE		N32     Gs1   v096
	BYTE	W96
// 022   ----------------------------------------
Colin_8_022:
	BYTE		N11     Ds2   v088
	BYTE	W12
	BYTE		N23     Gs1   v096
	BYTE	W36
	BYTE		        An2   v127
	BYTE	W36
	BYTE		N11     Ds2   v088
	BYTE	W12
	BYTE	PEND
// 023   ----------------------------------------
	BYTE		N23     Gs1   v096
	BYTE	W96
// 024   ----------------------------------------
Colin_8_024:
	BYTE		N11     Ds2   v088
	BYTE	W12
	BYTE		N28     Gs1   v096
	BYTE	W36
	BYTE		N23   
	BYTE	W36
	BYTE		N11     Ds2   v088
	BYTE	W12
	BYTE	PEND
// 025   ----------------------------------------
Colin_8_025:
	BYTE		N23     Gs1   v096
	BYTE	W24
	BYTE		N23   
	BYTE	W72
	BYTE	PEND
// 026   ----------------------------------------
Colin_8_026:
	BYTE		N11     Ds2   v088
	BYTE	W12
	BYTE		N23     Gs1   v096
	BYTE	W24
	BYTE		N11   
	BYTE	W12
	BYTE		N23     An2   v127
	BYTE	W36
	BYTE		N11     Ds2   v088
	BYTE	W12
	BYTE	PEND
// 027   ----------------------------------------
Colin_8_027:
	BYTE		N23     Gs1   v096
	BYTE	W24
	BYTE		N23   
	BYTE	W24
	BYTE		N23   
	BYTE	W24
	BYTE		N23   
	BYTE	W24
	BYTE	PEND
// 028   ----------------------------------------
Colin_8_028:
	BYTE		N23     Gs1   v096
	BYTE	W24
	BYTE		N06     Gs2   v088
	BYTE	W06
	BYTE		N06   
	BYTE	W06
	BYTE		N06   
	BYTE	W06
	BYTE		N06   
	BYTE	W06
	BYTE		N06   
	BYTE	W06
	BYTE		N06   
	BYTE	W06
	BYTE		N06   
	BYTE	W06
	BYTE		N05   
	BYTE	W30
	BYTE	PEND
// 029   ----------------------------------------
	BYTE	W96
// 030   ----------------------------------------
	BYTE	W96
// 031   ----------------------------------------
	BYTE	W96
// 032   ----------------------------------------
	BYTE	W96
// 033   ----------------------------------------
	BYTE	W96
// 034   ----------------------------------------
	BYTE	W96
// 035   ----------------------------------------
	BYTE	W96
// 036   ----------------------------------------
Colin_8_036:
	BYTE	W72
	BYTE		PAN     c_v+0
	BYTE		BEND    c_v+0
	BYTE		N22     Fn2   v092
	BYTE	W24
	BYTE	PEND
// 037   ----------------------------------------
Colin_8_037:
	BYTE		N44     Fn2   v092
	BYTE	W72
	BYTE		N11     Fn1   v088
	BYTE	W12
	BYTE		N23     Fn1   v100
	BYTE	W12
	BYTE	PEND
// 038   ----------------------------------------
Colin_8_038:
	BYTE	W12
	BYTE		N23     Fn2   v088
	BYTE	W24
	BYTE		N32     Fn1   v092
	BYTE	W36
	BYTE		N23     Fn2 
	BYTE	W24
	BYTE	PEND
// 039   ----------------------------------------
Colin_8_039:
	BYTE		N44     Fn2   v092
	BYTE	W72
	BYTE		N11     Cn2   v088
	BYTE	W12
	BYTE		N23     Cn2   v100
	BYTE	W12
	BYTE	PEND
// 040   ----------------------------------------
Colin_8_040:
	BYTE	W12
	BYTE		N23     Cn2   v088
	BYTE	W24
	BYTE		N32     Cn2   v092
	BYTE	W36
	BYTE		PAN     c_v+0
	BYTE		BEND    c_v+0
	BYTE		N22     Fn2 
	BYTE	W24
	BYTE	PEND
// 041   ----------------------------------------
Colin_8_041:
	BYTE		N44     Fn2   v092
	BYTE	W72
	BYTE		N23     Fn1   v127
	BYTE	W24
	BYTE	PEND
// 042   ----------------------------------------
Colin_8_042:
	BYTE		N32     Fn2   v127
	BYTE	W36
	BYTE		N11     Fn1   v112
	BYTE	W12
	BYTE		N11   
	BYTE	W12
	BYTE		N11   
	BYTE	W12
	BYTE		        Fn1   v088
	BYTE	W12
	BYTE		N23     Fn1   v100
	BYTE	W12
	BYTE	PEND
// 043   ----------------------------------------
Colin_8_043:
	BYTE	W12
	BYTE		N23     Fn1   v088
	BYTE	W24
	BYTE		N11     Fn1   v092
	BYTE	W12
	BYTE		N05   
	BYTE	W06
	BYTE		N05   
	BYTE	W06
	BYTE		N11   
	BYTE	W12
	BYTE		        Cn2   v088
	BYTE	W12
	BYTE		N23     Cn2   v100
	BYTE	W12
	BYTE	PEND
// 044   ----------------------------------------
	BYTE	W12
	BYTE		        Cn2   v088
	BYTE	W24
	BYTE		N32     Cn2   v092
	BYTE	W60
// 045   ----------------------------------------
	BYTE	W96
// 046   ----------------------------------------
	BYTE	W96
// 047   ----------------------------------------
	BYTE	W96
// 048   ----------------------------------------
	BYTE	W96
// 049   ----------------------------------------
	BYTE	W96
// 050   ----------------------------------------
	BYTE	W96
// 051   ----------------------------------------
	BYTE	W96
// 052   ----------------------------------------
	BYTE	W96
// 053   ----------------------------------------
	BYTE	W96
// 054   ----------------------------------------
	BYTE	W96
// 055   ----------------------------------------
	BYTE	W96
// 056   ----------------------------------------
	BYTE	W96
// 057   ----------------------------------------
	BYTE	W96
// 058   ----------------------------------------
	BYTE	W96
// 059   ----------------------------------------
	BYTE	W96
// 060   ----------------------------------------
	BYTE	W84
	BYTE		N11     Ds2   v088
	BYTE	W12
// 061   ----------------------------------------
	BYTE		N32     Gs1   v096
	BYTE	W96
// 062   ----------------------------------------
	BYTE	PATT
	 POIN2	Colin_8_022
// 063   ----------------------------------------
	BYTE		N23     Gs1   v096
	BYTE	W96
// 064   ----------------------------------------
	BYTE	PATT
	 POIN2	Colin_8_024
// 065   ----------------------------------------
	BYTE	PATT
	 POIN2	Colin_8_025
// 066   ----------------------------------------
	BYTE	PATT
	 POIN2	Colin_8_026
// 067   ----------------------------------------
	BYTE	PATT
	 POIN2	Colin_8_027
// 068   ----------------------------------------
	BYTE	PATT
	 POIN2	Colin_8_028
// 069   ----------------------------------------
	BYTE	W96
// 070   ----------------------------------------
	BYTE	W96
// 071   ----------------------------------------
	BYTE	W96
// 072   ----------------------------------------
	BYTE	W96
// 073   ----------------------------------------
	BYTE	W96
// 074   ----------------------------------------
	BYTE	W96
// 075   ----------------------------------------
	BYTE	W96
// 076   ----------------------------------------
	BYTE	PATT
	 POIN2	Colin_8_036
// 077   ----------------------------------------
	BYTE	PATT
	 POIN2	Colin_8_037
// 078   ----------------------------------------
	BYTE	PATT
	 POIN2	Colin_8_038
// 079   ----------------------------------------
	BYTE	PATT
	 POIN2	Colin_8_039
// 080   ----------------------------------------
	BYTE	PATT
	 POIN2	Colin_8_040
// 081   ----------------------------------------
	BYTE	PATT
	 POIN2	Colin_8_041
// 082   ----------------------------------------
	BYTE	PATT
	 POIN2	Colin_8_042
// 083   ----------------------------------------
	BYTE	PATT
	 POIN2	Colin_8_043
// 084   ----------------------------------------
	BYTE	W12
	BYTE		N23     Cn2   v088
	BYTE	W24
	BYTE		N32     Cn2   v092
	BYTE	W32
	BYTE	W03
	BYTE	FINE

//**************** Track 9 (Midi-Chn.5) ****************//

Colin_9:
	BYTE	KEYSH   Colin_key+0
// 000   ----------------------------------------
	BYTE		VOICE   45
	BYTE		PAN     c_v-64
	BYTE		VOL     95*Colin_mvl/mxv
	BYTE	W24
// 001   ----------------------------------------
	BYTE	W72
	BYTE		PAN     c_v+15
	BYTE	W24
// 002   ----------------------------------------
Colin_9_002:
	BYTE	W36
	BYTE		N04     Fn3   v112
	BYTE	W12
	BYTE		        Fn3   v120
	BYTE	W12
	BYTE		        Fn3   v116
	BYTE	W12
	BYTE		        Fn3   v120
	BYTE	W12
	BYTE		        Fn2   v127
	BYTE	W12
	BYTE	PEND
// 003   ----------------------------------------
Colin_9_003:
	BYTE	W12
	BYTE		N04     Gn3   v127
	BYTE	W12
	BYTE		        Gn2   v120
	BYTE	W24
	BYTE		        An3   v127
	BYTE	W12
	BYTE		        An2   v120
	BYTE	W12
	BYTE		        As3   v100
	BYTE	W12
	BYTE		N04   
	BYTE	W12
	BYTE	PEND
// 004   ----------------------------------------
Colin_9_004:
	BYTE	W12
	BYTE		N04     As3   v127
	BYTE	W24
	BYTE		        As2 
	BYTE	W12
	BYTE		        An2   v120
	BYTE	W24
	BYTE		BEND    c_v+0
	BYTE		N04     Fn2   v116
	BYTE	W24
	BYTE	PEND
// 005   ----------------------------------------
Colin_9_005:
	BYTE		N04     Cn3   v124
	BYTE	W24
	BYTE		        Ds3   v116
	BYTE	W24
	BYTE		        Cn3   v124
	BYTE	W24
	BYTE		N05     Gn2   v127
	BYTE	W12
	BYTE		        Cn3 
	BYTE	W12
	BYTE	PEND
// 006   ----------------------------------------
Colin_9_006:
	BYTE	W12
	BYTE		N05     Dn3   v127
	BYTE	W24
	BYTE		        Ds3 
	BYTE	W12
	BYTE		        Gn2   v116
	BYTE	W24
	BYTE		        Fn2   v127
	BYTE	W24
	BYTE	PEND
// 007   ----------------------------------------
Colin_9_007:
	BYTE		N05     An2   v127
	BYTE	W24
	BYTE		        Cn3 
	BYTE	W24
	BYTE		        Dn3   v120
	BYTE	W24
	BYTE		        Cn3 
	BYTE	W12
	BYTE		        As2   v127
	BYTE	W12
	BYTE	PEND
// 008   ----------------------------------------
Colin_9_008:
	BYTE	W12
	BYTE		N05     En2   v120
	BYTE	W24
	BYTE		        Cn3   v100
	BYTE		N05     En3 
	BYTE	W12
	BYTE		        As2   v104
	BYTE		N05     En3 
	BYTE	W12
	BYTE		        Gn2   v100
	BYTE		N05     En3 
	BYTE	W12
	BYTE		BEND    c_v+0
	BYTE		N04     Fn2   v096
	BYTE		N04     Fn3 
	BYTE	W24
	BYTE	PEND
// 009   ----------------------------------------
	BYTE	PATT
	 POIN2	Colin_9_005
// 010   ----------------------------------------
Colin_9_010:
	BYTE	W12
	BYTE		N05     Dn3   v127
	BYTE	W24
	BYTE		        Ds3 
	BYTE	W12
	BYTE		        Gn2   v116
	BYTE	W24
	BYTE		        An2   v127
	BYTE	W24
	BYTE	PEND
// 011   ----------------------------------------
Colin_9_011:
	BYTE		N05     As2   v127
	BYTE	W24
	BYTE		        Gn3 
	BYTE	W24
	BYTE		        En3   v120
	BYTE	W24
	BYTE		        Fn3 
	BYTE	W12
	BYTE		        Dn3   v127
	BYTE	W12
	BYTE	PEND
// 012   ----------------------------------------
Colin_9_012:
	BYTE	W12
	BYTE		N05     En2   v120
	BYTE	W24
	BYTE		        Cn3 
	BYTE	W12
	BYTE		        Dn3   v127
	BYTE	W12
	BYTE		        En3   v120
	BYTE	W12
	BYTE		BEND    c_v+0
	BYTE		N04     Fn2   v116
	BYTE	W24
	BYTE	PEND
// 013   ----------------------------------------
	BYTE	PATT
	 POIN2	Colin_9_005
// 014   ----------------------------------------
	BYTE	PATT
	 POIN2	Colin_9_006
// 015   ----------------------------------------
	BYTE	PATT
	 POIN2	Colin_9_007
// 016   ----------------------------------------
Colin_9_016:
	BYTE	W12
	BYTE		N05     En2   v120
	BYTE	W24
	BYTE		        En3 
	BYTE	W12
	BYTE		        En3   v127
	BYTE	W12
	BYTE		        En2   v120
	BYTE	W12
	BYTE		        Fn2   v116
	BYTE	W24
	BYTE	PEND
// 017   ----------------------------------------
Colin_9_017:
	BYTE		N05     Cn3   v124
	BYTE	W24
	BYTE		        Ds3   v116
	BYTE	W24
	BYTE		        Cn3   v124
	BYTE	W24
	BYTE		        Gn2 
	BYTE	W12
	BYTE		        Cn3 
	BYTE	W12
	BYTE	PEND
// 018   ----------------------------------------
Colin_9_018:
	BYTE	W12
	BYTE		N05     Dn3   v124
	BYTE	W24
	BYTE		        Ds3 
	BYTE	W12
	BYTE		        Gs2   v112
	BYTE	W24
	BYTE		        Fn2   v116
	BYTE	W24
	BYTE	PEND
// 019   ----------------------------------------
Colin_9_019:
	BYTE		N05     Cs2   v116
	BYTE	W24
	BYTE		        Cs3 
	BYTE	W24
	BYTE		        Fn2   v108
	BYTE	W24
	BYTE		        As2 
	BYTE	W12
	BYTE		        Fn2   v116
	BYTE	W12
	BYTE	PEND
// 020   ----------------------------------------
	BYTE	W12
	BYTE		        Cs3   v108
	BYTE	W84
// 021   ----------------------------------------
	BYTE	W96
// 022   ----------------------------------------
	BYTE	W96
// 023   ----------------------------------------
	BYTE	W96
// 024   ----------------------------------------
	BYTE	W96
// 025   ----------------------------------------
	BYTE	W96
// 026   ----------------------------------------
	BYTE	W96
// 027   ----------------------------------------
	BYTE	W96
// 028   ----------------------------------------
Colin_9_028:
	BYTE	W24
	BYTE		N05     Fs2   v127
	BYTE	W12
	BYTE		        Cn3 
	BYTE		N05     Fs3 
	BYTE	W12
	BYTE		        Fs2 
	BYTE	W12
	BYTE		        Cn3 
	BYTE		N05     Fs3 
	BYTE	W12
	BYTE		        Fs2 
	BYTE	W12
	BYTE		        Cn3 
	BYTE		N05     Fs3 
	BYTE	W12
	BYTE	PEND
// 029   ----------------------------------------
Colin_9_029:
	BYTE		N05     Cn3   v127
	BYTE		N05     Fs3 
	BYTE	W12
	BYTE		        Fs2   v116
	BYTE	W12
	BYTE		        Cs3   v124
	BYTE		N05     Fn3   v127
	BYTE	W12
	BYTE		        Cs3 
	BYTE		N05     Fn3   v124
	BYTE	W12
	BYTE		        Fs2   v116
	BYTE	W12
	BYTE		        Cs3   v127
	BYTE		N05     Ds3 
	BYTE	W12
	BYTE		        Fs2 
	BYTE	W12
	BYTE		        Cn3   v120
	BYTE		N05     Fs3   v127
	BYTE	W12
	BYTE	PEND
// 030   ----------------------------------------
Colin_9_030:
	BYTE		N05     Cn3   v127
	BYTE		N05     Fs3   v120
	BYTE	W12
	BYTE		        Fs2   v127
	BYTE	W12
	BYTE		        Cs3 
	BYTE		N05     Fn3   v124
	BYTE	W12
	BYTE		        Cs3   v127
	BYTE		N05     Fn3 
	BYTE	W12
	BYTE		        Fs2 
	BYTE	W12
	BYTE		        Cn3 
	BYTE		N05     Ds3   v120
	BYTE	W12
	BYTE		        Fs2   v124
	BYTE	W12
	BYTE		        Cs3   v127
	BYTE		N05     Fs3 
	BYTE	W12
	BYTE	PEND
// 031   ----------------------------------------
Colin_9_031:
	BYTE		N05     Cs3   v127
	BYTE		N05     Fs3 
	BYTE	W12
	BYTE		        Fs2   v124
	BYTE	W12
	BYTE		        Cs3   v127
	BYTE		N05     As3 
	BYTE	W12
	BYTE		        Cs3 
	BYTE		N05     As3 
	BYTE	W24
	BYTE		        Fs2 
	BYTE	W12
	BYTE		        Cn3   v120
	BYTE		N05     Gs3 
	BYTE	W12
	BYTE		        Cn3   v127
	BYTE		N05     Gs3   v120
	BYTE	W12
	BYTE	PEND
// 032   ----------------------------------------
Colin_9_032:
	BYTE		N05     Fs2   v127
	BYTE	W12
	BYTE		        Fs2   v116
	BYTE	W12
	BYTE		        Cn3   v127
	BYTE		N05     Fs3 
	BYTE	W12
	BYTE		        Cn3 
	BYTE		N05     Fs3 
	BYTE	W12
	BYTE		        Cs3 
	BYTE		N05     Fn3   v120
	BYTE	W24
	BYTE		        Fs2   v127
	BYTE	W12
	BYTE		        Cn3 
	BYTE		N05     Fs3 
	BYTE	W12
	BYTE	PEND
// 033   ----------------------------------------
	BYTE	PATT
	 POIN2	Colin_9_029
// 034   ----------------------------------------
	BYTE	PATT
	 POIN2	Colin_9_030
// 035   ----------------------------------------
	BYTE	PATT
	 POIN2	Colin_9_031
// 036   ----------------------------------------
Colin_9_036:
	BYTE		N05     Fs2   v127
	BYTE	W12
	BYTE		        Fs2   v116
	BYTE	W12
	BYTE		        Cn3   v127
	BYTE		N05     Fs3 
	BYTE	W12
	BYTE		        Cn3 
	BYTE		N05     Fs3 
	BYTE	W12
	BYTE		        Cs3 
	BYTE		N05     Fn3   v120
	BYTE	W48
	BYTE	PEND
// 037   ----------------------------------------
	BYTE	W72
	BYTE		PAN     c_v+10
	BYTE	W24
// 038   ----------------------------------------
	BYTE	PATT
	 POIN2	Colin_9_002
// 039   ----------------------------------------
	BYTE	PATT
	 POIN2	Colin_9_003
// 040   ----------------------------------------
Colin_9_040:
	BYTE	W12
	BYTE		N04     As3   v127
	BYTE	W24
	BYTE		        As2 
	BYTE	W12
	BYTE		        An2   v120
	BYTE	W24
	BYTE		        An3   v096
	BYTE		N04     Fn4 
	BYTE	W12
	BYTE		        Fn3   v127
	BYTE	W12
	BYTE	PEND
// 041   ----------------------------------------
Colin_9_041:
	BYTE	W12
	BYTE		N04     As3   v096
	BYTE		N04     Gn4 
	BYTE	W12
	BYTE		        Gn3   v127
	BYTE	W12
	BYTE		        Cn4   v096
	BYTE		N04     Fn4 
	BYTE	W12
	BYTE		        As3 
	BYTE		N04     Fn4 
	BYTE	W12
	BYTE		        An3 
	BYTE		N04     Fn4 
	BYTE	W36
	BYTE	PEND
// 042   ----------------------------------------
Colin_9_042:
	BYTE		N04     Fn3   v096
	BYTE		N04     Fn4 
	BYTE	W36
	BYTE		        Fn3   v112
	BYTE	W12
	BYTE		        Fn3   v120
	BYTE	W12
	BYTE		        Fn3   v116
	BYTE	W12
	BYTE		        Fn3   v120
	BYTE	W12
	BYTE		        Fn2   v127
	BYTE	W12
	BYTE	PEND
// 043   ----------------------------------------
	BYTE	PATT
	 POIN2	Colin_9_003
// 044   ----------------------------------------
	BYTE	PATT
	 POIN2	Colin_9_004
// 045   ----------------------------------------
	BYTE	PATT
	 POIN2	Colin_9_005
// 046   ----------------------------------------
	BYTE	PATT
	 POIN2	Colin_9_006
// 047   ----------------------------------------
	BYTE	PATT
	 POIN2	Colin_9_007
// 048   ----------------------------------------
	BYTE	PATT
	 POIN2	Colin_9_008
// 049   ----------------------------------------
	BYTE	PATT
	 POIN2	Colin_9_005
// 050   ----------------------------------------
	BYTE	PATT
	 POIN2	Colin_9_010
// 051   ----------------------------------------
	BYTE	PATT
	 POIN2	Colin_9_011
// 052   ----------------------------------------
	BYTE	PATT
	 POIN2	Colin_9_012
// 053   ----------------------------------------
	BYTE	PATT
	 POIN2	Colin_9_005
// 054   ----------------------------------------
	BYTE	PATT
	 POIN2	Colin_9_006
// 055   ----------------------------------------
	BYTE	PATT
	 POIN2	Colin_9_007
// 056   ----------------------------------------
	BYTE	PATT
	 POIN2	Colin_9_016
// 057   ----------------------------------------
	BYTE	PATT
	 POIN2	Colin_9_017
// 058   ----------------------------------------
	BYTE	PATT
	 POIN2	Colin_9_018
// 059   ----------------------------------------
	BYTE	PATT
	 POIN2	Colin_9_019
// 060   ----------------------------------------
	BYTE	W12
	BYTE		N05     Cs3   v108
	BYTE	W84
// 061   ----------------------------------------
	BYTE	W96
// 062   ----------------------------------------
	BYTE	W96
// 063   ----------------------------------------
	BYTE	W96
// 064   ----------------------------------------
	BYTE	W96
// 065   ----------------------------------------
	BYTE	W96
// 066   ----------------------------------------
	BYTE	W96
// 067   ----------------------------------------
	BYTE	W96
// 068   ----------------------------------------
	BYTE	PATT
	 POIN2	Colin_9_028
// 069   ----------------------------------------
	BYTE	PATT
	 POIN2	Colin_9_029
// 070   ----------------------------------------
	BYTE	PATT
	 POIN2	Colin_9_030
// 071   ----------------------------------------
	BYTE	PATT
	 POIN2	Colin_9_031
// 072   ----------------------------------------
	BYTE	PATT
	 POIN2	Colin_9_032
// 073   ----------------------------------------
	BYTE	PATT
	 POIN2	Colin_9_029
// 074   ----------------------------------------
	BYTE	PATT
	 POIN2	Colin_9_030
// 075   ----------------------------------------
	BYTE	PATT
	 POIN2	Colin_9_031
// 076   ----------------------------------------
	BYTE	PATT
	 POIN2	Colin_9_036
// 077   ----------------------------------------
	BYTE	W72
	BYTE		PAN     c_v+10
	BYTE	W24
// 078   ----------------------------------------
	BYTE	PATT
	 POIN2	Colin_9_002
// 079   ----------------------------------------
	BYTE	PATT
	 POIN2	Colin_9_003
// 080   ----------------------------------------
	BYTE	PATT
	 POIN2	Colin_9_040
// 081   ----------------------------------------
	BYTE	PATT
	 POIN2	Colin_9_041
// 082   ----------------------------------------
	BYTE	PATT
	 POIN2	Colin_9_042
// 083   ----------------------------------------
	BYTE	PATT
	 POIN2	Colin_9_003
// 084   ----------------------------------------
	BYTE	W12
	BYTE		N04     As3   v127
	BYTE	W24
	BYTE		        As2 
	BYTE	W12
	BYTE		        An2   v120
	BYTE	W04
	BYTE	FINE

//**************** Track 10 (Midi-Chn.4) ****************//

Colin_10:
	BYTE	KEYSH   Colin_key+0
// 000   ----------------------------------------
	BYTE		VOICE   65
	BYTE		PAN     c_v-64
	BYTE		VOL     80*Colin_mvl/mxv
	BYTE		PAN     c_v-18
	BYTE	W24
// 001   ----------------------------------------
	BYTE	W96
// 002   ----------------------------------------
	BYTE	W48
	BYTE		N11     Bn2   v108
	BYTE	W12
	BYTE		        Cn3   v116
	BYTE	W12
	BYTE		N05     Fn3 
	BYTE	W12
	BYTE		N23     Ds3   v104
	BYTE	W12
// 003   ----------------------------------------
	BYTE	W12
	BYTE		N11     Bn2 
	BYTE	W12
	BYTE		        Cn3 
	BYTE	W12
	BYTE		        Ds3 
	BYTE	W12
	BYTE		        Dn3 
	BYTE	W12
	BYTE		        Ds3 
	BYTE	W12
	BYTE		        Dn3 
	BYTE	W12
	BYTE		        Ds3 
	BYTE	W12
// 004   ----------------------------------------
	BYTE		        Dn3 
	BYTE	W12
	BYTE		        As2 
	BYTE	W12
	BYTE		        Fn2 
	BYTE	W12
	BYTE		        An2 
	BYTE	W12
	BYTE		        Bn2 
	BYTE	W12
	BYTE		        Cn3 
	BYTE	W36
// 005   ----------------------------------------
	BYTE	W96
// 006   ----------------------------------------
	BYTE	W96
// 007   ----------------------------------------
	BYTE	W96
// 008   ----------------------------------------
	BYTE	W96
// 009   ----------------------------------------
	BYTE	W96
// 010   ----------------------------------------
	BYTE	W96
// 011   ----------------------------------------
	BYTE	W96
// 012   ----------------------------------------
	BYTE	W96
// 013   ----------------------------------------
	BYTE	W96
// 014   ----------------------------------------
	BYTE	W96
// 015   ----------------------------------------
	BYTE	W96
// 016   ----------------------------------------
	BYTE	W96
// 017   ----------------------------------------
	BYTE	W96
// 018   ----------------------------------------
	BYTE	W96
// 019   ----------------------------------------
	BYTE	W96
// 020   ----------------------------------------
	BYTE	W96
// 021   ----------------------------------------
	BYTE	W96
// 022   ----------------------------------------
	BYTE	W96
// 023   ----------------------------------------
	BYTE	W96
// 024   ----------------------------------------
	BYTE	W96
// 025   ----------------------------------------
	BYTE	W96
// 026   ----------------------------------------
	BYTE	W96
// 027   ----------------------------------------
	BYTE	W96
// 028   ----------------------------------------
	BYTE	W96
// 029   ----------------------------------------
	BYTE	W96
// 030   ----------------------------------------
	BYTE	W96
// 031   ----------------------------------------
	BYTE	W96
// 032   ----------------------------------------
	BYTE	W96
// 033   ----------------------------------------
	BYTE	W96
// 034   ----------------------------------------
	BYTE	W96
// 035   ----------------------------------------
	BYTE	W96
// 036   ----------------------------------------
	BYTE	W96
// 037   ----------------------------------------
	BYTE	W96
// 038   ----------------------------------------
Colin_10_038:
	BYTE	W48
	BYTE		PAN     c_v-18
	BYTE		N11     Bn2   v104
	BYTE	W12
	BYTE		        Cn3   v112
	BYTE	W12
	BYTE		N05     Fn3 
	BYTE	W12
	BYTE		N23     Ds3   v100
	BYTE	W12
	BYTE	PEND
// 039   ----------------------------------------
Colin_10_039:
	BYTE	W12
	BYTE		N11     Bn2   v100
	BYTE	W12
	BYTE		        Cn3 
	BYTE	W12
	BYTE		        Ds3 
	BYTE	W12
	BYTE		        Dn3 
	BYTE	W12
	BYTE		        Ds3 
	BYTE	W12
	BYTE		        Dn3 
	BYTE	W12
	BYTE		        Ds3 
	BYTE	W12
	BYTE	PEND
// 040   ----------------------------------------
Colin_10_040:
	BYTE		N11     Dn3   v100
	BYTE	W12
	BYTE		        As2 
	BYTE	W12
	BYTE		        Fn2 
	BYTE	W12
	BYTE		        An2 
	BYTE	W12
	BYTE		        Bn2 
	BYTE	W12
	BYTE		        Cn3 
	BYTE	W12
	BYTE		PAN     c_v-19
	BYTE		N68   
	BYTE	W24
	BYTE	PEND
// 041   ----------------------------------------
Colin_10_041:
	BYTE	W48
	BYTE		N23     Gn2   v100
	BYTE	W24
	BYTE		        An2 
	BYTE	W24
	BYTE	PEND
// 042   ----------------------------------------
Colin_10_042:
	BYTE		N23     Cn3   v100
	BYTE	W24
	BYTE		        Dn3 
	BYTE	W24
	BYTE		N11     Bn2   v104
	BYTE	W12
	BYTE		        Cn3   v112
	BYTE	W12
	BYTE		N05     Fn3 
	BYTE	W12
	BYTE		N23     Ds3   v100
	BYTE	W12
	BYTE	PEND
// 043   ----------------------------------------
	BYTE	PATT
	 POIN2	Colin_10_039
// 044   ----------------------------------------
	BYTE		N11     Dn3   v100
	BYTE	W12
	BYTE		        As2 
	BYTE	W12
	BYTE		        Fn2 
	BYTE	W12
	BYTE		        An2 
	BYTE	W12
	BYTE		        Bn2 
	BYTE	W12
	BYTE		        Cn3 
	BYTE	W36
// 045   ----------------------------------------
	BYTE	W96
// 046   ----------------------------------------
	BYTE	W96
// 047   ----------------------------------------
	BYTE	W96
// 048   ----------------------------------------
	BYTE	W96
// 049   ----------------------------------------
	BYTE	W96
// 050   ----------------------------------------
	BYTE	W96
// 051   ----------------------------------------
	BYTE	W96
// 052   ----------------------------------------
	BYTE	W96
// 053   ----------------------------------------
	BYTE	W96
// 054   ----------------------------------------
	BYTE	W96
// 055   ----------------------------------------
	BYTE	W96
// 056   ----------------------------------------
	BYTE	W96
// 057   ----------------------------------------
	BYTE	W96
// 058   ----------------------------------------
	BYTE	W96
// 059   ----------------------------------------
	BYTE	W96
// 060   ----------------------------------------
	BYTE	W96
// 061   ----------------------------------------
	BYTE	W96
// 062   ----------------------------------------
	BYTE	W96
// 063   ----------------------------------------
	BYTE	W96
// 064   ----------------------------------------
	BYTE	W96
// 065   ----------------------------------------
	BYTE	W96
// 066   ----------------------------------------
	BYTE	W96
// 067   ----------------------------------------
	BYTE	W96
// 068   ----------------------------------------
	BYTE	W96
// 069   ----------------------------------------
	BYTE	W96
// 070   ----------------------------------------
	BYTE	W96
// 071   ----------------------------------------
	BYTE	W96
// 072   ----------------------------------------
	BYTE	W96
// 073   ----------------------------------------
	BYTE	W96
// 074   ----------------------------------------
	BYTE	W96
// 075   ----------------------------------------
	BYTE	W96
// 076   ----------------------------------------
	BYTE	W96
// 077   ----------------------------------------
	BYTE	W96
// 078   ----------------------------------------
	BYTE	PATT
	 POIN2	Colin_10_038
// 079   ----------------------------------------
	BYTE	PATT
	 POIN2	Colin_10_039
// 080   ----------------------------------------
	BYTE	PATT
	 POIN2	Colin_10_040
// 081   ----------------------------------------
	BYTE	PATT
	 POIN2	Colin_10_041
// 082   ----------------------------------------
	BYTE	PATT
	 POIN2	Colin_10_042
// 083   ----------------------------------------
	BYTE	PATT
	 POIN2	Colin_10_039
// 084   ----------------------------------------
	BYTE		N11     Dn3   v100
	BYTE	W12
	BYTE		        As2 
	BYTE	W12
	BYTE		        Fn2 
	BYTE	W12
	BYTE		        An2 
	BYTE	W12
	BYTE		        Bn2 
	BYTE	W12
	BYTE		        Cn3 
	BYTE	W11
	BYTE	FINE

//**************** Track 11 (Midi-Chn.3) ****************//

Colin_11:
	BYTE	KEYSH   Colin_key+0
// 000   ----------------------------------------
	BYTE		VOICE   56
	BYTE		VOL     127*Colin_mvl/mxv
	BYTE		BEND    c_v+0
	BYTE		N12     Fn1   v127
	BYTE	W12
	BYTE		        Cn2 
	BYTE	W12
// 001   ----------------------------------------
Colin_11_001:
	BYTE	W12
	BYTE		N12     Fn2   v127
	BYTE	W12
	BYTE		        Ds2 
	BYTE	W12
	BYTE		        Gn1 
	BYTE	W24
	BYTE		N12   
	BYTE	W12
	BYTE		        Fn1 
	BYTE	W12
	BYTE		        Cn2 
	BYTE	W12
	BYTE	PEND
// 002   ----------------------------------------
Colin_11_002:
	BYTE	W12
	BYTE		N12     Fn2   v127
	BYTE	W12
	BYTE		        Ds2 
	BYTE	W12
	BYTE		        Gn1 
	BYTE	W36
	BYTE		        Fn1 
	BYTE	W12
	BYTE		        Cn2 
	BYTE	W12
	BYTE	PEND
// 003   ----------------------------------------
Colin_11_003:
	BYTE	W12
	BYTE		N12     Fn2   v127
	BYTE	W12
	BYTE		        Ds2 
	BYTE	W12
	BYTE		        Gn1 
	BYTE	W24
	BYTE		N12   
	BYTE	W12
	BYTE		N11     Cn1   v120
	BYTE	W12
	BYTE		        Dn1   v127
	BYTE	W12
	BYTE	PEND
// 004   ----------------------------------------
Colin_11_004:
	BYTE		N11     En1   v127
	BYTE	W12
	BYTE		        Fn1 
	BYTE	W12
	BYTE		        Gn1   v120
	BYTE	W12
	BYTE		        Cn2   v127
	BYTE	W12
	BYTE		        Bn1   v120
	BYTE	W12
	BYTE		        Cn2   v127
	BYTE	W36
	BYTE	PEND
// 005   ----------------------------------------
	BYTE	W96
// 006   ----------------------------------------
	BYTE	W96
// 007   ----------------------------------------
	BYTE	W96
// 008   ----------------------------------------
	BYTE	W96
// 009   ----------------------------------------
	BYTE	W96
// 010   ----------------------------------------
	BYTE	W96
// 011   ----------------------------------------
	BYTE	W96
// 012   ----------------------------------------
	BYTE	W96
// 013   ----------------------------------------
	BYTE	W96
// 014   ----------------------------------------
	BYTE	W96
// 015   ----------------------------------------
	BYTE	W96
// 016   ----------------------------------------
	BYTE	W96
// 017   ----------------------------------------
	BYTE	W96
// 018   ----------------------------------------
	BYTE	W96
// 019   ----------------------------------------
	BYTE	W96
// 020   ----------------------------------------
	BYTE	W96
// 021   ----------------------------------------
	BYTE	W96
// 022   ----------------------------------------
	BYTE	W96
// 023   ----------------------------------------
	BYTE	W96
// 024   ----------------------------------------
	BYTE	W96
// 025   ----------------------------------------
	BYTE	W96
// 026   ----------------------------------------
	BYTE	W96
// 027   ----------------------------------------
	BYTE	W96
// 028   ----------------------------------------
	BYTE	W96
// 029   ----------------------------------------
	BYTE	W96
// 030   ----------------------------------------
	BYTE	W96
// 031   ----------------------------------------
	BYTE	W96
// 032   ----------------------------------------
Colin_11_032:
	BYTE	W72
	BYTE		BEND    c_v+0
	BYTE		N12     Fs1   v127
	BYTE	W12
	BYTE		        Cs2 
	BYTE	W12
	BYTE	PEND
// 033   ----------------------------------------
Colin_11_033:
	BYTE	W12
	BYTE		N12     Fs2   v127
	BYTE	W12
	BYTE		        En2 
	BYTE	W12
	BYTE		        Gs1 
	BYTE	W24
	BYTE		N12   
	BYTE	W12
	BYTE		        Fs1 
	BYTE	W12
	BYTE		        Cs2 
	BYTE	W12
	BYTE	PEND
// 034   ----------------------------------------
Colin_11_034:
	BYTE	W12
	BYTE		N12     Fs2   v127
	BYTE	W12
	BYTE		        En2 
	BYTE	W12
	BYTE		        Gs1 
	BYTE	W36
	BYTE		        Fs1 
	BYTE	W12
	BYTE		        Cs2 
	BYTE	W12
	BYTE	PEND
// 035   ----------------------------------------
Colin_11_035:
	BYTE	W12
	BYTE		N12     Fs2   v127
	BYTE	W12
	BYTE		        En2 
	BYTE	W12
	BYTE		        Gs1 
	BYTE	W24
	BYTE		N12   
	BYTE	W12
	BYTE		N11     Cs1   v120
	BYTE	W12
	BYTE		        Ds1   v127
	BYTE	W12
	BYTE	PEND
// 036   ----------------------------------------
Colin_11_036:
	BYTE		N11     Fn1   v127
	BYTE	W12
	BYTE		        Fs1 
	BYTE	W12
	BYTE		        Gs1   v120
	BYTE	W12
	BYTE		        Cs2   v127
	BYTE	W12
	BYTE		        Cn2   v120
	BYTE	W12
	BYTE		        Cs2   v127
	BYTE	W12
	BYTE		VOL     127*Colin_mvl/mxv
	BYTE		BEND    c_v+0
	BYTE		N12     Fn1 
	BYTE	W12
	BYTE		        Cn2 
	BYTE	W12
	BYTE	PEND
// 037   ----------------------------------------
	BYTE	PATT
	 POIN2	Colin_11_001
// 038   ----------------------------------------
	BYTE	PATT
	 POIN2	Colin_11_002
// 039   ----------------------------------------
	BYTE	PATT
	 POIN2	Colin_11_003
// 040   ----------------------------------------
Colin_11_040:
	BYTE		N11     En1   v127
	BYTE	W12
	BYTE		        Fn1 
	BYTE	W12
	BYTE		        Gn1   v120
	BYTE	W12
	BYTE		        Cn2   v127
	BYTE	W12
	BYTE		        Bn1   v120
	BYTE	W12
	BYTE		        Cn2   v127
	BYTE	W12
	BYTE		VOL     127*Colin_mvl/mxv
	BYTE		BEND    c_v+0
	BYTE		N12     Fn1 
	BYTE	W12
	BYTE		        Cn2 
	BYTE	W12
	BYTE	PEND
// 041   ----------------------------------------
	BYTE	PATT
	 POIN2	Colin_11_001
// 042   ----------------------------------------
	BYTE	PATT
	 POIN2	Colin_11_002
// 043   ----------------------------------------
	BYTE	PATT
	 POIN2	Colin_11_003
// 044   ----------------------------------------
	BYTE	PATT
	 POIN2	Colin_11_004
// 045   ----------------------------------------
	BYTE	W96
// 046   ----------------------------------------
	BYTE	W96
// 047   ----------------------------------------
	BYTE	W96
// 048   ----------------------------------------
	BYTE	W96
// 049   ----------------------------------------
	BYTE	W96
// 050   ----------------------------------------
	BYTE	W96
// 051   ----------------------------------------
	BYTE	W96
// 052   ----------------------------------------
	BYTE	W96
// 053   ----------------------------------------
	BYTE	W96
// 054   ----------------------------------------
	BYTE	W96
// 055   ----------------------------------------
	BYTE	W96
// 056   ----------------------------------------
	BYTE	W96
// 057   ----------------------------------------
	BYTE	W96
// 058   ----------------------------------------
	BYTE	W96
// 059   ----------------------------------------
	BYTE	W96
// 060   ----------------------------------------
	BYTE	W96
// 061   ----------------------------------------
	BYTE	W96
// 062   ----------------------------------------
	BYTE	W96
// 063   ----------------------------------------
	BYTE	W96
// 064   ----------------------------------------
	BYTE	W96
// 065   ----------------------------------------
	BYTE	W96
// 066   ----------------------------------------
	BYTE	W96
// 067   ----------------------------------------
	BYTE	W96
// 068   ----------------------------------------
	BYTE	W96
// 069   ----------------------------------------
	BYTE	W96
// 070   ----------------------------------------
	BYTE	W96
// 071   ----------------------------------------
	BYTE	W96
// 072   ----------------------------------------
	BYTE	PATT
	 POIN2	Colin_11_032
// 073   ----------------------------------------
	BYTE	PATT
	 POIN2	Colin_11_033
// 074   ----------------------------------------
	BYTE	PATT
	 POIN2	Colin_11_034
// 075   ----------------------------------------
	BYTE	PATT
	 POIN2	Colin_11_035
// 076   ----------------------------------------
	BYTE	PATT
	 POIN2	Colin_11_036
// 077   ----------------------------------------
	BYTE	PATT
	 POIN2	Colin_11_001
// 078   ----------------------------------------
	BYTE	PATT
	 POIN2	Colin_11_002
// 079   ----------------------------------------
	BYTE	PATT
	 POIN2	Colin_11_003
// 080   ----------------------------------------
	BYTE	PATT
	 POIN2	Colin_11_040
// 081   ----------------------------------------
	BYTE	PATT
	 POIN2	Colin_11_001
// 082   ----------------------------------------
	BYTE	PATT
	 POIN2	Colin_11_002
// 083   ----------------------------------------
	BYTE	PATT
	 POIN2	Colin_11_003
// 084   ----------------------------------------
	BYTE		N11     En1   v127
	BYTE	W12
	BYTE		        Fn1 
	BYTE	W12
	BYTE		        Gn1   v120
	BYTE	W12
	BYTE		        Cn2   v127
	BYTE	W12
	BYTE		        Bn1   v120
	BYTE	W12
	BYTE		        Cn2   v127
	BYTE	W12
	BYTE	FINE

//**************** Track 12 (Midi-Chn.1) ****************//

Colin_12:
	BYTE	KEYSH   Colin_key+0
// 000   ----------------------------------------
	BYTE		VOICE   71
	BYTE		VOL     95*Colin_mvl/mxv
	BYTE		PAN     c_v+11
	BYTE	W24
// 001   ----------------------------------------
	BYTE	W48
	BYTE		N02     Bn3   v072
	BYTE	W06
	BYTE		        Cn4   v068
	BYTE	W06
	BYTE		        Bn3   v064
	BYTE	W06
	BYTE		        Cn4   v076
	BYTE	W06
	BYTE		N05     Fn4 
	BYTE	W12
	BYTE		N80     Ds4   v064
	BYTE	W12
// 002   ----------------------------------------
	BYTE	W96
// 003   ----------------------------------------
	BYTE	W48
	BYTE		BEND    c_v+0
	BYTE		N92     Bn3   v072
	BYTE	W06
	BYTE		BEND    c_v+32
	BYTE	W06
	BYTE		        c_v+0
	BYTE	W06
	BYTE		        c_v+32
	BYTE	W06
	BYTE		        c_v+0
	BYTE	W06
	BYTE		        c_v+32
	BYTE	W06
	BYTE		        c_v+0
	BYTE	W06
	BYTE		        c_v+32
	BYTE	W06
// 004   ----------------------------------------
	BYTE		        c_v+0
	BYTE	W06
	BYTE		        c_v+32
	BYTE	W06
	BYTE		        c_v+0
	BYTE	W06
	BYTE		        c_v+32
	BYTE	W06
	BYTE		        c_v+0
	BYTE	W06
	BYTE		        c_v+32
	BYTE	W06
	BYTE		        c_v+0
	BYTE	W06
	BYTE		        c_v+32
	BYTE	W06
	BYTE		        c_v+0
	BYTE		N23     En4 
	BYTE	W06
	BYTE		BEND    c_v+32
	BYTE	W06
	BYTE		        c_v+0
	BYTE	W06
	BYTE		        c_v+32
	BYTE	W06
	BYTE		        c_v+0
	BYTE	W24
// 005   ----------------------------------------
	BYTE	W96
// 006   ----------------------------------------
	BYTE	W96
// 007   ----------------------------------------
	BYTE	W96
// 008   ----------------------------------------
	BYTE	W72
	BYTE		        c_v+0
	BYTE	W24
// 009   ----------------------------------------
	BYTE	W96
// 010   ----------------------------------------
	BYTE	W96
// 011   ----------------------------------------
	BYTE	W96
// 012   ----------------------------------------
	BYTE	W72
	BYTE		        c_v+0
	BYTE	W24
// 013   ----------------------------------------
	BYTE	W96
// 014   ----------------------------------------
	BYTE	W96
// 015   ----------------------------------------
	BYTE	W96
// 016   ----------------------------------------
	BYTE	W96
// 017   ----------------------------------------
	BYTE	W96
// 018   ----------------------------------------
	BYTE	W96
// 019   ----------------------------------------
	BYTE	W96
// 020   ----------------------------------------
	BYTE	W96
// 021   ----------------------------------------
	BYTE	W96
// 022   ----------------------------------------
	BYTE	W96
// 023   ----------------------------------------
	BYTE	W96
// 024   ----------------------------------------
	BYTE	W96
// 025   ----------------------------------------
	BYTE	W96
// 026   ----------------------------------------
	BYTE	W96
// 027   ----------------------------------------
	BYTE	W96
// 028   ----------------------------------------
	BYTE	W96
// 029   ----------------------------------------
	BYTE	W96
// 030   ----------------------------------------
	BYTE	W96
// 031   ----------------------------------------
	BYTE	W96
// 032   ----------------------------------------
	BYTE	W96
// 033   ----------------------------------------
	BYTE	W96
// 034   ----------------------------------------
	BYTE	W96
// 035   ----------------------------------------
	BYTE	W96
// 036   ----------------------------------------
	BYTE	W96
// 037   ----------------------------------------
Colin_12_037:
	BYTE	W48
	BYTE		N05     Bn3   v064
	BYTE	W06
	BYTE		        Cn4 
	BYTE	W06
	BYTE		        Bn3   v056
	BYTE	W06
	BYTE		        Cn4   v072
	BYTE	W06
	BYTE		        Fn4   v068
	BYTE	W12
	BYTE		N80     Ds4   v060
	BYTE	W12
	BYTE	PEND
// 038   ----------------------------------------
	BYTE	W96
// 039   ----------------------------------------
Colin_12_039:
	BYTE	W48
	BYTE		BEND    c_v+0
	BYTE		N92     Bn3   v064
	BYTE	W06
	BYTE		BEND    c_v+32
	BYTE	W06
	BYTE		        c_v+0
	BYTE	W06
	BYTE		        c_v+32
	BYTE	W06
	BYTE		        c_v+0
	BYTE	W06
	BYTE		        c_v+32
	BYTE	W06
	BYTE		        c_v+0
	BYTE	W06
	BYTE		        c_v+32
	BYTE	W06
	BYTE	PEND
// 040   ----------------------------------------
Colin_12_040:
	BYTE		BEND    c_v+0
	BYTE	W06
	BYTE		        c_v+32
	BYTE	W06
	BYTE		        c_v+0
	BYTE	W06
	BYTE		        c_v+32
	BYTE	W06
	BYTE		        c_v+0
	BYTE	W06
	BYTE		        c_v+32
	BYTE	W06
	BYTE		        c_v+0
	BYTE	W06
	BYTE		        c_v+32
	BYTE	W06
	BYTE		        c_v+0
	BYTE		N23     En4   v064
	BYTE	W06
	BYTE		BEND    c_v+32
	BYTE	W06
	BYTE		        c_v+0
	BYTE	W06
	BYTE		        c_v+32
	BYTE	W06
	BYTE		        c_v+0
	BYTE	W24
	BYTE	PEND
// 041   ----------------------------------------
Colin_12_041:
	BYTE	W48
	BYTE		N05     Bn3   v056
	BYTE	W06
	BYTE		        Cn4   v052
	BYTE	W06
	BYTE		        Bn3   v048
	BYTE	W06
	BYTE		        Cn4   v060
	BYTE	W06
	BYTE		        Fn4 
	BYTE	W12
	BYTE		N80     Ds4   v048
	BYTE	W12
	BYTE	PEND
// 042   ----------------------------------------
	BYTE	W96
// 043   ----------------------------------------
Colin_12_043:
	BYTE	W48
	BYTE		BEND    c_v+0
	BYTE		N92     Bn3   v056
	BYTE	W06
	BYTE		BEND    c_v+32
	BYTE	W06
	BYTE		        c_v+0
	BYTE	W06
	BYTE		        c_v+32
	BYTE	W06
	BYTE		        c_v+0
	BYTE	W06
	BYTE		        c_v+32
	BYTE	W06
	BYTE		        c_v+0
	BYTE	W06
	BYTE		        c_v+32
	BYTE	W06
	BYTE	PEND
// 044   ----------------------------------------
	BYTE		        c_v+0
	BYTE	W06
	BYTE		        c_v+32
	BYTE	W06
	BYTE		        c_v+0
	BYTE	W06
	BYTE		        c_v+32
	BYTE	W06
	BYTE		        c_v+0
	BYTE	W06
	BYTE		        c_v+32
	BYTE	W06
	BYTE		        c_v+0
	BYTE	W06
	BYTE		        c_v+32
	BYTE	W06
	BYTE		        c_v+0
	BYTE		N23     En4 
	BYTE	W06
	BYTE		BEND    c_v+32
	BYTE	W06
	BYTE		        c_v+0
	BYTE	W06
	BYTE		        c_v+32
	BYTE	W06
	BYTE		        c_v+0
	BYTE	W24
// 045   ----------------------------------------
	BYTE	W96
// 046   ----------------------------------------
	BYTE	W96
// 047   ----------------------------------------
	BYTE	W96
// 048   ----------------------------------------
	BYTE	W72
	BYTE		        c_v+0
	BYTE	W24
// 049   ----------------------------------------
	BYTE	W96
// 050   ----------------------------------------
	BYTE	W96
// 051   ----------------------------------------
	BYTE	W96
// 052   ----------------------------------------
	BYTE	W72
	BYTE		        c_v+0
	BYTE	W24
// 053   ----------------------------------------
	BYTE	W96
// 054   ----------------------------------------
	BYTE	W96
// 055   ----------------------------------------
	BYTE	W96
// 056   ----------------------------------------
	BYTE	W96
// 057   ----------------------------------------
	BYTE	W96
// 058   ----------------------------------------
	BYTE	W96
// 059   ----------------------------------------
	BYTE	W96
// 060   ----------------------------------------
	BYTE	W96
// 061   ----------------------------------------
	BYTE	W96
// 062   ----------------------------------------
	BYTE	W96
// 063   ----------------------------------------
	BYTE	W96
// 064   ----------------------------------------
	BYTE	W96
// 065   ----------------------------------------
	BYTE	W96
// 066   ----------------------------------------
	BYTE	W96
// 067   ----------------------------------------
	BYTE	W96
// 068   ----------------------------------------
	BYTE	W96
// 069   ----------------------------------------
	BYTE	W96
// 070   ----------------------------------------
	BYTE	W96
// 071   ----------------------------------------
	BYTE	W96
// 072   ----------------------------------------
	BYTE	W96
// 073   ----------------------------------------
	BYTE	W96
// 074   ----------------------------------------
	BYTE	W96
// 075   ----------------------------------------
	BYTE	W96
// 076   ----------------------------------------
	BYTE	W96
// 077   ----------------------------------------
	BYTE	PATT
	 POIN2	Colin_12_037
// 078   ----------------------------------------
	BYTE	W96
// 079   ----------------------------------------
	BYTE	PATT
	 POIN2	Colin_12_039
// 080   ----------------------------------------
	BYTE	PATT
	 POIN2	Colin_12_040
// 081   ----------------------------------------
	BYTE	PATT
	 POIN2	Colin_12_041
// 082   ----------------------------------------
	BYTE	W96
// 083   ----------------------------------------
	BYTE	PATT
	 POIN2	Colin_12_043
// 084   ----------------------------------------
	BYTE		BEND    c_v+0
	BYTE	W06
	BYTE		        c_v+32
	BYTE	W06
	BYTE		        c_v+0
	BYTE	W06
	BYTE		        c_v+32
	BYTE	W06
	BYTE		        c_v+0
	BYTE	W06
	BYTE		        c_v+32
	BYTE	W06
	BYTE		        c_v+0
	BYTE	W06
	BYTE		        c_v+32
	BYTE	W06
	BYTE		        c_v+0
	BYTE		N23     En4   v056
	BYTE	W06
	BYTE		BEND    c_v+32
	BYTE	W06
	BYTE		        c_v+0
	BYTE	W06
	BYTE		        c_v+32
	BYTE	W05
	BYTE	FINE

//**************** Track 13 (Midi-Chn.2) ****************//

Colin_13:
	BYTE	KEYSH   Colin_key+0
// 000   ----------------------------------------
	BYTE		VOICE   56
	BYTE		PAN     c_v-64
	BYTE		VOL     127*Colin_mvl/mxv
	BYTE	W24
// 001   ----------------------------------------
	BYTE	W96
// 002   ----------------------------------------
	BYTE	W96
// 003   ----------------------------------------
	BYTE	W96
// 004   ----------------------------------------
Colin_13_004:
	BYTE	W72
	BYTE		BEND    c_v+0
	BYTE		N11     Fn3   v120
	BYTE	W12
	BYTE		N05     Cn4 
	BYTE	W12
	BYTE	PEND
// 005   ----------------------------------------
Colin_13_005:
	BYTE		N05     Bn3   v116
	BYTE	W12
	BYTE		N64     Cn4   v084
	BYTE	W72
	BYTE		N12     As3   v104
	BYTE	W12
	BYTE	PEND
// 006   ----------------------------------------
Colin_13_006:
	BYTE		N12     An3   v104
	BYTE	W12
	BYTE		N06     Cn4 
	BYTE	W12
	BYTE		N23     As3   v112
	BYTE	W24
	BYTE		N06     An3   v104
	BYTE	W12
	BYTE		N11     Gn3   v088
	BYTE	W12
	BYTE		N23     An3   v096
	BYTE	W24
	BYTE	PEND
// 007   ----------------------------------------
Colin_13_007:
	BYTE		N06     Fn3   v104
	BYTE	W18
	BYTE		N05     An3   v116
	BYTE	W06
	BYTE		N23     Cn4   v124
	BYTE	W24
	BYTE		        As3   v108
	BYTE	W24
	BYTE		N12     An3   v096
	BYTE	W12
	BYTE		        Gn3 
	BYTE	W12
	BYTE	PEND
// 008   ----------------------------------------
Colin_13_008:
	BYTE		N12     Fn3   v104
	BYTE	W12
	BYTE		N05     Gn3   v096
	BYTE	W06
	BYTE		        An3 
	BYTE	W06
	BYTE		N32     Gn3   v088
	BYTE	W36
	BYTE		N05     Fn3   v100
	BYTE	W06
	BYTE		        En3 
	BYTE	W06
	BYTE		BEND    c_v+0
	BYTE		N11     Fn3   v127
	BYTE	W12
	BYTE		N05     Cn4   v108
	BYTE	W12
	BYTE	PEND
// 009   ----------------------------------------
Colin_13_009:
	BYTE		N06     Bn3   v108
	BYTE	W12
	BYTE		N64     Cn4   v084
	BYTE	W72
	BYTE		N11     As3   v120
	BYTE	W12
	BYTE	PEND
// 010   ----------------------------------------
Colin_13_010:
	BYTE		N05     An3   v112
	BYTE	W12
	BYTE		N11     Cn4   v120
	BYTE	W12
	BYTE		N23     As3   v096
	BYTE	W24
	BYTE		N11     An3 
	BYTE	W12
	BYTE		        As3   v104
	BYTE	W12
	BYTE		N23     Cn4   v096
	BYTE	W24
	BYTE	PEND
// 011   ----------------------------------------
Colin_13_011:
	BYTE		N23     Fn3   v096
	BYTE	W24
	BYTE		        Dn4 
	BYTE	W24
	BYTE		N11     Cn4   v088
	BYTE	W12
	BYTE		        As3 
	BYTE	W12
	BYTE		        An3   v096
	BYTE	W12
	BYTE		        As3 
	BYTE	W12
	BYTE	PEND
// 012   ----------------------------------------
Colin_13_012:
	BYTE		N17     Cn4   v088
	BYTE	W18
	BYTE		N05     Bn3 
	BYTE	W06
	BYTE		N23     Cn4 
	BYTE	W24
	BYTE		N11     Dn4   v084
	BYTE	W12
	BYTE		        En4 
	BYTE	W12
	BYTE		BEND    c_v+0
	BYTE		N05     Fn4   v096
	BYTE	W12
	BYTE		        Cn4 
	BYTE	W12
	BYTE	PEND
// 013   ----------------------------------------
Colin_13_013:
	BYTE		N05     Bn3   v096
	BYTE	W12
	BYTE		N66     Cn4   v084
	BYTE	W72
	BYTE		N12     As3   v104
	BYTE	W12
	BYTE	PEND
// 014   ----------------------------------------
Colin_13_014:
	BYTE		N12     An3   v104
	BYTE	W12
	BYTE		        Cn4 
	BYTE	W12
	BYTE		N23     As3   v096
	BYTE	W24
	BYTE		N11     An3 
	BYTE	W12
	BYTE		        Gn3   v088
	BYTE	W12
	BYTE		N23     An3   v096
	BYTE	W24
	BYTE	PEND
// 015   ----------------------------------------
Colin_13_015:
	BYTE		N11     Fn3   v096
	BYTE	W12
	BYTE		        An3 
	BYTE	W12
	BYTE		N23     Cn4 
	BYTE	W24
	BYTE		        As3   v088
	BYTE	W24
	BYTE		N11     An3   v096
	BYTE	W12
	BYTE		        Gn3 
	BYTE	W12
	BYTE	PEND
// 016   ----------------------------------------
Colin_13_016:
	BYTE		N11     Fn3   v088
	BYTE	W12
	BYTE		N05     Gn3   v096
	BYTE	W06
	BYTE		        An3 
	BYTE	W06
	BYTE		N44     Gn3   v088
	BYTE	W48
	BYTE		N05     Fn3   v096
	BYTE	W12
	BYTE		        Cn4 
	BYTE	W12
	BYTE	PEND
// 017   ----------------------------------------
Colin_13_017:
	BYTE		N05     Bn3   v096
	BYTE	W12
	BYTE		N80     Cn4   v084
	BYTE	W84
	BYTE	PEND
// 018   ----------------------------------------
Colin_13_018:
	BYTE		N11     As3   v088
	BYTE	W12
	BYTE		        An3   v096
	BYTE	W12
	BYTE		N23     Gn3 
	BYTE	W24
	BYTE		N11     Fn3   v088
	BYTE	W12
	BYTE		        Gn3 
	BYTE	W12
	BYTE		N23     Gs3   v096
	BYTE	W24
	BYTE	PEND
// 019   ----------------------------------------
Colin_13_019:
	BYTE		N11     Gn3   v096
	BYTE	W12
	BYTE		        Gs3 
	BYTE	W12
	BYTE		        As3 
	BYTE	W12
	BYTE		N05     Gs3 
	BYTE	W06
	BYTE		        As3 
	BYTE	W06
	BYTE		N11     Cn4   v088
	BYTE	W12
	BYTE		        Dn4 
	BYTE	W12
	BYTE		N23     Ds4   v096
	BYTE	W24
	BYTE	PEND
// 020   ----------------------------------------
Colin_13_020:
	BYTE		N23     Dn4   v096
	BYTE	W24
	BYTE		        Cn4 
	BYTE	W24
	BYTE		        Bn3 
	BYTE	W24
	BYTE		N92     Cn4 
	BYTE	W24
	BYTE	PEND
// 021   ----------------------------------------
	BYTE	W12
	BYTE		VOL     127*Colin_mvl/mxv
	BYTE	W01
	BYTE		        125*Colin_mvl/mxv
	BYTE	W01
	BYTE		        123*Colin_mvl/mxv
	BYTE	W01
	BYTE		        121*Colin_mvl/mxv
	BYTE	W01
	BYTE		        119*Colin_mvl/mxv
	BYTE	W01
	BYTE		        117*Colin_mvl/mxv
	BYTE	W01
	BYTE		        115*Colin_mvl/mxv
	BYTE	W01
	BYTE		        113*Colin_mvl/mxv
	BYTE	W01
	BYTE		        111*Colin_mvl/mxv
	BYTE	W01
	BYTE		        109*Colin_mvl/mxv
	BYTE	W01
	BYTE		        107*Colin_mvl/mxv
	BYTE	W01
	BYTE		        104*Colin_mvl/mxv
	BYTE	W01
	BYTE		        102*Colin_mvl/mxv
	BYTE	W01
	BYTE		        100*Colin_mvl/mxv
	BYTE	W01
	BYTE		        98*Colin_mvl/mxv
	BYTE	W01
	BYTE		        96*Colin_mvl/mxv
	BYTE	W01
	BYTE		        94*Colin_mvl/mxv
	BYTE	W01
	BYTE		        91*Colin_mvl/mxv
	BYTE	W01
	BYTE		        89*Colin_mvl/mxv
	BYTE	W01
	BYTE		        87*Colin_mvl/mxv
	BYTE	W01
	BYTE		        85*Colin_mvl/mxv
	BYTE	W01
	BYTE		        83*Colin_mvl/mxv
	BYTE	W01
	BYTE		        81*Colin_mvl/mxv
	BYTE	W01
	BYTE		        79*Colin_mvl/mxv
	BYTE	W01
	BYTE		        77*Colin_mvl/mxv
	BYTE	W01
	BYTE		        75*Colin_mvl/mxv
	BYTE	W01
	BYTE		        73*Colin_mvl/mxv
	BYTE	W01
	BYTE		        71*Colin_mvl/mxv
	BYTE	W01
	BYTE		        69*Colin_mvl/mxv
	BYTE	W01
	BYTE		        66*Colin_mvl/mxv
	BYTE	W01
	BYTE		        64*Colin_mvl/mxv
	BYTE	W01
	BYTE		        62*Colin_mvl/mxv
	BYTE	W01
	BYTE		        60*Colin_mvl/mxv
	BYTE	W01
	BYTE		        58*Colin_mvl/mxv
	BYTE	W01
	BYTE		        56*Colin_mvl/mxv
	BYTE	W01
	BYTE		        53*Colin_mvl/mxv
	BYTE	W01
	BYTE		        51*Colin_mvl/mxv
	BYTE	W01
	BYTE		        49*Colin_mvl/mxv
	BYTE	W01
	BYTE		        47*Colin_mvl/mxv
	BYTE	W01
	BYTE		        45*Colin_mvl/mxv
	BYTE	W01
	BYTE		        43*Colin_mvl/mxv
	BYTE	W01
	BYTE		        41*Colin_mvl/mxv
	BYTE	W01
	BYTE		        39*Colin_mvl/mxv
	BYTE	W01
	BYTE		        37*Colin_mvl/mxv
	BYTE	W01
	BYTE		        35*Colin_mvl/mxv
	BYTE	W01
	BYTE		        33*Colin_mvl/mxv
	BYTE	W01
	BYTE		        31*Colin_mvl/mxv
	BYTE	W01
	BYTE		        28*Colin_mvl/mxv
	BYTE	W01
	BYTE		        26*Colin_mvl/mxv
	BYTE	W01
	BYTE		        24*Colin_mvl/mxv
	BYTE	W01
	BYTE		        22*Colin_mvl/mxv
	BYTE	W01
	BYTE		        20*Colin_mvl/mxv
	BYTE	W01
	BYTE		        18*Colin_mvl/mxv
	BYTE	W01
	BYTE		        15*Colin_mvl/mxv
	BYTE	W01
	BYTE		        13*Colin_mvl/mxv
	BYTE	W30
// 022   ----------------------------------------
	BYTE	W96
// 023   ----------------------------------------
	BYTE	W96
// 024   ----------------------------------------
	BYTE	W96
// 025   ----------------------------------------
	BYTE	W96
// 026   ----------------------------------------
	BYTE	W96
// 027   ----------------------------------------
	BYTE	W96
// 028   ----------------------------------------
	BYTE	W96
// 029   ----------------------------------------
	BYTE	W96
// 030   ----------------------------------------
	BYTE	W96
// 031   ----------------------------------------
	BYTE	W96
// 032   ----------------------------------------
	BYTE	W96
// 033   ----------------------------------------
	BYTE	W96
// 034   ----------------------------------------
	BYTE	W96
// 035   ----------------------------------------
	BYTE	W96
// 036   ----------------------------------------
	BYTE	W96
// 037   ----------------------------------------
	BYTE	W96
// 038   ----------------------------------------
	BYTE	W96
// 039   ----------------------------------------
	BYTE	W96
// 040   ----------------------------------------
	BYTE	W72
	BYTE		        127*Colin_mvl/mxv
	BYTE	W24
// 041   ----------------------------------------
	BYTE	W96
// 042   ----------------------------------------
	BYTE	W96
// 043   ----------------------------------------
	BYTE	W96
// 044   ----------------------------------------
	BYTE	PATT
	 POIN2	Colin_13_004
// 045   ----------------------------------------
	BYTE	PATT
	 POIN2	Colin_13_005
// 046   ----------------------------------------
	BYTE	PATT
	 POIN2	Colin_13_006
// 047   ----------------------------------------
	BYTE	PATT
	 POIN2	Colin_13_007
// 048   ----------------------------------------
	BYTE	PATT
	 POIN2	Colin_13_008
// 049   ----------------------------------------
	BYTE	PATT
	 POIN2	Colin_13_009
// 050   ----------------------------------------
	BYTE	PATT
	 POIN2	Colin_13_010
// 051   ----------------------------------------
	BYTE	PATT
	 POIN2	Colin_13_011
// 052   ----------------------------------------
	BYTE	PATT
	 POIN2	Colin_13_012
// 053   ----------------------------------------
	BYTE	PATT
	 POIN2	Colin_13_013
// 054   ----------------------------------------
	BYTE	PATT
	 POIN2	Colin_13_014
// 055   ----------------------------------------
	BYTE	PATT
	 POIN2	Colin_13_015
// 056   ----------------------------------------
	BYTE	PATT
	 POIN2	Colin_13_016
// 057   ----------------------------------------
	BYTE	PATT
	 POIN2	Colin_13_017
// 058   ----------------------------------------
	BYTE	PATT
	 POIN2	Colin_13_018
// 059   ----------------------------------------
	BYTE	PATT
	 POIN2	Colin_13_019
// 060   ----------------------------------------
	BYTE	PATT
	 POIN2	Colin_13_020
// 061   ----------------------------------------
	BYTE	W12
	BYTE		VOL     127*Colin_mvl/mxv
	BYTE	W01
	BYTE		        125*Colin_mvl/mxv
	BYTE	W01
	BYTE		        123*Colin_mvl/mxv
	BYTE	W01
	BYTE		        121*Colin_mvl/mxv
	BYTE	W01
	BYTE		        119*Colin_mvl/mxv
	BYTE	W01
	BYTE		        117*Colin_mvl/mxv
	BYTE	W01
	BYTE		        115*Colin_mvl/mxv
	BYTE	W01
	BYTE		        113*Colin_mvl/mxv
	BYTE	W01
	BYTE		        111*Colin_mvl/mxv
	BYTE	W01
	BYTE		        109*Colin_mvl/mxv
	BYTE	W01
	BYTE		        107*Colin_mvl/mxv
	BYTE	W01
	BYTE		        104*Colin_mvl/mxv
	BYTE	W01
	BYTE		        102*Colin_mvl/mxv
	BYTE	W01
	BYTE		        100*Colin_mvl/mxv
	BYTE	W01
	BYTE		        98*Colin_mvl/mxv
	BYTE	W01
	BYTE		        96*Colin_mvl/mxv
	BYTE	W01
	BYTE		        94*Colin_mvl/mxv
	BYTE	W01
	BYTE		        91*Colin_mvl/mxv
	BYTE	W01
	BYTE		        89*Colin_mvl/mxv
	BYTE	W01
	BYTE		        87*Colin_mvl/mxv
	BYTE	W01
	BYTE		        85*Colin_mvl/mxv
	BYTE	W01
	BYTE		        83*Colin_mvl/mxv
	BYTE	W01
	BYTE		        81*Colin_mvl/mxv
	BYTE	W01
	BYTE		        79*Colin_mvl/mxv
	BYTE	W01
	BYTE		        77*Colin_mvl/mxv
	BYTE	W01
	BYTE		        75*Colin_mvl/mxv
	BYTE	W01
	BYTE		        73*Colin_mvl/mxv
	BYTE	W01
	BYTE		        71*Colin_mvl/mxv
	BYTE	W01
	BYTE		        69*Colin_mvl/mxv
	BYTE	W01
	BYTE		        66*Colin_mvl/mxv
	BYTE	W01
	BYTE		        64*Colin_mvl/mxv
	BYTE	W01
	BYTE		        62*Colin_mvl/mxv
	BYTE	W01
	BYTE		        60*Colin_mvl/mxv
	BYTE	W01
	BYTE		        58*Colin_mvl/mxv
	BYTE	W01
	BYTE		        56*Colin_mvl/mxv
	BYTE	W01
	BYTE		        53*Colin_mvl/mxv
	BYTE	W01
	BYTE		        51*Colin_mvl/mxv
	BYTE	W01
	BYTE		        49*Colin_mvl/mxv
	BYTE	W01
	BYTE		        47*Colin_mvl/mxv
	BYTE	W01
	BYTE		        45*Colin_mvl/mxv
	BYTE	W01
	BYTE		        43*Colin_mvl/mxv
	BYTE	W01
	BYTE		        41*Colin_mvl/mxv
	BYTE	W01
	BYTE		        39*Colin_mvl/mxv
	BYTE	W01
	BYTE		        37*Colin_mvl/mxv
	BYTE	W01
	BYTE		        35*Colin_mvl/mxv
	BYTE	W01
	BYTE		        33*Colin_mvl/mxv
	BYTE	W01
	BYTE		        31*Colin_mvl/mxv
	BYTE	W01
	BYTE		        28*Colin_mvl/mxv
	BYTE	W01
	BYTE		        26*Colin_mvl/mxv
	BYTE	W01
	BYTE		        24*Colin_mvl/mxv
	BYTE	W01
	BYTE		        22*Colin_mvl/mxv
	BYTE	W01
	BYTE		        20*Colin_mvl/mxv
	BYTE	W01
	BYTE		        18*Colin_mvl/mxv
	BYTE	W01
	BYTE		        15*Colin_mvl/mxv
	BYTE	W01
	BYTE		        13*Colin_mvl/mxv
	BYTE	W05
	BYTE	FINE

//******************************************************//
	ALIGN 4

Colin:
	BYTE	13	// NumTrks
	BYTE	0	// NumBlks
	BYTE	Colin_pri	// Priority
	BYTE	Colin_rev	// Reverb.

	POIN2	Colin_grp

	POIN2	Colin_1
	POIN2	Colin_2
	POIN2	Colin_3
	POIN2	Colin_4
	POIN2	Colin_5
	POIN2	Colin_6
	POIN2	Colin_7
	POIN2	Colin_8
	POIN2	Colin_9
	POIN2	Colin_10
	POIN2	Colin_11
	POIN2	Colin_12
	POIN2	Colin_13

	
