//Event file generated from Sappy .s format.
	#include "MPlayDef.event"

	#define	decisive2_grp  voicegroup000
	#define	decisive2_pri  0
	#define	decisive2_rev  0
	#define	decisive2_mvl  63
	#define	decisive2_key  0
	#define	decisive2_tbs  1
	#define	decisive2_exg  0
	#define	decisive2_cmp  1

	// .rodata
	//	decisive2
	ALIGN 4

//**************** Track 1 (Midi-Chn.1) ****************//

decisive2_1:
	BYTE	KEYSH   decisive2_key+0
// 000   ----------------------------------------
	BYTE	TEMPO   280*decisive2_tbs/2
	BYTE		VOICE   47
	BYTE	W24
	BYTE	W01
	BYTE		PAN     c_v+0
	BYTE	W02
	BYTE		VOL     110*decisive2_mvl/mxv
	BYTE	W01
	BYTE	W02
	BYTE	W01
	BYTE	W02
	BYTE	W01
	BYTE	W60
	BYTE	W02
// 001   ----------------------------------------
	BYTE	W96
// 002   ----------------------------------------
	BYTE	TEMPO   150*decisive2_tbs/2
	BYTE		N22     En1   v048
	BYTE		N22     En2   v112
	BYTE	W36
	BYTE		        En1   v048
	BYTE		N22     En2   v112
	BYTE	W36
	BYTE		        En1   v048
	BYTE		N22     En2   v104
	BYTE	W24
// 003   ----------------------------------------
decisive2_1_003:
	BYTE	W12
	BYTE		N22     En1   v048
	BYTE		N22     En2   v112
	BYTE	W36
	BYTE		        Gn0   v064
	BYTE		N22     Gn1   v127
	BYTE	W24
	BYTE		        Gn0   v064
	BYTE		N22     Gn1   v127
	BYTE	W24
	BYTE	PEND
// 004   ----------------------------------------
decisive2_1_004:
	BYTE		N22     En1   v048
	BYTE		N22     En2   v112
	BYTE	W36
	BYTE		        En1   v048
	BYTE		N22     En2   v096
	BYTE	W36
	BYTE		        En1   v048
	BYTE		N22     En2   v104
	BYTE	W24
	BYTE	PEND
// 005   ----------------------------------------
	BYTE	W12
	BYTE		        En1   v048
	BYTE		N22     En2   v112
	BYTE	W36
	BYTE		N40     Gn0   v064
	BYTE		N40     Gn1   v127
	BYTE	W40
	BYTE		N02     Gn0   v080
	BYTE		N02     Gn1 
	BYTE	W04
	BYTE		N01     Gn0 
	BYTE		N01     Gn1 
	BYTE	W04
// 006   ----------------------------------------
	BYTE	PATT
	POIN2	decisive2_1_004
// 007   ----------------------------------------
	BYTE	PATT
	POIN2	decisive2_1_003
// 008   ----------------------------------------
decisive2_1_008:
	BYTE		N22     En1   v048
	BYTE		N22     En2   v112
	BYTE	W36
	BYTE		        En1   v048
	BYTE		N22     En2   v112
	BYTE	W36
	BYTE		        En1   v048
	BYTE		N22     En2   v112
	BYTE	W24
	BYTE	PEND
// 009   ----------------------------------------
decisive2_1_009:
	BYTE	W12
	BYTE		N22     En1   v048
	BYTE		N22     En2   v112
	BYTE	W36
	BYTE		        Gn0   v064
	BYTE		N22     Gn1   v127
	BYTE	W24
	BYTE		N16     Gn0   v064
	BYTE		N16     Gn1   v127
	BYTE	W16
	BYTE		N02     Gn0   v080
	BYTE		N02     Gn1 
	BYTE	W04
	BYTE		        Gn0 
	BYTE		N02     Gn1 
	BYTE	W04
	BYTE	PEND
// 010   ----------------------------------------
	BYTE	PATT
	POIN2	decisive2_1_008
// 011   ----------------------------------------
	BYTE	PATT
	POIN2	decisive2_1_003
// 012   ----------------------------------------
	BYTE	PATT
	POIN2	decisive2_1_008
// 013   ----------------------------------------
	BYTE	PATT
	POIN2	decisive2_1_009
// 014   ----------------------------------------
	BYTE	PATT
	POIN2	decisive2_1_008
// 015   ----------------------------------------
	BYTE	PATT
	POIN2	decisive2_1_003
// 016   ----------------------------------------
	BYTE	PATT
	POIN2	decisive2_1_008
// 017   ----------------------------------------
	BYTE	PATT
	POIN2	decisive2_1_009
// 018   ----------------------------------------
decisive2_1_018:
	BYTE		N22     En1   v048
	BYTE		N22     En2   v096
	BYTE	W36
	BYTE		        En1   v048
	BYTE		N22     En2   v096
	BYTE	W36
	BYTE		        En1   v048
	BYTE		N22     En2   v096
	BYTE	W24
	BYTE	PEND
// 019   ----------------------------------------
decisive2_1_019:
	BYTE	W12
	BYTE		N22     En1   v048
	BYTE		N22     En2   v096
	BYTE	W36
	BYTE		        Bn0   v064
	BYTE		N22     Bn1   v112
	BYTE	W24
	BYTE		        Bn0   v064
	BYTE		N22     Bn1   v112
	BYTE	W24
	BYTE	PEND
// 020   ----------------------------------------
	BYTE	PATT
	POIN2	decisive2_1_018
// 021   ----------------------------------------
decisive2_1_021:
	BYTE	W12
	BYTE		N22     En1   v048
	BYTE		N22     En2   v096
	BYTE	W36
	BYTE		        Bn0   v064
	BYTE		N22     Bn1   v127
	BYTE	W24
	BYTE		N16     Bn0   v064
	BYTE		N16     Bn1   v127
	BYTE	W16
	BYTE		N02     Bn0   v080
	BYTE		N02     Bn1 
	BYTE	W04
	BYTE		        Bn0 
	BYTE		N02     Bn1 
	BYTE	W04
	BYTE	PEND
// 022   ----------------------------------------
	BYTE	PATT
	POIN2	decisive2_1_018
// 023   ----------------------------------------
	BYTE	PATT
	POIN2	decisive2_1_019
// 024   ----------------------------------------
	BYTE	PATT
	POIN2	decisive2_1_018
// 025   ----------------------------------------
	BYTE	PATT
	POIN2	decisive2_1_021
// 026   ----------------------------------------
	BYTE	PATT
	POIN2	decisive2_1_018
// 027   ----------------------------------------
	BYTE	PATT
	POIN2	decisive2_1_019
// 028   ----------------------------------------
	BYTE	PATT
	POIN2	decisive2_1_018
// 029   ----------------------------------------
	BYTE	PATT
	POIN2	decisive2_1_021
// 030   ----------------------------------------
	BYTE	PATT
	POIN2	decisive2_1_018
// 031   ----------------------------------------
	BYTE	PATT
	POIN2	decisive2_1_019
// 032   ----------------------------------------
	BYTE	PATT
	POIN2	decisive2_1_018
// 033   ----------------------------------------
	BYTE	PATT
	POIN2	decisive2_1_021
// 034   ----------------------------------------
	BYTE	PATT
	POIN2	decisive2_1_018
// 035   ----------------------------------------
	BYTE	PATT
	POIN2	decisive2_1_019
// 036   ----------------------------------------
	BYTE	PATT
	POIN2	decisive2_1_018
// 037   ----------------------------------------
	BYTE	PATT
	POIN2	decisive2_1_021
// 038   ----------------------------------------
	BYTE	PATT
	POIN2	decisive2_1_018
// 039   ----------------------------------------
	BYTE	PATT
	POIN2	decisive2_1_019
// 040   ----------------------------------------
	BYTE	PATT
	POIN2	decisive2_1_018
// 041   ----------------------------------------
	BYTE	PATT
	POIN2	decisive2_1_021
// 042   ----------------------------------------
decisive2_1_042:
	BYTE		N22     En1   v112
	BYTE		N22     En2   v096
	BYTE	W36
	BYTE		        En1   v112
	BYTE		N22     En2   v096
	BYTE	W36
	BYTE		        En1   v112
	BYTE		N22     En2   v096
	BYTE	W24
	BYTE	PEND
// 043   ----------------------------------------
decisive2_1_043:
	BYTE	W12
	BYTE		N22     En1   v112
	BYTE		N22     En2   v096
	BYTE	W36
	BYTE		        Bn0   v080
	BYTE		N22     Bn1   v127
	BYTE	W24
	BYTE		        Bn0   v080
	BYTE		N22     Bn1   v127
	BYTE	W24
	BYTE	PEND
// 044   ----------------------------------------
	BYTE	PATT
	POIN2	decisive2_1_042
// 045   ----------------------------------------
decisive2_1_045:
	BYTE	W12
	BYTE		N22     En1   v112
	BYTE		N22     En2   v096
	BYTE	W36
	BYTE		        Bn0   v080
	BYTE		N22     Bn1   v127
	BYTE	W24
	BYTE		N16     Bn0   v080
	BYTE		N16     Bn1   v127
	BYTE	W16
	BYTE		N02     Bn0   v096
	BYTE		N02     Bn1   v112
	BYTE	W04
	BYTE		        Bn0   v096
	BYTE		N02     Bn1   v112
	BYTE	W04
	BYTE	PEND
// 046   ----------------------------------------
	BYTE	PATT
	POIN2	decisive2_1_042
// 047   ----------------------------------------
	BYTE	PATT
	POIN2	decisive2_1_043
// 048   ----------------------------------------
	BYTE	PATT
	POIN2	decisive2_1_042
// 049   ----------------------------------------
	BYTE	PATT
	POIN2	decisive2_1_045
// 050   ----------------------------------------
	BYTE	PATT
	POIN2	decisive2_1_004
// 051   ----------------------------------------
	BYTE	PATT
	POIN2	decisive2_1_003
// 052   ----------------------------------------
	BYTE	PATT
	POIN2	decisive2_1_008
// 053   ----------------------------------------
	BYTE	PATT
	POIN2	decisive2_1_009
// 054   ----------------------------------------
	BYTE	PATT
	POIN2	decisive2_1_008
// 055   ----------------------------------------
	BYTE	PATT
	POIN2	decisive2_1_003
// 056   ----------------------------------------
	BYTE	PATT
	POIN2	decisive2_1_008
// 057   ----------------------------------------
	BYTE	PATT
	POIN2	decisive2_1_009
// 058   ----------------------------------------
	BYTE	PATT
	POIN2	decisive2_1_008
// 059   ----------------------------------------
	BYTE	PATT
	POIN2	decisive2_1_003
// 060   ----------------------------------------
	BYTE	PATT
	POIN2	decisive2_1_008
// 061   ----------------------------------------
	BYTE	PATT
	POIN2	decisive2_1_009
// 062   ----------------------------------------
	BYTE	PATT
	POIN2	decisive2_1_018
// 063   ----------------------------------------
	BYTE	PATT
	POIN2	decisive2_1_019
// 064   ----------------------------------------
	BYTE	PATT
	POIN2	decisive2_1_018
// 065   ----------------------------------------
	BYTE	PATT
	POIN2	decisive2_1_021
// 066   ----------------------------------------
	BYTE	PATT
	POIN2	decisive2_1_018
// 067   ----------------------------------------
	BYTE	PATT
	POIN2	decisive2_1_019
// 068   ----------------------------------------
	BYTE	PATT
	POIN2	decisive2_1_018
// 069   ----------------------------------------
	BYTE	PATT
	POIN2	decisive2_1_021
// 070   ----------------------------------------
	BYTE	PATT
	POIN2	decisive2_1_018
// 071   ----------------------------------------
	BYTE	PATT
	POIN2	decisive2_1_019
// 072   ----------------------------------------
	BYTE	PATT
	POIN2	decisive2_1_018
// 073   ----------------------------------------
	BYTE	PATT
	POIN2	decisive2_1_021
// 074   ----------------------------------------
	BYTE	PATT
	POIN2	decisive2_1_018
// 075   ----------------------------------------
	BYTE	PATT
	POIN2	decisive2_1_019
// 076   ----------------------------------------
	BYTE	PATT
	POIN2	decisive2_1_018
// 077   ----------------------------------------
	BYTE	PATT
	POIN2	decisive2_1_021
// 078   ----------------------------------------
	BYTE	PATT
	POIN2	decisive2_1_042
// 079   ----------------------------------------
	BYTE	PATT
	POIN2	decisive2_1_043
// 080   ----------------------------------------
	BYTE	PATT
	POIN2	decisive2_1_042
// 081   ----------------------------------------
	BYTE	PATT
	POIN2	decisive2_1_045
// 082   ----------------------------------------
	BYTE	PATT
	POIN2	decisive2_1_042
// 083   ----------------------------------------
	BYTE	PATT
	POIN2	decisive2_1_043
// 084   ----------------------------------------
	BYTE	PATT
	POIN2	decisive2_1_042
// 085   ----------------------------------------
	BYTE	PATT
	POIN2	decisive2_1_045
// 086   ----------------------------------------
	BYTE	TEMPO   120*decisive2_tbs/2
	BYTE		N22     En1   v112
	BYTE		N22     En2   v096
	BYTE	W22
	BYTE	FINE

//**************** Track 2 (Midi-Chn.2) ****************//

decisive2_2:
	BYTE	KEYSH   decisive2_key+0
// 000   ----------------------------------------
	BYTE	W36
	BYTE		VOICE   56
	BYTE	W01
	BYTE		PAN     c_v-10
	BYTE	W02
	BYTE		VOL     80*decisive2_mvl/mxv
	BYTE	W01
	BYTE	W02
	BYTE	W03
	BYTE	W48
	BYTE	W03
// 001   ----------------------------------------
	BYTE	W96
// 002   ----------------------------------------
	BYTE	W96
// 003   ----------------------------------------
	BYTE	W96
// 004   ----------------------------------------
	BYTE	W96
// 005   ----------------------------------------
decisive2_2_005:
	BYTE	W36
	BYTE		N56     Cs4   v127
	BYTE		N56     Fn4   v096
	BYTE	W01
	BYTE	W01
	BYTE	W01
	BYTE	W01
	BYTE	W01
	BYTE	W01
	BYTE	W01
	BYTE	W01
	BYTE	W01
	BYTE	W01
	BYTE	W01
	BYTE	W01
	BYTE	W01
	BYTE	W01
	BYTE	W01
	BYTE	W01
	BYTE	W01
	BYTE	W01
	BYTE	W01
	BYTE	W01
	BYTE	W01
	BYTE	W01
	BYTE	W01
	BYTE	W01
	BYTE	W01
	BYTE	W01
	BYTE	W01
	BYTE	W01
	BYTE	W01
	BYTE	W01
	BYTE	W01
	BYTE	W01
	BYTE	W01
	BYTE	W01
	BYTE	W01
	BYTE	W01
	BYTE	W01
	BYTE	W01
	BYTE	W01
	BYTE	W01
	BYTE	W01
	BYTE	W01
	BYTE	W01
	BYTE	W01
	BYTE	W01
	BYTE	W01
	BYTE	W01
	BYTE	W01
	BYTE	W01
	BYTE	W02
	BYTE	W02
	BYTE	W01
	BYTE	W01
	BYTE	W01
	BYTE	W01
	BYTE	W01
	BYTE	W01
	BYTE	W01
	BYTE	PEND
// 006   ----------------------------------------
	BYTE	W96
// 007   ----------------------------------------
	BYTE	W96
// 008   ----------------------------------------
	BYTE	W96
// 009   ----------------------------------------
	BYTE	PATT
	POIN2	decisive2_2_005
// 010   ----------------------------------------
decisive2_2_010:
	BYTE	W12
	BYTE		N04     As3   v096
	BYTE		N04     Dn4 
	BYTE	W12
	BYTE		        As3 
	BYTE		N04     Dn4 
	BYTE	W24
	BYTE		        As3 
	BYTE		N04     Dn4 
	BYTE	W12
	BYTE		        As3 
	BYTE		N04     Dn4 
	BYTE	W24
	BYTE		        As3 
	BYTE		N04     Dn4 
	BYTE	W12
	BYTE	PEND
// 011   ----------------------------------------
decisive2_2_011:
	BYTE		N04     As3   v096
	BYTE		N04     Dn4 
	BYTE	W24
	BYTE		        As3 
	BYTE		N04     Dn4 
	BYTE	W12
	BYTE		        As3 
	BYTE		N04     Dn4 
	BYTE	W12
	BYTE		N17     Fn3 
	BYTE		N17     Cn4 
	BYTE	W24
	BYTE		        Fn3 
	BYTE		N17     Cn4 
	BYTE	W24
	BYTE	PEND
// 012   ----------------------------------------
decisive2_2_012:
	BYTE	W12
	BYTE		N04     As3   v096
	BYTE		N04     Dn4 
	BYTE	W12
	BYTE		        As3 
	BYTE		N04     Dn4 
	BYTE	W24
	BYTE		        As3 
	BYTE		N04     Dn4 
	BYTE	W12
	BYTE		        As3 
	BYTE		N04     Dn4 
	BYTE	W24
	BYTE		        As3 
	BYTE		N04     Dn4 
	BYTE	W12
	BYTE	PEND
// 013   ----------------------------------------
decisive2_2_013:
	BYTE		N04     As3   v096
	BYTE		N04     Dn4 
	BYTE	W24
	BYTE		        As3 
	BYTE		N04     Dn4 
	BYTE	W12
	BYTE		N56     Cs4   v127
	BYTE		N56     Fn4   v096
	BYTE	W01
	BYTE	W01
	BYTE	W01
	BYTE	W01
	BYTE	W01
	BYTE	W01
	BYTE	W01
	BYTE	W01
	BYTE	W01
	BYTE	W01
	BYTE	W01
	BYTE	W01
	BYTE	W01
	BYTE	W01
	BYTE	W01
	BYTE	W01
	BYTE	W01
	BYTE	W01
	BYTE	W01
	BYTE	W01
	BYTE	W01
	BYTE	W01
	BYTE	W01
	BYTE	W01
	BYTE	W01
	BYTE	W01
	BYTE	W01
	BYTE	W01
	BYTE	W01
	BYTE	W01
	BYTE	W01
	BYTE	W01
	BYTE	W01
	BYTE	W01
	BYTE	W01
	BYTE	W01
	BYTE	W01
	BYTE	W01
	BYTE	W01
	BYTE	W01
	BYTE	W01
	BYTE	W01
	BYTE	W01
	BYTE	W01
	BYTE	W01
	BYTE	W01
	BYTE	W01
	BYTE	W01
	BYTE	W01
	BYTE	W02
	BYTE	W02
	BYTE	W01
	BYTE	W01
	BYTE	W01
	BYTE	W01
	BYTE	W01
	BYTE	W01
	BYTE	W01
	BYTE	PEND
// 014   ----------------------------------------
	BYTE	PATT
	POIN2	decisive2_2_010
// 015   ----------------------------------------
	BYTE	PATT
	POIN2	decisive2_2_011
// 016   ----------------------------------------
	BYTE	PATT
	POIN2	decisive2_2_012
// 017   ----------------------------------------
	BYTE	PATT
	POIN2	decisive2_2_013
// 018   ----------------------------------------
decisive2_2_018:
	BYTE		VOL     70*decisive2_mvl/mxv
	BYTE	W12
	BYTE		N04     As3   v096
	BYTE		N04     Dn4 
	BYTE	W12
	BYTE		        As3 
	BYTE		N04     Dn4 
	BYTE	W24
	BYTE		        As3 
	BYTE		N04     Dn4 
	BYTE	W12
	BYTE		        As3 
	BYTE		N04     Dn4 
	BYTE	W24
	BYTE		        As3 
	BYTE		N04     Dn4 
	BYTE	W12
	BYTE	PEND
// 019   ----------------------------------------
	BYTE	PATT
	POIN2	decisive2_2_011
// 020   ----------------------------------------
	BYTE	PATT
	POIN2	decisive2_2_012
// 021   ----------------------------------------
	BYTE	PATT
	POIN2	decisive2_2_011
// 022   ----------------------------------------
	BYTE	PATT
	POIN2	decisive2_2_012
// 023   ----------------------------------------
	BYTE	PATT
	POIN2	decisive2_2_011
// 024   ----------------------------------------
	BYTE	PATT
	POIN2	decisive2_2_012
// 025   ----------------------------------------
	BYTE	PATT
	POIN2	decisive2_2_011
// 026   ----------------------------------------
	BYTE	PATT
	POIN2	decisive2_2_012
// 027   ----------------------------------------
	BYTE	PATT
	POIN2	decisive2_2_011
// 028   ----------------------------------------
	BYTE	PATT
	POIN2	decisive2_2_012
// 029   ----------------------------------------
	BYTE	PATT
	POIN2	decisive2_2_011
// 030   ----------------------------------------
	BYTE	PATT
	POIN2	decisive2_2_012
// 031   ----------------------------------------
	BYTE	PATT
	POIN2	decisive2_2_011
// 032   ----------------------------------------
	BYTE	PATT
	POIN2	decisive2_2_012
// 033   ----------------------------------------
	BYTE	PATT
	POIN2	decisive2_2_011
// 034   ----------------------------------------
	BYTE		VOL     80*decisive2_mvl/mxv
	BYTE	W96
// 035   ----------------------------------------
	BYTE	W96
// 036   ----------------------------------------
	BYTE	W96
// 037   ----------------------------------------
	BYTE	PATT
	POIN2	decisive2_2_005
// 038   ----------------------------------------
	BYTE	W96
// 039   ----------------------------------------
	BYTE	W96
// 040   ----------------------------------------
	BYTE	W96
// 041   ----------------------------------------
	BYTE	W96
// 042   ----------------------------------------
	BYTE	W96
// 043   ----------------------------------------
	BYTE	W96
// 044   ----------------------------------------
	BYTE	W96
// 045   ----------------------------------------
	BYTE	W96
// 046   ----------------------------------------
	BYTE	W96
// 047   ----------------------------------------
	BYTE	W96
// 048   ----------------------------------------
	BYTE	W96
// 049   ----------------------------------------
	BYTE	W96
// 050   ----------------------------------------
	BYTE	W96
// 051   ----------------------------------------
	BYTE	W96
// 052   ----------------------------------------
	BYTE	W96
// 053   ----------------------------------------
	BYTE	PATT
	POIN2	decisive2_2_005
// 054   ----------------------------------------
	BYTE	PATT
	POIN2	decisive2_2_010
// 055   ----------------------------------------
	BYTE	PATT
	POIN2	decisive2_2_011
// 056   ----------------------------------------
	BYTE	PATT
	POIN2	decisive2_2_012
// 057   ----------------------------------------
	BYTE	PATT
	POIN2	decisive2_2_013
// 058   ----------------------------------------
	BYTE	PATT
	POIN2	decisive2_2_010
// 059   ----------------------------------------
	BYTE	PATT
	POIN2	decisive2_2_011
// 060   ----------------------------------------
	BYTE	PATT
	POIN2	decisive2_2_012
// 061   ----------------------------------------
	BYTE	PATT
	POIN2	decisive2_2_013
// 062   ----------------------------------------
	BYTE	PATT
	POIN2	decisive2_2_018
// 063   ----------------------------------------
	BYTE	PATT
	POIN2	decisive2_2_011
// 064   ----------------------------------------
	BYTE	PATT
	POIN2	decisive2_2_012
// 065   ----------------------------------------
	BYTE	PATT
	POIN2	decisive2_2_011
// 066   ----------------------------------------
	BYTE	PATT
	POIN2	decisive2_2_012
// 067   ----------------------------------------
	BYTE	PATT
	POIN2	decisive2_2_011
// 068   ----------------------------------------
	BYTE	PATT
	POIN2	decisive2_2_012
// 069   ----------------------------------------
	BYTE	PATT
	POIN2	decisive2_2_011
// 070   ----------------------------------------
	BYTE		VOL     80*decisive2_mvl/mxv
	BYTE	W96
// 071   ----------------------------------------
	BYTE	W96
// 072   ----------------------------------------
	BYTE	W96
// 073   ----------------------------------------
	BYTE	PATT
	POIN2	decisive2_2_005
// 074   ----------------------------------------
	BYTE	W96
// 075   ----------------------------------------
	BYTE	W96
// 076   ----------------------------------------
	BYTE	W96
// 077   ----------------------------------------
	BYTE	W96
// 078   ----------------------------------------
	BYTE	W96
// 079   ----------------------------------------
	BYTE	W96
// 080   ----------------------------------------
	BYTE	W96
// 081   ----------------------------------------
	BYTE	W96
// 082   ----------------------------------------
	BYTE	W96
// 083   ----------------------------------------
	BYTE	W96
// 084   ----------------------------------------
	BYTE	W96
// 085   ----------------------------------------
	BYTE	W96
// 086   ----------------------------------------
	BYTE	FINE

//**************** Track 3 (Midi-Chn.3) ****************//

decisive2_3:
	BYTE	KEYSH   decisive2_key+0
// 000   ----------------------------------------
	BYTE	W48
	BYTE		VOICE   60
	BYTE	W01
	BYTE		PAN     c_v-5
	BYTE	W02
	BYTE		VOL     120*decisive2_mvl/mxv
	BYTE	W01
	BYTE	W02
	BYTE	W42
// 001   ----------------------------------------
	BYTE	W96
// 002   ----------------------------------------
	BYTE	W96
// 003   ----------------------------------------
	BYTE	W96
// 004   ----------------------------------------
	BYTE	W96
// 005   ----------------------------------------
	BYTE	W96
// 006   ----------------------------------------
decisive2_3_006:
	BYTE	W12
	BYTE		N04     As2   v112
	BYTE		N04     Dn3 
	BYTE	W12
	BYTE		        As2 
	BYTE		N04     Dn3 
	BYTE	W24
	BYTE		        As2 
	BYTE		N04     Dn3 
	BYTE	W12
	BYTE		        As2 
	BYTE		N04     Dn3 
	BYTE	W24
	BYTE		        As2 
	BYTE		N04     Dn3 
	BYTE	W12
	BYTE	PEND
// 007   ----------------------------------------
decisive2_3_007:
	BYTE		N04     As2   v112
	BYTE		N04     Dn3 
	BYTE	W24
	BYTE		        As2 
	BYTE		N04     Dn3 
	BYTE	W12
	BYTE		        As2 
	BYTE		N04     Dn3 
	BYTE	W12
	BYTE		N17     Fn2 
	BYTE		N17     Cn3 
	BYTE	W24
	BYTE		        Fn2 
	BYTE		N17     Cn3 
	BYTE	W24
	BYTE	PEND
// 008   ----------------------------------------
	BYTE	PATT
	POIN2	decisive2_3_006
// 009   ----------------------------------------
	BYTE	PATT
	POIN2	decisive2_3_007
// 010   ----------------------------------------
	BYTE	PATT
	POIN2	decisive2_3_006
// 011   ----------------------------------------
	BYTE	PATT
	POIN2	decisive2_3_007
// 012   ----------------------------------------
	BYTE	PATT
	POIN2	decisive2_3_006
// 013   ----------------------------------------
	BYTE	PATT
	POIN2	decisive2_3_007
// 014   ----------------------------------------
	BYTE	PATT
	POIN2	decisive2_3_006
// 015   ----------------------------------------
	BYTE	PATT
	POIN2	decisive2_3_007
// 016   ----------------------------------------
	BYTE	PATT
	POIN2	decisive2_3_006
// 017   ----------------------------------------
	BYTE	PATT
	POIN2	decisive2_3_007
// 018   ----------------------------------------
	BYTE	W12
	BYTE		VOL     127*decisive2_mvl/mxv
	BYTE	W01
	BYTE	W11
	BYTE		N18     En2   v127
	BYTE	W06
	BYTE	W01
	BYTE	W02
	BYTE	W01
	BYTE	W02
	BYTE	W01
	BYTE	W02
	BYTE	W01
	BYTE	W02
	BYTE	W01
	BYTE	W02
	BYTE	W01
	BYTE	W02
	BYTE		        Bn2 
	BYTE	W06
	BYTE	W01
	BYTE	W02
	BYTE	W01
	BYTE	W02
	BYTE	W01
	BYTE	W02
	BYTE	W01
	BYTE	W02
	BYTE	W01
	BYTE	W02
	BYTE	W01
	BYTE	W02
	BYTE		N04     An2 
	BYTE	W12
	BYTE		        Bn2 
	BYTE	W12
// 019   ----------------------------------------
decisive2_3_019:
	BYTE		N15     Dn3   v127
	BYTE	W06
	BYTE	W01
	BYTE	W02
	BYTE	W01
	BYTE	W02
	BYTE	W01
	BYTE	W02
	BYTE	W01
	BYTE	W02
	BYTE	W01
	BYTE	W02
	BYTE	W01
	BYTE	W02
	BYTE		N04     Cn3 
	BYTE	W12
	BYTE		N11     Bn2 
	BYTE	W24
	BYTE		        An2 
	BYTE	W24
	BYTE		N44     Bn2 
	BYTE	W12
	BYTE	PEND
// 020   ----------------------------------------
decisive2_3_020:
	BYTE	W01
	BYTE	W01
	BYTE	W01
	BYTE	W01
	BYTE	W01
	BYTE	W01
	BYTE	W01
	BYTE	W01
	BYTE	W01
	BYTE	W01
	BYTE	W01
	BYTE	W01
	BYTE	W01
	BYTE	W01
	BYTE	W01
	BYTE	W01
	BYTE	W01
	BYTE	W01
	BYTE	W01
	BYTE	W01
	BYTE	W01
	BYTE	W01
	BYTE	W01
	BYTE	W01
	BYTE	W01
	BYTE	W01
	BYTE	W01
	BYTE	W01
	BYTE	W01
	BYTE	W01
	BYTE	W01
	BYTE	W01
	BYTE	W01
	BYTE	W01
	BYTE	W01
	BYTE	W01
	BYTE		N22     En3   v127
	BYTE	W06
	BYTE	W01
	BYTE	W02
	BYTE	W01
	BYTE	W02
	BYTE	W01
	BYTE	W02
	BYTE	W01
	BYTE	W02
	BYTE	W01
	BYTE	W02
	BYTE	W01
	BYTE	W02
	BYTE		N21     Dn3 
	BYTE	W06
	BYTE	W01
	BYTE	W02
	BYTE	W01
	BYTE	W02
	BYTE	W01
	BYTE	W02
	BYTE	W01
	BYTE	W02
	BYTE	W01
	BYTE	W02
	BYTE	W01
	BYTE	W02
	BYTE		N06     En3 
	BYTE	W12
	BYTE	PEND
// 021   ----------------------------------------
decisive2_3_021:
	BYTE		N22     Gn3   v127
	BYTE	W06
	BYTE	W01
	BYTE	W02
	BYTE	W01
	BYTE	W02
	BYTE	W01
	BYTE	W02
	BYTE	W01
	BYTE	W02
	BYTE	W01
	BYTE	W02
	BYTE	W01
	BYTE	W02
	BYTE		N05     Fn3 
	BYTE	W12
	BYTE		N11     En3 
	BYTE	W24
	BYTE		        Dn3 
	BYTE	W24
	BYTE		TIE     Bn2 
	BYTE	W12
	BYTE	PEND
// 022   ----------------------------------------
decisive2_3_022:
	BYTE	W12
	BYTE	W01
	BYTE	W01
	BYTE	W01
	BYTE	W01
	BYTE	W01
	BYTE	W01
	BYTE	W01
	BYTE	W01
	BYTE	W01
	BYTE	W01
	BYTE	W01
	BYTE	W01
	BYTE	W01
	BYTE	W01
	BYTE	W01
	BYTE	W01
	BYTE	W01
	BYTE	W01
	BYTE	W01
	BYTE	W01
	BYTE	W01
	BYTE	W01
	BYTE	W01
	BYTE	W01
	BYTE	W01
	BYTE	W01
	BYTE	W01
	BYTE	W01
	BYTE	W01
	BYTE	W01
	BYTE	W01
	BYTE	W01
	BYTE	W01
	BYTE	W01
	BYTE	W01
	BYTE	W01
	BYTE	W01
	BYTE	W01
	BYTE	W01
	BYTE	W01
	BYTE	W01
	BYTE	W01
	BYTE	W01
	BYTE	W01
	BYTE	W01
	BYTE	W01
	BYTE	W01
	BYTE	W01
	BYTE	W01
	BYTE	W01
	BYTE	W01
	BYTE	W01
	BYTE	W01
	BYTE	W01
	BYTE	W01
	BYTE	W01
	BYTE	W01
	BYTE	W01
	BYTE	W01
	BYTE	W01
	BYTE	W01
	BYTE	W01
	BYTE	W01
	BYTE	W01
	BYTE	W01
	BYTE	W01
	BYTE	W01
	BYTE	W01
	BYTE	W01
	BYTE	W01
	BYTE	W01
	BYTE	W01
	BYTE	W01
	BYTE	W01
	BYTE	W01
	BYTE	W01
	BYTE	W01
	BYTE	W01
	BYTE	W01
	BYTE	W01
	BYTE	W01
	BYTE	W01
	BYTE	W01
	BYTE	W01
	BYTE	PEND
// 023   ----------------------------------------
decisive2_3_023:
	BYTE	W01
	BYTE	W01
	BYTE	W01
	BYTE	W01
	BYTE	W01
	BYTE	W01
	BYTE	W01
	BYTE	W01
	BYTE	W01
	BYTE	W01
	BYTE	W01
	BYTE	W01
	BYTE	W01
	BYTE	W01
	BYTE	W01
	BYTE	W01
	BYTE	W01
	BYTE	W01
	BYTE	W01
	BYTE	W01
	BYTE	W01
	BYTE	W01
	BYTE	W01
	BYTE	W01
	BYTE	W01
	BYTE	W01
	BYTE	W01
	BYTE	W01
	BYTE	W01
	BYTE	W01
	BYTE	W01
	BYTE	W01
	BYTE	W01
	BYTE	W01
	BYTE	W01
	BYTE	W01
	BYTE	W01
	BYTE	W01
	BYTE	W01
	BYTE	W01
	BYTE	W01
	BYTE	W01
	BYTE	W01
	BYTE	W01
	BYTE	W01
	BYTE	W01
	BYTE	W01
	BYTE	W01
	BYTE	W01
	BYTE	W01
	BYTE	W01
	BYTE	W01
	BYTE	W01
	BYTE	W01
	BYTE	W01
	BYTE	W01
	BYTE	W01
	BYTE	W01
	BYTE	W01
	BYTE	W01
	BYTE	W01
	BYTE	W01
	BYTE	W01
	BYTE	W01
	BYTE	W01
	BYTE	W01
	BYTE	W01
	BYTE	W01
	BYTE	W01
	BYTE	W01
	BYTE	W01
	BYTE	W01
	BYTE	W01
	BYTE	W01
	BYTE	W01
	BYTE	W01
	BYTE	W01
	BYTE	W01
	BYTE	W01
	BYTE	W01
	BYTE	W01
	BYTE	W01
	BYTE	W01
	BYTE	W01
	BYTE	W01
	BYTE	W01
	BYTE	W01
	BYTE	W01
	BYTE	W01
	BYTE	W01
	BYTE	W01
	BYTE	PEND
	BYTE		EOT     Bn2 
	BYTE	W01
	BYTE	W01
	BYTE	W01
	BYTE	W01
	BYTE	W01
// 024   ----------------------------------------
	BYTE	W96
// 025   ----------------------------------------
	BYTE	W96
// 026   ----------------------------------------
	BYTE	W24
	BYTE		N18     En2   v127
	BYTE	W06
	BYTE	W01
	BYTE	W02
	BYTE	W01
	BYTE	W02
	BYTE		BEND    c_v+0
	BYTE	W01
	BYTE		        c_v+5
	BYTE	W01
	BYTE		        c_v+10
	BYTE	W01
	BYTE		        c_v+16
	BYTE	W01
	BYTE		        c_v+21
	BYTE	W01
	BYTE		        c_v+26
	BYTE	W01
	BYTE		        c_v+32
	BYTE	W01
	BYTE		        c_v+37
	BYTE	W01
	BYTE		        c_v+42
	BYTE	W01
	BYTE		        c_v+48
	BYTE	W01
	BYTE		        c_v+53
	BYTE	W01
	BYTE		        c_v+58
	BYTE	W01
	BYTE		        c_v+0
	BYTE		N18     Bn2 
	BYTE	W06
	BYTE	W01
	BYTE	W02
	BYTE	W01
	BYTE	W02
	BYTE	W01
	BYTE	W02
	BYTE	W01
	BYTE	W02
	BYTE	W01
	BYTE	W02
	BYTE	W01
	BYTE	W02
	BYTE		N04     An2 
	BYTE	W12
	BYTE		        Bn2 
	BYTE	W12
// 027   ----------------------------------------
	BYTE	PATT
	POIN2	decisive2_3_019
// 028   ----------------------------------------
	BYTE	PATT
	POIN2	decisive2_3_020
// 029   ----------------------------------------
	BYTE	PATT
	POIN2	decisive2_3_021
// 030   ----------------------------------------
	BYTE	PATT
	POIN2	decisive2_3_022
// 031   ----------------------------------------
	BYTE	PATT
	POIN2	decisive2_3_023
	BYTE		EOT     Bn2 
	BYTE	W01
	BYTE	W01
	BYTE	W01
	BYTE	W01
	BYTE	W01
// 032   ----------------------------------------
	BYTE	W96
// 033   ----------------------------------------
	BYTE	W84
	BYTE		VOL     120*decisive2_mvl/mxv
	BYTE	W01
	BYTE	W11
// 034   ----------------------------------------
	BYTE	PATT
	POIN2	decisive2_3_006
// 035   ----------------------------------------
	BYTE	PATT
	POIN2	decisive2_3_007
// 036   ----------------------------------------
	BYTE	PATT
	POIN2	decisive2_3_006
// 037   ----------------------------------------
	BYTE	PATT
	POIN2	decisive2_3_007
// 038   ----------------------------------------
	BYTE	PATT
	POIN2	decisive2_3_006
// 039   ----------------------------------------
	BYTE	PATT
	POIN2	decisive2_3_007
// 040   ----------------------------------------
	BYTE	PATT
	POIN2	decisive2_3_006
// 041   ----------------------------------------
	BYTE	PATT
	POIN2	decisive2_3_007
// 042   ----------------------------------------
	BYTE		VOICE   61
	BYTE		VOL     100*decisive2_mvl/mxv
	BYTE	W01
	BYTE	W02
	BYTE	W01
	BYTE	W02
	BYTE	W01
	BYTE	W17
	BYTE		N24     En3   v127
	BYTE		N24     En4 
	BYTE	W24
	BYTE		VOL     85*decisive2_mvl/mxv
	BYTE		BEND    c_v+61
	BYTE		N24     Bn3 
	BYTE		N24     Bn4 
	BYTE	W01
	BYTE		BEND    c_v+57
	BYTE	W01
	BYTE		        c_v+38
	BYTE	W01
	BYTE		        c_v+19
	BYTE	W01
	BYTE		        c_v+7
	BYTE	W01
	BYTE		        c_v+3
	BYTE	W01
	BYTE		        c_v+0
	BYTE	W18
	BYTE		N12     An3 
	BYTE		N12     An4 
	BYTE	W12
	BYTE		        Bn3 
	BYTE		N12     Bn4 
	BYTE	W12
// 043   ----------------------------------------
decisive2_3_043:
	BYTE		N24     Dn4   v127
	BYTE		N24     Dn5 
	BYTE	W24
	BYTE		N10     Cn4 
	BYTE		N10     Cn5 
	BYTE	W12
	BYTE		N09     Bn3 
	BYTE		N09     Bn4 
	BYTE	W24
	BYTE		        An3 
	BYTE		N09     An4 
	BYTE	W24
	BYTE		N44     Bn3 
	BYTE		N44     Bn4 
	BYTE	W12
	BYTE	PEND
// 044   ----------------------------------------
	BYTE	W03
	BYTE	W03
	BYTE	W03
	BYTE	W03
	BYTE	W03
	BYTE	W03
	BYTE	W03
	BYTE	W03
	BYTE	W03
	BYTE	W03
	BYTE	W03
	BYTE	W03
	BYTE		N22     En4 
	BYTE		N22     En5 
	BYTE	W24
	BYTE		N21     Dn4 
	BYTE		N21     Dn5 
	BYTE	W24
	BYTE		N06     En4 
	BYTE		N06     En5 
	BYTE	W09
	BYTE		N04     Bn3   v112
	BYTE		N04     Bn4 
	BYTE	W03
// 045   ----------------------------------------
	BYTE		BEND    c_v-51
	BYTE		N24     Gn4   v127
	BYTE		N24     Gn5 
	BYTE	W01
	BYTE		BEND    c_v-25
	BYTE	W01
	BYTE		        c_v+1
	BYTE	W01
	BYTE		        c_v+27
	BYTE	W01
	BYTE		        c_v+37
	BYTE	W01
	BYTE		        c_v+12
	BYTE	W01
	BYTE		        c_v+5
	BYTE	W01
	BYTE		        c_v+2
	BYTE	W01
	BYTE		        c_v+0
	BYTE	W13
	BYTE		        c_v+0
	BYTE	W01
	BYTE		        c_v-26
	BYTE	W01
	BYTE		        c_v-52
	BYTE	W01
	BYTE		        c_v+0
	BYTE		N10     Fn4 
	BYTE		N10     Fn5 
	BYTE	W12
	BYTE		N11     En4 
	BYTE		N11     En5 
	BYTE	W24
	BYTE		        Dn4 
	BYTE		N11     Dn5 
	BYTE	W24
	BYTE		BEND    c_v-64
	BYTE		TIE     En4 
	BYTE		TIE     En5 
	BYTE	W01
	BYTE		BEND    c_v-64
	BYTE	W01
	BYTE		        c_v-54
	BYTE	W01
	BYTE		        c_v-43
	BYTE	W01
	BYTE		        c_v-32
	BYTE	W01
	BYTE		        c_v-22
	BYTE	W01
	BYTE		VOL     90*decisive2_mvl/mxv
	BYTE		BEND    c_v-11
	BYTE	W01
	BYTE		VOL     89*decisive2_mvl/mxv
	BYTE		BEND    c_v+0
	BYTE	W01
	BYTE		VOL     88*decisive2_mvl/mxv
	BYTE	W01
	BYTE		        87*decisive2_mvl/mxv
	BYTE	W01
	BYTE		        87*decisive2_mvl/mxv
	BYTE	W01
	BYTE		        86*decisive2_mvl/mxv
	BYTE	W01
// 046   ----------------------------------------
	BYTE		        85*decisive2_mvl/mxv
	BYTE	W01
	BYTE		        84*decisive2_mvl/mxv
	BYTE	W01
	BYTE		        83*decisive2_mvl/mxv
	BYTE	W01
	BYTE		        82*decisive2_mvl/mxv
	BYTE	W01
	BYTE		        81*decisive2_mvl/mxv
	BYTE	W01
	BYTE		        81*decisive2_mvl/mxv
	BYTE	W01
	BYTE		        80*decisive2_mvl/mxv
	BYTE	W01
	BYTE		        79*decisive2_mvl/mxv
	BYTE	W01
	BYTE		        78*decisive2_mvl/mxv
	BYTE	W01
	BYTE		        77*decisive2_mvl/mxv
	BYTE	W01
	BYTE		        76*decisive2_mvl/mxv
	BYTE	W01
	BYTE		        75*decisive2_mvl/mxv
	BYTE	W01
	BYTE		        74*decisive2_mvl/mxv
	BYTE	W01
	BYTE		        74*decisive2_mvl/mxv
	BYTE	W01
	BYTE		        73*decisive2_mvl/mxv
	BYTE	W01
	BYTE		        72*decisive2_mvl/mxv
	BYTE	W01
	BYTE		        71*decisive2_mvl/mxv
	BYTE	W01
	BYTE		        70*decisive2_mvl/mxv
	BYTE	W01
	BYTE		        69*decisive2_mvl/mxv
	BYTE	W01
	BYTE		        68*decisive2_mvl/mxv
	BYTE	W01
	BYTE		        68*decisive2_mvl/mxv
	BYTE	W01
	BYTE		        67*decisive2_mvl/mxv
	BYTE	W01
	BYTE		        66*decisive2_mvl/mxv
	BYTE	W01
	BYTE		        65*decisive2_mvl/mxv
	BYTE	W01
	BYTE		        65*decisive2_mvl/mxv
	BYTE	W01
	BYTE		        66*decisive2_mvl/mxv
	BYTE	W01
	BYTE		        66*decisive2_mvl/mxv
	BYTE	W01
	BYTE		        67*decisive2_mvl/mxv
	BYTE	W01
	BYTE		        68*decisive2_mvl/mxv
	BYTE	W01
	BYTE		        69*decisive2_mvl/mxv
	BYTE	W01
	BYTE		        70*decisive2_mvl/mxv
	BYTE	W01
	BYTE		        70*decisive2_mvl/mxv
	BYTE	W01
	BYTE		        71*decisive2_mvl/mxv
	BYTE	W01
	BYTE		        72*decisive2_mvl/mxv
	BYTE	W01
	BYTE		        73*decisive2_mvl/mxv
	BYTE	W01
	BYTE		        73*decisive2_mvl/mxv
	BYTE	W01
	BYTE		        74*decisive2_mvl/mxv
	BYTE	W01
	BYTE		        75*decisive2_mvl/mxv
	BYTE	W01
	BYTE		        76*decisive2_mvl/mxv
	BYTE	W01
	BYTE		        77*decisive2_mvl/mxv
	BYTE	W01
	BYTE		        77*decisive2_mvl/mxv
	BYTE	W01
	BYTE		        78*decisive2_mvl/mxv
	BYTE	W01
	BYTE		        79*decisive2_mvl/mxv
	BYTE	W01
	BYTE		        80*decisive2_mvl/mxv
	BYTE	W01
	BYTE		        80*decisive2_mvl/mxv
	BYTE	W01
	BYTE		        81*decisive2_mvl/mxv
	BYTE	W01
	BYTE		        82*decisive2_mvl/mxv
	BYTE	W01
	BYTE		        83*decisive2_mvl/mxv
	BYTE	W01
	BYTE		        84*decisive2_mvl/mxv
	BYTE	W01
	BYTE		        84*decisive2_mvl/mxv
	BYTE	W01
	BYTE		        85*decisive2_mvl/mxv
	BYTE	W01
	BYTE		        86*decisive2_mvl/mxv
	BYTE	W01
	BYTE		        87*decisive2_mvl/mxv
	BYTE	W01
	BYTE		        87*decisive2_mvl/mxv
	BYTE	W01
	BYTE		        88*decisive2_mvl/mxv
	BYTE	W01
	BYTE		        89*decisive2_mvl/mxv
	BYTE	W01
	BYTE		        90*decisive2_mvl/mxv
	BYTE	W01
	BYTE		        91*decisive2_mvl/mxv
	BYTE	W01
	BYTE		        91*decisive2_mvl/mxv
	BYTE	W01
	BYTE		        92*decisive2_mvl/mxv
	BYTE	W01
	BYTE		        93*decisive2_mvl/mxv
	BYTE	W01
	BYTE		        94*decisive2_mvl/mxv
	BYTE	W01
	BYTE		        94*decisive2_mvl/mxv
	BYTE	W01
	BYTE		        95*decisive2_mvl/mxv
	BYTE	W01
	BYTE		        96*decisive2_mvl/mxv
	BYTE	W01
	BYTE		        97*decisive2_mvl/mxv
	BYTE	W01
	BYTE		        98*decisive2_mvl/mxv
	BYTE	W01
	BYTE		        98*decisive2_mvl/mxv
	BYTE	W01
	BYTE		        99*decisive2_mvl/mxv
	BYTE	W01
	BYTE		        100*decisive2_mvl/mxv
	BYTE	W01
	BYTE		        101*decisive2_mvl/mxv
	BYTE	W01
	BYTE		        101*decisive2_mvl/mxv
	BYTE	W01
	BYTE		        102*decisive2_mvl/mxv
	BYTE	W01
	BYTE		        103*decisive2_mvl/mxv
	BYTE	W01
	BYTE		        104*decisive2_mvl/mxv
	BYTE	W01
	BYTE		        105*decisive2_mvl/mxv
	BYTE	W01
	BYTE		        105*decisive2_mvl/mxv
	BYTE	W01
	BYTE		        106*decisive2_mvl/mxv
	BYTE	W01
	BYTE		        107*decisive2_mvl/mxv
	BYTE	W01
	BYTE		        108*decisive2_mvl/mxv
	BYTE	W01
	BYTE		        108*decisive2_mvl/mxv
	BYTE	W01
	BYTE		        109*decisive2_mvl/mxv
	BYTE	W01
	BYTE		        110*decisive2_mvl/mxv
	BYTE	W01
	BYTE		        111*decisive2_mvl/mxv
	BYTE	W01
	BYTE		        112*decisive2_mvl/mxv
	BYTE	W01
	BYTE		        112*decisive2_mvl/mxv
	BYTE	W01
	BYTE		        113*decisive2_mvl/mxv
	BYTE	W01
	BYTE		        114*decisive2_mvl/mxv
	BYTE	W01
	BYTE		        115*decisive2_mvl/mxv
	BYTE	W01
	BYTE		        115*decisive2_mvl/mxv
	BYTE	W01
	BYTE		        116*decisive2_mvl/mxv
	BYTE	W01
	BYTE		        117*decisive2_mvl/mxv
	BYTE	W01
	BYTE		        118*decisive2_mvl/mxv
	BYTE	W01
	BYTE		        119*decisive2_mvl/mxv
	BYTE	W01
	BYTE		        119*decisive2_mvl/mxv
	BYTE	W01
	BYTE		        120*decisive2_mvl/mxv
	BYTE	W01
// 047   ----------------------------------------
	BYTE		        120*decisive2_mvl/mxv
	BYTE	W90
	BYTE	W01
	BYTE		EOT     En4 
	BYTE		        En5 
	BYTE	W05
// 048   ----------------------------------------
	BYTE	W96
// 049   ----------------------------------------
	BYTE	W72
	BYTE		VOICE   60
	BYTE	W03
	BYTE		VOL     120*decisive2_mvl/mxv
	BYTE	W01
	BYTE	W02
	BYTE	W01
	BYTE	W02
	BYTE	W01
	BYTE	W14
// 050   ----------------------------------------
	BYTE	PATT
	POIN2	decisive2_3_006
// 051   ----------------------------------------
	BYTE	PATT
	POIN2	decisive2_3_007
// 052   ----------------------------------------
	BYTE	PATT
	POIN2	decisive2_3_006
// 053   ----------------------------------------
	BYTE	PATT
	POIN2	decisive2_3_007
// 054   ----------------------------------------
	BYTE	PATT
	POIN2	decisive2_3_006
// 055   ----------------------------------------
	BYTE	PATT
	POIN2	decisive2_3_007
// 056   ----------------------------------------
	BYTE	PATT
	POIN2	decisive2_3_006
// 057   ----------------------------------------
	BYTE	PATT
	POIN2	decisive2_3_007
// 058   ----------------------------------------
	BYTE	PATT
	POIN2	decisive2_3_006
// 059   ----------------------------------------
	BYTE	PATT
	POIN2	decisive2_3_007
// 060   ----------------------------------------
	BYTE	PATT
	POIN2	decisive2_3_006
// 061   ----------------------------------------
	BYTE	PATT
	POIN2	decisive2_3_007
// 062   ----------------------------------------
	BYTE	W12
	BYTE		VOL     127*decisive2_mvl/mxv
	BYTE	W12
	BYTE		N18     En2   v127
	BYTE	W06
	BYTE	W01
	BYTE	W02
	BYTE	W01
	BYTE	W02
	BYTE	W01
	BYTE	W02
	BYTE	W01
	BYTE	W02
	BYTE	W01
	BYTE	W02
	BYTE	W01
	BYTE	W02
	BYTE		        Bn2 
	BYTE	W06
	BYTE	W01
	BYTE	W02
	BYTE	W01
	BYTE	W02
	BYTE	W01
	BYTE	W02
	BYTE	W01
	BYTE	W02
	BYTE	W01
	BYTE	W02
	BYTE	W01
	BYTE	W02
	BYTE		N04     An2 
	BYTE	W12
	BYTE		        Bn2 
	BYTE	W12
// 063   ----------------------------------------
	BYTE	PATT
	POIN2	decisive2_3_019
// 064   ----------------------------------------
	BYTE	PATT
	POIN2	decisive2_3_020
// 065   ----------------------------------------
	BYTE	PATT
	POIN2	decisive2_3_021
// 066   ----------------------------------------
	BYTE	PATT
	POIN2	decisive2_3_022
// 067   ----------------------------------------
	BYTE	PATT
	POIN2	decisive2_3_023
	BYTE		EOT     Bn2 
	BYTE	W01
	BYTE	W01
	BYTE	W01
	BYTE	W01
	BYTE	W01
// 068   ----------------------------------------
	BYTE	W96
// 069   ----------------------------------------
	BYTE	W96
// 070   ----------------------------------------
	BYTE		VOL     120*decisive2_mvl/mxv
	BYTE	W01
	BYTE	W11
	BYTE		N04     As2   v112
	BYTE		N04     Dn3 
	BYTE	W12
	BYTE		        As2 
	BYTE		N04     Dn3 
	BYTE	W24
	BYTE		        As2 
	BYTE		N04     Dn3 
	BYTE	W12
	BYTE		        As2 
	BYTE		N04     Dn3 
	BYTE	W24
	BYTE		        As2 
	BYTE		N04     Dn3 
	BYTE	W12
// 071   ----------------------------------------
	BYTE	PATT
	POIN2	decisive2_3_007
// 072   ----------------------------------------
	BYTE	PATT
	POIN2	decisive2_3_006
// 073   ----------------------------------------
	BYTE	PATT
	POIN2	decisive2_3_007
// 074   ----------------------------------------
	BYTE	PATT
	POIN2	decisive2_3_006
// 075   ----------------------------------------
	BYTE	PATT
	POIN2	decisive2_3_007
// 076   ----------------------------------------
	BYTE	PATT
	POIN2	decisive2_3_006
// 077   ----------------------------------------
	BYTE	PATT
	POIN2	decisive2_3_007
// 078   ----------------------------------------
	BYTE		VOICE   61
	BYTE		VOL     95*decisive2_mvl/mxv
	BYTE	W03
	BYTE	W01
	BYTE	W02
	BYTE	W01
	BYTE	W17
	BYTE		N18     En3   v127
	BYTE		N18     En4 
	BYTE	W18
	BYTE		VOL     85*decisive2_mvl/mxv
	BYTE		N02     Fn3   v112
	BYTE		N02     Fn4 
	BYTE	W02
	BYTE		        Gn3 
	BYTE		N02     Gn4 
	BYTE	W02
	BYTE		        An3 
	BYTE		N02     An4 
	BYTE	W02
	BYTE		BEND    c_v+61
	BYTE		N24     Bn3   v127
	BYTE		N24     Bn4 
	BYTE	W01
	BYTE		BEND    c_v+57
	BYTE	W01
	BYTE		        c_v+38
	BYTE	W01
	BYTE		        c_v+19
	BYTE	W01
	BYTE		        c_v+7
	BYTE	W01
	BYTE		        c_v+3
	BYTE	W01
	BYTE		        c_v+0
	BYTE	W18
	BYTE		N12     An3 
	BYTE		N12     An4 
	BYTE	W12
	BYTE		        Bn3 
	BYTE		N12     Bn4 
	BYTE	W12
// 079   ----------------------------------------
	BYTE	PATT
	POIN2	decisive2_3_043
// 080   ----------------------------------------
	BYTE	W03
	BYTE	W03
	BYTE	W03
	BYTE	W03
	BYTE	W03
	BYTE	W03
	BYTE	W03
	BYTE	W03
	BYTE	W03
	BYTE	W03
	BYTE	W03
	BYTE	W03
	BYTE		BEND    c_v+58
	BYTE		N22     En4   v127
	BYTE		N22     En5 
	BYTE	W01
	BYTE		BEND    c_v+48
	BYTE	W01
	BYTE		        c_v+37
	BYTE	W01
	BYTE		        c_v+26
	BYTE	W01
	BYTE		        c_v+16
	BYTE	W01
	BYTE		        c_v+5
	BYTE	W01
	BYTE		        c_v+0
	BYTE	W18
	BYTE		N21     Dn4 
	BYTE		N21     Dn5 
	BYTE	W24
	BYTE		N06     En4 
	BYTE		N06     En5 
	BYTE	W09
	BYTE		N04     Bn3   v112
	BYTE		N04     Bn4 
	BYTE	W03
// 081   ----------------------------------------
	BYTE		BEND    c_v-51
	BYTE		N24     Gn4   v127
	BYTE		N24     Gn5 
	BYTE	W01
	BYTE		BEND    c_v-25
	BYTE	W01
	BYTE		        c_v+1
	BYTE	W01
	BYTE		        c_v+27
	BYTE	W01
	BYTE		        c_v+37
	BYTE	W01
	BYTE		        c_v+12
	BYTE	W01
	BYTE		        c_v+5
	BYTE	W01
	BYTE		        c_v+2
	BYTE	W01
	BYTE		        c_v+0
	BYTE	W13
	BYTE		        c_v+0
	BYTE	W01
	BYTE		        c_v-26
	BYTE	W01
	BYTE		        c_v-52
	BYTE	W01
	BYTE		        c_v+0
	BYTE		N10     Fn4 
	BYTE		N10     Fn5 
	BYTE	W12
	BYTE		N11     En4 
	BYTE		N11     En5 
	BYTE	W24
	BYTE		        Dn4 
	BYTE		N11     Dn5 
	BYTE	W24
	BYTE		BEND    c_v-59
	BYTE		TIE     En4 
	BYTE		TIE     En5 
	BYTE	W01
	BYTE		BEND    c_v-48
	BYTE	W01
	BYTE		        c_v-38
	BYTE	W01
	BYTE		        c_v-27
	BYTE	W01
	BYTE		        c_v-16
	BYTE	W01
	BYTE		        c_v-6
	BYTE	W01
	BYTE		VOL     90*decisive2_mvl/mxv
	BYTE		BEND    c_v+0
	BYTE	W01
	BYTE		VOL     89*decisive2_mvl/mxv
	BYTE	W01
	BYTE		        88*decisive2_mvl/mxv
	BYTE	W01
	BYTE		        87*decisive2_mvl/mxv
	BYTE	W01
	BYTE		        87*decisive2_mvl/mxv
	BYTE	W01
	BYTE		        86*decisive2_mvl/mxv
	BYTE	W01
// 082   ----------------------------------------
	BYTE		        85*decisive2_mvl/mxv
	BYTE	W01
	BYTE		        84*decisive2_mvl/mxv
	BYTE	W01
	BYTE		        83*decisive2_mvl/mxv
	BYTE	W01
	BYTE		        82*decisive2_mvl/mxv
	BYTE	W01
	BYTE		        81*decisive2_mvl/mxv
	BYTE	W01
	BYTE		        81*decisive2_mvl/mxv
	BYTE	W01
	BYTE		        80*decisive2_mvl/mxv
	BYTE	W01
	BYTE		        79*decisive2_mvl/mxv
	BYTE	W01
	BYTE		        78*decisive2_mvl/mxv
	BYTE	W01
	BYTE		        77*decisive2_mvl/mxv
	BYTE	W01
	BYTE		        76*decisive2_mvl/mxv
	BYTE	W01
	BYTE		        75*decisive2_mvl/mxv
	BYTE	W01
	BYTE		        74*decisive2_mvl/mxv
	BYTE	W01
	BYTE		        74*decisive2_mvl/mxv
	BYTE	W01
	BYTE		        73*decisive2_mvl/mxv
	BYTE	W01
	BYTE		        72*decisive2_mvl/mxv
	BYTE	W01
	BYTE		        71*decisive2_mvl/mxv
	BYTE	W01
	BYTE		        70*decisive2_mvl/mxv
	BYTE	W01
	BYTE		        69*decisive2_mvl/mxv
	BYTE	W01
	BYTE		        68*decisive2_mvl/mxv
	BYTE	W01
	BYTE		        68*decisive2_mvl/mxv
	BYTE	W01
	BYTE		        67*decisive2_mvl/mxv
	BYTE	W01
	BYTE		        66*decisive2_mvl/mxv
	BYTE	W01
	BYTE		        65*decisive2_mvl/mxv
	BYTE	W01
	BYTE		        65*decisive2_mvl/mxv
	BYTE	W01
	BYTE		        66*decisive2_mvl/mxv
	BYTE	W01
	BYTE		        67*decisive2_mvl/mxv
	BYTE	W01
	BYTE		        68*decisive2_mvl/mxv
	BYTE	W01
	BYTE		        68*decisive2_mvl/mxv
	BYTE	W01
	BYTE		        69*decisive2_mvl/mxv
	BYTE	W01
	BYTE		        70*decisive2_mvl/mxv
	BYTE	W01
	BYTE		        71*decisive2_mvl/mxv
	BYTE	W01
	BYTE		        72*decisive2_mvl/mxv
	BYTE	W01
	BYTE		        73*decisive2_mvl/mxv
	BYTE	W01
	BYTE		        74*decisive2_mvl/mxv
	BYTE	W01
	BYTE		        75*decisive2_mvl/mxv
	BYTE	W01
	BYTE		        75*decisive2_mvl/mxv
	BYTE	W01
	BYTE		        76*decisive2_mvl/mxv
	BYTE	W01
	BYTE		        77*decisive2_mvl/mxv
	BYTE	W01
	BYTE		        78*decisive2_mvl/mxv
	BYTE	W01
	BYTE		        79*decisive2_mvl/mxv
	BYTE	W01
	BYTE		        80*decisive2_mvl/mxv
	BYTE	W01
	BYTE		        81*decisive2_mvl/mxv
	BYTE	W01
	BYTE		        82*decisive2_mvl/mxv
	BYTE	W01
	BYTE		        82*decisive2_mvl/mxv
	BYTE	W01
	BYTE		        83*decisive2_mvl/mxv
	BYTE	W01
	BYTE		        84*decisive2_mvl/mxv
	BYTE	W01
	BYTE		        85*decisive2_mvl/mxv
	BYTE	W01
	BYTE		        86*decisive2_mvl/mxv
	BYTE	W01
	BYTE		        87*decisive2_mvl/mxv
	BYTE	W01
	BYTE		        88*decisive2_mvl/mxv
	BYTE	W01
	BYTE		        89*decisive2_mvl/mxv
	BYTE	W01
	BYTE		        89*decisive2_mvl/mxv
	BYTE	W01
	BYTE		        90*decisive2_mvl/mxv
	BYTE	W01
	BYTE		        91*decisive2_mvl/mxv
	BYTE	W01
	BYTE		        92*decisive2_mvl/mxv
	BYTE	W01
	BYTE		        93*decisive2_mvl/mxv
	BYTE	W01
	BYTE		        94*decisive2_mvl/mxv
	BYTE	W01
	BYTE		        95*decisive2_mvl/mxv
	BYTE	W01
	BYTE		        96*decisive2_mvl/mxv
	BYTE	W01
	BYTE		        96*decisive2_mvl/mxv
	BYTE	W01
	BYTE		        97*decisive2_mvl/mxv
	BYTE	W01
	BYTE		        98*decisive2_mvl/mxv
	BYTE	W01
	BYTE		        99*decisive2_mvl/mxv
	BYTE	W01
	BYTE		        100*decisive2_mvl/mxv
	BYTE	W01
	BYTE		        101*decisive2_mvl/mxv
	BYTE	W01
	BYTE		        102*decisive2_mvl/mxv
	BYTE	W01
	BYTE		        103*decisive2_mvl/mxv
	BYTE	W01
	BYTE		        103*decisive2_mvl/mxv
	BYTE	W01
	BYTE		        104*decisive2_mvl/mxv
	BYTE	W01
	BYTE		        105*decisive2_mvl/mxv
	BYTE	W01
	BYTE		        106*decisive2_mvl/mxv
	BYTE	W01
	BYTE		        107*decisive2_mvl/mxv
	BYTE	W01
	BYTE		        108*decisive2_mvl/mxv
	BYTE	W01
	BYTE		        109*decisive2_mvl/mxv
	BYTE	W01
	BYTE		        110*decisive2_mvl/mxv
	BYTE	W01
	BYTE		        110*decisive2_mvl/mxv
	BYTE	W01
	BYTE		        111*decisive2_mvl/mxv
	BYTE	W01
	BYTE		        112*decisive2_mvl/mxv
	BYTE	W01
	BYTE		        113*decisive2_mvl/mxv
	BYTE	W01
	BYTE		        114*decisive2_mvl/mxv
	BYTE	W01
	BYTE		        115*decisive2_mvl/mxv
	BYTE	W01
	BYTE		        116*decisive2_mvl/mxv
	BYTE	W01
	BYTE		        117*decisive2_mvl/mxv
	BYTE	W01
	BYTE		        117*decisive2_mvl/mxv
	BYTE	W01
	BYTE		        118*decisive2_mvl/mxv
	BYTE	W01
	BYTE		        119*decisive2_mvl/mxv
	BYTE	W01
	BYTE		        120*decisive2_mvl/mxv
	BYTE	W01
	BYTE		        121*decisive2_mvl/mxv
	BYTE	W01
	BYTE		        122*decisive2_mvl/mxv
	BYTE	W01
	BYTE		        123*decisive2_mvl/mxv
	BYTE	W01
	BYTE		        124*decisive2_mvl/mxv
	BYTE	W01
	BYTE		        124*decisive2_mvl/mxv
	BYTE	W01
	BYTE		        125*decisive2_mvl/mxv
	BYTE	W01
	BYTE		        126*decisive2_mvl/mxv
	BYTE	W01
	BYTE		        127*decisive2_mvl/mxv
	BYTE	W01
// 083   ----------------------------------------
	BYTE		        127*decisive2_mvl/mxv
	BYTE	W48
	BYTE		        127*decisive2_mvl/mxv
	BYTE	W01
	BYTE		        126*decisive2_mvl/mxv
	BYTE	W01
	BYTE		        126*decisive2_mvl/mxv
	BYTE	W01
	BYTE		        125*decisive2_mvl/mxv
	BYTE	W01
	BYTE		        124*decisive2_mvl/mxv
	BYTE	W01
	BYTE		        124*decisive2_mvl/mxv
	BYTE	W01
	BYTE		        123*decisive2_mvl/mxv
	BYTE	W01
	BYTE		        122*decisive2_mvl/mxv
	BYTE	W01
	BYTE		        122*decisive2_mvl/mxv
	BYTE	W01
	BYTE		        121*decisive2_mvl/mxv
	BYTE	W01
	BYTE		        120*decisive2_mvl/mxv
	BYTE	W01
	BYTE		        120*decisive2_mvl/mxv
	BYTE	W01
	BYTE		        119*decisive2_mvl/mxv
	BYTE	W01
	BYTE		        118*decisive2_mvl/mxv
	BYTE	W01
	BYTE		        118*decisive2_mvl/mxv
	BYTE	W01
	BYTE		        117*decisive2_mvl/mxv
	BYTE	W01
	BYTE		        116*decisive2_mvl/mxv
	BYTE	W01
	BYTE		        116*decisive2_mvl/mxv
	BYTE	W01
	BYTE		        115*decisive2_mvl/mxv
	BYTE	W01
	BYTE		        114*decisive2_mvl/mxv
	BYTE	W01
	BYTE		        114*decisive2_mvl/mxv
	BYTE	W01
	BYTE		        113*decisive2_mvl/mxv
	BYTE	W01
	BYTE		        112*decisive2_mvl/mxv
	BYTE	W01
	BYTE		        112*decisive2_mvl/mxv
	BYTE	W01
	BYTE		        111*decisive2_mvl/mxv
	BYTE	W01
	BYTE		        110*decisive2_mvl/mxv
	BYTE	W01
	BYTE		        110*decisive2_mvl/mxv
	BYTE	W01
	BYTE		        109*decisive2_mvl/mxv
	BYTE	W01
	BYTE		        108*decisive2_mvl/mxv
	BYTE	W01
	BYTE		        108*decisive2_mvl/mxv
	BYTE	W01
	BYTE		        107*decisive2_mvl/mxv
	BYTE	W01
	BYTE		        106*decisive2_mvl/mxv
	BYTE	W01
	BYTE		        106*decisive2_mvl/mxv
	BYTE	W01
	BYTE		        105*decisive2_mvl/mxv
	BYTE	W01
	BYTE		        104*decisive2_mvl/mxv
	BYTE	W01
	BYTE		        104*decisive2_mvl/mxv
	BYTE	W01
	BYTE		        103*decisive2_mvl/mxv
	BYTE	W01
	BYTE		        102*decisive2_mvl/mxv
	BYTE	W01
	BYTE		        102*decisive2_mvl/mxv
	BYTE	W01
	BYTE		        101*decisive2_mvl/mxv
	BYTE		BEND    c_v+0
	BYTE	W01
	BYTE		VOL     100*decisive2_mvl/mxv
	BYTE		BEND    c_v-8
	BYTE	W01
	BYTE		VOL     100*decisive2_mvl/mxv
	BYTE		BEND    c_v-15
	BYTE	W01
	BYTE		VOL     99*decisive2_mvl/mxv
	BYTE		BEND    c_v-22
	BYTE	W01
	BYTE		EOT     En4 
	BYTE		        En5 
	BYTE		VOL     98*decisive2_mvl/mxv
	BYTE		BEND    c_v-29
	BYTE	W01
	BYTE		VOL     98*decisive2_mvl/mxv
	BYTE		BEND    c_v-36
	BYTE	W01
	BYTE		VOL     97*decisive2_mvl/mxv
	BYTE		BEND    c_v-43
	BYTE	W01
	BYTE		VOL     96*decisive2_mvl/mxv
	BYTE		BEND    c_v-50
	BYTE	W01
	BYTE		VOL     96*decisive2_mvl/mxv
	BYTE		BEND    c_v-57
	BYTE	W01
// 084   ----------------------------------------
	BYTE	W06
	BYTE		        c_v+0
	BYTE	W90
// 085   ----------------------------------------
	BYTE	W72
	BYTE		VOICE   60
	BYTE	W01
	BYTE		VOL     127*decisive2_mvl/mxv
	BYTE	W02
	BYTE	W01
	BYTE	W03
	BYTE	W02
	BYTE	W01
	BYTE	W14
// 086   ----------------------------------------
	BYTE		TIE     Bn2   v096
	BYTE		TIE     En3   v064
	BYTE	W96
// 087   ----------------------------------------
	BYTE	W90
	BYTE	W01
	BYTE		EOT     Bn2 
	BYTE		        En3 
	BYTE	FINE

//**************** Track 4 (Midi-Chn.4) ****************//

decisive2_4:
	BYTE	KEYSH   decisive2_key+0
// 000   ----------------------------------------
	BYTE	W60
	BYTE		VOICE   61
	BYTE	W01
	BYTE		PAN     c_v+20
	BYTE	W02
	BYTE		VOL     100*decisive2_mvl/mxv
	BYTE	W01
	BYTE	W02
	BYTE	W30
// 001   ----------------------------------------
	BYTE	W96
// 002   ----------------------------------------
	BYTE	W96
// 003   ----------------------------------------
	BYTE	W96
// 004   ----------------------------------------
	BYTE	W96
// 005   ----------------------------------------
	BYTE	W96
// 006   ----------------------------------------
decisive2_4_006:
	BYTE		N08     En1   v127
	BYTE	W36
	BYTE		N08   
	BYTE	W36
	BYTE		N08   
	BYTE	W24
	BYTE	PEND
// 007   ----------------------------------------
decisive2_4_007:
	BYTE	W12
	BYTE		N08     En1   v127
	BYTE	W36
	BYTE		N11     Gn1 
	BYTE	W24
	BYTE		N11   
	BYTE	W24
	BYTE	PEND
// 008   ----------------------------------------
	BYTE	PATT
	POIN2	decisive2_4_006
// 009   ----------------------------------------
	BYTE	PATT
	POIN2	decisive2_4_007
// 010   ----------------------------------------
	BYTE	PATT
	POIN2	decisive2_4_006
// 011   ----------------------------------------
	BYTE	PATT
	POIN2	decisive2_4_007
// 012   ----------------------------------------
	BYTE	PATT
	POIN2	decisive2_4_006
// 013   ----------------------------------------
	BYTE	PATT
	POIN2	decisive2_4_007
// 014   ----------------------------------------
	BYTE	PATT
	POIN2	decisive2_4_006
// 015   ----------------------------------------
	BYTE	PATT
	POIN2	decisive2_4_007
// 016   ----------------------------------------
	BYTE	PATT
	POIN2	decisive2_4_006
// 017   ----------------------------------------
decisive2_4_017:
	BYTE	W12
	BYTE		N08     En1   v127
	BYTE	W24
	BYTE		        Bn2   v096
	BYTE	W12
	BYTE		N11     Gn1   v127
	BYTE		N08     An2   v112
	BYTE	W12
	BYTE		        En2   v096
	BYTE	W12
	BYTE		N11     Gn1   v127
	BYTE		N08     Fn2   v112
	BYTE	W12
	BYTE		        Cn2   v096
	BYTE	W12
	BYTE	PEND
// 018   ----------------------------------------
	BYTE	PATT
	POIN2	decisive2_4_006
// 019   ----------------------------------------
decisive2_4_019:
	BYTE	W12
	BYTE		N08     En1   v127
	BYTE	W36
	BYTE		N11     Bn1 
	BYTE	W24
	BYTE		N11   
	BYTE	W24
	BYTE	PEND
// 020   ----------------------------------------
	BYTE	PATT
	POIN2	decisive2_4_006
// 021   ----------------------------------------
	BYTE	PATT
	POIN2	decisive2_4_019
// 022   ----------------------------------------
	BYTE	PATT
	POIN2	decisive2_4_006
// 023   ----------------------------------------
	BYTE	PATT
	POIN2	decisive2_4_019
// 024   ----------------------------------------
	BYTE	PATT
	POIN2	decisive2_4_006
// 025   ----------------------------------------
	BYTE	PATT
	POIN2	decisive2_4_019
// 026   ----------------------------------------
	BYTE	PATT
	POIN2	decisive2_4_006
// 027   ----------------------------------------
	BYTE	PATT
	POIN2	decisive2_4_019
// 028   ----------------------------------------
	BYTE	PATT
	POIN2	decisive2_4_006
// 029   ----------------------------------------
	BYTE	PATT
	POIN2	decisive2_4_019
// 030   ----------------------------------------
	BYTE	PATT
	POIN2	decisive2_4_006
// 031   ----------------------------------------
	BYTE	PATT
	POIN2	decisive2_4_019
// 032   ----------------------------------------
	BYTE	PATT
	POIN2	decisive2_4_006
// 033   ----------------------------------------
	BYTE	PATT
	POIN2	decisive2_4_019
// 034   ----------------------------------------
	BYTE	PATT
	POIN2	decisive2_4_006
// 035   ----------------------------------------
	BYTE	PATT
	POIN2	decisive2_4_019
// 036   ----------------------------------------
	BYTE	PATT
	POIN2	decisive2_4_006
// 037   ----------------------------------------
	BYTE	PATT
	POIN2	decisive2_4_019
// 038   ----------------------------------------
	BYTE	PATT
	POIN2	decisive2_4_006
// 039   ----------------------------------------
	BYTE	PATT
	POIN2	decisive2_4_019
// 040   ----------------------------------------
	BYTE	PATT
	POIN2	decisive2_4_006
// 041   ----------------------------------------
	BYTE	W12
	BYTE		N08     En1   v127
	BYTE	W36
	BYTE		N11     Bn1 
	BYTE	W24
	BYTE		N11   
	BYTE	W13
	BYTE		VOL     127*decisive2_mvl/mxv
	BYTE	W02
	BYTE	W09
// 042   ----------------------------------------
	BYTE	W24
	BYTE		N21     En1 
	BYTE		N21     En2   v112
	BYTE	W12
	BYTE	W01
	BYTE	W01
	BYTE	W01
	BYTE	W01
	BYTE	W01
	BYTE	W01
	BYTE	W01
	BYTE	W01
	BYTE	W01
	BYTE	W01
	BYTE	W01
	BYTE	W01
	BYTE		BEND    c_v-54
	BYTE		N21     Bn1   v127
	BYTE		N21     Bn2   v112
	BYTE	W01
	BYTE		BEND    c_v-32
	BYTE	W01
	BYTE		        c_v-11
	BYTE	W01
	BYTE		        c_v+0
	BYTE	W09
	BYTE	W01
	BYTE	W01
	BYTE	W01
	BYTE	W01
	BYTE	W01
	BYTE	W01
	BYTE	W01
	BYTE	W01
	BYTE	W01
	BYTE	W01
	BYTE	W01
	BYTE	W01
	BYTE		N06     An1   v127
	BYTE		N06     An2   v112
	BYTE	W12
	BYTE		        Bn1   v127
	BYTE		N06     Bn2   v112
	BYTE	W12
// 043   ----------------------------------------
decisive2_4_043:
	BYTE		N24     Dn2   v127
	BYTE		N24     Dn3   v112
	BYTE	W12
	BYTE	W01
	BYTE	W01
	BYTE	W01
	BYTE	W01
	BYTE	W01
	BYTE	W01
	BYTE	W01
	BYTE	W01
	BYTE	W01
	BYTE	W01
	BYTE	W01
	BYTE	W01
	BYTE		N04     Cn2   v127
	BYTE		N04     Cn3   v112
	BYTE	W12
	BYTE		N11     Bn1   v127
	BYTE		N11     Bn2   v112
	BYTE	W24
	BYTE		        An1   v127
	BYTE		N11     An2   v112
	BYTE	W24
	BYTE		N44     Bn1   v127
	BYTE		N44     Bn2   v112
	BYTE	W12
	BYTE	PEND
// 044   ----------------------------------------
decisive2_4_044:
	BYTE	W01
	BYTE	W01
	BYTE	W01
	BYTE	W01
	BYTE	W01
	BYTE	W01
	BYTE	W01
	BYTE	W01
	BYTE	W01
	BYTE	W01
	BYTE	W01
	BYTE	W01
	BYTE	W01
	BYTE	W01
	BYTE	W01
	BYTE	W01
	BYTE	W01
	BYTE	W01
	BYTE	W01
	BYTE	W01
	BYTE	W01
	BYTE	W01
	BYTE	W01
	BYTE	W01
	BYTE	W01
	BYTE	W01
	BYTE	W01
	BYTE	W01
	BYTE	W01
	BYTE	W01
	BYTE	W01
	BYTE	W01
	BYTE	W01
	BYTE	W01
	BYTE	W01
	BYTE	W01
	BYTE		N22     En2   v127
	BYTE		N22     En3   v112
	BYTE	W12
	BYTE	W01
	BYTE	W01
	BYTE	W01
	BYTE	W01
	BYTE	W01
	BYTE	W01
	BYTE	W01
	BYTE	W01
	BYTE	W01
	BYTE	W01
	BYTE	W01
	BYTE	W01
	BYTE		N21     Dn2   v127
	BYTE		N21     Dn3   v112
	BYTE	W12
	BYTE	W01
	BYTE	W01
	BYTE	W01
	BYTE	W01
	BYTE	W01
	BYTE	W01
	BYTE	W01
	BYTE	W01
	BYTE	W01
	BYTE	W01
	BYTE	W01
	BYTE	W01
	BYTE		N09     En2   v127
	BYTE		N09     En3   v112
	BYTE	W12
	BYTE	PEND
// 045   ----------------------------------------
decisive2_4_045:
	BYTE		N22     Gn2   v127
	BYTE		N22     Gn3   v112
	BYTE	W12
	BYTE	W01
	BYTE	W01
	BYTE	W01
	BYTE	W01
	BYTE	W01
	BYTE	W01
	BYTE	W01
	BYTE	W01
	BYTE	W01
	BYTE	W01
	BYTE	W01
	BYTE	W01
	BYTE		N05     Fn2   v127
	BYTE		N05     Fn3   v112
	BYTE	W12
	BYTE		N11     En2   v127
	BYTE		N11     En3   v112
	BYTE	W24
	BYTE		        Dn2   v127
	BYTE		N11     Dn3   v112
	BYTE	W24
	BYTE		TIE     En2   v127
	BYTE		TIE     En3   v112
	BYTE	W06
	BYTE	W01
	BYTE	W02
	BYTE	W01
	BYTE	W02
	BYTE	PEND
// 046   ----------------------------------------
decisive2_4_046:
	BYTE	W01
	BYTE	W02
	BYTE	W01
	BYTE	W02
	BYTE	W01
	BYTE	W02
	BYTE	W01
	BYTE	W02
	BYTE	W01
	BYTE	W02
	BYTE	W01
	BYTE	W02
	BYTE	W01
	BYTE	W02
	BYTE	W01
	BYTE	W02
	BYTE	W01
	BYTE	W02
	BYTE	W01
	BYTE	W02
	BYTE	W01
	BYTE	W02
	BYTE	W01
	BYTE	W02
	BYTE	W01
	BYTE	W02
	BYTE	W01
	BYTE	W02
	BYTE	W01
	BYTE	W02
	BYTE	W01
	BYTE	W02
	BYTE	W01
	BYTE	W02
	BYTE	W01
	BYTE	W02
	BYTE	W01
	BYTE	W02
	BYTE	W01
	BYTE	W02
	BYTE	W01
	BYTE	W02
	BYTE	W01
	BYTE	W02
	BYTE	W01
	BYTE	W02
	BYTE	W01
	BYTE	W02
	BYTE	W01
	BYTE	W02
	BYTE	W01
	BYTE	W02
	BYTE	W01
	BYTE	W02
	BYTE	W01
	BYTE	W02
	BYTE	W01
	BYTE	W02
	BYTE	W01
	BYTE	W02
	BYTE	W01
	BYTE	W02
	BYTE	W01
	BYTE	W02
	BYTE	PEND
// 047   ----------------------------------------
decisive2_4_047:
	BYTE	W24
	BYTE	W01
	BYTE	W02
	BYTE	W01
	BYTE	W02
	BYTE	W01
	BYTE	W02
	BYTE	W01
	BYTE	W02
	BYTE	W01
	BYTE	W02
	BYTE	W01
	BYTE	W02
	BYTE	W01
	BYTE	W02
	BYTE	W01
	BYTE	W02
	BYTE	W01
	BYTE	W02
	BYTE	W01
	BYTE	W02
	BYTE	W01
	BYTE	W02
	BYTE	W01
	BYTE	W02
	BYTE	W01
	BYTE	W02
	BYTE	W01
	BYTE	W02
	BYTE	W01
	BYTE	W02
	BYTE	W01
	BYTE	W02
	BYTE	W01
	BYTE	W02
	BYTE	W01
	BYTE	W02
	BYTE	W01
	BYTE	W02
	BYTE	W01
	BYTE	W02
	BYTE	W01
	BYTE	W02
	BYTE	W01
	BYTE	W02
	BYTE	W01
	BYTE	PEND
	BYTE		EOT     En2 
	BYTE		        En3 
	BYTE	W02
	BYTE	W01
	BYTE	W02
// 048   ----------------------------------------
	BYTE	W96
// 049   ----------------------------------------
	BYTE	W72
	BYTE	W01
	BYTE		VOL     100*decisive2_mvl/mxv
	BYTE	W02
	BYTE	W21
// 050   ----------------------------------------
	BYTE	PATT
	POIN2	decisive2_4_006
// 051   ----------------------------------------
	BYTE	PATT
	POIN2	decisive2_4_007
// 052   ----------------------------------------
	BYTE	PATT
	POIN2	decisive2_4_006
// 053   ----------------------------------------
	BYTE	PATT
	POIN2	decisive2_4_007
// 054   ----------------------------------------
	BYTE	PATT
	POIN2	decisive2_4_006
// 055   ----------------------------------------
	BYTE	PATT
	POIN2	decisive2_4_007
// 056   ----------------------------------------
	BYTE	PATT
	POIN2	decisive2_4_006
// 057   ----------------------------------------
	BYTE	PATT
	POIN2	decisive2_4_007
// 058   ----------------------------------------
	BYTE	PATT
	POIN2	decisive2_4_006
// 059   ----------------------------------------
	BYTE	PATT
	POIN2	decisive2_4_007
// 060   ----------------------------------------
	BYTE	PATT
	POIN2	decisive2_4_006
// 061   ----------------------------------------
	BYTE	PATT
	POIN2	decisive2_4_017
// 062   ----------------------------------------
	BYTE	PATT
	POIN2	decisive2_4_006
// 063   ----------------------------------------
	BYTE	PATT
	POIN2	decisive2_4_019
// 064   ----------------------------------------
	BYTE	PATT
	POIN2	decisive2_4_006
// 065   ----------------------------------------
	BYTE	PATT
	POIN2	decisive2_4_019
// 066   ----------------------------------------
	BYTE	PATT
	POIN2	decisive2_4_006
// 067   ----------------------------------------
	BYTE	PATT
	POIN2	decisive2_4_019
// 068   ----------------------------------------
	BYTE	PATT
	POIN2	decisive2_4_006
// 069   ----------------------------------------
	BYTE	PATT
	POIN2	decisive2_4_019
// 070   ----------------------------------------
	BYTE	PATT
	POIN2	decisive2_4_006
// 071   ----------------------------------------
	BYTE	PATT
	POIN2	decisive2_4_019
// 072   ----------------------------------------
	BYTE	PATT
	POIN2	decisive2_4_006
// 073   ----------------------------------------
	BYTE	PATT
	POIN2	decisive2_4_019
// 074   ----------------------------------------
	BYTE	PATT
	POIN2	decisive2_4_006
// 075   ----------------------------------------
	BYTE	PATT
	POIN2	decisive2_4_019
// 076   ----------------------------------------
	BYTE	PATT
	POIN2	decisive2_4_006
// 077   ----------------------------------------
	BYTE	PATT
	POIN2	decisive2_4_019
// 078   ----------------------------------------
	BYTE		VOL     127*decisive2_mvl/mxv
	BYTE	W01
	BYTE	W23
	BYTE		N21     En1   v127
	BYTE		N21     En2   v112
	BYTE	W12
	BYTE	W01
	BYTE	W01
	BYTE	W01
	BYTE	W01
	BYTE	W01
	BYTE	W01
	BYTE	W01
	BYTE	W01
	BYTE	W01
	BYTE	W01
	BYTE	W01
	BYTE	W01
	BYTE		BEND    c_v-54
	BYTE		N21     Bn1   v127
	BYTE		N21     Bn2   v112
	BYTE	W01
	BYTE		BEND    c_v-32
	BYTE	W01
	BYTE		        c_v-11
	BYTE	W01
	BYTE		        c_v+0
	BYTE	W09
	BYTE	W01
	BYTE	W01
	BYTE	W01
	BYTE	W01
	BYTE	W01
	BYTE	W01
	BYTE	W01
	BYTE	W01
	BYTE	W01
	BYTE	W01
	BYTE	W01
	BYTE	W01
	BYTE		N06     An1   v127
	BYTE		N06     An2   v112
	BYTE	W12
	BYTE		        Bn1   v127
	BYTE		N06     Bn2   v112
	BYTE	W12
// 079   ----------------------------------------
	BYTE	PATT
	POIN2	decisive2_4_043
// 080   ----------------------------------------
	BYTE	PATT
	POIN2	decisive2_4_044
// 081   ----------------------------------------
	BYTE	PATT
	POIN2	decisive2_4_045
// 082   ----------------------------------------
	BYTE	PATT
	POIN2	decisive2_4_046
// 083   ----------------------------------------
	BYTE	PATT
	POIN2	decisive2_4_047
	BYTE		EOT     En2 
	BYTE		        En3 
	BYTE	W02
	BYTE	W01
	BYTE	W02
// 084   ----------------------------------------
	BYTE	W96
// 085   ----------------------------------------
	BYTE	W96
// 086   ----------------------------------------
	BYTE		TIE     En1   v080
	BYTE		TIE     Bn1 
	BYTE		TIE     Bn2   v064
	BYTE	W96
// 087   ----------------------------------------
	BYTE	W90
	BYTE	W01
	BYTE		EOT     En1 
	BYTE		        Bn1 
	BYTE		        Bn2 
	BYTE	FINE

//**************** Track 5 (Midi-Chn.5) ****************//

decisive2_5:
	BYTE	KEYSH   decisive2_key+0
// 000   ----------------------------------------
	BYTE	W72
	BYTE		VOICE   85
	BYTE	W01
	BYTE		PAN     c_v+40
	BYTE	W02
	BYTE		VOL     127*decisive2_mvl/mxv
	BYTE	W01
	BYTE	W02
	BYTE	W07
	BYTE		PAN     c_v-40
	BYTE	W02
	BYTE		VOL     127*decisive2_mvl/mxv
	BYTE	W01
	BYTE	W02
	BYTE	W06
// 001   ----------------------------------------
	BYTE	W96
// 002   ----------------------------------------
	BYTE	W96
// 003   ----------------------------------------
	BYTE	W96
// 004   ----------------------------------------
	BYTE	W96
// 005   ----------------------------------------
	BYTE	W96
// 006   ----------------------------------------
	BYTE	W96
// 007   ----------------------------------------
	BYTE	W96
// 008   ----------------------------------------
	BYTE	W96
// 009   ----------------------------------------
decisive2_5_009:
	BYTE	W36
	BYTE		N09     Fn3   v127
	BYTE	W12
	BYTE		N06     En3 
	BYTE	W12
	BYTE		N09     Bn2 
	BYTE	W12
	BYTE		N06     Cn3 
	BYTE	W12
	BYTE		N09     Fn2 
	BYTE	W12
	BYTE	PEND
// 010   ----------------------------------------
	BYTE		N06     En2 
	BYTE	W96
// 011   ----------------------------------------
decisive2_5_011:
	BYTE	W48
	BYTE		N04     Fn5   v127
	BYTE	W12
	BYTE		        En5 
	BYTE	W04
	BYTE		        Dn5 
	BYTE	W04
	BYTE		        Cn5 
	BYTE	W04
	BYTE		        Bn4 
	BYTE	W12
	BYTE		        An4 
	BYTE	W04
	BYTE		        Gn4 
	BYTE	W04
	BYTE		        Fn4 
	BYTE	W04
	BYTE	PEND
// 012   ----------------------------------------
decisive2_5_012:
	BYTE		N30     En4   v127
	BYTE	W36
	BYTE		N30   
	BYTE	W02
	BYTE		BEND    c_v+1
	BYTE	W01
	BYTE		        c_v+11
	BYTE	W01
	BYTE		        c_v+17
	BYTE	W01
	BYTE		        c_v+19
	BYTE	W01
	BYTE		        c_v+15
	BYTE	W01
	BYTE		        c_v+9
	BYTE	W01
	BYTE		        c_v+6
	BYTE	W01
	BYTE		        c_v+3
	BYTE	W01
	BYTE		        c_v+2
	BYTE	W01
	BYTE		        c_v+1
	BYTE	W01
	BYTE		        c_v+0
	BYTE	W24
	BYTE		N30   
	BYTE	W02
	BYTE		BEND    c_v+1
	BYTE	W01
	BYTE		        c_v+11
	BYTE	W01
	BYTE		        c_v+17
	BYTE	W01
	BYTE		        c_v+19
	BYTE	W01
	BYTE		        c_v+15
	BYTE	W01
	BYTE		        c_v+9
	BYTE	W01
	BYTE		        c_v+6
	BYTE	W01
	BYTE		        c_v+3
	BYTE	W01
	BYTE		        c_v+2
	BYTE	W01
	BYTE		        c_v+1
	BYTE	W01
	BYTE		        c_v+0
	BYTE	W12
	BYTE	PEND
// 013   ----------------------------------------
decisive2_5_013:
	BYTE	W12
	BYTE		N30     En4   v127
	BYTE	W24
	BYTE		N09     Fn3 
	BYTE	W06
	BYTE		BEND    c_v+0
	BYTE	W01
	BYTE		        c_v-11
	BYTE	W01
	BYTE		        c_v-22
	BYTE	W01
	BYTE		        c_v-32
	BYTE	W01
	BYTE		        c_v-43
	BYTE	W01
	BYTE		        c_v-54
	BYTE	W01
	BYTE		N06     En3 
	BYTE	W12
	BYTE		BEND    c_v+0
	BYTE		N09     Bn2 
	BYTE	W12
	BYTE		N06     Cn3 
	BYTE	W12
	BYTE		N09     Fn2 
	BYTE	W12
	BYTE	PEND
// 014   ----------------------------------------
	BYTE		N06     En2 
	BYTE	W96
// 015   ----------------------------------------
	BYTE	PATT
	POIN2	decisive2_5_011
// 016   ----------------------------------------
	BYTE	PATT
	POIN2	decisive2_5_012
// 017   ----------------------------------------
	BYTE	PATT
	POIN2	decisive2_5_013
// 018   ----------------------------------------
	BYTE		N06     En2   v127
	BYTE	W96
// 019   ----------------------------------------
	BYTE	W96
// 020   ----------------------------------------
	BYTE	W96
// 021   ----------------------------------------
	BYTE	W96
// 022   ----------------------------------------
decisive2_5_022:
	BYTE	W24
	BYTE		N22     En2   v127
	BYTE		N22     En3 
	BYTE	W18
	BYTE		BEND    c_v+0
	BYTE	W01
	BYTE		        c_v+10
	BYTE	W01
	BYTE		        c_v+21
	BYTE	W01
	BYTE		        c_v+32
	BYTE	W01
	BYTE		        c_v+42
	BYTE	W01
	BYTE		        c_v+63
	BYTE	W01
	BYTE		        c_v+0
	BYTE		N22     Bn2 
	BYTE		N22     Bn3 
	BYTE	W24
	BYTE		N11     An2 
	BYTE		N11     An3 
	BYTE	W12
	BYTE		        Bn2 
	BYTE		N11     Bn3 
	BYTE	W12
	BYTE	PEND
// 023   ----------------------------------------
decisive2_5_023:
	BYTE		N22     Dn3   v127
	BYTE		N22     Dn4 
	BYTE	W24
	BYTE		N11     Cn3 
	BYTE		N11     Cn4 
	BYTE	W12
	BYTE		N22     Bn2 
	BYTE		N22     Bn3 
	BYTE	W24
	BYTE		        An2 
	BYTE		N22     An3 
	BYTE	W24
	BYTE		N44     Bn2 
	BYTE		N44     Bn3 
	BYTE	W12
	BYTE	PEND
// 024   ----------------------------------------
decisive2_5_024:
	BYTE	W36
	BYTE		N22     En3   v127
	BYTE		N22     En4 
	BYTE	W24
	BYTE		        Dn3 
	BYTE		N22     Dn4 
	BYTE	W24
	BYTE		N23     En3 
	BYTE		N23     En4 
	BYTE	W01
	BYTE	W01
	BYTE	W01
	BYTE	W01
	BYTE	W01
	BYTE	W01
	BYTE	W01
	BYTE	W01
	BYTE	W01
	BYTE	W01
	BYTE	W01
	BYTE	W01
	BYTE	PEND
// 025   ----------------------------------------
decisive2_5_025:
	BYTE	W01
	BYTE	W01
	BYTE	W01
	BYTE	W01
	BYTE	W01
	BYTE	W01
	BYTE	W01
	BYTE	W01
	BYTE	W01
	BYTE	W01
	BYTE	W01
	BYTE	W01
	BYTE		N22     An2   v127
	BYTE		N22     An4 
	BYTE	W01
	BYTE	W01
	BYTE	W01
	BYTE	W01
	BYTE	W01
	BYTE	W01
	BYTE	W01
	BYTE	W01
	BYTE	W01
	BYTE	W01
	BYTE	W01
	BYTE	W01
	BYTE	W01
	BYTE	W01
	BYTE	W01
	BYTE	W01
	BYTE	W01
	BYTE	W01
	BYTE	W01
	BYTE	W01
	BYTE	W01
	BYTE	W01
	BYTE	W01
	BYTE	W01
	BYTE		N11     Bn2 
	BYTE		N11     Bn4 
	BYTE	W01
	BYTE	W01
	BYTE	W01
	BYTE	W01
	BYTE	W01
	BYTE	W01
	BYTE	W01
	BYTE	W01
	BYTE	W01
	BYTE	W01
	BYTE	W01
	BYTE	W01
	BYTE		N17     Cn3 
	BYTE		N17     Cn5 
	BYTE	W01
	BYTE	W01
	BYTE	W01
	BYTE	W01
	BYTE	W01
	BYTE	W01
	BYTE	W01
	BYTE	W01
	BYTE	W01
	BYTE	W01
	BYTE	W01
	BYTE	W01
	BYTE	W01
	BYTE	W01
	BYTE	W01
	BYTE	W01
	BYTE	W01
	BYTE	W01
	BYTE		        Dn3 
	BYTE		N17     Dn5 
	BYTE	W01
	BYTE	W01
	BYTE	W01
	BYTE	W01
	BYTE	W01
	BYTE	W01
	BYTE	W01
	BYTE	W01
	BYTE	W01
	BYTE	W01
	BYTE	W01
	BYTE	W01
	BYTE	W01
	BYTE	W01
	BYTE	W01
	BYTE	W01
	BYTE	W01
	BYTE	W01
	BYTE		N12     En3 
	BYTE		N12     En5 
	BYTE	W12
	BYTE	PEND
// 026   ----------------------------------------
	BYTE	W96
// 027   ----------------------------------------
	BYTE	W96
// 028   ----------------------------------------
	BYTE	W96
// 029   ----------------------------------------
	BYTE	W96
// 030   ----------------------------------------
	BYTE	PATT
	POIN2	decisive2_5_022
// 031   ----------------------------------------
	BYTE	PATT
	POIN2	decisive2_5_023
// 032   ----------------------------------------
	BYTE	PATT
	POIN2	decisive2_5_024
// 033   ----------------------------------------
	BYTE	PATT
	POIN2	decisive2_5_025
// 034   ----------------------------------------
	BYTE	W96
// 035   ----------------------------------------
	BYTE	PATT
	POIN2	decisive2_5_011
// 036   ----------------------------------------
	BYTE	PATT
	POIN2	decisive2_5_012
// 037   ----------------------------------------
	BYTE	PATT
	POIN2	decisive2_5_013
// 038   ----------------------------------------
	BYTE		N06     En2   v127
	BYTE	W96
// 039   ----------------------------------------
	BYTE	PATT
	POIN2	decisive2_5_011
// 040   ----------------------------------------
	BYTE	PATT
	POIN2	decisive2_5_012
// 041   ----------------------------------------
	BYTE	PATT
	POIN2	decisive2_5_013
// 042   ----------------------------------------
decisive2_5_042:
	BYTE		N06     En2   v127
	BYTE	W12
	BYTE		N05     En3   v096
	BYTE		N02     Gs3   v112
	BYTE		N02     Bn3 
	BYTE	W12
	BYTE		N05     En3   v096
	BYTE		N02     Gs3   v112
	BYTE		N02     Bn3 
	BYTE	W24
	BYTE		N05     En3   v096
	BYTE		N02     Gs3   v112
	BYTE		N02     Bn3 
	BYTE	W12
	BYTE		N05     En3   v096
	BYTE		N02     Gs3   v112
	BYTE		N02     Bn3 
	BYTE	W24
	BYTE		N05     En3   v096
	BYTE		N02     Gs3   v112
	BYTE		N02     Bn3 
	BYTE	W12
	BYTE	PEND
// 043   ----------------------------------------
decisive2_5_043:
	BYTE		N05     En3   v096
	BYTE		N02     Gs3   v112
	BYTE		N02     Bn3 
	BYTE	W24
	BYTE		N05     En3   v096
	BYTE		N02     Gs3   v112
	BYTE		N02     Bn3 
	BYTE	W12
	BYTE		N05     En3   v096
	BYTE		N02     Gs3   v112
	BYTE		N02     Bn3 
	BYTE	W12
	BYTE		N22     Fs3   v080
	BYTE		N22     An3   v096
	BYTE		N22     Cn4 
	BYTE	W24
	BYTE		        Fs3   v080
	BYTE		N22     An3   v096
	BYTE		N22     Cn4 
	BYTE	W24
	BYTE	PEND
// 044   ----------------------------------------
decisive2_5_044:
	BYTE	W12
	BYTE		N05     Gn3   v096
	BYTE		N02     Bn3   v127
	BYTE		N02     Dn4 
	BYTE	W12
	BYTE		N05     Gn3   v096
	BYTE		N02     Bn3   v127
	BYTE		N02     Dn4 
	BYTE	W24
	BYTE		N05     Gn3   v096
	BYTE		N02     Bn3   v127
	BYTE		N02     Dn4 
	BYTE	W12
	BYTE		N05     Gn3   v096
	BYTE		N02     Bn3   v127
	BYTE		N02     Dn4 
	BYTE	W24
	BYTE		N05     Gn3   v096
	BYTE		N02     Bn3   v127
	BYTE		N02     Dn4 
	BYTE	W12
	BYTE	PEND
// 045   ----------------------------------------
decisive2_5_045:
	BYTE		N05     Gn3   v096
	BYTE		N02     Bn3   v127
	BYTE		N02     Dn4 
	BYTE	W24
	BYTE		N05     Gn3   v096
	BYTE		N02     Bn3   v127
	BYTE		N02     Dn4 
	BYTE	W12
	BYTE		N05     Gn3   v096
	BYTE		N02     Bn3   v127
	BYTE		N02     Dn4 
	BYTE	W12
	BYTE		N22     Fn3   v080
	BYTE		N22     An3   v096
	BYTE		N22     Cn4 
	BYTE	W24
	BYTE		        Fn3   v080
	BYTE		N22     An3   v096
	BYTE		N22     Cn4 
	BYTE	W24
	BYTE	PEND
// 046   ----------------------------------------
decisive2_5_046:
	BYTE	W12
	BYTE		N05     En3   v096
	BYTE		N02     Gs3   v127
	BYTE		N02     Bn3 
	BYTE	W12
	BYTE		N05     En3   v096
	BYTE		N02     Gs3   v127
	BYTE		N02     Bn3 
	BYTE	W24
	BYTE		N05     En3   v096
	BYTE		N02     Gs3   v127
	BYTE		N02     Bn3 
	BYTE	W12
	BYTE		N05     En3   v096
	BYTE		N02     Gs3   v127
	BYTE		N02     Bn3 
	BYTE	W24
	BYTE		N05     En3   v096
	BYTE		N02     Gs3   v127
	BYTE		N02     Bn3 
	BYTE	W12
	BYTE	PEND
// 047   ----------------------------------------
decisive2_5_047:
	BYTE		N05     En3   v096
	BYTE		N02     Gs3   v127
	BYTE		N02     Bn3 
	BYTE	W24
	BYTE		N05     En3   v096
	BYTE		N02     Gs3   v127
	BYTE		N02     Bn3 
	BYTE	W12
	BYTE		N05     En3   v096
	BYTE		N02     Gs3   v127
	BYTE		N02     Bn3 
	BYTE	W12
	BYTE		N22     Fs3   v080
	BYTE		N22     An3   v096
	BYTE	W24
	BYTE		        Fs3   v080
	BYTE		N22     An3   v096
	BYTE	W24
	BYTE	PEND
// 048   ----------------------------------------
decisive2_5_048:
	BYTE	W12
	BYTE		N05     En3   v096
	BYTE		N02     Gs3   v127
	BYTE	W12
	BYTE		N05     En3   v096
	BYTE		N02     Gs3   v127
	BYTE	W24
	BYTE		N05     En3   v096
	BYTE		N02     Gs3   v127
	BYTE	W12
	BYTE		N05     En3   v096
	BYTE		N02     Gs3   v127
	BYTE	W24
	BYTE		N05     En3   v096
	BYTE		N02     Gs3   v127
	BYTE	W12
	BYTE	PEND
// 049   ----------------------------------------
decisive2_5_049:
	BYTE		N05     En3   v096
	BYTE		N02     Gs3   v127
	BYTE	W24
	BYTE		N05     En3   v096
	BYTE		N02     Gs3   v127
	BYTE	W12
	BYTE		N05     En3   v096
	BYTE		N02     Gs3   v127
	BYTE	W12
	BYTE		N22     Fs3   v080
	BYTE		N22     An3   v096
	BYTE	W24
	BYTE		        Fs3   v080
	BYTE		N22     An3   v096
	BYTE	W24
	BYTE	PEND
// 050   ----------------------------------------
	BYTE	W96
// 051   ----------------------------------------
	BYTE	W96
// 052   ----------------------------------------
	BYTE	W96
// 053   ----------------------------------------
	BYTE	PATT
	POIN2	decisive2_5_009
// 054   ----------------------------------------
	BYTE		N06     En2   v127
	BYTE	W96
// 055   ----------------------------------------
	BYTE	PATT
	POIN2	decisive2_5_011
// 056   ----------------------------------------
	BYTE	PATT
	POIN2	decisive2_5_012
// 057   ----------------------------------------
	BYTE	PATT
	POIN2	decisive2_5_013
// 058   ----------------------------------------
	BYTE		N06     En2   v127
	BYTE	W96
// 059   ----------------------------------------
	BYTE	PATT
	POIN2	decisive2_5_011
// 060   ----------------------------------------
	BYTE	PATT
	POIN2	decisive2_5_012
// 061   ----------------------------------------
	BYTE	PATT
	POIN2	decisive2_5_013
// 062   ----------------------------------------
	BYTE		N06     En2   v127
	BYTE	W96
// 063   ----------------------------------------
	BYTE	W96
// 064   ----------------------------------------
	BYTE	W96
// 065   ----------------------------------------
	BYTE	W96
// 066   ----------------------------------------
	BYTE	PATT
	POIN2	decisive2_5_022
// 067   ----------------------------------------
	BYTE	PATT
	POIN2	decisive2_5_023
// 068   ----------------------------------------
	BYTE	PATT
	POIN2	decisive2_5_024
// 069   ----------------------------------------
	BYTE	PATT
	POIN2	decisive2_5_025
// 070   ----------------------------------------
	BYTE	W96
// 071   ----------------------------------------
	BYTE	PATT
	POIN2	decisive2_5_011
// 072   ----------------------------------------
	BYTE	PATT
	POIN2	decisive2_5_012
// 073   ----------------------------------------
	BYTE	PATT
	POIN2	decisive2_5_013
// 074   ----------------------------------------
	BYTE		N06     En2   v127
	BYTE	W96
// 075   ----------------------------------------
	BYTE	PATT
	POIN2	decisive2_5_011
// 076   ----------------------------------------
	BYTE	PATT
	POIN2	decisive2_5_012
// 077   ----------------------------------------
	BYTE	PATT
	POIN2	decisive2_5_013
// 078   ----------------------------------------
	BYTE	PATT
	POIN2	decisive2_5_042
// 079   ----------------------------------------
	BYTE	PATT
	POIN2	decisive2_5_043
// 080   ----------------------------------------
	BYTE	PATT
	POIN2	decisive2_5_044
// 081   ----------------------------------------
	BYTE	PATT
	POIN2	decisive2_5_045
// 082   ----------------------------------------
	BYTE	PATT
	POIN2	decisive2_5_046
// 083   ----------------------------------------
	BYTE	PATT
	POIN2	decisive2_5_047
// 084   ----------------------------------------
	BYTE	PATT
	POIN2	decisive2_5_048
// 085   ----------------------------------------
	BYTE	PATT
	POIN2	decisive2_5_049
// 086   ----------------------------------------
	BYTE		TIE     En3   v080
	BYTE		TIE     Gs3   v064
	BYTE	W96
// 087   ----------------------------------------
	BYTE	W90
	BYTE	W01
	BYTE		EOT     En3 
	BYTE		        Gs3 
	BYTE	FINE

//**************** Track 6 (Midi-Chn.7) ****************//

decisive2_6:
	BYTE	KEYSH   decisive2_key+0
// 000   ----------------------------------------
	BYTE	W96
// 001   ----------------------------------------
	BYTE		VOICE   46
	BYTE	W01
	BYTE		PAN     c_v+0
	BYTE	W02
	BYTE		VOL     85*decisive2_mvl/mxv
	BYTE	W01
	BYTE	W02
	BYTE	W90
// 002   ----------------------------------------
	BYTE	W96
// 003   ----------------------------------------
	BYTE	W96
// 004   ----------------------------------------
	BYTE	W96
// 005   ----------------------------------------
	BYTE	W96
// 006   ----------------------------------------
	BYTE	W96
// 007   ----------------------------------------
	BYTE	W96
// 008   ----------------------------------------
	BYTE	W96
// 009   ----------------------------------------
	BYTE	W96
// 010   ----------------------------------------
	BYTE	W96
// 011   ----------------------------------------
	BYTE	W96
// 012   ----------------------------------------
	BYTE	W96
// 013   ----------------------------------------
	BYTE	W96
// 014   ----------------------------------------
	BYTE	W96
// 015   ----------------------------------------
	BYTE	W96
// 016   ----------------------------------------
	BYTE	W96
// 017   ----------------------------------------
decisive2_6_017:
	BYTE	W48
	BYTE		N05     Gn2   v112
	BYTE	W03
	BYTE		        An2 
	BYTE	W03
	BYTE		        Bn2 
	BYTE	W03
	BYTE		        Dn3 
	BYTE	W03
	BYTE		        En3 
	BYTE	W03
	BYTE		        Fn3 
	BYTE	W03
	BYTE		        Gn3 
	BYTE	W03
	BYTE		        An3 
	BYTE	W03
	BYTE		        Bn3 
	BYTE	W03
	BYTE		        Dn4 
	BYTE	W03
	BYTE		        En4 
	BYTE	W03
	BYTE		        Fn4 
	BYTE	W03
	BYTE		        Gn4 
	BYTE	W03
	BYTE		        An4 
	BYTE	W03
	BYTE		        Bn4 
	BYTE	W03
	BYTE		        Dn5 
	BYTE	W02
	BYTE		N11     En5 
	BYTE	W01
	BYTE	PEND
// 018   ----------------------------------------
	BYTE	W96
// 019   ----------------------------------------
	BYTE	W96
// 020   ----------------------------------------
	BYTE	W96
// 021   ----------------------------------------
	BYTE	W96
// 022   ----------------------------------------
	BYTE	W96
// 023   ----------------------------------------
	BYTE	W96
// 024   ----------------------------------------
	BYTE	W96
// 025   ----------------------------------------
decisive2_6_025:
	BYTE		N05     Gn2   v096
	BYTE	W03
	BYTE		        An2 
	BYTE	W03
	BYTE		        Bn2 
	BYTE	W03
	BYTE		        Dn3 
	BYTE	W03
	BYTE		        En3 
	BYTE	W03
	BYTE		        Fn3 
	BYTE	W03
	BYTE		        Gn3 
	BYTE	W03
	BYTE		        An3 
	BYTE	W03
	BYTE		        En3 
	BYTE	W03
	BYTE		        Fn3 
	BYTE	W03
	BYTE		        Gn3 
	BYTE	W03
	BYTE		        An3 
	BYTE	W03
	BYTE		        Bn3 
	BYTE	W03
	BYTE		        Dn4 
	BYTE	W03
	BYTE		        En4 
	BYTE	W03
	BYTE		        Fn4 
	BYTE	W03
	BYTE		        Gn3 
	BYTE	W03
	BYTE		        An3 
	BYTE	W03
	BYTE		        Bn3 
	BYTE	W03
	BYTE		        Dn4 
	BYTE	W03
	BYTE		        En4 
	BYTE	W03
	BYTE		        Fn4 
	BYTE	W03
	BYTE		        Gn4 
	BYTE	W03
	BYTE		        An4 
	BYTE	W03
	BYTE		        Bn4 
	BYTE	W03
	BYTE		        Dn5 
	BYTE	W03
	BYTE		        En5 
	BYTE	W03
	BYTE		        Fn5 
	BYTE	W03
	BYTE		        Gn5 
	BYTE	W03
	BYTE		        An5 
	BYTE	W03
	BYTE		        Bn5 
	BYTE	W03
	BYTE		        Dn6 
	BYTE	W03
	BYTE	PEND
// 026   ----------------------------------------
	BYTE		N11     En6 
	BYTE	W96
// 027   ----------------------------------------
	BYTE	W96
// 028   ----------------------------------------
	BYTE	W96
// 029   ----------------------------------------
	BYTE	W96
// 030   ----------------------------------------
	BYTE	W96
// 031   ----------------------------------------
	BYTE	W96
// 032   ----------------------------------------
	BYTE	W96
// 033   ----------------------------------------
	BYTE	PATT
	POIN2	decisive2_6_025
// 034   ----------------------------------------
	BYTE		N11     En6   v096
	BYTE	W96
// 035   ----------------------------------------
	BYTE	W96
// 036   ----------------------------------------
	BYTE	W96
// 037   ----------------------------------------
	BYTE	W96
// 038   ----------------------------------------
	BYTE	W96
// 039   ----------------------------------------
	BYTE	W96
// 040   ----------------------------------------
	BYTE	W96
// 041   ----------------------------------------
decisive2_6_041:
	BYTE		N05     Gn2   v096
	BYTE	W03
	BYTE		        An2 
	BYTE	W03
	BYTE		        Bn2 
	BYTE	W03
	BYTE		        Dn3 
	BYTE	W03
	BYTE		        En3 
	BYTE	W03
	BYTE		        Fn3 
	BYTE	W03
	BYTE		        Gn3 
	BYTE	W03
	BYTE		        An3 
	BYTE	W03
	BYTE		        En3 
	BYTE	W03
	BYTE		        Fn3 
	BYTE	W03
	BYTE		        Gn3 
	BYTE	W03
	BYTE		        An3 
	BYTE	W03
	BYTE		        Bn3 
	BYTE	W03
	BYTE		        Dn4 
	BYTE	W03
	BYTE		        En4 
	BYTE	W03
	BYTE		        Fn4 
	BYTE	W03
	BYTE		        Gn3 
	BYTE	W03
	BYTE		        An3 
	BYTE	W03
	BYTE		        Bn3 
	BYTE	W03
	BYTE		        Dn4 
	BYTE	W03
	BYTE		        En4 
	BYTE	W03
	BYTE		        Fn4 
	BYTE	W03
	BYTE		        Gn4 
	BYTE	W03
	BYTE		        An4 
	BYTE	W03
	BYTE		        Bn3 
	BYTE	W03
	BYTE		        Dn4 
	BYTE	W03
	BYTE		        En4 
	BYTE	W03
	BYTE		        Fn4 
	BYTE	W03
	BYTE		        Gn4 
	BYTE	W03
	BYTE		        An4 
	BYTE	W03
	BYTE		        Bn4 
	BYTE	W03
	BYTE		        Dn5 
	BYTE	W02
	BYTE		N11     En5 
	BYTE	W01
	BYTE	PEND
// 042   ----------------------------------------
	BYTE	W96
// 043   ----------------------------------------
	BYTE	W96
// 044   ----------------------------------------
	BYTE	W96
// 045   ----------------------------------------
	BYTE	W96
// 046   ----------------------------------------
	BYTE	W96
// 047   ----------------------------------------
	BYTE	W96
// 048   ----------------------------------------
	BYTE	W96
// 049   ----------------------------------------
	BYTE	PATT
	POIN2	decisive2_6_041
// 050   ----------------------------------------
	BYTE	W96
// 051   ----------------------------------------
	BYTE	W96
// 052   ----------------------------------------
	BYTE	W96
// 053   ----------------------------------------
	BYTE	W96
// 054   ----------------------------------------
	BYTE	W96
// 055   ----------------------------------------
	BYTE	W96
// 056   ----------------------------------------
	BYTE	W96
// 057   ----------------------------------------
	BYTE	W96
// 058   ----------------------------------------
	BYTE	W96
// 059   ----------------------------------------
	BYTE	W96
// 060   ----------------------------------------
	BYTE	W96
// 061   ----------------------------------------
	BYTE	PATT
	POIN2	decisive2_6_017
// 062   ----------------------------------------
	BYTE	W96
// 063   ----------------------------------------
	BYTE	W96
// 064   ----------------------------------------
	BYTE	W96
// 065   ----------------------------------------
	BYTE	W96
// 066   ----------------------------------------
	BYTE	W96
// 067   ----------------------------------------
	BYTE	W96
// 068   ----------------------------------------
	BYTE	W96
// 069   ----------------------------------------
	BYTE	PATT
	POIN2	decisive2_6_025
// 070   ----------------------------------------
	BYTE		N11     En6   v096
	BYTE	W96
// 071   ----------------------------------------
	BYTE	W96
// 072   ----------------------------------------
	BYTE	W96
// 073   ----------------------------------------
	BYTE	W96
// 074   ----------------------------------------
	BYTE	W96
// 075   ----------------------------------------
	BYTE	W96
// 076   ----------------------------------------
	BYTE	W96
// 077   ----------------------------------------
	BYTE	PATT
	POIN2	decisive2_6_041
// 078   ----------------------------------------
	BYTE	W96
// 079   ----------------------------------------
	BYTE	W96
// 080   ----------------------------------------
	BYTE	W96
// 081   ----------------------------------------
	BYTE	W96
// 082   ----------------------------------------
	BYTE	W96
// 083   ----------------------------------------
	BYTE	W96
// 084   ----------------------------------------
	BYTE	W96
// 085   ----------------------------------------
	BYTE	PATT
	POIN2	decisive2_6_041
// 086   ----------------------------------------
	BYTE	W10
	BYTE	FINE

//**************** Track 7 (Midi-Chn.8) ****************//

decisive2_7:
	BYTE	KEYSH   decisive2_key+0
// 000   ----------------------------------------
	BYTE		VOICE   0
	BYTE	W96
// 001   ----------------------------------------
	BYTE	W12
	BYTE		        3
	BYTE	W01
	BYTE		PAN     c_v-20
	BYTE	W02
	BYTE		VOL     0*decisive2_mvl/mxv
	BYTE	W01
	BYTE	W02
	BYTE	W01
	BYTE	W76
	BYTE	W01
// 002   ----------------------------------------
	BYTE	W96
// 003   ----------------------------------------
	BYTE	W96
// 004   ----------------------------------------
	BYTE	W96
// 005   ----------------------------------------
	BYTE	W96
// 006   ----------------------------------------
	BYTE	W96
// 007   ----------------------------------------
	BYTE	W96
// 008   ----------------------------------------
	BYTE	W96
// 009   ----------------------------------------
	BYTE	W96
// 010   ----------------------------------------
	BYTE	W96
// 011   ----------------------------------------
	BYTE	W96
// 012   ----------------------------------------
	BYTE	W96
// 013   ----------------------------------------
	BYTE	W96
// 014   ----------------------------------------
	BYTE	W96
// 015   ----------------------------------------
	BYTE	W96
// 016   ----------------------------------------
	BYTE	W96
// 017   ----------------------------------------
	BYTE	W96
// 018   ----------------------------------------
decisive2_7_018:
	BYTE		N90     En2   v127
	BYTE		N90     Gs2 
	BYTE		N90     Gs3   v096
	BYTE	W96
	BYTE	PEND
// 019   ----------------------------------------
decisive2_7_019:
	BYTE	W48
	BYTE		N44     Cn2   v127
	BYTE		N44     Fn2 
	BYTE		N44     Fn3   v112
	BYTE	W48
	BYTE	PEND
// 020   ----------------------------------------
decisive2_7_020:
	BYTE		N90     Dn2   v127
	BYTE		N90     Gn2 
	BYTE		N90     Gn3   v112
	BYTE	W96
	BYTE	PEND
// 021   ----------------------------------------
	BYTE	PATT
	POIN2	decisive2_7_019
// 022   ----------------------------------------
decisive2_7_022:
	BYTE		N90     Bn1   v127
	BYTE		N90     En2 
	BYTE		N90     En3   v112
	BYTE	W96
	BYTE	PEND
// 023   ----------------------------------------
	BYTE	PATT
	POIN2	decisive2_7_019
// 024   ----------------------------------------
	BYTE	PATT
	POIN2	decisive2_7_018
// 025   ----------------------------------------
	BYTE	PATT
	POIN2	decisive2_7_019
// 026   ----------------------------------------
	BYTE		N90     En2   v127
	BYTE		N90     Gs2 
	BYTE		N90     Gs3   v112
	BYTE	W96
// 027   ----------------------------------------
	BYTE	PATT
	POIN2	decisive2_7_019
// 028   ----------------------------------------
	BYTE	PATT
	POIN2	decisive2_7_020
// 029   ----------------------------------------
	BYTE	PATT
	POIN2	decisive2_7_019
// 030   ----------------------------------------
	BYTE	PATT
	POIN2	decisive2_7_022
// 031   ----------------------------------------
	BYTE	PATT
	POIN2	decisive2_7_019
// 032   ----------------------------------------
	BYTE	PATT
	POIN2	decisive2_7_018
// 033   ----------------------------------------
	BYTE	PATT
	POIN2	decisive2_7_019
// 034   ----------------------------------------
	BYTE	PATT
	POIN2	decisive2_7_022
// 035   ----------------------------------------
	BYTE	W96
// 036   ----------------------------------------
	BYTE	W96
// 037   ----------------------------------------
	BYTE	W96
// 038   ----------------------------------------
	BYTE	W96
// 039   ----------------------------------------
	BYTE	W96
// 040   ----------------------------------------
	BYTE	W96
// 041   ----------------------------------------
	BYTE	W96
// 042   ----------------------------------------
	BYTE		N90     En2   v127
	BYTE		N90     Gs2 
	BYTE	W96
// 043   ----------------------------------------
decisive2_7_043:
	BYTE	W48
	BYTE		N44     Cn2   v127
	BYTE		N44     Fn2 
	BYTE	W48
	BYTE	PEND
// 044   ----------------------------------------
	BYTE		N90     Dn2 
	BYTE		N90     Gn2 
	BYTE	W96
// 045   ----------------------------------------
decisive2_7_045:
	BYTE	W48
	BYTE		N44     Bn1   v127
	BYTE		N44     Fn2 
	BYTE	W48
	BYTE	PEND
// 046   ----------------------------------------
	BYTE		N90     En2 
	BYTE		N90     Gs2 
	BYTE	W96
// 047   ----------------------------------------
	BYTE	PATT
	POIN2	decisive2_7_045
// 048   ----------------------------------------
	BYTE		N90     En2   v127
	BYTE		N90     Gs2 
	BYTE	W96
// 049   ----------------------------------------
	BYTE	PATT
	POIN2	decisive2_7_045
// 050   ----------------------------------------
	BYTE	W96
// 051   ----------------------------------------
	BYTE	W96
// 052   ----------------------------------------
	BYTE	W96
// 053   ----------------------------------------
	BYTE	W96
// 054   ----------------------------------------
	BYTE	W96
// 055   ----------------------------------------
	BYTE	W96
// 056   ----------------------------------------
	BYTE	W96
// 057   ----------------------------------------
	BYTE	W96
// 058   ----------------------------------------
	BYTE	W96
// 059   ----------------------------------------
	BYTE	W96
// 060   ----------------------------------------
	BYTE	W96
// 061   ----------------------------------------
	BYTE	W96
// 062   ----------------------------------------
	BYTE	PATT
	POIN2	decisive2_7_018
// 063   ----------------------------------------
	BYTE	PATT
	POIN2	decisive2_7_019
// 064   ----------------------------------------
	BYTE	PATT
	POIN2	decisive2_7_020
// 065   ----------------------------------------
	BYTE	PATT
	POIN2	decisive2_7_019
// 066   ----------------------------------------
	BYTE	PATT
	POIN2	decisive2_7_022
// 067   ----------------------------------------
	BYTE	PATT
	POIN2	decisive2_7_019
// 068   ----------------------------------------
	BYTE	PATT
	POIN2	decisive2_7_018
// 069   ----------------------------------------
	BYTE	PATT
	POIN2	decisive2_7_019
// 070   ----------------------------------------
	BYTE	PATT
	POIN2	decisive2_7_022
// 071   ----------------------------------------
	BYTE	W96
// 072   ----------------------------------------
	BYTE	W96
// 073   ----------------------------------------
	BYTE	W96
// 074   ----------------------------------------
	BYTE	W96
// 075   ----------------------------------------
	BYTE	W96
// 076   ----------------------------------------
	BYTE	W96
// 077   ----------------------------------------
	BYTE	W96
// 078   ----------------------------------------
	BYTE		N90     En2   v127
	BYTE		N90     Gs2 
	BYTE	W96
// 079   ----------------------------------------
	BYTE	PATT
	POIN2	decisive2_7_043
// 080   ----------------------------------------
	BYTE		N90     Dn2   v127
	BYTE		N90     Gn2 
	BYTE	W96
// 081   ----------------------------------------
	BYTE	PATT
	POIN2	decisive2_7_045
// 082   ----------------------------------------
	BYTE		N90     En2   v127
	BYTE		N90     Gs2 
	BYTE	W96
// 083   ----------------------------------------
	BYTE	PATT
	POIN2	decisive2_7_045
// 084   ----------------------------------------
	BYTE		N90     En2   v127
	BYTE		N90     Gs2 
	BYTE	W96
// 085   ----------------------------------------
	BYTE	PATT
	POIN2	decisive2_7_045
// 086   ----------------------------------------
	BYTE		TIE     En1   v127
	BYTE		TIE     Bn1 
	BYTE		TIE     En2 
	BYTE		TIE     Gs2 
	BYTE	W96
// 087   ----------------------------------------
	BYTE	W90
	BYTE	W01
	BYTE		EOT     En1 
	BYTE		        Bn1 
	BYTE		        En2 
	BYTE		        Gs2 
	BYTE	FINE

//**************** Track 8 (Midi-Chn.9) ****************//

decisive2_8:
	BYTE	KEYSH   decisive2_key+0
// 000   ----------------------------------------
	BYTE	W96
// 001   ----------------------------------------
	BYTE	W24
	BYTE		VOICE   33
	BYTE	W01
	BYTE		PAN     c_v+10
	BYTE	W02
	BYTE		VOL     90*decisive2_mvl/mxv
	BYTE	W68
	BYTE	W01
// 002   ----------------------------------------
	BYTE	W96
// 003   ----------------------------------------
	BYTE	W96
// 004   ----------------------------------------
	BYTE	W96
// 005   ----------------------------------------
	BYTE	W96
// 006   ----------------------------------------
	BYTE	W96
// 007   ----------------------------------------
	BYTE	W96
// 008   ----------------------------------------
	BYTE	W96
// 009   ----------------------------------------
	BYTE	W96
// 010   ----------------------------------------
	BYTE	W96
// 011   ----------------------------------------
	BYTE	W96
// 012   ----------------------------------------
	BYTE	W96
// 013   ----------------------------------------
	BYTE	W96
// 014   ----------------------------------------
	BYTE	W96
// 015   ----------------------------------------
	BYTE	W96
// 016   ----------------------------------------
	BYTE	W96
// 017   ----------------------------------------
	BYTE	W96
// 018   ----------------------------------------
decisive2_8_018:
	BYTE		N22     En1   v127
	BYTE	W36
	BYTE		N22   
	BYTE	W36
	BYTE		N22   
	BYTE	W24
	BYTE	PEND
// 019   ----------------------------------------
decisive2_8_019:
	BYTE	W12
	BYTE		N22     En1   v127
	BYTE	W36
	BYTE		        Bn0 
	BYTE	W24
	BYTE		N22   
	BYTE	W24
	BYTE	PEND
// 020   ----------------------------------------
	BYTE	PATT
	POIN2	decisive2_8_018
// 021   ----------------------------------------
	BYTE	PATT
	POIN2	decisive2_8_019
// 022   ----------------------------------------
	BYTE	PATT
	POIN2	decisive2_8_018
// 023   ----------------------------------------
	BYTE	PATT
	POIN2	decisive2_8_019
// 024   ----------------------------------------
	BYTE	PATT
	POIN2	decisive2_8_018
// 025   ----------------------------------------
	BYTE	PATT
	POIN2	decisive2_8_019
// 026   ----------------------------------------
	BYTE	PATT
	POIN2	decisive2_8_018
// 027   ----------------------------------------
	BYTE	PATT
	POIN2	decisive2_8_019
// 028   ----------------------------------------
	BYTE	PATT
	POIN2	decisive2_8_018
// 029   ----------------------------------------
	BYTE	PATT
	POIN2	decisive2_8_019
// 030   ----------------------------------------
	BYTE	PATT
	POIN2	decisive2_8_018
// 031   ----------------------------------------
	BYTE	PATT
	POIN2	decisive2_8_019
// 032   ----------------------------------------
	BYTE	PATT
	POIN2	decisive2_8_018
// 033   ----------------------------------------
	BYTE	PATT
	POIN2	decisive2_8_019
// 034   ----------------------------------------
	BYTE	PATT
	POIN2	decisive2_8_018
// 035   ----------------------------------------
	BYTE	PATT
	POIN2	decisive2_8_019
// 036   ----------------------------------------
	BYTE	PATT
	POIN2	decisive2_8_018
// 037   ----------------------------------------
	BYTE	PATT
	POIN2	decisive2_8_019
// 038   ----------------------------------------
	BYTE	PATT
	POIN2	decisive2_8_018
// 039   ----------------------------------------
	BYTE	PATT
	POIN2	decisive2_8_019
// 040   ----------------------------------------
	BYTE	PATT
	POIN2	decisive2_8_018
// 041   ----------------------------------------
	BYTE	PATT
	POIN2	decisive2_8_019
// 042   ----------------------------------------
decisive2_8_042:
	BYTE		VOL     100*decisive2_mvl/mxv
	BYTE		N22     En1   v127
	BYTE	W36
	BYTE		N22   
	BYTE	W36
	BYTE		N22   
	BYTE	W24
	BYTE	PEND
// 043   ----------------------------------------
	BYTE	PATT
	POIN2	decisive2_8_019
// 044   ----------------------------------------
	BYTE	PATT
	POIN2	decisive2_8_018
// 045   ----------------------------------------
	BYTE	PATT
	POIN2	decisive2_8_019
// 046   ----------------------------------------
	BYTE	PATT
	POIN2	decisive2_8_018
// 047   ----------------------------------------
	BYTE	PATT
	POIN2	decisive2_8_019
// 048   ----------------------------------------
decisive2_8_048:
	BYTE		VOL     100*decisive2_mvl/mxv
	BYTE		N22     En1   v127
	BYTE	W06
	BYTE		VOL     102*decisive2_mvl/mxv
	BYTE	W06
	BYTE		        103*decisive2_mvl/mxv
	BYTE	W06
	BYTE		        105*decisive2_mvl/mxv
	BYTE	W06
	BYTE		        106*decisive2_mvl/mxv
	BYTE	W06
	BYTE		        108*decisive2_mvl/mxv
	BYTE	W06
	BYTE		        109*decisive2_mvl/mxv
	BYTE		N22   
	BYTE	W06
	BYTE		VOL     111*decisive2_mvl/mxv
	BYTE	W06
	BYTE		        112*decisive2_mvl/mxv
	BYTE	W06
	BYTE		        114*decisive2_mvl/mxv
	BYTE	W06
	BYTE		        115*decisive2_mvl/mxv
	BYTE	W06
	BYTE		        117*decisive2_mvl/mxv
	BYTE	W06
	BYTE		        118*decisive2_mvl/mxv
	BYTE		N22   
	BYTE	W06
	BYTE		VOL     120*decisive2_mvl/mxv
	BYTE	W06
	BYTE		        121*decisive2_mvl/mxv
	BYTE	W06
	BYTE		        123*decisive2_mvl/mxv
	BYTE	W06
	BYTE	PEND
// 049   ----------------------------------------
decisive2_8_049:
	BYTE		VOL     124*decisive2_mvl/mxv
	BYTE	W06
	BYTE		        126*decisive2_mvl/mxv
	BYTE	W01
	BYTE		        126*decisive2_mvl/mxv
	BYTE	W01
	BYTE		        126*decisive2_mvl/mxv
	BYTE	W01
	BYTE		        127*decisive2_mvl/mxv
	BYTE	W01
	BYTE		        127*decisive2_mvl/mxv
	BYTE	W01
	BYTE		        127*decisive2_mvl/mxv
	BYTE	W01
	BYTE		N22     En1   v127
	BYTE	W36
	BYTE		VOL     100*decisive2_mvl/mxv
	BYTE		N22     Bn0 
	BYTE	W24
	BYTE		N22   
	BYTE	W24
	BYTE	PEND
// 050   ----------------------------------------
	BYTE		VOL     90*decisive2_mvl/mxv
	BYTE	W96
// 051   ----------------------------------------
	BYTE	W96
// 052   ----------------------------------------
	BYTE	W96
// 053   ----------------------------------------
	BYTE	W96
// 054   ----------------------------------------
	BYTE	W96
// 055   ----------------------------------------
	BYTE	W96
// 056   ----------------------------------------
	BYTE	W96
// 057   ----------------------------------------
	BYTE	W96
// 058   ----------------------------------------
	BYTE	W96
// 059   ----------------------------------------
	BYTE	W96
// 060   ----------------------------------------
	BYTE	W96
// 061   ----------------------------------------
	BYTE	W96
// 062   ----------------------------------------
	BYTE	PATT
	POIN2	decisive2_8_018
// 063   ----------------------------------------
	BYTE	PATT
	POIN2	decisive2_8_019
// 064   ----------------------------------------
	BYTE	PATT
	POIN2	decisive2_8_018
// 065   ----------------------------------------
	BYTE	PATT
	POIN2	decisive2_8_019
// 066   ----------------------------------------
	BYTE	PATT
	POIN2	decisive2_8_018
// 067   ----------------------------------------
	BYTE	PATT
	POIN2	decisive2_8_019
// 068   ----------------------------------------
	BYTE	PATT
	POIN2	decisive2_8_018
// 069   ----------------------------------------
	BYTE	PATT
	POIN2	decisive2_8_019
// 070   ----------------------------------------
	BYTE	PATT
	POIN2	decisive2_8_018
// 071   ----------------------------------------
	BYTE	PATT
	POIN2	decisive2_8_019
// 072   ----------------------------------------
	BYTE	PATT
	POIN2	decisive2_8_018
// 073   ----------------------------------------
	BYTE	PATT
	POIN2	decisive2_8_019
// 074   ----------------------------------------
	BYTE	PATT
	POIN2	decisive2_8_018
// 075   ----------------------------------------
	BYTE	PATT
	POIN2	decisive2_8_019
// 076   ----------------------------------------
	BYTE	PATT
	POIN2	decisive2_8_018
// 077   ----------------------------------------
	BYTE	PATT
	POIN2	decisive2_8_019
// 078   ----------------------------------------
	BYTE	PATT
	POIN2	decisive2_8_042
// 079   ----------------------------------------
	BYTE	PATT
	POIN2	decisive2_8_019
// 080   ----------------------------------------
	BYTE	PATT
	POIN2	decisive2_8_018
// 081   ----------------------------------------
	BYTE	PATT
	POIN2	decisive2_8_019
// 082   ----------------------------------------
	BYTE	PATT
	POIN2	decisive2_8_018
// 083   ----------------------------------------
	BYTE	PATT
	POIN2	decisive2_8_019
// 084   ----------------------------------------
	BYTE	PATT
	POIN2	decisive2_8_048
// 085   ----------------------------------------
	BYTE	PATT
	POIN2	decisive2_8_049
// 086   ----------------------------------------
	BYTE		VOL     120*decisive2_mvl/mxv
	BYTE		TIE     En1   v127
	BYTE	W96
// 087   ----------------------------------------
	BYTE	W90
	BYTE	W01
	BYTE		EOT   
	BYTE	FINE

//**************** Track 9 (Midi-Chn.13) ****************//

decisive2_9:
	BYTE	KEYSH   decisive2_key+0
// 000   ----------------------------------------
	BYTE		VOICE   127
	BYTE	W96
// 001   ----------------------------------------
	BYTE	W36
	BYTE		PAN     c_v+0
	BYTE	W01
	BYTE		VOL     127*decisive2_mvl/mxv
	BYTE	W56
	BYTE	W03
// 002   ----------------------------------------
	BYTE	W96
// 003   ----------------------------------------
	BYTE	W96
// 004   ----------------------------------------
	BYTE	W96
// 005   ----------------------------------------
	BYTE	W36
	BYTE		N01     As1   v112
	BYTE	W24
	BYTE	W03
	BYTE		        As1   v048
	BYTE	W03
	BYTE		N01   
	BYTE	W03
	BYTE		N01   
	BYTE	W03
	BYTE		        As1   v064
	BYTE	W16
	BYTE		        Bn0   v048
	BYTE	W04
	BYTE		N01   
	BYTE	W04
// 006   ----------------------------------------
decisive2_9_006:
	BYTE		N01     Bn0   v064
	BYTE		N01     As1 
	BYTE	W12
	BYTE		        Fs1   v048
	BYTE	W12
	BYTE		N01   
	BYTE	W12
	BYTE		        Bn0   v064
	BYTE		N01     As1 
	BYTE	W12
	BYTE		        Fs1   v048
	BYTE	W12
	BYTE		N01   
	BYTE	W12
	BYTE		        Bn0   v064
	BYTE		N01     As1 
	BYTE	W12
	BYTE		        Fs1   v048
	BYTE	W12
	BYTE	PEND
// 007   ----------------------------------------
decisive2_9_007:
	BYTE		N01     Fs1   v048
	BYTE	W12
	BYTE		        Bn0   v064
	BYTE		N01     As1 
	BYTE	W12
	BYTE		        Fs1   v048
	BYTE	W12
	BYTE		N01   
	BYTE	W12
	BYTE		        Bn0   v064
	BYTE		N01     As1 
	BYTE	W12
	BYTE		        Fs1   v048
	BYTE	W12
	BYTE		        Bn0   v064
	BYTE		N01     As1 
	BYTE	W12
	BYTE		        Fs1   v048
	BYTE	W12
	BYTE	PEND
// 008   ----------------------------------------
	BYTE	PATT
	POIN2	decisive2_9_006
// 009   ----------------------------------------
decisive2_9_009:
	BYTE		N01     Fs1   v048
	BYTE	W12
	BYTE		        Bn0   v064
	BYTE		N01     As1 
	BYTE	W12
	BYTE		        Fs1   v048
	BYTE	W12
	BYTE		N01   
	BYTE		N01     As1   v112
	BYTE	W12
	BYTE		        Bn0   v064
	BYTE	W12
	BYTE		        Fs1   v048
	BYTE	W03
	BYTE		        As1 
	BYTE	W03
	BYTE		N01   
	BYTE	W03
	BYTE		N01   
	BYTE	W03
	BYTE		        Bn0   v064
	BYTE		N01     As1 
	BYTE	W12
	BYTE		        Fs1   v048
	BYTE	W04
	BYTE		        Bn0 
	BYTE	W04
	BYTE		N01   
	BYTE	W04
	BYTE	PEND
// 010   ----------------------------------------
	BYTE	PATT
	POIN2	decisive2_9_006
// 011   ----------------------------------------
	BYTE	PATT
	POIN2	decisive2_9_007
// 012   ----------------------------------------
	BYTE	PATT
	POIN2	decisive2_9_006
// 013   ----------------------------------------
	BYTE	PATT
	POIN2	decisive2_9_009
// 014   ----------------------------------------
	BYTE	PATT
	POIN2	decisive2_9_006
// 015   ----------------------------------------
	BYTE	PATT
	POIN2	decisive2_9_007
// 016   ----------------------------------------
	BYTE	PATT
	POIN2	decisive2_9_006
// 017   ----------------------------------------
decisive2_9_017:
	BYTE		N01     Fs1   v048
	BYTE	W12
	BYTE		        Bn0   v064
	BYTE		N01     As1 
	BYTE	W12
	BYTE		        Fs1   v048
	BYTE	W12
	BYTE		N01   
	BYTE		N01     As1   v112
	BYTE	W06
	BYTE		        Dn3   v080
	BYTE	W06
	BYTE		        Bn0   v064
	BYTE		N01     Cn3   v080
	BYTE	W12
	BYTE		        Fs1   v048
	BYTE	W03
	BYTE		        As1 
	BYTE	W03
	BYTE		N01   
	BYTE	W03
	BYTE		N01   
	BYTE	W03
	BYTE		        Bn0   v064
	BYTE		N01     As1 
	BYTE	W12
	BYTE		        Fs1   v048
	BYTE	W04
	BYTE		        Bn0 
	BYTE	W04
	BYTE		N01   
	BYTE	W04
	BYTE	PEND
// 018   ----------------------------------------
decisive2_9_018:
	BYTE		N01     Bn0   v064
	BYTE		N01     As1 
	BYTE		N01     Cs3   v080
	BYTE	W12
	BYTE		        Fs1   v048
	BYTE	W12
	BYTE		N01   
	BYTE		N01     Cn3   v080
	BYTE	W12
	BYTE		        Bn0   v064
	BYTE		N01     As1 
	BYTE	W12
	BYTE		        Fs1   v048
	BYTE	W12
	BYTE		N01   
	BYTE		N01     Dn3   v080
	BYTE	W12
	BYTE		        Bn0   v064
	BYTE		N01     As1 
	BYTE	W12
	BYTE		        Fs1   v048
	BYTE		N01     Dn3   v080
	BYTE	W12
	BYTE	PEND
// 019   ----------------------------------------
decisive2_9_019:
	BYTE		N01     Fs1   v048
	BYTE		N01     Cn3   v080
	BYTE	W12
	BYTE		        Bn0   v064
	BYTE		N01     As1 
	BYTE	W12
	BYTE		        Fs1   v048
	BYTE	W12
	BYTE		N01   
	BYTE		N01     Dn3   v080
	BYTE	W12
	BYTE		        Bn0   v064
	BYTE		N01     As1 
	BYTE	W12
	BYTE		        Fs1   v048
	BYTE		N01     Dn3   v080
	BYTE	W12
	BYTE		        Bn0   v064
	BYTE		N01     As1 
	BYTE	W12
	BYTE		        Fs1   v048
	BYTE		N01     Dn3   v080
	BYTE	W12
	BYTE	PEND
// 020   ----------------------------------------
decisive2_9_020:
	BYTE		N01     Bn0   v064
	BYTE		N01     As1 
	BYTE	W12
	BYTE		        Fs1   v048
	BYTE	W12
	BYTE		N01   
	BYTE		N01     Cn3   v080
	BYTE	W12
	BYTE		        Bn0   v064
	BYTE		N01     As1 
	BYTE	W12
	BYTE		        Fs1   v048
	BYTE	W12
	BYTE		N01   
	BYTE	W12
	BYTE		        Bn0   v064
	BYTE		N01     As1 
	BYTE		N01     Cs3   v080
	BYTE	W12
	BYTE		        Fs1   v048
	BYTE		N01     Dn3   v080
	BYTE	W12
	BYTE	PEND
// 021   ----------------------------------------
decisive2_9_021:
	BYTE		N01     Fs1   v048
	BYTE	W12
	BYTE		        Bn0   v064
	BYTE		N01     As1 
	BYTE	W12
	BYTE		        Fs1   v048
	BYTE		N01     Cn3   v080
	BYTE	W12
	BYTE		        Fs1   v048
	BYTE		N01     As1   v112
	BYTE	W12
	BYTE		        Bn0   v064
	BYTE	W12
	BYTE		        Fs1   v048
	BYTE		N01     Dn3   v080
	BYTE	W03
	BYTE		        As1   v048
	BYTE	W03
	BYTE		N01   
	BYTE	W03
	BYTE		N01   
	BYTE	W03
	BYTE		        Bn0   v064
	BYTE		N01     As1 
	BYTE	W12
	BYTE		        Fs1   v048
	BYTE		N01     Dn3   v080
	BYTE	W04
	BYTE		        Bn0   v048
	BYTE	W04
	BYTE		N01   
	BYTE	W04
	BYTE	PEND
// 022   ----------------------------------------
decisive2_9_022:
	BYTE		N01     Bn0   v064
	BYTE		N01     As1 
	BYTE	W12
	BYTE		        Fs1   v048
	BYTE	W12
	BYTE		N01   
	BYTE	W12
	BYTE		        Bn0   v064
	BYTE		N01     As1 
	BYTE		N01     Dn3   v080
	BYTE	W12
	BYTE		        Fs1   v048
	BYTE		N01     Cn3   v080
	BYTE	W12
	BYTE		        Fs1   v048
	BYTE	W12
	BYTE		        Bn0   v064
	BYTE		N01     As1 
	BYTE	W12
	BYTE		        Fs1   v048
	BYTE		N01     Dn3   v080
	BYTE	W12
	BYTE	PEND
// 023   ----------------------------------------
decisive2_9_023:
	BYTE		N01     Fs1   v048
	BYTE	W12
	BYTE		        Bn0   v064
	BYTE		N01     As1 
	BYTE		N01     Dn3   v080
	BYTE	W12
	BYTE		        Fs1   v048
	BYTE	W12
	BYTE		N01   
	BYTE		N01     Dn3   v080
	BYTE	W12
	BYTE		        Bn0   v064
	BYTE		N01     As1 
	BYTE		N01     Cn3   v080
	BYTE	W12
	BYTE		        Fs1   v048
	BYTE	W12
	BYTE		        Bn0   v064
	BYTE		N01     As1 
	BYTE	W12
	BYTE		        Fs1   v048
	BYTE		N01     Dn3   v080
	BYTE	W12
	BYTE	PEND
// 024   ----------------------------------------
decisive2_9_024:
	BYTE		N01     Bn0   v064
	BYTE		N01     As1 
	BYTE	W12
	BYTE		        Fs1   v048
	BYTE		N01     Cn3   v080
	BYTE	W12
	BYTE		        Fs1   v048
	BYTE		N01     Cn3   v080
	BYTE	W12
	BYTE		        Bn0   v064
	BYTE		N01     As1 
	BYTE	W12
	BYTE		        Fs1   v048
	BYTE	W12
	BYTE		N01   
	BYTE		N01     Dn3   v080
	BYTE	W12
	BYTE		        Bn0   v064
	BYTE		N01     As1 
	BYTE	W12
	BYTE		        Fs1   v048
	BYTE		N01     Dn3   v080
	BYTE	W12
	BYTE	PEND
// 025   ----------------------------------------
decisive2_9_025:
	BYTE		N01     Fs1   v048
	BYTE		N01     Cs3   v080
	BYTE	W12
	BYTE		        Bn0   v064
	BYTE		N01     As1 
	BYTE		N01     Dn3   v080
	BYTE	W12
	BYTE		        Fs1   v048
	BYTE	W12
	BYTE		N01   
	BYTE		N01     As1   v112
	BYTE		N01     Dn3   v080
	BYTE	W12
	BYTE		        Bn0   v064
	BYTE		N01     Cn3   v080
	BYTE	W12
	BYTE		        Fs1   v048
	BYTE	W03
	BYTE		        As1 
	BYTE	W03
	BYTE		N01   
	BYTE	W03
	BYTE		N01   
	BYTE	W03
	BYTE		        Bn0   v064
	BYTE		N01     As1 
	BYTE		N01     Dn3   v080
	BYTE	W12
	BYTE		        Fs1   v048
	BYTE	W04
	BYTE		        Bn0 
	BYTE	W04
	BYTE		N01   
	BYTE	W04
	BYTE	PEND
// 026   ----------------------------------------
	BYTE	PATT
	POIN2	decisive2_9_018
// 027   ----------------------------------------
	BYTE	PATT
	POIN2	decisive2_9_019
// 028   ----------------------------------------
	BYTE	PATT
	POIN2	decisive2_9_020
// 029   ----------------------------------------
	BYTE	PATT
	POIN2	decisive2_9_021
// 030   ----------------------------------------
	BYTE	PATT
	POIN2	decisive2_9_022
// 031   ----------------------------------------
	BYTE	PATT
	POIN2	decisive2_9_023
// 032   ----------------------------------------
	BYTE	PATT
	POIN2	decisive2_9_024
// 033   ----------------------------------------
	BYTE	PATT
	POIN2	decisive2_9_025
// 034   ----------------------------------------
	BYTE	PATT
	POIN2	decisive2_9_018
// 035   ----------------------------------------
	BYTE	PATT
	POIN2	decisive2_9_019
// 036   ----------------------------------------
	BYTE	PATT
	POIN2	decisive2_9_020
// 037   ----------------------------------------
	BYTE	PATT
	POIN2	decisive2_9_021
// 038   ----------------------------------------
	BYTE	PATT
	POIN2	decisive2_9_022
// 039   ----------------------------------------
	BYTE	PATT
	POIN2	decisive2_9_023
// 040   ----------------------------------------
	BYTE	PATT
	POIN2	decisive2_9_024
// 041   ----------------------------------------
	BYTE	PATT
	POIN2	decisive2_9_025
// 042   ----------------------------------------
	BYTE	PATT
	POIN2	decisive2_9_018
// 043   ----------------------------------------
	BYTE	PATT
	POIN2	decisive2_9_019
// 044   ----------------------------------------
	BYTE	PATT
	POIN2	decisive2_9_020
// 045   ----------------------------------------
	BYTE	PATT
	POIN2	decisive2_9_021
// 046   ----------------------------------------
	BYTE	PATT
	POIN2	decisive2_9_022
// 047   ----------------------------------------
	BYTE	PATT
	POIN2	decisive2_9_023
// 048   ----------------------------------------
	BYTE	PATT
	POIN2	decisive2_9_024
// 049   ----------------------------------------
	BYTE	PATT
	POIN2	decisive2_9_025
// 050   ----------------------------------------
	BYTE		N01     Bn0   v064
	BYTE		N01     Fs1   v048
	BYTE		N01     As1   v064
	BYTE		N01     Cn3   v080
	BYTE	W12
	BYTE		        Fs1   v048
	BYTE	W12
	BYTE		N01   
	BYTE	W12
	BYTE		        Bn0   v064
	BYTE		N01     As1 
	BYTE	W12
	BYTE		        Fs1   v048
	BYTE	W12
	BYTE		N01   
	BYTE	W12
	BYTE		        Bn0   v064
	BYTE		N01     As1 
	BYTE	W12
	BYTE		        Fs1   v048
	BYTE	W12
// 051   ----------------------------------------
	BYTE	PATT
	POIN2	decisive2_9_007
// 052   ----------------------------------------
	BYTE	PATT
	POIN2	decisive2_9_006
// 053   ----------------------------------------
	BYTE	PATT
	POIN2	decisive2_9_009
// 054   ----------------------------------------
	BYTE	PATT
	POIN2	decisive2_9_006
// 055   ----------------------------------------
	BYTE	PATT
	POIN2	decisive2_9_007
// 056   ----------------------------------------
	BYTE	PATT
	POIN2	decisive2_9_006
// 057   ----------------------------------------
	BYTE	PATT
	POIN2	decisive2_9_009
// 058   ----------------------------------------
	BYTE	PATT
	POIN2	decisive2_9_006
// 059   ----------------------------------------
	BYTE	PATT
	POIN2	decisive2_9_007
// 060   ----------------------------------------
	BYTE	PATT
	POIN2	decisive2_9_006
// 061   ----------------------------------------
	BYTE	PATT
	POIN2	decisive2_9_017
// 062   ----------------------------------------
	BYTE	PATT
	POIN2	decisive2_9_018
// 063   ----------------------------------------
	BYTE	PATT
	POIN2	decisive2_9_019
// 064   ----------------------------------------
	BYTE	PATT
	POIN2	decisive2_9_020
// 065   ----------------------------------------
	BYTE	PATT
	POIN2	decisive2_9_021
// 066   ----------------------------------------
	BYTE	PATT
	POIN2	decisive2_9_022
// 067   ----------------------------------------
	BYTE	PATT
	POIN2	decisive2_9_023
// 068   ----------------------------------------
	BYTE	PATT
	POIN2	decisive2_9_024
// 069   ----------------------------------------
	BYTE	PATT
	POIN2	decisive2_9_025
// 070   ----------------------------------------
	BYTE	PATT
	POIN2	decisive2_9_018
// 071   ----------------------------------------
	BYTE	PATT
	POIN2	decisive2_9_019
// 072   ----------------------------------------
	BYTE	PATT
	POIN2	decisive2_9_020
// 073   ----------------------------------------
	BYTE	PATT
	POIN2	decisive2_9_021
// 074   ----------------------------------------
	BYTE	PATT
	POIN2	decisive2_9_022
// 075   ----------------------------------------
	BYTE	PATT
	POIN2	decisive2_9_023
// 076   ----------------------------------------
	BYTE	PATT
	POIN2	decisive2_9_024
// 077   ----------------------------------------
	BYTE	PATT
	POIN2	decisive2_9_025
// 078   ----------------------------------------
	BYTE	PATT
	POIN2	decisive2_9_018
// 079   ----------------------------------------
	BYTE	PATT
	POIN2	decisive2_9_019
// 080   ----------------------------------------
	BYTE	PATT
	POIN2	decisive2_9_020
// 081   ----------------------------------------
	BYTE	PATT
	POIN2	decisive2_9_021
// 082   ----------------------------------------
	BYTE	PATT
	POIN2	decisive2_9_022
// 083   ----------------------------------------
	BYTE	PATT
	POIN2	decisive2_9_023
// 084   ----------------------------------------
	BYTE	PATT
	POIN2	decisive2_9_024
// 085   ----------------------------------------
	BYTE		N01     Fs1   v048
	BYTE		N01     Cs3   v080
	BYTE	W12
	BYTE		        Bn0   v064
	BYTE		N01     As1 
	BYTE		N01     Dn3   v080
	BYTE	W12
	BYTE		        Fs1   v048
	BYTE	W12
	BYTE		N01   
	BYTE		N01     As1   v112
	BYTE		N01     Dn3   v080
	BYTE	W12
	BYTE		        Bn0   v064
	BYTE	W12
	BYTE		        Fs1   v048
	BYTE		N01     Dn3   v080
	BYTE	W03
	BYTE		        As1   v048
	BYTE	W03
	BYTE		N01   
	BYTE	W03
	BYTE		N01   
	BYTE	W03
	BYTE		        Bn0   v064
	BYTE		N01     As1 
	BYTE		N01     Cn3   v080
	BYTE	W12
	BYTE		        Fs1   v048
	BYTE	W04
	BYTE		        Bn0 
	BYTE	W04
	BYTE		N01   
	BYTE	W04
// 086   ----------------------------------------
	BYTE		        Bn0   v080
	BYTE		N01     Fs1   v048
	BYTE		N01     As1   v112
	BYTE		N01     Cs2   v096
	BYTE	W24
	BYTE	W03
	BYTE		        As1   v016
	BYTE	W03
	BYTE		        As1   v020
	BYTE	W03
	BYTE		N01   
	BYTE	W03
	BYTE		        As1   v024
	BYTE	W03
	BYTE		N01   
	BYTE	W03
	BYTE		        As1   v028
	BYTE	W03
	BYTE		N01   
	BYTE	W03
	BYTE		        As1   v032
	BYTE	W03
	BYTE		N01   
	BYTE	W03
	BYTE		        As1   v036
	BYTE	W03
	BYTE		N01   
	BYTE	W03
	BYTE		        As1   v040
	BYTE	W03
	BYTE		N01   
	BYTE	W03
	BYTE		        As1   v044
	BYTE	W03
	BYTE		N01   
	BYTE	W03
	BYTE		        As1   v048
	BYTE	W03
	BYTE		N01   
	BYTE	W03
	BYTE		        As1   v052
	BYTE	W03
	BYTE		N01   
	BYTE	W03
	BYTE		        As1   v056
	BYTE	W03
	BYTE		N01   
	BYTE	W03
	BYTE		        As1   v060
	BYTE	W03
	BYTE		N01   
	BYTE	W03
// 087   ----------------------------------------
	BYTE		        As1   v064
	BYTE	W03
	BYTE		N01   
	BYTE	W03
	BYTE		        As1   v068
	BYTE	W03
	BYTE		N01   
	BYTE	W03
	BYTE		        As1   v072
	BYTE	W03
	BYTE		N01   
	BYTE	W03
	BYTE		        As1   v076
	BYTE	W03
	BYTE		N01   
	BYTE	W03
	BYTE		        As1   v080
	BYTE	W03
	BYTE		N01   
	BYTE	W03
	BYTE		N01   
	BYTE	W03
	BYTE		N01   
	BYTE	W03
	BYTE		N01   
	BYTE	W03
	BYTE		N01   
	BYTE	W03
	BYTE		N01   
	BYTE	W03
	BYTE		N01   
	BYTE	W03
	BYTE		N01   
	BYTE	W03
	BYTE		        As1   v064
	BYTE	W03
	BYTE		        As1   v056
	BYTE	W03
	BYTE		        As1   v048
	BYTE	W03
	BYTE		        As1   v040
	BYTE	W03
	BYTE		        As1   v032
	BYTE	W03
	BYTE		        As1   v024
	BYTE	W03
	BYTE		        As1   v016
	BYTE	W03
	BYTE		        As1   v008
	BYTE	W03
	BYTE		        As1   v004
	BYTE	FINE

//**************** Track 10 (Midi-Chn.11) ****************//

decisive2_10:
	BYTE	KEYSH   decisive2_key+0
// 000   ----------------------------------------
	BYTE	W96
// 001   ----------------------------------------
	BYTE	W48
	BYTE		VOICE   46
	BYTE	W01
	BYTE		PAN     c_v+5
	BYTE	W02
	BYTE		VOL     100*decisive2_mvl/mxv
	BYTE	W01
	BYTE	W02
	BYTE	W42
// 002   ----------------------------------------
	BYTE	W96
// 003   ----------------------------------------
	BYTE	W96
// 004   ----------------------------------------
	BYTE	W96
// 005   ----------------------------------------
	BYTE	W96
// 006   ----------------------------------------
	BYTE	W96
// 007   ----------------------------------------
	BYTE	W96
// 008   ----------------------------------------
	BYTE	W96
// 009   ----------------------------------------
	BYTE	W96
// 010   ----------------------------------------
	BYTE	W96
// 011   ----------------------------------------
	BYTE	W96
// 012   ----------------------------------------
	BYTE	W96
// 013   ----------------------------------------
	BYTE	W96
// 014   ----------------------------------------
	BYTE	W96
// 015   ----------------------------------------
	BYTE	W96
// 016   ----------------------------------------
	BYTE	W96
// 017   ----------------------------------------
	BYTE	W96
// 018   ----------------------------------------
decisive2_10_018:
	BYTE	W24
	BYTE		N18     En2   v127
	BYTE	W06
	BYTE	W01
	BYTE	W02
	BYTE	W01
	BYTE	W02
	BYTE	W01
	BYTE	W02
	BYTE	W01
	BYTE	W02
	BYTE	W01
	BYTE	W02
	BYTE	W01
	BYTE	W02
	BYTE		        Bn2 
	BYTE	W06
	BYTE	W01
	BYTE	W02
	BYTE	W01
	BYTE	W02
	BYTE	W01
	BYTE	W02
	BYTE	W01
	BYTE	W02
	BYTE	W01
	BYTE	W02
	BYTE	W01
	BYTE	W02
	BYTE		N04     An2 
	BYTE	W12
	BYTE		        Bn2 
	BYTE	W12
	BYTE	PEND
// 019   ----------------------------------------
decisive2_10_019:
	BYTE		N15     Dn3   v127
	BYTE	W06
	BYTE	W01
	BYTE	W02
	BYTE	W01
	BYTE	W02
	BYTE	W01
	BYTE	W02
	BYTE	W01
	BYTE	W02
	BYTE	W01
	BYTE	W02
	BYTE	W01
	BYTE	W02
	BYTE		N04     Cn3 
	BYTE	W12
	BYTE		N11     Bn2 
	BYTE	W24
	BYTE		        An2 
	BYTE	W24
	BYTE		N44     Bn2 
	BYTE	W12
	BYTE	PEND
// 020   ----------------------------------------
decisive2_10_020:
	BYTE	W01
	BYTE	W01
	BYTE	W01
	BYTE	W01
	BYTE	W01
	BYTE	W01
	BYTE	W01
	BYTE	W01
	BYTE	W01
	BYTE	W01
	BYTE	W01
	BYTE	W01
	BYTE	W01
	BYTE	W01
	BYTE	W01
	BYTE	W01
	BYTE	W01
	BYTE	W01
	BYTE	W01
	BYTE	W01
	BYTE	W01
	BYTE	W01
	BYTE	W01
	BYTE	W01
	BYTE	W01
	BYTE	W01
	BYTE	W01
	BYTE	W01
	BYTE	W01
	BYTE	W01
	BYTE	W01
	BYTE	W01
	BYTE	W01
	BYTE	W01
	BYTE	W01
	BYTE	W01
	BYTE		N22     En3   v127
	BYTE	W06
	BYTE	W01
	BYTE	W02
	BYTE	W01
	BYTE	W02
	BYTE	W01
	BYTE	W02
	BYTE	W01
	BYTE	W02
	BYTE	W01
	BYTE	W02
	BYTE	W01
	BYTE	W02
	BYTE		N21     Dn3 
	BYTE	W06
	BYTE	W01
	BYTE	W02
	BYTE	W01
	BYTE	W02
	BYTE	W01
	BYTE	W02
	BYTE	W01
	BYTE	W02
	BYTE	W01
	BYTE	W02
	BYTE	W01
	BYTE	W02
	BYTE		N06     En3 
	BYTE	W12
	BYTE	PEND
// 021   ----------------------------------------
decisive2_10_021:
	BYTE		N22     Gn3   v127
	BYTE	W06
	BYTE	W01
	BYTE	W02
	BYTE	W01
	BYTE	W02
	BYTE	W01
	BYTE	W02
	BYTE	W01
	BYTE	W02
	BYTE	W01
	BYTE	W02
	BYTE	W01
	BYTE	W02
	BYTE		N05     Fn3 
	BYTE	W12
	BYTE		N11     En3 
	BYTE	W24
	BYTE		        Dn3 
	BYTE	W24
	BYTE		TIE     Bn2 
	BYTE	W12
	BYTE	PEND
// 022   ----------------------------------------
decisive2_10_022:
	BYTE	W12
	BYTE	W01
	BYTE	W01
	BYTE	W01
	BYTE	W01
	BYTE	W01
	BYTE	W01
	BYTE	W01
	BYTE	W01
	BYTE	W01
	BYTE	W01
	BYTE	W01
	BYTE	W01
	BYTE	W01
	BYTE	W01
	BYTE	W01
	BYTE	W01
	BYTE	W01
	BYTE	W01
	BYTE	W01
	BYTE	W01
	BYTE	W01
	BYTE	W01
	BYTE	W01
	BYTE	W01
	BYTE	W01
	BYTE	W01
	BYTE	W01
	BYTE	W01
	BYTE	W01
	BYTE	W01
	BYTE	W01
	BYTE	W01
	BYTE	W01
	BYTE	W01
	BYTE	W01
	BYTE	W01
	BYTE	W01
	BYTE	W01
	BYTE	W01
	BYTE	W01
	BYTE	W01
	BYTE	W01
	BYTE	W01
	BYTE	W01
	BYTE	W01
	BYTE	W01
	BYTE	W01
	BYTE	W01
	BYTE	W01
	BYTE	W01
	BYTE	W01
	BYTE	W01
	BYTE	W01
	BYTE	W01
	BYTE	W01
	BYTE	W01
	BYTE	W01
	BYTE	W01
	BYTE	W01
	BYTE	W01
	BYTE	W01
	BYTE	W01
	BYTE	W01
	BYTE	W01
	BYTE	W01
	BYTE	W01
	BYTE	W01
	BYTE	W01
	BYTE	W01
	BYTE	W01
	BYTE	W01
	BYTE	W01
	BYTE	W01
	BYTE	W01
	BYTE	W01
	BYTE	W01
	BYTE	W01
	BYTE	W01
	BYTE	W01
	BYTE	W01
	BYTE	W01
	BYTE	W01
	BYTE	W01
	BYTE	W01
	BYTE	PEND
// 023   ----------------------------------------
decisive2_10_023:
	BYTE	W01
	BYTE	W01
	BYTE	W01
	BYTE	W01
	BYTE	W01
	BYTE	W01
	BYTE	W01
	BYTE	W01
	BYTE	W01
	BYTE	W01
	BYTE	W01
	BYTE	W01
	BYTE	W01
	BYTE	W01
	BYTE	W01
	BYTE	W01
	BYTE	W01
	BYTE	W01
	BYTE	W01
	BYTE	W01
	BYTE	W01
	BYTE	W01
	BYTE	W01
	BYTE	W01
	BYTE	W01
	BYTE	W01
	BYTE	W01
	BYTE	W01
	BYTE	W01
	BYTE	W01
	BYTE	W01
	BYTE	W01
	BYTE	W01
	BYTE	W01
	BYTE	W01
	BYTE	W01
	BYTE	W01
	BYTE	W01
	BYTE	W01
	BYTE	W01
	BYTE	W01
	BYTE	W01
	BYTE	W01
	BYTE	W01
	BYTE	W01
	BYTE	W01
	BYTE	W01
	BYTE	W01
	BYTE	W01
	BYTE	W01
	BYTE	W01
	BYTE	W01
	BYTE	W01
	BYTE	W01
	BYTE	W01
	BYTE	W01
	BYTE	W01
	BYTE	W01
	BYTE	W01
	BYTE	W01
	BYTE	W01
	BYTE	W01
	BYTE	W01
	BYTE	W01
	BYTE	W01
	BYTE	W01
	BYTE	W01
	BYTE	W01
	BYTE	W01
	BYTE	W01
	BYTE	W01
	BYTE	W01
	BYTE	W01
	BYTE	W01
	BYTE	W01
	BYTE	W01
	BYTE	W01
	BYTE	W01
	BYTE	W01
	BYTE	W01
	BYTE	W01
	BYTE	W01
	BYTE	W01
	BYTE	W01
	BYTE	W01
	BYTE	W01
	BYTE	W01
	BYTE	W01
	BYTE	W01
	BYTE	W01
	BYTE	W01
	BYTE	PEND
	BYTE		EOT     Bn2 
	BYTE	W01
	BYTE	W01
	BYTE	W01
	BYTE	W01
	BYTE	W01
// 024   ----------------------------------------
	BYTE	W96
// 025   ----------------------------------------
	BYTE	W96
// 026   ----------------------------------------
	BYTE	PATT
	POIN2	decisive2_10_018
// 027   ----------------------------------------
	BYTE	PATT
	POIN2	decisive2_10_019
// 028   ----------------------------------------
	BYTE	PATT
	POIN2	decisive2_10_020
// 029   ----------------------------------------
	BYTE	PATT
	POIN2	decisive2_10_021
// 030   ----------------------------------------
	BYTE	PATT
	POIN2	decisive2_10_022
// 031   ----------------------------------------
	BYTE	PATT
	POIN2	decisive2_10_023
	BYTE		EOT     Bn2 
	BYTE	W01
	BYTE	W01
	BYTE	W01
	BYTE	W01
	BYTE	W01
// 032   ----------------------------------------
	BYTE	W96
// 033   ----------------------------------------
	BYTE	W96
// 034   ----------------------------------------
	BYTE	W96
// 035   ----------------------------------------
	BYTE	W96
// 036   ----------------------------------------
	BYTE	W96
// 037   ----------------------------------------
	BYTE	W96
// 038   ----------------------------------------
	BYTE	W96
// 039   ----------------------------------------
	BYTE	W96
// 040   ----------------------------------------
	BYTE	W96
// 041   ----------------------------------------
	BYTE	W96
// 042   ----------------------------------------
	BYTE	W96
// 043   ----------------------------------------
	BYTE	W96
// 044   ----------------------------------------
	BYTE	W96
// 045   ----------------------------------------
	BYTE	W96
// 046   ----------------------------------------
	BYTE	W96
// 047   ----------------------------------------
	BYTE	W96
// 048   ----------------------------------------
	BYTE	W96
// 049   ----------------------------------------
	BYTE	W96
// 050   ----------------------------------------
	BYTE	W96
// 051   ----------------------------------------
	BYTE	W96
// 052   ----------------------------------------
	BYTE	W96
// 053   ----------------------------------------
	BYTE	W96
// 054   ----------------------------------------
	BYTE	W96
// 055   ----------------------------------------
	BYTE	W96
// 056   ----------------------------------------
	BYTE	W96
// 057   ----------------------------------------
	BYTE	W96
// 058   ----------------------------------------
	BYTE	W96
// 059   ----------------------------------------
	BYTE	W96
// 060   ----------------------------------------
	BYTE	W96
// 061   ----------------------------------------
	BYTE	W96
// 062   ----------------------------------------
	BYTE	PATT
	POIN2	decisive2_10_018
// 063   ----------------------------------------
	BYTE	PATT
	POIN2	decisive2_10_019
// 064   ----------------------------------------
	BYTE	PATT
	POIN2	decisive2_10_020
// 065   ----------------------------------------
	BYTE	PATT
	POIN2	decisive2_10_021
// 066   ----------------------------------------
	BYTE	PATT
	POIN2	decisive2_10_022
// 067   ----------------------------------------
	BYTE	PATT
	POIN2	decisive2_10_023
	BYTE		EOT     Bn2 
	BYTE	W01
	BYTE	W01
	BYTE	W01
	BYTE	W01
	BYTE	W01
// 068   ----------------------------------------
	BYTE	W96
// 069   ----------------------------------------
	BYTE	W96
// 070   ----------------------------------------
	BYTE	W96
// 071   ----------------------------------------
	BYTE	W96
// 072   ----------------------------------------
	BYTE	W96
// 073   ----------------------------------------
	BYTE	W96
// 074   ----------------------------------------
	BYTE	W96
// 075   ----------------------------------------
	BYTE	W96
// 076   ----------------------------------------
	BYTE	W96
// 077   ----------------------------------------
	BYTE	W96
// 078   ----------------------------------------
	BYTE	W96
// 079   ----------------------------------------
	BYTE	W96
// 080   ----------------------------------------
	BYTE	W96
// 081   ----------------------------------------
	BYTE	W96
// 082   ----------------------------------------
	BYTE	W96
// 083   ----------------------------------------
	BYTE	W96
// 084   ----------------------------------------
	BYTE	W96
// 085   ----------------------------------------
	BYTE	W96
// 086   ----------------------------------------
	BYTE	FINE

//******************************************************//
	ALIGN 4

decisive2:
	BYTE	10	// NumTrks
	BYTE	0	// NumBlks
	BYTE	decisive2_pri	// Priority
	BYTE	decisive2_rev	// Reverb.

	POIN2	decisive2_grp

	POIN2	decisive2_1
	POIN2	decisive2_2
	POIN2	decisive2_3
	POIN2	decisive2_4
	POIN2	decisive2_5
	POIN2	decisive2_6
	POIN2	decisive2_7
	POIN2	decisive2_8
	POIN2	decisive2_9
	POIN2	decisive2_10

	
