//Event file generated from Sappy .s format.
	#include "MPlayDef.event"

	#define	egg_grp  voicegroup000
	#define	egg_pri  0
	#define	egg_rev  0
	#define	egg_mvl  127
	#define	egg_key  0
	#define	egg_tbs  1
	#define	egg_exg  0
	#define	egg_cmp  1

	// .rodata
	//	egg
	ALIGN 4

//**************** Track 1 (Midi-Chn.1) ****************//

egg_1:
	BYTE	KEYSH   egg_key+0
// 000   ----------------------------------------
	BYTE	TEMPO   127*egg_tbs/2
	BYTE		VOICE   50
	BYTE	W06
	BYTE		VOL     85*egg_mvl/mxv
	BYTE	W03
	BYTE		PAN     c_v+0
	BYTE	W15
	BYTE		TIE     Cn4   v080
	BYTE	W72
// 001   ----------------------------------------
	BYTE	W96
// 002   ----------------------------------------
	BYTE	W24
	BYTE		EOT   
	BYTE		TIE   
	BYTE	W72
// 003   ----------------------------------------
	BYTE	W96
// 004   ----------------------------------------
	BYTE	W24
	BYTE		EOT   
	BYTE		N08   
	BYTE	W12
	BYTE		N08   
	BYTE	W12
	BYTE		N08   
	BYTE	W12
	BYTE		N08   
	BYTE	W12
	BYTE		N08   
	BYTE	W12
	BYTE		N08   
	BYTE	W12
// 005   ----------------------------------------
egg_1_005:
	BYTE		N08     Cn4   v080
	BYTE	W12
	BYTE		N08   
	BYTE	W12
	BYTE		N08   
	BYTE	W12
	BYTE		N08   
	BYTE	W12
	BYTE		N08   
	BYTE	W12
	BYTE		N08   
	BYTE	W12
	BYTE		N08   
	BYTE	W12
	BYTE		N08   
	BYTE	W12
	BYTE	PEND
// 006   ----------------------------------------
	BYTE	PATT
	 POIN2	egg_1_005
// 007   ----------------------------------------
	BYTE	PATT
	 POIN2	egg_1_005
// 008   ----------------------------------------
	BYTE	PATT
	 POIN2	egg_1_005
// 009   ----------------------------------------
	BYTE	PATT
	 POIN2	egg_1_005
// 010   ----------------------------------------
	BYTE	PATT
	 POIN2	egg_1_005
// 011   ----------------------------------------
	BYTE	PATT
	 POIN2	egg_1_005
// 012   ----------------------------------------
egg_1_012:
	BYTE		N08     Cn4   v080
	BYTE	W12
	BYTE		N08   
	BYTE	W12
	BYTE		N12     Gn4 
	BYTE	W12
	BYTE		        As5 
	BYTE	W12
	BYTE		        Gs5 
	BYTE	W12
	BYTE		        Gn5 
	BYTE	W12
	BYTE		        Fn5 
	BYTE	W12
	BYTE		        Ds5 
	BYTE	W12
	BYTE	PEND
// 013   ----------------------------------------
egg_1_013:
	BYTE		N12     Dn5   v080
	BYTE	W12
	BYTE		N60     As4 
	BYTE	W60
	BYTE		N08   
	BYTE	W24
	BYTE	PEND
// 014   ----------------------------------------
	BYTE		N24   
	BYTE	W24
	BYTE		N08     Cn4 
	BYTE	W12
	BYTE		N08   
	BYTE	W12
	BYTE		N08   
	BYTE	W12
	BYTE		N08   
	BYTE	W12
	BYTE		N08   
	BYTE	W12
	BYTE		N08   
	BYTE	W12
// 015   ----------------------------------------
	BYTE	PATT
	 POIN2	egg_1_005
// 016   ----------------------------------------
	BYTE	PATT
	 POIN2	egg_1_005
// 017   ----------------------------------------
	BYTE	PATT
	 POIN2	egg_1_005
// 018   ----------------------------------------
	BYTE	PATT
	 POIN2	egg_1_005
// 019   ----------------------------------------
	BYTE	PATT
	 POIN2	egg_1_005
// 020   ----------------------------------------
	BYTE	PATT
	 POIN2	egg_1_005
// 021   ----------------------------------------
	BYTE	PATT
	 POIN2	egg_1_005
// 022   ----------------------------------------
	BYTE		N08     Cn4   v080
	BYTE	W12
	BYTE		N08   
	BYTE	W12
	BYTE		TIE     Gn4 
	BYTE	W72
// 023   ----------------------------------------
	BYTE	W36
	BYTE		EOT   
	BYTE		N12   
	BYTE	W12
	BYTE		N12   
	BYTE	W12
	BYTE		N12   
	BYTE	W12
	BYTE		N12   
	BYTE	W12
	BYTE		N12   
	BYTE	W12
// 024   ----------------------------------------
	BYTE		N12   
	BYTE	W12
	BYTE		N12   
	BYTE	W12
	BYTE		N72     Cn4 
	BYTE	W72
// 025   ----------------------------------------
egg_1_025:
	BYTE	W12
	BYTE		N12     Gn4   v080
	BYTE	W12
	BYTE		N72     Cn4 
	BYTE	W72
	BYTE	PEND
// 026   ----------------------------------------
	BYTE	PATT
	 POIN2	egg_1_025
// 027   ----------------------------------------
	BYTE	PATT
	 POIN2	egg_1_025
// 028   ----------------------------------------
	BYTE	W12
	BYTE		N12     Gn4   v080
	BYTE	W12
	BYTE		N72     Fs4 
	BYTE	W72
// 029   ----------------------------------------
	BYTE	W12
	BYTE		N12   
	BYTE	W12
	BYTE		N72   
	BYTE	W72
// 030   ----------------------------------------
	BYTE	W12
	BYTE		N12   
	BYTE	W12
	BYTE		N72     Gn4 
	BYTE	W72
// 031   ----------------------------------------
	BYTE	W12
	BYTE		N12     Dn5 
	BYTE	W12
	BYTE		N72     Gn4 
	BYTE	W72
// 032   ----------------------------------------
	BYTE		N24   
	BYTE	W24
	BYTE		N08     Cn4 
	BYTE	W12
	BYTE		N08   
	BYTE	W12
	BYTE		N08   
	BYTE	W12
	BYTE		N08   
	BYTE	W12
	BYTE		N08   
	BYTE	W12
	BYTE		N08   
	BYTE	W12
// 033   ----------------------------------------
	BYTE	PATT
	 POIN2	egg_1_005
// 034   ----------------------------------------
	BYTE	PATT
	 POIN2	egg_1_005
// 035   ----------------------------------------
	BYTE	PATT
	 POIN2	egg_1_005
// 036   ----------------------------------------
	BYTE	PATT
	 POIN2	egg_1_005
// 037   ----------------------------------------
	BYTE	PATT
	 POIN2	egg_1_005
// 038   ----------------------------------------
	BYTE	PATT
	 POIN2	egg_1_005
// 039   ----------------------------------------
	BYTE	PATT
	 POIN2	egg_1_005
// 040   ----------------------------------------
	BYTE	PATT
	 POIN2	egg_1_012
// 041   ----------------------------------------
	BYTE	PATT
	 POIN2	egg_1_013
// 042   ----------------------------------------
	BYTE		N23     As4   v080
	BYTE	W23
	BYTE	FINE

//**************** Track 2 (Midi-Chn.2) ****************//

egg_2:
	BYTE	KEYSH   egg_key+0
// 000   ----------------------------------------
	BYTE		VOICE   51
	BYTE	W06
	BYTE		VOL     80*egg_mvl/mxv
	BYTE	W03
	BYTE		PAN     c_v+20
	BYTE	W15
	BYTE		N96     Cn2   v080
	BYTE	W72
// 001   ----------------------------------------
	BYTE	W96
// 002   ----------------------------------------
	BYTE	W24
	BYTE		N96   
	BYTE	W72
// 003   ----------------------------------------
	BYTE	W96
// 004   ----------------------------------------
	BYTE	W96
// 005   ----------------------------------------
	BYTE	W96
// 006   ----------------------------------------
	BYTE	W96
// 007   ----------------------------------------
	BYTE	W96
// 008   ----------------------------------------
	BYTE	W96
// 009   ----------------------------------------
	BYTE	W96
// 010   ----------------------------------------
	BYTE	W96
// 011   ----------------------------------------
	BYTE	W96
// 012   ----------------------------------------
egg_2_012:
	BYTE	W36
	BYTE		N12     As1   v080
	BYTE	W12
	BYTE		        Gs1 
	BYTE	W12
	BYTE		        Gn1 
	BYTE	W12
	BYTE		        Fn1 
	BYTE	W12
	BYTE		        Ds1 
	BYTE	W12
	BYTE	PEND
// 013   ----------------------------------------
	BYTE		        Dn1 
	BYTE	W12
	BYTE		N60     As1 
	BYTE	W84
// 014   ----------------------------------------
	BYTE	W96
// 015   ----------------------------------------
	BYTE	W96
// 016   ----------------------------------------
	BYTE	W96
// 017   ----------------------------------------
	BYTE	W96
// 018   ----------------------------------------
	BYTE	W96
// 019   ----------------------------------------
	BYTE	W96
// 020   ----------------------------------------
	BYTE	W96
// 021   ----------------------------------------
	BYTE	W96
// 022   ----------------------------------------
	BYTE	W24
	BYTE		N96     Gn1 
	BYTE	W72
// 023   ----------------------------------------
	BYTE	W96
// 024   ----------------------------------------
	BYTE	W24
	BYTE		        Cn1   v088
	BYTE	W72
// 025   ----------------------------------------
	BYTE	W96
// 026   ----------------------------------------
	BYTE	W24
	BYTE		N96   
	BYTE	W72
// 027   ----------------------------------------
	BYTE	W96
// 028   ----------------------------------------
	BYTE	W24
	BYTE		        Cn2 
	BYTE	W72
// 029   ----------------------------------------
	BYTE	W96
// 030   ----------------------------------------
	BYTE	W24
	BYTE		        Gn1 
	BYTE	W72
// 031   ----------------------------------------
	BYTE	W96
// 032   ----------------------------------------
	BYTE	W96
// 033   ----------------------------------------
	BYTE	W96
// 034   ----------------------------------------
	BYTE	W96
// 035   ----------------------------------------
	BYTE	W96
// 036   ----------------------------------------
	BYTE	W96
// 037   ----------------------------------------
	BYTE	W96
// 038   ----------------------------------------
	BYTE	W96
// 039   ----------------------------------------
	BYTE	W96
// 040   ----------------------------------------
	BYTE	PATT
	 POIN2	egg_2_012
// 041   ----------------------------------------
	BYTE		N12     Dn1   v080
	BYTE	W12
	BYTE		N60     As1 
	BYTE	W60
	BYTE	FINE

//**************** Track 3 (Midi-Chn.3) ****************//

egg_3:
	BYTE	KEYSH   egg_key+0
// 000   ----------------------------------------
	BYTE		VOICE   52
	BYTE	W06
	BYTE		VOL     50*egg_mvl/mxv
	BYTE	W03
	BYTE		PAN     c_v+0
	BYTE	W15
	BYTE		N92     Cn2   v100
	BYTE		N92     Gn2 
	BYTE		N92     Cn3 
	BYTE		N92     Ds3 
	BYTE	W72
// 001   ----------------------------------------
	BYTE	W24
	BYTE		        Cn2 
	BYTE		N11     Gn2 
	BYTE		N11     Cn3 
	BYTE	W06
	BYTE		        Ds3 
	BYTE	W06
	BYTE		        Gn3 
	BYTE	W06
	BYTE		        Cn4 
	BYTE	W06
	BYTE		        Ds3 
	BYTE	W06
	BYTE		        Gn3 
	BYTE	W06
	BYTE		        Cn4 
	BYTE	W06
	BYTE		        Ds4 
	BYTE	W06
	BYTE		        Gn3 
	BYTE	W06
	BYTE		        Cn4 
	BYTE	W06
	BYTE		        Ds4 
	BYTE	W06
	BYTE		        Gn4 
	BYTE	W06
// 002   ----------------------------------------
	BYTE		        Cn4 
	BYTE	W06
	BYTE		        Ds4 
	BYTE	W06
	BYTE		        Gn4 
	BYTE	W06
	BYTE		N06     Cn5 
	BYTE	W06
	BYTE		TIE     Cn2 
	BYTE		TIE     Cn4 
	BYTE		TIE     Ds4 
	BYTE		TIE     Gn4 
	BYTE		N05     Cn5 
	BYTE	W72
// 003   ----------------------------------------
	BYTE	W68
	BYTE	W03
	BYTE		EOT     Cn2 
	BYTE		        Cn4 
	BYTE		        Ds4 
	BYTE		        Gn4 
	BYTE	W24
	BYTE	W01
// 004   ----------------------------------------
	BYTE		N11     Cn2 
	BYTE		N11     Cn4 
	BYTE		N11     Ds4 
	BYTE		N11     Gn4 
	BYTE		N11     Cn5 
	BYTE	W24
	BYTE		N23     Cn2 
	BYTE		N05     Ds3 
	BYTE	W06
	BYTE		        Gn2 
	BYTE		N05     As2 
	BYTE	W06
	BYTE		N11     Gn2 
	BYTE		N11     As2 
	BYTE		N11     Ds3 
	BYTE	W12
	BYTE		N23     Gn2 
	BYTE		N23     As2 
	BYTE		N23     Ds3 
	BYTE	W12
	BYTE		        Cn2 
	BYTE	W12
	BYTE		N05     Gn2 
	BYTE		N05     As2 
	BYTE		N05     Dn3 
	BYTE	W12
	BYTE		N11     Gn2 
	BYTE		N11     As2 
	BYTE		N11     Ds3 
	BYTE	W12
// 005   ----------------------------------------
	BYTE		        Cn2 
	BYTE	W12
	BYTE		N17     Gn2 
	BYTE		N17     As2 
	BYTE		N17     Fn3 
	BYTE	W12
	BYTE		N23     Cn2 
	BYTE	W12
	BYTE		N05     Gn2 
	BYTE		N05     As2 
	BYTE		N05     Ds3 
	BYTE	W12
	BYTE		N17     Gn2 
	BYTE		N17     As2 
	BYTE		N17     Ds3 
	BYTE	W12
	BYTE		N23     Cn2 
	BYTE	W12
	BYTE		N05     Gn2 
	BYTE		N05     As2 
	BYTE		N05     Dn3 
	BYTE	W12
	BYTE		N32     Gn2 
	BYTE		N32     As2 
	BYTE		N32     Ds3 
	BYTE	W12
// 006   ----------------------------------------
	BYTE	W12
	BYTE		N11     Cn2 
	BYTE	W12
	BYTE		N05     Gn2 
	BYTE		N05     As2 
	BYTE		N05     Cn3 
	BYTE	W12
	BYTE		N11     Cn2 
	BYTE	W12
	BYTE		N23     Gn2 
	BYTE		N23     As2 
	BYTE		N23     Cn3 
	BYTE	W24
	BYTE		N11     Cn2 
	BYTE	W12
	BYTE		        Gn2 
	BYTE		N11     As2 
	BYTE		N11     Cn3 
	BYTE	W12
// 007   ----------------------------------------
egg_3_007:
	BYTE		N11     Cn2   v100
	BYTE	W12
	BYTE		N17     Gn2 
	BYTE		N17     As2 
	BYTE		N17     Ds3 
	BYTE	W24
	BYTE		N05     Gn2 
	BYTE		N05     As2 
	BYTE		N05     Ds3 
	BYTE	W12
	BYTE		N11     Cn2 
	BYTE		N17     Gn2 
	BYTE		N17     As2 
	BYTE		N17     Ds3 
	BYTE	W24
	BYTE		N11     Cn2 
	BYTE		N05     Gn2 
	BYTE		N05     As2 
	BYTE		N05     Dn3 
	BYTE	W12
	BYTE		N32     Gn2 
	BYTE		N32     As2 
	BYTE		N32     Ds3 
	BYTE	W12
	BYTE	PEND
// 008   ----------------------------------------
	BYTE		N11     Cn2 
	BYTE	W24
	BYTE		N05     Gn2 
	BYTE		N05     As2 
	BYTE		N05     Cn3 
	BYTE	W12
	BYTE		N23     Cn2 
	BYTE	W12
	BYTE		        Gn2 
	BYTE		N23     As2 
	BYTE		N23     Cn3 
	BYTE	W24
	BYTE		N11     Cn2 
	BYTE	W12
	BYTE		        Gn2 
	BYTE		N11     As2 
	BYTE		N11     Cn3 
	BYTE	W12
// 009   ----------------------------------------
	BYTE		        Cn2 
	BYTE	W12
	BYTE		N17     An2 
	BYTE		N17     Cn3 
	BYTE		N17     Fn3 
	BYTE	W24
	BYTE		N05     An2 
	BYTE		N05     Cn3 
	BYTE		N05     Fn3 
	BYTE	W12
	BYTE		N11     Cn2 
	BYTE		N17     An2 
	BYTE		N17     Cn3 
	BYTE		N17     Fn3 
	BYTE	W24
	BYTE		N11     Cn2 
	BYTE		N05     An2 
	BYTE		N05     Cn3 
	BYTE		N05     Ds3 
	BYTE	W12
	BYTE		N23     An2 
	BYTE		N23     Cn3 
	BYTE		N23     Fn3 
	BYTE	W12
// 010   ----------------------------------------
egg_3_010:
	BYTE		N11     Cn2   v100
	BYTE	W24
	BYTE		N11   
	BYTE		N05     Ds3 
	BYTE		N05     Gn3 
	BYTE	W24
	BYTE		N11     Cn2 
	BYTE	W12
	BYTE		        Cn3 
	BYTE		N11     Ds3 
	BYTE		N11     Fn3 
	BYTE		N11     Gs3 
	BYTE	W12
	BYTE		        Cn2 
	BYTE	W24
	BYTE	PEND
// 011   ----------------------------------------
	BYTE		N11   
	BYTE		N05     Cn3 
	BYTE		N05     Ds3 
	BYTE		N05     Gn3 
	BYTE	W12
	BYTE		        Cn3 
	BYTE		N05     Fn3 
	BYTE		N05     Gs3 
	BYTE	W12
	BYTE		        Cn2 
	BYTE		N11     Cn3 
	BYTE		N11     Ds3 
	BYTE		N11     Gn3 
	BYTE	W12
	BYTE		        Cn2 
	BYTE	W24
	BYTE		N11   
	BYTE		N11     Cn3 
	BYTE		N11     Ds3 
	BYTE		N11     Gs3 
	BYTE	W24
	BYTE		        Cn2 
	BYTE	W12
// 012   ----------------------------------------
	BYTE		        Cn3 
	BYTE		N11     Ds3 
	BYTE		N11     Gn3 
	BYTE	W12
	BYTE		        Cn2 
	BYTE	W84
// 013   ----------------------------------------
egg_3_013:
	BYTE	W12
	BYTE		N44     Fn2   v100
	BYTE		N44     As2 
	BYTE		N44     Dn3 
	BYTE		N44     Fn3 
	BYTE		N44     As3 
	BYTE	W60
	BYTE		N11     Fn2 
	BYTE		N11     As2 
	BYTE		N11     Dn3 
	BYTE		N11     Fn3 
	BYTE		N11     As3 
	BYTE	W24
	BYTE	PEND
// 014   ----------------------------------------
	BYTE		N23     Fn2 
	BYTE		N23     As2 
	BYTE		N23     Dn3 
	BYTE		N23     Fn3 
	BYTE		N23     As3 
	BYTE	W36
	BYTE		N11     Cn2 
	BYTE	W12
	BYTE		N17     Gn2 
	BYTE		N17     As2 
	BYTE		N17     Ds3 
	BYTE	W12
	BYTE		N11     Cn2 
	BYTE	W12
	BYTE		N05     Gn2 
	BYTE		N05     As2 
	BYTE		N05     Dn3 
	BYTE	W12
	BYTE		N11     Cn2 
	BYTE		N17     Gn2 
	BYTE		N17     As2 
	BYTE		N17     Ds3 
	BYTE	W12
// 015   ----------------------------------------
	BYTE	W12
	BYTE		N11     Cn2 
	BYTE		N17     Gn2 
	BYTE		N17     As2 
	BYTE		N17     Fn3 
	BYTE	W24
	BYTE		N11     Cn2 
	BYTE		N05     Gn2 
	BYTE		N05     As2 
	BYTE		N05     Ds3 
	BYTE	W12
	BYTE		N17     Gn2 
	BYTE		N17     As2 
	BYTE		N17     Ds3 
	BYTE	W12
	BYTE		N11     Cn2 
	BYTE	W12
	BYTE		N05     Gn2 
	BYTE		N05     As2 
	BYTE		N05     Dn3 
	BYTE	W12
	BYTE		N11     Cn2 
	BYTE		N28     Gn2 
	BYTE		N28     As2 
	BYTE		N28     Ds3 
	BYTE	W12
// 016   ----------------------------------------
	BYTE	W12
	BYTE		N11     Cn2 
	BYTE	W12
	BYTE		N05     Gn2 
	BYTE		N05     As2 
	BYTE		N05     Cn3 
	BYTE	W12
	BYTE		N11     Cn2 
	BYTE	W12
	BYTE		N28     Gn2 
	BYTE		N28     As2 
	BYTE		N28     Cn3 
	BYTE	W12
	BYTE		N11     Cn2 
	BYTE	W24
	BYTE		N11   
	BYTE		N11     Gn2 
	BYTE		N11     As2 
	BYTE		N11     Cn3 
	BYTE	W12
// 017   ----------------------------------------
	BYTE	W12
	BYTE		        Cn2 
	BYTE		N17     Gn2 
	BYTE		N17     As2 
	BYTE		N17     Ds3 
	BYTE	W24
	BYTE		N11     Cn2 
	BYTE		N05     Gn2 
	BYTE		N05     As2 
	BYTE		N05     Ds3 
	BYTE	W12
	BYTE		N11     Gn2 
	BYTE		N11     As2 
	BYTE		N11     Dn3 
	BYTE	W12
	BYTE		        Cn2 
	BYTE	W12
	BYTE		N05     Gn2 
	BYTE		N05     As2 
	BYTE		N05     Dn3 
	BYTE	W12
	BYTE		N11     Cn2 
	BYTE		N28     Gn2 
	BYTE		N28     As2 
	BYTE		N28     Ds3 
	BYTE	W12
// 018   ----------------------------------------
	BYTE	W12
	BYTE		N11     Cn2 
	BYTE	W12
	BYTE		N05     Gn2 
	BYTE		N05     As2 
	BYTE		N05     Cn3 
	BYTE	W12
	BYTE		N11     Cn2 
	BYTE		N05     Gn2 
	BYTE	W12
	BYTE		N23   
	BYTE		N23     As2 
	BYTE		N23     Cn3 
	BYTE	W12
	BYTE		N11     Cn2 
	BYTE	W24
	BYTE		N11   
	BYTE		N11     Gn2 
	BYTE		N11     As2 
	BYTE		N11     Cn3 
	BYTE	W12
// 019   ----------------------------------------
	BYTE	W12
	BYTE		        Cn2 
	BYTE		N17     An2 
	BYTE		N17     Cn3 
	BYTE		N17     Fn3 
	BYTE	W24
	BYTE		N11     Cn2 
	BYTE		N05     An2 
	BYTE		N05     Cn3 
	BYTE		N05     Fn3 
	BYTE	W12
	BYTE		N17     An2 
	BYTE		N17     Cn3 
	BYTE		N17     Fn3 
	BYTE	W12
	BYTE		N11     Cn2 
	BYTE	W12
	BYTE		N05     An2 
	BYTE		N05     Cn3 
	BYTE		N05     Ds3 
	BYTE	W12
	BYTE		N11     Cn2 
	BYTE		N23     An2 
	BYTE		N23     Cn3 
	BYTE		N23     Fn3 
	BYTE	W12
// 020   ----------------------------------------
	BYTE	W12
	BYTE		N11     Cn2 
	BYTE	W12
	BYTE		        Ds3 
	BYTE		N11     Gn3 
	BYTE	W12
	BYTE		        Cn2 
	BYTE	W12
	BYTE		N05     As2 
	BYTE		N05     Ds3 
	BYTE		N05     Gn3 
	BYTE	W12
	BYTE		N11     Cn2 
	BYTE		N11     Cn3 
	BYTE		N11     Ds3 
	BYTE		N11     Fn3 
	BYTE		N11     Gs3 
	BYTE	W24
	BYTE		        Cn2 
	BYTE	W12
// 021   ----------------------------------------
	BYTE		N05     Cn3 
	BYTE		N05     Ds3 
	BYTE		N05     Gn3 
	BYTE	W12
	BYTE		N11     Cn2 
	BYTE		N05     Cn3 
	BYTE		N05     Fn3 
	BYTE	W12
	BYTE		N11     As2 
	BYTE		N11     Ds3 
	BYTE		N11     Gn3 
	BYTE	W12
	BYTE		        Cn2 
	BYTE	W12
	BYTE		N05     As2 
	BYTE		N05     Ds3 
	BYTE		N05     Gn3 
	BYTE	W12
	BYTE		N11     Cn2 
	BYTE		N11     Cn3 
	BYTE		N11     Ds3 
	BYTE		N11     Fn3 
	BYTE		N11     Gs3 
	BYTE	W24
	BYTE		        Cn2 
	BYTE		N05     Cn3 
	BYTE	W12
// 022   ----------------------------------------
	BYTE		N11   
	BYTE		N11     Ds3 
	BYTE		N11     Gn3 
	BYTE	W12
	BYTE		        Cn2 
	BYTE	W12
	BYTE		N44     Dn3 
	BYTE		N80     Gn3 
	BYTE	W48
	BYTE		N23     Cn3 
	BYTE	W24
// 023   ----------------------------------------
	BYTE		N11     Dn3 
	BYTE	W24
	BYTE		        Bn2 
	BYTE		N11     Dn3 
	BYTE		N11     Gn3 
	BYTE	W36
	BYTE		        Bn2 
	BYTE		N11     Dn3 
	BYTE		N11     Gn3 
	BYTE	W36
// 024   ----------------------------------------
	BYTE		        Bn2 
	BYTE		N11     Dn3 
	BYTE		N11     Gn3 
	BYTE	W24
	BYTE		N88     Cn2 
	BYTE		N44     Gn2 
	BYTE		N44     Cn3 
	BYTE		N44     Ds3 
	BYTE	W48
	BYTE		N05     Gn2 
	BYTE	W06
	BYTE		        Cn3 
	BYTE	W06
	BYTE		        Ds3 
	BYTE	W06
	BYTE		        Gn3 
	BYTE	W06
// 025   ----------------------------------------
	BYTE		        Cn3 
	BYTE	W06
	BYTE		        Ds3 
	BYTE	W06
	BYTE		        Gn3 
	BYTE	W06
	BYTE		        Cn4 
	BYTE	W06
	BYTE		N44     Cn2 
	BYTE		N56     Cn3 
	BYTE		N56     Gn3 
	BYTE		N56     Cn4 
	BYTE	W60
	BYTE		N28     Cn2 
	BYTE	W12
// 026   ----------------------------------------
	BYTE		N17     Cn3 
	BYTE	W12
	BYTE		N05     Ds3 
	BYTE	W12
	BYTE		N90     Cn2 
	BYTE		N44     Cn3 
	BYTE		N44     Ds3 
	BYTE		N44     Gn3 
	BYTE	W48
	BYTE		N05     Cn3 
	BYTE	W06
	BYTE		        Ds3 
	BYTE	W06
	BYTE		        Gn3 
	BYTE	W06
	BYTE		        Cn4 
	BYTE	W06
// 027   ----------------------------------------
	BYTE		        Gn3 
	BYTE	W06
	BYTE		        Cn4 
	BYTE	W06
	BYTE		        Ds4 
	BYTE	W06
	BYTE		        Gn4 
	BYTE	W06
	BYTE		N44     Cn2 
	BYTE		N44     Gn3 
	BYTE		N44     Cn4 
	BYTE		N44     Ds4 
	BYTE		N44     Gn4 
	BYTE	W60
	BYTE		N17     Cn2 
	BYTE		N17     Gn3 
	BYTE		N17     Cn4 
	BYTE		N17     Ds4 
	BYTE		N17     Gn4 
	BYTE	W12
// 028   ----------------------------------------
	BYTE	W24
	BYTE		TIE     Cn2 
	BYTE		N05     An4 
	BYTE	W06
	BYTE		        Fs4 
	BYTE	W06
	BYTE		        Ds4 
	BYTE	W06
	BYTE		        Cn4 
	BYTE	W06
	BYTE		        An4 
	BYTE	W06
	BYTE		        Fs4 
	BYTE	W06
	BYTE		        Ds4 
	BYTE	W06
	BYTE		        Cn4 
	BYTE	W06
	BYTE		        An4 
	BYTE	W06
	BYTE		        Fs4 
	BYTE	W06
	BYTE		        Ds4 
	BYTE	W06
	BYTE		        Cn4 
	BYTE	W06
// 029   ----------------------------------------
	BYTE		        An4 
	BYTE	W06
	BYTE		        Fs4 
	BYTE	W06
	BYTE		        Ds4 
	BYTE	W06
	BYTE		        Cn4 
	BYTE	W06
	BYTE		        An4 
	BYTE	W06
	BYTE		        Fs4 
	BYTE	W06
	BYTE		        Ds4 
	BYTE	W06
	BYTE		        Cn4 
	BYTE	W06
	BYTE		        Bn3 
	BYTE	W06
	BYTE		        Cn4 
	BYTE	W06
	BYTE		        Ds4 
	BYTE	W06
	BYTE		        Cn4 
	BYTE	W06
	BYTE		        Ds4 
	BYTE	W06
	BYTE		        Cn4 
	BYTE	W06
	BYTE		        An3 
	BYTE	W06
	BYTE		        Fs3 
	BYTE	W06
// 030   ----------------------------------------
	BYTE		        Ds3 
	BYTE	W06
	BYTE		        Dn3 
	BYTE	W05
	BYTE		EOT     Cn2 
	BYTE	W01
	BYTE		N05     Cn3 
	BYTE	W06
	BYTE		        Cn2 
	BYTE	W06
	BYTE		N36     Cn3 
	BYTE		N36     Dn3 
	BYTE		N36     Gn3 
	BYTE	W40
	BYTE		N32     Cn3 
	BYTE		N32     Dn3 
	BYTE		N32     Gn3 
	BYTE	W32
// 031   ----------------------------------------
	BYTE	W04
	BYTE		N11     Cn3 
	BYTE		N11     Dn3 
	BYTE		N11     Gn3 
	BYTE	W20
	BYTE		N05     Bn2 
	BYTE		N05     Dn3 
	BYTE		N05     Gn3 
	BYTE	W12
	BYTE		        Bn2 
	BYTE		N05     Dn3 
	BYTE		N05     Gn3 
	BYTE	W12
	BYTE		        Bn2 
	BYTE		N05     Dn3 
	BYTE		N05     Gn3 
	BYTE	W12
	BYTE		        Bn2 
	BYTE		N05     Dn3 
	BYTE		N05     Gn3 
	BYTE	W12
	BYTE		        Bn2 
	BYTE		N05     Dn3 
	BYTE		N05     Gn3 
	BYTE	W12
	BYTE		        Bn2 
	BYTE		N05     Dn3 
	BYTE		N05     Gn3 
	BYTE	W12
// 032   ----------------------------------------
	BYTE		        Bn2 
	BYTE		N05     Dn3 
	BYTE		N05     Gn3 
	BYTE	W12
	BYTE		        Bn2 
	BYTE		N05     Dn3 
	BYTE		N05     Gn3 
	BYTE	W12
	BYTE		        Gn2 
	BYTE		N05     As2 
	BYTE		N05     Ds3 
	BYTE	W12
	BYTE		        Gn2 
	BYTE		N05     As2 
	BYTE		N05     Ds3 
	BYTE	W12
	BYTE		N11     Gn2 
	BYTE		N11     As2 
	BYTE		N11     Ds3 
	BYTE	W12
	BYTE		        Cn2 
	BYTE	W12
	BYTE		N05     Gn2 
	BYTE		N05     As2 
	BYTE		N05     Dn3 
	BYTE	W12
	BYTE		N11     Gn2 
	BYTE		N11     As2 
	BYTE		N11     Ds3 
	BYTE	W12
// 033   ----------------------------------------
	BYTE		        Cn2 
	BYTE	W12
	BYTE		N17     Gn2 
	BYTE		N17     As2 
	BYTE		N17     Fn3 
	BYTE	W12
	BYTE		N11     Cn2 
	BYTE	W12
	BYTE		N05     Gn2 
	BYTE		N05     As2 
	BYTE		N05     Ds3 
	BYTE	W12
	BYTE		N11     Cn2 
	BYTE		N11     Gn2 
	BYTE		N11     As2 
	BYTE		N11     Ds3 
	BYTE	W24
	BYTE		N05     Gn2 
	BYTE		N05     As2 
	BYTE		N05     Dn3 
	BYTE	W12
	BYTE		N11     Cn2 
	BYTE		N32     Gn2 
	BYTE		N32     As2 
	BYTE		N32     Ds3 
	BYTE	W12
// 034   ----------------------------------------
	BYTE	W12
	BYTE		N11     Cn2 
	BYTE	W24
	BYTE		N11   
	BYTE	W12
	BYTE		N23     Gn2 
	BYTE		N23     As2 
	BYTE		N23     Cn3 
	BYTE	W24
	BYTE		N11     Cn2 
	BYTE	W12
	BYTE		        Gn2 
	BYTE		N11     As2 
	BYTE		N11     Cn3 
	BYTE	W12
// 035   ----------------------------------------
	BYTE	PATT
	 POIN2	egg_3_007
// 036   ----------------------------------------
	BYTE		N11     Cn2   v100
	BYTE	W24
	BYTE		N05     Gn2 
	BYTE		N05     As2 
	BYTE		N05     Cn3 
	BYTE	W12
	BYTE		N11     Cn2 
	BYTE	W12
	BYTE		N23     Gn2 
	BYTE		N23     As2 
	BYTE		N23     Cn3 
	BYTE	W24
	BYTE		N11     Cn2 
	BYTE	W12
	BYTE		        Gn2 
	BYTE		N11     As2 
	BYTE		N11     Cn3 
	BYTE	W12
// 037   ----------------------------------------
	BYTE		        Cn2 
	BYTE	W12
	BYTE		N17     An2 
	BYTE		N17     Cn3 
	BYTE		N17     Fn3 
	BYTE	W24
	BYTE		N05     An2 
	BYTE		N05     Cn3 
	BYTE		N05     Fn3 
	BYTE	W12
	BYTE		N11     Cn2 
	BYTE		N17     An2 
	BYTE		N17     Cn3 
	BYTE		N17     Fn3 
	BYTE	W24
	BYTE		N11     Cn2 
	BYTE		N05     An2 
	BYTE		N05     Cn3 
	BYTE		N05     Ds3 
	BYTE	W12
	BYTE		N28     An2 
	BYTE		N28     Cn3 
	BYTE		N28     Fn3 
	BYTE	W12
// 038   ----------------------------------------
	BYTE	PATT
	 POIN2	egg_3_010
// 039   ----------------------------------------
	BYTE		N11     Cn2   v100
	BYTE		N05     Cn3 
	BYTE		N05     Ds3 
	BYTE		N05     Gn3 
	BYTE	W12
	BYTE		        Cn3 
	BYTE		N05     Fn3 
	BYTE		N05     Gs3 
	BYTE	W12
	BYTE		N11     Cn2 
	BYTE		N05     Cn3 
	BYTE		N05     Ds3 
	BYTE		N05     Gn3 
	BYTE	W12
	BYTE		N11     Cn2 
	BYTE	W24
	BYTE		N11   
	BYTE		N11     Cn3 
	BYTE		N11     Ds3 
	BYTE		N11     Gs3 
	BYTE	W24
	BYTE		        Cn2 
	BYTE	W12
// 040   ----------------------------------------
	BYTE		N05     Cn3 
	BYTE		N05     Ds3 
	BYTE		N05     Gn3 
	BYTE	W12
	BYTE		N11     Cn2 
	BYTE	W84
// 041   ----------------------------------------
	BYTE	PATT
	 POIN2	egg_3_013
// 042   ----------------------------------------
	BYTE		N23     Fn2   v100
	BYTE		N23     As2 
	BYTE		N23     Dn3 
	BYTE		N23     Fn3 
	BYTE		N23     As3 
	BYTE	W23
	BYTE	FINE

//**************** Track 4 (Midi-Chn.4) ****************//

egg_4:
	BYTE	KEYSH   egg_key+0
// 000   ----------------------------------------
	BYTE		VOICE   54
	BYTE	W06
	BYTE		VOL     80*egg_mvl/mxv
	BYTE	W03
	BYTE		PAN     c_v-32
	BYTE	W84
	BYTE	W03
// 001   ----------------------------------------
	BYTE	W96
// 002   ----------------------------------------
	BYTE	W96
// 003   ----------------------------------------
	BYTE	W96
// 004   ----------------------------------------
	BYTE	W96
// 005   ----------------------------------------
egg_4_005:
	BYTE	W84
	BYTE		N05     Cn2   v100
	BYTE	W06
	BYTE		        Cn2   v080
	BYTE	W06
	BYTE	PEND
// 006   ----------------------------------------
egg_4_006:
	BYTE		N05     Cn2   v080
	BYTE	W06
	BYTE		N05   
	BYTE	W06
	BYTE		N05   
	BYTE	W06
	BYTE		N05   
	BYTE	W06
	BYTE		        Cn2   v100
	BYTE	W06
	BYTE		        Cn2   v080
	BYTE	W06
	BYTE		N05   
	BYTE	W06
	BYTE		N05   
	BYTE	W06
	BYTE		N05   
	BYTE	W06
	BYTE		N05   
	BYTE	W06
	BYTE		        Cn2   v100
	BYTE	W06
	BYTE		        Cn2   v080
	BYTE	W06
	BYTE		N05   
	BYTE	W06
	BYTE		N05   
	BYTE	W06
	BYTE		N05   
	BYTE	W06
	BYTE		N05   
	BYTE	W06
	BYTE	PEND
// 007   ----------------------------------------
egg_4_007:
	BYTE		N05     Cn2   v100
	BYTE	W12
	BYTE		N32     Cn2   v080
	BYTE		N32     Ds2 
	BYTE	W72
	BYTE		N05     Cn2   v100
	BYTE	W06
	BYTE		        Cn2   v080
	BYTE	W06
	BYTE	PEND
// 008   ----------------------------------------
	BYTE	PATT
	 POIN2	egg_4_006
// 009   ----------------------------------------
egg_4_009:
	BYTE		N05     Cn2   v100
	BYTE	W12
	BYTE		N32     Cn2   v080
	BYTE		N32     Fn2 
	BYTE	W72
	BYTE		N05     Cn2 
	BYTE	W06
	BYTE		N05   
	BYTE	W06
	BYTE	PEND
// 010   ----------------------------------------
egg_4_010:
	BYTE		N05     Cn2   v080
	BYTE	W06
	BYTE		N05   
	BYTE	W06
	BYTE		N05   
	BYTE	W06
	BYTE		N05   
	BYTE	W06
	BYTE		N11   
	BYTE		N11     Gn2 
	BYTE	W12
	BYTE		N05     Cn2 
	BYTE	W06
	BYTE		N05   
	BYTE	W06
	BYTE		N05   
	BYTE	W06
	BYTE		N05   
	BYTE	W06
	BYTE		N11   
	BYTE		N11     Gs2 
	BYTE	W12
	BYTE		N05     Cn2 
	BYTE	W06
	BYTE		N05   
	BYTE	W06
	BYTE		N05   
	BYTE	W06
	BYTE		N05   
	BYTE	W06
	BYTE	PEND
// 011   ----------------------------------------
egg_4_011:
	BYTE		N11     Cn2   v080
	BYTE		N11     Gn2 
	BYTE	W12
	BYTE		        Cn2 
	BYTE		N11     Fn2 
	BYTE	W12
	BYTE		        Cn2 
	BYTE		N11     Gn2 
	BYTE	W12
	BYTE		N05     Cn2 
	BYTE	W06
	BYTE		N05   
	BYTE	W06
	BYTE		N05   
	BYTE	W06
	BYTE		N05   
	BYTE	W06
	BYTE		N11   
	BYTE		N11     Gs2 
	BYTE	W12
	BYTE		N05     Cn2 
	BYTE	W06
	BYTE		N05   
	BYTE	W06
	BYTE		N05   
	BYTE	W06
	BYTE		N05   
	BYTE	W06
	BYTE	PEND
// 012   ----------------------------------------
egg_4_012:
	BYTE		N11     Cn2   v080
	BYTE		N11     Gn2 
	BYTE	W12
	BYTE		        Cn2 
	BYTE		N11     Fn2 
	BYTE	W24
	BYTE		BEND    c_v-6
	BYTE		N11     As2 
	BYTE	W01
	BYTE		BEND    c_v-3
	BYTE	W01
	BYTE		        c_v-2
	BYTE	W01
	BYTE		        c_v-1
	BYTE	W01
	BYTE		        c_v+0
	BYTE	W08
	BYTE		N11     Gs2 
	BYTE	W12
	BYTE		        Gn2 
	BYTE	W12
	BYTE		        Fn2 
	BYTE	W12
	BYTE		        Ds2 
	BYTE	W12
	BYTE	PEND
// 013   ----------------------------------------
egg_4_013:
	BYTE		N11     Dn2   v080
	BYTE	W12
	BYTE		N56     As1 
	BYTE		N56     Fn2 
	BYTE	W60
	BYTE		N11     As1 
	BYTE		N11     Fn2 
	BYTE	W24
	BYTE	PEND
// 014   ----------------------------------------
	BYTE		N24     As1 
	BYTE		N24     Fn2 
	BYTE	W96
// 015   ----------------------------------------
	BYTE	PATT
	 POIN2	egg_4_005
// 016   ----------------------------------------
	BYTE	PATT
	 POIN2	egg_4_006
// 017   ----------------------------------------
	BYTE	PATT
	 POIN2	egg_4_007
// 018   ----------------------------------------
	BYTE	PATT
	 POIN2	egg_4_006
// 019   ----------------------------------------
	BYTE	PATT
	 POIN2	egg_4_009
// 020   ----------------------------------------
	BYTE	PATT
	 POIN2	egg_4_010
// 021   ----------------------------------------
	BYTE	PATT
	 POIN2	egg_4_011
// 022   ----------------------------------------
	BYTE		N11     Cn2   v080
	BYTE		N11     Gn2 
	BYTE	W12
	BYTE		        Cn2 
	BYTE		N11     Fn2 
	BYTE	W12
	BYTE		N05     Gn2   v004
	BYTE	W06
	BYTE		N05   
	BYTE	W06
	BYTE		        Gn2   v008
	BYTE	W06
	BYTE		        Gn2   v016
	BYTE	W06
	BYTE		        Gn2   v020
	BYTE	W06
	BYTE		        Gn2   v024
	BYTE	W06
	BYTE		        Gn2   v028
	BYTE	W06
	BYTE		        Gn2   v032
	BYTE	W06
	BYTE		        Gn2   v036
	BYTE	W06
	BYTE		        Gn2   v040
	BYTE	W06
	BYTE		        Gn2   v044
	BYTE	W06
	BYTE		        Gn2   v048
	BYTE	W06
// 023   ----------------------------------------
	BYTE		        Gn2   v052
	BYTE	W06
	BYTE		        Gn2   v056
	BYTE	W06
	BYTE		        Gn2   v064
	BYTE	W06
	BYTE		        Gn2   v068
	BYTE	W06
	BYTE		N11     Dn2   v080
	BYTE		N11     Gn2 
	BYTE	W12
	BYTE		N05     Gn1 
	BYTE	W06
	BYTE		N05   
	BYTE	W06
	BYTE		N05   
	BYTE	W06
	BYTE		N05   
	BYTE	W06
	BYTE		N11     Dn2 
	BYTE		N11     Gn2 
	BYTE	W12
	BYTE		N05     Gn1 
	BYTE	W06
	BYTE		N05   
	BYTE	W06
	BYTE		N05   
	BYTE	W06
	BYTE		N05   
	BYTE	W06
// 024   ----------------------------------------
	BYTE		N11     Dn2 
	BYTE		N11     Gn2 
	BYTE	W12
	BYTE		        Gn1 
	BYTE	W12
	BYTE		N05     Cn2   v096
	BYTE	W06
	BYTE		        Ds2 
	BYTE	W06
	BYTE		        Dn2 
	BYTE	W06
	BYTE		        Cn2 
	BYTE	W06
	BYTE		        Fn2 
	BYTE	W06
	BYTE		        Ds2 
	BYTE	W06
	BYTE		        Dn2 
	BYTE	W06
	BYTE		        Fn2 
	BYTE	W06
	BYTE		        Ds2 
	BYTE	W06
	BYTE		        Dn2 
	BYTE	W06
	BYTE		        Fn2 
	BYTE	W06
	BYTE		        Ds2 
	BYTE	W06
// 025   ----------------------------------------
egg_4_025:
	BYTE		N03     Dn2   v096
	BYTE	W04
	BYTE		        Gs2 
	BYTE	W04
	BYTE		        Gn2 
	BYTE	W04
	BYTE		        Fn2 
	BYTE	W04
	BYTE		        Ds2 
	BYTE	W04
	BYTE		        Dn2 
	BYTE	W04
	BYTE		N05     Cn3 
	BYTE	W06
	BYTE		        Ds3 
	BYTE	W06
	BYTE		        Dn3 
	BYTE	W06
	BYTE		        Cn3 
	BYTE	W06
	BYTE		        Fn3 
	BYTE	W06
	BYTE		        Ds3 
	BYTE	W06
	BYTE		        Dn3 
	BYTE	W06
	BYTE		        Fn3 
	BYTE	W06
	BYTE		        Ds3 
	BYTE	W06
	BYTE		        Dn3 
	BYTE	W06
	BYTE		        Fn3 
	BYTE	W06
	BYTE		        Ds3 
	BYTE	W06
	BYTE	PEND
// 026   ----------------------------------------
	BYTE		N03     Dn3 
	BYTE	W04
	BYTE		        Gs3 
	BYTE	W04
	BYTE		        Gn3 
	BYTE	W04
	BYTE		        Fn3 
	BYTE	W04
	BYTE		        Ds3 
	BYTE	W04
	BYTE		        Dn3 
	BYTE	W04
	BYTE		N05     Cn2 
	BYTE	W06
	BYTE		        Ds2 
	BYTE	W06
	BYTE		        Dn2 
	BYTE	W06
	BYTE		        Cn2 
	BYTE	W06
	BYTE		        Fn2 
	BYTE	W06
	BYTE		        Ds2 
	BYTE	W06
	BYTE		        Dn2 
	BYTE	W06
	BYTE		        Fn2 
	BYTE	W06
	BYTE		        Ds2 
	BYTE	W06
	BYTE		        Dn2 
	BYTE	W06
	BYTE		        Fn2 
	BYTE	W06
	BYTE		        Ds2 
	BYTE	W06
// 027   ----------------------------------------
	BYTE	PATT
	 POIN2	egg_4_025
// 028   ----------------------------------------
	BYTE		N03     Dn3   v096
	BYTE	W04
	BYTE		        Gs3 
	BYTE	W04
	BYTE		        Gn3 
	BYTE	W04
	BYTE		        Fn3 
	BYTE	W04
	BYTE		        Ds3 
	BYTE	W04
	BYTE		        Dn3 
	BYTE	W04
	BYTE		N05     Cn3 
	BYTE	W06
	BYTE		        Ds3 
	BYTE	W06
	BYTE		        An2 
	BYTE	W06
	BYTE		        Cn3 
	BYTE	W06
	BYTE		        Fs2 
	BYTE	W06
	BYTE		        An2 
	BYTE	W06
	BYTE		        Cn2 
	BYTE	W06
	BYTE		        Ds2 
	BYTE	W06
	BYTE		        Fs2 
	BYTE	W06
	BYTE		        An2 
	BYTE	W06
	BYTE		        Cn3 
	BYTE	W06
	BYTE		        Ds3 
	BYTE	W06
// 029   ----------------------------------------
	BYTE		        Fs3 
	BYTE	W06
	BYTE		        An3 
	BYTE	W06
	BYTE		        Cn4 
	BYTE	W06
	BYTE		        Ds4 
	BYTE	W06
	BYTE		        An3 
	BYTE	W06
	BYTE		        Cn4 
	BYTE	W06
	BYTE		        Ds4 
	BYTE	W06
	BYTE		        An3 
	BYTE	W06
	BYTE		        Cn4 
	BYTE	W06
	BYTE		        Ds4 
	BYTE	W06
	BYTE		        An3 
	BYTE	W06
	BYTE		        Cn4 
	BYTE	W06
	BYTE		        Ds4 
	BYTE	W06
	BYTE		        An3 
	BYTE	W06
	BYTE		        Cn4 
	BYTE	W06
	BYTE		        Ds4 
	BYTE	W06
// 030   ----------------------------------------
	BYTE		        An3 
	BYTE	W06
	BYTE		        Cn4 
	BYTE	W06
	BYTE		        Ds4 
	BYTE	W06
	BYTE		        An3 
	BYTE	W06
	BYTE		N03     Gn4 
	BYTE	W04
	BYTE		        Fn4 
	BYTE	W04
	BYTE		        Dn4 
	BYTE	W04
	BYTE		        Cn4 
	BYTE	W04
	BYTE		        Bn3 
	BYTE	W04
	BYTE		        Gs3 
	BYTE	W04
	BYTE		        Gn3 
	BYTE	W04
	BYTE		        Fn3 
	BYTE	W04
	BYTE		        Ds3 
	BYTE	W04
	BYTE		        Dn3 
	BYTE	W04
	BYTE		        Cn3 
	BYTE	W04
	BYTE		        Bn2 
	BYTE	W04
	BYTE		        Gn3 
	BYTE	W04
	BYTE		        Fn3 
	BYTE	W04
	BYTE		        Ds3 
	BYTE	W04
	BYTE		        Dn3 
	BYTE	W04
	BYTE		        Cn3 
	BYTE	W04
	BYTE		        Bn2 
	BYTE	W04
// 031   ----------------------------------------
	BYTE		        Gs2 
	BYTE	W04
	BYTE		        Gn2 
	BYTE	W04
	BYTE		        Fn2 
	BYTE	W04
	BYTE		        Ds2 
	BYTE	W04
	BYTE		        Dn2 
	BYTE	W04
	BYTE		        Cn2 
	BYTE	W04
	BYTE		N96     Gn1 
	BYTE		N96     Dn2 
	BYTE	W72
// 032   ----------------------------------------
	BYTE	W96
// 033   ----------------------------------------
	BYTE	PATT
	 POIN2	egg_4_005
// 034   ----------------------------------------
	BYTE	PATT
	 POIN2	egg_4_006
// 035   ----------------------------------------
	BYTE	PATT
	 POIN2	egg_4_007
// 036   ----------------------------------------
	BYTE	PATT
	 POIN2	egg_4_006
// 037   ----------------------------------------
	BYTE	PATT
	 POIN2	egg_4_009
// 038   ----------------------------------------
	BYTE	PATT
	 POIN2	egg_4_010
// 039   ----------------------------------------
	BYTE	PATT
	 POIN2	egg_4_011
// 040   ----------------------------------------
	BYTE	PATT
	 POIN2	egg_4_012
// 041   ----------------------------------------
	BYTE	PATT
	 POIN2	egg_4_013
// 042   ----------------------------------------
	BYTE		N23     As1   v080
	BYTE		N23     Fn2 
	BYTE	W23
	BYTE	FINE

//**************** Track 5 (Midi-Chn.5) ****************//

egg_5:
	BYTE	KEYSH   egg_key+0
// 000   ----------------------------------------
	BYTE		VOICE   62
	BYTE	W06
	BYTE		VOL     50*egg_mvl/mxv
	BYTE	W03
	BYTE		PAN     c_v+63
	BYTE	W84
	BYTE	W03
// 001   ----------------------------------------
	BYTE	W24
	BYTE	W03
	BYTE		N11     Gn2   v080
	BYTE		N11     Cn3 
	BYTE	W06
	BYTE		        Ds3 
	BYTE	W06
	BYTE		        Gn3 
	BYTE	W06
	BYTE		        Cn4 
	BYTE	W06
	BYTE		        Ds3 
	BYTE	W06
	BYTE		        Gn3 
	BYTE	W06
	BYTE		        Cn4 
	BYTE	W06
	BYTE		        Ds4 
	BYTE	W06
	BYTE		        Gn3 
	BYTE	W06
	BYTE		        Cn4 
	BYTE	W06
	BYTE		        Ds4 
	BYTE	W06
	BYTE		        Gn4 
	BYTE	W03
// 002   ----------------------------------------
	BYTE	W03
	BYTE		        Cn4 
	BYTE	W06
	BYTE		        Ds4 
	BYTE	W06
	BYTE		        Gn4 
	BYTE	W06
	BYTE		        Cn5 
	BYTE	W11
	BYTE	FINE

//**************** Track 6 (Midi-Chn.6) ****************//

egg_6:
	BYTE	KEYSH   egg_key+0
// 000   ----------------------------------------
	BYTE		VOICE   55
	BYTE	W06
	BYTE		VOL     110*egg_mvl/mxv
	BYTE	W03
	BYTE		PAN     c_v-64
	BYTE	W36
	BYTE	W03
	BYTE		N23     Gs2   v072
	BYTE	W24
	BYTE		        Gn2 
	BYTE	W24
// 001   ----------------------------------------
egg_6_001:
	BYTE		N23     Fn2   v072
	BYTE	W24
	BYTE		N92     Ds2 
	BYTE	W72
	BYTE	PEND
// 002   ----------------------------------------
	BYTE	W48
	BYTE		N23     Gs2 
	BYTE	W24
	BYTE		        Gn2 
	BYTE	W24
// 003   ----------------------------------------
	BYTE	PATT
	 POIN2	egg_6_001
// 004   ----------------------------------------
	BYTE	W23
	BYTE	FINE

//**************** Track 7 (Midi-Chn.7) ****************//

egg_7:
	BYTE	KEYSH   egg_key+0
// 000   ----------------------------------------
	BYTE		VOICE   59
	BYTE	W06
	BYTE		VOL     100*egg_mvl/mxv
	BYTE	W03
	BYTE		PAN     c_v+63
	BYTE	W36
	BYTE	W03
	BYTE		N23     Cn3   v072
	BYTE	W24
	BYTE		        As2 
	BYTE	W24
// 001   ----------------------------------------
egg_7_001:
	BYTE		N23     Gs2   v072
	BYTE	W24
	BYTE		N92     Gn2 
	BYTE	W72
	BYTE	PEND
// 002   ----------------------------------------
	BYTE	W48
	BYTE		N23     Cn3 
	BYTE	W24
	BYTE		        As2 
	BYTE	W24
// 003   ----------------------------------------
	BYTE	PATT
	 POIN2	egg_7_001
// 004   ----------------------------------------
	BYTE	W23
	BYTE	FINE

//**************** Track 8 (Midi-Chn.8) ****************//

egg_8:
	BYTE	KEYSH   egg_key+0
// 000   ----------------------------------------
	BYTE		VOICE   56
	BYTE	W06
	BYTE		VOL     80*egg_mvl/mxv
	BYTE	W03
	BYTE		PAN     c_v+0
	BYTE	W15
	BYTE		TIE     Cn2   v100
	BYTE	W72
// 001   ----------------------------------------
	BYTE	W96
// 002   ----------------------------------------
	BYTE	W24
	BYTE		EOT   
	BYTE		TIE   
	BYTE	W72
// 003   ----------------------------------------
	BYTE	W96
// 004   ----------------------------------------
	BYTE	W24
	BYTE		EOT   
	BYTE		N08     Cn3 
	BYTE	W12
	BYTE		N08   
	BYTE	W12
	BYTE		N08   
	BYTE	W12
	BYTE		N08   
	BYTE	W12
	BYTE		N08   
	BYTE	W12
	BYTE		N08   
	BYTE	W12
// 005   ----------------------------------------
egg_8_005:
	BYTE		N08     Cn3   v100
	BYTE	W12
	BYTE		N08   
	BYTE	W12
	BYTE		N08   
	BYTE	W12
	BYTE		N08   
	BYTE	W12
	BYTE		N08   
	BYTE	W12
	BYTE		N08   
	BYTE	W12
	BYTE		N08   
	BYTE	W12
	BYTE		N08   
	BYTE	W12
	BYTE	PEND
// 006   ----------------------------------------
	BYTE	PATT
	 POIN2	egg_8_005
// 007   ----------------------------------------
	BYTE	PATT
	 POIN2	egg_8_005
// 008   ----------------------------------------
	BYTE	PATT
	 POIN2	egg_8_005
// 009   ----------------------------------------
	BYTE	PATT
	 POIN2	egg_8_005
// 010   ----------------------------------------
	BYTE	PATT
	 POIN2	egg_8_005
// 011   ----------------------------------------
	BYTE	PATT
	 POIN2	egg_8_005
// 012   ----------------------------------------
egg_8_012:
	BYTE		N08     Cn3   v100
	BYTE	W12
	BYTE		N08   
	BYTE	W12
	BYTE		N11     Gn2 
	BYTE	W12
	BYTE		        As3 
	BYTE	W12
	BYTE		        Gs3 
	BYTE	W12
	BYTE		        Gn3 
	BYTE	W12
	BYTE		        Fn3 
	BYTE	W12
	BYTE		        Ds3 
	BYTE	W12
	BYTE	PEND
// 013   ----------------------------------------
egg_8_013:
	BYTE		N11     Dn3   v100
	BYTE	W12
	BYTE		N56     As2 
	BYTE	W60
	BYTE		N08   
	BYTE	W24
	BYTE	PEND
// 014   ----------------------------------------
	BYTE		N23   
	BYTE	W24
	BYTE		N08     Cn3 
	BYTE	W12
	BYTE		N08   
	BYTE	W12
	BYTE		N08   
	BYTE	W12
	BYTE		N08   
	BYTE	W12
	BYTE		N08   
	BYTE	W12
	BYTE		N08   
	BYTE	W12
// 015   ----------------------------------------
	BYTE	PATT
	 POIN2	egg_8_005
// 016   ----------------------------------------
	BYTE	PATT
	 POIN2	egg_8_005
// 017   ----------------------------------------
	BYTE	PATT
	 POIN2	egg_8_005
// 018   ----------------------------------------
	BYTE	PATT
	 POIN2	egg_8_005
// 019   ----------------------------------------
	BYTE	PATT
	 POIN2	egg_8_005
// 020   ----------------------------------------
	BYTE	PATT
	 POIN2	egg_8_005
// 021   ----------------------------------------
	BYTE	PATT
	 POIN2	egg_8_005
// 022   ----------------------------------------
	BYTE		N08     Cn3   v100
	BYTE	W12
	BYTE		N08   
	BYTE	W12
	BYTE		TIE     Gn2 
	BYTE	W72
// 023   ----------------------------------------
	BYTE	W32
	BYTE	W03
	BYTE		EOT   
	BYTE	W01
	BYTE		N11   
	BYTE	W12
	BYTE		N11   
	BYTE	W12
	BYTE		N11   
	BYTE	W12
	BYTE		N11   
	BYTE	W12
	BYTE		N11   
	BYTE	W12
// 024   ----------------------------------------
	BYTE		N11   
	BYTE	W12
	BYTE		N11   
	BYTE	W12
	BYTE		N72     Cn2 
	BYTE	W72
// 025   ----------------------------------------
egg_8_025:
	BYTE	W12
	BYTE		N12     Gn2   v100
	BYTE	W12
	BYTE		N72     Cn2 
	BYTE	W72
	BYTE	PEND
// 026   ----------------------------------------
	BYTE	PATT
	 POIN2	egg_8_025
// 027   ----------------------------------------
	BYTE	PATT
	 POIN2	egg_8_025
// 028   ----------------------------------------
	BYTE	W12
	BYTE		N12     Gn2   v100
	BYTE	W12
	BYTE		N72     Fs2 
	BYTE	W72
// 029   ----------------------------------------
	BYTE	W12
	BYTE		N12   
	BYTE	W12
	BYTE		N72   
	BYTE	W72
// 030   ----------------------------------------
	BYTE	W12
	BYTE		N12   
	BYTE	W12
	BYTE		N72     Gn2 
	BYTE	W72
// 031   ----------------------------------------
	BYTE	W12
	BYTE		N12     Dn3 
	BYTE	W12
	BYTE		N72     Gn2 
	BYTE	W72
// 032   ----------------------------------------
	BYTE		N24   
	BYTE	W24
	BYTE		N08     Cn3 
	BYTE	W12
	BYTE		N08   
	BYTE	W12
	BYTE		N08   
	BYTE	W12
	BYTE		N08   
	BYTE	W12
	BYTE		N08   
	BYTE	W12
	BYTE		N08   
	BYTE	W12
// 033   ----------------------------------------
	BYTE	PATT
	 POIN2	egg_8_005
// 034   ----------------------------------------
	BYTE	PATT
	 POIN2	egg_8_005
// 035   ----------------------------------------
	BYTE	PATT
	 POIN2	egg_8_005
// 036   ----------------------------------------
	BYTE	PATT
	 POIN2	egg_8_005
// 037   ----------------------------------------
	BYTE	PATT
	 POIN2	egg_8_005
// 038   ----------------------------------------
	BYTE	PATT
	 POIN2	egg_8_005
// 039   ----------------------------------------
	BYTE	PATT
	 POIN2	egg_8_005
// 040   ----------------------------------------
	BYTE	PATT
	 POIN2	egg_8_012
// 041   ----------------------------------------
	BYTE	PATT
	 POIN2	egg_8_013
// 042   ----------------------------------------
	BYTE		N23     As2   v100
	BYTE	W23
	BYTE	FINE

//**************** Track 9 (Midi-Chn.9) ****************//

egg_9:
	BYTE	KEYSH   egg_key+0
// 000   ----------------------------------------
	BYTE		VOICE   57
	BYTE	W06
	BYTE		VOL     80*egg_mvl/mxv
	BYTE	W03
	BYTE		PAN     c_v+0
	BYTE	W84
	BYTE	W03
// 001   ----------------------------------------
	BYTE	W96
// 002   ----------------------------------------
	BYTE	W96
// 003   ----------------------------------------
	BYTE	W96
// 004   ----------------------------------------
egg_9_004:
	BYTE	W72
	BYTE		N06     Dn2   v092
	BYTE	W06
	BYTE		N06   
	BYTE	W06
	BYTE		        Cn2 
	BYTE	W12
	BYTE	PEND
// 005   ----------------------------------------
egg_9_005:
	BYTE		N06     An1   v092
	BYTE	W60
	BYTE		        Fn1 
	BYTE	W06
	BYTE		N06   
	BYTE	W06
	BYTE		        An1 
	BYTE	W06
	BYTE		        Cn2 
	BYTE	W06
	BYTE		        Dn2 
	BYTE	W12
	BYTE	PEND
// 006   ----------------------------------------
	BYTE	PATT
	 POIN2	egg_9_004
// 007   ----------------------------------------
	BYTE	PATT
	 POIN2	egg_9_005
// 008   ----------------------------------------
	BYTE	PATT
	 POIN2	egg_9_004
// 009   ----------------------------------------
	BYTE	PATT
	 POIN2	egg_9_005
// 010   ----------------------------------------
	BYTE	PATT
	 POIN2	egg_9_004
// 011   ----------------------------------------
	BYTE	PATT
	 POIN2	egg_9_005
// 012   ----------------------------------------
	BYTE	W96
// 013   ----------------------------------------
	BYTE	W96
// 014   ----------------------------------------
	BYTE	PATT
	 POIN2	egg_9_004
// 015   ----------------------------------------
	BYTE	PATT
	 POIN2	egg_9_005
// 016   ----------------------------------------
	BYTE	PATT
	 POIN2	egg_9_004
// 017   ----------------------------------------
	BYTE	PATT
	 POIN2	egg_9_005
// 018   ----------------------------------------
	BYTE	PATT
	 POIN2	egg_9_004
// 019   ----------------------------------------
	BYTE	PATT
	 POIN2	egg_9_005
// 020   ----------------------------------------
	BYTE	PATT
	 POIN2	egg_9_004
// 021   ----------------------------------------
	BYTE	PATT
	 POIN2	egg_9_005
// 022   ----------------------------------------
	BYTE	W96
// 023   ----------------------------------------
	BYTE	W96
// 024   ----------------------------------------
	BYTE	W96
// 025   ----------------------------------------
	BYTE	W96
// 026   ----------------------------------------
	BYTE	W96
// 027   ----------------------------------------
	BYTE	W96
// 028   ----------------------------------------
	BYTE	W96
// 029   ----------------------------------------
	BYTE	W96
// 030   ----------------------------------------
	BYTE	W96
// 031   ----------------------------------------
	BYTE	W96
// 032   ----------------------------------------
	BYTE	PATT
	 POIN2	egg_9_004
// 033   ----------------------------------------
	BYTE	PATT
	 POIN2	egg_9_005
// 034   ----------------------------------------
	BYTE	PATT
	 POIN2	egg_9_004
// 035   ----------------------------------------
	BYTE	PATT
	 POIN2	egg_9_005
// 036   ----------------------------------------
	BYTE	PATT
	 POIN2	egg_9_004
// 037   ----------------------------------------
	BYTE	PATT
	 POIN2	egg_9_005
// 038   ----------------------------------------
	BYTE	PATT
	 POIN2	egg_9_004
// 039   ----------------------------------------
	BYTE		N06     An1   v092
	BYTE	W60
	BYTE		        Fn1 
	BYTE	W06
	BYTE		N06   
	BYTE	W06
	BYTE		        An1 
	BYTE	W06
	BYTE		        Cn2 
	BYTE	W06
	BYTE		        Dn2 
	BYTE	W06
	BYTE	FINE

//**************** Track 10 (Midi-Chn.10) ****************//

egg_10:
	BYTE	KEYSH   egg_key+0
// 000   ----------------------------------------
	BYTE		VOICE   58
	BYTE	W06
	BYTE		VOL     100*egg_mvl/mxv
	BYTE	W03
	BYTE		PAN     c_v+0
	BYTE	W84
	BYTE	W03
// 001   ----------------------------------------
	BYTE	W96
// 002   ----------------------------------------
	BYTE	W96
// 003   ----------------------------------------
	BYTE	W96
// 004   ----------------------------------------
	BYTE		N06     Dn1   v096
	BYTE	W24
	BYTE		        Cn1   v100
	BYTE		N06     Fs1   v060
	BYTE	W12
	BYTE		        Fs1   v032
	BYTE	W12
	BYTE		        Dn1   v096
	BYTE		N06     Fs1   v044
	BYTE	W12
	BYTE		        Fs1   v032
	BYTE	W12
	BYTE		        Cn1   v100
	BYTE		N06     Fs1   v060
	BYTE	W12
	BYTE		        Cn1   v100
	BYTE		N06     Fs1   v032
	BYTE	W12
// 005   ----------------------------------------
egg_10_005:
	BYTE		N06     Dn1   v096
	BYTE		N06     Fs1   v044
	BYTE	W12
	BYTE		        Fs1   v032
	BYTE	W12
	BYTE		        Cn1   v100
	BYTE		N06     Fs1   v060
	BYTE	W12
	BYTE		        Fs1   v032
	BYTE	W12
	BYTE		        Dn1   v096
	BYTE		N06     Fs1   v044
	BYTE	W12
	BYTE		        Fs1   v032
	BYTE	W12
	BYTE		        Cn1   v100
	BYTE		N06     Fs1   v060
	BYTE	W12
	BYTE		        Cn1   v100
	BYTE		N06     Fs1   v032
	BYTE	W12
	BYTE	PEND
// 006   ----------------------------------------
egg_10_006:
	BYTE		N06     Dn1   v096
	BYTE		N06     Fs1   v044
	BYTE	W12
	BYTE		        As1   v048
	BYTE	W12
	BYTE		        Cn1   v100
	BYTE		N06     Fs1   v060
	BYTE	W12
	BYTE		        Fs1   v032
	BYTE	W12
	BYTE		        Dn1   v096
	BYTE		N06     Fs1   v044
	BYTE	W12
	BYTE		        Fs1   v032
	BYTE	W12
	BYTE		        Cn1   v100
	BYTE		N06     Fs1   v060
	BYTE	W12
	BYTE		        Cn1   v100
	BYTE		N06     Fs1   v032
	BYTE	W12
	BYTE	PEND
// 007   ----------------------------------------
	BYTE	PATT
	 POIN2	egg_10_005
// 008   ----------------------------------------
	BYTE	PATT
	 POIN2	egg_10_006
// 009   ----------------------------------------
	BYTE	PATT
	 POIN2	egg_10_005
// 010   ----------------------------------------
	BYTE	PATT
	 POIN2	egg_10_006
// 011   ----------------------------------------
	BYTE	PATT
	 POIN2	egg_10_005
// 012   ----------------------------------------
egg_10_012:
	BYTE		N06     Dn1   v096
	BYTE		N06     Fs1   v044
	BYTE	W12
	BYTE		        As1   v048
	BYTE	W12
	BYTE		        Cn1   v100
	BYTE		N06     Fs1   v060
	BYTE		N06     Cs2   v088
	BYTE	W12
	BYTE		        Fs1   v032
	BYTE		N06     Cn2   v096
	BYTE	W12
	BYTE		        Dn1 
	BYTE		N06     Fs1   v044
	BYTE	W12
	BYTE		        Fs1   v032
	BYTE		N06     An1   v096
	BYTE	W12
	BYTE		        Dn1 
	BYTE		N06     Fs1   v060
	BYTE	W12
	BYTE		        Fn1   v096
	BYTE		N06     Fs1   v032
	BYTE	W12
	BYTE	PEND
// 013   ----------------------------------------
egg_10_013:
	BYTE		N06     Dn1   v096
	BYTE		N06     Fs1   v044
	BYTE	W12
	BYTE		        Cn1   v100
	BYTE		N06     As1   v048
	BYTE		N06     An2   v088
	BYTE	W36
	BYTE		        Dn1   v096
	BYTE		N06     As1   v048
	BYTE	W24
	BYTE		        Cn1   v100
	BYTE		N06     Fs1   v060
	BYTE	W12
	BYTE		N03     Cn1   v100
	BYTE	W04
	BYTE		N03   
	BYTE	W04
	BYTE		N03   
	BYTE	W04
	BYTE	PEND
// 014   ----------------------------------------
	BYTE		N06     Dn1   v096
	BYTE	W12
	BYTE		N06   
	BYTE		N06     As1   v048
	BYTE	W12
	BYTE		        Cn1   v100
	BYTE		N06     Fs1   v060
	BYTE	W12
	BYTE		        Fs1   v032
	BYTE	W12
	BYTE		        Dn1   v096
	BYTE		N06     Fs1   v044
	BYTE	W12
	BYTE		        Fs1   v032
	BYTE	W12
	BYTE		        Cn1   v100
	BYTE		N06     Fs1   v060
	BYTE	W12
	BYTE		        Cn1   v100
	BYTE		N06     Fs1   v032
	BYTE	W12
// 015   ----------------------------------------
	BYTE	PATT
	 POIN2	egg_10_005
// 016   ----------------------------------------
	BYTE	PATT
	 POIN2	egg_10_006
// 017   ----------------------------------------
	BYTE	PATT
	 POIN2	egg_10_005
// 018   ----------------------------------------
	BYTE	PATT
	 POIN2	egg_10_006
// 019   ----------------------------------------
	BYTE	PATT
	 POIN2	egg_10_005
// 020   ----------------------------------------
	BYTE	PATT
	 POIN2	egg_10_006
// 021   ----------------------------------------
	BYTE	PATT
	 POIN2	egg_10_005
// 022   ----------------------------------------
	BYTE		N06     Dn1   v096
	BYTE		N06     Fs1   v044
	BYTE	W12
	BYTE		        As1   v048
	BYTE	W12
	BYTE		        Cn1   v100
	BYTE		N06     As1   v048
	BYTE	W24
	BYTE		        Cn1   v100
	BYTE	W24
	BYTE		N06   
	BYTE	W24
// 023   ----------------------------------------
	BYTE		N06   
	BYTE	W24
	BYTE		        Dn1   v096
	BYTE	W12
	BYTE		        Cn1   v100
	BYTE	W12
	BYTE		N06   
	BYTE	W12
	BYTE		        Dn1   v096
	BYTE	W12
	BYTE		        Cn1   v100
	BYTE	W12
	BYTE		N06   
	BYTE	W12
// 024   ----------------------------------------
	BYTE		        Dn1   v096
	BYTE	W06
	BYTE		N06   
	BYTE	W06
	BYTE		        Cn1   v100
	BYTE	W12
	BYTE		N06   
	BYTE		N06     Fs1   v060
	BYTE	W12
	BYTE		        Fs1   v032
	BYTE	W12
	BYTE		        Dn1   v096
	BYTE		N06     Fs1   v044
	BYTE	W12
	BYTE		        Fs1   v032
	BYTE	W12
	BYTE		        Cn1   v100
	BYTE		N06     Fs1   v060
	BYTE	W12
	BYTE		        Fs1   v032
	BYTE	W12
// 025   ----------------------------------------
egg_10_025:
	BYTE		N06     Dn1   v096
	BYTE		N06     Fs1   v044
	BYTE	W12
	BYTE		        Cn1   v100
	BYTE		N06     Fs1   v032
	BYTE	W12
	BYTE		        Cn1   v100
	BYTE		N06     Fs1   v060
	BYTE	W12
	BYTE		        Fs1   v032
	BYTE	W12
	BYTE		        Dn1   v096
	BYTE		N06     Fs1   v044
	BYTE	W12
	BYTE		        Fs1   v032
	BYTE	W12
	BYTE		        Cn1   v100
	BYTE		N06     Fs1   v060
	BYTE	W12
	BYTE		        Fs1   v032
	BYTE	W12
	BYTE	PEND
// 026   ----------------------------------------
	BYTE	PATT
	 POIN2	egg_10_025
// 027   ----------------------------------------
	BYTE	PATT
	 POIN2	egg_10_025
// 028   ----------------------------------------
	BYTE	PATT
	 POIN2	egg_10_025
// 029   ----------------------------------------
	BYTE	PATT
	 POIN2	egg_10_025
// 030   ----------------------------------------
	BYTE		N06     Dn1   v096
	BYTE		N06     Fs1   v044
	BYTE	W12
	BYTE		        Cn1   v100
	BYTE		N06     Fs1   v032
	BYTE	W12
	BYTE		        Cn1   v100
	BYTE		N07     Cn2   v096
	BYTE	W08
	BYTE		N07   
	BYTE	W08
	BYTE		N07   
	BYTE	W08
	BYTE		        An1 
	BYTE	W08
	BYTE		N07   
	BYTE	W08
	BYTE		N07   
	BYTE	W08
	BYTE		N06     Cn1   v100
	BYTE		N07     Fn1   v096
	BYTE	W08
	BYTE		N07   
	BYTE	W08
	BYTE		N07   
	BYTE	W08
// 031   ----------------------------------------
	BYTE		N03     Dn1   v040
	BYTE	W04
	BYTE		        Dn1   v056
	BYTE	W04
	BYTE		        Dn1   v068
	BYTE	W04
	BYTE		        Dn1   v084
	BYTE	W04
	BYTE		N03   
	BYTE	W04
	BYTE		        Dn1   v096
	BYTE	W04
	BYTE		N06   
	BYTE	W06
	BYTE		N06   
	BYTE	W06
	BYTE		        Cn1   v100
	BYTE	W12
	BYTE		N06   
	BYTE	W12
	BYTE		        Dn1   v096
	BYTE	W06
	BYTE		N06   
	BYTE	W06
	BYTE		        Cn1   v100
	BYTE	W12
	BYTE		N06   
	BYTE	W12
// 032   ----------------------------------------
	BYTE		        Dn1   v096
	BYTE	W12
	BYTE		        Cn1   v100
	BYTE		N06     As1   v048
	BYTE	W12
	BYTE		        Cn1   v100
	BYTE		N06     Fs1   v060
	BYTE	W12
	BYTE		        Fs1   v032
	BYTE	W12
	BYTE		        Dn1   v096
	BYTE		N06     Fs1   v044
	BYTE	W12
	BYTE		        Fs1   v032
	BYTE	W12
	BYTE		        Cn1   v100
	BYTE		N06     Fs1   v060
	BYTE	W12
	BYTE		        Cn1   v100
	BYTE		N06     Fs1   v032
	BYTE	W12
// 033   ----------------------------------------
	BYTE	PATT
	 POIN2	egg_10_005
// 034   ----------------------------------------
	BYTE	PATT
	 POIN2	egg_10_006
// 035   ----------------------------------------
	BYTE	PATT
	 POIN2	egg_10_005
// 036   ----------------------------------------
	BYTE	PATT
	 POIN2	egg_10_006
// 037   ----------------------------------------
	BYTE	PATT
	 POIN2	egg_10_005
// 038   ----------------------------------------
	BYTE	PATT
	 POIN2	egg_10_006
// 039   ----------------------------------------
	BYTE	PATT
	 POIN2	egg_10_005
// 040   ----------------------------------------
	BYTE	PATT
	 POIN2	egg_10_012
// 041   ----------------------------------------
	BYTE	PATT
	 POIN2	egg_10_013
// 042   ----------------------------------------
	BYTE		N06     Dn1   v096
	BYTE	W12
	BYTE		N06   
	BYTE		N06     As1   v048
	BYTE	W06
	BYTE	FINE

//**************** Track 11 (Midi-Chn.11) ****************//

egg_11:
	BYTE	KEYSH   egg_key+0
// 000   ----------------------------------------
	BYTE		VOICE   53
	BYTE	W06
	BYTE		VOL     60*egg_mvl/mxv
	BYTE	W03
	BYTE		PAN     c_v+0
	BYTE	W84
	BYTE	W03
// 001   ----------------------------------------
	BYTE	W96
// 002   ----------------------------------------
	BYTE	W96
// 003   ----------------------------------------
	BYTE	W96
// 004   ----------------------------------------
	BYTE		BEND    c_v-64
	BYTE		N23     Cn3   v120
	BYTE		N23     Ds3   v088
	BYTE		N23     Gn3   v092
	BYTE		N23     Cn4   v064
	BYTE	W01
	BYTE		BEND    c_v-43
	BYTE	W01
	BYTE		        c_v-22
	BYTE	W01
	BYTE		        c_v+0
	BYTE	W92
	BYTE	W01
// 005   ----------------------------------------
	BYTE	W96
// 006   ----------------------------------------
	BYTE	W96
// 007   ----------------------------------------
egg_11_007:
	BYTE	W12
	BYTE		BEND    c_v-64
	BYTE		N56     Gn2   v104
	BYTE		N56     As2   v108
	BYTE		N56     Ds3   v084
	BYTE	W01
	BYTE		BEND    c_v-43
	BYTE	W01
	BYTE		        c_v-22
	BYTE	W01
	BYTE		        c_v+0
	BYTE	W80
	BYTE	W01
	BYTE	PEND
// 008   ----------------------------------------
	BYTE	W96
// 009   ----------------------------------------
egg_11_009:
	BYTE	W12
	BYTE		BEND    c_v-64
	BYTE		N56     An2   v112
	BYTE		N56     Cn3   v108
	BYTE		N56     Fn3   v100
	BYTE	W01
	BYTE		BEND    c_v-43
	BYTE	W01
	BYTE		        c_v-22
	BYTE	W01
	BYTE		        c_v+0
	BYTE	W80
	BYTE	W01
	BYTE	PEND
// 010   ----------------------------------------
egg_11_010:
	BYTE	W24
	BYTE		BEND    c_v-64
	BYTE		N11     Cn3   v104
	BYTE		N11     Ds3   v112
	BYTE		N11     Gn3   v092
	BYTE	W01
	BYTE		BEND    c_v-43
	BYTE	W01
	BYTE		        c_v-22
	BYTE	W01
	BYTE		        c_v+0
	BYTE	W32
	BYTE	W01
	BYTE		        c_v-64
	BYTE		N11     Cn3   v104
	BYTE		N11     Fn3   v096
	BYTE		N11     Gs3   v092
	BYTE	W01
	BYTE		BEND    c_v-43
	BYTE	W01
	BYTE		        c_v-22
	BYTE	W01
	BYTE		        c_v+0
	BYTE	W32
	BYTE	W01
	BYTE	PEND
// 011   ----------------------------------------
egg_11_011:
	BYTE	W24
	BYTE		BEND    c_v-64
	BYTE		N11     Cn3   v112
	BYTE		N11     Ds3   v108
	BYTE		N11     Gn3   v092
	BYTE	W01
	BYTE		BEND    c_v-43
	BYTE	W01
	BYTE		        c_v-22
	BYTE	W01
	BYTE		        c_v+0
	BYTE	W32
	BYTE	W01
	BYTE		        c_v-64
	BYTE		N11     Cn3   v104
	BYTE		N11     Fn3   v108
	BYTE		N11     Gs3   v092
	BYTE	W01
	BYTE		BEND    c_v-43
	BYTE	W01
	BYTE		        c_v-22
	BYTE	W01
	BYTE		        c_v+0
	BYTE	W32
	BYTE	W01
	BYTE	PEND
// 012   ----------------------------------------
	BYTE	W96
// 013   ----------------------------------------
egg_11_013:
	BYTE	W12
	BYTE		BEND    c_v-64
	BYTE		N52     Dn3   v120
	BYTE		N52     Fn3   v108
	BYTE		N52     As3   v100
	BYTE		N52     Dn4   v092
	BYTE	W01
	BYTE		BEND    c_v-43
	BYTE	W01
	BYTE		        c_v-22
	BYTE	W01
	BYTE		        c_v+0
	BYTE	W56
	BYTE	W01
	BYTE		        c_v-64
	BYTE		N11     Dn3   v104
	BYTE		N11     Fn3   v108
	BYTE		N11     As3   v100
	BYTE		N11     Dn4   v064
	BYTE	W01
	BYTE		BEND    c_v-43
	BYTE	W01
	BYTE		        c_v-22
	BYTE	W01
	BYTE		        c_v+0
	BYTE	W21
	BYTE	PEND
// 014   ----------------------------------------
	BYTE		        c_v-64
	BYTE		N23     Dn3   v112
	BYTE		N23     Fn3 
	BYTE		N23     As3   v092
	BYTE	W01
	BYTE		BEND    c_v-43
	BYTE	W01
	BYTE		        c_v-22
	BYTE	W01
	BYTE		        c_v+0
	BYTE	W92
	BYTE	W01
// 015   ----------------------------------------
	BYTE	W96
// 016   ----------------------------------------
	BYTE	W96
// 017   ----------------------------------------
	BYTE	W12
	BYTE		        c_v-64
	BYTE		N56     Gn2   v104
	BYTE		N56     As2   v108
	BYTE		N56     Ds3   v092
	BYTE	W01
	BYTE		BEND    c_v-43
	BYTE	W01
	BYTE		        c_v-22
	BYTE	W01
	BYTE		        c_v+0
	BYTE	W80
	BYTE	W01
// 018   ----------------------------------------
	BYTE	W96
// 019   ----------------------------------------
	BYTE	W12
	BYTE		        c_v-64
	BYTE		N56     An2   v112
	BYTE		N56     Cn3   v108
	BYTE		N56     Fn3   v092
	BYTE	W01
	BYTE		BEND    c_v-43
	BYTE	W01
	BYTE		        c_v-22
	BYTE	W01
	BYTE		        c_v+0
	BYTE	W80
	BYTE	W01
// 020   ----------------------------------------
	BYTE	W24
	BYTE		        c_v-64
	BYTE		N11     Cn3   v104
	BYTE		N11     Ds3   v112
	BYTE		N11     Gn3   v092
	BYTE	W01
	BYTE		BEND    c_v-43
	BYTE	W01
	BYTE		        c_v-22
	BYTE	W01
	BYTE		        c_v+0
	BYTE	W32
	BYTE	W01
	BYTE		        c_v-64
	BYTE		N11     Cn3   v104
	BYTE		N11     Fn3   v108
	BYTE		N11     Gs3   v092
	BYTE	W01
	BYTE		BEND    c_v-43
	BYTE	W01
	BYTE		        c_v-22
	BYTE	W01
	BYTE		        c_v+0
	BYTE	W32
	BYTE	W01
// 021   ----------------------------------------
	BYTE	W24
	BYTE		        c_v-64
	BYTE		N11     Cn3   v112
	BYTE		N11     Ds3   v108
	BYTE		N11     Gn3   v100
	BYTE	W01
	BYTE		BEND    c_v-43
	BYTE	W01
	BYTE		        c_v-22
	BYTE	W01
	BYTE		        c_v+0
	BYTE	W32
	BYTE	W01
	BYTE		        c_v-64
	BYTE		N11     Cn3   v104
	BYTE		N11     Fn3   v108
	BYTE		N11     Gs3   v092
	BYTE	W01
	BYTE		BEND    c_v-43
	BYTE	W01
	BYTE		        c_v-22
	BYTE	W01
	BYTE		        c_v+0
	BYTE	W32
	BYTE	W01
// 022   ----------------------------------------
	BYTE	W48
	BYTE		N66     Gn2 
	BYTE	W24
	BYTE		N42     Dn3   v088
	BYTE	W24
// 023   ----------------------------------------
	BYTE		N18     Gn3   v056
	BYTE	W24
	BYTE		BEND    c_v-64
	BYTE		N11     Gn2   v112
	BYTE		N11     Dn3 
	BYTE		N11     Gn3   v092
	BYTE	W01
	BYTE		BEND    c_v-43
	BYTE	W01
	BYTE		        c_v-22
	BYTE	W01
	BYTE		        c_v+0
	BYTE	W32
	BYTE	W01
	BYTE		        c_v-64
	BYTE		N11     Gn2   v120
	BYTE		N11     Dn3   v112
	BYTE		N11     Gn3   v092
	BYTE	W01
	BYTE		BEND    c_v-43
	BYTE	W01
	BYTE		        c_v-22
	BYTE	W01
	BYTE		        c_v+0
	BYTE	W32
	BYTE	W01
// 024   ----------------------------------------
	BYTE		        c_v-64
	BYTE		N11     Gn2   v120
	BYTE		N11     Dn3   v096
	BYTE		N11     Gn3   v092
	BYTE	W01
	BYTE		BEND    c_v-43
	BYTE	W01
	BYTE		        c_v-22
	BYTE	W01
	BYTE		        c_v+0
	BYTE	W92
	BYTE	W01
// 025   ----------------------------------------
	BYTE	W96
// 026   ----------------------------------------
	BYTE	W96
// 027   ----------------------------------------
	BYTE	W96
// 028   ----------------------------------------
	BYTE	W96
// 029   ----------------------------------------
	BYTE	W96
// 030   ----------------------------------------
	BYTE	W24
	BYTE		        c_v-64
	BYTE		N92     Cn3   v104
	BYTE		N92     Fn3   v112
	BYTE		N92     Cn4   v072
	BYTE	W01
	BYTE		BEND    c_v-43
	BYTE	W01
	BYTE		        c_v-22
	BYTE	W01
	BYTE		        c_v+0
	BYTE	W68
	BYTE	W01
// 031   ----------------------------------------
	BYTE	W24
	BYTE		N11     Dn3   v104
	BYTE		N11     Fn3   v096
	BYTE		N11     Gn3   v072
	BYTE		N11     Bn3 
	BYTE	W36
	BYTE		        Dn3   v112
	BYTE		N11     Fn3   v096
	BYTE		N11     Gn3   v072
	BYTE		N11     Bn3   v100
	BYTE	W36
// 032   ----------------------------------------
	BYTE		        Dn3   v120
	BYTE		N11     Fn3   v108
	BYTE		N11     Gn3   v100
	BYTE		N11     Bn3   v092
	BYTE	W24
	BYTE		N23     Cn3   v112
	BYTE		N23     Ds3 
	BYTE		N23     Gn3   v084
	BYTE		N23     Cn4   v100
	BYTE	W72
// 033   ----------------------------------------
	BYTE	W96
// 034   ----------------------------------------
	BYTE	W96
// 035   ----------------------------------------
	BYTE	PATT
	 POIN2	egg_11_007
// 036   ----------------------------------------
	BYTE	W96
// 037   ----------------------------------------
	BYTE	PATT
	 POIN2	egg_11_009
// 038   ----------------------------------------
	BYTE	PATT
	 POIN2	egg_11_010
// 039   ----------------------------------------
	BYTE	PATT
	 POIN2	egg_11_011
// 040   ----------------------------------------
	BYTE	W96
// 041   ----------------------------------------
	BYTE	PATT
	 POIN2	egg_11_013
// 042   ----------------------------------------
	BYTE		BEND    c_v-64
	BYTE		N23     Dn3   v112
	BYTE		N23     Fn3 
	BYTE		N23     As3   v092
	BYTE	W01
	BYTE		BEND    c_v-43
	BYTE	W01
	BYTE		        c_v-22
	BYTE	W01
	BYTE		        c_v+0
	BYTE	W20
	BYTE	FINE

//******************************************************//
	ALIGN 4

egg:
	BYTE	11	// NumTrks
	BYTE	0	// NumBlks
	BYTE	egg_pri	// Priority
	BYTE	egg_rev	// Reverb.

	POIN2	egg_grp

	POIN2	egg_1
	POIN2	egg_2
	POIN2	egg_3
	POIN2	egg_4
	POIN2	egg_5
	POIN2	egg_6
	POIN2	egg_7
	POIN2	egg_8
	POIN2	egg_9
	POIN2	egg_10
	POIN2	egg_11

	
