//Event file generated from Sappy .s format.
	#include "MPlayDef.event"

	#define	fountainofdreams_grp  voicegroup000
	#define	fountainofdreams_pri  0
	#define	fountainofdreams_rev  0
	#define	fountainofdreams_mvl  127
	#define	fountainofdreams_key  0
	#define	fountainofdreams_tbs  1
	#define	fountainofdreams_exg  0
	#define	fountainofdreams_cmp  1

	// .rodata
	//	fountainofdreams
	ALIGN 4

//**************** Track 1 (Midi-Chn.4) ****************//

fountainofdreams_1:
	BYTE	KEYSH   fountainofdreams_key+0
// 000   ----------------------------------------
	BYTE	TEMPO   120*fountainofdreams_tbs/2
	BYTE		VOICE   72
	BYTE		VOL     127*fountainofdreams_mvl/mxv
	BYTE		PAN     c_v+0
	BYTE	W96
// 001   ----------------------------------------
	BYTE	W96
// 002   ----------------------------------------
	BYTE	W96
// 003   ----------------------------------------
	BYTE	W96
// 004   ----------------------------------------
	BYTE	W96
// 005   ----------------------------------------
	BYTE	TEMPO   160*fountainofdreams_tbs/2
	BYTE	W96
// 006   ----------------------------------------
	BYTE		N20     Cn7   v112
	BYTE	W96
// 007   ----------------------------------------
	BYTE	W96
// 008   ----------------------------------------
	BYTE		        Cn6   v076
	BYTE	W96
// 009   ----------------------------------------
	BYTE	W90
	BYTE		N02     Gs5 
	BYTE	W03
	BYTE		        As5 
	BYTE	W03
// 010   ----------------------------------------
	BYTE		N20     Cn6 
	BYTE	W96
// 011   ----------------------------------------
fountainofdreams_1_011:
	BYTE		N24     Ds5   v076
	BYTE	W24
	BYTE		        Dn5 
	BYTE	W24
	BYTE		N20     Cn5 
	BYTE	W48
	BYTE	PEND
// 012   ----------------------------------------
	BYTE	W96
// 013   ----------------------------------------
	BYTE	W48
	BYTE		N05     Ds5 
	BYTE	W06
	BYTE		        En5 
	BYTE	W06
	BYTE		        Fn5 
	BYTE	W06
	BYTE		        Fs5 
	BYTE	W06
	BYTE		        Gn5 
	BYTE	W06
	BYTE		        Gs5 
	BYTE	W06
	BYTE		        As5 
	BYTE	W06
	BYTE		        Bn5 
	BYTE	W06
// 014   ----------------------------------------
	BYTE		N20     Cn6 
	BYTE	W96
// 015   ----------------------------------------
fountainofdreams_1_015:
	BYTE		N24     Ds5   v076
	BYTE	W24
	BYTE		        Dn5 
	BYTE	W24
	BYTE		N42     Cn5 
	BYTE	W48
	BYTE	PEND
// 016   ----------------------------------------
	BYTE		N20     Ds5 
	BYTE	W24
	BYTE		        Fn5 
	BYTE	W24
	BYTE		        Dn5 
	BYTE	W24
	BYTE		        As4 
	BYTE	W24
// 017   ----------------------------------------
	BYTE		N66     Cn5 
	BYTE	W72
	BYTE		N05     Gn5 
	BYTE	W06
	BYTE		        Gs5 
	BYTE	W06
	BYTE		        As5 
	BYTE	W06
	BYTE		        Bn5 
	BYTE	W06
// 018   ----------------------------------------
	BYTE		N20     Cn6 
	BYTE	W96
// 019   ----------------------------------------
	BYTE	PATT
	 POIN2	fountainofdreams_1_011
// 020   ----------------------------------------
	BYTE	W96
// 021   ----------------------------------------
	BYTE	W72
	BYTE		N05     Gn5   v076
	BYTE	W06
	BYTE		        Gs5 
	BYTE	W06
	BYTE		        As5 
	BYTE	W06
	BYTE		        Bn5 
	BYTE	W06
// 022   ----------------------------------------
	BYTE		N20     Cn6 
	BYTE	W96
// 023   ----------------------------------------
	BYTE	PATT
	 POIN2	fountainofdreams_1_015
// 024   ----------------------------------------
	BYTE	W96
// 025   ----------------------------------------
	BYTE	W96
// 026   ----------------------------------------
fountainofdreams_1_026:
	BYTE	W24
	BYTE		N03     Gn4   v092
	BYTE	W04
	BYTE		        Gs4 
	BYTE	W04
	BYTE		        Bn4 
	BYTE	W04
	BYTE		        Cn5 
	BYTE	W04
	BYTE		        Dn5 
	BYTE	W04
	BYTE		        Ds5 
	BYTE	W04
	BYTE		N05     Fs5 
	BYTE	W06
	BYTE		        Gn5 
	BYTE	W06
	BYTE		N11     Fs5 
	BYTE	W12
	BYTE		N05     Fs6 
	BYTE	W06
	BYTE		        Gn6 
	BYTE	W06
	BYTE		        Fs6 
	BYTE	W06
	BYTE		        Ds6 
	BYTE	W06
	BYTE	PEND
// 027   ----------------------------------------
fountainofdreams_1_027:
	BYTE	W24
	BYTE		N03     Fn4   v092
	BYTE	W04
	BYTE		        Gn4 
	BYTE	W04
	BYTE		        Gs4 
	BYTE	W04
	BYTE		        As4 
	BYTE	W04
	BYTE		        Cn5 
	BYTE	W04
	BYTE		        Dn5 
	BYTE	W04
	BYTE		N05     Ds5 
	BYTE	W06
	BYTE		        Fn5 
	BYTE	W06
	BYTE		N11     Ds5 
	BYTE	W12
	BYTE		N05     Ds6 
	BYTE	W06
	BYTE		        Fn6 
	BYTE	W06
	BYTE		        Ds6 
	BYTE	W06
	BYTE		        Dn6 
	BYTE	W06
	BYTE	PEND
// 028   ----------------------------------------
fountainofdreams_1_028:
	BYTE		N20     Cn6   v092
	BYTE	W24
	BYTE		N03     Gn4 
	BYTE	W04
	BYTE		        Gs4 
	BYTE	W04
	BYTE		        Bn4 
	BYTE	W04
	BYTE		        Cn5 
	BYTE	W04
	BYTE		        Dn5 
	BYTE	W04
	BYTE		        Ds5 
	BYTE	W04
	BYTE		N05     Fs5 
	BYTE	W06
	BYTE		        Gn5 
	BYTE	W06
	BYTE		N11     Fs5 
	BYTE	W12
	BYTE		N05     Fs6 
	BYTE	W06
	BYTE		        Gn6 
	BYTE	W06
	BYTE		        Fs6 
	BYTE	W06
	BYTE		        Ds6 
	BYTE	W06
	BYTE	PEND
// 029   ----------------------------------------
	BYTE	W24
	BYTE		N03     Fn4 
	BYTE	W04
	BYTE		        Gn4 
	BYTE	W04
	BYTE		        Gs4 
	BYTE	W04
	BYTE		        As4 
	BYTE	W04
	BYTE		        Cn5 
	BYTE	W04
	BYTE		        Dn5 
	BYTE	W04
	BYTE		N05     Ds5 
	BYTE	W06
	BYTE		        Fn5 
	BYTE	W06
	BYTE		        Ds5 
	BYTE	W06
	BYTE		        Fn5 
	BYTE	W30
// 030   ----------------------------------------
	BYTE	W96
// 031   ----------------------------------------
	BYTE	W96
// 032   ----------------------------------------
	BYTE	W96
// 033   ----------------------------------------
	BYTE	W96
// 034   ----------------------------------------
	BYTE	PATT
	 POIN2	fountainofdreams_1_026
// 035   ----------------------------------------
	BYTE	PATT
	 POIN2	fountainofdreams_1_027
// 036   ----------------------------------------
	BYTE	PATT
	 POIN2	fountainofdreams_1_028
// 037   ----------------------------------------
	BYTE	W24
	BYTE		N03     Fn4   v092
	BYTE	W04
	BYTE		        Gn4 
	BYTE	W04
	BYTE		        Gs4 
	BYTE	W04
	BYTE		        As4 
	BYTE	W04
	BYTE		        Cn5 
	BYTE	W04
	BYTE		        Dn5 
	BYTE	W04
	BYTE		N05     Ds5 
	BYTE	W06
	BYTE		        Fn5 
	BYTE	W06
	BYTE		N11     Ds5 
	BYTE	W12
	BYTE		N05     Cn6 
	BYTE	W06
	BYTE		        Dn6 
	BYTE	W06
	BYTE		        Cn6 
	BYTE	W06
	BYTE		        As5 
	BYTE	W06
// 038   ----------------------------------------
	BYTE		N32     Gs5   v060
	BYTE	W36
	BYTE		N11     Gn5 
	BYTE	W12
	BYTE		N20     Fn5 
	BYTE	W24
	BYTE		N11     Gn5 
	BYTE	W12
	BYTE		        Gs5 
	BYTE	W12
// 039   ----------------------------------------
	BYTE		N06     Cn6 
	BYTE	W24
	BYTE		N20     Gn5 
	BYTE	W24
	BYTE		        Ds5 
	BYTE	W24
	BYTE		        Cn5 
	BYTE	W24
// 040   ----------------------------------------
	BYTE		N11     Dn5 
	BYTE	W12
	BYTE		N05   
	BYTE	W06
	BYTE		N05   
	BYTE	W06
	BYTE		N11   
	BYTE	W12
	BYTE		        Fn5 
	BYTE	W12
	BYTE		        Dn5 
	BYTE	W12
	BYTE		        As4 
	BYTE	W12
	BYTE		        Gn4 
	BYTE	W12
	BYTE		        As4 
	BYTE	W12
// 041   ----------------------------------------
	BYTE		N66     Cn5 
	BYTE	W96
// 042   ----------------------------------------
	BYTE	W96
// 043   ----------------------------------------
	BYTE	W96
// 044   ----------------------------------------
	BYTE	W96
// 045   ----------------------------------------
	BYTE	W96
// 046   ----------------------------------------
	BYTE	W96
// 047   ----------------------------------------
	BYTE	W72
	BYTE		N20     As4 
	BYTE	W24
// 048   ----------------------------------------
	BYTE		N17     Ds5 
	BYTE	W18
	BYTE		N05   
	BYTE	W06
	BYTE		N11   
	BYTE	W12
	BYTE		        Fn5 
	BYTE	W12
	BYTE		        Fs5 
	BYTE	W12
	BYTE		N11   
	BYTE	W12
	BYTE		        Gs5 
	BYTE	W12
	BYTE		        Fs5 
	BYTE	W12
// 049   ----------------------------------------
	BYTE		N66     Fn5 
	BYTE	W96
// 050   ----------------------------------------
	BYTE		N17     Ds5   v108
	BYTE	W18
	BYTE		N05   
	BYTE	W06
	BYTE		N11   
	BYTE	W12
	BYTE		        Fn5 
	BYTE	W12
	BYTE		        Gn5 
	BYTE	W12
	BYTE		N11   
	BYTE	W12
	BYTE		        Fn5 
	BYTE	W12
	BYTE		        Ds5 
	BYTE	W12
// 051   ----------------------------------------
	BYTE		N17     Dn5 
	BYTE	W18
	BYTE		N05   
	BYTE	W06
	BYTE		N11   
	BYTE	W12
	BYTE		        Ds5 
	BYTE	W12
	BYTE		N42     Dn5 
	BYTE	W48
// 052   ----------------------------------------
	BYTE		N17     Cn5 
	BYTE	W18
	BYTE		N05   
	BYTE	W06
	BYTE		N11   
	BYTE	W12
	BYTE		        Dn5 
	BYTE	W12
	BYTE		        Ds5 
	BYTE	W12
	BYTE		N11   
	BYTE	W12
	BYTE		        Dn5 
	BYTE	W12
	BYTE		        Cn5 
	BYTE	W12
// 053   ----------------------------------------
	BYTE		N17     As4 
	BYTE	W18
	BYTE		N05   
	BYTE	W06
	BYTE		N11   
	BYTE	W12
	BYTE		        Cn5 
	BYTE	W12
	BYTE		N42     Dn5 
	BYTE	W48
// 054   ----------------------------------------
	BYTE		N17     Gs4 
	BYTE	W18
	BYTE		N05   
	BYTE	W06
	BYTE		N11   
	BYTE	W12
	BYTE		        As4 
	BYTE	W12
	BYTE		        Cn5 
	BYTE	W12
	BYTE		N11   
	BYTE	W12
	BYTE		        Ds5 
	BYTE	W12
	BYTE		        Fn5 
	BYTE	W12
// 055   ----------------------------------------
	BYTE		N17     Gn5 
	BYTE	W18
	BYTE		N05   
	BYTE	W06
	BYTE		N11   
	BYTE	W12
	BYTE		        As5 
	BYTE	W12
	BYTE		        Gn5 
	BYTE	W12
	BYTE		N11   
	BYTE	W12
	BYTE		        Fn5 
	BYTE	W12
	BYTE		        Ds5 
	BYTE	W12
// 056   ----------------------------------------
	BYTE		N32     Gn5 
	BYTE	W36
	BYTE		N05   
	BYTE	W06
	BYTE		N05   
	BYTE	W06
	BYTE		N32   
	BYTE	W36
	BYTE		N05   
	BYTE	W06
	BYTE		N05   
	BYTE	W06
// 057   ----------------------------------------
	BYTE		N11   
	BYTE	W12
	BYTE		N05     Gs5 
	BYTE	W06
	BYTE		        As5 
	BYTE	W06
	BYTE		        Cn6 
	BYTE	W06
	BYTE		        Dn6 
	BYTE	W06
	BYTE		        Ds6 
	BYTE	W06
	BYTE		        Fs6 
	BYTE	W06
	BYTE		N42     Gn6 
	BYTE	W48
// 058   ----------------------------------------
	BYTE	W96
// 059   ----------------------------------------
	BYTE	W96
// 060   ----------------------------------------
	BYTE	W96
// 061   ----------------------------------------
	BYTE	W96
// 062   ----------------------------------------
fountainofdreams_1_062:
	BYTE	W36
	BYTE		N02     Gn5   v032
	BYTE	W03
	BYTE		N08     Gs5 
	BYTE	W44
	BYTE	W01
	BYTE		N02     Gn5 
	BYTE	W03
	BYTE		N08     Gs5 
	BYTE	W09
	BYTE	PEND
// 063   ----------------------------------------
	BYTE	PATT
	 POIN2	fountainofdreams_1_062
// 064   ----------------------------------------
	BYTE	W36
	BYTE		N02     En5   v032
	BYTE	W03
	BYTE		N08     Fn5 
	BYTE	W44
	BYTE	W01
	BYTE		N02     Fs5 
	BYTE	W03
	BYTE		N08     Gn5 
	BYTE	W09
// 065   ----------------------------------------
	BYTE		N05     Cn5   v048
	BYTE	W06
	BYTE		        Bn4 
	BYTE	W06
	BYTE		        Cn5 
	BYTE	W06
	BYTE		        Dn5 
	BYTE	W06
	BYTE		        Ds5 
	BYTE	W06
	BYTE		        Dn5 
	BYTE	W06
	BYTE		        Ds5 
	BYTE	W06
	BYTE		        Fn5 
	BYTE	W06
	BYTE		N42     Gn5 
	BYTE	W48
// 066   ----------------------------------------
	BYTE	TEMPO   270*fountainofdreams_tbs/2
	BYTE	W96
// 067   ----------------------------------------
	BYTE		N05     Gs5   v127
	BYTE	W06
	BYTE		        Gn5 
	BYTE	W06
	BYTE		        Fs5 
	BYTE	W06
	BYTE		        Gn5 
	BYTE	W06
	BYTE		        Fs5 
	BYTE	W06
	BYTE		        Gn5 
	BYTE	W06
	BYTE		        Fs5 
	BYTE	W06
	BYTE		        Gn5 
	BYTE	W06
	BYTE		        Fs5 
	BYTE	W06
	BYTE		        Gn5 
	BYTE	W06
	BYTE		        Fs5 
	BYTE	W06
	BYTE		        As5 
	BYTE	W06
	BYTE		N20     Ds6 
	BYTE	W24
// 068   ----------------------------------------
	BYTE	W24
	BYTE		N42     Cn6 
	BYTE	W48
	BYTE		N11     As5 
	BYTE	W12
	BYTE		        An5 
	BYTE	W12
	BYTE		        Gs5 
	BYTE	W12
	BYTE		        Gn5 
	BYTE	W12
// 069   ----------------------------------------
	BYTE		        En6   v108
	BYTE	W12
	BYTE		N11   
	BYTE	W12
	BYTE		N11   
	BYTE	W12
	BYTE		N20     Fn6 
	BYTE	W24
	BYTE		N32     Fs6 
	BYTE	W36
// 070   ----------------------------------------
	BYTE	TEMPO   210*fountainofdreams_tbs/2
	BYTE		N20     Gn6 
	BYTE	W36
	BYTE		N20   
	BYTE	W24
	BYTE		N11     Fn6 
	BYTE	W12
	BYTE		N20     Ds6 
	BYTE	W24
// 071   ----------------------------------------
	BYTE		N90     Cn6 
	BYTE	W90
	BYTE	FINE

//**************** Track 2 (Midi-Chn.1) ****************//

fountainofdreams_2:
	BYTE	KEYSH   fountainofdreams_key+0
// 000   ----------------------------------------
	BYTE		VOICE   73
	BYTE		VOL     127*fountainofdreams_mvl/mxv
	BYTE		PAN     c_v+0
	BYTE	W96
// 001   ----------------------------------------
	BYTE	W96
// 002   ----------------------------------------
	BYTE	W96
// 003   ----------------------------------------
	BYTE	W96
// 004   ----------------------------------------
	BYTE	W96
// 005   ----------------------------------------
	BYTE	W96
// 006   ----------------------------------------
fountainofdreams_2_006:
	BYTE		N05     Cn4   v076
	BYTE	W06
	BYTE		        Bn3 
	BYTE	W06
	BYTE		        Cn4 
	BYTE	W06
	BYTE		        Bn3 
	BYTE	W06
	BYTE		        Cn4 
	BYTE	W06
	BYTE		        Dn4 
	BYTE	W06
	BYTE		        Ds4 
	BYTE	W06
	BYTE		        Fn4 
	BYTE	W06
	BYTE		        Gn4 
	BYTE	W06
	BYTE		        Gs4 
	BYTE	W06
	BYTE		        Gn4 
	BYTE	W06
	BYTE		        Fn4 
	BYTE	W06
	BYTE		        Ds4 
	BYTE	W06
	BYTE		        Fn4 
	BYTE	W06
	BYTE		        Ds4 
	BYTE	W06
	BYTE		        Dn4 
	BYTE	W06
	BYTE	PEND
// 007   ----------------------------------------
	BYTE	PATT
	 POIN2	fountainofdreams_2_006
// 008   ----------------------------------------
	BYTE		N05     Bn3   v076
	BYTE	W06
	BYTE		        Cn4 
	BYTE	W06
	BYTE		        Bn3 
	BYTE	W06
	BYTE		        Cn4 
	BYTE	W06
	BYTE		        Bn3 
	BYTE	W06
	BYTE		        Cn4 
	BYTE	W06
	BYTE		        Dn4 
	BYTE	W06
	BYTE		        Ds4 
	BYTE	W06
	BYTE		        Fn4 
	BYTE	W06
	BYTE		        Gn4 
	BYTE	W06
	BYTE		        Gs4 
	BYTE	W06
	BYTE		        Gn4 
	BYTE	W06
	BYTE		        Gs4 
	BYTE	W06
	BYTE		        Bn4 
	BYTE	W06
	BYTE		        Cn5 
	BYTE	W06
	BYTE		        Dn5 
	BYTE	W06
// 009   ----------------------------------------
	BYTE		        Ds5 
	BYTE	W06
	BYTE		        Dn5 
	BYTE	W06
	BYTE		        Cn5 
	BYTE	W06
	BYTE		        As4 
	BYTE	W06
	BYTE		        Cn5 
	BYTE	W06
	BYTE		        As4 
	BYTE	W06
	BYTE		        Gs4 
	BYTE	W06
	BYTE		        Gn4 
	BYTE	W06
	BYTE		        Gs4 
	BYTE	W06
	BYTE		        Gn4 
	BYTE	W06
	BYTE		        Fn4 
	BYTE	W06
	BYTE		        Ds4 
	BYTE	W06
	BYTE		        Gn4 
	BYTE	W06
	BYTE		        Gs4 
	BYTE	W06
	BYTE		        As4 
	BYTE	W06
	BYTE		        Bn4 
	BYTE	W06
// 010   ----------------------------------------
	BYTE		N20     Cn5 
	BYTE	W96
// 011   ----------------------------------------
fountainofdreams_2_011:
	BYTE		N24     Gn4   v092
	BYTE	W24
	BYTE		        Fn4 
	BYTE	W24
	BYTE		N20     Ds4 
	BYTE	W48
	BYTE	PEND
// 012   ----------------------------------------
	BYTE	W96
// 013   ----------------------------------------
	BYTE	W48
	BYTE		N05   
	BYTE	W06
	BYTE		        En4 
	BYTE	W06
	BYTE		        Fn4 
	BYTE	W06
	BYTE		        Fs4 
	BYTE	W06
	BYTE		        Gn4 
	BYTE	W06
	BYTE		        Gs4 
	BYTE	W06
	BYTE		        As4 
	BYTE	W06
	BYTE		        Bn4 
	BYTE	W06
// 014   ----------------------------------------
	BYTE		N20     Cn6 
	BYTE	W96
// 015   ----------------------------------------
	BYTE		N24     Gn4 
	BYTE	W24
	BYTE		        Fn4 
	BYTE	W24
	BYTE		N42     Ds4 
	BYTE	W48
// 016   ----------------------------------------
	BYTE		N20   
	BYTE	W24
	BYTE		        Fn4 
	BYTE	W24
	BYTE		        Dn4 
	BYTE	W24
	BYTE		        As3 
	BYTE	W24
// 017   ----------------------------------------
	BYTE		N66     Cn4 
	BYTE	W72
	BYTE		N05     Gn4 
	BYTE	W06
	BYTE		        Gs4 
	BYTE	W06
	BYTE		        As4 
	BYTE	W06
	BYTE		        Bn4 
	BYTE	W06
// 018   ----------------------------------------
	BYTE		N20     Cn5 
	BYTE	W96
// 019   ----------------------------------------
	BYTE	PATT
	 POIN2	fountainofdreams_2_011
// 020   ----------------------------------------
	BYTE	W96
// 021   ----------------------------------------
	BYTE	W72
	BYTE		N05     Gn4   v092
	BYTE	W06
	BYTE		        Gs4 
	BYTE	W06
	BYTE		        As4 
	BYTE	W06
	BYTE		        Bn4 
	BYTE	W06
// 022   ----------------------------------------
	BYTE		N20     Cn5 
	BYTE	W96
// 023   ----------------------------------------
	BYTE		N24     Gn5 
	BYTE	W24
	BYTE		        Fn5 
	BYTE	W24
	BYTE		N42     Ds5 
	BYTE	W48
// 024   ----------------------------------------
	BYTE	W96
// 025   ----------------------------------------
	BYTE	W96
// 026   ----------------------------------------
fountainofdreams_2_026:
	BYTE	W24
	BYTE		N03     Gn3   v092
	BYTE	W04
	BYTE		        Gs3 
	BYTE	W04
	BYTE		        Bn3 
	BYTE	W04
	BYTE		        Cn4 
	BYTE	W04
	BYTE		        Dn4 
	BYTE	W04
	BYTE		        Ds4 
	BYTE	W04
	BYTE		N05     Fs4 
	BYTE	W06
	BYTE		        Gn4 
	BYTE	W06
	BYTE		        Fs4 
	BYTE	W06
	BYTE		        Gn4 
	BYTE	W30
	BYTE	PEND
// 027   ----------------------------------------
fountainofdreams_2_027:
	BYTE	W24
	BYTE		N03     Fn3   v092
	BYTE	W04
	BYTE		        Gn3 
	BYTE	W04
	BYTE		        Gs3 
	BYTE	W04
	BYTE		        As3 
	BYTE	W04
	BYTE		        Cn4 
	BYTE	W04
	BYTE		        Dn4 
	BYTE	W04
	BYTE		N05     Ds4 
	BYTE	W06
	BYTE		        Fn4 
	BYTE	W06
	BYTE		        Ds4 
	BYTE	W06
	BYTE		        Fn4 
	BYTE	W30
	BYTE	PEND
// 028   ----------------------------------------
	BYTE	PATT
	 POIN2	fountainofdreams_2_026
// 029   ----------------------------------------
	BYTE	PATT
	 POIN2	fountainofdreams_2_027
// 030   ----------------------------------------
	BYTE		N32     Gs4   v060
	BYTE	W36
	BYTE		N11     Gn4 
	BYTE	W12
	BYTE		N20     Fn4 
	BYTE	W24
	BYTE		N11     Ds4 
	BYTE	W12
	BYTE		        Fn4 
	BYTE	W12
// 031   ----------------------------------------
	BYTE		N20     Gn4 
	BYTE	W24
	BYTE		        Cn4 
	BYTE	W24
	BYTE		N42     Gn4 
	BYTE	W48
// 032   ----------------------------------------
	BYTE		N11     Fn4 
	BYTE	W12
	BYTE		N05   
	BYTE	W06
	BYTE		N05   
	BYTE	W06
	BYTE		N11   
	BYTE	W12
	BYTE		        Ds4 
	BYTE	W12
	BYTE		N20     Dn4 
	BYTE	W24
	BYTE		N11     Ds4 
	BYTE	W12
	BYTE		        Fn4 
	BYTE	W12
// 033   ----------------------------------------
	BYTE		N20     Ds4 
	BYTE	W24
	BYTE		        Fn4 
	BYTE	W24
	BYTE		        Gn4 
	BYTE	W24
	BYTE		        Ds4 
	BYTE	W24
// 034   ----------------------------------------
	BYTE	PATT
	 POIN2	fountainofdreams_2_026
// 035   ----------------------------------------
	BYTE	PATT
	 POIN2	fountainofdreams_2_027
// 036   ----------------------------------------
	BYTE	PATT
	 POIN2	fountainofdreams_2_026
// 037   ----------------------------------------
	BYTE	PATT
	 POIN2	fountainofdreams_2_027
// 038   ----------------------------------------
	BYTE		N32     Gs4   v060
	BYTE	W36
	BYTE		N11     Gn4 
	BYTE	W12
	BYTE		N20     Fn4 
	BYTE	W24
	BYTE		N11     Gn4 
	BYTE	W12
	BYTE		        Gs4 
	BYTE	W12
// 039   ----------------------------------------
	BYTE		N06     Cn5 
	BYTE	W24
	BYTE		N20     Gn4 
	BYTE	W24
	BYTE		        Ds4 
	BYTE	W24
	BYTE		        Cn4 
	BYTE	W24
// 040   ----------------------------------------
	BYTE		N11     Dn4 
	BYTE	W12
	BYTE		N05   
	BYTE	W06
	BYTE		N05   
	BYTE	W06
	BYTE		N11   
	BYTE	W12
	BYTE		        Fn4 
	BYTE	W12
	BYTE		        Dn4 
	BYTE	W12
	BYTE		        As3 
	BYTE	W12
	BYTE		        Gn3 
	BYTE	W12
	BYTE		        As3 
	BYTE	W12
// 041   ----------------------------------------
	BYTE		N66     Cn4 
	BYTE	W96
// 042   ----------------------------------------
	BYTE	W96
// 043   ----------------------------------------
	BYTE	W96
// 044   ----------------------------------------
	BYTE	W96
// 045   ----------------------------------------
	BYTE	W96
// 046   ----------------------------------------
	BYTE	W96
// 047   ----------------------------------------
	BYTE	W72
	BYTE		N20     As3 
	BYTE	W24
// 048   ----------------------------------------
	BYTE		N17     Ds4 
	BYTE	W18
	BYTE		N05   
	BYTE	W06
	BYTE		N11   
	BYTE	W12
	BYTE		        Fn4 
	BYTE	W12
	BYTE		        Fs4 
	BYTE	W12
	BYTE		N11   
	BYTE	W12
	BYTE		        Gs4 
	BYTE	W12
	BYTE		        Fs4 
	BYTE	W12
// 049   ----------------------------------------
	BYTE		N66     Fn4 
	BYTE	W96
// 050   ----------------------------------------
	BYTE		N17     Ds4   v108
	BYTE	W18
	BYTE		N05   
	BYTE	W06
	BYTE		N11   
	BYTE	W12
	BYTE		        Fn4 
	BYTE	W12
	BYTE		        Gn4 
	BYTE	W12
	BYTE		N11   
	BYTE	W12
	BYTE		        Fn4 
	BYTE	W12
	BYTE		        Ds4 
	BYTE	W12
// 051   ----------------------------------------
	BYTE		N17     Dn4 
	BYTE	W18
	BYTE		N05   
	BYTE	W06
	BYTE		N11   
	BYTE	W12
	BYTE		        Ds4 
	BYTE	W12
	BYTE		N42     Dn4 
	BYTE	W48
// 052   ----------------------------------------
	BYTE		N17     Cn4 
	BYTE	W18
	BYTE		N05   
	BYTE	W06
	BYTE		N11   
	BYTE	W12
	BYTE		        Dn4 
	BYTE	W12
	BYTE		        Ds4 
	BYTE	W12
	BYTE		N11   
	BYTE	W12
	BYTE		        Dn4 
	BYTE	W12
	BYTE		        Cn4 
	BYTE	W12
// 053   ----------------------------------------
	BYTE		N17     As3 
	BYTE	W18
	BYTE		N05   
	BYTE	W06
	BYTE		N11   
	BYTE	W12
	BYTE		        Cn4 
	BYTE	W12
	BYTE		N42     Dn4 
	BYTE	W48
// 054   ----------------------------------------
	BYTE		N17     Gs3 
	BYTE	W18
	BYTE		N05   
	BYTE	W06
	BYTE		N11   
	BYTE	W12
	BYTE		        As3 
	BYTE	W12
	BYTE		        Cn4 
	BYTE	W12
	BYTE		N11   
	BYTE	W12
	BYTE		        Ds4 
	BYTE	W12
	BYTE		        Fn4 
	BYTE	W12
// 055   ----------------------------------------
	BYTE		N17     Gn4 
	BYTE	W18
	BYTE		N05   
	BYTE	W06
	BYTE		N11   
	BYTE	W12
	BYTE		        As4 
	BYTE	W12
	BYTE		        Gn4 
	BYTE	W12
	BYTE		N11   
	BYTE	W12
	BYTE		        Fn4 
	BYTE	W12
	BYTE		        Ds4 
	BYTE	W12
// 056   ----------------------------------------
	BYTE		N32     Gn4 
	BYTE	W36
	BYTE		N05   
	BYTE	W06
	BYTE		N05   
	BYTE	W06
	BYTE		N32   
	BYTE	W36
	BYTE		N05   
	BYTE	W06
	BYTE		N05   
	BYTE	W06
// 057   ----------------------------------------
	BYTE		N11   
	BYTE	W12
	BYTE		N05     Gs4 
	BYTE	W06
	BYTE		        As4 
	BYTE	W06
	BYTE		        Cn5 
	BYTE	W06
	BYTE		        Dn5 
	BYTE	W06
	BYTE		        Ds5 
	BYTE	W06
	BYTE		        Fs5 
	BYTE	W06
	BYTE		N42     Gn5 
	BYTE	W48
// 058   ----------------------------------------
	BYTE	W96
// 059   ----------------------------------------
	BYTE	W96
// 060   ----------------------------------------
	BYTE	W96
// 061   ----------------------------------------
	BYTE	W96
// 062   ----------------------------------------
	BYTE	W12
	BYTE		N02     Gn4   v032
	BYTE	W03
	BYTE		N08     Gs4 
	BYTE	W21
	BYTE		N02     Gn5 
	BYTE	W03
	BYTE		N08     Gs5 
	BYTE	W21
	BYTE		N02     Gn4 
	BYTE	W03
	BYTE		N08     Gs4 
	BYTE	W21
	BYTE		N02     Gn5 
	BYTE	W03
	BYTE		N08     Gs5 
	BYTE	W09
// 063   ----------------------------------------
	BYTE	W12
	BYTE		N02     Gn4 
	BYTE	W03
	BYTE		N08     Gs4 
	BYTE	W44
	BYTE	W01
	BYTE		N02     Gn4 
	BYTE	W03
	BYTE		N08     Gs4 
	BYTE	W32
	BYTE	W01
// 064   ----------------------------------------
	BYTE	W12
	BYTE		N02     En4 
	BYTE	W03
	BYTE		N08     Fn4 
	BYTE	W44
	BYTE	W01
	BYTE		N02     Fs4 
	BYTE	W03
	BYTE		N08     Gn4 
	BYTE	W32
	BYTE	W01
// 065   ----------------------------------------
	BYTE		N05     Cn5   v048
	BYTE	W06
	BYTE		        Bn4 
	BYTE	W06
	BYTE		        Cn5 
	BYTE	W06
	BYTE		        Dn5 
	BYTE	W06
	BYTE		        Ds5 
	BYTE	W06
	BYTE		        Dn5 
	BYTE	W06
	BYTE		        Ds5 
	BYTE	W06
	BYTE		        Fn5 
	BYTE	W06
	BYTE		N42     En5 
	BYTE	W48
// 066   ----------------------------------------
	BYTE	W96
// 067   ----------------------------------------
	BYTE		N05     Gs4   v127
	BYTE	W06
	BYTE		        Gn4 
	BYTE	W06
	BYTE		        Fs4 
	BYTE	W06
	BYTE		        Gn4 
	BYTE	W06
	BYTE		        Fs4 
	BYTE	W06
	BYTE		        Gn4 
	BYTE	W06
	BYTE		        Fs4 
	BYTE	W06
	BYTE		        Gn4 
	BYTE	W06
	BYTE		        Fs4 
	BYTE	W06
	BYTE		        Gn4 
	BYTE	W06
	BYTE		        Fs4 
	BYTE	W06
	BYTE		        As4 
	BYTE	W06
	BYTE		N20     Ds5 
	BYTE	W24
// 068   ----------------------------------------
	BYTE	W24
	BYTE		N42     Cn5 
	BYTE	W48
	BYTE		N11     As4 
	BYTE	W12
	BYTE		        An4 
	BYTE	W12
	BYTE		        Gs4 
	BYTE	W12
	BYTE		        Gn4 
	BYTE	W12
// 069   ----------------------------------------
	BYTE		        En5   v108
	BYTE	W12
	BYTE		N11   
	BYTE	W12
	BYTE		N11   
	BYTE	W12
	BYTE		N20     Fn5 
	BYTE	W24
	BYTE		N32     Fs5 
	BYTE	W36
// 070   ----------------------------------------
	BYTE		N20     Gn5 
	BYTE	W36
	BYTE		N20   
	BYTE	W24
	BYTE		N11     Fn5 
	BYTE	W12
	BYTE		N20     Ds5 
	BYTE	W24
// 071   ----------------------------------------
	BYTE		N90     Cn5 
	BYTE	W90
	BYTE	FINE

//**************** Track 3 (Midi-Chn.2) ****************//

fountainofdreams_3:
	BYTE	KEYSH   fountainofdreams_key+0
// 000   ----------------------------------------
	BYTE		VOICE   73
	BYTE		VOL     127*fountainofdreams_mvl/mxv
	BYTE		PAN     c_v+0
	BYTE	W96
// 001   ----------------------------------------
	BYTE	W96
// 002   ----------------------------------------
	BYTE	W96
// 003   ----------------------------------------
	BYTE	W96
// 004   ----------------------------------------
	BYTE	W96
// 005   ----------------------------------------
	BYTE	W84
	BYTE		N02     Gn4   v076
	BYTE	W03
	BYTE		        Gs4 
	BYTE	W03
	BYTE		        As4 
	BYTE	W03
	BYTE		        Bn4 
	BYTE	W03
// 006   ----------------------------------------
	BYTE		N20     Cn5 
	BYTE	W96
// 007   ----------------------------------------
	BYTE	W96
// 008   ----------------------------------------
	BYTE		N20   
	BYTE	W96
// 009   ----------------------------------------
	BYTE	W90
	BYTE		N02     Gs4 
	BYTE	W03
	BYTE		        As4 
	BYTE	W03
// 010   ----------------------------------------
	BYTE		N20     Cn5 
	BYTE	W96
// 011   ----------------------------------------
fountainofdreams_3_011:
	BYTE		N24     Ds4   v092
	BYTE	W24
	BYTE		        Dn4 
	BYTE	W24
	BYTE		N20     Cn4 
	BYTE	W48
	BYTE	PEND
// 012   ----------------------------------------
	BYTE	W96
// 013   ----------------------------------------
	BYTE	W48
	BYTE		N05     Ds4 
	BYTE	W06
	BYTE		        En4 
	BYTE	W06
	BYTE		        Fn4 
	BYTE	W06
	BYTE		        Fs4 
	BYTE	W06
	BYTE		        Gn4 
	BYTE	W06
	BYTE		        Gs4 
	BYTE	W06
	BYTE		        As4 
	BYTE	W06
	BYTE		        Bn4 
	BYTE	W06
// 014   ----------------------------------------
	BYTE		N20     Cn5 
	BYTE	W96
// 015   ----------------------------------------
	BYTE		N24     Ds4 
	BYTE	W24
	BYTE		        Dn4 
	BYTE	W24
	BYTE		N42     Cn4 
	BYTE	W48
// 016   ----------------------------------------
	BYTE		N20     Ds4 
	BYTE	W24
	BYTE		        Fn4 
	BYTE	W24
	BYTE		        Dn4 
	BYTE	W24
	BYTE		        As3 
	BYTE	W24
// 017   ----------------------------------------
	BYTE		N66     Cn4 
	BYTE	W72
	BYTE		N05     Gn4 
	BYTE	W06
	BYTE		        Gs4 
	BYTE	W06
	BYTE		        As4 
	BYTE	W06
	BYTE		        Bn4 
	BYTE	W06
// 018   ----------------------------------------
	BYTE		N20     Cn5 
	BYTE	W96
// 019   ----------------------------------------
	BYTE	PATT
	 POIN2	fountainofdreams_3_011
// 020   ----------------------------------------
	BYTE	W96
// 021   ----------------------------------------
	BYTE	W72
	BYTE		N05     Gn4   v092
	BYTE	W06
	BYTE		        Gs4 
	BYTE	W06
	BYTE		        As4 
	BYTE	W06
	BYTE		        Bn4 
	BYTE	W06
// 022   ----------------------------------------
	BYTE		N20     Cn5 
	BYTE	W96
// 023   ----------------------------------------
	BYTE		N24     Ds5 
	BYTE	W24
	BYTE		        Dn5 
	BYTE	W24
	BYTE		N42     Cn5 
	BYTE	W48
// 024   ----------------------------------------
	BYTE	W96
// 025   ----------------------------------------
	BYTE	W96
// 026   ----------------------------------------
fountainofdreams_3_026:
	BYTE	W24
	BYTE		N03     Gn3   v092
	BYTE	W04
	BYTE		        Gs3 
	BYTE	W04
	BYTE		        Bn3 
	BYTE	W04
	BYTE		        Cn4 
	BYTE	W04
	BYTE		        Dn4 
	BYTE	W04
	BYTE		        Ds4 
	BYTE	W04
	BYTE		N05     Fs4 
	BYTE	W06
	BYTE		        Gn4 
	BYTE	W06
	BYTE		        Fs4 
	BYTE	W06
	BYTE		        Gn4 
	BYTE	W30
	BYTE	PEND
// 027   ----------------------------------------
fountainofdreams_3_027:
	BYTE	W24
	BYTE		N03     Fn3   v092
	BYTE	W04
	BYTE		        Gn3 
	BYTE	W04
	BYTE		        Gs3 
	BYTE	W04
	BYTE		        As3 
	BYTE	W04
	BYTE		        Cn4 
	BYTE	W04
	BYTE		        Dn4 
	BYTE	W04
	BYTE		N05     Ds4 
	BYTE	W06
	BYTE		        Fn4 
	BYTE	W06
	BYTE		        Ds4 
	BYTE	W06
	BYTE		        Fn4 
	BYTE	W30
	BYTE	PEND
// 028   ----------------------------------------
	BYTE	PATT
	 POIN2	fountainofdreams_3_026
// 029   ----------------------------------------
	BYTE	PATT
	 POIN2	fountainofdreams_3_027
// 030   ----------------------------------------
	BYTE		N32     Gs4   v060
	BYTE	W36
	BYTE		N11     Gn4 
	BYTE	W12
	BYTE		N20     Fn4 
	BYTE	W24
	BYTE		N11     Ds4 
	BYTE	W12
	BYTE		        Fn4 
	BYTE	W12
// 031   ----------------------------------------
	BYTE		N20     Gn4 
	BYTE	W24
	BYTE		        Cn4 
	BYTE	W24
	BYTE		N42     Gn4 
	BYTE	W48
// 032   ----------------------------------------
	BYTE		N11     Fn4 
	BYTE	W12
	BYTE		N05   
	BYTE	W06
	BYTE		N05   
	BYTE	W06
	BYTE		N11   
	BYTE	W12
	BYTE		        Ds4 
	BYTE	W12
	BYTE		N20     Dn4 
	BYTE	W24
	BYTE		N11     Ds4 
	BYTE	W12
	BYTE		        Fn4 
	BYTE	W12
// 033   ----------------------------------------
	BYTE		N20     Ds4 
	BYTE	W24
	BYTE		        Fn4 
	BYTE	W24
	BYTE		        Gn4 
	BYTE	W24
	BYTE		        Ds4 
	BYTE	W24
// 034   ----------------------------------------
	BYTE	PATT
	 POIN2	fountainofdreams_3_026
// 035   ----------------------------------------
	BYTE	PATT
	 POIN2	fountainofdreams_3_027
// 036   ----------------------------------------
	BYTE	PATT
	 POIN2	fountainofdreams_3_026
// 037   ----------------------------------------
	BYTE	PATT
	 POIN2	fountainofdreams_3_027
// 038   ----------------------------------------
	BYTE		N32     Fn4   v060
	BYTE	W36
	BYTE		N11     Ds4 
	BYTE	W12
	BYTE		N20     Cn4 
	BYTE	W24
	BYTE		N11     Ds4 
	BYTE	W12
	BYTE		        Fn4 
	BYTE	W12
// 039   ----------------------------------------
	BYTE		N06     Gn4 
	BYTE	W24
	BYTE		N20     Ds4 
	BYTE	W24
	BYTE		        Cn4 
	BYTE	W24
	BYTE		        Gn3 
	BYTE	W24
// 040   ----------------------------------------
	BYTE		N11     Dn3 
	BYTE	W12
	BYTE		N05   
	BYTE	W06
	BYTE		N05   
	BYTE	W06
	BYTE		N11   
	BYTE	W12
	BYTE		        Fn3 
	BYTE	W12
	BYTE		        Dn3 
	BYTE	W12
	BYTE		        As3 
	BYTE	W12
	BYTE		        Gn3 
	BYTE	W12
	BYTE		        As3 
	BYTE	W12
// 041   ----------------------------------------
	BYTE		N66     Cn4 
	BYTE	W96
// 042   ----------------------------------------
	BYTE	W96
// 043   ----------------------------------------
	BYTE	W96
// 044   ----------------------------------------
	BYTE	W96
// 045   ----------------------------------------
	BYTE	W96
// 046   ----------------------------------------
	BYTE	W96
// 047   ----------------------------------------
	BYTE	W72
	BYTE		N20     Gn3 
	BYTE	W24
// 048   ----------------------------------------
	BYTE		N17     Bn3 
	BYTE	W18
	BYTE		N05   
	BYTE	W06
	BYTE		N11   
	BYTE	W12
	BYTE		N11   
	BYTE	W12
	BYTE		        Ds4 
	BYTE	W12
	BYTE		N11   
	BYTE	W12
	BYTE		N11   
	BYTE	W12
	BYTE		N11   
	BYTE	W12
// 049   ----------------------------------------
	BYTE		N66     Dn4 
	BYTE	W96
// 050   ----------------------------------------
	BYTE	W48
	BYTE		N32     As4   v127
	BYTE	W36
	BYTE		N11     Cn5 
	BYTE	W12
// 051   ----------------------------------------
	BYTE		N20     Dn5 
	BYTE	W24
	BYTE		        Cn5 
	BYTE	W24
	BYTE		        As4 
	BYTE	W24
	BYTE		        Gn4 
	BYTE	W24
// 052   ----------------------------------------
	BYTE		        Gs4 
	BYTE	W48
	BYTE		N42     Cn5 
	BYTE	W48
// 053   ----------------------------------------
	BYTE		N20     As4 
	BYTE	W48
	BYTE		N42     Dn5 
	BYTE	W48
// 054   ----------------------------------------
	BYTE		        Gs4 
	BYTE	W48
	BYTE		        Ds5 
	BYTE	W48
// 055   ----------------------------------------
	BYTE		N20     Cn4 
	BYTE	W24
	BYTE		        Ds4 
	BYTE	W24
	BYTE		        Gn4 
	BYTE	W24
	BYTE		        Cn5 
	BYTE	W24
// 056   ----------------------------------------
	BYTE		N42     Gn4 
	BYTE		N42     Cn5 
	BYTE	W48
	BYTE		        Gn4 
	BYTE		N42     Cn5 
	BYTE	W48
// 057   ----------------------------------------
	BYTE		N90     Gn4 
	BYTE		N90     Bn4 
	BYTE	W96
// 058   ----------------------------------------
	BYTE	W96
// 059   ----------------------------------------
	BYTE	W96
// 060   ----------------------------------------
	BYTE	W96
// 061   ----------------------------------------
	BYTE	W96
// 062   ----------------------------------------
	BYTE	W96
// 063   ----------------------------------------
	BYTE	W96
// 064   ----------------------------------------
	BYTE	W96
// 065   ----------------------------------------
	BYTE		N05     Ds4   v048
	BYTE	W06
	BYTE		        Dn4 
	BYTE	W06
	BYTE		        Ds4 
	BYTE	W06
	BYTE		        Fn4 
	BYTE	W06
	BYTE		        Gn4 
	BYTE	W06
	BYTE		        Gs4 
	BYTE	W06
	BYTE		        As4 
	BYTE	W06
	BYTE		        Bn4 
	BYTE	W06
	BYTE		N42     Cn5 
	BYTE	W48
// 066   ----------------------------------------
	BYTE	W96
// 067   ----------------------------------------
	BYTE		N05     Gs4   v127
	BYTE	W06
	BYTE		        Gn4 
	BYTE	W06
	BYTE		        Fs4 
	BYTE	W06
	BYTE		        Gn4 
	BYTE	W06
	BYTE		        Fs4 
	BYTE	W06
	BYTE		        Gn4 
	BYTE	W06
	BYTE		        Fs4 
	BYTE	W06
	BYTE		        Gn4 
	BYTE	W06
	BYTE		        Fs4 
	BYTE	W06
	BYTE		        Gn4 
	BYTE	W06
	BYTE		        Fs4 
	BYTE	W06
	BYTE		        As4 
	BYTE	W06
	BYTE		N20     Ds5 
	BYTE	W24
// 068   ----------------------------------------
	BYTE	W24
	BYTE		N42     Cn5 
	BYTE	W48
	BYTE		N11     As4 
	BYTE	W12
	BYTE		        An4 
	BYTE	W12
	BYTE		        Gs4 
	BYTE	W12
	BYTE		        Gn4 
	BYTE	W12
// 069   ----------------------------------------
	BYTE		        Cn4   v108
	BYTE	W12
	BYTE		N11   
	BYTE	W12
	BYTE		N11   
	BYTE	W12
	BYTE		N20   
	BYTE	W24
	BYTE		N32     Gs3 
	BYTE	W36
// 070   ----------------------------------------
	BYTE		N20     Dn4 
	BYTE	W36
	BYTE		N20   
	BYTE	W24
	BYTE		N11   
	BYTE	W12
	BYTE		N20     As3 
	BYTE	W24
// 071   ----------------------------------------
	BYTE		N90     Gn3 
	BYTE	W90
	BYTE	FINE

//**************** Track 4 (Midi-Chn.5) ****************//

fountainofdreams_4:
	BYTE	KEYSH   fountainofdreams_key+0
// 000   ----------------------------------------
	BYTE		VOICE   71
	BYTE		VOL     127*fountainofdreams_mvl/mxv
	BYTE		PAN     c_v+0
	BYTE		N90     Gn3   v048
	BYTE	W96
// 001   ----------------------------------------
	BYTE		        Fn3 
	BYTE	W96
// 002   ----------------------------------------
	BYTE		        Ds3 
	BYTE	W96
// 003   ----------------------------------------
	BYTE		TIE     Fn3 
	BYTE	W96
// 004   ----------------------------------------
	BYTE	W96
// 005   ----------------------------------------
	BYTE	W66
	BYTE		EOT   
	BYTE	W24
	BYTE		N05     As2   v092
	BYTE	W06
// 006   ----------------------------------------
fountainofdreams_4_006:
	BYTE		N05     Cn3   v092
	BYTE	W06
	BYTE		        Bn2 
	BYTE	W06
	BYTE		        Cn3 
	BYTE	W06
	BYTE		        Bn2 
	BYTE	W06
	BYTE		        Cn3 
	BYTE	W06
	BYTE		        Dn3 
	BYTE	W06
	BYTE		        Ds3 
	BYTE	W06
	BYTE		        Fn3 
	BYTE	W06
	BYTE		        Gn3 
	BYTE	W06
	BYTE		        Gs3 
	BYTE	W06
	BYTE		        Gn3 
	BYTE	W06
	BYTE		        Fn3 
	BYTE	W06
	BYTE		        Ds3 
	BYTE	W06
	BYTE		        Fn3 
	BYTE	W06
	BYTE		        Ds3 
	BYTE	W06
	BYTE		        Dn3 
	BYTE	W06
	BYTE	PEND
// 007   ----------------------------------------
	BYTE	PATT
	 POIN2	fountainofdreams_4_006
// 008   ----------------------------------------
	BYTE		N05     Bn2   v092
	BYTE	W06
	BYTE		        Cn3 
	BYTE	W06
	BYTE		        Bn2 
	BYTE	W06
	BYTE		        Cn3 
	BYTE	W06
	BYTE		        Bn2 
	BYTE	W06
	BYTE		        Cn3 
	BYTE	W06
	BYTE		        Dn3 
	BYTE	W06
	BYTE		        Ds3 
	BYTE	W06
	BYTE		        Fn3 
	BYTE	W06
	BYTE		        Gn3 
	BYTE	W06
	BYTE		        Gs3 
	BYTE	W06
	BYTE		        Gn3 
	BYTE	W06
	BYTE		        Gs3 
	BYTE	W06
	BYTE		        Bn3 
	BYTE	W06
	BYTE		        Cn4 
	BYTE	W06
	BYTE		        Dn4 
	BYTE	W06
// 009   ----------------------------------------
	BYTE		        Ds4 
	BYTE	W06
	BYTE		        Dn4 
	BYTE	W06
	BYTE		        Cn4 
	BYTE	W06
	BYTE		        As3 
	BYTE	W06
	BYTE		        Cn4 
	BYTE	W06
	BYTE		        As3 
	BYTE	W06
	BYTE		        Gs3 
	BYTE	W06
	BYTE		        Gn3 
	BYTE	W06
	BYTE		        Gs3 
	BYTE	W06
	BYTE		        Gn3 
	BYTE	W06
	BYTE		        Fn3 
	BYTE	W06
	BYTE		        Ds3 
	BYTE	W06
	BYTE		        Gn4 
	BYTE	W06
	BYTE		        Gs4 
	BYTE	W06
	BYTE		        As4 
	BYTE	W06
	BYTE		        Bn4 
	BYTE	W06
// 010   ----------------------------------------
	BYTE		N20     Cn5 
	BYTE	W96
// 011   ----------------------------------------
	BYTE	W96
// 012   ----------------------------------------
	BYTE	W96
// 013   ----------------------------------------
	BYTE	W96
// 014   ----------------------------------------
	BYTE	W96
// 015   ----------------------------------------
	BYTE	W72
	BYTE		N11     Cn4 
	BYTE	W12
	BYTE		        Dn4 
	BYTE	W12
// 016   ----------------------------------------
	BYTE		N20     Ds4 
	BYTE	W24
	BYTE		        Fn4 
	BYTE	W24
	BYTE		        Dn4 
	BYTE	W24
	BYTE		        As3 
	BYTE	W24
// 017   ----------------------------------------
	BYTE		N66     Cn4 
	BYTE	W96
// 018   ----------------------------------------
	BYTE	W96
// 019   ----------------------------------------
	BYTE	W96
// 020   ----------------------------------------
	BYTE		N20     Gs3 
	BYTE		N20     Cn4 
	BYTE	W24
	BYTE		        As3 
	BYTE		N20     Dn4 
	BYTE	W24
	BYTE		        Cn4 
	BYTE		N20     Ds4 
	BYTE	W24
	BYTE		        Gs3 
	BYTE		N20     Cn4 
	BYTE	W24
// 021   ----------------------------------------
	BYTE		        Gn3 
	BYTE		N20     As3 
	BYTE	W24
	BYTE		        Gs3 
	BYTE		N20     Cn4 
	BYTE	W24
	BYTE		        Ds3 
	BYTE		N20     Gn3 
	BYTE	W48
// 022   ----------------------------------------
	BYTE	W96
// 023   ----------------------------------------
	BYTE	W96
// 024   ----------------------------------------
	BYTE	W96
// 025   ----------------------------------------
	BYTE	W96
// 026   ----------------------------------------
	BYTE	W96
// 027   ----------------------------------------
	BYTE	W96
// 028   ----------------------------------------
	BYTE	W96
// 029   ----------------------------------------
	BYTE	W96
// 030   ----------------------------------------
	BYTE		N90     Fn4   v060
	BYTE	W96
// 031   ----------------------------------------
	BYTE		N20     Ds4 
	BYTE	W24
	BYTE		        Dn4 
	BYTE	W24
	BYTE		        Cn4 
	BYTE	W24
	BYTE		        As3 
	BYTE	W24
// 032   ----------------------------------------
	BYTE		N90     Fn3 
	BYTE	W96
// 033   ----------------------------------------
	BYTE		N42     Gn3 
	BYTE	W48
	BYTE		        Cn3 
	BYTE	W48
// 034   ----------------------------------------
	BYTE	W96
// 035   ----------------------------------------
	BYTE	W96
// 036   ----------------------------------------
	BYTE	W96
// 037   ----------------------------------------
	BYTE	W96
// 038   ----------------------------------------
	BYTE		N32     Gs4 
	BYTE	W36
	BYTE		N11     Gn4 
	BYTE	W12
	BYTE		N20     Fn4 
	BYTE	W24
	BYTE		N11     Gn4 
	BYTE	W12
	BYTE		        Gs4 
	BYTE	W12
// 039   ----------------------------------------
	BYTE		N06     Cn4 
	BYTE	W24
	BYTE		N20     Gn4 
	BYTE	W24
	BYTE		        Ds4 
	BYTE	W24
	BYTE		        Cn4 
	BYTE	W24
// 040   ----------------------------------------
	BYTE		N11     Dn4 
	BYTE	W12
	BYTE		N05   
	BYTE	W06
	BYTE		N05   
	BYTE	W06
	BYTE		N11   
	BYTE	W12
	BYTE		        Fn4 
	BYTE	W12
	BYTE		        Dn4 
	BYTE	W12
	BYTE		        As3 
	BYTE	W12
	BYTE		        Gn3 
	BYTE	W12
	BYTE		        As3 
	BYTE	W12
// 041   ----------------------------------------
	BYTE		N66     Cn4 
	BYTE	W96
// 042   ----------------------------------------
	BYTE	W96
// 043   ----------------------------------------
	BYTE	W96
// 044   ----------------------------------------
	BYTE	W96
// 045   ----------------------------------------
	BYTE	W96
// 046   ----------------------------------------
	BYTE	W96
// 047   ----------------------------------------
	BYTE	W72
	BYTE		N20     Ds3 
	BYTE	W24
// 048   ----------------------------------------
	BYTE		N17     Gs3 
	BYTE	W18
	BYTE		N05   
	BYTE	W06
	BYTE		N11   
	BYTE	W12
	BYTE		N11   
	BYTE	W12
	BYTE		        Bn3 
	BYTE	W12
	BYTE		N11   
	BYTE	W12
	BYTE		N11   
	BYTE	W12
	BYTE		N11   
	BYTE	W12
// 049   ----------------------------------------
	BYTE		N66     As3 
	BYTE	W72
	BYTE		N20     Dn3   v108
	BYTE	W24
// 050   ----------------------------------------
	BYTE	W48
	BYTE		N32     As3   v127
	BYTE	W36
	BYTE		N11     Cn4 
	BYTE	W12
// 051   ----------------------------------------
	BYTE		N20     Dn4 
	BYTE	W24
	BYTE		        Cn4 
	BYTE	W24
	BYTE		        As3 
	BYTE	W24
	BYTE		        Gn3 
	BYTE	W24
// 052   ----------------------------------------
	BYTE		        Gs3 
	BYTE	W48
	BYTE		N42     Cn4 
	BYTE	W48
// 053   ----------------------------------------
	BYTE		N20     As3 
	BYTE	W48
	BYTE		N42     Dn4 
	BYTE	W48
// 054   ----------------------------------------
	BYTE		        Gs3 
	BYTE	W48
	BYTE		        Ds4 
	BYTE	W48
// 055   ----------------------------------------
	BYTE		N20     Cn3 
	BYTE	W24
	BYTE		        Ds3 
	BYTE	W24
	BYTE		        Gn3 
	BYTE	W24
	BYTE		        Cn4 
	BYTE	W24
// 056   ----------------------------------------
	BYTE		N42     Dn4 
	BYTE	W48
	BYTE		N42   
	BYTE	W48
// 057   ----------------------------------------
	BYTE		N90   
	BYTE	W96
// 058   ----------------------------------------
fountainofdreams_4_058:
	BYTE		N05     Cn3   v032
	BYTE	W06
	BYTE		        Bn2 
	BYTE	W06
	BYTE		        Cn3 
	BYTE	W06
	BYTE		        Bn2 
	BYTE	W06
	BYTE		        Cn3 
	BYTE	W06
	BYTE		        Dn3 
	BYTE	W06
	BYTE		        Ds3 
	BYTE	W06
	BYTE		        Fn3 
	BYTE	W06
	BYTE		        Gn3 
	BYTE	W06
	BYTE		        Gs3 
	BYTE	W06
	BYTE		        Gn3 
	BYTE	W06
	BYTE		        Fn3 
	BYTE	W06
	BYTE		        Ds3 
	BYTE	W06
	BYTE		        Fn3 
	BYTE	W06
	BYTE		        Ds3 
	BYTE	W06
	BYTE		        Dn3 
	BYTE	W06
	BYTE	PEND
// 059   ----------------------------------------
	BYTE	PATT
	 POIN2	fountainofdreams_4_058
// 060   ----------------------------------------
fountainofdreams_4_060:
	BYTE		N05     Bn2   v032
	BYTE	W06
	BYTE		        Cn3 
	BYTE	W06
	BYTE		        Bn2 
	BYTE	W06
	BYTE		        Cn3 
	BYTE	W06
	BYTE		        Bn2 
	BYTE	W06
	BYTE		        Cn3 
	BYTE	W06
	BYTE		        Dn3 
	BYTE	W06
	BYTE		        Ds3 
	BYTE	W06
	BYTE		        Fn3 
	BYTE	W06
	BYTE		        Gn3 
	BYTE	W06
	BYTE		        Gs3 
	BYTE	W06
	BYTE		        Gn3 
	BYTE	W06
	BYTE		        Gs3 
	BYTE	W06
	BYTE		        Bn3 
	BYTE	W06
	BYTE		        Cn4 
	BYTE	W06
	BYTE		        Dn4 
	BYTE	W06
	BYTE	PEND
// 061   ----------------------------------------
	BYTE		        Ds4 
	BYTE	W06
	BYTE		        Dn4 
	BYTE	W06
	BYTE		        Cn4 
	BYTE	W06
	BYTE		        As3 
	BYTE	W06
	BYTE		        Cn4 
	BYTE	W06
	BYTE		        As3 
	BYTE	W06
	BYTE		        Gs3 
	BYTE	W06
	BYTE		        Gn3 
	BYTE	W06
	BYTE		        Gs3 
	BYTE	W06
	BYTE		        Gn3 
	BYTE	W06
	BYTE		        Fn3 
	BYTE	W06
	BYTE		        Ds3 
	BYTE	W06
	BYTE		        Fn3 
	BYTE	W06
	BYTE		        Ds3 
	BYTE	W06
	BYTE		        Dn3 
	BYTE	W06
	BYTE		        Bn2 
	BYTE	W06
// 062   ----------------------------------------
	BYTE	PATT
	 POIN2	fountainofdreams_4_058
// 063   ----------------------------------------
	BYTE	PATT
	 POIN2	fountainofdreams_4_058
// 064   ----------------------------------------
	BYTE	PATT
	 POIN2	fountainofdreams_4_060
// 065   ----------------------------------------
	BYTE		N05     Ds4   v032
	BYTE	W06
	BYTE		        Dn4 
	BYTE	W06
	BYTE		        Ds4 
	BYTE	W06
	BYTE		        Fn4 
	BYTE	W06
	BYTE		        Gn4 
	BYTE	W06
	BYTE		        Gs4 
	BYTE	W06
	BYTE		        As4 
	BYTE	W06
	BYTE		        Bn4 
	BYTE	W06
	BYTE		N42     Cn5 
	BYTE	W48
// 066   ----------------------------------------
	BYTE	W96
// 067   ----------------------------------------
	BYTE		N05     Gs4   v127
	BYTE	W06
	BYTE		        Gn4 
	BYTE	W06
	BYTE		        Fs4 
	BYTE	W06
	BYTE		        Gn4 
	BYTE	W06
	BYTE		        Fs4 
	BYTE	W06
	BYTE		        Gn4 
	BYTE	W06
	BYTE		        Fs4 
	BYTE	W06
	BYTE		        Gn4 
	BYTE	W06
	BYTE		        Fs4 
	BYTE	W06
	BYTE		        Gn4 
	BYTE	W06
	BYTE		        Fs4 
	BYTE	W06
	BYTE		        As4 
	BYTE	W06
	BYTE		N20     Ds4 
	BYTE	W24
// 068   ----------------------------------------
	BYTE	W24
	BYTE		N42     Cn4 
	BYTE	W48
	BYTE		N11     As3 
	BYTE	W12
	BYTE		        An3 
	BYTE	W12
	BYTE		        Gs3 
	BYTE	W12
	BYTE		        Gn3 
	BYTE	W12
// 069   ----------------------------------------
	BYTE		        En3   v108
	BYTE	W12
	BYTE		N11   
	BYTE	W12
	BYTE		N11   
	BYTE	W12
	BYTE		N20     Fn3 
	BYTE	W24
	BYTE		N32     Fs3 
	BYTE	W36
// 070   ----------------------------------------
	BYTE		N20     Gn3 
	BYTE	W36
	BYTE		        As3 
	BYTE	W24
	BYTE		N11   
	BYTE	W12
	BYTE		N20     Gn3 
	BYTE	W24
// 071   ----------------------------------------
	BYTE		N90     En3 
	BYTE	W90
	BYTE	FINE

//**************** Track 5 (Midi-Chn.5) ****************//

fountainofdreams_5:
	BYTE	KEYSH   fountainofdreams_key+0
// 000   ----------------------------------------
	BYTE		VOICE   71
	BYTE		VOL     127*fountainofdreams_mvl/mxv
	BYTE		PAN     c_v+0
	BYTE	W96
// 001   ----------------------------------------
	BYTE	W96
// 002   ----------------------------------------
	BYTE	W96
// 003   ----------------------------------------
	BYTE	W96
// 004   ----------------------------------------
	BYTE	W96
// 005   ----------------------------------------
	BYTE	W84
	BYTE		N02     Gn2   v076
	BYTE	W03
	BYTE		        Gs2 
	BYTE	W03
	BYTE		        As2 
	BYTE	W03
	BYTE		        Bn2 
	BYTE	W03
// 006   ----------------------------------------
	BYTE		N20     Cn3 
	BYTE	W96
// 007   ----------------------------------------
	BYTE	W96
// 008   ----------------------------------------
	BYTE		N20   
	BYTE	W96
// 009   ----------------------------------------
	BYTE	W90
	BYTE		N02     Gs2 
	BYTE	W03
	BYTE		        As2 
	BYTE	W03
// 010   ----------------------------------------
	BYTE		N20     Cn3 
	BYTE	W96
// 011   ----------------------------------------
	BYTE	W96
// 012   ----------------------------------------
	BYTE	W96
// 013   ----------------------------------------
	BYTE	W96
// 014   ----------------------------------------
	BYTE	W96
// 015   ----------------------------------------
	BYTE	W72
	BYTE		N11   
	BYTE	W12
	BYTE		        Dn3 
	BYTE	W12
// 016   ----------------------------------------
	BYTE		N20     Ds3 
	BYTE	W24
	BYTE		        Fn3 
	BYTE	W24
	BYTE		        Dn3 
	BYTE	W24
	BYTE		        As2 
	BYTE	W24
// 017   ----------------------------------------
	BYTE		N66     Cn3 
	BYTE	W96
// 018   ----------------------------------------
	BYTE	W96
// 019   ----------------------------------------
	BYTE	W96
// 020   ----------------------------------------
	BYTE		N20     Gs2 
	BYTE		N20     Cn3 
	BYTE	W24
	BYTE		        As2 
	BYTE		N20     Dn3 
	BYTE	W24
	BYTE		        Cn3 
	BYTE		N20     Ds3 
	BYTE	W24
	BYTE		        Gs2 
	BYTE		N20     Cn3 
	BYTE	W24
// 021   ----------------------------------------
	BYTE		        Gn2 
	BYTE		N20     As2 
	BYTE	W24
	BYTE		        Gs2 
	BYTE		N20     Cn3 
	BYTE	W24
	BYTE		        Ds2 
	BYTE		N20     Gn2 
	BYTE	W48
// 022   ----------------------------------------
	BYTE	W96
// 023   ----------------------------------------
	BYTE	W96
// 024   ----------------------------------------
	BYTE	W96
// 025   ----------------------------------------
	BYTE	W96
// 026   ----------------------------------------
	BYTE	W96
// 027   ----------------------------------------
	BYTE	W96
// 028   ----------------------------------------
	BYTE	W96
// 029   ----------------------------------------
	BYTE	W96
// 030   ----------------------------------------
	BYTE		N90     Fn3   v060
	BYTE	W96
// 031   ----------------------------------------
	BYTE		N20     Ds3 
	BYTE	W24
	BYTE		        Dn3 
	BYTE	W24
	BYTE		        Cn3 
	BYTE	W24
	BYTE		        As2 
	BYTE	W24
// 032   ----------------------------------------
	BYTE		N90     Fn2 
	BYTE	W96
// 033   ----------------------------------------
	BYTE		N42     Gn2 
	BYTE	W48
	BYTE		        Cn3 
	BYTE	W48
// 034   ----------------------------------------
	BYTE	W96
// 035   ----------------------------------------
	BYTE	W96
// 036   ----------------------------------------
	BYTE	W96
// 037   ----------------------------------------
	BYTE	W96
// 038   ----------------------------------------
	BYTE		N32     Fn3 
	BYTE	W36
	BYTE		N11     Ds3 
	BYTE	W12
	BYTE		N20     Cn3 
	BYTE	W24
	BYTE		N11     Ds3 
	BYTE	W12
	BYTE		        Fn3 
	BYTE	W12
// 039   ----------------------------------------
	BYTE		N06     Gn3 
	BYTE	W24
	BYTE		N20     Ds3 
	BYTE	W24
	BYTE		        Cn3 
	BYTE	W24
	BYTE		        Gn2 
	BYTE	W24
// 040   ----------------------------------------
	BYTE		N11     Dn2 
	BYTE	W12
	BYTE		N05   
	BYTE	W06
	BYTE		N05   
	BYTE	W06
	BYTE		N11   
	BYTE	W12
	BYTE		        Fn2 
	BYTE	W12
	BYTE		        Dn2 
	BYTE	W12
	BYTE		        As2 
	BYTE	W12
	BYTE		        Dn3 
	BYTE	W12
	BYTE		N05     Cn3 
	BYTE	W06
	BYTE		        As2 
	BYTE	W06
// 041   ----------------------------------------
	BYTE		N66     Cn3 
	BYTE	W96
// 042   ----------------------------------------
	BYTE	W96
// 043   ----------------------------------------
	BYTE	W96
// 044   ----------------------------------------
	BYTE	W96
// 045   ----------------------------------------
	BYTE	W96
// 046   ----------------------------------------
	BYTE	W96
// 047   ----------------------------------------
	BYTE	W72
	BYTE		N20     As2 
	BYTE	W24
// 048   ----------------------------------------
	BYTE		N17     Ds3 
	BYTE	W18
	BYTE		N05   
	BYTE	W06
	BYTE		N11   
	BYTE	W12
	BYTE		N11   
	BYTE	W12
	BYTE		        Gs3 
	BYTE	W12
	BYTE		N11   
	BYTE	W12
	BYTE		N11   
	BYTE	W12
	BYTE		N11   
	BYTE	W12
// 049   ----------------------------------------
	BYTE		N66     Fn3 
	BYTE	W72
	BYTE		N20     As2   v108
	BYTE	W24
// 050   ----------------------------------------
	BYTE		N17     Ds3 
	BYTE	W18
	BYTE		N05   
	BYTE	W06
	BYTE		N11   
	BYTE	W12
	BYTE		N11   
	BYTE	W12
	BYTE		        Gn3 
	BYTE	W12
	BYTE		N11   
	BYTE	W12
	BYTE		        Ds3 
	BYTE	W12
	BYTE		N11   
	BYTE	W12
// 051   ----------------------------------------
	BYTE		N17     Dn3 
	BYTE	W18
	BYTE		N05   
	BYTE	W06
	BYTE		N11   
	BYTE	W12
	BYTE		        Ds3 
	BYTE	W12
	BYTE		N42     Dn3 
	BYTE	W48
// 052   ----------------------------------------
	BYTE		N17     Cn3 
	BYTE	W18
	BYTE		N05   
	BYTE	W06
	BYTE		N11   
	BYTE	W12
	BYTE		N11   
	BYTE	W12
	BYTE		        Ds3 
	BYTE	W12
	BYTE		N11   
	BYTE	W12
	BYTE		        Cn3 
	BYTE	W12
	BYTE		N11   
	BYTE	W12
// 053   ----------------------------------------
	BYTE		N17     As2 
	BYTE	W18
	BYTE		N05   
	BYTE	W06
	BYTE		N11   
	BYTE	W12
	BYTE		        Cn3 
	BYTE	W12
	BYTE		N42     Dn3 
	BYTE	W48
// 054   ----------------------------------------
	BYTE		N17     Gs2 
	BYTE	W18
	BYTE		N05   
	BYTE	W06
	BYTE		N11   
	BYTE	W12
	BYTE		N11   
	BYTE	W12
	BYTE		        Cn3 
	BYTE	W12
	BYTE		N11   
	BYTE	W12
	BYTE		        Ds3 
	BYTE	W12
	BYTE		N11   
	BYTE	W12
// 055   ----------------------------------------
	BYTE		N17     Gn3 
	BYTE	W18
	BYTE		N05   
	BYTE	W06
	BYTE		N11   
	BYTE	W12
	BYTE		        As3 
	BYTE	W12
	BYTE		        Gn3 
	BYTE	W12
	BYTE		N11   
	BYTE	W12
	BYTE		        Ds3 
	BYTE	W12
	BYTE		N11   
	BYTE	W12
// 056   ----------------------------------------
	BYTE		N32     Gn3 
	BYTE	W36
	BYTE		N05   
	BYTE	W06
	BYTE		N05   
	BYTE	W06
	BYTE		N32   
	BYTE	W36
	BYTE		N05   
	BYTE	W06
	BYTE		N05   
	BYTE	W06
// 057   ----------------------------------------
	BYTE		N11   
	BYTE	W12
	BYTE		N05     Gs3 
	BYTE	W06
	BYTE		        As3 
	BYTE	W06
	BYTE		        Cn4 
	BYTE	W06
	BYTE		        Dn4 
	BYTE	W06
	BYTE		        Ds4 
	BYTE	W06
	BYTE		        Fs4 
	BYTE	W06
	BYTE		N42     Gn4 
	BYTE	W48
// 058   ----------------------------------------
	BYTE	W96
// 059   ----------------------------------------
	BYTE	W96
// 060   ----------------------------------------
	BYTE	W96
// 061   ----------------------------------------
	BYTE	W96
// 062   ----------------------------------------
	BYTE	W96
// 063   ----------------------------------------
	BYTE	W96
// 064   ----------------------------------------
	BYTE	W96
// 065   ----------------------------------------
	BYTE	W96
// 066   ----------------------------------------
	BYTE	W96
// 067   ----------------------------------------
	BYTE	W96
// 068   ----------------------------------------
	BYTE	W96
	BYTE	W24
// 069   ----------------------------------------
	BYTE		N11     Cn3 
	BYTE	W12
	BYTE		N11   
	BYTE	W12
	BYTE		N11   
	BYTE	W12
	BYTE		N20   
	BYTE	W24
	BYTE		N32     Gs2 
	BYTE	W36
// 070   ----------------------------------------
	BYTE		N20     Gn2 
	BYTE	W36
	BYTE		        Gn3 
	BYTE	W24
	BYTE		N11     Fn3 
	BYTE	W12
	BYTE		N20     Ds3 
	BYTE	W24
// 071   ----------------------------------------
	BYTE		N90     Cn3 
	BYTE	W90
	BYTE	FINE

//**************** Track 6 (Midi-Chn.5) ****************//

fountainofdreams_6:
	BYTE	KEYSH   fountainofdreams_key+0
// 000   ----------------------------------------
	BYTE		VOICE   71
	BYTE		VOL     126*fountainofdreams_mvl/mxv
	BYTE		PAN     c_v+0
	BYTE	W96
// 001   ----------------------------------------
	BYTE	W96
// 002   ----------------------------------------
	BYTE	W96
// 003   ----------------------------------------
	BYTE	W96
// 004   ----------------------------------------
	BYTE	W96
// 005   ----------------------------------------
	BYTE	W96
// 006   ----------------------------------------
fountainofdreams_6_006:
	BYTE		N20     Cn2   v076
	BYTE	W24
	BYTE		N11     Gn1 
	BYTE	W12
	BYTE		N20     Cn2 
	BYTE	W24
	BYTE		N11     Gn1 
	BYTE	W12
	BYTE		N20     Cn2 
	BYTE	W24
	BYTE	PEND
// 007   ----------------------------------------
fountainofdreams_6_007:
	BYTE		N11     Gn1   v076
	BYTE	W12
	BYTE		N20     Cn2 
	BYTE	W24
	BYTE		N11     Gn1 
	BYTE	W12
	BYTE		N20     Cn2 
	BYTE	W24
	BYTE		        Gn1 
	BYTE	W24
	BYTE	PEND
// 008   ----------------------------------------
	BYTE	PATT
	 POIN2	fountainofdreams_6_006
// 009   ----------------------------------------
	BYTE	PATT
	 POIN2	fountainofdreams_6_007
// 010   ----------------------------------------
	BYTE	PATT
	 POIN2	fountainofdreams_6_006
// 011   ----------------------------------------
fountainofdreams_6_011:
	BYTE		N11     Gn1   v076
	BYTE	W12
	BYTE		N20     Cn2 
	BYTE	W24
	BYTE		N11     Gn1 
	BYTE	W12
	BYTE		N20     Cn2 
	BYTE	W24
	BYTE		        As1 
	BYTE	W24
	BYTE	PEND
// 012   ----------------------------------------
fountainofdreams_6_012:
	BYTE		N20     Gs1   v076
	BYTE	W24
	BYTE		N11   
	BYTE	W12
	BYTE		N54   
	BYTE	W60
	BYTE	PEND
// 013   ----------------------------------------
fountainofdreams_6_013:
	BYTE		N20     Ds2   v076
	BYTE	W24
	BYTE		        Dn2 
	BYTE	W24
	BYTE		        Gn2 
	BYTE	W24
	BYTE		        Gn1 
	BYTE	W24
	BYTE	PEND
// 014   ----------------------------------------
	BYTE	PATT
	 POIN2	fountainofdreams_6_006
// 015   ----------------------------------------
	BYTE	PATT
	 POIN2	fountainofdreams_6_007
// 016   ----------------------------------------
	BYTE		N32     Gs1   v076
	BYTE	W36
	BYTE		N11   
	BYTE	W12
	BYTE		N42     Gn1 
	BYTE	W48
// 017   ----------------------------------------
	BYTE		N20     Cn2 
	BYTE	W24
	BYTE		        Gn1 
	BYTE	W24
	BYTE		        Cn2 
	BYTE	W24
	BYTE		        Gn2 
	BYTE	W24
// 018   ----------------------------------------
	BYTE	PATT
	 POIN2	fountainofdreams_6_006
// 019   ----------------------------------------
	BYTE	PATT
	 POIN2	fountainofdreams_6_011
// 020   ----------------------------------------
	BYTE	PATT
	 POIN2	fountainofdreams_6_012
// 021   ----------------------------------------
	BYTE	PATT
	 POIN2	fountainofdreams_6_013
// 022   ----------------------------------------
	BYTE	PATT
	 POIN2	fountainofdreams_6_006
// 023   ----------------------------------------
	BYTE	PATT
	 POIN2	fountainofdreams_6_007
// 024   ----------------------------------------
	BYTE		N32     Gs2   v076
	BYTE	W36
	BYTE		N11     Gs1 
	BYTE	W12
	BYTE		N42     Gn2 
	BYTE	W48
// 025   ----------------------------------------
	BYTE		N20     Cn2   v108
	BYTE	W24
	BYTE		        Ds2 
	BYTE	W24
	BYTE		        Cn2 
	BYTE	W24
	BYTE		        Gn1 
	BYTE	W24
// 026   ----------------------------------------
fountainofdreams_6_026:
	BYTE		N20     Fn1   v127
	BYTE	W24
	BYTE		N20   
	BYTE	W24
	BYTE		        Gs1 
	BYTE	W24
	BYTE		        Cn2 
	BYTE	W24
	BYTE	PEND
// 027   ----------------------------------------
fountainofdreams_6_027:
	BYTE		N20     Ds2   v127
	BYTE	W24
	BYTE		        Dn2 
	BYTE	W24
	BYTE		        Cn2 
	BYTE	W24
	BYTE		        Gn1 
	BYTE	W24
	BYTE	PEND
// 028   ----------------------------------------
	BYTE	PATT
	 POIN2	fountainofdreams_6_026
// 029   ----------------------------------------
fountainofdreams_6_029:
	BYTE		N20     Ds2   v127
	BYTE	W24
	BYTE		        Fn2 
	BYTE	W24
	BYTE		        Gn2 
	BYTE	W48
	BYTE	PEND
// 030   ----------------------------------------
	BYTE	W96
// 031   ----------------------------------------
	BYTE	W96
// 032   ----------------------------------------
	BYTE	W96
// 033   ----------------------------------------
	BYTE	W96
// 034   ----------------------------------------
	BYTE	PATT
	 POIN2	fountainofdreams_6_026
// 035   ----------------------------------------
	BYTE	PATT
	 POIN2	fountainofdreams_6_027
// 036   ----------------------------------------
	BYTE	PATT
	 POIN2	fountainofdreams_6_026
// 037   ----------------------------------------
	BYTE	PATT
	 POIN2	fountainofdreams_6_029
// 038   ----------------------------------------
	BYTE		N11     Fn1   v048
	BYTE	W12
	BYTE		        Cn2 
	BYTE	W12
	BYTE		        Fn1 
	BYTE	W12
	BYTE		        Cn2 
	BYTE	W12
	BYTE		        Fn1 
	BYTE	W12
	BYTE		        Cn2 
	BYTE	W12
	BYTE		        Fn1 
	BYTE	W12
	BYTE		        As1 
	BYTE	W12
// 039   ----------------------------------------
	BYTE		        Cn2 
	BYTE	W12
	BYTE		        Gn1 
	BYTE	W12
	BYTE		        Cn2 
	BYTE	W12
	BYTE		        Gn1 
	BYTE	W12
	BYTE		        Cn2 
	BYTE	W12
	BYTE		        Gn1 
	BYTE	W12
	BYTE		        Cn2 
	BYTE	W12
	BYTE		        Gn1 
	BYTE	W12
// 040   ----------------------------------------
	BYTE		        As1 
	BYTE	W12
	BYTE		        Fn2 
	BYTE	W12
	BYTE		        As1 
	BYTE	W12
	BYTE		        Fn2 
	BYTE	W12
	BYTE		        As1 
	BYTE	W12
	BYTE		        Fn2 
	BYTE	W12
	BYTE		        Dn2 
	BYTE	W12
	BYTE		N05     Cn2 
	BYTE	W06
	BYTE		        As1 
	BYTE	W06
// 041   ----------------------------------------
	BYTE		N66     Cn2 
	BYTE	W96
// 042   ----------------------------------------
	BYTE		N20     Ds2   v092
	BYTE	W60
	BYTE		N32   
	BYTE	W36
// 043   ----------------------------------------
	BYTE		N20     Dn2 
	BYTE	W60
	BYTE		N32   
	BYTE	W36
// 044   ----------------------------------------
	BYTE		N20     Cn2 
	BYTE	W60
	BYTE		N32   
	BYTE	W36
// 045   ----------------------------------------
	BYTE		N20     As1 
	BYTE	W60
	BYTE		N32   
	BYTE	W36
// 046   ----------------------------------------
	BYTE		N20     Gs1 
	BYTE	W60
	BYTE		N32   
	BYTE	W36
// 047   ----------------------------------------
	BYTE		N20     Cn2 
	BYTE	W24
	BYTE		        Dn2 
	BYTE	W24
	BYTE		        Ds2 
	BYTE	W24
	BYTE		        Gn2   v060
	BYTE	W24
// 048   ----------------------------------------
	BYTE		        Gs2 
	BYTE	W60
	BYTE		N32     Bn2 
	BYTE	W36
// 049   ----------------------------------------
	BYTE		N20     As2 
	BYTE	W48
	BYTE		N20   
	BYTE	W24
	BYTE		        As2   v108
	BYTE	W24
// 050   ----------------------------------------
	BYTE		        Ds2 
	BYTE	W60
	BYTE		N32     Ds2   v127
	BYTE	W36
// 051   ----------------------------------------
	BYTE		N20     Dn2   v108
	BYTE	W60
	BYTE		N32   
	BYTE	W36
// 052   ----------------------------------------
	BYTE		N20     Cn2 
	BYTE	W60
	BYTE		N32   
	BYTE	W36
// 053   ----------------------------------------
	BYTE		N20     As1 
	BYTE	W60
	BYTE		N32   
	BYTE	W36
// 054   ----------------------------------------
	BYTE		N20     Gs1 
	BYTE	W60
	BYTE		N32   
	BYTE	W36
// 055   ----------------------------------------
	BYTE		N20     Gn1 
	BYTE	W60
	BYTE		N32     As1 
	BYTE	W36
// 056   ----------------------------------------
	BYTE		N42     Gn1 
	BYTE	W48
	BYTE		N42   
	BYTE	W48
// 057   ----------------------------------------
	BYTE		N11   
	BYTE	W12
	BYTE		N05     Fs2 
	BYTE	W06
	BYTE		        Ds2 
	BYTE	W06
	BYTE		        Dn2 
	BYTE	W06
	BYTE		        Cn2 
	BYTE	W06
	BYTE		        Bn1 
	BYTE	W06
	BYTE		        Gs1 
	BYTE	W06
	BYTE		N42     Gn1 
	BYTE	W48
// 058   ----------------------------------------
	BYTE	W96
// 059   ----------------------------------------
	BYTE	W96
// 060   ----------------------------------------
	BYTE	W96
// 061   ----------------------------------------
	BYTE	W96
// 062   ----------------------------------------
	BYTE	W96
// 063   ----------------------------------------
	BYTE	W96
// 064   ----------------------------------------
	BYTE	W96
// 065   ----------------------------------------
	BYTE	W96
// 066   ----------------------------------------
	BYTE	W96
// 067   ----------------------------------------
	BYTE	W96
// 068   ----------------------------------------
	BYTE	W96
	BYTE	W24
// 069   ----------------------------------------
	BYTE		N11     Cn2 
	BYTE	W12
	BYTE		N11   
	BYTE	W12
	BYTE		N11   
	BYTE	W12
	BYTE		N20   
	BYTE	W24
	BYTE		N32     Gs1 
	BYTE	W36
// 070   ----------------------------------------
	BYTE		N20     Gn1 
	BYTE	W36
	BYTE		N20   
	BYTE	W24
	BYTE		N11   
	BYTE	W12
	BYTE		N20   
	BYTE	W24
// 071   ----------------------------------------
	BYTE		N90     Cn2 
	BYTE	W90
	BYTE	FINE

//**************** Track 7 (Midi-Chn.6) ****************//

fountainofdreams_7:
	BYTE	KEYSH   fountainofdreams_key+0
// 000   ----------------------------------------
	BYTE		VOICE   68
	BYTE		VOL     127*fountainofdreams_mvl/mxv
	BYTE		PAN     c_v+0
	BYTE		N90     Ds3   v048
	BYTE	W96
// 001   ----------------------------------------
	BYTE		        Dn3 
	BYTE	W96
// 002   ----------------------------------------
	BYTE		        Cn3 
	BYTE	W96
// 003   ----------------------------------------
	BYTE		TIE     Dn3 
	BYTE	W96
// 004   ----------------------------------------
	BYTE	W96
// 005   ----------------------------------------
	BYTE	W90
	BYTE		EOT   
	BYTE	W06
// 006   ----------------------------------------
	BYTE		N20     Ds3   v064
	BYTE	W96
// 007   ----------------------------------------
	BYTE	W96
// 008   ----------------------------------------
	BYTE	W96
// 009   ----------------------------------------
	BYTE	W96
// 010   ----------------------------------------
	BYTE	W96
// 011   ----------------------------------------
	BYTE	W96
// 012   ----------------------------------------
	BYTE	W96
// 013   ----------------------------------------
	BYTE	W96
// 014   ----------------------------------------
	BYTE	W96
// 015   ----------------------------------------
	BYTE	W72
	BYTE		N11     Cn4   v048
	BYTE	W12
	BYTE		        Dn4 
	BYTE	W12
// 016   ----------------------------------------
	BYTE		N20     Ds4 
	BYTE	W24
	BYTE		        Fn4 
	BYTE	W24
	BYTE		        Dn4 
	BYTE	W24
	BYTE		        As3 
	BYTE	W24
// 017   ----------------------------------------
	BYTE		N66     Cn4 
	BYTE	W96
// 018   ----------------------------------------
	BYTE	W96
// 019   ----------------------------------------
	BYTE	W96
// 020   ----------------------------------------
	BYTE		N20   
	BYTE	W24
	BYTE		        Dn4 
	BYTE	W24
	BYTE		        Ds4 
	BYTE	W24
	BYTE		        Cn4 
	BYTE	W24
// 021   ----------------------------------------
	BYTE		        As3 
	BYTE	W24
	BYTE		        Cn4 
	BYTE	W24
	BYTE		        Gn3 
	BYTE	W48
// 022   ----------------------------------------
	BYTE	W96
// 023   ----------------------------------------
	BYTE	W96
// 024   ----------------------------------------
	BYTE	W96
// 025   ----------------------------------------
	BYTE	W96
// 026   ----------------------------------------
	BYTE	W96
// 027   ----------------------------------------
	BYTE	W96
// 028   ----------------------------------------
	BYTE	W96
// 029   ----------------------------------------
	BYTE	W96
// 030   ----------------------------------------
	BYTE		N32     Gs4   v060
	BYTE	W36
	BYTE		N11     Gn4 
	BYTE	W12
	BYTE		N20     Fn4 
	BYTE	W24
	BYTE		N11     Ds4 
	BYTE	W12
	BYTE		        Fn4 
	BYTE	W12
// 031   ----------------------------------------
	BYTE		N20     Gn4 
	BYTE	W24
	BYTE		        Cn4 
	BYTE	W24
	BYTE		N42     Gn4 
	BYTE	W48
// 032   ----------------------------------------
	BYTE		N11     Fn4 
	BYTE	W12
	BYTE		N05   
	BYTE	W06
	BYTE		N05   
	BYTE	W06
	BYTE		N11   
	BYTE	W12
	BYTE		        Ds4 
	BYTE	W12
	BYTE		N20     Dn4 
	BYTE	W24
	BYTE		N11     Ds4 
	BYTE	W12
	BYTE		        Fn4 
	BYTE	W12
// 033   ----------------------------------------
	BYTE		N20     Ds4 
	BYTE	W24
	BYTE		        Fn4 
	BYTE	W24
	BYTE		        Gn4 
	BYTE	W24
	BYTE		        Ds4 
	BYTE	W24
// 034   ----------------------------------------
	BYTE	W96
// 035   ----------------------------------------
	BYTE	W96
// 036   ----------------------------------------
	BYTE	W96
// 037   ----------------------------------------
	BYTE	W96
// 038   ----------------------------------------
	BYTE		N42     Fn3 
	BYTE	W48
	BYTE		        Cn3 
	BYTE	W48
// 039   ----------------------------------------
	BYTE		N20     Ds3 
	BYTE	W24
	BYTE		N11   
	BYTE	W12
	BYTE		        Dn3 
	BYTE	W12
	BYTE		N20     Cn3 
	BYTE	W24
	BYTE		        As3 
	BYTE	W24
// 040   ----------------------------------------
	BYTE		N42     Fn3 
	BYTE	W48
	BYTE		N20     As3 
	BYTE	W24
	BYTE		N11     Dn4 
	BYTE	W12
	BYTE		N05     Cn4 
	BYTE	W06
	BYTE		        As3 
	BYTE	W06
// 041   ----------------------------------------
	BYTE		N66     Cn4 
	BYTE	W96
// 042   ----------------------------------------
	BYTE	W96
// 043   ----------------------------------------
	BYTE	W96
// 044   ----------------------------------------
	BYTE	W96
// 045   ----------------------------------------
	BYTE	W96
// 046   ----------------------------------------
	BYTE	W96
// 047   ----------------------------------------
	BYTE	W96
// 048   ----------------------------------------
	BYTE	W96
// 049   ----------------------------------------
	BYTE		N20     As3   v092
	BYTE	W24
	BYTE		        Cn4 
	BYTE	W24
	BYTE		        Dn4   v100
	BYTE	W24
	BYTE		        As3   v108
	BYTE	W24
// 050   ----------------------------------------
	BYTE		N17     Ds4 
	BYTE	W18
	BYTE		N05   
	BYTE	W06
	BYTE		N11   
	BYTE	W12
	BYTE		        Fn4 
	BYTE	W12
	BYTE		        Gn4 
	BYTE	W12
	BYTE		N11   
	BYTE	W12
	BYTE		        Fn4 
	BYTE	W12
	BYTE		        Ds4 
	BYTE	W12
// 051   ----------------------------------------
	BYTE		N17     Dn4 
	BYTE	W18
	BYTE		N05   
	BYTE	W06
	BYTE		N11   
	BYTE	W12
	BYTE		        Ds4 
	BYTE	W12
	BYTE		N42     Dn4 
	BYTE	W48
// 052   ----------------------------------------
	BYTE		N17     Cn4 
	BYTE	W18
	BYTE		N05   
	BYTE	W06
	BYTE		N11   
	BYTE	W12
	BYTE		        Dn4 
	BYTE	W12
	BYTE		        Ds4 
	BYTE	W12
	BYTE		N11   
	BYTE	W12
	BYTE		        Dn4 
	BYTE	W12
	BYTE		        Cn4 
	BYTE	W12
// 053   ----------------------------------------
	BYTE		N17     As3 
	BYTE	W18
	BYTE		N05   
	BYTE	W06
	BYTE		N11   
	BYTE	W12
	BYTE		        Cn4 
	BYTE	W12
	BYTE		N42     Dn4 
	BYTE	W48
// 054   ----------------------------------------
	BYTE		N17     Gs3 
	BYTE	W18
	BYTE		N05   
	BYTE	W06
	BYTE		N11   
	BYTE	W12
	BYTE		        As3 
	BYTE	W12
	BYTE		        Cn4 
	BYTE	W12
	BYTE		N11   
	BYTE	W12
	BYTE		        Ds4 
	BYTE	W12
	BYTE		        Fn4 
	BYTE	W12
// 055   ----------------------------------------
	BYTE		N17     Gn4 
	BYTE	W18
	BYTE		N05   
	BYTE	W06
	BYTE		N11   
	BYTE	W12
	BYTE		        As4 
	BYTE	W12
	BYTE		        Gn4 
	BYTE	W12
	BYTE		N11   
	BYTE	W12
	BYTE		        Fn4 
	BYTE	W12
	BYTE		        Ds4 
	BYTE	W12
// 056   ----------------------------------------
	BYTE		N32     Gn4 
	BYTE	W36
	BYTE		N05   
	BYTE	W06
	BYTE		N05   
	BYTE	W06
	BYTE		N32   
	BYTE	W36
	BYTE		N05   
	BYTE	W06
	BYTE		N05   
	BYTE	W06
// 057   ----------------------------------------
	BYTE		N90   
	BYTE	W96
// 058   ----------------------------------------
	BYTE	W96
// 059   ----------------------------------------
	BYTE	W96
// 060   ----------------------------------------
	BYTE	W96
// 061   ----------------------------------------
	BYTE	W96
// 062   ----------------------------------------
	BYTE	W96
// 063   ----------------------------------------
	BYTE	W96
// 064   ----------------------------------------
	BYTE	W96
// 065   ----------------------------------------
	BYTE	W96
// 066   ----------------------------------------
	BYTE	W96
// 067   ----------------------------------------
	BYTE	W96
// 068   ----------------------------------------
	BYTE	W96
	BYTE	W24
// 069   ----------------------------------------
	BYTE		N11     En3 
	BYTE	W12
	BYTE		N11   
	BYTE	W12
	BYTE		N11   
	BYTE	W12
	BYTE		N20     Fn3 
	BYTE	W24
	BYTE		N32     Fs3 
	BYTE	W36
// 070   ----------------------------------------
	BYTE		N20     Gn3 
	BYTE	W36
	BYTE		N20   
	BYTE	W24
	BYTE		N11     Fn3 
	BYTE	W12
	BYTE		N20     Ds3 
	BYTE	W24
// 071   ----------------------------------------
	BYTE		N90     Cn3 
	BYTE	W90
	BYTE	FINE

//**************** Track 8 (Midi-Chn.3) ****************//

fountainofdreams_8:
	BYTE	KEYSH   fountainofdreams_key+0
// 000   ----------------------------------------
	BYTE		VOICE   70
	BYTE		VOL     127*fountainofdreams_mvl/mxv
	BYTE		PAN     c_v+0
	BYTE	W96
// 001   ----------------------------------------
	BYTE	W96
// 002   ----------------------------------------
	BYTE	W96
// 003   ----------------------------------------
	BYTE	W96
// 004   ----------------------------------------
	BYTE	W96
// 005   ----------------------------------------
	BYTE	W96
// 006   ----------------------------------------
	BYTE	W96
// 007   ----------------------------------------
	BYTE	W96
// 008   ----------------------------------------
	BYTE	W96
// 009   ----------------------------------------
	BYTE	W96
// 010   ----------------------------------------
fountainofdreams_8_010:
	BYTE		N20     Cn2   v076
	BYTE	W24
	BYTE		N11     Gn1 
	BYTE	W12
	BYTE		N20     Cn2 
	BYTE	W24
	BYTE		N11     Gn1 
	BYTE	W12
	BYTE		N20     Cn2 
	BYTE	W24
	BYTE	PEND
// 011   ----------------------------------------
fountainofdreams_8_011:
	BYTE		N11     Gn1   v076
	BYTE	W12
	BYTE		N20     Cn2 
	BYTE	W24
	BYTE		N11     Gn1 
	BYTE	W12
	BYTE		N20     Cn2 
	BYTE	W24
	BYTE		        As1 
	BYTE	W24
	BYTE	PEND
// 012   ----------------------------------------
fountainofdreams_8_012:
	BYTE		N20     Gs1   v076
	BYTE	W24
	BYTE		N11   
	BYTE	W12
	BYTE		N54   
	BYTE	W60
	BYTE	PEND
// 013   ----------------------------------------
fountainofdreams_8_013:
	BYTE		N20     Ds2   v076
	BYTE	W24
	BYTE		        Dn2 
	BYTE	W24
	BYTE		        Gn2 
	BYTE	W24
	BYTE		        Gn1 
	BYTE	W24
	BYTE	PEND
// 014   ----------------------------------------
	BYTE	PATT
	 POIN2	fountainofdreams_8_010
// 015   ----------------------------------------
fountainofdreams_8_015:
	BYTE		N11     Gn1   v076
	BYTE	W12
	BYTE		N20     Cn2 
	BYTE	W24
	BYTE		N11     Gn1 
	BYTE	W12
	BYTE		N20     Cn2 
	BYTE	W24
	BYTE		        Gn1 
	BYTE	W24
	BYTE	PEND
// 016   ----------------------------------------
	BYTE		N32     Gs1 
	BYTE	W36
	BYTE		N11   
	BYTE	W12
	BYTE		N42     Gn1 
	BYTE	W48
// 017   ----------------------------------------
	BYTE		N20     Cn1 
	BYTE	W24
	BYTE		        Gn1 
	BYTE	W24
	BYTE		        Cn2 
	BYTE	W24
	BYTE		        Gn2 
	BYTE	W24
// 018   ----------------------------------------
	BYTE	PATT
	 POIN2	fountainofdreams_8_010
// 019   ----------------------------------------
	BYTE	PATT
	 POIN2	fountainofdreams_8_011
// 020   ----------------------------------------
	BYTE	PATT
	 POIN2	fountainofdreams_8_012
// 021   ----------------------------------------
	BYTE	PATT
	 POIN2	fountainofdreams_8_013
// 022   ----------------------------------------
	BYTE	PATT
	 POIN2	fountainofdreams_8_010
// 023   ----------------------------------------
	BYTE	PATT
	 POIN2	fountainofdreams_8_015
// 024   ----------------------------------------
	BYTE		N42     Gs1   v076
	BYTE	W48
	BYTE		        Gn1 
	BYTE	W48
// 025   ----------------------------------------
	BYTE		N20     Cn2   v108
	BYTE	W24
	BYTE		        Ds2 
	BYTE	W24
	BYTE		        Cn2 
	BYTE	W24
	BYTE		        Gn1 
	BYTE	W24
// 026   ----------------------------------------
	BYTE		        Fn1   v127
	BYTE	W24
	BYTE		N20   
	BYTE	W24
	BYTE		        Gs1 
	BYTE	W24
	BYTE		        Cn2 
	BYTE	W24
// 027   ----------------------------------------
fountainofdreams_8_027:
	BYTE		N20     Ds1   v127
	BYTE	W24
	BYTE		        Dn1 
	BYTE	W24
	BYTE		        Cn1 
	BYTE	W24
	BYTE		        Gn1 
	BYTE	W24
	BYTE	PEND
// 028   ----------------------------------------
fountainofdreams_8_028:
	BYTE		N20     Fn1   v127
	BYTE	W24
	BYTE		N20   
	BYTE	W24
	BYTE		        Gs1 
	BYTE	W24
	BYTE		        Cn1 
	BYTE	W24
	BYTE	PEND
// 029   ----------------------------------------
fountainofdreams_8_029:
	BYTE		N20     Ds1   v127
	BYTE	W24
	BYTE		        Fn1 
	BYTE	W24
	BYTE		        Gn1 
	BYTE	W48
	BYTE	PEND
// 030   ----------------------------------------
	BYTE	W96
// 031   ----------------------------------------
	BYTE	W96
// 032   ----------------------------------------
	BYTE	W96
// 033   ----------------------------------------
	BYTE	W96
// 034   ----------------------------------------
	BYTE	PATT
	 POIN2	fountainofdreams_8_028
// 035   ----------------------------------------
	BYTE	PATT
	 POIN2	fountainofdreams_8_027
// 036   ----------------------------------------
	BYTE	PATT
	 POIN2	fountainofdreams_8_028
// 037   ----------------------------------------
	BYTE	PATT
	 POIN2	fountainofdreams_8_029
// 038   ----------------------------------------
	BYTE		N90     Gs2   v048
	BYTE	W96
// 039   ----------------------------------------
	BYTE		        Ds3 
	BYTE	W96
// 040   ----------------------------------------
	BYTE		N80     Dn3 
	BYTE	W84
	BYTE		N05     Cn3 
	BYTE	W06
	BYTE		        As2 
	BYTE	W06
// 041   ----------------------------------------
	BYTE		N66     Cn3 
	BYTE	W96
// 042   ----------------------------------------
	BYTE		N20     Ds1   v092
	BYTE	W60
	BYTE		N32   
	BYTE	W36
// 043   ----------------------------------------
	BYTE		N20     Dn1 
	BYTE	W60
	BYTE		N32   
	BYTE	W36
// 044   ----------------------------------------
	BYTE		N20     Cn1 
	BYTE	W60
	BYTE		N32   
	BYTE	W36
// 045   ----------------------------------------
	BYTE		N20     As1 
	BYTE	W60
	BYTE		N32   
	BYTE	W36
// 046   ----------------------------------------
	BYTE		N20     Gs1 
	BYTE	W60
	BYTE		N32   
	BYTE	W36
// 047   ----------------------------------------
	BYTE		N20     Cn1 
	BYTE	W24
	BYTE		        Dn1 
	BYTE	W24
	BYTE		        Ds1 
	BYTE	W24
	BYTE		        Gn1   v060
	BYTE	W24
// 048   ----------------------------------------
	BYTE		        Gs1 
	BYTE	W60
	BYTE		N32     Bn1 
	BYTE	W36
// 049   ----------------------------------------
	BYTE		N20     As1 
	BYTE	W48
	BYTE		N20   
	BYTE	W24
	BYTE		        As1   v108
	BYTE	W24
// 050   ----------------------------------------
	BYTE		        Ds1 
	BYTE	W60
	BYTE		N32     Ds1   v127
	BYTE	W36
// 051   ----------------------------------------
	BYTE		N20     Dn1   v108
	BYTE	W60
	BYTE		N32   
	BYTE	W36
// 052   ----------------------------------------
	BYTE		N20     Cn1 
	BYTE	W60
	BYTE		N32   
	BYTE	W36
// 053   ----------------------------------------
	BYTE		N20     As0 
	BYTE	W60
	BYTE		N32   
	BYTE	W36
// 054   ----------------------------------------
	BYTE		N20     Gs1 
	BYTE	W60
	BYTE		N32   
	BYTE	W36
// 055   ----------------------------------------
	BYTE		N20     Gn1 
	BYTE	W60
	BYTE		N32     As0 
	BYTE	W36
// 056   ----------------------------------------
	BYTE		N20     Ds1 
	BYTE	W96
// 057   ----------------------------------------
	BYTE		N11     Gn1 
	BYTE	W12
	BYTE		N05     Fs2 
	BYTE	W06
	BYTE		        Ds2 
	BYTE	W06
	BYTE		        Dn2 
	BYTE	W06
	BYTE		        Cn2 
	BYTE	W06
	BYTE		        Bn1 
	BYTE	W06
	BYTE		        Gs1 
	BYTE	W06
	BYTE		N42     Gn1 
	BYTE	W48
// 058   ----------------------------------------
	BYTE	W96
// 059   ----------------------------------------
	BYTE	W96
// 060   ----------------------------------------
	BYTE	W96
// 061   ----------------------------------------
	BYTE	W96
// 062   ----------------------------------------
	BYTE	W96
// 063   ----------------------------------------
	BYTE	W96
// 064   ----------------------------------------
	BYTE	W96
// 065   ----------------------------------------
	BYTE	W96
// 066   ----------------------------------------
	BYTE	W96
// 067   ----------------------------------------
	BYTE	W96
// 068   ----------------------------------------
	BYTE	W96
	BYTE	W24
// 069   ----------------------------------------
	BYTE		N11     Cn2 
	BYTE	W12
	BYTE		N11   
	BYTE	W12
	BYTE		N11   
	BYTE	W12
	BYTE		N20   
	BYTE	W24
	BYTE		N32     Gs1 
	BYTE	W36
// 070   ----------------------------------------
	BYTE		N20     Gn1 
	BYTE	W36
	BYTE		N20   
	BYTE	W24
	BYTE		N11   
	BYTE	W12
	BYTE		N20   
	BYTE	W24
// 071   ----------------------------------------
	BYTE		N90     Cn1 
	BYTE	W90
	BYTE	FINE

//**************** Track 9 (Midi-Chn.7) ****************//

fountainofdreams_9:
	BYTE	KEYSH   fountainofdreams_key+0
// 000   ----------------------------------------
	BYTE		VOICE   65
	BYTE		VOL     127*fountainofdreams_mvl/mxv
	BYTE		PAN     c_v+0
	BYTE		N42     Gn4   v076
	BYTE	W48
	BYTE		N20     Fn4 
	BYTE	W24
	BYTE		N17     Ds4 
	BYTE	W18
	BYTE		N02     As3 
	BYTE	W03
	BYTE		        Cn4 
	BYTE	W03
// 001   ----------------------------------------
	BYTE		N20     Dn4 
	BYTE	W24
	BYTE		        As3 
	BYTE	W24
	BYTE		N42     Gn3 
	BYTE	W48
// 002   ----------------------------------------
	BYTE		N20     Cn4 
	BYTE	W24
	BYTE		        Dn4 
	BYTE	W24
	BYTE		        Ds4 
	BYTE	W24
	BYTE		N11     Fn4 
	BYTE	W12
	BYTE		N03     Gn4 
	BYTE	W04
	BYTE		        Fn4 
	BYTE	W04
	BYTE		        Ds4 
	BYTE	W04
// 003   ----------------------------------------
	BYTE		TIE     Dn4 
	BYTE	W96
// 004   ----------------------------------------
	BYTE	W96
// 005   ----------------------------------------
	BYTE	W90
	BYTE		EOT   
	BYTE	W06
// 006   ----------------------------------------
	BYTE		N20     Cn4   v108
	BYTE	W96
// 007   ----------------------------------------
	BYTE	W96
// 008   ----------------------------------------
	BYTE	W96
// 009   ----------------------------------------
	BYTE	W96
// 010   ----------------------------------------
fountainofdreams_9_010:
	BYTE		N20     Cn4   v108
	BYTE	W48
	BYTE		        Gn3 
	BYTE	W48
	BYTE	PEND
// 011   ----------------------------------------
	BYTE	W96
// 012   ----------------------------------------
	BYTE	W96
// 013   ----------------------------------------
	BYTE	W96
// 014   ----------------------------------------
	BYTE	PATT
	 POIN2	fountainofdreams_9_010
// 015   ----------------------------------------
	BYTE	W96
// 016   ----------------------------------------
	BYTE	W96
// 017   ----------------------------------------
	BYTE	W96
// 018   ----------------------------------------
	BYTE	PATT
	 POIN2	fountainofdreams_9_010
// 019   ----------------------------------------
	BYTE	W96
// 020   ----------------------------------------
	BYTE	W96
// 021   ----------------------------------------
	BYTE	W96
// 022   ----------------------------------------
	BYTE	PATT
	 POIN2	fountainofdreams_9_010
// 023   ----------------------------------------
	BYTE	W72
	BYTE		N11     Cn4   v108
	BYTE	W12
	BYTE		        Dn4 
	BYTE	W12
// 024   ----------------------------------------
	BYTE		N20     Ds4 
	BYTE	W24
	BYTE		        Fn4 
	BYTE	W24
	BYTE		        Dn4 
	BYTE	W24
	BYTE		        As3 
	BYTE	W24
// 025   ----------------------------------------
	BYTE		N66     Cn4 
	BYTE	W96
// 026   ----------------------------------------
	BYTE	W96
// 027   ----------------------------------------
	BYTE	W96
// 028   ----------------------------------------
	BYTE	W96
// 029   ----------------------------------------
	BYTE	W96
// 030   ----------------------------------------
	BYTE		N90     Cn3   v048
	BYTE	W96
// 031   ----------------------------------------
	BYTE		N90   
	BYTE	W96
// 032   ----------------------------------------
	BYTE		        As2 
	BYTE	W96
// 033   ----------------------------------------
	BYTE		        Cn3 
	BYTE	W96
// 034   ----------------------------------------
	BYTE	W96
// 035   ----------------------------------------
	BYTE	W96
// 036   ----------------------------------------
	BYTE	W96
// 037   ----------------------------------------
	BYTE	W96
// 038   ----------------------------------------
	BYTE		N42     Fn3   v060
	BYTE	W48
	BYTE		        Cn3 
	BYTE	W48
// 039   ----------------------------------------
	BYTE		N20     Ds3 
	BYTE	W24
	BYTE		N11   
	BYTE	W12
	BYTE		        Dn3 
	BYTE	W12
	BYTE		N20     Cn3 
	BYTE	W24
	BYTE		        As2 
	BYTE	W24
// 040   ----------------------------------------
	BYTE		N42     Fn3 
	BYTE	W48
	BYTE		        As2 
	BYTE	W48
// 041   ----------------------------------------
	BYTE		N66     Cn3 
	BYTE	W96
// 042   ----------------------------------------
	BYTE	W96
// 043   ----------------------------------------
	BYTE	W96
// 044   ----------------------------------------
	BYTE	W96
// 045   ----------------------------------------
	BYTE	W96
// 046   ----------------------------------------
	BYTE	W96
// 047   ----------------------------------------
	BYTE	W96
// 048   ----------------------------------------
	BYTE	W96
// 049   ----------------------------------------
	BYTE		N20     As2   v092
	BYTE	W24
	BYTE		        Cn3 
	BYTE	W24
	BYTE		        Dn3   v100
	BYTE	W24
	BYTE		        Fn3   v108
	BYTE	W24
// 050   ----------------------------------------
	BYTE	W48
	BYTE		N32     As3   v127
	BYTE	W36
	BYTE		N11     Cn4 
	BYTE	W12
// 051   ----------------------------------------
	BYTE		N20     Dn4 
	BYTE	W24
	BYTE		        Cn4 
	BYTE	W24
	BYTE		        As3 
	BYTE	W24
	BYTE		        Gn3 
	BYTE	W24
// 052   ----------------------------------------
	BYTE		        Gs3 
	BYTE	W48
	BYTE		N42     Cn4 
	BYTE	W48
// 053   ----------------------------------------
	BYTE		N20     As3 
	BYTE	W48
	BYTE		N42     Dn4 
	BYTE	W48
// 054   ----------------------------------------
	BYTE		        Gs3 
	BYTE	W48
	BYTE		        Ds4 
	BYTE	W48
// 055   ----------------------------------------
	BYTE		N20     Cn3 
	BYTE	W24
	BYTE		        Ds3 
	BYTE	W24
	BYTE		        Gn3 
	BYTE	W24
	BYTE		        Cn4 
	BYTE	W24
// 056   ----------------------------------------
	BYTE		N42     Dn4 
	BYTE	W48
	BYTE		N42   
	BYTE	W48
// 057   ----------------------------------------
	BYTE		N90   
	BYTE	W96
// 058   ----------------------------------------
	BYTE		N20     Cn4   v048
	BYTE	W48
	BYTE		        Gn3 
	BYTE	W48
// 059   ----------------------------------------
	BYTE		        Ds3 
	BYTE	W24
	BYTE		        Dn3 
	BYTE	W24
	BYTE		        Cn3 
	BYTE	W48
// 060   ----------------------------------------
	BYTE		N20   
	BYTE	W24
	BYTE		        Dn3 
	BYTE	W24
	BYTE		        Ds3 
	BYTE	W24
	BYTE		        Cn3 
	BYTE	W24
// 061   ----------------------------------------
	BYTE		        As2 
	BYTE	W24
	BYTE		        Cn3 
	BYTE	W24
	BYTE		        Gn2 
	BYTE	W48
// 062   ----------------------------------------
fountainofdreams_9_062:
	BYTE		N05     Cn3   v032
	BYTE	W06
	BYTE		        Bn2 
	BYTE	W06
	BYTE		        Cn3 
	BYTE	W06
	BYTE		        Bn2 
	BYTE	W06
	BYTE		        Cn3 
	BYTE	W06
	BYTE		        Dn3 
	BYTE	W06
	BYTE		        Ds3 
	BYTE	W06
	BYTE		        Fn3 
	BYTE	W06
	BYTE		        Gn3 
	BYTE	W06
	BYTE		        Gs3 
	BYTE	W06
	BYTE		        Gn3 
	BYTE	W06
	BYTE		        Fn3 
	BYTE	W06
	BYTE		        Ds3 
	BYTE	W06
	BYTE		        Fn3 
	BYTE	W06
	BYTE		        Ds3 
	BYTE	W06
	BYTE		        Dn3 
	BYTE	W06
	BYTE	PEND
// 063   ----------------------------------------
	BYTE	PATT
	 POIN2	fountainofdreams_9_062
// 064   ----------------------------------------
	BYTE		N05     Bn2   v032
	BYTE	W06
	BYTE		        Cn3 
	BYTE	W06
	BYTE		        Bn2 
	BYTE	W06
	BYTE		        Cn3 
	BYTE	W06
	BYTE		        Bn2 
	BYTE	W06
	BYTE		        Cn3 
	BYTE	W06
	BYTE		        Dn3 
	BYTE	W06
	BYTE		        Ds3 
	BYTE	W06
	BYTE		        Fn3 
	BYTE	W06
	BYTE		        Gn3 
	BYTE	W06
	BYTE		        Gs3 
	BYTE	W06
	BYTE		        Gn3 
	BYTE	W06
	BYTE		        Gs3 
	BYTE	W06
	BYTE		        Bn3 
	BYTE	W06
	BYTE		        Cn4 
	BYTE	W06
	BYTE		        Dn4 
	BYTE	W06
// 065   ----------------------------------------
	BYTE		N20     Ds4 
	BYTE	W96
// 066   ----------------------------------------
	BYTE		N11     En3   v108
	BYTE	W12
	BYTE		N11   
	BYTE	W12
	BYTE		N11   
	BYTE	W12
	BYTE		N20     Fn3 
	BYTE	W24
	BYTE		N32     Fs3 
	BYTE	W36
// 067   ----------------------------------------
	BYTE		N20     Gn3   v127
	BYTE	W96
// 068   ----------------------------------------
	BYTE	W96
	BYTE	W24
// 069   ----------------------------------------
	BYTE		N11     Cn3   v108
	BYTE	W12
	BYTE		N11   
	BYTE	W12
	BYTE		N11   
	BYTE	W12
	BYTE		N20   
	BYTE	W24
	BYTE		N32     Gs2 
	BYTE	W36
// 070   ----------------------------------------
	BYTE		N20     Dn3 
	BYTE	W36
	BYTE		N20   
	BYTE	W24
	BYTE		N11   
	BYTE	W12
	BYTE		N20     As2 
	BYTE	W24
// 071   ----------------------------------------
	BYTE		N90     Gn2 
	BYTE	W90
	BYTE	FINE

//**************** Track 10 (Midi-Chn.8) ****************//

fountainofdreams_10:
	BYTE	KEYSH   fountainofdreams_key+0
// 000   ----------------------------------------
	BYTE		VOICE   66
	BYTE		VOL     127*fountainofdreams_mvl/mxv
	BYTE		PAN     c_v+0
	BYTE	W96
// 001   ----------------------------------------
	BYTE		N42     Gn3   v076
	BYTE	W48
	BYTE		N20     Ds3 
	BYTE	W24
	BYTE		N11     Dn3 
	BYTE	W12
	BYTE		N05     Ds3 
	BYTE	W06
	BYTE		        Dn3 
	BYTE	W06
// 002   ----------------------------------------
	BYTE		N90     Cn3 
	BYTE	W96
// 003   ----------------------------------------
	BYTE		N42     Gs3 
	BYTE	W48
	BYTE		N20     Gn3 
	BYTE	W24
	BYTE		N05   
	BYTE	W06
	BYTE		        Fs3 
	BYTE	W06
	BYTE		        Fn3 
	BYTE	W06
	BYTE		        Ds3 
	BYTE	W06
// 004   ----------------------------------------
	BYTE		TIE     Dn3 
	BYTE	W96
// 005   ----------------------------------------
	BYTE	W90
	BYTE		EOT   
	BYTE	W06
// 006   ----------------------------------------
	BYTE		N20     Cn3   v108
	BYTE	W96
// 007   ----------------------------------------
	BYTE	W96
// 008   ----------------------------------------
	BYTE	W96
// 009   ----------------------------------------
	BYTE	W96
// 010   ----------------------------------------
fountainofdreams_10_010:
	BYTE		N20     Gn3   v108
	BYTE	W48
	BYTE		        Ds3 
	BYTE	W48
	BYTE	PEND
// 011   ----------------------------------------
	BYTE	W96
// 012   ----------------------------------------
	BYTE	W96
// 013   ----------------------------------------
	BYTE	W96
// 014   ----------------------------------------
	BYTE	PATT
	 POIN2	fountainofdreams_10_010
// 015   ----------------------------------------
	BYTE	W96
// 016   ----------------------------------------
	BYTE	W96
// 017   ----------------------------------------
	BYTE	W96
// 018   ----------------------------------------
	BYTE	PATT
	 POIN2	fountainofdreams_10_010
// 019   ----------------------------------------
	BYTE	W96
// 020   ----------------------------------------
	BYTE	W96
// 021   ----------------------------------------
	BYTE	W96
// 022   ----------------------------------------
	BYTE	PATT
	 POIN2	fountainofdreams_10_010
// 023   ----------------------------------------
	BYTE	W72
	BYTE		N11     Cn3   v108
	BYTE	W12
	BYTE		        Dn3 
	BYTE	W12
// 024   ----------------------------------------
	BYTE		N20     Ds3 
	BYTE	W24
	BYTE		        Fn3 
	BYTE	W24
	BYTE		        Dn3 
	BYTE	W24
	BYTE		        As2 
	BYTE	W24
// 025   ----------------------------------------
	BYTE		        Cn2 
	BYTE	W24
	BYTE		        Ds2 
	BYTE	W24
	BYTE		        Cn2 
	BYTE	W24
	BYTE		        Gn2 
	BYTE	W24
// 026   ----------------------------------------
fountainofdreams_10_026:
	BYTE		N20     Fn2   v127
	BYTE	W24
	BYTE		N20   
	BYTE	W24
	BYTE		        Gs2 
	BYTE	W24
	BYTE		        Cn2 
	BYTE	W24
	BYTE	PEND
// 027   ----------------------------------------
fountainofdreams_10_027:
	BYTE		N20     Ds2   v127
	BYTE	W24
	BYTE		        Dn2 
	BYTE	W24
	BYTE		        Cn2 
	BYTE	W24
	BYTE		        Gn2 
	BYTE	W24
	BYTE	PEND
// 028   ----------------------------------------
	BYTE	PATT
	 POIN2	fountainofdreams_10_026
// 029   ----------------------------------------
fountainofdreams_10_029:
	BYTE		N20     Ds2   v127
	BYTE	W24
	BYTE		        Fn2 
	BYTE	W24
	BYTE		        Gn2 
	BYTE	W48
	BYTE	PEND
// 030   ----------------------------------------
	BYTE		N90     Gs3   v048
	BYTE	W96
// 031   ----------------------------------------
	BYTE		        Gn3 
	BYTE	W96
// 032   ----------------------------------------
	BYTE		        Dn3 
	BYTE	W96
// 033   ----------------------------------------
	BYTE		        Gn3 
	BYTE	W96
// 034   ----------------------------------------
	BYTE	PATT
	 POIN2	fountainofdreams_10_026
// 035   ----------------------------------------
	BYTE	PATT
	 POIN2	fountainofdreams_10_027
// 036   ----------------------------------------
	BYTE	PATT
	 POIN2	fountainofdreams_10_026
// 037   ----------------------------------------
	BYTE	PATT
	 POIN2	fountainofdreams_10_029
// 038   ----------------------------------------
	BYTE		N90     Gs2   v048
	BYTE	W96
// 039   ----------------------------------------
	BYTE		        Ds3 
	BYTE	W96
// 040   ----------------------------------------
	BYTE		N80     Dn3 
	BYTE	W84
	BYTE		N05     Cn3 
	BYTE	W06
	BYTE		        As2 
	BYTE	W06
// 041   ----------------------------------------
	BYTE		N66     Cn3 
	BYTE	W96
// 042   ----------------------------------------
	BYTE	W96
// 043   ----------------------------------------
	BYTE	W96
// 044   ----------------------------------------
	BYTE	W96
// 045   ----------------------------------------
	BYTE	W96
// 046   ----------------------------------------
	BYTE	W96
// 047   ----------------------------------------
	BYTE	W96
// 048   ----------------------------------------
	BYTE	W96
// 049   ----------------------------------------
	BYTE		N20     As2   v092
	BYTE	W24
	BYTE		        Cn3 
	BYTE	W24
	BYTE		        Dn3   v100
	BYTE	W24
	BYTE		        Dn3   v108
	BYTE	W24
// 050   ----------------------------------------
	BYTE		N17     Gn3 
	BYTE	W18
	BYTE		N05   
	BYTE	W06
	BYTE		N11   
	BYTE	W12
	BYTE		N11   
	BYTE	W12
	BYTE		        As3 
	BYTE	W12
	BYTE		N11   
	BYTE	W12
	BYTE		        Gn3 
	BYTE	W12
	BYTE		N11   
	BYTE	W12
// 051   ----------------------------------------
	BYTE		N17     Fn3 
	BYTE	W18
	BYTE		N05   
	BYTE	W06
	BYTE		N11   
	BYTE	W12
	BYTE		        Gn3 
	BYTE	W12
	BYTE		N42     Fn3 
	BYTE	W48
// 052   ----------------------------------------
	BYTE		N17     Ds3 
	BYTE	W18
	BYTE		N05   
	BYTE	W06
	BYTE		N11   
	BYTE	W12
	BYTE		N11   
	BYTE	W12
	BYTE		        Gn3 
	BYTE	W12
	BYTE		N11   
	BYTE	W12
	BYTE		        Ds3 
	BYTE	W12
	BYTE		N11   
	BYTE	W12
// 053   ----------------------------------------
	BYTE		N17   
	BYTE	W18
	BYTE		N05   
	BYTE	W06
	BYTE		N11   
	BYTE	W12
	BYTE		N11   
	BYTE	W12
	BYTE		N42     Fn3 
	BYTE	W48
// 054   ----------------------------------------
	BYTE		N17     Cn3 
	BYTE	W18
	BYTE		N05   
	BYTE	W06
	BYTE		N11   
	BYTE	W12
	BYTE		N11   
	BYTE	W12
	BYTE		        Ds3 
	BYTE	W12
	BYTE		N11   
	BYTE	W12
	BYTE		        Gn3 
	BYTE	W12
	BYTE		N11   
	BYTE	W12
// 055   ----------------------------------------
	BYTE		N17     As3 
	BYTE	W18
	BYTE		N05   
	BYTE	W06
	BYTE		N11   
	BYTE	W12
	BYTE		N11   
	BYTE	W12
	BYTE		N11   
	BYTE	W12
	BYTE		N11   
	BYTE	W12
	BYTE		        Gs3 
	BYTE	W12
	BYTE		N11   
	BYTE	W12
// 056   ----------------------------------------
	BYTE		N32     Cn4 
	BYTE	W36
	BYTE		N05   
	BYTE	W06
	BYTE		N05   
	BYTE	W06
	BYTE		N32   
	BYTE	W36
	BYTE		N05   
	BYTE	W06
	BYTE		N05   
	BYTE	W06
// 057   ----------------------------------------
	BYTE		N90     Bn3 
	BYTE	W96
// 058   ----------------------------------------
	BYTE	W96
// 059   ----------------------------------------
	BYTE	W96
// 060   ----------------------------------------
	BYTE	W96
// 061   ----------------------------------------
	BYTE	W96
// 062   ----------------------------------------
	BYTE	W96
// 063   ----------------------------------------
	BYTE	W96
// 064   ----------------------------------------
	BYTE	W96
// 065   ----------------------------------------
	BYTE	W96
// 066   ----------------------------------------
	BYTE		N11     Cn3 
	BYTE	W12
	BYTE		N11   
	BYTE	W12
	BYTE		N11   
	BYTE	W12
	BYTE		N20   
	BYTE	W24
	BYTE		N32     Gs2 
	BYTE	W36
// 067   ----------------------------------------
	BYTE		N20     Dn3   v127
	BYTE	W96
// 068   ----------------------------------------
	BYTE	W96
	BYTE	W24
// 069   ----------------------------------------
	BYTE		N11     En2   v108
	BYTE	W12
	BYTE		N11   
	BYTE	W12
	BYTE		N11   
	BYTE	W12
	BYTE		N20     Fn2 
	BYTE	W24
	BYTE		N32     Fs2 
	BYTE	W36
// 070   ----------------------------------------
	BYTE		N20     Gn2 
	BYTE	W36
	BYTE		        As2 
	BYTE	W24
	BYTE		N11   
	BYTE	W12
	BYTE		N20     Gn2 
	BYTE	W24
// 071   ----------------------------------------
	BYTE		N90     En2 
	BYTE	W90
	BYTE	FINE

//**************** Track 11 (Midi-Chn.9) ****************//

fountainofdreams_11:
	BYTE	KEYSH   fountainofdreams_key+0
// 000   ----------------------------------------
	BYTE		VOICE   67
	BYTE		VOL     127*fountainofdreams_mvl/mxv
	BYTE		PAN     c_v+0
	BYTE		N90     Cn3   v048
	BYTE	W96
// 001   ----------------------------------------
	BYTE		        As2 
	BYTE	W96
// 002   ----------------------------------------
	BYTE		        Gs2 
	BYTE	W96
// 003   ----------------------------------------
	BYTE		N96     As2 
	BYTE	W96
// 004   ----------------------------------------
	BYTE		TIE     Bn2 
	BYTE	W96
// 005   ----------------------------------------
	BYTE	W90
	BYTE		EOT   
	BYTE	W06
// 006   ----------------------------------------
fountainofdreams_11_006:
	BYTE		N20     Cn2   v076
	BYTE	W24
	BYTE		N11     Gn1 
	BYTE	W12
	BYTE		N20     Cn2 
	BYTE	W24
	BYTE		N11     Gn1 
	BYTE	W12
	BYTE		N20     Cn2 
	BYTE	W24
	BYTE	PEND
// 007   ----------------------------------------
fountainofdreams_11_007:
	BYTE		N11     Gn1   v076
	BYTE	W12
	BYTE		N20     Cn2 
	BYTE	W24
	BYTE		N11     Gn1 
	BYTE	W12
	BYTE		N20     Cn2 
	BYTE	W24
	BYTE		        Gn1 
	BYTE	W24
	BYTE	PEND
// 008   ----------------------------------------
	BYTE	PATT
	 POIN2	fountainofdreams_11_006
// 009   ----------------------------------------
	BYTE	PATT
	 POIN2	fountainofdreams_11_007
// 010   ----------------------------------------
	BYTE	PATT
	 POIN2	fountainofdreams_11_006
// 011   ----------------------------------------
fountainofdreams_11_011:
	BYTE		N11     Gn1   v076
	BYTE	W12
	BYTE		N20     Cn2 
	BYTE	W24
	BYTE		N11     Gn1 
	BYTE	W12
	BYTE		N20     Cn2 
	BYTE	W24
	BYTE		        As1 
	BYTE	W24
	BYTE	PEND
// 012   ----------------------------------------
fountainofdreams_11_012:
	BYTE		N20     Gs1   v076
	BYTE	W24
	BYTE		N11   
	BYTE	W12
	BYTE		N54   
	BYTE	W60
	BYTE	PEND
// 013   ----------------------------------------
fountainofdreams_11_013:
	BYTE		N20     Ds2   v076
	BYTE	W24
	BYTE		        Dn2 
	BYTE	W24
	BYTE		        Gn2 
	BYTE	W24
	BYTE		        Gn1 
	BYTE	W24
	BYTE	PEND
// 014   ----------------------------------------
	BYTE	PATT
	 POIN2	fountainofdreams_11_006
// 015   ----------------------------------------
	BYTE	PATT
	 POIN2	fountainofdreams_11_007
// 016   ----------------------------------------
	BYTE		N32     Gs1   v076
	BYTE	W36
	BYTE		N11   
	BYTE	W12
	BYTE		N42     Gn1 
	BYTE	W48
// 017   ----------------------------------------
	BYTE		N20     Cn1 
	BYTE	W24
	BYTE		        Gn1 
	BYTE	W24
	BYTE		        Cn2 
	BYTE	W24
	BYTE		        Gn2 
	BYTE	W24
// 018   ----------------------------------------
	BYTE	PATT
	 POIN2	fountainofdreams_11_006
// 019   ----------------------------------------
	BYTE	PATT
	 POIN2	fountainofdreams_11_011
// 020   ----------------------------------------
	BYTE	PATT
	 POIN2	fountainofdreams_11_012
// 021   ----------------------------------------
	BYTE	PATT
	 POIN2	fountainofdreams_11_013
// 022   ----------------------------------------
	BYTE	PATT
	 POIN2	fountainofdreams_11_006
// 023   ----------------------------------------
	BYTE	PATT
	 POIN2	fountainofdreams_11_007
// 024   ----------------------------------------
	BYTE		N32     Gs2   v076
	BYTE	W36
	BYTE		N11     Gs1 
	BYTE	W12
	BYTE		N42     Gn2 
	BYTE	W48
// 025   ----------------------------------------
	BYTE		N20     Cn2   v108
	BYTE	W24
	BYTE		        Ds2 
	BYTE	W24
	BYTE		        Cn2 
	BYTE	W24
	BYTE		        Gn1 
	BYTE	W24
// 026   ----------------------------------------
fountainofdreams_11_026:
	BYTE		N20     Fn1   v127
	BYTE	W24
	BYTE		N20   
	BYTE	W24
	BYTE		        Gs1 
	BYTE	W24
	BYTE		        Cn2 
	BYTE	W24
	BYTE	PEND
// 027   ----------------------------------------
fountainofdreams_11_027:
	BYTE		N20     Ds2   v127
	BYTE	W24
	BYTE		        Dn2 
	BYTE	W24
	BYTE		        Cn2 
	BYTE	W24
	BYTE		        Gn1 
	BYTE	W24
	BYTE	PEND
// 028   ----------------------------------------
	BYTE	PATT
	 POIN2	fountainofdreams_11_026
// 029   ----------------------------------------
fountainofdreams_11_029:
	BYTE		N20     Ds2   v127
	BYTE	W24
	BYTE		        Fn2 
	BYTE	W24
	BYTE		        Gn2 
	BYTE	W48
	BYTE	PEND
// 030   ----------------------------------------
	BYTE		N90     Fn1   v048
	BYTE	W96
// 031   ----------------------------------------
	BYTE		        Cn2 
	BYTE	W96
// 032   ----------------------------------------
	BYTE		        As1 
	BYTE	W96
// 033   ----------------------------------------
	BYTE		        Cn2 
	BYTE	W96
// 034   ----------------------------------------
	BYTE	PATT
	 POIN2	fountainofdreams_11_026
// 035   ----------------------------------------
	BYTE	PATT
	 POIN2	fountainofdreams_11_027
// 036   ----------------------------------------
	BYTE	PATT
	 POIN2	fountainofdreams_11_026
// 037   ----------------------------------------
	BYTE	PATT
	 POIN2	fountainofdreams_11_029
// 038   ----------------------------------------
	BYTE		N11     Fn1   v048
	BYTE	W12
	BYTE		        Cn2 
	BYTE	W12
	BYTE		        Fn1 
	BYTE	W12
	BYTE		        Cn2 
	BYTE	W12
	BYTE		        Fn1 
	BYTE	W12
	BYTE		        Cn2 
	BYTE	W12
	BYTE		        Fn1 
	BYTE	W12
	BYTE		        As1 
	BYTE	W12
// 039   ----------------------------------------
	BYTE		        Cn2 
	BYTE	W12
	BYTE		        Gn1 
	BYTE	W12
	BYTE		        Cn2 
	BYTE	W12
	BYTE		        Gn1 
	BYTE	W12
	BYTE		        Cn2 
	BYTE	W12
	BYTE		        Gn1 
	BYTE	W12
	BYTE		        Cn2 
	BYTE	W12
	BYTE		        Gn1 
	BYTE	W12
// 040   ----------------------------------------
	BYTE		        As1 
	BYTE	W12
	BYTE		        Fn2 
	BYTE	W12
	BYTE		        As1 
	BYTE	W12
	BYTE		        Fn2 
	BYTE	W12
	BYTE		        As1 
	BYTE	W12
	BYTE		        Fn2 
	BYTE	W12
	BYTE		        Dn2 
	BYTE	W12
	BYTE		N05     Cn2 
	BYTE	W06
	BYTE		        As1 
	BYTE	W06
// 041   ----------------------------------------
	BYTE		N66     Cn2 
	BYTE	W96
// 042   ----------------------------------------
	BYTE		N20     Ds2   v092
	BYTE	W60
	BYTE		N32   
	BYTE	W36
// 043   ----------------------------------------
	BYTE		N20     Dn2 
	BYTE	W60
	BYTE		N32   
	BYTE	W36
// 044   ----------------------------------------
	BYTE		N20     Cn2 
	BYTE	W60
	BYTE		N32   
	BYTE	W36
// 045   ----------------------------------------
	BYTE		N20     As1 
	BYTE	W60
	BYTE		N32   
	BYTE	W36
// 046   ----------------------------------------
	BYTE		N20     Gs1 
	BYTE	W60
	BYTE		N32   
	BYTE	W36
// 047   ----------------------------------------
	BYTE		N20     Cn2 
	BYTE	W24
	BYTE		        Dn2 
	BYTE	W24
	BYTE		        Ds2 
	BYTE	W24
	BYTE		        Gn2   v060
	BYTE	W24
// 048   ----------------------------------------
	BYTE		        Gs2 
	BYTE	W60
	BYTE		N32     Bn2 
	BYTE	W36
// 049   ----------------------------------------
	BYTE		N20     As2 
	BYTE	W48
	BYTE		N20   
	BYTE	W24
	BYTE		        As2   v108
	BYTE	W24
// 050   ----------------------------------------
	BYTE		        Ds2 
	BYTE	W60
	BYTE		N32   
	BYTE	W36
// 051   ----------------------------------------
	BYTE		N20     Dn2 
	BYTE	W60
	BYTE		N32   
	BYTE	W36
// 052   ----------------------------------------
	BYTE		N20     Cn2 
	BYTE	W60
	BYTE		N32   
	BYTE	W36
// 053   ----------------------------------------
	BYTE		N20     As1 
	BYTE	W60
	BYTE		N32   
	BYTE	W36
// 054   ----------------------------------------
	BYTE		N20     Gs1 
	BYTE	W60
	BYTE		N32   
	BYTE	W36
// 055   ----------------------------------------
	BYTE		N20     Gn1 
	BYTE	W60
	BYTE		N32     As1 
	BYTE	W36
// 056   ----------------------------------------
	BYTE		N42     Gn1 
	BYTE	W48
	BYTE		N42   
	BYTE	W48
// 057   ----------------------------------------
	BYTE		N11   
	BYTE	W12
	BYTE		N05     Fs2 
	BYTE	W06
	BYTE		        Ds2 
	BYTE	W06
	BYTE		        Dn2 
	BYTE	W06
	BYTE		        Cn2 
	BYTE	W06
	BYTE		        Bn1 
	BYTE	W06
	BYTE		        Gs1 
	BYTE	W06
	BYTE		N42     Gn1 
	BYTE	W48
// 058   ----------------------------------------
	BYTE	W96
// 059   ----------------------------------------
	BYTE	W96
// 060   ----------------------------------------
	BYTE	W96
// 061   ----------------------------------------
	BYTE	W96
// 062   ----------------------------------------
	BYTE	W96
// 063   ----------------------------------------
	BYTE	W96
// 064   ----------------------------------------
	BYTE	W96
// 065   ----------------------------------------
	BYTE	W96
// 066   ----------------------------------------
fountainofdreams_11_066:
	BYTE		N11     Cn2   v108
	BYTE	W12
	BYTE		N11   
	BYTE	W12
	BYTE		N11   
	BYTE	W12
	BYTE		N20   
	BYTE	W24
	BYTE		N32     Gs1 
	BYTE	W36
	BYTE	PEND
// 067   ----------------------------------------
	BYTE		N20     Gn1   v127
	BYTE	W96
// 068   ----------------------------------------
	BYTE	W96
	BYTE	W24
// 069   ----------------------------------------
	BYTE	PATT
	 POIN2	fountainofdreams_11_066
// 070   ----------------------------------------
	BYTE		N20     Gn1   v108
	BYTE	W36
	BYTE		N20   
	BYTE	W24
	BYTE		N11   
	BYTE	W12
	BYTE		N20   
	BYTE	W24
// 071   ----------------------------------------
	BYTE		N90     Cn2 
	BYTE	W90
	BYTE	FINE

//**************** Track 12 (Midi-Chn.13) ****************//

fountainofdreams_12:
	BYTE	KEYSH   fountainofdreams_key+0
// 000   ----------------------------------------
	BYTE		VOICE   60
	BYTE		VOL     127*fountainofdreams_mvl/mxv
	BYTE		PAN     c_v+0
	BYTE	W96
// 001   ----------------------------------------
	BYTE	W96
// 002   ----------------------------------------
	BYTE	W96
// 003   ----------------------------------------
	BYTE	W96
// 004   ----------------------------------------
	BYTE	W96
// 005   ----------------------------------------
	BYTE	W96
// 006   ----------------------------------------
	BYTE	W96
// 007   ----------------------------------------
	BYTE	W96
// 008   ----------------------------------------
	BYTE	W96
// 009   ----------------------------------------
	BYTE	W96
// 010   ----------------------------------------
fountainofdreams_12_010:
	BYTE		N20     Cn4   v108
	BYTE	W48
	BYTE		        Gn3 
	BYTE	W48
	BYTE	PEND
// 011   ----------------------------------------
	BYTE	W96
// 012   ----------------------------------------
	BYTE	W96
// 013   ----------------------------------------
	BYTE	W96
// 014   ----------------------------------------
	BYTE	PATT
	 POIN2	fountainofdreams_12_010
// 015   ----------------------------------------
	BYTE	W96
// 016   ----------------------------------------
	BYTE	W96
// 017   ----------------------------------------
	BYTE	W96
// 018   ----------------------------------------
	BYTE	PATT
	 POIN2	fountainofdreams_12_010
// 019   ----------------------------------------
	BYTE	W96
// 020   ----------------------------------------
	BYTE	W96
// 021   ----------------------------------------
	BYTE	W96
// 022   ----------------------------------------
	BYTE	PATT
	 POIN2	fountainofdreams_12_010
// 023   ----------------------------------------
	BYTE	W72
	BYTE		N11     Cn3   v108
	BYTE	W12
	BYTE		        Dn3 
	BYTE	W12
// 024   ----------------------------------------
	BYTE		N20     Ds3 
	BYTE	W24
	BYTE		        Fn3 
	BYTE	W24
	BYTE		        Dn3 
	BYTE	W24
	BYTE		        As2 
	BYTE	W24
// 025   ----------------------------------------
	BYTE		N66     Cn3 
	BYTE	W96
// 026   ----------------------------------------
	BYTE	W96
// 027   ----------------------------------------
	BYTE	W96
// 028   ----------------------------------------
	BYTE	W96
// 029   ----------------------------------------
	BYTE	W96
// 030   ----------------------------------------
	BYTE		N90     Fn3   v048
	BYTE	W96
// 031   ----------------------------------------
	BYTE		        Ds3 
	BYTE	W96
// 032   ----------------------------------------
	BYTE		        Fn3 
	BYTE	W96
// 033   ----------------------------------------
	BYTE		        Ds3 
	BYTE	W96
// 034   ----------------------------------------
	BYTE	W96
// 035   ----------------------------------------
	BYTE	W96
// 036   ----------------------------------------
	BYTE	W96
// 037   ----------------------------------------
	BYTE	W96
// 038   ----------------------------------------
	BYTE	W96
// 039   ----------------------------------------
	BYTE	W96
// 040   ----------------------------------------
	BYTE	W96
// 041   ----------------------------------------
	BYTE	W72
	BYTE		N20     Fn3   v092
	BYTE	W24
// 042   ----------------------------------------
	BYTE		N17     As3 
	BYTE	W18
	BYTE		N05   
	BYTE	W06
	BYTE		N11   
	BYTE	W12
	BYTE		N11   
	BYTE	W12
	BYTE		        Ds4 
	BYTE	W12
	BYTE		N11   
	BYTE	W12
	BYTE		        As3 
	BYTE	W12
	BYTE		N11   
	BYTE	W12
// 043   ----------------------------------------
	BYTE		N17   
	BYTE	W18
	BYTE		N05   
	BYTE	W06
	BYTE		N11   
	BYTE	W12
	BYTE		N11   
	BYTE	W12
	BYTE		N42   
	BYTE	W48
// 044   ----------------------------------------
	BYTE		N17     Ds3 
	BYTE	W18
	BYTE		N05   
	BYTE	W06
	BYTE		N11   
	BYTE	W12
	BYTE		N11   
	BYTE	W12
	BYTE		        Gn3 
	BYTE	W12
	BYTE		N11   
	BYTE	W12
	BYTE		        Ds3 
	BYTE	W12
	BYTE		N11   
	BYTE	W12
// 045   ----------------------------------------
	BYTE		N17   
	BYTE	W18
	BYTE		N05   
	BYTE	W06
	BYTE		N11   
	BYTE	W12
	BYTE		N11   
	BYTE	W12
	BYTE		N42     Fn3 
	BYTE	W48
// 046   ----------------------------------------
	BYTE		N17     Cn3 
	BYTE	W18
	BYTE		N05   
	BYTE	W06
	BYTE		N11   
	BYTE	W12
	BYTE		N11   
	BYTE	W12
	BYTE		        Ds3 
	BYTE	W12
	BYTE		N11   
	BYTE	W12
	BYTE		        Cn3 
	BYTE	W12
	BYTE		N11   
	BYTE	W12
// 047   ----------------------------------------
	BYTE		N17   
	BYTE	W18
	BYTE		N05     Ds3 
	BYTE	W06
	BYTE		N11     Gn3 
	BYTE	W12
	BYTE		N11   
	BYTE	W12
	BYTE		N20   
	BYTE	W48
// 048   ----------------------------------------
	BYTE	W96
// 049   ----------------------------------------
	BYTE	W72
	BYTE		        Dn3   v108
	BYTE	W24
// 050   ----------------------------------------
	BYTE		N17     Gn3 
	BYTE	W18
	BYTE		N05   
	BYTE	W06
	BYTE		N11   
	BYTE	W12
	BYTE		N11   
	BYTE	W12
	BYTE		        As3 
	BYTE	W12
	BYTE		N11   
	BYTE	W12
	BYTE		        Gn3 
	BYTE	W12
	BYTE		N11   
	BYTE	W12
// 051   ----------------------------------------
	BYTE		N17     Fn3 
	BYTE	W18
	BYTE		N05   
	BYTE	W06
	BYTE		N11   
	BYTE	W12
	BYTE		        Gn3 
	BYTE	W12
	BYTE		N42     Fn3 
	BYTE	W48
// 052   ----------------------------------------
	BYTE		N17     Ds3 
	BYTE	W18
	BYTE		N05   
	BYTE	W06
	BYTE		N11   
	BYTE	W12
	BYTE		N11   
	BYTE	W12
	BYTE		        Gn3 
	BYTE	W12
	BYTE		N11   
	BYTE	W12
	BYTE		        Ds3 
	BYTE	W12
	BYTE		N11   
	BYTE	W12
// 053   ----------------------------------------
	BYTE		N17   
	BYTE	W18
	BYTE		N05   
	BYTE	W06
	BYTE		N11   
	BYTE	W12
	BYTE		N11   
	BYTE	W12
	BYTE		N42     Fn3 
	BYTE	W48
// 054   ----------------------------------------
	BYTE		N17     Cn3 
	BYTE	W18
	BYTE		N05   
	BYTE	W06
	BYTE		N11   
	BYTE	W12
	BYTE		N11   
	BYTE	W12
	BYTE		        Ds3 
	BYTE	W12
	BYTE		N11   
	BYTE	W12
	BYTE		        Gn3 
	BYTE	W12
	BYTE		N11   
	BYTE	W12
// 055   ----------------------------------------
	BYTE		N17     As3 
	BYTE	W18
	BYTE		N05   
	BYTE	W06
	BYTE		N11   
	BYTE	W12
	BYTE		N11   
	BYTE	W12
	BYTE		N11   
	BYTE	W12
	BYTE		N11   
	BYTE	W12
	BYTE		        Gs3 
	BYTE	W12
	BYTE		N11   
	BYTE	W12
// 056   ----------------------------------------
	BYTE		N32     Cn4 
	BYTE	W36
	BYTE		N05   
	BYTE	W06
	BYTE		N05   
	BYTE	W06
	BYTE		N32   
	BYTE	W36
	BYTE		N05   
	BYTE	W06
	BYTE		N05   
	BYTE	W06
// 057   ----------------------------------------
	BYTE		N90     Bn3 
	BYTE	W96
// 058   ----------------------------------------
	BYTE	W96
// 059   ----------------------------------------
	BYTE	W96
// 060   ----------------------------------------
	BYTE	W96
// 061   ----------------------------------------
	BYTE	W96
// 062   ----------------------------------------
	BYTE	W96
// 063   ----------------------------------------
	BYTE	W96
// 064   ----------------------------------------
	BYTE	W96
// 065   ----------------------------------------
	BYTE	W96
// 066   ----------------------------------------
fountainofdreams_12_066:
	BYTE		N11     En3   v108
	BYTE	W12
	BYTE		N11   
	BYTE	W12
	BYTE		N11   
	BYTE	W12
	BYTE		N20     Fn3 
	BYTE	W24
	BYTE		N32     Fs3 
	BYTE	W36
	BYTE	PEND
// 067   ----------------------------------------
	BYTE		N20     Gn3   v127
	BYTE	W96
// 068   ----------------------------------------
	BYTE	W96
	BYTE	W24
// 069   ----------------------------------------
	BYTE	PATT
	 POIN2	fountainofdreams_12_066
// 070   ----------------------------------------
	BYTE		N20     Gn3   v108
	BYTE	W36
	BYTE		N20   
	BYTE	W24
	BYTE		N11     Fn3 
	BYTE	W12
	BYTE		N20     Ds3 
	BYTE	W24
// 071   ----------------------------------------
	BYTE		N90     Cn3 
	BYTE	W90
	BYTE	FINE

//**************** Track 13 (Midi-Chn.11) ****************//

fountainofdreams_13:
	BYTE	KEYSH   fountainofdreams_key+0
// 000   ----------------------------------------
	BYTE		VOICE   56
	BYTE		VOL     127*fountainofdreams_mvl/mxv
	BYTE		PAN     c_v+0
	BYTE	W96
// 001   ----------------------------------------
	BYTE	W96
// 002   ----------------------------------------
	BYTE	W96
// 003   ----------------------------------------
	BYTE	W96
// 004   ----------------------------------------
	BYTE	W96
// 005   ----------------------------------------
	BYTE	W96
// 006   ----------------------------------------
	BYTE	W96
// 007   ----------------------------------------
	BYTE	W96
// 008   ----------------------------------------
	BYTE	W96
// 009   ----------------------------------------
	BYTE	W96
// 010   ----------------------------------------
fountainofdreams_13_010:
	BYTE		N20     Cn4   v108
	BYTE	W48
	BYTE		        Gn3 
	BYTE	W48
	BYTE	PEND
// 011   ----------------------------------------
	BYTE	W96
// 012   ----------------------------------------
	BYTE	W96
// 013   ----------------------------------------
	BYTE	W96
// 014   ----------------------------------------
	BYTE	PATT
	 POIN2	fountainofdreams_13_010
// 015   ----------------------------------------
	BYTE	W96
// 016   ----------------------------------------
	BYTE	W96
// 017   ----------------------------------------
	BYTE	W96
// 018   ----------------------------------------
	BYTE	PATT
	 POIN2	fountainofdreams_13_010
// 019   ----------------------------------------
	BYTE	W96
// 020   ----------------------------------------
	BYTE	W96
// 021   ----------------------------------------
	BYTE	W96
// 022   ----------------------------------------
	BYTE	PATT
	 POIN2	fountainofdreams_13_010
// 023   ----------------------------------------
	BYTE	W72
	BYTE		N11     Cn4   v108
	BYTE	W12
	BYTE		        Dn4 
	BYTE	W12
// 024   ----------------------------------------
	BYTE		N20     Ds4 
	BYTE	W24
	BYTE		        Fn4 
	BYTE	W24
	BYTE		        Dn4 
	BYTE	W24
	BYTE		        As3 
	BYTE	W24
// 025   ----------------------------------------
	BYTE		N66     Cn4 
	BYTE	W96
// 026   ----------------------------------------
	BYTE	W96
// 027   ----------------------------------------
	BYTE	W96
// 028   ----------------------------------------
	BYTE	W96
// 029   ----------------------------------------
	BYTE	W96
// 030   ----------------------------------------
	BYTE		N32     Gs4   v060
	BYTE	W36
	BYTE		N11     Gn4 
	BYTE	W12
	BYTE		N20     Fn4 
	BYTE	W24
	BYTE		N11     Ds4 
	BYTE	W12
	BYTE		        Fn4 
	BYTE	W12
// 031   ----------------------------------------
	BYTE		N20     Gn4 
	BYTE	W24
	BYTE		        Cn4 
	BYTE	W24
	BYTE		N42     Gn4 
	BYTE	W48
// 032   ----------------------------------------
	BYTE		N11     Fn4 
	BYTE	W12
	BYTE		N05   
	BYTE	W06
	BYTE		N05   
	BYTE	W06
	BYTE		N11   
	BYTE	W12
	BYTE		        Ds4 
	BYTE	W12
	BYTE		N20     Dn4 
	BYTE	W24
	BYTE		N11     Ds4 
	BYTE	W12
	BYTE		        Fn4 
	BYTE	W12
// 033   ----------------------------------------
	BYTE		N20     Ds4 
	BYTE	W24
	BYTE		        Fn4 
	BYTE	W24
	BYTE		        Gn4 
	BYTE	W24
	BYTE		        Ds4 
	BYTE	W24
// 034   ----------------------------------------
	BYTE	W96
// 035   ----------------------------------------
	BYTE	W96
// 036   ----------------------------------------
	BYTE	W96
// 037   ----------------------------------------
	BYTE	W96
// 038   ----------------------------------------
	BYTE	W96
// 039   ----------------------------------------
	BYTE	W96
// 040   ----------------------------------------
	BYTE	W96
// 041   ----------------------------------------
	BYTE	W72
	BYTE		        As3   v092
	BYTE	W24
// 042   ----------------------------------------
	BYTE		N17     Ds4 
	BYTE	W18
	BYTE		N05   
	BYTE	W06
	BYTE		N11   
	BYTE	W12
	BYTE		        Fn4 
	BYTE	W12
	BYTE		        Gn4 
	BYTE	W12
	BYTE		N11   
	BYTE	W12
	BYTE		        Fn4 
	BYTE	W12
	BYTE		        Ds4 
	BYTE	W12
// 043   ----------------------------------------
	BYTE		N17     Dn4 
	BYTE	W18
	BYTE		N05   
	BYTE	W06
	BYTE		N11   
	BYTE	W12
	BYTE		        Ds4 
	BYTE	W12
	BYTE		N42     Dn4 
	BYTE	W48
// 044   ----------------------------------------
	BYTE		N17     Cn4 
	BYTE	W18
	BYTE		N05   
	BYTE	W06
	BYTE		N11   
	BYTE	W12
	BYTE		        Dn4 
	BYTE	W12
	BYTE		        Ds4 
	BYTE	W12
	BYTE		N11   
	BYTE	W12
	BYTE		        Dn4 
	BYTE	W12
	BYTE		        Cn4 
	BYTE	W12
// 045   ----------------------------------------
	BYTE		N17     As3 
	BYTE	W18
	BYTE		N05   
	BYTE	W06
	BYTE		N11   
	BYTE	W12
	BYTE		        Cn4 
	BYTE	W12
	BYTE		N42     Dn4 
	BYTE	W48
// 046   ----------------------------------------
	BYTE		N17     Gs3 
	BYTE	W18
	BYTE		N05   
	BYTE	W06
	BYTE		N11   
	BYTE	W12
	BYTE		        As3 
	BYTE	W12
	BYTE		        Cn4 
	BYTE	W12
	BYTE		N11   
	BYTE	W12
	BYTE		        As3 
	BYTE	W12
	BYTE		        Gs3 
	BYTE	W12
// 047   ----------------------------------------
	BYTE		N17     Gn3 
	BYTE	W18
	BYTE		N05     As3 
	BYTE	W06
	BYTE		N11     Ds4 
	BYTE	W12
	BYTE		        Fn4 
	BYTE	W12
	BYTE		N20     Ds4 
	BYTE	W48
// 048   ----------------------------------------
	BYTE	W96
// 049   ----------------------------------------
	BYTE	W72
	BYTE		        As3   v108
	BYTE	W24
// 050   ----------------------------------------
	BYTE		N17     Ds4 
	BYTE	W18
	BYTE		N05   
	BYTE	W06
	BYTE		N11   
	BYTE	W12
	BYTE		        Fn4 
	BYTE	W12
	BYTE		        Gn4 
	BYTE	W12
	BYTE		N11   
	BYTE	W12
	BYTE		        Fn4 
	BYTE	W12
	BYTE		        Ds4 
	BYTE	W12
// 051   ----------------------------------------
	BYTE		N17     Dn4 
	BYTE	W18
	BYTE		N05   
	BYTE	W06
	BYTE		N11   
	BYTE	W12
	BYTE		        Ds4 
	BYTE	W12
	BYTE		N42     Dn4 
	BYTE	W48
// 052   ----------------------------------------
	BYTE		N17     Cn4 
	BYTE	W18
	BYTE		N05   
	BYTE	W06
	BYTE		N11   
	BYTE	W12
	BYTE		        Dn4 
	BYTE	W12
	BYTE		        Ds4 
	BYTE	W12
	BYTE		N11   
	BYTE	W12
	BYTE		        Dn4 
	BYTE	W12
	BYTE		        Cn4 
	BYTE	W12
// 053   ----------------------------------------
	BYTE		N17     As3 
	BYTE	W18
	BYTE		N05   
	BYTE	W06
	BYTE		N11   
	BYTE	W12
	BYTE		        Cn4 
	BYTE	W12
	BYTE		N42     Dn4 
	BYTE	W48
// 054   ----------------------------------------
	BYTE		N17     Gs3 
	BYTE	W18
	BYTE		N05   
	BYTE	W06
	BYTE		N11   
	BYTE	W12
	BYTE		        As3 
	BYTE	W12
	BYTE		        Cn4 
	BYTE	W12
	BYTE		N11   
	BYTE	W12
	BYTE		        Ds4 
	BYTE	W12
	BYTE		        Fn4 
	BYTE	W12
// 055   ----------------------------------------
	BYTE		N17     Gn4 
	BYTE	W18
	BYTE		N05   
	BYTE	W06
	BYTE		N11   
	BYTE	W12
	BYTE		        As4 
	BYTE	W12
	BYTE		        Gn4 
	BYTE	W12
	BYTE		N11   
	BYTE	W12
	BYTE		        Fn4 
	BYTE	W12
	BYTE		        Ds4 
	BYTE	W12
// 056   ----------------------------------------
	BYTE		N32     Gn4 
	BYTE	W36
	BYTE		N05   
	BYTE	W06
	BYTE		N05   
	BYTE	W06
	BYTE		N32   
	BYTE	W36
	BYTE		N05   
	BYTE	W06
	BYTE		N05   
	BYTE	W06
// 057   ----------------------------------------
	BYTE		N11   
	BYTE	W12
	BYTE		N05     Gs3 
	BYTE	W06
	BYTE		        As3 
	BYTE	W06
	BYTE		        Cn4 
	BYTE	W06
	BYTE		        Dn4 
	BYTE	W06
	BYTE		        Ds4 
	BYTE	W06
	BYTE		        Fs4 
	BYTE	W06
	BYTE		N42     Gn4 
	BYTE	W48
// 058   ----------------------------------------
	BYTE	W96
// 059   ----------------------------------------
	BYTE	W96
// 060   ----------------------------------------
	BYTE	W96
// 061   ----------------------------------------
	BYTE	W96
// 062   ----------------------------------------
	BYTE	W96
// 063   ----------------------------------------
	BYTE	W96
// 064   ----------------------------------------
	BYTE	W96
// 065   ----------------------------------------
	BYTE	W96
// 066   ----------------------------------------
	BYTE		N11     En4 
	BYTE	W12
	BYTE		N11   
	BYTE	W12
	BYTE		N11   
	BYTE	W12
	BYTE		N20     Fn4 
	BYTE	W24
	BYTE		N32     Fs4 
	BYTE	W36
// 067   ----------------------------------------
	BYTE		N20     Gn4   v127
	BYTE	W96
// 068   ----------------------------------------
	BYTE	W96
	BYTE	W24
// 069   ----------------------------------------
	BYTE		N11     En3   v108
	BYTE	W12
	BYTE		N11   
	BYTE	W12
	BYTE		N11   
	BYTE	W12
	BYTE		N20     Fn3 
	BYTE	W24
	BYTE		N32     Fs3 
	BYTE	W36
// 070   ----------------------------------------
	BYTE		N20     Gn3 
	BYTE	W36
	BYTE		N20   
	BYTE	W24
	BYTE		N11     Fn3 
	BYTE	W12
	BYTE		N20     Ds3 
	BYTE	W24
// 071   ----------------------------------------
	BYTE		N90     Cn3 
	BYTE	W90
	BYTE	FINE

//**************** Track 14 (Midi-Chn.12) ****************//

fountainofdreams_14:
	BYTE	KEYSH   fountainofdreams_key+0
// 000   ----------------------------------------
	BYTE		VOICE   56
	BYTE		VOL     127*fountainofdreams_mvl/mxv
	BYTE		PAN     c_v+0
	BYTE	W96
// 001   ----------------------------------------
	BYTE	W96
// 002   ----------------------------------------
	BYTE	W96
// 003   ----------------------------------------
	BYTE	W96
// 004   ----------------------------------------
	BYTE	W96
// 005   ----------------------------------------
	BYTE	W96
// 006   ----------------------------------------
	BYTE	W96
// 007   ----------------------------------------
	BYTE	W96
// 008   ----------------------------------------
	BYTE	W96
// 009   ----------------------------------------
	BYTE	W96
// 010   ----------------------------------------
fountainofdreams_14_010:
	BYTE		N20     Gn3   v108
	BYTE	W48
	BYTE		        Ds3 
	BYTE	W48
	BYTE	PEND
// 011   ----------------------------------------
	BYTE	W96
// 012   ----------------------------------------
	BYTE	W96
// 013   ----------------------------------------
	BYTE	W96
// 014   ----------------------------------------
	BYTE	PATT
	 POIN2	fountainofdreams_14_010
// 015   ----------------------------------------
	BYTE	W96
// 016   ----------------------------------------
	BYTE	W96
// 017   ----------------------------------------
	BYTE	W96
// 018   ----------------------------------------
	BYTE	PATT
	 POIN2	fountainofdreams_14_010
// 019   ----------------------------------------
	BYTE	W96
// 020   ----------------------------------------
	BYTE	W96
// 021   ----------------------------------------
	BYTE	W96
// 022   ----------------------------------------
	BYTE	PATT
	 POIN2	fountainofdreams_14_010
// 023   ----------------------------------------
	BYTE	W72
	BYTE		N11     Cn3   v108
	BYTE	W12
	BYTE		        Dn3 
	BYTE	W12
// 024   ----------------------------------------
	BYTE		N20     Ds3 
	BYTE	W24
	BYTE		        Fn3 
	BYTE	W24
	BYTE		        Dn3 
	BYTE	W24
	BYTE		        As2 
	BYTE	W24
// 025   ----------------------------------------
	BYTE		N66     Cn3 
	BYTE	W96
// 026   ----------------------------------------
	BYTE	W96
// 027   ----------------------------------------
	BYTE	W96
// 028   ----------------------------------------
	BYTE	W96
// 029   ----------------------------------------
	BYTE	W96
// 030   ----------------------------------------
	BYTE	W96
// 031   ----------------------------------------
	BYTE	W96
// 032   ----------------------------------------
	BYTE	W96
// 033   ----------------------------------------
	BYTE	W96
// 034   ----------------------------------------
	BYTE	W96
// 035   ----------------------------------------
	BYTE	W96
// 036   ----------------------------------------
	BYTE	W96
// 037   ----------------------------------------
	BYTE	W96
// 038   ----------------------------------------
	BYTE	W96
// 039   ----------------------------------------
	BYTE	W96
// 040   ----------------------------------------
	BYTE	W96
// 041   ----------------------------------------
	BYTE	W72
	BYTE		N20     Dn3   v092
	BYTE	W24
// 042   ----------------------------------------
	BYTE		N17     Gn3 
	BYTE	W18
	BYTE		N05   
	BYTE	W06
	BYTE		N11   
	BYTE	W12
	BYTE		N11   
	BYTE	W12
	BYTE		        As3 
	BYTE	W12
	BYTE		N11   
	BYTE	W12
	BYTE		        Gn3 
	BYTE	W12
	BYTE		N11   
	BYTE	W12
// 043   ----------------------------------------
	BYTE		N17     Fn3 
	BYTE	W18
	BYTE		N05   
	BYTE	W06
	BYTE		N11   
	BYTE	W12
	BYTE		        Gn3 
	BYTE	W12
	BYTE		N42     Fn3 
	BYTE	W48
// 044   ----------------------------------------
	BYTE		N17     Gn3 
	BYTE	W18
	BYTE		N05   
	BYTE	W06
	BYTE		N11   
	BYTE	W12
	BYTE		N11   
	BYTE	W12
	BYTE		        Cn4 
	BYTE	W12
	BYTE		N11   
	BYTE	W12
	BYTE		        Gn3 
	BYTE	W12
	BYTE		N11   
	BYTE	W12
// 045   ----------------------------------------
	BYTE		N17   
	BYTE	W18
	BYTE		N05   
	BYTE	W06
	BYTE		N11   
	BYTE	W12
	BYTE		N11   
	BYTE	W12
	BYTE		N42     As3 
	BYTE	W48
// 046   ----------------------------------------
	BYTE		N17     Gs2 
	BYTE	W18
	BYTE		N05   
	BYTE	W06
	BYTE		N11   
	BYTE	W12
	BYTE		N11   
	BYTE	W12
	BYTE		        Cn3 
	BYTE	W12
	BYTE		N11   
	BYTE	W12
	BYTE		        Gs2 
	BYTE	W12
	BYTE		N11   
	BYTE	W12
// 047   ----------------------------------------
	BYTE		N17     Gn2 
	BYTE	W18
	BYTE		N05     As2 
	BYTE	W06
	BYTE		N11     Ds3 
	BYTE	W12
	BYTE		N11   
	BYTE	W12
	BYTE		N20   
	BYTE	W48
// 048   ----------------------------------------
	BYTE	W96
// 049   ----------------------------------------
	BYTE	W72
	BYTE		        Fn3   v108
	BYTE	W24
// 050   ----------------------------------------
	BYTE		N17     As3 
	BYTE	W18
	BYTE		N05   
	BYTE	W06
	BYTE		N11   
	BYTE	W12
	BYTE		N11   
	BYTE	W12
	BYTE		        Dn4 
	BYTE	W12
	BYTE		N11   
	BYTE	W12
	BYTE		        As3 
	BYTE	W12
	BYTE		N11   
	BYTE	W12
// 051   ----------------------------------------
	BYTE		N17   
	BYTE	W18
	BYTE		N05   
	BYTE	W06
	BYTE		N11   
	BYTE	W12
	BYTE		N11   
	BYTE	W12
	BYTE		N42   
	BYTE	W48
// 052   ----------------------------------------
	BYTE		N17     Gn3 
	BYTE	W18
	BYTE		N05   
	BYTE	W06
	BYTE		N11   
	BYTE	W12
	BYTE		N11   
	BYTE	W12
	BYTE		        Cn4 
	BYTE	W12
	BYTE		N11   
	BYTE	W12
	BYTE		        Gn3 
	BYTE	W12
	BYTE		N11   
	BYTE	W12
// 053   ----------------------------------------
	BYTE		N17   
	BYTE	W18
	BYTE		N05   
	BYTE	W06
	BYTE		N11   
	BYTE	W12
	BYTE		N11   
	BYTE	W12
	BYTE		N42     As3 
	BYTE	W48
// 054   ----------------------------------------
	BYTE		N17     Ds3 
	BYTE	W18
	BYTE		N05   
	BYTE	W06
	BYTE		N11   
	BYTE	W12
	BYTE		N11   
	BYTE	W12
	BYTE		        Gs3 
	BYTE	W12
	BYTE		N11   
	BYTE	W12
	BYTE		        Cn4 
	BYTE	W12
	BYTE		N11   
	BYTE	W12
// 055   ----------------------------------------
	BYTE		N17     Ds4 
	BYTE	W18
	BYTE		N05   
	BYTE	W06
	BYTE		N11   
	BYTE	W12
	BYTE		        Gn4 
	BYTE	W12
	BYTE		        Ds4 
	BYTE	W12
	BYTE		N11   
	BYTE	W12
	BYTE		        As3 
	BYTE	W12
	BYTE		N11   
	BYTE	W12
// 056   ----------------------------------------
	BYTE		N32     Dn4 
	BYTE	W36
	BYTE		N05   
	BYTE	W06
	BYTE		N05   
	BYTE	W06
	BYTE		N32   
	BYTE	W36
	BYTE		N05   
	BYTE	W06
	BYTE		N05   
	BYTE	W06
// 057   ----------------------------------------
	BYTE		N90   
	BYTE	W96
// 058   ----------------------------------------
	BYTE	W96
// 059   ----------------------------------------
	BYTE	W96
// 060   ----------------------------------------
	BYTE	W96
// 061   ----------------------------------------
	BYTE	W96
// 062   ----------------------------------------
	BYTE	W96
// 063   ----------------------------------------
	BYTE	W96
// 064   ----------------------------------------
	BYTE	W96
// 065   ----------------------------------------
	BYTE	W96
// 066   ----------------------------------------
fountainofdreams_14_066:
	BYTE		N11     Cn3   v108
	BYTE	W12
	BYTE		N11   
	BYTE	W12
	BYTE		N11   
	BYTE	W12
	BYTE		N20   
	BYTE	W24
	BYTE		N32     Gs2 
	BYTE	W36
	BYTE	PEND
// 067   ----------------------------------------
	BYTE		N20     Dn3   v127
	BYTE	W96
// 068   ----------------------------------------
	BYTE	W96
	BYTE	W24
// 069   ----------------------------------------
	BYTE	PATT
	 POIN2	fountainofdreams_14_066
// 070   ----------------------------------------
	BYTE		N20     Dn3   v108
	BYTE	W36
	BYTE		N20   
	BYTE	W24
	BYTE		N11   
	BYTE	W12
	BYTE		N20     As2 
	BYTE	W24
// 071   ----------------------------------------
	BYTE		N90     Gn2 
	BYTE	W90
	BYTE	FINE

//**************** Track 15 (Midi-Chn.13) ****************//

fountainofdreams_15:
	BYTE	KEYSH   fountainofdreams_key+0
// 000   ----------------------------------------
	BYTE		VOICE   60
	BYTE		VOL     127*fountainofdreams_mvl/mxv
	BYTE		PAN     c_v+0
	BYTE	W96
// 001   ----------------------------------------
	BYTE	W96
// 002   ----------------------------------------
	BYTE	W96
// 003   ----------------------------------------
	BYTE	W96
// 004   ----------------------------------------
	BYTE	W96
// 005   ----------------------------------------
	BYTE	W96
// 006   ----------------------------------------
	BYTE	W96
// 007   ----------------------------------------
	BYTE	W96
// 008   ----------------------------------------
	BYTE	W96
// 009   ----------------------------------------
	BYTE	W96
// 010   ----------------------------------------
fountainofdreams_15_010:
	BYTE		N20     Ds3   v108
	BYTE	W48
	BYTE		        Cn3 
	BYTE	W48
	BYTE	PEND
// 011   ----------------------------------------
	BYTE	W96
// 012   ----------------------------------------
	BYTE		        Gs2   v127
	BYTE	W24
	BYTE		        As2 
	BYTE	W24
	BYTE		        Cn3 
	BYTE	W24
	BYTE		        Gs2 
	BYTE	W24
// 013   ----------------------------------------
	BYTE		        Gn2 
	BYTE	W24
	BYTE		        Gs2 
	BYTE	W24
	BYTE		        Ds2 
	BYTE	W48
// 014   ----------------------------------------
	BYTE	PATT
	 POIN2	fountainofdreams_15_010
// 015   ----------------------------------------
	BYTE	W96
// 016   ----------------------------------------
	BYTE	W96
// 017   ----------------------------------------
	BYTE	W96
// 018   ----------------------------------------
	BYTE	PATT
	 POIN2	fountainofdreams_15_010
// 019   ----------------------------------------
	BYTE	W96
// 020   ----------------------------------------
	BYTE	W96
// 021   ----------------------------------------
	BYTE	W96
// 022   ----------------------------------------
	BYTE	PATT
	 POIN2	fountainofdreams_15_010
// 023   ----------------------------------------
	BYTE	W72
	BYTE		N11     Cn2   v108
	BYTE	W12
	BYTE		        Dn2 
	BYTE	W12
// 024   ----------------------------------------
	BYTE		N20     Ds2 
	BYTE	W24
	BYTE		        Fn2 
	BYTE	W24
	BYTE		        Dn2 
	BYTE	W24
	BYTE		        As1 
	BYTE	W24
// 025   ----------------------------------------
	BYTE		        Cn2 
	BYTE	W24
	BYTE		        Ds2 
	BYTE	W24
	BYTE		        Cn2 
	BYTE	W24
	BYTE		        Gn1 
	BYTE	W24
// 026   ----------------------------------------
fountainofdreams_15_026:
	BYTE		N20     Fn1   v127
	BYTE	W24
	BYTE		N20   
	BYTE	W24
	BYTE		        Gs1 
	BYTE	W24
	BYTE		        Cn2 
	BYTE	W24
	BYTE	PEND
// 027   ----------------------------------------
fountainofdreams_15_027:
	BYTE		N20     Ds2   v127
	BYTE	W24
	BYTE		        Dn2 
	BYTE	W24
	BYTE		        Cn2 
	BYTE	W24
	BYTE		        Gn1 
	BYTE	W24
	BYTE	PEND
// 028   ----------------------------------------
	BYTE	PATT
	 POIN2	fountainofdreams_15_026
// 029   ----------------------------------------
fountainofdreams_15_029:
	BYTE		N20     Ds2   v127
	BYTE	W24
	BYTE		        Fn2 
	BYTE	W24
	BYTE		        Gn2 
	BYTE	W48
	BYTE	PEND
// 030   ----------------------------------------
	BYTE	W96
// 031   ----------------------------------------
	BYTE	W96
// 032   ----------------------------------------
	BYTE	W96
// 033   ----------------------------------------
	BYTE	W96
// 034   ----------------------------------------
	BYTE	PATT
	 POIN2	fountainofdreams_15_026
// 035   ----------------------------------------
	BYTE	PATT
	 POIN2	fountainofdreams_15_027
// 036   ----------------------------------------
	BYTE	PATT
	 POIN2	fountainofdreams_15_026
// 037   ----------------------------------------
	BYTE	PATT
	 POIN2	fountainofdreams_15_029
// 038   ----------------------------------------
	BYTE	W96
// 039   ----------------------------------------
	BYTE	W96
// 040   ----------------------------------------
	BYTE	W96
// 041   ----------------------------------------
	BYTE	W72
	BYTE		N20     As2   v092
	BYTE	W24
// 042   ----------------------------------------
	BYTE		N17     Ds3 
	BYTE	W18
	BYTE		N05   
	BYTE	W06
	BYTE		N11   
	BYTE	W12
	BYTE		N11   
	BYTE	W12
	BYTE		        Gn3 
	BYTE	W12
	BYTE		N11   
	BYTE	W12
	BYTE		        Ds3 
	BYTE	W12
	BYTE		N11   
	BYTE	W12
// 043   ----------------------------------------
	BYTE		N17     Dn3 
	BYTE	W18
	BYTE		N05   
	BYTE	W06
	BYTE		N11   
	BYTE	W12
	BYTE		        Ds3 
	BYTE	W12
	BYTE		N42     Dn3 
	BYTE	W48
// 044   ----------------------------------------
	BYTE		N17     Cn3 
	BYTE	W18
	BYTE		N05   
	BYTE	W06
	BYTE		N11   
	BYTE	W12
	BYTE		N11   
	BYTE	W12
	BYTE		        Ds3 
	BYTE	W12
	BYTE		N11   
	BYTE	W12
	BYTE		        Cn3 
	BYTE	W12
	BYTE		N11   
	BYTE	W12
// 045   ----------------------------------------
	BYTE		N17     As2 
	BYTE	W18
	BYTE		N05   
	BYTE	W06
	BYTE		N11   
	BYTE	W12
	BYTE		        Cn3 
	BYTE	W12
	BYTE		N42     Dn3 
	BYTE	W48
// 046   ----------------------------------------
	BYTE		N17     Gs1 
	BYTE	W18
	BYTE		N05   
	BYTE	W06
	BYTE		N11   
	BYTE	W12
	BYTE		N11   
	BYTE	W12
	BYTE		        Cn2 
	BYTE	W12
	BYTE		N11   
	BYTE	W12
	BYTE		        Gs1 
	BYTE	W12
	BYTE		N11   
	BYTE	W12
// 047   ----------------------------------------
	BYTE		N17   
	BYTE	W18
	BYTE		N05     Cn2 
	BYTE	W06
	BYTE		N11     Ds2 
	BYTE	W12
	BYTE		N11   
	BYTE	W12
	BYTE		N20   
	BYTE	W48
// 048   ----------------------------------------
	BYTE	W96
// 049   ----------------------------------------
	BYTE	W72
	BYTE		        As2   v108
	BYTE	W24
// 050   ----------------------------------------
	BYTE		N17     Ds3 
	BYTE	W18
	BYTE		N05   
	BYTE	W06
	BYTE		N11   
	BYTE	W12
	BYTE		N11   
	BYTE	W12
	BYTE		        Gn3 
	BYTE	W12
	BYTE		N11   
	BYTE	W12
	BYTE		        Ds3 
	BYTE	W12
	BYTE		N11   
	BYTE	W12
// 051   ----------------------------------------
	BYTE		N17     Dn3 
	BYTE	W18
	BYTE		N05   
	BYTE	W06
	BYTE		N11   
	BYTE	W12
	BYTE		        Ds3 
	BYTE	W12
	BYTE		N42     Dn3 
	BYTE	W48
// 052   ----------------------------------------
	BYTE		N17     Cn3 
	BYTE	W18
	BYTE		N05   
	BYTE	W06
	BYTE		N11   
	BYTE	W12
	BYTE		N11   
	BYTE	W12
	BYTE		        Ds3 
	BYTE	W12
	BYTE		N11   
	BYTE	W12
	BYTE		        Cn3 
	BYTE	W12
	BYTE		N11   
	BYTE	W12
// 053   ----------------------------------------
	BYTE		N17     As2 
	BYTE	W18
	BYTE		N05   
	BYTE	W06
	BYTE		N11   
	BYTE	W12
	BYTE		        Cn3 
	BYTE	W12
	BYTE		N42     Dn3 
	BYTE	W48
// 054   ----------------------------------------
	BYTE		N17     Gs2 
	BYTE	W18
	BYTE		N05   
	BYTE	W06
	BYTE		N11   
	BYTE	W12
	BYTE		N11   
	BYTE	W12
	BYTE		        Cn3 
	BYTE	W12
	BYTE		N11   
	BYTE	W12
	BYTE		        Ds3 
	BYTE	W12
	BYTE		N11   
	BYTE	W12
// 055   ----------------------------------------
	BYTE		N17     Gn2 
	BYTE	W18
	BYTE		N05   
	BYTE	W06
	BYTE		N11   
	BYTE	W12
	BYTE		        As2 
	BYTE	W12
	BYTE		        Gn2 
	BYTE	W12
	BYTE		N11   
	BYTE	W12
	BYTE		        Ds2 
	BYTE	W12
	BYTE		N11   
	BYTE	W12
// 056   ----------------------------------------
	BYTE		N32     Gn2 
	BYTE	W36
	BYTE		N05   
	BYTE	W06
	BYTE		N05   
	BYTE	W06
	BYTE		N32   
	BYTE	W36
	BYTE		N05   
	BYTE	W06
	BYTE		N05   
	BYTE	W06
// 057   ----------------------------------------
	BYTE		N90   
	BYTE	W96
// 058   ----------------------------------------
	BYTE	W96
// 059   ----------------------------------------
	BYTE	W96
// 060   ----------------------------------------
	BYTE	W96
// 061   ----------------------------------------
	BYTE	W96
// 062   ----------------------------------------
	BYTE	W96
// 063   ----------------------------------------
	BYTE	W96
// 064   ----------------------------------------
	BYTE	W96
// 065   ----------------------------------------
	BYTE	W96
// 066   ----------------------------------------
fountainofdreams_15_066:
	BYTE		N11     En2   v108
	BYTE	W12
	BYTE		N11   
	BYTE	W12
	BYTE		N11   
	BYTE	W12
	BYTE		N20     Fn2 
	BYTE	W24
	BYTE		N32     Fs2 
	BYTE	W36
	BYTE	PEND
// 067   ----------------------------------------
	BYTE		N20     Gn2   v127
	BYTE	W96
// 068   ----------------------------------------
	BYTE	W96
	BYTE	W24
// 069   ----------------------------------------
	BYTE	PATT
	 POIN2	fountainofdreams_15_066
// 070   ----------------------------------------
	BYTE		N20     Gn2   v108
	BYTE	W36
	BYTE		        As2 
	BYTE	W24
	BYTE		N11   
	BYTE	W12
	BYTE		N20     Gn2 
	BYTE	W24
// 071   ----------------------------------------
	BYTE		N90     En2 
	BYTE	W90
	BYTE	FINE

//**************** Track 16 (Midi-Chn.16) ****************//

fountainofdreams_16:
	BYTE	KEYSH   fountainofdreams_key+0
// 000   ----------------------------------------
	BYTE		VOICE   57
	BYTE		VOL     127*fountainofdreams_mvl/mxv
	BYTE		PAN     c_v+0
	BYTE	W96
// 001   ----------------------------------------
	BYTE	W96
// 002   ----------------------------------------
	BYTE	W96
// 003   ----------------------------------------
	BYTE	W96
// 004   ----------------------------------------
	BYTE	W96
// 005   ----------------------------------------
	BYTE	W90
	BYTE		N02     Bn2   v112
	BYTE	W03
	BYTE		N02   
	BYTE	W03
// 006   ----------------------------------------
	BYTE		N20     Cn3 
	BYTE	W96
// 007   ----------------------------------------
	BYTE	W96
// 008   ----------------------------------------
	BYTE		N20   
	BYTE	W96
// 009   ----------------------------------------
	BYTE	W96
// 010   ----------------------------------------
	BYTE	W96
// 011   ----------------------------------------
	BYTE	W96
// 012   ----------------------------------------
	BYTE		        Gs2   v127
	BYTE		N20     Cn3 
	BYTE	W24
	BYTE		        As2 
	BYTE		N20     Dn3 
	BYTE	W24
	BYTE		        Cn3 
	BYTE		N20     Ds3 
	BYTE	W24
	BYTE		        Gs2 
	BYTE		N20     Cn3 
	BYTE	W24
// 013   ----------------------------------------
	BYTE		        Gn2 
	BYTE		N20     As2 
	BYTE	W24
	BYTE		        Gs2 
	BYTE		N20     Cn3 
	BYTE	W24
	BYTE		        Ds2 
	BYTE		N20     Gn2 
	BYTE	W48
// 014   ----------------------------------------
	BYTE	W96
// 015   ----------------------------------------
	BYTE	W96
// 016   ----------------------------------------
	BYTE	W96
// 017   ----------------------------------------
	BYTE	W96
// 018   ----------------------------------------
	BYTE	W96
// 019   ----------------------------------------
	BYTE	W96
// 020   ----------------------------------------
	BYTE	W96
// 021   ----------------------------------------
	BYTE	W96
// 022   ----------------------------------------
	BYTE	W96
// 023   ----------------------------------------
	BYTE	W96
// 024   ----------------------------------------
	BYTE		N42     Gs2   v092
	BYTE	W48
	BYTE		        Gn2 
	BYTE	W48
// 025   ----------------------------------------
	BYTE		N20     Cn2   v108
	BYTE	W24
	BYTE		        Ds2 
	BYTE	W24
	BYTE		        Cn2 
	BYTE	W24
	BYTE		        Gn1 
	BYTE	W24
// 026   ----------------------------------------
fountainofdreams_16_026:
	BYTE		N20     Fn1   v127
	BYTE	W24
	BYTE		N20   
	BYTE	W24
	BYTE		        Gs1 
	BYTE	W24
	BYTE		        Cn2 
	BYTE	W24
	BYTE	PEND
// 027   ----------------------------------------
fountainofdreams_16_027:
	BYTE		N20     Ds2   v127
	BYTE	W24
	BYTE		        Dn2 
	BYTE	W24
	BYTE		        Cn2 
	BYTE	W24
	BYTE		        Gn1 
	BYTE	W24
	BYTE	PEND
// 028   ----------------------------------------
	BYTE	PATT
	 POIN2	fountainofdreams_16_026
// 029   ----------------------------------------
fountainofdreams_16_029:
	BYTE		N20     Ds2   v127
	BYTE	W24
	BYTE		        Fn2 
	BYTE	W24
	BYTE		        Gn2 
	BYTE	W48
	BYTE	PEND
// 030   ----------------------------------------
	BYTE	W96
// 031   ----------------------------------------
	BYTE	W96
// 032   ----------------------------------------
	BYTE	W96
// 033   ----------------------------------------
	BYTE	W96
// 034   ----------------------------------------
	BYTE	PATT
	 POIN2	fountainofdreams_16_026
// 035   ----------------------------------------
	BYTE	PATT
	 POIN2	fountainofdreams_16_027
// 036   ----------------------------------------
	BYTE	PATT
	 POIN2	fountainofdreams_16_026
// 037   ----------------------------------------
	BYTE	PATT
	 POIN2	fountainofdreams_16_029
// 038   ----------------------------------------
	BYTE	W96
// 039   ----------------------------------------
	BYTE	W96
// 040   ----------------------------------------
	BYTE	W96
// 041   ----------------------------------------
	BYTE	W96
// 042   ----------------------------------------
	BYTE	W96
// 043   ----------------------------------------
	BYTE	W96
// 044   ----------------------------------------
	BYTE	W96
// 045   ----------------------------------------
	BYTE	W96
// 046   ----------------------------------------
	BYTE	W96
// 047   ----------------------------------------
	BYTE	W96
// 048   ----------------------------------------
	BYTE	W96
// 049   ----------------------------------------
	BYTE	W72
	BYTE		N20     As1   v108
	BYTE	W24
// 050   ----------------------------------------
	BYTE		N17     Ds2 
	BYTE	W18
	BYTE		N05   
	BYTE	W06
	BYTE		N11   
	BYTE	W12
	BYTE		        Fn2 
	BYTE	W12
	BYTE		        Gn2 
	BYTE	W12
	BYTE		N11   
	BYTE	W12
	BYTE		        Fn2 
	BYTE	W12
	BYTE		        Ds2 
	BYTE	W12
// 051   ----------------------------------------
	BYTE		N17     Dn2 
	BYTE	W18
	BYTE		N05   
	BYTE	W06
	BYTE		N11   
	BYTE	W12
	BYTE		        Ds2 
	BYTE	W12
	BYTE		N42     Dn2 
	BYTE	W48
// 052   ----------------------------------------
	BYTE		N17     Cn2 
	BYTE	W18
	BYTE		N05   
	BYTE	W06
	BYTE		N11   
	BYTE	W12
	BYTE		        Dn2 
	BYTE	W12
	BYTE		        Ds2 
	BYTE	W12
	BYTE		N11   
	BYTE	W12
	BYTE		        Dn2 
	BYTE	W12
	BYTE		        Cn2 
	BYTE	W12
// 053   ----------------------------------------
	BYTE		N17     As1 
	BYTE	W18
	BYTE		N05   
	BYTE	W06
	BYTE		N11   
	BYTE	W12
	BYTE		        Cn2 
	BYTE	W12
	BYTE		N42     Dn2 
	BYTE	W48
// 054   ----------------------------------------
	BYTE		N17     Gs1 
	BYTE	W18
	BYTE		N05   
	BYTE	W06
	BYTE		N11   
	BYTE	W12
	BYTE		        As1 
	BYTE	W12
	BYTE		        Cn2 
	BYTE	W12
	BYTE		N11   
	BYTE	W12
	BYTE		        Ds2 
	BYTE	W12
	BYTE		        Fn2 
	BYTE	W12
// 055   ----------------------------------------
	BYTE		N17     Gn2 
	BYTE	W18
	BYTE		N05   
	BYTE	W06
	BYTE		N11   
	BYTE	W12
	BYTE		        As2 
	BYTE	W12
	BYTE		        Gn2 
	BYTE	W12
	BYTE		N11   
	BYTE	W12
	BYTE		        Fn2 
	BYTE	W12
	BYTE		        Ds2 
	BYTE	W12
// 056   ----------------------------------------
	BYTE		N32     Gn2 
	BYTE	W36
	BYTE		N05   
	BYTE	W06
	BYTE		N05   
	BYTE	W06
	BYTE		N32   
	BYTE	W36
	BYTE		N05   
	BYTE	W06
	BYTE		N05   
	BYTE	W06
// 057   ----------------------------------------
	BYTE		N90   
	BYTE	W96
// 058   ----------------------------------------
fountainofdreams_16_058:
	BYTE		N20     Cn3   v048
	BYTE	W48
	BYTE		        Gn2 
	BYTE	W48
	BYTE	PEND
// 059   ----------------------------------------
	BYTE		        Ds2 
	BYTE	W24
	BYTE		        Dn2 
	BYTE	W24
	BYTE		        Cn2 
	BYTE	W48
// 060   ----------------------------------------
	BYTE		N20   
	BYTE	W24
	BYTE		        Dn2 
	BYTE	W24
	BYTE		        Ds2 
	BYTE	W24
	BYTE		        Cn2 
	BYTE	W24
// 061   ----------------------------------------
	BYTE		        As1 
	BYTE	W24
	BYTE		        Cn2 
	BYTE	W24
	BYTE		        Gn1 
	BYTE	W48
// 062   ----------------------------------------
	BYTE	PATT
	 POIN2	fountainofdreams_16_058
// 063   ----------------------------------------
	BYTE		N20     Ds2   v048
	BYTE	W24
	BYTE		        Dn2 
	BYTE	W24
	BYTE		        Cn2 
	BYTE	W24
	BYTE		N11   
	BYTE	W12
	BYTE		        Dn2 
	BYTE	W12
// 064   ----------------------------------------
	BYTE		N20     Ds2 
	BYTE	W24
	BYTE		        Fn2 
	BYTE	W24
	BYTE		        Dn2 
	BYTE	W24
	BYTE		        As1 
	BYTE	W24
// 065   ----------------------------------------
	BYTE		        Cn2 
	BYTE	W96
// 066   ----------------------------------------
	BYTE		N11     En3   v108
	BYTE	W12
	BYTE		N11   
	BYTE	W12
	BYTE		N11   
	BYTE	W12
	BYTE		N20     Fn3 
	BYTE	W24
	BYTE		N32     Fs3 
	BYTE	W36
// 067   ----------------------------------------
	BYTE		N20     Gn3   v127
	BYTE	W96
// 068   ----------------------------------------
	BYTE	W96
	BYTE	W24
// 069   ----------------------------------------
	BYTE		N11     Cn2   v108
	BYTE	W12
	BYTE		N11   
	BYTE	W12
	BYTE		N11   
	BYTE	W12
	BYTE		N20   
	BYTE	W24
	BYTE		N32     Gs1 
	BYTE	W36
// 070   ----------------------------------------
	BYTE		N20     Gn1 
	BYTE	W36
	BYTE		        Gn2 
	BYTE	W24
	BYTE		N11     Fn2 
	BYTE	W12
	BYTE		N20     Ds2 
	BYTE	W24
// 071   ----------------------------------------
	BYTE		N90     Cn2 
	BYTE	W90
	BYTE	FINE

//******************************************************//
	ALIGN 4

fountainofdreams:
	BYTE	16	// NumTrks
	BYTE	0	// NumBlks
	BYTE	fountainofdreams_pri	// Priority
	BYTE	fountainofdreams_rev	// Reverb.

	POIN2	fountainofdreams_grp

	POIN2	fountainofdreams_1
	POIN2	fountainofdreams_2
	POIN2	fountainofdreams_3
	POIN2	fountainofdreams_4
	POIN2	fountainofdreams_5
	POIN2	fountainofdreams_6
	POIN2	fountainofdreams_7
	POIN2	fountainofdreams_8
	POIN2	fountainofdreams_9
	POIN2	fountainofdreams_10
	POIN2	fountainofdreams_11
	POIN2	fountainofdreams_12
	POIN2	fountainofdreams_13
	POIN2	fountainofdreams_14
	POIN2	fountainofdreams_15
	POIN2	fountainofdreams_16

	
