	.include "MPlayDef.s"

	.equ	gourmetrace_grp, voicegroup000
	.equ	gourmetrace_pri, 0
	.equ	gourmetrace_rev, 0
	.equ	gourmetrace_mvl, 127
	.equ	gourmetrace_key, 0
	.equ	gourmetrace_tbs, 1
	.equ	gourmetrace_exg, 0
	.equ	gourmetrace_cmp, 1

	.section .rodata
	.global	gourmetrace
	.align	2

@**************** Track 1 (Midi-Chn.1) ****************@

gourmetrace_1:
	.byte	KEYSH , gourmetrace_key+0
@ 000   ----------------------------------------
	.byte	TEMPO , 170*gourmetrace_tbs/2
	.byte		VOICE , 34
	.byte		VOL   , 127*gourmetrace_mvl/mxv
	.byte		PAN   , c_v+0
	.byte		N11   , Fn0 , v100
	.byte	W11
	.byte		        Fn1 , v084
	.byte	W12
	.byte		        Fn0 , v100
	.byte	W10
	.byte		N14   , Fn1 
	.byte	W13
	.byte		        Gn0 , v108
	.byte	W13
	.byte		N12   , Gn1 , v080
	.byte	W12
	.byte		        Gn0 , v092
	.byte	W12
	.byte		N11   , Gn1 , v088
	.byte	W13
@ 001   ----------------------------------------
gourmetrace_1_001:
	.byte		N11   , Gs0 , v112
	.byte	W10
	.byte		        Gs1 , v108
	.byte	W12
	.byte		N14   , Gs0 
	.byte	W12
	.byte		N13   , Gs1 
	.byte	W12
	.byte		N20   , Gn0 , v116
	.byte	W48
	.byte	W02
	.byte	PEND
@ 002   ----------------------------------------
	.byte	W96
@ 003   ----------------------------------------
	.byte	W96
@ 004   ----------------------------------------
	.byte	W96
@ 005   ----------------------------------------
	.byte	W96
@ 006   ----------------------------------------
	.byte	W96
@ 007   ----------------------------------------
	.byte	W96
@ 008   ----------------------------------------
	.byte	W96
@ 009   ----------------------------------------
	.byte	W96
@ 010   ----------------------------------------
	.byte	W96
@ 011   ----------------------------------------
	.byte	W96
@ 012   ----------------------------------------
	.byte	W96
@ 013   ----------------------------------------
	.byte	W96
@ 014   ----------------------------------------
	.byte	W96
@ 015   ----------------------------------------
	.byte	W96
@ 016   ----------------------------------------
	.byte	W96
@ 017   ----------------------------------------
	.byte	W96
@ 018   ----------------------------------------
	.byte	W96
@ 019   ----------------------------------------
	.byte	W96
@ 020   ----------------------------------------
	.byte	W96
@ 021   ----------------------------------------
	.byte	W96
@ 022   ----------------------------------------
gourmetrace_1_022:
	.byte		N13   , Fn1 , v100
	.byte	W21
	.byte		N17   , Cn1 , v108
	.byte	W24
	.byte	W01
	.byte		N13   , Fn1 , v100
	.byte	W22
	.byte		N16   , Cn1 , v108
	.byte	W24
	.byte		N17   
	.byte	W04
	.byte	PEND
@ 023   ----------------------------------------
gourmetrace_1_023:
	.byte	W20
	.byte		N18   , Gn0 , v108
	.byte	W24
	.byte	W01
	.byte		N13   , Cn1 
	.byte	W24
	.byte		N16   , Gn0 
	.byte	W24
	.byte	W01
	.byte		N19   
	.byte	W02
	.byte	PEND
@ 024   ----------------------------------------
gourmetrace_1_024:
	.byte	W22
	.byte		N16   , Dn1 , v096
	.byte	W23
	.byte		N19   , Gn0 , v108
	.byte	W24
	.byte	W01
	.byte		N18   , Dn1 , v100
	.byte	W24
	.byte		N14   , Cn1 , v108
	.byte	W02
	.byte	PEND
@ 025   ----------------------------------------
gourmetrace_1_025:
	.byte	W21
	.byte		N18   , Gn0 , v108
	.byte	W24
	.byte	W01
	.byte		N17   , Cn1 , v112
	.byte	W23
	.byte		N18   , Gn0 
	.byte	W24
	.byte	W03
	.byte	PEND
@ 026   ----------------------------------------
	.byte	W96
@ 027   ----------------------------------------
	.byte	W96
@ 028   ----------------------------------------
	.byte	W96
@ 029   ----------------------------------------
gourmetrace_1_029:
	.byte	W92
	.byte	W02
	.byte		N14   , Fn1 , v108
	.byte	W02
	.byte	PEND
@ 030   ----------------------------------------
gourmetrace_1_030:
	.byte	W22
	.byte		N18   , Cn1 , v112
	.byte	W24
	.byte		N15   , Fn1 , v100
	.byte	W23
	.byte		N14   , Cn1 , v092
	.byte	W24
	.byte	W01
	.byte		N16   , Cn1 , v116
	.byte	W02
	.byte	PEND
@ 031   ----------------------------------------
gourmetrace_1_031:
	.byte	W23
	.byte		N18   , Gn0 , v108
	.byte	W23
	.byte		N16   , Cn1 , v084
	.byte	W23
	.byte		N15   , Gn0 , v100
	.byte	W24
	.byte		N13   , Gn0 , v108
	.byte	W03
	.byte	PEND
@ 032   ----------------------------------------
gourmetrace_1_032:
	.byte	W20
	.byte		N16   , Dn0 , v100
	.byte	W23
	.byte		N23   , Gn0 , v092
	.byte	W24
	.byte	W01
	.byte		N20   , Dn0 , v084
	.byte	W24
	.byte	W01
	.byte		N16   , Cn1 , v108
	.byte	W03
	.byte	PEND
@ 033   ----------------------------------------
gourmetrace_1_033:
	.byte	W20
	.byte		N18   , Gn0 , v092
	.byte	W24
	.byte		N12   , Cn1 , v100
	.byte	W24
	.byte		N16   , As0 , v120
	.byte	W24
	.byte	W01
	.byte		N17   , Ds1 , v112
	.byte	W03
	.byte	PEND
@ 034   ----------------------------------------
gourmetrace_1_034:
	.byte	W21
	.byte		N17   , As0 , v108
	.byte	W24
	.byte		        Ds1 , v112
	.byte	W24
	.byte		        As0 , v108
	.byte	W24
	.byte		N15   
	.byte	W03
	.byte	PEND
@ 035   ----------------------------------------
gourmetrace_1_035:
	.byte	W20
	.byte		N16   , Fn0 , v100
	.byte	W24
	.byte		N18   , As0 , v108
	.byte	W24
	.byte		N20   , Fn0 , v088
	.byte	W24
	.byte	W01
	.byte		N19   , Cn1 , v100
	.byte	W03
	.byte	PEND
@ 036   ----------------------------------------
gourmetrace_1_036:
	.byte	W21
	.byte		N21   , Gn0 , v100
	.byte	W24
	.byte	W02
	.byte		N14   , Cn1 
	.byte	W23
	.byte		N18   , Gn0 , v104
	.byte	W24
	.byte		N15   , Gn0 , v100
	.byte	W02
	.byte	PEND
@ 037   ----------------------------------------
gourmetrace_1_037:
	.byte	W21
	.byte		N15   , Dn0 , v084
	.byte	W24
	.byte		N21   , Gn0 , v096
	.byte	W24
	.byte	W02
	.byte		N16   , Dn0 , v108
	.byte	W24
	.byte		        Fn0 , v104
	.byte	W01
	.byte	PEND
@ 038   ----------------------------------------
gourmetrace_1_038:
	.byte	W21
	.byte		N18   , Fn0 , v104
	.byte	W24
	.byte	W01
	.byte		N17   , As0 , v108
	.byte	W24
	.byte	W01
	.byte		N19   
	.byte	W24
	.byte	W01
	.byte	PEND
@ 039   ----------------------------------------
gourmetrace_1_039:
	.byte		N15   , Ds1 , v112
	.byte	W23
	.byte		N17   , As0 , v108
	.byte	W24
	.byte		N13   , Ds1 
	.byte	W24
	.byte		N16   , As0 
	.byte	W22
	.byte		N18   , Bn0 , v100
	.byte	W03
	.byte	PEND
@ 040   ----------------------------------------
gourmetrace_1_040:
	.byte	W20
	.byte		N18   , Fs0 , v100
	.byte	W24
	.byte	W02
	.byte		N14   , Bn0 
	.byte	W22
	.byte		N18   , Fs0 
	.byte	W24
	.byte		N16   , As0 , v092
	.byte	W04
	.byte	PEND
@ 041   ----------------------------------------
gourmetrace_1_041:
	.byte	W21
	.byte		N16   , Fn0 , v104
	.byte	W24
	.byte		N15   , As0 , v100
	.byte	W24
	.byte		N17   , Fn0 , v076
	.byte	W24
	.byte	W01
	.byte		N15   , Ds1 , v104
	.byte	W02
	.byte	PEND
@ 042   ----------------------------------------
gourmetrace_1_042:
	.byte	W21
	.byte		N16   , As0 , v104
	.byte	W24
	.byte	W01
	.byte		N15   , Ds1 , v108
	.byte	W22
	.byte		N17   , As0 
	.byte	W24
	.byte	W01
	.byte		N22   
	.byte	W03
	.byte	PEND
@ 043   ----------------------------------------
gourmetrace_1_043:
	.byte	W23
	.byte		N19   , Fn0 , v080
	.byte	W23
	.byte		N16   , As0 , v104
	.byte	W24
	.byte		N14   , Fn0 , v092
	.byte	W23
	.byte		N16   , Cn1 , v100
	.byte	W03
	.byte	PEND
@ 044   ----------------------------------------
gourmetrace_1_044:
	.byte	W21
	.byte		N18   , Gn0 , v104
	.byte	W24
	.byte		N16   , Cn1 , v100
	.byte	W24
	.byte	W01
	.byte		N14   , Gn0 , v108
	.byte	W23
	.byte		N21   , Gn0 , v100
	.byte	W03
	.byte	PEND
@ 045   ----------------------------------------
gourmetrace_1_045:
	.byte	W22
	.byte		N18   , Dn0 , v092
	.byte	W24
	.byte		N20   , Gn0 , v096
	.byte	W24
	.byte		N19   , Dn0 , v104
	.byte	W24
	.byte		N17   , Fn0 , v100
	.byte	W02
	.byte	PEND
@ 046   ----------------------------------------
gourmetrace_1_046:
	.byte	W22
	.byte		N23   , Fn0 , v092
	.byte	W24
	.byte		N16   , As0 
	.byte	W23
	.byte		N19   , As0 , v100
	.byte	W24
	.byte	W01
	.byte		        Ds1 , v108
	.byte	W02
	.byte	PEND
@ 047   ----------------------------------------
gourmetrace_1_047:
	.byte	W21
	.byte		N22   , As0 , v092
	.byte	W24
	.byte	W01
	.byte		N14   , Ds1 , v108
	.byte	W24
	.byte		N22   , As0 
	.byte	W23
	.byte		N12   , Dn0 , v084
	.byte	W03
	.byte	PEND
@ 048   ----------------------------------------
gourmetrace_1_048:
	.byte	W10
	.byte		N13   , An0 , v096
	.byte	W12
	.byte		N11   , Dn1 , v088
	.byte	W11
	.byte		N13   , Dn0 , v084
	.byte	W13
	.byte		N12   , An0 , v104
	.byte	W12
	.byte		        Dn1 , v076
	.byte	W13
	.byte		N13   , Dn0 , v092
	.byte	W12
	.byte		N11   , An0 , v084
	.byte	W11
	.byte		N13   , Gn0 , v108
	.byte	W02
	.byte	PEND
@ 049   ----------------------------------------
gourmetrace_1_049:
	.byte	W10
	.byte		N12   , Dn1 , v084
	.byte	W12
	.byte		N10   , Gn1 , v068
	.byte	W12
	.byte		        Dn1 , v088
	.byte	W12
	.byte		N19   , Gn0 , v108
	.byte	W24
	.byte		N18   , Gn0 , v127
	.byte	W24
	.byte	W02
	.byte	PEND
@ 050   ----------------------------------------
gourmetrace_1_050:
	.byte		N11   , Fn0 , v100
	.byte	W11
	.byte		        Fn1 , v084
	.byte	W12
	.byte		        Fn0 , v100
	.byte	W10
	.byte		N14   , Fn1 
	.byte	W13
	.byte		        Gn0 , v108
	.byte	W13
	.byte		N12   , Gn1 , v080
	.byte	W12
	.byte		        Gn0 , v092
	.byte	W12
	.byte		N11   , Gn1 , v088
	.byte	W13
	.byte	PEND
@ 051   ----------------------------------------
	.byte	PATT
	 .word	gourmetrace_1_001
@ 052   ----------------------------------------
	.byte	W96
@ 053   ----------------------------------------
	.byte	W96
@ 054   ----------------------------------------
	.byte	W96
@ 055   ----------------------------------------
	.byte	W96
@ 056   ----------------------------------------
	.byte	W96
@ 057   ----------------------------------------
	.byte	W96
@ 058   ----------------------------------------
	.byte	W96
@ 059   ----------------------------------------
	.byte	W96
@ 060   ----------------------------------------
	.byte	W96
@ 061   ----------------------------------------
	.byte	W96
@ 062   ----------------------------------------
	.byte	W96
@ 063   ----------------------------------------
	.byte	W96
@ 064   ----------------------------------------
	.byte	W96
@ 065   ----------------------------------------
	.byte	W96
@ 066   ----------------------------------------
	.byte	W96
@ 067   ----------------------------------------
	.byte	W96
@ 068   ----------------------------------------
	.byte	W96
@ 069   ----------------------------------------
	.byte	W96
@ 070   ----------------------------------------
	.byte	W96
@ 071   ----------------------------------------
	.byte	W96
@ 072   ----------------------------------------
	.byte	PATT
	 .word	gourmetrace_1_022
@ 073   ----------------------------------------
	.byte	PATT
	 .word	gourmetrace_1_023
@ 074   ----------------------------------------
	.byte	PATT
	 .word	gourmetrace_1_024
@ 075   ----------------------------------------
	.byte	PATT
	 .word	gourmetrace_1_025
@ 076   ----------------------------------------
	.byte	W96
@ 077   ----------------------------------------
	.byte	W96
@ 078   ----------------------------------------
	.byte	W96
@ 079   ----------------------------------------
	.byte	PATT
	 .word	gourmetrace_1_029
@ 080   ----------------------------------------
	.byte	PATT
	 .word	gourmetrace_1_030
@ 081   ----------------------------------------
	.byte	PATT
	 .word	gourmetrace_1_031
@ 082   ----------------------------------------
	.byte	PATT
	 .word	gourmetrace_1_032
@ 083   ----------------------------------------
	.byte	PATT
	 .word	gourmetrace_1_033
@ 084   ----------------------------------------
	.byte	PATT
	 .word	gourmetrace_1_034
@ 085   ----------------------------------------
	.byte	PATT
	 .word	gourmetrace_1_035
@ 086   ----------------------------------------
	.byte	PATT
	 .word	gourmetrace_1_036
@ 087   ----------------------------------------
	.byte	PATT
	 .word	gourmetrace_1_037
@ 088   ----------------------------------------
	.byte	PATT
	 .word	gourmetrace_1_038
@ 089   ----------------------------------------
	.byte	PATT
	 .word	gourmetrace_1_039
@ 090   ----------------------------------------
	.byte	PATT
	 .word	gourmetrace_1_040
@ 091   ----------------------------------------
	.byte	PATT
	 .word	gourmetrace_1_041
@ 092   ----------------------------------------
	.byte	PATT
	 .word	gourmetrace_1_042
@ 093   ----------------------------------------
	.byte	PATT
	 .word	gourmetrace_1_043
@ 094   ----------------------------------------
	.byte	PATT
	 .word	gourmetrace_1_044
@ 095   ----------------------------------------
	.byte	PATT
	 .word	gourmetrace_1_045
@ 096   ----------------------------------------
	.byte	PATT
	 .word	gourmetrace_1_046
@ 097   ----------------------------------------
	.byte	PATT
	 .word	gourmetrace_1_047
@ 098   ----------------------------------------
	.byte	PATT
	 .word	gourmetrace_1_048
@ 099   ----------------------------------------
	.byte	PATT
	 .word	gourmetrace_1_049
@ 100   ----------------------------------------
	.byte	PATT
	 .word	gourmetrace_1_050
@ 101   ----------------------------------------
	.byte	PATT
	 .word	gourmetrace_1_001
@ 102   ----------------------------------------
	.byte	W96
@ 103   ----------------------------------------
	.byte	W96
@ 104   ----------------------------------------
	.byte	W96
@ 105   ----------------------------------------
	.byte	W96
@ 106   ----------------------------------------
	.byte	W96
@ 107   ----------------------------------------
	.byte	W96
@ 108   ----------------------------------------
	.byte	W96
@ 109   ----------------------------------------
	.byte	W96
@ 110   ----------------------------------------
	.byte	W96
@ 111   ----------------------------------------
	.byte	W96
@ 112   ----------------------------------------
	.byte	W96
@ 113   ----------------------------------------
	.byte	W96
@ 114   ----------------------------------------
	.byte	W96
@ 115   ----------------------------------------
	.byte	W96
@ 116   ----------------------------------------
	.byte	W96
@ 117   ----------------------------------------
	.byte	W96
@ 118   ----------------------------------------
	.byte	W96
@ 119   ----------------------------------------
	.byte	W96
@ 120   ----------------------------------------
	.byte	W96
@ 121   ----------------------------------------
	.byte	W96
@ 122   ----------------------------------------
	.byte	PATT
	 .word	gourmetrace_1_022
@ 123   ----------------------------------------
	.byte	PATT
	 .word	gourmetrace_1_023
@ 124   ----------------------------------------
	.byte	PATT
	 .word	gourmetrace_1_024
@ 125   ----------------------------------------
	.byte	PATT
	 .word	gourmetrace_1_025
@ 126   ----------------------------------------
	.byte	W96
@ 127   ----------------------------------------
	.byte	W96
@ 128   ----------------------------------------
	.byte	W96
@ 129   ----------------------------------------
	.byte	PATT
	 .word	gourmetrace_1_029
@ 130   ----------------------------------------
	.byte	PATT
	 .word	gourmetrace_1_030
@ 131   ----------------------------------------
	.byte	PATT
	 .word	gourmetrace_1_031
@ 132   ----------------------------------------
	.byte	PATT
	 .word	gourmetrace_1_032
@ 133   ----------------------------------------
	.byte	PATT
	 .word	gourmetrace_1_033
@ 134   ----------------------------------------
	.byte	PATT
	 .word	gourmetrace_1_034
@ 135   ----------------------------------------
	.byte	PATT
	 .word	gourmetrace_1_035
@ 136   ----------------------------------------
	.byte	PATT
	 .word	gourmetrace_1_036
@ 137   ----------------------------------------
	.byte	PATT
	 .word	gourmetrace_1_037
@ 138   ----------------------------------------
	.byte	PATT
	 .word	gourmetrace_1_038
@ 139   ----------------------------------------
	.byte	PATT
	 .word	gourmetrace_1_039
@ 140   ----------------------------------------
	.byte	PATT
	 .word	gourmetrace_1_040
@ 141   ----------------------------------------
	.byte	PATT
	 .word	gourmetrace_1_041
@ 142   ----------------------------------------
	.byte	PATT
	 .word	gourmetrace_1_042
@ 143   ----------------------------------------
	.byte	PATT
	 .word	gourmetrace_1_043
@ 144   ----------------------------------------
	.byte	PATT
	 .word	gourmetrace_1_044
@ 145   ----------------------------------------
	.byte	PATT
	 .word	gourmetrace_1_045
@ 146   ----------------------------------------
	.byte	PATT
	 .word	gourmetrace_1_046
@ 147   ----------------------------------------
	.byte	PATT
	 .word	gourmetrace_1_047
@ 148   ----------------------------------------
	.byte	PATT
	 .word	gourmetrace_1_048
@ 149   ----------------------------------------
	.byte	PATT
	 .word	gourmetrace_1_049
@ 150   ----------------------------------------
	.byte	PATT
	 .word	gourmetrace_1_050
@ 151   ----------------------------------------
	.byte	PATT
	 .word	gourmetrace_1_001
@ 152   ----------------------------------------
	.byte	W96
@ 153   ----------------------------------------
	.byte	W96
@ 154   ----------------------------------------
	.byte	W96
@ 155   ----------------------------------------
	.byte	W96
@ 156   ----------------------------------------
	.byte	W96
@ 157   ----------------------------------------
	.byte	W96
@ 158   ----------------------------------------
	.byte	W96
@ 159   ----------------------------------------
	.byte	W96
@ 160   ----------------------------------------
	.byte	W96
@ 161   ----------------------------------------
	.byte	W96
@ 162   ----------------------------------------
	.byte	W96
@ 163   ----------------------------------------
	.byte	W96
@ 164   ----------------------------------------
	.byte	W96
@ 165   ----------------------------------------
	.byte	W96
@ 166   ----------------------------------------
	.byte	W96
@ 167   ----------------------------------------
	.byte	W96
@ 168   ----------------------------------------
	.byte	W96
@ 169   ----------------------------------------
	.byte	W96
@ 170   ----------------------------------------
	.byte	W96
@ 171   ----------------------------------------
	.byte	W96
@ 172   ----------------------------------------
	.byte	PATT
	 .word	gourmetrace_1_022
@ 173   ----------------------------------------
	.byte	PATT
	 .word	gourmetrace_1_023
@ 174   ----------------------------------------
	.byte	PATT
	 .word	gourmetrace_1_024
@ 175   ----------------------------------------
	.byte	PATT
	 .word	gourmetrace_1_025
@ 176   ----------------------------------------
	.byte	W96
@ 177   ----------------------------------------
	.byte	W96
@ 178   ----------------------------------------
	.byte	W96
@ 179   ----------------------------------------
	.byte	PATT
	 .word	gourmetrace_1_029
@ 180   ----------------------------------------
	.byte	PATT
	 .word	gourmetrace_1_030
@ 181   ----------------------------------------
	.byte	PATT
	 .word	gourmetrace_1_031
@ 182   ----------------------------------------
	.byte	PATT
	 .word	gourmetrace_1_032
@ 183   ----------------------------------------
	.byte	PATT
	 .word	gourmetrace_1_033
@ 184   ----------------------------------------
	.byte	PATT
	 .word	gourmetrace_1_034
@ 185   ----------------------------------------
	.byte	PATT
	 .word	gourmetrace_1_035
@ 186   ----------------------------------------
	.byte	PATT
	 .word	gourmetrace_1_036
@ 187   ----------------------------------------
	.byte	PATT
	 .word	gourmetrace_1_037
@ 188   ----------------------------------------
	.byte	PATT
	 .word	gourmetrace_1_038
@ 189   ----------------------------------------
	.byte	PATT
	 .word	gourmetrace_1_039
@ 190   ----------------------------------------
	.byte	PATT
	 .word	gourmetrace_1_040
@ 191   ----------------------------------------
	.byte	PATT
	 .word	gourmetrace_1_041
@ 192   ----------------------------------------
	.byte	PATT
	 .word	gourmetrace_1_042
@ 193   ----------------------------------------
	.byte	PATT
	 .word	gourmetrace_1_043
@ 194   ----------------------------------------
	.byte	PATT
	 .word	gourmetrace_1_044
@ 195   ----------------------------------------
	.byte	PATT
	 .word	gourmetrace_1_045
@ 196   ----------------------------------------
	.byte	PATT
	 .word	gourmetrace_1_046
@ 197   ----------------------------------------
	.byte	PATT
	 .word	gourmetrace_1_047
@ 198   ----------------------------------------
	.byte	PATT
	 .word	gourmetrace_1_048
@ 199   ----------------------------------------
	.byte	W10
	.byte		N12   , Dn1 , v084
	.byte	W12
	.byte		N10   , Gn1 , v068
	.byte	W12
	.byte		        Dn1 , v088
	.byte	W12
	.byte		N19   , Gn0 , v108
	.byte	W24
	.byte		N18   , Gn0 , v127
	.byte	W19
	.byte	FINE

@**************** Track 2 (Midi-Chn.2) ****************@

gourmetrace_2:
	.byte	KEYSH , gourmetrace_key+0
@ 000   ----------------------------------------
	.byte		VOICE , 58
	.byte		VOL   , 127*gourmetrace_mvl/mxv
	.byte		PAN   , c_v+0
	.byte	W96
@ 001   ----------------------------------------
	.byte	W96
@ 002   ----------------------------------------
gourmetrace_2_002:
	.byte		N16   , Cn1 , v108
	.byte	W23
	.byte		N18   , Gn0 
	.byte	W24
	.byte		N16   , Cn1 , v104
	.byte	W23
	.byte		N17   , Gn0 , v108
	.byte	W24
	.byte		N15   , Cn1 , v104
	.byte	W02
	.byte	PEND
@ 003   ----------------------------------------
gourmetrace_2_003:
	.byte	W21
	.byte		N15   , Gn0 , v100
	.byte	W23
	.byte		N17   , Cn1 
	.byte	W24
	.byte	W01
	.byte		N16   , Gn0 , v104
	.byte	W24
	.byte		N17   , Fn0 , v108
	.byte	W03
	.byte	PEND
@ 004   ----------------------------------------
gourmetrace_2_004:
	.byte	W20
	.byte		N18   , Cn0 , v100
	.byte	W24
	.byte	W02
	.byte		N16   , Fn0 , v088
	.byte	W24
	.byte		        Cn0 , v092
	.byte	W23
	.byte		N17   , Cn1 , v104
	.byte	W03
	.byte	PEND
@ 005   ----------------------------------------
gourmetrace_2_005:
	.byte	W22
	.byte		N15   , Gn0 , v108
	.byte	W24
	.byte		N14   , Cn1 , v104
	.byte	W24
	.byte	W01
	.byte		N15   , Gn0 , v108
	.byte	W24
	.byte		N14   , Cn1 , v100
	.byte	W01
	.byte	PEND
@ 006   ----------------------------------------
gourmetrace_2_006:
	.byte	W22
	.byte		N14   , Gn0 , v104
	.byte	W23
	.byte		        Cn1 , v100
	.byte	W24
	.byte	W01
	.byte		        Gn0 , v108
	.byte	W24
	.byte	W01
	.byte		N13   , Cn1 , v104
	.byte	W01
	.byte	PEND
@ 007   ----------------------------------------
gourmetrace_2_007:
	.byte	W24
	.byte		N14   , Gn0 , v100
	.byte	W22
	.byte		N13   , Cn1 , v088
	.byte	W24
	.byte	W01
	.byte		        Gn0 , v100
	.byte	W22
	.byte		N16   , Fn0 , v104
	.byte	W03
	.byte	PEND
@ 008   ----------------------------------------
gourmetrace_2_008:
	.byte	W22
	.byte		N17   , Fn1 , v088
	.byte	W24
	.byte		        Gn1 
	.byte	W24
	.byte	W01
	.byte		N16   , Gn0 , v108
	.byte	W23
	.byte		N18   , Cn1 , v100
	.byte	W02
	.byte	PEND
@ 009   ----------------------------------------
gourmetrace_2_009:
	.byte	W22
	.byte		N18   , Gn0 , v104
	.byte	W24
	.byte	W01
	.byte		N15   , Cn1 , v100
	.byte	W23
	.byte		N14   , Gn0 , v108
	.byte	W23
	.byte		N15   , Cn1 , v100
	.byte	W03
	.byte	PEND
@ 010   ----------------------------------------
gourmetrace_2_010:
	.byte	W21
	.byte		N16   , Gn0 , v100
	.byte	W24
	.byte		        Cn1 , v096
	.byte	W24
	.byte		N15   , Gn0 , v104
	.byte	W24
	.byte		N16   , Cn1 , v100
	.byte	W03
	.byte	PEND
@ 011   ----------------------------------------
gourmetrace_2_011:
	.byte	W22
	.byte		N16   , Gn0 , v100
	.byte	W23
	.byte		N15   , Cn1 , v092
	.byte	W24
	.byte	W01
	.byte		N16   , Gn0 
	.byte	W23
	.byte		N15   , Fn0 , v108
	.byte	W03
	.byte	PEND
@ 012   ----------------------------------------
gourmetrace_2_012:
	.byte	W21
	.byte		N15   , Cn1 , v096
	.byte	W23
	.byte		N17   , Fn0 
	.byte	W24
	.byte		N16   , Cn1 , v092
	.byte	W24
	.byte	W01
	.byte		        Cn1 , v100
	.byte	W03
	.byte	PEND
@ 013   ----------------------------------------
gourmetrace_2_013:
	.byte	W21
	.byte		N15   , Gn0 , v104
	.byte	W24
	.byte	W01
	.byte		N14   , Cn1 , v096
	.byte	W24
	.byte		        Gn0 , v108
	.byte	W24
	.byte	W02
	.byte	PEND
@ 014   ----------------------------------------
gourmetrace_2_014:
	.byte		N14   , Cn1 , v100
	.byte	W24
	.byte		N12   , Gn0 , v108
	.byte	W22
	.byte		N13   , Cn1 , v100
	.byte	W23
	.byte		        Gn0 , v104
	.byte	W24
	.byte		N14   , Fn0 , v076
	.byte	W03
	.byte	PEND
@ 015   ----------------------------------------
gourmetrace_2_015:
	.byte	W20
	.byte		N13   , Cn0 , v100
	.byte	W24
	.byte		N14   , Fn0 
	.byte	W24
	.byte		N17   , Cn0 
	.byte	W24
	.byte	W01
	.byte		N18   , Fn0 
	.byte		N18   , Gn0 
	.byte	W03
	.byte	PEND
@ 016   ----------------------------------------
gourmetrace_2_016:
	.byte	W21
	.byte		N14   , Fn1 , v072
	.byte	W23
	.byte		N16   , Gn1 , v068
	.byte	W24
	.byte		N18   , Gn0 , v104
	.byte	W24
	.byte	W01
	.byte		N15   , Cn1 , v096
	.byte	W03
	.byte	PEND
@ 017   ----------------------------------------
gourmetrace_2_017:
	.byte	W22
	.byte		N18   , Gn0 , v100
	.byte	W24
	.byte		N17   , Cn1 , v096
	.byte	W22
	.byte		        Gn0 , v100
	.byte	W24
	.byte	W01
	.byte		N18   , Fn0 
	.byte		N19   , Fn1 , v072
	.byte	W03
	.byte	PEND
@ 018   ----------------------------------------
gourmetrace_2_018:
	.byte	W21
	.byte		N17   , Fn0 , v084
	.byte		N19   , Fn1 , v072
	.byte	W24
	.byte		N16   , Gs0 , v100
	.byte		N16   , Gs1 , v080
	.byte	W24
	.byte		N18   , Cn1 , v076
	.byte	W01
	.byte		N15   , Cn2 , v068
	.byte	W24
	.byte		N17   , Ds1 , v072
	.byte		N17   , Ds2 , v084
	.byte	W02
	.byte	PEND
@ 019   ----------------------------------------
gourmetrace_2_019:
	.byte	W21
	.byte		N17   , Dn1 , v072
	.byte		N19   , Dn2 , v076
	.byte	W24
	.byte		N18   , Cn2 , v080
	.byte	W01
	.byte		N16   , Cn1 
	.byte	W22
	.byte		N18   , Gn1 , v084
	.byte	W01
	.byte		        Gn0 , v076
	.byte	W24
	.byte		N16   , Fn0 , v080
	.byte		N15   , Fn1 , v076
	.byte	W03
	.byte	PEND
@ 020   ----------------------------------------
gourmetrace_2_020:
	.byte	W20
	.byte		N16   , Fn0 , v080
	.byte	W01
	.byte		N17   , Fn1 , v076
	.byte	W24
	.byte		N15   , Gs0 , v068
	.byte		N16   , Gs1 , v092
	.byte	W24
	.byte		N18   , Cn1 , v072
	.byte		N16   , Cn2 , v076
	.byte	W24
	.byte	W01
	.byte		        Ds1 , v080
	.byte		N15   , Ds2 , v084
	.byte	W02
	.byte	PEND
@ 021   ----------------------------------------
gourmetrace_2_021:
	.byte	W22
	.byte		N15   , Fn2 , v068
	.byte	W01
	.byte		N13   , Fn1 , v076
	.byte	W22
	.byte		N36   , Gn2 , v072
	.byte	W01
	.byte		        Gn1 , v104
	.byte	W48
	.byte	W02
	.byte	PEND
@ 022   ----------------------------------------
	.byte	W96
@ 023   ----------------------------------------
	.byte	W96
@ 024   ----------------------------------------
	.byte	W96
@ 025   ----------------------------------------
	.byte	W96
@ 026   ----------------------------------------
gourmetrace_2_026:
	.byte		N16   , Fn0 , v088
	.byte		N18   , Fn1 
	.byte	W22
	.byte		N17   , Fn0 , v076
	.byte		N18   , Fn1 , v072
	.byte	W24
	.byte		N17   , Gs0 , v080
	.byte		N16   , Gs1 , v076
	.byte	W23
	.byte		        Cn1 
	.byte		N17   , Cn2 
	.byte	W24
	.byte	W01
	.byte		        Ds1 , v072
	.byte		N17   , Ds2 , v100
	.byte	W02
	.byte	PEND
@ 027   ----------------------------------------
gourmetrace_2_027:
	.byte	W21
	.byte		N18   , Dn1 , v068
	.byte		N18   , Dn2 , v080
	.byte	W24
	.byte		N15   , Cn2 
	.byte	W01
	.byte		N20   , Cn1 , v084
	.byte	W23
	.byte		N15   , Gn0 
	.byte		N16   , Gn1 , v092
	.byte	W24
	.byte		        Fn0 , v076
	.byte		N19   , Fn1 , v072
	.byte	W03
	.byte	PEND
@ 028   ----------------------------------------
gourmetrace_2_028:
	.byte	W21
	.byte		N17   , Fn0 , v080
	.byte		N19   , Fn1 
	.byte	W24
	.byte		        Gs0 , v076
	.byte		N16   , Gs1 , v100
	.byte	W23
	.byte		N20   , Cn1 , v080
	.byte		N17   , Cn2 , v076
	.byte	W24
	.byte	W02
	.byte		        Ds1 , v092
	.byte		N15   , Ds2 , v088
	.byte	W02
	.byte	PEND
@ 029   ----------------------------------------
gourmetrace_2_029:
	.byte	W21
	.byte		N15   , Fn1 , v080
	.byte		N16   , Fn2 , v068
	.byte	W24
	.byte		N36   , Gn2 
	.byte	W01
	.byte		        Gn1 , v108
	.byte	W48
	.byte	W02
	.byte	PEND
@ 030   ----------------------------------------
	.byte	W96
@ 031   ----------------------------------------
	.byte	W96
@ 032   ----------------------------------------
	.byte	W96
@ 033   ----------------------------------------
	.byte	W96
@ 034   ----------------------------------------
	.byte	W96
@ 035   ----------------------------------------
	.byte	W96
@ 036   ----------------------------------------
	.byte	W96
@ 037   ----------------------------------------
	.byte	W96
@ 038   ----------------------------------------
	.byte	W96
@ 039   ----------------------------------------
	.byte	W96
@ 040   ----------------------------------------
	.byte	W96
@ 041   ----------------------------------------
	.byte	W96
@ 042   ----------------------------------------
	.byte	W96
@ 043   ----------------------------------------
	.byte	W96
@ 044   ----------------------------------------
	.byte	W96
@ 045   ----------------------------------------
	.byte	W96
@ 046   ----------------------------------------
	.byte	W96
@ 047   ----------------------------------------
	.byte	W96
@ 048   ----------------------------------------
	.byte	W96
@ 049   ----------------------------------------
	.byte	W96
@ 050   ----------------------------------------
	.byte	W96
@ 051   ----------------------------------------
	.byte	W96
@ 052   ----------------------------------------
	.byte	PATT
	 .word	gourmetrace_2_002
@ 053   ----------------------------------------
	.byte	PATT
	 .word	gourmetrace_2_003
@ 054   ----------------------------------------
	.byte	PATT
	 .word	gourmetrace_2_004
@ 055   ----------------------------------------
	.byte	PATT
	 .word	gourmetrace_2_005
@ 056   ----------------------------------------
	.byte	PATT
	 .word	gourmetrace_2_006
@ 057   ----------------------------------------
	.byte	PATT
	 .word	gourmetrace_2_007
@ 058   ----------------------------------------
	.byte	PATT
	 .word	gourmetrace_2_008
@ 059   ----------------------------------------
	.byte	PATT
	 .word	gourmetrace_2_009
@ 060   ----------------------------------------
	.byte	PATT
	 .word	gourmetrace_2_010
@ 061   ----------------------------------------
	.byte	PATT
	 .word	gourmetrace_2_011
@ 062   ----------------------------------------
	.byte	PATT
	 .word	gourmetrace_2_012
@ 063   ----------------------------------------
	.byte	PATT
	 .word	gourmetrace_2_013
@ 064   ----------------------------------------
	.byte	PATT
	 .word	gourmetrace_2_014
@ 065   ----------------------------------------
	.byte	PATT
	 .word	gourmetrace_2_015
@ 066   ----------------------------------------
	.byte	PATT
	 .word	gourmetrace_2_016
@ 067   ----------------------------------------
	.byte	PATT
	 .word	gourmetrace_2_017
@ 068   ----------------------------------------
	.byte	PATT
	 .word	gourmetrace_2_018
@ 069   ----------------------------------------
	.byte	PATT
	 .word	gourmetrace_2_019
@ 070   ----------------------------------------
	.byte	PATT
	 .word	gourmetrace_2_020
@ 071   ----------------------------------------
	.byte	PATT
	 .word	gourmetrace_2_021
@ 072   ----------------------------------------
	.byte	W96
@ 073   ----------------------------------------
	.byte	W96
@ 074   ----------------------------------------
	.byte	W96
@ 075   ----------------------------------------
	.byte	W96
@ 076   ----------------------------------------
	.byte	PATT
	 .word	gourmetrace_2_026
@ 077   ----------------------------------------
	.byte	PATT
	 .word	gourmetrace_2_027
@ 078   ----------------------------------------
	.byte	PATT
	 .word	gourmetrace_2_028
@ 079   ----------------------------------------
	.byte	PATT
	 .word	gourmetrace_2_029
@ 080   ----------------------------------------
	.byte	W96
@ 081   ----------------------------------------
	.byte	W96
@ 082   ----------------------------------------
	.byte	W96
@ 083   ----------------------------------------
	.byte	W96
@ 084   ----------------------------------------
	.byte	W96
@ 085   ----------------------------------------
	.byte	W96
@ 086   ----------------------------------------
	.byte	W96
@ 087   ----------------------------------------
	.byte	W96
@ 088   ----------------------------------------
	.byte	W96
@ 089   ----------------------------------------
	.byte	W96
@ 090   ----------------------------------------
	.byte	W96
@ 091   ----------------------------------------
	.byte	W96
@ 092   ----------------------------------------
	.byte	W96
@ 093   ----------------------------------------
	.byte	W96
@ 094   ----------------------------------------
	.byte	W96
@ 095   ----------------------------------------
	.byte	W96
@ 096   ----------------------------------------
	.byte	W96
@ 097   ----------------------------------------
	.byte	W96
@ 098   ----------------------------------------
	.byte	W96
@ 099   ----------------------------------------
	.byte	W96
@ 100   ----------------------------------------
	.byte	W96
@ 101   ----------------------------------------
	.byte	W96
@ 102   ----------------------------------------
	.byte	PATT
	 .word	gourmetrace_2_002
@ 103   ----------------------------------------
	.byte	PATT
	 .word	gourmetrace_2_003
@ 104   ----------------------------------------
	.byte	PATT
	 .word	gourmetrace_2_004
@ 105   ----------------------------------------
	.byte	PATT
	 .word	gourmetrace_2_005
@ 106   ----------------------------------------
	.byte	PATT
	 .word	gourmetrace_2_006
@ 107   ----------------------------------------
	.byte	PATT
	 .word	gourmetrace_2_007
@ 108   ----------------------------------------
	.byte	PATT
	 .word	gourmetrace_2_008
@ 109   ----------------------------------------
	.byte	PATT
	 .word	gourmetrace_2_009
@ 110   ----------------------------------------
	.byte	PATT
	 .word	gourmetrace_2_010
@ 111   ----------------------------------------
	.byte	PATT
	 .word	gourmetrace_2_011
@ 112   ----------------------------------------
	.byte	PATT
	 .word	gourmetrace_2_012
@ 113   ----------------------------------------
	.byte	PATT
	 .word	gourmetrace_2_013
@ 114   ----------------------------------------
	.byte	PATT
	 .word	gourmetrace_2_014
@ 115   ----------------------------------------
	.byte	PATT
	 .word	gourmetrace_2_015
@ 116   ----------------------------------------
	.byte	PATT
	 .word	gourmetrace_2_016
@ 117   ----------------------------------------
	.byte	PATT
	 .word	gourmetrace_2_017
@ 118   ----------------------------------------
	.byte	PATT
	 .word	gourmetrace_2_018
@ 119   ----------------------------------------
	.byte	PATT
	 .word	gourmetrace_2_019
@ 120   ----------------------------------------
	.byte	PATT
	 .word	gourmetrace_2_020
@ 121   ----------------------------------------
	.byte	PATT
	 .word	gourmetrace_2_021
@ 122   ----------------------------------------
	.byte	W96
@ 123   ----------------------------------------
	.byte	W96
@ 124   ----------------------------------------
	.byte	W96
@ 125   ----------------------------------------
	.byte	W96
@ 126   ----------------------------------------
	.byte	PATT
	 .word	gourmetrace_2_026
@ 127   ----------------------------------------
	.byte	PATT
	 .word	gourmetrace_2_027
@ 128   ----------------------------------------
	.byte	PATT
	 .word	gourmetrace_2_028
@ 129   ----------------------------------------
	.byte	PATT
	 .word	gourmetrace_2_029
@ 130   ----------------------------------------
	.byte	W96
@ 131   ----------------------------------------
	.byte	W96
@ 132   ----------------------------------------
	.byte	W96
@ 133   ----------------------------------------
	.byte	W96
@ 134   ----------------------------------------
	.byte	W96
@ 135   ----------------------------------------
	.byte	W96
@ 136   ----------------------------------------
	.byte	W96
@ 137   ----------------------------------------
	.byte	W96
@ 138   ----------------------------------------
	.byte	W96
@ 139   ----------------------------------------
	.byte	W96
@ 140   ----------------------------------------
	.byte	W96
@ 141   ----------------------------------------
	.byte	W96
@ 142   ----------------------------------------
	.byte	W96
@ 143   ----------------------------------------
	.byte	W96
@ 144   ----------------------------------------
	.byte	W96
@ 145   ----------------------------------------
	.byte	W96
@ 146   ----------------------------------------
	.byte	W96
@ 147   ----------------------------------------
	.byte	W96
@ 148   ----------------------------------------
	.byte	W96
@ 149   ----------------------------------------
	.byte	W96
@ 150   ----------------------------------------
	.byte	W96
@ 151   ----------------------------------------
	.byte	W96
@ 152   ----------------------------------------
	.byte	PATT
	 .word	gourmetrace_2_002
@ 153   ----------------------------------------
	.byte	PATT
	 .word	gourmetrace_2_003
@ 154   ----------------------------------------
	.byte	PATT
	 .word	gourmetrace_2_004
@ 155   ----------------------------------------
	.byte	PATT
	 .word	gourmetrace_2_005
@ 156   ----------------------------------------
	.byte	PATT
	 .word	gourmetrace_2_006
@ 157   ----------------------------------------
	.byte	PATT
	 .word	gourmetrace_2_007
@ 158   ----------------------------------------
	.byte	PATT
	 .word	gourmetrace_2_008
@ 159   ----------------------------------------
	.byte	PATT
	 .word	gourmetrace_2_009
@ 160   ----------------------------------------
	.byte	PATT
	 .word	gourmetrace_2_010
@ 161   ----------------------------------------
	.byte	PATT
	 .word	gourmetrace_2_011
@ 162   ----------------------------------------
	.byte	PATT
	 .word	gourmetrace_2_012
@ 163   ----------------------------------------
	.byte	PATT
	 .word	gourmetrace_2_013
@ 164   ----------------------------------------
	.byte	PATT
	 .word	gourmetrace_2_014
@ 165   ----------------------------------------
	.byte	PATT
	 .word	gourmetrace_2_015
@ 166   ----------------------------------------
	.byte	PATT
	 .word	gourmetrace_2_016
@ 167   ----------------------------------------
	.byte	PATT
	 .word	gourmetrace_2_017
@ 168   ----------------------------------------
	.byte	PATT
	 .word	gourmetrace_2_018
@ 169   ----------------------------------------
	.byte	PATT
	 .word	gourmetrace_2_019
@ 170   ----------------------------------------
	.byte	PATT
	 .word	gourmetrace_2_020
@ 171   ----------------------------------------
	.byte	PATT
	 .word	gourmetrace_2_021
@ 172   ----------------------------------------
	.byte	W96
@ 173   ----------------------------------------
	.byte	W96
@ 174   ----------------------------------------
	.byte	W96
@ 175   ----------------------------------------
	.byte	W96
@ 176   ----------------------------------------
	.byte	PATT
	 .word	gourmetrace_2_026
@ 177   ----------------------------------------
	.byte	PATT
	 .word	gourmetrace_2_027
@ 178   ----------------------------------------
	.byte	PATT
	 .word	gourmetrace_2_028
@ 179   ----------------------------------------
	.byte	W21
	.byte		N15   , Fn1 , v080
	.byte		N16   , Fn2 , v068
	.byte	W24
	.byte		N36   , Gn2 
	.byte	W01
	.byte		        Gn1 , v108
	.byte	W36
	.byte	W01
	.byte	FINE

@**************** Track 3 (Midi-Chn.3) ****************@

gourmetrace_3:
	.byte	KEYSH , gourmetrace_key+0
@ 000   ----------------------------------------
	.byte		VOICE , 73
	.byte		VOL   , 127*gourmetrace_mvl/mxv
	.byte		PAN   , c_v+0
	.byte	W96
@ 001   ----------------------------------------
	.byte	W96
@ 002   ----------------------------------------
gourmetrace_3_002:
	.byte		N36   , Cn5 , v100
	.byte	W48
	.byte		N32   , Gn4 
	.byte	W44
	.byte	W02
	.byte		N20   , Ds4 , v116
	.byte	W02
	.byte	PEND
@ 003   ----------------------------------------
gourmetrace_3_003:
	.byte	W22
	.byte		N20   , Dn4 , v084
	.byte	W24
	.byte		N36   , Cn4 , v104
	.byte	W48
	.byte	W01
	.byte		N17   , Cn4 , v108
	.byte	W01
	.byte	PEND
@ 004   ----------------------------------------
gourmetrace_3_004:
	.byte	W21
	.byte		N19   , Dn4 , v108
	.byte	W24
	.byte		N20   , Ds4 , v100
	.byte	W24
	.byte		N19   , Cn4 , v072
	.byte	W24
	.byte	W01
	.byte		        As3 , v108
	.byte	W02
	.byte	PEND
@ 005   ----------------------------------------
gourmetrace_3_005:
	.byte	W21
	.byte		N21   , Cn4 , v084
	.byte	W24
	.byte	W01
	.byte		N40   , Gn3 , v108
	.byte	W48
	.byte		N42   , Cn5 , v096
	.byte	W02
	.byte	PEND
@ 006   ----------------------------------------
gourmetrace_3_006:
	.byte	W44
	.byte	W02
	.byte		N42   , Gn4 , v108
	.byte	W44
	.byte	W03
	.byte		N24   , Ds4 , v100
	.byte	W03
	.byte	PEND
@ 007   ----------------------------------------
gourmetrace_3_007:
	.byte	W21
	.byte		N20   , Dn4 , v100
	.byte	W24
	.byte		N18   , Cn4 , v108
	.byte	W24
	.byte		N12   , Cn4 , v100
	.byte	W11
	.byte		N13   , Dn4 , v092
	.byte	W12
	.byte		N19   , Ds4 , v088
	.byte	W04
	.byte	PEND
@ 008   ----------------------------------------
gourmetrace_3_008:
	.byte	W20
	.byte		N17   , Fn4 , v088
	.byte	W23
	.byte		N23   , Dn4 , v100
	.byte	W24
	.byte	W02
	.byte		N20   , As3 , v112
	.byte	W24
	.byte	W01
	.byte		N19   , Cn4 , v108
	.byte	W02
	.byte	PEND
@ 009   ----------------------------------------
gourmetrace_3_009:
	.byte	W21
	.byte		N20   , Gn3 , v108
	.byte	W24
	.byte	W01
	.byte		N30   , Cn4 , v116
	.byte	W48
	.byte	W02
	.byte	PEND
@ 010   ----------------------------------------
	.byte	W96
@ 011   ----------------------------------------
	.byte	W96
@ 012   ----------------------------------------
	.byte	W96
@ 013   ----------------------------------------
	.byte	W96
@ 014   ----------------------------------------
	.byte	W96
@ 015   ----------------------------------------
	.byte	W96
@ 016   ----------------------------------------
	.byte	W96
@ 017   ----------------------------------------
	.byte	W96
@ 018   ----------------------------------------
	.byte	W96
@ 019   ----------------------------------------
	.byte	W96
@ 020   ----------------------------------------
	.byte	W96
@ 021   ----------------------------------------
	.byte	W96
@ 022   ----------------------------------------
	.byte	W96
@ 023   ----------------------------------------
	.byte	W96
@ 024   ----------------------------------------
	.byte	W96
@ 025   ----------------------------------------
	.byte	W96
@ 026   ----------------------------------------
	.byte	W96
@ 027   ----------------------------------------
	.byte	W96
@ 028   ----------------------------------------
	.byte	W96
@ 029   ----------------------------------------
	.byte	W96
@ 030   ----------------------------------------
	.byte	W96
@ 031   ----------------------------------------
	.byte	W96
@ 032   ----------------------------------------
	.byte	W96
@ 033   ----------------------------------------
gourmetrace_3_033:
	.byte	W92
	.byte	W01
	.byte		N05   , Ds4 , v116
	.byte	W03
	.byte	PEND
@ 034   ----------------------------------------
gourmetrace_3_034:
	.byte	W07
	.byte		N02   , Ds4 , v084
	.byte	W06
	.byte		N03   , Ds4 , v088
	.byte	W05
	.byte		N14   , Ds4 , v080
	.byte	W12
	.byte		N12   , Fn4 
	.byte	W15
	.byte		N06   , Gn4 , v088
	.byte	W10
	.byte		N03   , Gn4 , v076
	.byte	W06
	.byte		N08   , Gn4 , v084
	.byte	W08
	.byte		N12   , Fn4 , v076
	.byte	W12
	.byte		N10   , Ds4 , v108
	.byte	W11
	.byte		N06   , Dn4 , v092
	.byte	W04
	.byte	PEND
@ 035   ----------------------------------------
gourmetrace_3_035:
	.byte	W06
	.byte		N03   , Dn4 , v080
	.byte	W07
	.byte		N04   , Dn4 , v084
	.byte	W06
	.byte		N12   , Dn4 , v080
	.byte	W12
	.byte		N13   , Ds4 , v096
	.byte	W12
	.byte		N30   , Dn4 , v104
	.byte	W36
	.byte	W02
	.byte		N07   , Ds4 
	.byte	W05
	.byte		N06   , Dn4 
	.byte	W07
	.byte		N05   , Cn4 , v092
	.byte	W03
	.byte	PEND
@ 036   ----------------------------------------
gourmetrace_3_036:
	.byte	W08
	.byte		N03   , Cn4 , v084
	.byte	W06
	.byte		        Cn4 , v076
	.byte	W06
	.byte		N14   , Cn4 , v080
	.byte	W13
	.byte		N11   , Dn4 , v100
	.byte	W13
	.byte		N06   , Ds4 
	.byte	W11
	.byte		N03   
	.byte	W06
	.byte		N07   , Ds4 , v092
	.byte	W07
	.byte		N11   , Dn4 , v108
	.byte	W12
	.byte		        Cn4 , v088
	.byte	W12
	.byte		N06   , As3 , v100
	.byte	W02
	.byte	PEND
@ 037   ----------------------------------------
gourmetrace_3_037:
	.byte	W10
	.byte		N02   , As3 , v100
	.byte	W06
	.byte		        As3 , v108
	.byte	W06
	.byte		N06   , As3 , v100
	.byte	W11
	.byte		N11   , Cn4 , v096
	.byte	W12
	.byte		N28   , Dn4 , v088
	.byte	W36
	.byte	W01
	.byte		N05   , Cn4 , v104
	.byte	W06
	.byte		N06   , As3 , v084
	.byte	W07
	.byte		N05   , Gs3 , v108
	.byte	W01
	.byte	PEND
@ 038   ----------------------------------------
gourmetrace_3_038:
	.byte	W09
	.byte		N02   , Gs3 , v096
	.byte	W07
	.byte		        Gs3 , v108
	.byte	W05
	.byte		N11   
	.byte	W13
	.byte		        As3 
	.byte	W12
	.byte		N05   , Cn4 , v096
	.byte	W12
	.byte		N02   , Cn4 , v084
	.byte	W06
	.byte		N04   , Cn4 , v088
	.byte	W06
	.byte		N12   , As3 , v108
	.byte	W11
	.byte		N07   , Gs3 , v100
	.byte	W11
	.byte		N04   , Gn3 , v080
	.byte	W04
	.byte	PEND
@ 039   ----------------------------------------
gourmetrace_3_039:
	.byte	W08
	.byte		N06   , Gn3 , v048
	.byte	W07
	.byte		        As3 , v108
	.byte	W06
	.byte		N08   , Ds4 
	.byte	W12
	.byte		        Fn4 , v096
	.byte	W13
	.byte		N24   , Ds4 , v108
	.byte	W24
	.byte	W01
	.byte		N19   , As3 
	.byte	W22
	.byte		N07   , Ds4 , v120
	.byte	W03
	.byte	PEND
@ 040   ----------------------------------------
gourmetrace_3_040:
	.byte	W09
	.byte		N03   , Ds4 , v100
	.byte	W06
	.byte		        Ds4 , v084
	.byte	W06
	.byte		N09   , Ds4 , v080
	.byte	W11
	.byte		N10   , Fn4 , v076
	.byte	W13
	.byte		N05   , Fs4 , v104
	.byte	W10
	.byte		N02   , Fs4 , v084
	.byte	W07
	.byte		N06   
	.byte	W06
	.byte		N10   , Gs4 , v076
	.byte	W12
	.byte		N07   , Fs4 , v100
	.byte	W13
	.byte		N04   , Fn4 , v104
	.byte	W03
	.byte	PEND
@ 041   ----------------------------------------
gourmetrace_3_041:
	.byte	W08
	.byte		N03   , Fn4 , v100
	.byte	W06
	.byte		N03   
	.byte	W06
	.byte		N09   , Fn4 , v104
	.byte	W12
	.byte		N07   , Fs4 , v108
	.byte	W13
	.byte		N32   , Fn4 
	.byte	W48
	.byte	W03
	.byte	PEND
@ 042   ----------------------------------------
	.byte	W96
@ 043   ----------------------------------------
	.byte	W96
@ 044   ----------------------------------------
	.byte	W96
@ 045   ----------------------------------------
	.byte	W96
@ 046   ----------------------------------------
	.byte	W96
@ 047   ----------------------------------------
	.byte	W96
@ 048   ----------------------------------------
	.byte	W96
@ 049   ----------------------------------------
	.byte	W96
@ 050   ----------------------------------------
	.byte	W96
@ 051   ----------------------------------------
	.byte	W96
@ 052   ----------------------------------------
	.byte	PATT
	 .word	gourmetrace_3_002
@ 053   ----------------------------------------
	.byte	PATT
	 .word	gourmetrace_3_003
@ 054   ----------------------------------------
	.byte	PATT
	 .word	gourmetrace_3_004
@ 055   ----------------------------------------
	.byte	PATT
	 .word	gourmetrace_3_005
@ 056   ----------------------------------------
	.byte	PATT
	 .word	gourmetrace_3_006
@ 057   ----------------------------------------
	.byte	PATT
	 .word	gourmetrace_3_007
@ 058   ----------------------------------------
	.byte	PATT
	 .word	gourmetrace_3_008
@ 059   ----------------------------------------
	.byte	PATT
	 .word	gourmetrace_3_009
@ 060   ----------------------------------------
	.byte	W96
@ 061   ----------------------------------------
	.byte	W96
@ 062   ----------------------------------------
	.byte	W96
@ 063   ----------------------------------------
	.byte	W96
@ 064   ----------------------------------------
	.byte	W96
@ 065   ----------------------------------------
	.byte	W96
@ 066   ----------------------------------------
	.byte	W96
@ 067   ----------------------------------------
	.byte	W96
@ 068   ----------------------------------------
	.byte	W96
@ 069   ----------------------------------------
	.byte	W96
@ 070   ----------------------------------------
	.byte	W96
@ 071   ----------------------------------------
	.byte	W96
@ 072   ----------------------------------------
	.byte	W96
@ 073   ----------------------------------------
	.byte	W96
@ 074   ----------------------------------------
	.byte	W96
@ 075   ----------------------------------------
	.byte	W96
@ 076   ----------------------------------------
	.byte	W96
@ 077   ----------------------------------------
	.byte	W96
@ 078   ----------------------------------------
	.byte	W96
@ 079   ----------------------------------------
	.byte	W96
@ 080   ----------------------------------------
	.byte	W96
@ 081   ----------------------------------------
	.byte	W96
@ 082   ----------------------------------------
	.byte	W96
@ 083   ----------------------------------------
	.byte	PATT
	 .word	gourmetrace_3_033
@ 084   ----------------------------------------
	.byte	PATT
	 .word	gourmetrace_3_034
@ 085   ----------------------------------------
	.byte	PATT
	 .word	gourmetrace_3_035
@ 086   ----------------------------------------
	.byte	PATT
	 .word	gourmetrace_3_036
@ 087   ----------------------------------------
	.byte	PATT
	 .word	gourmetrace_3_037
@ 088   ----------------------------------------
	.byte	PATT
	 .word	gourmetrace_3_038
@ 089   ----------------------------------------
	.byte	PATT
	 .word	gourmetrace_3_039
@ 090   ----------------------------------------
	.byte	PATT
	 .word	gourmetrace_3_040
@ 091   ----------------------------------------
	.byte	PATT
	 .word	gourmetrace_3_041
@ 092   ----------------------------------------
	.byte	W96
@ 093   ----------------------------------------
	.byte	W96
@ 094   ----------------------------------------
	.byte	W96
@ 095   ----------------------------------------
	.byte	W96
@ 096   ----------------------------------------
	.byte	W96
@ 097   ----------------------------------------
	.byte	W96
@ 098   ----------------------------------------
	.byte	W96
@ 099   ----------------------------------------
	.byte	W96
@ 100   ----------------------------------------
	.byte	W96
@ 101   ----------------------------------------
	.byte	W96
@ 102   ----------------------------------------
	.byte	PATT
	 .word	gourmetrace_3_002
@ 103   ----------------------------------------
	.byte	PATT
	 .word	gourmetrace_3_003
@ 104   ----------------------------------------
	.byte	PATT
	 .word	gourmetrace_3_004
@ 105   ----------------------------------------
	.byte	PATT
	 .word	gourmetrace_3_005
@ 106   ----------------------------------------
	.byte	PATT
	 .word	gourmetrace_3_006
@ 107   ----------------------------------------
	.byte	PATT
	 .word	gourmetrace_3_007
@ 108   ----------------------------------------
	.byte	PATT
	 .word	gourmetrace_3_008
@ 109   ----------------------------------------
	.byte	PATT
	 .word	gourmetrace_3_009
@ 110   ----------------------------------------
	.byte	W96
@ 111   ----------------------------------------
	.byte	W96
@ 112   ----------------------------------------
	.byte	W96
@ 113   ----------------------------------------
	.byte	W96
@ 114   ----------------------------------------
	.byte	W96
@ 115   ----------------------------------------
	.byte	W96
@ 116   ----------------------------------------
	.byte	W96
@ 117   ----------------------------------------
	.byte	W96
@ 118   ----------------------------------------
	.byte	W96
@ 119   ----------------------------------------
	.byte	W96
@ 120   ----------------------------------------
	.byte	W96
@ 121   ----------------------------------------
	.byte	W96
@ 122   ----------------------------------------
	.byte	W96
@ 123   ----------------------------------------
	.byte	W96
@ 124   ----------------------------------------
	.byte	W96
@ 125   ----------------------------------------
	.byte	W96
@ 126   ----------------------------------------
	.byte	W96
@ 127   ----------------------------------------
	.byte	W96
@ 128   ----------------------------------------
	.byte	W96
@ 129   ----------------------------------------
	.byte	W96
@ 130   ----------------------------------------
	.byte	W96
@ 131   ----------------------------------------
	.byte	W96
@ 132   ----------------------------------------
	.byte	W96
@ 133   ----------------------------------------
	.byte	PATT
	 .word	gourmetrace_3_033
@ 134   ----------------------------------------
	.byte	PATT
	 .word	gourmetrace_3_034
@ 135   ----------------------------------------
	.byte	PATT
	 .word	gourmetrace_3_035
@ 136   ----------------------------------------
	.byte	PATT
	 .word	gourmetrace_3_036
@ 137   ----------------------------------------
	.byte	PATT
	 .word	gourmetrace_3_037
@ 138   ----------------------------------------
	.byte	PATT
	 .word	gourmetrace_3_038
@ 139   ----------------------------------------
	.byte	PATT
	 .word	gourmetrace_3_039
@ 140   ----------------------------------------
	.byte	PATT
	 .word	gourmetrace_3_040
@ 141   ----------------------------------------
	.byte	PATT
	 .word	gourmetrace_3_041
@ 142   ----------------------------------------
	.byte	W96
@ 143   ----------------------------------------
	.byte	W96
@ 144   ----------------------------------------
	.byte	W96
@ 145   ----------------------------------------
	.byte	W96
@ 146   ----------------------------------------
	.byte	W96
@ 147   ----------------------------------------
	.byte	W96
@ 148   ----------------------------------------
	.byte	W96
@ 149   ----------------------------------------
	.byte	W96
@ 150   ----------------------------------------
	.byte	W96
@ 151   ----------------------------------------
	.byte	W96
@ 152   ----------------------------------------
	.byte	PATT
	 .word	gourmetrace_3_002
@ 153   ----------------------------------------
	.byte	PATT
	 .word	gourmetrace_3_003
@ 154   ----------------------------------------
	.byte	PATT
	 .word	gourmetrace_3_004
@ 155   ----------------------------------------
	.byte	PATT
	 .word	gourmetrace_3_005
@ 156   ----------------------------------------
	.byte	PATT
	 .word	gourmetrace_3_006
@ 157   ----------------------------------------
	.byte	PATT
	 .word	gourmetrace_3_007
@ 158   ----------------------------------------
	.byte	PATT
	 .word	gourmetrace_3_008
@ 159   ----------------------------------------
	.byte	PATT
	 .word	gourmetrace_3_009
@ 160   ----------------------------------------
	.byte	W96
@ 161   ----------------------------------------
	.byte	W96
@ 162   ----------------------------------------
	.byte	W96
@ 163   ----------------------------------------
	.byte	W96
@ 164   ----------------------------------------
	.byte	W96
@ 165   ----------------------------------------
	.byte	W96
@ 166   ----------------------------------------
	.byte	W96
@ 167   ----------------------------------------
	.byte	W96
@ 168   ----------------------------------------
	.byte	W96
@ 169   ----------------------------------------
	.byte	W96
@ 170   ----------------------------------------
	.byte	W96
@ 171   ----------------------------------------
	.byte	W96
@ 172   ----------------------------------------
	.byte	W96
@ 173   ----------------------------------------
	.byte	W96
@ 174   ----------------------------------------
	.byte	W96
@ 175   ----------------------------------------
	.byte	W96
@ 176   ----------------------------------------
	.byte	W96
@ 177   ----------------------------------------
	.byte	W96
@ 178   ----------------------------------------
	.byte	W96
@ 179   ----------------------------------------
	.byte	W96
@ 180   ----------------------------------------
	.byte	W96
@ 181   ----------------------------------------
	.byte	W96
@ 182   ----------------------------------------
	.byte	W96
@ 183   ----------------------------------------
	.byte	PATT
	 .word	gourmetrace_3_033
@ 184   ----------------------------------------
	.byte	PATT
	 .word	gourmetrace_3_034
@ 185   ----------------------------------------
	.byte	PATT
	 .word	gourmetrace_3_035
@ 186   ----------------------------------------
	.byte	PATT
	 .word	gourmetrace_3_036
@ 187   ----------------------------------------
	.byte	PATT
	 .word	gourmetrace_3_037
@ 188   ----------------------------------------
	.byte	PATT
	 .word	gourmetrace_3_038
@ 189   ----------------------------------------
	.byte	PATT
	 .word	gourmetrace_3_039
@ 190   ----------------------------------------
	.byte	PATT
	 .word	gourmetrace_3_040
@ 191   ----------------------------------------
	.byte	W08
	.byte		N03   , Fn4 , v100
	.byte	W06
	.byte		N03   
	.byte	W06
	.byte		N09   , Fn4 , v104
	.byte	W12
	.byte		N07   , Fs4 , v108
	.byte	W13
	.byte		N32   , Fn4 
	.byte	W32
	.byte	FINE

@**************** Track 4 (Midi-Chn.4) ****************@

gourmetrace_4:
	.byte	KEYSH , gourmetrace_key+0
@ 000   ----------------------------------------
	.byte		VOICE , 56
	.byte		VOL   , 127*gourmetrace_mvl/mxv
	.byte		PAN   , c_v+0
	.byte		N23   , Gn4 , v100
	.byte	W22
	.byte		N12   , Fn4 , v080
	.byte	W11
	.byte		        Ds4 , v092
	.byte	W12
	.byte		N13   , Dn4 , v084
	.byte	W11
	.byte		        As3 , v076
	.byte	W12
	.byte		N24   , Gn3 , v100
	.byte	W24
	.byte	W03
	.byte		N13   , Cn4 , v104
	.byte	W01
@ 001   ----------------------------------------
gourmetrace_4_001:
	.byte	W10
	.byte		N12   , Dn4 , v076
	.byte	W11
	.byte		N14   , Ds4 , v084
	.byte	W12
	.byte		N12   , Fn4 , v080
	.byte	W12
	.byte		N15   , Dn4 , v092
	.byte	W48
	.byte	W03
	.byte	PEND
@ 002   ----------------------------------------
	.byte	W96
@ 003   ----------------------------------------
	.byte	W96
@ 004   ----------------------------------------
	.byte	W96
@ 005   ----------------------------------------
	.byte	W96
@ 006   ----------------------------------------
	.byte	W96
@ 007   ----------------------------------------
	.byte	W96
@ 008   ----------------------------------------
	.byte	W96
@ 009   ----------------------------------------
	.byte	W96
@ 010   ----------------------------------------
gourmetrace_4_010:
	.byte		N40   , Cn5 , v100
	.byte	W44
	.byte	W03
	.byte		N36   , Gn4 , v108
	.byte	W44
	.byte	W03
	.byte		N22   , Ds4 , v116
	.byte	W02
	.byte	PEND
@ 011   ----------------------------------------
gourmetrace_4_011:
	.byte	W22
	.byte		N24   , Dn4 , v064
	.byte	W24
	.byte		N36   , Cn4 , v108
	.byte	W44
	.byte	W03
	.byte		N22   , Cn4 , v100
	.byte	W03
	.byte	PEND
@ 012   ----------------------------------------
gourmetrace_4_012:
	.byte	W21
	.byte		N24   , Dn4 , v100
	.byte	W24
	.byte		N23   , Ds4 , v080
	.byte	W24
	.byte		        Cn4 , v088
	.byte	W24
	.byte		N21   , As3 , v100
	.byte	W03
	.byte	PEND
@ 013   ----------------------------------------
gourmetrace_4_013:
	.byte	W20
	.byte		N24   , Cn4 , v084
	.byte	W24
	.byte	W02
	.byte		N36   , Gn3 , v092
	.byte	W48
	.byte	W01
	.byte		N48   , Cn5 , v084
	.byte	W01
	.byte	PEND
@ 014   ----------------------------------------
gourmetrace_4_014:
	.byte	W48
	.byte		N36   , Gn4 , v080
	.byte	W44
	.byte		N21   , Ds4 , v100
	.byte	W04
	.byte	PEND
@ 015   ----------------------------------------
gourmetrace_4_015:
	.byte	W18
	.byte		N24   , Fn4 , v084
	.byte	W24
	.byte	W01
	.byte		        Gn4 , v076
	.byte	W24
	.byte	W01
	.byte		        Cn4 , v084
	.byte	W24
	.byte		N22   , Dn4 , v080
	.byte	W04
	.byte	PEND
@ 016   ----------------------------------------
gourmetrace_4_016:
	.byte	W19
	.byte		N24   , Fn4 , v076
	.byte	W24
	.byte	W01
	.byte		        Dn4 
	.byte	W23
	.byte		        As3 , v092
	.byte	W24
	.byte	W02
	.byte		N92   , Cn4 
	.byte	W03
	.byte	PEND
@ 017   ----------------------------------------
	.byte	W96
@ 018   ----------------------------------------
	.byte	W96
@ 019   ----------------------------------------
	.byte	W96
@ 020   ----------------------------------------
	.byte	W96
@ 021   ----------------------------------------
gourmetrace_4_021:
	.byte	W92
	.byte	W02
	.byte		N32   , Gs4 , v112
	.byte	W02
	.byte	PEND
@ 022   ----------------------------------------
gourmetrace_4_022:
	.byte	W32
	.byte	W01
	.byte		N11   , Gn4 , v088
	.byte	W13
	.byte		N17   , Fn4 , v100
	.byte	W22
	.byte		N09   , Ds4 , v108
	.byte	W11
	.byte		N10   , Fn4 , v100
	.byte	W13
	.byte		N12   , Gn4 
	.byte	W04
	.byte	PEND
@ 023   ----------------------------------------
gourmetrace_4_023:
	.byte	W19
	.byte		N17   , Cn4 , v092
	.byte	W24
	.byte	W01
	.byte		N40   , Gn4 , v108
	.byte	W48
	.byte	W02
	.byte		N13   , Fn4 , v092
	.byte	W02
	.byte	PEND
@ 024   ----------------------------------------
gourmetrace_4_024:
	.byte	W14
	.byte		N03   , Fn4 , v080
	.byte	W06
	.byte		N10   , Fn4 , v088
	.byte	W13
	.byte		N08   , Ds4 , v080
	.byte	W13
	.byte		N17   , Dn4 , v108
	.byte	W22
	.byte		N09   , Ds4 
	.byte	W12
	.byte		N10   , Fn4 , v088
	.byte	W13
	.byte		N19   , Ds4 , v104
	.byte	W03
	.byte	PEND
@ 025   ----------------------------------------
gourmetrace_4_025:
	.byte	W22
	.byte		N18   , Fn4 , v092
	.byte	W23
	.byte		N16   , Gn4 , v108
	.byte	W23
	.byte		N24   , Ds4 , v124
	.byte	W28
	.byte	PEND
@ 026   ----------------------------------------
	.byte	W96
@ 027   ----------------------------------------
	.byte	W96
@ 028   ----------------------------------------
	.byte	W96
@ 029   ----------------------------------------
gourmetrace_4_029:
	.byte	W92
	.byte	W03
	.byte		N32   , Gs4 , v124
	.byte	W01
	.byte	PEND
@ 030   ----------------------------------------
gourmetrace_4_030:
	.byte	W32
	.byte	W02
	.byte		N10   , Gn4 , v076
	.byte	W13
	.byte		N18   , Fn4 , v104
	.byte	W22
	.byte		N13   , Gs4 , v108
	.byte	W11
	.byte		N11   , As4 , v076
	.byte	W11
	.byte		N22   , Cn5 , v084
	.byte	W05
	.byte	PEND
@ 031   ----------------------------------------
gourmetrace_4_031:
	.byte	W20
	.byte		N20   , Gn4 , v104
	.byte	W24
	.byte	W02
	.byte		N18   , Ds4 , v108
	.byte	W24
	.byte		N21   , Cn4 , v100
	.byte	W24
	.byte	W01
	.byte		N16   , Dn4 , v108
	.byte	W01
	.byte	PEND
@ 032   ----------------------------------------
gourmetrace_4_032:
	.byte	W16
	.byte		N04   , As3 , v104
	.byte	W05
	.byte		N12   , Dn4 , v100
	.byte	W12
	.byte		N11   , Fn4 , v108
	.byte	W12
	.byte		N18   , Dn4 
	.byte	W18
	.byte		N04   , As3 , v100
	.byte	W03
	.byte		N13   , Gn3 , v092
	.byte	W14
	.byte		N12   , As3 , v108
	.byte	W13
	.byte		N56   , Cn4 
	.byte	W03
	.byte	PEND
@ 033   ----------------------------------------
	.byte	W68
	.byte		N21   , As3 
	.byte	W28
@ 034   ----------------------------------------
	.byte	W96
@ 035   ----------------------------------------
	.byte	W96
@ 036   ----------------------------------------
	.byte	W96
@ 037   ----------------------------------------
	.byte	W96
@ 038   ----------------------------------------
	.byte	W96
@ 039   ----------------------------------------
	.byte	W96
@ 040   ----------------------------------------
	.byte	W96
@ 041   ----------------------------------------
gourmetrace_4_041:
	.byte	W80
	.byte	W03
	.byte		N06   , Gn4 , v108
	.byte	W05
	.byte		N07   , Fn4 , v092
	.byte	W06
	.byte		        Ds4 , v084
	.byte	W02
	.byte	PEND
@ 042   ----------------------------------------
gourmetrace_4_042:
	.byte	W09
	.byte		N02   , Ds4 , v096
	.byte	W07
	.byte		        Ds4 , v100
	.byte	W06
	.byte		N10   
	.byte	W11
	.byte		N11   , Fn4 
	.byte	W11
	.byte		N06   , Gn4 , v092
	.byte	W12
	.byte		N03   , Gn4 , v084
	.byte	W06
	.byte		N06   , Gn4 , v080
	.byte	W05
	.byte		N14   , Fn4 , v104
	.byte	W13
	.byte		N11   , Ds4 , v100
	.byte	W12
	.byte		N05   , Dn4 , v108
	.byte	W04
	.byte	PEND
@ 043   ----------------------------------------
gourmetrace_4_043:
	.byte	W07
	.byte		N02   , Dn4 , v096
	.byte	W07
	.byte		        Dn4 , v100
	.byte	W05
	.byte		N12   , Dn4 , v104
	.byte	W14
	.byte		N14   , Ds4 , v088
	.byte	W13
	.byte		N30   , Dn4 , v104
	.byte	W36
	.byte	W01
	.byte		N06   , Ds4 , v088
	.byte	W05
	.byte		        Dn4 , v084
	.byte	W06
	.byte		N07   , Cn4 , v092
	.byte	W02
	.byte	PEND
@ 044   ----------------------------------------
gourmetrace_4_044:
	.byte	W09
	.byte		N03   , Cn4 , v060
	.byte	W07
	.byte		        Cn4 , v080
	.byte	W05
	.byte		N11   , Cn4 , v076
	.byte	W12
	.byte		N12   , Dn4 , v084
	.byte	W12
	.byte		N05   , Ds4 , v088
	.byte	W11
	.byte		N02   
	.byte	W05
	.byte		N07   , Ds4 , v084
	.byte	W06
	.byte		N12   , Dn4 , v100
	.byte	W14
	.byte		N13   , Cn4 
	.byte	W12
	.byte		N07   , As3 , v120
	.byte	W03
	.byte	PEND
@ 045   ----------------------------------------
gourmetrace_4_045:
	.byte	W08
	.byte		N03   , As3 , v092
	.byte	W07
	.byte		N02   , As3 , v108
	.byte	W06
	.byte		N12   
	.byte	W13
	.byte		N11   , Cn4 , v100
	.byte	W12
	.byte		N24   , Dn4 , v108
	.byte	W36
	.byte		N06   , Cn4 
	.byte	W05
	.byte		        As3 , v084
	.byte	W06
	.byte		N04   , Gs3 , v108
	.byte	W03
	.byte	PEND
@ 046   ----------------------------------------
gourmetrace_4_046:
	.byte	W08
	.byte		N03   , Gs3 , v092
	.byte	W07
	.byte		        Gs3 , v108
	.byte	W06
	.byte		N10   , Gs3 , v112
	.byte	W11
	.byte		        As3 , v108
	.byte	W12
	.byte		N05   , Cn4 , v100
	.byte	W12
	.byte		N03   , Cn4 , v060
	.byte	W06
	.byte		N07   , Cn4 , v088
	.byte	W06
	.byte		N13   , Dn4 , v104
	.byte	W12
	.byte		N12   , Fn4 , v084
	.byte	W12
	.byte		N05   , Gn4 , v080
	.byte	W04
	.byte	PEND
@ 047   ----------------------------------------
gourmetrace_4_047:
	.byte	W07
	.byte		N02   , Gn4 , v084
	.byte	W06
	.byte		N03   , Gn4 , v080
	.byte	W06
	.byte		N12   
	.byte	W13
	.byte		N11   , As4 , v072
	.byte	W12
	.byte		N06   , Gn4 , v100
	.byte	W11
	.byte		N12   , Gn4 , v084
	.byte	W13
	.byte		        Fn4 , v092
	.byte	W12
	.byte		        Ds4 , v080
	.byte	W13
	.byte		N11   , Dn4 , v100
	.byte	W03
	.byte	PEND
@ 048   ----------------------------------------
gourmetrace_4_048:
	.byte	W08
	.byte		N13   , Fn4 , v092
	.byte	W12
	.byte		N11   , Gn4 , v080
	.byte	W12
	.byte		N13   , Dn4 , v108
	.byte	W12
	.byte		N11   , Fn4 , v084
	.byte	W10
	.byte		N12   , Gn4 , v064
	.byte	W14
	.byte		N11   , Dn4 , v104
	.byte	W11
	.byte		N12   , Fn4 , v084
	.byte	W14
	.byte		N11   , Dn4 , v112
	.byte	W03
	.byte	PEND
@ 049   ----------------------------------------
gourmetrace_4_049:
	.byte	W09
	.byte		N13   , Fn4 , v092
	.byte	W12
	.byte		N14   , Gn4 , v104
	.byte	W13
	.byte		N13   , Cn5 , v072
	.byte	W13
	.byte		N10   , Bn4 , v104
	.byte	W24
	.byte		N05   , Gn3 , v100
	.byte	W05
	.byte		N03   , An3 , v056
	.byte	W03
	.byte		N02   , Bn3 , v064
	.byte	W02
	.byte		        Cn4 , v076
	.byte	W01
	.byte		        Dn4 , v088
	.byte	W02
	.byte		N01   , En4 , v084
	.byte	W01
	.byte		        Fn4 
	.byte	W11
	.byte	PEND
@ 050   ----------------------------------------
gourmetrace_4_050:
	.byte		N23   , Gn4 , v100
	.byte	W22
	.byte		N12   , Fn4 , v080
	.byte	W11
	.byte		        Ds4 , v092
	.byte	W12
	.byte		N13   , Dn4 , v084
	.byte	W11
	.byte		        As3 , v076
	.byte	W12
	.byte		N24   , Gn3 , v100
	.byte	W24
	.byte	W03
	.byte		N13   , Cn4 , v104
	.byte	W01
	.byte	PEND
@ 051   ----------------------------------------
	.byte	PATT
	 .word	gourmetrace_4_001
@ 052   ----------------------------------------
	.byte	W96
@ 053   ----------------------------------------
	.byte	W96
@ 054   ----------------------------------------
	.byte	W96
@ 055   ----------------------------------------
	.byte	W96
@ 056   ----------------------------------------
	.byte	W96
@ 057   ----------------------------------------
	.byte	W96
@ 058   ----------------------------------------
	.byte	W96
@ 059   ----------------------------------------
	.byte	W96
@ 060   ----------------------------------------
	.byte	PATT
	 .word	gourmetrace_4_010
@ 061   ----------------------------------------
	.byte	PATT
	 .word	gourmetrace_4_011
@ 062   ----------------------------------------
	.byte	PATT
	 .word	gourmetrace_4_012
@ 063   ----------------------------------------
	.byte	PATT
	 .word	gourmetrace_4_013
@ 064   ----------------------------------------
	.byte	PATT
	 .word	gourmetrace_4_014
@ 065   ----------------------------------------
	.byte	PATT
	 .word	gourmetrace_4_015
@ 066   ----------------------------------------
	.byte	PATT
	 .word	gourmetrace_4_016
@ 067   ----------------------------------------
	.byte	W96
@ 068   ----------------------------------------
	.byte	W96
@ 069   ----------------------------------------
	.byte	W96
@ 070   ----------------------------------------
	.byte	W96
@ 071   ----------------------------------------
	.byte	PATT
	 .word	gourmetrace_4_021
@ 072   ----------------------------------------
	.byte	PATT
	 .word	gourmetrace_4_022
@ 073   ----------------------------------------
	.byte	PATT
	 .word	gourmetrace_4_023
@ 074   ----------------------------------------
	.byte	PATT
	 .word	gourmetrace_4_024
@ 075   ----------------------------------------
	.byte	PATT
	 .word	gourmetrace_4_025
@ 076   ----------------------------------------
	.byte	W96
@ 077   ----------------------------------------
	.byte	W96
@ 078   ----------------------------------------
	.byte	W96
@ 079   ----------------------------------------
	.byte	PATT
	 .word	gourmetrace_4_029
@ 080   ----------------------------------------
	.byte	PATT
	 .word	gourmetrace_4_030
@ 081   ----------------------------------------
	.byte	PATT
	 .word	gourmetrace_4_031
@ 082   ----------------------------------------
	.byte	PATT
	 .word	gourmetrace_4_032
@ 083   ----------------------------------------
	.byte	W68
	.byte		N21   , As3 , v108
	.byte	W28
@ 084   ----------------------------------------
	.byte	W96
@ 085   ----------------------------------------
	.byte	W96
@ 086   ----------------------------------------
	.byte	W96
@ 087   ----------------------------------------
	.byte	W96
@ 088   ----------------------------------------
	.byte	W96
@ 089   ----------------------------------------
	.byte	W96
@ 090   ----------------------------------------
	.byte	W96
@ 091   ----------------------------------------
	.byte	PATT
	 .word	gourmetrace_4_041
@ 092   ----------------------------------------
	.byte	PATT
	 .word	gourmetrace_4_042
@ 093   ----------------------------------------
	.byte	PATT
	 .word	gourmetrace_4_043
@ 094   ----------------------------------------
	.byte	PATT
	 .word	gourmetrace_4_044
@ 095   ----------------------------------------
	.byte	PATT
	 .word	gourmetrace_4_045
@ 096   ----------------------------------------
	.byte	PATT
	 .word	gourmetrace_4_046
@ 097   ----------------------------------------
	.byte	PATT
	 .word	gourmetrace_4_047
@ 098   ----------------------------------------
	.byte	PATT
	 .word	gourmetrace_4_048
@ 099   ----------------------------------------
	.byte	PATT
	 .word	gourmetrace_4_049
@ 100   ----------------------------------------
	.byte	PATT
	 .word	gourmetrace_4_050
@ 101   ----------------------------------------
	.byte	PATT
	 .word	gourmetrace_4_001
@ 102   ----------------------------------------
	.byte	W96
@ 103   ----------------------------------------
	.byte	W96
@ 104   ----------------------------------------
	.byte	W96
@ 105   ----------------------------------------
	.byte	W96
@ 106   ----------------------------------------
	.byte	W96
@ 107   ----------------------------------------
	.byte	W96
@ 108   ----------------------------------------
	.byte	W96
@ 109   ----------------------------------------
	.byte	W96
@ 110   ----------------------------------------
	.byte	PATT
	 .word	gourmetrace_4_010
@ 111   ----------------------------------------
	.byte	PATT
	 .word	gourmetrace_4_011
@ 112   ----------------------------------------
	.byte	PATT
	 .word	gourmetrace_4_012
@ 113   ----------------------------------------
	.byte	PATT
	 .word	gourmetrace_4_013
@ 114   ----------------------------------------
	.byte	PATT
	 .word	gourmetrace_4_014
@ 115   ----------------------------------------
	.byte	PATT
	 .word	gourmetrace_4_015
@ 116   ----------------------------------------
	.byte	PATT
	 .word	gourmetrace_4_016
@ 117   ----------------------------------------
	.byte	W96
@ 118   ----------------------------------------
	.byte	W96
@ 119   ----------------------------------------
	.byte	W96
@ 120   ----------------------------------------
	.byte	W96
@ 121   ----------------------------------------
	.byte	PATT
	 .word	gourmetrace_4_021
@ 122   ----------------------------------------
	.byte	PATT
	 .word	gourmetrace_4_022
@ 123   ----------------------------------------
	.byte	PATT
	 .word	gourmetrace_4_023
@ 124   ----------------------------------------
	.byte	PATT
	 .word	gourmetrace_4_024
@ 125   ----------------------------------------
	.byte	PATT
	 .word	gourmetrace_4_025
@ 126   ----------------------------------------
	.byte	W96
@ 127   ----------------------------------------
	.byte	W96
@ 128   ----------------------------------------
	.byte	W96
@ 129   ----------------------------------------
	.byte	PATT
	 .word	gourmetrace_4_029
@ 130   ----------------------------------------
	.byte	PATT
	 .word	gourmetrace_4_030
@ 131   ----------------------------------------
	.byte	PATT
	 .word	gourmetrace_4_031
@ 132   ----------------------------------------
	.byte	PATT
	 .word	gourmetrace_4_032
@ 133   ----------------------------------------
	.byte	W68
	.byte		N21   , As3 , v108
	.byte	W28
@ 134   ----------------------------------------
	.byte	W96
@ 135   ----------------------------------------
	.byte	W96
@ 136   ----------------------------------------
	.byte	W96
@ 137   ----------------------------------------
	.byte	W96
@ 138   ----------------------------------------
	.byte	W96
@ 139   ----------------------------------------
	.byte	W96
@ 140   ----------------------------------------
	.byte	W96
@ 141   ----------------------------------------
	.byte	PATT
	 .word	gourmetrace_4_041
@ 142   ----------------------------------------
	.byte	PATT
	 .word	gourmetrace_4_042
@ 143   ----------------------------------------
	.byte	PATT
	 .word	gourmetrace_4_043
@ 144   ----------------------------------------
	.byte	PATT
	 .word	gourmetrace_4_044
@ 145   ----------------------------------------
	.byte	PATT
	 .word	gourmetrace_4_045
@ 146   ----------------------------------------
	.byte	PATT
	 .word	gourmetrace_4_046
@ 147   ----------------------------------------
	.byte	PATT
	 .word	gourmetrace_4_047
@ 148   ----------------------------------------
	.byte	PATT
	 .word	gourmetrace_4_048
@ 149   ----------------------------------------
	.byte	PATT
	 .word	gourmetrace_4_049
@ 150   ----------------------------------------
	.byte	PATT
	 .word	gourmetrace_4_050
@ 151   ----------------------------------------
	.byte	PATT
	 .word	gourmetrace_4_001
@ 152   ----------------------------------------
	.byte	W96
@ 153   ----------------------------------------
	.byte	W96
@ 154   ----------------------------------------
	.byte	W96
@ 155   ----------------------------------------
	.byte	W96
@ 156   ----------------------------------------
	.byte	W96
@ 157   ----------------------------------------
	.byte	W96
@ 158   ----------------------------------------
	.byte	W96
@ 159   ----------------------------------------
	.byte	W96
@ 160   ----------------------------------------
	.byte	PATT
	 .word	gourmetrace_4_010
@ 161   ----------------------------------------
	.byte	PATT
	 .word	gourmetrace_4_011
@ 162   ----------------------------------------
	.byte	PATT
	 .word	gourmetrace_4_012
@ 163   ----------------------------------------
	.byte	PATT
	 .word	gourmetrace_4_013
@ 164   ----------------------------------------
	.byte	PATT
	 .word	gourmetrace_4_014
@ 165   ----------------------------------------
	.byte	PATT
	 .word	gourmetrace_4_015
@ 166   ----------------------------------------
	.byte	PATT
	 .word	gourmetrace_4_016
@ 167   ----------------------------------------
	.byte	W96
@ 168   ----------------------------------------
	.byte	W96
@ 169   ----------------------------------------
	.byte	W96
@ 170   ----------------------------------------
	.byte	W96
@ 171   ----------------------------------------
	.byte	PATT
	 .word	gourmetrace_4_021
@ 172   ----------------------------------------
	.byte	PATT
	 .word	gourmetrace_4_022
@ 173   ----------------------------------------
	.byte	PATT
	 .word	gourmetrace_4_023
@ 174   ----------------------------------------
	.byte	PATT
	 .word	gourmetrace_4_024
@ 175   ----------------------------------------
	.byte	PATT
	 .word	gourmetrace_4_025
@ 176   ----------------------------------------
	.byte	W96
@ 177   ----------------------------------------
	.byte	W96
@ 178   ----------------------------------------
	.byte	W96
@ 179   ----------------------------------------
	.byte	PATT
	 .word	gourmetrace_4_029
@ 180   ----------------------------------------
	.byte	PATT
	 .word	gourmetrace_4_030
@ 181   ----------------------------------------
	.byte	PATT
	 .word	gourmetrace_4_031
@ 182   ----------------------------------------
	.byte	PATT
	 .word	gourmetrace_4_032
@ 183   ----------------------------------------
	.byte	W68
	.byte		N21   , As3 , v108
	.byte	W28
@ 184   ----------------------------------------
	.byte	W96
@ 185   ----------------------------------------
	.byte	W96
@ 186   ----------------------------------------
	.byte	W96
@ 187   ----------------------------------------
	.byte	W96
@ 188   ----------------------------------------
	.byte	W96
@ 189   ----------------------------------------
	.byte	W96
@ 190   ----------------------------------------
	.byte	W96
@ 191   ----------------------------------------
	.byte	PATT
	 .word	gourmetrace_4_041
@ 192   ----------------------------------------
	.byte	PATT
	 .word	gourmetrace_4_042
@ 193   ----------------------------------------
	.byte	PATT
	 .word	gourmetrace_4_043
@ 194   ----------------------------------------
	.byte	PATT
	 .word	gourmetrace_4_044
@ 195   ----------------------------------------
	.byte	PATT
	 .word	gourmetrace_4_045
@ 196   ----------------------------------------
	.byte	PATT
	 .word	gourmetrace_4_046
@ 197   ----------------------------------------
	.byte	PATT
	 .word	gourmetrace_4_047
@ 198   ----------------------------------------
	.byte	PATT
	 .word	gourmetrace_4_048
@ 199   ----------------------------------------
	.byte	W09
	.byte		N13   , Fn4 , v092
	.byte	W12
	.byte		N14   , Gn4 , v104
	.byte	W13
	.byte		N13   , Cn5 , v072
	.byte	W13
	.byte		N10   , Bn4 , v104
	.byte	W24
	.byte		N05   , Gn3 , v100
	.byte	W05
	.byte		N03   , An3 , v056
	.byte	W03
	.byte		N02   , Bn3 , v064
	.byte	W02
	.byte		        Cn4 , v076
	.byte	W01
	.byte		        Dn4 , v088
	.byte	W02
	.byte		N01   , En4 , v084
	.byte	W01
	.byte		        Fn4 
	.byte	W02
	.byte	FINE

@**************** Track 5 (Midi-Chn.4) ****************@

gourmetrace_5:
	.byte	KEYSH , gourmetrace_key+0
@ 000   ----------------------------------------
	.byte		VOICE , 56
	.byte		VOL   , 127*gourmetrace_mvl/mxv
	.byte		PAN   , c_v+0
	.byte		N21   , Ds4 , v100
	.byte	W20
	.byte		N12   , Dn4 , v084
	.byte	W12
	.byte		N07   , Cn4 , v108
	.byte	W13
	.byte		N11   , As3 
	.byte	W10
	.byte		N12   , Fn3 , v092
	.byte	W14
	.byte		N22   , Dn3 , v108
	.byte	W24
	.byte	W01
	.byte		N13   , Gs3 
	.byte	W02
@ 001   ----------------------------------------
gourmetrace_5_001:
	.byte	W09
	.byte		N12   , As3 , v080
	.byte	W12
	.byte		N11   , Cn4 , v088
	.byte	W11
	.byte		N12   , Dn4 , v084
	.byte	W12
	.byte		N20   , Bn3 , v108
	.byte	W52
	.byte	PEND
@ 002   ----------------------------------------
	.byte	W96
@ 003   ----------------------------------------
	.byte	W96
@ 004   ----------------------------------------
	.byte	W96
@ 005   ----------------------------------------
	.byte	W96
@ 006   ----------------------------------------
	.byte	W96
@ 007   ----------------------------------------
	.byte	W96
@ 008   ----------------------------------------
	.byte	W96
@ 009   ----------------------------------------
	.byte	W96
@ 010   ----------------------------------------
	.byte	W96
@ 011   ----------------------------------------
	.byte	W96
@ 012   ----------------------------------------
	.byte	W96
@ 013   ----------------------------------------
	.byte	W96
@ 014   ----------------------------------------
	.byte	W96
@ 015   ----------------------------------------
	.byte	W96
@ 016   ----------------------------------------
	.byte	W96
@ 017   ----------------------------------------
	.byte	W96
@ 018   ----------------------------------------
	.byte	W96
@ 019   ----------------------------------------
	.byte	W96
@ 020   ----------------------------------------
	.byte	W96
@ 021   ----------------------------------------
gourmetrace_5_021:
	.byte	W92
	.byte	W01
	.byte		N32   , Fn4 , v108
	.byte	W03
	.byte	PEND
@ 022   ----------------------------------------
gourmetrace_5_022:
	.byte	W32
	.byte		N12   , Ds4 , v104
	.byte	W12
	.byte		N16   , Dn4 , v100
	.byte	W22
	.byte		N09   , Cn4 
	.byte	W11
	.byte		N11   , Dn4 
	.byte	W14
	.byte		N16   , Ds4 , v116
	.byte	W05
	.byte	PEND
@ 023   ----------------------------------------
gourmetrace_5_023:
	.byte	W18
	.byte		N17   , Gn3 , v104
	.byte	W24
	.byte		N36   , Ds4 , v120
	.byte	W52
	.byte		N11   , Dn4 , v108
	.byte	W02
	.byte	PEND
@ 024   ----------------------------------------
gourmetrace_5_024:
	.byte	W14
	.byte		N03   , Dn4 , v080
	.byte	W06
	.byte		N11   , Dn4 , v100
	.byte	W13
	.byte		N09   , Cn4 , v108
	.byte	W12
	.byte		N18   , As3 
	.byte	W24
	.byte		N08   , Cn4 
	.byte	W11
	.byte		N09   , Dn4 , v100
	.byte	W12
	.byte		N15   , Cn4 , v108
	.byte	W04
	.byte	PEND
@ 025   ----------------------------------------
gourmetrace_5_025:
	.byte	W19
	.byte		N17   , Dn4 , v108
	.byte	W24
	.byte		N18   , Ds4 , v120
	.byte	W24
	.byte	W01
	.byte		N21   , Cn4 , v116
	.byte	W28
	.byte	PEND
@ 026   ----------------------------------------
	.byte	W96
@ 027   ----------------------------------------
	.byte	W96
@ 028   ----------------------------------------
	.byte	W96
@ 029   ----------------------------------------
gourmetrace_5_029:
	.byte	W92
	.byte	W03
	.byte		N32   , Fn4 , v127
	.byte	W01
	.byte	PEND
@ 030   ----------------------------------------
gourmetrace_5_030:
	.byte	W32
	.byte		N11   , Ds4 , v104
	.byte	W12
	.byte		N10   , Dn4 , v088
	.byte	W14
	.byte		N11   , Dn4 , v092
	.byte	W12
	.byte		N09   , Ds4 
	.byte	W09
	.byte		N13   , Fn4 , v080
	.byte	W13
	.byte		N20   , Gn4 , v104
	.byte	W04
	.byte	PEND
@ 031   ----------------------------------------
gourmetrace_5_031:
	.byte	W20
	.byte		N17   , Ds4 , v108
	.byte	W24
	.byte		N18   , Cn4 , v100
	.byte	W24
	.byte	W01
	.byte		        Gn3 , v108
	.byte	W24
	.byte	W01
	.byte		N08   , As3 
	.byte	W02
	.byte	PEND
@ 032   ----------------------------------------
gourmetrace_5_032:
	.byte	W14
	.byte		N02   , As3 , v104
	.byte	W07
	.byte		N09   , As3 , v108
	.byte	W11
	.byte		        Dn4 , v092
	.byte	W11
	.byte		N15   , As3 , v104
	.byte	W18
	.byte		N06   , Fn3 , v084
	.byte	W06
	.byte		N11   , Dn3 , v104
	.byte	W12
	.byte		        Fn3 , v112
	.byte	W12
	.byte		N56   , Gn3 , v104
	.byte	W05
	.byte	PEND
@ 033   ----------------------------------------
	.byte	W96
@ 034   ----------------------------------------
	.byte	W96
@ 035   ----------------------------------------
	.byte	W96
@ 036   ----------------------------------------
	.byte	W96
@ 037   ----------------------------------------
	.byte	W96
@ 038   ----------------------------------------
	.byte	W96
@ 039   ----------------------------------------
	.byte	W96
@ 040   ----------------------------------------
	.byte	W96
@ 041   ----------------------------------------
	.byte	W96
@ 042   ----------------------------------------
	.byte	W96
@ 043   ----------------------------------------
	.byte	W96
@ 044   ----------------------------------------
	.byte	W96
@ 045   ----------------------------------------
	.byte	W96
@ 046   ----------------------------------------
	.byte	W96
@ 047   ----------------------------------------
	.byte	W96
@ 048   ----------------------------------------
	.byte	W96
@ 049   ----------------------------------------
gourmetrace_5_049:
	.byte	W68
	.byte	W02
	.byte		N04   , Dn3 , v096
	.byte	W03
	.byte		        En3 , v040
	.byte	W04
	.byte		N02   , Fn3 , v072
	.byte	W02
	.byte		        Gn3 , v084
	.byte	W02
	.byte		        An3 , v088
	.byte	W02
	.byte		        Bn3 
	.byte	W02
	.byte		        Cn4 , v092
	.byte	W02
	.byte		N04   , Dn4 , v088
	.byte	W09
	.byte	PEND
@ 050   ----------------------------------------
gourmetrace_5_050:
	.byte		N21   , Ds4 , v100
	.byte	W20
	.byte		N12   , Dn4 , v084
	.byte	W12
	.byte		N07   , Cn4 , v108
	.byte	W13
	.byte		N11   , As3 
	.byte	W10
	.byte		N12   , Fn3 , v092
	.byte	W14
	.byte		N22   , Dn3 , v108
	.byte	W24
	.byte	W01
	.byte		N13   , Gs3 
	.byte	W02
	.byte	PEND
@ 051   ----------------------------------------
	.byte	PATT
	 .word	gourmetrace_5_001
@ 052   ----------------------------------------
	.byte	W96
@ 053   ----------------------------------------
	.byte	W96
@ 054   ----------------------------------------
	.byte	W96
@ 055   ----------------------------------------
	.byte	W96
@ 056   ----------------------------------------
	.byte	W96
@ 057   ----------------------------------------
	.byte	W96
@ 058   ----------------------------------------
	.byte	W96
@ 059   ----------------------------------------
	.byte	W96
@ 060   ----------------------------------------
	.byte	W96
@ 061   ----------------------------------------
	.byte	W96
@ 062   ----------------------------------------
	.byte	W96
@ 063   ----------------------------------------
	.byte	W96
@ 064   ----------------------------------------
	.byte	W96
@ 065   ----------------------------------------
	.byte	W96
@ 066   ----------------------------------------
	.byte	W96
@ 067   ----------------------------------------
	.byte	W96
@ 068   ----------------------------------------
	.byte	W96
@ 069   ----------------------------------------
	.byte	W96
@ 070   ----------------------------------------
	.byte	W96
@ 071   ----------------------------------------
	.byte	PATT
	 .word	gourmetrace_5_021
@ 072   ----------------------------------------
	.byte	PATT
	 .word	gourmetrace_5_022
@ 073   ----------------------------------------
	.byte	PATT
	 .word	gourmetrace_5_023
@ 074   ----------------------------------------
	.byte	PATT
	 .word	gourmetrace_5_024
@ 075   ----------------------------------------
	.byte	PATT
	 .word	gourmetrace_5_025
@ 076   ----------------------------------------
	.byte	W96
@ 077   ----------------------------------------
	.byte	W96
@ 078   ----------------------------------------
	.byte	W96
@ 079   ----------------------------------------
	.byte	PATT
	 .word	gourmetrace_5_029
@ 080   ----------------------------------------
	.byte	PATT
	 .word	gourmetrace_5_030
@ 081   ----------------------------------------
	.byte	PATT
	 .word	gourmetrace_5_031
@ 082   ----------------------------------------
	.byte	PATT
	 .word	gourmetrace_5_032
@ 083   ----------------------------------------
	.byte	W96
@ 084   ----------------------------------------
	.byte	W96
@ 085   ----------------------------------------
	.byte	W96
@ 086   ----------------------------------------
	.byte	W96
@ 087   ----------------------------------------
	.byte	W96
@ 088   ----------------------------------------
	.byte	W96
@ 089   ----------------------------------------
	.byte	W96
@ 090   ----------------------------------------
	.byte	W96
@ 091   ----------------------------------------
	.byte	W96
@ 092   ----------------------------------------
	.byte	W96
@ 093   ----------------------------------------
	.byte	W96
@ 094   ----------------------------------------
	.byte	W96
@ 095   ----------------------------------------
	.byte	W96
@ 096   ----------------------------------------
	.byte	W96
@ 097   ----------------------------------------
	.byte	W96
@ 098   ----------------------------------------
	.byte	W96
@ 099   ----------------------------------------
	.byte	PATT
	 .word	gourmetrace_5_049
@ 100   ----------------------------------------
	.byte	PATT
	 .word	gourmetrace_5_050
@ 101   ----------------------------------------
	.byte	PATT
	 .word	gourmetrace_5_001
@ 102   ----------------------------------------
	.byte	W96
@ 103   ----------------------------------------
	.byte	W96
@ 104   ----------------------------------------
	.byte	W96
@ 105   ----------------------------------------
	.byte	W96
@ 106   ----------------------------------------
	.byte	W96
@ 107   ----------------------------------------
	.byte	W96
@ 108   ----------------------------------------
	.byte	W96
@ 109   ----------------------------------------
	.byte	W96
@ 110   ----------------------------------------
	.byte	W96
@ 111   ----------------------------------------
	.byte	W96
@ 112   ----------------------------------------
	.byte	W96
@ 113   ----------------------------------------
	.byte	W96
@ 114   ----------------------------------------
	.byte	W96
@ 115   ----------------------------------------
	.byte	W96
@ 116   ----------------------------------------
	.byte	W96
@ 117   ----------------------------------------
	.byte	W96
@ 118   ----------------------------------------
	.byte	W96
@ 119   ----------------------------------------
	.byte	W96
@ 120   ----------------------------------------
	.byte	W96
@ 121   ----------------------------------------
	.byte	PATT
	 .word	gourmetrace_5_021
@ 122   ----------------------------------------
	.byte	PATT
	 .word	gourmetrace_5_022
@ 123   ----------------------------------------
	.byte	PATT
	 .word	gourmetrace_5_023
@ 124   ----------------------------------------
	.byte	PATT
	 .word	gourmetrace_5_024
@ 125   ----------------------------------------
	.byte	PATT
	 .word	gourmetrace_5_025
@ 126   ----------------------------------------
	.byte	W96
@ 127   ----------------------------------------
	.byte	W96
@ 128   ----------------------------------------
	.byte	W96
@ 129   ----------------------------------------
	.byte	PATT
	 .word	gourmetrace_5_029
@ 130   ----------------------------------------
	.byte	PATT
	 .word	gourmetrace_5_030
@ 131   ----------------------------------------
	.byte	PATT
	 .word	gourmetrace_5_031
@ 132   ----------------------------------------
	.byte	PATT
	 .word	gourmetrace_5_032
@ 133   ----------------------------------------
	.byte	W96
@ 134   ----------------------------------------
	.byte	W96
@ 135   ----------------------------------------
	.byte	W96
@ 136   ----------------------------------------
	.byte	W96
@ 137   ----------------------------------------
	.byte	W96
@ 138   ----------------------------------------
	.byte	W96
@ 139   ----------------------------------------
	.byte	W96
@ 140   ----------------------------------------
	.byte	W96
@ 141   ----------------------------------------
	.byte	W96
@ 142   ----------------------------------------
	.byte	W96
@ 143   ----------------------------------------
	.byte	W96
@ 144   ----------------------------------------
	.byte	W96
@ 145   ----------------------------------------
	.byte	W96
@ 146   ----------------------------------------
	.byte	W96
@ 147   ----------------------------------------
	.byte	W96
@ 148   ----------------------------------------
	.byte	W96
@ 149   ----------------------------------------
	.byte	PATT
	 .word	gourmetrace_5_049
@ 150   ----------------------------------------
	.byte	PATT
	 .word	gourmetrace_5_050
@ 151   ----------------------------------------
	.byte	PATT
	 .word	gourmetrace_5_001
@ 152   ----------------------------------------
	.byte	W96
@ 153   ----------------------------------------
	.byte	W96
@ 154   ----------------------------------------
	.byte	W96
@ 155   ----------------------------------------
	.byte	W96
@ 156   ----------------------------------------
	.byte	W96
@ 157   ----------------------------------------
	.byte	W96
@ 158   ----------------------------------------
	.byte	W96
@ 159   ----------------------------------------
	.byte	W96
@ 160   ----------------------------------------
	.byte	W96
@ 161   ----------------------------------------
	.byte	W96
@ 162   ----------------------------------------
	.byte	W96
@ 163   ----------------------------------------
	.byte	W96
@ 164   ----------------------------------------
	.byte	W96
@ 165   ----------------------------------------
	.byte	W96
@ 166   ----------------------------------------
	.byte	W96
@ 167   ----------------------------------------
	.byte	W96
@ 168   ----------------------------------------
	.byte	W96
@ 169   ----------------------------------------
	.byte	W96
@ 170   ----------------------------------------
	.byte	W96
@ 171   ----------------------------------------
	.byte	PATT
	 .word	gourmetrace_5_021
@ 172   ----------------------------------------
	.byte	PATT
	 .word	gourmetrace_5_022
@ 173   ----------------------------------------
	.byte	PATT
	 .word	gourmetrace_5_023
@ 174   ----------------------------------------
	.byte	PATT
	 .word	gourmetrace_5_024
@ 175   ----------------------------------------
	.byte	PATT
	 .word	gourmetrace_5_025
@ 176   ----------------------------------------
	.byte	W96
@ 177   ----------------------------------------
	.byte	W96
@ 178   ----------------------------------------
	.byte	W96
@ 179   ----------------------------------------
	.byte	PATT
	 .word	gourmetrace_5_029
@ 180   ----------------------------------------
	.byte	PATT
	 .word	gourmetrace_5_030
@ 181   ----------------------------------------
	.byte	PATT
	 .word	gourmetrace_5_031
@ 182   ----------------------------------------
	.byte	PATT
	 .word	gourmetrace_5_032
@ 183   ----------------------------------------
	.byte	W96
@ 184   ----------------------------------------
	.byte	W96
@ 185   ----------------------------------------
	.byte	W96
@ 186   ----------------------------------------
	.byte	W96
@ 187   ----------------------------------------
	.byte	W96
@ 188   ----------------------------------------
	.byte	W96
@ 189   ----------------------------------------
	.byte	W96
@ 190   ----------------------------------------
	.byte	W96
@ 191   ----------------------------------------
	.byte	W96
@ 192   ----------------------------------------
	.byte	W96
@ 193   ----------------------------------------
	.byte	W96
@ 194   ----------------------------------------
	.byte	W96
@ 195   ----------------------------------------
	.byte	W96
@ 196   ----------------------------------------
	.byte	W96
@ 197   ----------------------------------------
	.byte	W96
@ 198   ----------------------------------------
	.byte	W96
@ 199   ----------------------------------------
	.byte	W68
	.byte	W02
	.byte		N04   , Dn3 , v096
	.byte	W03
	.byte		        En3 , v040
	.byte	W04
	.byte		N02   , Fn3 , v072
	.byte	W02
	.byte		        Gn3 , v084
	.byte	W02
	.byte		        An3 , v088
	.byte	W02
	.byte		        Bn3 
	.byte	W02
	.byte		        Cn4 , v092
	.byte	W02
	.byte		N04   , Dn4 , v088
	.byte	W04
	.byte	FINE

@**************** Track 6 (Midi-Chn.5) ****************@

gourmetrace_6:
	.byte	KEYSH , gourmetrace_key+0
@ 000   ----------------------------------------
	.byte		VOICE , 57
	.byte		VOL   , 127*gourmetrace_mvl/mxv
	.byte		PAN   , c_v+0
	.byte	W96
@ 001   ----------------------------------------
	.byte	W96
@ 002   ----------------------------------------
gourmetrace_6_002:
	.byte	W12
	.byte		N09   , Cn3 , v088
	.byte		N08   , Ds3 , v108
	.byte	W01
	.byte		        Gn2 , v100
	.byte	W22
	.byte		        Cn3 , v096
	.byte		N08   , Ds3 , v112
	.byte	W01
	.byte		        Gn2 , v104
	.byte	W24
	.byte		        Gn2 , v108
	.byte		N08   , Cn3 , v100
	.byte		N07   , Ds3 , v116
	.byte	W24
	.byte		N09   , Gn2 , v108
	.byte		N07   , Cn3 , v100
	.byte		N07   , Ds3 , v120
	.byte	W12
	.byte	PEND
@ 003   ----------------------------------------
gourmetrace_6_003:
	.byte	W10
	.byte		N08   , Gn2 , v104
	.byte		N07   , Cn3 , v100
	.byte		N08   , Ds3 , v120
	.byte	W24
	.byte		N09   , Gn2 , v104
	.byte		N08   , Cn3 , v096
	.byte		N09   , Ds3 , v112
	.byte	W23
	.byte		        Ds3 , v116
	.byte	W01
	.byte		N08   , Gn2 , v092
	.byte		N09   , Cn3 
	.byte	W24
	.byte		N08   , Gn2 
	.byte		N08   , Cn3 , v084
	.byte		N08   , Ds3 , v116
	.byte	W14
	.byte	PEND
@ 004   ----------------------------------------
gourmetrace_6_004:
	.byte	W09
	.byte		N11   , Cn3 , v080
	.byte	W01
	.byte		N09   , Gs2 , v096
	.byte		N08   , Fn3 
	.byte	W24
	.byte		N09   , Gs2 , v108
	.byte		N08   , Cn3 , v104
	.byte		N07   , Fn3 
	.byte	W23
	.byte		N08   , Gs2 , v108
	.byte		N06   , Cn3 , v084
	.byte		N07   , Fn3 , v100
	.byte	W24
	.byte		N09   , Gs2 , v108
	.byte		N06   , Cn3 , v100
	.byte		N06   , Fn3 , v108
	.byte	W15
	.byte	PEND
@ 005   ----------------------------------------
gourmetrace_6_005:
	.byte	W10
	.byte		N08   , Gn2 , v092
	.byte		N08   , Cn3 
	.byte		N08   , Ds3 , v112
	.byte	W23
	.byte		        Gn2 , v108
	.byte		N08   , Cn3 , v096
	.byte		N08   , Ds3 , v112
	.byte	W24
	.byte		N09   , Gn2 , v104
	.byte		N09   , Cn3 , v096
	.byte		N07   , Ds3 , v116
	.byte	W24
	.byte		N10   , Gn2 , v084
	.byte		N08   , Cn3 , v092
	.byte		N07   , Ds3 , v116
	.byte	W15
	.byte	PEND
@ 006   ----------------------------------------
gourmetrace_6_006:
	.byte	W09
	.byte		N11   , Gn2 , v100
	.byte	W01
	.byte		N08   , Cn3 , v104
	.byte		N07   , Ds3 , v116
	.byte	W24
	.byte		N09   , Gn2 , v100
	.byte		N08   , Cn3 , v092
	.byte		N07   , Ds3 , v116
	.byte	W24
	.byte		N09   , Gn2 , v104
	.byte		N07   , Cn3 , v100
	.byte		N06   , Ds3 , v112
	.byte	W24
	.byte		N09   , Gn2 , v108
	.byte		N09   , Cn3 , v100
	.byte		N07   , Ds3 , v120
	.byte	W14
	.byte	PEND
@ 007   ----------------------------------------
gourmetrace_6_007:
	.byte	W09
	.byte		N10   , Gn2 , v108
	.byte		N08   , Cn3 , v100
	.byte		N07   , Ds3 , v112
	.byte	W24
	.byte		N09   , Gn2 , v104
	.byte		N08   , Cn3 , v100
	.byte		N08   , Ds3 , v120
	.byte	W24
	.byte	W01
	.byte		N10   , Gn2 , v104
	.byte		N08   , Cn3 , v096
	.byte		N08   , Ds3 , v112
	.byte	W23
	.byte		N09   , Cn3 , v100
	.byte		N09   , Ds3 , v108
	.byte	W01
	.byte		N07   , Gn2 , v100
	.byte	W14
	.byte	PEND
@ 008   ----------------------------------------
gourmetrace_6_008:
	.byte	W08
	.byte		N10   , Cn3 , v092
	.byte	W01
	.byte		N12   , Fn2 , v068
	.byte		N12   , Gs2 
	.byte	W24
	.byte		N11   , Fn2 , v100
	.byte		N10   , Gs2 , v104
	.byte		N09   , Cn3 , v088
	.byte	W23
	.byte		N10   , Gn2 , v100
	.byte		N10   , Dn3 , v092
	.byte	W01
	.byte		N04   , As2 , v056
	.byte	W01
	.byte		N03   , An2 , v076
	.byte	W21
	.byte		N09   , As2 , v104
	.byte		N10   , Dn3 , v100
	.byte	W01
	.byte		        Gn2 , v108
	.byte	W16
	.byte	PEND
@ 009   ----------------------------------------
gourmetrace_6_009:
	.byte	W08
	.byte		N09   , Gn2 , v108
	.byte		N09   , Cn3 , v092
	.byte	W01
	.byte		        Ds3 , v112
	.byte	W23
	.byte		        Gn2 , v104
	.byte		N10   , Cn3 , v088
	.byte		N09   , Ds3 , v108
	.byte	W24
	.byte		        Cn3 , v092
	.byte		N08   , Ds3 , v112
	.byte	W01
	.byte		N09   , Gn2 , v108
	.byte	W24
	.byte	W01
	.byte		N09   
	.byte		N09   , Cn3 , v100
	.byte		N08   , Ds3 , v112
	.byte	W14
	.byte	PEND
@ 010   ----------------------------------------
gourmetrace_6_010:
	.byte	W10
	.byte		N09   , Cn3 , v092
	.byte		N07   , Ds3 , v112
	.byte	W01
	.byte		N09   , Gn2 , v100
	.byte	W22
	.byte		N08   , Gn2 , v108
	.byte		N08   , Cn3 , v100
	.byte		N06   , Ds3 , v120
	.byte	W24
	.byte		N08   , Cn3 , v096
	.byte		N07   , Ds3 , v112
	.byte	W01
	.byte		N09   , Gn2 , v108
	.byte	W24
	.byte		N08   , Cn3 , v100
	.byte		N07   , Ds3 , v116
	.byte	W01
	.byte		N09   , Gn2 , v108
	.byte	W13
	.byte	PEND
@ 011   ----------------------------------------
gourmetrace_6_011:
	.byte	W10
	.byte		N09   , Gn2 , v108
	.byte		N08   , Cn3 , v096
	.byte		N07   , Ds3 , v112
	.byte	W23
	.byte		N09   , Gn2 , v104
	.byte		N09   , Cn3 , v096
	.byte		N08   , Ds3 , v116
	.byte	W23
	.byte		N10   , Cn3 , v092
	.byte	W01
	.byte		        Gn2 , v108
	.byte		N09   , Ds3 , v112
	.byte	W24
	.byte	W01
	.byte		        Gn2 , v104
	.byte		N09   , Cn3 , v092
	.byte		N09   , Ds3 , v108
	.byte	W14
	.byte	PEND
@ 012   ----------------------------------------
gourmetrace_6_012:
	.byte	W09
	.byte		N10   , Gs2 , v100
	.byte	W01
	.byte		        Cn3 , v092
	.byte		N09   , Fn3 , v100
	.byte	W22
	.byte		        Gs2 , v104
	.byte		N09   , Cn3 , v084
	.byte		N09   , Fn3 , v108
	.byte	W23
	.byte		        Cn3 , v096
	.byte	W01
	.byte		        Gs2 , v108
	.byte		N09   , Fn3 
	.byte	W24
	.byte	W01
	.byte		N10   , Gs2 
	.byte		N07   , Cn3 , v092
	.byte		N08   , Fn3 , v108
	.byte	W15
	.byte	PEND
@ 013   ----------------------------------------
gourmetrace_6_013:
	.byte	W08
	.byte		N10   , Cn3 , v092
	.byte		N09   , Ds3 , v112
	.byte	W01
	.byte		        Gn2 , v100
	.byte	W24
	.byte		        Gn2 , v108
	.byte		N09   , Cn3 , v100
	.byte		N08   , Ds3 , v124
	.byte	W24
	.byte	W01
	.byte		N09   , Gn2 , v108
	.byte		N08   , Cn3 , v092
	.byte		N08   , Ds3 , v112
	.byte	W24
	.byte		N09   , Cn3 , v100
	.byte		N09   , Ds3 , v116
	.byte	W01
	.byte		        Gn2 , v108
	.byte	W13
	.byte	PEND
@ 014   ----------------------------------------
gourmetrace_6_014:
	.byte	W11
	.byte		N10   , Gn2 , v104
	.byte		N08   , Cn3 , v100
	.byte		N07   , Ds3 , v112
	.byte	W24
	.byte		N10   , Gn2 , v104
	.byte	W01
	.byte		N09   , Cn3 , v100
	.byte		N09   , Ds3 , v120
	.byte	W23
	.byte		        Gn2 , v108
	.byte	W01
	.byte		N07   , Cn3 , v100
	.byte		N07   , Ds3 , v120
	.byte	W23
	.byte		        Gn2 , v104
	.byte		N07   , Cn3 , v096
	.byte		N08   , Ds3 , v112
	.byte	W13
	.byte	PEND
@ 015   ----------------------------------------
gourmetrace_6_015:
	.byte	W10
	.byte		N12   , Gs2 , v084
	.byte		N11   , Cn3 , v068
	.byte	W03
	.byte		N08   , Fn3 , v044
	.byte	W19
	.byte		N09   , Cn3 , v088
	.byte		N09   , Fn3 , v104
	.byte	W01
	.byte		N10   , Gs2 , v116
	.byte	W21
	.byte		N09   , Gs2 , v108
	.byte		N09   , Fn3 , v104
	.byte	W01
	.byte		N07   , Cn3 , v092
	.byte	W24
	.byte		N09   , Fn3 , v088
	.byte	W01
	.byte		N08   , Cn3 , v092
	.byte	W01
	.byte		N09   , Gs2 , v112
	.byte	W15
	.byte	PEND
@ 016   ----------------------------------------
gourmetrace_6_016:
	.byte	W08
	.byte		N10   , Gn2 , v076
	.byte		N11   , As2 , v072
	.byte		N09   , Dn3 , v108
	.byte	W23
	.byte		        Gn2 , v088
	.byte		N09   , Dn3 , v104
	.byte	W01
	.byte		        As2 , v056
	.byte	W24
	.byte		N08   , Gn2 , v096
	.byte		N08   , Dn3 , v108
	.byte	W01
	.byte		N09   , As2 , v092
	.byte	W23
	.byte		N08   , Gn2 , v100
	.byte		N09   , As2 , v088
	.byte		N08   , Dn3 , v112
	.byte	W16
	.byte	PEND
@ 017   ----------------------------------------
gourmetrace_6_017:
	.byte	W08
	.byte		N09   , Cn3 , v060
	.byte		N08   , Ds3 , v072
	.byte	W02
	.byte		        Gn2 , v108
	.byte	W22
	.byte		N07   , Ds3 
	.byte	W01
	.byte		N10   , Gn2 , v100
	.byte		N08   , Cn3 , v092
	.byte	W24
	.byte		N10   , Gn2 , v108
	.byte		N08   , Cn3 , v096
	.byte		N06   , Ds3 , v108
	.byte	W24
	.byte		N08   , Gn2 
	.byte		N07   , Cn3 , v088
	.byte		N07   , Ds3 , v108
	.byte	W15
	.byte	PEND
@ 018   ----------------------------------------
gourmetrace_6_018:
	.byte	W08
	.byte		N09   , Gs2 , v112
	.byte		N09   , Cn3 , v092
	.byte		N09   , Fn3 , v104
	.byte	W24
	.byte	W01
	.byte		N07   , Cn3 , v092
	.byte		N07   , Fn3 , v104
	.byte	W01
	.byte		N09   , Gs2 , v116
	.byte	W24
	.byte		N06   , Cn3 , v100
	.byte		N07   , Fn3 , v104
	.byte	W01
	.byte		N08   , Gs2 , v120
	.byte	W23
	.byte		N06   , Cn3 , v096
	.byte		N07   , Fn3 , v104
	.byte	W01
	.byte		N08   , Gs2 , v116
	.byte	W13
	.byte	PEND
@ 019   ----------------------------------------
gourmetrace_6_019:
	.byte	W09
	.byte		N09   , Gn2 , v104
	.byte		N09   , Cn3 , v100
	.byte		N08   , Ds3 , v120
	.byte	W24
	.byte		N10   , Cn3 , v096
	.byte	W01
	.byte		N09   , Gn2 , v108
	.byte		N08   , Ds3 , v116
	.byte	W24
	.byte		N09   , Gn2 , v104
	.byte		N08   , Cn3 , v100
	.byte		N07   , Ds3 , v116
	.byte	W24
	.byte		N08   , Gn2 , v108
	.byte		N07   , Cn3 , v100
	.byte		N06   , Ds3 , v120
	.byte	W14
	.byte	PEND
@ 020   ----------------------------------------
gourmetrace_6_020:
	.byte	W09
	.byte		N09   , Cn3 , v096
	.byte	W01
	.byte		        Gs2 , v108
	.byte		N08   , Fn3 , v104
	.byte	W23
	.byte		N07   , Cn3 , v100
	.byte		N07   , Fn3 , v108
	.byte	W01
	.byte		N09   , Gs2 , v112
	.byte	W24
	.byte		N08   , Fn3 , v108
	.byte	W01
	.byte		N09   , Gs2 
	.byte		N08   , Cn3 , v100
	.byte	W22
	.byte		N09   , Fn3 , v108
	.byte	W01
	.byte		N07   , Cn3 , v100
	.byte	W01
	.byte		N09   , Gs2 , v112
	.byte	W13
	.byte	PEND
@ 021   ----------------------------------------
gourmetrace_6_021:
	.byte	W10
	.byte		N11   , Gn2 , v100
	.byte		N10   , Cn3 , v088
	.byte		N08   , Ds3 , v112
	.byte	W24
	.byte		N09   , Gn2 , v108
	.byte		N09   , Cn3 , v100
	.byte		N07   , Ds3 , v112
	.byte	W24
	.byte		N09   , Cn3 , v100
	.byte		N07   , Ds3 , v120
	.byte	W01
	.byte		N10   , Gn2 , v100
	.byte	W23
	.byte		N08   , Gn2 , v108
	.byte		N07   , Cn3 , v100
	.byte		N07   , Ds3 , v120
	.byte	W14
	.byte	PEND
@ 022   ----------------------------------------
gourmetrace_6_022:
	.byte	W10
	.byte		N09   , Gs2 , v100
	.byte		N09   , Cn3 , v080
	.byte		N09   , Fn3 , v112
	.byte	W22
	.byte		N12   , Cn3 , v068
	.byte		N10   , Fn3 , v104
	.byte	W01
	.byte		        Gs2 
	.byte	W22
	.byte		N12   , Cn3 , v080
	.byte	W01
	.byte		N10   , Gs2 , v104
	.byte		N09   , Fn3 , v108
	.byte	W23
	.byte		N10   , Cn3 , v080
	.byte		N08   , Fn3 , v108
	.byte	W01
	.byte		        Gs2 
	.byte	W16
	.byte	PEND
@ 023   ----------------------------------------
gourmetrace_6_023:
	.byte	W06
	.byte		N10   , Gn2 , v104
	.byte		N11   , Cn3 , v072
	.byte		N09   , Ds3 , v108
	.byte	W24
	.byte		N12   , Gn2 
	.byte		N10   , Cn3 , v100
	.byte		N10   , Ds3 , v108
	.byte	W24
	.byte	W02
	.byte		N11   , Gn2 
	.byte		N09   , Cn3 , v096
	.byte		N10   , Ds3 , v108
	.byte	W24
	.byte	W02
	.byte		        Gn2 , v104
	.byte		N09   , Cn3 , v092
	.byte		N10   , Ds3 , v108
	.byte	W14
	.byte	PEND
@ 024   ----------------------------------------
gourmetrace_6_024:
	.byte	W09
	.byte		N12   , Dn3 , v084
	.byte	W01
	.byte		N11   , As2 , v080
	.byte	W01
	.byte		N10   , Fn2 , v104
	.byte	W23
	.byte		        Fn2 , v108
	.byte		N09   , As2 , v104
	.byte		N11   , Dn3 
	.byte	W23
	.byte		        Fn2 , v108
	.byte		N10   , Dn3 , v104
	.byte	W01
	.byte		N09   , As2 
	.byte	W24
	.byte		N09   
	.byte		N08   , Dn3 
	.byte	W01
	.byte		N10   , Fn2 , v108
	.byte	W13
	.byte	PEND
@ 025   ----------------------------------------
gourmetrace_6_025:
	.byte	W09
	.byte		N11   , Gn2 , v108
	.byte		N10   , Cn3 , v076
	.byte		N09   , Ds3 , v108
	.byte	W24
	.byte		N12   , Gn2 
	.byte		N10   , Cn3 , v092
	.byte		N09   , Ds3 , v116
	.byte	W23
	.byte		N11   , Ds3 , v108
	.byte	W01
	.byte		        Gn2 , v112
	.byte		N11   , Cn3 , v088
	.byte	W24
	.byte		N12   , Gn2 , v100
	.byte		N11   , Cn3 , v092
	.byte		N12   , Ds3 , v112
	.byte	W15
	.byte	PEND
@ 026   ----------------------------------------
gourmetrace_6_026:
	.byte	W07
	.byte		N11   , Cn3 , v088
	.byte		N12   , Fn3 , v100
	.byte	W01
	.byte		        Gs2 , v112
	.byte	W24
	.byte		N10   , Cn3 , v096
	.byte	W01
	.byte		N09   , Gs2 , v108
	.byte		N10   , Fn3 , v104
	.byte	W24
	.byte		        Gs2 , v112
	.byte		N11   , Cn3 , v088
	.byte		N09   , Fn3 , v108
	.byte	W24
	.byte		N10   , Cn3 , v084
	.byte		N09   , Fn3 , v088
	.byte	W01
	.byte		N11   , Gs2 , v108
	.byte	W14
	.byte	PEND
@ 027   ----------------------------------------
gourmetrace_6_027:
	.byte	W08
	.byte		N11   , Cn3 , v072
	.byte		N10   , Ds3 , v096
	.byte	W01
	.byte		N11   , Gn2 , v104
	.byte	W24
	.byte		        Gn2 , v108
	.byte		N10   , Cn3 , v088
	.byte		N09   , Ds3 , v108
	.byte	W24
	.byte		N11   , Gn2 , v100
	.byte		N10   , Cn3 , v092
	.byte	W01
	.byte		        Ds3 , v108
	.byte	W24
	.byte		N11   , Gn2 
	.byte		N10   , Cn3 , v088
	.byte		N10   , Ds3 , v104
	.byte	W14
	.byte	PEND
@ 028   ----------------------------------------
gourmetrace_6_028:
	.byte	W10
	.byte		N10   , Fn3 , v100
	.byte	W01
	.byte		N11   , Gs2 , v112
	.byte		N10   , Cn3 , v084
	.byte	W23
	.byte		N11   , Fn3 , v104
	.byte	W01
	.byte		        Gs2 , v108
	.byte		N11   , Cn3 , v100
	.byte	W24
	.byte	W01
	.byte		N09   , Gs2 , v112
	.byte		N09   , Cn3 , v092
	.byte		N10   , Fn3 , v104
	.byte	W21
	.byte		        Gs2 , v108
	.byte		N09   , Cn3 , v092
	.byte	W01
	.byte		N08   , Fn3 , v100
	.byte	W14
	.byte	PEND
@ 029   ----------------------------------------
gourmetrace_6_029:
	.byte	W09
	.byte		N11   , Gn2 , v108
	.byte		N11   , Cn3 , v080
	.byte		N10   , Ds3 , v108
	.byte	W24
	.byte		N11   , Gn2 
	.byte	W01
	.byte		        Cn3 , v096
	.byte		N10   , Ds3 , v112
	.byte	W24
	.byte		N11   , Gn2 , v108
	.byte	W01
	.byte		N10   , Cn3 , v096
	.byte		N09   , Ds3 , v108
	.byte	W22
	.byte		N12   , Gn2 , v100
	.byte	W01
	.byte		N11   , Cn3 , v092
	.byte		N11   , Ds3 , v108
	.byte	W14
	.byte	PEND
@ 030   ----------------------------------------
gourmetrace_6_030:
	.byte	W10
	.byte		N11   , Gs2 , v108
	.byte		N11   , Cn3 , v088
	.byte		N11   , Fn3 , v100
	.byte	W24
	.byte		N10   , Gs2 , v108
	.byte		N09   , Cn3 , v092
	.byte		N09   , Fn3 , v104
	.byte	W22
	.byte		N08   , Cn3 , v076
	.byte		N08   , Fn3 , v092
	.byte	W01
	.byte		N10   , Gs2 , v112
	.byte	W22
	.byte		        Fn3 , v100
	.byte	W01
	.byte		N11   , Gs2 , v108
	.byte		N08   , Cn3 , v092
	.byte	W16
	.byte	PEND
@ 031   ----------------------------------------
gourmetrace_6_031:
	.byte	W07
	.byte		N11   , Gn2 , v084
	.byte		N11   , Cn3 , v100
	.byte		N10   , Ds3 , v116
	.byte	W24
	.byte	W01
	.byte		N13   , Gn2 , v076
	.byte		N11   , Cn3 , v092
	.byte		N10   , Ds3 , v108
	.byte	W24
	.byte		N12   , Gn2 , v100
	.byte	W01
	.byte		N09   , Cn3 , v096
	.byte		N09   , Ds3 , v108
	.byte	W24
	.byte		N07   , Cn3 , v100
	.byte		N08   , Ds3 , v108
	.byte	W01
	.byte		N12   , Gn2 , v084
	.byte	W14
	.byte	PEND
@ 032   ----------------------------------------
gourmetrace_6_032:
	.byte	W08
	.byte		N17   , Fn2 , v080
	.byte		N13   , As2 , v092
	.byte	W01
	.byte		N08   , Cn2 , v068
	.byte		N15   , Dn2 
	.byte	W24
	.byte		N13   , Dn2 , v084
	.byte		N14   , Fn2 , v092
	.byte		N12   , As2 , v112
	.byte	W22
	.byte		N11   , Dn2 , v088
	.byte		N12   , Fn2 , v084
	.byte	W01
	.byte		N11   , As2 , v112
	.byte	W24
	.byte		        Dn2 , v068
	.byte		N06   , Fn2 , v064
	.byte		N22   , As2 , v108
	.byte	W16
	.byte	PEND
@ 033   ----------------------------------------
gourmetrace_6_033:
	.byte	W08
	.byte		N15   , Gn2 , v068
	.byte		N12   , Cn3 , v096
	.byte	W01
	.byte		        Ds2 , v084
	.byte	W24
	.byte	W01
	.byte		N11   , Gn2 , v068
	.byte		N09   , Cn3 , v100
	.byte	W01
	.byte		        Ds2 , v084
	.byte	W23
	.byte		N04   , Ds2 , v072
	.byte		N05   , Gn2 , v060
	.byte		N05   , Cn3 , v096
	.byte	W09
	.byte		N15   , Dn3 , v108
	.byte	W01
	.byte		N18   , Fn2 
	.byte		N16   , As2 , v100
	.byte	W28
	.byte	PEND
@ 034   ----------------------------------------
gourmetrace_6_034:
	.byte	W07
	.byte		N08   , Ds3 , v072
	.byte		N09   , Gn3 , v084
	.byte	W01
	.byte		        As2 , v108
	.byte	W23
	.byte		        Ds3 , v100
	.byte		N08   , Gn3 , v092
	.byte	W01
	.byte		N09   , As2 , v108
	.byte	W24
	.byte	W01
	.byte		N10   
	.byte		N09   , Gn3 , v100
	.byte	W01
	.byte		        Ds3 , v108
	.byte	W23
	.byte		N11   , As2 
	.byte		N08   , Ds3 
	.byte		N13   , Gn3 , v104
	.byte	W15
	.byte	PEND
@ 035   ----------------------------------------
gourmetrace_6_035:
	.byte	W09
	.byte		N11   , As2 , v112
	.byte		N11   , Dn3 , v100
	.byte		N10   , Fn3 
	.byte	W23
	.byte		N11   , As2 , v104
	.byte		N10   , Dn3 , v092
	.byte		N09   , Fn3 , v100
	.byte	W24
	.byte		N10   , Dn3 
	.byte		N09   , Fn3 
	.byte	W01
	.byte		N10   , As2 , v104
	.byte	W23
	.byte		        Dn3 , v092
	.byte		N11   , Fn3 , v084
	.byte	W01
	.byte		N12   , As2 , v100
	.byte	W15
	.byte	PEND
@ 036   ----------------------------------------
gourmetrace_6_036:
	.byte	W09
	.byte		N11   , Cn3 , v076
	.byte		N10   , Ds3 , v084
	.byte	W01
	.byte		        Gn2 , v092
	.byte	W23
	.byte		N09   
	.byte	W01
	.byte		N13   , Cn3 , v084
	.byte		N11   , Ds3 , v100
	.byte	W24
	.byte		N10   , Gn2 , v068
	.byte		N11   , Cn3 , v092
	.byte		N10   , Ds3 , v108
	.byte	W24
	.byte		N09   , Gn2 , v068
	.byte		N10   , Ds3 , v104
	.byte	W01
	.byte		        Cn3 , v088
	.byte	W13
	.byte	PEND
@ 037   ----------------------------------------
gourmetrace_6_037:
	.byte	W10
	.byte		N13   , Fn2 , v068
	.byte		N11   , As2 , v060
	.byte		N12   , Dn3 , v104
	.byte	W23
	.byte		        Fn2 , v068
	.byte	W01
	.byte		N11   , As2 , v060
	.byte		N11   , Dn3 , v108
	.byte	W23
	.byte		        As2 , v080
	.byte	W01
	.byte		N10   , Fn2 , v072
	.byte		N09   , Dn3 , v112
	.byte	W24
	.byte		N10   , Fn2 , v064
	.byte		N10   , As2 , v060
	.byte		N11   , Dn3 , v108
	.byte	W14
	.byte	PEND
@ 038   ----------------------------------------
gourmetrace_6_038:
	.byte	W12
	.byte		N10   , Gs2 , v112
	.byte		N11   , Cn3 , v088
	.byte		N10   , Ds3 , v104
	.byte	W23
	.byte		        Gs2 , v116
	.byte		N11   , Cn3 , v084
	.byte		N13   , Ds3 , v100
	.byte	W23
	.byte		N10   , Dn3 , v084
	.byte		N11   , Fn3 , v080
	.byte	W01
	.byte		        As2 , v104
	.byte	W24
	.byte		N09   , As2 , v108
	.byte		N08   , Dn3 , v100
	.byte		N11   , Fn3 , v092
	.byte	W13
	.byte	PEND
@ 039   ----------------------------------------
gourmetrace_6_039:
	.byte	W11
	.byte		N12   , As2 , v108
	.byte		N11   , Ds3 , v084
	.byte		N11   , Gn3 , v076
	.byte	W22
	.byte		N12   , As2 , v108
	.byte	W01
	.byte		N11   , Ds3 , v092
	.byte		N11   , Gn3 , v084
	.byte	W23
	.byte		        Ds3 , v092
	.byte	W01
	.byte		N12   , As2 , v104
	.byte		N11   , Gn3 , v080
	.byte	W24
	.byte		N12   , Ds3 , v084
	.byte		N11   , Gn3 , v080
	.byte	W01
	.byte		N13   , As2 , v108
	.byte	W13
	.byte	PEND
@ 040   ----------------------------------------
gourmetrace_6_040:
	.byte	W11
	.byte		N11   , Ds3 , v084
	.byte		N11   , Fs3 , v076
	.byte	W01
	.byte		        Bn2 , v100
	.byte	W21
	.byte		N10   , Bn2 , v108
	.byte		N11   , Ds3 , v100
	.byte		N12   , Fs3 , v108
	.byte	W23
	.byte		N10   , Bn2 
	.byte		N11   , Ds3 , v104
	.byte		N12   , Fs3 , v108
	.byte	W22
	.byte		N11   , Ds3 , v100
	.byte		N12   , Fs3 , v104
	.byte	W02
	.byte		        Bn2 , v100
	.byte	W16
	.byte	PEND
@ 041   ----------------------------------------
gourmetrace_6_041:
	.byte	W09
	.byte		N10   , Dn3 , v080
	.byte		N10   , Fn3 
	.byte	W01
	.byte		N11   , As2 , v108
	.byte	W22
	.byte		N10   , Fn3 , v092
	.byte	W01
	.byte		N11   , As2 , v112
	.byte		N10   , Dn3 , v084
	.byte	W24
	.byte		N11   , As2 , v108
	.byte		N10   , Dn3 , v088
	.byte		N10   , Fn3 , v080
	.byte	W24
	.byte		N11   , Dn3 , v084
	.byte		N13   , Fn3 , v076
	.byte	W01
	.byte		N10   , As2 , v112
	.byte	W14
	.byte	PEND
@ 042   ----------------------------------------
gourmetrace_6_042:
	.byte	W09
	.byte		N11   , As2 , v100
	.byte		N11   , Ds3 , v096
	.byte		N09   , Gn3 , v088
	.byte	W22
	.byte		N11   , Gn3 , v100
	.byte	W01
	.byte		        As2 , v108
	.byte		N10   , Ds3 , v100
	.byte	W24
	.byte		N11   , As2 , v112
	.byte		N10   , Ds3 , v108
	.byte		N10   , Gn3 
	.byte	W24
	.byte		        As2 
	.byte		N10   , Ds3 
	.byte		N12   , Gn3 , v100
	.byte	W16
	.byte	PEND
@ 043   ----------------------------------------
gourmetrace_6_043:
	.byte	W07
	.byte		N10   , As2 , v108
	.byte		N11   , Dn3 , v096
	.byte		N10   , Fn3 , v100
	.byte	W23
	.byte		N12   , Dn3 
	.byte		N12   , Fn3 , v104
	.byte	W01
	.byte		N10   , As2 , v108
	.byte	W24
	.byte	W01
	.byte		N12   
	.byte		N12   , Dn3 , v100
	.byte		N12   , Fn3 , v104
	.byte	W24
	.byte		N10   , Fn3 , v108
	.byte	W01
	.byte		N12   , As2 , v116
	.byte		N11   , Dn3 , v100
	.byte	W15
	.byte	PEND
@ 044   ----------------------------------------
gourmetrace_6_044:
	.byte	W08
	.byte		N11   , Gn2 , v092
	.byte		N13   , Cn3 , v088
	.byte		N11   , Ds3 , v108
	.byte	W24
	.byte		N13   , Cn3 , v100
	.byte		N11   , Ds3 , v112
	.byte	W01
	.byte		        Gn2 , v108
	.byte	W24
	.byte		N10   , Gn2 , v100
	.byte		N13   , Cn3 
	.byte		N11   , Ds3 , v108
	.byte	W24
	.byte	W01
	.byte		N10   , Gn2 , v100
	.byte		N11   , Cn3 , v096
	.byte		N11   , Ds3 , v108
	.byte	W14
	.byte	PEND
@ 045   ----------------------------------------
gourmetrace_6_045:
	.byte	W08
	.byte		N14   , Fn2 , v076
	.byte	W01
	.byte		N12   , As2 , v084
	.byte		N12   , Dn3 , v108
	.byte	W24
	.byte		N10   , As2 , v084
	.byte		N11   , Dn3 , v108
	.byte	W01
	.byte		        Fn2 , v064
	.byte	W23
	.byte		N12   , Dn3 , v108
	.byte	W01
	.byte		        Fn2 , v068
	.byte		N10   , As2 , v084
	.byte	W23
	.byte		N13   , Fn2 , v064
	.byte	W01
	.byte		N10   , As2 , v052
	.byte		N12   , Dn3 , v108
	.byte	W14
	.byte	PEND
@ 046   ----------------------------------------
gourmetrace_6_046:
	.byte	W09
	.byte		N13   , Cn3 , v084
	.byte	W01
	.byte		N11   , Gs2 , v108
	.byte		N12   , Ds3 , v104
	.byte	W22
	.byte		N14   , Ds3 , v088
	.byte	W01
	.byte		N13   , Gs2 , v108
	.byte		N14   , Cn3 , v080
	.byte	W23
	.byte		N13   , As2 , v108
	.byte		N13   , Dn3 , v084
	.byte		N13   , Fn3 , v080
	.byte	W24
	.byte	W01
	.byte		N11   , As2 , v116
	.byte		N11   , Dn3 , v084
	.byte		N13   , Fn3 , v088
	.byte	W15
	.byte	PEND
@ 047   ----------------------------------------
gourmetrace_6_047:
	.byte	W08
	.byte		N12   , As2 , v116
	.byte		N13   , Ds3 , v084
	.byte		N14   , Gn3 
	.byte	W24
	.byte		N12   , As2 , v104
	.byte		N11   , Gn3 , v084
	.byte	W01
	.byte		        Ds3 , v100
	.byte	W23
	.byte		N12   , Gs2 , v088
	.byte		N13   , Cn3 , v084
	.byte		N13   , Ds3 , v104
	.byte	W23
	.byte		N12   , Gs2 , v084
	.byte		N14   , Cn3 , v068
	.byte		N15   , Ds3 , v100
	.byte	W17
	.byte	PEND
@ 048   ----------------------------------------
gourmetrace_6_048:
	.byte	W08
	.byte		N12   , An2 , v108
	.byte		N13   , Dn3 , v084
	.byte		N12   , Fn3 , v088
	.byte	W24
	.byte		N11   , Fn3 , v100
	.byte	W01
	.byte		        An2 , v108
	.byte		N11   , Dn3 , v088
	.byte	W23
	.byte		N13   , An2 , v104
	.byte		N12   , Dn3 , v096
	.byte		N12   , Fn3 , v100
	.byte	W24
	.byte		N14   , An2 , v108
	.byte		N12   , Dn3 , v092
	.byte		N11   , Fn3 , v100
	.byte	W16
	.byte	PEND
@ 049   ----------------------------------------
gourmetrace_6_049:
	.byte	W08
	.byte		N14   , Gn2 , v084
	.byte		N13   , Bn2 , v076
	.byte		N12   , Dn3 , v084
	.byte	W24
	.byte	W01
	.byte		N04   , Gn2 , v092
	.byte		N05   , Bn2 , v088
	.byte		N05   , Dn3 , v100
	.byte	W11
	.byte		N18   , Gn2 , v104
	.byte	W01
	.byte		        Bn2 , v108
	.byte		N15   , Dn3 , v100
	.byte	W48
	.byte	W03
	.byte	PEND
@ 050   ----------------------------------------
	.byte	W96
@ 051   ----------------------------------------
	.byte	W96
@ 052   ----------------------------------------
	.byte	PATT
	 .word	gourmetrace_6_002
@ 053   ----------------------------------------
	.byte	PATT
	 .word	gourmetrace_6_003
@ 054   ----------------------------------------
	.byte	PATT
	 .word	gourmetrace_6_004
@ 055   ----------------------------------------
	.byte	PATT
	 .word	gourmetrace_6_005
@ 056   ----------------------------------------
	.byte	PATT
	 .word	gourmetrace_6_006
@ 057   ----------------------------------------
	.byte	PATT
	 .word	gourmetrace_6_007
@ 058   ----------------------------------------
	.byte	PATT
	 .word	gourmetrace_6_008
@ 059   ----------------------------------------
	.byte	PATT
	 .word	gourmetrace_6_009
@ 060   ----------------------------------------
	.byte	PATT
	 .word	gourmetrace_6_010
@ 061   ----------------------------------------
	.byte	PATT
	 .word	gourmetrace_6_011
@ 062   ----------------------------------------
	.byte	PATT
	 .word	gourmetrace_6_012
@ 063   ----------------------------------------
	.byte	PATT
	 .word	gourmetrace_6_013
@ 064   ----------------------------------------
	.byte	PATT
	 .word	gourmetrace_6_014
@ 065   ----------------------------------------
	.byte	PATT
	 .word	gourmetrace_6_015
@ 066   ----------------------------------------
	.byte	PATT
	 .word	gourmetrace_6_016
@ 067   ----------------------------------------
	.byte	PATT
	 .word	gourmetrace_6_017
@ 068   ----------------------------------------
	.byte	PATT
	 .word	gourmetrace_6_018
@ 069   ----------------------------------------
	.byte	PATT
	 .word	gourmetrace_6_019
@ 070   ----------------------------------------
	.byte	PATT
	 .word	gourmetrace_6_020
@ 071   ----------------------------------------
	.byte	PATT
	 .word	gourmetrace_6_021
@ 072   ----------------------------------------
	.byte	PATT
	 .word	gourmetrace_6_022
@ 073   ----------------------------------------
	.byte	PATT
	 .word	gourmetrace_6_023
@ 074   ----------------------------------------
	.byte	PATT
	 .word	gourmetrace_6_024
@ 075   ----------------------------------------
	.byte	PATT
	 .word	gourmetrace_6_025
@ 076   ----------------------------------------
	.byte	PATT
	 .word	gourmetrace_6_026
@ 077   ----------------------------------------
	.byte	PATT
	 .word	gourmetrace_6_027
@ 078   ----------------------------------------
	.byte	PATT
	 .word	gourmetrace_6_028
@ 079   ----------------------------------------
	.byte	PATT
	 .word	gourmetrace_6_029
@ 080   ----------------------------------------
	.byte	PATT
	 .word	gourmetrace_6_030
@ 081   ----------------------------------------
	.byte	PATT
	 .word	gourmetrace_6_031
@ 082   ----------------------------------------
	.byte	PATT
	 .word	gourmetrace_6_032
@ 083   ----------------------------------------
	.byte	PATT
	 .word	gourmetrace_6_033
@ 084   ----------------------------------------
	.byte	PATT
	 .word	gourmetrace_6_034
@ 085   ----------------------------------------
	.byte	PATT
	 .word	gourmetrace_6_035
@ 086   ----------------------------------------
	.byte	PATT
	 .word	gourmetrace_6_036
@ 087   ----------------------------------------
	.byte	PATT
	 .word	gourmetrace_6_037
@ 088   ----------------------------------------
	.byte	PATT
	 .word	gourmetrace_6_038
@ 089   ----------------------------------------
	.byte	PATT
	 .word	gourmetrace_6_039
@ 090   ----------------------------------------
	.byte	PATT
	 .word	gourmetrace_6_040
@ 091   ----------------------------------------
	.byte	PATT
	 .word	gourmetrace_6_041
@ 092   ----------------------------------------
	.byte	PATT
	 .word	gourmetrace_6_042
@ 093   ----------------------------------------
	.byte	PATT
	 .word	gourmetrace_6_043
@ 094   ----------------------------------------
	.byte	PATT
	 .word	gourmetrace_6_044
@ 095   ----------------------------------------
	.byte	PATT
	 .word	gourmetrace_6_045
@ 096   ----------------------------------------
	.byte	PATT
	 .word	gourmetrace_6_046
@ 097   ----------------------------------------
	.byte	PATT
	 .word	gourmetrace_6_047
@ 098   ----------------------------------------
	.byte	PATT
	 .word	gourmetrace_6_048
@ 099   ----------------------------------------
	.byte	PATT
	 .word	gourmetrace_6_049
@ 100   ----------------------------------------
	.byte	W96
@ 101   ----------------------------------------
	.byte	W96
@ 102   ----------------------------------------
	.byte	PATT
	 .word	gourmetrace_6_002
@ 103   ----------------------------------------
	.byte	PATT
	 .word	gourmetrace_6_003
@ 104   ----------------------------------------
	.byte	PATT
	 .word	gourmetrace_6_004
@ 105   ----------------------------------------
	.byte	PATT
	 .word	gourmetrace_6_005
@ 106   ----------------------------------------
	.byte	PATT
	 .word	gourmetrace_6_006
@ 107   ----------------------------------------
	.byte	PATT
	 .word	gourmetrace_6_007
@ 108   ----------------------------------------
	.byte	PATT
	 .word	gourmetrace_6_008
@ 109   ----------------------------------------
	.byte	PATT
	 .word	gourmetrace_6_009
@ 110   ----------------------------------------
	.byte	PATT
	 .word	gourmetrace_6_010
@ 111   ----------------------------------------
	.byte	PATT
	 .word	gourmetrace_6_011
@ 112   ----------------------------------------
	.byte	PATT
	 .word	gourmetrace_6_012
@ 113   ----------------------------------------
	.byte	PATT
	 .word	gourmetrace_6_013
@ 114   ----------------------------------------
	.byte	PATT
	 .word	gourmetrace_6_014
@ 115   ----------------------------------------
	.byte	PATT
	 .word	gourmetrace_6_015
@ 116   ----------------------------------------
	.byte	PATT
	 .word	gourmetrace_6_016
@ 117   ----------------------------------------
	.byte	PATT
	 .word	gourmetrace_6_017
@ 118   ----------------------------------------
	.byte	PATT
	 .word	gourmetrace_6_018
@ 119   ----------------------------------------
	.byte	PATT
	 .word	gourmetrace_6_019
@ 120   ----------------------------------------
	.byte	PATT
	 .word	gourmetrace_6_020
@ 121   ----------------------------------------
	.byte	PATT
	 .word	gourmetrace_6_021
@ 122   ----------------------------------------
	.byte	PATT
	 .word	gourmetrace_6_022
@ 123   ----------------------------------------
	.byte	PATT
	 .word	gourmetrace_6_023
@ 124   ----------------------------------------
	.byte	PATT
	 .word	gourmetrace_6_024
@ 125   ----------------------------------------
	.byte	PATT
	 .word	gourmetrace_6_025
@ 126   ----------------------------------------
	.byte	PATT
	 .word	gourmetrace_6_026
@ 127   ----------------------------------------
	.byte	PATT
	 .word	gourmetrace_6_027
@ 128   ----------------------------------------
	.byte	PATT
	 .word	gourmetrace_6_028
@ 129   ----------------------------------------
	.byte	PATT
	 .word	gourmetrace_6_029
@ 130   ----------------------------------------
	.byte	PATT
	 .word	gourmetrace_6_030
@ 131   ----------------------------------------
	.byte	PATT
	 .word	gourmetrace_6_031
@ 132   ----------------------------------------
	.byte	PATT
	 .word	gourmetrace_6_032
@ 133   ----------------------------------------
	.byte	PATT
	 .word	gourmetrace_6_033
@ 134   ----------------------------------------
	.byte	PATT
	 .word	gourmetrace_6_034
@ 135   ----------------------------------------
	.byte	PATT
	 .word	gourmetrace_6_035
@ 136   ----------------------------------------
	.byte	PATT
	 .word	gourmetrace_6_036
@ 137   ----------------------------------------
	.byte	PATT
	 .word	gourmetrace_6_037
@ 138   ----------------------------------------
	.byte	PATT
	 .word	gourmetrace_6_038
@ 139   ----------------------------------------
	.byte	PATT
	 .word	gourmetrace_6_039
@ 140   ----------------------------------------
	.byte	PATT
	 .word	gourmetrace_6_040
@ 141   ----------------------------------------
	.byte	PATT
	 .word	gourmetrace_6_041
@ 142   ----------------------------------------
	.byte	PATT
	 .word	gourmetrace_6_042
@ 143   ----------------------------------------
	.byte	PATT
	 .word	gourmetrace_6_043
@ 144   ----------------------------------------
	.byte	PATT
	 .word	gourmetrace_6_044
@ 145   ----------------------------------------
	.byte	PATT
	 .word	gourmetrace_6_045
@ 146   ----------------------------------------
	.byte	PATT
	 .word	gourmetrace_6_046
@ 147   ----------------------------------------
	.byte	PATT
	 .word	gourmetrace_6_047
@ 148   ----------------------------------------
	.byte	PATT
	 .word	gourmetrace_6_048
@ 149   ----------------------------------------
	.byte	PATT
	 .word	gourmetrace_6_049
@ 150   ----------------------------------------
	.byte	W96
@ 151   ----------------------------------------
	.byte	W96
@ 152   ----------------------------------------
	.byte	PATT
	 .word	gourmetrace_6_002
@ 153   ----------------------------------------
	.byte	PATT
	 .word	gourmetrace_6_003
@ 154   ----------------------------------------
	.byte	PATT
	 .word	gourmetrace_6_004
@ 155   ----------------------------------------
	.byte	PATT
	 .word	gourmetrace_6_005
@ 156   ----------------------------------------
	.byte	PATT
	 .word	gourmetrace_6_006
@ 157   ----------------------------------------
	.byte	PATT
	 .word	gourmetrace_6_007
@ 158   ----------------------------------------
	.byte	PATT
	 .word	gourmetrace_6_008
@ 159   ----------------------------------------
	.byte	PATT
	 .word	gourmetrace_6_009
@ 160   ----------------------------------------
	.byte	PATT
	 .word	gourmetrace_6_010
@ 161   ----------------------------------------
	.byte	PATT
	 .word	gourmetrace_6_011
@ 162   ----------------------------------------
	.byte	PATT
	 .word	gourmetrace_6_012
@ 163   ----------------------------------------
	.byte	PATT
	 .word	gourmetrace_6_013
@ 164   ----------------------------------------
	.byte	PATT
	 .word	gourmetrace_6_014
@ 165   ----------------------------------------
	.byte	PATT
	 .word	gourmetrace_6_015
@ 166   ----------------------------------------
	.byte	PATT
	 .word	gourmetrace_6_016
@ 167   ----------------------------------------
	.byte	PATT
	 .word	gourmetrace_6_017
@ 168   ----------------------------------------
	.byte	PATT
	 .word	gourmetrace_6_018
@ 169   ----------------------------------------
	.byte	PATT
	 .word	gourmetrace_6_019
@ 170   ----------------------------------------
	.byte	PATT
	 .word	gourmetrace_6_020
@ 171   ----------------------------------------
	.byte	PATT
	 .word	gourmetrace_6_021
@ 172   ----------------------------------------
	.byte	PATT
	 .word	gourmetrace_6_022
@ 173   ----------------------------------------
	.byte	PATT
	 .word	gourmetrace_6_023
@ 174   ----------------------------------------
	.byte	PATT
	 .word	gourmetrace_6_024
@ 175   ----------------------------------------
	.byte	PATT
	 .word	gourmetrace_6_025
@ 176   ----------------------------------------
	.byte	PATT
	 .word	gourmetrace_6_026
@ 177   ----------------------------------------
	.byte	PATT
	 .word	gourmetrace_6_027
@ 178   ----------------------------------------
	.byte	PATT
	 .word	gourmetrace_6_028
@ 179   ----------------------------------------
	.byte	PATT
	 .word	gourmetrace_6_029
@ 180   ----------------------------------------
	.byte	PATT
	 .word	gourmetrace_6_030
@ 181   ----------------------------------------
	.byte	PATT
	 .word	gourmetrace_6_031
@ 182   ----------------------------------------
	.byte	PATT
	 .word	gourmetrace_6_032
@ 183   ----------------------------------------
	.byte	PATT
	 .word	gourmetrace_6_033
@ 184   ----------------------------------------
	.byte	PATT
	 .word	gourmetrace_6_034
@ 185   ----------------------------------------
	.byte	PATT
	 .word	gourmetrace_6_035
@ 186   ----------------------------------------
	.byte	PATT
	 .word	gourmetrace_6_036
@ 187   ----------------------------------------
	.byte	PATT
	 .word	gourmetrace_6_037
@ 188   ----------------------------------------
	.byte	PATT
	 .word	gourmetrace_6_038
@ 189   ----------------------------------------
	.byte	PATT
	 .word	gourmetrace_6_039
@ 190   ----------------------------------------
	.byte	PATT
	 .word	gourmetrace_6_040
@ 191   ----------------------------------------
	.byte	PATT
	 .word	gourmetrace_6_041
@ 192   ----------------------------------------
	.byte	PATT
	 .word	gourmetrace_6_042
@ 193   ----------------------------------------
	.byte	PATT
	 .word	gourmetrace_6_043
@ 194   ----------------------------------------
	.byte	PATT
	 .word	gourmetrace_6_044
@ 195   ----------------------------------------
	.byte	PATT
	 .word	gourmetrace_6_045
@ 196   ----------------------------------------
	.byte	PATT
	 .word	gourmetrace_6_046
@ 197   ----------------------------------------
	.byte	PATT
	 .word	gourmetrace_6_047
@ 198   ----------------------------------------
	.byte	PATT
	 .word	gourmetrace_6_048
@ 199   ----------------------------------------
	.byte	W08
	.byte		N14   , Gn2 , v084
	.byte		N13   , Bn2 , v076
	.byte		N12   , Dn3 , v084
	.byte	W24
	.byte	W01
	.byte		N04   , Gn2 , v092
	.byte		N05   , Bn2 , v088
	.byte		N05   , Dn3 , v100
	.byte	W11
	.byte		N18   , Gn2 , v104
	.byte	W01
	.byte		        Bn2 , v108
	.byte		N15   , Dn3 , v100
	.byte	W18
	.byte	FINE

@**************** Track 7 (Midi-Chn.10) ****************@

gourmetrace_7:
	.byte	KEYSH , gourmetrace_key+0
@ 000   ----------------------------------------
	.byte		VOICE , 126
	.byte		VOL   , 127*gourmetrace_mvl/mxv
	.byte		PAN   , c_v+0
	.byte	W01
	.byte		N08   , Cn1 , v116
	.byte		N06   , An2 , v108
	.byte	W22
	.byte		N10   , En1 , v116
	.byte	W23
	.byte		N06   , An2 , v108
	.byte	W01
	.byte		N08   , Cn1 , v112
	.byte	W22
	.byte		N09   , En1 
	.byte	W24
	.byte	W01
	.byte		N07   , Cn1 , v108
	.byte		N06   , An2 
	.byte	W02
@ 001   ----------------------------------------
gourmetrace_7_001:
	.byte	W21
	.byte		N07   , Cn1 , v112
	.byte		N06   , An2 , v108
	.byte	W23
	.byte		N06   
	.byte	W01
	.byte		N08   , Cn1 , v112
	.byte	W48
	.byte	W02
	.byte		N08   
	.byte	W01
	.byte	PEND
@ 002   ----------------------------------------
gourmetrace_7_002:
	.byte	W24
	.byte		N08   , En1 , v116
	.byte	W24
	.byte	W01
	.byte		N10   , Cn1 , v108
	.byte	W22
	.byte		N08   , En1 , v112
	.byte	W24
	.byte		N09   , Cn1 
	.byte	W01
	.byte	PEND
@ 003   ----------------------------------------
gourmetrace_7_003:
	.byte	W23
	.byte		N08   , En1 , v112
	.byte	W23
	.byte		N09   , Cn1 
	.byte	W24
	.byte		N10   , En1 , v108
	.byte	W24
	.byte	W01
	.byte		        Cn1 
	.byte	W01
	.byte	PEND
@ 004   ----------------------------------------
gourmetrace_7_004:
	.byte	W22
	.byte		N10   , En1 , v100
	.byte	W24
	.byte		        Cn1 , v108
	.byte	W23
	.byte		N11   , En1 
	.byte	W24
	.byte		N10   , Cn1 
	.byte	W03
	.byte	PEND
@ 005   ----------------------------------------
gourmetrace_7_005:
	.byte	W32
	.byte	W02
	.byte		N01   , En1 , v112
	.byte	W12
	.byte		N10   , Cn1 
	.byte	W22
	.byte		        En1 , v108
	.byte	W22
	.byte		        Cn1 , v112
	.byte	W06
	.byte	PEND
@ 006   ----------------------------------------
gourmetrace_7_006:
	.byte	W19
	.byte		N11   , En1 , v116
	.byte	W24
	.byte	W01
	.byte		        Cn1 , v112
	.byte	W24
	.byte		N10   , En1 
	.byte	W24
	.byte	W02
	.byte		        Cn1 , v116
	.byte	W02
	.byte	PEND
@ 007   ----------------------------------------
gourmetrace_7_007:
	.byte	W21
	.byte		N10   , En1 , v108
	.byte	W24
	.byte	W01
	.byte		N11   , Cn1 
	.byte	W23
	.byte		N09   , En1 , v116
	.byte	W22
	.byte		N11   , Cn1 
	.byte	W05
	.byte	PEND
@ 008   ----------------------------------------
gourmetrace_7_008:
	.byte	W20
	.byte		N10   , En1 , v112
	.byte	W24
	.byte	W01
	.byte		        Cn1 
	.byte	W23
	.byte		        En1 
	.byte	W24
	.byte		        Cn1 , v108
	.byte	W04
	.byte	PEND
@ 009   ----------------------------------------
gourmetrace_7_009:
	.byte	W20
	.byte		N09   , En1 , v116
	.byte	W24
	.byte		N11   , Cn1 , v112
	.byte	W24
	.byte	W01
	.byte		N09   , En1 , v120
	.byte	W24
	.byte	W01
	.byte		N11   , Cn1 , v112
	.byte	W02
	.byte	PEND
@ 010   ----------------------------------------
gourmetrace_7_010:
	.byte	W22
	.byte		N09   , En1 , v116
	.byte	W24
	.byte		N10   , Cn1 
	.byte	W24
	.byte		N11   , En1 
	.byte	W23
	.byte		        Cn1 
	.byte	W03
	.byte	PEND
@ 011   ----------------------------------------
gourmetrace_7_011:
	.byte	W20
	.byte		N09   , En1 , v116
	.byte	W24
	.byte	W02
	.byte		N10   , Cn1 , v108
	.byte	W24
	.byte		N09   , En1 , v112
	.byte	W24
	.byte	W01
	.byte		N10   , Cn1 , v120
	.byte	W01
	.byte	PEND
@ 012   ----------------------------------------
gourmetrace_7_012:
	.byte	W22
	.byte		N09   , En1 , v112
	.byte	W23
	.byte		        Cn1 , v108
	.byte	W24
	.byte		        En1 , v112
	.byte	W23
	.byte		N10   , Cn1 , v108
	.byte	W04
	.byte	PEND
@ 013   ----------------------------------------
gourmetrace_7_013:
	.byte	W21
	.byte		N10   , En1 , v112
	.byte	W24
	.byte	W01
	.byte		        Cn1 , v108
	.byte	W24
	.byte	W01
	.byte		N09   , En1 , v112
	.byte	W23
	.byte		N10   , Cn1 , v108
	.byte	W02
	.byte	PEND
@ 014   ----------------------------------------
gourmetrace_7_014:
	.byte	W22
	.byte		N09   , En1 , v112
	.byte	W24
	.byte	W02
	.byte		N10   , Cn1 , v108
	.byte	W23
	.byte		        En1 , v112
	.byte	W23
	.byte		        Cn1 , v108
	.byte	W02
	.byte	PEND
@ 015   ----------------------------------------
gourmetrace_7_015:
	.byte	W21
	.byte		N09   , En1 , v116
	.byte	W23
	.byte		N10   , Cn1 , v108
	.byte	W24
	.byte		N09   , En1 , v112
	.byte	W24
	.byte		N10   , Cn1 
	.byte	W04
	.byte	PEND
@ 016   ----------------------------------------
gourmetrace_7_016:
	.byte	W20
	.byte		N09   , En1 , v112
	.byte	W24
	.byte		N10   , Cn1 , v108
	.byte	W23
	.byte		        En1 , v112
	.byte	W24
	.byte	W01
	.byte		N09   , Cn1 , v108
	.byte	W04
	.byte	PEND
@ 017   ----------------------------------------
gourmetrace_7_017:
	.byte	W21
	.byte		N10   , En1 , v116
	.byte	W24
	.byte	W01
	.byte		        Cn1 , v108
	.byte	W22
	.byte		N09   , En1 , v120
	.byte	W24
	.byte		        Cn1 , v112
	.byte	W04
	.byte	PEND
@ 018   ----------------------------------------
gourmetrace_7_018:
	.byte	W19
	.byte		N09   , En1 , v116
	.byte	W24
	.byte	W02
	.byte		        Cn1 , v108
	.byte	W23
	.byte		N10   , En1 , v112
	.byte	W24
	.byte	W01
	.byte		N11   , Cn1 
	.byte	W03
	.byte	PEND
@ 019   ----------------------------------------
gourmetrace_7_019:
	.byte	W21
	.byte		N10   , En1 , v108
	.byte	W24
	.byte	W01
	.byte		N11   , Cn1 , v112
	.byte	W23
	.byte		N10   , En1 , v116
	.byte	W24
	.byte		        Cn1 , v112
	.byte	W03
	.byte	PEND
@ 020   ----------------------------------------
gourmetrace_7_020:
	.byte	W20
	.byte		N09   , En1 , v112
	.byte	W24
	.byte		N10   , Cn1 , v108
	.byte	W23
	.byte		        En1 , v116
	.byte	W24
	.byte		        Cn1 , v112
	.byte	W05
	.byte	PEND
@ 021   ----------------------------------------
gourmetrace_7_021:
	.byte	W20
	.byte		N10   , En1 , v120
	.byte	W24
	.byte		        Cn1 , v112
	.byte	W24
	.byte		        En1 , v116
	.byte	W24
	.byte		        Cn1 , v112
	.byte	W04
	.byte	PEND
@ 022   ----------------------------------------
gourmetrace_7_022:
	.byte	W21
	.byte		N09   , En1 , v112
	.byte	W23
	.byte		N10   , Cn1 
	.byte	W23
	.byte		N09   , En1 , v116
	.byte	W23
	.byte		N10   , Cn1 , v112
	.byte	W06
	.byte	PEND
@ 023   ----------------------------------------
gourmetrace_7_023:
	.byte	W18
	.byte		N12   , En1 , v112
	.byte	W24
	.byte		N11   , Cn1 
	.byte	W24
	.byte		N09   , En1 , v108
	.byte	W24
	.byte	W01
	.byte		        Cn1 
	.byte	W05
	.byte	PEND
@ 024   ----------------------------------------
gourmetrace_7_024:
	.byte	W17
	.byte		N10   , En1 , v112
	.byte	W24
	.byte	W02
	.byte		        Cn1 , v108
	.byte	W24
	.byte	W01
	.byte		        En1 
	.byte	W24
	.byte	W01
	.byte		        Cn1 
	.byte	W03
	.byte	PEND
@ 025   ----------------------------------------
gourmetrace_7_025:
	.byte	W21
	.byte		N11   , En1 , v108
	.byte	W23
	.byte		N10   , Cn1 , v100
	.byte	W24
	.byte	W01
	.byte		N11   , En1 , v112
	.byte	W23
	.byte		        Cn1 , v108
	.byte	W04
	.byte	PEND
@ 026   ----------------------------------------
gourmetrace_7_026:
	.byte	W21
	.byte		N10   , En1 , v108
	.byte	W24
	.byte		N12   , Cn1 
	.byte	W22
	.byte		N11   , En1 
	.byte	W24
	.byte	W02
	.byte		        Cn1 , v116
	.byte	W03
	.byte	PEND
@ 027   ----------------------------------------
gourmetrace_7_027:
	.byte	W21
	.byte		N11   , En1 , v108
	.byte	W24
	.byte		N10   , Cn1 , v112
	.byte	W23
	.byte		        En1 
	.byte	W24
	.byte		        Cn1 , v108
	.byte	W04
	.byte	PEND
@ 028   ----------------------------------------
gourmetrace_7_028:
	.byte	W19
	.byte		N10   , En1 , v108
	.byte	W24
	.byte		N11   , Cn1 , v112
	.byte	W23
	.byte		N10   , En1 
	.byte	W24
	.byte	W01
	.byte		N11   , Cn1 
	.byte	W05
	.byte	PEND
@ 029   ----------------------------------------
gourmetrace_7_029:
	.byte	W19
	.byte		N11   , En1 , v112
	.byte	W24
	.byte	W01
	.byte		        Cn1 , v108
	.byte	W23
	.byte		N10   , En1 
	.byte	W24
	.byte		        Cn1 , v112
	.byte	W05
	.byte	PEND
@ 030   ----------------------------------------
gourmetrace_7_030:
	.byte	W20
	.byte		N09   , En1 , v112
	.byte	W24
	.byte	W01
	.byte		N10   , Cn1 , v108
	.byte	W24
	.byte		N09   , En1 , v112
	.byte	W23
	.byte		N11   , Cn1 , v108
	.byte	W04
	.byte	PEND
@ 031   ----------------------------------------
gourmetrace_7_031:
	.byte	W21
	.byte		N10   , En1 , v108
	.byte	W24
	.byte		N12   , Cn1 
	.byte	W24
	.byte		N11   , En1 
	.byte	W24
	.byte		        Cn1 
	.byte	W03
	.byte	PEND
@ 032   ----------------------------------------
gourmetrace_7_032:
	.byte	W20
	.byte		N07   , En1 , v108
	.byte	W23
	.byte		N09   , Cn1 , v100
	.byte	W23
	.byte		N10   , En1 , v112
	.byte	W24
	.byte	W02
	.byte		        Cn1 
	.byte	W04
	.byte	PEND
@ 033   ----------------------------------------
gourmetrace_7_033:
	.byte	W22
	.byte		N10   , En1 , v120
	.byte	W24
	.byte		N07   , Cn1 , v112
	.byte	W20
	.byte		        Cn1 , v108
	.byte		N06   , Bn2 , v116
	.byte	W24
	.byte	W01
	.byte		N08   , Cn1 , v108
	.byte	W05
	.byte	PEND
@ 034   ----------------------------------------
gourmetrace_7_034:
	.byte	W18
	.byte		N10   , En1 , v112
	.byte	W24
	.byte	W01
	.byte		N09   , Cn1 
	.byte	W24
	.byte	W01
	.byte		N10   , En1 , v120
	.byte	W24
	.byte	W01
	.byte		N09   , Cn1 , v116
	.byte	W03
	.byte	PEND
@ 035   ----------------------------------------
gourmetrace_7_035:
	.byte	W20
	.byte		N11   , En1 , v112
	.byte	W24
	.byte	W01
	.byte		N09   , Cn1 
	.byte	W22
	.byte		N07   , En1 
	.byte	W24
	.byte	W02
	.byte		N09   , Cn1 , v104
	.byte	W03
	.byte	PEND
@ 036   ----------------------------------------
gourmetrace_7_036:
	.byte	W18
	.byte		N08   , En1 , v108
	.byte	W23
	.byte		        Cn1 , v112
	.byte	W24
	.byte	W01
	.byte		        En1 , v116
	.byte	W24
	.byte	W03
	.byte		N09   , Cn1 , v112
	.byte	W03
	.byte	PEND
@ 037   ----------------------------------------
gourmetrace_7_037:
	.byte	W21
	.byte		N09   , En1 , v112
	.byte	W24
	.byte		        Cn1 , v104
	.byte	W24
	.byte		        En1 , v108
	.byte	W24
	.byte	W01
	.byte		N10   , Cn1 
	.byte	W02
	.byte	PEND
@ 038   ----------------------------------------
gourmetrace_7_038:
	.byte	W21
	.byte		N09   , En1 , v108
	.byte	W24
	.byte	W01
	.byte		N10   , Cn1 
	.byte	W21
	.byte		N09   , En1 , v116
	.byte	W24
	.byte	W02
	.byte		N10   , Cn1 , v112
	.byte	W03
	.byte	PEND
@ 039   ----------------------------------------
gourmetrace_7_039:
	.byte	W20
	.byte		N09   , En1 , v116
	.byte	W24
	.byte	W01
	.byte		N10   , Cn1 , v108
	.byte	W24
	.byte		N09   , En1 , v112
	.byte	W24
	.byte		        Cn1 , v108
	.byte	W03
	.byte	PEND
@ 040   ----------------------------------------
gourmetrace_7_040:
	.byte	W20
	.byte		N09   , En1 , v112
	.byte	W24
	.byte	W01
	.byte		N10   , Cn1 , v108
	.byte	W22
	.byte		        En1 , v116
	.byte	W21
	.byte		        Cn1 , v104
	.byte	W08
	.byte	PEND
@ 041   ----------------------------------------
gourmetrace_7_041:
	.byte	W18
	.byte		N11   , En1 , v108
	.byte	W24
	.byte	W02
	.byte		        Cn1 
	.byte	W24
	.byte		N08   , En1 
	.byte	W24
	.byte	W01
	.byte		N09   , Cn1 
	.byte	W03
	.byte	PEND
@ 042   ----------------------------------------
gourmetrace_7_042:
	.byte	W21
	.byte		N08   , En1 , v108
	.byte	W23
	.byte		N09   , Cn1 
	.byte	W22
	.byte		        En1 , v112
	.byte	W24
	.byte	W02
	.byte		        Cn1 , v108
	.byte	W04
	.byte	PEND
@ 043   ----------------------------------------
gourmetrace_7_043:
	.byte	W21
	.byte		N08   , En1 , v116
	.byte	W24
	.byte		N10   , Cn1 , v108
	.byte	W24
	.byte	W01
	.byte		N08   , En1 
	.byte	W24
	.byte		        Cn1 , v112
	.byte	W02
	.byte	PEND
@ 044   ----------------------------------------
gourmetrace_7_044:
	.byte	W21
	.byte		N07   , En1 , v108
	.byte	W24
	.byte		N09   , Cn1 , v112
	.byte	W22
	.byte		N08   , En1 
	.byte	W24
	.byte	W01
	.byte		N09   , Cn1 , v108
	.byte	W04
	.byte	PEND
@ 045   ----------------------------------------
gourmetrace_7_045:
	.byte	W20
	.byte		N08   , En1 , v108
	.byte	W24
	.byte	W01
	.byte		N10   , Cn1 , v120
	.byte	W24
	.byte	W01
	.byte		N08   , En1 , v112
	.byte	W23
	.byte		N09   , Cn1 , v108
	.byte	W03
	.byte	PEND
@ 046   ----------------------------------------
gourmetrace_7_046:
	.byte	W20
	.byte		N08   , En1 , v112
	.byte	W24
	.byte	W01
	.byte		N09   , Cn1 , v108
	.byte	W22
	.byte		        En1 
	.byte	W24
	.byte		N10   , Cn1 , v112
	.byte	W05
	.byte	PEND
@ 047   ----------------------------------------
gourmetrace_7_047:
	.byte	W19
	.byte		N09   , En1 , v108
	.byte	W23
	.byte		N10   , Cn1 , v116
	.byte	W24
	.byte	W01
	.byte		        En1 , v108
	.byte	W24
	.byte		        Cn1 
	.byte	W05
	.byte	PEND
@ 048   ----------------------------------------
gourmetrace_7_048:
	.byte	W18
	.byte		N09   , En1 , v112
	.byte	W24
	.byte		N12   , Cn1 , v116
	.byte	W23
	.byte		N10   , En1 , v108
	.byte	W24
	.byte		        Cn1 
	.byte	W07
	.byte	PEND
@ 049   ----------------------------------------
gourmetrace_7_049:
	.byte	W19
	.byte		N08   , En1 , v108
	.byte	W24
	.byte		N10   , Cn1 , v112
	.byte	W24
	.byte	W02
	.byte		N07   , Cn1 , v120
	.byte	W24
	.byte	W03
	.byte	PEND
@ 050   ----------------------------------------
gourmetrace_7_050:
	.byte	W01
	.byte		N08   , Cn1 , v116
	.byte		N06   , An2 , v108
	.byte	W22
	.byte		N10   , En1 , v116
	.byte	W23
	.byte		N06   , An2 , v108
	.byte	W01
	.byte		N08   , Cn1 , v112
	.byte	W22
	.byte		N09   , En1 
	.byte	W24
	.byte	W01
	.byte		N07   , Cn1 , v108
	.byte		N06   , An2 
	.byte	W02
	.byte	PEND
@ 051   ----------------------------------------
	.byte	PATT
	 .word	gourmetrace_7_001
@ 052   ----------------------------------------
	.byte	PATT
	 .word	gourmetrace_7_002
@ 053   ----------------------------------------
	.byte	PATT
	 .word	gourmetrace_7_003
@ 054   ----------------------------------------
	.byte	PATT
	 .word	gourmetrace_7_004
@ 055   ----------------------------------------
	.byte	PATT
	 .word	gourmetrace_7_005
@ 056   ----------------------------------------
	.byte	PATT
	 .word	gourmetrace_7_006
@ 057   ----------------------------------------
	.byte	PATT
	 .word	gourmetrace_7_007
@ 058   ----------------------------------------
	.byte	PATT
	 .word	gourmetrace_7_008
@ 059   ----------------------------------------
	.byte	PATT
	 .word	gourmetrace_7_009
@ 060   ----------------------------------------
	.byte	PATT
	 .word	gourmetrace_7_010
@ 061   ----------------------------------------
	.byte	PATT
	 .word	gourmetrace_7_011
@ 062   ----------------------------------------
	.byte	PATT
	 .word	gourmetrace_7_012
@ 063   ----------------------------------------
	.byte	PATT
	 .word	gourmetrace_7_013
@ 064   ----------------------------------------
	.byte	PATT
	 .word	gourmetrace_7_014
@ 065   ----------------------------------------
	.byte	PATT
	 .word	gourmetrace_7_015
@ 066   ----------------------------------------
	.byte	PATT
	 .word	gourmetrace_7_016
@ 067   ----------------------------------------
	.byte	PATT
	 .word	gourmetrace_7_017
@ 068   ----------------------------------------
	.byte	PATT
	 .word	gourmetrace_7_018
@ 069   ----------------------------------------
	.byte	PATT
	 .word	gourmetrace_7_019
@ 070   ----------------------------------------
	.byte	PATT
	 .word	gourmetrace_7_020
@ 071   ----------------------------------------
	.byte	PATT
	 .word	gourmetrace_7_021
@ 072   ----------------------------------------
	.byte	PATT
	 .word	gourmetrace_7_022
@ 073   ----------------------------------------
	.byte	PATT
	 .word	gourmetrace_7_023
@ 074   ----------------------------------------
	.byte	PATT
	 .word	gourmetrace_7_024
@ 075   ----------------------------------------
	.byte	PATT
	 .word	gourmetrace_7_025
@ 076   ----------------------------------------
	.byte	PATT
	 .word	gourmetrace_7_026
@ 077   ----------------------------------------
	.byte	PATT
	 .word	gourmetrace_7_027
@ 078   ----------------------------------------
	.byte	PATT
	 .word	gourmetrace_7_028
@ 079   ----------------------------------------
	.byte	PATT
	 .word	gourmetrace_7_029
@ 080   ----------------------------------------
	.byte	PATT
	 .word	gourmetrace_7_030
@ 081   ----------------------------------------
	.byte	PATT
	 .word	gourmetrace_7_031
@ 082   ----------------------------------------
	.byte	PATT
	 .word	gourmetrace_7_032
@ 083   ----------------------------------------
	.byte	PATT
	 .word	gourmetrace_7_033
@ 084   ----------------------------------------
	.byte	PATT
	 .word	gourmetrace_7_034
@ 085   ----------------------------------------
	.byte	PATT
	 .word	gourmetrace_7_035
@ 086   ----------------------------------------
	.byte	PATT
	 .word	gourmetrace_7_036
@ 087   ----------------------------------------
	.byte	PATT
	 .word	gourmetrace_7_037
@ 088   ----------------------------------------
	.byte	PATT
	 .word	gourmetrace_7_038
@ 089   ----------------------------------------
	.byte	PATT
	 .word	gourmetrace_7_039
@ 090   ----------------------------------------
	.byte	PATT
	 .word	gourmetrace_7_040
@ 091   ----------------------------------------
	.byte	PATT
	 .word	gourmetrace_7_041
@ 092   ----------------------------------------
	.byte	PATT
	 .word	gourmetrace_7_042
@ 093   ----------------------------------------
	.byte	PATT
	 .word	gourmetrace_7_043
@ 094   ----------------------------------------
	.byte	PATT
	 .word	gourmetrace_7_044
@ 095   ----------------------------------------
	.byte	PATT
	 .word	gourmetrace_7_045
@ 096   ----------------------------------------
	.byte	PATT
	 .word	gourmetrace_7_046
@ 097   ----------------------------------------
	.byte	PATT
	 .word	gourmetrace_7_047
@ 098   ----------------------------------------
	.byte	PATT
	 .word	gourmetrace_7_048
@ 099   ----------------------------------------
	.byte	PATT
	 .word	gourmetrace_7_049
@ 100   ----------------------------------------
	.byte	PATT
	 .word	gourmetrace_7_050
@ 101   ----------------------------------------
	.byte	PATT
	 .word	gourmetrace_7_001
@ 102   ----------------------------------------
	.byte	PATT
	 .word	gourmetrace_7_002
@ 103   ----------------------------------------
	.byte	PATT
	 .word	gourmetrace_7_003
@ 104   ----------------------------------------
	.byte	PATT
	 .word	gourmetrace_7_004
@ 105   ----------------------------------------
	.byte	PATT
	 .word	gourmetrace_7_005
@ 106   ----------------------------------------
	.byte	PATT
	 .word	gourmetrace_7_006
@ 107   ----------------------------------------
	.byte	PATT
	 .word	gourmetrace_7_007
@ 108   ----------------------------------------
	.byte	PATT
	 .word	gourmetrace_7_008
@ 109   ----------------------------------------
	.byte	PATT
	 .word	gourmetrace_7_009
@ 110   ----------------------------------------
	.byte	PATT
	 .word	gourmetrace_7_010
@ 111   ----------------------------------------
	.byte	PATT
	 .word	gourmetrace_7_011
@ 112   ----------------------------------------
	.byte	PATT
	 .word	gourmetrace_7_012
@ 113   ----------------------------------------
	.byte	PATT
	 .word	gourmetrace_7_013
@ 114   ----------------------------------------
	.byte	PATT
	 .word	gourmetrace_7_014
@ 115   ----------------------------------------
	.byte	PATT
	 .word	gourmetrace_7_015
@ 116   ----------------------------------------
	.byte	PATT
	 .word	gourmetrace_7_016
@ 117   ----------------------------------------
	.byte	PATT
	 .word	gourmetrace_7_017
@ 118   ----------------------------------------
	.byte	PATT
	 .word	gourmetrace_7_018
@ 119   ----------------------------------------
	.byte	PATT
	 .word	gourmetrace_7_019
@ 120   ----------------------------------------
	.byte	PATT
	 .word	gourmetrace_7_020
@ 121   ----------------------------------------
	.byte	PATT
	 .word	gourmetrace_7_021
@ 122   ----------------------------------------
	.byte	PATT
	 .word	gourmetrace_7_022
@ 123   ----------------------------------------
	.byte	PATT
	 .word	gourmetrace_7_023
@ 124   ----------------------------------------
	.byte	PATT
	 .word	gourmetrace_7_024
@ 125   ----------------------------------------
	.byte	PATT
	 .word	gourmetrace_7_025
@ 126   ----------------------------------------
	.byte	PATT
	 .word	gourmetrace_7_026
@ 127   ----------------------------------------
	.byte	PATT
	 .word	gourmetrace_7_027
@ 128   ----------------------------------------
	.byte	PATT
	 .word	gourmetrace_7_028
@ 129   ----------------------------------------
	.byte	PATT
	 .word	gourmetrace_7_029
@ 130   ----------------------------------------
	.byte	PATT
	 .word	gourmetrace_7_030
@ 131   ----------------------------------------
	.byte	PATT
	 .word	gourmetrace_7_031
@ 132   ----------------------------------------
	.byte	PATT
	 .word	gourmetrace_7_032
@ 133   ----------------------------------------
	.byte	PATT
	 .word	gourmetrace_7_033
@ 134   ----------------------------------------
	.byte	PATT
	 .word	gourmetrace_7_034
@ 135   ----------------------------------------
	.byte	PATT
	 .word	gourmetrace_7_035
@ 136   ----------------------------------------
	.byte	PATT
	 .word	gourmetrace_7_036
@ 137   ----------------------------------------
	.byte	PATT
	 .word	gourmetrace_7_037
@ 138   ----------------------------------------
	.byte	PATT
	 .word	gourmetrace_7_038
@ 139   ----------------------------------------
	.byte	PATT
	 .word	gourmetrace_7_039
@ 140   ----------------------------------------
	.byte	PATT
	 .word	gourmetrace_7_040
@ 141   ----------------------------------------
	.byte	PATT
	 .word	gourmetrace_7_041
@ 142   ----------------------------------------
	.byte	PATT
	 .word	gourmetrace_7_042
@ 143   ----------------------------------------
	.byte	PATT
	 .word	gourmetrace_7_043
@ 144   ----------------------------------------
	.byte	PATT
	 .word	gourmetrace_7_044
@ 145   ----------------------------------------
	.byte	PATT
	 .word	gourmetrace_7_045
@ 146   ----------------------------------------
	.byte	PATT
	 .word	gourmetrace_7_046
@ 147   ----------------------------------------
	.byte	PATT
	 .word	gourmetrace_7_047
@ 148   ----------------------------------------
	.byte	PATT
	 .word	gourmetrace_7_048
@ 149   ----------------------------------------
	.byte	PATT
	 .word	gourmetrace_7_049
@ 150   ----------------------------------------
	.byte	PATT
	 .word	gourmetrace_7_050
@ 151   ----------------------------------------
	.byte	PATT
	 .word	gourmetrace_7_001
@ 152   ----------------------------------------
	.byte	PATT
	 .word	gourmetrace_7_002
@ 153   ----------------------------------------
	.byte	PATT
	 .word	gourmetrace_7_003
@ 154   ----------------------------------------
	.byte	PATT
	 .word	gourmetrace_7_004
@ 155   ----------------------------------------
	.byte	PATT
	 .word	gourmetrace_7_005
@ 156   ----------------------------------------
	.byte	PATT
	 .word	gourmetrace_7_006
@ 157   ----------------------------------------
	.byte	PATT
	 .word	gourmetrace_7_007
@ 158   ----------------------------------------
	.byte	PATT
	 .word	gourmetrace_7_008
@ 159   ----------------------------------------
	.byte	PATT
	 .word	gourmetrace_7_009
@ 160   ----------------------------------------
	.byte	PATT
	 .word	gourmetrace_7_010
@ 161   ----------------------------------------
	.byte	PATT
	 .word	gourmetrace_7_011
@ 162   ----------------------------------------
	.byte	PATT
	 .word	gourmetrace_7_012
@ 163   ----------------------------------------
	.byte	PATT
	 .word	gourmetrace_7_013
@ 164   ----------------------------------------
	.byte	PATT
	 .word	gourmetrace_7_014
@ 165   ----------------------------------------
	.byte	PATT
	 .word	gourmetrace_7_015
@ 166   ----------------------------------------
	.byte	PATT
	 .word	gourmetrace_7_016
@ 167   ----------------------------------------
	.byte	PATT
	 .word	gourmetrace_7_017
@ 168   ----------------------------------------
	.byte	PATT
	 .word	gourmetrace_7_018
@ 169   ----------------------------------------
	.byte	PATT
	 .word	gourmetrace_7_019
@ 170   ----------------------------------------
	.byte	PATT
	 .word	gourmetrace_7_020
@ 171   ----------------------------------------
	.byte	PATT
	 .word	gourmetrace_7_021
@ 172   ----------------------------------------
	.byte	PATT
	 .word	gourmetrace_7_022
@ 173   ----------------------------------------
	.byte	PATT
	 .word	gourmetrace_7_023
@ 174   ----------------------------------------
	.byte	PATT
	 .word	gourmetrace_7_024
@ 175   ----------------------------------------
	.byte	PATT
	 .word	gourmetrace_7_025
@ 176   ----------------------------------------
	.byte	PATT
	 .word	gourmetrace_7_026
@ 177   ----------------------------------------
	.byte	PATT
	 .word	gourmetrace_7_027
@ 178   ----------------------------------------
	.byte	PATT
	 .word	gourmetrace_7_028
@ 179   ----------------------------------------
	.byte	PATT
	 .word	gourmetrace_7_029
@ 180   ----------------------------------------
	.byte	PATT
	 .word	gourmetrace_7_030
@ 181   ----------------------------------------
	.byte	PATT
	 .word	gourmetrace_7_031
@ 182   ----------------------------------------
	.byte	PATT
	 .word	gourmetrace_7_032
@ 183   ----------------------------------------
	.byte	PATT
	 .word	gourmetrace_7_033
@ 184   ----------------------------------------
	.byte	PATT
	 .word	gourmetrace_7_034
@ 185   ----------------------------------------
	.byte	PATT
	 .word	gourmetrace_7_035
@ 186   ----------------------------------------
	.byte	PATT
	 .word	gourmetrace_7_036
@ 187   ----------------------------------------
	.byte	PATT
	 .word	gourmetrace_7_037
@ 188   ----------------------------------------
	.byte	PATT
	 .word	gourmetrace_7_038
@ 189   ----------------------------------------
	.byte	PATT
	 .word	gourmetrace_7_039
@ 190   ----------------------------------------
	.byte	PATT
	 .word	gourmetrace_7_040
@ 191   ----------------------------------------
	.byte	PATT
	 .word	gourmetrace_7_041
@ 192   ----------------------------------------
	.byte	PATT
	 .word	gourmetrace_7_042
@ 193   ----------------------------------------
	.byte	PATT
	 .word	gourmetrace_7_043
@ 194   ----------------------------------------
	.byte	PATT
	 .word	gourmetrace_7_044
@ 195   ----------------------------------------
	.byte	PATT
	 .word	gourmetrace_7_045
@ 196   ----------------------------------------
	.byte	PATT
	 .word	gourmetrace_7_046
@ 197   ----------------------------------------
	.byte	PATT
	 .word	gourmetrace_7_047
@ 198   ----------------------------------------
	.byte	PATT
	 .word	gourmetrace_7_048
@ 199   ----------------------------------------
	.byte	W19
	.byte		N08   , En1 , v108
	.byte	W24
	.byte		N10   , Cn1 , v112
	.byte	W24
	.byte	W02
	.byte		N07   , Cn1 , v120
	.byte	W08
	.byte	FINE

@**************** Track 8 (Midi-Chn.6) ****************@

gourmetrace_8:
	.byte	KEYSH , gourmetrace_key+0
@ 000   ----------------------------------------
	.byte		VOICE , 47
	.byte		VOL   , 127*gourmetrace_mvl/mxv
	.byte		PAN   , c_v+0
	.byte	W96
@ 001   ----------------------------------------
gourmetrace_8_001:
	.byte	W66
	.byte	W01
	.byte		N07   , Gn1 , v124
	.byte	W28
	.byte	W01
	.byte	PEND
@ 002   ----------------------------------------
	.byte	W96
@ 003   ----------------------------------------
	.byte	W96
@ 004   ----------------------------------------
	.byte	W96
@ 005   ----------------------------------------
	.byte	W96
@ 006   ----------------------------------------
	.byte	W96
@ 007   ----------------------------------------
	.byte	W96
@ 008   ----------------------------------------
	.byte	W96
@ 009   ----------------------------------------
	.byte	W96
@ 010   ----------------------------------------
	.byte	W96
@ 011   ----------------------------------------
	.byte	W96
@ 012   ----------------------------------------
	.byte	W96
@ 013   ----------------------------------------
	.byte	W96
@ 014   ----------------------------------------
	.byte	W96
@ 015   ----------------------------------------
	.byte	W96
@ 016   ----------------------------------------
	.byte	W96
@ 017   ----------------------------------------
	.byte	W96
@ 018   ----------------------------------------
	.byte	W96
@ 019   ----------------------------------------
	.byte	W96
@ 020   ----------------------------------------
	.byte	W96
@ 021   ----------------------------------------
	.byte	W96
@ 022   ----------------------------------------
	.byte	W96
@ 023   ----------------------------------------
	.byte	W96
@ 024   ----------------------------------------
	.byte	W96
@ 025   ----------------------------------------
	.byte	W96
@ 026   ----------------------------------------
	.byte	W96
@ 027   ----------------------------------------
	.byte	W96
@ 028   ----------------------------------------
	.byte	W96
@ 029   ----------------------------------------
	.byte	W96
@ 030   ----------------------------------------
	.byte	W96
@ 031   ----------------------------------------
	.byte	W96
@ 032   ----------------------------------------
	.byte	W96
@ 033   ----------------------------------------
	.byte	W96
@ 034   ----------------------------------------
	.byte	W96
@ 035   ----------------------------------------
	.byte	W96
@ 036   ----------------------------------------
	.byte	W96
@ 037   ----------------------------------------
	.byte	W96
@ 038   ----------------------------------------
	.byte	W96
@ 039   ----------------------------------------
	.byte	W96
@ 040   ----------------------------------------
	.byte	W96
@ 041   ----------------------------------------
	.byte	W96
@ 042   ----------------------------------------
	.byte	W96
@ 043   ----------------------------------------
	.byte	W96
@ 044   ----------------------------------------
	.byte	W96
@ 045   ----------------------------------------
	.byte	W96
@ 046   ----------------------------------------
	.byte	W96
@ 047   ----------------------------------------
	.byte	W96
@ 048   ----------------------------------------
	.byte	W96
@ 049   ----------------------------------------
	.byte	W96
@ 050   ----------------------------------------
	.byte	W96
@ 051   ----------------------------------------
	.byte	PATT
	 .word	gourmetrace_8_001
@ 052   ----------------------------------------
	.byte	W96
@ 053   ----------------------------------------
	.byte	W96
@ 054   ----------------------------------------
	.byte	W96
@ 055   ----------------------------------------
	.byte	W96
@ 056   ----------------------------------------
	.byte	W96
@ 057   ----------------------------------------
	.byte	W96
@ 058   ----------------------------------------
	.byte	W96
@ 059   ----------------------------------------
	.byte	W96
@ 060   ----------------------------------------
	.byte	W96
@ 061   ----------------------------------------
	.byte	W96
@ 062   ----------------------------------------
	.byte	W96
@ 063   ----------------------------------------
	.byte	W96
@ 064   ----------------------------------------
	.byte	W96
@ 065   ----------------------------------------
	.byte	W96
@ 066   ----------------------------------------
	.byte	W96
@ 067   ----------------------------------------
	.byte	W96
@ 068   ----------------------------------------
	.byte	W96
@ 069   ----------------------------------------
	.byte	W96
@ 070   ----------------------------------------
	.byte	W96
@ 071   ----------------------------------------
	.byte	W96
@ 072   ----------------------------------------
	.byte	W96
@ 073   ----------------------------------------
	.byte	W96
@ 074   ----------------------------------------
	.byte	W96
@ 075   ----------------------------------------
	.byte	W96
@ 076   ----------------------------------------
	.byte	W96
@ 077   ----------------------------------------
	.byte	W96
@ 078   ----------------------------------------
	.byte	W96
@ 079   ----------------------------------------
	.byte	W96
@ 080   ----------------------------------------
	.byte	W96
@ 081   ----------------------------------------
	.byte	W96
@ 082   ----------------------------------------
	.byte	W96
@ 083   ----------------------------------------
	.byte	W96
@ 084   ----------------------------------------
	.byte	W96
@ 085   ----------------------------------------
	.byte	W96
@ 086   ----------------------------------------
	.byte	W96
@ 087   ----------------------------------------
	.byte	W96
@ 088   ----------------------------------------
	.byte	W96
@ 089   ----------------------------------------
	.byte	W96
@ 090   ----------------------------------------
	.byte	W96
@ 091   ----------------------------------------
	.byte	W96
@ 092   ----------------------------------------
	.byte	W96
@ 093   ----------------------------------------
	.byte	W96
@ 094   ----------------------------------------
	.byte	W96
@ 095   ----------------------------------------
	.byte	W96
@ 096   ----------------------------------------
	.byte	W96
@ 097   ----------------------------------------
	.byte	W96
@ 098   ----------------------------------------
	.byte	W96
@ 099   ----------------------------------------
	.byte	W96
@ 100   ----------------------------------------
	.byte	W96
@ 101   ----------------------------------------
	.byte	PATT
	 .word	gourmetrace_8_001
@ 102   ----------------------------------------
	.byte	W96
@ 103   ----------------------------------------
	.byte	W96
@ 104   ----------------------------------------
	.byte	W96
@ 105   ----------------------------------------
	.byte	W96
@ 106   ----------------------------------------
	.byte	W96
@ 107   ----------------------------------------
	.byte	W96
@ 108   ----------------------------------------
	.byte	W96
@ 109   ----------------------------------------
	.byte	W96
@ 110   ----------------------------------------
	.byte	W96
@ 111   ----------------------------------------
	.byte	W96
@ 112   ----------------------------------------
	.byte	W96
@ 113   ----------------------------------------
	.byte	W96
@ 114   ----------------------------------------
	.byte	W96
@ 115   ----------------------------------------
	.byte	W96
@ 116   ----------------------------------------
	.byte	W96
@ 117   ----------------------------------------
	.byte	W96
@ 118   ----------------------------------------
	.byte	W96
@ 119   ----------------------------------------
	.byte	W96
@ 120   ----------------------------------------
	.byte	W96
@ 121   ----------------------------------------
	.byte	W96
@ 122   ----------------------------------------
	.byte	W96
@ 123   ----------------------------------------
	.byte	W96
@ 124   ----------------------------------------
	.byte	W96
@ 125   ----------------------------------------
	.byte	W96
@ 126   ----------------------------------------
	.byte	W96
@ 127   ----------------------------------------
	.byte	W96
@ 128   ----------------------------------------
	.byte	W96
@ 129   ----------------------------------------
	.byte	W96
@ 130   ----------------------------------------
	.byte	W96
@ 131   ----------------------------------------
	.byte	W96
@ 132   ----------------------------------------
	.byte	W96
@ 133   ----------------------------------------
	.byte	W96
@ 134   ----------------------------------------
	.byte	W96
@ 135   ----------------------------------------
	.byte	W96
@ 136   ----------------------------------------
	.byte	W96
@ 137   ----------------------------------------
	.byte	W96
@ 138   ----------------------------------------
	.byte	W96
@ 139   ----------------------------------------
	.byte	W96
@ 140   ----------------------------------------
	.byte	W96
@ 141   ----------------------------------------
	.byte	W96
@ 142   ----------------------------------------
	.byte	W96
@ 143   ----------------------------------------
	.byte	W96
@ 144   ----------------------------------------
	.byte	W96
@ 145   ----------------------------------------
	.byte	W96
@ 146   ----------------------------------------
	.byte	W96
@ 147   ----------------------------------------
	.byte	W96
@ 148   ----------------------------------------
	.byte	W96
@ 149   ----------------------------------------
	.byte	W96
@ 150   ----------------------------------------
	.byte	W96
@ 151   ----------------------------------------
	.byte	W66
	.byte	W01
	.byte		N07   , Gn1 , v124
	.byte	W08
	.byte	FINE

@******************************************************@
	.align	2

gourmetrace:
	.byte	8	@ NumTrks
	.byte	0	@ NumBlks
	.byte	gourmetrace_pri	@ Priority
	.byte	gourmetrace_rev	@ Reverb.

	.word	gourmetrace_grp

	.word	gourmetrace_1
	.word	gourmetrace_2
	.word	gourmetrace_3
	.word	gourmetrace_4
	.word	gourmetrace_5
	.word	gourmetrace_6
	.word	gourmetrace_7
	.word	gourmetrace_8

	.end
