//Event file generated from Sappy .s format.
	#include "MPlayDef.event"

	#define	gourmetrace_grp  voicegroup000
	#define	gourmetrace_pri  0
	#define	gourmetrace_rev  0
	#define	gourmetrace_mvl  127
	#define	gourmetrace_key  0
	#define	gourmetrace_tbs  1
	#define	gourmetrace_exg  0
	#define	gourmetrace_cmp  1

	// .rodata
	//	gourmetrace
	ALIGN 4

//**************** Track 1 (Midi-Chn.1) ****************//

gourmetrace_1:
	BYTE	KEYSH   gourmetrace_key+0
// 000   ----------------------------------------
	BYTE	TEMPO   170*gourmetrace_tbs/2
	BYTE		VOICE   34
	BYTE		VOL     127*gourmetrace_mvl/mxv
	BYTE		PAN     c_v+0
	BYTE		N11     Fn0   v100
	BYTE	W11
	BYTE		        Fn1   v084
	BYTE	W12
	BYTE		        Fn0   v100
	BYTE	W10
	BYTE		N14     Fn1 
	BYTE	W13
	BYTE		        Gn0   v108
	BYTE	W13
	BYTE		N12     Gn1   v080
	BYTE	W12
	BYTE		        Gn0   v092
	BYTE	W12
	BYTE		N11     Gn1   v088
	BYTE	W13
// 001   ----------------------------------------
gourmetrace_1_001:
	BYTE		N11     Gs0   v112
	BYTE	W10
	BYTE		        Gs1   v108
	BYTE	W12
	BYTE		N14     Gs0 
	BYTE	W12
	BYTE		N13     Gs1 
	BYTE	W12
	BYTE		N20     Gn0   v116
	BYTE	W48
	BYTE	W02
	BYTE	PEND
// 002   ----------------------------------------
	BYTE	W96
// 003   ----------------------------------------
	BYTE	W96
// 004   ----------------------------------------
	BYTE	W96
// 005   ----------------------------------------
	BYTE	W96
// 006   ----------------------------------------
	BYTE	W96
// 007   ----------------------------------------
	BYTE	W96
// 008   ----------------------------------------
	BYTE	W96
// 009   ----------------------------------------
	BYTE	W96
// 010   ----------------------------------------
	BYTE	W96
// 011   ----------------------------------------
	BYTE	W96
// 012   ----------------------------------------
	BYTE	W96
// 013   ----------------------------------------
	BYTE	W96
// 014   ----------------------------------------
	BYTE	W96
// 015   ----------------------------------------
	BYTE	W96
// 016   ----------------------------------------
	BYTE	W96
// 017   ----------------------------------------
	BYTE	W96
// 018   ----------------------------------------
	BYTE	W96
// 019   ----------------------------------------
	BYTE	W96
// 020   ----------------------------------------
	BYTE	W96
// 021   ----------------------------------------
	BYTE	W96
// 022   ----------------------------------------
gourmetrace_1_022:
	BYTE		N13     Fn1   v100
	BYTE	W21
	BYTE		N17     Cn1   v108
	BYTE	W24
	BYTE	W01
	BYTE		N13     Fn1   v100
	BYTE	W22
	BYTE		N16     Cn1   v108
	BYTE	W24
	BYTE		N17   
	BYTE	W04
	BYTE	PEND
// 023   ----------------------------------------
gourmetrace_1_023:
	BYTE	W20
	BYTE		N18     Gn0   v108
	BYTE	W24
	BYTE	W01
	BYTE		N13     Cn1 
	BYTE	W24
	BYTE		N16     Gn0 
	BYTE	W24
	BYTE	W01
	BYTE		N19   
	BYTE	W02
	BYTE	PEND
// 024   ----------------------------------------
gourmetrace_1_024:
	BYTE	W22
	BYTE		N16     Dn1   v096
	BYTE	W23
	BYTE		N19     Gn0   v108
	BYTE	W24
	BYTE	W01
	BYTE		N18     Dn1   v100
	BYTE	W24
	BYTE		N14     Cn1   v108
	BYTE	W02
	BYTE	PEND
// 025   ----------------------------------------
gourmetrace_1_025:
	BYTE	W21
	BYTE		N18     Gn0   v108
	BYTE	W24
	BYTE	W01
	BYTE		N17     Cn1   v112
	BYTE	W23
	BYTE		N18     Gn0 
	BYTE	W24
	BYTE	W03
	BYTE	PEND
// 026   ----------------------------------------
	BYTE	W96
// 027   ----------------------------------------
	BYTE	W96
// 028   ----------------------------------------
	BYTE	W96
// 029   ----------------------------------------
gourmetrace_1_029:
	BYTE	W92
	BYTE	W02
	BYTE		N14     Fn1   v108
	BYTE	W02
	BYTE	PEND
// 030   ----------------------------------------
gourmetrace_1_030:
	BYTE	W22
	BYTE		N18     Cn1   v112
	BYTE	W24
	BYTE		N15     Fn1   v100
	BYTE	W23
	BYTE		N14     Cn1   v092
	BYTE	W24
	BYTE	W01
	BYTE		N16     Cn1   v116
	BYTE	W02
	BYTE	PEND
// 031   ----------------------------------------
gourmetrace_1_031:
	BYTE	W23
	BYTE		N18     Gn0   v108
	BYTE	W23
	BYTE		N16     Cn1   v084
	BYTE	W23
	BYTE		N15     Gn0   v100
	BYTE	W24
	BYTE		N13     Gn0   v108
	BYTE	W03
	BYTE	PEND
// 032   ----------------------------------------
gourmetrace_1_032:
	BYTE	W20
	BYTE		N16     Dn0   v100
	BYTE	W23
	BYTE		N23     Gn0   v092
	BYTE	W24
	BYTE	W01
	BYTE		N20     Dn0   v084
	BYTE	W24
	BYTE	W01
	BYTE		N16     Cn1   v108
	BYTE	W03
	BYTE	PEND
// 033   ----------------------------------------
gourmetrace_1_033:
	BYTE	W20
	BYTE		N18     Gn0   v092
	BYTE	W24
	BYTE		N12     Cn1   v100
	BYTE	W24
	BYTE		N16     As0   v120
	BYTE	W24
	BYTE	W01
	BYTE		N17     Ds1   v112
	BYTE	W03
	BYTE	PEND
// 034   ----------------------------------------
gourmetrace_1_034:
	BYTE	W21
	BYTE		N17     As0   v108
	BYTE	W24
	BYTE		        Ds1   v112
	BYTE	W24
	BYTE		        As0   v108
	BYTE	W24
	BYTE		N15   
	BYTE	W03
	BYTE	PEND
// 035   ----------------------------------------
gourmetrace_1_035:
	BYTE	W20
	BYTE		N16     Fn0   v100
	BYTE	W24
	BYTE		N18     As0   v108
	BYTE	W24
	BYTE		N20     Fn0   v088
	BYTE	W24
	BYTE	W01
	BYTE		N19     Cn1   v100
	BYTE	W03
	BYTE	PEND
// 036   ----------------------------------------
gourmetrace_1_036:
	BYTE	W21
	BYTE		N21     Gn0   v100
	BYTE	W24
	BYTE	W02
	BYTE		N14     Cn1 
	BYTE	W23
	BYTE		N18     Gn0   v104
	BYTE	W24
	BYTE		N15     Gn0   v100
	BYTE	W02
	BYTE	PEND
// 037   ----------------------------------------
gourmetrace_1_037:
	BYTE	W21
	BYTE		N15     Dn0   v084
	BYTE	W24
	BYTE		N21     Gn0   v096
	BYTE	W24
	BYTE	W02
	BYTE		N16     Dn0   v108
	BYTE	W24
	BYTE		        Fn0   v104
	BYTE	W01
	BYTE	PEND
// 038   ----------------------------------------
gourmetrace_1_038:
	BYTE	W21
	BYTE		N18     Fn0   v104
	BYTE	W24
	BYTE	W01
	BYTE		N17     As0   v108
	BYTE	W24
	BYTE	W01
	BYTE		N19   
	BYTE	W24
	BYTE	W01
	BYTE	PEND
// 039   ----------------------------------------
gourmetrace_1_039:
	BYTE		N15     Ds1   v112
	BYTE	W23
	BYTE		N17     As0   v108
	BYTE	W24
	BYTE		N13     Ds1 
	BYTE	W24
	BYTE		N16     As0 
	BYTE	W22
	BYTE		N18     Bn0   v100
	BYTE	W03
	BYTE	PEND
// 040   ----------------------------------------
gourmetrace_1_040:
	BYTE	W20
	BYTE		N18     Fs0   v100
	BYTE	W24
	BYTE	W02
	BYTE		N14     Bn0 
	BYTE	W22
	BYTE		N18     Fs0 
	BYTE	W24
	BYTE		N16     As0   v092
	BYTE	W04
	BYTE	PEND
// 041   ----------------------------------------
gourmetrace_1_041:
	BYTE	W21
	BYTE		N16     Fn0   v104
	BYTE	W24
	BYTE		N15     As0   v100
	BYTE	W24
	BYTE		N17     Fn0   v076
	BYTE	W24
	BYTE	W01
	BYTE		N15     Ds1   v104
	BYTE	W02
	BYTE	PEND
// 042   ----------------------------------------
gourmetrace_1_042:
	BYTE	W21
	BYTE		N16     As0   v104
	BYTE	W24
	BYTE	W01
	BYTE		N15     Ds1   v108
	BYTE	W22
	BYTE		N17     As0 
	BYTE	W24
	BYTE	W01
	BYTE		N22   
	BYTE	W03
	BYTE	PEND
// 043   ----------------------------------------
gourmetrace_1_043:
	BYTE	W23
	BYTE		N19     Fn0   v080
	BYTE	W23
	BYTE		N16     As0   v104
	BYTE	W24
	BYTE		N14     Fn0   v092
	BYTE	W23
	BYTE		N16     Cn1   v100
	BYTE	W03
	BYTE	PEND
// 044   ----------------------------------------
gourmetrace_1_044:
	BYTE	W21
	BYTE		N18     Gn0   v104
	BYTE	W24
	BYTE		N16     Cn1   v100
	BYTE	W24
	BYTE	W01
	BYTE		N14     Gn0   v108
	BYTE	W23
	BYTE		N21     Gn0   v100
	BYTE	W03
	BYTE	PEND
// 045   ----------------------------------------
gourmetrace_1_045:
	BYTE	W22
	BYTE		N18     Dn0   v092
	BYTE	W24
	BYTE		N20     Gn0   v096
	BYTE	W24
	BYTE		N19     Dn0   v104
	BYTE	W24
	BYTE		N17     Fn0   v100
	BYTE	W02
	BYTE	PEND
// 046   ----------------------------------------
gourmetrace_1_046:
	BYTE	W22
	BYTE		N23     Fn0   v092
	BYTE	W24
	BYTE		N16     As0 
	BYTE	W23
	BYTE		N19     As0   v100
	BYTE	W24
	BYTE	W01
	BYTE		        Ds1   v108
	BYTE	W02
	BYTE	PEND
// 047   ----------------------------------------
gourmetrace_1_047:
	BYTE	W21
	BYTE		N22     As0   v092
	BYTE	W24
	BYTE	W01
	BYTE		N14     Ds1   v108
	BYTE	W24
	BYTE		N22     As0 
	BYTE	W23
	BYTE		N12     Dn0   v084
	BYTE	W03
	BYTE	PEND
// 048   ----------------------------------------
gourmetrace_1_048:
	BYTE	W10
	BYTE		N13     An0   v096
	BYTE	W12
	BYTE		N11     Dn1   v088
	BYTE	W11
	BYTE		N13     Dn0   v084
	BYTE	W13
	BYTE		N12     An0   v104
	BYTE	W12
	BYTE		        Dn1   v076
	BYTE	W13
	BYTE		N13     Dn0   v092
	BYTE	W12
	BYTE		N11     An0   v084
	BYTE	W11
	BYTE		N13     Gn0   v108
	BYTE	W02
	BYTE	PEND
// 049   ----------------------------------------
gourmetrace_1_049:
	BYTE	W10
	BYTE		N12     Dn1   v084
	BYTE	W12
	BYTE		N10     Gn1   v068
	BYTE	W12
	BYTE		        Dn1   v088
	BYTE	W12
	BYTE		N19     Gn0   v108
	BYTE	W24
	BYTE		N18     Gn0   v127
	BYTE	W24
	BYTE	W02
	BYTE	PEND
// 050   ----------------------------------------
gourmetrace_1_050:
	BYTE		N11     Fn0   v100
	BYTE	W11
	BYTE		        Fn1   v084
	BYTE	W12
	BYTE		        Fn0   v100
	BYTE	W10
	BYTE		N14     Fn1 
	BYTE	W13
	BYTE		        Gn0   v108
	BYTE	W13
	BYTE		N12     Gn1   v080
	BYTE	W12
	BYTE		        Gn0   v092
	BYTE	W12
	BYTE		N11     Gn1   v088
	BYTE	W13
	BYTE	PEND
// 051   ----------------------------------------
	BYTE	PATT
	 POIN2	gourmetrace_1_001
// 052   ----------------------------------------
	BYTE	W96
// 053   ----------------------------------------
	BYTE	W96
// 054   ----------------------------------------
	BYTE	W96
// 055   ----------------------------------------
	BYTE	W96
// 056   ----------------------------------------
	BYTE	W96
// 057   ----------------------------------------
	BYTE	W96
// 058   ----------------------------------------
	BYTE	W96
// 059   ----------------------------------------
	BYTE	W96
// 060   ----------------------------------------
	BYTE	W96
// 061   ----------------------------------------
	BYTE	W96
// 062   ----------------------------------------
	BYTE	W96
// 063   ----------------------------------------
	BYTE	W96
// 064   ----------------------------------------
	BYTE	W96
// 065   ----------------------------------------
	BYTE	W96
// 066   ----------------------------------------
	BYTE	W96
// 067   ----------------------------------------
	BYTE	W96
// 068   ----------------------------------------
	BYTE	W96
// 069   ----------------------------------------
	BYTE	W96
// 070   ----------------------------------------
	BYTE	W96
// 071   ----------------------------------------
	BYTE	W96
// 072   ----------------------------------------
	BYTE	PATT
	 POIN2	gourmetrace_1_022
// 073   ----------------------------------------
	BYTE	PATT
	 POIN2	gourmetrace_1_023
// 074   ----------------------------------------
	BYTE	PATT
	 POIN2	gourmetrace_1_024
// 075   ----------------------------------------
	BYTE	PATT
	 POIN2	gourmetrace_1_025
// 076   ----------------------------------------
	BYTE	W96
// 077   ----------------------------------------
	BYTE	W96
// 078   ----------------------------------------
	BYTE	W96
// 079   ----------------------------------------
	BYTE	PATT
	 POIN2	gourmetrace_1_029
// 080   ----------------------------------------
	BYTE	PATT
	 POIN2	gourmetrace_1_030
// 081   ----------------------------------------
	BYTE	PATT
	 POIN2	gourmetrace_1_031
// 082   ----------------------------------------
	BYTE	PATT
	 POIN2	gourmetrace_1_032
// 083   ----------------------------------------
	BYTE	PATT
	 POIN2	gourmetrace_1_033
// 084   ----------------------------------------
	BYTE	PATT
	 POIN2	gourmetrace_1_034
// 085   ----------------------------------------
	BYTE	PATT
	 POIN2	gourmetrace_1_035
// 086   ----------------------------------------
	BYTE	PATT
	 POIN2	gourmetrace_1_036
// 087   ----------------------------------------
	BYTE	PATT
	 POIN2	gourmetrace_1_037
// 088   ----------------------------------------
	BYTE	PATT
	 POIN2	gourmetrace_1_038
// 089   ----------------------------------------
	BYTE	PATT
	 POIN2	gourmetrace_1_039
// 090   ----------------------------------------
	BYTE	PATT
	 POIN2	gourmetrace_1_040
// 091   ----------------------------------------
	BYTE	PATT
	 POIN2	gourmetrace_1_041
// 092   ----------------------------------------
	BYTE	PATT
	 POIN2	gourmetrace_1_042
// 093   ----------------------------------------
	BYTE	PATT
	 POIN2	gourmetrace_1_043
// 094   ----------------------------------------
	BYTE	PATT
	 POIN2	gourmetrace_1_044
// 095   ----------------------------------------
	BYTE	PATT
	 POIN2	gourmetrace_1_045
// 096   ----------------------------------------
	BYTE	PATT
	 POIN2	gourmetrace_1_046
// 097   ----------------------------------------
	BYTE	PATT
	 POIN2	gourmetrace_1_047
// 098   ----------------------------------------
	BYTE	PATT
	 POIN2	gourmetrace_1_048
// 099   ----------------------------------------
	BYTE	PATT
	 POIN2	gourmetrace_1_049
// 100   ----------------------------------------
	BYTE	PATT
	 POIN2	gourmetrace_1_050
// 101   ----------------------------------------
	BYTE	PATT
	 POIN2	gourmetrace_1_001
// 102   ----------------------------------------
	BYTE	W96
// 103   ----------------------------------------
	BYTE	W96
// 104   ----------------------------------------
	BYTE	W96
// 105   ----------------------------------------
	BYTE	W96
// 106   ----------------------------------------
	BYTE	W96
// 107   ----------------------------------------
	BYTE	W96
// 108   ----------------------------------------
	BYTE	W96
// 109   ----------------------------------------
	BYTE	W96
// 110   ----------------------------------------
	BYTE	W96
// 111   ----------------------------------------
	BYTE	W96
// 112   ----------------------------------------
	BYTE	W96
// 113   ----------------------------------------
	BYTE	W96
// 114   ----------------------------------------
	BYTE	W96
// 115   ----------------------------------------
	BYTE	W96
// 116   ----------------------------------------
	BYTE	W96
// 117   ----------------------------------------
	BYTE	W96
// 118   ----------------------------------------
	BYTE	W96
// 119   ----------------------------------------
	BYTE	W96
// 120   ----------------------------------------
	BYTE	W96
// 121   ----------------------------------------
	BYTE	W96
// 122   ----------------------------------------
	BYTE	PATT
	 POIN2	gourmetrace_1_022
// 123   ----------------------------------------
	BYTE	PATT
	 POIN2	gourmetrace_1_023
// 124   ----------------------------------------
	BYTE	PATT
	 POIN2	gourmetrace_1_024
// 125   ----------------------------------------
	BYTE	PATT
	 POIN2	gourmetrace_1_025
// 126   ----------------------------------------
	BYTE	W96
// 127   ----------------------------------------
	BYTE	W96
// 128   ----------------------------------------
	BYTE	W96
// 129   ----------------------------------------
	BYTE	PATT
	 POIN2	gourmetrace_1_029
// 130   ----------------------------------------
	BYTE	PATT
	 POIN2	gourmetrace_1_030
// 131   ----------------------------------------
	BYTE	PATT
	 POIN2	gourmetrace_1_031
// 132   ----------------------------------------
	BYTE	PATT
	 POIN2	gourmetrace_1_032
// 133   ----------------------------------------
	BYTE	PATT
	 POIN2	gourmetrace_1_033
// 134   ----------------------------------------
	BYTE	PATT
	 POIN2	gourmetrace_1_034
// 135   ----------------------------------------
	BYTE	PATT
	 POIN2	gourmetrace_1_035
// 136   ----------------------------------------
	BYTE	PATT
	 POIN2	gourmetrace_1_036
// 137   ----------------------------------------
	BYTE	PATT
	 POIN2	gourmetrace_1_037
// 138   ----------------------------------------
	BYTE	PATT
	 POIN2	gourmetrace_1_038
// 139   ----------------------------------------
	BYTE	PATT
	 POIN2	gourmetrace_1_039
// 140   ----------------------------------------
	BYTE	PATT
	 POIN2	gourmetrace_1_040
// 141   ----------------------------------------
	BYTE	PATT
	 POIN2	gourmetrace_1_041
// 142   ----------------------------------------
	BYTE	PATT
	 POIN2	gourmetrace_1_042
// 143   ----------------------------------------
	BYTE	PATT
	 POIN2	gourmetrace_1_043
// 144   ----------------------------------------
	BYTE	PATT
	 POIN2	gourmetrace_1_044
// 145   ----------------------------------------
	BYTE	PATT
	 POIN2	gourmetrace_1_045
// 146   ----------------------------------------
	BYTE	PATT
	 POIN2	gourmetrace_1_046
// 147   ----------------------------------------
	BYTE	PATT
	 POIN2	gourmetrace_1_047
// 148   ----------------------------------------
	BYTE	PATT
	 POIN2	gourmetrace_1_048
// 149   ----------------------------------------
	BYTE	PATT
	 POIN2	gourmetrace_1_049
// 150   ----------------------------------------
	BYTE	PATT
	 POIN2	gourmetrace_1_050
// 151   ----------------------------------------
	BYTE	PATT
	 POIN2	gourmetrace_1_001
// 152   ----------------------------------------
	BYTE	W96
// 153   ----------------------------------------
	BYTE	W96
// 154   ----------------------------------------
	BYTE	W96
// 155   ----------------------------------------
	BYTE	W96
// 156   ----------------------------------------
	BYTE	W96
// 157   ----------------------------------------
	BYTE	W96
// 158   ----------------------------------------
	BYTE	W96
// 159   ----------------------------------------
	BYTE	W96
// 160   ----------------------------------------
	BYTE	W96
// 161   ----------------------------------------
	BYTE	W96
// 162   ----------------------------------------
	BYTE	W96
// 163   ----------------------------------------
	BYTE	W96
// 164   ----------------------------------------
	BYTE	W96
// 165   ----------------------------------------
	BYTE	W96
// 166   ----------------------------------------
	BYTE	W96
// 167   ----------------------------------------
	BYTE	W96
// 168   ----------------------------------------
	BYTE	W96
// 169   ----------------------------------------
	BYTE	W96
// 170   ----------------------------------------
	BYTE	W96
// 171   ----------------------------------------
	BYTE	W96
// 172   ----------------------------------------
	BYTE	PATT
	 POIN2	gourmetrace_1_022
// 173   ----------------------------------------
	BYTE	PATT
	 POIN2	gourmetrace_1_023
// 174   ----------------------------------------
	BYTE	PATT
	 POIN2	gourmetrace_1_024
// 175   ----------------------------------------
	BYTE	PATT
	 POIN2	gourmetrace_1_025
// 176   ----------------------------------------
	BYTE	W96
// 177   ----------------------------------------
	BYTE	W96
// 178   ----------------------------------------
	BYTE	W96
// 179   ----------------------------------------
	BYTE	PATT
	 POIN2	gourmetrace_1_029
// 180   ----------------------------------------
	BYTE	PATT
	 POIN2	gourmetrace_1_030
// 181   ----------------------------------------
	BYTE	PATT
	 POIN2	gourmetrace_1_031
// 182   ----------------------------------------
	BYTE	PATT
	 POIN2	gourmetrace_1_032
// 183   ----------------------------------------
	BYTE	PATT
	 POIN2	gourmetrace_1_033
// 184   ----------------------------------------
	BYTE	PATT
	 POIN2	gourmetrace_1_034
// 185   ----------------------------------------
	BYTE	PATT
	 POIN2	gourmetrace_1_035
// 186   ----------------------------------------
	BYTE	PATT
	 POIN2	gourmetrace_1_036
// 187   ----------------------------------------
	BYTE	PATT
	 POIN2	gourmetrace_1_037
// 188   ----------------------------------------
	BYTE	PATT
	 POIN2	gourmetrace_1_038
// 189   ----------------------------------------
	BYTE	PATT
	 POIN2	gourmetrace_1_039
// 190   ----------------------------------------
	BYTE	PATT
	 POIN2	gourmetrace_1_040
// 191   ----------------------------------------
	BYTE	PATT
	 POIN2	gourmetrace_1_041
// 192   ----------------------------------------
	BYTE	PATT
	 POIN2	gourmetrace_1_042
// 193   ----------------------------------------
	BYTE	PATT
	 POIN2	gourmetrace_1_043
// 194   ----------------------------------------
	BYTE	PATT
	 POIN2	gourmetrace_1_044
// 195   ----------------------------------------
	BYTE	PATT
	 POIN2	gourmetrace_1_045
// 196   ----------------------------------------
	BYTE	PATT
	 POIN2	gourmetrace_1_046
// 197   ----------------------------------------
	BYTE	PATT
	 POIN2	gourmetrace_1_047
// 198   ----------------------------------------
	BYTE	PATT
	 POIN2	gourmetrace_1_048
// 199   ----------------------------------------
	BYTE	W10
	BYTE		N12     Dn1   v084
	BYTE	W12
	BYTE		N10     Gn1   v068
	BYTE	W12
	BYTE		        Dn1   v088
	BYTE	W12
	BYTE		N19     Gn0   v108
	BYTE	W24
	BYTE		N18     Gn0   v127
	BYTE	W19
	BYTE	FINE

//**************** Track 2 (Midi-Chn.2) ****************//

gourmetrace_2:
	BYTE	KEYSH   gourmetrace_key+0
// 000   ----------------------------------------
	BYTE		VOICE   58
	BYTE		VOL     127*gourmetrace_mvl/mxv
	BYTE		PAN     c_v+0
	BYTE	W96
// 001   ----------------------------------------
	BYTE	W96
// 002   ----------------------------------------
gourmetrace_2_002:
	BYTE		N16     Cn1   v108
	BYTE	W23
	BYTE		N18     Gn0 
	BYTE	W24
	BYTE		N16     Cn1   v104
	BYTE	W23
	BYTE		N17     Gn0   v108
	BYTE	W24
	BYTE		N15     Cn1   v104
	BYTE	W02
	BYTE	PEND
// 003   ----------------------------------------
gourmetrace_2_003:
	BYTE	W21
	BYTE		N15     Gn0   v100
	BYTE	W23
	BYTE		N17     Cn1 
	BYTE	W24
	BYTE	W01
	BYTE		N16     Gn0   v104
	BYTE	W24
	BYTE		N17     Fn0   v108
	BYTE	W03
	BYTE	PEND
// 004   ----------------------------------------
gourmetrace_2_004:
	BYTE	W20
	BYTE		N18     Cn0   v100
	BYTE	W24
	BYTE	W02
	BYTE		N16     Fn0   v088
	BYTE	W24
	BYTE		        Cn0   v092
	BYTE	W23
	BYTE		N17     Cn1   v104
	BYTE	W03
	BYTE	PEND
// 005   ----------------------------------------
gourmetrace_2_005:
	BYTE	W22
	BYTE		N15     Gn0   v108
	BYTE	W24
	BYTE		N14     Cn1   v104
	BYTE	W24
	BYTE	W01
	BYTE		N15     Gn0   v108
	BYTE	W24
	BYTE		N14     Cn1   v100
	BYTE	W01
	BYTE	PEND
// 006   ----------------------------------------
gourmetrace_2_006:
	BYTE	W22
	BYTE		N14     Gn0   v104
	BYTE	W23
	BYTE		        Cn1   v100
	BYTE	W24
	BYTE	W01
	BYTE		        Gn0   v108
	BYTE	W24
	BYTE	W01
	BYTE		N13     Cn1   v104
	BYTE	W01
	BYTE	PEND
// 007   ----------------------------------------
gourmetrace_2_007:
	BYTE	W24
	BYTE		N14     Gn0   v100
	BYTE	W22
	BYTE		N13     Cn1   v088
	BYTE	W24
	BYTE	W01
	BYTE		        Gn0   v100
	BYTE	W22
	BYTE		N16     Fn0   v104
	BYTE	W03
	BYTE	PEND
// 008   ----------------------------------------
gourmetrace_2_008:
	BYTE	W22
	BYTE		N17     Fn1   v088
	BYTE	W24
	BYTE		        Gn1 
	BYTE	W24
	BYTE	W01
	BYTE		N16     Gn0   v108
	BYTE	W23
	BYTE		N18     Cn1   v100
	BYTE	W02
	BYTE	PEND
// 009   ----------------------------------------
gourmetrace_2_009:
	BYTE	W22
	BYTE		N18     Gn0   v104
	BYTE	W24
	BYTE	W01
	BYTE		N15     Cn1   v100
	BYTE	W23
	BYTE		N14     Gn0   v108
	BYTE	W23
	BYTE		N15     Cn1   v100
	BYTE	W03
	BYTE	PEND
// 010   ----------------------------------------
gourmetrace_2_010:
	BYTE	W21
	BYTE		N16     Gn0   v100
	BYTE	W24
	BYTE		        Cn1   v096
	BYTE	W24
	BYTE		N15     Gn0   v104
	BYTE	W24
	BYTE		N16     Cn1   v100
	BYTE	W03
	BYTE	PEND
// 011   ----------------------------------------
gourmetrace_2_011:
	BYTE	W22
	BYTE		N16     Gn0   v100
	BYTE	W23
	BYTE		N15     Cn1   v092
	BYTE	W24
	BYTE	W01
	BYTE		N16     Gn0 
	BYTE	W23
	BYTE		N15     Fn0   v108
	BYTE	W03
	BYTE	PEND
// 012   ----------------------------------------
gourmetrace_2_012:
	BYTE	W21
	BYTE		N15     Cn1   v096
	BYTE	W23
	BYTE		N17     Fn0 
	BYTE	W24
	BYTE		N16     Cn1   v092
	BYTE	W24
	BYTE	W01
	BYTE		        Cn1   v100
	BYTE	W03
	BYTE	PEND
// 013   ----------------------------------------
gourmetrace_2_013:
	BYTE	W21
	BYTE		N15     Gn0   v104
	BYTE	W24
	BYTE	W01
	BYTE		N14     Cn1   v096
	BYTE	W24
	BYTE		        Gn0   v108
	BYTE	W24
	BYTE	W02
	BYTE	PEND
// 014   ----------------------------------------
gourmetrace_2_014:
	BYTE		N14     Cn1   v100
	BYTE	W24
	BYTE		N12     Gn0   v108
	BYTE	W22
	BYTE		N13     Cn1   v100
	BYTE	W23
	BYTE		        Gn0   v104
	BYTE	W24
	BYTE		N14     Fn0   v076
	BYTE	W03
	BYTE	PEND
// 015   ----------------------------------------
gourmetrace_2_015:
	BYTE	W20
	BYTE		N13     Cn0   v100
	BYTE	W24
	BYTE		N14     Fn0 
	BYTE	W24
	BYTE		N17     Cn0 
	BYTE	W24
	BYTE	W01
	BYTE		N18     Fn0 
	BYTE		N18     Gn0 
	BYTE	W03
	BYTE	PEND
// 016   ----------------------------------------
gourmetrace_2_016:
	BYTE	W21
	BYTE		N14     Fn1   v072
	BYTE	W23
	BYTE		N16     Gn1   v068
	BYTE	W24
	BYTE		N18     Gn0   v104
	BYTE	W24
	BYTE	W01
	BYTE		N15     Cn1   v096
	BYTE	W03
	BYTE	PEND
// 017   ----------------------------------------
gourmetrace_2_017:
	BYTE	W22
	BYTE		N18     Gn0   v100
	BYTE	W24
	BYTE		N17     Cn1   v096
	BYTE	W22
	BYTE		        Gn0   v100
	BYTE	W24
	BYTE	W01
	BYTE		N18     Fn0 
	BYTE		N19     Fn1   v072
	BYTE	W03
	BYTE	PEND
// 018   ----------------------------------------
gourmetrace_2_018:
	BYTE	W21
	BYTE		N17     Fn0   v084
	BYTE		N19     Fn1   v072
	BYTE	W24
	BYTE		N16     Gs0   v100
	BYTE		N16     Gs1   v080
	BYTE	W24
	BYTE		N18     Cn1   v076
	BYTE	W01
	BYTE		N15     Cn2   v068
	BYTE	W24
	BYTE		N17     Ds1   v072
	BYTE		N17     Ds2   v084
	BYTE	W02
	BYTE	PEND
// 019   ----------------------------------------
gourmetrace_2_019:
	BYTE	W21
	BYTE		N17     Dn1   v072
	BYTE		N19     Dn2   v076
	BYTE	W24
	BYTE		N18     Cn2   v080
	BYTE	W01
	BYTE		N16     Cn1 
	BYTE	W22
	BYTE		N18     Gn1   v084
	BYTE	W01
	BYTE		        Gn0   v076
	BYTE	W24
	BYTE		N16     Fn0   v080
	BYTE		N15     Fn1   v076
	BYTE	W03
	BYTE	PEND
// 020   ----------------------------------------
gourmetrace_2_020:
	BYTE	W20
	BYTE		N16     Fn0   v080
	BYTE	W01
	BYTE		N17     Fn1   v076
	BYTE	W24
	BYTE		N15     Gs0   v068
	BYTE		N16     Gs1   v092
	BYTE	W24
	BYTE		N18     Cn1   v072
	BYTE		N16     Cn2   v076
	BYTE	W24
	BYTE	W01
	BYTE		        Ds1   v080
	BYTE		N15     Ds2   v084
	BYTE	W02
	BYTE	PEND
// 021   ----------------------------------------
gourmetrace_2_021:
	BYTE	W22
	BYTE		N15     Fn2   v068
	BYTE	W01
	BYTE		N13     Fn1   v076
	BYTE	W22
	BYTE		N36     Gn2   v072
	BYTE	W01
	BYTE		        Gn1   v104
	BYTE	W48
	BYTE	W02
	BYTE	PEND
// 022   ----------------------------------------
	BYTE	W96
// 023   ----------------------------------------
	BYTE	W96
// 024   ----------------------------------------
	BYTE	W96
// 025   ----------------------------------------
	BYTE	W96
// 026   ----------------------------------------
gourmetrace_2_026:
	BYTE		N16     Fn0   v088
	BYTE		N18     Fn1 
	BYTE	W22
	BYTE		N17     Fn0   v076
	BYTE		N18     Fn1   v072
	BYTE	W24
	BYTE		N17     Gs0   v080
	BYTE		N16     Gs1   v076
	BYTE	W23
	BYTE		        Cn1 
	BYTE		N17     Cn2 
	BYTE	W24
	BYTE	W01
	BYTE		        Ds1   v072
	BYTE		N17     Ds2   v100
	BYTE	W02
	BYTE	PEND
// 027   ----------------------------------------
gourmetrace_2_027:
	BYTE	W21
	BYTE		N18     Dn1   v068
	BYTE		N18     Dn2   v080
	BYTE	W24
	BYTE		N15     Cn2 
	BYTE	W01
	BYTE		N20     Cn1   v084
	BYTE	W23
	BYTE		N15     Gn0 
	BYTE		N16     Gn1   v092
	BYTE	W24
	BYTE		        Fn0   v076
	BYTE		N19     Fn1   v072
	BYTE	W03
	BYTE	PEND
// 028   ----------------------------------------
gourmetrace_2_028:
	BYTE	W21
	BYTE		N17     Fn0   v080
	BYTE		N19     Fn1 
	BYTE	W24
	BYTE		        Gs0   v076
	BYTE		N16     Gs1   v100
	BYTE	W23
	BYTE		N20     Cn1   v080
	BYTE		N17     Cn2   v076
	BYTE	W24
	BYTE	W02
	BYTE		        Ds1   v092
	BYTE		N15     Ds2   v088
	BYTE	W02
	BYTE	PEND
// 029   ----------------------------------------
gourmetrace_2_029:
	BYTE	W21
	BYTE		N15     Fn1   v080
	BYTE		N16     Fn2   v068
	BYTE	W24
	BYTE		N36     Gn2 
	BYTE	W01
	BYTE		        Gn1   v108
	BYTE	W48
	BYTE	W02
	BYTE	PEND
// 030   ----------------------------------------
	BYTE	W96
// 031   ----------------------------------------
	BYTE	W96
// 032   ----------------------------------------
	BYTE	W96
// 033   ----------------------------------------
	BYTE	W96
// 034   ----------------------------------------
	BYTE	W96
// 035   ----------------------------------------
	BYTE	W96
// 036   ----------------------------------------
	BYTE	W96
// 037   ----------------------------------------
	BYTE	W96
// 038   ----------------------------------------
	BYTE	W96
// 039   ----------------------------------------
	BYTE	W96
// 040   ----------------------------------------
	BYTE	W96
// 041   ----------------------------------------
	BYTE	W96
// 042   ----------------------------------------
	BYTE	W96
// 043   ----------------------------------------
	BYTE	W96
// 044   ----------------------------------------
	BYTE	W96
// 045   ----------------------------------------
	BYTE	W96
// 046   ----------------------------------------
	BYTE	W96
// 047   ----------------------------------------
	BYTE	W96
// 048   ----------------------------------------
	BYTE	W96
// 049   ----------------------------------------
	BYTE	W96
// 050   ----------------------------------------
	BYTE	W96
// 051   ----------------------------------------
	BYTE	W96
// 052   ----------------------------------------
	BYTE	PATT
	 POIN2	gourmetrace_2_002
// 053   ----------------------------------------
	BYTE	PATT
	 POIN2	gourmetrace_2_003
// 054   ----------------------------------------
	BYTE	PATT
	 POIN2	gourmetrace_2_004
// 055   ----------------------------------------
	BYTE	PATT
	 POIN2	gourmetrace_2_005
// 056   ----------------------------------------
	BYTE	PATT
	 POIN2	gourmetrace_2_006
// 057   ----------------------------------------
	BYTE	PATT
	 POIN2	gourmetrace_2_007
// 058   ----------------------------------------
	BYTE	PATT
	 POIN2	gourmetrace_2_008
// 059   ----------------------------------------
	BYTE	PATT
	 POIN2	gourmetrace_2_009
// 060   ----------------------------------------
	BYTE	PATT
	 POIN2	gourmetrace_2_010
// 061   ----------------------------------------
	BYTE	PATT
	 POIN2	gourmetrace_2_011
// 062   ----------------------------------------
	BYTE	PATT
	 POIN2	gourmetrace_2_012
// 063   ----------------------------------------
	BYTE	PATT
	 POIN2	gourmetrace_2_013
// 064   ----------------------------------------
	BYTE	PATT
	 POIN2	gourmetrace_2_014
// 065   ----------------------------------------
	BYTE	PATT
	 POIN2	gourmetrace_2_015
// 066   ----------------------------------------
	BYTE	PATT
	 POIN2	gourmetrace_2_016
// 067   ----------------------------------------
	BYTE	PATT
	 POIN2	gourmetrace_2_017
// 068   ----------------------------------------
	BYTE	PATT
	 POIN2	gourmetrace_2_018
// 069   ----------------------------------------
	BYTE	PATT
	 POIN2	gourmetrace_2_019
// 070   ----------------------------------------
	BYTE	PATT
	 POIN2	gourmetrace_2_020
// 071   ----------------------------------------
	BYTE	PATT
	 POIN2	gourmetrace_2_021
// 072   ----------------------------------------
	BYTE	W96
// 073   ----------------------------------------
	BYTE	W96
// 074   ----------------------------------------
	BYTE	W96
// 075   ----------------------------------------
	BYTE	W96
// 076   ----------------------------------------
	BYTE	PATT
	 POIN2	gourmetrace_2_026
// 077   ----------------------------------------
	BYTE	PATT
	 POIN2	gourmetrace_2_027
// 078   ----------------------------------------
	BYTE	PATT
	 POIN2	gourmetrace_2_028
// 079   ----------------------------------------
	BYTE	PATT
	 POIN2	gourmetrace_2_029
// 080   ----------------------------------------
	BYTE	W96
// 081   ----------------------------------------
	BYTE	W96
// 082   ----------------------------------------
	BYTE	W96
// 083   ----------------------------------------
	BYTE	W96
// 084   ----------------------------------------
	BYTE	W96
// 085   ----------------------------------------
	BYTE	W96
// 086   ----------------------------------------
	BYTE	W96
// 087   ----------------------------------------
	BYTE	W96
// 088   ----------------------------------------
	BYTE	W96
// 089   ----------------------------------------
	BYTE	W96
// 090   ----------------------------------------
	BYTE	W96
// 091   ----------------------------------------
	BYTE	W96
// 092   ----------------------------------------
	BYTE	W96
// 093   ----------------------------------------
	BYTE	W96
// 094   ----------------------------------------
	BYTE	W96
// 095   ----------------------------------------
	BYTE	W96
// 096   ----------------------------------------
	BYTE	W96
// 097   ----------------------------------------
	BYTE	W96
// 098   ----------------------------------------
	BYTE	W96
// 099   ----------------------------------------
	BYTE	W96
// 100   ----------------------------------------
	BYTE	W96
// 101   ----------------------------------------
	BYTE	W96
// 102   ----------------------------------------
	BYTE	PATT
	 POIN2	gourmetrace_2_002
// 103   ----------------------------------------
	BYTE	PATT
	 POIN2	gourmetrace_2_003
// 104   ----------------------------------------
	BYTE	PATT
	 POIN2	gourmetrace_2_004
// 105   ----------------------------------------
	BYTE	PATT
	 POIN2	gourmetrace_2_005
// 106   ----------------------------------------
	BYTE	PATT
	 POIN2	gourmetrace_2_006
// 107   ----------------------------------------
	BYTE	PATT
	 POIN2	gourmetrace_2_007
// 108   ----------------------------------------
	BYTE	PATT
	 POIN2	gourmetrace_2_008
// 109   ----------------------------------------
	BYTE	PATT
	 POIN2	gourmetrace_2_009
// 110   ----------------------------------------
	BYTE	PATT
	 POIN2	gourmetrace_2_010
// 111   ----------------------------------------
	BYTE	PATT
	 POIN2	gourmetrace_2_011
// 112   ----------------------------------------
	BYTE	PATT
	 POIN2	gourmetrace_2_012
// 113   ----------------------------------------
	BYTE	PATT
	 POIN2	gourmetrace_2_013
// 114   ----------------------------------------
	BYTE	PATT
	 POIN2	gourmetrace_2_014
// 115   ----------------------------------------
	BYTE	PATT
	 POIN2	gourmetrace_2_015
// 116   ----------------------------------------
	BYTE	PATT
	 POIN2	gourmetrace_2_016
// 117   ----------------------------------------
	BYTE	PATT
	 POIN2	gourmetrace_2_017
// 118   ----------------------------------------
	BYTE	PATT
	 POIN2	gourmetrace_2_018
// 119   ----------------------------------------
	BYTE	PATT
	 POIN2	gourmetrace_2_019
// 120   ----------------------------------------
	BYTE	PATT
	 POIN2	gourmetrace_2_020
// 121   ----------------------------------------
	BYTE	PATT
	 POIN2	gourmetrace_2_021
// 122   ----------------------------------------
	BYTE	W96
// 123   ----------------------------------------
	BYTE	W96
// 124   ----------------------------------------
	BYTE	W96
// 125   ----------------------------------------
	BYTE	W96
// 126   ----------------------------------------
	BYTE	PATT
	 POIN2	gourmetrace_2_026
// 127   ----------------------------------------
	BYTE	PATT
	 POIN2	gourmetrace_2_027
// 128   ----------------------------------------
	BYTE	PATT
	 POIN2	gourmetrace_2_028
// 129   ----------------------------------------
	BYTE	PATT
	 POIN2	gourmetrace_2_029
// 130   ----------------------------------------
	BYTE	W96
// 131   ----------------------------------------
	BYTE	W96
// 132   ----------------------------------------
	BYTE	W96
// 133   ----------------------------------------
	BYTE	W96
// 134   ----------------------------------------
	BYTE	W96
// 135   ----------------------------------------
	BYTE	W96
// 136   ----------------------------------------
	BYTE	W96
// 137   ----------------------------------------
	BYTE	W96
// 138   ----------------------------------------
	BYTE	W96
// 139   ----------------------------------------
	BYTE	W96
// 140   ----------------------------------------
	BYTE	W96
// 141   ----------------------------------------
	BYTE	W96
// 142   ----------------------------------------
	BYTE	W96
// 143   ----------------------------------------
	BYTE	W96
// 144   ----------------------------------------
	BYTE	W96
// 145   ----------------------------------------
	BYTE	W96
// 146   ----------------------------------------
	BYTE	W96
// 147   ----------------------------------------
	BYTE	W96
// 148   ----------------------------------------
	BYTE	W96
// 149   ----------------------------------------
	BYTE	W96
// 150   ----------------------------------------
	BYTE	W96
// 151   ----------------------------------------
	BYTE	W96
// 152   ----------------------------------------
	BYTE	PATT
	 POIN2	gourmetrace_2_002
// 153   ----------------------------------------
	BYTE	PATT
	 POIN2	gourmetrace_2_003
// 154   ----------------------------------------
	BYTE	PATT
	 POIN2	gourmetrace_2_004
// 155   ----------------------------------------
	BYTE	PATT
	 POIN2	gourmetrace_2_005
// 156   ----------------------------------------
	BYTE	PATT
	 POIN2	gourmetrace_2_006
// 157   ----------------------------------------
	BYTE	PATT
	 POIN2	gourmetrace_2_007
// 158   ----------------------------------------
	BYTE	PATT
	 POIN2	gourmetrace_2_008
// 159   ----------------------------------------
	BYTE	PATT
	 POIN2	gourmetrace_2_009
// 160   ----------------------------------------
	BYTE	PATT
	 POIN2	gourmetrace_2_010
// 161   ----------------------------------------
	BYTE	PATT
	 POIN2	gourmetrace_2_011
// 162   ----------------------------------------
	BYTE	PATT
	 POIN2	gourmetrace_2_012
// 163   ----------------------------------------
	BYTE	PATT
	 POIN2	gourmetrace_2_013
// 164   ----------------------------------------
	BYTE	PATT
	 POIN2	gourmetrace_2_014
// 165   ----------------------------------------
	BYTE	PATT
	 POIN2	gourmetrace_2_015
// 166   ----------------------------------------
	BYTE	PATT
	 POIN2	gourmetrace_2_016
// 167   ----------------------------------------
	BYTE	PATT
	 POIN2	gourmetrace_2_017
// 168   ----------------------------------------
	BYTE	PATT
	 POIN2	gourmetrace_2_018
// 169   ----------------------------------------
	BYTE	PATT
	 POIN2	gourmetrace_2_019
// 170   ----------------------------------------
	BYTE	PATT
	 POIN2	gourmetrace_2_020
// 171   ----------------------------------------
	BYTE	PATT
	 POIN2	gourmetrace_2_021
// 172   ----------------------------------------
	BYTE	W96
// 173   ----------------------------------------
	BYTE	W96
// 174   ----------------------------------------
	BYTE	W96
// 175   ----------------------------------------
	BYTE	W96
// 176   ----------------------------------------
	BYTE	PATT
	 POIN2	gourmetrace_2_026
// 177   ----------------------------------------
	BYTE	PATT
	 POIN2	gourmetrace_2_027
// 178   ----------------------------------------
	BYTE	PATT
	 POIN2	gourmetrace_2_028
// 179   ----------------------------------------
	BYTE	W21
	BYTE		N15     Fn1   v080
	BYTE		N16     Fn2   v068
	BYTE	W24
	BYTE		N36     Gn2 
	BYTE	W01
	BYTE		        Gn1   v108
	BYTE	W36
	BYTE	W01
	BYTE	FINE

//**************** Track 3 (Midi-Chn.3) ****************//

gourmetrace_3:
	BYTE	KEYSH   gourmetrace_key+0
// 000   ----------------------------------------
	BYTE		VOICE   73
	BYTE		VOL     127*gourmetrace_mvl/mxv
	BYTE		PAN     c_v+0
	BYTE	W96
// 001   ----------------------------------------
	BYTE	W96
// 002   ----------------------------------------
gourmetrace_3_002:
	BYTE		N36     Cn5   v100
	BYTE	W48
	BYTE		N32     Gn4 
	BYTE	W44
	BYTE	W02
	BYTE		N20     Ds4   v116
	BYTE	W02
	BYTE	PEND
// 003   ----------------------------------------
gourmetrace_3_003:
	BYTE	W22
	BYTE		N20     Dn4   v084
	BYTE	W24
	BYTE		N36     Cn4   v104
	BYTE	W48
	BYTE	W01
	BYTE		N17     Cn4   v108
	BYTE	W01
	BYTE	PEND
// 004   ----------------------------------------
gourmetrace_3_004:
	BYTE	W21
	BYTE		N19     Dn4   v108
	BYTE	W24
	BYTE		N20     Ds4   v100
	BYTE	W24
	BYTE		N19     Cn4   v072
	BYTE	W24
	BYTE	W01
	BYTE		        As3   v108
	BYTE	W02
	BYTE	PEND
// 005   ----------------------------------------
gourmetrace_3_005:
	BYTE	W21
	BYTE		N21     Cn4   v084
	BYTE	W24
	BYTE	W01
	BYTE		N40     Gn3   v108
	BYTE	W48
	BYTE		N42     Cn5   v096
	BYTE	W02
	BYTE	PEND
// 006   ----------------------------------------
gourmetrace_3_006:
	BYTE	W44
	BYTE	W02
	BYTE		N42     Gn4   v108
	BYTE	W44
	BYTE	W03
	BYTE		N24     Ds4   v100
	BYTE	W03
	BYTE	PEND
// 007   ----------------------------------------
gourmetrace_3_007:
	BYTE	W21
	BYTE		N20     Dn4   v100
	BYTE	W24
	BYTE		N18     Cn4   v108
	BYTE	W24
	BYTE		N12     Cn4   v100
	BYTE	W11
	BYTE		N13     Dn4   v092
	BYTE	W12
	BYTE		N19     Ds4   v088
	BYTE	W04
	BYTE	PEND
// 008   ----------------------------------------
gourmetrace_3_008:
	BYTE	W20
	BYTE		N17     Fn4   v088
	BYTE	W23
	BYTE		N23     Dn4   v100
	BYTE	W24
	BYTE	W02
	BYTE		N20     As3   v112
	BYTE	W24
	BYTE	W01
	BYTE		N19     Cn4   v108
	BYTE	W02
	BYTE	PEND
// 009   ----------------------------------------
gourmetrace_3_009:
	BYTE	W21
	BYTE		N20     Gn3   v108
	BYTE	W24
	BYTE	W01
	BYTE		N30     Cn4   v116
	BYTE	W48
	BYTE	W02
	BYTE	PEND
// 010   ----------------------------------------
	BYTE	W96
// 011   ----------------------------------------
	BYTE	W96
// 012   ----------------------------------------
	BYTE	W96
// 013   ----------------------------------------
	BYTE	W96
// 014   ----------------------------------------
	BYTE	W96
// 015   ----------------------------------------
	BYTE	W96
// 016   ----------------------------------------
	BYTE	W96
// 017   ----------------------------------------
	BYTE	W96
// 018   ----------------------------------------
	BYTE	W96
// 019   ----------------------------------------
	BYTE	W96
// 020   ----------------------------------------
	BYTE	W96
// 021   ----------------------------------------
	BYTE	W96
// 022   ----------------------------------------
	BYTE	W96
// 023   ----------------------------------------
	BYTE	W96
// 024   ----------------------------------------
	BYTE	W96
// 025   ----------------------------------------
	BYTE	W96
// 026   ----------------------------------------
	BYTE	W96
// 027   ----------------------------------------
	BYTE	W96
// 028   ----------------------------------------
	BYTE	W96
// 029   ----------------------------------------
	BYTE	W96
// 030   ----------------------------------------
	BYTE	W96
// 031   ----------------------------------------
	BYTE	W96
// 032   ----------------------------------------
	BYTE	W96
// 033   ----------------------------------------
gourmetrace_3_033:
	BYTE	W92
	BYTE	W01
	BYTE		N05     Ds4   v116
	BYTE	W03
	BYTE	PEND
// 034   ----------------------------------------
gourmetrace_3_034:
	BYTE	W07
	BYTE		N02     Ds4   v084
	BYTE	W06
	BYTE		N03     Ds4   v088
	BYTE	W05
	BYTE		N14     Ds4   v080
	BYTE	W12
	BYTE		N12     Fn4 
	BYTE	W15
	BYTE		N06     Gn4   v088
	BYTE	W10
	BYTE		N03     Gn4   v076
	BYTE	W06
	BYTE		N08     Gn4   v084
	BYTE	W08
	BYTE		N12     Fn4   v076
	BYTE	W12
	BYTE		N10     Ds4   v108
	BYTE	W11
	BYTE		N06     Dn4   v092
	BYTE	W04
	BYTE	PEND
// 035   ----------------------------------------
gourmetrace_3_035:
	BYTE	W06
	BYTE		N03     Dn4   v080
	BYTE	W07
	BYTE		N04     Dn4   v084
	BYTE	W06
	BYTE		N12     Dn4   v080
	BYTE	W12
	BYTE		N13     Ds4   v096
	BYTE	W12
	BYTE		N30     Dn4   v104
	BYTE	W36
	BYTE	W02
	BYTE		N07     Ds4 
	BYTE	W05
	BYTE		N06     Dn4 
	BYTE	W07
	BYTE		N05     Cn4   v092
	BYTE	W03
	BYTE	PEND
// 036   ----------------------------------------
gourmetrace_3_036:
	BYTE	W08
	BYTE		N03     Cn4   v084
	BYTE	W06
	BYTE		        Cn4   v076
	BYTE	W06
	BYTE		N14     Cn4   v080
	BYTE	W13
	BYTE		N11     Dn4   v100
	BYTE	W13
	BYTE		N06     Ds4 
	BYTE	W11
	BYTE		N03   
	BYTE	W06
	BYTE		N07     Ds4   v092
	BYTE	W07
	BYTE		N11     Dn4   v108
	BYTE	W12
	BYTE		        Cn4   v088
	BYTE	W12
	BYTE		N06     As3   v100
	BYTE	W02
	BYTE	PEND
// 037   ----------------------------------------
gourmetrace_3_037:
	BYTE	W10
	BYTE		N02     As3   v100
	BYTE	W06
	BYTE		        As3   v108
	BYTE	W06
	BYTE		N06     As3   v100
	BYTE	W11
	BYTE		N11     Cn4   v096
	BYTE	W12
	BYTE		N28     Dn4   v088
	BYTE	W36
	BYTE	W01
	BYTE		N05     Cn4   v104
	BYTE	W06
	BYTE		N06     As3   v084
	BYTE	W07
	BYTE		N05     Gs3   v108
	BYTE	W01
	BYTE	PEND
// 038   ----------------------------------------
gourmetrace_3_038:
	BYTE	W09
	BYTE		N02     Gs3   v096
	BYTE	W07
	BYTE		        Gs3   v108
	BYTE	W05
	BYTE		N11   
	BYTE	W13
	BYTE		        As3 
	BYTE	W12
	BYTE		N05     Cn4   v096
	BYTE	W12
	BYTE		N02     Cn4   v084
	BYTE	W06
	BYTE		N04     Cn4   v088
	BYTE	W06
	BYTE		N12     As3   v108
	BYTE	W11
	BYTE		N07     Gs3   v100
	BYTE	W11
	BYTE		N04     Gn3   v080
	BYTE	W04
	BYTE	PEND
// 039   ----------------------------------------
gourmetrace_3_039:
	BYTE	W08
	BYTE		N06     Gn3   v048
	BYTE	W07
	BYTE		        As3   v108
	BYTE	W06
	BYTE		N08     Ds4 
	BYTE	W12
	BYTE		        Fn4   v096
	BYTE	W13
	BYTE		N24     Ds4   v108
	BYTE	W24
	BYTE	W01
	BYTE		N19     As3 
	BYTE	W22
	BYTE		N07     Ds4   v120
	BYTE	W03
	BYTE	PEND
// 040   ----------------------------------------
gourmetrace_3_040:
	BYTE	W09
	BYTE		N03     Ds4   v100
	BYTE	W06
	BYTE		        Ds4   v084
	BYTE	W06
	BYTE		N09     Ds4   v080
	BYTE	W11
	BYTE		N10     Fn4   v076
	BYTE	W13
	BYTE		N05     Fs4   v104
	BYTE	W10
	BYTE		N02     Fs4   v084
	BYTE	W07
	BYTE		N06   
	BYTE	W06
	BYTE		N10     Gs4   v076
	BYTE	W12
	BYTE		N07     Fs4   v100
	BYTE	W13
	BYTE		N04     Fn4   v104
	BYTE	W03
	BYTE	PEND
// 041   ----------------------------------------
gourmetrace_3_041:
	BYTE	W08
	BYTE		N03     Fn4   v100
	BYTE	W06
	BYTE		N03   
	BYTE	W06
	BYTE		N09     Fn4   v104
	BYTE	W12
	BYTE		N07     Fs4   v108
	BYTE	W13
	BYTE		N32     Fn4 
	BYTE	W48
	BYTE	W03
	BYTE	PEND
// 042   ----------------------------------------
	BYTE	W96
// 043   ----------------------------------------
	BYTE	W96
// 044   ----------------------------------------
	BYTE	W96
// 045   ----------------------------------------
	BYTE	W96
// 046   ----------------------------------------
	BYTE	W96
// 047   ----------------------------------------
	BYTE	W96
// 048   ----------------------------------------
	BYTE	W96
// 049   ----------------------------------------
	BYTE	W96
// 050   ----------------------------------------
	BYTE	W96
// 051   ----------------------------------------
	BYTE	W96
// 052   ----------------------------------------
	BYTE	PATT
	 POIN2	gourmetrace_3_002
// 053   ----------------------------------------
	BYTE	PATT
	 POIN2	gourmetrace_3_003
// 054   ----------------------------------------
	BYTE	PATT
	 POIN2	gourmetrace_3_004
// 055   ----------------------------------------
	BYTE	PATT
	 POIN2	gourmetrace_3_005
// 056   ----------------------------------------
	BYTE	PATT
	 POIN2	gourmetrace_3_006
// 057   ----------------------------------------
	BYTE	PATT
	 POIN2	gourmetrace_3_007
// 058   ----------------------------------------
	BYTE	PATT
	 POIN2	gourmetrace_3_008
// 059   ----------------------------------------
	BYTE	PATT
	 POIN2	gourmetrace_3_009
// 060   ----------------------------------------
	BYTE	W96
// 061   ----------------------------------------
	BYTE	W96
// 062   ----------------------------------------
	BYTE	W96
// 063   ----------------------------------------
	BYTE	W96
// 064   ----------------------------------------
	BYTE	W96
// 065   ----------------------------------------
	BYTE	W96
// 066   ----------------------------------------
	BYTE	W96
// 067   ----------------------------------------
	BYTE	W96
// 068   ----------------------------------------
	BYTE	W96
// 069   ----------------------------------------
	BYTE	W96
// 070   ----------------------------------------
	BYTE	W96
// 071   ----------------------------------------
	BYTE	W96
// 072   ----------------------------------------
	BYTE	W96
// 073   ----------------------------------------
	BYTE	W96
// 074   ----------------------------------------
	BYTE	W96
// 075   ----------------------------------------
	BYTE	W96
// 076   ----------------------------------------
	BYTE	W96
// 077   ----------------------------------------
	BYTE	W96
// 078   ----------------------------------------
	BYTE	W96
// 079   ----------------------------------------
	BYTE	W96
// 080   ----------------------------------------
	BYTE	W96
// 081   ----------------------------------------
	BYTE	W96
// 082   ----------------------------------------
	BYTE	W96
// 083   ----------------------------------------
	BYTE	PATT
	 POIN2	gourmetrace_3_033
// 084   ----------------------------------------
	BYTE	PATT
	 POIN2	gourmetrace_3_034
// 085   ----------------------------------------
	BYTE	PATT
	 POIN2	gourmetrace_3_035
// 086   ----------------------------------------
	BYTE	PATT
	 POIN2	gourmetrace_3_036
// 087   ----------------------------------------
	BYTE	PATT
	 POIN2	gourmetrace_3_037
// 088   ----------------------------------------
	BYTE	PATT
	 POIN2	gourmetrace_3_038
// 089   ----------------------------------------
	BYTE	PATT
	 POIN2	gourmetrace_3_039
// 090   ----------------------------------------
	BYTE	PATT
	 POIN2	gourmetrace_3_040
// 091   ----------------------------------------
	BYTE	PATT
	 POIN2	gourmetrace_3_041
// 092   ----------------------------------------
	BYTE	W96
// 093   ----------------------------------------
	BYTE	W96
// 094   ----------------------------------------
	BYTE	W96
// 095   ----------------------------------------
	BYTE	W96
// 096   ----------------------------------------
	BYTE	W96
// 097   ----------------------------------------
	BYTE	W96
// 098   ----------------------------------------
	BYTE	W96
// 099   ----------------------------------------
	BYTE	W96
// 100   ----------------------------------------
	BYTE	W96
// 101   ----------------------------------------
	BYTE	W96
// 102   ----------------------------------------
	BYTE	PATT
	 POIN2	gourmetrace_3_002
// 103   ----------------------------------------
	BYTE	PATT
	 POIN2	gourmetrace_3_003
// 104   ----------------------------------------
	BYTE	PATT
	 POIN2	gourmetrace_3_004
// 105   ----------------------------------------
	BYTE	PATT
	 POIN2	gourmetrace_3_005
// 106   ----------------------------------------
	BYTE	PATT
	 POIN2	gourmetrace_3_006
// 107   ----------------------------------------
	BYTE	PATT
	 POIN2	gourmetrace_3_007
// 108   ----------------------------------------
	BYTE	PATT
	 POIN2	gourmetrace_3_008
// 109   ----------------------------------------
	BYTE	PATT
	 POIN2	gourmetrace_3_009
// 110   ----------------------------------------
	BYTE	W96
// 111   ----------------------------------------
	BYTE	W96
// 112   ----------------------------------------
	BYTE	W96
// 113   ----------------------------------------
	BYTE	W96
// 114   ----------------------------------------
	BYTE	W96
// 115   ----------------------------------------
	BYTE	W96
// 116   ----------------------------------------
	BYTE	W96
// 117   ----------------------------------------
	BYTE	W96
// 118   ----------------------------------------
	BYTE	W96
// 119   ----------------------------------------
	BYTE	W96
// 120   ----------------------------------------
	BYTE	W96
// 121   ----------------------------------------
	BYTE	W96
// 122   ----------------------------------------
	BYTE	W96
// 123   ----------------------------------------
	BYTE	W96
// 124   ----------------------------------------
	BYTE	W96
// 125   ----------------------------------------
	BYTE	W96
// 126   ----------------------------------------
	BYTE	W96
// 127   ----------------------------------------
	BYTE	W96
// 128   ----------------------------------------
	BYTE	W96
// 129   ----------------------------------------
	BYTE	W96
// 130   ----------------------------------------
	BYTE	W96
// 131   ----------------------------------------
	BYTE	W96
// 132   ----------------------------------------
	BYTE	W96
// 133   ----------------------------------------
	BYTE	PATT
	 POIN2	gourmetrace_3_033
// 134   ----------------------------------------
	BYTE	PATT
	 POIN2	gourmetrace_3_034
// 135   ----------------------------------------
	BYTE	PATT
	 POIN2	gourmetrace_3_035
// 136   ----------------------------------------
	BYTE	PATT
	 POIN2	gourmetrace_3_036
// 137   ----------------------------------------
	BYTE	PATT
	 POIN2	gourmetrace_3_037
// 138   ----------------------------------------
	BYTE	PATT
	 POIN2	gourmetrace_3_038
// 139   ----------------------------------------
	BYTE	PATT
	 POIN2	gourmetrace_3_039
// 140   ----------------------------------------
	BYTE	PATT
	 POIN2	gourmetrace_3_040
// 141   ----------------------------------------
	BYTE	PATT
	 POIN2	gourmetrace_3_041
// 142   ----------------------------------------
	BYTE	W96
// 143   ----------------------------------------
	BYTE	W96
// 144   ----------------------------------------
	BYTE	W96
// 145   ----------------------------------------
	BYTE	W96
// 146   ----------------------------------------
	BYTE	W96
// 147   ----------------------------------------
	BYTE	W96
// 148   ----------------------------------------
	BYTE	W96
// 149   ----------------------------------------
	BYTE	W96
// 150   ----------------------------------------
	BYTE	W96
// 151   ----------------------------------------
	BYTE	W96
// 152   ----------------------------------------
	BYTE	PATT
	 POIN2	gourmetrace_3_002
// 153   ----------------------------------------
	BYTE	PATT
	 POIN2	gourmetrace_3_003
// 154   ----------------------------------------
	BYTE	PATT
	 POIN2	gourmetrace_3_004
// 155   ----------------------------------------
	BYTE	PATT
	 POIN2	gourmetrace_3_005
// 156   ----------------------------------------
	BYTE	PATT
	 POIN2	gourmetrace_3_006
// 157   ----------------------------------------
	BYTE	PATT
	 POIN2	gourmetrace_3_007
// 158   ----------------------------------------
	BYTE	PATT
	 POIN2	gourmetrace_3_008
// 159   ----------------------------------------
	BYTE	PATT
	 POIN2	gourmetrace_3_009
// 160   ----------------------------------------
	BYTE	W96
// 161   ----------------------------------------
	BYTE	W96
// 162   ----------------------------------------
	BYTE	W96
// 163   ----------------------------------------
	BYTE	W96
// 164   ----------------------------------------
	BYTE	W96
// 165   ----------------------------------------
	BYTE	W96
// 166   ----------------------------------------
	BYTE	W96
// 167   ----------------------------------------
	BYTE	W96
// 168   ----------------------------------------
	BYTE	W96
// 169   ----------------------------------------
	BYTE	W96
// 170   ----------------------------------------
	BYTE	W96
// 171   ----------------------------------------
	BYTE	W96
// 172   ----------------------------------------
	BYTE	W96
// 173   ----------------------------------------
	BYTE	W96
// 174   ----------------------------------------
	BYTE	W96
// 175   ----------------------------------------
	BYTE	W96
// 176   ----------------------------------------
	BYTE	W96
// 177   ----------------------------------------
	BYTE	W96
// 178   ----------------------------------------
	BYTE	W96
// 179   ----------------------------------------
	BYTE	W96
// 180   ----------------------------------------
	BYTE	W96
// 181   ----------------------------------------
	BYTE	W96
// 182   ----------------------------------------
	BYTE	W96
// 183   ----------------------------------------
	BYTE	PATT
	 POIN2	gourmetrace_3_033
// 184   ----------------------------------------
	BYTE	PATT
	 POIN2	gourmetrace_3_034
// 185   ----------------------------------------
	BYTE	PATT
	 POIN2	gourmetrace_3_035
// 186   ----------------------------------------
	BYTE	PATT
	 POIN2	gourmetrace_3_036
// 187   ----------------------------------------
	BYTE	PATT
	 POIN2	gourmetrace_3_037
// 188   ----------------------------------------
	BYTE	PATT
	 POIN2	gourmetrace_3_038
// 189   ----------------------------------------
	BYTE	PATT
	 POIN2	gourmetrace_3_039
// 190   ----------------------------------------
	BYTE	PATT
	 POIN2	gourmetrace_3_040
// 191   ----------------------------------------
	BYTE	W08
	BYTE		N03     Fn4   v100
	BYTE	W06
	BYTE		N03   
	BYTE	W06
	BYTE		N09     Fn4   v104
	BYTE	W12
	BYTE		N07     Fs4   v108
	BYTE	W13
	BYTE		N32     Fn4 
	BYTE	W32
	BYTE	FINE

//**************** Track 4 (Midi-Chn.4) ****************//

gourmetrace_4:
	BYTE	KEYSH   gourmetrace_key+0
// 000   ----------------------------------------
	BYTE		VOICE   56
	BYTE		VOL     127*gourmetrace_mvl/mxv
	BYTE		PAN     c_v+0
	BYTE		N23     Gn4   v100
	BYTE	W22
	BYTE		N12     Fn4   v080
	BYTE	W11
	BYTE		        Ds4   v092
	BYTE	W12
	BYTE		N13     Dn4   v084
	BYTE	W11
	BYTE		        As3   v076
	BYTE	W12
	BYTE		N24     Gn3   v100
	BYTE	W24
	BYTE	W03
	BYTE		N13     Cn4   v104
	BYTE	W01
// 001   ----------------------------------------
gourmetrace_4_001:
	BYTE	W10
	BYTE		N12     Dn4   v076
	BYTE	W11
	BYTE		N14     Ds4   v084
	BYTE	W12
	BYTE		N12     Fn4   v080
	BYTE	W12
	BYTE		N15     Dn4   v092
	BYTE	W48
	BYTE	W03
	BYTE	PEND
// 002   ----------------------------------------
	BYTE	W96
// 003   ----------------------------------------
	BYTE	W96
// 004   ----------------------------------------
	BYTE	W96
// 005   ----------------------------------------
	BYTE	W96
// 006   ----------------------------------------
	BYTE	W96
// 007   ----------------------------------------
	BYTE	W96
// 008   ----------------------------------------
	BYTE	W96
// 009   ----------------------------------------
	BYTE	W96
// 010   ----------------------------------------
gourmetrace_4_010:
	BYTE		N40     Cn5   v100
	BYTE	W44
	BYTE	W03
	BYTE		N36     Gn4   v108
	BYTE	W44
	BYTE	W03
	BYTE		N22     Ds4   v116
	BYTE	W02
	BYTE	PEND
// 011   ----------------------------------------
gourmetrace_4_011:
	BYTE	W22
	BYTE		N24     Dn4   v064
	BYTE	W24
	BYTE		N36     Cn4   v108
	BYTE	W44
	BYTE	W03
	BYTE		N22     Cn4   v100
	BYTE	W03
	BYTE	PEND
// 012   ----------------------------------------
gourmetrace_4_012:
	BYTE	W21
	BYTE		N24     Dn4   v100
	BYTE	W24
	BYTE		N23     Ds4   v080
	BYTE	W24
	BYTE		        Cn4   v088
	BYTE	W24
	BYTE		N21     As3   v100
	BYTE	W03
	BYTE	PEND
// 013   ----------------------------------------
gourmetrace_4_013:
	BYTE	W20
	BYTE		N24     Cn4   v084
	BYTE	W24
	BYTE	W02
	BYTE		N36     Gn3   v092
	BYTE	W48
	BYTE	W01
	BYTE		N48     Cn5   v084
	BYTE	W01
	BYTE	PEND
// 014   ----------------------------------------
gourmetrace_4_014:
	BYTE	W48
	BYTE		N36     Gn4   v080
	BYTE	W44
	BYTE		N21     Ds4   v100
	BYTE	W04
	BYTE	PEND
// 015   ----------------------------------------
gourmetrace_4_015:
	BYTE	W18
	BYTE		N24     Fn4   v084
	BYTE	W24
	BYTE	W01
	BYTE		        Gn4   v076
	BYTE	W24
	BYTE	W01
	BYTE		        Cn4   v084
	BYTE	W24
	BYTE		N22     Dn4   v080
	BYTE	W04
	BYTE	PEND
// 016   ----------------------------------------
gourmetrace_4_016:
	BYTE	W19
	BYTE		N24     Fn4   v076
	BYTE	W24
	BYTE	W01
	BYTE		        Dn4 
	BYTE	W23
	BYTE		        As3   v092
	BYTE	W24
	BYTE	W02
	BYTE		N92     Cn4 
	BYTE	W03
	BYTE	PEND
// 017   ----------------------------------------
	BYTE	W96
// 018   ----------------------------------------
	BYTE	W96
// 019   ----------------------------------------
	BYTE	W96
// 020   ----------------------------------------
	BYTE	W96
// 021   ----------------------------------------
gourmetrace_4_021:
	BYTE	W92
	BYTE	W02
	BYTE		N32     Gs4   v112
	BYTE	W02
	BYTE	PEND
// 022   ----------------------------------------
gourmetrace_4_022:
	BYTE	W32
	BYTE	W01
	BYTE		N11     Gn4   v088
	BYTE	W13
	BYTE		N17     Fn4   v100
	BYTE	W22
	BYTE		N09     Ds4   v108
	BYTE	W11
	BYTE		N10     Fn4   v100
	BYTE	W13
	BYTE		N12     Gn4 
	BYTE	W04
	BYTE	PEND
// 023   ----------------------------------------
gourmetrace_4_023:
	BYTE	W19
	BYTE		N17     Cn4   v092
	BYTE	W24
	BYTE	W01
	BYTE		N40     Gn4   v108
	BYTE	W48
	BYTE	W02
	BYTE		N13     Fn4   v092
	BYTE	W02
	BYTE	PEND
// 024   ----------------------------------------
gourmetrace_4_024:
	BYTE	W14
	BYTE		N03     Fn4   v080
	BYTE	W06
	BYTE		N10     Fn4   v088
	BYTE	W13
	BYTE		N08     Ds4   v080
	BYTE	W13
	BYTE		N17     Dn4   v108
	BYTE	W22
	BYTE		N09     Ds4 
	BYTE	W12
	BYTE		N10     Fn4   v088
	BYTE	W13
	BYTE		N19     Ds4   v104
	BYTE	W03
	BYTE	PEND
// 025   ----------------------------------------
gourmetrace_4_025:
	BYTE	W22
	BYTE		N18     Fn4   v092
	BYTE	W23
	BYTE		N16     Gn4   v108
	BYTE	W23
	BYTE		N24     Ds4   v124
	BYTE	W28
	BYTE	PEND
// 026   ----------------------------------------
	BYTE	W96
// 027   ----------------------------------------
	BYTE	W96
// 028   ----------------------------------------
	BYTE	W96
// 029   ----------------------------------------
gourmetrace_4_029:
	BYTE	W92
	BYTE	W03
	BYTE		N32     Gs4   v124
	BYTE	W01
	BYTE	PEND
// 030   ----------------------------------------
gourmetrace_4_030:
	BYTE	W32
	BYTE	W02
	BYTE		N10     Gn4   v076
	BYTE	W13
	BYTE		N18     Fn4   v104
	BYTE	W22
	BYTE		N13     Gs4   v108
	BYTE	W11
	BYTE		N11     As4   v076
	BYTE	W11
	BYTE		N22     Cn5   v084
	BYTE	W05
	BYTE	PEND
// 031   ----------------------------------------
gourmetrace_4_031:
	BYTE	W20
	BYTE		N20     Gn4   v104
	BYTE	W24
	BYTE	W02
	BYTE		N18     Ds4   v108
	BYTE	W24
	BYTE		N21     Cn4   v100
	BYTE	W24
	BYTE	W01
	BYTE		N16     Dn4   v108
	BYTE	W01
	BYTE	PEND
// 032   ----------------------------------------
gourmetrace_4_032:
	BYTE	W16
	BYTE		N04     As3   v104
	BYTE	W05
	BYTE		N12     Dn4   v100
	BYTE	W12
	BYTE		N11     Fn4   v108
	BYTE	W12
	BYTE		N18     Dn4 
	BYTE	W18
	BYTE		N04     As3   v100
	BYTE	W03
	BYTE		N13     Gn3   v092
	BYTE	W14
	BYTE		N12     As3   v108
	BYTE	W13
	BYTE		N56     Cn4 
	BYTE	W03
	BYTE	PEND
// 033   ----------------------------------------
	BYTE	W68
	BYTE		N21     As3 
	BYTE	W28
// 034   ----------------------------------------
	BYTE	W96
// 035   ----------------------------------------
	BYTE	W96
// 036   ----------------------------------------
	BYTE	W96
// 037   ----------------------------------------
	BYTE	W96
// 038   ----------------------------------------
	BYTE	W96
// 039   ----------------------------------------
	BYTE	W96
// 040   ----------------------------------------
	BYTE	W96
// 041   ----------------------------------------
gourmetrace_4_041:
	BYTE	W80
	BYTE	W03
	BYTE		N06     Gn4   v108
	BYTE	W05
	BYTE		N07     Fn4   v092
	BYTE	W06
	BYTE		        Ds4   v084
	BYTE	W02
	BYTE	PEND
// 042   ----------------------------------------
gourmetrace_4_042:
	BYTE	W09
	BYTE		N02     Ds4   v096
	BYTE	W07
	BYTE		        Ds4   v100
	BYTE	W06
	BYTE		N10   
	BYTE	W11
	BYTE		N11     Fn4 
	BYTE	W11
	BYTE		N06     Gn4   v092
	BYTE	W12
	BYTE		N03     Gn4   v084
	BYTE	W06
	BYTE		N06     Gn4   v080
	BYTE	W05
	BYTE		N14     Fn4   v104
	BYTE	W13
	BYTE		N11     Ds4   v100
	BYTE	W12
	BYTE		N05     Dn4   v108
	BYTE	W04
	BYTE	PEND
// 043   ----------------------------------------
gourmetrace_4_043:
	BYTE	W07
	BYTE		N02     Dn4   v096
	BYTE	W07
	BYTE		        Dn4   v100
	BYTE	W05
	BYTE		N12     Dn4   v104
	BYTE	W14
	BYTE		N14     Ds4   v088
	BYTE	W13
	BYTE		N30     Dn4   v104
	BYTE	W36
	BYTE	W01
	BYTE		N06     Ds4   v088
	BYTE	W05
	BYTE		        Dn4   v084
	BYTE	W06
	BYTE		N07     Cn4   v092
	BYTE	W02
	BYTE	PEND
// 044   ----------------------------------------
gourmetrace_4_044:
	BYTE	W09
	BYTE		N03     Cn4   v060
	BYTE	W07
	BYTE		        Cn4   v080
	BYTE	W05
	BYTE		N11     Cn4   v076
	BYTE	W12
	BYTE		N12     Dn4   v084
	BYTE	W12
	BYTE		N05     Ds4   v088
	BYTE	W11
	BYTE		N02   
	BYTE	W05
	BYTE		N07     Ds4   v084
	BYTE	W06
	BYTE		N12     Dn4   v100
	BYTE	W14
	BYTE		N13     Cn4 
	BYTE	W12
	BYTE		N07     As3   v120
	BYTE	W03
	BYTE	PEND
// 045   ----------------------------------------
gourmetrace_4_045:
	BYTE	W08
	BYTE		N03     As3   v092
	BYTE	W07
	BYTE		N02     As3   v108
	BYTE	W06
	BYTE		N12   
	BYTE	W13
	BYTE		N11     Cn4   v100
	BYTE	W12
	BYTE		N24     Dn4   v108
	BYTE	W36
	BYTE		N06     Cn4 
	BYTE	W05
	BYTE		        As3   v084
	BYTE	W06
	BYTE		N04     Gs3   v108
	BYTE	W03
	BYTE	PEND
// 046   ----------------------------------------
gourmetrace_4_046:
	BYTE	W08
	BYTE		N03     Gs3   v092
	BYTE	W07
	BYTE		        Gs3   v108
	BYTE	W06
	BYTE		N10     Gs3   v112
	BYTE	W11
	BYTE		        As3   v108
	BYTE	W12
	BYTE		N05     Cn4   v100
	BYTE	W12
	BYTE		N03     Cn4   v060
	BYTE	W06
	BYTE		N07     Cn4   v088
	BYTE	W06
	BYTE		N13     Dn4   v104
	BYTE	W12
	BYTE		N12     Fn4   v084
	BYTE	W12
	BYTE		N05     Gn4   v080
	BYTE	W04
	BYTE	PEND
// 047   ----------------------------------------
gourmetrace_4_047:
	BYTE	W07
	BYTE		N02     Gn4   v084
	BYTE	W06
	BYTE		N03     Gn4   v080
	BYTE	W06
	BYTE		N12   
	BYTE	W13
	BYTE		N11     As4   v072
	BYTE	W12
	BYTE		N06     Gn4   v100
	BYTE	W11
	BYTE		N12     Gn4   v084
	BYTE	W13
	BYTE		        Fn4   v092
	BYTE	W12
	BYTE		        Ds4   v080
	BYTE	W13
	BYTE		N11     Dn4   v100
	BYTE	W03
	BYTE	PEND
// 048   ----------------------------------------
gourmetrace_4_048:
	BYTE	W08
	BYTE		N13     Fn4   v092
	BYTE	W12
	BYTE		N11     Gn4   v080
	BYTE	W12
	BYTE		N13     Dn4   v108
	BYTE	W12
	BYTE		N11     Fn4   v084
	BYTE	W10
	BYTE		N12     Gn4   v064
	BYTE	W14
	BYTE		N11     Dn4   v104
	BYTE	W11
	BYTE		N12     Fn4   v084
	BYTE	W14
	BYTE		N11     Dn4   v112
	BYTE	W03
	BYTE	PEND
// 049   ----------------------------------------
gourmetrace_4_049:
	BYTE	W09
	BYTE		N13     Fn4   v092
	BYTE	W12
	BYTE		N14     Gn4   v104
	BYTE	W13
	BYTE		N13     Cn5   v072
	BYTE	W13
	BYTE		N10     Bn4   v104
	BYTE	W24
	BYTE		N05     Gn3   v100
	BYTE	W05
	BYTE		N03     An3   v056
	BYTE	W03
	BYTE		N02     Bn3   v064
	BYTE	W02
	BYTE		        Cn4   v076
	BYTE	W01
	BYTE		        Dn4   v088
	BYTE	W02
	BYTE		N01     En4   v084
	BYTE	W01
	BYTE		        Fn4 
	BYTE	W11
	BYTE	PEND
// 050   ----------------------------------------
gourmetrace_4_050:
	BYTE		N23     Gn4   v100
	BYTE	W22
	BYTE		N12     Fn4   v080
	BYTE	W11
	BYTE		        Ds4   v092
	BYTE	W12
	BYTE		N13     Dn4   v084
	BYTE	W11
	BYTE		        As3   v076
	BYTE	W12
	BYTE		N24     Gn3   v100
	BYTE	W24
	BYTE	W03
	BYTE		N13     Cn4   v104
	BYTE	W01
	BYTE	PEND
// 051   ----------------------------------------
	BYTE	PATT
	 POIN2	gourmetrace_4_001
// 052   ----------------------------------------
	BYTE	W96
// 053   ----------------------------------------
	BYTE	W96
// 054   ----------------------------------------
	BYTE	W96
// 055   ----------------------------------------
	BYTE	W96
// 056   ----------------------------------------
	BYTE	W96
// 057   ----------------------------------------
	BYTE	W96
// 058   ----------------------------------------
	BYTE	W96
// 059   ----------------------------------------
	BYTE	W96
// 060   ----------------------------------------
	BYTE	PATT
	 POIN2	gourmetrace_4_010
// 061   ----------------------------------------
	BYTE	PATT
	 POIN2	gourmetrace_4_011
// 062   ----------------------------------------
	BYTE	PATT
	 POIN2	gourmetrace_4_012
// 063   ----------------------------------------
	BYTE	PATT
	 POIN2	gourmetrace_4_013
// 064   ----------------------------------------
	BYTE	PATT
	 POIN2	gourmetrace_4_014
// 065   ----------------------------------------
	BYTE	PATT
	 POIN2	gourmetrace_4_015
// 066   ----------------------------------------
	BYTE	PATT
	 POIN2	gourmetrace_4_016
// 067   ----------------------------------------
	BYTE	W96
// 068   ----------------------------------------
	BYTE	W96
// 069   ----------------------------------------
	BYTE	W96
// 070   ----------------------------------------
	BYTE	W96
// 071   ----------------------------------------
	BYTE	PATT
	 POIN2	gourmetrace_4_021
// 072   ----------------------------------------
	BYTE	PATT
	 POIN2	gourmetrace_4_022
// 073   ----------------------------------------
	BYTE	PATT
	 POIN2	gourmetrace_4_023
// 074   ----------------------------------------
	BYTE	PATT
	 POIN2	gourmetrace_4_024
// 075   ----------------------------------------
	BYTE	PATT
	 POIN2	gourmetrace_4_025
// 076   ----------------------------------------
	BYTE	W96
// 077   ----------------------------------------
	BYTE	W96
// 078   ----------------------------------------
	BYTE	W96
// 079   ----------------------------------------
	BYTE	PATT
	 POIN2	gourmetrace_4_029
// 080   ----------------------------------------
	BYTE	PATT
	 POIN2	gourmetrace_4_030
// 081   ----------------------------------------
	BYTE	PATT
	 POIN2	gourmetrace_4_031
// 082   ----------------------------------------
	BYTE	PATT
	 POIN2	gourmetrace_4_032
// 083   ----------------------------------------
	BYTE	W68
	BYTE		N21     As3   v108
	BYTE	W28
// 084   ----------------------------------------
	BYTE	W96
// 085   ----------------------------------------
	BYTE	W96
// 086   ----------------------------------------
	BYTE	W96
// 087   ----------------------------------------
	BYTE	W96
// 088   ----------------------------------------
	BYTE	W96
// 089   ----------------------------------------
	BYTE	W96
// 090   ----------------------------------------
	BYTE	W96
// 091   ----------------------------------------
	BYTE	PATT
	 POIN2	gourmetrace_4_041
// 092   ----------------------------------------
	BYTE	PATT
	 POIN2	gourmetrace_4_042
// 093   ----------------------------------------
	BYTE	PATT
	 POIN2	gourmetrace_4_043
// 094   ----------------------------------------
	BYTE	PATT
	 POIN2	gourmetrace_4_044
// 095   ----------------------------------------
	BYTE	PATT
	 POIN2	gourmetrace_4_045
// 096   ----------------------------------------
	BYTE	PATT
	 POIN2	gourmetrace_4_046
// 097   ----------------------------------------
	BYTE	PATT
	 POIN2	gourmetrace_4_047
// 098   ----------------------------------------
	BYTE	PATT
	 POIN2	gourmetrace_4_048
// 099   ----------------------------------------
	BYTE	PATT
	 POIN2	gourmetrace_4_049
// 100   ----------------------------------------
	BYTE	PATT
	 POIN2	gourmetrace_4_050
// 101   ----------------------------------------
	BYTE	PATT
	 POIN2	gourmetrace_4_001
// 102   ----------------------------------------
	BYTE	W96
// 103   ----------------------------------------
	BYTE	W96
// 104   ----------------------------------------
	BYTE	W96
// 105   ----------------------------------------
	BYTE	W96
// 106   ----------------------------------------
	BYTE	W96
// 107   ----------------------------------------
	BYTE	W96
// 108   ----------------------------------------
	BYTE	W96
// 109   ----------------------------------------
	BYTE	W96
// 110   ----------------------------------------
	BYTE	PATT
	 POIN2	gourmetrace_4_010
// 111   ----------------------------------------
	BYTE	PATT
	 POIN2	gourmetrace_4_011
// 112   ----------------------------------------
	BYTE	PATT
	 POIN2	gourmetrace_4_012
// 113   ----------------------------------------
	BYTE	PATT
	 POIN2	gourmetrace_4_013
// 114   ----------------------------------------
	BYTE	PATT
	 POIN2	gourmetrace_4_014
// 115   ----------------------------------------
	BYTE	PATT
	 POIN2	gourmetrace_4_015
// 116   ----------------------------------------
	BYTE	PATT
	 POIN2	gourmetrace_4_016
// 117   ----------------------------------------
	BYTE	W96
// 118   ----------------------------------------
	BYTE	W96
// 119   ----------------------------------------
	BYTE	W96
// 120   ----------------------------------------
	BYTE	W96
// 121   ----------------------------------------
	BYTE	PATT
	 POIN2	gourmetrace_4_021
// 122   ----------------------------------------
	BYTE	PATT
	 POIN2	gourmetrace_4_022
// 123   ----------------------------------------
	BYTE	PATT
	 POIN2	gourmetrace_4_023
// 124   ----------------------------------------
	BYTE	PATT
	 POIN2	gourmetrace_4_024
// 125   ----------------------------------------
	BYTE	PATT
	 POIN2	gourmetrace_4_025
// 126   ----------------------------------------
	BYTE	W96
// 127   ----------------------------------------
	BYTE	W96
// 128   ----------------------------------------
	BYTE	W96
// 129   ----------------------------------------
	BYTE	PATT
	 POIN2	gourmetrace_4_029
// 130   ----------------------------------------
	BYTE	PATT
	 POIN2	gourmetrace_4_030
// 131   ----------------------------------------
	BYTE	PATT
	 POIN2	gourmetrace_4_031
// 132   ----------------------------------------
	BYTE	PATT
	 POIN2	gourmetrace_4_032
// 133   ----------------------------------------
	BYTE	W68
	BYTE		N21     As3   v108
	BYTE	W28
// 134   ----------------------------------------
	BYTE	W96
// 135   ----------------------------------------
	BYTE	W96
// 136   ----------------------------------------
	BYTE	W96
// 137   ----------------------------------------
	BYTE	W96
// 138   ----------------------------------------
	BYTE	W96
// 139   ----------------------------------------
	BYTE	W96
// 140   ----------------------------------------
	BYTE	W96
// 141   ----------------------------------------
	BYTE	PATT
	 POIN2	gourmetrace_4_041
// 142   ----------------------------------------
	BYTE	PATT
	 POIN2	gourmetrace_4_042
// 143   ----------------------------------------
	BYTE	PATT
	 POIN2	gourmetrace_4_043
// 144   ----------------------------------------
	BYTE	PATT
	 POIN2	gourmetrace_4_044
// 145   ----------------------------------------
	BYTE	PATT
	 POIN2	gourmetrace_4_045
// 146   ----------------------------------------
	BYTE	PATT
	 POIN2	gourmetrace_4_046
// 147   ----------------------------------------
	BYTE	PATT
	 POIN2	gourmetrace_4_047
// 148   ----------------------------------------
	BYTE	PATT
	 POIN2	gourmetrace_4_048
// 149   ----------------------------------------
	BYTE	PATT
	 POIN2	gourmetrace_4_049
// 150   ----------------------------------------
	BYTE	PATT
	 POIN2	gourmetrace_4_050
// 151   ----------------------------------------
	BYTE	PATT
	 POIN2	gourmetrace_4_001
// 152   ----------------------------------------
	BYTE	W96
// 153   ----------------------------------------
	BYTE	W96
// 154   ----------------------------------------
	BYTE	W96
// 155   ----------------------------------------
	BYTE	W96
// 156   ----------------------------------------
	BYTE	W96
// 157   ----------------------------------------
	BYTE	W96
// 158   ----------------------------------------
	BYTE	W96
// 159   ----------------------------------------
	BYTE	W96
// 160   ----------------------------------------
	BYTE	PATT
	 POIN2	gourmetrace_4_010
// 161   ----------------------------------------
	BYTE	PATT
	 POIN2	gourmetrace_4_011
// 162   ----------------------------------------
	BYTE	PATT
	 POIN2	gourmetrace_4_012
// 163   ----------------------------------------
	BYTE	PATT
	 POIN2	gourmetrace_4_013
// 164   ----------------------------------------
	BYTE	PATT
	 POIN2	gourmetrace_4_014
// 165   ----------------------------------------
	BYTE	PATT
	 POIN2	gourmetrace_4_015
// 166   ----------------------------------------
	BYTE	PATT
	 POIN2	gourmetrace_4_016
// 167   ----------------------------------------
	BYTE	W96
// 168   ----------------------------------------
	BYTE	W96
// 169   ----------------------------------------
	BYTE	W96
// 170   ----------------------------------------
	BYTE	W96
// 171   ----------------------------------------
	BYTE	PATT
	 POIN2	gourmetrace_4_021
// 172   ----------------------------------------
	BYTE	PATT
	 POIN2	gourmetrace_4_022
// 173   ----------------------------------------
	BYTE	PATT
	 POIN2	gourmetrace_4_023
// 174   ----------------------------------------
	BYTE	PATT
	 POIN2	gourmetrace_4_024
// 175   ----------------------------------------
	BYTE	PATT
	 POIN2	gourmetrace_4_025
// 176   ----------------------------------------
	BYTE	W96
// 177   ----------------------------------------
	BYTE	W96
// 178   ----------------------------------------
	BYTE	W96
// 179   ----------------------------------------
	BYTE	PATT
	 POIN2	gourmetrace_4_029
// 180   ----------------------------------------
	BYTE	PATT
	 POIN2	gourmetrace_4_030
// 181   ----------------------------------------
	BYTE	PATT
	 POIN2	gourmetrace_4_031
// 182   ----------------------------------------
	BYTE	PATT
	 POIN2	gourmetrace_4_032
// 183   ----------------------------------------
	BYTE	W68
	BYTE		N21     As3   v108
	BYTE	W28
// 184   ----------------------------------------
	BYTE	W96
// 185   ----------------------------------------
	BYTE	W96
// 186   ----------------------------------------
	BYTE	W96
// 187   ----------------------------------------
	BYTE	W96
// 188   ----------------------------------------
	BYTE	W96
// 189   ----------------------------------------
	BYTE	W96
// 190   ----------------------------------------
	BYTE	W96
// 191   ----------------------------------------
	BYTE	PATT
	 POIN2	gourmetrace_4_041
// 192   ----------------------------------------
	BYTE	PATT
	 POIN2	gourmetrace_4_042
// 193   ----------------------------------------
	BYTE	PATT
	 POIN2	gourmetrace_4_043
// 194   ----------------------------------------
	BYTE	PATT
	 POIN2	gourmetrace_4_044
// 195   ----------------------------------------
	BYTE	PATT
	 POIN2	gourmetrace_4_045
// 196   ----------------------------------------
	BYTE	PATT
	 POIN2	gourmetrace_4_046
// 197   ----------------------------------------
	BYTE	PATT
	 POIN2	gourmetrace_4_047
// 198   ----------------------------------------
	BYTE	PATT
	 POIN2	gourmetrace_4_048
// 199   ----------------------------------------
	BYTE	W09
	BYTE		N13     Fn4   v092
	BYTE	W12
	BYTE		N14     Gn4   v104
	BYTE	W13
	BYTE		N13     Cn5   v072
	BYTE	W13
	BYTE		N10     Bn4   v104
	BYTE	W24
	BYTE		N05     Gn3   v100
	BYTE	W05
	BYTE		N03     An3   v056
	BYTE	W03
	BYTE		N02     Bn3   v064
	BYTE	W02
	BYTE		        Cn4   v076
	BYTE	W01
	BYTE		        Dn4   v088
	BYTE	W02
	BYTE		N01     En4   v084
	BYTE	W01
	BYTE		        Fn4 
	BYTE	W02
	BYTE	FINE

//**************** Track 5 (Midi-Chn.4) ****************//

gourmetrace_5:
	BYTE	KEYSH   gourmetrace_key+0
// 000   ----------------------------------------
	BYTE		VOICE   56
	BYTE		VOL     127*gourmetrace_mvl/mxv
	BYTE		PAN     c_v+0
	BYTE		N21     Ds4   v100
	BYTE	W20
	BYTE		N12     Dn4   v084
	BYTE	W12
	BYTE		N07     Cn4   v108
	BYTE	W13
	BYTE		N11     As3 
	BYTE	W10
	BYTE		N12     Fn3   v092
	BYTE	W14
	BYTE		N22     Dn3   v108
	BYTE	W24
	BYTE	W01
	BYTE		N13     Gs3 
	BYTE	W02
// 001   ----------------------------------------
gourmetrace_5_001:
	BYTE	W09
	BYTE		N12     As3   v080
	BYTE	W12
	BYTE		N11     Cn4   v088
	BYTE	W11
	BYTE		N12     Dn4   v084
	BYTE	W12
	BYTE		N20     Bn3   v108
	BYTE	W52
	BYTE	PEND
// 002   ----------------------------------------
	BYTE	W96
// 003   ----------------------------------------
	BYTE	W96
// 004   ----------------------------------------
	BYTE	W96
// 005   ----------------------------------------
	BYTE	W96
// 006   ----------------------------------------
	BYTE	W96
// 007   ----------------------------------------
	BYTE	W96
// 008   ----------------------------------------
	BYTE	W96
// 009   ----------------------------------------
	BYTE	W96
// 010   ----------------------------------------
	BYTE	W96
// 011   ----------------------------------------
	BYTE	W96
// 012   ----------------------------------------
	BYTE	W96
// 013   ----------------------------------------
	BYTE	W96
// 014   ----------------------------------------
	BYTE	W96
// 015   ----------------------------------------
	BYTE	W96
// 016   ----------------------------------------
	BYTE	W96
// 017   ----------------------------------------
	BYTE	W96
// 018   ----------------------------------------
	BYTE	W96
// 019   ----------------------------------------
	BYTE	W96
// 020   ----------------------------------------
	BYTE	W96
// 021   ----------------------------------------
gourmetrace_5_021:
	BYTE	W92
	BYTE	W01
	BYTE		N32     Fn4   v108
	BYTE	W03
	BYTE	PEND
// 022   ----------------------------------------
gourmetrace_5_022:
	BYTE	W32
	BYTE		N12     Ds4   v104
	BYTE	W12
	BYTE		N16     Dn4   v100
	BYTE	W22
	BYTE		N09     Cn4 
	BYTE	W11
	BYTE		N11     Dn4 
	BYTE	W14
	BYTE		N16     Ds4   v116
	BYTE	W05
	BYTE	PEND
// 023   ----------------------------------------
gourmetrace_5_023:
	BYTE	W18
	BYTE		N17     Gn3   v104
	BYTE	W24
	BYTE		N36     Ds4   v120
	BYTE	W52
	BYTE		N11     Dn4   v108
	BYTE	W02
	BYTE	PEND
// 024   ----------------------------------------
gourmetrace_5_024:
	BYTE	W14
	BYTE		N03     Dn4   v080
	BYTE	W06
	BYTE		N11     Dn4   v100
	BYTE	W13
	BYTE		N09     Cn4   v108
	BYTE	W12
	BYTE		N18     As3 
	BYTE	W24
	BYTE		N08     Cn4 
	BYTE	W11
	BYTE		N09     Dn4   v100
	BYTE	W12
	BYTE		N15     Cn4   v108
	BYTE	W04
	BYTE	PEND
// 025   ----------------------------------------
gourmetrace_5_025:
	BYTE	W19
	BYTE		N17     Dn4   v108
	BYTE	W24
	BYTE		N18     Ds4   v120
	BYTE	W24
	BYTE	W01
	BYTE		N21     Cn4   v116
	BYTE	W28
	BYTE	PEND
// 026   ----------------------------------------
	BYTE	W96
// 027   ----------------------------------------
	BYTE	W96
// 028   ----------------------------------------
	BYTE	W96
// 029   ----------------------------------------
gourmetrace_5_029:
	BYTE	W92
	BYTE	W03
	BYTE		N32     Fn4   v127
	BYTE	W01
	BYTE	PEND
// 030   ----------------------------------------
gourmetrace_5_030:
	BYTE	W32
	BYTE		N11     Ds4   v104
	BYTE	W12
	BYTE		N10     Dn4   v088
	BYTE	W14
	BYTE		N11     Dn4   v092
	BYTE	W12
	BYTE		N09     Ds4 
	BYTE	W09
	BYTE		N13     Fn4   v080
	BYTE	W13
	BYTE		N20     Gn4   v104
	BYTE	W04
	BYTE	PEND
// 031   ----------------------------------------
gourmetrace_5_031:
	BYTE	W20
	BYTE		N17     Ds4   v108
	BYTE	W24
	BYTE		N18     Cn4   v100
	BYTE	W24
	BYTE	W01
	BYTE		        Gn3   v108
	BYTE	W24
	BYTE	W01
	BYTE		N08     As3 
	BYTE	W02
	BYTE	PEND
// 032   ----------------------------------------
gourmetrace_5_032:
	BYTE	W14
	BYTE		N02     As3   v104
	BYTE	W07
	BYTE		N09     As3   v108
	BYTE	W11
	BYTE		        Dn4   v092
	BYTE	W11
	BYTE		N15     As3   v104
	BYTE	W18
	BYTE		N06     Fn3   v084
	BYTE	W06
	BYTE		N11     Dn3   v104
	BYTE	W12
	BYTE		        Fn3   v112
	BYTE	W12
	BYTE		N56     Gn3   v104
	BYTE	W05
	BYTE	PEND
// 033   ----------------------------------------
	BYTE	W96
// 034   ----------------------------------------
	BYTE	W96
// 035   ----------------------------------------
	BYTE	W96
// 036   ----------------------------------------
	BYTE	W96
// 037   ----------------------------------------
	BYTE	W96
// 038   ----------------------------------------
	BYTE	W96
// 039   ----------------------------------------
	BYTE	W96
// 040   ----------------------------------------
	BYTE	W96
// 041   ----------------------------------------
	BYTE	W96
// 042   ----------------------------------------
	BYTE	W96
// 043   ----------------------------------------
	BYTE	W96
// 044   ----------------------------------------
	BYTE	W96
// 045   ----------------------------------------
	BYTE	W96
// 046   ----------------------------------------
	BYTE	W96
// 047   ----------------------------------------
	BYTE	W96
// 048   ----------------------------------------
	BYTE	W96
// 049   ----------------------------------------
gourmetrace_5_049:
	BYTE	W68
	BYTE	W02
	BYTE		N04     Dn3   v096
	BYTE	W03
	BYTE		        En3   v040
	BYTE	W04
	BYTE		N02     Fn3   v072
	BYTE	W02
	BYTE		        Gn3   v084
	BYTE	W02
	BYTE		        An3   v088
	BYTE	W02
	BYTE		        Bn3 
	BYTE	W02
	BYTE		        Cn4   v092
	BYTE	W02
	BYTE		N04     Dn4   v088
	BYTE	W09
	BYTE	PEND
// 050   ----------------------------------------
gourmetrace_5_050:
	BYTE		N21     Ds4   v100
	BYTE	W20
	BYTE		N12     Dn4   v084
	BYTE	W12
	BYTE		N07     Cn4   v108
	BYTE	W13
	BYTE		N11     As3 
	BYTE	W10
	BYTE		N12     Fn3   v092
	BYTE	W14
	BYTE		N22     Dn3   v108
	BYTE	W24
	BYTE	W01
	BYTE		N13     Gs3 
	BYTE	W02
	BYTE	PEND
// 051   ----------------------------------------
	BYTE	PATT
	 POIN2	gourmetrace_5_001
// 052   ----------------------------------------
	BYTE	W96
// 053   ----------------------------------------
	BYTE	W96
// 054   ----------------------------------------
	BYTE	W96
// 055   ----------------------------------------
	BYTE	W96
// 056   ----------------------------------------
	BYTE	W96
// 057   ----------------------------------------
	BYTE	W96
// 058   ----------------------------------------
	BYTE	W96
// 059   ----------------------------------------
	BYTE	W96
// 060   ----------------------------------------
	BYTE	W96
// 061   ----------------------------------------
	BYTE	W96
// 062   ----------------------------------------
	BYTE	W96
// 063   ----------------------------------------
	BYTE	W96
// 064   ----------------------------------------
	BYTE	W96
// 065   ----------------------------------------
	BYTE	W96
// 066   ----------------------------------------
	BYTE	W96
// 067   ----------------------------------------
	BYTE	W96
// 068   ----------------------------------------
	BYTE	W96
// 069   ----------------------------------------
	BYTE	W96
// 070   ----------------------------------------
	BYTE	W96
// 071   ----------------------------------------
	BYTE	PATT
	 POIN2	gourmetrace_5_021
// 072   ----------------------------------------
	BYTE	PATT
	 POIN2	gourmetrace_5_022
// 073   ----------------------------------------
	BYTE	PATT
	 POIN2	gourmetrace_5_023
// 074   ----------------------------------------
	BYTE	PATT
	 POIN2	gourmetrace_5_024
// 075   ----------------------------------------
	BYTE	PATT
	 POIN2	gourmetrace_5_025
// 076   ----------------------------------------
	BYTE	W96
// 077   ----------------------------------------
	BYTE	W96
// 078   ----------------------------------------
	BYTE	W96
// 079   ----------------------------------------
	BYTE	PATT
	 POIN2	gourmetrace_5_029
// 080   ----------------------------------------
	BYTE	PATT
	 POIN2	gourmetrace_5_030
// 081   ----------------------------------------
	BYTE	PATT
	 POIN2	gourmetrace_5_031
// 082   ----------------------------------------
	BYTE	PATT
	 POIN2	gourmetrace_5_032
// 083   ----------------------------------------
	BYTE	W96
// 084   ----------------------------------------
	BYTE	W96
// 085   ----------------------------------------
	BYTE	W96
// 086   ----------------------------------------
	BYTE	W96
// 087   ----------------------------------------
	BYTE	W96
// 088   ----------------------------------------
	BYTE	W96
// 089   ----------------------------------------
	BYTE	W96
// 090   ----------------------------------------
	BYTE	W96
// 091   ----------------------------------------
	BYTE	W96
// 092   ----------------------------------------
	BYTE	W96
// 093   ----------------------------------------
	BYTE	W96
// 094   ----------------------------------------
	BYTE	W96
// 095   ----------------------------------------
	BYTE	W96
// 096   ----------------------------------------
	BYTE	W96
// 097   ----------------------------------------
	BYTE	W96
// 098   ----------------------------------------
	BYTE	W96
// 099   ----------------------------------------
	BYTE	PATT
	 POIN2	gourmetrace_5_049
// 100   ----------------------------------------
	BYTE	PATT
	 POIN2	gourmetrace_5_050
// 101   ----------------------------------------
	BYTE	PATT
	 POIN2	gourmetrace_5_001
// 102   ----------------------------------------
	BYTE	W96
// 103   ----------------------------------------
	BYTE	W96
// 104   ----------------------------------------
	BYTE	W96
// 105   ----------------------------------------
	BYTE	W96
// 106   ----------------------------------------
	BYTE	W96
// 107   ----------------------------------------
	BYTE	W96
// 108   ----------------------------------------
	BYTE	W96
// 109   ----------------------------------------
	BYTE	W96
// 110   ----------------------------------------
	BYTE	W96
// 111   ----------------------------------------
	BYTE	W96
// 112   ----------------------------------------
	BYTE	W96
// 113   ----------------------------------------
	BYTE	W96
// 114   ----------------------------------------
	BYTE	W96
// 115   ----------------------------------------
	BYTE	W96
// 116   ----------------------------------------
	BYTE	W96
// 117   ----------------------------------------
	BYTE	W96
// 118   ----------------------------------------
	BYTE	W96
// 119   ----------------------------------------
	BYTE	W96
// 120   ----------------------------------------
	BYTE	W96
// 121   ----------------------------------------
	BYTE	PATT
	 POIN2	gourmetrace_5_021
// 122   ----------------------------------------
	BYTE	PATT
	 POIN2	gourmetrace_5_022
// 123   ----------------------------------------
	BYTE	PATT
	 POIN2	gourmetrace_5_023
// 124   ----------------------------------------
	BYTE	PATT
	 POIN2	gourmetrace_5_024
// 125   ----------------------------------------
	BYTE	PATT
	 POIN2	gourmetrace_5_025
// 126   ----------------------------------------
	BYTE	W96
// 127   ----------------------------------------
	BYTE	W96
// 128   ----------------------------------------
	BYTE	W96
// 129   ----------------------------------------
	BYTE	PATT
	 POIN2	gourmetrace_5_029
// 130   ----------------------------------------
	BYTE	PATT
	 POIN2	gourmetrace_5_030
// 131   ----------------------------------------
	BYTE	PATT
	 POIN2	gourmetrace_5_031
// 132   ----------------------------------------
	BYTE	PATT
	 POIN2	gourmetrace_5_032
// 133   ----------------------------------------
	BYTE	W96
// 134   ----------------------------------------
	BYTE	W96
// 135   ----------------------------------------
	BYTE	W96
// 136   ----------------------------------------
	BYTE	W96
// 137   ----------------------------------------
	BYTE	W96
// 138   ----------------------------------------
	BYTE	W96
// 139   ----------------------------------------
	BYTE	W96
// 140   ----------------------------------------
	BYTE	W96
// 141   ----------------------------------------
	BYTE	W96
// 142   ----------------------------------------
	BYTE	W96
// 143   ----------------------------------------
	BYTE	W96
// 144   ----------------------------------------
	BYTE	W96
// 145   ----------------------------------------
	BYTE	W96
// 146   ----------------------------------------
	BYTE	W96
// 147   ----------------------------------------
	BYTE	W96
// 148   ----------------------------------------
	BYTE	W96
// 149   ----------------------------------------
	BYTE	PATT
	 POIN2	gourmetrace_5_049
// 150   ----------------------------------------
	BYTE	PATT
	 POIN2	gourmetrace_5_050
// 151   ----------------------------------------
	BYTE	PATT
	 POIN2	gourmetrace_5_001
// 152   ----------------------------------------
	BYTE	W96
// 153   ----------------------------------------
	BYTE	W96
// 154   ----------------------------------------
	BYTE	W96
// 155   ----------------------------------------
	BYTE	W96
// 156   ----------------------------------------
	BYTE	W96
// 157   ----------------------------------------
	BYTE	W96
// 158   ----------------------------------------
	BYTE	W96
// 159   ----------------------------------------
	BYTE	W96
// 160   ----------------------------------------
	BYTE	W96
// 161   ----------------------------------------
	BYTE	W96
// 162   ----------------------------------------
	BYTE	W96
// 163   ----------------------------------------
	BYTE	W96
// 164   ----------------------------------------
	BYTE	W96
// 165   ----------------------------------------
	BYTE	W96
// 166   ----------------------------------------
	BYTE	W96
// 167   ----------------------------------------
	BYTE	W96
// 168   ----------------------------------------
	BYTE	W96
// 169   ----------------------------------------
	BYTE	W96
// 170   ----------------------------------------
	BYTE	W96
// 171   ----------------------------------------
	BYTE	PATT
	 POIN2	gourmetrace_5_021
// 172   ----------------------------------------
	BYTE	PATT
	 POIN2	gourmetrace_5_022
// 173   ----------------------------------------
	BYTE	PATT
	 POIN2	gourmetrace_5_023
// 174   ----------------------------------------
	BYTE	PATT
	 POIN2	gourmetrace_5_024
// 175   ----------------------------------------
	BYTE	PATT
	 POIN2	gourmetrace_5_025
// 176   ----------------------------------------
	BYTE	W96
// 177   ----------------------------------------
	BYTE	W96
// 178   ----------------------------------------
	BYTE	W96
// 179   ----------------------------------------
	BYTE	PATT
	 POIN2	gourmetrace_5_029
// 180   ----------------------------------------
	BYTE	PATT
	 POIN2	gourmetrace_5_030
// 181   ----------------------------------------
	BYTE	PATT
	 POIN2	gourmetrace_5_031
// 182   ----------------------------------------
	BYTE	PATT
	 POIN2	gourmetrace_5_032
// 183   ----------------------------------------
	BYTE	W96
// 184   ----------------------------------------
	BYTE	W96
// 185   ----------------------------------------
	BYTE	W96
// 186   ----------------------------------------
	BYTE	W96
// 187   ----------------------------------------
	BYTE	W96
// 188   ----------------------------------------
	BYTE	W96
// 189   ----------------------------------------
	BYTE	W96
// 190   ----------------------------------------
	BYTE	W96
// 191   ----------------------------------------
	BYTE	W96
// 192   ----------------------------------------
	BYTE	W96
// 193   ----------------------------------------
	BYTE	W96
// 194   ----------------------------------------
	BYTE	W96
// 195   ----------------------------------------
	BYTE	W96
// 196   ----------------------------------------
	BYTE	W96
// 197   ----------------------------------------
	BYTE	W96
// 198   ----------------------------------------
	BYTE	W96
// 199   ----------------------------------------
	BYTE	W68
	BYTE	W02
	BYTE		N04     Dn3   v096
	BYTE	W03
	BYTE		        En3   v040
	BYTE	W04
	BYTE		N02     Fn3   v072
	BYTE	W02
	BYTE		        Gn3   v084
	BYTE	W02
	BYTE		        An3   v088
	BYTE	W02
	BYTE		        Bn3 
	BYTE	W02
	BYTE		        Cn4   v092
	BYTE	W02
	BYTE		N04     Dn4   v088
	BYTE	W04
	BYTE	FINE

//**************** Track 6 (Midi-Chn.5) ****************//

gourmetrace_6:
	BYTE	KEYSH   gourmetrace_key+0
// 000   ----------------------------------------
	BYTE		VOICE   57
	BYTE		VOL     127*gourmetrace_mvl/mxv
	BYTE		PAN     c_v+0
	BYTE	W96
// 001   ----------------------------------------
	BYTE	W96
// 002   ----------------------------------------
gourmetrace_6_002:
	BYTE	W12
	BYTE		N09     Cn3   v088
	BYTE		N08     Ds3   v108
	BYTE	W01
	BYTE		        Gn2   v100
	BYTE	W22
	BYTE		        Cn3   v096
	BYTE		N08     Ds3   v112
	BYTE	W01
	BYTE		        Gn2   v104
	BYTE	W24
	BYTE		        Gn2   v108
	BYTE		N08     Cn3   v100
	BYTE		N07     Ds3   v116
	BYTE	W24
	BYTE		N09     Gn2   v108
	BYTE		N07     Cn3   v100
	BYTE		N07     Ds3   v120
	BYTE	W12
	BYTE	PEND
// 003   ----------------------------------------
gourmetrace_6_003:
	BYTE	W10
	BYTE		N08     Gn2   v104
	BYTE		N07     Cn3   v100
	BYTE		N08     Ds3   v120
	BYTE	W24
	BYTE		N09     Gn2   v104
	BYTE		N08     Cn3   v096
	BYTE		N09     Ds3   v112
	BYTE	W23
	BYTE		        Ds3   v116
	BYTE	W01
	BYTE		N08     Gn2   v092
	BYTE		N09     Cn3 
	BYTE	W24
	BYTE		N08     Gn2 
	BYTE		N08     Cn3   v084
	BYTE		N08     Ds3   v116
	BYTE	W14
	BYTE	PEND
// 004   ----------------------------------------
gourmetrace_6_004:
	BYTE	W09
	BYTE		N11     Cn3   v080
	BYTE	W01
	BYTE		N09     Gs2   v096
	BYTE		N08     Fn3 
	BYTE	W24
	BYTE		N09     Gs2   v108
	BYTE		N08     Cn3   v104
	BYTE		N07     Fn3 
	BYTE	W23
	BYTE		N08     Gs2   v108
	BYTE		N06     Cn3   v084
	BYTE		N07     Fn3   v100
	BYTE	W24
	BYTE		N09     Gs2   v108
	BYTE		N06     Cn3   v100
	BYTE		N06     Fn3   v108
	BYTE	W15
	BYTE	PEND
// 005   ----------------------------------------
gourmetrace_6_005:
	BYTE	W10
	BYTE		N08     Gn2   v092
	BYTE		N08     Cn3 
	BYTE		N08     Ds3   v112
	BYTE	W23
	BYTE		        Gn2   v108
	BYTE		N08     Cn3   v096
	BYTE		N08     Ds3   v112
	BYTE	W24
	BYTE		N09     Gn2   v104
	BYTE		N09     Cn3   v096
	BYTE		N07     Ds3   v116
	BYTE	W24
	BYTE		N10     Gn2   v084
	BYTE		N08     Cn3   v092
	BYTE		N07     Ds3   v116
	BYTE	W15
	BYTE	PEND
// 006   ----------------------------------------
gourmetrace_6_006:
	BYTE	W09
	BYTE		N11     Gn2   v100
	BYTE	W01
	BYTE		N08     Cn3   v104
	BYTE		N07     Ds3   v116
	BYTE	W24
	BYTE		N09     Gn2   v100
	BYTE		N08     Cn3   v092
	BYTE		N07     Ds3   v116
	BYTE	W24
	BYTE		N09     Gn2   v104
	BYTE		N07     Cn3   v100
	BYTE		N06     Ds3   v112
	BYTE	W24
	BYTE		N09     Gn2   v108
	BYTE		N09     Cn3   v100
	BYTE		N07     Ds3   v120
	BYTE	W14
	BYTE	PEND
// 007   ----------------------------------------
gourmetrace_6_007:
	BYTE	W09
	BYTE		N10     Gn2   v108
	BYTE		N08     Cn3   v100
	BYTE		N07     Ds3   v112
	BYTE	W24
	BYTE		N09     Gn2   v104
	BYTE		N08     Cn3   v100
	BYTE		N08     Ds3   v120
	BYTE	W24
	BYTE	W01
	BYTE		N10     Gn2   v104
	BYTE		N08     Cn3   v096
	BYTE		N08     Ds3   v112
	BYTE	W23
	BYTE		N09     Cn3   v100
	BYTE		N09     Ds3   v108
	BYTE	W01
	BYTE		N07     Gn2   v100
	BYTE	W14
	BYTE	PEND
// 008   ----------------------------------------
gourmetrace_6_008:
	BYTE	W08
	BYTE		N10     Cn3   v092
	BYTE	W01
	BYTE		N12     Fn2   v068
	BYTE		N12     Gs2 
	BYTE	W24
	BYTE		N11     Fn2   v100
	BYTE		N10     Gs2   v104
	BYTE		N09     Cn3   v088
	BYTE	W23
	BYTE		N10     Gn2   v100
	BYTE		N10     Dn3   v092
	BYTE	W01
	BYTE		N04     As2   v056
	BYTE	W01
	BYTE		N03     An2   v076
	BYTE	W21
	BYTE		N09     As2   v104
	BYTE		N10     Dn3   v100
	BYTE	W01
	BYTE		        Gn2   v108
	BYTE	W16
	BYTE	PEND
// 009   ----------------------------------------
gourmetrace_6_009:
	BYTE	W08
	BYTE		N09     Gn2   v108
	BYTE		N09     Cn3   v092
	BYTE	W01
	BYTE		        Ds3   v112
	BYTE	W23
	BYTE		        Gn2   v104
	BYTE		N10     Cn3   v088
	BYTE		N09     Ds3   v108
	BYTE	W24
	BYTE		        Cn3   v092
	BYTE		N08     Ds3   v112
	BYTE	W01
	BYTE		N09     Gn2   v108
	BYTE	W24
	BYTE	W01
	BYTE		N09   
	BYTE		N09     Cn3   v100
	BYTE		N08     Ds3   v112
	BYTE	W14
	BYTE	PEND
// 010   ----------------------------------------
gourmetrace_6_010:
	BYTE	W10
	BYTE		N09     Cn3   v092
	BYTE		N07     Ds3   v112
	BYTE	W01
	BYTE		N09     Gn2   v100
	BYTE	W22
	BYTE		N08     Gn2   v108
	BYTE		N08     Cn3   v100
	BYTE		N06     Ds3   v120
	BYTE	W24
	BYTE		N08     Cn3   v096
	BYTE		N07     Ds3   v112
	BYTE	W01
	BYTE		N09     Gn2   v108
	BYTE	W24
	BYTE		N08     Cn3   v100
	BYTE		N07     Ds3   v116
	BYTE	W01
	BYTE		N09     Gn2   v108
	BYTE	W13
	BYTE	PEND
// 011   ----------------------------------------
gourmetrace_6_011:
	BYTE	W10
	BYTE		N09     Gn2   v108
	BYTE		N08     Cn3   v096
	BYTE		N07     Ds3   v112
	BYTE	W23
	BYTE		N09     Gn2   v104
	BYTE		N09     Cn3   v096
	BYTE		N08     Ds3   v116
	BYTE	W23
	BYTE		N10     Cn3   v092
	BYTE	W01
	BYTE		        Gn2   v108
	BYTE		N09     Ds3   v112
	BYTE	W24
	BYTE	W01
	BYTE		        Gn2   v104
	BYTE		N09     Cn3   v092
	BYTE		N09     Ds3   v108
	BYTE	W14
	BYTE	PEND
// 012   ----------------------------------------
gourmetrace_6_012:
	BYTE	W09
	BYTE		N10     Gs2   v100
	BYTE	W01
	BYTE		        Cn3   v092
	BYTE		N09     Fn3   v100
	BYTE	W22
	BYTE		        Gs2   v104
	BYTE		N09     Cn3   v084
	BYTE		N09     Fn3   v108
	BYTE	W23
	BYTE		        Cn3   v096
	BYTE	W01
	BYTE		        Gs2   v108
	BYTE		N09     Fn3 
	BYTE	W24
	BYTE	W01
	BYTE		N10     Gs2 
	BYTE		N07     Cn3   v092
	BYTE		N08     Fn3   v108
	BYTE	W15
	BYTE	PEND
// 013   ----------------------------------------
gourmetrace_6_013:
	BYTE	W08
	BYTE		N10     Cn3   v092
	BYTE		N09     Ds3   v112
	BYTE	W01
	BYTE		        Gn2   v100
	BYTE	W24
	BYTE		        Gn2   v108
	BYTE		N09     Cn3   v100
	BYTE		N08     Ds3   v124
	BYTE	W24
	BYTE	W01
	BYTE		N09     Gn2   v108
	BYTE		N08     Cn3   v092
	BYTE		N08     Ds3   v112
	BYTE	W24
	BYTE		N09     Cn3   v100
	BYTE		N09     Ds3   v116
	BYTE	W01
	BYTE		        Gn2   v108
	BYTE	W13
	BYTE	PEND
// 014   ----------------------------------------
gourmetrace_6_014:
	BYTE	W11
	BYTE		N10     Gn2   v104
	BYTE		N08     Cn3   v100
	BYTE		N07     Ds3   v112
	BYTE	W24
	BYTE		N10     Gn2   v104
	BYTE	W01
	BYTE		N09     Cn3   v100
	BYTE		N09     Ds3   v120
	BYTE	W23
	BYTE		        Gn2   v108
	BYTE	W01
	BYTE		N07     Cn3   v100
	BYTE		N07     Ds3   v120
	BYTE	W23
	BYTE		        Gn2   v104
	BYTE		N07     Cn3   v096
	BYTE		N08     Ds3   v112
	BYTE	W13
	BYTE	PEND
// 015   ----------------------------------------
gourmetrace_6_015:
	BYTE	W10
	BYTE		N12     Gs2   v084
	BYTE		N11     Cn3   v068
	BYTE	W03
	BYTE		N08     Fn3   v044
	BYTE	W19
	BYTE		N09     Cn3   v088
	BYTE		N09     Fn3   v104
	BYTE	W01
	BYTE		N10     Gs2   v116
	BYTE	W21
	BYTE		N09     Gs2   v108
	BYTE		N09     Fn3   v104
	BYTE	W01
	BYTE		N07     Cn3   v092
	BYTE	W24
	BYTE		N09     Fn3   v088
	BYTE	W01
	BYTE		N08     Cn3   v092
	BYTE	W01
	BYTE		N09     Gs2   v112
	BYTE	W15
	BYTE	PEND
// 016   ----------------------------------------
gourmetrace_6_016:
	BYTE	W08
	BYTE		N10     Gn2   v076
	BYTE		N11     As2   v072
	BYTE		N09     Dn3   v108
	BYTE	W23
	BYTE		        Gn2   v088
	BYTE		N09     Dn3   v104
	BYTE	W01
	BYTE		        As2   v056
	BYTE	W24
	BYTE		N08     Gn2   v096
	BYTE		N08     Dn3   v108
	BYTE	W01
	BYTE		N09     As2   v092
	BYTE	W23
	BYTE		N08     Gn2   v100
	BYTE		N09     As2   v088
	BYTE		N08     Dn3   v112
	BYTE	W16
	BYTE	PEND
// 017   ----------------------------------------
gourmetrace_6_017:
	BYTE	W08
	BYTE		N09     Cn3   v060
	BYTE		N08     Ds3   v072
	BYTE	W02
	BYTE		        Gn2   v108
	BYTE	W22
	BYTE		N07     Ds3 
	BYTE	W01
	BYTE		N10     Gn2   v100
	BYTE		N08     Cn3   v092
	BYTE	W24
	BYTE		N10     Gn2   v108
	BYTE		N08     Cn3   v096
	BYTE		N06     Ds3   v108
	BYTE	W24
	BYTE		N08     Gn2 
	BYTE		N07     Cn3   v088
	BYTE		N07     Ds3   v108
	BYTE	W15
	BYTE	PEND
// 018   ----------------------------------------
gourmetrace_6_018:
	BYTE	W08
	BYTE		N09     Gs2   v112
	BYTE		N09     Cn3   v092
	BYTE		N09     Fn3   v104
	BYTE	W24
	BYTE	W01
	BYTE		N07     Cn3   v092
	BYTE		N07     Fn3   v104
	BYTE	W01
	BYTE		N09     Gs2   v116
	BYTE	W24
	BYTE		N06     Cn3   v100
	BYTE		N07     Fn3   v104
	BYTE	W01
	BYTE		N08     Gs2   v120
	BYTE	W23
	BYTE		N06     Cn3   v096
	BYTE		N07     Fn3   v104
	BYTE	W01
	BYTE		N08     Gs2   v116
	BYTE	W13
	BYTE	PEND
// 019   ----------------------------------------
gourmetrace_6_019:
	BYTE	W09
	BYTE		N09     Gn2   v104
	BYTE		N09     Cn3   v100
	BYTE		N08     Ds3   v120
	BYTE	W24
	BYTE		N10     Cn3   v096
	BYTE	W01
	BYTE		N09     Gn2   v108
	BYTE		N08     Ds3   v116
	BYTE	W24
	BYTE		N09     Gn2   v104
	BYTE		N08     Cn3   v100
	BYTE		N07     Ds3   v116
	BYTE	W24
	BYTE		N08     Gn2   v108
	BYTE		N07     Cn3   v100
	BYTE		N06     Ds3   v120
	BYTE	W14
	BYTE	PEND
// 020   ----------------------------------------
gourmetrace_6_020:
	BYTE	W09
	BYTE		N09     Cn3   v096
	BYTE	W01
	BYTE		        Gs2   v108
	BYTE		N08     Fn3   v104
	BYTE	W23
	BYTE		N07     Cn3   v100
	BYTE		N07     Fn3   v108
	BYTE	W01
	BYTE		N09     Gs2   v112
	BYTE	W24
	BYTE		N08     Fn3   v108
	BYTE	W01
	BYTE		N09     Gs2 
	BYTE		N08     Cn3   v100
	BYTE	W22
	BYTE		N09     Fn3   v108
	BYTE	W01
	BYTE		N07     Cn3   v100
	BYTE	W01
	BYTE		N09     Gs2   v112
	BYTE	W13
	BYTE	PEND
// 021   ----------------------------------------
gourmetrace_6_021:
	BYTE	W10
	BYTE		N11     Gn2   v100
	BYTE		N10     Cn3   v088
	BYTE		N08     Ds3   v112
	BYTE	W24
	BYTE		N09     Gn2   v108
	BYTE		N09     Cn3   v100
	BYTE		N07     Ds3   v112
	BYTE	W24
	BYTE		N09     Cn3   v100
	BYTE		N07     Ds3   v120
	BYTE	W01
	BYTE		N10     Gn2   v100
	BYTE	W23
	BYTE		N08     Gn2   v108
	BYTE		N07     Cn3   v100
	BYTE		N07     Ds3   v120
	BYTE	W14
	BYTE	PEND
// 022   ----------------------------------------
gourmetrace_6_022:
	BYTE	W10
	BYTE		N09     Gs2   v100
	BYTE		N09     Cn3   v080
	BYTE		N09     Fn3   v112
	BYTE	W22
	BYTE		N12     Cn3   v068
	BYTE		N10     Fn3   v104
	BYTE	W01
	BYTE		        Gs2 
	BYTE	W22
	BYTE		N12     Cn3   v080
	BYTE	W01
	BYTE		N10     Gs2   v104
	BYTE		N09     Fn3   v108
	BYTE	W23
	BYTE		N10     Cn3   v080
	BYTE		N08     Fn3   v108
	BYTE	W01
	BYTE		        Gs2 
	BYTE	W16
	BYTE	PEND
// 023   ----------------------------------------
gourmetrace_6_023:
	BYTE	W06
	BYTE		N10     Gn2   v104
	BYTE		N11     Cn3   v072
	BYTE		N09     Ds3   v108
	BYTE	W24
	BYTE		N12     Gn2 
	BYTE		N10     Cn3   v100
	BYTE		N10     Ds3   v108
	BYTE	W24
	BYTE	W02
	BYTE		N11     Gn2 
	BYTE		N09     Cn3   v096
	BYTE		N10     Ds3   v108
	BYTE	W24
	BYTE	W02
	BYTE		        Gn2   v104
	BYTE		N09     Cn3   v092
	BYTE		N10     Ds3   v108
	BYTE	W14
	BYTE	PEND
// 024   ----------------------------------------
gourmetrace_6_024:
	BYTE	W09
	BYTE		N12     Dn3   v084
	BYTE	W01
	BYTE		N11     As2   v080
	BYTE	W01
	BYTE		N10     Fn2   v104
	BYTE	W23
	BYTE		        Fn2   v108
	BYTE		N09     As2   v104
	BYTE		N11     Dn3 
	BYTE	W23
	BYTE		        Fn2   v108
	BYTE		N10     Dn3   v104
	BYTE	W01
	BYTE		N09     As2 
	BYTE	W24
	BYTE		N09   
	BYTE		N08     Dn3 
	BYTE	W01
	BYTE		N10     Fn2   v108
	BYTE	W13
	BYTE	PEND
// 025   ----------------------------------------
gourmetrace_6_025:
	BYTE	W09
	BYTE		N11     Gn2   v108
	BYTE		N10     Cn3   v076
	BYTE		N09     Ds3   v108
	BYTE	W24
	BYTE		N12     Gn2 
	BYTE		N10     Cn3   v092
	BYTE		N09     Ds3   v116
	BYTE	W23
	BYTE		N11     Ds3   v108
	BYTE	W01
	BYTE		        Gn2   v112
	BYTE		N11     Cn3   v088
	BYTE	W24
	BYTE		N12     Gn2   v100
	BYTE		N11     Cn3   v092
	BYTE		N12     Ds3   v112
	BYTE	W15
	BYTE	PEND
// 026   ----------------------------------------
gourmetrace_6_026:
	BYTE	W07
	BYTE		N11     Cn3   v088
	BYTE		N12     Fn3   v100
	BYTE	W01
	BYTE		        Gs2   v112
	BYTE	W24
	BYTE		N10     Cn3   v096
	BYTE	W01
	BYTE		N09     Gs2   v108
	BYTE		N10     Fn3   v104
	BYTE	W24
	BYTE		        Gs2   v112
	BYTE		N11     Cn3   v088
	BYTE		N09     Fn3   v108
	BYTE	W24
	BYTE		N10     Cn3   v084
	BYTE		N09     Fn3   v088
	BYTE	W01
	BYTE		N11     Gs2   v108
	BYTE	W14
	BYTE	PEND
// 027   ----------------------------------------
gourmetrace_6_027:
	BYTE	W08
	BYTE		N11     Cn3   v072
	BYTE		N10     Ds3   v096
	BYTE	W01
	BYTE		N11     Gn2   v104
	BYTE	W24
	BYTE		        Gn2   v108
	BYTE		N10     Cn3   v088
	BYTE		N09     Ds3   v108
	BYTE	W24
	BYTE		N11     Gn2   v100
	BYTE		N10     Cn3   v092
	BYTE	W01
	BYTE		        Ds3   v108
	BYTE	W24
	BYTE		N11     Gn2 
	BYTE		N10     Cn3   v088
	BYTE		N10     Ds3   v104
	BYTE	W14
	BYTE	PEND
// 028   ----------------------------------------
gourmetrace_6_028:
	BYTE	W10
	BYTE		N10     Fn3   v100
	BYTE	W01
	BYTE		N11     Gs2   v112
	BYTE		N10     Cn3   v084
	BYTE	W23
	BYTE		N11     Fn3   v104
	BYTE	W01
	BYTE		        Gs2   v108
	BYTE		N11     Cn3   v100
	BYTE	W24
	BYTE	W01
	BYTE		N09     Gs2   v112
	BYTE		N09     Cn3   v092
	BYTE		N10     Fn3   v104
	BYTE	W21
	BYTE		        Gs2   v108
	BYTE		N09     Cn3   v092
	BYTE	W01
	BYTE		N08     Fn3   v100
	BYTE	W14
	BYTE	PEND
// 029   ----------------------------------------
gourmetrace_6_029:
	BYTE	W09
	BYTE		N11     Gn2   v108
	BYTE		N11     Cn3   v080
	BYTE		N10     Ds3   v108
	BYTE	W24
	BYTE		N11     Gn2 
	BYTE	W01
	BYTE		        Cn3   v096
	BYTE		N10     Ds3   v112
	BYTE	W24
	BYTE		N11     Gn2   v108
	BYTE	W01
	BYTE		N10     Cn3   v096
	BYTE		N09     Ds3   v108
	BYTE	W22
	BYTE		N12     Gn2   v100
	BYTE	W01
	BYTE		N11     Cn3   v092
	BYTE		N11     Ds3   v108
	BYTE	W14
	BYTE	PEND
// 030   ----------------------------------------
gourmetrace_6_030:
	BYTE	W10
	BYTE		N11     Gs2   v108
	BYTE		N11     Cn3   v088
	BYTE		N11     Fn3   v100
	BYTE	W24
	BYTE		N10     Gs2   v108
	BYTE		N09     Cn3   v092
	BYTE		N09     Fn3   v104
	BYTE	W22
	BYTE		N08     Cn3   v076
	BYTE		N08     Fn3   v092
	BYTE	W01
	BYTE		N10     Gs2   v112
	BYTE	W22
	BYTE		        Fn3   v100
	BYTE	W01
	BYTE		N11     Gs2   v108
	BYTE		N08     Cn3   v092
	BYTE	W16
	BYTE	PEND
// 031   ----------------------------------------
gourmetrace_6_031:
	BYTE	W07
	BYTE		N11     Gn2   v084
	BYTE		N11     Cn3   v100
	BYTE		N10     Ds3   v116
	BYTE	W24
	BYTE	W01
	BYTE		N13     Gn2   v076
	BYTE		N11     Cn3   v092
	BYTE		N10     Ds3   v108
	BYTE	W24
	BYTE		N12     Gn2   v100
	BYTE	W01
	BYTE		N09     Cn3   v096
	BYTE		N09     Ds3   v108
	BYTE	W24
	BYTE		N07     Cn3   v100
	BYTE		N08     Ds3   v108
	BYTE	W01
	BYTE		N12     Gn2   v084
	BYTE	W14
	BYTE	PEND
// 032   ----------------------------------------
gourmetrace_6_032:
	BYTE	W08
	BYTE		N17     Fn2   v080
	BYTE		N13     As2   v092
	BYTE	W01
	BYTE		N08     Cn2   v068
	BYTE		N15     Dn2 
	BYTE	W24
	BYTE		N13     Dn2   v084
	BYTE		N14     Fn2   v092
	BYTE		N12     As2   v112
	BYTE	W22
	BYTE		N11     Dn2   v088
	BYTE		N12     Fn2   v084
	BYTE	W01
	BYTE		N11     As2   v112
	BYTE	W24
	BYTE		        Dn2   v068
	BYTE		N06     Fn2   v064
	BYTE		N22     As2   v108
	BYTE	W16
	BYTE	PEND
// 033   ----------------------------------------
gourmetrace_6_033:
	BYTE	W08
	BYTE		N15     Gn2   v068
	BYTE		N12     Cn3   v096
	BYTE	W01
	BYTE		        Ds2   v084
	BYTE	W24
	BYTE	W01
	BYTE		N11     Gn2   v068
	BYTE		N09     Cn3   v100
	BYTE	W01
	BYTE		        Ds2   v084
	BYTE	W23
	BYTE		N04     Ds2   v072
	BYTE		N05     Gn2   v060
	BYTE		N05     Cn3   v096
	BYTE	W09
	BYTE		N15     Dn3   v108
	BYTE	W01
	BYTE		N18     Fn2 
	BYTE		N16     As2   v100
	BYTE	W28
	BYTE	PEND
// 034   ----------------------------------------
gourmetrace_6_034:
	BYTE	W07
	BYTE		N08     Ds3   v072
	BYTE		N09     Gn3   v084
	BYTE	W01
	BYTE		        As2   v108
	BYTE	W23
	BYTE		        Ds3   v100
	BYTE		N08     Gn3   v092
	BYTE	W01
	BYTE		N09     As2   v108
	BYTE	W24
	BYTE	W01
	BYTE		N10   
	BYTE		N09     Gn3   v100
	BYTE	W01
	BYTE		        Ds3   v108
	BYTE	W23
	BYTE		N11     As2 
	BYTE		N08     Ds3 
	BYTE		N13     Gn3   v104
	BYTE	W15
	BYTE	PEND
// 035   ----------------------------------------
gourmetrace_6_035:
	BYTE	W09
	BYTE		N11     As2   v112
	BYTE		N11     Dn3   v100
	BYTE		N10     Fn3 
	BYTE	W23
	BYTE		N11     As2   v104
	BYTE		N10     Dn3   v092
	BYTE		N09     Fn3   v100
	BYTE	W24
	BYTE		N10     Dn3 
	BYTE		N09     Fn3 
	BYTE	W01
	BYTE		N10     As2   v104
	BYTE	W23
	BYTE		        Dn3   v092
	BYTE		N11     Fn3   v084
	BYTE	W01
	BYTE		N12     As2   v100
	BYTE	W15
	BYTE	PEND
// 036   ----------------------------------------
gourmetrace_6_036:
	BYTE	W09
	BYTE		N11     Cn3   v076
	BYTE		N10     Ds3   v084
	BYTE	W01
	BYTE		        Gn2   v092
	BYTE	W23
	BYTE		N09   
	BYTE	W01
	BYTE		N13     Cn3   v084
	BYTE		N11     Ds3   v100
	BYTE	W24
	BYTE		N10     Gn2   v068
	BYTE		N11     Cn3   v092
	BYTE		N10     Ds3   v108
	BYTE	W24
	BYTE		N09     Gn2   v068
	BYTE		N10     Ds3   v104
	BYTE	W01
	BYTE		        Cn3   v088
	BYTE	W13
	BYTE	PEND
// 037   ----------------------------------------
gourmetrace_6_037:
	BYTE	W10
	BYTE		N13     Fn2   v068
	BYTE		N11     As2   v060
	BYTE		N12     Dn3   v104
	BYTE	W23
	BYTE		        Fn2   v068
	BYTE	W01
	BYTE		N11     As2   v060
	BYTE		N11     Dn3   v108
	BYTE	W23
	BYTE		        As2   v080
	BYTE	W01
	BYTE		N10     Fn2   v072
	BYTE		N09     Dn3   v112
	BYTE	W24
	BYTE		N10     Fn2   v064
	BYTE		N10     As2   v060
	BYTE		N11     Dn3   v108
	BYTE	W14
	BYTE	PEND
// 038   ----------------------------------------
gourmetrace_6_038:
	BYTE	W12
	BYTE		N10     Gs2   v112
	BYTE		N11     Cn3   v088
	BYTE		N10     Ds3   v104
	BYTE	W23
	BYTE		        Gs2   v116
	BYTE		N11     Cn3   v084
	BYTE		N13     Ds3   v100
	BYTE	W23
	BYTE		N10     Dn3   v084
	BYTE		N11     Fn3   v080
	BYTE	W01
	BYTE		        As2   v104
	BYTE	W24
	BYTE		N09     As2   v108
	BYTE		N08     Dn3   v100
	BYTE		N11     Fn3   v092
	BYTE	W13
	BYTE	PEND
// 039   ----------------------------------------
gourmetrace_6_039:
	BYTE	W11
	BYTE		N12     As2   v108
	BYTE		N11     Ds3   v084
	BYTE		N11     Gn3   v076
	BYTE	W22
	BYTE		N12     As2   v108
	BYTE	W01
	BYTE		N11     Ds3   v092
	BYTE		N11     Gn3   v084
	BYTE	W23
	BYTE		        Ds3   v092
	BYTE	W01
	BYTE		N12     As2   v104
	BYTE		N11     Gn3   v080
	BYTE	W24
	BYTE		N12     Ds3   v084
	BYTE		N11     Gn3   v080
	BYTE	W01
	BYTE		N13     As2   v108
	BYTE	W13
	BYTE	PEND
// 040   ----------------------------------------
gourmetrace_6_040:
	BYTE	W11
	BYTE		N11     Ds3   v084
	BYTE		N11     Fs3   v076
	BYTE	W01
	BYTE		        Bn2   v100
	BYTE	W21
	BYTE		N10     Bn2   v108
	BYTE		N11     Ds3   v100
	BYTE		N12     Fs3   v108
	BYTE	W23
	BYTE		N10     Bn2 
	BYTE		N11     Ds3   v104
	BYTE		N12     Fs3   v108
	BYTE	W22
	BYTE		N11     Ds3   v100
	BYTE		N12     Fs3   v104
	BYTE	W02
	BYTE		        Bn2   v100
	BYTE	W16
	BYTE	PEND
// 041   ----------------------------------------
gourmetrace_6_041:
	BYTE	W09
	BYTE		N10     Dn3   v080
	BYTE		N10     Fn3 
	BYTE	W01
	BYTE		N11     As2   v108
	BYTE	W22
	BYTE		N10     Fn3   v092
	BYTE	W01
	BYTE		N11     As2   v112
	BYTE		N10     Dn3   v084
	BYTE	W24
	BYTE		N11     As2   v108
	BYTE		N10     Dn3   v088
	BYTE		N10     Fn3   v080
	BYTE	W24
	BYTE		N11     Dn3   v084
	BYTE		N13     Fn3   v076
	BYTE	W01
	BYTE		N10     As2   v112
	BYTE	W14
	BYTE	PEND
// 042   ----------------------------------------
gourmetrace_6_042:
	BYTE	W09
	BYTE		N11     As2   v100
	BYTE		N11     Ds3   v096
	BYTE		N09     Gn3   v088
	BYTE	W22
	BYTE		N11     Gn3   v100
	BYTE	W01
	BYTE		        As2   v108
	BYTE		N10     Ds3   v100
	BYTE	W24
	BYTE		N11     As2   v112
	BYTE		N10     Ds3   v108
	BYTE		N10     Gn3 
	BYTE	W24
	BYTE		        As2 
	BYTE		N10     Ds3 
	BYTE		N12     Gn3   v100
	BYTE	W16
	BYTE	PEND
// 043   ----------------------------------------
gourmetrace_6_043:
	BYTE	W07
	BYTE		N10     As2   v108
	BYTE		N11     Dn3   v096
	BYTE		N10     Fn3   v100
	BYTE	W23
	BYTE		N12     Dn3 
	BYTE		N12     Fn3   v104
	BYTE	W01
	BYTE		N10     As2   v108
	BYTE	W24
	BYTE	W01
	BYTE		N12   
	BYTE		N12     Dn3   v100
	BYTE		N12     Fn3   v104
	BYTE	W24
	BYTE		N10     Fn3   v108
	BYTE	W01
	BYTE		N12     As2   v116
	BYTE		N11     Dn3   v100
	BYTE	W15
	BYTE	PEND
// 044   ----------------------------------------
gourmetrace_6_044:
	BYTE	W08
	BYTE		N11     Gn2   v092
	BYTE		N13     Cn3   v088
	BYTE		N11     Ds3   v108
	BYTE	W24
	BYTE		N13     Cn3   v100
	BYTE		N11     Ds3   v112
	BYTE	W01
	BYTE		        Gn2   v108
	BYTE	W24
	BYTE		N10     Gn2   v100
	BYTE		N13     Cn3 
	BYTE		N11     Ds3   v108
	BYTE	W24
	BYTE	W01
	BYTE		N10     Gn2   v100
	BYTE		N11     Cn3   v096
	BYTE		N11     Ds3   v108
	BYTE	W14
	BYTE	PEND
// 045   ----------------------------------------
gourmetrace_6_045:
	BYTE	W08
	BYTE		N14     Fn2   v076
	BYTE	W01
	BYTE		N12     As2   v084
	BYTE		N12     Dn3   v108
	BYTE	W24
	BYTE		N10     As2   v084
	BYTE		N11     Dn3   v108
	BYTE	W01
	BYTE		        Fn2   v064
	BYTE	W23
	BYTE		N12     Dn3   v108
	BYTE	W01
	BYTE		        Fn2   v068
	BYTE		N10     As2   v084
	BYTE	W23
	BYTE		N13     Fn2   v064
	BYTE	W01
	BYTE		N10     As2   v052
	BYTE		N12     Dn3   v108
	BYTE	W14
	BYTE	PEND
// 046   ----------------------------------------
gourmetrace_6_046:
	BYTE	W09
	BYTE		N13     Cn3   v084
	BYTE	W01
	BYTE		N11     Gs2   v108
	BYTE		N12     Ds3   v104
	BYTE	W22
	BYTE		N14     Ds3   v088
	BYTE	W01
	BYTE		N13     Gs2   v108
	BYTE		N14     Cn3   v080
	BYTE	W23
	BYTE		N13     As2   v108
	BYTE		N13     Dn3   v084
	BYTE		N13     Fn3   v080
	BYTE	W24
	BYTE	W01
	BYTE		N11     As2   v116
	BYTE		N11     Dn3   v084
	BYTE		N13     Fn3   v088
	BYTE	W15
	BYTE	PEND
// 047   ----------------------------------------
gourmetrace_6_047:
	BYTE	W08
	BYTE		N12     As2   v116
	BYTE		N13     Ds3   v084
	BYTE		N14     Gn3 
	BYTE	W24
	BYTE		N12     As2   v104
	BYTE		N11     Gn3   v084
	BYTE	W01
	BYTE		        Ds3   v100
	BYTE	W23
	BYTE		N12     Gs2   v088
	BYTE		N13     Cn3   v084
	BYTE		N13     Ds3   v104
	BYTE	W23
	BYTE		N12     Gs2   v084
	BYTE		N14     Cn3   v068
	BYTE		N15     Ds3   v100
	BYTE	W17
	BYTE	PEND
// 048   ----------------------------------------
gourmetrace_6_048:
	BYTE	W08
	BYTE		N12     An2   v108
	BYTE		N13     Dn3   v084
	BYTE		N12     Fn3   v088
	BYTE	W24
	BYTE		N11     Fn3   v100
	BYTE	W01
	BYTE		        An2   v108
	BYTE		N11     Dn3   v088
	BYTE	W23
	BYTE		N13     An2   v104
	BYTE		N12     Dn3   v096
	BYTE		N12     Fn3   v100
	BYTE	W24
	BYTE		N14     An2   v108
	BYTE		N12     Dn3   v092
	BYTE		N11     Fn3   v100
	BYTE	W16
	BYTE	PEND
// 049   ----------------------------------------
gourmetrace_6_049:
	BYTE	W08
	BYTE		N14     Gn2   v084
	BYTE		N13     Bn2   v076
	BYTE		N12     Dn3   v084
	BYTE	W24
	BYTE	W01
	BYTE		N04     Gn2   v092
	BYTE		N05     Bn2   v088
	BYTE		N05     Dn3   v100
	BYTE	W11
	BYTE		N18     Gn2   v104
	BYTE	W01
	BYTE		        Bn2   v108
	BYTE		N15     Dn3   v100
	BYTE	W48
	BYTE	W03
	BYTE	PEND
// 050   ----------------------------------------
	BYTE	W96
// 051   ----------------------------------------
	BYTE	W96
// 052   ----------------------------------------
	BYTE	PATT
	 POIN2	gourmetrace_6_002
// 053   ----------------------------------------
	BYTE	PATT
	 POIN2	gourmetrace_6_003
// 054   ----------------------------------------
	BYTE	PATT
	 POIN2	gourmetrace_6_004
// 055   ----------------------------------------
	BYTE	PATT
	 POIN2	gourmetrace_6_005
// 056   ----------------------------------------
	BYTE	PATT
	 POIN2	gourmetrace_6_006
// 057   ----------------------------------------
	BYTE	PATT
	 POIN2	gourmetrace_6_007
// 058   ----------------------------------------
	BYTE	PATT
	 POIN2	gourmetrace_6_008
// 059   ----------------------------------------
	BYTE	PATT
	 POIN2	gourmetrace_6_009
// 060   ----------------------------------------
	BYTE	PATT
	 POIN2	gourmetrace_6_010
// 061   ----------------------------------------
	BYTE	PATT
	 POIN2	gourmetrace_6_011
// 062   ----------------------------------------
	BYTE	PATT
	 POIN2	gourmetrace_6_012
// 063   ----------------------------------------
	BYTE	PATT
	 POIN2	gourmetrace_6_013
// 064   ----------------------------------------
	BYTE	PATT
	 POIN2	gourmetrace_6_014
// 065   ----------------------------------------
	BYTE	PATT
	 POIN2	gourmetrace_6_015
// 066   ----------------------------------------
	BYTE	PATT
	 POIN2	gourmetrace_6_016
// 067   ----------------------------------------
	BYTE	PATT
	 POIN2	gourmetrace_6_017
// 068   ----------------------------------------
	BYTE	PATT
	 POIN2	gourmetrace_6_018
// 069   ----------------------------------------
	BYTE	PATT
	 POIN2	gourmetrace_6_019
// 070   ----------------------------------------
	BYTE	PATT
	 POIN2	gourmetrace_6_020
// 071   ----------------------------------------
	BYTE	PATT
	 POIN2	gourmetrace_6_021
// 072   ----------------------------------------
	BYTE	PATT
	 POIN2	gourmetrace_6_022
// 073   ----------------------------------------
	BYTE	PATT
	 POIN2	gourmetrace_6_023
// 074   ----------------------------------------
	BYTE	PATT
	 POIN2	gourmetrace_6_024
// 075   ----------------------------------------
	BYTE	PATT
	 POIN2	gourmetrace_6_025
// 076   ----------------------------------------
	BYTE	PATT
	 POIN2	gourmetrace_6_026
// 077   ----------------------------------------
	BYTE	PATT
	 POIN2	gourmetrace_6_027
// 078   ----------------------------------------
	BYTE	PATT
	 POIN2	gourmetrace_6_028
// 079   ----------------------------------------
	BYTE	PATT
	 POIN2	gourmetrace_6_029
// 080   ----------------------------------------
	BYTE	PATT
	 POIN2	gourmetrace_6_030
// 081   ----------------------------------------
	BYTE	PATT
	 POIN2	gourmetrace_6_031
// 082   ----------------------------------------
	BYTE	PATT
	 POIN2	gourmetrace_6_032
// 083   ----------------------------------------
	BYTE	PATT
	 POIN2	gourmetrace_6_033
// 084   ----------------------------------------
	BYTE	PATT
	 POIN2	gourmetrace_6_034
// 085   ----------------------------------------
	BYTE	PATT
	 POIN2	gourmetrace_6_035
// 086   ----------------------------------------
	BYTE	PATT
	 POIN2	gourmetrace_6_036
// 087   ----------------------------------------
	BYTE	PATT
	 POIN2	gourmetrace_6_037
// 088   ----------------------------------------
	BYTE	PATT
	 POIN2	gourmetrace_6_038
// 089   ----------------------------------------
	BYTE	PATT
	 POIN2	gourmetrace_6_039
// 090   ----------------------------------------
	BYTE	PATT
	 POIN2	gourmetrace_6_040
// 091   ----------------------------------------
	BYTE	PATT
	 POIN2	gourmetrace_6_041
// 092   ----------------------------------------
	BYTE	PATT
	 POIN2	gourmetrace_6_042
// 093   ----------------------------------------
	BYTE	PATT
	 POIN2	gourmetrace_6_043
// 094   ----------------------------------------
	BYTE	PATT
	 POIN2	gourmetrace_6_044
// 095   ----------------------------------------
	BYTE	PATT
	 POIN2	gourmetrace_6_045
// 096   ----------------------------------------
	BYTE	PATT
	 POIN2	gourmetrace_6_046
// 097   ----------------------------------------
	BYTE	PATT
	 POIN2	gourmetrace_6_047
// 098   ----------------------------------------
	BYTE	PATT
	 POIN2	gourmetrace_6_048
// 099   ----------------------------------------
	BYTE	PATT
	 POIN2	gourmetrace_6_049
// 100   ----------------------------------------
	BYTE	W96
// 101   ----------------------------------------
	BYTE	W96
// 102   ----------------------------------------
	BYTE	PATT
	 POIN2	gourmetrace_6_002
// 103   ----------------------------------------
	BYTE	PATT
	 POIN2	gourmetrace_6_003
// 104   ----------------------------------------
	BYTE	PATT
	 POIN2	gourmetrace_6_004
// 105   ----------------------------------------
	BYTE	PATT
	 POIN2	gourmetrace_6_005
// 106   ----------------------------------------
	BYTE	PATT
	 POIN2	gourmetrace_6_006
// 107   ----------------------------------------
	BYTE	PATT
	 POIN2	gourmetrace_6_007
// 108   ----------------------------------------
	BYTE	PATT
	 POIN2	gourmetrace_6_008
// 109   ----------------------------------------
	BYTE	PATT
	 POIN2	gourmetrace_6_009
// 110   ----------------------------------------
	BYTE	PATT
	 POIN2	gourmetrace_6_010
// 111   ----------------------------------------
	BYTE	PATT
	 POIN2	gourmetrace_6_011
// 112   ----------------------------------------
	BYTE	PATT
	 POIN2	gourmetrace_6_012
// 113   ----------------------------------------
	BYTE	PATT
	 POIN2	gourmetrace_6_013
// 114   ----------------------------------------
	BYTE	PATT
	 POIN2	gourmetrace_6_014
// 115   ----------------------------------------
	BYTE	PATT
	 POIN2	gourmetrace_6_015
// 116   ----------------------------------------
	BYTE	PATT
	 POIN2	gourmetrace_6_016
// 117   ----------------------------------------
	BYTE	PATT
	 POIN2	gourmetrace_6_017
// 118   ----------------------------------------
	BYTE	PATT
	 POIN2	gourmetrace_6_018
// 119   ----------------------------------------
	BYTE	PATT
	 POIN2	gourmetrace_6_019
// 120   ----------------------------------------
	BYTE	PATT
	 POIN2	gourmetrace_6_020
// 121   ----------------------------------------
	BYTE	PATT
	 POIN2	gourmetrace_6_021
// 122   ----------------------------------------
	BYTE	PATT
	 POIN2	gourmetrace_6_022
// 123   ----------------------------------------
	BYTE	PATT
	 POIN2	gourmetrace_6_023
// 124   ----------------------------------------
	BYTE	PATT
	 POIN2	gourmetrace_6_024
// 125   ----------------------------------------
	BYTE	PATT
	 POIN2	gourmetrace_6_025
// 126   ----------------------------------------
	BYTE	PATT
	 POIN2	gourmetrace_6_026
// 127   ----------------------------------------
	BYTE	PATT
	 POIN2	gourmetrace_6_027
// 128   ----------------------------------------
	BYTE	PATT
	 POIN2	gourmetrace_6_028
// 129   ----------------------------------------
	BYTE	PATT
	 POIN2	gourmetrace_6_029
// 130   ----------------------------------------
	BYTE	PATT
	 POIN2	gourmetrace_6_030
// 131   ----------------------------------------
	BYTE	PATT
	 POIN2	gourmetrace_6_031
// 132   ----------------------------------------
	BYTE	PATT
	 POIN2	gourmetrace_6_032
// 133   ----------------------------------------
	BYTE	PATT
	 POIN2	gourmetrace_6_033
// 134   ----------------------------------------
	BYTE	PATT
	 POIN2	gourmetrace_6_034
// 135   ----------------------------------------
	BYTE	PATT
	 POIN2	gourmetrace_6_035
// 136   ----------------------------------------
	BYTE	PATT
	 POIN2	gourmetrace_6_036
// 137   ----------------------------------------
	BYTE	PATT
	 POIN2	gourmetrace_6_037
// 138   ----------------------------------------
	BYTE	PATT
	 POIN2	gourmetrace_6_038
// 139   ----------------------------------------
	BYTE	PATT
	 POIN2	gourmetrace_6_039
// 140   ----------------------------------------
	BYTE	PATT
	 POIN2	gourmetrace_6_040
// 141   ----------------------------------------
	BYTE	PATT
	 POIN2	gourmetrace_6_041
// 142   ----------------------------------------
	BYTE	PATT
	 POIN2	gourmetrace_6_042
// 143   ----------------------------------------
	BYTE	PATT
	 POIN2	gourmetrace_6_043
// 144   ----------------------------------------
	BYTE	PATT
	 POIN2	gourmetrace_6_044
// 145   ----------------------------------------
	BYTE	PATT
	 POIN2	gourmetrace_6_045
// 146   ----------------------------------------
	BYTE	PATT
	 POIN2	gourmetrace_6_046
// 147   ----------------------------------------
	BYTE	PATT
	 POIN2	gourmetrace_6_047
// 148   ----------------------------------------
	BYTE	PATT
	 POIN2	gourmetrace_6_048
// 149   ----------------------------------------
	BYTE	PATT
	 POIN2	gourmetrace_6_049
// 150   ----------------------------------------
	BYTE	W96
// 151   ----------------------------------------
	BYTE	W96
// 152   ----------------------------------------
	BYTE	PATT
	 POIN2	gourmetrace_6_002
// 153   ----------------------------------------
	BYTE	PATT
	 POIN2	gourmetrace_6_003
// 154   ----------------------------------------
	BYTE	PATT
	 POIN2	gourmetrace_6_004
// 155   ----------------------------------------
	BYTE	PATT
	 POIN2	gourmetrace_6_005
// 156   ----------------------------------------
	BYTE	PATT
	 POIN2	gourmetrace_6_006
// 157   ----------------------------------------
	BYTE	PATT
	 POIN2	gourmetrace_6_007
// 158   ----------------------------------------
	BYTE	PATT
	 POIN2	gourmetrace_6_008
// 159   ----------------------------------------
	BYTE	PATT
	 POIN2	gourmetrace_6_009
// 160   ----------------------------------------
	BYTE	PATT
	 POIN2	gourmetrace_6_010
// 161   ----------------------------------------
	BYTE	PATT
	 POIN2	gourmetrace_6_011
// 162   ----------------------------------------
	BYTE	PATT
	 POIN2	gourmetrace_6_012
// 163   ----------------------------------------
	BYTE	PATT
	 POIN2	gourmetrace_6_013
// 164   ----------------------------------------
	BYTE	PATT
	 POIN2	gourmetrace_6_014
// 165   ----------------------------------------
	BYTE	PATT
	 POIN2	gourmetrace_6_015
// 166   ----------------------------------------
	BYTE	PATT
	 POIN2	gourmetrace_6_016
// 167   ----------------------------------------
	BYTE	PATT
	 POIN2	gourmetrace_6_017
// 168   ----------------------------------------
	BYTE	PATT
	 POIN2	gourmetrace_6_018
// 169   ----------------------------------------
	BYTE	PATT
	 POIN2	gourmetrace_6_019
// 170   ----------------------------------------
	BYTE	PATT
	 POIN2	gourmetrace_6_020
// 171   ----------------------------------------
	BYTE	PATT
	 POIN2	gourmetrace_6_021
// 172   ----------------------------------------
	BYTE	PATT
	 POIN2	gourmetrace_6_022
// 173   ----------------------------------------
	BYTE	PATT
	 POIN2	gourmetrace_6_023
// 174   ----------------------------------------
	BYTE	PATT
	 POIN2	gourmetrace_6_024
// 175   ----------------------------------------
	BYTE	PATT
	 POIN2	gourmetrace_6_025
// 176   ----------------------------------------
	BYTE	PATT
	 POIN2	gourmetrace_6_026
// 177   ----------------------------------------
	BYTE	PATT
	 POIN2	gourmetrace_6_027
// 178   ----------------------------------------
	BYTE	PATT
	 POIN2	gourmetrace_6_028
// 179   ----------------------------------------
	BYTE	PATT
	 POIN2	gourmetrace_6_029
// 180   ----------------------------------------
	BYTE	PATT
	 POIN2	gourmetrace_6_030
// 181   ----------------------------------------
	BYTE	PATT
	 POIN2	gourmetrace_6_031
// 182   ----------------------------------------
	BYTE	PATT
	 POIN2	gourmetrace_6_032
// 183   ----------------------------------------
	BYTE	PATT
	 POIN2	gourmetrace_6_033
// 184   ----------------------------------------
	BYTE	PATT
	 POIN2	gourmetrace_6_034
// 185   ----------------------------------------
	BYTE	PATT
	 POIN2	gourmetrace_6_035
// 186   ----------------------------------------
	BYTE	PATT
	 POIN2	gourmetrace_6_036
// 187   ----------------------------------------
	BYTE	PATT
	 POIN2	gourmetrace_6_037
// 188   ----------------------------------------
	BYTE	PATT
	 POIN2	gourmetrace_6_038
// 189   ----------------------------------------
	BYTE	PATT
	 POIN2	gourmetrace_6_039
// 190   ----------------------------------------
	BYTE	PATT
	 POIN2	gourmetrace_6_040
// 191   ----------------------------------------
	BYTE	PATT
	 POIN2	gourmetrace_6_041
// 192   ----------------------------------------
	BYTE	PATT
	 POIN2	gourmetrace_6_042
// 193   ----------------------------------------
	BYTE	PATT
	 POIN2	gourmetrace_6_043
// 194   ----------------------------------------
	BYTE	PATT
	 POIN2	gourmetrace_6_044
// 195   ----------------------------------------
	BYTE	PATT
	 POIN2	gourmetrace_6_045
// 196   ----------------------------------------
	BYTE	PATT
	 POIN2	gourmetrace_6_046
// 197   ----------------------------------------
	BYTE	PATT
	 POIN2	gourmetrace_6_047
// 198   ----------------------------------------
	BYTE	PATT
	 POIN2	gourmetrace_6_048
// 199   ----------------------------------------
	BYTE	W08
	BYTE		N14     Gn2   v084
	BYTE		N13     Bn2   v076
	BYTE		N12     Dn3   v084
	BYTE	W24
	BYTE	W01
	BYTE		N04     Gn2   v092
	BYTE		N05     Bn2   v088
	BYTE		N05     Dn3   v100
	BYTE	W11
	BYTE		N18     Gn2   v104
	BYTE	W01
	BYTE		        Bn2   v108
	BYTE		N15     Dn3   v100
	BYTE	W18
	BYTE	FINE

//**************** Track 7 (Midi-Chn.10) ****************//

gourmetrace_7:
	BYTE	KEYSH   gourmetrace_key+0
// 000   ----------------------------------------
	BYTE		VOICE   126
	BYTE		VOL     127*gourmetrace_mvl/mxv
	BYTE		PAN     c_v+0
	BYTE	W01
	BYTE		N08     Cn1   v116
	BYTE		N06     An2   v108
	BYTE	W22
	BYTE		N10     En1   v116
	BYTE	W23
	BYTE		N06     An2   v108
	BYTE	W01
	BYTE		N08     Cn1   v112
	BYTE	W22
	BYTE		N09     En1 
	BYTE	W24
	BYTE	W01
	BYTE		N07     Cn1   v108
	BYTE		N06     An2 
	BYTE	W02
// 001   ----------------------------------------
gourmetrace_7_001:
	BYTE	W21
	BYTE		N07     Cn1   v112
	BYTE		N06     An2   v108
	BYTE	W23
	BYTE		N06   
	BYTE	W01
	BYTE		N08     Cn1   v112
	BYTE	W48
	BYTE	W02
	BYTE		N08   
	BYTE	W01
	BYTE	PEND
// 002   ----------------------------------------
gourmetrace_7_002:
	BYTE	W24
	BYTE		N08     En1   v116
	BYTE	W24
	BYTE	W01
	BYTE		N10     Cn1   v108
	BYTE	W22
	BYTE		N08     En1   v112
	BYTE	W24
	BYTE		N09     Cn1 
	BYTE	W01
	BYTE	PEND
// 003   ----------------------------------------
gourmetrace_7_003:
	BYTE	W23
	BYTE		N08     En1   v112
	BYTE	W23
	BYTE		N09     Cn1 
	BYTE	W24
	BYTE		N10     En1   v108
	BYTE	W24
	BYTE	W01
	BYTE		        Cn1 
	BYTE	W01
	BYTE	PEND
// 004   ----------------------------------------
gourmetrace_7_004:
	BYTE	W22
	BYTE		N10     En1   v100
	BYTE	W24
	BYTE		        Cn1   v108
	BYTE	W23
	BYTE		N11     En1 
	BYTE	W24
	BYTE		N10     Cn1 
	BYTE	W03
	BYTE	PEND
// 005   ----------------------------------------
gourmetrace_7_005:
	BYTE	W32
	BYTE	W02
	BYTE		N01     En1   v112
	BYTE	W12
	BYTE		N10     Cn1 
	BYTE	W22
	BYTE		        En1   v108
	BYTE	W22
	BYTE		        Cn1   v112
	BYTE	W06
	BYTE	PEND
// 006   ----------------------------------------
gourmetrace_7_006:
	BYTE	W19
	BYTE		N11     En1   v116
	BYTE	W24
	BYTE	W01
	BYTE		        Cn1   v112
	BYTE	W24
	BYTE		N10     En1 
	BYTE	W24
	BYTE	W02
	BYTE		        Cn1   v116
	BYTE	W02
	BYTE	PEND
// 007   ----------------------------------------
gourmetrace_7_007:
	BYTE	W21
	BYTE		N10     En1   v108
	BYTE	W24
	BYTE	W01
	BYTE		N11     Cn1 
	BYTE	W23
	BYTE		N09     En1   v116
	BYTE	W22
	BYTE		N11     Cn1 
	BYTE	W05
	BYTE	PEND
// 008   ----------------------------------------
gourmetrace_7_008:
	BYTE	W20
	BYTE		N10     En1   v112
	BYTE	W24
	BYTE	W01
	BYTE		        Cn1 
	BYTE	W23
	BYTE		        En1 
	BYTE	W24
	BYTE		        Cn1   v108
	BYTE	W04
	BYTE	PEND
// 009   ----------------------------------------
gourmetrace_7_009:
	BYTE	W20
	BYTE		N09     En1   v116
	BYTE	W24
	BYTE		N11     Cn1   v112
	BYTE	W24
	BYTE	W01
	BYTE		N09     En1   v120
	BYTE	W24
	BYTE	W01
	BYTE		N11     Cn1   v112
	BYTE	W02
	BYTE	PEND
// 010   ----------------------------------------
gourmetrace_7_010:
	BYTE	W22
	BYTE		N09     En1   v116
	BYTE	W24
	BYTE		N10     Cn1 
	BYTE	W24
	BYTE		N11     En1 
	BYTE	W23
	BYTE		        Cn1 
	BYTE	W03
	BYTE	PEND
// 011   ----------------------------------------
gourmetrace_7_011:
	BYTE	W20
	BYTE		N09     En1   v116
	BYTE	W24
	BYTE	W02
	BYTE		N10     Cn1   v108
	BYTE	W24
	BYTE		N09     En1   v112
	BYTE	W24
	BYTE	W01
	BYTE		N10     Cn1   v120
	BYTE	W01
	BYTE	PEND
// 012   ----------------------------------------
gourmetrace_7_012:
	BYTE	W22
	BYTE		N09     En1   v112
	BYTE	W23
	BYTE		        Cn1   v108
	BYTE	W24
	BYTE		        En1   v112
	BYTE	W23
	BYTE		N10     Cn1   v108
	BYTE	W04
	BYTE	PEND
// 013   ----------------------------------------
gourmetrace_7_013:
	BYTE	W21
	BYTE		N10     En1   v112
	BYTE	W24
	BYTE	W01
	BYTE		        Cn1   v108
	BYTE	W24
	BYTE	W01
	BYTE		N09     En1   v112
	BYTE	W23
	BYTE		N10     Cn1   v108
	BYTE	W02
	BYTE	PEND
// 014   ----------------------------------------
gourmetrace_7_014:
	BYTE	W22
	BYTE		N09     En1   v112
	BYTE	W24
	BYTE	W02
	BYTE		N10     Cn1   v108
	BYTE	W23
	BYTE		        En1   v112
	BYTE	W23
	BYTE		        Cn1   v108
	BYTE	W02
	BYTE	PEND
// 015   ----------------------------------------
gourmetrace_7_015:
	BYTE	W21
	BYTE		N09     En1   v116
	BYTE	W23
	BYTE		N10     Cn1   v108
	BYTE	W24
	BYTE		N09     En1   v112
	BYTE	W24
	BYTE		N10     Cn1 
	BYTE	W04
	BYTE	PEND
// 016   ----------------------------------------
gourmetrace_7_016:
	BYTE	W20
	BYTE		N09     En1   v112
	BYTE	W24
	BYTE		N10     Cn1   v108
	BYTE	W23
	BYTE		        En1   v112
	BYTE	W24
	BYTE	W01
	BYTE		N09     Cn1   v108
	BYTE	W04
	BYTE	PEND
// 017   ----------------------------------------
gourmetrace_7_017:
	BYTE	W21
	BYTE		N10     En1   v116
	BYTE	W24
	BYTE	W01
	BYTE		        Cn1   v108
	BYTE	W22
	BYTE		N09     En1   v120
	BYTE	W24
	BYTE		        Cn1   v112
	BYTE	W04
	BYTE	PEND
// 018   ----------------------------------------
gourmetrace_7_018:
	BYTE	W19
	BYTE		N09     En1   v116
	BYTE	W24
	BYTE	W02
	BYTE		        Cn1   v108
	BYTE	W23
	BYTE		N10     En1   v112
	BYTE	W24
	BYTE	W01
	BYTE		N11     Cn1 
	BYTE	W03
	BYTE	PEND
// 019   ----------------------------------------
gourmetrace_7_019:
	BYTE	W21
	BYTE		N10     En1   v108
	BYTE	W24
	BYTE	W01
	BYTE		N11     Cn1   v112
	BYTE	W23
	BYTE		N10     En1   v116
	BYTE	W24
	BYTE		        Cn1   v112
	BYTE	W03
	BYTE	PEND
// 020   ----------------------------------------
gourmetrace_7_020:
	BYTE	W20
	BYTE		N09     En1   v112
	BYTE	W24
	BYTE		N10     Cn1   v108
	BYTE	W23
	BYTE		        En1   v116
	BYTE	W24
	BYTE		        Cn1   v112
	BYTE	W05
	BYTE	PEND
// 021   ----------------------------------------
gourmetrace_7_021:
	BYTE	W20
	BYTE		N10     En1   v120
	BYTE	W24
	BYTE		        Cn1   v112
	BYTE	W24
	BYTE		        En1   v116
	BYTE	W24
	BYTE		        Cn1   v112
	BYTE	W04
	BYTE	PEND
// 022   ----------------------------------------
gourmetrace_7_022:
	BYTE	W21
	BYTE		N09     En1   v112
	BYTE	W23
	BYTE		N10     Cn1 
	BYTE	W23
	BYTE		N09     En1   v116
	BYTE	W23
	BYTE		N10     Cn1   v112
	BYTE	W06
	BYTE	PEND
// 023   ----------------------------------------
gourmetrace_7_023:
	BYTE	W18
	BYTE		N12     En1   v112
	BYTE	W24
	BYTE		N11     Cn1 
	BYTE	W24
	BYTE		N09     En1   v108
	BYTE	W24
	BYTE	W01
	BYTE		        Cn1 
	BYTE	W05
	BYTE	PEND
// 024   ----------------------------------------
gourmetrace_7_024:
	BYTE	W17
	BYTE		N10     En1   v112
	BYTE	W24
	BYTE	W02
	BYTE		        Cn1   v108
	BYTE	W24
	BYTE	W01
	BYTE		        En1 
	BYTE	W24
	BYTE	W01
	BYTE		        Cn1 
	BYTE	W03
	BYTE	PEND
// 025   ----------------------------------------
gourmetrace_7_025:
	BYTE	W21
	BYTE		N11     En1   v108
	BYTE	W23
	BYTE		N10     Cn1   v100
	BYTE	W24
	BYTE	W01
	BYTE		N11     En1   v112
	BYTE	W23
	BYTE		        Cn1   v108
	BYTE	W04
	BYTE	PEND
// 026   ----------------------------------------
gourmetrace_7_026:
	BYTE	W21
	BYTE		N10     En1   v108
	BYTE	W24
	BYTE		N12     Cn1 
	BYTE	W22
	BYTE		N11     En1 
	BYTE	W24
	BYTE	W02
	BYTE		        Cn1   v116
	BYTE	W03
	BYTE	PEND
// 027   ----------------------------------------
gourmetrace_7_027:
	BYTE	W21
	BYTE		N11     En1   v108
	BYTE	W24
	BYTE		N10     Cn1   v112
	BYTE	W23
	BYTE		        En1 
	BYTE	W24
	BYTE		        Cn1   v108
	BYTE	W04
	BYTE	PEND
// 028   ----------------------------------------
gourmetrace_7_028:
	BYTE	W19
	BYTE		N10     En1   v108
	BYTE	W24
	BYTE		N11     Cn1   v112
	BYTE	W23
	BYTE		N10     En1 
	BYTE	W24
	BYTE	W01
	BYTE		N11     Cn1 
	BYTE	W05
	BYTE	PEND
// 029   ----------------------------------------
gourmetrace_7_029:
	BYTE	W19
	BYTE		N11     En1   v112
	BYTE	W24
	BYTE	W01
	BYTE		        Cn1   v108
	BYTE	W23
	BYTE		N10     En1 
	BYTE	W24
	BYTE		        Cn1   v112
	BYTE	W05
	BYTE	PEND
// 030   ----------------------------------------
gourmetrace_7_030:
	BYTE	W20
	BYTE		N09     En1   v112
	BYTE	W24
	BYTE	W01
	BYTE		N10     Cn1   v108
	BYTE	W24
	BYTE		N09     En1   v112
	BYTE	W23
	BYTE		N11     Cn1   v108
	BYTE	W04
	BYTE	PEND
// 031   ----------------------------------------
gourmetrace_7_031:
	BYTE	W21
	BYTE		N10     En1   v108
	BYTE	W24
	BYTE		N12     Cn1 
	BYTE	W24
	BYTE		N11     En1 
	BYTE	W24
	BYTE		        Cn1 
	BYTE	W03
	BYTE	PEND
// 032   ----------------------------------------
gourmetrace_7_032:
	BYTE	W20
	BYTE		N07     En1   v108
	BYTE	W23
	BYTE		N09     Cn1   v100
	BYTE	W23
	BYTE		N10     En1   v112
	BYTE	W24
	BYTE	W02
	BYTE		        Cn1 
	BYTE	W04
	BYTE	PEND
// 033   ----------------------------------------
gourmetrace_7_033:
	BYTE	W22
	BYTE		N10     En1   v120
	BYTE	W24
	BYTE		N07     Cn1   v112
	BYTE	W20
	BYTE		        Cn1   v108
	BYTE		N06     Bn2   v116
	BYTE	W24
	BYTE	W01
	BYTE		N08     Cn1   v108
	BYTE	W05
	BYTE	PEND
// 034   ----------------------------------------
gourmetrace_7_034:
	BYTE	W18
	BYTE		N10     En1   v112
	BYTE	W24
	BYTE	W01
	BYTE		N09     Cn1 
	BYTE	W24
	BYTE	W01
	BYTE		N10     En1   v120
	BYTE	W24
	BYTE	W01
	BYTE		N09     Cn1   v116
	BYTE	W03
	BYTE	PEND
// 035   ----------------------------------------
gourmetrace_7_035:
	BYTE	W20
	BYTE		N11     En1   v112
	BYTE	W24
	BYTE	W01
	BYTE		N09     Cn1 
	BYTE	W22
	BYTE		N07     En1 
	BYTE	W24
	BYTE	W02
	BYTE		N09     Cn1   v104
	BYTE	W03
	BYTE	PEND
// 036   ----------------------------------------
gourmetrace_7_036:
	BYTE	W18
	BYTE		N08     En1   v108
	BYTE	W23
	BYTE		        Cn1   v112
	BYTE	W24
	BYTE	W01
	BYTE		        En1   v116
	BYTE	W24
	BYTE	W03
	BYTE		N09     Cn1   v112
	BYTE	W03
	BYTE	PEND
// 037   ----------------------------------------
gourmetrace_7_037:
	BYTE	W21
	BYTE		N09     En1   v112
	BYTE	W24
	BYTE		        Cn1   v104
	BYTE	W24
	BYTE		        En1   v108
	BYTE	W24
	BYTE	W01
	BYTE		N10     Cn1 
	BYTE	W02
	BYTE	PEND
// 038   ----------------------------------------
gourmetrace_7_038:
	BYTE	W21
	BYTE		N09     En1   v108
	BYTE	W24
	BYTE	W01
	BYTE		N10     Cn1 
	BYTE	W21
	BYTE		N09     En1   v116
	BYTE	W24
	BYTE	W02
	BYTE		N10     Cn1   v112
	BYTE	W03
	BYTE	PEND
// 039   ----------------------------------------
gourmetrace_7_039:
	BYTE	W20
	BYTE		N09     En1   v116
	BYTE	W24
	BYTE	W01
	BYTE		N10     Cn1   v108
	BYTE	W24
	BYTE		N09     En1   v112
	BYTE	W24
	BYTE		        Cn1   v108
	BYTE	W03
	BYTE	PEND
// 040   ----------------------------------------
gourmetrace_7_040:
	BYTE	W20
	BYTE		N09     En1   v112
	BYTE	W24
	BYTE	W01
	BYTE		N10     Cn1   v108
	BYTE	W22
	BYTE		        En1   v116
	BYTE	W21
	BYTE		        Cn1   v104
	BYTE	W08
	BYTE	PEND
// 041   ----------------------------------------
gourmetrace_7_041:
	BYTE	W18
	BYTE		N11     En1   v108
	BYTE	W24
	BYTE	W02
	BYTE		        Cn1 
	BYTE	W24
	BYTE		N08     En1 
	BYTE	W24
	BYTE	W01
	BYTE		N09     Cn1 
	BYTE	W03
	BYTE	PEND
// 042   ----------------------------------------
gourmetrace_7_042:
	BYTE	W21
	BYTE		N08     En1   v108
	BYTE	W23
	BYTE		N09     Cn1 
	BYTE	W22
	BYTE		        En1   v112
	BYTE	W24
	BYTE	W02
	BYTE		        Cn1   v108
	BYTE	W04
	BYTE	PEND
// 043   ----------------------------------------
gourmetrace_7_043:
	BYTE	W21
	BYTE		N08     En1   v116
	BYTE	W24
	BYTE		N10     Cn1   v108
	BYTE	W24
	BYTE	W01
	BYTE		N08     En1 
	BYTE	W24
	BYTE		        Cn1   v112
	BYTE	W02
	BYTE	PEND
// 044   ----------------------------------------
gourmetrace_7_044:
	BYTE	W21
	BYTE		N07     En1   v108
	BYTE	W24
	BYTE		N09     Cn1   v112
	BYTE	W22
	BYTE		N08     En1 
	BYTE	W24
	BYTE	W01
	BYTE		N09     Cn1   v108
	BYTE	W04
	BYTE	PEND
// 045   ----------------------------------------
gourmetrace_7_045:
	BYTE	W20
	BYTE		N08     En1   v108
	BYTE	W24
	BYTE	W01
	BYTE		N10     Cn1   v120
	BYTE	W24
	BYTE	W01
	BYTE		N08     En1   v112
	BYTE	W23
	BYTE		N09     Cn1   v108
	BYTE	W03
	BYTE	PEND
// 046   ----------------------------------------
gourmetrace_7_046:
	BYTE	W20
	BYTE		N08     En1   v112
	BYTE	W24
	BYTE	W01
	BYTE		N09     Cn1   v108
	BYTE	W22
	BYTE		        En1 
	BYTE	W24
	BYTE		N10     Cn1   v112
	BYTE	W05
	BYTE	PEND
// 047   ----------------------------------------
gourmetrace_7_047:
	BYTE	W19
	BYTE		N09     En1   v108
	BYTE	W23
	BYTE		N10     Cn1   v116
	BYTE	W24
	BYTE	W01
	BYTE		        En1   v108
	BYTE	W24
	BYTE		        Cn1 
	BYTE	W05
	BYTE	PEND
// 048   ----------------------------------------
gourmetrace_7_048:
	BYTE	W18
	BYTE		N09     En1   v112
	BYTE	W24
	BYTE		N12     Cn1   v116
	BYTE	W23
	BYTE		N10     En1   v108
	BYTE	W24
	BYTE		        Cn1 
	BYTE	W07
	BYTE	PEND
// 049   ----------------------------------------
gourmetrace_7_049:
	BYTE	W19
	BYTE		N08     En1   v108
	BYTE	W24
	BYTE		N10     Cn1   v112
	BYTE	W24
	BYTE	W02
	BYTE		N07     Cn1   v120
	BYTE	W24
	BYTE	W03
	BYTE	PEND
// 050   ----------------------------------------
gourmetrace_7_050:
	BYTE	W01
	BYTE		N08     Cn1   v116
	BYTE		N06     An2   v108
	BYTE	W22
	BYTE		N10     En1   v116
	BYTE	W23
	BYTE		N06     An2   v108
	BYTE	W01
	BYTE		N08     Cn1   v112
	BYTE	W22
	BYTE		N09     En1 
	BYTE	W24
	BYTE	W01
	BYTE		N07     Cn1   v108
	BYTE		N06     An2 
	BYTE	W02
	BYTE	PEND
// 051   ----------------------------------------
	BYTE	PATT
	 POIN2	gourmetrace_7_001
// 052   ----------------------------------------
	BYTE	PATT
	 POIN2	gourmetrace_7_002
// 053   ----------------------------------------
	BYTE	PATT
	 POIN2	gourmetrace_7_003
// 054   ----------------------------------------
	BYTE	PATT
	 POIN2	gourmetrace_7_004
// 055   ----------------------------------------
	BYTE	PATT
	 POIN2	gourmetrace_7_005
// 056   ----------------------------------------
	BYTE	PATT
	 POIN2	gourmetrace_7_006
// 057   ----------------------------------------
	BYTE	PATT
	 POIN2	gourmetrace_7_007
// 058   ----------------------------------------
	BYTE	PATT
	 POIN2	gourmetrace_7_008
// 059   ----------------------------------------
	BYTE	PATT
	 POIN2	gourmetrace_7_009
// 060   ----------------------------------------
	BYTE	PATT
	 POIN2	gourmetrace_7_010
// 061   ----------------------------------------
	BYTE	PATT
	 POIN2	gourmetrace_7_011
// 062   ----------------------------------------
	BYTE	PATT
	 POIN2	gourmetrace_7_012
// 063   ----------------------------------------
	BYTE	PATT
	 POIN2	gourmetrace_7_013
// 064   ----------------------------------------
	BYTE	PATT
	 POIN2	gourmetrace_7_014
// 065   ----------------------------------------
	BYTE	PATT
	 POIN2	gourmetrace_7_015
// 066   ----------------------------------------
	BYTE	PATT
	 POIN2	gourmetrace_7_016
// 067   ----------------------------------------
	BYTE	PATT
	 POIN2	gourmetrace_7_017
// 068   ----------------------------------------
	BYTE	PATT
	 POIN2	gourmetrace_7_018
// 069   ----------------------------------------
	BYTE	PATT
	 POIN2	gourmetrace_7_019
// 070   ----------------------------------------
	BYTE	PATT
	 POIN2	gourmetrace_7_020
// 071   ----------------------------------------
	BYTE	PATT
	 POIN2	gourmetrace_7_021
// 072   ----------------------------------------
	BYTE	PATT
	 POIN2	gourmetrace_7_022
// 073   ----------------------------------------
	BYTE	PATT
	 POIN2	gourmetrace_7_023
// 074   ----------------------------------------
	BYTE	PATT
	 POIN2	gourmetrace_7_024
// 075   ----------------------------------------
	BYTE	PATT
	 POIN2	gourmetrace_7_025
// 076   ----------------------------------------
	BYTE	PATT
	 POIN2	gourmetrace_7_026
// 077   ----------------------------------------
	BYTE	PATT
	 POIN2	gourmetrace_7_027
// 078   ----------------------------------------
	BYTE	PATT
	 POIN2	gourmetrace_7_028
// 079   ----------------------------------------
	BYTE	PATT
	 POIN2	gourmetrace_7_029
// 080   ----------------------------------------
	BYTE	PATT
	 POIN2	gourmetrace_7_030
// 081   ----------------------------------------
	BYTE	PATT
	 POIN2	gourmetrace_7_031
// 082   ----------------------------------------
	BYTE	PATT
	 POIN2	gourmetrace_7_032
// 083   ----------------------------------------
	BYTE	PATT
	 POIN2	gourmetrace_7_033
// 084   ----------------------------------------
	BYTE	PATT
	 POIN2	gourmetrace_7_034
// 085   ----------------------------------------
	BYTE	PATT
	 POIN2	gourmetrace_7_035
// 086   ----------------------------------------
	BYTE	PATT
	 POIN2	gourmetrace_7_036
// 087   ----------------------------------------
	BYTE	PATT
	 POIN2	gourmetrace_7_037
// 088   ----------------------------------------
	BYTE	PATT
	 POIN2	gourmetrace_7_038
// 089   ----------------------------------------
	BYTE	PATT
	 POIN2	gourmetrace_7_039
// 090   ----------------------------------------
	BYTE	PATT
	 POIN2	gourmetrace_7_040
// 091   ----------------------------------------
	BYTE	PATT
	 POIN2	gourmetrace_7_041
// 092   ----------------------------------------
	BYTE	PATT
	 POIN2	gourmetrace_7_042
// 093   ----------------------------------------
	BYTE	PATT
	 POIN2	gourmetrace_7_043
// 094   ----------------------------------------
	BYTE	PATT
	 POIN2	gourmetrace_7_044
// 095   ----------------------------------------
	BYTE	PATT
	 POIN2	gourmetrace_7_045
// 096   ----------------------------------------
	BYTE	PATT
	 POIN2	gourmetrace_7_046
// 097   ----------------------------------------
	BYTE	PATT
	 POIN2	gourmetrace_7_047
// 098   ----------------------------------------
	BYTE	PATT
	 POIN2	gourmetrace_7_048
// 099   ----------------------------------------
	BYTE	PATT
	 POIN2	gourmetrace_7_049
// 100   ----------------------------------------
	BYTE	PATT
	 POIN2	gourmetrace_7_050
// 101   ----------------------------------------
	BYTE	PATT
	 POIN2	gourmetrace_7_001
// 102   ----------------------------------------
	BYTE	PATT
	 POIN2	gourmetrace_7_002
// 103   ----------------------------------------
	BYTE	PATT
	 POIN2	gourmetrace_7_003
// 104   ----------------------------------------
	BYTE	PATT
	 POIN2	gourmetrace_7_004
// 105   ----------------------------------------
	BYTE	PATT
	 POIN2	gourmetrace_7_005
// 106   ----------------------------------------
	BYTE	PATT
	 POIN2	gourmetrace_7_006
// 107   ----------------------------------------
	BYTE	PATT
	 POIN2	gourmetrace_7_007
// 108   ----------------------------------------
	BYTE	PATT
	 POIN2	gourmetrace_7_008
// 109   ----------------------------------------
	BYTE	PATT
	 POIN2	gourmetrace_7_009
// 110   ----------------------------------------
	BYTE	PATT
	 POIN2	gourmetrace_7_010
// 111   ----------------------------------------
	BYTE	PATT
	 POIN2	gourmetrace_7_011
// 112   ----------------------------------------
	BYTE	PATT
	 POIN2	gourmetrace_7_012
// 113   ----------------------------------------
	BYTE	PATT
	 POIN2	gourmetrace_7_013
// 114   ----------------------------------------
	BYTE	PATT
	 POIN2	gourmetrace_7_014
// 115   ----------------------------------------
	BYTE	PATT
	 POIN2	gourmetrace_7_015
// 116   ----------------------------------------
	BYTE	PATT
	 POIN2	gourmetrace_7_016
// 117   ----------------------------------------
	BYTE	PATT
	 POIN2	gourmetrace_7_017
// 118   ----------------------------------------
	BYTE	PATT
	 POIN2	gourmetrace_7_018
// 119   ----------------------------------------
	BYTE	PATT
	 POIN2	gourmetrace_7_019
// 120   ----------------------------------------
	BYTE	PATT
	 POIN2	gourmetrace_7_020
// 121   ----------------------------------------
	BYTE	PATT
	 POIN2	gourmetrace_7_021
// 122   ----------------------------------------
	BYTE	PATT
	 POIN2	gourmetrace_7_022
// 123   ----------------------------------------
	BYTE	PATT
	 POIN2	gourmetrace_7_023
// 124   ----------------------------------------
	BYTE	PATT
	 POIN2	gourmetrace_7_024
// 125   ----------------------------------------
	BYTE	PATT
	 POIN2	gourmetrace_7_025
// 126   ----------------------------------------
	BYTE	PATT
	 POIN2	gourmetrace_7_026
// 127   ----------------------------------------
	BYTE	PATT
	 POIN2	gourmetrace_7_027
// 128   ----------------------------------------
	BYTE	PATT
	 POIN2	gourmetrace_7_028
// 129   ----------------------------------------
	BYTE	PATT
	 POIN2	gourmetrace_7_029
// 130   ----------------------------------------
	BYTE	PATT
	 POIN2	gourmetrace_7_030
// 131   ----------------------------------------
	BYTE	PATT
	 POIN2	gourmetrace_7_031
// 132   ----------------------------------------
	BYTE	PATT
	 POIN2	gourmetrace_7_032
// 133   ----------------------------------------
	BYTE	PATT
	 POIN2	gourmetrace_7_033
// 134   ----------------------------------------
	BYTE	PATT
	 POIN2	gourmetrace_7_034
// 135   ----------------------------------------
	BYTE	PATT
	 POIN2	gourmetrace_7_035
// 136   ----------------------------------------
	BYTE	PATT
	 POIN2	gourmetrace_7_036
// 137   ----------------------------------------
	BYTE	PATT
	 POIN2	gourmetrace_7_037
// 138   ----------------------------------------
	BYTE	PATT
	 POIN2	gourmetrace_7_038
// 139   ----------------------------------------
	BYTE	PATT
	 POIN2	gourmetrace_7_039
// 140   ----------------------------------------
	BYTE	PATT
	 POIN2	gourmetrace_7_040
// 141   ----------------------------------------
	BYTE	PATT
	 POIN2	gourmetrace_7_041
// 142   ----------------------------------------
	BYTE	PATT
	 POIN2	gourmetrace_7_042
// 143   ----------------------------------------
	BYTE	PATT
	 POIN2	gourmetrace_7_043
// 144   ----------------------------------------
	BYTE	PATT
	 POIN2	gourmetrace_7_044
// 145   ----------------------------------------
	BYTE	PATT
	 POIN2	gourmetrace_7_045
// 146   ----------------------------------------
	BYTE	PATT
	 POIN2	gourmetrace_7_046
// 147   ----------------------------------------
	BYTE	PATT
	 POIN2	gourmetrace_7_047
// 148   ----------------------------------------
	BYTE	PATT
	 POIN2	gourmetrace_7_048
// 149   ----------------------------------------
	BYTE	PATT
	 POIN2	gourmetrace_7_049
// 150   ----------------------------------------
	BYTE	PATT
	 POIN2	gourmetrace_7_050
// 151   ----------------------------------------
	BYTE	PATT
	 POIN2	gourmetrace_7_001
// 152   ----------------------------------------
	BYTE	PATT
	 POIN2	gourmetrace_7_002
// 153   ----------------------------------------
	BYTE	PATT
	 POIN2	gourmetrace_7_003
// 154   ----------------------------------------
	BYTE	PATT
	 POIN2	gourmetrace_7_004
// 155   ----------------------------------------
	BYTE	PATT
	 POIN2	gourmetrace_7_005
// 156   ----------------------------------------
	BYTE	PATT
	 POIN2	gourmetrace_7_006
// 157   ----------------------------------------
	BYTE	PATT
	 POIN2	gourmetrace_7_007
// 158   ----------------------------------------
	BYTE	PATT
	 POIN2	gourmetrace_7_008
// 159   ----------------------------------------
	BYTE	PATT
	 POIN2	gourmetrace_7_009
// 160   ----------------------------------------
	BYTE	PATT
	 POIN2	gourmetrace_7_010
// 161   ----------------------------------------
	BYTE	PATT
	 POIN2	gourmetrace_7_011
// 162   ----------------------------------------
	BYTE	PATT
	 POIN2	gourmetrace_7_012
// 163   ----------------------------------------
	BYTE	PATT
	 POIN2	gourmetrace_7_013
// 164   ----------------------------------------
	BYTE	PATT
	 POIN2	gourmetrace_7_014
// 165   ----------------------------------------
	BYTE	PATT
	 POIN2	gourmetrace_7_015
// 166   ----------------------------------------
	BYTE	PATT
	 POIN2	gourmetrace_7_016
// 167   ----------------------------------------
	BYTE	PATT
	 POIN2	gourmetrace_7_017
// 168   ----------------------------------------
	BYTE	PATT
	 POIN2	gourmetrace_7_018
// 169   ----------------------------------------
	BYTE	PATT
	 POIN2	gourmetrace_7_019
// 170   ----------------------------------------
	BYTE	PATT
	 POIN2	gourmetrace_7_020
// 171   ----------------------------------------
	BYTE	PATT
	 POIN2	gourmetrace_7_021
// 172   ----------------------------------------
	BYTE	PATT
	 POIN2	gourmetrace_7_022
// 173   ----------------------------------------
	BYTE	PATT
	 POIN2	gourmetrace_7_023
// 174   ----------------------------------------
	BYTE	PATT
	 POIN2	gourmetrace_7_024
// 175   ----------------------------------------
	BYTE	PATT
	 POIN2	gourmetrace_7_025
// 176   ----------------------------------------
	BYTE	PATT
	 POIN2	gourmetrace_7_026
// 177   ----------------------------------------
	BYTE	PATT
	 POIN2	gourmetrace_7_027
// 178   ----------------------------------------
	BYTE	PATT
	 POIN2	gourmetrace_7_028
// 179   ----------------------------------------
	BYTE	PATT
	 POIN2	gourmetrace_7_029
// 180   ----------------------------------------
	BYTE	PATT
	 POIN2	gourmetrace_7_030
// 181   ----------------------------------------
	BYTE	PATT
	 POIN2	gourmetrace_7_031
// 182   ----------------------------------------
	BYTE	PATT
	 POIN2	gourmetrace_7_032
// 183   ----------------------------------------
	BYTE	PATT
	 POIN2	gourmetrace_7_033
// 184   ----------------------------------------
	BYTE	PATT
	 POIN2	gourmetrace_7_034
// 185   ----------------------------------------
	BYTE	PATT
	 POIN2	gourmetrace_7_035
// 186   ----------------------------------------
	BYTE	PATT
	 POIN2	gourmetrace_7_036
// 187   ----------------------------------------
	BYTE	PATT
	 POIN2	gourmetrace_7_037
// 188   ----------------------------------------
	BYTE	PATT
	 POIN2	gourmetrace_7_038
// 189   ----------------------------------------
	BYTE	PATT
	 POIN2	gourmetrace_7_039
// 190   ----------------------------------------
	BYTE	PATT
	 POIN2	gourmetrace_7_040
// 191   ----------------------------------------
	BYTE	PATT
	 POIN2	gourmetrace_7_041
// 192   ----------------------------------------
	BYTE	PATT
	 POIN2	gourmetrace_7_042
// 193   ----------------------------------------
	BYTE	PATT
	 POIN2	gourmetrace_7_043
// 194   ----------------------------------------
	BYTE	PATT
	 POIN2	gourmetrace_7_044
// 195   ----------------------------------------
	BYTE	PATT
	 POIN2	gourmetrace_7_045
// 196   ----------------------------------------
	BYTE	PATT
	 POIN2	gourmetrace_7_046
// 197   ----------------------------------------
	BYTE	PATT
	 POIN2	gourmetrace_7_047
// 198   ----------------------------------------
	BYTE	PATT
	 POIN2	gourmetrace_7_048
// 199   ----------------------------------------
	BYTE	W19
	BYTE		N08     En1   v108
	BYTE	W24
	BYTE		N10     Cn1   v112
	BYTE	W24
	BYTE	W02
	BYTE		N07     Cn1   v120
	BYTE	W08
	BYTE	FINE

//**************** Track 8 (Midi-Chn.6) ****************//

gourmetrace_8:
	BYTE	KEYSH   gourmetrace_key+0
// 000   ----------------------------------------
	BYTE		VOICE   47
	BYTE		VOL     127*gourmetrace_mvl/mxv
	BYTE		PAN     c_v+0
	BYTE	W96
// 001   ----------------------------------------
gourmetrace_8_001:
	BYTE	W66
	BYTE	W01
	BYTE		N07     Gn1   v124
	BYTE	W28
	BYTE	W01
	BYTE	PEND
// 002   ----------------------------------------
	BYTE	W96
// 003   ----------------------------------------
	BYTE	W96
// 004   ----------------------------------------
	BYTE	W96
// 005   ----------------------------------------
	BYTE	W96
// 006   ----------------------------------------
	BYTE	W96
// 007   ----------------------------------------
	BYTE	W96
// 008   ----------------------------------------
	BYTE	W96
// 009   ----------------------------------------
	BYTE	W96
// 010   ----------------------------------------
	BYTE	W96
// 011   ----------------------------------------
	BYTE	W96
// 012   ----------------------------------------
	BYTE	W96
// 013   ----------------------------------------
	BYTE	W96
// 014   ----------------------------------------
	BYTE	W96
// 015   ----------------------------------------
	BYTE	W96
// 016   ----------------------------------------
	BYTE	W96
// 017   ----------------------------------------
	BYTE	W96
// 018   ----------------------------------------
	BYTE	W96
// 019   ----------------------------------------
	BYTE	W96
// 020   ----------------------------------------
	BYTE	W96
// 021   ----------------------------------------
	BYTE	W96
// 022   ----------------------------------------
	BYTE	W96
// 023   ----------------------------------------
	BYTE	W96
// 024   ----------------------------------------
	BYTE	W96
// 025   ----------------------------------------
	BYTE	W96
// 026   ----------------------------------------
	BYTE	W96
// 027   ----------------------------------------
	BYTE	W96
// 028   ----------------------------------------
	BYTE	W96
// 029   ----------------------------------------
	BYTE	W96
// 030   ----------------------------------------
	BYTE	W96
// 031   ----------------------------------------
	BYTE	W96
// 032   ----------------------------------------
	BYTE	W96
// 033   ----------------------------------------
	BYTE	W96
// 034   ----------------------------------------
	BYTE	W96
// 035   ----------------------------------------
	BYTE	W96
// 036   ----------------------------------------
	BYTE	W96
// 037   ----------------------------------------
	BYTE	W96
// 038   ----------------------------------------
	BYTE	W96
// 039   ----------------------------------------
	BYTE	W96
// 040   ----------------------------------------
	BYTE	W96
// 041   ----------------------------------------
	BYTE	W96
// 042   ----------------------------------------
	BYTE	W96
// 043   ----------------------------------------
	BYTE	W96
// 044   ----------------------------------------
	BYTE	W96
// 045   ----------------------------------------
	BYTE	W96
// 046   ----------------------------------------
	BYTE	W96
// 047   ----------------------------------------
	BYTE	W96
// 048   ----------------------------------------
	BYTE	W96
// 049   ----------------------------------------
	BYTE	W96
// 050   ----------------------------------------
	BYTE	W96
// 051   ----------------------------------------
	BYTE	PATT
	 POIN2	gourmetrace_8_001
// 052   ----------------------------------------
	BYTE	W96
// 053   ----------------------------------------
	BYTE	W96
// 054   ----------------------------------------
	BYTE	W96
// 055   ----------------------------------------
	BYTE	W96
// 056   ----------------------------------------
	BYTE	W96
// 057   ----------------------------------------
	BYTE	W96
// 058   ----------------------------------------
	BYTE	W96
// 059   ----------------------------------------
	BYTE	W96
// 060   ----------------------------------------
	BYTE	W96
// 061   ----------------------------------------
	BYTE	W96
// 062   ----------------------------------------
	BYTE	W96
// 063   ----------------------------------------
	BYTE	W96
// 064   ----------------------------------------
	BYTE	W96
// 065   ----------------------------------------
	BYTE	W96
// 066   ----------------------------------------
	BYTE	W96
// 067   ----------------------------------------
	BYTE	W96
// 068   ----------------------------------------
	BYTE	W96
// 069   ----------------------------------------
	BYTE	W96
// 070   ----------------------------------------
	BYTE	W96
// 071   ----------------------------------------
	BYTE	W96
// 072   ----------------------------------------
	BYTE	W96
// 073   ----------------------------------------
	BYTE	W96
// 074   ----------------------------------------
	BYTE	W96
// 075   ----------------------------------------
	BYTE	W96
// 076   ----------------------------------------
	BYTE	W96
// 077   ----------------------------------------
	BYTE	W96
// 078   ----------------------------------------
	BYTE	W96
// 079   ----------------------------------------
	BYTE	W96
// 080   ----------------------------------------
	BYTE	W96
// 081   ----------------------------------------
	BYTE	W96
// 082   ----------------------------------------
	BYTE	W96
// 083   ----------------------------------------
	BYTE	W96
// 084   ----------------------------------------
	BYTE	W96
// 085   ----------------------------------------
	BYTE	W96
// 086   ----------------------------------------
	BYTE	W96
// 087   ----------------------------------------
	BYTE	W96
// 088   ----------------------------------------
	BYTE	W96
// 089   ----------------------------------------
	BYTE	W96
// 090   ----------------------------------------
	BYTE	W96
// 091   ----------------------------------------
	BYTE	W96
// 092   ----------------------------------------
	BYTE	W96
// 093   ----------------------------------------
	BYTE	W96
// 094   ----------------------------------------
	BYTE	W96
// 095   ----------------------------------------
	BYTE	W96
// 096   ----------------------------------------
	BYTE	W96
// 097   ----------------------------------------
	BYTE	W96
// 098   ----------------------------------------
	BYTE	W96
// 099   ----------------------------------------
	BYTE	W96
// 100   ----------------------------------------
	BYTE	W96
// 101   ----------------------------------------
	BYTE	PATT
	 POIN2	gourmetrace_8_001
// 102   ----------------------------------------
	BYTE	W96
// 103   ----------------------------------------
	BYTE	W96
// 104   ----------------------------------------
	BYTE	W96
// 105   ----------------------------------------
	BYTE	W96
// 106   ----------------------------------------
	BYTE	W96
// 107   ----------------------------------------
	BYTE	W96
// 108   ----------------------------------------
	BYTE	W96
// 109   ----------------------------------------
	BYTE	W96
// 110   ----------------------------------------
	BYTE	W96
// 111   ----------------------------------------
	BYTE	W96
// 112   ----------------------------------------
	BYTE	W96
// 113   ----------------------------------------
	BYTE	W96
// 114   ----------------------------------------
	BYTE	W96
// 115   ----------------------------------------
	BYTE	W96
// 116   ----------------------------------------
	BYTE	W96
// 117   ----------------------------------------
	BYTE	W96
// 118   ----------------------------------------
	BYTE	W96
// 119   ----------------------------------------
	BYTE	W96
// 120   ----------------------------------------
	BYTE	W96
// 121   ----------------------------------------
	BYTE	W96
// 122   ----------------------------------------
	BYTE	W96
// 123   ----------------------------------------
	BYTE	W96
// 124   ----------------------------------------
	BYTE	W96
// 125   ----------------------------------------
	BYTE	W96
// 126   ----------------------------------------
	BYTE	W96
// 127   ----------------------------------------
	BYTE	W96
// 128   ----------------------------------------
	BYTE	W96
// 129   ----------------------------------------
	BYTE	W96
// 130   ----------------------------------------
	BYTE	W96
// 131   ----------------------------------------
	BYTE	W96
// 132   ----------------------------------------
	BYTE	W96
// 133   ----------------------------------------
	BYTE	W96
// 134   ----------------------------------------
	BYTE	W96
// 135   ----------------------------------------
	BYTE	W96
// 136   ----------------------------------------
	BYTE	W96
// 137   ----------------------------------------
	BYTE	W96
// 138   ----------------------------------------
	BYTE	W96
// 139   ----------------------------------------
	BYTE	W96
// 140   ----------------------------------------
	BYTE	W96
// 141   ----------------------------------------
	BYTE	W96
// 142   ----------------------------------------
	BYTE	W96
// 143   ----------------------------------------
	BYTE	W96
// 144   ----------------------------------------
	BYTE	W96
// 145   ----------------------------------------
	BYTE	W96
// 146   ----------------------------------------
	BYTE	W96
// 147   ----------------------------------------
	BYTE	W96
// 148   ----------------------------------------
	BYTE	W96
// 149   ----------------------------------------
	BYTE	W96
// 150   ----------------------------------------
	BYTE	W96
// 151   ----------------------------------------
	BYTE	W66
	BYTE	W01
	BYTE		N07     Gn1   v124
	BYTE	W08
	BYTE	FINE

//******************************************************//
	ALIGN 4

gourmetrace:
	BYTE	8	// NumTrks
	BYTE	0	// NumBlks
	BYTE	gourmetrace_pri	// Priority
	BYTE	gourmetrace_rev	// Reverb.

	POIN2	gourmetrace_grp

	POIN2	gourmetrace_1
	POIN2	gourmetrace_2
	POIN2	gourmetrace_3
	POIN2	gourmetrace_4
	POIN2	gourmetrace_5
	POIN2	gourmetrace_6
	POIN2	gourmetrace_7
	POIN2	gourmetrace_8

	
