//Event file generated from Sappy .s format.
	#include "MPlayDef.event"

	#define	kuroihikari8850_grp  voicegroup000
	#define	kuroihikari8850_pri  0
	#define	kuroihikari8850_rev  0
	#define	kuroihikari8850_mvl  63
	#define	kuroihikari8850_key  0
	#define	kuroihikari8850_tbs  1
	#define	kuroihikari8850_exg  0
	#define	kuroihikari8850_cmp  1

	// .rodata
	//	kuroihikari8850
	ALIGN 4

//**************** Track 1 (Midi-Chn.1) ****************//

kuroihikari8850_1:
	BYTE	KEYSH   kuroihikari8850_key+0
// 000   ----------------------------------------
	BYTE	TEMPO   125*kuroihikari8850_tbs/2
	BYTE	W48
	BYTE		VOICE   81
	BYTE		VOL     70*kuroihikari8850_mvl/mxv
	BYTE		MOD     0
	BYTE		PAN     c_v+0
	BYTE	W12
	BYTE		VOICE   0
	BYTE		VOL     65*kuroihikari8850_mvl/mxv
	BYTE	W12
	BYTE		VOICE   81
	BYTE	W24
// 001   ----------------------------------------
	BYTE	W12
	BYTE		MOD     0
	BYTE	W01
	BYTE		        0
	BYTE	W02
	BYTE		        0
	BYTE	W01
	BYTE		        0
	BYTE	W02
	BYTE		        0
	BYTE	W01
	BYTE		        0
	BYTE	W02
	BYTE		        0
	BYTE	W01
	BYTE		        0
	BYTE	W14
	BYTE		N23     En3   v127
	BYTE		N23     En4 
	BYTE	W24
	BYTE		N11     Gn3 
	BYTE		N11     Gn4 
	BYTE	W12
	BYTE		        An3 
	BYTE		N11     An4 
	BYTE	W12
	BYTE		        Cn4 
	BYTE		N11     Cn5 
	BYTE	W12
// 002   ----------------------------------------
kuroihikari8850_1_002:
	BYTE		N11     Dn4   v127
	BYTE		N11     Dn5 
	BYTE	W12
	BYTE		        An3 
	BYTE		N11     An4 
	BYTE	W12
	BYTE		        Cn4 
	BYTE		N11     Cn5 
	BYTE	W12
	BYTE		N23     Dn4 
	BYTE		N23     Dn5 
	BYTE	W24
	BYTE		N11     An3 
	BYTE		N11     An4 
	BYTE	W12
	BYTE		        Cn4 
	BYTE		N11     Cn5 
	BYTE	W12
	BYTE		N23     Dn4 
	BYTE		N23     Dn5 
	BYTE	W12
	BYTE	PEND
// 003   ----------------------------------------
kuroihikari8850_1_003:
	BYTE	W12
	BYTE		N11     An3   v127
	BYTE		N11     An4 
	BYTE	W12
	BYTE		        Cn4 
	BYTE		N11     Cn5 
	BYTE	W12
	BYTE		        Dn4 
	BYTE		N11     Dn5 
	BYTE	W12
	BYTE		        En4 
	BYTE		N11     En5 
	BYTE	W12
	BYTE		        Fn4 
	BYTE		N11     Fn5 
	BYTE	W12
	BYTE		        En4 
	BYTE		N11     En5 
	BYTE	W12
	BYTE		N05     Cn4 
	BYTE		N05     Cn5 
	BYTE	W06
	BYTE		TIE     Dn4 
	BYTE		TIE     Dn5 
	BYTE	W06
	BYTE	PEND
// 004   ----------------------------------------
	BYTE	W03
	BYTE		MOD     3
	BYTE	W01
	BYTE		        4
	BYTE	W02
	BYTE		        6
	BYTE	W01
	BYTE		        10
	BYTE	W02
	BYTE		        13
	BYTE	W01
	BYTE		        16
	BYTE	W02
	BYTE		        18
	BYTE	W01
	BYTE		        21
	BYTE	W02
	BYTE		        23
	BYTE	W01
	BYTE		        27
	BYTE	W02
	BYTE		        33
	BYTE	W01
	BYTE		        36
	BYTE	W02
	BYTE		        40
	BYTE	W01
	BYTE		        43
	BYTE	W02
	BYTE		        47
	BYTE	W01
	BYTE		        50
	BYTE	W02
	BYTE		        54
	BYTE	W01
	BYTE		        60
	BYTE	W02
	BYTE		        66
	BYTE	W01
	BYTE		        69
	BYTE	W02
	BYTE		        74
	BYTE	W01
	BYTE		        78
	BYTE	W02
	BYTE		        86
	BYTE	W01
	BYTE		        91
	BYTE	W02
	BYTE		        95
	BYTE	W01
	BYTE		        104
	BYTE	W02
	BYTE		        111
	BYTE	W01
	BYTE		        115
	BYTE	W02
	BYTE		        120
	BYTE	W01
	BYTE		        124
	BYTE	W02
	BYTE		        127
	BYTE	W48
// 005   ----------------------------------------
	BYTE	W23
	BYTE		EOT     Dn4 
	BYTE		        Dn5 
	BYTE	W01
	BYTE		MOD     0
	BYTE		N05     Cs4 
	BYTE		N05     Cs5 
	BYTE	W06
	BYTE		N17     Dn4 
	BYTE		N17     Dn5 
	BYTE	W18
	BYTE		N23     An3 
	BYTE		N23     An4 
	BYTE	W24
	BYTE		        Fn4 
	BYTE		N23     Fn5 
	BYTE	W24
// 006   ----------------------------------------
kuroihikari8850_1_006:
	BYTE		N44     En4   v127
	BYTE		N44     En5 
	BYTE	W48
	BYTE		N05     Dn4 
	BYTE		N05     Dn5 
	BYTE	W06
	BYTE		N17     En4 
	BYTE		N17     En5 
	BYTE	W18
	BYTE		N11     Dn4 
	BYTE		N11     Dn5 
	BYTE	W12
	BYTE		N32     An3 
	BYTE		N32     An4 
	BYTE	W12
	BYTE	PEND
// 007   ----------------------------------------
kuroihikari8850_1_007:
	BYTE	W24
	BYTE		N23     Gn3   v127
	BYTE		N23     Gn4 
	BYTE	W24
	BYTE		        Fn3 
	BYTE		N23     Fn4 
	BYTE	W24
	BYTE		        Gn3 
	BYTE		N23     Gn4 
	BYTE	W24
	BYTE	PEND
// 008   ----------------------------------------
	BYTE		TIE     An3 
	BYTE		TIE     An4 
	BYTE	W10
	BYTE		MOD     0
	BYTE	W08
	BYTE		        2
	BYTE	W01
	BYTE		        3
	BYTE	W03
	BYTE		        5
	BYTE	W02
	BYTE		        6
	BYTE	W03
	BYTE		        8
	BYTE	W01
	BYTE		        10
	BYTE	W02
	BYTE		        12
	BYTE	W01
	BYTE		        13
	BYTE	W02
	BYTE		        16
	BYTE	W01
	BYTE		        19
	BYTE	W02
	BYTE		        20
	BYTE	W01
	BYTE		        23
	BYTE	W02
	BYTE		        29
	BYTE	W01
	BYTE		        31
	BYTE	W02
	BYTE		        34
	BYTE	W01
	BYTE		        37
	BYTE	W02
	BYTE		        41
	BYTE	W03
	BYTE		        45
	BYTE	W01
	BYTE		        47
	BYTE	W02
	BYTE		        51
	BYTE	W01
	BYTE		        55
	BYTE	W02
	BYTE		        58
	BYTE	W01
	BYTE		        62
	BYTE	W02
	BYTE		        65
	BYTE	W03
	BYTE		        69
	BYTE	W01
	BYTE		        74
	BYTE	W02
	BYTE		        77
	BYTE	W03
	BYTE		        82
	BYTE	W01
	BYTE		        85
	BYTE	W02
	BYTE		        89
	BYTE	W01
	BYTE		        95
	BYTE	W02
	BYTE		        102
	BYTE	W01
	BYTE		        104
	BYTE	W02
	BYTE		        111
	BYTE	W01
	BYTE		        116
	BYTE	W02
	BYTE		        123
	BYTE	W01
	BYTE		        127
	BYTE	W17
// 009   ----------------------------------------
	BYTE	W44
	BYTE	W03
	BYTE		EOT     An3 
	BYTE		        An4 
	BYTE	W01
	BYTE		MOD     0
	BYTE		N23     An3 
	BYTE		N23     An4 
	BYTE	W24
	BYTE		        As3 
	BYTE		N23     As4 
	BYTE	W24
// 010   ----------------------------------------
kuroihikari8850_1_010:
	BYTE		N44     An3   v127
	BYTE		N44     An4 
	BYTE	W48
	BYTE		        Gn3 
	BYTE		N44     Gn4 
	BYTE	W48
	BYTE	PEND
// 011   ----------------------------------------
kuroihikari8850_1_011:
	BYTE		N44     Cn4   v127
	BYTE		N44     Cn5 
	BYTE	W48
	BYTE		N23     As3 
	BYTE		N23     As4 
	BYTE	W24
	BYTE		N11     Cn4 
	BYTE		N11     Cn5 
	BYTE	W12
	BYTE		N44     An3 
	BYTE		N44     An4 
	BYTE	W12
	BYTE	PEND
// 012   ----------------------------------------
kuroihikari8850_1_012:
	BYTE	W36
	BYTE		N05     Cs4   v127
	BYTE		N05     Cs5 
	BYTE	W06
	BYTE		N40     Dn4 
	BYTE		N40     Dn5 
	BYTE	W42
	BYTE		N05     Ds4 
	BYTE		N05     Ds5 
	BYTE	W06
	BYTE		N40     En4 
	BYTE		N40     En5 
	BYTE	W06
	BYTE	PEND
// 013   ----------------------------------------
kuroihikari8850_1_013:
	BYTE	W36
	BYTE		N05     Fs4   v127
	BYTE		N05     Fs5 
	BYTE	W06
	BYTE		N17     Gn4 
	BYTE		N17     Gn5 
	BYTE	W18
	BYTE		N11     Fn4 
	BYTE		N11     Fn5 
	BYTE	W12
	BYTE		        En4 
	BYTE		N11     En5 
	BYTE	W12
	BYTE		        Fn4 
	BYTE		N11     Fn5 
	BYTE	W12
	BYTE	PEND
// 014   ----------------------------------------
	BYTE		N92     En4 
	BYTE		N92     En5 
	BYTE	W04
	BYTE		MOD     0
	BYTE	W02
	BYTE		        1
	BYTE	W03
	BYTE		        3
	BYTE	W01
	BYTE		        5
	BYTE	W02
	BYTE		        9
	BYTE	W01
	BYTE		        10
	BYTE	W02
	BYTE		        12
	BYTE	W01
	BYTE		        15
	BYTE	W02
	BYTE		        20
	BYTE	W03
	BYTE		        24
	BYTE	W01
	BYTE		        26
	BYTE	W02
	BYTE		        30
	BYTE	W01
	BYTE		        32
	BYTE	W02
	BYTE		        38
	BYTE	W01
	BYTE		        44
	BYTE	W02
	BYTE		        53
	BYTE	W01
	BYTE		        59
	BYTE	W02
	BYTE		        65
	BYTE	W01
	BYTE		        73
	BYTE	W02
	BYTE		        78
	BYTE	W01
	BYTE		        83
	BYTE	W02
	BYTE		        92
	BYTE	W01
	BYTE		        107
	BYTE	W02
	BYTE		        127
	BYTE	W54
// 015   ----------------------------------------
kuroihikari8850_1_015:
	BYTE		MOD     0
	BYTE		N44     Gn4   v127
	BYTE		N44     Gn5 
	BYTE	W48
	BYTE		        Fn4 
	BYTE		N44     Fn5 
	BYTE	W48
	BYTE	PEND
// 016   ----------------------------------------
	BYTE		N92     En4 
	BYTE		N92     En5 
	BYTE	W04
	BYTE		MOD     1
	BYTE	W02
	BYTE		        3
	BYTE	W01
	BYTE		        4
	BYTE	W02
	BYTE		        7
	BYTE	W01
	BYTE		        11
	BYTE	W03
	BYTE		        13
	BYTE	W02
	BYTE		        17
	BYTE	W01
	BYTE		        21
	BYTE	W02
	BYTE		        26
	BYTE	W01
	BYTE		        32
	BYTE	W03
	BYTE		        39
	BYTE	W02
	BYTE		        47
	BYTE	W01
	BYTE		        53
	BYTE	W02
	BYTE		        60
	BYTE	W01
	BYTE		        73
	BYTE	W02
	BYTE		        90
	BYTE	W01
	BYTE		        101
	BYTE	W02
	BYTE		        127
	BYTE	W60
	BYTE	W03
// 017   ----------------------------------------
	BYTE		        0
	BYTE	W36
	BYTE		N23     En3 
	BYTE		N23     En4 
	BYTE	W24
	BYTE		N11     Gn3 
	BYTE		N11     Gn4 
	BYTE	W12
	BYTE		        An3 
	BYTE		N11     An4 
	BYTE	W12
	BYTE		        Cn4 
	BYTE		N11     Cn5 
	BYTE	W12
// 018   ----------------------------------------
	BYTE	PATT
	 POIN2	kuroihikari8850_1_002
// 019   ----------------------------------------
	BYTE	PATT
	 POIN2	kuroihikari8850_1_003
// 020   ----------------------------------------
	BYTE	W06
	BYTE		MOD     0
	BYTE	W04
	BYTE		        2
	BYTE	W02
	BYTE		        3
	BYTE	W04
	BYTE		        6
	BYTE	W02
	BYTE		        8
	BYTE	W01
	BYTE		        10
	BYTE	W02
	BYTE		        13
	BYTE	W01
	BYTE		        14
	BYTE	W02
	BYTE		        16
	BYTE	W01
	BYTE		        19
	BYTE	W02
	BYTE		        20
	BYTE	W01
	BYTE		        23
	BYTE	W02
	BYTE		        30
	BYTE	W01
	BYTE		        33
	BYTE	W02
	BYTE		        37
	BYTE	W01
	BYTE		        42
	BYTE	W02
	BYTE		        50
	BYTE	W01
	BYTE		        53
	BYTE	W02
	BYTE		        57
	BYTE	W01
	BYTE		        62
	BYTE	W02
	BYTE		        66
	BYTE	W01
	BYTE		        74
	BYTE	W02
	BYTE		        82
	BYTE	W01
	BYTE		        91
	BYTE	W02
	BYTE		        97
	BYTE	W01
	BYTE		        108
	BYTE	W02
	BYTE		        114
	BYTE	W01
	BYTE		        127
	BYTE	W44
// 021   ----------------------------------------
	BYTE	W23
	BYTE		EOT     Dn4 
	BYTE		        Dn5 
	BYTE	W01
	BYTE		MOD     0
	BYTE		N05     Cs4   v127
	BYTE		N05     Cs5 
	BYTE	W06
	BYTE		N17     Dn4 
	BYTE		N17     Dn5 
	BYTE	W18
	BYTE		N23     An3 
	BYTE		N23     An4 
	BYTE	W24
	BYTE		        Fn4 
	BYTE		N23     Fn5 
	BYTE	W24
// 022   ----------------------------------------
	BYTE	PATT
	 POIN2	kuroihikari8850_1_006
// 023   ----------------------------------------
	BYTE	PATT
	 POIN2	kuroihikari8850_1_007
// 024   ----------------------------------------
	BYTE		TIE     An3   v127
	BYTE		TIE     An4 
	BYTE	W22
	BYTE		MOD     1
	BYTE	W02
	BYTE		        3
	BYTE	W03
	BYTE		        5
	BYTE	W01
	BYTE		        6
	BYTE	W02
	BYTE		        8
	BYTE	W01
	BYTE		        9
	BYTE	W02
	BYTE		        11
	BYTE	W01
	BYTE		        13
	BYTE	W02
	BYTE		        15
	BYTE	W01
	BYTE		        16
	BYTE	W02
	BYTE		        20
	BYTE	W01
	BYTE		        23
	BYTE	W02
	BYTE		        25
	BYTE	W01
	BYTE		        28
	BYTE	W02
	BYTE		        30
	BYTE	W01
	BYTE		        34
	BYTE	W02
	BYTE		        38
	BYTE	W03
	BYTE		        43
	BYTE	W01
	BYTE		        47
	BYTE	W02
	BYTE		        51
	BYTE	W01
	BYTE		        57
	BYTE	W02
	BYTE		        63
	BYTE	W01
	BYTE		        67
	BYTE	W02
	BYTE		        72
	BYTE	W01
	BYTE		        76
	BYTE	W02
	BYTE		        85
	BYTE	W01
	BYTE		        90
	BYTE	W02
	BYTE		        96
	BYTE	W01
	BYTE		        107
	BYTE	W02
	BYTE		        112
	BYTE	W01
	BYTE		        124
	BYTE	W02
	BYTE		        127
	BYTE	W24
// 025   ----------------------------------------
	BYTE	W44
	BYTE	W03
	BYTE		EOT     An3 
	BYTE		        An4 
	BYTE	W01
	BYTE		MOD     0
	BYTE		N23     An3 
	BYTE		N23     An4 
	BYTE	W24
	BYTE		        As3 
	BYTE		N23     As4 
	BYTE	W24
// 026   ----------------------------------------
	BYTE	PATT
	 POIN2	kuroihikari8850_1_010
// 027   ----------------------------------------
	BYTE	PATT
	 POIN2	kuroihikari8850_1_011
// 028   ----------------------------------------
	BYTE	PATT
	 POIN2	kuroihikari8850_1_012
// 029   ----------------------------------------
	BYTE	PATT
	 POIN2	kuroihikari8850_1_013
// 030   ----------------------------------------
	BYTE		N92     En4   v127
	BYTE		N92     En5 
	BYTE	W06
	BYTE		MOD     1
	BYTE	W01
	BYTE		        3
	BYTE	W02
	BYTE		        4
	BYTE	W01
	BYTE		        6
	BYTE	W02
	BYTE		        7
	BYTE	W01
	BYTE		        10
	BYTE	W02
	BYTE		        13
	BYTE	W01
	BYTE		        16
	BYTE	W02
	BYTE		        20
	BYTE	W01
	BYTE		        23
	BYTE	W02
	BYTE		        27
	BYTE	W01
	BYTE		        33
	BYTE	W02
	BYTE		        38
	BYTE	W01
	BYTE		        43
	BYTE	W02
	BYTE		        47
	BYTE	W01
	BYTE		        54
	BYTE	W02
	BYTE		        60
	BYTE	W01
	BYTE		        70
	BYTE	W02
	BYTE		        82
	BYTE	W01
	BYTE		        98
	BYTE	W02
	BYTE		        127
	BYTE	W60
// 031   ----------------------------------------
	BYTE	PATT
	 POIN2	kuroihikari8850_1_015
// 032   ----------------------------------------
	BYTE		N92     En4   v127
	BYTE		N92     En5 
	BYTE	W10
	BYTE		MOD     3
	BYTE	W02
	BYTE		        5
	BYTE	W01
	BYTE		        11
	BYTE	W02
	BYTE		        17
	BYTE	W01
	BYTE		        26
	BYTE	W02
	BYTE		        33
	BYTE	W01
	BYTE		        40
	BYTE	W02
	BYTE		        50
	BYTE	W01
	BYTE		        54
	BYTE	W02
	BYTE		        65
	BYTE	W01
	BYTE		        70
	BYTE	W02
	BYTE		        81
	BYTE	W01
	BYTE		        90
	BYTE	W02
	BYTE		        108
	BYTE	W01
	BYTE		        127
	BYTE	W64
	BYTE	W01
// 033   ----------------------------------------
kuroihikari8850_1_033:
	BYTE		MOD     0
	BYTE	W36
	BYTE		N32     En4   v127
	BYTE	W36
	BYTE		N11     Fn4 
	BYTE	W12
	BYTE		        Gn4 
	BYTE	W12
	BYTE	PEND
// 034   ----------------------------------------
kuroihikari8850_1_034:
	BYTE		N23     An4   v127
	BYTE	W24
	BYTE		N11     Dn4 
	BYTE	W12
	BYTE		N23     As4 
	BYTE	W24
	BYTE		N11     An4 
	BYTE	W12
	BYTE		        Gn4 
	BYTE	W12
	BYTE		        Fn4 
	BYTE	W12
	BYTE	PEND
// 035   ----------------------------------------
kuroihikari8850_1_035:
	BYTE		N23     En4   v127
	BYTE	W24
	BYTE		N11     Fn4 
	BYTE	W12
	BYTE		N32     Dn4 
	BYTE	W36
	BYTE		N11     En4 
	BYTE	W12
	BYTE		        Fn4 
	BYTE	W12
	BYTE	PEND
// 036   ----------------------------------------
kuroihikari8850_1_036:
	BYTE		N23     Gn4   v127
	BYTE	W24
	BYTE		N11     Cn4 
	BYTE	W12
	BYTE		N23     Cn5 
	BYTE	W24
	BYTE		N11     As4 
	BYTE	W12
	BYTE		        An4 
	BYTE	W12
	BYTE		        Gn4 
	BYTE	W12
	BYTE	PEND
// 037   ----------------------------------------
kuroihikari8850_1_037:
	BYTE		N23     Fn4   v127
	BYTE	W24
	BYTE		N11     Gn4 
	BYTE	W12
	BYTE		N23     An4 
	BYTE	W24
	BYTE		        Cs4 
	BYTE	W24
	BYTE		N32     Dn4 
	BYTE	W12
	BYTE	PEND
// 038   ----------------------------------------
kuroihikari8850_1_038:
	BYTE	W24
	BYTE		N23     En4   v127
	BYTE	W24
	BYTE		        Fn4 
	BYTE	W24
	BYTE		        An4 
	BYTE	W24
	BYTE	PEND
// 039   ----------------------------------------
kuroihikari8850_1_039:
	BYTE		N23     Gn4   v127
	BYTE	W24
	BYTE		        Fn4 
	BYTE	W24
	BYTE		N11     Cn4 
	BYTE	W12
	BYTE		N23     Cn5 
	BYTE	W24
	BYTE		TIE     An4 
	BYTE	W12
	BYTE	PEND
// 040   ----------------------------------------
	BYTE	W12
	BYTE		MOD     2
	BYTE	W01
	BYTE		        3
	BYTE	W02
	BYTE		        5
	BYTE	W01
	BYTE		        8
	BYTE	W03
	BYTE		        11
	BYTE	W02
	BYTE		        14
	BYTE	W03
	BYTE		        19
	BYTE	W01
	BYTE		        22
	BYTE	W02
	BYTE		        25
	BYTE	W01
	BYTE		        30
	BYTE	W02
	BYTE		        33
	BYTE	W01
	BYTE		        39
	BYTE	W02
	BYTE		        43
	BYTE	W01
	BYTE		        47
	BYTE	W02
	BYTE		        50
	BYTE	W01
	BYTE		        55
	BYTE	W02
	BYTE		        62
	BYTE	W01
	BYTE		        67
	BYTE	W02
	BYTE		        76
	BYTE	W01
	BYTE		        81
	BYTE	W02
	BYTE		        86
	BYTE	W01
	BYTE		        90
	BYTE	W02
	BYTE		        97
	BYTE	W01
	BYTE		        104
	BYTE	W02
	BYTE		        117
	BYTE	W01
	BYTE		        127
	BYTE	W44
// 041   ----------------------------------------
	BYTE	W32
	BYTE	W03
	BYTE		EOT   
	BYTE	W01
	BYTE		MOD     0
	BYTE		N23     En4 
	BYTE	W24
	BYTE		N11   
	BYTE	W12
	BYTE		        Fn4 
	BYTE	W12
	BYTE		        Gn4 
	BYTE	W12
// 042   ----------------------------------------
	BYTE	PATT
	 POIN2	kuroihikari8850_1_034
// 043   ----------------------------------------
	BYTE	PATT
	 POIN2	kuroihikari8850_1_035
// 044   ----------------------------------------
	BYTE	PATT
	 POIN2	kuroihikari8850_1_036
// 045   ----------------------------------------
	BYTE	PATT
	 POIN2	kuroihikari8850_1_037
// 046   ----------------------------------------
	BYTE	W24
	BYTE		N23     En4   v127
	BYTE	W24
	BYTE		N11     Fn4 
	BYTE	W12
	BYTE		N21     An4 
	BYTE	W24
	BYTE		N32     Gn4 
	BYTE	W12
// 047   ----------------------------------------
	BYTE	W24
	BYTE		N23     Fn4 
	BYTE	W24
	BYTE		N11     En4 
	BYTE	W12
	BYTE		N23     Cn4 
	BYTE	W24
	BYTE		TIE     Dn4 
	BYTE	W12
// 048   ----------------------------------------
	BYTE	W04
	BYTE		MOD     3
	BYTE	W02
	BYTE		        5
	BYTE	W01
	BYTE		        6
	BYTE	W02
	BYTE		        8
	BYTE	W01
	BYTE		        11
	BYTE	W02
	BYTE		        14
	BYTE	W01
	BYTE		        16
	BYTE	W02
	BYTE		        19
	BYTE	W01
	BYTE		        21
	BYTE	W02
	BYTE		        25
	BYTE	W01
	BYTE		        28
	BYTE	W02
	BYTE		        31
	BYTE	W01
	BYTE		        33
	BYTE	W02
	BYTE		        37
	BYTE	W01
	BYTE		        40
	BYTE	W02
	BYTE		        46
	BYTE	W01
	BYTE		        50
	BYTE	W02
	BYTE		        54
	BYTE	W01
	BYTE		        59
	BYTE	W02
	BYTE		        63
	BYTE	W01
	BYTE		        70
	BYTE	W02
	BYTE		        74
	BYTE	W01
	BYTE		        80
	BYTE	W02
	BYTE		        91
	BYTE	W01
	BYTE		        101
	BYTE	W02
	BYTE		        110
	BYTE	W01
	BYTE		        121
	BYTE	W02
	BYTE		        127
	BYTE	W48
	BYTE	W03
// 049   ----------------------------------------
	BYTE	W23
	BYTE		EOT   
	BYTE	W01
	BYTE		MOD     0
	BYTE	W12
	BYTE		N23     En3 
	BYTE		N23     En4 
	BYTE	W24
	BYTE		N11     Gn3 
	BYTE		N11     Gn4 
	BYTE	W12
	BYTE		        An3 
	BYTE		N11     An4 
	BYTE	W12
	BYTE		        Cn4 
	BYTE		N11     Cn5 
	BYTE	W12
// 050   ----------------------------------------
	BYTE	PATT
	 POIN2	kuroihikari8850_1_002
// 051   ----------------------------------------
	BYTE	PATT
	 POIN2	kuroihikari8850_1_003
// 052   ----------------------------------------
	BYTE	W04
	BYTE		MOD     1
	BYTE	W05
	BYTE		        3
	BYTE	W01
	BYTE		        4
	BYTE	W02
	BYTE		        6
	BYTE	W01
	BYTE		        8
	BYTE	W02
	BYTE		        11
	BYTE	W01
	BYTE		        13
	BYTE	W02
	BYTE		        16
	BYTE	W01
	BYTE		        19
	BYTE	W02
	BYTE		        20
	BYTE	W01
	BYTE		        24
	BYTE	W02
	BYTE		        28
	BYTE	W01
	BYTE		        30
	BYTE	W02
	BYTE		        33
	BYTE	W01
	BYTE		        37
	BYTE	W02
	BYTE		        42
	BYTE	W01
	BYTE		        49
	BYTE	W02
	BYTE		        51
	BYTE	W01
	BYTE		        55
	BYTE	W02
	BYTE		        60
	BYTE	W01
	BYTE		        67
	BYTE	W02
	BYTE		        71
	BYTE	W01
	BYTE		        77
	BYTE	W02
	BYTE		        83
	BYTE	W01
	BYTE		        92
	BYTE	W02
	BYTE		        95
	BYTE	W01
	BYTE		        105
	BYTE	W02
	BYTE		        115
	BYTE	W01
	BYTE		        119
	BYTE	W02
	BYTE		        124
	BYTE	W01
	BYTE		        127
	BYTE	W44
// 053   ----------------------------------------
	BYTE	W23
	BYTE		EOT     Dn4 
	BYTE		        Dn5 
	BYTE	W01
	BYTE		MOD     0
	BYTE		N05     Cs4   v127
	BYTE		N05     Cs5 
	BYTE	W06
	BYTE		N17     Dn4 
	BYTE		N17     Dn5 
	BYTE	W18
	BYTE		N23     An3 
	BYTE		N23     An4 
	BYTE	W24
	BYTE		        Fn4 
	BYTE		N23     Fn5 
	BYTE	W24
// 054   ----------------------------------------
	BYTE	PATT
	 POIN2	kuroihikari8850_1_006
// 055   ----------------------------------------
	BYTE	PATT
	 POIN2	kuroihikari8850_1_007
// 056   ----------------------------------------
	BYTE		TIE     An3   v127
	BYTE		TIE     An4 
	BYTE	W13
	BYTE		MOD     2
	BYTE	W05
	BYTE		        5
	BYTE	W01
	BYTE		        6
	BYTE	W02
	BYTE		        7
	BYTE	W01
	BYTE		        10
	BYTE	W03
	BYTE		        13
	BYTE	W02
	BYTE		        14
	BYTE	W01
	BYTE		        17
	BYTE	W02
	BYTE		        21
	BYTE	W01
	BYTE		        23
	BYTE	W02
	BYTE		        25
	BYTE	W01
	BYTE		        27
	BYTE	W02
	BYTE		        30
	BYTE	W01
	BYTE		        33
	BYTE	W02
	BYTE		        36
	BYTE	W01
	BYTE		        39
	BYTE	W02
	BYTE		        41
	BYTE	W01
	BYTE		        47
	BYTE	W02
	BYTE		        50
	BYTE	W01
	BYTE		        54
	BYTE	W02
	BYTE		        58
	BYTE	W01
	BYTE		        62
	BYTE	W02
	BYTE		        66
	BYTE	W01
	BYTE		        71
	BYTE	W02
	BYTE		        80
	BYTE	W03
	BYTE		        85
	BYTE	W01
	BYTE		        92
	BYTE	W02
	BYTE		        98
	BYTE	W03
	BYTE		        104
	BYTE	W01
	BYTE		        110
	BYTE	W02
	BYTE		        119
	BYTE	W01
	BYTE		        126
	BYTE	W02
	BYTE		        127
	BYTE	W24
	BYTE	W03
// 057   ----------------------------------------
	BYTE	W44
	BYTE	W03
	BYTE		EOT     An3 
	BYTE		        An4 
	BYTE	W01
	BYTE		MOD     0
	BYTE		N23     An3 
	BYTE		N23     An4 
	BYTE	W24
	BYTE		        As3 
	BYTE		N23     As4 
	BYTE	W24
// 058   ----------------------------------------
	BYTE	PATT
	 POIN2	kuroihikari8850_1_010
// 059   ----------------------------------------
	BYTE	PATT
	 POIN2	kuroihikari8850_1_011
// 060   ----------------------------------------
	BYTE	PATT
	 POIN2	kuroihikari8850_1_012
// 061   ----------------------------------------
	BYTE	PATT
	 POIN2	kuroihikari8850_1_013
// 062   ----------------------------------------
	BYTE		N92     En4   v127
	BYTE		N92     En5 
	BYTE	W10
	BYTE		MOD     2
	BYTE	W03
	BYTE		        4
	BYTE	W02
	BYTE		        6
	BYTE	W01
	BYTE		        9
	BYTE	W02
	BYTE		        12
	BYTE	W01
	BYTE		        15
	BYTE	W02
	BYTE		        19
	BYTE	W01
	BYTE		        23
	BYTE	W02
	BYTE		        26
	BYTE	W01
	BYTE		        31
	BYTE	W02
	BYTE		        37
	BYTE	W01
	BYTE		        43
	BYTE	W02
	BYTE		        50
	BYTE	W01
	BYTE		        58
	BYTE	W02
	BYTE		        70
	BYTE	W01
	BYTE		        79
	BYTE	W02
	BYTE		        98
	BYTE	W01
	BYTE		        127
	BYTE	W56
	BYTE	W03
// 063   ----------------------------------------
	BYTE	PATT
	 POIN2	kuroihikari8850_1_015
// 064   ----------------------------------------
	BYTE		N92     En4   v127
	BYTE		N92     En5 
	BYTE	W06
	BYTE		MOD     2
	BYTE	W01
	BYTE		        3
	BYTE	W02
	BYTE		        6
	BYTE	W01
	BYTE		        10
	BYTE	W02
	BYTE		        12
	BYTE	W01
	BYTE		        15
	BYTE	W02
	BYTE		        20
	BYTE	W01
	BYTE		        23
	BYTE	W02
	BYTE		        25
	BYTE	W01
	BYTE		        30
	BYTE	W02
	BYTE		        33
	BYTE	W01
	BYTE		        37
	BYTE	W02
	BYTE		        43
	BYTE	W01
	BYTE		        50
	BYTE	W02
	BYTE		        54
	BYTE	W01
	BYTE		        60
	BYTE	W02
	BYTE		        69
	BYTE	W01
	BYTE		        77
	BYTE	W02
	BYTE		        88
	BYTE	W01
	BYTE		        96
	BYTE	W02
	BYTE		        127
	BYTE	W60
// 065   ----------------------------------------
	BYTE	PATT
	 POIN2	kuroihikari8850_1_033
// 066   ----------------------------------------
	BYTE	PATT
	 POIN2	kuroihikari8850_1_034
// 067   ----------------------------------------
	BYTE	PATT
	 POIN2	kuroihikari8850_1_035
// 068   ----------------------------------------
	BYTE	PATT
	 POIN2	kuroihikari8850_1_036
// 069   ----------------------------------------
	BYTE	PATT
	 POIN2	kuroihikari8850_1_037
// 070   ----------------------------------------
	BYTE	PATT
	 POIN2	kuroihikari8850_1_038
// 071   ----------------------------------------
	BYTE	PATT
	 POIN2	kuroihikari8850_1_039
// 072   ----------------------------------------
	BYTE	W10
	BYTE		MOD     1
	BYTE	W02
	BYTE		        2
	BYTE	W01
	BYTE		        4
	BYTE	W02
	BYTE		        6
	BYTE	W03
	BYTE		        9
	BYTE	W01
	BYTE		        12
	BYTE	W02
	BYTE		        14
	BYTE	W01
	BYTE		        17
	BYTE	W02
	BYTE		        19
	BYTE	W01
	BYTE		        23
	BYTE	W02
	BYTE		        25
	BYTE	W01
	BYTE		        30
	BYTE	W02
	BYTE		        34
	BYTE	W01
	BYTE		        39
	BYTE	W02
	BYTE		        44
	BYTE	W01
	BYTE		        50
	BYTE	W02
	BYTE		        53
	BYTE	W01
	BYTE		        56
	BYTE	W02
	BYTE		        61
	BYTE	W01
	BYTE		        73
	BYTE	W02
	BYTE		        78
	BYTE	W01
	BYTE		        83
	BYTE	W02
	BYTE		        94
	BYTE	W01
	BYTE		        102
	BYTE	W02
	BYTE		        120
	BYTE	W01
	BYTE		        127
	BYTE	W44
	BYTE	W03
// 073   ----------------------------------------
	BYTE	W32
	BYTE	W02
	BYTE		        0
	BYTE	W01
	BYTE		EOT     An4 
	BYTE	W01
	BYTE		N23     En4   v127
	BYTE	W24
	BYTE		N11   
	BYTE	W12
	BYTE		        Fn4 
	BYTE	W12
	BYTE		        Gn4 
	BYTE	W12
// 074   ----------------------------------------
	BYTE	PATT
	 POIN2	kuroihikari8850_1_034
// 075   ----------------------------------------
	BYTE	PATT
	 POIN2	kuroihikari8850_1_035
// 076   ----------------------------------------
kuroihikari8850_1_076:
	BYTE		N23     Gn4   v127
	BYTE	W24
	BYTE		N11     Cn4 
	BYTE	W12
	BYTE		N23     Cn5 
	BYTE	W24
	BYTE		N11     An4 
	BYTE	W12
	BYTE		        Cn5 
	BYTE	W12
	BYTE		        En5 
	BYTE	W12
	BYTE	PEND
// 077   ----------------------------------------
kuroihikari8850_1_077:
	BYTE		N23     En5   v127
	BYTE	W24
	BYTE		N11     Fn5 
	BYTE	W12
	BYTE		N23     Dn5 
	BYTE	W24
	BYTE		        En5 
	BYTE	W24
	BYTE		N32     Fn5 
	BYTE	W12
	BYTE	PEND
// 078   ----------------------------------------
kuroihikari8850_1_078:
	BYTE	W24
	BYTE		N23     Dn5   v127
	BYTE	W24
	BYTE		N11     En5 
	BYTE	W12
	BYTE		        Fn5 
	BYTE	W12
	BYTE		        An5 
	BYTE	W12
	BYTE		N23     Gn5 
	BYTE	W12
	BYTE	PEND
// 079   ----------------------------------------
	BYTE	W12
	BYTE		N11     En5 
	BYTE	W12
	BYTE		        Fn5 
	BYTE	W12
	BYTE		N23     Gn5 
	BYTE	W24
	BYTE		N11     Fn5 
	BYTE	W12
	BYTE		        En5 
	BYTE	W12
	BYTE		TIE     Fn5 
	BYTE	W12
// 080   ----------------------------------------
	BYTE	W32
	BYTE	W01
	BYTE		MOD     1
	BYTE	W01
	BYTE		        3
	BYTE	W02
	BYTE		        4
	BYTE	W03
	BYTE		        6
	BYTE	W01
	BYTE		        7
	BYTE	W02
	BYTE		        10
	BYTE	W01
	BYTE		        11
	BYTE	W02
	BYTE		        13
	BYTE	W01
	BYTE		        15
	BYTE	W02
	BYTE		        17
	BYTE	W01
	BYTE		        19
	BYTE	W02
	BYTE		        23
	BYTE	W01
	BYTE		        24
	BYTE	W02
	BYTE		        26
	BYTE	W01
	BYTE		        29
	BYTE	W02
	BYTE		        32
	BYTE	W01
	BYTE		        34
	BYTE	W02
	BYTE		        38
	BYTE	W01
	BYTE		        42
	BYTE	W02
	BYTE		        45
	BYTE	W01
	BYTE		        48
	BYTE	W02
	BYTE		        52
	BYTE	W01
	BYTE		        55
	BYTE	W02
	BYTE		        58
	BYTE	W01
	BYTE		        61
	BYTE	W02
	BYTE		        65
	BYTE	W03
	BYTE		        70
	BYTE	W01
	BYTE		        74
	BYTE	W02
	BYTE		        80
	BYTE	W01
	BYTE		        82
	BYTE	W02
	BYTE		        90
	BYTE	W01
	BYTE		        95
	BYTE	W02
	BYTE		        99
	BYTE	W01
	BYTE		        107
	BYTE	W02
	BYTE		        113
	BYTE	W01
	BYTE		        119
	BYTE	W02
	BYTE		        127
	BYTE	W06
// 081   ----------------------------------------
	BYTE	W68
	BYTE	W03
	BYTE		EOT   
	BYTE	W01
	BYTE		MOD     0
	BYTE	W24
// 082   ----------------------------------------
	BYTE	W96
// 083   ----------------------------------------
	BYTE	W96
// 084   ----------------------------------------
	BYTE	W96
// 085   ----------------------------------------
	BYTE	W96
// 086   ----------------------------------------
	BYTE	W96
// 087   ----------------------------------------
	BYTE	W96
// 088   ----------------------------------------
	BYTE	W96
// 089   ----------------------------------------
	BYTE	W96
// 090   ----------------------------------------
	BYTE	W96
// 091   ----------------------------------------
	BYTE	W96
// 092   ----------------------------------------
	BYTE	W96
// 093   ----------------------------------------
	BYTE	W96
// 094   ----------------------------------------
	BYTE	W96
// 095   ----------------------------------------
	BYTE	W96
// 096   ----------------------------------------
	BYTE	W96
// 097   ----------------------------------------
	BYTE	W96
// 098   ----------------------------------------
	BYTE	W96
// 099   ----------------------------------------
	BYTE	W96
// 100   ----------------------------------------
	BYTE	W36
	BYTE		N23     En3 
	BYTE		N23     En4 
	BYTE	W24
	BYTE		N11     Gn3 
	BYTE		N11     Gn4 
	BYTE	W12
	BYTE		        An3 
	BYTE		N11     An4 
	BYTE	W12
	BYTE		        Cn4 
	BYTE		N11     Cn5 
	BYTE	W12
// 101   ----------------------------------------
	BYTE	PATT
	 POIN2	kuroihikari8850_1_002
// 102   ----------------------------------------
	BYTE	PATT
	 POIN2	kuroihikari8850_1_003
// 103   ----------------------------------------
	BYTE	W09
	BYTE		MOD     1
	BYTE	W01
	BYTE		        2
	BYTE	W02
	BYTE		        3
	BYTE	W01
	BYTE		        6
	BYTE	W03
	BYTE		        9
	BYTE	W02
	BYTE		        10
	BYTE	W01
	BYTE		        15
	BYTE	W02
	BYTE		        18
	BYTE	W01
	BYTE		        22
	BYTE	W02
	BYTE		        24
	BYTE	W01
	BYTE		        27
	BYTE	W02
	BYTE		        30
	BYTE	W01
	BYTE		        35
	BYTE	W02
	BYTE		        40
	BYTE	W01
	BYTE		        44
	BYTE	W02
	BYTE		        48
	BYTE	W01
	BYTE		        52
	BYTE	W02
	BYTE		        58
	BYTE	W01
	BYTE		        65
	BYTE	W02
	BYTE		        70
	BYTE	W01
	BYTE		        74
	BYTE	W02
	BYTE		        78
	BYTE	W01
	BYTE		        83
	BYTE	W02
	BYTE		        90
	BYTE	W01
	BYTE		        97
	BYTE	W02
	BYTE		        107
	BYTE	W01
	BYTE		        118
	BYTE	W02
	BYTE		        127
	BYTE	W44
	BYTE	W01
// 104   ----------------------------------------
	BYTE	W23
	BYTE		EOT     Dn4 
	BYTE		        Dn5 
	BYTE	W01
	BYTE		MOD     0
	BYTE		N05     Cs4   v127
	BYTE		N05     Cs5 
	BYTE	W06
	BYTE		N17     Dn4 
	BYTE		N17     Dn5 
	BYTE	W18
	BYTE		N23     An3 
	BYTE		N23     An4 
	BYTE	W24
	BYTE		        Fn4 
	BYTE		N23     Fn5 
	BYTE	W24
// 105   ----------------------------------------
	BYTE	PATT
	 POIN2	kuroihikari8850_1_006
// 106   ----------------------------------------
	BYTE	PATT
	 POIN2	kuroihikari8850_1_007
// 107   ----------------------------------------
	BYTE		TIE     An3   v127
	BYTE		TIE     An4 
	BYTE	W10
	BYTE		MOD     0
	BYTE	W02
	BYTE		        2
	BYTE	W01
	BYTE		        4
	BYTE	W02
	BYTE		        6
	BYTE	W01
	BYTE		        7
	BYTE	W02
	BYTE		        10
	BYTE	W01
	BYTE		        13
	BYTE	W02
	BYTE		        14
	BYTE	W01
	BYTE		        16
	BYTE	W02
	BYTE		        20
	BYTE	W01
	BYTE		        24
	BYTE	W02
	BYTE		        26
	BYTE	W01
	BYTE		        32
	BYTE	W02
	BYTE		        34
	BYTE	W01
	BYTE		        38
	BYTE	W02
	BYTE		        42
	BYTE	W01
	BYTE		        47
	BYTE	W02
	BYTE		        55
	BYTE	W01
	BYTE		        59
	BYTE	W02
	BYTE		        64
	BYTE	W01
	BYTE		        71
	BYTE	W02
	BYTE		        77
	BYTE	W01
	BYTE		        81
	BYTE	W02
	BYTE		        91
	BYTE	W01
	BYTE		        98
	BYTE	W02
	BYTE		        114
	BYTE	W01
	BYTE		        127
	BYTE	W44
	BYTE	W03
// 108   ----------------------------------------
	BYTE	W44
	BYTE	W03
	BYTE		EOT     An3 
	BYTE		        An4 
	BYTE	W01
	BYTE		MOD     0
	BYTE		N23     An3 
	BYTE		N23     An4 
	BYTE	W24
	BYTE		        As3 
	BYTE		N23     As4 
	BYTE	W24
// 109   ----------------------------------------
	BYTE	PATT
	 POIN2	kuroihikari8850_1_010
// 110   ----------------------------------------
	BYTE	PATT
	 POIN2	kuroihikari8850_1_011
// 111   ----------------------------------------
	BYTE	PATT
	 POIN2	kuroihikari8850_1_012
// 112   ----------------------------------------
	BYTE	PATT
	 POIN2	kuroihikari8850_1_013
// 113   ----------------------------------------
	BYTE		N92     En4   v127
	BYTE		N92     En5 
	BYTE	W07
	BYTE		MOD     2
	BYTE	W02
	BYTE		        4
	BYTE	W01
	BYTE		        6
	BYTE	W02
	BYTE		        8
	BYTE	W01
	BYTE		        11
	BYTE	W02
	BYTE		        16
	BYTE	W01
	BYTE		        20
	BYTE	W02
	BYTE		        24
	BYTE	W01
	BYTE		        29
	BYTE	W02
	BYTE		        32
	BYTE	W01
	BYTE		        35
	BYTE	W02
	BYTE		        41
	BYTE	W01
	BYTE		        45
	BYTE	W02
	BYTE		        50
	BYTE	W01
	BYTE		        57
	BYTE	W02
	BYTE		        64
	BYTE	W01
	BYTE		        71
	BYTE	W02
	BYTE		        85
	BYTE	W01
	BYTE		        90
	BYTE	W02
	BYTE		        121
	BYTE	W01
	BYTE		        127
	BYTE	W56
	BYTE	W03
// 114   ----------------------------------------
	BYTE	PATT
	 POIN2	kuroihikari8850_1_015
// 115   ----------------------------------------
	BYTE		N92     En4   v127
	BYTE		N92     En5 
	BYTE	W09
	BYTE		MOD     6
	BYTE	W01
	BYTE		        8
	BYTE	W03
	BYTE		        11
	BYTE	W02
	BYTE		        18
	BYTE	W01
	BYTE		        23
	BYTE	W02
	BYTE		        26
	BYTE	W01
	BYTE		        32
	BYTE	W02
	BYTE		        37
	BYTE	W01
	BYTE		        40
	BYTE	W02
	BYTE		        50
	BYTE	W01
	BYTE		        54
	BYTE	W02
	BYTE		        59
	BYTE	W01
	BYTE		        65
	BYTE	W02
	BYTE		        70
	BYTE	W01
	BYTE		        74
	BYTE	W02
	BYTE		        84
	BYTE	W01
	BYTE		        94
	BYTE	W02
	BYTE		        104
	BYTE	W01
	BYTE		        121
	BYTE	W02
	BYTE		        127
	BYTE	W56
	BYTE	W01
// 116   ----------------------------------------
	BYTE	PATT
	 POIN2	kuroihikari8850_1_033
// 117   ----------------------------------------
	BYTE	PATT
	 POIN2	kuroihikari8850_1_034
// 118   ----------------------------------------
	BYTE	PATT
	 POIN2	kuroihikari8850_1_035
// 119   ----------------------------------------
	BYTE	PATT
	 POIN2	kuroihikari8850_1_036
// 120   ----------------------------------------
	BYTE	PATT
	 POIN2	kuroihikari8850_1_037
// 121   ----------------------------------------
	BYTE	PATT
	 POIN2	kuroihikari8850_1_038
// 122   ----------------------------------------
	BYTE	PATT
	 POIN2	kuroihikari8850_1_039
// 123   ----------------------------------------
	BYTE	W07
	BYTE		MOD     1
	BYTE	W02
	BYTE		        3
	BYTE	W03
	BYTE		        6
	BYTE	W01
	BYTE		        7
	BYTE	W02
	BYTE		        10
	BYTE	W01
	BYTE		        13
	BYTE	W02
	BYTE		        16
	BYTE	W01
	BYTE		        23
	BYTE	W02
	BYTE		        28
	BYTE	W01
	BYTE		        30
	BYTE	W02
	BYTE		        34
	BYTE	W01
	BYTE		        38
	BYTE	W02
	BYTE		        42
	BYTE	W01
	BYTE		        50
	BYTE	W03
	BYTE		        57
	BYTE	W02
	BYTE		        62
	BYTE	W01
	BYTE		        67
	BYTE	W02
	BYTE		        72
	BYTE	W01
	BYTE		        77
	BYTE	W02
	BYTE		        82
	BYTE	W01
	BYTE		        94
	BYTE	W02
	BYTE		        98
	BYTE	W01
	BYTE		        127
	BYTE	W52
	BYTE	W01
// 124   ----------------------------------------
	BYTE	W32
	BYTE	W03
	BYTE		EOT     An4 
	BYTE	W01
	BYTE		MOD     0
	BYTE		N23     En4   v127
	BYTE	W24
	BYTE		N11   
	BYTE	W12
	BYTE		        Fn4 
	BYTE	W12
	BYTE		        Gn4 
	BYTE	W12
// 125   ----------------------------------------
	BYTE	PATT
	 POIN2	kuroihikari8850_1_034
// 126   ----------------------------------------
	BYTE	PATT
	 POIN2	kuroihikari8850_1_035
// 127   ----------------------------------------
	BYTE	PATT
	 POIN2	kuroihikari8850_1_076
// 128   ----------------------------------------
	BYTE	PATT
	 POIN2	kuroihikari8850_1_077
// 129   ----------------------------------------
	BYTE	PATT
	 POIN2	kuroihikari8850_1_078
// 130   ----------------------------------------
	BYTE	W12
	BYTE		N11     En5   v127
	BYTE	W12
	BYTE		        Fn5 
	BYTE	W12
	BYTE		N23     Gn5 
	BYTE	W24
	BYTE		N11     Fn5 
	BYTE	W12
	BYTE		        En5 
	BYTE	W12
	BYTE		        Fn5 
	BYTE	W12
// 131   ----------------------------------------
	BYTE		TIE     Dn5 
	BYTE	W19
	BYTE		MOD     1
	BYTE	W02
	BYTE		        2
	BYTE	W01
	BYTE		        3
	BYTE	W02
	BYTE		        5
	BYTE	W01
	BYTE		        6
	BYTE	W02
	BYTE		        9
	BYTE	W01
	BYTE		        10
	BYTE	W02
	BYTE		        13
	BYTE	W03
	BYTE		        18
	BYTE	W01
	BYTE		        20
	BYTE	W02
	BYTE		        24
	BYTE	W01
	BYTE		        27
	BYTE	W02
	BYTE		        31
	BYTE	W01
	BYTE		        34
	BYTE	W02
	BYTE		        38
	BYTE	W01
	BYTE		        43
	BYTE	W02
	BYTE		        45
	BYTE	W01
	BYTE		        52
	BYTE	W02
	BYTE		        61
	BYTE	W01
	BYTE		        68
	BYTE	W02
	BYTE		        79
	BYTE	W01
	BYTE		        88
	BYTE	W02
	BYTE		        101
	BYTE	W01
	BYTE		        107
	BYTE	W02
	BYTE		        127
	BYTE	W36
	BYTE	W03
// 132   ----------------------------------------
	BYTE	W68
	BYTE	W03
	BYTE		EOT   
	BYTE	W01
	BYTE		MOD     0
	BYTE	W24
// 133   ----------------------------------------
	BYTE	W96
// 134   ----------------------------------------
	BYTE	W96
// 135   ----------------------------------------
	BYTE	W96
// 136   ----------------------------------------
	BYTE	W96
// 137   ----------------------------------------
	BYTE	W96
// 138   ----------------------------------------
	BYTE	W96
// 139   ----------------------------------------
	BYTE	W96
// 140   ----------------------------------------
	BYTE	W96
// 141   ----------------------------------------
	BYTE	W96
// 142   ----------------------------------------
	BYTE	W96
// 143   ----------------------------------------
	BYTE	W96
// 144   ----------------------------------------
	BYTE	W96
// 145   ----------------------------------------
	BYTE	W96
// 146   ----------------------------------------
	BYTE	W96
// 147   ----------------------------------------
	BYTE	W96
// 148   ----------------------------------------
	BYTE	W96
// 149   ----------------------------------------
	BYTE	W96
// 150   ----------------------------------------
	BYTE	W96
// 151   ----------------------------------------
	BYTE	W96
// 152   ----------------------------------------
	BYTE	W96
// 153   ----------------------------------------
	BYTE	W96
// 154   ----------------------------------------
	BYTE	W96
// 155   ----------------------------------------
	BYTE	W96
// 156   ----------------------------------------
	BYTE	W96
// 157   ----------------------------------------
	BYTE	W96
// 158   ----------------------------------------
	BYTE	W96
// 159   ----------------------------------------
	BYTE	W96
// 160   ----------------------------------------
	BYTE	W96
// 161   ----------------------------------------
	BYTE	W96
// 162   ----------------------------------------
	BYTE	W96
// 163   ----------------------------------------
	BYTE	W96
// 164   ----------------------------------------
	BYTE	W96
// 165   ----------------------------------------
	BYTE	W96
// 166   ----------------------------------------
	BYTE	W96
// 167   ----------------------------------------
	BYTE	W96
// 168   ----------------------------------------
	BYTE	W96
// 169   ----------------------------------------
	BYTE	W96
// 170   ----------------------------------------
	BYTE	W96
// 171   ----------------------------------------
	BYTE	W96
// 172   ----------------------------------------
	BYTE	W96
// 173   ----------------------------------------
	BYTE	W96
// 174   ----------------------------------------
	BYTE	W96
// 175   ----------------------------------------
	BYTE	W96
// 176   ----------------------------------------
	BYTE	W96
// 177   ----------------------------------------
	BYTE	W96
// 178   ----------------------------------------
	BYTE	W96
// 179   ----------------------------------------
	BYTE	W96
// 180   ----------------------------------------
	BYTE	W96
// 181   ----------------------------------------
	BYTE	W96
// 182   ----------------------------------------
	BYTE	W96
// 183   ----------------------------------------
	BYTE	W96
// 184   ----------------------------------------
	BYTE	W96
// 185   ----------------------------------------
	BYTE	W96
// 186   ----------------------------------------
	BYTE	W96
// 187   ----------------------------------------
	BYTE	W96
// 188   ----------------------------------------
	BYTE	W96
// 189   ----------------------------------------
	BYTE	W96
// 190   ----------------------------------------
	BYTE	W96
// 191   ----------------------------------------
	BYTE	W96
// 192   ----------------------------------------
	BYTE	W96
// 193   ----------------------------------------
	BYTE	W96
// 194   ----------------------------------------
	BYTE	W96
// 195   ----------------------------------------
	BYTE	W96
// 196   ----------------------------------------
	BYTE	W96
// 197   ----------------------------------------
	BYTE	W96
// 198   ----------------------------------------
	BYTE	W96
// 199   ----------------------------------------
	BYTE	FINE

//**************** Track 2 (Midi-Chn.2) ****************//

kuroihikari8850_2:
	BYTE	KEYSH   kuroihikari8850_key+0
// 000   ----------------------------------------
	BYTE	W48
	BYTE		VOICE   34
	BYTE		VOL     95*kuroihikari8850_mvl/mxv
	BYTE		PAN     c_v+0
	BYTE	W12
	BYTE		VOICE   34
	BYTE		VOL     90*kuroihikari8850_mvl/mxv
	BYTE	W12
	BYTE	W24
// 001   ----------------------------------------
	BYTE	W96
// 002   ----------------------------------------
kuroihikari8850_2_002:
	BYTE		N17     Dn1   v127
	BYTE	W18
	BYTE		N05   
	BYTE	W18
	BYTE		N11   
	BYTE	W12
	BYTE		N23   
	BYTE	W24
	BYTE		N11   
	BYTE	W12
	BYTE		N11   
	BYTE	W12
	BYTE	PEND
// 003   ----------------------------------------
kuroihikari8850_2_003:
	BYTE		N17     Cn1   v127
	BYTE	W18
	BYTE		N05   
	BYTE	W18
	BYTE		N11   
	BYTE	W12
	BYTE		N23   
	BYTE	W24
	BYTE		N11     Gn0 
	BYTE	W12
	BYTE		        Cn1 
	BYTE	W12
	BYTE	PEND
// 004   ----------------------------------------
kuroihikari8850_2_004:
	BYTE		N17     Bn0   v127
	BYTE	W18
	BYTE		N05   
	BYTE	W18
	BYTE		N11   
	BYTE	W12
	BYTE		N23   
	BYTE	W24
	BYTE		N11     Gn0 
	BYTE	W12
	BYTE		        Bn0 
	BYTE	W12
	BYTE	PEND
// 005   ----------------------------------------
kuroihikari8850_2_005:
	BYTE		N17     Cn1   v127
	BYTE	W18
	BYTE		N05   
	BYTE	W18
	BYTE		N11   
	BYTE	W12
	BYTE		N23   
	BYTE	W24
	BYTE		N11     Fn1 
	BYTE	W12
	BYTE		        Cn1 
	BYTE	W12
	BYTE	PEND
// 006   ----------------------------------------
	BYTE	PATT
	 POIN2	kuroihikari8850_2_002
// 007   ----------------------------------------
	BYTE	PATT
	 POIN2	kuroihikari8850_2_003
// 008   ----------------------------------------
	BYTE	PATT
	 POIN2	kuroihikari8850_2_004
// 009   ----------------------------------------
	BYTE	PATT
	 POIN2	kuroihikari8850_2_005
// 010   ----------------------------------------
kuroihikari8850_2_010:
	BYTE		N17     As0   v127
	BYTE	W18
	BYTE		N05   
	BYTE	W18
	BYTE		N11   
	BYTE	W12
	BYTE		N23   
	BYTE	W24
	BYTE		N11   
	BYTE	W12
	BYTE		N11   
	BYTE	W12
	BYTE	PEND
// 011   ----------------------------------------
kuroihikari8850_2_011:
	BYTE		N17     Cn1   v127
	BYTE	W18
	BYTE		N05   
	BYTE	W18
	BYTE		N11   
	BYTE	W12
	BYTE		N23   
	BYTE	W24
	BYTE		N11     An0 
	BYTE	W12
	BYTE		        Cn1 
	BYTE	W12
	BYTE	PEND
// 012   ----------------------------------------
kuroihikari8850_2_012:
	BYTE		N17     Dn1   v127
	BYTE	W18
	BYTE		N05   
	BYTE	W18
	BYTE		N11   
	BYTE	W12
	BYTE		N23   
	BYTE	W24
	BYTE		N11     Gn1 
	BYTE	W12
	BYTE		        Dn1 
	BYTE	W12
	BYTE	PEND
// 013   ----------------------------------------
	BYTE	PATT
	 POIN2	kuroihikari8850_2_003
// 014   ----------------------------------------
kuroihikari8850_2_014:
	BYTE		N17     As0   v127
	BYTE	W18
	BYTE		N05   
	BYTE	W18
	BYTE		N11   
	BYTE	W12
	BYTE		N23   
	BYTE	W24
	BYTE		N11     Fs0 
	BYTE	W12
	BYTE		        As0 
	BYTE	W12
	BYTE	PEND
// 015   ----------------------------------------
	BYTE	PATT
	 POIN2	kuroihikari8850_2_005
// 016   ----------------------------------------
	BYTE	PATT
	 POIN2	kuroihikari8850_2_002
// 017   ----------------------------------------
kuroihikari8850_2_017:
	BYTE		N11     Dn1   v127
	BYTE	W12
	BYTE		N05     Cn1 
	BYTE	W06
	BYTE		        Dn1 
	BYTE	W18
	BYTE		N32     An0 
	BYTE	W36
	BYTE		N11     Cn1 
	BYTE	W12
	BYTE		N11   
	BYTE	W12
	BYTE	PEND
// 018   ----------------------------------------
	BYTE	PATT
	 POIN2	kuroihikari8850_2_002
// 019   ----------------------------------------
	BYTE	PATT
	 POIN2	kuroihikari8850_2_003
// 020   ----------------------------------------
	BYTE	PATT
	 POIN2	kuroihikari8850_2_004
// 021   ----------------------------------------
	BYTE	PATT
	 POIN2	kuroihikari8850_2_005
// 022   ----------------------------------------
	BYTE	PATT
	 POIN2	kuroihikari8850_2_002
// 023   ----------------------------------------
	BYTE	PATT
	 POIN2	kuroihikari8850_2_003
// 024   ----------------------------------------
	BYTE	PATT
	 POIN2	kuroihikari8850_2_004
// 025   ----------------------------------------
	BYTE	PATT
	 POIN2	kuroihikari8850_2_005
// 026   ----------------------------------------
	BYTE	PATT
	 POIN2	kuroihikari8850_2_010
// 027   ----------------------------------------
	BYTE	PATT
	 POIN2	kuroihikari8850_2_011
// 028   ----------------------------------------
	BYTE	PATT
	 POIN2	kuroihikari8850_2_012
// 029   ----------------------------------------
	BYTE	PATT
	 POIN2	kuroihikari8850_2_003
// 030   ----------------------------------------
	BYTE	PATT
	 POIN2	kuroihikari8850_2_014
// 031   ----------------------------------------
	BYTE	PATT
	 POIN2	kuroihikari8850_2_005
// 032   ----------------------------------------
	BYTE	PATT
	 POIN2	kuroihikari8850_2_002
// 033   ----------------------------------------
	BYTE	PATT
	 POIN2	kuroihikari8850_2_017
// 034   ----------------------------------------
kuroihikari8850_2_034:
	BYTE		N17     Dn1   v127
	BYTE	W18
	BYTE		N05   
	BYTE	W18
	BYTE		N23   
	BYTE	W24
	BYTE		N11   
	BYTE	W12
	BYTE		        An0 
	BYTE	W12
	BYTE		        Dn1 
	BYTE	W12
	BYTE	PEND
// 035   ----------------------------------------
kuroihikari8850_2_035:
	BYTE		N17     Cn1   v127
	BYTE	W18
	BYTE		N05   
	BYTE	W18
	BYTE		N23   
	BYTE	W24
	BYTE		N11   
	BYTE	W12
	BYTE		        Gn0 
	BYTE	W12
	BYTE		        Cn1 
	BYTE	W12
	BYTE	PEND
// 036   ----------------------------------------
kuroihikari8850_2_036:
	BYTE		N17     As0   v127
	BYTE	W18
	BYTE		N05   
	BYTE	W18
	BYTE		N23   
	BYTE	W24
	BYTE		N11   
	BYTE	W12
	BYTE		        Fn0 
	BYTE	W12
	BYTE		        As0 
	BYTE	W12
	BYTE	PEND
// 037   ----------------------------------------
kuroihikari8850_2_037:
	BYTE		N17     An0   v127
	BYTE	W18
	BYTE		N05   
	BYTE	W18
	BYTE		N23   
	BYTE	W24
	BYTE		N11   
	BYTE	W12
	BYTE		N11   
	BYTE	W12
	BYTE		        Cn1 
	BYTE	W12
	BYTE	PEND
// 038   ----------------------------------------
	BYTE	PATT
	 POIN2	kuroihikari8850_2_036
// 039   ----------------------------------------
kuroihikari8850_2_039:
	BYTE		N17     Cn1   v127
	BYTE	W18
	BYTE		N05   
	BYTE	W18
	BYTE		N23   
	BYTE	W24
	BYTE		N11   
	BYTE	W12
	BYTE		        Gn0 
	BYTE	W12
	BYTE		        As0 
	BYTE	W12
	BYTE	PEND
// 040   ----------------------------------------
kuroihikari8850_2_040:
	BYTE		N17     An0   v127
	BYTE	W18
	BYTE		N05   
	BYTE	W18
	BYTE		N23   
	BYTE	W24
	BYTE		N11   
	BYTE	W12
	BYTE		        Fn0 
	BYTE	W12
	BYTE		        Gn0 
	BYTE	W12
	BYTE	PEND
// 041   ----------------------------------------
kuroihikari8850_2_041:
	BYTE		N17     An0   v127
	BYTE	W18
	BYTE		N05   
	BYTE	W18
	BYTE		N23   
	BYTE	W24
	BYTE		N11   
	BYTE	W12
	BYTE		        Fn0 
	BYTE	W12
	BYTE		        Cn1 
	BYTE	W12
	BYTE	PEND
// 042   ----------------------------------------
	BYTE	PATT
	 POIN2	kuroihikari8850_2_034
// 043   ----------------------------------------
	BYTE	PATT
	 POIN2	kuroihikari8850_2_035
// 044   ----------------------------------------
	BYTE	PATT
	 POIN2	kuroihikari8850_2_036
// 045   ----------------------------------------
	BYTE	PATT
	 POIN2	kuroihikari8850_2_037
// 046   ----------------------------------------
	BYTE	PATT
	 POIN2	kuroihikari8850_2_036
// 047   ----------------------------------------
kuroihikari8850_2_047:
	BYTE		N17     Cn1   v127
	BYTE	W18
	BYTE		N05   
	BYTE	W18
	BYTE		N23   
	BYTE	W24
	BYTE		N11   
	BYTE	W12
	BYTE		        En1 
	BYTE	W12
	BYTE		        Fn1 
	BYTE	W12
	BYTE	PEND
// 048   ----------------------------------------
kuroihikari8850_2_048:
	BYTE		N17     Dn1   v127
	BYTE	W18
	BYTE		N05   
	BYTE	W18
	BYTE		N23   
	BYTE	W24
	BYTE		N11   
	BYTE	W12
	BYTE		        An0 
	BYTE	W12
	BYTE		        Cn1 
	BYTE	W12
	BYTE	PEND
// 049   ----------------------------------------
kuroihikari8850_2_049:
	BYTE		N17     Dn1   v127
	BYTE	W18
	BYTE		N05   
	BYTE	W18
	BYTE		N23   
	BYTE	W24
	BYTE		N11   
	BYTE	W12
	BYTE		        An0 
	BYTE	W12
	BYTE		        Fn1 
	BYTE	W12
	BYTE	PEND
// 050   ----------------------------------------
	BYTE	PATT
	 POIN2	kuroihikari8850_2_002
// 051   ----------------------------------------
	BYTE	PATT
	 POIN2	kuroihikari8850_2_003
// 052   ----------------------------------------
	BYTE	PATT
	 POIN2	kuroihikari8850_2_004
// 053   ----------------------------------------
	BYTE	PATT
	 POIN2	kuroihikari8850_2_005
// 054   ----------------------------------------
	BYTE	PATT
	 POIN2	kuroihikari8850_2_002
// 055   ----------------------------------------
	BYTE	PATT
	 POIN2	kuroihikari8850_2_003
// 056   ----------------------------------------
	BYTE	PATT
	 POIN2	kuroihikari8850_2_004
// 057   ----------------------------------------
	BYTE	PATT
	 POIN2	kuroihikari8850_2_005
// 058   ----------------------------------------
	BYTE	PATT
	 POIN2	kuroihikari8850_2_010
// 059   ----------------------------------------
	BYTE	PATT
	 POIN2	kuroihikari8850_2_011
// 060   ----------------------------------------
	BYTE	PATT
	 POIN2	kuroihikari8850_2_012
// 061   ----------------------------------------
	BYTE	PATT
	 POIN2	kuroihikari8850_2_003
// 062   ----------------------------------------
	BYTE	PATT
	 POIN2	kuroihikari8850_2_014
// 063   ----------------------------------------
	BYTE	PATT
	 POIN2	kuroihikari8850_2_005
// 064   ----------------------------------------
	BYTE	PATT
	 POIN2	kuroihikari8850_2_002
// 065   ----------------------------------------
	BYTE	PATT
	 POIN2	kuroihikari8850_2_017
// 066   ----------------------------------------
	BYTE	PATT
	 POIN2	kuroihikari8850_2_034
// 067   ----------------------------------------
	BYTE	PATT
	 POIN2	kuroihikari8850_2_035
// 068   ----------------------------------------
	BYTE	PATT
	 POIN2	kuroihikari8850_2_036
// 069   ----------------------------------------
	BYTE	PATT
	 POIN2	kuroihikari8850_2_037
// 070   ----------------------------------------
	BYTE	PATT
	 POIN2	kuroihikari8850_2_036
// 071   ----------------------------------------
	BYTE	PATT
	 POIN2	kuroihikari8850_2_039
// 072   ----------------------------------------
	BYTE	PATT
	 POIN2	kuroihikari8850_2_040
// 073   ----------------------------------------
	BYTE	PATT
	 POIN2	kuroihikari8850_2_041
// 074   ----------------------------------------
	BYTE	PATT
	 POIN2	kuroihikari8850_2_034
// 075   ----------------------------------------
	BYTE	PATT
	 POIN2	kuroihikari8850_2_035
// 076   ----------------------------------------
	BYTE	PATT
	 POIN2	kuroihikari8850_2_036
// 077   ----------------------------------------
	BYTE	PATT
	 POIN2	kuroihikari8850_2_037
// 078   ----------------------------------------
	BYTE	PATT
	 POIN2	kuroihikari8850_2_036
// 079   ----------------------------------------
	BYTE	PATT
	 POIN2	kuroihikari8850_2_047
// 080   ----------------------------------------
	BYTE	PATT
	 POIN2	kuroihikari8850_2_048
// 081   ----------------------------------------
	BYTE	PATT
	 POIN2	kuroihikari8850_2_049
// 082   ----------------------------------------
	BYTE	PATT
	 POIN2	kuroihikari8850_2_048
// 083   ----------------------------------------
	BYTE	PATT
	 POIN2	kuroihikari8850_2_049
// 084   ----------------------------------------
	BYTE	PATT
	 POIN2	kuroihikari8850_2_048
// 085   ----------------------------------------
kuroihikari8850_2_085:
	BYTE		N17     Dn1   v127
	BYTE	W18
	BYTE		N05   
	BYTE	W18
	BYTE		N23   
	BYTE	W24
	BYTE		N11   
	BYTE	W12
	BYTE		        Cn1 
	BYTE	W12
	BYTE		        En1 
	BYTE	W12
	BYTE	PEND
// 086   ----------------------------------------
kuroihikari8850_2_086:
	BYTE		N17     Fn1   v127
	BYTE	W18
	BYTE		N05   
	BYTE	W18
	BYTE		N23   
	BYTE	W24
	BYTE		N11   
	BYTE	W12
	BYTE		        Dn1 
	BYTE	W12
	BYTE		        En1 
	BYTE	W12
	BYTE	PEND
// 087   ----------------------------------------
kuroihikari8850_2_087:
	BYTE		N17     Fn1   v127
	BYTE	W18
	BYTE		N05   
	BYTE	W18
	BYTE		N23   
	BYTE	W24
	BYTE		N11   
	BYTE	W12
	BYTE		        Dn1 
	BYTE	W12
	BYTE		        Cn1 
	BYTE	W12
	BYTE	PEND
// 088   ----------------------------------------
kuroihikari8850_2_088:
	BYTE		N17     As0   v127
	BYTE	W18
	BYTE		N05   
	BYTE	W18
	BYTE		N23   
	BYTE	W24
	BYTE		N11   
	BYTE	W12
	BYTE		        Gn0 
	BYTE	W12
	BYTE		        As0 
	BYTE	W12
	BYTE	PEND
// 089   ----------------------------------------
kuroihikari8850_2_089:
	BYTE		N17     Cn1   v127
	BYTE	W18
	BYTE		N05   
	BYTE	W18
	BYTE		N23   
	BYTE	W24
	BYTE		N11   
	BYTE	W12
	BYTE		        An0 
	BYTE	W12
	BYTE		        Cn1 
	BYTE	W12
	BYTE	PEND
// 090   ----------------------------------------
	BYTE	PATT
	 POIN2	kuroihikari8850_2_088
// 091   ----------------------------------------
kuroihikari8850_2_091:
	BYTE		N17     An0   v127
	BYTE	W18
	BYTE		N05   
	BYTE	W18
	BYTE		N23   
	BYTE	W24
	BYTE		N11     Cs1 
	BYTE	W12
	BYTE		        En1 
	BYTE	W12
	BYTE		        Cs1 
	BYTE	W12
	BYTE	PEND
// 092   ----------------------------------------
	BYTE	PATT
	 POIN2	kuroihikari8850_2_048
// 093   ----------------------------------------
	BYTE	PATT
	 POIN2	kuroihikari8850_2_085
// 094   ----------------------------------------
	BYTE	PATT
	 POIN2	kuroihikari8850_2_086
// 095   ----------------------------------------
	BYTE	PATT
	 POIN2	kuroihikari8850_2_087
// 096   ----------------------------------------
	BYTE	PATT
	 POIN2	kuroihikari8850_2_088
// 097   ----------------------------------------
	BYTE	PATT
	 POIN2	kuroihikari8850_2_089
// 098   ----------------------------------------
	BYTE	PATT
	 POIN2	kuroihikari8850_2_088
// 099   ----------------------------------------
	BYTE	PATT
	 POIN2	kuroihikari8850_2_091
// 100   ----------------------------------------
	BYTE	W96
// 101   ----------------------------------------
	BYTE	PATT
	 POIN2	kuroihikari8850_2_002
// 102   ----------------------------------------
	BYTE	PATT
	 POIN2	kuroihikari8850_2_003
// 103   ----------------------------------------
	BYTE	PATT
	 POIN2	kuroihikari8850_2_004
// 104   ----------------------------------------
	BYTE	PATT
	 POIN2	kuroihikari8850_2_005
// 105   ----------------------------------------
	BYTE	PATT
	 POIN2	kuroihikari8850_2_002
// 106   ----------------------------------------
	BYTE	PATT
	 POIN2	kuroihikari8850_2_003
// 107   ----------------------------------------
	BYTE	PATT
	 POIN2	kuroihikari8850_2_004
// 108   ----------------------------------------
	BYTE	PATT
	 POIN2	kuroihikari8850_2_005
// 109   ----------------------------------------
	BYTE	PATT
	 POIN2	kuroihikari8850_2_010
// 110   ----------------------------------------
	BYTE	PATT
	 POIN2	kuroihikari8850_2_011
// 111   ----------------------------------------
	BYTE	PATT
	 POIN2	kuroihikari8850_2_012
// 112   ----------------------------------------
	BYTE	PATT
	 POIN2	kuroihikari8850_2_003
// 113   ----------------------------------------
	BYTE	PATT
	 POIN2	kuroihikari8850_2_014
// 114   ----------------------------------------
	BYTE	PATT
	 POIN2	kuroihikari8850_2_005
// 115   ----------------------------------------
	BYTE	PATT
	 POIN2	kuroihikari8850_2_002
// 116   ----------------------------------------
	BYTE	PATT
	 POIN2	kuroihikari8850_2_017
// 117   ----------------------------------------
	BYTE	PATT
	 POIN2	kuroihikari8850_2_034
// 118   ----------------------------------------
	BYTE	PATT
	 POIN2	kuroihikari8850_2_035
// 119   ----------------------------------------
	BYTE	PATT
	 POIN2	kuroihikari8850_2_036
// 120   ----------------------------------------
	BYTE	PATT
	 POIN2	kuroihikari8850_2_037
// 121   ----------------------------------------
	BYTE	PATT
	 POIN2	kuroihikari8850_2_036
// 122   ----------------------------------------
	BYTE	PATT
	 POIN2	kuroihikari8850_2_039
// 123   ----------------------------------------
	BYTE	PATT
	 POIN2	kuroihikari8850_2_040
// 124   ----------------------------------------
	BYTE	PATT
	 POIN2	kuroihikari8850_2_041
// 125   ----------------------------------------
	BYTE	PATT
	 POIN2	kuroihikari8850_2_034
// 126   ----------------------------------------
	BYTE	PATT
	 POIN2	kuroihikari8850_2_035
// 127   ----------------------------------------
	BYTE	PATT
	 POIN2	kuroihikari8850_2_036
// 128   ----------------------------------------
	BYTE	PATT
	 POIN2	kuroihikari8850_2_037
// 129   ----------------------------------------
	BYTE	PATT
	 POIN2	kuroihikari8850_2_036
// 130   ----------------------------------------
	BYTE	PATT
	 POIN2	kuroihikari8850_2_047
// 131   ----------------------------------------
	BYTE	PATT
	 POIN2	kuroihikari8850_2_048
// 132   ----------------------------------------
	BYTE	PATT
	 POIN2	kuroihikari8850_2_049
// 133   ----------------------------------------
	BYTE	PATT
	 POIN2	kuroihikari8850_2_048
// 134   ----------------------------------------
	BYTE		N17     Dn1   v127
	BYTE	W18
	BYTE		N05   
	BYTE	W18
	BYTE		N11   
	BYTE	W12
	BYTE		N05   
	BYTE	W06
	BYTE		N05   
	BYTE	W06
	BYTE		N05   
	BYTE	W06
	BYTE		N05   
	BYTE	W06
	BYTE		N05   
	BYTE	W06
	BYTE		N05   
	BYTE	W06
	BYTE		N05   
	BYTE	W06
	BYTE		N05   
	BYTE	W06
// 135   ----------------------------------------
	BYTE	W96
// 136   ----------------------------------------
	BYTE	W96
// 137   ----------------------------------------
	BYTE	W96
// 138   ----------------------------------------
	BYTE	W96
// 139   ----------------------------------------
	BYTE	W96
// 140   ----------------------------------------
	BYTE	W96
// 141   ----------------------------------------
	BYTE	W96
// 142   ----------------------------------------
	BYTE	W96
// 143   ----------------------------------------
	BYTE	W96
// 144   ----------------------------------------
	BYTE	W96
// 145   ----------------------------------------
	BYTE	W96
// 146   ----------------------------------------
	BYTE	W96
// 147   ----------------------------------------
	BYTE	W96
// 148   ----------------------------------------
	BYTE	W96
// 149   ----------------------------------------
	BYTE	W96
// 150   ----------------------------------------
	BYTE	W96
// 151   ----------------------------------------
	BYTE	W96
// 152   ----------------------------------------
	BYTE	W96
// 153   ----------------------------------------
	BYTE	W96
// 154   ----------------------------------------
	BYTE	W96
// 155   ----------------------------------------
	BYTE	W96
// 156   ----------------------------------------
	BYTE	W96
// 157   ----------------------------------------
	BYTE	W96
// 158   ----------------------------------------
	BYTE	W96
// 159   ----------------------------------------
	BYTE	W96
// 160   ----------------------------------------
	BYTE	W96
// 161   ----------------------------------------
	BYTE	W96
// 162   ----------------------------------------
	BYTE	W96
// 163   ----------------------------------------
	BYTE	W96
// 164   ----------------------------------------
	BYTE	W96
// 165   ----------------------------------------
	BYTE	W96
// 166   ----------------------------------------
	BYTE	W96
// 167   ----------------------------------------
	BYTE	W96
// 168   ----------------------------------------
	BYTE	W96
// 169   ----------------------------------------
	BYTE	W96
// 170   ----------------------------------------
	BYTE	W96
// 171   ----------------------------------------
	BYTE	W96
// 172   ----------------------------------------
	BYTE	W96
// 173   ----------------------------------------
	BYTE	W96
// 174   ----------------------------------------
	BYTE	W96
// 175   ----------------------------------------
	BYTE	W96
// 176   ----------------------------------------
	BYTE	W96
// 177   ----------------------------------------
	BYTE	W96
// 178   ----------------------------------------
	BYTE	W96
// 179   ----------------------------------------
	BYTE	W96
// 180   ----------------------------------------
	BYTE	W96
// 181   ----------------------------------------
	BYTE	W96
// 182   ----------------------------------------
	BYTE	W96
// 183   ----------------------------------------
	BYTE	W96
// 184   ----------------------------------------
	BYTE	W96
// 185   ----------------------------------------
	BYTE	W96
// 186   ----------------------------------------
	BYTE	W96
// 187   ----------------------------------------
	BYTE	W96
// 188   ----------------------------------------
	BYTE	W96
// 189   ----------------------------------------
	BYTE	W96
// 190   ----------------------------------------
	BYTE	W96
// 191   ----------------------------------------
	BYTE	W96
// 192   ----------------------------------------
	BYTE	W96
// 193   ----------------------------------------
	BYTE	W96
// 194   ----------------------------------------
	BYTE	W96
// 195   ----------------------------------------
	BYTE	W96
// 196   ----------------------------------------
	BYTE	W96
// 197   ----------------------------------------
	BYTE	W96
// 198   ----------------------------------------
	BYTE	W96
// 199   ----------------------------------------
	BYTE	FINE

//**************** Track 3 (Midi-Chn.3) ****************//

kuroihikari8850_3:
	BYTE	KEYSH   kuroihikari8850_key+0
// 000   ----------------------------------------
	BYTE	W48
	BYTE		VOICE   73
	BYTE		VOL     57*kuroihikari8850_mvl/mxv
	BYTE		PAN     c_v+45
	BYTE	W12
	BYTE		VOICE   73
	BYTE		VOL     57*kuroihikari8850_mvl/mxv
	BYTE	W12
	BYTE	W24
// 001   ----------------------------------------
	BYTE	W96
// 002   ----------------------------------------
	BYTE	W96
// 003   ----------------------------------------
	BYTE	W96
// 004   ----------------------------------------
	BYTE	W96
// 005   ----------------------------------------
	BYTE	W96
// 006   ----------------------------------------
	BYTE	W96
// 007   ----------------------------------------
	BYTE	W96
// 008   ----------------------------------------
	BYTE	W96
// 009   ----------------------------------------
	BYTE	W96
// 010   ----------------------------------------
kuroihikari8850_3_010:
	BYTE		N04     As4   v127
	BYTE	W12
	BYTE		        Dn5 
	BYTE		N04     Fn5 
	BYTE	W06
	BYTE		        Dn5 
	BYTE		N04     Fn5 
	BYTE	W06
	BYTE		        Dn5 
	BYTE		N04     Fn5 
	BYTE	W06
	BYTE		        Dn5 
	BYTE		N04     Fn5 
	BYTE	W18
	BYTE		        Dn5 
	BYTE		N04     Fn5 
	BYTE	W06
	BYTE		        Dn5 
	BYTE		N04     Fn5 
	BYTE	W06
	BYTE		        Dn5 
	BYTE		N04     Fn5 
	BYTE	W06
	BYTE		        Dn5 
	BYTE		N04     Fn5 
	BYTE	W30
	BYTE	PEND
// 011   ----------------------------------------
kuroihikari8850_3_011:
	BYTE		N04     Gn4   v127
	BYTE	W12
	BYTE		        Cn5 
	BYTE		N04     En5 
	BYTE	W06
	BYTE		        Cn5 
	BYTE		N04     En5 
	BYTE	W06
	BYTE		        Cn5 
	BYTE		N04     En5 
	BYTE	W06
	BYTE		        Cn5 
	BYTE		N04     En5 
	BYTE	W18
	BYTE		        Cn5 
	BYTE		N04     En5 
	BYTE	W06
	BYTE		        Cn5 
	BYTE		N04     En5 
	BYTE	W06
	BYTE		        Cn5 
	BYTE		N04     En5 
	BYTE	W06
	BYTE		        Cn5 
	BYTE		N04     En5 
	BYTE	W30
	BYTE	PEND
// 012   ----------------------------------------
kuroihikari8850_3_012:
	BYTE		N04     An4   v127
	BYTE	W12
	BYTE		        Dn5 
	BYTE		N04     Fn5 
	BYTE	W06
	BYTE		        Dn5 
	BYTE		N04     Fn5 
	BYTE	W06
	BYTE		        Dn5 
	BYTE		N04     Fn5 
	BYTE	W06
	BYTE		        Dn5 
	BYTE		N04     Fn5 
	BYTE	W18
	BYTE		        Dn5 
	BYTE		N04     Fn5 
	BYTE	W06
	BYTE		        Dn5 
	BYTE		N04     Fn5 
	BYTE	W06
	BYTE		        Dn5 
	BYTE		N04     Fn5 
	BYTE	W06
	BYTE		        Dn5 
	BYTE		N04     Fn5 
	BYTE	W30
	BYTE	PEND
// 013   ----------------------------------------
	BYTE	PATT
	 POIN2	kuroihikari8850_3_011
// 014   ----------------------------------------
	BYTE	PATT
	 POIN2	kuroihikari8850_3_010
// 015   ----------------------------------------
	BYTE	PATT
	 POIN2	kuroihikari8850_3_011
// 016   ----------------------------------------
	BYTE	PATT
	 POIN2	kuroihikari8850_3_012
// 017   ----------------------------------------
	BYTE		N04     Cn5   v127
	BYTE		N04     En5 
	BYTE	W06
	BYTE		        Cn5 
	BYTE		N04     En5 
	BYTE	W06
	BYTE		        Cn5 
	BYTE		N04     En5 
	BYTE	W06
	BYTE		        Cn5 
	BYTE		N04     En5 
	BYTE	W78
// 018   ----------------------------------------
	BYTE	W96
// 019   ----------------------------------------
	BYTE	W96
// 020   ----------------------------------------
	BYTE	W96
// 021   ----------------------------------------
	BYTE	W96
// 022   ----------------------------------------
	BYTE	W96
// 023   ----------------------------------------
	BYTE	W96
// 024   ----------------------------------------
	BYTE	W96
// 025   ----------------------------------------
	BYTE	W96
// 026   ----------------------------------------
	BYTE	PATT
	 POIN2	kuroihikari8850_3_010
// 027   ----------------------------------------
	BYTE	PATT
	 POIN2	kuroihikari8850_3_011
// 028   ----------------------------------------
	BYTE	PATT
	 POIN2	kuroihikari8850_3_012
// 029   ----------------------------------------
	BYTE	PATT
	 POIN2	kuroihikari8850_3_011
// 030   ----------------------------------------
	BYTE	PATT
	 POIN2	kuroihikari8850_3_010
// 031   ----------------------------------------
	BYTE	PATT
	 POIN2	kuroihikari8850_3_011
// 032   ----------------------------------------
	BYTE	PATT
	 POIN2	kuroihikari8850_3_012
// 033   ----------------------------------------
kuroihikari8850_3_033:
	BYTE		N04     Dn5   v127
	BYTE		N04     Fn5 
	BYTE	W06
	BYTE		        Dn5 
	BYTE		N04     Fn5 
	BYTE	W06
	BYTE		        Dn5 
	BYTE		N04     Fn5 
	BYTE	W06
	BYTE		        Dn5 
	BYTE		N04     Fn5 
	BYTE	W78
	BYTE	PEND
// 034   ----------------------------------------
	BYTE	W96
// 035   ----------------------------------------
	BYTE	W96
// 036   ----------------------------------------
	BYTE	W96
// 037   ----------------------------------------
	BYTE	W96
// 038   ----------------------------------------
	BYTE	W96
// 039   ----------------------------------------
	BYTE	W96
// 040   ----------------------------------------
	BYTE	W96
// 041   ----------------------------------------
	BYTE	W96
// 042   ----------------------------------------
	BYTE	W96
// 043   ----------------------------------------
	BYTE	W96
// 044   ----------------------------------------
	BYTE	W96
// 045   ----------------------------------------
	BYTE	W96
// 046   ----------------------------------------
	BYTE	W96
// 047   ----------------------------------------
	BYTE	W96
// 048   ----------------------------------------
	BYTE	W96
// 049   ----------------------------------------
	BYTE	W96
// 050   ----------------------------------------
	BYTE	W96
// 051   ----------------------------------------
	BYTE	W96
// 052   ----------------------------------------
	BYTE	W96
// 053   ----------------------------------------
	BYTE	W96
// 054   ----------------------------------------
	BYTE	W96
// 055   ----------------------------------------
	BYTE	W96
// 056   ----------------------------------------
	BYTE	W96
// 057   ----------------------------------------
	BYTE	W96
// 058   ----------------------------------------
	BYTE	PATT
	 POIN2	kuroihikari8850_3_010
// 059   ----------------------------------------
	BYTE	PATT
	 POIN2	kuroihikari8850_3_011
// 060   ----------------------------------------
	BYTE	PATT
	 POIN2	kuroihikari8850_3_012
// 061   ----------------------------------------
	BYTE	PATT
	 POIN2	kuroihikari8850_3_011
// 062   ----------------------------------------
	BYTE	PATT
	 POIN2	kuroihikari8850_3_010
// 063   ----------------------------------------
	BYTE	PATT
	 POIN2	kuroihikari8850_3_011
// 064   ----------------------------------------
	BYTE	PATT
	 POIN2	kuroihikari8850_3_012
// 065   ----------------------------------------
	BYTE	PATT
	 POIN2	kuroihikari8850_3_033
// 066   ----------------------------------------
	BYTE	W96
// 067   ----------------------------------------
	BYTE	W96
// 068   ----------------------------------------
	BYTE	W96
// 069   ----------------------------------------
	BYTE	W96
// 070   ----------------------------------------
	BYTE	W96
// 071   ----------------------------------------
	BYTE	W96
// 072   ----------------------------------------
	BYTE	W96
// 073   ----------------------------------------
	BYTE	W96
// 074   ----------------------------------------
	BYTE	W96
// 075   ----------------------------------------
	BYTE	W96
// 076   ----------------------------------------
	BYTE	W96
// 077   ----------------------------------------
	BYTE	W96
// 078   ----------------------------------------
	BYTE	W96
// 079   ----------------------------------------
	BYTE	W96
// 080   ----------------------------------------
	BYTE	W96
// 081   ----------------------------------------
	BYTE	W96
// 082   ----------------------------------------
	BYTE	W96
// 083   ----------------------------------------
	BYTE	W96
// 084   ----------------------------------------
	BYTE	W96
// 085   ----------------------------------------
	BYTE	W96
// 086   ----------------------------------------
	BYTE	W96
// 087   ----------------------------------------
	BYTE	W96
// 088   ----------------------------------------
	BYTE	W96
// 089   ----------------------------------------
	BYTE	W96
// 090   ----------------------------------------
	BYTE	W96
// 091   ----------------------------------------
	BYTE	W96
// 092   ----------------------------------------
	BYTE	W96
// 093   ----------------------------------------
kuroihikari8850_3_093:
	BYTE	W48
	BYTE		N04     An4   v127
	BYTE	W12
	BYTE		        Dn5 
	BYTE		N04     Fn5 
	BYTE	W06
	BYTE		        Dn5 
	BYTE		N04     Fn5 
	BYTE	W06
	BYTE		        Dn5 
	BYTE		N04     Fn5 
	BYTE	W06
	BYTE		        Dn5 
	BYTE		N04     Fn5 
	BYTE	W18
	BYTE	PEND
// 094   ----------------------------------------
	BYTE	W96
// 095   ----------------------------------------
	BYTE	PATT
	 POIN2	kuroihikari8850_3_093
// 096   ----------------------------------------
	BYTE	W96
// 097   ----------------------------------------
kuroihikari8850_3_097:
	BYTE	W48
	BYTE		N04     Cn5   v127
	BYTE	W12
	BYTE		        En5 
	BYTE		N04     Gn5 
	BYTE	W06
	BYTE		        En5 
	BYTE		N04     Gn5 
	BYTE	W06
	BYTE		        En5 
	BYTE		N04     Gn5 
	BYTE	W06
	BYTE		        En5 
	BYTE		N04     Gn5 
	BYTE	W18
	BYTE	PEND
// 098   ----------------------------------------
	BYTE	W48
	BYTE		        Dn5 
	BYTE	W12
	BYTE		        Fn5 
	BYTE		N04     An5 
	BYTE	W06
	BYTE		        Fn5 
	BYTE		N04     An5 
	BYTE	W06
	BYTE		        Fn5 
	BYTE		N04     An5 
	BYTE	W06
	BYTE		        Fn5 
	BYTE		N04     An5 
	BYTE	W18
// 099   ----------------------------------------
	BYTE	PATT
	 POIN2	kuroihikari8850_3_097
// 100   ----------------------------------------
	BYTE	W96
// 101   ----------------------------------------
	BYTE	W96
// 102   ----------------------------------------
	BYTE	W96
// 103   ----------------------------------------
	BYTE	W96
// 104   ----------------------------------------
	BYTE	W96
// 105   ----------------------------------------
	BYTE	W96
// 106   ----------------------------------------
	BYTE	W96
// 107   ----------------------------------------
	BYTE	W96
// 108   ----------------------------------------
	BYTE	W96
// 109   ----------------------------------------
	BYTE	PATT
	 POIN2	kuroihikari8850_3_010
// 110   ----------------------------------------
	BYTE	PATT
	 POIN2	kuroihikari8850_3_011
// 111   ----------------------------------------
	BYTE	PATT
	 POIN2	kuroihikari8850_3_012
// 112   ----------------------------------------
	BYTE	PATT
	 POIN2	kuroihikari8850_3_011
// 113   ----------------------------------------
	BYTE	PATT
	 POIN2	kuroihikari8850_3_010
// 114   ----------------------------------------
	BYTE	PATT
	 POIN2	kuroihikari8850_3_011
// 115   ----------------------------------------
	BYTE	PATT
	 POIN2	kuroihikari8850_3_012
// 116   ----------------------------------------
	BYTE	PATT
	 POIN2	kuroihikari8850_3_033
// 117   ----------------------------------------
	BYTE	W96
// 118   ----------------------------------------
	BYTE	W96
// 119   ----------------------------------------
	BYTE	W96
// 120   ----------------------------------------
	BYTE	W96
// 121   ----------------------------------------
	BYTE	W96
// 122   ----------------------------------------
	BYTE	W96
// 123   ----------------------------------------
	BYTE	W96
// 124   ----------------------------------------
	BYTE	W96
// 125   ----------------------------------------
	BYTE	W96
// 126   ----------------------------------------
	BYTE	W96
// 127   ----------------------------------------
	BYTE	W96
// 128   ----------------------------------------
	BYTE	W96
// 129   ----------------------------------------
	BYTE	W96
// 130   ----------------------------------------
	BYTE	W96
// 131   ----------------------------------------
	BYTE	W96
// 132   ----------------------------------------
	BYTE	W96
// 133   ----------------------------------------
	BYTE	W96
// 134   ----------------------------------------
	BYTE	W96
// 135   ----------------------------------------
	BYTE	W96
// 136   ----------------------------------------
	BYTE	W96
// 137   ----------------------------------------
	BYTE	W96
// 138   ----------------------------------------
	BYTE	W96
// 139   ----------------------------------------
	BYTE	W96
// 140   ----------------------------------------
	BYTE	W96
// 141   ----------------------------------------
	BYTE	W96
// 142   ----------------------------------------
	BYTE	W96
// 143   ----------------------------------------
	BYTE	W96
// 144   ----------------------------------------
	BYTE	W96
// 145   ----------------------------------------
	BYTE	W96
// 146   ----------------------------------------
	BYTE	W96
// 147   ----------------------------------------
	BYTE	W96
// 148   ----------------------------------------
	BYTE	W96
// 149   ----------------------------------------
	BYTE	W96
// 150   ----------------------------------------
	BYTE	W96
// 151   ----------------------------------------
	BYTE	W96
// 152   ----------------------------------------
	BYTE	W96
// 153   ----------------------------------------
	BYTE	W96
// 154   ----------------------------------------
	BYTE	W96
// 155   ----------------------------------------
	BYTE	W96
// 156   ----------------------------------------
	BYTE	W96
// 157   ----------------------------------------
	BYTE	W96
// 158   ----------------------------------------
	BYTE	W96
// 159   ----------------------------------------
	BYTE	W96
// 160   ----------------------------------------
	BYTE	W96
// 161   ----------------------------------------
	BYTE	W96
// 162   ----------------------------------------
	BYTE	W96
// 163   ----------------------------------------
	BYTE	W96
// 164   ----------------------------------------
	BYTE	W96
// 165   ----------------------------------------
	BYTE	W96
// 166   ----------------------------------------
	BYTE	W96
// 167   ----------------------------------------
	BYTE	W96
// 168   ----------------------------------------
	BYTE	W96
// 169   ----------------------------------------
	BYTE	W96
// 170   ----------------------------------------
	BYTE	W96
// 171   ----------------------------------------
	BYTE	W96
// 172   ----------------------------------------
	BYTE	W96
// 173   ----------------------------------------
	BYTE	W96
// 174   ----------------------------------------
	BYTE	W96
// 175   ----------------------------------------
	BYTE	W96
// 176   ----------------------------------------
	BYTE	W96
// 177   ----------------------------------------
	BYTE	W96
// 178   ----------------------------------------
	BYTE	W96
// 179   ----------------------------------------
	BYTE	W96
// 180   ----------------------------------------
	BYTE	W96
// 181   ----------------------------------------
	BYTE	W96
// 182   ----------------------------------------
	BYTE	W96
// 183   ----------------------------------------
	BYTE	W96
// 184   ----------------------------------------
	BYTE	W96
// 185   ----------------------------------------
	BYTE	W96
// 186   ----------------------------------------
	BYTE	W96
// 187   ----------------------------------------
	BYTE	W96
// 188   ----------------------------------------
	BYTE	W96
// 189   ----------------------------------------
	BYTE	W96
// 190   ----------------------------------------
	BYTE	W96
// 191   ----------------------------------------
	BYTE	W96
// 192   ----------------------------------------
	BYTE	W96
// 193   ----------------------------------------
	BYTE	W96
// 194   ----------------------------------------
	BYTE	W96
// 195   ----------------------------------------
	BYTE	W96
// 196   ----------------------------------------
	BYTE	W96
// 197   ----------------------------------------
	BYTE	W96
// 198   ----------------------------------------
	BYTE	W96
// 199   ----------------------------------------
	BYTE	FINE

//**************** Track 4 (Midi-Chn.4) ****************//

kuroihikari8850_4:
	BYTE	KEYSH   kuroihikari8850_key+0
// 000   ----------------------------------------
	BYTE	W48
	BYTE		VOICE   48
	BYTE		VOL     83*kuroihikari8850_mvl/mxv
	BYTE		PAN     c_v+0
	BYTE	W12
	BYTE		VOICE   48
	BYTE		VOL     83*kuroihikari8850_mvl/mxv
	BYTE	W12
	BYTE	W24
// 001   ----------------------------------------
	BYTE	W96
// 002   ----------------------------------------
kuroihikari8850_4_002:
	BYTE		N23     Dn3   v127
	BYTE	W24
	BYTE		        Fn3 
	BYTE	W24
	BYTE		        An3 
	BYTE	W24
	BYTE		        Cn4 
	BYTE	W24
	BYTE	PEND
// 003   ----------------------------------------
kuroihikari8850_4_003:
	BYTE		N23     Dn4   v127
	BYTE	W24
	BYTE		        An3 
	BYTE	W24
	BYTE		        Fn3 
	BYTE	W24
	BYTE		        Dn3 
	BYTE	W24
	BYTE	PEND
// 004   ----------------------------------------
kuroihikari8850_4_004:
	BYTE		N23     Gn3   v127
	BYTE	W24
	BYTE		        Dn3 
	BYTE	W24
	BYTE		        Fn3 
	BYTE	W24
	BYTE		        An3 
	BYTE	W24
	BYTE	PEND
// 005   ----------------------------------------
kuroihikari8850_4_005:
	BYTE		N23     Dn4   v127
	BYTE	W24
	BYTE		        An4 
	BYTE	W24
	BYTE		        Fn5 
	BYTE	W24
	BYTE		        En5 
	BYTE	W24
	BYTE	PEND
// 006   ----------------------------------------
kuroihikari8850_4_006:
	BYTE		N23     Dn4   v127
	BYTE	W24
	BYTE		        Fn4 
	BYTE	W24
	BYTE		        An4 
	BYTE	W24
	BYTE		        Cn5 
	BYTE	W24
	BYTE	PEND
// 007   ----------------------------------------
kuroihikari8850_4_007:
	BYTE		N23     Dn5   v127
	BYTE	W24
	BYTE		        An4 
	BYTE	W24
	BYTE		        Fn4 
	BYTE	W24
	BYTE		        Dn4 
	BYTE	W24
	BYTE	PEND
// 008   ----------------------------------------
kuroihikari8850_4_008:
	BYTE		N23     Gn4   v127
	BYTE	W24
	BYTE		        Dn4 
	BYTE	W24
	BYTE		        Fn4 
	BYTE	W24
	BYTE		        An4 
	BYTE	W24
	BYTE	PEND
// 009   ----------------------------------------
kuroihikari8850_4_009:
	BYTE		N92     Dn4   v127
	BYTE		N23     Dn5 
	BYTE	W24
	BYTE		        An4 
	BYTE	W24
	BYTE		        Cn5 
	BYTE		N23     Fn5 
	BYTE	W24
	BYTE		        Gn4 
	BYTE		N23     En5 
	BYTE	W24
	BYTE	PEND
// 010   ----------------------------------------
kuroihikari8850_4_010:
	BYTE		N92     Fn3   v100
	BYTE		N92     As3 
	BYTE		N92     Dn4 
	BYTE		N92     As4 
	BYTE	W96
	BYTE	PEND
// 011   ----------------------------------------
kuroihikari8850_4_011:
	BYTE		N92     Gn3   v100
	BYTE		N92     Cn4 
	BYTE		N92     En4 
	BYTE		N92     Cn5 
	BYTE	W96
	BYTE	PEND
// 012   ----------------------------------------
kuroihikari8850_4_012:
	BYTE		N92     An3   v100
	BYTE		N92     Dn4 
	BYTE		N92     Fn4 
	BYTE		N92     Dn5 
	BYTE	W96
	BYTE	PEND
// 013   ----------------------------------------
kuroihikari8850_4_013:
	BYTE		N92     Gn3   v100
	BYTE		N92     Cn4 
	BYTE		N92     En4 
	BYTE		N92     En5 
	BYTE	W96
	BYTE	PEND
// 014   ----------------------------------------
kuroihikari8850_4_014:
	BYTE		N92     Fn3   v100
	BYTE		N92     As3 
	BYTE		N92     Dn4 
	BYTE		N92     Fn5 
	BYTE	W96
	BYTE	PEND
// 015   ----------------------------------------
	BYTE	PATT
	 POIN2	kuroihikari8850_4_013
// 016   ----------------------------------------
kuroihikari8850_4_016:
	BYTE		N92     An3   v100
	BYTE		N92     Dn4 
	BYTE		N92     Fn4 
	BYTE		N92     En5 
	BYTE	W96
	BYTE	PEND
// 017   ----------------------------------------
	BYTE		N05     En3   v127
	BYTE		N05     Gn3 
	BYTE		N05     En4 
	BYTE		N05     Gn4 
	BYTE		N05     Cn5 
	BYTE		N05     En5 
	BYTE	W06
	BYTE		        En3 
	BYTE		N05     Gn3 
	BYTE		N05     En4 
	BYTE		N05     Gn4 
	BYTE		N05     Cn5 
	BYTE		N05     En5 
	BYTE	W06
	BYTE		        En3 
	BYTE		N05     Gn3 
	BYTE		N05     En4 
	BYTE		N05     Gn4 
	BYTE		N05     Cn5 
	BYTE		N05     En5 
	BYTE	W06
	BYTE		        En3 
	BYTE		N05     Gn3 
	BYTE		N05     En4 
	BYTE		N05     Gn4 
	BYTE		N05     Cn5 
	BYTE		N05     En5 
	BYTE	W78
// 018   ----------------------------------------
	BYTE	PATT
	 POIN2	kuroihikari8850_4_002
// 019   ----------------------------------------
	BYTE	PATT
	 POIN2	kuroihikari8850_4_003
// 020   ----------------------------------------
	BYTE	PATT
	 POIN2	kuroihikari8850_4_004
// 021   ----------------------------------------
	BYTE	PATT
	 POIN2	kuroihikari8850_4_005
// 022   ----------------------------------------
	BYTE	PATT
	 POIN2	kuroihikari8850_4_006
// 023   ----------------------------------------
	BYTE	PATT
	 POIN2	kuroihikari8850_4_007
// 024   ----------------------------------------
	BYTE	PATT
	 POIN2	kuroihikari8850_4_008
// 025   ----------------------------------------
	BYTE	PATT
	 POIN2	kuroihikari8850_4_009
// 026   ----------------------------------------
	BYTE	PATT
	 POIN2	kuroihikari8850_4_010
// 027   ----------------------------------------
	BYTE	PATT
	 POIN2	kuroihikari8850_4_011
// 028   ----------------------------------------
	BYTE	PATT
	 POIN2	kuroihikari8850_4_012
// 029   ----------------------------------------
	BYTE	PATT
	 POIN2	kuroihikari8850_4_013
// 030   ----------------------------------------
	BYTE	PATT
	 POIN2	kuroihikari8850_4_014
// 031   ----------------------------------------
	BYTE	PATT
	 POIN2	kuroihikari8850_4_013
// 032   ----------------------------------------
	BYTE	PATT
	 POIN2	kuroihikari8850_4_016
// 033   ----------------------------------------
kuroihikari8850_4_033:
	BYTE		N05     En3   v100
	BYTE		N05     Gn3 
	BYTE		N05     En4 
	BYTE		N05     Gn4 
	BYTE		N05     Cn5 
	BYTE		N05     En5 
	BYTE	W06
	BYTE		        En3 
	BYTE		N05     Gn3 
	BYTE		N05     En4 
	BYTE		N05     Gn4 
	BYTE		N05     Cn5 
	BYTE		N05     En5 
	BYTE	W06
	BYTE		        En3 
	BYTE		N05     Gn3 
	BYTE		N05     En4 
	BYTE		N05     Gn4 
	BYTE		N05     Cn5 
	BYTE		N05     En5 
	BYTE	W06
	BYTE		        En3 
	BYTE		N05     Gn3 
	BYTE		N05     En4 
	BYTE		N05     Gn4 
	BYTE		N05     Cn5 
	BYTE		N05     En5 
	BYTE	W78
	BYTE	PEND
// 034   ----------------------------------------
kuroihikari8850_4_034:
	BYTE		N92     An3   v100
	BYTE		N92     Dn4 
	BYTE		N92     Fn4 
	BYTE		N92     Fn5 
	BYTE	W96
	BYTE	PEND
// 035   ----------------------------------------
	BYTE	PATT
	 POIN2	kuroihikari8850_4_013
// 036   ----------------------------------------
kuroihikari8850_4_036:
	BYTE		N92     Gn3   v100
	BYTE		N92     As3 
	BYTE		N92     En4 
	BYTE		N92     En5 
	BYTE	W96
	BYTE	PEND
// 037   ----------------------------------------
kuroihikari8850_4_037:
	BYTE		N32     As3   v100
	BYTE		N32     Dn4 
	BYTE		N32     Fn4 
	BYTE		N32     Fn5 
	BYTE	W36
	BYTE		N56     An3 
	BYTE		N56     Cn4 
	BYTE		N56     En4 
	BYTE		N56     En5 
	BYTE	W60
	BYTE	PEND
// 038   ----------------------------------------
	BYTE	PATT
	 POIN2	kuroihikari8850_4_034
// 039   ----------------------------------------
	BYTE	PATT
	 POIN2	kuroihikari8850_4_013
// 040   ----------------------------------------
kuroihikari8850_4_040:
	BYTE		N92     As3   v100
	BYTE		N92     Dn4 
	BYTE		N92     Gn4 
	BYTE		N92     Gn5 
	BYTE	W96
	BYTE	PEND
// 041   ----------------------------------------
kuroihikari8850_4_041:
	BYTE		N44     As3   v100
	BYTE		N44     Dn4 
	BYTE		N44     Fn4 
	BYTE		N44     Fn5 
	BYTE	W48
	BYTE		        An3 
	BYTE		N44     Cn4 
	BYTE		N44     En4 
	BYTE		N44     En5 
	BYTE	W48
	BYTE	PEND
// 042   ----------------------------------------
	BYTE	PATT
	 POIN2	kuroihikari8850_4_034
// 043   ----------------------------------------
	BYTE	PATT
	 POIN2	kuroihikari8850_4_013
// 044   ----------------------------------------
	BYTE	PATT
	 POIN2	kuroihikari8850_4_036
// 045   ----------------------------------------
kuroihikari8850_4_045:
	BYTE		N32     Cn4   v100
	BYTE		N32     En4 
	BYTE		N32     Gn4 
	BYTE		N32     En5 
	BYTE	W36
	BYTE		N56     An3 
	BYTE		N56     Dn4 
	BYTE		N56     Fn4 
	BYTE		N56     Dn5 
	BYTE	W60
	BYTE	PEND
// 046   ----------------------------------------
kuroihikari8850_4_046:
	BYTE		N92     Fn3   v100
	BYTE		N92     As3 
	BYTE		N92     Dn4 
	BYTE		N92     Dn5 
	BYTE	W96
	BYTE	PEND
// 047   ----------------------------------------
	BYTE	PATT
	 POIN2	kuroihikari8850_4_013
// 048   ----------------------------------------
	BYTE	PATT
	 POIN2	kuroihikari8850_4_034
// 049   ----------------------------------------
	BYTE	PATT
	 POIN2	kuroihikari8850_4_012
// 050   ----------------------------------------
	BYTE	PATT
	 POIN2	kuroihikari8850_4_002
// 051   ----------------------------------------
	BYTE	PATT
	 POIN2	kuroihikari8850_4_003
// 052   ----------------------------------------
	BYTE	PATT
	 POIN2	kuroihikari8850_4_004
// 053   ----------------------------------------
	BYTE	PATT
	 POIN2	kuroihikari8850_4_005
// 054   ----------------------------------------
	BYTE	PATT
	 POIN2	kuroihikari8850_4_006
// 055   ----------------------------------------
	BYTE	PATT
	 POIN2	kuroihikari8850_4_007
// 056   ----------------------------------------
	BYTE	PATT
	 POIN2	kuroihikari8850_4_008
// 057   ----------------------------------------
	BYTE	PATT
	 POIN2	kuroihikari8850_4_009
// 058   ----------------------------------------
	BYTE	PATT
	 POIN2	kuroihikari8850_4_010
// 059   ----------------------------------------
	BYTE	PATT
	 POIN2	kuroihikari8850_4_011
// 060   ----------------------------------------
	BYTE	PATT
	 POIN2	kuroihikari8850_4_012
// 061   ----------------------------------------
	BYTE	PATT
	 POIN2	kuroihikari8850_4_013
// 062   ----------------------------------------
	BYTE	PATT
	 POIN2	kuroihikari8850_4_014
// 063   ----------------------------------------
	BYTE	PATT
	 POIN2	kuroihikari8850_4_013
// 064   ----------------------------------------
	BYTE	PATT
	 POIN2	kuroihikari8850_4_016
// 065   ----------------------------------------
	BYTE	PATT
	 POIN2	kuroihikari8850_4_033
// 066   ----------------------------------------
	BYTE	PATT
	 POIN2	kuroihikari8850_4_034
// 067   ----------------------------------------
	BYTE	PATT
	 POIN2	kuroihikari8850_4_013
// 068   ----------------------------------------
	BYTE	PATT
	 POIN2	kuroihikari8850_4_036
// 069   ----------------------------------------
	BYTE	PATT
	 POIN2	kuroihikari8850_4_037
// 070   ----------------------------------------
	BYTE	PATT
	 POIN2	kuroihikari8850_4_034
// 071   ----------------------------------------
	BYTE	PATT
	 POIN2	kuroihikari8850_4_013
// 072   ----------------------------------------
	BYTE	PATT
	 POIN2	kuroihikari8850_4_040
// 073   ----------------------------------------
	BYTE	PATT
	 POIN2	kuroihikari8850_4_041
// 074   ----------------------------------------
	BYTE	PATT
	 POIN2	kuroihikari8850_4_034
// 075   ----------------------------------------
	BYTE	PATT
	 POIN2	kuroihikari8850_4_013
// 076   ----------------------------------------
	BYTE	PATT
	 POIN2	kuroihikari8850_4_036
// 077   ----------------------------------------
	BYTE	PATT
	 POIN2	kuroihikari8850_4_045
// 078   ----------------------------------------
	BYTE	PATT
	 POIN2	kuroihikari8850_4_046
// 079   ----------------------------------------
	BYTE	PATT
	 POIN2	kuroihikari8850_4_013
// 080   ----------------------------------------
kuroihikari8850_4_080:
	BYTE		TIE     An3   v100
	BYTE		TIE     Dn4 
	BYTE		TIE     Fn4 
	BYTE		TIE     Fn5 
	BYTE	W96
	BYTE	PEND
// 081   ----------------------------------------
	BYTE	W96
// 082   ----------------------------------------
	BYTE	W92
	BYTE	W03
	BYTE		EOT   
	BYTE	W01
// 083   ----------------------------------------
kuroihikari8850_4_083:
	BYTE		N92     Dn5   v100
	BYTE	W92
	BYTE	W03
	BYTE	PEND
	BYTE		EOT     An3 
	BYTE		        Dn4 
	BYTE		        Fn4 
	BYTE	W01
// 084   ----------------------------------------
kuroihikari8850_4_084:
	BYTE		TIE     Dn4   v100
	BYTE		TIE     Fn4 
	BYTE		TIE     An4 
	BYTE	W96
	BYTE	PEND
// 085   ----------------------------------------
	BYTE	W92
	BYTE	W03
	BYTE		EOT     Dn4 
	BYTE		        Fn4 
	BYTE		        An4 
	BYTE	W01
// 086   ----------------------------------------
	BYTE		TIE     Fn4 
	BYTE		TIE     An4 
	BYTE		TIE     Cn5 
	BYTE	W96
// 087   ----------------------------------------
	BYTE	W92
	BYTE	W03
	BYTE		EOT     Fn4 
	BYTE		        An4 
	BYTE		        Cn5 
	BYTE	W01
// 088   ----------------------------------------
kuroihikari8850_4_088:
	BYTE		N92     As3   v100
	BYTE		N92     Dn4 
	BYTE		N92     Gn4 
	BYTE	W96
	BYTE	PEND
// 089   ----------------------------------------
kuroihikari8850_4_089:
	BYTE		N92     Cn4   v100
	BYTE		N92     En4 
	BYTE		N92     An4 
	BYTE	W96
	BYTE	PEND
// 090   ----------------------------------------
	BYTE		        Dn4 
	BYTE		N92     Fn4 
	BYTE		N92     As4 
	BYTE	W96
// 091   ----------------------------------------
	BYTE		        En4 
	BYTE		N92     Gn4 
	BYTE		N92     Cn5 
	BYTE	W96
// 092   ----------------------------------------
	BYTE	PATT
	 POIN2	kuroihikari8850_4_084
// 093   ----------------------------------------
	BYTE	W92
	BYTE	W03
	BYTE		EOT     Dn4 
	BYTE		        Fn4 
	BYTE		        An4 
	BYTE	W01
// 094   ----------------------------------------
	BYTE		TIE     An3   v100
	BYTE		TIE     Dn4 
	BYTE		TIE     Fn4 
	BYTE	W96
// 095   ----------------------------------------
	BYTE	W92
	BYTE	W03
	BYTE		EOT     An3 
	BYTE		        Dn4 
	BYTE		        Fn4 
	BYTE	W01
// 096   ----------------------------------------
	BYTE	PATT
	 POIN2	kuroihikari8850_4_088
// 097   ----------------------------------------
	BYTE	PATT
	 POIN2	kuroihikari8850_4_089
// 098   ----------------------------------------
	BYTE		N92     As3   v100
	BYTE		N92     Dn4 
	BYTE		N92     Fn4 
	BYTE		N92     As4 
	BYTE	W96
// 099   ----------------------------------------
	BYTE		        Cs4 
	BYTE		N92     En4 
	BYTE		N92     An4 
	BYTE		N92     Cs5 
	BYTE	W96
// 100   ----------------------------------------
	BYTE	W96
// 101   ----------------------------------------
	BYTE	PATT
	 POIN2	kuroihikari8850_4_002
// 102   ----------------------------------------
	BYTE	PATT
	 POIN2	kuroihikari8850_4_003
// 103   ----------------------------------------
	BYTE	PATT
	 POIN2	kuroihikari8850_4_004
// 104   ----------------------------------------
	BYTE	PATT
	 POIN2	kuroihikari8850_4_005
// 105   ----------------------------------------
	BYTE	PATT
	 POIN2	kuroihikari8850_4_006
// 106   ----------------------------------------
	BYTE	PATT
	 POIN2	kuroihikari8850_4_007
// 107   ----------------------------------------
	BYTE	PATT
	 POIN2	kuroihikari8850_4_008
// 108   ----------------------------------------
	BYTE	PATT
	 POIN2	kuroihikari8850_4_009
// 109   ----------------------------------------
	BYTE	PATT
	 POIN2	kuroihikari8850_4_010
// 110   ----------------------------------------
	BYTE	PATT
	 POIN2	kuroihikari8850_4_011
// 111   ----------------------------------------
	BYTE	PATT
	 POIN2	kuroihikari8850_4_012
// 112   ----------------------------------------
	BYTE	PATT
	 POIN2	kuroihikari8850_4_013
// 113   ----------------------------------------
	BYTE	PATT
	 POIN2	kuroihikari8850_4_014
// 114   ----------------------------------------
	BYTE	PATT
	 POIN2	kuroihikari8850_4_013
// 115   ----------------------------------------
	BYTE	PATT
	 POIN2	kuroihikari8850_4_016
// 116   ----------------------------------------
	BYTE	PATT
	 POIN2	kuroihikari8850_4_033
// 117   ----------------------------------------
	BYTE	PATT
	 POIN2	kuroihikari8850_4_034
// 118   ----------------------------------------
	BYTE	PATT
	 POIN2	kuroihikari8850_4_013
// 119   ----------------------------------------
	BYTE	PATT
	 POIN2	kuroihikari8850_4_036
// 120   ----------------------------------------
	BYTE	PATT
	 POIN2	kuroihikari8850_4_037
// 121   ----------------------------------------
	BYTE	PATT
	 POIN2	kuroihikari8850_4_034
// 122   ----------------------------------------
	BYTE	PATT
	 POIN2	kuroihikari8850_4_013
// 123   ----------------------------------------
	BYTE	PATT
	 POIN2	kuroihikari8850_4_040
// 124   ----------------------------------------
	BYTE	PATT
	 POIN2	kuroihikari8850_4_041
// 125   ----------------------------------------
	BYTE	PATT
	 POIN2	kuroihikari8850_4_034
// 126   ----------------------------------------
	BYTE	PATT
	 POIN2	kuroihikari8850_4_013
// 127   ----------------------------------------
	BYTE	PATT
	 POIN2	kuroihikari8850_4_036
// 128   ----------------------------------------
	BYTE	PATT
	 POIN2	kuroihikari8850_4_045
// 129   ----------------------------------------
	BYTE	PATT
	 POIN2	kuroihikari8850_4_046
// 130   ----------------------------------------
	BYTE	PATT
	 POIN2	kuroihikari8850_4_013
// 131   ----------------------------------------
	BYTE	PATT
	 POIN2	kuroihikari8850_4_080
// 132   ----------------------------------------
	BYTE	W96
// 133   ----------------------------------------
	BYTE	W92
	BYTE	W03
	BYTE		EOT     Fn5 
	BYTE	W01
// 134   ----------------------------------------
	BYTE	PATT
	 POIN2	kuroihikari8850_4_083
	BYTE		EOT     An3 
	BYTE		        Dn4 
	BYTE		        Fn4 
	BYTE	W01
// 135   ----------------------------------------
	BYTE	W96
// 136   ----------------------------------------
	BYTE	W96
// 137   ----------------------------------------
	BYTE	W96
// 138   ----------------------------------------
	BYTE	W96
// 139   ----------------------------------------
	BYTE	W96
// 140   ----------------------------------------
	BYTE	W96
// 141   ----------------------------------------
	BYTE	W96
// 142   ----------------------------------------
	BYTE	W96
// 143   ----------------------------------------
	BYTE	W96
// 144   ----------------------------------------
	BYTE	W96
// 145   ----------------------------------------
	BYTE	W96
// 146   ----------------------------------------
	BYTE	W96
// 147   ----------------------------------------
	BYTE	W96
// 148   ----------------------------------------
	BYTE	W96
// 149   ----------------------------------------
	BYTE	W96
// 150   ----------------------------------------
	BYTE	W96
// 151   ----------------------------------------
	BYTE	W96
// 152   ----------------------------------------
	BYTE	W96
// 153   ----------------------------------------
	BYTE	W96
// 154   ----------------------------------------
	BYTE	W96
// 155   ----------------------------------------
	BYTE	W96
// 156   ----------------------------------------
	BYTE	W96
// 157   ----------------------------------------
	BYTE	W96
// 158   ----------------------------------------
	BYTE	W96
// 159   ----------------------------------------
	BYTE	W96
// 160   ----------------------------------------
	BYTE	W96
// 161   ----------------------------------------
	BYTE	W96
// 162   ----------------------------------------
	BYTE	W96
// 163   ----------------------------------------
	BYTE	W96
// 164   ----------------------------------------
	BYTE	W96
// 165   ----------------------------------------
	BYTE	W96
// 166   ----------------------------------------
	BYTE	W96
// 167   ----------------------------------------
	BYTE	W96
// 168   ----------------------------------------
	BYTE	W96
// 169   ----------------------------------------
	BYTE	W96
// 170   ----------------------------------------
	BYTE	W96
// 171   ----------------------------------------
	BYTE	W96
// 172   ----------------------------------------
	BYTE	W96
// 173   ----------------------------------------
	BYTE	W96
// 174   ----------------------------------------
	BYTE	W96
// 175   ----------------------------------------
	BYTE	W96
// 176   ----------------------------------------
	BYTE	W96
// 177   ----------------------------------------
	BYTE	W96
// 178   ----------------------------------------
	BYTE	W96
// 179   ----------------------------------------
	BYTE	W96
// 180   ----------------------------------------
	BYTE	W96
// 181   ----------------------------------------
	BYTE	W96
// 182   ----------------------------------------
	BYTE	W96
// 183   ----------------------------------------
	BYTE	W96
// 184   ----------------------------------------
	BYTE	W96
// 185   ----------------------------------------
	BYTE	W96
// 186   ----------------------------------------
	BYTE	W96
// 187   ----------------------------------------
	BYTE	W96
// 188   ----------------------------------------
	BYTE	W96
// 189   ----------------------------------------
	BYTE	W96
// 190   ----------------------------------------
	BYTE	W96
// 191   ----------------------------------------
	BYTE	W96
// 192   ----------------------------------------
	BYTE	W96
// 193   ----------------------------------------
	BYTE	W96
// 194   ----------------------------------------
	BYTE	W96
// 195   ----------------------------------------
	BYTE	W96
// 196   ----------------------------------------
	BYTE	W96
// 197   ----------------------------------------
	BYTE	W96
// 198   ----------------------------------------
	BYTE	W96
// 199   ----------------------------------------
	BYTE	FINE

//**************** Track 5 (Midi-Chn.5) ****************//

kuroihikari8850_5:
	BYTE	KEYSH   kuroihikari8850_key+0
// 000   ----------------------------------------
	BYTE	W48
	BYTE		VOICE   52
	BYTE		VOL     70*kuroihikari8850_mvl/mxv
	BYTE		PAN     c_v+0
	BYTE	W12
	BYTE		VOICE   52
	BYTE		VOL     70*kuroihikari8850_mvl/mxv
	BYTE	W12
	BYTE		MOD     40
	BYTE	W24
// 001   ----------------------------------------
	BYTE	W96
// 002   ----------------------------------------
	BYTE		N92     An3   v127
	BYTE		N92     Dn4 
	BYTE	W96
// 003   ----------------------------------------
	BYTE		        Gn3 
	BYTE		N92     Cn4 
	BYTE	W96
// 004   ----------------------------------------
	BYTE		        Fn3 
	BYTE		N92     Bn3 
	BYTE	W96
// 005   ----------------------------------------
	BYTE		        Gn3 
	BYTE		N92     Cn4 
	BYTE	W96
// 006   ----------------------------------------
	BYTE		        An3 
	BYTE		N92     Dn4 
	BYTE	W96
// 007   ----------------------------------------
	BYTE		        Gn3 
	BYTE		N92     Cn4 
	BYTE	W96
// 008   ----------------------------------------
	BYTE		        Fn3 
	BYTE		N92     Bn3 
	BYTE	W96
// 009   ----------------------------------------
	BYTE		        En3 
	BYTE		N92     An3 
	BYTE	W96
// 010   ----------------------------------------
	BYTE		N92   
	BYTE		N92     Dn4 
	BYTE	W96
// 011   ----------------------------------------
	BYTE		        Cn4 
	BYTE		N92     En4 
	BYTE	W96
// 012   ----------------------------------------
	BYTE		        Dn4 
	BYTE		N92     Fn4 
	BYTE	W96
// 013   ----------------------------------------
	BYTE		        En4 
	BYTE		N92     Gn4 
	BYTE	W96
// 014   ----------------------------------------
	BYTE		        An3 
	BYTE		N92     Dn4 
	BYTE	W96
// 015   ----------------------------------------
	BYTE		        Cn4 
	BYTE		N92     En4 
	BYTE	W96
// 016   ----------------------------------------
	BYTE		        Dn4 
	BYTE		N92     Fn4 
	BYTE	W96
// 017   ----------------------------------------
	BYTE		N11     Cn4 
	BYTE		N11     En4 
	BYTE		N11     Gn4 
	BYTE	W36
	BYTE		N56     En3 
	BYTE		N56     Gn3 
	BYTE		N56     Cn4 
	BYTE	W60
// 018   ----------------------------------------
	BYTE		N92     An3 
	BYTE		N92     Dn4 
	BYTE	W96
// 019   ----------------------------------------
	BYTE		        Gn3 
	BYTE		N92     Cn4 
	BYTE	W96
// 020   ----------------------------------------
	BYTE		        Fn3 
	BYTE		N92     Bn3 
	BYTE	W96
// 021   ----------------------------------------
	BYTE		        Gn3 
	BYTE		N92     Cn4 
	BYTE	W96
// 022   ----------------------------------------
	BYTE		        An3 
	BYTE		N92     Dn4 
	BYTE	W96
// 023   ----------------------------------------
	BYTE		        Gn3 
	BYTE		N92     Cn4 
	BYTE	W96
// 024   ----------------------------------------
	BYTE		        Fn3 
	BYTE		N92     Bn3 
	BYTE	W96
// 025   ----------------------------------------
	BYTE		        En3 
	BYTE		N92     An3 
	BYTE	W96
// 026   ----------------------------------------
	BYTE		N92   
	BYTE		N92     Dn4 
	BYTE	W96
// 027   ----------------------------------------
	BYTE		        Cn4 
	BYTE		N92     En4 
	BYTE	W96
// 028   ----------------------------------------
	BYTE		        Dn4 
	BYTE		N92     Fn4 
	BYTE	W96
// 029   ----------------------------------------
	BYTE		        En4 
	BYTE		N92     Gn4 
	BYTE	W96
// 030   ----------------------------------------
	BYTE		        An3 
	BYTE		N92     Dn4 
	BYTE	W96
// 031   ----------------------------------------
	BYTE		        Cn4 
	BYTE		N92     En4 
	BYTE	W96
// 032   ----------------------------------------
	BYTE		        Dn4 
	BYTE		N92     Fn4 
	BYTE	W96
// 033   ----------------------------------------
kuroihikari8850_5_033:
	BYTE		N23     Cn4   v127
	BYTE		N23     En4 
	BYTE		N23     Gn4 
	BYTE	W36
	BYTE		N56     En3 
	BYTE		N56     Gn3 
	BYTE		N56     Cn4 
	BYTE	W60
	BYTE	PEND
// 034   ----------------------------------------
	BYTE		N92     Dn4 
	BYTE		N92     Fn4 
	BYTE	W96
// 035   ----------------------------------------
	BYTE		        Cn4 
	BYTE		N92     En4 
	BYTE	W96
// 036   ----------------------------------------
	BYTE		        An3 
	BYTE		N92     Cn4 
	BYTE	W96
// 037   ----------------------------------------
kuroihikari8850_5_037:
	BYTE		N32     Dn4   v127
	BYTE		N32     Fn4 
	BYTE	W36
	BYTE		N56     Cs4 
	BYTE		N56     En4 
	BYTE	W60
	BYTE	PEND
// 038   ----------------------------------------
	BYTE		N92     Dn4 
	BYTE		N92     Fn4 
	BYTE	W96
// 039   ----------------------------------------
	BYTE		        Cn4 
	BYTE		N92     En4 
	BYTE	W96
// 040   ----------------------------------------
	BYTE		N92   
	BYTE		N92     Gn4 
	BYTE	W96
// 041   ----------------------------------------
kuroihikari8850_5_041:
	BYTE		N44     En4   v127
	BYTE		N44     An4 
	BYTE	W48
	BYTE		        Fn4 
	BYTE		N44     As4 
	BYTE	W48
	BYTE	PEND
// 042   ----------------------------------------
	BYTE		N92     Dn4 
	BYTE		N92     Fn4 
	BYTE	W96
// 043   ----------------------------------------
	BYTE		        Cn4 
	BYTE		N92     En4 
	BYTE	W96
// 044   ----------------------------------------
	BYTE		        Cn4 
	BYTE		N92     En4 
	BYTE	W96
// 045   ----------------------------------------
kuroihikari8850_5_045:
	BYTE		N32     Fn4   v127
	BYTE		N32     An4 
	BYTE	W36
	BYTE		N56     En4 
	BYTE		N56     An4 
	BYTE	W60
	BYTE	PEND
// 046   ----------------------------------------
	BYTE		N92     Fn4 
	BYTE		N92     As4 
	BYTE	W96
// 047   ----------------------------------------
	BYTE		        En4 
	BYTE		N92     An4 
	BYTE	W96
// 048   ----------------------------------------
	BYTE		TIE     Fn4 
	BYTE		TIE     An4 
	BYTE	W96
// 049   ----------------------------------------
	BYTE	W32
	BYTE	W03
	BYTE		EOT     Fn4 
	BYTE		        An4 
	BYTE	W01
	BYTE		N56     En4 
	BYTE		N56     Gn4 
	BYTE	W60
// 050   ----------------------------------------
	BYTE		N92     An3 
	BYTE		N92     Dn4 
	BYTE	W96
// 051   ----------------------------------------
	BYTE		        Gn3 
	BYTE		N92     Cn4 
	BYTE	W96
// 052   ----------------------------------------
	BYTE		        Fn3 
	BYTE		N92     Bn3 
	BYTE	W96
// 053   ----------------------------------------
	BYTE		        Gn3 
	BYTE		N92     Cn4 
	BYTE	W96
// 054   ----------------------------------------
	BYTE		        An3 
	BYTE		N92     Dn4 
	BYTE	W96
// 055   ----------------------------------------
	BYTE		        Gn3 
	BYTE		N92     Cn4 
	BYTE	W96
// 056   ----------------------------------------
	BYTE		        Fn3 
	BYTE		N92     Bn3 
	BYTE	W96
// 057   ----------------------------------------
	BYTE		        En3 
	BYTE		N92     An3 
	BYTE	W96
// 058   ----------------------------------------
	BYTE		N92   
	BYTE		N92     Dn4 
	BYTE	W96
// 059   ----------------------------------------
	BYTE		        Cn4 
	BYTE		N92     En4 
	BYTE	W96
// 060   ----------------------------------------
	BYTE		        Dn4 
	BYTE		N92     Fn4 
	BYTE	W96
// 061   ----------------------------------------
	BYTE		        En4 
	BYTE		N92     Gn4 
	BYTE	W96
// 062   ----------------------------------------
	BYTE		        An3 
	BYTE		N92     Dn4 
	BYTE	W96
// 063   ----------------------------------------
	BYTE		        Cn4 
	BYTE		N92     En4 
	BYTE	W96
// 064   ----------------------------------------
	BYTE		        Dn4 
	BYTE		N92     Fn4 
	BYTE	W96
// 065   ----------------------------------------
	BYTE	PATT
	 POIN2	kuroihikari8850_5_033
// 066   ----------------------------------------
	BYTE		N92     Dn4   v127
	BYTE		N92     Fn4 
	BYTE	W96
// 067   ----------------------------------------
	BYTE		        Cn4 
	BYTE		N92     En4 
	BYTE	W96
// 068   ----------------------------------------
	BYTE		        An3 
	BYTE		N92     Cn4 
	BYTE	W96
// 069   ----------------------------------------
	BYTE	PATT
	 POIN2	kuroihikari8850_5_037
// 070   ----------------------------------------
	BYTE		N92     Dn4   v127
	BYTE		N92     Fn4 
	BYTE	W96
// 071   ----------------------------------------
	BYTE		        Cn4 
	BYTE		N92     En4 
	BYTE	W96
// 072   ----------------------------------------
	BYTE		N92   
	BYTE		N92     Gn4 
	BYTE	W96
// 073   ----------------------------------------
	BYTE	PATT
	 POIN2	kuroihikari8850_5_041
// 074   ----------------------------------------
	BYTE		N92     Dn4   v127
	BYTE		N92     Fn4 
	BYTE	W96
// 075   ----------------------------------------
	BYTE		        Cn4 
	BYTE		N92     En4 
	BYTE	W96
// 076   ----------------------------------------
	BYTE		        Cn4 
	BYTE		N92     En4 
	BYTE	W96
// 077   ----------------------------------------
	BYTE	PATT
	 POIN2	kuroihikari8850_5_045
// 078   ----------------------------------------
	BYTE		N92     Fn4   v127
	BYTE		N92     As4 
	BYTE	W96
// 079   ----------------------------------------
	BYTE		        En4 
	BYTE		N92     An4 
	BYTE	W96
// 080   ----------------------------------------
kuroihikari8850_5_080:
	BYTE		TIE     Dn4   v127
	BYTE		TIE     Fn4 
	BYTE		TIE     An4 
	BYTE	W96
	BYTE	PEND
// 081   ----------------------------------------
	BYTE	W96
// 082   ----------------------------------------
	BYTE	W96
// 083   ----------------------------------------
	BYTE	W92
	BYTE	W03
	BYTE		EOT     Dn4 
	BYTE		        Fn4 
	BYTE		        An4 
	BYTE	W01
// 084   ----------------------------------------
kuroihikari8850_5_084:
	BYTE		TIE     An3   v100
	BYTE		TIE     Dn4 
	BYTE		TIE     Fn4 
	BYTE	W96
	BYTE	PEND
// 085   ----------------------------------------
	BYTE	W92
	BYTE	W03
	BYTE		EOT     An3 
	BYTE		        Dn4 
	BYTE		        Fn4 
	BYTE	W01
// 086   ----------------------------------------
	BYTE		TIE     Cn4 
	BYTE		TIE     Fn4 
	BYTE		TIE     An4 
	BYTE	W96
// 087   ----------------------------------------
	BYTE	W92
	BYTE	W03
	BYTE		EOT     Cn4 
	BYTE		        Fn4 
	BYTE		        An4 
	BYTE	W01
// 088   ----------------------------------------
	BYTE		N92     Dn4 
	BYTE		N92     Gn4 
	BYTE		N92     As4 
	BYTE	W96
// 089   ----------------------------------------
	BYTE		        En4 
	BYTE		N92     An4 
	BYTE		N92     Cn5 
	BYTE	W96
// 090   ----------------------------------------
	BYTE		        Dn4 
	BYTE		N92     Fn4 
	BYTE		N92     As4 
	BYTE	W96
// 091   ----------------------------------------
	BYTE		        Cn4 
	BYTE		N92     En4 
	BYTE		N92     Gn4 
	BYTE	W96
// 092   ----------------------------------------
	BYTE		TIE     Dn4 
	BYTE		TIE     Fn4 
	BYTE		TIE     An4 
	BYTE	W96
// 093   ----------------------------------------
	BYTE	W92
	BYTE	W03
	BYTE		EOT     Dn4 
	BYTE		        Fn4 
	BYTE		        An4 
	BYTE	W01
// 094   ----------------------------------------
	BYTE	PATT
	 POIN2	kuroihikari8850_5_084
// 095   ----------------------------------------
	BYTE	W92
	BYTE	W03
	BYTE		EOT     An3 
	BYTE		        Dn4 
	BYTE		        Fn4 
	BYTE	W01
// 096   ----------------------------------------
	BYTE		N92     As3   v100
	BYTE		N92     Dn4 
	BYTE		N92     Gn4 
	BYTE	W96
// 097   ----------------------------------------
	BYTE		        Cn4 
	BYTE		N92     En4 
	BYTE		N92     An4 
	BYTE	W96
// 098   ----------------------------------------
	BYTE		        As3 
	BYTE		N92     Dn4 
	BYTE		N92     Fn4 
	BYTE		N92     As4 
	BYTE	W96
// 099   ----------------------------------------
	BYTE		        Cs4 
	BYTE		N92     En4 
	BYTE		N92     An4 
	BYTE		N92     Cs5 
	BYTE	W96
// 100   ----------------------------------------
	BYTE	W96
// 101   ----------------------------------------
	BYTE		        An3   v127
	BYTE		N92     Dn4 
	BYTE	W96
// 102   ----------------------------------------
	BYTE		        Gn3 
	BYTE		N92     Cn4 
	BYTE	W96
// 103   ----------------------------------------
	BYTE		        Fn3 
	BYTE		N92     Bn3 
	BYTE	W96
// 104   ----------------------------------------
	BYTE		        Gn3 
	BYTE		N92     Cn4 
	BYTE	W96
// 105   ----------------------------------------
	BYTE		        An3 
	BYTE		N92     Dn4 
	BYTE	W96
// 106   ----------------------------------------
	BYTE		        Gn3 
	BYTE		N92     Cn4 
	BYTE	W96
// 107   ----------------------------------------
	BYTE		        Fn3 
	BYTE		N92     Bn3 
	BYTE	W96
// 108   ----------------------------------------
	BYTE		        En3 
	BYTE		N92     An3 
	BYTE	W96
// 109   ----------------------------------------
	BYTE		N92   
	BYTE		N92     Dn4 
	BYTE	W96
// 110   ----------------------------------------
	BYTE		        Cn4 
	BYTE		N92     En4 
	BYTE	W96
// 111   ----------------------------------------
	BYTE		        Dn4 
	BYTE		N92     Fn4 
	BYTE	W96
// 112   ----------------------------------------
	BYTE		        En4 
	BYTE		N92     Gn4 
	BYTE	W96
// 113   ----------------------------------------
	BYTE		        An3 
	BYTE		N92     Dn4 
	BYTE	W96
// 114   ----------------------------------------
	BYTE		        Cn4 
	BYTE		N92     En4 
	BYTE	W96
// 115   ----------------------------------------
	BYTE		        Dn4 
	BYTE		N92     Fn4 
	BYTE	W96
// 116   ----------------------------------------
	BYTE	PATT
	 POIN2	kuroihikari8850_5_033
// 117   ----------------------------------------
	BYTE		N92     Dn4   v127
	BYTE		N92     Fn4 
	BYTE	W96
// 118   ----------------------------------------
	BYTE		        Cn4 
	BYTE		N92     En4 
	BYTE	W96
// 119   ----------------------------------------
	BYTE		        An3 
	BYTE		N92     Cn4 
	BYTE	W96
// 120   ----------------------------------------
	BYTE	PATT
	 POIN2	kuroihikari8850_5_037
// 121   ----------------------------------------
	BYTE		N92     Dn4   v127
	BYTE		N92     Fn4 
	BYTE	W96
// 122   ----------------------------------------
	BYTE		        Cn4 
	BYTE		N92     En4 
	BYTE	W96
// 123   ----------------------------------------
	BYTE		N92   
	BYTE		N92     Gn4 
	BYTE	W96
// 124   ----------------------------------------
	BYTE	PATT
	 POIN2	kuroihikari8850_5_041
// 125   ----------------------------------------
	BYTE		N92     Dn4   v127
	BYTE		N92     Fn4 
	BYTE	W96
// 126   ----------------------------------------
	BYTE		        Cn4 
	BYTE		N92     En4 
	BYTE	W96
// 127   ----------------------------------------
	BYTE		        Cn4 
	BYTE		N92     En4 
	BYTE	W96
// 128   ----------------------------------------
	BYTE	PATT
	 POIN2	kuroihikari8850_5_045
// 129   ----------------------------------------
	BYTE		N92     Fn4   v127
	BYTE		N92     As4 
	BYTE	W96
// 130   ----------------------------------------
	BYTE		        En4 
	BYTE		N92     An4 
	BYTE	W96
// 131   ----------------------------------------
	BYTE	PATT
	 POIN2	kuroihikari8850_5_080
// 132   ----------------------------------------
	BYTE	W96
// 133   ----------------------------------------
	BYTE	W96
// 134   ----------------------------------------
	BYTE	W92
	BYTE	W03
	BYTE		EOT     Dn4 
	BYTE		        Fn4 
	BYTE		        An4 
	BYTE	W01
// 135   ----------------------------------------
	BYTE	W96
// 136   ----------------------------------------
	BYTE	W96
// 137   ----------------------------------------
	BYTE	W96
// 138   ----------------------------------------
	BYTE	W96
// 139   ----------------------------------------
	BYTE	W96
// 140   ----------------------------------------
	BYTE	W96
// 141   ----------------------------------------
	BYTE	W96
// 142   ----------------------------------------
	BYTE		MOD     0
	BYTE	W96
// 143   ----------------------------------------
	BYTE	W96
// 144   ----------------------------------------
	BYTE	W96
// 145   ----------------------------------------
	BYTE	W96
// 146   ----------------------------------------
	BYTE	W96
// 147   ----------------------------------------
	BYTE	W96
// 148   ----------------------------------------
	BYTE	W96
// 149   ----------------------------------------
	BYTE	W96
// 150   ----------------------------------------
	BYTE	W96
// 151   ----------------------------------------
	BYTE	W96
// 152   ----------------------------------------
	BYTE	W96
// 153   ----------------------------------------
	BYTE	W96
// 154   ----------------------------------------
	BYTE	W96
// 155   ----------------------------------------
	BYTE	W96
// 156   ----------------------------------------
	BYTE	W96
// 157   ----------------------------------------
	BYTE	W96
// 158   ----------------------------------------
	BYTE	W96
// 159   ----------------------------------------
	BYTE	W96
// 160   ----------------------------------------
	BYTE	W96
// 161   ----------------------------------------
	BYTE	W96
// 162   ----------------------------------------
	BYTE	W96
// 163   ----------------------------------------
	BYTE	W96
// 164   ----------------------------------------
	BYTE	W96
// 165   ----------------------------------------
	BYTE	W96
// 166   ----------------------------------------
	BYTE	W96
// 167   ----------------------------------------
	BYTE	W96
// 168   ----------------------------------------
	BYTE	W96
// 169   ----------------------------------------
	BYTE	W96
// 170   ----------------------------------------
	BYTE	W96
// 171   ----------------------------------------
	BYTE	W96
// 172   ----------------------------------------
	BYTE	W96
// 173   ----------------------------------------
	BYTE	W96
// 174   ----------------------------------------
	BYTE	W96
// 175   ----------------------------------------
	BYTE	W96
// 176   ----------------------------------------
	BYTE	W96
// 177   ----------------------------------------
	BYTE	W96
// 178   ----------------------------------------
	BYTE	W96
// 179   ----------------------------------------
	BYTE	W96
// 180   ----------------------------------------
	BYTE	W96
// 181   ----------------------------------------
	BYTE	W96
// 182   ----------------------------------------
	BYTE	W96
// 183   ----------------------------------------
	BYTE	W96
// 184   ----------------------------------------
	BYTE	W96
// 185   ----------------------------------------
	BYTE	W96
// 186   ----------------------------------------
	BYTE	W96
// 187   ----------------------------------------
	BYTE	W96
// 188   ----------------------------------------
	BYTE	W96
// 189   ----------------------------------------
	BYTE	W96
// 190   ----------------------------------------
	BYTE	W96
// 191   ----------------------------------------
	BYTE	W96
// 192   ----------------------------------------
	BYTE	W96
// 193   ----------------------------------------
	BYTE	W96
// 194   ----------------------------------------
	BYTE	W96
// 195   ----------------------------------------
	BYTE	W96
// 196   ----------------------------------------
	BYTE	W96
// 197   ----------------------------------------
	BYTE	W96
// 198   ----------------------------------------
	BYTE	W96
// 199   ----------------------------------------
	BYTE	FINE

//**************** Track 6 (Midi-Chn.6) ****************//

kuroihikari8850_6:
	BYTE	KEYSH   kuroihikari8850_key+0
// 000   ----------------------------------------
	BYTE	W48
	BYTE		VOICE   81
	BYTE		VOL     73*kuroihikari8850_mvl/mxv
	BYTE		MOD     0
	BYTE		PAN     c_v+0
	BYTE	W12
	BYTE		VOL     73*kuroihikari8850_mvl/mxv
	BYTE	W12
	BYTE	W24
// 001   ----------------------------------------
	BYTE	W13
	BYTE		MOD     0
	BYTE	W02
	BYTE		        0
	BYTE	W01
	BYTE		        0
	BYTE	W02
	BYTE		        0
	BYTE	W01
	BYTE		        0
	BYTE	W02
	BYTE		        0
	BYTE	W01
	BYTE		        0
	BYTE	W72
	BYTE	W02
// 002   ----------------------------------------
	BYTE	W96
// 003   ----------------------------------------
	BYTE	W96
// 004   ----------------------------------------
	BYTE	W96
// 005   ----------------------------------------
	BYTE	W96
// 006   ----------------------------------------
	BYTE	W96
// 007   ----------------------------------------
	BYTE	W96
// 008   ----------------------------------------
	BYTE	W96
// 009   ----------------------------------------
	BYTE	W96
// 010   ----------------------------------------
	BYTE	W96
// 011   ----------------------------------------
	BYTE	W96
// 012   ----------------------------------------
	BYTE	W96
// 013   ----------------------------------------
	BYTE	W96
// 014   ----------------------------------------
	BYTE	W96
// 015   ----------------------------------------
	BYTE	W96
// 016   ----------------------------------------
	BYTE	W96
// 017   ----------------------------------------
	BYTE	W96
// 018   ----------------------------------------
	BYTE	W96
// 019   ----------------------------------------
	BYTE	W96
// 020   ----------------------------------------
	BYTE	W96
// 021   ----------------------------------------
	BYTE	W96
// 022   ----------------------------------------
	BYTE	W96
// 023   ----------------------------------------
	BYTE	W96
// 024   ----------------------------------------
	BYTE	W96
// 025   ----------------------------------------
	BYTE	W96
// 026   ----------------------------------------
	BYTE	W96
// 027   ----------------------------------------
	BYTE	W96
// 028   ----------------------------------------
	BYTE	W96
// 029   ----------------------------------------
	BYTE	W96
// 030   ----------------------------------------
	BYTE	W96
// 031   ----------------------------------------
	BYTE	W96
// 032   ----------------------------------------
	BYTE	W96
// 033   ----------------------------------------
kuroihikari8850_6_033:
	BYTE	W36
	BYTE		N32     En3   v127
	BYTE	W36
	BYTE		N11     Fn3 
	BYTE	W12
	BYTE		        Gn3 
	BYTE	W12
	BYTE	PEND
// 034   ----------------------------------------
kuroihikari8850_6_034:
	BYTE		N23     An3   v127
	BYTE	W24
	BYTE		N11     Dn3 
	BYTE	W12
	BYTE		N23     As3 
	BYTE	W24
	BYTE		N11     An3 
	BYTE	W12
	BYTE		        Gn3 
	BYTE	W12
	BYTE		        Fn3 
	BYTE	W12
	BYTE	PEND
// 035   ----------------------------------------
kuroihikari8850_6_035:
	BYTE		N23     En3   v127
	BYTE	W24
	BYTE		N11     Fn3 
	BYTE	W12
	BYTE		N32     Dn3 
	BYTE	W36
	BYTE		N11     En3 
	BYTE	W12
	BYTE		        Fn3 
	BYTE	W12
	BYTE	PEND
// 036   ----------------------------------------
kuroihikari8850_6_036:
	BYTE		N23     Gn3   v127
	BYTE	W24
	BYTE		N11     Cn3 
	BYTE	W12
	BYTE		N23     Cn4 
	BYTE	W24
	BYTE		N11     As3 
	BYTE	W12
	BYTE		        An3 
	BYTE	W12
	BYTE		        Gn3 
	BYTE	W12
	BYTE	PEND
// 037   ----------------------------------------
kuroihikari8850_6_037:
	BYTE		N23     Fn3   v127
	BYTE	W24
	BYTE		N11     Gn3 
	BYTE	W12
	BYTE		N23     An3 
	BYTE	W24
	BYTE		        Cs3 
	BYTE	W24
	BYTE		N32     Dn3 
	BYTE	W12
	BYTE	PEND
// 038   ----------------------------------------
kuroihikari8850_6_038:
	BYTE	W24
	BYTE		N23     En3   v127
	BYTE	W24
	BYTE		        Fn3 
	BYTE	W24
	BYTE		        An3 
	BYTE	W24
	BYTE	PEND
// 039   ----------------------------------------
	BYTE		        Gn3 
	BYTE	W24
	BYTE		        Fn3 
	BYTE	W24
	BYTE		N11     Cn3 
	BYTE	W12
	BYTE		N23     Cn4 
	BYTE	W24
	BYTE		TIE     An3 
	BYTE	W10
	BYTE		MOD     0
	BYTE	W02
// 040   ----------------------------------------
	BYTE	W03
	BYTE		        2
	BYTE	W01
	BYTE		        3
	BYTE	W02
	BYTE		        5
	BYTE	W01
	BYTE		        6
	BYTE	W02
	BYTE		        8
	BYTE	W01
	BYTE		        11
	BYTE	W02
	BYTE		        13
	BYTE	W01
	BYTE		        16
	BYTE	W02
	BYTE		        20
	BYTE	W01
	BYTE		        21
	BYTE	W02
	BYTE		        26
	BYTE	W01
	BYTE		        28
	BYTE	W02
	BYTE		        33
	BYTE	W01
	BYTE		        35
	BYTE	W02
	BYTE		        40
	BYTE	W01
	BYTE		        43
	BYTE	W02
	BYTE		        47
	BYTE	W01
	BYTE		        51
	BYTE	W02
	BYTE		        55
	BYTE	W01
	BYTE		        59
	BYTE	W02
	BYTE		        61
	BYTE	W01
	BYTE		        67
	BYTE	W02
	BYTE		        71
	BYTE	W01
	BYTE		        74
	BYTE	W02
	BYTE		        78
	BYTE	W01
	BYTE		        80
	BYTE	W02
	BYTE		        83
	BYTE	W01
	BYTE		        86
	BYTE	W02
	BYTE		        90
	BYTE	W01
	BYTE		        94
	BYTE	W02
	BYTE		        97
	BYTE	W01
	BYTE		        101
	BYTE	W02
	BYTE		        106
	BYTE	W01
	BYTE		        111
	BYTE	W02
	BYTE		        114
	BYTE	W01
	BYTE		        118
	BYTE	W03
	BYTE		        121
	BYTE	W02
	BYTE		        124
	BYTE	W01
	BYTE		        126
	BYTE	W02
	BYTE		        127
	BYTE	W32
	BYTE	W01
// 041   ----------------------------------------
kuroihikari8850_6_041:
	BYTE	W32
	BYTE	W02
	BYTE		MOD     0
	BYTE	W01
	BYTE	PEND
	BYTE		EOT     An3 
	BYTE	W01
	BYTE		N23     En3   v127
	BYTE	W24
	BYTE		N11   
	BYTE	W12
	BYTE		        Fn3 
	BYTE	W12
	BYTE		        Gn3 
	BYTE	W12
// 042   ----------------------------------------
	BYTE	PATT
	 POIN2	kuroihikari8850_6_034
// 043   ----------------------------------------
	BYTE	PATT
	 POIN2	kuroihikari8850_6_035
// 044   ----------------------------------------
	BYTE	PATT
	 POIN2	kuroihikari8850_6_036
// 045   ----------------------------------------
	BYTE	PATT
	 POIN2	kuroihikari8850_6_037
// 046   ----------------------------------------
	BYTE	W24
	BYTE		N23     En3   v127
	BYTE	W24
	BYTE		N11     Fn3 
	BYTE	W12
	BYTE		N22     An3 
	BYTE	W24
	BYTE		N32     Gn3 
	BYTE	W12
// 047   ----------------------------------------
	BYTE	W24
	BYTE		N23     Fn3 
	BYTE	W24
	BYTE		N11     En3 
	BYTE	W12
	BYTE		N23     Cn3 
	BYTE	W24
	BYTE		TIE     Dn3 
	BYTE	W12
// 048   ----------------------------------------
	BYTE	W06
	BYTE		MOD     1
	BYTE	W01
	BYTE		        3
	BYTE	W02
	BYTE		        4
	BYTE	W01
	BYTE		        7
	BYTE	W02
	BYTE		        11
	BYTE	W01
	BYTE		        13
	BYTE	W02
	BYTE		        18
	BYTE	W01
	BYTE		        20
	BYTE	W02
	BYTE		        26
	BYTE	W01
	BYTE		        28
	BYTE	W02
	BYTE		        31
	BYTE	W01
	BYTE		        37
	BYTE	W02
	BYTE		        39
	BYTE	W01
	BYTE		        45
	BYTE	W02
	BYTE		        53
	BYTE	W01
	BYTE		        60
	BYTE	W02
	BYTE		        64
	BYTE	W01
	BYTE		        70
	BYTE	W02
	BYTE		        78
	BYTE	W01
	BYTE		        84
	BYTE	W02
	BYTE		        92
	BYTE	W01
	BYTE		        101
	BYTE	W02
	BYTE		        109
	BYTE	W01
	BYTE		        120
	BYTE	W02
	BYTE		        126
	BYTE	W01
	BYTE		        127
	BYTE	W52
	BYTE	W01
// 049   ----------------------------------------
	BYTE	W23
	BYTE		EOT   
	BYTE	W02
	BYTE		MOD     0
	BYTE	W68
	BYTE	W03
// 050   ----------------------------------------
	BYTE	W96
// 051   ----------------------------------------
	BYTE	W96
// 052   ----------------------------------------
	BYTE	W96
// 053   ----------------------------------------
	BYTE	W96
// 054   ----------------------------------------
	BYTE	W96
// 055   ----------------------------------------
	BYTE	W96
// 056   ----------------------------------------
	BYTE	W96
// 057   ----------------------------------------
	BYTE	W96
// 058   ----------------------------------------
	BYTE	W96
// 059   ----------------------------------------
	BYTE	W96
// 060   ----------------------------------------
	BYTE	W96
// 061   ----------------------------------------
	BYTE	W96
// 062   ----------------------------------------
	BYTE	W96
// 063   ----------------------------------------
	BYTE	W96
// 064   ----------------------------------------
	BYTE	W96
// 065   ----------------------------------------
	BYTE	PATT
	 POIN2	kuroihikari8850_6_033
// 066   ----------------------------------------
	BYTE	PATT
	 POIN2	kuroihikari8850_6_034
// 067   ----------------------------------------
	BYTE	PATT
	 POIN2	kuroihikari8850_6_035
// 068   ----------------------------------------
	BYTE	PATT
	 POIN2	kuroihikari8850_6_036
// 069   ----------------------------------------
	BYTE	PATT
	 POIN2	kuroihikari8850_6_037
// 070   ----------------------------------------
	BYTE	PATT
	 POIN2	kuroihikari8850_6_038
// 071   ----------------------------------------
kuroihikari8850_6_071:
	BYTE		N23     Gn3   v127
	BYTE	W24
	BYTE		        Fn3 
	BYTE	W24
	BYTE		N11     Cn3 
	BYTE	W12
	BYTE		N23     Cn4 
	BYTE	W24
	BYTE		TIE     An3 
	BYTE	W12
	BYTE	PEND
// 072   ----------------------------------------
	BYTE	W04
	BYTE		MOD     0
	BYTE	W03
	BYTE		        2
	BYTE	W02
	BYTE		        3
	BYTE	W01
	BYTE		        5
	BYTE	W02
	BYTE		        6
	BYTE	W03
	BYTE		        9
	BYTE	W03
	BYTE		        12
	BYTE	W01
	BYTE		        13
	BYTE	W02
	BYTE		        15
	BYTE	W01
	BYTE		        17
	BYTE	W02
	BYTE		        20
	BYTE	W01
	BYTE		        23
	BYTE	W02
	BYTE		        24
	BYTE	W01
	BYTE		        28
	BYTE	W02
	BYTE		        30
	BYTE	W01
	BYTE		        33
	BYTE	W02
	BYTE		        37
	BYTE	W01
	BYTE		        40
	BYTE	W02
	BYTE		        44
	BYTE	W01
	BYTE		        48
	BYTE	W02
	BYTE		        53
	BYTE	W01
	BYTE		        57
	BYTE	W02
	BYTE		        60
	BYTE	W01
	BYTE		        66
	BYTE	W02
	BYTE		        71
	BYTE	W01
	BYTE		        75
	BYTE	W02
	BYTE		        81
	BYTE	W01
	BYTE		        87
	BYTE	W02
	BYTE		        93
	BYTE	W01
	BYTE		        96
	BYTE	W02
	BYTE		        101
	BYTE	W01
	BYTE		        105
	BYTE	W02
	BYTE		        109
	BYTE	W01
	BYTE		        113
	BYTE	W02
	BYTE		        118
	BYTE	W01
	BYTE		        123
	BYTE	W02
	BYTE		        126
	BYTE	W01
	BYTE		        127
	BYTE	W32
// 073   ----------------------------------------
	BYTE	PATT
	 POIN2	kuroihikari8850_6_041
	BYTE		EOT     An3 
	BYTE	W01
	BYTE		N23     En3   v127
	BYTE	W24
	BYTE		N11   
	BYTE	W12
	BYTE		        Fn3 
	BYTE	W12
	BYTE		        Gn3 
	BYTE	W12
// 074   ----------------------------------------
	BYTE	PATT
	 POIN2	kuroihikari8850_6_034
// 075   ----------------------------------------
	BYTE	PATT
	 POIN2	kuroihikari8850_6_035
// 076   ----------------------------------------
kuroihikari8850_6_076:
	BYTE		N23     Gn3   v127
	BYTE	W24
	BYTE		N11     Cn3 
	BYTE	W12
	BYTE		N23     Cn4 
	BYTE	W24
	BYTE		N11     An3 
	BYTE	W12
	BYTE		        Cn4 
	BYTE	W12
	BYTE		        En4 
	BYTE	W12
	BYTE	PEND
// 077   ----------------------------------------
kuroihikari8850_6_077:
	BYTE		N23     En4   v127
	BYTE	W24
	BYTE		N11     Fn4 
	BYTE	W12
	BYTE		N23     Dn4 
	BYTE	W24
	BYTE		        En4 
	BYTE	W24
	BYTE		N32     Fn4 
	BYTE	W12
	BYTE	PEND
// 078   ----------------------------------------
kuroihikari8850_6_078:
	BYTE	W24
	BYTE		N23     Dn4   v127
	BYTE	W24
	BYTE		N11     En4 
	BYTE	W12
	BYTE		        Fn4 
	BYTE	W12
	BYTE		        An4 
	BYTE	W12
	BYTE		N23     Gn4 
	BYTE	W12
	BYTE	PEND
// 079   ----------------------------------------
	BYTE	W12
	BYTE		N11     En4 
	BYTE	W12
	BYTE		        Fn4 
	BYTE	W12
	BYTE		N23     Gn4 
	BYTE	W24
	BYTE		N11     Fn4 
	BYTE	W12
	BYTE		        En4 
	BYTE	W12
	BYTE		TIE     Fn4 
	BYTE	W12
// 080   ----------------------------------------
	BYTE	W04
	BYTE		MOD     0
	BYTE	W02
	BYTE		        1
	BYTE	W01
	BYTE		        2
	BYTE	W02
	BYTE		        3
	BYTE	W01
	BYTE		        4
	BYTE	W02
	BYTE		        6
	BYTE	W01
	BYTE		        7
	BYTE	W02
	BYTE		        9
	BYTE	W01
	BYTE		        10
	BYTE	W02
	BYTE		        11
	BYTE	W01
	BYTE		        14
	BYTE	W02
	BYTE		        16
	BYTE	W01
	BYTE		        18
	BYTE	W02
	BYTE		        21
	BYTE	W01
	BYTE		        23
	BYTE	W02
	BYTE		        25
	BYTE	W01
	BYTE		        27
	BYTE	W02
	BYTE		        29
	BYTE	W01
	BYTE		        33
	BYTE	W02
	BYTE		        36
	BYTE	W01
	BYTE		        38
	BYTE	W02
	BYTE		        43
	BYTE	W01
	BYTE		        46
	BYTE	W02
	BYTE		        49
	BYTE	W01
	BYTE		        52
	BYTE	W02
	BYTE		        56
	BYTE	W01
	BYTE		        60
	BYTE	W02
	BYTE		        64
	BYTE	W01
	BYTE		        69
	BYTE	W02
	BYTE		        74
	BYTE	W01
	BYTE		        79
	BYTE	W02
	BYTE		        82
	BYTE	W01
	BYTE		        87
	BYTE	W02
	BYTE		        90
	BYTE	W01
	BYTE		        96
	BYTE	W02
	BYTE		        101
	BYTE	W01
	BYTE		        104
	BYTE	W02
	BYTE		        111
	BYTE	W01
	BYTE		        114
	BYTE	W02
	BYTE		        117
	BYTE	W01
	BYTE		        119
	BYTE	W02
	BYTE		        121
	BYTE	W01
	BYTE		        124
	BYTE	W02
	BYTE		        126
	BYTE	W01
	BYTE		        127
	BYTE	W24
	BYTE	W02
// 081   ----------------------------------------
	BYTE	W68
	BYTE	W03
	BYTE		EOT   
	BYTE	W22
	BYTE		MOD     0
	BYTE	W03
// 082   ----------------------------------------
	BYTE	W96
// 083   ----------------------------------------
	BYTE	W96
// 084   ----------------------------------------
	BYTE	W96
// 085   ----------------------------------------
	BYTE	W96
// 086   ----------------------------------------
	BYTE	W96
// 087   ----------------------------------------
	BYTE	W96
// 088   ----------------------------------------
	BYTE	W96
// 089   ----------------------------------------
	BYTE	W96
// 090   ----------------------------------------
	BYTE	W96
// 091   ----------------------------------------
	BYTE	W96
// 092   ----------------------------------------
	BYTE	W96
// 093   ----------------------------------------
	BYTE	W96
// 094   ----------------------------------------
	BYTE	W96
// 095   ----------------------------------------
	BYTE	W96
// 096   ----------------------------------------
	BYTE	W96
// 097   ----------------------------------------
	BYTE	W96
// 098   ----------------------------------------
	BYTE	W96
// 099   ----------------------------------------
	BYTE	W96
// 100   ----------------------------------------
	BYTE	W96
// 101   ----------------------------------------
	BYTE	W96
// 102   ----------------------------------------
	BYTE	W96
// 103   ----------------------------------------
	BYTE	W96
// 104   ----------------------------------------
	BYTE	W96
// 105   ----------------------------------------
	BYTE	W96
// 106   ----------------------------------------
	BYTE	W96
// 107   ----------------------------------------
	BYTE	W96
// 108   ----------------------------------------
	BYTE	W96
// 109   ----------------------------------------
	BYTE	W96
// 110   ----------------------------------------
	BYTE	W96
// 111   ----------------------------------------
	BYTE	W96
// 112   ----------------------------------------
	BYTE	W96
// 113   ----------------------------------------
	BYTE	W96
// 114   ----------------------------------------
	BYTE	W96
// 115   ----------------------------------------
	BYTE	W96
// 116   ----------------------------------------
	BYTE	PATT
	 POIN2	kuroihikari8850_6_033
// 117   ----------------------------------------
	BYTE	PATT
	 POIN2	kuroihikari8850_6_034
// 118   ----------------------------------------
	BYTE	PATT
	 POIN2	kuroihikari8850_6_035
// 119   ----------------------------------------
	BYTE	PATT
	 POIN2	kuroihikari8850_6_036
// 120   ----------------------------------------
	BYTE	PATT
	 POIN2	kuroihikari8850_6_037
// 121   ----------------------------------------
	BYTE	PATT
	 POIN2	kuroihikari8850_6_038
// 122   ----------------------------------------
	BYTE	PATT
	 POIN2	kuroihikari8850_6_071
// 123   ----------------------------------------
	BYTE	W04
	BYTE		MOD     0
	BYTE	W02
	BYTE		        2
	BYTE	W01
	BYTE		        4
	BYTE	W02
	BYTE		        7
	BYTE	W01
	BYTE		        10
	BYTE	W02
	BYTE		        15
	BYTE	W01
	BYTE		        17
	BYTE	W02
	BYTE		        21
	BYTE	W01
	BYTE		        24
	BYTE	W02
	BYTE		        27
	BYTE	W01
	BYTE		        31
	BYTE	W02
	BYTE		        38
	BYTE	W01
	BYTE		        42
	BYTE	W02
	BYTE		        47
	BYTE	W01
	BYTE		        52
	BYTE	W02
	BYTE		        57
	BYTE	W01
	BYTE		        61
	BYTE	W02
	BYTE		        67
	BYTE	W01
	BYTE		        71
	BYTE	W02
	BYTE		        80
	BYTE	W01
	BYTE		        85
	BYTE	W02
	BYTE		        90
	BYTE	W01
	BYTE		        96
	BYTE	W02
	BYTE		        104
	BYTE	W01
	BYTE		        111
	BYTE	W02
	BYTE		        117
	BYTE	W01
	BYTE		        127
	BYTE	W52
	BYTE	W01
// 124   ----------------------------------------
	BYTE	W32
	BYTE	W03
	BYTE		EOT     An3 
	BYTE	W01
	BYTE		MOD     0
	BYTE		N23     En3   v127
	BYTE	W24
	BYTE		N11   
	BYTE	W12
	BYTE		        Fn3 
	BYTE	W12
	BYTE		        Gn3 
	BYTE	W12
// 125   ----------------------------------------
	BYTE	PATT
	 POIN2	kuroihikari8850_6_034
// 126   ----------------------------------------
	BYTE	PATT
	 POIN2	kuroihikari8850_6_035
// 127   ----------------------------------------
	BYTE	PATT
	 POIN2	kuroihikari8850_6_076
// 128   ----------------------------------------
	BYTE	PATT
	 POIN2	kuroihikari8850_6_077
// 129   ----------------------------------------
	BYTE	PATT
	 POIN2	kuroihikari8850_6_078
// 130   ----------------------------------------
	BYTE	W12
	BYTE		N11     En4   v127
	BYTE	W12
	BYTE		        Fn4 
	BYTE	W12
	BYTE		N23     Gn4 
	BYTE	W24
	BYTE		N11     Fn4 
	BYTE	W12
	BYTE		        En4 
	BYTE	W12
	BYTE		        Fn4 
	BYTE	W12
// 131   ----------------------------------------
	BYTE		TIE     Dn4 
	BYTE	W12
	BYTE		MOD     0
	BYTE	W09
	BYTE		        1
	BYTE	W01
	BYTE		        3
	BYTE	W02
	BYTE		        4
	BYTE	W01
	BYTE		        6
	BYTE	W03
	BYTE		        9
	BYTE	W02
	BYTE		        11
	BYTE	W01
	BYTE		        13
	BYTE	W03
	BYTE		        16
	BYTE	W02
	BYTE		        17
	BYTE	W01
	BYTE		        20
	BYTE	W02
	BYTE		        23
	BYTE	W01
	BYTE		        25
	BYTE	W02
	BYTE		        26
	BYTE	W01
	BYTE		        30
	BYTE	W02
	BYTE		        31
	BYTE	W01
	BYTE		        35
	BYTE	W02
	BYTE		        38
	BYTE	W01
	BYTE		        41
	BYTE	W02
	BYTE		        43
	BYTE	W01
	BYTE		        47
	BYTE	W02
	BYTE		        50
	BYTE	W01
	BYTE		        53
	BYTE	W02
	BYTE		        56
	BYTE	W01
	BYTE		        58
	BYTE	W02
	BYTE		        63
	BYTE	W01
	BYTE		        67
	BYTE	W02
	BYTE		        70
	BYTE	W01
	BYTE		        74
	BYTE	W02
	BYTE		        77
	BYTE	W01
	BYTE		        83
	BYTE	W02
	BYTE		        84
	BYTE	W01
	BYTE		        90
	BYTE	W02
	BYTE		        94
	BYTE	W01
	BYTE		        97
	BYTE	W02
	BYTE		        104
	BYTE	W01
	BYTE		        111
	BYTE	W02
	BYTE		        115
	BYTE	W01
	BYTE		        124
	BYTE	W02
	BYTE		        127
	BYTE	W15
// 132   ----------------------------------------
	BYTE	W68
	BYTE	W03
	BYTE		EOT   
	BYTE	W02
	BYTE		MOD     0
	BYTE	W23
// 133   ----------------------------------------
	BYTE	W96
// 134   ----------------------------------------
	BYTE	W96
// 135   ----------------------------------------
	BYTE	W96
// 136   ----------------------------------------
	BYTE	W96
// 137   ----------------------------------------
	BYTE	W96
// 138   ----------------------------------------
	BYTE	W96
// 139   ----------------------------------------
	BYTE	W96
// 140   ----------------------------------------
	BYTE	W96
// 141   ----------------------------------------
	BYTE	W96
// 142   ----------------------------------------
	BYTE	W96
// 143   ----------------------------------------
	BYTE	W96
// 144   ----------------------------------------
	BYTE	W96
// 145   ----------------------------------------
	BYTE	W96
// 146   ----------------------------------------
	BYTE	W96
// 147   ----------------------------------------
	BYTE	W96
// 148   ----------------------------------------
	BYTE	W96
// 149   ----------------------------------------
	BYTE	W96
// 150   ----------------------------------------
	BYTE	W96
// 151   ----------------------------------------
	BYTE	W96
// 152   ----------------------------------------
	BYTE	W96
// 153   ----------------------------------------
	BYTE	W96
// 154   ----------------------------------------
	BYTE	W96
// 155   ----------------------------------------
	BYTE	W96
// 156   ----------------------------------------
	BYTE	W96
// 157   ----------------------------------------
	BYTE	W96
// 158   ----------------------------------------
	BYTE	W96
// 159   ----------------------------------------
	BYTE	W96
// 160   ----------------------------------------
	BYTE	W96
// 161   ----------------------------------------
	BYTE	W96
// 162   ----------------------------------------
	BYTE	W96
// 163   ----------------------------------------
	BYTE	W96
// 164   ----------------------------------------
	BYTE	W96
// 165   ----------------------------------------
	BYTE	W96
// 166   ----------------------------------------
	BYTE	W96
// 167   ----------------------------------------
	BYTE	W96
// 168   ----------------------------------------
	BYTE	W96
// 169   ----------------------------------------
	BYTE	W96
// 170   ----------------------------------------
	BYTE	W96
// 171   ----------------------------------------
	BYTE	W96
// 172   ----------------------------------------
	BYTE	W96
// 173   ----------------------------------------
	BYTE	W96
// 174   ----------------------------------------
	BYTE	W96
// 175   ----------------------------------------
	BYTE	W96
// 176   ----------------------------------------
	BYTE	W96
// 177   ----------------------------------------
	BYTE	W96
// 178   ----------------------------------------
	BYTE	W96
// 179   ----------------------------------------
	BYTE	W96
// 180   ----------------------------------------
	BYTE	W96
// 181   ----------------------------------------
	BYTE	W96
// 182   ----------------------------------------
	BYTE	W96
// 183   ----------------------------------------
	BYTE	W96
// 184   ----------------------------------------
	BYTE	W96
// 185   ----------------------------------------
	BYTE	W96
// 186   ----------------------------------------
	BYTE	W96
// 187   ----------------------------------------
	BYTE	W96
// 188   ----------------------------------------
	BYTE	W96
// 189   ----------------------------------------
	BYTE	W96
// 190   ----------------------------------------
	BYTE	W96
// 191   ----------------------------------------
	BYTE	W96
// 192   ----------------------------------------
	BYTE	W96
// 193   ----------------------------------------
	BYTE	W96
// 194   ----------------------------------------
	BYTE	W96
// 195   ----------------------------------------
	BYTE	W96
// 196   ----------------------------------------
	BYTE	W96
// 197   ----------------------------------------
	BYTE	W96
// 198   ----------------------------------------
	BYTE	W96
// 199   ----------------------------------------
	BYTE	FINE

//**************** Track 7 (Midi-Chn.7) ****************//

kuroihikari8850_7:
	BYTE	KEYSH   kuroihikari8850_key+0
// 000   ----------------------------------------
	BYTE	W48
	BYTE		VOICE   98
	BYTE		VOL     80*kuroihikari8850_mvl/mxv
	BYTE		PAN     c_v+21
	BYTE	W12
	BYTE		VOICE   98
	BYTE		VOL     80*kuroihikari8850_mvl/mxv
	BYTE	W12
	BYTE	W24
// 001   ----------------------------------------
	BYTE	W96
// 002   ----------------------------------------
	BYTE	W96
// 003   ----------------------------------------
	BYTE	W96
// 004   ----------------------------------------
	BYTE	W96
// 005   ----------------------------------------
	BYTE	W96
// 006   ----------------------------------------
	BYTE	W96
// 007   ----------------------------------------
	BYTE	W96
// 008   ----------------------------------------
	BYTE	W96
// 009   ----------------------------------------
	BYTE	W96
// 010   ----------------------------------------
	BYTE	W96
// 011   ----------------------------------------
	BYTE	W96
// 012   ----------------------------------------
	BYTE	W96
// 013   ----------------------------------------
	BYTE	W96
// 014   ----------------------------------------
	BYTE	W96
// 015   ----------------------------------------
	BYTE	W96
// 016   ----------------------------------------
	BYTE	W96
// 017   ----------------------------------------
	BYTE	W96
// 018   ----------------------------------------
	BYTE	W96
// 019   ----------------------------------------
	BYTE	W96
// 020   ----------------------------------------
	BYTE	W96
// 021   ----------------------------------------
	BYTE	W96
// 022   ----------------------------------------
	BYTE	W96
// 023   ----------------------------------------
	BYTE	W96
// 024   ----------------------------------------
	BYTE	W96
// 025   ----------------------------------------
	BYTE	W96
// 026   ----------------------------------------
	BYTE	W96
// 027   ----------------------------------------
	BYTE	W96
// 028   ----------------------------------------
	BYTE	W96
// 029   ----------------------------------------
	BYTE	W96
// 030   ----------------------------------------
	BYTE	W96
// 031   ----------------------------------------
	BYTE	W96
// 032   ----------------------------------------
	BYTE	W96
// 033   ----------------------------------------
	BYTE	W96
// 034   ----------------------------------------
kuroihikari8850_7_034:
	BYTE		N23     An3   v100
	BYTE		N23     An4 
	BYTE	W24
	BYTE		        Dn4 
	BYTE		N23     Dn5 
	BYTE	W24
	BYTE		        Fn4 
	BYTE		N23     Fn5 
	BYTE	W24
	BYTE		        An4 
	BYTE		N23     An5 
	BYTE	W24
	BYTE	PEND
// 035   ----------------------------------------
kuroihikari8850_7_035:
	BYTE		N23     Gn4   v100
	BYTE		N23     Gn5 
	BYTE	W24
	BYTE		        En4 
	BYTE		N23     En5 
	BYTE	W24
	BYTE		        Cn4 
	BYTE		N23     Cn5 
	BYTE	W24
	BYTE		        En4 
	BYTE		N23     En5 
	BYTE	W24
	BYTE	PEND
// 036   ----------------------------------------
kuroihikari8850_7_036:
	BYTE		N23     Gn4   v100
	BYTE		N23     Gn5 
	BYTE	W24
	BYTE		        Cn4 
	BYTE		N23     Cn5 
	BYTE	W24
	BYTE		        En4 
	BYTE		N23     En5 
	BYTE	W24
	BYTE		        Gn4 
	BYTE		N23     Gn5 
	BYTE	W24
	BYTE	PEND
// 037   ----------------------------------------
kuroihikari8850_7_037:
	BYTE		N23     Fn4   v100
	BYTE		N23     Fn5 
	BYTE	W24
	BYTE		        En4 
	BYTE		N23     En5 
	BYTE	W24
	BYTE		        Gn4 
	BYTE		N23     Gn5 
	BYTE	W24
	BYTE		        Cs4 
	BYTE		N23     Cs5 
	BYTE	W24
	BYTE	PEND
// 038   ----------------------------------------
kuroihikari8850_7_038:
	BYTE		N23     Dn4   v100
	BYTE		N23     Dn5 
	BYTE	W24
	BYTE		        As3 
	BYTE		N23     As4 
	BYTE	W24
	BYTE		        Dn4 
	BYTE		N23     Dn5 
	BYTE	W24
	BYTE		        Fn4 
	BYTE		N23     Fn5 
	BYTE	W24
	BYTE	PEND
// 039   ----------------------------------------
kuroihikari8850_7_039:
	BYTE		N23     En4   v100
	BYTE		N23     En5 
	BYTE	W24
	BYTE		        Fn4 
	BYTE		N23     Fn5 
	BYTE	W24
	BYTE		        Gn4 
	BYTE		N23     Gn5 
	BYTE	W24
	BYTE		        En4 
	BYTE		N23     En5 
	BYTE	W24
	BYTE	PEND
// 040   ----------------------------------------
kuroihikari8850_7_040:
	BYTE		N23     An4   v100
	BYTE		N23     An5 
	BYTE	W24
	BYTE		        En4 
	BYTE		N23     En5 
	BYTE	W24
	BYTE		        Fn4 
	BYTE		N23     Fn5 
	BYTE	W24
	BYTE		        Gn4 
	BYTE		N23     Gn5 
	BYTE	W24
	BYTE	PEND
// 041   ----------------------------------------
kuroihikari8850_7_041:
	BYTE		N23     An4   v100
	BYTE		N23     An5 
	BYTE	W24
	BYTE		        Gn4 
	BYTE		N23     Gn5 
	BYTE	W24
	BYTE		        Fn4 
	BYTE		N23     Fn5 
	BYTE	W24
	BYTE		        En4 
	BYTE		N23     En5 
	BYTE	W24
	BYTE	PEND
// 042   ----------------------------------------
kuroihikari8850_7_042:
	BYTE		N23     An4   v100
	BYTE		N23     An5 
	BYTE	W24
	BYTE		        Dn4 
	BYTE		N23     Dn5 
	BYTE	W24
	BYTE		        Fn4 
	BYTE		N23     Fn5 
	BYTE	W24
	BYTE		        An4 
	BYTE		N23     An5 
	BYTE	W24
	BYTE	PEND
// 043   ----------------------------------------
	BYTE	PATT
	 POIN2	kuroihikari8850_7_035
// 044   ----------------------------------------
	BYTE	PATT
	 POIN2	kuroihikari8850_7_036
// 045   ----------------------------------------
kuroihikari8850_7_045:
	BYTE		N23     An4   v100
	BYTE		N23     An5 
	BYTE	W24
	BYTE		        As4 
	BYTE		N23     As5 
	BYTE	W24
	BYTE		        En5 
	BYTE		N23     En6 
	BYTE	W24
	BYTE		        Cn5 
	BYTE		N23     Cn6 
	BYTE	W24
	BYTE	PEND
// 046   ----------------------------------------
	BYTE		        Dn5 
	BYTE		N23     Dn6 
	BYTE	W24
	BYTE		        Fn4 
	BYTE		N23     Fn5 
	BYTE	W24
	BYTE		        An4 
	BYTE		N23     An5 
	BYTE	W24
	BYTE		        Dn5 
	BYTE		N23     Dn6 
	BYTE	W24
// 047   ----------------------------------------
kuroihikari8850_7_047:
	BYTE		N23     En5   v100
	BYTE		N23     En6 
	BYTE	W24
	BYTE		        Cn5 
	BYTE		N23     Cn6 
	BYTE	W24
	BYTE		        En5 
	BYTE		N23     En6 
	BYTE	W24
	BYTE		        Gn5 
	BYTE		N23     Gn6 
	BYTE	W24
	BYTE	PEND
// 048   ----------------------------------------
kuroihikari8850_7_048:
	BYTE		N23     Fn5   v100
	BYTE		N23     Fn6 
	BYTE	W24
	BYTE		        En5 
	BYTE		N23     En6 
	BYTE	W24
	BYTE		        Dn5 
	BYTE		N23     Dn6 
	BYTE	W24
	BYTE		        En5 
	BYTE		N23     En6 
	BYTE	W24
	BYTE	PEND
// 049   ----------------------------------------
	BYTE	PATT
	 POIN2	kuroihikari8850_7_048
// 050   ----------------------------------------
	BYTE	W96
// 051   ----------------------------------------
	BYTE	W96
// 052   ----------------------------------------
	BYTE	W96
// 053   ----------------------------------------
	BYTE	W96
// 054   ----------------------------------------
	BYTE	W96
// 055   ----------------------------------------
	BYTE	W96
// 056   ----------------------------------------
	BYTE	W96
// 057   ----------------------------------------
	BYTE	W96
// 058   ----------------------------------------
	BYTE	W96
// 059   ----------------------------------------
	BYTE	W96
// 060   ----------------------------------------
	BYTE	W96
// 061   ----------------------------------------
	BYTE	W96
// 062   ----------------------------------------
	BYTE	W96
// 063   ----------------------------------------
	BYTE	W96
// 064   ----------------------------------------
	BYTE	W96
// 065   ----------------------------------------
	BYTE	W96
// 066   ----------------------------------------
	BYTE	PATT
	 POIN2	kuroihikari8850_7_034
// 067   ----------------------------------------
	BYTE	PATT
	 POIN2	kuroihikari8850_7_035
// 068   ----------------------------------------
	BYTE	PATT
	 POIN2	kuroihikari8850_7_036
// 069   ----------------------------------------
	BYTE	PATT
	 POIN2	kuroihikari8850_7_037
// 070   ----------------------------------------
	BYTE	PATT
	 POIN2	kuroihikari8850_7_038
// 071   ----------------------------------------
	BYTE	PATT
	 POIN2	kuroihikari8850_7_039
// 072   ----------------------------------------
	BYTE	PATT
	 POIN2	kuroihikari8850_7_040
// 073   ----------------------------------------
	BYTE	PATT
	 POIN2	kuroihikari8850_7_041
// 074   ----------------------------------------
	BYTE	PATT
	 POIN2	kuroihikari8850_7_042
// 075   ----------------------------------------
	BYTE	PATT
	 POIN2	kuroihikari8850_7_035
// 076   ----------------------------------------
	BYTE	PATT
	 POIN2	kuroihikari8850_7_036
// 077   ----------------------------------------
	BYTE	PATT
	 POIN2	kuroihikari8850_7_045
// 078   ----------------------------------------
kuroihikari8850_7_078:
	BYTE		N23     Dn5   v080
	BYTE		N23     Dn6   v100
	BYTE	W24
	BYTE		        Fn4 
	BYTE		N23     Fn5 
	BYTE	W24
	BYTE		        An4 
	BYTE		N23     An5 
	BYTE	W24
	BYTE		        Dn5 
	BYTE		N23     Dn6 
	BYTE	W24
	BYTE	PEND
// 079   ----------------------------------------
	BYTE	PATT
	 POIN2	kuroihikari8850_7_047
// 080   ----------------------------------------
	BYTE	PATT
	 POIN2	kuroihikari8850_7_048
// 081   ----------------------------------------
kuroihikari8850_7_081:
	BYTE		N23     Fn5   v100
	BYTE		N23     Fn6 
	BYTE	W24
	BYTE		        En5 
	BYTE		N23     En6 
	BYTE	W24
	BYTE		        Gn5 
	BYTE		N23     Gn6 
	BYTE	W24
	BYTE		        En5 
	BYTE		N23     En6 
	BYTE	W24
	BYTE	PEND
// 082   ----------------------------------------
	BYTE	PATT
	 POIN2	kuroihikari8850_7_081
// 083   ----------------------------------------
kuroihikari8850_7_083:
	BYTE		N68     Fn5   v100
	BYTE		N68     Fn6 
	BYTE		N68     An6 
	BYTE	W96
	BYTE	PEND
// 084   ----------------------------------------
kuroihikari8850_7_084:
	BYTE		N23     Fn5   v092
	BYTE		N23     Fn6 
	BYTE	W24
	BYTE		        En5 
	BYTE		N23     En6 
	BYTE	W24
	BYTE		        Gn5 
	BYTE		N23     Gn6 
	BYTE	W24
	BYTE		        En5 
	BYTE		N23     En6 
	BYTE	W24
	BYTE	PEND
// 085   ----------------------------------------
kuroihikari8850_7_085:
	BYTE		N23     Fn5   v092
	BYTE		N23     Fn6 
	BYTE	W24
	BYTE		        En5 
	BYTE		N23     En6 
	BYTE	W24
	BYTE		        Dn5 
	BYTE		N23     Dn6 
	BYTE	W24
	BYTE		        En5 
	BYTE		N23     En6 
	BYTE	W24
	BYTE	PEND
// 086   ----------------------------------------
	BYTE	PATT
	 POIN2	kuroihikari8850_7_085
// 087   ----------------------------------------
	BYTE		N23     Fn5   v092
	BYTE		N23     Fn6 
	BYTE	W24
	BYTE		        En5 
	BYTE		N23     En6 
	BYTE	W24
	BYTE		        Gn5 
	BYTE		N23     Gn6 
	BYTE	W24
	BYTE		        An5 
	BYTE		N23     An6 
	BYTE	W24
// 088   ----------------------------------------
	BYTE	PATT
	 POIN2	kuroihikari8850_7_085
// 089   ----------------------------------------
	BYTE	PATT
	 POIN2	kuroihikari8850_7_084
// 090   ----------------------------------------
	BYTE		N23     Fn5   v092
	BYTE		N23     Fn6 
	BYTE	W24
	BYTE		        En5 
	BYTE		N23     En6 
	BYTE	W24
	BYTE		        Dn5 
	BYTE		N23     Dn6 
	BYTE	W24
	BYTE		        An5 
	BYTE		N23     An6 
	BYTE	W24
// 091   ----------------------------------------
	BYTE		        Gn5 
	BYTE		N23     Gn6 
	BYTE	W24
	BYTE		        En5 
	BYTE		N23     En6 
	BYTE	W24
	BYTE		        Fn5 
	BYTE		N23     Fn6 
	BYTE	W24
	BYTE		        Gn5 
	BYTE		N23     Gn6 
	BYTE	W24
// 092   ----------------------------------------
	BYTE	PATT
	 POIN2	kuroihikari8850_7_084
// 093   ----------------------------------------
	BYTE		N23     Dn5   v092
	BYTE		N23     Dn6 
	BYTE	W24
	BYTE		        En5 
	BYTE		N23     En6 
	BYTE	W24
	BYTE		        Fn5 
	BYTE		N23     Fn6 
	BYTE	W24
	BYTE		        En5 
	BYTE		N23     En6 
	BYTE	W24
// 094   ----------------------------------------
	BYTE	PATT
	 POIN2	kuroihikari8850_7_085
// 095   ----------------------------------------
	BYTE		N23     Fn5   v092
	BYTE		N23     Fn6 
	BYTE	W24
	BYTE		        En5 
	BYTE		N23     En6 
	BYTE	W24
	BYTE		        An5 
	BYTE		N23     An6 
	BYTE	W24
	BYTE		        Cn6 
	BYTE		N23     Cn7 
	BYTE	W24
// 096   ----------------------------------------
	BYTE		        Gn5 
	BYTE		N23     Gn6 
	BYTE	W24
	BYTE		        Fn5 
	BYTE		N23     Fn6 
	BYTE	W24
	BYTE		        En5 
	BYTE		N23     En6 
	BYTE	W24
	BYTE		        Fn5 
	BYTE		N23     Fn6 
	BYTE	W24
// 097   ----------------------------------------
	BYTE		        Gn5 
	BYTE		N23     Gn6 
	BYTE	W24
	BYTE		        En5 
	BYTE		N23     En6 
	BYTE	W24
	BYTE		        Gn5 
	BYTE		N23     Gn6 
	BYTE	W24
	BYTE		        As5 
	BYTE		N23     As6 
	BYTE	W24
// 098   ----------------------------------------
	BYTE		        Cn6 
	BYTE		N23     Cn7 
	BYTE	W24
	BYTE		        As5 
	BYTE		N23     As6 
	BYTE	W24
	BYTE		        An5 
	BYTE		N23     An6 
	BYTE	W24
	BYTE		        Fn5 
	BYTE		N23     Fn6 
	BYTE	W24
// 099   ----------------------------------------
	BYTE		        Gn5 
	BYTE		N23     Gn6 
	BYTE	W24
	BYTE		        Fn5 
	BYTE		N23     Fn6 
	BYTE	W24
	BYTE		        En5 
	BYTE		N23     En6 
	BYTE	W24
	BYTE		        En5 
	BYTE		N23     Cn6 
	BYTE		N23     En6 
	BYTE		N23     An6 
	BYTE	W24
// 100   ----------------------------------------
	BYTE	W96
// 101   ----------------------------------------
	BYTE	W96
// 102   ----------------------------------------
	BYTE	W96
// 103   ----------------------------------------
	BYTE	W96
// 104   ----------------------------------------
	BYTE	W96
// 105   ----------------------------------------
	BYTE	W96
// 106   ----------------------------------------
	BYTE	W96
// 107   ----------------------------------------
	BYTE	W96
// 108   ----------------------------------------
	BYTE	W96
// 109   ----------------------------------------
	BYTE	W96
// 110   ----------------------------------------
	BYTE	W96
// 111   ----------------------------------------
	BYTE	W96
// 112   ----------------------------------------
	BYTE	W96
// 113   ----------------------------------------
	BYTE	W96
// 114   ----------------------------------------
	BYTE	W96
// 115   ----------------------------------------
	BYTE	W96
// 116   ----------------------------------------
	BYTE	W96
// 117   ----------------------------------------
	BYTE	PATT
	 POIN2	kuroihikari8850_7_034
// 118   ----------------------------------------
	BYTE	PATT
	 POIN2	kuroihikari8850_7_035
// 119   ----------------------------------------
	BYTE	PATT
	 POIN2	kuroihikari8850_7_036
// 120   ----------------------------------------
	BYTE	PATT
	 POIN2	kuroihikari8850_7_037
// 121   ----------------------------------------
	BYTE	PATT
	 POIN2	kuroihikari8850_7_038
// 122   ----------------------------------------
	BYTE	PATT
	 POIN2	kuroihikari8850_7_039
// 123   ----------------------------------------
	BYTE	PATT
	 POIN2	kuroihikari8850_7_040
// 124   ----------------------------------------
	BYTE	PATT
	 POIN2	kuroihikari8850_7_041
// 125   ----------------------------------------
	BYTE	PATT
	 POIN2	kuroihikari8850_7_042
// 126   ----------------------------------------
	BYTE	PATT
	 POIN2	kuroihikari8850_7_035
// 127   ----------------------------------------
	BYTE	PATT
	 POIN2	kuroihikari8850_7_036
// 128   ----------------------------------------
	BYTE	PATT
	 POIN2	kuroihikari8850_7_045
// 129   ----------------------------------------
	BYTE	PATT
	 POIN2	kuroihikari8850_7_078
// 130   ----------------------------------------
	BYTE	PATT
	 POIN2	kuroihikari8850_7_047
// 131   ----------------------------------------
	BYTE	PATT
	 POIN2	kuroihikari8850_7_048
// 132   ----------------------------------------
	BYTE	PATT
	 POIN2	kuroihikari8850_7_081
// 133   ----------------------------------------
	BYTE	PATT
	 POIN2	kuroihikari8850_7_081
// 134   ----------------------------------------
	BYTE	PATT
	 POIN2	kuroihikari8850_7_083
// 135   ----------------------------------------
	BYTE	W96
// 136   ----------------------------------------
	BYTE	W96
// 137   ----------------------------------------
	BYTE	W96
// 138   ----------------------------------------
	BYTE	W96
// 139   ----------------------------------------
	BYTE	W96
// 140   ----------------------------------------
	BYTE	W96
// 141   ----------------------------------------
	BYTE	W96
// 142   ----------------------------------------
	BYTE	W96
// 143   ----------------------------------------
	BYTE	W96
// 144   ----------------------------------------
	BYTE	W96
// 145   ----------------------------------------
	BYTE	W96
// 146   ----------------------------------------
	BYTE	W96
// 147   ----------------------------------------
	BYTE	W96
// 148   ----------------------------------------
	BYTE	W96
// 149   ----------------------------------------
	BYTE	W96
// 150   ----------------------------------------
	BYTE	W96
// 151   ----------------------------------------
	BYTE	W96
// 152   ----------------------------------------
	BYTE	W96
// 153   ----------------------------------------
	BYTE	W96
// 154   ----------------------------------------
	BYTE	W96
// 155   ----------------------------------------
	BYTE	W96
// 156   ----------------------------------------
	BYTE	W96
// 157   ----------------------------------------
	BYTE	W96
// 158   ----------------------------------------
	BYTE	W96
// 159   ----------------------------------------
	BYTE	W96
// 160   ----------------------------------------
	BYTE	W96
// 161   ----------------------------------------
	BYTE	W96
// 162   ----------------------------------------
	BYTE	W96
// 163   ----------------------------------------
	BYTE	W96
// 164   ----------------------------------------
	BYTE	W96
// 165   ----------------------------------------
	BYTE	W96
// 166   ----------------------------------------
	BYTE	W96
// 167   ----------------------------------------
	BYTE	W96
// 168   ----------------------------------------
	BYTE	W96
// 169   ----------------------------------------
	BYTE	W96
// 170   ----------------------------------------
	BYTE	W96
// 171   ----------------------------------------
	BYTE	W96
// 172   ----------------------------------------
	BYTE	W96
// 173   ----------------------------------------
	BYTE	W96
// 174   ----------------------------------------
	BYTE	W96
// 175   ----------------------------------------
	BYTE	W96
// 176   ----------------------------------------
	BYTE	W96
// 177   ----------------------------------------
	BYTE	W96
// 178   ----------------------------------------
	BYTE	W96
// 179   ----------------------------------------
	BYTE	W96
// 180   ----------------------------------------
	BYTE	W96
// 181   ----------------------------------------
	BYTE	W96
// 182   ----------------------------------------
	BYTE	W96
// 183   ----------------------------------------
	BYTE	W96
// 184   ----------------------------------------
	BYTE	W96
// 185   ----------------------------------------
	BYTE	W96
// 186   ----------------------------------------
	BYTE	W96
// 187   ----------------------------------------
	BYTE	W96
// 188   ----------------------------------------
	BYTE	W96
// 189   ----------------------------------------
	BYTE	W96
// 190   ----------------------------------------
	BYTE	W96
// 191   ----------------------------------------
	BYTE	W96
// 192   ----------------------------------------
	BYTE	W96
// 193   ----------------------------------------
	BYTE	W96
// 194   ----------------------------------------
	BYTE	W96
// 195   ----------------------------------------
	BYTE	W96
// 196   ----------------------------------------
	BYTE	W96
// 197   ----------------------------------------
	BYTE	W96
// 198   ----------------------------------------
	BYTE	W96
// 199   ----------------------------------------
	BYTE	FINE

//**************** Track 8 (Midi-Chn.8) ****************//

kuroihikari8850_8:
	BYTE	KEYSH   kuroihikari8850_key+0
// 000   ----------------------------------------
	BYTE	W48
	BYTE		VOICE   25
	BYTE		VOL     80*kuroihikari8850_mvl/mxv
	BYTE		PAN     c_v-34
	BYTE		        c_v-30
	BYTE	W12
	BYTE		VOICE   25
	BYTE		VOL     85*kuroihikari8850_mvl/mxv
	BYTE	W12
	BYTE	W24
// 001   ----------------------------------------
	BYTE	W96
// 002   ----------------------------------------
kuroihikari8850_8_002:
	BYTE		N02     Fn2   v100
	BYTE		N02     An2 
	BYTE		N02     Dn3 
	BYTE	W24
	BYTE		N16   
	BYTE		N16     Fn3 
	BYTE		N16     An3 
	BYTE	W18
	BYTE		N01     Dn3 
	BYTE		N01     Fn3 
	BYTE		N01     An3 
	BYTE	W06
	BYTE		        Fn2 
	BYTE		N01     An2 
	BYTE		N01     Dn3 
	BYTE	W06
	BYTE		        Fn2 
	BYTE		N01     An2 
	BYTE		N01     Dn3 
	BYTE	W06
	BYTE		N04   
	BYTE		N04     Fn3 
	BYTE		N04     An3 
	BYTE	W06
	BYTE		N01     An2 
	BYTE		N01     Dn3 
	BYTE		N01     Fn3 
	BYTE	W06
	BYTE		N10     Dn3 
	BYTE		N10     Fn3 
	BYTE		N10     An3 
	BYTE	W12
	BYTE		N01     An2 
	BYTE		N01     Dn3 
	BYTE		N01     Fn3 
	BYTE	W06
	BYTE		        An2 
	BYTE		N01     Dn3 
	BYTE		N01     Fn3 
	BYTE	W06
	BYTE	PEND
// 003   ----------------------------------------
kuroihikari8850_8_003:
	BYTE		N02     Fn2   v100
	BYTE		N02     An2 
	BYTE		N02     Cn3 
	BYTE	W24
	BYTE		N16   
	BYTE		N16     En3 
	BYTE		N16     An3 
	BYTE	W18
	BYTE		N01     Cn3 
	BYTE		N01     En3 
	BYTE		N01     An3 
	BYTE	W06
	BYTE		        Fn2 
	BYTE		N01     An2 
	BYTE		N01     Cn3 
	BYTE	W06
	BYTE		        Fn2 
	BYTE		N01     An2 
	BYTE		N01     Cn3 
	BYTE	W06
	BYTE		N04   
	BYTE		N04     En3 
	BYTE		N04     An3 
	BYTE	W06
	BYTE		N01     An2 
	BYTE		N01     Cn3 
	BYTE		N01     En3 
	BYTE	W06
	BYTE		N10     Cn3 
	BYTE		N10     En3 
	BYTE		N10     An3 
	BYTE	W12
	BYTE		N01     An2 
	BYTE		N01     Cn3 
	BYTE		N01     En3 
	BYTE	W06
	BYTE		        An2 
	BYTE		N01     Cn3 
	BYTE		N01     En3 
	BYTE	W06
	BYTE	PEND
// 004   ----------------------------------------
	BYTE	PATT
	 POIN2	kuroihikari8850_8_002
// 005   ----------------------------------------
kuroihikari8850_8_005:
	BYTE		N02     Fn2   v100
	BYTE		N02     An2 
	BYTE		N02     Cn3 
	BYTE	W24
	BYTE		N16   
	BYTE		N16     En3 
	BYTE		N16     Gn3 
	BYTE	W18
	BYTE		N01     Cn3 
	BYTE		N01     En3 
	BYTE		N01     Gn3 
	BYTE	W06
	BYTE		        Fn2 
	BYTE		N01     An2 
	BYTE		N01     Cn3 
	BYTE	W06
	BYTE		        Fn2 
	BYTE		N01     An2 
	BYTE		N01     Cn3 
	BYTE	W06
	BYTE		N04   
	BYTE		N04     En3 
	BYTE		N04     Gn3 
	BYTE	W06
	BYTE		N01     An2 
	BYTE		N01     Cn3 
	BYTE		N01     En3 
	BYTE	W06
	BYTE		N10     Cn3 
	BYTE		N10     En3 
	BYTE		N10     Gn3 
	BYTE	W12
	BYTE		N01     An2 
	BYTE		N01     Cn3 
	BYTE		N01     En3 
	BYTE	W06
	BYTE		        An2 
	BYTE		N01     Cn3 
	BYTE		N01     En3 
	BYTE	W06
	BYTE	PEND
// 006   ----------------------------------------
	BYTE	PATT
	 POIN2	kuroihikari8850_8_002
// 007   ----------------------------------------
	BYTE	PATT
	 POIN2	kuroihikari8850_8_003
// 008   ----------------------------------------
	BYTE	PATT
	 POIN2	kuroihikari8850_8_002
// 009   ----------------------------------------
	BYTE	PATT
	 POIN2	kuroihikari8850_8_005
// 010   ----------------------------------------
kuroihikari8850_8_010:
	BYTE		N02     Fn2   v100
	BYTE		N02     As2 
	BYTE		N02     Dn3 
	BYTE	W12
	BYTE		        Fn2 
	BYTE		N02     As2 
	BYTE		N02     Dn3 
	BYTE	W06
	BYTE		        Fn2 
	BYTE		N02     As2 
	BYTE		N02     Dn3 
	BYTE	W06
	BYTE		N10   
	BYTE		N10     Fn3 
	BYTE		N10     As3 
	BYTE	W12
	BYTE		N02     As2 
	BYTE		N02     Dn3 
	BYTE		N02     Fn3 
	BYTE	W06
	BYTE		        As2 
	BYTE		N02     Dn3 
	BYTE		N02     Fn3 
	BYTE	W12
	BYTE		        Fn2 
	BYTE		N02     As2 
	BYTE		N02     Dn3 
	BYTE	W06
	BYTE		N04   
	BYTE		N04     Fn3 
	BYTE		N04     As3 
	BYTE	W06
	BYTE		N02     As2 
	BYTE		N02     Dn3 
	BYTE		N02     Fn3 
	BYTE	W06
	BYTE		N10     Dn3 
	BYTE		N10     Fn3 
	BYTE		N10     As3 
	BYTE	W12
	BYTE		N04     Dn3 
	BYTE		N04     Fn3 
	BYTE		N04     As3 
	BYTE	W06
	BYTE		        Dn3 
	BYTE		N04     Fn3 
	BYTE		N04     As3 
	BYTE	W06
	BYTE	PEND
// 011   ----------------------------------------
kuroihikari8850_8_011:
	BYTE		N02     En2   v100
	BYTE		N02     An2 
	BYTE		N02     Cn3 
	BYTE	W12
	BYTE		        En2 
	BYTE		N02     An2 
	BYTE		N02     Cn3 
	BYTE	W06
	BYTE		        En2 
	BYTE		N02     An2 
	BYTE		N02     Cn3 
	BYTE	W06
	BYTE		N10   
	BYTE		N10     En3 
	BYTE		N10     Gn3 
	BYTE	W12
	BYTE		N02     An2 
	BYTE		N02     Cn3 
	BYTE		N02     En3 
	BYTE	W06
	BYTE		        An2 
	BYTE		N02     Cn3 
	BYTE		N02     En3 
	BYTE	W12
	BYTE		        En2 
	BYTE		N02     An2 
	BYTE		N02     Cn3 
	BYTE	W06
	BYTE		N04   
	BYTE		N04     En3 
	BYTE		N04     Gn3 
	BYTE	W06
	BYTE		N02     An2 
	BYTE		N02     Cn3 
	BYTE		N02     En3 
	BYTE	W06
	BYTE		N10     Cn3 
	BYTE		N10     En3 
	BYTE		N10     Gn3 
	BYTE	W12
	BYTE		N04     Cn3 
	BYTE		N04     En3 
	BYTE		N04     Gn3 
	BYTE	W06
	BYTE		        Cn3 
	BYTE		N04     En3 
	BYTE		N04     Gn3 
	BYTE	W06
	BYTE	PEND
// 012   ----------------------------------------
kuroihikari8850_8_012:
	BYTE		N02     Fn2   v100
	BYTE		N02     An2 
	BYTE		N02     Cn3 
	BYTE	W12
	BYTE		        Fn2 
	BYTE		N02     An2 
	BYTE		N02     Cn3 
	BYTE	W06
	BYTE		        Fn2 
	BYTE		N02     An2 
	BYTE		N02     Cn3 
	BYTE	W06
	BYTE		N10   
	BYTE		N10     Fn3 
	BYTE		N10     An3 
	BYTE	W12
	BYTE		N02     An2 
	BYTE		N02     Cn3 
	BYTE		N02     Fn3 
	BYTE	W06
	BYTE		        An2 
	BYTE		N02     Cn3 
	BYTE		N02     Fn3 
	BYTE	W12
	BYTE		        Fn2 
	BYTE		N02     An2 
	BYTE		N02     Cn3 
	BYTE	W06
	BYTE		N04   
	BYTE		N04     Fn3 
	BYTE		N04     An3 
	BYTE	W06
	BYTE		N02     An2 
	BYTE		N02     Cn3 
	BYTE		N02     Fn3 
	BYTE	W06
	BYTE		N10     Cn3 
	BYTE		N10     Fn3 
	BYTE		N10     An3 
	BYTE	W12
	BYTE		N04     Cn3 
	BYTE		N04     Fn3 
	BYTE		N04     An3 
	BYTE	W06
	BYTE		        Cn3 
	BYTE		N04     Fn3 
	BYTE		N04     An3 
	BYTE	W06
	BYTE	PEND
// 013   ----------------------------------------
	BYTE	PATT
	 POIN2	kuroihikari8850_8_011
// 014   ----------------------------------------
	BYTE	PATT
	 POIN2	kuroihikari8850_8_010
// 015   ----------------------------------------
	BYTE	PATT
	 POIN2	kuroihikari8850_8_011
// 016   ----------------------------------------
	BYTE		N02     Fn2   v100
	BYTE		N02     An2 
	BYTE		N02     Dn3 
	BYTE	W12
	BYTE		        Fn2 
	BYTE		N02     An2 
	BYTE		N02     Dn3 
	BYTE	W06
	BYTE		        Fn2 
	BYTE		N02     An2 
	BYTE		N02     Dn3 
	BYTE	W06
	BYTE		N10   
	BYTE		N10     Fn3 
	BYTE		N10     An3 
	BYTE	W12
	BYTE		N02     An2 
	BYTE		N02     Dn3 
	BYTE		N02     Fn3 
	BYTE	W06
	BYTE		        An2 
	BYTE		N02     Dn3 
	BYTE		N02     Fn3 
	BYTE	W12
	BYTE		        Fn2 
	BYTE		N02     An2 
	BYTE		N02     Dn3 
	BYTE	W06
	BYTE		N04   
	BYTE		N04     Fn3 
	BYTE		N04     An3 
	BYTE	W06
	BYTE		N02     An2 
	BYTE		N02     Dn3 
	BYTE		N02     Fn3 
	BYTE	W06
	BYTE		N10     Dn3 
	BYTE		N10     Fn3 
	BYTE		N10     An3 
	BYTE	W12
	BYTE		N04     Dn3 
	BYTE		N04     Fn3 
	BYTE		N04     An3 
	BYTE	W06
	BYTE		        Dn3 
	BYTE		N04     Fn3 
	BYTE		N04     An3 
	BYTE	W06
// 017   ----------------------------------------
	BYTE		N05     Dn3 
	BYTE		N05     Fn3 
	BYTE		N05     An3 
	BYTE	W06
	BYTE		        Dn3 
	BYTE		N05     Fn3 
	BYTE		N05     An3 
	BYTE	W06
	BYTE		        Dn3 
	BYTE		N05     Fn3 
	BYTE		N05     An3 
	BYTE	W06
	BYTE		N17     Dn3 
	BYTE		N17     Fn3 
	BYTE		N17     An3 
	BYTE	W18
	BYTE		N52     En2 
	BYTE		N52     An2 
	BYTE	W01
	BYTE		        Cn3 
	BYTE	W02
	BYTE		N48     En3 
	BYTE	W56
	BYTE	W01
// 018   ----------------------------------------
	BYTE	PATT
	 POIN2	kuroihikari8850_8_002
// 019   ----------------------------------------
	BYTE	PATT
	 POIN2	kuroihikari8850_8_003
// 020   ----------------------------------------
	BYTE	PATT
	 POIN2	kuroihikari8850_8_002
// 021   ----------------------------------------
	BYTE	PATT
	 POIN2	kuroihikari8850_8_005
// 022   ----------------------------------------
	BYTE	PATT
	 POIN2	kuroihikari8850_8_002
// 023   ----------------------------------------
	BYTE	PATT
	 POIN2	kuroihikari8850_8_003
// 024   ----------------------------------------
	BYTE	PATT
	 POIN2	kuroihikari8850_8_002
// 025   ----------------------------------------
	BYTE	PATT
	 POIN2	kuroihikari8850_8_005
// 026   ----------------------------------------
	BYTE	PATT
	 POIN2	kuroihikari8850_8_010
// 027   ----------------------------------------
	BYTE	PATT
	 POIN2	kuroihikari8850_8_011
// 028   ----------------------------------------
	BYTE	PATT
	 POIN2	kuroihikari8850_8_012
// 029   ----------------------------------------
	BYTE	PATT
	 POIN2	kuroihikari8850_8_011
// 030   ----------------------------------------
	BYTE	PATT
	 POIN2	kuroihikari8850_8_010
// 031   ----------------------------------------
	BYTE	PATT
	 POIN2	kuroihikari8850_8_011
// 032   ----------------------------------------
kuroihikari8850_8_032:
	BYTE		N02     Fn2   v100
	BYTE		N02     An2 
	BYTE		N02     Dn3 
	BYTE	W12
	BYTE		        Fn2 
	BYTE		N02     An2 
	BYTE		N02     Dn3 
	BYTE	W06
	BYTE		        Fn2 
	BYTE		N02     An2 
	BYTE		N02     Dn3 
	BYTE	W06
	BYTE		N10   
	BYTE		N10     Fn3 
	BYTE		N10     An3 
	BYTE	W12
	BYTE		N02     An2 
	BYTE		N02     Dn3 
	BYTE		N02     Fn3 
	BYTE	W06
	BYTE		        An2 
	BYTE		N02     Dn3 
	BYTE		N02     Fn3 
	BYTE	W12
	BYTE		        Fn2 
	BYTE		N02     An2 
	BYTE		N02     Dn3 
	BYTE	W06
	BYTE		N04   
	BYTE		N04     Fn3 
	BYTE		N04     An3 
	BYTE	W06
	BYTE		N02     An2 
	BYTE		N02     Dn3 
	BYTE		N02     Fn3 
	BYTE	W06
	BYTE		N10     Dn3 
	BYTE		N10     Fn3 
	BYTE		N10     An3 
	BYTE	W12
	BYTE		N04     An2 
	BYTE		N04     Dn3 
	BYTE		N04     Fn3 
	BYTE	W06
	BYTE		        An2 
	BYTE		N04     Dn3 
	BYTE		N04     Fn3 
	BYTE	W06
	BYTE	PEND
// 033   ----------------------------------------
kuroihikari8850_8_033:
	BYTE		N05     Dn3   v100
	BYTE		N05     Fn3 
	BYTE		N05     An3 
	BYTE	W06
	BYTE		        Dn3 
	BYTE		N05     Fn3 
	BYTE		N05     An3 
	BYTE	W06
	BYTE		        Dn3 
	BYTE		N05     Fn3 
	BYTE		N05     An3 
	BYTE	W06
	BYTE		N17     Dn3 
	BYTE		N17     Fn3 
	BYTE		N17     An3 
	BYTE	W78
	BYTE	PEND
// 034   ----------------------------------------
kuroihikari8850_8_034:
	BYTE		N10     Dn3   v100
	BYTE		N10     Fn3 
	BYTE		N10     An3 
	BYTE	W12
	BYTE		N02     Fn2 
	BYTE		N02     An2 
	BYTE		N02     Dn3 
	BYTE	W06
	BYTE		        Fn2 
	BYTE		N02     An2 
	BYTE		N02     Dn3 
	BYTE	W06
	BYTE		N02   
	BYTE		N02     Fn3 
	BYTE		N02     An3 
	BYTE	W12
	BYTE		N10     Dn3 
	BYTE		N10     Fn3 
	BYTE		N10     An3 
	BYTE	W12
	BYTE		N02     Fn2 
	BYTE		N02     An2 
	BYTE		N02     Dn3 
	BYTE	W06
	BYTE		        Fn2 
	BYTE		N02     An2 
	BYTE		N02     Dn3 
	BYTE	W06
	BYTE		N02   
	BYTE		N02     Fn3 
	BYTE		N02     An3 
	BYTE	W12
	BYTE		N01     Dn3 
	BYTE		N01     Fn3 
	BYTE		N01     An3 
	BYTE	W06
	BYTE		        Dn3 
	BYTE		N01     Fn3 
	BYTE		N01     An3 
	BYTE	W06
	BYTE		N02     An2 
	BYTE		N02     Dn3 
	BYTE		N02     Fn3 
	BYTE	W06
	BYTE		N05     Dn3 
	BYTE		N05     Fn3 
	BYTE		N05     An3 
	BYTE	W06
	BYTE	PEND
// 035   ----------------------------------------
kuroihikari8850_8_035:
	BYTE		N10     Cn3   v100
	BYTE		N10     En3 
	BYTE		N10     Gn3 
	BYTE	W12
	BYTE		N02     En2 
	BYTE		N02     Gn2 
	BYTE		N02     Cn3 
	BYTE	W06
	BYTE		        En2 
	BYTE		N02     Gn2 
	BYTE		N02     Cn3 
	BYTE	W06
	BYTE		N02   
	BYTE		N02     En3 
	BYTE		N02     Gn3 
	BYTE	W12
	BYTE		N10     Cn3 
	BYTE		N10     En3 
	BYTE		N10     Gn3 
	BYTE	W12
	BYTE		N02     En2 
	BYTE		N02     Gn2 
	BYTE		N02     Cn3 
	BYTE	W06
	BYTE		        En2 
	BYTE		N02     Gn2 
	BYTE		N02     Cn3 
	BYTE	W06
	BYTE		N02   
	BYTE		N02     En3 
	BYTE		N02     Gn3 
	BYTE	W12
	BYTE		N01     Cn3 
	BYTE		N01     En3 
	BYTE		N01     Gn3 
	BYTE	W06
	BYTE		        Cn3 
	BYTE		N01     En3 
	BYTE		N01     Gn3 
	BYTE	W06
	BYTE		N02     Gn2 
	BYTE		N02     Cn3 
	BYTE		N02     En3 
	BYTE	W06
	BYTE		N05     Cn3 
	BYTE		N05     En3 
	BYTE		N05     Gn3 
	BYTE	W06
	BYTE	PEND
// 036   ----------------------------------------
kuroihikari8850_8_036:
	BYTE		N10     As2   v100
	BYTE		N10     Dn3 
	BYTE		N10     Fn3 
	BYTE	W12
	BYTE		N02     Dn2 
	BYTE		N02     Fn2 
	BYTE		N02     As2 
	BYTE	W06
	BYTE		        Dn2 
	BYTE		N02     Fn2 
	BYTE		N02     As2 
	BYTE	W06
	BYTE		N02   
	BYTE		N02     Dn3 
	BYTE		N02     Fn3 
	BYTE	W12
	BYTE		N10     As2 
	BYTE		N10     Dn3 
	BYTE		N10     Fn3 
	BYTE	W12
	BYTE		N02     Dn2 
	BYTE		N02     Fn2 
	BYTE		N02     As2 
	BYTE	W06
	BYTE		        Dn2 
	BYTE		N02     Fn2 
	BYTE		N02     As2 
	BYTE	W06
	BYTE		N02   
	BYTE		N02     Dn3 
	BYTE		N02     Fn3 
	BYTE	W12
	BYTE		N01     As2 
	BYTE		N01     Dn3 
	BYTE		N01     Fn3 
	BYTE	W06
	BYTE		        As2 
	BYTE		N01     Dn3 
	BYTE		N01     Fn3 
	BYTE	W06
	BYTE		N02     Fn2 
	BYTE		N02     As2 
	BYTE		N02     Dn3 
	BYTE	W06
	BYTE		N05     As2 
	BYTE		N05     Dn3 
	BYTE		N05     Fn3 
	BYTE	W06
	BYTE	PEND
// 037   ----------------------------------------
	BYTE	PATT
	 POIN2	kuroihikari8850_8_035
// 038   ----------------------------------------
	BYTE	PATT
	 POIN2	kuroihikari8850_8_036
// 039   ----------------------------------------
	BYTE	PATT
	 POIN2	kuroihikari8850_8_035
// 040   ----------------------------------------
kuroihikari8850_8_040:
	BYTE		N10     Dn3   v100
	BYTE		N10     Fn3 
	BYTE		N10     An3 
	BYTE	W12
	BYTE		N02     Fn2 
	BYTE		N02     As2 
	BYTE		N02     Dn3 
	BYTE	W06
	BYTE		        Fn2 
	BYTE		N02     As2 
	BYTE		N02     Dn3 
	BYTE	W06
	BYTE		N02   
	BYTE		N02     Fn3 
	BYTE		N02     An3 
	BYTE	W12
	BYTE		N10     Dn3 
	BYTE		N10     Fn3 
	BYTE		N10     An3 
	BYTE	W12
	BYTE		N02     Fn2 
	BYTE		N02     As2 
	BYTE		N02     Dn3 
	BYTE	W06
	BYTE		        Fn2 
	BYTE		N02     As2 
	BYTE		N02     Dn3 
	BYTE	W06
	BYTE		N02   
	BYTE		N02     Fn3 
	BYTE		N02     An3 
	BYTE	W12
	BYTE		N01     Dn3 
	BYTE		N01     Fn3 
	BYTE		N01     An3 
	BYTE	W06
	BYTE		        Dn3 
	BYTE		N01     Fn3 
	BYTE		N01     An3 
	BYTE	W06
	BYTE		N02     As2 
	BYTE		N02     Dn3 
	BYTE		N02     Fn3 
	BYTE	W06
	BYTE		N05     Dn3 
	BYTE		N05     Fn3 
	BYTE		N05     An3 
	BYTE	W06
	BYTE	PEND
// 041   ----------------------------------------
kuroihikari8850_8_041:
	BYTE		N10     Cs3   v100
	BYTE		N10     Fn3 
	BYTE		N10     An3 
	BYTE	W12
	BYTE		N02     Fn2 
	BYTE		N02     As2 
	BYTE		N02     Cs3 
	BYTE	W06
	BYTE		        Fn2 
	BYTE		N02     As2 
	BYTE		N02     Cs3 
	BYTE	W06
	BYTE		N02   
	BYTE		N02     Fn3 
	BYTE		N02     An3 
	BYTE	W12
	BYTE		N10     Cs3 
	BYTE		N10     Fn3 
	BYTE		N10     An3 
	BYTE	W12
	BYTE		N02     En2 
	BYTE		N02     An2 
	BYTE		N02     Cs3 
	BYTE	W06
	BYTE		        En2 
	BYTE		N02     An2 
	BYTE		N02     Cs3 
	BYTE	W06
	BYTE		N02   
	BYTE		N02     En3 
	BYTE		N02     An3 
	BYTE	W12
	BYTE		N01     Cs3 
	BYTE		N01     En3 
	BYTE		N01     An3 
	BYTE	W06
	BYTE		        Cs3 
	BYTE		N01     En3 
	BYTE		N01     An3 
	BYTE	W06
	BYTE		N02     An2 
	BYTE		N02     Cs3 
	BYTE		N02     En3 
	BYTE	W06
	BYTE		N05     Cs3 
	BYTE		N05     En3 
	BYTE		N05     An3 
	BYTE	W06
	BYTE	PEND
// 042   ----------------------------------------
	BYTE	PATT
	 POIN2	kuroihikari8850_8_034
// 043   ----------------------------------------
	BYTE	PATT
	 POIN2	kuroihikari8850_8_035
// 044   ----------------------------------------
kuroihikari8850_8_044:
	BYTE		N10     Dn3   v100
	BYTE		N10     Fn3 
	BYTE		N10     An3 
	BYTE	W12
	BYTE		N02     Fs2 
	BYTE		N02     As2 
	BYTE		N02     Dn3 
	BYTE	W06
	BYTE		        Fs2 
	BYTE		N02     As2 
	BYTE		N02     Dn3 
	BYTE	W06
	BYTE		N02   
	BYTE		N02     Fn3 
	BYTE		N02     An3 
	BYTE	W12
	BYTE		N10     Dn3 
	BYTE		N10     Fn3 
	BYTE		N10     An3 
	BYTE	W12
	BYTE		N02     Fs2 
	BYTE		N02     As2 
	BYTE		N02     Dn3 
	BYTE	W06
	BYTE		        Fs2 
	BYTE		N02     As2 
	BYTE		N02     Dn3 
	BYTE	W06
	BYTE		N02   
	BYTE		N02     Fn3 
	BYTE		N02     An3 
	BYTE	W12
	BYTE		N01     Dn3 
	BYTE		N01     Fn3 
	BYTE		N01     An3 
	BYTE	W06
	BYTE		        Dn3 
	BYTE		N01     Fn3 
	BYTE		N01     An3 
	BYTE	W06
	BYTE		N02     As2 
	BYTE		N02     Dn3 
	BYTE		N02     Fn3 
	BYTE	W06
	BYTE		N05     Dn3 
	BYTE		N05     Fn3 
	BYTE		N05     An3 
	BYTE	W06
	BYTE	PEND
// 045   ----------------------------------------
kuroihikari8850_8_045:
	BYTE		N10     Cs3   v100
	BYTE		N10     En3 
	BYTE		N10     An3 
	BYTE	W12
	BYTE		N02     En2 
	BYTE		N02     An2 
	BYTE		N02     Cs3 
	BYTE	W06
	BYTE		        En2 
	BYTE		N02     An2 
	BYTE		N02     Cs3 
	BYTE	W06
	BYTE		N02   
	BYTE		N02     En3 
	BYTE		N02     An3 
	BYTE	W12
	BYTE		N10     Cs3 
	BYTE		N10     En3 
	BYTE		N10     An3 
	BYTE	W12
	BYTE		N02     En2 
	BYTE		N02     An2 
	BYTE		N02     Cs3 
	BYTE	W06
	BYTE		        En2 
	BYTE		N02     An2 
	BYTE		N02     Cs3 
	BYTE	W06
	BYTE		N02   
	BYTE		N02     En3 
	BYTE		N02     An3 
	BYTE	W12
	BYTE		N01     Cs3 
	BYTE		N01     En3 
	BYTE		N01     An3 
	BYTE	W06
	BYTE		        Cs3 
	BYTE		N01     En3 
	BYTE		N01     An3 
	BYTE	W06
	BYTE		N02     An2 
	BYTE		N02     Cs3 
	BYTE		N02     En3 
	BYTE	W06
	BYTE		N05     Cs3 
	BYTE		N05     En3 
	BYTE		N05     An3 
	BYTE	W06
	BYTE	PEND
// 046   ----------------------------------------
	BYTE	PATT
	 POIN2	kuroihikari8850_8_036
// 047   ----------------------------------------
	BYTE	PATT
	 POIN2	kuroihikari8850_8_035
// 048   ----------------------------------------
	BYTE	PATT
	 POIN2	kuroihikari8850_8_034
// 049   ----------------------------------------
	BYTE	PATT
	 POIN2	kuroihikari8850_8_034
// 050   ----------------------------------------
	BYTE	PATT
	 POIN2	kuroihikari8850_8_002
// 051   ----------------------------------------
	BYTE	PATT
	 POIN2	kuroihikari8850_8_003
// 052   ----------------------------------------
	BYTE	PATT
	 POIN2	kuroihikari8850_8_002
// 053   ----------------------------------------
	BYTE	PATT
	 POIN2	kuroihikari8850_8_005
// 054   ----------------------------------------
	BYTE	PATT
	 POIN2	kuroihikari8850_8_002
// 055   ----------------------------------------
	BYTE	PATT
	 POIN2	kuroihikari8850_8_003
// 056   ----------------------------------------
	BYTE	PATT
	 POIN2	kuroihikari8850_8_002
// 057   ----------------------------------------
	BYTE	PATT
	 POIN2	kuroihikari8850_8_005
// 058   ----------------------------------------
	BYTE	PATT
	 POIN2	kuroihikari8850_8_010
// 059   ----------------------------------------
	BYTE	PATT
	 POIN2	kuroihikari8850_8_011
// 060   ----------------------------------------
	BYTE	PATT
	 POIN2	kuroihikari8850_8_012
// 061   ----------------------------------------
	BYTE	PATT
	 POIN2	kuroihikari8850_8_011
// 062   ----------------------------------------
	BYTE	PATT
	 POIN2	kuroihikari8850_8_010
// 063   ----------------------------------------
	BYTE	PATT
	 POIN2	kuroihikari8850_8_011
// 064   ----------------------------------------
	BYTE	PATT
	 POIN2	kuroihikari8850_8_032
// 065   ----------------------------------------
	BYTE	PATT
	 POIN2	kuroihikari8850_8_033
// 066   ----------------------------------------
	BYTE	PATT
	 POIN2	kuroihikari8850_8_034
// 067   ----------------------------------------
	BYTE	PATT
	 POIN2	kuroihikari8850_8_035
// 068   ----------------------------------------
	BYTE	PATT
	 POIN2	kuroihikari8850_8_036
// 069   ----------------------------------------
	BYTE	PATT
	 POIN2	kuroihikari8850_8_035
// 070   ----------------------------------------
	BYTE	PATT
	 POIN2	kuroihikari8850_8_036
// 071   ----------------------------------------
	BYTE	PATT
	 POIN2	kuroihikari8850_8_035
// 072   ----------------------------------------
	BYTE	PATT
	 POIN2	kuroihikari8850_8_040
// 073   ----------------------------------------
	BYTE	PATT
	 POIN2	kuroihikari8850_8_041
// 074   ----------------------------------------
	BYTE	PATT
	 POIN2	kuroihikari8850_8_034
// 075   ----------------------------------------
	BYTE	PATT
	 POIN2	kuroihikari8850_8_035
// 076   ----------------------------------------
	BYTE	PATT
	 POIN2	kuroihikari8850_8_044
// 077   ----------------------------------------
	BYTE	PATT
	 POIN2	kuroihikari8850_8_045
// 078   ----------------------------------------
	BYTE	PATT
	 POIN2	kuroihikari8850_8_036
// 079   ----------------------------------------
	BYTE	PATT
	 POIN2	kuroihikari8850_8_035
// 080   ----------------------------------------
	BYTE	PATT
	 POIN2	kuroihikari8850_8_034
// 081   ----------------------------------------
	BYTE	PATT
	 POIN2	kuroihikari8850_8_034
// 082   ----------------------------------------
	BYTE	PATT
	 POIN2	kuroihikari8850_8_034
// 083   ----------------------------------------
	BYTE		N88     An2   v100
	BYTE		N88     Dn3 
	BYTE	W01
	BYTE		        Fn3 
	BYTE	W02
	BYTE		N84     An3 
	BYTE	W90
	BYTE	W01
	BYTE		PAN     c_v+0
	BYTE	W02
// 084   ----------------------------------------
	BYTE		N11     Dn2   v116
	BYTE		N11     Fn2 
	BYTE	W12
	BYTE		N05     Dn3 
	BYTE		N05     Fn3 
	BYTE		N05     An3 
	BYTE	W06
	BYTE		N40     Dn3 
	BYTE		N40     Fn3 
	BYTE		N40     An3 
	BYTE	W42
	BYTE		N11     Dn3 
	BYTE		N11     Fn3 
	BYTE	W12
	BYTE		N05     An3   v127
	BYTE	W06
	BYTE		        Gn3 
	BYTE	W06
	BYTE		N23     An3 
	BYTE	W12
// 085   ----------------------------------------
	BYTE	W12
	BYTE		N05     Dn3 
	BYTE	W06
	BYTE		        En3 
	BYTE	W06
	BYTE		        Fn3 
	BYTE	W06
	BYTE		        En3 
	BYTE	W06
	BYTE		N32     Fn3 
	BYTE	W18
	BYTE		N17     Dn3 
	BYTE	W18
	BYTE		N23     An2 
	BYTE		N23     Cn3 
	BYTE	W24
// 086   ----------------------------------------
	BYTE		N11     Cn2   v108
	BYTE		N11     Fn2 
	BYTE	W12
	BYTE		N05     Dn3 
	BYTE		N05     Fn3 
	BYTE		N05     An3 
	BYTE	W06
	BYTE		N40     Dn3 
	BYTE		N40     Fn3 
	BYTE		N40     An3 
	BYTE	W42
	BYTE		N11     Dn3   v116
	BYTE		N11     Fn3 
	BYTE	W12
	BYTE		N05     An3   v127
	BYTE	W06
	BYTE		        Gn3 
	BYTE	W06
	BYTE		N40     An3 
	BYTE	W12
// 087   ----------------------------------------
	BYTE	W12
	BYTE		N17     Dn3 
	BYTE	W18
	BYTE		N32     Cn4 
	BYTE	W18
	BYTE		N17     An3 
	BYTE	W18
	BYTE		N28     Gn3 
	BYTE	W18
	BYTE		N11     En3 
	BYTE	W12
// 088   ----------------------------------------
	BYTE		        As2   v112
	BYTE		N11     Dn3 
	BYTE	W12
	BYTE		N02     As2 
	BYTE		N02     Dn3 
	BYTE		N02     Fn3 
	BYTE	W06
	BYTE		N11     As2 
	BYTE		N11     Dn3 
	BYTE		N11     Fn3 
	BYTE	W12
	BYTE		N02     As2 
	BYTE		N02     Dn3 
	BYTE		N02     Fn3 
	BYTE	W06
	BYTE		N11     As2 
	BYTE		N11     Dn3 
	BYTE		N11     Fn3 
	BYTE	W12
	BYTE		N02     As2 
	BYTE		N02     Dn3 
	BYTE		N02     Fn3 
	BYTE	W06
	BYTE		N11     As2 
	BYTE		N11     Dn3 
	BYTE		N11     Fn3 
	BYTE	W12
	BYTE		N02     As2 
	BYTE		N02     Dn3 
	BYTE		N02     Fn3 
	BYTE	W06
	BYTE		N23     As2   v116
	BYTE		N23     Dn3 
	BYTE		N23     Fn3 
	BYTE	W24
// 089   ----------------------------------------
	BYTE		N01     Cn3   v112
	BYTE		N01     En3 
	BYTE		N01     Gn3 
	BYTE	W06
	BYTE		        Cn3 
	BYTE		N01     En3 
	BYTE		N01     Gn3 
	BYTE	W06
	BYTE		N05     Cn3 
	BYTE		N05     En3 
	BYTE		N05     Gn3 
	BYTE	W06
	BYTE		        Cn3   v116
	BYTE		N05     En3 
	BYTE		N05     Gn3 
	BYTE	W12
	BYTE		N01     An2 
	BYTE		N01     Cs3 
	BYTE		N01     En3 
	BYTE	W06
	BYTE		        An2 
	BYTE		N01     Cs3 
	BYTE		N01     En3 
	BYTE	W06
	BYTE		N05     An2 
	BYTE		N05     Cs3 
	BYTE		N05     En3 
	BYTE	W06
	BYTE		        An2 
	BYTE		N05     Cs3 
	BYTE		N05     En3 
	BYTE	W12
	BYTE		N01     An2 
	BYTE		N01     Cs3 
	BYTE		N01     En3 
	BYTE	W06
	BYTE		        An2 
	BYTE		N01     Cs3 
	BYTE		N01     En3 
	BYTE	W06
	BYTE		N05     An2 
	BYTE		N05     Cs3 
	BYTE		N05     En3 
	BYTE	W06
	BYTE		N17     En2 
	BYTE		N17     An2 
	BYTE		N17     Cs3 
	BYTE	W18
// 090   ----------------------------------------
	BYTE		N11     As2 
	BYTE		N11     Dn3 
	BYTE		N11     Fn3 
	BYTE	W12
	BYTE		N05     As2 
	BYTE	W06
	BYTE		N11   
	BYTE		N11     Dn3 
	BYTE		N11     Fn3 
	BYTE	W12
	BYTE		N05     As2 
	BYTE	W06
	BYTE		N11   
	BYTE		N11     Dn3 
	BYTE		N11     Fn3 
	BYTE	W12
	BYTE		N11   
	BYTE		N11     An3 
	BYTE	W12
	BYTE		N05     Dn3 
	BYTE	W06
	BYTE		N11     Fn3   v120
	BYTE		N11     An3 
	BYTE	W12
	BYTE		        Fn3 
	BYTE	W12
	BYTE		N05     Dn3   v127
	BYTE	W06
// 091   ----------------------------------------
	BYTE		        Cn3 
	BYTE	W06
	BYTE		        Dn3 
	BYTE	W06
	BYTE		N11     En3 
	BYTE	W12
	BYTE		N05   
	BYTE	W06
	BYTE		        Fn3 
	BYTE	W06
	BYTE		N11     Gn3 
	BYTE	W12
	BYTE		N05   
	BYTE	W06
	BYTE		        An3 
	BYTE	W06
	BYTE		N11     As3 
	BYTE	W12
	BYTE		N05     En3 
	BYTE	W06
	BYTE		N17     Gn3 
	BYTE		N17     Cn4 
	BYTE	W18
// 092   ----------------------------------------
	BYTE		N11     Dn2   v112
	BYTE		N11     Fn2 
	BYTE	W12
	BYTE		N05     Dn3 
	BYTE		N05     Fn3 
	BYTE		N05     An3 
	BYTE	W06
	BYTE		N40     Dn3 
	BYTE		N40     Fn3 
	BYTE		N40     An3 
	BYTE	W42
	BYTE		N11     Dn3 
	BYTE		N11     Fn3 
	BYTE	W12
	BYTE		N05     An3   v127
	BYTE	W06
	BYTE		        Gn3 
	BYTE	W06
	BYTE		N23     An3 
	BYTE	W12
// 093   ----------------------------------------
	BYTE	W12
	BYTE		N05     Dn3 
	BYTE	W06
	BYTE		        En3 
	BYTE	W06
	BYTE		        Fn3 
	BYTE	W06
	BYTE		        En3 
	BYTE	W06
	BYTE		N32     Fn3 
	BYTE	W18
	BYTE		N17     Dn3 
	BYTE	W18
	BYTE		N23     Cn3 
	BYTE		N23     En3 
	BYTE	W24
// 094   ----------------------------------------
	BYTE		N11     Cn2   v104
	BYTE		N11     Fn2 
	BYTE	W12
	BYTE		N05     Dn3 
	BYTE		N05     Fn3 
	BYTE		N05     An3 
	BYTE	W06
	BYTE		N40     Dn3   v108
	BYTE		N40     Fn3 
	BYTE		N40     An3 
	BYTE	W42
	BYTE		N11     Dn3 
	BYTE		N11     Fn3 
	BYTE	W12
	BYTE		N05     An3   v127
	BYTE	W06
	BYTE		        Gn3 
	BYTE	W06
	BYTE		N40     An3 
	BYTE	W12
// 095   ----------------------------------------
	BYTE	W12
	BYTE		N17     Dn3 
	BYTE	W18
	BYTE		N32     Cn4 
	BYTE	W18
	BYTE		N17     Fn4 
	BYTE	W18
	BYTE		N28     Dn4 
	BYTE	W18
	BYTE		N11     Cn4 
	BYTE	W12
// 096   ----------------------------------------
	BYTE		N05     Dn4 
	BYTE	W06
	BYTE		        Cn4 
	BYTE	W06
	BYTE		        As3 
	BYTE	W06
	BYTE		N11     Dn4 
	BYTE	W12
	BYTE		N05   
	BYTE	W06
	BYTE		        Cn4 
	BYTE	W06
	BYTE		        As3 
	BYTE	W06
	BYTE		N11     Dn4 
	BYTE	W12
	BYTE		N05     Fn4 
	BYTE	W06
	BYTE		        En4 
	BYTE	W06
	BYTE		        Dn4 
	BYTE	W06
	BYTE		N17     Fn4 
	BYTE	W18
// 097   ----------------------------------------
	BYTE		N05     En4 
	BYTE	W06
	BYTE		        Fn4 
	BYTE	W06
	BYTE		        Gn4 
	BYTE	W06
	BYTE		N17     Cn4 
	BYTE	W18
	BYTE		N01     En3   v112
	BYTE		N01     An3 
	BYTE		N01     Cn4 
	BYTE	W12
	BYTE		N05     En3 
	BYTE		N05     An3 
	BYTE		N05     Cn4 
	BYTE	W06
	BYTE		N40     An3 
	BYTE		N40     Cn4 
	BYTE		N40     En4 
	BYTE	W42
// 098   ----------------------------------------
	BYTE		N17     An3   v116
	BYTE		N17     Cn4 
	BYTE	W18
	BYTE		        Gn3 
	BYTE		N17     As3 
	BYTE	W18
	BYTE		N11     Fn3 
	BYTE		N11     An3 
	BYTE	W12
	BYTE		N17     Gn3 
	BYTE		N17     As3 
	BYTE	W18
	BYTE		        Fn3 
	BYTE		N17     An3 
	BYTE		N17     Cn4 
	BYTE	W18
	BYTE		N11     Cs3 
	BYTE		N11     En3 
	BYTE		N11     Gn3 
	BYTE	W12
// 099   ----------------------------------------
	BYTE		N05     Cs3 
	BYTE		N05     En3 
	BYTE		N05     An3 
	BYTE	W06
	BYTE		N11     Cs3 
	BYTE		N11     En3 
	BYTE		N11     An3 
	BYTE	W12
	BYTE		N05     An3   v112
	BYTE		N05     Cs4 
	BYTE		N05     En4 
	BYTE	W06
	BYTE		N11     An3 
	BYTE		N11     Cs4 
	BYTE		N11     En4 
	BYTE	W12
	BYTE		N05     Cs4 
	BYTE		N05     En4 
	BYTE		N05     Gn4 
	BYTE	W06
	BYTE		N11     Cs4   v108
	BYTE		N11     En4 
	BYTE		N11     Gn4 
	BYTE	W12
	BYTE		N05     Cs4 
	BYTE		N05     En4 
	BYTE		N05     An4 
	BYTE	W06
	BYTE		        Cs4   v104
	BYTE		N05     En4 
	BYTE		N05     An4 
	BYTE	W06
	BYTE		        Cs4 
	BYTE		N05     En4 
	BYTE		N05     An4 
	BYTE	W06
	BYTE		N88     Cs4 
	BYTE		N88     En4 
	BYTE		N88     An4 
	BYTE	W24
// 100   ----------------------------------------
	BYTE	W68
	BYTE	W02
	BYTE		PAN     c_v-34
	BYTE	W02
	BYTE		N23     An2   v108
	BYTE		N23     En3 
	BYTE	W01
	BYTE		N22     Gn3 
	BYTE	W02
	BYTE		N20     An3   v112
	BYTE	W21
// 101   ----------------------------------------
	BYTE	PATT
	 POIN2	kuroihikari8850_8_002
// 102   ----------------------------------------
	BYTE	PATT
	 POIN2	kuroihikari8850_8_003
// 103   ----------------------------------------
	BYTE	PATT
	 POIN2	kuroihikari8850_8_002
// 104   ----------------------------------------
	BYTE	PATT
	 POIN2	kuroihikari8850_8_005
// 105   ----------------------------------------
	BYTE	PATT
	 POIN2	kuroihikari8850_8_002
// 106   ----------------------------------------
	BYTE	PATT
	 POIN2	kuroihikari8850_8_003
// 107   ----------------------------------------
	BYTE	PATT
	 POIN2	kuroihikari8850_8_002
// 108   ----------------------------------------
	BYTE	PATT
	 POIN2	kuroihikari8850_8_005
// 109   ----------------------------------------
	BYTE	PATT
	 POIN2	kuroihikari8850_8_010
// 110   ----------------------------------------
	BYTE	PATT
	 POIN2	kuroihikari8850_8_011
// 111   ----------------------------------------
	BYTE	PATT
	 POIN2	kuroihikari8850_8_012
// 112   ----------------------------------------
	BYTE	PATT
	 POIN2	kuroihikari8850_8_011
// 113   ----------------------------------------
	BYTE	PATT
	 POIN2	kuroihikari8850_8_010
// 114   ----------------------------------------
	BYTE	PATT
	 POIN2	kuroihikari8850_8_011
// 115   ----------------------------------------
	BYTE	PATT
	 POIN2	kuroihikari8850_8_032
// 116   ----------------------------------------
	BYTE	PATT
	 POIN2	kuroihikari8850_8_033
// 117   ----------------------------------------
	BYTE	PATT
	 POIN2	kuroihikari8850_8_034
// 118   ----------------------------------------
	BYTE	PATT
	 POIN2	kuroihikari8850_8_035
// 119   ----------------------------------------
	BYTE	PATT
	 POIN2	kuroihikari8850_8_036
// 120   ----------------------------------------
	BYTE	PATT
	 POIN2	kuroihikari8850_8_035
// 121   ----------------------------------------
	BYTE	PATT
	 POIN2	kuroihikari8850_8_036
// 122   ----------------------------------------
	BYTE	PATT
	 POIN2	kuroihikari8850_8_035
// 123   ----------------------------------------
	BYTE	PATT
	 POIN2	kuroihikari8850_8_040
// 124   ----------------------------------------
	BYTE	PATT
	 POIN2	kuroihikari8850_8_041
// 125   ----------------------------------------
	BYTE	PATT
	 POIN2	kuroihikari8850_8_034
// 126   ----------------------------------------
	BYTE	PATT
	 POIN2	kuroihikari8850_8_035
// 127   ----------------------------------------
	BYTE	PATT
	 POIN2	kuroihikari8850_8_044
// 128   ----------------------------------------
	BYTE	PATT
	 POIN2	kuroihikari8850_8_045
// 129   ----------------------------------------
	BYTE	PATT
	 POIN2	kuroihikari8850_8_036
// 130   ----------------------------------------
	BYTE	PATT
	 POIN2	kuroihikari8850_8_035
// 131   ----------------------------------------
	BYTE	PATT
	 POIN2	kuroihikari8850_8_034
// 132   ----------------------------------------
	BYTE	PATT
	 POIN2	kuroihikari8850_8_034
// 133   ----------------------------------------
	BYTE	PATT
	 POIN2	kuroihikari8850_8_034
// 134   ----------------------------------------
	BYTE		N44     An2   v100
	BYTE		N44     Dn3 
	BYTE	W01
	BYTE		        Fn3 
	BYTE	W02
	BYTE		        An3 
	BYTE	W44
	BYTE	W01
	BYTE		N01     Dn3 
	BYTE		N01     Fn3 
	BYTE		N01     An3 
	BYTE	W06
	BYTE		        Dn3 
	BYTE		N01     Fn3 
	BYTE		N01     An3 
	BYTE	W06
	BYTE		        Dn3 
	BYTE		N01     Fn3 
	BYTE		N01     An3 
	BYTE	W06
	BYTE		        Fn2 
	BYTE		N01     An2 
	BYTE		N01     Dn3 
	BYTE	W06
	BYTE		N01   
	BYTE		N01     Fn3 
	BYTE		N01     An3 
	BYTE	W06
	BYTE		        Dn3 
	BYTE		N01     Fn3 
	BYTE		N01     An3 
	BYTE	W06
	BYTE		        Dn3 
	BYTE		N01     Fn3 
	BYTE		N01     An3 
	BYTE	W06
	BYTE		        Dn3 
	BYTE		N01     Fn3 
	BYTE		N01     An3 
	BYTE	W06
// 135   ----------------------------------------
	BYTE	W96
// 136   ----------------------------------------
	BYTE	W96
// 137   ----------------------------------------
	BYTE	W96
// 138   ----------------------------------------
	BYTE	W96
// 139   ----------------------------------------
	BYTE	W96
// 140   ----------------------------------------
	BYTE	W96
// 141   ----------------------------------------
	BYTE	W96
// 142   ----------------------------------------
	BYTE	W96
// 143   ----------------------------------------
	BYTE	W96
// 144   ----------------------------------------
	BYTE	W96
// 145   ----------------------------------------
	BYTE	W96
// 146   ----------------------------------------
	BYTE	W96
// 147   ----------------------------------------
	BYTE	W96
// 148   ----------------------------------------
	BYTE	W96
// 149   ----------------------------------------
	BYTE	W96
// 150   ----------------------------------------
	BYTE	W96
// 151   ----------------------------------------
	BYTE	W96
// 152   ----------------------------------------
	BYTE	W96
// 153   ----------------------------------------
	BYTE	W96
// 154   ----------------------------------------
	BYTE	W96
// 155   ----------------------------------------
	BYTE	W96
// 156   ----------------------------------------
	BYTE	W96
// 157   ----------------------------------------
	BYTE	W96
// 158   ----------------------------------------
	BYTE	W96
// 159   ----------------------------------------
	BYTE	W96
// 160   ----------------------------------------
	BYTE	W96
// 161   ----------------------------------------
	BYTE	W96
// 162   ----------------------------------------
	BYTE	W96
// 163   ----------------------------------------
	BYTE	W96
// 164   ----------------------------------------
	BYTE	W96
// 165   ----------------------------------------
	BYTE	W96
// 166   ----------------------------------------
	BYTE	W96
// 167   ----------------------------------------
	BYTE	W96
// 168   ----------------------------------------
	BYTE	W96
// 169   ----------------------------------------
	BYTE	W96
// 170   ----------------------------------------
	BYTE	W96
// 171   ----------------------------------------
	BYTE	W96
// 172   ----------------------------------------
	BYTE	W96
// 173   ----------------------------------------
	BYTE	W96
// 174   ----------------------------------------
	BYTE	W96
// 175   ----------------------------------------
	BYTE	W96
// 176   ----------------------------------------
	BYTE	W96
// 177   ----------------------------------------
	BYTE	W96
// 178   ----------------------------------------
	BYTE	W96
// 179   ----------------------------------------
	BYTE	W96
// 180   ----------------------------------------
	BYTE	W96
// 181   ----------------------------------------
	BYTE	W96
// 182   ----------------------------------------
	BYTE	W96
// 183   ----------------------------------------
	BYTE	W96
// 184   ----------------------------------------
	BYTE	W96
// 185   ----------------------------------------
	BYTE	W96
// 186   ----------------------------------------
	BYTE	W96
// 187   ----------------------------------------
	BYTE	W96
// 188   ----------------------------------------
	BYTE	W96
// 189   ----------------------------------------
	BYTE	W96
// 190   ----------------------------------------
	BYTE	W96
// 191   ----------------------------------------
	BYTE	W96
// 192   ----------------------------------------
	BYTE	W96
// 193   ----------------------------------------
	BYTE	W96
// 194   ----------------------------------------
	BYTE	W96
// 195   ----------------------------------------
	BYTE	W96
// 196   ----------------------------------------
	BYTE	W96
// 197   ----------------------------------------
	BYTE	W96
// 198   ----------------------------------------
	BYTE	W96
// 199   ----------------------------------------
	BYTE	FINE

//**************** Track 9 (Midi-Chn.9) ****************//

kuroihikari8850_9:
	BYTE	KEYSH   kuroihikari8850_key+0
// 000   ----------------------------------------
	BYTE	W48
	BYTE		VOICE   102
	BYTE		VOL     90*kuroihikari8850_mvl/mxv
	BYTE		PAN     c_v+0
	BYTE	W12
	BYTE		VOICE   102
	BYTE		VOL     90*kuroihikari8850_mvl/mxv
	BYTE	W12
	BYTE	W24
// 001   ----------------------------------------
	BYTE	W96
// 002   ----------------------------------------
	BYTE	W96
// 003   ----------------------------------------
	BYTE	W96
// 004   ----------------------------------------
	BYTE	W96
// 005   ----------------------------------------
	BYTE	W96
// 006   ----------------------------------------
	BYTE	W96
// 007   ----------------------------------------
	BYTE	W96
// 008   ----------------------------------------
	BYTE	W96
// 009   ----------------------------------------
	BYTE	W96
// 010   ----------------------------------------
	BYTE	W96
// 011   ----------------------------------------
	BYTE	W96
// 012   ----------------------------------------
	BYTE	W96
// 013   ----------------------------------------
	BYTE	W96
// 014   ----------------------------------------
	BYTE	W96
// 015   ----------------------------------------
	BYTE	W96
// 016   ----------------------------------------
	BYTE	W96
// 017   ----------------------------------------
kuroihikari8850_9_017:
	BYTE	W36
	BYTE		N32     Dn4   v080
	BYTE		N32     Fn4 
	BYTE		N32     An4 
	BYTE		N32     An5 
	BYTE	W60
	BYTE	PEND
// 018   ----------------------------------------
	BYTE	W96
// 019   ----------------------------------------
	BYTE	W96
// 020   ----------------------------------------
	BYTE	W96
// 021   ----------------------------------------
	BYTE	W96
// 022   ----------------------------------------
	BYTE	W96
// 023   ----------------------------------------
	BYTE	W96
// 024   ----------------------------------------
	BYTE	W96
// 025   ----------------------------------------
	BYTE	W96
// 026   ----------------------------------------
	BYTE	W96
// 027   ----------------------------------------
	BYTE	W96
// 028   ----------------------------------------
	BYTE	W96
// 029   ----------------------------------------
	BYTE	W96
// 030   ----------------------------------------
	BYTE	W96
// 031   ----------------------------------------
	BYTE	W96
// 032   ----------------------------------------
	BYTE	W96
// 033   ----------------------------------------
	BYTE	PATT
	 POIN2	kuroihikari8850_9_017
// 034   ----------------------------------------
	BYTE	W96
// 035   ----------------------------------------
	BYTE	W96
// 036   ----------------------------------------
	BYTE	W96
// 037   ----------------------------------------
	BYTE	W96
// 038   ----------------------------------------
	BYTE	W96
// 039   ----------------------------------------
	BYTE	W96
// 040   ----------------------------------------
	BYTE	W96
// 041   ----------------------------------------
	BYTE	W96
// 042   ----------------------------------------
	BYTE	W96
// 043   ----------------------------------------
	BYTE	W96
// 044   ----------------------------------------
	BYTE	W96
// 045   ----------------------------------------
	BYTE	W96
// 046   ----------------------------------------
	BYTE	W96
// 047   ----------------------------------------
	BYTE	W96
// 048   ----------------------------------------
	BYTE	W96
// 049   ----------------------------------------
	BYTE	W96
// 050   ----------------------------------------
	BYTE	W96
// 051   ----------------------------------------
	BYTE	W96
// 052   ----------------------------------------
	BYTE	W96
// 053   ----------------------------------------
	BYTE	W96
// 054   ----------------------------------------
	BYTE	W96
// 055   ----------------------------------------
	BYTE	W96
// 056   ----------------------------------------
	BYTE	W96
// 057   ----------------------------------------
	BYTE	W96
// 058   ----------------------------------------
	BYTE	W96
// 059   ----------------------------------------
	BYTE	W96
// 060   ----------------------------------------
	BYTE	W96
// 061   ----------------------------------------
	BYTE	W96
// 062   ----------------------------------------
	BYTE	W96
// 063   ----------------------------------------
	BYTE	W96
// 064   ----------------------------------------
	BYTE	W96
// 065   ----------------------------------------
	BYTE	PATT
	 POIN2	kuroihikari8850_9_017
// 066   ----------------------------------------
	BYTE	W96
// 067   ----------------------------------------
	BYTE	W96
// 068   ----------------------------------------
	BYTE	W96
// 069   ----------------------------------------
	BYTE	W96
// 070   ----------------------------------------
	BYTE	W96
// 071   ----------------------------------------
	BYTE	W96
// 072   ----------------------------------------
	BYTE	W96
// 073   ----------------------------------------
	BYTE	W96
// 074   ----------------------------------------
	BYTE	W96
// 075   ----------------------------------------
	BYTE	W96
// 076   ----------------------------------------
	BYTE	W96
// 077   ----------------------------------------
	BYTE	W96
// 078   ----------------------------------------
	BYTE	W96
// 079   ----------------------------------------
	BYTE	W96
// 080   ----------------------------------------
	BYTE	W96
// 081   ----------------------------------------
	BYTE	W96
// 082   ----------------------------------------
	BYTE		N23     Fn4   v092
	BYTE		N23     An4 
	BYTE	W48
	BYTE		        En4 
	BYTE		N23     Gn4 
	BYTE	W48
// 083   ----------------------------------------
	BYTE		        Dn4 
	BYTE		N23     Fn4 
	BYTE	W24
	BYTE		        An4 
	BYTE	W24
	BYTE		        Gn4 
	BYTE	W24
	BYTE		        Cn5 
	BYTE	W24
// 084   ----------------------------------------
	BYTE		        An4 
	BYTE	W96
// 085   ----------------------------------------
	BYTE	W96
// 086   ----------------------------------------
	BYTE	W96
// 087   ----------------------------------------
	BYTE	W96
// 088   ----------------------------------------
	BYTE	W96
// 089   ----------------------------------------
	BYTE	W96
// 090   ----------------------------------------
	BYTE	W96
// 091   ----------------------------------------
	BYTE	W96
// 092   ----------------------------------------
	BYTE	W96
// 093   ----------------------------------------
	BYTE	W96
// 094   ----------------------------------------
	BYTE	W96
// 095   ----------------------------------------
	BYTE	W96
// 096   ----------------------------------------
	BYTE	W96
// 097   ----------------------------------------
	BYTE	W96
// 098   ----------------------------------------
	BYTE	W96
// 099   ----------------------------------------
	BYTE	W96
// 100   ----------------------------------------
	BYTE	PATT
	 POIN2	kuroihikari8850_9_017
// 101   ----------------------------------------
	BYTE	W96
// 102   ----------------------------------------
	BYTE	W96
// 103   ----------------------------------------
	BYTE	W96
// 104   ----------------------------------------
	BYTE	W96
// 105   ----------------------------------------
	BYTE	W96
// 106   ----------------------------------------
	BYTE	W96
// 107   ----------------------------------------
	BYTE	W96
// 108   ----------------------------------------
	BYTE	W96
// 109   ----------------------------------------
	BYTE	W96
// 110   ----------------------------------------
	BYTE	W96
// 111   ----------------------------------------
	BYTE	W96
// 112   ----------------------------------------
	BYTE	W96
// 113   ----------------------------------------
	BYTE	W96
// 114   ----------------------------------------
	BYTE	W96
// 115   ----------------------------------------
	BYTE	W96
// 116   ----------------------------------------
	BYTE	PATT
	 POIN2	kuroihikari8850_9_017
// 117   ----------------------------------------
	BYTE	W96
// 118   ----------------------------------------
	BYTE	W96
// 119   ----------------------------------------
	BYTE	W96
// 120   ----------------------------------------
	BYTE	W96
// 121   ----------------------------------------
	BYTE	W96
// 122   ----------------------------------------
	BYTE	W96
// 123   ----------------------------------------
	BYTE	W96
// 124   ----------------------------------------
	BYTE	W96
// 125   ----------------------------------------
	BYTE	W96
// 126   ----------------------------------------
	BYTE	W96
// 127   ----------------------------------------
	BYTE	W96
// 128   ----------------------------------------
	BYTE	W96
// 129   ----------------------------------------
	BYTE	W96
// 130   ----------------------------------------
	BYTE	W96
// 131   ----------------------------------------
	BYTE	W96
// 132   ----------------------------------------
	BYTE	W96
// 133   ----------------------------------------
	BYTE	W96
// 134   ----------------------------------------
	BYTE	W96
// 135   ----------------------------------------
	BYTE	W96
// 136   ----------------------------------------
	BYTE	W96
// 137   ----------------------------------------
	BYTE	W96
// 138   ----------------------------------------
	BYTE	W96
// 139   ----------------------------------------
	BYTE	W96
// 140   ----------------------------------------
	BYTE	W96
// 141   ----------------------------------------
	BYTE	W96
// 142   ----------------------------------------
	BYTE	W96
// 143   ----------------------------------------
	BYTE	W96
// 144   ----------------------------------------
	BYTE	W96
// 145   ----------------------------------------
	BYTE	W96
// 146   ----------------------------------------
	BYTE	W96
// 147   ----------------------------------------
	BYTE	W96
// 148   ----------------------------------------
	BYTE	W96
// 149   ----------------------------------------
	BYTE	W96
// 150   ----------------------------------------
	BYTE	W96
// 151   ----------------------------------------
	BYTE	W96
// 152   ----------------------------------------
	BYTE	W96
// 153   ----------------------------------------
	BYTE	W96
// 154   ----------------------------------------
	BYTE	W96
// 155   ----------------------------------------
	BYTE	W96
// 156   ----------------------------------------
	BYTE	W96
// 157   ----------------------------------------
	BYTE	W96
// 158   ----------------------------------------
	BYTE	W96
// 159   ----------------------------------------
	BYTE	W96
// 160   ----------------------------------------
	BYTE	W96
// 161   ----------------------------------------
	BYTE	W96
// 162   ----------------------------------------
	BYTE	W96
// 163   ----------------------------------------
	BYTE	W96
// 164   ----------------------------------------
	BYTE	W96
// 165   ----------------------------------------
	BYTE	W96
// 166   ----------------------------------------
	BYTE	W96
// 167   ----------------------------------------
	BYTE	W96
// 168   ----------------------------------------
	BYTE	W96
// 169   ----------------------------------------
	BYTE	W96
// 170   ----------------------------------------
	BYTE	W96
// 171   ----------------------------------------
	BYTE	W96
// 172   ----------------------------------------
	BYTE	W96
// 173   ----------------------------------------
	BYTE	W96
// 174   ----------------------------------------
	BYTE	W96
// 175   ----------------------------------------
	BYTE	W96
// 176   ----------------------------------------
	BYTE	W96
// 177   ----------------------------------------
	BYTE	W96
// 178   ----------------------------------------
	BYTE	W96
// 179   ----------------------------------------
	BYTE	W96
// 180   ----------------------------------------
	BYTE	W96
// 181   ----------------------------------------
	BYTE	W96
// 182   ----------------------------------------
	BYTE	W96
// 183   ----------------------------------------
	BYTE	W96
// 184   ----------------------------------------
	BYTE	W96
// 185   ----------------------------------------
	BYTE	W96
// 186   ----------------------------------------
	BYTE	W96
// 187   ----------------------------------------
	BYTE	W96
// 188   ----------------------------------------
	BYTE	W96
// 189   ----------------------------------------
	BYTE	W96
// 190   ----------------------------------------
	BYTE	W96
// 191   ----------------------------------------
	BYTE	W96
// 192   ----------------------------------------
	BYTE	W96
// 193   ----------------------------------------
	BYTE	W96
// 194   ----------------------------------------
	BYTE	W96
// 195   ----------------------------------------
	BYTE	W96
// 196   ----------------------------------------
	BYTE	W96
// 197   ----------------------------------------
	BYTE	W96
// 198   ----------------------------------------
	BYTE	W96
// 199   ----------------------------------------
	BYTE	FINE

//**************** Track 10 (Midi-Chn.10) ****************//

kuroihikari8850_10:
	BYTE	KEYSH   kuroihikari8850_key+0
// 000   ----------------------------------------
	BYTE	W48
	BYTE		VOICE   2
	BYTE		VOL     125*kuroihikari8850_mvl/mxv
	BYTE		PAN     c_v+0
	BYTE	W12
	BYTE		VOICE   2
	BYTE		VOL     125*kuroihikari8850_mvl/mxv
	BYTE	W12
	BYTE	W24
// 001   ----------------------------------------
	BYTE	W72
	BYTE		N02     Bn0   v120
	BYTE		N02     En1   v116
	BYTE	W12
	BYTE		        Bn0   v120
	BYTE		N02     En1   v116
	BYTE	W06
	BYTE		N02   
	BYTE	W06
// 002   ----------------------------------------
kuroihikari8850_10_002:
	BYTE		N02     Bn0   v120
	BYTE		N02     Fs1   v127
	BYTE		N02     Cs2 
	BYTE	W12
	BYTE		        Fs1 
	BYTE	W06
	BYTE		        Gs1 
	BYTE	W06
	BYTE		        En1   v116
	BYTE		N02     Fs1   v127
	BYTE	W12
	BYTE		        Bn0   v120
	BYTE		N02     Fs1   v127
	BYTE	W06
	BYTE		        Gs1 
	BYTE	W06
	BYTE		        Bn0   v120
	BYTE		N02     Fs1   v127
	BYTE	W06
	BYTE		        Gs1 
	BYTE	W06
	BYTE		        As1 
	BYTE	W06
	BYTE		        Gs1 
	BYTE	W06
	BYTE		        En1   v116
	BYTE		N02     Fs1   v127
	BYTE	W06
	BYTE		N02   
	BYTE	W06
	BYTE		        As1 
	BYTE	W12
	BYTE	PEND
// 003   ----------------------------------------
kuroihikari8850_10_003:
	BYTE		N02     Bn0   v120
	BYTE		N02     Fs1   v127
	BYTE	W12
	BYTE		N02   
	BYTE	W06
	BYTE		        Gs1 
	BYTE	W06
	BYTE		        En1   v116
	BYTE		N02     Fs1   v127
	BYTE	W12
	BYTE		        Bn0   v120
	BYTE		N02     Fs1   v127
	BYTE	W06
	BYTE		        Gs1 
	BYTE	W06
	BYTE		        Bn0   v120
	BYTE		N02     Fs1   v127
	BYTE	W06
	BYTE		        Gs1 
	BYTE	W06
	BYTE		        As1 
	BYTE	W06
	BYTE		        Gs1 
	BYTE	W06
	BYTE		        En1   v116
	BYTE		N02     Fs1   v127
	BYTE	W06
	BYTE		N02   
	BYTE	W06
	BYTE		        As1 
	BYTE	W12
	BYTE	PEND
// 004   ----------------------------------------
	BYTE	PATT
	 POIN2	kuroihikari8850_10_003
// 005   ----------------------------------------
	BYTE		N02     Bn0   v120
	BYTE		N02     Fs1   v127
	BYTE	W12
	BYTE		N02   
	BYTE	W06
	BYTE		        Gs1 
	BYTE	W06
	BYTE		        En1   v116
	BYTE		N02     Fs1   v127
	BYTE	W12
	BYTE		        Bn0   v120
	BYTE		N02     Fs1   v127
	BYTE	W06
	BYTE		        Gs1 
	BYTE	W06
	BYTE		        Bn0   v120
	BYTE		N02     Fs1   v127
	BYTE	W06
	BYTE		        Gs1 
	BYTE	W06
	BYTE		        As1 
	BYTE	W06
	BYTE		        Gs1 
	BYTE	W06
	BYTE		        En1   v116
	BYTE		N02     Fs1   v127
	BYTE	W06
	BYTE		N02   
	BYTE	W06
	BYTE		        Bn0   v120
	BYTE		N02     As1   v127
	BYTE	W12
// 006   ----------------------------------------
kuroihikari8850_10_006:
	BYTE		N02     Bn0   v120
	BYTE		N02     Fs1   v127
	BYTE		N02     An2 
	BYTE	W12
	BYTE		        Fs1 
	BYTE	W06
	BYTE		        Gs1 
	BYTE	W06
	BYTE		        En1   v116
	BYTE		N02     Fs1   v127
	BYTE	W12
	BYTE		        Bn0   v120
	BYTE		N02     Fs1   v127
	BYTE	W06
	BYTE		        Gs1 
	BYTE	W06
	BYTE		        Bn0   v120
	BYTE		N02     Fs1   v127
	BYTE	W06
	BYTE		        Gs1 
	BYTE	W06
	BYTE		        As1 
	BYTE	W06
	BYTE		        Gs1 
	BYTE	W06
	BYTE		        En1   v116
	BYTE		N02     Fs1   v127
	BYTE	W06
	BYTE		N02   
	BYTE	W06
	BYTE		        As1 
	BYTE	W12
	BYTE	PEND
// 007   ----------------------------------------
	BYTE	PATT
	 POIN2	kuroihikari8850_10_003
// 008   ----------------------------------------
	BYTE	PATT
	 POIN2	kuroihikari8850_10_003
// 009   ----------------------------------------
kuroihikari8850_10_009:
	BYTE		N02     Bn0   v120
	BYTE		N02     Fs1   v127
	BYTE	W12
	BYTE		N02   
	BYTE	W06
	BYTE		        Gs1 
	BYTE	W06
	BYTE		        En1   v116
	BYTE		N02     Fs1   v127
	BYTE	W06
	BYTE		N02   
	BYTE	W06
	BYTE		        Bn0   v120
	BYTE		N02     As1   v127
	BYTE	W12
	BYTE		        Bn0   v120
	BYTE		N02     En1   v116
	BYTE	W06
	BYTE		N02   
	BYTE	W06
	BYTE		        Bn1   v127
	BYTE	W06
	BYTE		        Fn1 
	BYTE	W06
	BYTE		        Bn0   v120
	BYTE		N02     En1   v116
	BYTE	W12
	BYTE		        Bn0   v120
	BYTE		N02     En1   v116
	BYTE	W06
	BYTE		N02   
	BYTE	W06
	BYTE	PEND
// 010   ----------------------------------------
kuroihikari8850_10_010:
	BYTE		N02     Bn0   v120
	BYTE		N02     Fs1   v127
	BYTE		N02     An2 
	BYTE	W12
	BYTE		        Fs1 
	BYTE	W06
	BYTE		        Gs1 
	BYTE	W06
	BYTE		        En1   v116
	BYTE		N02     Fn2   v127
	BYTE	W12
	BYTE		        Fs1 
	BYTE	W06
	BYTE		        Gs1 
	BYTE	W06
	BYTE		        Bn0   v120
	BYTE		N02     Fn2   v127
	BYTE	W06
	BYTE		        Gs1 
	BYTE	W06
	BYTE		        Bn0   v120
	BYTE		N02     As1   v127
	BYTE	W06
	BYTE		        Gs1 
	BYTE	W06
	BYTE		        En1   v116
	BYTE		N02     Fn2   v127
	BYTE	W06
	BYTE		        Fs1 
	BYTE	W06
	BYTE		        As1 
	BYTE	W12
	BYTE	PEND
// 011   ----------------------------------------
kuroihikari8850_10_011:
	BYTE		N02     Bn0   v120
	BYTE		N02     Fs1   v127
	BYTE		N02     An2 
	BYTE	W12
	BYTE		        Fs1 
	BYTE	W06
	BYTE		        Gs1 
	BYTE	W06
	BYTE		        En1   v116
	BYTE		N02     Fn2   v127
	BYTE	W12
	BYTE		        Bn0   v120
	BYTE		N02     Fs1   v127
	BYTE	W06
	BYTE		        Gs1 
	BYTE	W06
	BYTE		        Bn0   v120
	BYTE		N02     Fn2   v127
	BYTE	W06
	BYTE		        Gs1 
	BYTE	W06
	BYTE		        As1 
	BYTE	W06
	BYTE		        Gs1 
	BYTE	W06
	BYTE		        En1   v116
	BYTE		N02     Fn2   v127
	BYTE	W06
	BYTE		        Fs1 
	BYTE	W06
	BYTE		        As1 
	BYTE	W12
	BYTE	PEND
// 012   ----------------------------------------
	BYTE	PATT
	 POIN2	kuroihikari8850_10_010
// 013   ----------------------------------------
kuroihikari8850_10_013:
	BYTE		N02     Bn0   v120
	BYTE		N02     Fs1   v127
	BYTE		N02     An2 
	BYTE	W12
	BYTE		        Fs1 
	BYTE	W06
	BYTE		        Gs1 
	BYTE	W06
	BYTE		        En1   v116
	BYTE		N02     Fn2   v127
	BYTE	W12
	BYTE		        Bn0   v120
	BYTE		N02     Fs1   v127
	BYTE	W06
	BYTE		        Gs1 
	BYTE	W06
	BYTE		        Bn0   v120
	BYTE		N02     Fn2   v127
	BYTE	W06
	BYTE		        Gs1 
	BYTE	W06
	BYTE		        As1 
	BYTE	W06
	BYTE		        Gs1 
	BYTE	W06
	BYTE		        Bn0   v120
	BYTE		N02     En1   v116
	BYTE		N02     Fn2   v127
	BYTE	W06
	BYTE		        Fs1 
	BYTE	W06
	BYTE		        Bn0   v120
	BYTE		N02     En1   v116
	BYTE		N02     As1   v127
	BYTE	W12
	BYTE	PEND
// 014   ----------------------------------------
kuroihikari8850_10_014:
	BYTE		N02     Bn0   v120
	BYTE		N02     Fs1   v127
	BYTE		N02     Cs2 
	BYTE	W12
	BYTE		        Fs1 
	BYTE	W06
	BYTE		        Gs1 
	BYTE	W06
	BYTE		        En1   v116
	BYTE		N02     Fn2   v127
	BYTE	W12
	BYTE		        Fs1 
	BYTE	W06
	BYTE		        Gs1 
	BYTE	W06
	BYTE		        Bn0   v120
	BYTE		N02     Fn2   v127
	BYTE	W06
	BYTE		        Gs1 
	BYTE	W06
	BYTE		        Bn0   v120
	BYTE		N02     As1   v127
	BYTE	W06
	BYTE		        Gs1 
	BYTE	W06
	BYTE		        En1   v116
	BYTE		N02     Fn2   v127
	BYTE	W06
	BYTE		        Fs1 
	BYTE	W06
	BYTE		        As1 
	BYTE	W12
	BYTE	PEND
// 015   ----------------------------------------
	BYTE	PATT
	 POIN2	kuroihikari8850_10_011
// 016   ----------------------------------------
	BYTE	PATT
	 POIN2	kuroihikari8850_10_010
// 017   ----------------------------------------
	BYTE		N02     Bn0   v120
	BYTE		N02     Cn2   v112
	BYTE		N02     An2   v127
	BYTE	W06
	BYTE		        An1   v112
	BYTE	W06
	BYTE		        Fn1 
	BYTE	W06
	BYTE		        En1   v116
	BYTE	W18
	BYTE		        Bn0   v120
	BYTE	W12
	BYTE		N02   
	BYTE	W06
	BYTE		        En1   v116
	BYTE	W06
	BYTE		N02   
	BYTE	W06
	BYTE		        An1   v112
	BYTE	W06
	BYTE		        Bn0   v120
	BYTE		N02     En1   v116
	BYTE	W06
	BYTE		        Fn1   v112
	BYTE	W06
	BYTE		        Bn0   v120
	BYTE		N02     En1   v116
	BYTE	W06
	BYTE		N02   
	BYTE	W06
// 018   ----------------------------------------
	BYTE	PATT
	 POIN2	kuroihikari8850_10_002
// 019   ----------------------------------------
	BYTE	PATT
	 POIN2	kuroihikari8850_10_003
// 020   ----------------------------------------
	BYTE	PATT
	 POIN2	kuroihikari8850_10_003
// 021   ----------------------------------------
	BYTE	PATT
	 POIN2	kuroihikari8850_10_003
// 022   ----------------------------------------
	BYTE	PATT
	 POIN2	kuroihikari8850_10_006
// 023   ----------------------------------------
	BYTE	PATT
	 POIN2	kuroihikari8850_10_003
// 024   ----------------------------------------
	BYTE	PATT
	 POIN2	kuroihikari8850_10_003
// 025   ----------------------------------------
	BYTE		N02     Bn0   v120
	BYTE		N02     Fs1   v127
	BYTE	W12
	BYTE		N02   
	BYTE	W06
	BYTE		        Gs1 
	BYTE	W06
	BYTE		        En1   v116
	BYTE		N02     Fs1   v127
	BYTE	W06
	BYTE		N02   
	BYTE	W06
	BYTE		        Bn0   v120
	BYTE		N02     As1   v127
	BYTE	W12
	BYTE		        Bn0   v120
	BYTE		N02     En1   v116
	BYTE	W06
	BYTE		N02   
	BYTE	W06
	BYTE		        Dn2   v112
	BYTE	W06
	BYTE		        Cn2 
	BYTE	W06
	BYTE		        Bn0   v120
	BYTE		N02     En1   v116
	BYTE	W06
	BYTE		        An1   v112
	BYTE	W06
	BYTE		        Bn0   v120
	BYTE		N02     En1   v116
	BYTE	W06
	BYTE		N02   
	BYTE	W06
// 026   ----------------------------------------
	BYTE	PATT
	 POIN2	kuroihikari8850_10_010
// 027   ----------------------------------------
	BYTE	PATT
	 POIN2	kuroihikari8850_10_011
// 028   ----------------------------------------
	BYTE	PATT
	 POIN2	kuroihikari8850_10_010
// 029   ----------------------------------------
	BYTE	PATT
	 POIN2	kuroihikari8850_10_013
// 030   ----------------------------------------
	BYTE	PATT
	 POIN2	kuroihikari8850_10_014
// 031   ----------------------------------------
	BYTE	PATT
	 POIN2	kuroihikari8850_10_011
// 032   ----------------------------------------
	BYTE	PATT
	 POIN2	kuroihikari8850_10_010
// 033   ----------------------------------------
	BYTE		N02     Bn0   v120
	BYTE		N02     Cn2   v112
	BYTE		N02     An2   v127
	BYTE	W06
	BYTE		        An1   v112
	BYTE	W06
	BYTE		        En1   v116
	BYTE	W06
	BYTE		        Fn1   v112
	BYTE	W18
	BYTE		        Bn0   v120
	BYTE	W18
	BYTE		        En1   v116
	BYTE	W06
	BYTE		N02   
	BYTE	W06
	BYTE		        Bn1   v112
	BYTE	W06
	BYTE		        Bn0   v120
	BYTE		N02     En1   v116
	BYTE	W06
	BYTE		        Gn1   v112
	BYTE	W06
	BYTE		        Bn0   v120
	BYTE		N02     En1   v116
	BYTE	W06
	BYTE		N02   
	BYTE	W06
// 034   ----------------------------------------
kuroihikari8850_10_034:
	BYTE		N02     Bn0   v120
	BYTE		N02     Fs1   v127
	BYTE		N02     Cs2 
	BYTE	W06
	BYTE		        Fs1 
	BYTE	W06
	BYTE		        As1 
	BYTE	W12
	BYTE		        En1   v116
	BYTE		N02     Fs1   v127
	BYTE	W06
	BYTE		        Gs1 
	BYTE	W06
	BYTE		        As1 
	BYTE	W12
	BYTE		        Bn0   v120
	BYTE		N02     Fs1   v127
	BYTE	W06
	BYTE		N02   
	BYTE	W06
	BYTE		        Bn0   v120
	BYTE		N02     As1   v127
	BYTE	W06
	BYTE		        Gs1 
	BYTE	W06
	BYTE		        En1   v116
	BYTE		N02     Fs1   v127
	BYTE	W06
	BYTE		N02   
	BYTE	W06
	BYTE		        As1 
	BYTE	W12
	BYTE	PEND
// 035   ----------------------------------------
kuroihikari8850_10_035:
	BYTE		N02     Bn0   v120
	BYTE		N02     Fs1   v127
	BYTE	W06
	BYTE		        Gs1 
	BYTE	W06
	BYTE		        As1 
	BYTE	W12
	BYTE		        En1   v116
	BYTE		N02     Fs1   v127
	BYTE	W06
	BYTE		        Gs1 
	BYTE	W06
	BYTE		        Bn0   v120
	BYTE		N02     As1   v127
	BYTE	W12
	BYTE		        Bn0   v120
	BYTE		N02     Fs1   v127
	BYTE	W06
	BYTE		N02   
	BYTE	W06
	BYTE		        As1 
	BYTE	W06
	BYTE		        Gs1 
	BYTE	W06
	BYTE		        En1   v116
	BYTE		N02     Fs1   v127
	BYTE	W06
	BYTE		N02   
	BYTE	W06
	BYTE		        As1 
	BYTE	W12
	BYTE	PEND
// 036   ----------------------------------------
kuroihikari8850_10_036:
	BYTE		N02     Bn0   v120
	BYTE		N02     Fs1   v127
	BYTE	W06
	BYTE		N02   
	BYTE	W06
	BYTE		        As1 
	BYTE	W12
	BYTE		        En1   v116
	BYTE		N02     Fs1   v127
	BYTE	W06
	BYTE		        Gs1 
	BYTE	W06
	BYTE		        As1 
	BYTE	W12
	BYTE		        Bn0   v120
	BYTE		N02     Fs1   v127
	BYTE	W06
	BYTE		N02   
	BYTE	W06
	BYTE		        Bn0   v120
	BYTE		N02     As1   v127
	BYTE	W06
	BYTE		        Gs1 
	BYTE	W06
	BYTE		        En1   v116
	BYTE		N02     Fs1   v127
	BYTE	W06
	BYTE		N02   
	BYTE	W06
	BYTE		        As1 
	BYTE	W12
	BYTE	PEND
// 037   ----------------------------------------
kuroihikari8850_10_037:
	BYTE		N02     Bn0   v120
	BYTE		N02     Fs1   v127
	BYTE	W06
	BYTE		        Gs1 
	BYTE	W06
	BYTE		        As1 
	BYTE	W12
	BYTE		        En1   v116
	BYTE		N02     Fs1   v127
	BYTE	W06
	BYTE		        Gs1 
	BYTE	W06
	BYTE		        Bn0   v120
	BYTE		N02     As1   v127
	BYTE	W12
	BYTE		        Bn0   v120
	BYTE		N02     Fs1   v127
	BYTE	W06
	BYTE		N02   
	BYTE	W06
	BYTE		        As1 
	BYTE	W06
	BYTE		        Gs1 
	BYTE	W06
	BYTE		        Bn0   v120
	BYTE		N02     En1   v116
	BYTE		N02     Fs1   v127
	BYTE	W06
	BYTE		N02   
	BYTE	W06
	BYTE		        Bn0   v120
	BYTE		N02     En1   v116
	BYTE		N02     As1   v127
	BYTE	W12
	BYTE	PEND
// 038   ----------------------------------------
kuroihikari8850_10_038:
	BYTE		N02     Bn0   v120
	BYTE		N02     Fs1   v127
	BYTE		N02     An2 
	BYTE	W06
	BYTE		        Fs1 
	BYTE	W06
	BYTE		        As1 
	BYTE	W12
	BYTE		        En1   v116
	BYTE		N02     Fs1   v127
	BYTE	W06
	BYTE		        Gs1 
	BYTE	W06
	BYTE		        As1 
	BYTE	W12
	BYTE		        Bn0   v120
	BYTE		N02     Fs1   v127
	BYTE	W06
	BYTE		N02   
	BYTE	W06
	BYTE		        Bn0   v120
	BYTE		N02     As1   v127
	BYTE	W06
	BYTE		        Gs1 
	BYTE	W06
	BYTE		        En1   v116
	BYTE		N02     Fs1   v127
	BYTE	W06
	BYTE		N02   
	BYTE	W06
	BYTE		        As1 
	BYTE	W12
	BYTE	PEND
// 039   ----------------------------------------
	BYTE	PATT
	 POIN2	kuroihikari8850_10_035
// 040   ----------------------------------------
	BYTE	PATT
	 POIN2	kuroihikari8850_10_036
// 041   ----------------------------------------
kuroihikari8850_10_041:
	BYTE		N02     Bn0   v120
	BYTE		N02     Fs1   v127
	BYTE	W06
	BYTE		        Gs1 
	BYTE	W06
	BYTE		        As1 
	BYTE	W12
	BYTE		        En1   v116
	BYTE		N02     Fs1   v127
	BYTE	W06
	BYTE		        Gs1 
	BYTE	W06
	BYTE		        Bn0   v120
	BYTE		N02     As1   v127
	BYTE	W12
	BYTE		        Bn0   v120
	BYTE		N02     Fs1   v127
	BYTE	W06
	BYTE		N02   
	BYTE	W06
	BYTE		        As1 
	BYTE	W06
	BYTE		        Gs1 
	BYTE	W06
	BYTE		        Bn0   v120
	BYTE		N02     En1   v116
	BYTE		N02     Fs1   v127
	BYTE	W06
	BYTE		N02   
	BYTE	W06
	BYTE		        Bn0   v120
	BYTE		N02     En1   v116
	BYTE		N02     As1   v127
	BYTE	W06
	BYTE		        En1   v116
	BYTE	W06
	BYTE	PEND
// 042   ----------------------------------------
	BYTE	PATT
	 POIN2	kuroihikari8850_10_034
// 043   ----------------------------------------
	BYTE	PATT
	 POIN2	kuroihikari8850_10_035
// 044   ----------------------------------------
	BYTE	PATT
	 POIN2	kuroihikari8850_10_036
// 045   ----------------------------------------
	BYTE	PATT
	 POIN2	kuroihikari8850_10_037
// 046   ----------------------------------------
	BYTE	PATT
	 POIN2	kuroihikari8850_10_038
// 047   ----------------------------------------
	BYTE	PATT
	 POIN2	kuroihikari8850_10_035
// 048   ----------------------------------------
	BYTE	PATT
	 POIN2	kuroihikari8850_10_036
// 049   ----------------------------------------
	BYTE		N02     Bn0   v120
	BYTE		N02     Fs1   v127
	BYTE	W06
	BYTE		        Gs1 
	BYTE	W06
	BYTE		        As1 
	BYTE	W12
	BYTE		        En1   v116
	BYTE		N02     Fs1   v127
	BYTE	W06
	BYTE		        Gs1 
	BYTE	W06
	BYTE		        Bn0   v120
	BYTE		N02     As1   v127
	BYTE	W12
	BYTE		        Bn0   v120
	BYTE		N02     Fs1   v127
	BYTE	W06
	BYTE		N02   
	BYTE	W06
	BYTE		        As1 
	BYTE	W06
	BYTE		        Gs1 
	BYTE	W06
	BYTE		        Bn0   v120
	BYTE		N02     En1   v116
	BYTE	W06
	BYTE		        Bn1   v112
	BYTE	W06
	BYTE		        Bn0   v120
	BYTE		N02     En1   v116
	BYTE	W06
	BYTE		        Gn1   v112
	BYTE	W06
// 050   ----------------------------------------
	BYTE	PATT
	 POIN2	kuroihikari8850_10_002
// 051   ----------------------------------------
	BYTE	PATT
	 POIN2	kuroihikari8850_10_003
// 052   ----------------------------------------
	BYTE	PATT
	 POIN2	kuroihikari8850_10_003
// 053   ----------------------------------------
	BYTE	PATT
	 POIN2	kuroihikari8850_10_003
// 054   ----------------------------------------
	BYTE	PATT
	 POIN2	kuroihikari8850_10_006
// 055   ----------------------------------------
	BYTE	PATT
	 POIN2	kuroihikari8850_10_003
// 056   ----------------------------------------
	BYTE	PATT
	 POIN2	kuroihikari8850_10_003
// 057   ----------------------------------------
	BYTE	PATT
	 POIN2	kuroihikari8850_10_009
// 058   ----------------------------------------
	BYTE		N02     Bn0   v120
	BYTE		N02     Fs1   v127
	BYTE		N02     Cs2 
	BYTE	W12
	BYTE		        Fs1 
	BYTE	W06
	BYTE		        Gs1 
	BYTE	W06
	BYTE		        En1   v116
	BYTE	W12
	BYTE		        Fs1   v127
	BYTE	W06
	BYTE		        Gs1 
	BYTE	W06
	BYTE		        Bn0   v120
	BYTE	W06
	BYTE		        Gs1   v127
	BYTE	W06
	BYTE		        Bn0   v120
	BYTE		N02     As1   v127
	BYTE	W06
	BYTE		        Gs1 
	BYTE	W06
	BYTE		        En1   v116
	BYTE	W06
	BYTE		        Fs1   v127
	BYTE	W06
	BYTE		        As1 
	BYTE	W12
// 059   ----------------------------------------
kuroihikari8850_10_059:
	BYTE		N02     Bn0   v120
	BYTE		N02     Fs1   v127
	BYTE	W12
	BYTE		N02   
	BYTE	W06
	BYTE		        Gs1 
	BYTE	W06
	BYTE		        En1   v116
	BYTE	W12
	BYTE		        Bn0   v120
	BYTE		N02     Fs1   v127
	BYTE	W06
	BYTE		        Gs1 
	BYTE	W06
	BYTE		        Bn0   v120
	BYTE	W06
	BYTE		        Gs1   v127
	BYTE	W06
	BYTE		        As1 
	BYTE	W06
	BYTE		        Gs1 
	BYTE	W06
	BYTE		        En1   v116
	BYTE	W06
	BYTE		        Fs1   v127
	BYTE	W06
	BYTE		        As1 
	BYTE	W12
	BYTE	PEND
// 060   ----------------------------------------
	BYTE		        Bn0   v120
	BYTE		N02     Fs1   v127
	BYTE	W12
	BYTE		N02   
	BYTE	W06
	BYTE		        Gs1 
	BYTE	W06
	BYTE		        En1   v116
	BYTE	W12
	BYTE		        Fs1   v127
	BYTE	W06
	BYTE		        Gs1 
	BYTE	W06
	BYTE		        Bn0   v120
	BYTE	W06
	BYTE		        Gs1   v127
	BYTE	W06
	BYTE		        Bn0   v120
	BYTE		N02     As1   v127
	BYTE	W06
	BYTE		        Gs1 
	BYTE	W06
	BYTE		        En1   v116
	BYTE	W06
	BYTE		        Fs1   v127
	BYTE	W06
	BYTE		        As1 
	BYTE	W12
// 061   ----------------------------------------
	BYTE		        Bn0   v120
	BYTE		N02     Fs1   v127
	BYTE	W12
	BYTE		N02   
	BYTE	W06
	BYTE		        Gs1 
	BYTE	W06
	BYTE		        En1   v116
	BYTE	W12
	BYTE		        Bn0   v120
	BYTE		N02     Fs1   v127
	BYTE	W06
	BYTE		        Gs1 
	BYTE	W06
	BYTE		        Bn0   v120
	BYTE	W06
	BYTE		        Gs1   v127
	BYTE	W06
	BYTE		        As1 
	BYTE	W06
	BYTE		        Gs1 
	BYTE	W06
	BYTE		        Bn0   v120
	BYTE		N02     En1   v116
	BYTE	W06
	BYTE		        Fs1   v127
	BYTE	W06
	BYTE		        Bn0   v120
	BYTE		N02     En1   v116
	BYTE		N02     As1   v127
	BYTE	W12
// 062   ----------------------------------------
	BYTE		        Bn0   v120
	BYTE		N02     Fs1   v127
	BYTE		N02     An2 
	BYTE	W12
	BYTE		        Fs1 
	BYTE	W06
	BYTE		        Gs1 
	BYTE	W06
	BYTE		        En1   v116
	BYTE	W12
	BYTE		        Fs1   v127
	BYTE	W06
	BYTE		        Gs1 
	BYTE	W06
	BYTE		        Bn0   v120
	BYTE	W06
	BYTE		        Gs1   v127
	BYTE	W06
	BYTE		        Bn0   v120
	BYTE		N02     As1   v127
	BYTE	W06
	BYTE		        Gs1 
	BYTE	W06
	BYTE		        En1   v116
	BYTE	W06
	BYTE		        Fs1   v127
	BYTE	W06
	BYTE		        As1 
	BYTE	W12
// 063   ----------------------------------------
	BYTE	PATT
	 POIN2	kuroihikari8850_10_059
// 064   ----------------------------------------
	BYTE		N02     Bn0   v120
	BYTE		N02     Fs1   v127
	BYTE		N02     Gn2 
	BYTE	W12
	BYTE		        Fs1 
	BYTE	W06
	BYTE		        Gs1 
	BYTE	W06
	BYTE		        En1   v116
	BYTE	W12
	BYTE		        Fs1   v127
	BYTE	W06
	BYTE		        Gs1 
	BYTE	W06
	BYTE		        Bn0   v120
	BYTE	W06
	BYTE		        Gs1   v127
	BYTE	W06
	BYTE		        Bn0   v120
	BYTE		N02     As1   v127
	BYTE	W06
	BYTE		        Gs1 
	BYTE	W06
	BYTE		        En1   v116
	BYTE	W06
	BYTE		        Fs1   v127
	BYTE	W06
	BYTE		        As1 
	BYTE	W12
// 065   ----------------------------------------
	BYTE		        Bn0   v120
	BYTE		N02     Cn2   v112
	BYTE		N02     An2   v127
	BYTE	W06
	BYTE		        An1   v112
	BYTE	W06
	BYTE		        Bn0   v120
	BYTE		N02     Fn1   v112
	BYTE	W06
	BYTE		        En1   v116
	BYTE	W18
	BYTE		        Bn0   v120
	BYTE	W18
	BYTE		        En1   v116
	BYTE	W06
	BYTE		N02   
	BYTE	W06
	BYTE		        An1   v112
	BYTE	W06
	BYTE		        Bn0   v120
	BYTE		N02     En1   v116
	BYTE	W06
	BYTE		        Fn1   v112
	BYTE	W06
	BYTE		        Bn0   v120
	BYTE		N02     En1   v116
	BYTE	W06
	BYTE		N02   
	BYTE	W06
// 066   ----------------------------------------
kuroihikari8850_10_066:
	BYTE		N02     Bn0   v120
	BYTE		N02     Fs1   v127
	BYTE		N02     Cs2 
	BYTE	W12
	BYTE		        Fs1 
	BYTE	W06
	BYTE		        Gs1 
	BYTE	W06
	BYTE		        En1   v116
	BYTE		N02     Fs1   v127
	BYTE	W12
	BYTE		N02   
	BYTE	W06
	BYTE		        Gs1 
	BYTE	W06
	BYTE		        Bn0   v120
	BYTE		N02     Fs1   v127
	BYTE	W06
	BYTE		        Gs1 
	BYTE	W06
	BYTE		        As1 
	BYTE	W06
	BYTE		        Gs1 
	BYTE	W06
	BYTE		        En1   v116
	BYTE		N02     Fs1   v127
	BYTE	W06
	BYTE		N02   
	BYTE	W06
	BYTE		        As1 
	BYTE	W12
	BYTE	PEND
// 067   ----------------------------------------
kuroihikari8850_10_067:
	BYTE		N02     Bn0   v120
	BYTE		N02     Fs1   v127
	BYTE	W12
	BYTE		N02   
	BYTE	W06
	BYTE		        Gs1 
	BYTE	W06
	BYTE		        En1   v116
	BYTE		N02     Fs1   v127
	BYTE	W12
	BYTE		N02   
	BYTE	W06
	BYTE		        Gs1 
	BYTE	W06
	BYTE		        Bn0   v120
	BYTE		N02     Fs1   v127
	BYTE	W06
	BYTE		        Gs1 
	BYTE	W06
	BYTE		        As1 
	BYTE	W06
	BYTE		        Gs1 
	BYTE	W06
	BYTE		        En1   v116
	BYTE		N02     Fs1   v127
	BYTE	W06
	BYTE		N02   
	BYTE	W06
	BYTE		        As1 
	BYTE	W12
	BYTE	PEND
// 068   ----------------------------------------
	BYTE	PATT
	 POIN2	kuroihikari8850_10_067
// 069   ----------------------------------------
kuroihikari8850_10_069:
	BYTE		N02     Bn0   v120
	BYTE		N02     Fs1   v127
	BYTE	W12
	BYTE		N02   
	BYTE	W06
	BYTE		        Gs1 
	BYTE	W06
	BYTE		        En1   v116
	BYTE		N02     Fs1   v127
	BYTE	W12
	BYTE		N02   
	BYTE	W06
	BYTE		        Gs1 
	BYTE	W06
	BYTE		        Bn0   v120
	BYTE		N02     Fs1   v127
	BYTE	W06
	BYTE		        Gs1 
	BYTE	W06
	BYTE		        As1 
	BYTE	W06
	BYTE		        Gs1 
	BYTE	W06
	BYTE		        Bn0   v120
	BYTE		N02     En1   v116
	BYTE		N02     Fs1   v127
	BYTE	W06
	BYTE		N02   
	BYTE	W06
	BYTE		        Bn0   v120
	BYTE		N02     En1   v116
	BYTE		N02     As1   v127
	BYTE	W12
	BYTE	PEND
// 070   ----------------------------------------
kuroihikari8850_10_070:
	BYTE		N02     Bn0   v120
	BYTE		N02     Fs1   v127
	BYTE		N02     An2 
	BYTE	W12
	BYTE		        Fs1 
	BYTE	W06
	BYTE		        Gs1 
	BYTE	W06
	BYTE		        En1   v116
	BYTE		N02     Fs1   v127
	BYTE	W12
	BYTE		N02   
	BYTE	W06
	BYTE		        Gs1 
	BYTE	W06
	BYTE		        Bn0   v120
	BYTE		N02     Fs1   v127
	BYTE	W06
	BYTE		        Gs1 
	BYTE	W06
	BYTE		        As1 
	BYTE	W06
	BYTE		        Gs1 
	BYTE	W06
	BYTE		        En1   v116
	BYTE		N02     Fs1   v127
	BYTE	W06
	BYTE		N02   
	BYTE	W06
	BYTE		        As1 
	BYTE	W12
	BYTE	PEND
// 071   ----------------------------------------
	BYTE	PATT
	 POIN2	kuroihikari8850_10_067
// 072   ----------------------------------------
	BYTE	PATT
	 POIN2	kuroihikari8850_10_067
// 073   ----------------------------------------
	BYTE		N02     Bn0   v120
	BYTE		N02     Fn2   v127
	BYTE	W12
	BYTE		        Fs1 
	BYTE	W06
	BYTE		        Gs1 
	BYTE	W06
	BYTE		        En1   v116
	BYTE		N02     Fn2   v127
	BYTE	W12
	BYTE		        Bn0   v120
	BYTE		N02     Fs1   v127
	BYTE	W06
	BYTE		        Gs1 
	BYTE	W06
	BYTE		        Bn0   v120
	BYTE		N02     Fn2   v127
	BYTE	W06
	BYTE		        Gs1 
	BYTE	W06
	BYTE		        As1 
	BYTE	W06
	BYTE		        Gs1 
	BYTE	W06
	BYTE		        Bn0   v120
	BYTE		N02     En1   v116
	BYTE		N02     Fs1   v127
	BYTE	W06
	BYTE		N02   
	BYTE	W06
	BYTE		        Bn0   v120
	BYTE		N02     En1   v116
	BYTE		N02     As1   v127
	BYTE	W06
	BYTE		        En1   v116
	BYTE	W06
// 074   ----------------------------------------
	BYTE	PATT
	 POIN2	kuroihikari8850_10_066
// 075   ----------------------------------------
	BYTE	PATT
	 POIN2	kuroihikari8850_10_067
// 076   ----------------------------------------
	BYTE	PATT
	 POIN2	kuroihikari8850_10_067
// 077   ----------------------------------------
	BYTE	PATT
	 POIN2	kuroihikari8850_10_069
// 078   ----------------------------------------
	BYTE	PATT
	 POIN2	kuroihikari8850_10_070
// 079   ----------------------------------------
	BYTE	PATT
	 POIN2	kuroihikari8850_10_067
// 080   ----------------------------------------
	BYTE		N02     Bn0   v120
	BYTE		N02     Fn2   v127
	BYTE	W12
	BYTE		        Fs1 
	BYTE	W06
	BYTE		        Gs1 
	BYTE	W06
	BYTE		        En1   v116
	BYTE		N02     Fn2   v127
	BYTE	W12
	BYTE		        Fs1 
	BYTE	W06
	BYTE		        Gs1 
	BYTE	W06
	BYTE		        Bn0   v120
	BYTE		N02     Fn2   v127
	BYTE	W06
	BYTE		        Gs1 
	BYTE	W06
	BYTE		        As1 
	BYTE	W06
	BYTE		        Gs1 
	BYTE	W06
	BYTE		        En1   v116
	BYTE		N02     Fn2   v127
	BYTE	W06
	BYTE		        Fs1 
	BYTE	W06
	BYTE		        As1 
	BYTE	W12
// 081   ----------------------------------------
kuroihikari8850_10_081:
	BYTE		N02     Bn0   v120
	BYTE		N02     Fn2   v127
	BYTE	W12
	BYTE		        Fs1 
	BYTE	W06
	BYTE		        Gs1 
	BYTE	W06
	BYTE		        En1   v116
	BYTE		N02     Fn2   v127
	BYTE	W12
	BYTE		        Bn0   v120
	BYTE		N02     Fs1   v127
	BYTE	W06
	BYTE		        Gs1 
	BYTE	W06
	BYTE		        Bn0   v120
	BYTE		N02     Fn2   v127
	BYTE	W06
	BYTE		        Gs1 
	BYTE	W06
	BYTE		        As1 
	BYTE	W06
	BYTE		        Gs1 
	BYTE	W06
	BYTE		        Bn0   v120
	BYTE		N02     En1   v116
	BYTE		N02     Fn2   v127
	BYTE	W06
	BYTE		        Fs1 
	BYTE	W06
	BYTE		        Bn0   v120
	BYTE		N02     En1   v116
	BYTE		N02     As1   v127
	BYTE	W06
	BYTE		        En1   v116
	BYTE	W06
	BYTE	PEND
// 082   ----------------------------------------
	BYTE		        Bn0   v120
	BYTE		N02     An2   v127
	BYTE	W12
	BYTE		        Fs1 
	BYTE	W06
	BYTE		        Gs1 
	BYTE	W06
	BYTE		        En1   v116
	BYTE		N02     Fn2   v127
	BYTE	W12
	BYTE		        Fs1 
	BYTE	W06
	BYTE		        Gs1 
	BYTE	W06
	BYTE		        Bn0   v120
	BYTE		N02     Fn2   v127
	BYTE	W06
	BYTE		        Gs1 
	BYTE	W06
	BYTE		        Bn0   v120
	BYTE		N02     As1   v127
	BYTE	W06
	BYTE		        Gs1 
	BYTE	W06
	BYTE		        En1   v116
	BYTE		N02     Fn2   v127
	BYTE	W06
	BYTE		        Fs1 
	BYTE	W06
	BYTE		        As1 
	BYTE	W12
// 083   ----------------------------------------
	BYTE	PATT
	 POIN2	kuroihikari8850_10_081
// 084   ----------------------------------------
kuroihikari8850_10_084:
	BYTE		N02     Bn0   v120
	BYTE		N02     Fs1   v127
	BYTE		N02     Cs2 
	BYTE	W12
	BYTE		        Fs1 
	BYTE	W06
	BYTE		        Gs1 
	BYTE	W06
	BYTE		        En1   v116
	BYTE		N02     Fs1   v127
	BYTE	W12
	BYTE		N02   
	BYTE	W06
	BYTE		        Gs1 
	BYTE	W06
	BYTE		        Bn0   v120
	BYTE		N02     Fs1   v127
	BYTE	W06
	BYTE		        Gs1 
	BYTE	W06
	BYTE		        Bn0   v120
	BYTE		N02     As1   v127
	BYTE	W06
	BYTE		        Gs1 
	BYTE	W06
	BYTE		        En1   v116
	BYTE		N02     Fs1   v127
	BYTE	W06
	BYTE		N02   
	BYTE	W06
	BYTE		        As1 
	BYTE	W12
	BYTE	PEND
// 085   ----------------------------------------
	BYTE	PATT
	 POIN2	kuroihikari8850_10_003
// 086   ----------------------------------------
kuroihikari8850_10_086:
	BYTE		N02     Bn0   v120
	BYTE		N02     Fs1   v127
	BYTE	W12
	BYTE		N02   
	BYTE	W06
	BYTE		        Gs1 
	BYTE	W06
	BYTE		        En1   v116
	BYTE		N02     Fs1   v127
	BYTE	W12
	BYTE		N02   
	BYTE	W06
	BYTE		        Gs1 
	BYTE	W06
	BYTE		        Bn0   v120
	BYTE		N02     Fs1   v127
	BYTE	W06
	BYTE		        Gs1 
	BYTE	W06
	BYTE		        Bn0   v120
	BYTE		N02     As1   v127
	BYTE	W06
	BYTE		        Gs1 
	BYTE	W06
	BYTE		        En1   v116
	BYTE		N02     Fs1   v127
	BYTE	W06
	BYTE		N02   
	BYTE	W06
	BYTE		        As1 
	BYTE	W12
	BYTE	PEND
// 087   ----------------------------------------
	BYTE		        Bn0   v120
	BYTE		N02     Fs1   v127
	BYTE	W12
	BYTE		N02   
	BYTE	W06
	BYTE		        Gs1 
	BYTE	W06
	BYTE		        En1   v116
	BYTE		N02     Fs1   v127
	BYTE	W12
	BYTE		        Bn0   v120
	BYTE		N02     Fs1   v127
	BYTE	W06
	BYTE		        Gs1 
	BYTE	W06
	BYTE		        Bn0   v120
	BYTE		N02     Fs1   v127
	BYTE	W06
	BYTE		        Gs1 
	BYTE	W06
	BYTE		        As1 
	BYTE	W06
	BYTE		        Gs1 
	BYTE	W06
	BYTE		        Bn0   v120
	BYTE		N02     En1   v116
	BYTE		N02     Fs1   v127
	BYTE	W06
	BYTE		N02   
	BYTE	W06
	BYTE		        Bn0   v120
	BYTE		N02     En1   v116
	BYTE		N02     As1   v127
	BYTE	W12
// 088   ----------------------------------------
kuroihikari8850_10_088:
	BYTE		N02     Bn0   v120
	BYTE		N02     Fs1   v127
	BYTE		N02     An2 
	BYTE	W12
	BYTE		        Fs1 
	BYTE	W06
	BYTE		        Gs1 
	BYTE	W06
	BYTE		        En1   v116
	BYTE		N02     Fs1   v127
	BYTE	W12
	BYTE		N02   
	BYTE	W06
	BYTE		        Gs1 
	BYTE	W06
	BYTE		        Bn0   v120
	BYTE		N02     Fs1   v127
	BYTE	W06
	BYTE		        Gs1 
	BYTE	W06
	BYTE		        Bn0   v120
	BYTE		N02     As1   v127
	BYTE	W06
	BYTE		        Gs1 
	BYTE	W06
	BYTE		        En1   v116
	BYTE		N02     Fs1   v127
	BYTE	W06
	BYTE		N02   
	BYTE	W06
	BYTE		        As1 
	BYTE	W12
	BYTE	PEND
// 089   ----------------------------------------
	BYTE	PATT
	 POIN2	kuroihikari8850_10_003
// 090   ----------------------------------------
	BYTE		N02     Bn0   v120
	BYTE		N02     Fs1   v127
	BYTE	W12
	BYTE		N02   
	BYTE	W06
	BYTE		        Gs1 
	BYTE	W06
	BYTE		        En1   v116
	BYTE		N02     Fs1   v127
	BYTE	W12
	BYTE		N02   
	BYTE	W06
	BYTE		        Gs1 
	BYTE	W06
	BYTE		        Bn0   v120
	BYTE		N02     Fs1   v127
	BYTE	W06
	BYTE		        Gs1 
	BYTE	W06
	BYTE		        Bn0   v120
	BYTE		N02     As1   v127
	BYTE	W06
	BYTE		        Gs1 
	BYTE	W06
	BYTE		        En1   v116
	BYTE		N02     Fs1   v127
	BYTE	W06
	BYTE		N02   
	BYTE	W06
	BYTE		        Bn0   v120
	BYTE		N02     As1   v127
	BYTE	W12
// 091   ----------------------------------------
	BYTE		        Bn0   v120
	BYTE		N02     Fs1   v127
	BYTE	W12
	BYTE		N02   
	BYTE	W06
	BYTE		        Gs1 
	BYTE	W06
	BYTE		        En1   v116
	BYTE		N02     Fs1   v127
	BYTE	W12
	BYTE		        Bn0   v120
	BYTE		N02     Fs1   v127
	BYTE	W06
	BYTE		        Gs1 
	BYTE	W06
	BYTE		        Bn0   v120
	BYTE		N02     Fs1   v127
	BYTE	W06
	BYTE		        Gs1 
	BYTE	W06
	BYTE		        As1 
	BYTE	W06
	BYTE		        Gs1 
	BYTE	W06
	BYTE		        En1   v116
	BYTE		N02     Fs1   v127
	BYTE	W06
	BYTE		N02   
	BYTE	W06
	BYTE		        En1   v116
	BYTE		N02     As1   v127
	BYTE	W06
	BYTE		        En1   v116
	BYTE	W06
// 092   ----------------------------------------
	BYTE	PATT
	 POIN2	kuroihikari8850_10_084
// 093   ----------------------------------------
	BYTE	PATT
	 POIN2	kuroihikari8850_10_003
// 094   ----------------------------------------
	BYTE	PATT
	 POIN2	kuroihikari8850_10_086
// 095   ----------------------------------------
	BYTE		N02     Bn0   v120
	BYTE		N02     Fs1   v127
	BYTE	W12
	BYTE		N02   
	BYTE	W06
	BYTE		        Gs1 
	BYTE	W06
	BYTE		        En1   v116
	BYTE		N02     Fs1   v127
	BYTE	W12
	BYTE		        Bn0   v120
	BYTE		N02     Fs1   v127
	BYTE	W06
	BYTE		        Gs1 
	BYTE	W06
	BYTE		        Bn0   v120
	BYTE		N02     Fs1   v127
	BYTE	W06
	BYTE		        Gs1 
	BYTE	W06
	BYTE		        As1 
	BYTE	W06
	BYTE		        Gs1 
	BYTE	W06
	BYTE		        Bn0   v120
	BYTE		N02     En1   v116
	BYTE		N02     Fs1   v127
	BYTE	W06
	BYTE		N02   
	BYTE	W06
	BYTE		        En1   v116
	BYTE		N02     As1   v127
	BYTE	W12
// 096   ----------------------------------------
	BYTE	PATT
	 POIN2	kuroihikari8850_10_088
// 097   ----------------------------------------
	BYTE	PATT
	 POIN2	kuroihikari8850_10_003
// 098   ----------------------------------------
	BYTE		N02     Bn0   v120
	BYTE		N02     Fs1   v127
	BYTE		N02     Gn2 
	BYTE	W12
	BYTE		        As1 
	BYTE	W06
	BYTE		        Gs1 
	BYTE	W06
	BYTE		        En1   v116
	BYTE		N02     Fs1   v127
	BYTE	W12
	BYTE		        As1 
	BYTE	W06
	BYTE		        Gs1 
	BYTE	W06
	BYTE		        Bn0   v120
	BYTE		N02     Fs1   v127
	BYTE	W06
	BYTE		        Gs1 
	BYTE	W06
	BYTE		        Bn0   v120
	BYTE		N02     As1   v127
	BYTE	W06
	BYTE		        Gs1 
	BYTE	W06
	BYTE		        En1   v116
	BYTE		N02     Fs1   v127
	BYTE	W06
	BYTE		N02   
	BYTE	W06
	BYTE		        Bn0   v120
	BYTE		N02     As1   v127
	BYTE	W12
// 099   ----------------------------------------
	BYTE		        Bn0   v120
	BYTE		N02     Fs1   v127
	BYTE		N02     Gn2 
	BYTE	W12
	BYTE		        Bn0   v120
	BYTE		N02     Fs1   v127
	BYTE		N02     As1 
	BYTE	W06
	BYTE		        Gs1 
	BYTE	W06
	BYTE		        En1   v116
	BYTE		N02     Fs1   v127
	BYTE	W12
	BYTE		        Bn0   v120
	BYTE		N02     Fs1   v127
	BYTE		N02     As1 
	BYTE	W06
	BYTE		        Gs1 
	BYTE	W06
	BYTE		        Bn0   v120
	BYTE		N02     En1   v116
	BYTE	W06
	BYTE		N02   
	BYTE	W06
	BYTE		        Gn1   v127
	BYTE	W06
	BYTE		        En1   v116
	BYTE	W06
	BYTE		        Bn0   v120
	BYTE		N02     En1   v116
	BYTE	W06
	BYTE		        Gn1   v127
	BYTE	W06
	BYTE		        Bn0   v120
	BYTE		N02     En1   v116
	BYTE		N02     An2   v127
	BYTE	W06
	BYTE		        En1   v116
	BYTE	W06
// 100   ----------------------------------------
	BYTE		        Bn0   v120
	BYTE		N02     Dn2   v112
	BYTE	W06
	BYTE		N02   
	BYTE	W06
	BYTE		N02   
	BYTE	W06
	BYTE		        Bn0   v120
	BYTE		N02     Cn2   v112
	BYTE	W06
	BYTE		N02   
	BYTE	W06
	BYTE		N02   
	BYTE	W06
	BYTE		        Bn0   v120
	BYTE		N02     An1   v112
	BYTE	W06
	BYTE		N02   
	BYTE	W06
	BYTE		N02   
	BYTE	W06
	BYTE		        Bn0   v120
	BYTE		N02     Dn2   v112
	BYTE	W06
	BYTE		        Bn1 
	BYTE	W06
	BYTE		        Fn1 
	BYTE	W06
	BYTE		        Bn0   v120
	BYTE		N02     En1   v116
	BYTE	W06
	BYTE		N02   
	BYTE	W06
	BYTE		        Bn0   v120
	BYTE		N02     En1   v116
	BYTE	W06
	BYTE		N02   
	BYTE	W06
// 101   ----------------------------------------
	BYTE	PATT
	 POIN2	kuroihikari8850_10_002
// 102   ----------------------------------------
	BYTE	PATT
	 POIN2	kuroihikari8850_10_003
// 103   ----------------------------------------
	BYTE	PATT
	 POIN2	kuroihikari8850_10_003
// 104   ----------------------------------------
	BYTE	PATT
	 POIN2	kuroihikari8850_10_003
// 105   ----------------------------------------
	BYTE	PATT
	 POIN2	kuroihikari8850_10_006
// 106   ----------------------------------------
	BYTE	PATT
	 POIN2	kuroihikari8850_10_003
// 107   ----------------------------------------
	BYTE	PATT
	 POIN2	kuroihikari8850_10_003
// 108   ----------------------------------------
	BYTE	PATT
	 POIN2	kuroihikari8850_10_009
// 109   ----------------------------------------
	BYTE	PATT
	 POIN2	kuroihikari8850_10_014
// 110   ----------------------------------------
kuroihikari8850_10_110:
	BYTE		N02     Bn0   v120
	BYTE		N02     Fs1   v127
	BYTE	W12
	BYTE		N02   
	BYTE	W06
	BYTE		        Gs1 
	BYTE	W06
	BYTE		        En1   v116
	BYTE		N02     Fn2   v127
	BYTE	W12
	BYTE		        Bn0   v120
	BYTE		N02     Fs1   v127
	BYTE	W06
	BYTE		        Gs1 
	BYTE	W06
	BYTE		        Bn0   v120
	BYTE		N02     Fn2   v127
	BYTE	W06
	BYTE		        Gs1 
	BYTE	W06
	BYTE		        As1 
	BYTE	W06
	BYTE		        Gs1 
	BYTE	W06
	BYTE		        En1   v116
	BYTE		N02     Fn2   v127
	BYTE	W06
	BYTE		        Fs1 
	BYTE	W06
	BYTE		        As1 
	BYTE	W12
	BYTE	PEND
// 111   ----------------------------------------
	BYTE		        Bn0   v120
	BYTE		N02     Fs1   v127
	BYTE	W12
	BYTE		N02   
	BYTE	W06
	BYTE		        Gs1 
	BYTE	W06
	BYTE		        En1   v116
	BYTE		N02     Fn2   v127
	BYTE	W12
	BYTE		        Fs1 
	BYTE	W06
	BYTE		        Gs1 
	BYTE	W06
	BYTE		        Bn0   v120
	BYTE		N02     Fn2   v127
	BYTE	W06
	BYTE		        Gs1 
	BYTE	W06
	BYTE		        Bn0   v120
	BYTE		N02     As1   v127
	BYTE	W06
	BYTE		        Gs1 
	BYTE	W06
	BYTE		        En1   v116
	BYTE		N02     Fn2   v127
	BYTE	W06
	BYTE		        Fs1 
	BYTE	W06
	BYTE		        As1 
	BYTE	W12
// 112   ----------------------------------------
	BYTE		        Bn0   v120
	BYTE		N02     Fs1   v127
	BYTE	W12
	BYTE		N02   
	BYTE	W06
	BYTE		        Gs1 
	BYTE	W06
	BYTE		        En1   v116
	BYTE		N02     Fn2   v127
	BYTE	W12
	BYTE		        Bn0   v120
	BYTE		N02     Fs1   v127
	BYTE	W06
	BYTE		        Gs1 
	BYTE	W06
	BYTE		        Bn0   v120
	BYTE		N02     Fn2   v127
	BYTE	W06
	BYTE		        Gs1 
	BYTE	W06
	BYTE		        As1 
	BYTE	W06
	BYTE		        Gs1 
	BYTE	W06
	BYTE		        Bn0   v120
	BYTE		N02     En1   v116
	BYTE		N02     Fn2   v127
	BYTE	W06
	BYTE		        Fs1 
	BYTE	W06
	BYTE		        Bn0   v120
	BYTE		N02     En1   v116
	BYTE		N02     As1   v127
	BYTE	W12
// 113   ----------------------------------------
	BYTE	PATT
	 POIN2	kuroihikari8850_10_010
// 114   ----------------------------------------
	BYTE	PATT
	 POIN2	kuroihikari8850_10_110
// 115   ----------------------------------------
	BYTE		N02     Bn0   v120
	BYTE		N02     Fs1   v127
	BYTE		N02     Gn2 
	BYTE	W12
	BYTE		        Fs1 
	BYTE	W06
	BYTE		        Gs1 
	BYTE	W06
	BYTE		        En1   v116
	BYTE		N02     Fn2   v127
	BYTE	W12
	BYTE		        Fs1 
	BYTE	W06
	BYTE		        Gs1 
	BYTE	W06
	BYTE		        Bn0   v120
	BYTE		N02     Fn2   v127
	BYTE	W06
	BYTE		        Gs1 
	BYTE	W06
	BYTE		        Bn0   v120
	BYTE		N02     As1   v127
	BYTE	W06
	BYTE		        Gs1 
	BYTE	W06
	BYTE		        En1   v116
	BYTE		N02     Fn2   v127
	BYTE	W06
	BYTE		        Fs1 
	BYTE	W06
	BYTE		        As1 
	BYTE	W12
// 116   ----------------------------------------
	BYTE		        Bn0   v120
	BYTE		N02     Cn2   v112
	BYTE		N02     An2   v127
	BYTE	W06
	BYTE		        An1   v112
	BYTE	W06
	BYTE		        En1   v116
	BYTE	W06
	BYTE		N02   
	BYTE		N02     Fn1   v112
	BYTE	W18
	BYTE		        Bn0   v120
	BYTE		N02     En1   v116
	BYTE	W06
	BYTE		        Dn2   v112
	BYTE	W06
	BYTE		        Bn1 
	BYTE	W06
	BYTE		        En1   v116
	BYTE	W06
	BYTE		        Cn2   v112
	BYTE	W06
	BYTE		        An1 
	BYTE	W06
	BYTE		        Bn0   v120
	BYTE		N02     En1   v116
	BYTE	W06
	BYTE		        Fn1   v112
	BYTE	W06
	BYTE		        Bn0   v120
	BYTE		N02     En1   v116
	BYTE	W06
	BYTE		N02   
	BYTE	W06
// 117   ----------------------------------------
	BYTE	PATT
	 POIN2	kuroihikari8850_10_034
// 118   ----------------------------------------
	BYTE	PATT
	 POIN2	kuroihikari8850_10_035
// 119   ----------------------------------------
	BYTE	PATT
	 POIN2	kuroihikari8850_10_036
// 120   ----------------------------------------
	BYTE	PATT
	 POIN2	kuroihikari8850_10_037
// 121   ----------------------------------------
	BYTE	PATT
	 POIN2	kuroihikari8850_10_038
// 122   ----------------------------------------
	BYTE	PATT
	 POIN2	kuroihikari8850_10_035
// 123   ----------------------------------------
	BYTE	PATT
	 POIN2	kuroihikari8850_10_036
// 124   ----------------------------------------
	BYTE	PATT
	 POIN2	kuroihikari8850_10_041
// 125   ----------------------------------------
	BYTE	PATT
	 POIN2	kuroihikari8850_10_034
// 126   ----------------------------------------
	BYTE	PATT
	 POIN2	kuroihikari8850_10_035
// 127   ----------------------------------------
	BYTE	PATT
	 POIN2	kuroihikari8850_10_036
// 128   ----------------------------------------
	BYTE	PATT
	 POIN2	kuroihikari8850_10_037
// 129   ----------------------------------------
	BYTE	PATT
	 POIN2	kuroihikari8850_10_038
// 130   ----------------------------------------
	BYTE		N02     Bn0   v120
	BYTE	W06
	BYTE		        Gs1   v127
	BYTE	W06
	BYTE		        As1 
	BYTE	W12
	BYTE		        En1   v116
	BYTE		N02     Fs1   v127
	BYTE	W06
	BYTE		        Gs1 
	BYTE	W06
	BYTE		        Bn0   v120
	BYTE		N02     As1   v127
	BYTE	W12
	BYTE		        Bn0   v120
	BYTE		N02     Fs1   v127
	BYTE	W06
	BYTE		N02   
	BYTE	W06
	BYTE		        As1 
	BYTE	W06
	BYTE		        Gs1 
	BYTE	W06
	BYTE		        En1   v116
	BYTE		N02     Fs1   v127
	BYTE	W06
	BYTE		N02   
	BYTE	W06
	BYTE		        As1 
	BYTE	W12
// 131   ----------------------------------------
	BYTE		        Bn0   v120
	BYTE		N02     Fs1   v127
	BYTE		N02     Cs2 
	BYTE	W06
	BYTE		        Fs1 
	BYTE	W06
	BYTE		        As1 
	BYTE	W12
	BYTE		        En1   v116
	BYTE		N02     Fn2   v127
	BYTE	W06
	BYTE		        Gs1 
	BYTE	W06
	BYTE		        As1 
	BYTE	W12
	BYTE		        Bn0   v120
	BYTE		N02     Fn2   v127
	BYTE	W06
	BYTE		        Fs1 
	BYTE	W06
	BYTE		        Bn0   v120
	BYTE		N02     As1   v127
	BYTE	W06
	BYTE		        Gs1 
	BYTE	W06
	BYTE		        En1   v116
	BYTE		N02     Fn2   v127
	BYTE	W06
	BYTE		        Fs1 
	BYTE	W06
	BYTE		        As1 
	BYTE	W12
// 132   ----------------------------------------
	BYTE		        Bn0   v120
	BYTE		N02     Fn2   v127
	BYTE	W06
	BYTE		        Gs1 
	BYTE	W06
	BYTE		        As1 
	BYTE	W12
	BYTE		        En1   v116
	BYTE		N02     Fn2   v127
	BYTE	W06
	BYTE		        Gs1 
	BYTE	W06
	BYTE		        Bn0   v120
	BYTE		N02     As1   v127
	BYTE	W12
	BYTE		        Bn0   v120
	BYTE		N02     Fn2   v127
	BYTE	W06
	BYTE		        Fs1 
	BYTE	W06
	BYTE		        As1 
	BYTE	W06
	BYTE		        Gs1 
	BYTE	W06
	BYTE		        Bn0   v120
	BYTE		N02     En1   v116
	BYTE		N02     Fn2   v127
	BYTE	W06
	BYTE		        Fs1 
	BYTE	W06
	BYTE		        Bn0   v120
	BYTE		N02     En1   v116
	BYTE		N02     As1   v127
	BYTE	W06
	BYTE		        En1   v116
	BYTE	W06
// 133   ----------------------------------------
	BYTE		        Bn0   v120
	BYTE		N02     Fs1   v127
	BYTE		N02     An2 
	BYTE	W06
	BYTE		        Fs1 
	BYTE	W06
	BYTE		        As1 
	BYTE	W12
	BYTE		        En1   v116
	BYTE		N02     Fn2   v127
	BYTE	W06
	BYTE		        Gs1 
	BYTE	W06
	BYTE		        As1 
	BYTE	W12
	BYTE		        Bn0   v120
	BYTE		N02     Fn2   v127
	BYTE	W06
	BYTE		        Fs1 
	BYTE	W06
	BYTE		        Bn0   v120
	BYTE		N02     As1   v127
	BYTE	W06
	BYTE		        Gs1 
	BYTE	W06
	BYTE		        En1   v116
	BYTE		N02     Fn2   v127
	BYTE	W06
	BYTE		        Fs1 
	BYTE	W06
	BYTE		        As1 
	BYTE	W12
// 134   ----------------------------------------
	BYTE		        Bn0   v120
	BYTE		N02     Fn2   v127
	BYTE	W06
	BYTE		        Gs1 
	BYTE	W06
	BYTE		        As1 
	BYTE	W06
	BYTE		        Gs1 
	BYTE	W06
	BYTE		        En1   v116
	BYTE		N02     Fn2   v127
	BYTE	W06
	BYTE		        Gs1 
	BYTE	W06
	BYTE		        Bn0   v120
	BYTE		N02     As1   v127
	BYTE	W12
	BYTE		        Bn0   v120
	BYTE		N02     En1   v116
	BYTE	W06
	BYTE		N02   
	BYTE	W06
	BYTE		N02   
	BYTE	W06
	BYTE		N02   
	BYTE	W06
	BYTE		        Bn0   v120
	BYTE		N02     En1   v116
	BYTE	W06
	BYTE		N02   
	BYTE	W06
	BYTE		        Bn0   v120
	BYTE	W06
	BYTE		        En1   v116
	BYTE		TIE     Cs2   v127
	BYTE	W06
// 135   ----------------------------------------
	BYTE	W96
// 136   ----------------------------------------
	BYTE	W92
	BYTE	W03
	BYTE		EOT   
	BYTE	W01
// 137   ----------------------------------------
	BYTE	W96
// 138   ----------------------------------------
	BYTE	W96
// 139   ----------------------------------------
	BYTE	W96
// 140   ----------------------------------------
	BYTE	W96
// 141   ----------------------------------------
	BYTE	W96
// 142   ----------------------------------------
	BYTE	W96
// 143   ----------------------------------------
	BYTE	W96
// 144   ----------------------------------------
	BYTE	W96
// 145   ----------------------------------------
	BYTE	W96
// 146   ----------------------------------------
	BYTE	W96
// 147   ----------------------------------------
	BYTE	W96
// 148   ----------------------------------------
	BYTE	W96
// 149   ----------------------------------------
	BYTE	W96
// 150   ----------------------------------------
	BYTE	W96
// 151   ----------------------------------------
	BYTE	W96
// 152   ----------------------------------------
	BYTE	W96
// 153   ----------------------------------------
	BYTE	W96
// 154   ----------------------------------------
	BYTE	W96
// 155   ----------------------------------------
	BYTE	W96
// 156   ----------------------------------------
	BYTE	W96
// 157   ----------------------------------------
	BYTE	W96
// 158   ----------------------------------------
	BYTE	W96
// 159   ----------------------------------------
	BYTE	W96
// 160   ----------------------------------------
	BYTE	W96
// 161   ----------------------------------------
	BYTE	W96
// 162   ----------------------------------------
	BYTE	W96
// 163   ----------------------------------------
	BYTE	W96
// 164   ----------------------------------------
	BYTE	W96
// 165   ----------------------------------------
	BYTE	W96
// 166   ----------------------------------------
	BYTE	W96
// 167   ----------------------------------------
	BYTE	W96
// 168   ----------------------------------------
	BYTE	W96
// 169   ----------------------------------------
	BYTE	W96
// 170   ----------------------------------------
	BYTE	W96
// 171   ----------------------------------------
	BYTE	W96
// 172   ----------------------------------------
	BYTE	W96
// 173   ----------------------------------------
	BYTE	W96
// 174   ----------------------------------------
	BYTE	W96
// 175   ----------------------------------------
	BYTE	W96
// 176   ----------------------------------------
	BYTE	W96
// 177   ----------------------------------------
	BYTE	W96
// 178   ----------------------------------------
	BYTE	W96
// 179   ----------------------------------------
	BYTE	W96
// 180   ----------------------------------------
	BYTE	W96
// 181   ----------------------------------------
	BYTE	W96
// 182   ----------------------------------------
	BYTE	W96
// 183   ----------------------------------------
	BYTE	W96
// 184   ----------------------------------------
	BYTE	W96
// 185   ----------------------------------------
	BYTE	W96
// 186   ----------------------------------------
	BYTE	W96
// 187   ----------------------------------------
	BYTE	W96
// 188   ----------------------------------------
	BYTE	W96
// 189   ----------------------------------------
	BYTE	W96
// 190   ----------------------------------------
	BYTE	W96
// 191   ----------------------------------------
	BYTE	W96
// 192   ----------------------------------------
	BYTE	W96
// 193   ----------------------------------------
	BYTE	W96
// 194   ----------------------------------------
	BYTE	W96
// 195   ----------------------------------------
	BYTE	W96
// 196   ----------------------------------------
	BYTE	W96
// 197   ----------------------------------------
	BYTE	W96
// 198   ----------------------------------------
	BYTE	W96
// 199   ----------------------------------------
	BYTE	FINE

//**************** Track 11 (Midi-Chn.11) ****************//

kuroihikari8850_11:
	BYTE	KEYSH   kuroihikari8850_key+0
// 000   ----------------------------------------
	BYTE	W48
	BYTE		VOICE   81
	BYTE		VOL     70*kuroihikari8850_mvl/mxv
	BYTE		PAN     c_v+0
	BYTE	W12
	BYTE		VOICE   0
	BYTE		VOL     70*kuroihikari8850_mvl/mxv
	BYTE	W12
	BYTE		VOICE   81
	BYTE	W24
// 001   ----------------------------------------
kuroihikari8850_11_001:
	BYTE	W36
	BYTE		N23     En2   v127
	BYTE	W24
	BYTE		N11     Gn2 
	BYTE	W12
	BYTE		        An2 
	BYTE	W12
	BYTE		        Cn3 
	BYTE	W12
	BYTE	PEND
// 002   ----------------------------------------
kuroihikari8850_11_002:
	BYTE		N11     Dn3   v127
	BYTE	W12
	BYTE		        An2 
	BYTE	W12
	BYTE		        Cn3 
	BYTE	W12
	BYTE		N23     Dn3 
	BYTE	W24
	BYTE		N11     An2 
	BYTE	W12
	BYTE		        Cn3 
	BYTE	W12
	BYTE		N23     Dn3 
	BYTE	W12
	BYTE	PEND
// 003   ----------------------------------------
kuroihikari8850_11_003:
	BYTE	W12
	BYTE		N11     An2   v127
	BYTE	W12
	BYTE		        Cn3 
	BYTE	W12
	BYTE		        Dn3 
	BYTE	W12
	BYTE		        En3 
	BYTE	W12
	BYTE		        Fn3 
	BYTE	W12
	BYTE		        En3 
	BYTE	W12
	BYTE		N05     Cn3 
	BYTE	W06
	BYTE		TIE     Dn3 
	BYTE	W06
	BYTE	PEND
// 004   ----------------------------------------
	BYTE	W96
// 005   ----------------------------------------
	BYTE	W23
	BYTE		EOT   
	BYTE	W01
	BYTE		N05     Cs3 
	BYTE	W06
	BYTE		N17     Dn3 
	BYTE	W18
	BYTE		N23     An2 
	BYTE	W24
	BYTE		        Fn3 
	BYTE	W24
// 006   ----------------------------------------
kuroihikari8850_11_006:
	BYTE		N44     En3   v127
	BYTE	W48
	BYTE		N05     Dn3 
	BYTE	W06
	BYTE		N17     En3 
	BYTE	W18
	BYTE		N11     Dn3 
	BYTE	W12
	BYTE		N32     An2 
	BYTE	W12
	BYTE	PEND
// 007   ----------------------------------------
kuroihikari8850_11_007:
	BYTE	W24
	BYTE		N23     Gn2   v127
	BYTE	W24
	BYTE		        Fn2 
	BYTE	W24
	BYTE		        Gn2 
	BYTE	W24
	BYTE	PEND
// 008   ----------------------------------------
	BYTE		TIE     An2 
	BYTE	W96
// 009   ----------------------------------------
	BYTE	W44
	BYTE	W03
	BYTE		EOT   
	BYTE	W01
	BYTE		N23   
	BYTE	W24
	BYTE		        As2 
	BYTE	W24
// 010   ----------------------------------------
kuroihikari8850_11_010:
	BYTE		N44     An2   v127
	BYTE	W48
	BYTE		        Gn2 
	BYTE	W48
	BYTE	PEND
// 011   ----------------------------------------
kuroihikari8850_11_011:
	BYTE		N44     Cn3   v127
	BYTE	W48
	BYTE		N23     As2 
	BYTE	W24
	BYTE		N11     Cn3 
	BYTE	W12
	BYTE		N44     An2 
	BYTE	W12
	BYTE	PEND
// 012   ----------------------------------------
kuroihikari8850_11_012:
	BYTE	W36
	BYTE		N05     Cs3   v127
	BYTE	W06
	BYTE		N40     Dn3 
	BYTE	W42
	BYTE		N05     Ds3 
	BYTE	W06
	BYTE		N40     En3 
	BYTE	W06
	BYTE	PEND
// 013   ----------------------------------------
kuroihikari8850_11_013:
	BYTE	W36
	BYTE		N05     Fs3   v127
	BYTE	W06
	BYTE		N17     Gn3 
	BYTE	W18
	BYTE		N11     Fn3 
	BYTE	W12
	BYTE		        En3 
	BYTE	W12
	BYTE		        Fn3 
	BYTE	W12
	BYTE	PEND
// 014   ----------------------------------------
	BYTE		N92     En3 
	BYTE	W96
// 015   ----------------------------------------
kuroihikari8850_11_015:
	BYTE		N44     Gn3   v127
	BYTE	W48
	BYTE		        Fn3 
	BYTE	W48
	BYTE	PEND
// 016   ----------------------------------------
	BYTE		N92     En3 
	BYTE	W96
// 017   ----------------------------------------
	BYTE	PATT
	 POIN2	kuroihikari8850_11_001
// 018   ----------------------------------------
	BYTE	PATT
	 POIN2	kuroihikari8850_11_002
// 019   ----------------------------------------
	BYTE	PATT
	 POIN2	kuroihikari8850_11_003
// 020   ----------------------------------------
	BYTE	W96
// 021   ----------------------------------------
	BYTE	W23
	BYTE		EOT     Dn3 
	BYTE	W01
	BYTE		N05     Cs3   v127
	BYTE	W06
	BYTE		N17     Dn3 
	BYTE	W18
	BYTE		N23     An2 
	BYTE	W24
	BYTE		        Fn3 
	BYTE	W24
// 022   ----------------------------------------
	BYTE	PATT
	 POIN2	kuroihikari8850_11_006
// 023   ----------------------------------------
	BYTE	PATT
	 POIN2	kuroihikari8850_11_007
// 024   ----------------------------------------
	BYTE		TIE     An2   v127
	BYTE	W96
// 025   ----------------------------------------
	BYTE	W44
	BYTE	W03
	BYTE		EOT   
	BYTE	W01
	BYTE		N23   
	BYTE	W24
	BYTE		        As2 
	BYTE	W24
// 026   ----------------------------------------
	BYTE	PATT
	 POIN2	kuroihikari8850_11_010
// 027   ----------------------------------------
	BYTE	PATT
	 POIN2	kuroihikari8850_11_011
// 028   ----------------------------------------
	BYTE	PATT
	 POIN2	kuroihikari8850_11_012
// 029   ----------------------------------------
	BYTE	PATT
	 POIN2	kuroihikari8850_11_013
// 030   ----------------------------------------
	BYTE		N92     En3   v127
	BYTE	W96
// 031   ----------------------------------------
	BYTE	PATT
	 POIN2	kuroihikari8850_11_015
// 032   ----------------------------------------
	BYTE		N92     En3   v127
	BYTE	W96
// 033   ----------------------------------------
	BYTE	W96
// 034   ----------------------------------------
	BYTE	W96
// 035   ----------------------------------------
	BYTE	W96
// 036   ----------------------------------------
	BYTE	W96
// 037   ----------------------------------------
	BYTE	W96
// 038   ----------------------------------------
	BYTE	W96
// 039   ----------------------------------------
	BYTE	W96
// 040   ----------------------------------------
	BYTE	W96
// 041   ----------------------------------------
	BYTE	W96
// 042   ----------------------------------------
	BYTE	W96
// 043   ----------------------------------------
	BYTE	W96
// 044   ----------------------------------------
	BYTE	W96
// 045   ----------------------------------------
	BYTE	W96
// 046   ----------------------------------------
	BYTE	W96
// 047   ----------------------------------------
	BYTE	W96
// 048   ----------------------------------------
	BYTE	W96
// 049   ----------------------------------------
	BYTE	PATT
	 POIN2	kuroihikari8850_11_001
// 050   ----------------------------------------
	BYTE	PATT
	 POIN2	kuroihikari8850_11_002
// 051   ----------------------------------------
	BYTE	PATT
	 POIN2	kuroihikari8850_11_003
// 052   ----------------------------------------
	BYTE	W96
// 053   ----------------------------------------
	BYTE	W23
	BYTE		EOT     Dn3 
	BYTE	W01
	BYTE		N05     Cs3   v127
	BYTE	W06
	BYTE		N17     Dn3 
	BYTE	W18
	BYTE		N23     An2 
	BYTE	W24
	BYTE		        Fn3 
	BYTE	W24
// 054   ----------------------------------------
	BYTE	PATT
	 POIN2	kuroihikari8850_11_006
// 055   ----------------------------------------
	BYTE	PATT
	 POIN2	kuroihikari8850_11_007
// 056   ----------------------------------------
	BYTE		TIE     An2   v127
	BYTE	W96
// 057   ----------------------------------------
	BYTE	W44
	BYTE	W03
	BYTE		EOT   
	BYTE	W01
	BYTE		N23   
	BYTE	W24
	BYTE		        As2 
	BYTE	W24
// 058   ----------------------------------------
	BYTE	PATT
	 POIN2	kuroihikari8850_11_010
// 059   ----------------------------------------
	BYTE	PATT
	 POIN2	kuroihikari8850_11_011
// 060   ----------------------------------------
	BYTE	PATT
	 POIN2	kuroihikari8850_11_012
// 061   ----------------------------------------
	BYTE	PATT
	 POIN2	kuroihikari8850_11_013
// 062   ----------------------------------------
	BYTE		N92     En3   v127
	BYTE	W96
// 063   ----------------------------------------
	BYTE	PATT
	 POIN2	kuroihikari8850_11_015
// 064   ----------------------------------------
	BYTE		N92     En3   v127
	BYTE	W96
// 065   ----------------------------------------
	BYTE	W96
// 066   ----------------------------------------
	BYTE	W96
// 067   ----------------------------------------
	BYTE	W96
// 068   ----------------------------------------
	BYTE	W96
// 069   ----------------------------------------
	BYTE	W96
// 070   ----------------------------------------
	BYTE	W96
// 071   ----------------------------------------
	BYTE	W96
// 072   ----------------------------------------
	BYTE	W96
// 073   ----------------------------------------
	BYTE	W96
// 074   ----------------------------------------
	BYTE	W96
// 075   ----------------------------------------
	BYTE	W96
// 076   ----------------------------------------
	BYTE	W96
// 077   ----------------------------------------
	BYTE	W96
// 078   ----------------------------------------
	BYTE	W96
// 079   ----------------------------------------
	BYTE	W96
// 080   ----------------------------------------
	BYTE	W96
// 081   ----------------------------------------
	BYTE	W96
// 082   ----------------------------------------
	BYTE	W96
// 083   ----------------------------------------
	BYTE	W96
// 084   ----------------------------------------
	BYTE	W96
// 085   ----------------------------------------
	BYTE	W96
// 086   ----------------------------------------
	BYTE	W96
// 087   ----------------------------------------
	BYTE	W96
// 088   ----------------------------------------
	BYTE	W96
// 089   ----------------------------------------
	BYTE	W96
// 090   ----------------------------------------
	BYTE	W96
// 091   ----------------------------------------
	BYTE	W96
// 092   ----------------------------------------
	BYTE	W96
// 093   ----------------------------------------
	BYTE	W96
// 094   ----------------------------------------
	BYTE	W96
// 095   ----------------------------------------
	BYTE	W96
// 096   ----------------------------------------
	BYTE	W96
// 097   ----------------------------------------
	BYTE	W96
// 098   ----------------------------------------
	BYTE	W96
// 099   ----------------------------------------
	BYTE	W96
// 100   ----------------------------------------
	BYTE	PATT
	 POIN2	kuroihikari8850_11_001
// 101   ----------------------------------------
	BYTE	PATT
	 POIN2	kuroihikari8850_11_002
// 102   ----------------------------------------
	BYTE	PATT
	 POIN2	kuroihikari8850_11_003
// 103   ----------------------------------------
	BYTE	W96
// 104   ----------------------------------------
	BYTE	W23
	BYTE		EOT     Dn3 
	BYTE	W01
	BYTE		N05     Cs3   v127
	BYTE	W06
	BYTE		N17     Dn3 
	BYTE	W18
	BYTE		N23     An2 
	BYTE	W24
	BYTE		        Fn3 
	BYTE	W24
// 105   ----------------------------------------
	BYTE	PATT
	 POIN2	kuroihikari8850_11_006
// 106   ----------------------------------------
	BYTE	PATT
	 POIN2	kuroihikari8850_11_007
// 107   ----------------------------------------
	BYTE		TIE     An2   v127
	BYTE	W96
// 108   ----------------------------------------
	BYTE	W44
	BYTE	W03
	BYTE		EOT   
	BYTE	W01
	BYTE		N23   
	BYTE	W24
	BYTE		        As2 
	BYTE	W24
// 109   ----------------------------------------
	BYTE	PATT
	 POIN2	kuroihikari8850_11_010
// 110   ----------------------------------------
	BYTE	PATT
	 POIN2	kuroihikari8850_11_011
// 111   ----------------------------------------
	BYTE	PATT
	 POIN2	kuroihikari8850_11_012
// 112   ----------------------------------------
	BYTE	PATT
	 POIN2	kuroihikari8850_11_013
// 113   ----------------------------------------
	BYTE		N92     En3   v127
	BYTE	W96
// 114   ----------------------------------------
	BYTE	PATT
	 POIN2	kuroihikari8850_11_015
// 115   ----------------------------------------
	BYTE		N92     En3   v127
	BYTE	W96
// 116   ----------------------------------------
	BYTE	W96
// 117   ----------------------------------------
	BYTE	W96
// 118   ----------------------------------------
	BYTE	W96
// 119   ----------------------------------------
	BYTE	W96
// 120   ----------------------------------------
	BYTE	W96
// 121   ----------------------------------------
	BYTE	W96
// 122   ----------------------------------------
	BYTE	W96
// 123   ----------------------------------------
	BYTE	W96
// 124   ----------------------------------------
	BYTE	W96
// 125   ----------------------------------------
	BYTE	W96
// 126   ----------------------------------------
	BYTE	W96
// 127   ----------------------------------------
	BYTE	W96
// 128   ----------------------------------------
	BYTE	W96
// 129   ----------------------------------------
	BYTE	W96
// 130   ----------------------------------------
	BYTE	W96
// 131   ----------------------------------------
	BYTE	W96
// 132   ----------------------------------------
	BYTE	W96
// 133   ----------------------------------------
	BYTE	W96
// 134   ----------------------------------------
	BYTE	W96
// 135   ----------------------------------------
	BYTE	W96
// 136   ----------------------------------------
	BYTE	W96
// 137   ----------------------------------------
	BYTE	W96
// 138   ----------------------------------------
	BYTE	W96
// 139   ----------------------------------------
	BYTE	W96
// 140   ----------------------------------------
	BYTE	W96
// 141   ----------------------------------------
	BYTE	W96
// 142   ----------------------------------------
	BYTE	W96
// 143   ----------------------------------------
	BYTE	W96
// 144   ----------------------------------------
	BYTE	W96
// 145   ----------------------------------------
	BYTE	W96
// 146   ----------------------------------------
	BYTE	W96
// 147   ----------------------------------------
	BYTE	W96
// 148   ----------------------------------------
	BYTE	W96
// 149   ----------------------------------------
	BYTE	W96
// 150   ----------------------------------------
	BYTE	W96
// 151   ----------------------------------------
	BYTE	W96
// 152   ----------------------------------------
	BYTE	W96
// 153   ----------------------------------------
	BYTE	W96
// 154   ----------------------------------------
	BYTE	W96
// 155   ----------------------------------------
	BYTE	W96
// 156   ----------------------------------------
	BYTE	W96
// 157   ----------------------------------------
	BYTE	W96
// 158   ----------------------------------------
	BYTE	W96
// 159   ----------------------------------------
	BYTE	W96
// 160   ----------------------------------------
	BYTE	W96
// 161   ----------------------------------------
	BYTE	W96
// 162   ----------------------------------------
	BYTE	W96
// 163   ----------------------------------------
	BYTE	W96
// 164   ----------------------------------------
	BYTE	W96
// 165   ----------------------------------------
	BYTE	W96
// 166   ----------------------------------------
	BYTE	W96
// 167   ----------------------------------------
	BYTE	W96
// 168   ----------------------------------------
	BYTE	W96
// 169   ----------------------------------------
	BYTE	W96
// 170   ----------------------------------------
	BYTE	W96
// 171   ----------------------------------------
	BYTE	W96
// 172   ----------------------------------------
	BYTE	W96
// 173   ----------------------------------------
	BYTE	W96
// 174   ----------------------------------------
	BYTE	W96
// 175   ----------------------------------------
	BYTE	W96
// 176   ----------------------------------------
	BYTE	W96
// 177   ----------------------------------------
	BYTE	W96
// 178   ----------------------------------------
	BYTE	W96
// 179   ----------------------------------------
	BYTE	W96
// 180   ----------------------------------------
	BYTE	W96
// 181   ----------------------------------------
	BYTE	W96
// 182   ----------------------------------------
	BYTE	W96
// 183   ----------------------------------------
	BYTE	W96
// 184   ----------------------------------------
	BYTE	W96
// 185   ----------------------------------------
	BYTE	W96
// 186   ----------------------------------------
	BYTE	W96
// 187   ----------------------------------------
	BYTE	W96
// 188   ----------------------------------------
	BYTE	W96
// 189   ----------------------------------------
	BYTE	W96
// 190   ----------------------------------------
	BYTE	W96
// 191   ----------------------------------------
	BYTE	W96
// 192   ----------------------------------------
	BYTE	W96
// 193   ----------------------------------------
	BYTE	W96
// 194   ----------------------------------------
	BYTE	W96
// 195   ----------------------------------------
	BYTE	W96
// 196   ----------------------------------------
	BYTE	W96
// 197   ----------------------------------------
	BYTE	W96
// 198   ----------------------------------------
	BYTE	W96
// 199   ----------------------------------------
	BYTE	FINE

//**************** Track 12 (Midi-Chn.12) ****************//

kuroihikari8850_12:
	BYTE	KEYSH   kuroihikari8850_key+0
// 000   ----------------------------------------
	BYTE	W48
	BYTE		VOICE   44
	BYTE		VOL     93*kuroihikari8850_mvl/mxv
	BYTE		PAN     c_v+0
	BYTE	W12
	BYTE		VOICE   44
	BYTE		VOL     93*kuroihikari8850_mvl/mxv
	BYTE	W12
	BYTE	W24
// 001   ----------------------------------------
kuroihikari8850_12_001:
	BYTE	W36
	BYTE		N23     En3   v127
	BYTE	W24
	BYTE		N11     Gn3 
	BYTE	W12
	BYTE		        An3 
	BYTE	W12
	BYTE		        Cn4 
	BYTE	W12
	BYTE	PEND
// 002   ----------------------------------------
kuroihikari8850_12_002:
	BYTE		N11     Dn4   v127
	BYTE	W12
	BYTE		        An3 
	BYTE	W12
	BYTE		        Cn4 
	BYTE	W12
	BYTE		N23     Dn4 
	BYTE	W24
	BYTE		N11     An3 
	BYTE	W12
	BYTE		        Cn4 
	BYTE	W12
	BYTE		N23     Dn4 
	BYTE	W12
	BYTE	PEND
// 003   ----------------------------------------
kuroihikari8850_12_003:
	BYTE	W12
	BYTE		N11     An3   v127
	BYTE	W12
	BYTE		        Cn4 
	BYTE	W12
	BYTE		        Dn4 
	BYTE	W12
	BYTE		        En4 
	BYTE	W12
	BYTE		        Fn4 
	BYTE	W12
	BYTE		        En4 
	BYTE	W12
	BYTE		N05     Cn4 
	BYTE	W06
	BYTE		TIE     Dn4 
	BYTE	W06
	BYTE	PEND
// 004   ----------------------------------------
	BYTE	W96
// 005   ----------------------------------------
	BYTE	W23
	BYTE		EOT   
	BYTE	W01
	BYTE		N05     Cs4 
	BYTE	W06
	BYTE		N17     Dn4 
	BYTE	W18
	BYTE		N23     An3 
	BYTE	W24
	BYTE		        Fn4 
	BYTE	W24
// 006   ----------------------------------------
kuroihikari8850_12_006:
	BYTE		N44     En4   v127
	BYTE	W48
	BYTE		N05     Dn4 
	BYTE	W06
	BYTE		N17     En4 
	BYTE	W18
	BYTE		N11     Dn4 
	BYTE	W12
	BYTE		N32     An3 
	BYTE	W12
	BYTE	PEND
// 007   ----------------------------------------
kuroihikari8850_12_007:
	BYTE	W24
	BYTE		N23     Gn3   v127
	BYTE	W24
	BYTE		        Fn3 
	BYTE	W24
	BYTE		        Gn3 
	BYTE	W24
	BYTE	PEND
// 008   ----------------------------------------
	BYTE		TIE     An3 
	BYTE	W96
// 009   ----------------------------------------
	BYTE	W44
	BYTE	W03
	BYTE		EOT   
	BYTE	W01
	BYTE		N23   
	BYTE	W24
	BYTE		        As3 
	BYTE	W24
// 010   ----------------------------------------
kuroihikari8850_12_010:
	BYTE		N44     An3   v127
	BYTE	W48
	BYTE		        Gn3 
	BYTE	W48
	BYTE	PEND
// 011   ----------------------------------------
kuroihikari8850_12_011:
	BYTE		N44     Cn4   v127
	BYTE	W48
	BYTE		N23     As3 
	BYTE	W24
	BYTE		N11     Cn4 
	BYTE	W12
	BYTE		N44     An3 
	BYTE	W12
	BYTE	PEND
// 012   ----------------------------------------
kuroihikari8850_12_012:
	BYTE	W36
	BYTE		N05     Cs4   v127
	BYTE	W06
	BYTE		N40     Dn4 
	BYTE	W42
	BYTE		N05     Ds4 
	BYTE	W06
	BYTE		N40     En4 
	BYTE	W06
	BYTE	PEND
// 013   ----------------------------------------
kuroihikari8850_12_013:
	BYTE	W36
	BYTE		N05     Fs4   v127
	BYTE	W06
	BYTE		N17     Gn4 
	BYTE	W18
	BYTE		N11     Fn4 
	BYTE	W12
	BYTE		        En4 
	BYTE	W12
	BYTE		        Fn4 
	BYTE	W12
	BYTE	PEND
// 014   ----------------------------------------
	BYTE		N92     En4 
	BYTE	W96
// 015   ----------------------------------------
kuroihikari8850_12_015:
	BYTE		N44     Gn4   v127
	BYTE	W48
	BYTE		        Fn4 
	BYTE	W48
	BYTE	PEND
// 016   ----------------------------------------
	BYTE		N92     En4 
	BYTE	W96
// 017   ----------------------------------------
	BYTE	PATT
	 POIN2	kuroihikari8850_12_001
// 018   ----------------------------------------
	BYTE	PATT
	 POIN2	kuroihikari8850_12_002
// 019   ----------------------------------------
	BYTE	PATT
	 POIN2	kuroihikari8850_12_003
// 020   ----------------------------------------
	BYTE	W96
// 021   ----------------------------------------
	BYTE	W23
	BYTE		EOT     Dn4 
	BYTE	W01
	BYTE		N05     Cs4   v127
	BYTE	W06
	BYTE		N17     Dn4 
	BYTE	W18
	BYTE		N23     An3 
	BYTE	W24
	BYTE		        Fn4 
	BYTE	W24
// 022   ----------------------------------------
	BYTE	PATT
	 POIN2	kuroihikari8850_12_006
// 023   ----------------------------------------
	BYTE	PATT
	 POIN2	kuroihikari8850_12_007
// 024   ----------------------------------------
	BYTE		TIE     An3   v127
	BYTE	W96
// 025   ----------------------------------------
	BYTE	W44
	BYTE	W03
	BYTE		EOT   
	BYTE	W01
	BYTE		N23   
	BYTE	W24
	BYTE		        As3 
	BYTE	W24
// 026   ----------------------------------------
	BYTE	PATT
	 POIN2	kuroihikari8850_12_010
// 027   ----------------------------------------
	BYTE	PATT
	 POIN2	kuroihikari8850_12_011
// 028   ----------------------------------------
	BYTE	PATT
	 POIN2	kuroihikari8850_12_012
// 029   ----------------------------------------
	BYTE	PATT
	 POIN2	kuroihikari8850_12_013
// 030   ----------------------------------------
	BYTE		N92     En4   v127
	BYTE	W96
// 031   ----------------------------------------
	BYTE	PATT
	 POIN2	kuroihikari8850_12_015
// 032   ----------------------------------------
	BYTE		N92     En4   v127
	BYTE	W96
// 033   ----------------------------------------
kuroihikari8850_12_033:
	BYTE	W36
	BYTE		N32     En4   v127
	BYTE	W36
	BYTE		N11     Fn4 
	BYTE	W12
	BYTE		        Gn4 
	BYTE	W12
	BYTE	PEND
// 034   ----------------------------------------
kuroihikari8850_12_034:
	BYTE		N23     An4   v127
	BYTE	W24
	BYTE		N11     Dn4 
	BYTE	W12
	BYTE		N23     As4 
	BYTE	W24
	BYTE		N11     An4 
	BYTE	W12
	BYTE		        Gn4 
	BYTE	W12
	BYTE		        Fn4 
	BYTE	W12
	BYTE	PEND
// 035   ----------------------------------------
kuroihikari8850_12_035:
	BYTE		N23     En4   v127
	BYTE	W24
	BYTE		N11     Fn4 
	BYTE	W12
	BYTE		N32     Dn4 
	BYTE	W36
	BYTE		N11     En4 
	BYTE	W12
	BYTE		        Fn4 
	BYTE	W12
	BYTE	PEND
// 036   ----------------------------------------
kuroihikari8850_12_036:
	BYTE		N23     Gn4   v127
	BYTE	W24
	BYTE		N11     Cn4 
	BYTE	W12
	BYTE		N23     Cn5 
	BYTE	W24
	BYTE		N11     As4 
	BYTE	W12
	BYTE		        An4 
	BYTE	W12
	BYTE		        Gn4 
	BYTE	W12
	BYTE	PEND
// 037   ----------------------------------------
kuroihikari8850_12_037:
	BYTE		N23     Fn4   v127
	BYTE	W24
	BYTE		N11     Gn4 
	BYTE	W12
	BYTE		N23     An4 
	BYTE	W24
	BYTE		        Cs4 
	BYTE	W24
	BYTE		N32     Dn4 
	BYTE	W12
	BYTE	PEND
// 038   ----------------------------------------
kuroihikari8850_12_038:
	BYTE	W24
	BYTE		N23     En4   v127
	BYTE	W24
	BYTE		        Fn4 
	BYTE	W24
	BYTE		        An4 
	BYTE	W24
	BYTE	PEND
// 039   ----------------------------------------
kuroihikari8850_12_039:
	BYTE		N23     Gn4   v127
	BYTE	W24
	BYTE		        Fn4 
	BYTE	W24
	BYTE		N11     Cn4 
	BYTE	W12
	BYTE		N23     Cn5 
	BYTE	W24
	BYTE		TIE     An4 
	BYTE	W12
	BYTE	PEND
// 040   ----------------------------------------
	BYTE	W96
// 041   ----------------------------------------
	BYTE	W32
	BYTE	W03
	BYTE		EOT   
	BYTE	W01
	BYTE		N23     En4 
	BYTE	W24
	BYTE		N11   
	BYTE	W12
	BYTE		        Fn4 
	BYTE	W12
	BYTE		        Gn4 
	BYTE	W12
// 042   ----------------------------------------
	BYTE	PATT
	 POIN2	kuroihikari8850_12_034
// 043   ----------------------------------------
	BYTE	PATT
	 POIN2	kuroihikari8850_12_035
// 044   ----------------------------------------
	BYTE	PATT
	 POIN2	kuroihikari8850_12_036
// 045   ----------------------------------------
	BYTE	PATT
	 POIN2	kuroihikari8850_12_037
// 046   ----------------------------------------
	BYTE	W24
	BYTE		N23     En4   v127
	BYTE	W24
	BYTE		N11     Fn4 
	BYTE	W12
	BYTE		N21     An4 
	BYTE	W24
	BYTE		N32     Gn4 
	BYTE	W12
// 047   ----------------------------------------
	BYTE	W24
	BYTE		N23     Fn4 
	BYTE	W24
	BYTE		N11     En4 
	BYTE	W12
	BYTE		N23     Cn4 
	BYTE	W24
	BYTE		TIE     Dn4 
	BYTE	W12
// 048   ----------------------------------------
	BYTE	W96
// 049   ----------------------------------------
	BYTE	W23
	BYTE		EOT   
	BYTE	W13
	BYTE		N23     En3 
	BYTE	W24
	BYTE		N11     Gn3 
	BYTE	W12
	BYTE		        An3 
	BYTE	W12
	BYTE		        Cn4 
	BYTE	W12
// 050   ----------------------------------------
	BYTE	PATT
	 POIN2	kuroihikari8850_12_002
// 051   ----------------------------------------
	BYTE	PATT
	 POIN2	kuroihikari8850_12_003
// 052   ----------------------------------------
	BYTE	W96
// 053   ----------------------------------------
	BYTE	W23
	BYTE		EOT     Dn4 
	BYTE	W01
	BYTE		N05     Cs4   v127
	BYTE	W06
	BYTE		N17     Dn4 
	BYTE	W18
	BYTE		N23     An3 
	BYTE	W24
	BYTE		        Fn4 
	BYTE	W24
// 054   ----------------------------------------
	BYTE	PATT
	 POIN2	kuroihikari8850_12_006
// 055   ----------------------------------------
	BYTE	PATT
	 POIN2	kuroihikari8850_12_007
// 056   ----------------------------------------
	BYTE		TIE     An3   v127
	BYTE	W96
// 057   ----------------------------------------
	BYTE	W44
	BYTE	W03
	BYTE		EOT   
	BYTE	W01
	BYTE		N23   
	BYTE	W24
	BYTE		        As3 
	BYTE	W24
// 058   ----------------------------------------
	BYTE	PATT
	 POIN2	kuroihikari8850_12_010
// 059   ----------------------------------------
	BYTE	PATT
	 POIN2	kuroihikari8850_12_011
// 060   ----------------------------------------
	BYTE	PATT
	 POIN2	kuroihikari8850_12_012
// 061   ----------------------------------------
	BYTE	PATT
	 POIN2	kuroihikari8850_12_013
// 062   ----------------------------------------
	BYTE		N92     En4   v127
	BYTE	W96
// 063   ----------------------------------------
	BYTE	PATT
	 POIN2	kuroihikari8850_12_015
// 064   ----------------------------------------
	BYTE		N92     En4   v127
	BYTE	W96
// 065   ----------------------------------------
	BYTE	PATT
	 POIN2	kuroihikari8850_12_033
// 066   ----------------------------------------
	BYTE	PATT
	 POIN2	kuroihikari8850_12_034
// 067   ----------------------------------------
	BYTE	PATT
	 POIN2	kuroihikari8850_12_035
// 068   ----------------------------------------
	BYTE	PATT
	 POIN2	kuroihikari8850_12_036
// 069   ----------------------------------------
	BYTE	PATT
	 POIN2	kuroihikari8850_12_037
// 070   ----------------------------------------
	BYTE	PATT
	 POIN2	kuroihikari8850_12_038
// 071   ----------------------------------------
	BYTE	PATT
	 POIN2	kuroihikari8850_12_039
// 072   ----------------------------------------
	BYTE	W96
// 073   ----------------------------------------
	BYTE	W32
	BYTE	W03
	BYTE		EOT     An4 
	BYTE	W01
	BYTE		N23     En4   v127
	BYTE	W24
	BYTE		N11   
	BYTE	W12
	BYTE		        Fn4 
	BYTE	W12
	BYTE		        Gn4 
	BYTE	W12
// 074   ----------------------------------------
	BYTE	PATT
	 POIN2	kuroihikari8850_12_034
// 075   ----------------------------------------
	BYTE	PATT
	 POIN2	kuroihikari8850_12_035
// 076   ----------------------------------------
kuroihikari8850_12_076:
	BYTE		N23     Gn4   v127
	BYTE	W24
	BYTE		N11     Cn4 
	BYTE	W12
	BYTE		N23     Cn5 
	BYTE	W24
	BYTE		N11     An4 
	BYTE	W12
	BYTE		        Cn5 
	BYTE	W12
	BYTE		        En5 
	BYTE	W12
	BYTE	PEND
// 077   ----------------------------------------
kuroihikari8850_12_077:
	BYTE		N23     En5   v127
	BYTE	W24
	BYTE		N11     Fn5 
	BYTE	W12
	BYTE		N23     Dn5 
	BYTE	W24
	BYTE		        En5 
	BYTE	W24
	BYTE		N32     Fn5 
	BYTE	W12
	BYTE	PEND
// 078   ----------------------------------------
kuroihikari8850_12_078:
	BYTE	W24
	BYTE		N23     Dn5   v127
	BYTE	W24
	BYTE		N11     En5 
	BYTE	W12
	BYTE		        Fn5 
	BYTE	W12
	BYTE		        An5 
	BYTE	W12
	BYTE		N23     Gn5 
	BYTE	W12
	BYTE	PEND
// 079   ----------------------------------------
	BYTE	W12
	BYTE		N11     En5 
	BYTE	W12
	BYTE		        Fn5 
	BYTE	W12
	BYTE		N23     Gn5 
	BYTE	W24
	BYTE		N11     Fn5 
	BYTE	W12
	BYTE		        En5 
	BYTE	W12
	BYTE		TIE     Fn5 
	BYTE	W12
// 080   ----------------------------------------
	BYTE	W96
// 081   ----------------------------------------
	BYTE	W68
	BYTE	W03
	BYTE		EOT   
	BYTE	W24
	BYTE	W01
// 082   ----------------------------------------
	BYTE	W96
// 083   ----------------------------------------
	BYTE	W96
// 084   ----------------------------------------
	BYTE	W96
// 085   ----------------------------------------
	BYTE	W96
// 086   ----------------------------------------
	BYTE	W96
// 087   ----------------------------------------
	BYTE	W96
// 088   ----------------------------------------
	BYTE	W96
// 089   ----------------------------------------
	BYTE	W96
// 090   ----------------------------------------
	BYTE	W96
// 091   ----------------------------------------
	BYTE	W96
// 092   ----------------------------------------
	BYTE	W96
// 093   ----------------------------------------
	BYTE	W96
// 094   ----------------------------------------
	BYTE	W96
// 095   ----------------------------------------
	BYTE	W96
// 096   ----------------------------------------
	BYTE	W96
// 097   ----------------------------------------
	BYTE	W96
// 098   ----------------------------------------
	BYTE	W96
// 099   ----------------------------------------
	BYTE	W96
// 100   ----------------------------------------
	BYTE	PATT
	 POIN2	kuroihikari8850_12_001
// 101   ----------------------------------------
	BYTE	PATT
	 POIN2	kuroihikari8850_12_002
// 102   ----------------------------------------
	BYTE	PATT
	 POIN2	kuroihikari8850_12_003
// 103   ----------------------------------------
	BYTE	W96
// 104   ----------------------------------------
	BYTE	W23
	BYTE		EOT     Dn4 
	BYTE	W01
	BYTE		N05     Cs4   v127
	BYTE	W06
	BYTE		N17     Dn4 
	BYTE	W18
	BYTE		N23     An3 
	BYTE	W24
	BYTE		        Fn4 
	BYTE	W24
// 105   ----------------------------------------
	BYTE	PATT
	 POIN2	kuroihikari8850_12_006
// 106   ----------------------------------------
	BYTE	PATT
	 POIN2	kuroihikari8850_12_007
// 107   ----------------------------------------
	BYTE		TIE     An3   v127
	BYTE	W96
// 108   ----------------------------------------
	BYTE	W44
	BYTE	W03
	BYTE		EOT   
	BYTE	W01
	BYTE		N23   
	BYTE	W24
	BYTE		        As3 
	BYTE	W24
// 109   ----------------------------------------
	BYTE	PATT
	 POIN2	kuroihikari8850_12_010
// 110   ----------------------------------------
	BYTE	PATT
	 POIN2	kuroihikari8850_12_011
// 111   ----------------------------------------
	BYTE	PATT
	 POIN2	kuroihikari8850_12_012
// 112   ----------------------------------------
	BYTE	PATT
	 POIN2	kuroihikari8850_12_013
// 113   ----------------------------------------
	BYTE		N92     En4   v127
	BYTE	W96
// 114   ----------------------------------------
	BYTE	PATT
	 POIN2	kuroihikari8850_12_015
// 115   ----------------------------------------
	BYTE		N92     En4   v127
	BYTE	W96
// 116   ----------------------------------------
	BYTE	PATT
	 POIN2	kuroihikari8850_12_033
// 117   ----------------------------------------
	BYTE	PATT
	 POIN2	kuroihikari8850_12_034
// 118   ----------------------------------------
	BYTE	PATT
	 POIN2	kuroihikari8850_12_035
// 119   ----------------------------------------
	BYTE	PATT
	 POIN2	kuroihikari8850_12_036
// 120   ----------------------------------------
	BYTE	PATT
	 POIN2	kuroihikari8850_12_037
// 121   ----------------------------------------
	BYTE	PATT
	 POIN2	kuroihikari8850_12_038
// 122   ----------------------------------------
	BYTE	PATT
	 POIN2	kuroihikari8850_12_039
// 123   ----------------------------------------
	BYTE	W96
// 124   ----------------------------------------
	BYTE	W32
	BYTE	W03
	BYTE		EOT     An4 
	BYTE	W01
	BYTE		N23     En4   v127
	BYTE	W24
	BYTE		N11   
	BYTE	W12
	BYTE		        Fn4 
	BYTE	W12
	BYTE		        Gn4 
	BYTE	W12
// 125   ----------------------------------------
	BYTE	PATT
	 POIN2	kuroihikari8850_12_034
// 126   ----------------------------------------
	BYTE	PATT
	 POIN2	kuroihikari8850_12_035
// 127   ----------------------------------------
	BYTE	PATT
	 POIN2	kuroihikari8850_12_076
// 128   ----------------------------------------
	BYTE	PATT
	 POIN2	kuroihikari8850_12_077
// 129   ----------------------------------------
	BYTE	PATT
	 POIN2	kuroihikari8850_12_078
// 130   ----------------------------------------
	BYTE	W12
	BYTE		N11     En5   v127
	BYTE	W12
	BYTE		        Fn5 
	BYTE	W12
	BYTE		N23     Gn5 
	BYTE	W24
	BYTE		N11     Fn5 
	BYTE	W12
	BYTE		        En5 
	BYTE	W12
	BYTE		        Fn5 
	BYTE	W12
// 131   ----------------------------------------
	BYTE		TIE     Dn5 
	BYTE	W96
// 132   ----------------------------------------
	BYTE	W68
	BYTE	W03
	BYTE		EOT   
	BYTE	W24
	BYTE	W01
// 133   ----------------------------------------
	BYTE	W96
// 134   ----------------------------------------
	BYTE	W96
// 135   ----------------------------------------
	BYTE	W96
// 136   ----------------------------------------
	BYTE	W96
// 137   ----------------------------------------
	BYTE	W96
// 138   ----------------------------------------
	BYTE	W96
// 139   ----------------------------------------
	BYTE	W96
// 140   ----------------------------------------
	BYTE	W96
// 141   ----------------------------------------
	BYTE	W96
// 142   ----------------------------------------
	BYTE	W96
// 143   ----------------------------------------
	BYTE	W96
// 144   ----------------------------------------
	BYTE	W96
// 145   ----------------------------------------
	BYTE	W96
// 146   ----------------------------------------
	BYTE	W96
// 147   ----------------------------------------
	BYTE	W96
// 148   ----------------------------------------
	BYTE	W96
// 149   ----------------------------------------
	BYTE	W96
// 150   ----------------------------------------
	BYTE	W96
// 151   ----------------------------------------
	BYTE	W96
// 152   ----------------------------------------
	BYTE	W96
// 153   ----------------------------------------
	BYTE	W96
// 154   ----------------------------------------
	BYTE	W96
// 155   ----------------------------------------
	BYTE	W96
// 156   ----------------------------------------
	BYTE	W96
// 157   ----------------------------------------
	BYTE	W96
// 158   ----------------------------------------
	BYTE	W96
// 159   ----------------------------------------
	BYTE	W96
// 160   ----------------------------------------
	BYTE	W96
// 161   ----------------------------------------
	BYTE	W96
// 162   ----------------------------------------
	BYTE	W96
// 163   ----------------------------------------
	BYTE	W96
// 164   ----------------------------------------
	BYTE	W96
// 165   ----------------------------------------
	BYTE	W96
// 166   ----------------------------------------
	BYTE	W96
// 167   ----------------------------------------
	BYTE	W96
// 168   ----------------------------------------
	BYTE	W96
// 169   ----------------------------------------
	BYTE	W96
// 170   ----------------------------------------
	BYTE	W96
// 171   ----------------------------------------
	BYTE	W96
// 172   ----------------------------------------
	BYTE	W96
// 173   ----------------------------------------
	BYTE	W96
// 174   ----------------------------------------
	BYTE	W96
// 175   ----------------------------------------
	BYTE	W96
// 176   ----------------------------------------
	BYTE	W96
// 177   ----------------------------------------
	BYTE	W96
// 178   ----------------------------------------
	BYTE	W96
// 179   ----------------------------------------
	BYTE	W96
// 180   ----------------------------------------
	BYTE	W96
// 181   ----------------------------------------
	BYTE	W96
// 182   ----------------------------------------
	BYTE	W96
// 183   ----------------------------------------
	BYTE	W96
// 184   ----------------------------------------
	BYTE	W96
// 185   ----------------------------------------
	BYTE	W96
// 186   ----------------------------------------
	BYTE	W96
// 187   ----------------------------------------
	BYTE	W96
// 188   ----------------------------------------
	BYTE	W96
// 189   ----------------------------------------
	BYTE	W96
// 190   ----------------------------------------
	BYTE	W96
// 191   ----------------------------------------
	BYTE	W96
// 192   ----------------------------------------
	BYTE	W96
// 193   ----------------------------------------
	BYTE	W96
// 194   ----------------------------------------
	BYTE	W96
// 195   ----------------------------------------
	BYTE	W96
// 196   ----------------------------------------
	BYTE	W96
// 197   ----------------------------------------
	BYTE	W96
// 198   ----------------------------------------
	BYTE	W96
// 199   ----------------------------------------
	BYTE	FINE

//**************** Track 13 (Midi-Chn.13) ****************//

kuroihikari8850_13:
	BYTE	KEYSH   kuroihikari8850_key+0
// 000   ----------------------------------------
	BYTE	W48
	BYTE		VOICE   24
	BYTE		VOL     85*kuroihikari8850_mvl/mxv
	BYTE		PAN     c_v+0
	BYTE	W12
	BYTE		VOICE   24
	BYTE		VOL     85*kuroihikari8850_mvl/mxv
	BYTE	W12
	BYTE	W24
// 001   ----------------------------------------
	BYTE	W96
// 002   ----------------------------------------
	BYTE	W96
// 003   ----------------------------------------
	BYTE	W96
// 004   ----------------------------------------
	BYTE	W96
// 005   ----------------------------------------
	BYTE	W96
// 006   ----------------------------------------
	BYTE	W96
// 007   ----------------------------------------
	BYTE	W96
// 008   ----------------------------------------
	BYTE	W96
// 009   ----------------------------------------
	BYTE	W96
// 010   ----------------------------------------
	BYTE	W96
// 011   ----------------------------------------
	BYTE	W96
// 012   ----------------------------------------
	BYTE	W96
// 013   ----------------------------------------
	BYTE	W96
// 014   ----------------------------------------
	BYTE	W96
// 015   ----------------------------------------
	BYTE	W96
// 016   ----------------------------------------
	BYTE	W96
// 017   ----------------------------------------
	BYTE	W96
// 018   ----------------------------------------
	BYTE	W96
// 019   ----------------------------------------
	BYTE	W96
// 020   ----------------------------------------
	BYTE	W96
// 021   ----------------------------------------
	BYTE	W96
// 022   ----------------------------------------
	BYTE	W96
// 023   ----------------------------------------
	BYTE	W96
// 024   ----------------------------------------
	BYTE	W96
// 025   ----------------------------------------
	BYTE	W96
// 026   ----------------------------------------
	BYTE	W96
// 027   ----------------------------------------
	BYTE	W96
// 028   ----------------------------------------
	BYTE	W96
// 029   ----------------------------------------
	BYTE	W96
// 030   ----------------------------------------
	BYTE	W96
// 031   ----------------------------------------
	BYTE	W96
// 032   ----------------------------------------
	BYTE	W96
// 033   ----------------------------------------
	BYTE	W96
// 034   ----------------------------------------
	BYTE	W96
// 035   ----------------------------------------
	BYTE	W96
// 036   ----------------------------------------
	BYTE	W96
// 037   ----------------------------------------
	BYTE	W96
// 038   ----------------------------------------
	BYTE	W96
// 039   ----------------------------------------
	BYTE	W96
// 040   ----------------------------------------
	BYTE	W96
// 041   ----------------------------------------
	BYTE	W96
// 042   ----------------------------------------
	BYTE	W96
// 043   ----------------------------------------
	BYTE	W96
// 044   ----------------------------------------
	BYTE	W96
// 045   ----------------------------------------
	BYTE	W96
// 046   ----------------------------------------
	BYTE	W96
// 047   ----------------------------------------
	BYTE	W96
// 048   ----------------------------------------
	BYTE	W96
// 049   ----------------------------------------
	BYTE	W96
// 050   ----------------------------------------
	BYTE	W96
// 051   ----------------------------------------
	BYTE	W96
// 052   ----------------------------------------
	BYTE	W96
// 053   ----------------------------------------
	BYTE	W96
// 054   ----------------------------------------
	BYTE	W96
// 055   ----------------------------------------
	BYTE	W96
// 056   ----------------------------------------
	BYTE	W96
// 057   ----------------------------------------
	BYTE	W96
// 058   ----------------------------------------
	BYTE	W96
// 059   ----------------------------------------
	BYTE	W96
// 060   ----------------------------------------
	BYTE	W96
// 061   ----------------------------------------
	BYTE	W96
// 062   ----------------------------------------
	BYTE	W96
// 063   ----------------------------------------
	BYTE	W96
// 064   ----------------------------------------
	BYTE	W96
// 065   ----------------------------------------
	BYTE	W96
// 066   ----------------------------------------
	BYTE	W96
// 067   ----------------------------------------
	BYTE	W96
// 068   ----------------------------------------
	BYTE	W96
// 069   ----------------------------------------
	BYTE	W96
// 070   ----------------------------------------
	BYTE	W96
// 071   ----------------------------------------
	BYTE	W96
// 072   ----------------------------------------
	BYTE	W96
// 073   ----------------------------------------
	BYTE	W96
// 074   ----------------------------------------
	BYTE	W96
// 075   ----------------------------------------
	BYTE	W96
// 076   ----------------------------------------
	BYTE	W96
// 077   ----------------------------------------
	BYTE	W96
// 078   ----------------------------------------
	BYTE	W96
// 079   ----------------------------------------
	BYTE	W96
// 080   ----------------------------------------
	BYTE	W96
// 081   ----------------------------------------
	BYTE	W96
// 082   ----------------------------------------
	BYTE	W96
// 083   ----------------------------------------
	BYTE	W96
// 084   ----------------------------------------
	BYTE		N11     Dn2   v108
	BYTE		N11     Fn2 
	BYTE	W12
	BYTE		N05     Dn3 
	BYTE		N05     Fn3 
	BYTE		N05     An3 
	BYTE	W06
	BYTE		N40     Dn3 
	BYTE		N40     Fn3 
	BYTE		N40     An3 
	BYTE	W42
	BYTE		N11     Dn3   v127
	BYTE		N11     Fn3 
	BYTE	W12
	BYTE		N05     An3 
	BYTE	W06
	BYTE		        Gn3 
	BYTE	W06
	BYTE		N23     An3 
	BYTE	W12
// 085   ----------------------------------------
	BYTE	W12
	BYTE		N05     Dn3 
	BYTE	W06
	BYTE		        En3 
	BYTE	W06
	BYTE		        Fn3 
	BYTE	W06
	BYTE		        En3 
	BYTE	W06
	BYTE		N32     Fn3 
	BYTE	W18
	BYTE		N17     Dn3 
	BYTE	W18
	BYTE		N23     An2 
	BYTE		N23     Cn3 
	BYTE	W24
// 086   ----------------------------------------
	BYTE		N11     Cn2   v104
	BYTE		N11     Fn2 
	BYTE	W12
	BYTE		N05     Dn3 
	BYTE		N05     Fn3 
	BYTE		N05     An3 
	BYTE	W06
	BYTE		N40     Dn3   v108
	BYTE		N40     Fn3 
	BYTE		N40     An3 
	BYTE	W42
	BYTE		N11     Dn3 
	BYTE		N11     Fn3 
	BYTE	W12
	BYTE		N05     An3   v127
	BYTE	W06
	BYTE		        Gn3 
	BYTE	W06
	BYTE		N40     An3 
	BYTE	W12
// 087   ----------------------------------------
	BYTE	W12
	BYTE		N17     Dn3 
	BYTE	W18
	BYTE		N32     Cn4 
	BYTE	W18
	BYTE		N17     An3 
	BYTE	W18
	BYTE		N28     Gn3 
	BYTE	W18
	BYTE		N11     En3 
	BYTE	W12
// 088   ----------------------------------------
	BYTE		        As2   v092
	BYTE		N11     Dn3 
	BYTE	W12
	BYTE		N02     As2 
	BYTE		N02     Dn3 
	BYTE		N02     Fn3 
	BYTE	W06
	BYTE		N11     As2 
	BYTE		N11     Dn3 
	BYTE		N11     Fn3 
	BYTE	W18
	BYTE		        As2 
	BYTE		N11     Dn3 
	BYTE		N11     Fn3 
	BYTE	W12
	BYTE		N01     As2 
	BYTE		N01     Dn3 
	BYTE		N01     Fn3 
	BYTE	W06
	BYTE		N11     As2 
	BYTE		N11     Dn3 
	BYTE		N11     Fn3 
	BYTE	W12
	BYTE		N01     As2   v096
	BYTE		N01     Dn3 
	BYTE		N01     Fn3 
	BYTE	W06
	BYTE		N23     As2 
	BYTE		N23     Dn3 
	BYTE		N23     Fn3 
	BYTE	W24
// 089   ----------------------------------------
	BYTE		N02     Cn3   v127
	BYTE		N02     En3 
	BYTE		N02     Gn3 
	BYTE	W12
	BYTE		N05     Cn3 
	BYTE		N05     En3 
	BYTE		N05     Gn3 
	BYTE	W06
	BYTE		        Cn3 
	BYTE		N05     En3 
	BYTE		N05     Gn3 
	BYTE	W24
	BYTE		        An2 
	BYTE		N05     Cs3 
	BYTE		N05     En3 
	BYTE	W06
	BYTE		        An2 
	BYTE		N05     Cs3 
	BYTE		N05     En3 
	BYTE	W12
	BYTE		N01     An2 
	BYTE		N01     Cs3 
	BYTE		N01     En3 
	BYTE	W12
	BYTE		N05     An2 
	BYTE		N05     Cs3 
	BYTE		N05     En3 
	BYTE	W06
	BYTE		N17     An2 
	BYTE		N17     Cs3 
	BYTE	W18
// 090   ----------------------------------------
	BYTE		N11     As2 
	BYTE		N11     Dn3 
	BYTE		N11     Fn3 
	BYTE	W12
	BYTE		N05     As2 
	BYTE	W06
	BYTE		N11   
	BYTE		N11     Dn3 
	BYTE		N11     Fn3 
	BYTE	W12
	BYTE		N05     As2 
	BYTE	W06
	BYTE		N11   
	BYTE		N11     Dn3 
	BYTE		N11     Fn3 
	BYTE	W12
	BYTE		N11   
	BYTE		N11     An3 
	BYTE	W12
	BYTE		N05     Dn3 
	BYTE	W06
	BYTE		N11     Fn3 
	BYTE		N11     An3 
	BYTE	W12
	BYTE		        Fn3 
	BYTE	W12
	BYTE		N05     Dn3 
	BYTE	W06
// 091   ----------------------------------------
	BYTE		        Cn3 
	BYTE	W06
	BYTE		        Dn3 
	BYTE	W06
	BYTE		N11     En3 
	BYTE	W12
	BYTE		N05   
	BYTE	W06
	BYTE		        Fn3 
	BYTE	W06
	BYTE		N11     Gn3 
	BYTE	W12
	BYTE		N05   
	BYTE	W06
	BYTE		        An3 
	BYTE	W06
	BYTE		N11     As3 
	BYTE	W12
	BYTE		N05     En3 
	BYTE	W06
	BYTE		N17     Gn3 
	BYTE		N17     Cn4 
	BYTE	W18
// 092   ----------------------------------------
	BYTE		N11     Dn2 
	BYTE		N11     Fn2 
	BYTE	W12
	BYTE		N05     Dn3 
	BYTE		N05     Fn3 
	BYTE		N05     An3 
	BYTE	W06
	BYTE		N40     Dn3 
	BYTE		N40     Fn3 
	BYTE		N40     An3 
	BYTE	W42
	BYTE		N11     Dn3 
	BYTE		N11     Fn3 
	BYTE	W12
	BYTE		N05     An3 
	BYTE	W06
	BYTE		        Gn3 
	BYTE	W06
	BYTE		N23     An3 
	BYTE	W12
// 093   ----------------------------------------
	BYTE	W12
	BYTE		N05     Dn3 
	BYTE	W06
	BYTE		        En3 
	BYTE	W06
	BYTE		        Fn3 
	BYTE	W06
	BYTE		        En3 
	BYTE	W06
	BYTE		N32     Fn3 
	BYTE	W18
	BYTE		N17     Dn3 
	BYTE	W18
	BYTE		N23     Cn3 
	BYTE		N23     En3 
	BYTE	W24
// 094   ----------------------------------------
	BYTE		N11     Cn2 
	BYTE		N11     Fn2 
	BYTE	W12
	BYTE		N05     Dn3 
	BYTE		N05     Fn3 
	BYTE		N05     An3 
	BYTE	W06
	BYTE		N40     Dn3 
	BYTE		N40     Fn3 
	BYTE		N40     An3 
	BYTE	W42
	BYTE		N11     Dn3 
	BYTE		N11     Fn3 
	BYTE	W12
	BYTE		N05     An3 
	BYTE	W06
	BYTE		        Gn3 
	BYTE	W06
	BYTE		N40     An3 
	BYTE	W12
// 095   ----------------------------------------
	BYTE	W12
	BYTE		N17     Dn3 
	BYTE	W18
	BYTE		N32     Cn4 
	BYTE	W18
	BYTE		N17     Fn4 
	BYTE	W18
	BYTE		N28     Dn4 
	BYTE	W18
	BYTE		N11     Cn4 
	BYTE	W12
// 096   ----------------------------------------
	BYTE		N05     Dn4 
	BYTE	W06
	BYTE		        Cn4 
	BYTE	W06
	BYTE		        As3 
	BYTE	W06
	BYTE		N11     Dn4 
	BYTE	W12
	BYTE		N05   
	BYTE	W06
	BYTE		        Cn4 
	BYTE	W06
	BYTE		        As3 
	BYTE	W06
	BYTE		N11     Dn4 
	BYTE	W12
	BYTE		N05     Fn4 
	BYTE	W06
	BYTE		        En4 
	BYTE	W06
	BYTE		        Dn4 
	BYTE	W06
	BYTE		N17     Fn4 
	BYTE	W18
// 097   ----------------------------------------
	BYTE		N05     En4 
	BYTE	W06
	BYTE		        Fn4 
	BYTE	W06
	BYTE		        Gn4 
	BYTE	W06
	BYTE		N17     Cn4 
	BYTE	W30
	BYTE		N05     En3 
	BYTE		N05     An3 
	BYTE		N05     Cn4 
	BYTE	W06
	BYTE		N40     An3 
	BYTE		N40     Cn4 
	BYTE		N40     En4 
	BYTE	W42
// 098   ----------------------------------------
	BYTE		N17     An3 
	BYTE		N17     Cn4 
	BYTE	W18
	BYTE		        Gn3 
	BYTE		N17     As3 
	BYTE	W18
	BYTE		N11     Fn3 
	BYTE		N11     An3 
	BYTE	W12
	BYTE		N17     Gn3 
	BYTE		N17     As3 
	BYTE	W18
	BYTE		        Fn3 
	BYTE		N17     An3 
	BYTE		N17     Cn4 
	BYTE	W18
	BYTE		N11     Cs3 
	BYTE		N11     En3 
	BYTE		N11     Gn3 
	BYTE	W12
// 099   ----------------------------------------
	BYTE		N05     Cs3   v116
	BYTE		N05     En3 
	BYTE		N05     An3 
	BYTE	W06
	BYTE		N11     Cs3   v112
	BYTE		N11     En3 
	BYTE		N11     An3 
	BYTE	W12
	BYTE		N05   
	BYTE		N05     Cs4 
	BYTE		N05     En4 
	BYTE	W06
	BYTE		N11     An3   v108
	BYTE		N11     Cs4 
	BYTE		N11     En4 
	BYTE	W12
	BYTE		N05     Cs4   v104
	BYTE		N05     En4 
	BYTE		N05     Gn4 
	BYTE	W06
	BYTE		N11     Cs4   v096
	BYTE		N11     En4 
	BYTE		N11     Gn4 
	BYTE	W12
	BYTE		N05     Cs4   v092
	BYTE		N05     En4 
	BYTE		N05     An4 
	BYTE	W06
	BYTE		        Cs4   v088
	BYTE		N05     En4 
	BYTE		N05     An4 
	BYTE	W06
	BYTE		        Cs4   v084
	BYTE		N05     En4 
	BYTE		N05     An4 
	BYTE	W06
	BYTE		N92     Cs4   v080
	BYTE		N92     En4 
	BYTE		N92     An4 
	BYTE	W24
// 100   ----------------------------------------
	BYTE	W96
// 101   ----------------------------------------
	BYTE	W96
// 102   ----------------------------------------
	BYTE	W96
// 103   ----------------------------------------
	BYTE	W96
// 104   ----------------------------------------
	BYTE	W96
// 105   ----------------------------------------
	BYTE	W96
// 106   ----------------------------------------
	BYTE	W96
// 107   ----------------------------------------
	BYTE	W96
// 108   ----------------------------------------
	BYTE	W96
// 109   ----------------------------------------
	BYTE	W96
// 110   ----------------------------------------
	BYTE	W96
// 111   ----------------------------------------
	BYTE	W96
// 112   ----------------------------------------
	BYTE	W96
// 113   ----------------------------------------
	BYTE	W96
// 114   ----------------------------------------
	BYTE	W96
// 115   ----------------------------------------
	BYTE	W96
// 116   ----------------------------------------
	BYTE	W96
// 117   ----------------------------------------
	BYTE	W96
// 118   ----------------------------------------
	BYTE	W96
// 119   ----------------------------------------
	BYTE	W96
// 120   ----------------------------------------
	BYTE	W96
// 121   ----------------------------------------
	BYTE	W96
// 122   ----------------------------------------
	BYTE	W96
// 123   ----------------------------------------
	BYTE	W96
// 124   ----------------------------------------
	BYTE	W96
// 125   ----------------------------------------
	BYTE	W96
// 126   ----------------------------------------
	BYTE	W96
// 127   ----------------------------------------
	BYTE	W96
// 128   ----------------------------------------
	BYTE	W96
// 129   ----------------------------------------
	BYTE	W96
// 130   ----------------------------------------
	BYTE	W96
// 131   ----------------------------------------
	BYTE	W96
// 132   ----------------------------------------
	BYTE	W96
// 133   ----------------------------------------
	BYTE	W96
// 134   ----------------------------------------
	BYTE	W96
// 135   ----------------------------------------
	BYTE	W96
// 136   ----------------------------------------
	BYTE	W96
// 137   ----------------------------------------
	BYTE	W96
// 138   ----------------------------------------
	BYTE	W96
// 139   ----------------------------------------
	BYTE	W96
// 140   ----------------------------------------
	BYTE	W96
// 141   ----------------------------------------
	BYTE	W96
// 142   ----------------------------------------
	BYTE	W96
// 143   ----------------------------------------
	BYTE	W96
// 144   ----------------------------------------
	BYTE	W96
// 145   ----------------------------------------
	BYTE	W96
// 146   ----------------------------------------
	BYTE	W96
// 147   ----------------------------------------
	BYTE	W96
// 148   ----------------------------------------
	BYTE	W96
// 149   ----------------------------------------
	BYTE	W96
// 150   ----------------------------------------
	BYTE	W96
// 151   ----------------------------------------
	BYTE	W96
// 152   ----------------------------------------
	BYTE	W96
// 153   ----------------------------------------
	BYTE	W96
// 154   ----------------------------------------
	BYTE	W96
// 155   ----------------------------------------
	BYTE	W96
// 156   ----------------------------------------
	BYTE	W96
// 157   ----------------------------------------
	BYTE	W96
// 158   ----------------------------------------
	BYTE	W96
// 159   ----------------------------------------
	BYTE	W96
// 160   ----------------------------------------
	BYTE	W96
// 161   ----------------------------------------
	BYTE	W96
// 162   ----------------------------------------
	BYTE	W96
// 163   ----------------------------------------
	BYTE	W96
// 164   ----------------------------------------
	BYTE	W96
// 165   ----------------------------------------
	BYTE	W96
// 166   ----------------------------------------
	BYTE	W96
// 167   ----------------------------------------
	BYTE	W96
// 168   ----------------------------------------
	BYTE	W96
// 169   ----------------------------------------
	BYTE	W96
// 170   ----------------------------------------
	BYTE	W96
// 171   ----------------------------------------
	BYTE	W96
// 172   ----------------------------------------
	BYTE	W96
// 173   ----------------------------------------
	BYTE	W96
// 174   ----------------------------------------
	BYTE	W96
// 175   ----------------------------------------
	BYTE	W96
// 176   ----------------------------------------
	BYTE	W96
// 177   ----------------------------------------
	BYTE	W96
// 178   ----------------------------------------
	BYTE	W96
// 179   ----------------------------------------
	BYTE	W96
// 180   ----------------------------------------
	BYTE	W96
// 181   ----------------------------------------
	BYTE	W96
// 182   ----------------------------------------
	BYTE	W96
// 183   ----------------------------------------
	BYTE	W96
// 184   ----------------------------------------
	BYTE	W96
// 185   ----------------------------------------
	BYTE	W96
// 186   ----------------------------------------
	BYTE	W96
// 187   ----------------------------------------
	BYTE	W96
// 188   ----------------------------------------
	BYTE	W96
// 189   ----------------------------------------
	BYTE	W96
// 190   ----------------------------------------
	BYTE	W96
// 191   ----------------------------------------
	BYTE	W96
// 192   ----------------------------------------
	BYTE	W96
// 193   ----------------------------------------
	BYTE	W96
// 194   ----------------------------------------
	BYTE	W96
// 195   ----------------------------------------
	BYTE	W96
// 196   ----------------------------------------
	BYTE	W96
// 197   ----------------------------------------
	BYTE	W96
// 198   ----------------------------------------
	BYTE	W96
// 199   ----------------------------------------
	BYTE	FINE

//******************************************************//
	ALIGN 4

kuroihikari8850:
	BYTE	13	// NumTrks
	BYTE	0	// NumBlks
	BYTE	kuroihikari8850_pri	// Priority
	BYTE	kuroihikari8850_rev	// Reverb.

	POIN2	kuroihikari8850_grp

	POIN2	kuroihikari8850_1
	POIN2	kuroihikari8850_2
	POIN2	kuroihikari8850_3
	POIN2	kuroihikari8850_4
	POIN2	kuroihikari8850_5
	POIN2	kuroihikari8850_6
	POIN2	kuroihikari8850_7
	POIN2	kuroihikari8850_8
	POIN2	kuroihikari8850_9
	POIN2	kuroihikari8850_10
	POIN2	kuroihikari8850_11
	POIN2	kuroihikari8850_12
	POIN2	kuroihikari8850_13

	
