//Event file generated from Sappy .s format.
	#include "MPlayDef.event"

	#define	overdosing8850_grp  voicegroup000
	#define	overdosing8850_pri  0
	#define	overdosing8850_rev  0
	#define	overdosing8850_mvl  63
	#define	overdosing8850_key  0
	#define	overdosing8850_tbs  1
	#define	overdosing8850_exg  0
	#define	overdosing8850_cmp  1

	// .rodata
	//	overdosing8850
	ALIGN 4

//**************** Track 1 (Midi-Chn.1) ****************//

overdosing8850_1:
	BYTE	KEYSH   overdosing8850_key+0
// 000   ----------------------------------------
	BYTE	TEMPO   166*overdosing8850_tbs/2
	BYTE	W48
	BYTE		VOICE   29
	BYTE		VOL     80*overdosing8850_mvl/mxv
	BYTE		PAN     c_v+0
	BYTE	W48
// 001   ----------------------------------------
	BYTE		MOD     0
	BYTE		BEND    c_v+0
	BYTE	W72
	BYTE	W06
	BYTE	W06
	BYTE	W06
	BYTE	W06
// 002   ----------------------------------------
	BYTE	W96
// 003   ----------------------------------------
	BYTE	W96
// 004   ----------------------------------------
	BYTE	W96
// 005   ----------------------------------------
	BYTE	W96
// 006   ----------------------------------------
	BYTE	W96
// 007   ----------------------------------------
	BYTE	W96
// 008   ----------------------------------------
	BYTE	W96
// 009   ----------------------------------------
	BYTE	W96
// 010   ----------------------------------------
	BYTE	W96
// 011   ----------------------------------------
overdosing8850_1_011:
	BYTE		BEND    c_v+0
	BYTE		N92     Gs4   v020
	BYTE	W03
	BYTE		BEND    c_v+10
	BYTE	W01
	BYTE		        c_v+15
	BYTE	W01
	BYTE		        c_v+21
	BYTE	W01
	BYTE		        c_v+31
	BYTE	W01
	BYTE		        c_v+36
	BYTE	W01
	BYTE		        c_v+42
	BYTE	W01
	BYTE		        c_v+52
	BYTE	W01
	BYTE		        c_v+57
	BYTE	W01
	BYTE		        c_v+63
	BYTE	W03
	BYTE		MOD     1
	BYTE	W01
	BYTE		        17
	BYTE	W01
	BYTE		        25
	BYTE	W01
	BYTE		        33
	BYTE	W01
	BYTE		        49
	BYTE	W01
	BYTE		        57
	BYTE	W01
	BYTE		        64
	BYTE	W01
	BYTE		        80
	BYTE	W01
	BYTE		        88
	BYTE	W01
	BYTE		        96
	BYTE	W01
	BYTE		        112
	BYTE	W01
	BYTE		        120
	BYTE	W01
	BYTE		        127
	BYTE	W54
	BYTE		        102
	BYTE	W01
	BYTE		        51
	BYTE	W01
	BYTE		        25
	BYTE	W01
	BYTE		        0
	BYTE	W01
	BYTE		BEND    c_v+58
	BYTE	W01
	BYTE		        c_v+53
	BYTE	W01
	BYTE		        c_v+48
	BYTE	W01
	BYTE		        c_v+37
	BYTE	W01
	BYTE		        c_v+32
	BYTE	W01
	BYTE		        c_v+27
	BYTE	W01
	BYTE		        c_v+16
	BYTE	W01
	BYTE		        c_v+11
	BYTE	W01
	BYTE		        c_v+0
	BYTE	W04
	BYTE	PEND
// 012   ----------------------------------------
	BYTE	W96
// 013   ----------------------------------------
	BYTE	W96
// 014   ----------------------------------------
	BYTE	W96
// 015   ----------------------------------------
	BYTE	W96
// 016   ----------------------------------------
	BYTE	W96
// 017   ----------------------------------------
	BYTE	W96
// 018   ----------------------------------------
	BYTE	W96
// 019   ----------------------------------------
	BYTE	W96
// 020   ----------------------------------------
	BYTE	W96
// 021   ----------------------------------------
	BYTE	W96
// 022   ----------------------------------------
	BYTE	W96
// 023   ----------------------------------------
	BYTE	W96
// 024   ----------------------------------------
	BYTE	W96
// 025   ----------------------------------------
	BYTE	W96
// 026   ----------------------------------------
	BYTE	W96
// 027   ----------------------------------------
	BYTE	W96
// 028   ----------------------------------------
	BYTE	W96
// 029   ----------------------------------------
	BYTE	W96
// 030   ----------------------------------------
	BYTE	W96
// 031   ----------------------------------------
	BYTE	W96
// 032   ----------------------------------------
	BYTE	W96
// 033   ----------------------------------------
	BYTE	W96
// 034   ----------------------------------------
	BYTE	W96
// 035   ----------------------------------------
	BYTE	W96
// 036   ----------------------------------------
	BYTE	W96
// 037   ----------------------------------------
	BYTE	W96
// 038   ----------------------------------------
	BYTE	W96
// 039   ----------------------------------------
	BYTE	W96
// 040   ----------------------------------------
	BYTE	W96
// 041   ----------------------------------------
	BYTE	W96
// 042   ----------------------------------------
	BYTE	W96
// 043   ----------------------------------------
	BYTE	W96
// 044   ----------------------------------------
	BYTE	W96
// 045   ----------------------------------------
	BYTE	W96
// 046   ----------------------------------------
	BYTE	W96
// 047   ----------------------------------------
	BYTE	W96
// 048   ----------------------------------------
	BYTE	W96
// 049   ----------------------------------------
	BYTE	W96
// 050   ----------------------------------------
	BYTE	W96
// 051   ----------------------------------------
	BYTE	W96
// 052   ----------------------------------------
	BYTE	W96
// 053   ----------------------------------------
	BYTE	W96
// 054   ----------------------------------------
	BYTE	W96
// 055   ----------------------------------------
	BYTE	W96
// 056   ----------------------------------------
	BYTE	W96
// 057   ----------------------------------------
	BYTE	W96
// 058   ----------------------------------------
	BYTE	W96
// 059   ----------------------------------------
	BYTE	W96
// 060   ----------------------------------------
	BYTE	W96
// 061   ----------------------------------------
	BYTE	W96
// 062   ----------------------------------------
	BYTE	W96
// 063   ----------------------------------------
	BYTE	W96
// 064   ----------------------------------------
	BYTE	W96
// 065   ----------------------------------------
	BYTE	W96
// 066   ----------------------------------------
	BYTE	W96
// 067   ----------------------------------------
	BYTE	W96
// 068   ----------------------------------------
	BYTE	W96
// 069   ----------------------------------------
	BYTE	W96
// 070   ----------------------------------------
	BYTE	W96
// 071   ----------------------------------------
	BYTE	W96
// 072   ----------------------------------------
	BYTE	W96
// 073   ----------------------------------------
	BYTE	W96
// 074   ----------------------------------------
	BYTE	W96
// 075   ----------------------------------------
	BYTE	W96
// 076   ----------------------------------------
	BYTE	W96
// 077   ----------------------------------------
	BYTE	W96
// 078   ----------------------------------------
	BYTE	W96
// 079   ----------------------------------------
	BYTE	W96
// 080   ----------------------------------------
	BYTE	W96
// 081   ----------------------------------------
	BYTE	W96
// 082   ----------------------------------------
	BYTE	W96
// 083   ----------------------------------------
	BYTE	W96
// 084   ----------------------------------------
	BYTE	W96
// 085   ----------------------------------------
	BYTE	W96
// 086   ----------------------------------------
	BYTE	W96
// 087   ----------------------------------------
	BYTE	W96
// 088   ----------------------------------------
	BYTE	W96
// 089   ----------------------------------------
	BYTE	W96
// 090   ----------------------------------------
	BYTE	W96
// 091   ----------------------------------------
	BYTE	W96
// 092   ----------------------------------------
	BYTE	W96
// 093   ----------------------------------------
	BYTE	W96
// 094   ----------------------------------------
	BYTE	W96
// 095   ----------------------------------------
	BYTE	W96
// 096   ----------------------------------------
	BYTE	W96
// 097   ----------------------------------------
	BYTE	W96
// 098   ----------------------------------------
	BYTE	W96
// 099   ----------------------------------------
	BYTE	W96
// 100   ----------------------------------------
	BYTE	W96
// 101   ----------------------------------------
	BYTE	W96
// 102   ----------------------------------------
	BYTE	W96
// 103   ----------------------------------------
	BYTE	W96
// 104   ----------------------------------------
	BYTE	W96
// 105   ----------------------------------------
	BYTE	W96
// 106   ----------------------------------------
	BYTE	W96
// 107   ----------------------------------------
	BYTE	W96
// 108   ----------------------------------------
	BYTE	W96
// 109   ----------------------------------------
	BYTE	W96
// 110   ----------------------------------------
	BYTE	W96
// 111   ----------------------------------------
	BYTE	W96
// 112   ----------------------------------------
	BYTE	W96
// 113   ----------------------------------------
	BYTE	W96
// 114   ----------------------------------------
	BYTE	W96
// 115   ----------------------------------------
	BYTE	W96
// 116   ----------------------------------------
	BYTE	W96
// 117   ----------------------------------------
	BYTE	W72
	BYTE		N05     Bn1   v127
	BYTE	W06
	BYTE		        Fs2 
	BYTE	W06
	BYTE		        Bn2 
	BYTE	W06
	BYTE		        Ds3 
	BYTE	W06
// 118   ----------------------------------------
	BYTE		        Fn3 
	BYTE	W06
	BYTE		        Cs3 
	BYTE	W06
	BYTE		        As2 
	BYTE	W06
	BYTE		        Fn3 
	BYTE	W06
	BYTE		        Cs4 
	BYTE	W06
	BYTE		        As3 
	BYTE	W06
	BYTE		        Gn3 
	BYTE	W06
	BYTE		        Cn4 
	BYTE	W06
	BYTE		N17     Gs4 
	BYTE	W18
	BYTE		        Fs4 
	BYTE	W18
	BYTE		N11     En4 
	BYTE	W12
// 119   ----------------------------------------
	BYTE		N07     Ds4 
	BYTE	W08
	BYTE		        Cs4 
	BYTE	W08
	BYTE		        Bn3 
	BYTE	W08
	BYTE		        As3 
	BYTE	W08
	BYTE		        Gs3 
	BYTE	W08
	BYTE		        Gn3 
	BYTE	W08
	BYTE		        Ds3 
	BYTE	W08
	BYTE		        Cs3 
	BYTE	W08
	BYTE		        Gn3 
	BYTE	W08
	BYTE		        As3 
	BYTE	W08
	BYTE		        Ds4 
	BYTE	W07
	BYTE		        En4 
	BYTE	W09
// 120   ----------------------------------------
	BYTE		N17     Ds4 
	BYTE	W18
	BYTE		        Cs4 
	BYTE	W18
	BYTE		        Bn3 
	BYTE	W18
	BYTE		        As3 
	BYTE	W18
	BYTE		        Gs3 
	BYTE	W18
	BYTE		N40     An3 
	BYTE	W02
	BYTE		BEND    c_v+0
	BYTE	W01
	BYTE		        c_v+2
	BYTE	W01
	BYTE		        c_v+4
	BYTE	W01
	BYTE		        c_v+6
	BYTE	W01
// 121   ----------------------------------------
	BYTE		        c_v+11
	BYTE	W01
	BYTE		        c_v+13
	BYTE	W01
	BYTE		        c_v+16
	BYTE	W01
	BYTE		        c_v+20
	BYTE	W17
	BYTE		        c_v+20
	BYTE	W01
	BYTE		        c_v+17
	BYTE	W01
	BYTE		        c_v+16
	BYTE	W01
	BYTE		        c_v+15
	BYTE	W01
	BYTE		        c_v+13
	BYTE	W01
	BYTE		        c_v+11
	BYTE	W01
	BYTE		        c_v+10
	BYTE	W01
	BYTE		        c_v+8
	BYTE	W01
	BYTE		        c_v+7
	BYTE	W01
	BYTE		        c_v+5
	BYTE	W01
	BYTE		        c_v+3
	BYTE	W01
	BYTE		        c_v+2
	BYTE	W01
	BYTE		        c_v+0
	BYTE	W01
	BYTE		        c_v+0
	BYTE	W03
	BYTE		N05     As3 
	BYTE	W06
	BYTE		        Cs4 
	BYTE	W06
	BYTE		N44     Fs4 
	BYTE	W01
	BYTE		MOD     0
	BYTE	W01
	BYTE		        9
	BYTE	W01
	BYTE		        29
	BYTE	W01
	BYTE		        39
	BYTE	W01
	BYTE		        49
	BYTE	W01
	BYTE		        68
	BYTE	W01
	BYTE		        78
	BYTE	W01
	BYTE		        88
	BYTE	W01
	BYTE		        108
	BYTE	W01
	BYTE		        118
	BYTE	W01
	BYTE		        127
	BYTE	W36
	BYTE		        0
	BYTE	W01
// 122   ----------------------------------------
	BYTE		N05     Ds4 
	BYTE	W06
	BYTE		        Bn3 
	BYTE	W06
	BYTE		        Gs3 
	BYTE	W06
	BYTE		        Bn3 
	BYTE	W06
	BYTE		        Gs3 
	BYTE	W06
	BYTE		        Ds3 
	BYTE	W06
	BYTE		        Gs3 
	BYTE	W06
	BYTE		        Ds3 
	BYTE	W06
	BYTE		        Bn2 
	BYTE	W06
	BYTE		        Gs2 
	BYTE	W06
	BYTE		        Bn2 
	BYTE	W06
	BYTE		        Cs3 
	BYTE	W06
	BYTE		        Bn2 
	BYTE	W06
	BYTE		        Cs3 
	BYTE	W06
	BYTE		        Ds3 
	BYTE	W06
	BYTE		        Fs3 
	BYTE	W06
// 123   ----------------------------------------
	BYTE		N07     Gs3 
	BYTE	W08
	BYTE		        Fs3 
	BYTE	W08
	BYTE		        En3 
	BYTE	W08
	BYTE		        Ds3 
	BYTE	W08
	BYTE		        Cs3 
	BYTE	W08
	BYTE		        En3 
	BYTE	W08
	BYTE		        Cs3 
	BYTE	W08
	BYTE		        Bn2 
	BYTE	W08
	BYTE		        As2 
	BYTE	W08
	BYTE		        Gs2 
	BYTE	W08
	BYTE		        Ds2 
	BYTE	W08
	BYTE		        Gs2 
	BYTE	W08
// 124   ----------------------------------------
	BYTE		N05     Gn2 
	BYTE	W06
	BYTE		        As1 
	BYTE	W06
	BYTE		        Ds2 
	BYTE	W06
	BYTE		        Gn2 
	BYTE	W06
	BYTE		        As2 
	BYTE	W06
	BYTE		        Ds2 
	BYTE	W06
	BYTE		        Gn2 
	BYTE	W06
	BYTE		        As2 
	BYTE	W06
	BYTE		        Cs3 
	BYTE	W06
	BYTE		        As2 
	BYTE	W06
	BYTE		        Gn2 
	BYTE	W06
	BYTE		        Cs3 
	BYTE	W06
	BYTE		        Ds3 
	BYTE	W06
	BYTE		        Fs3 
	BYTE	W06
	BYTE		        As3 
	BYTE	W06
	BYTE		        Cs4 
	BYTE	W06
// 125   ----------------------------------------
	BYTE		        Ds4 
	BYTE	W06
	BYTE		        As3 
	BYTE	W06
	BYTE		        Gn3 
	BYTE	W06
	BYTE		        As3 
	BYTE	W06
	BYTE		        Gn3 
	BYTE	W06
	BYTE		        Ds3 
	BYTE	W06
	BYTE		        As2 
	BYTE	W06
	BYTE		        Gs2 
	BYTE	W06
	BYTE		        Gn2 
	BYTE	W06
	BYTE		        Ds2 
	BYTE	W06
	BYTE		        Gn2 
	BYTE	W06
	BYTE		        As2 
	BYTE	W06
	BYTE		        Ds3 
	BYTE	W06
	BYTE		        As2 
	BYTE	W06
	BYTE		        Ds3 
	BYTE	W06
	BYTE		        Gn3 
	BYTE	W06
// 126   ----------------------------------------
	BYTE		N44     Bn2 
	BYTE	W06
	BYTE		BEND    c_v+13
	BYTE	W07
	BYTE		        c_v+0
	BYTE	W08
	BYTE		        c_v+13
	BYTE	W07
	BYTE		        c_v+0
	BYTE	W08
	BYTE		        c_v+13
	BYTE	W07
	BYTE		        c_v+0
	BYTE	W05
	BYTE		N05   
	BYTE	W06
	BYTE		        Cs3 
	BYTE	W04
	BYTE		        Ds3 
	BYTE	W08
	BYTE		        Fs3 
	BYTE	W06
	BYTE		        Gs3 
	BYTE	W06
	BYTE		        As3 
	BYTE	W06
	BYTE		        Bn3 
	BYTE	W06
	BYTE		        Cs4 
	BYTE	W06
// 127   ----------------------------------------
	BYTE		N92     Ds4   v036
	BYTE		N64     Ds5   v084
	BYTE	W09
	BYTE		BEND    c_v+13
	BYTE	W06
	BYTE		        c_v+0
	BYTE	W06
	BYTE		        c_v+13
	BYTE	W07
	BYTE		        c_v+0
	BYTE	W06
	BYTE		        c_v+13
	BYTE	W07
	BYTE		        c_v+0
	BYTE	W24
	BYTE	W01
	BYTE		        c_v+13
	BYTE	W18
	BYTE		        c_v+0
	BYTE	W12
// 128   ----------------------------------------
	BYTE		N17     Bn3   v127
	BYTE	W18
	BYTE		        As3 
	BYTE	W18
	BYTE		N11     Gs3 
	BYTE	W12
	BYTE		N17     Ds3 
	BYTE	W18
	BYTE		N28     As3 
	BYTE	W18
	BYTE		BEND    c_v+29
	BYTE	W11
	BYTE		        c_v+0
	BYTE	W01
// 129   ----------------------------------------
	BYTE		N11     Bn3 
	BYTE	W12
	BYTE		N05     Cs4 
	BYTE	W06
	BYTE		        Bn3 
	BYTE	W06
	BYTE		N11     As3 
	BYTE	W12
	BYTE		N05     Bn3 
	BYTE	W06
	BYTE		        As3 
	BYTE	W06
	BYTE		N11     Gs3 
	BYTE	W12
	BYTE		N05     As3 
	BYTE	W06
	BYTE		        Gs3 
	BYTE	W06
	BYTE		        Fs3 
	BYTE	W06
	BYTE		        En3 
	BYTE	W06
	BYTE		        Bn3 
	BYTE	W06
	BYTE		        Cs4 
	BYTE	W06
// 130   ----------------------------------------
	BYTE		N44   
	BYTE	W04
	BYTE		BEND    c_v+2
	BYTE	W01
	BYTE		        c_v+3
	BYTE	W01
	BYTE		        c_v+5
	BYTE	W01
	BYTE		        c_v+6
	BYTE	W01
	BYTE		        c_v+8
	BYTE	W01
	BYTE		        c_v+13
	BYTE	W01
	BYTE		        c_v+17
	BYTE	W01
	BYTE		        c_v+20
	BYTE	W36
	BYTE		        c_v+0
	BYTE	W01
	BYTE		N44     Gs4 
	BYTE	W03
	BYTE		MOD     0
	BYTE	W01
	BYTE		        10
	BYTE	W01
	BYTE		        21
	BYTE	W01
	BYTE		        42
	BYTE	W01
	BYTE		        53
	BYTE	W01
	BYTE		        63
	BYTE	W01
	BYTE		        85
	BYTE	W01
	BYTE		        95
	BYTE	W01
	BYTE		        106
	BYTE	W01
	BYTE		        127
	BYTE	W32
	BYTE	W03
	BYTE		        0
	BYTE	W01
// 131   ----------------------------------------
	BYTE		N32     Fs4 
	BYTE	W01
	BYTE		BEND    c_v+1
	BYTE	W01
	BYTE		        c_v+2
	BYTE	W01
	BYTE		        c_v+4
	BYTE	W01
	BYTE		        c_v+5
	BYTE	W01
	BYTE		        c_v+6
	BYTE	W01
	BYTE		        c_v+11
	BYTE	W01
	BYTE		        c_v+14
	BYTE	W01
	BYTE		        c_v+17
	BYTE	W01
	BYTE		        c_v+21
	BYTE	W09
	BYTE		        c_v+20
	BYTE	W01
	BYTE		        c_v+18
	BYTE	W01
	BYTE		        c_v+16
	BYTE	W01
	BYTE		        c_v+12
	BYTE	W01
	BYTE		        c_v+10
	BYTE	W01
	BYTE		        c_v+8
	BYTE	W01
	BYTE		        c_v+4
	BYTE	W01
	BYTE		        c_v+2
	BYTE	W01
	BYTE		        c_v+0
	BYTE	W10
	BYTE		N05     En4 
	BYTE	W06
	BYTE		        Ds4 
	BYTE	W06
	BYTE		N23     En4 
	BYTE	W24
	BYTE		        Cs4 
	BYTE	W24
// 132   ----------------------------------------
	BYTE		N44     Ds4 
	BYTE	W48
	BYTE		        Gs4 
	BYTE	W03
	BYTE		MOD     14
	BYTE	W01
	BYTE		        28
	BYTE	W01
	BYTE		        42
	BYTE	W01
	BYTE		        71
	BYTE	W01
	BYTE		        85
	BYTE	W01
	BYTE		        99
	BYTE	W01
	BYTE		        127
	BYTE	W36
	BYTE	W02
	BYTE		        0
	BYTE	W01
// 133   ----------------------------------------
	BYTE		N44     Gn4 
	BYTE	W10
	BYTE		MOD     11
	BYTE	W01
	BYTE		        23
	BYTE	W01
	BYTE		        46
	BYTE	W01
	BYTE		        58
	BYTE	W01
	BYTE		        69
	BYTE	W01
	BYTE		        93
	BYTE	W01
	BYTE		        104
	BYTE	W01
	BYTE		        116
	BYTE	W01
	BYTE		        127
	BYTE	W28
	BYTE	W01
	BYTE		        0
	BYTE	W48
	BYTE	W01
// 134   ----------------------------------------
	BYTE	W96
// 135   ----------------------------------------
	BYTE	W96
// 136   ----------------------------------------
	BYTE	W96
// 137   ----------------------------------------
	BYTE	W96
// 138   ----------------------------------------
	BYTE	W96
// 139   ----------------------------------------
	BYTE	W96
// 140   ----------------------------------------
	BYTE	W96
// 141   ----------------------------------------
	BYTE	W96
// 142   ----------------------------------------
	BYTE	W96
// 143   ----------------------------------------
	BYTE	W96
// 144   ----------------------------------------
	BYTE	W96
// 145   ----------------------------------------
	BYTE	W96
// 146   ----------------------------------------
	BYTE	W96
// 147   ----------------------------------------
	BYTE	W96
// 148   ----------------------------------------
	BYTE	W96
// 149   ----------------------------------------
	BYTE	W96
// 150   ----------------------------------------
	BYTE	W96
// 151   ----------------------------------------
	BYTE	W96
// 152   ----------------------------------------
	BYTE	W96
// 153   ----------------------------------------
	BYTE	W96
// 154   ----------------------------------------
	BYTE	W96
// 155   ----------------------------------------
	BYTE	W96
// 156   ----------------------------------------
	BYTE	W96
// 157   ----------------------------------------
	BYTE	W96
// 158   ----------------------------------------
	BYTE	W96
// 159   ----------------------------------------
	BYTE	W96
// 160   ----------------------------------------
	BYTE	W96
// 161   ----------------------------------------
	BYTE	W96
// 162   ----------------------------------------
	BYTE	W96
// 163   ----------------------------------------
	BYTE	W96
// 164   ----------------------------------------
	BYTE	W96
// 165   ----------------------------------------
	BYTE	W96
// 166   ----------------------------------------
	BYTE	W96
// 167   ----------------------------------------
	BYTE	W96
// 168   ----------------------------------------
	BYTE	W96
// 169   ----------------------------------------
	BYTE	W96
// 170   ----------------------------------------
	BYTE	W96
// 171   ----------------------------------------
	BYTE	W96
// 172   ----------------------------------------
	BYTE	W96
// 173   ----------------------------------------
	BYTE	W96
// 174   ----------------------------------------
	BYTE	W96
// 175   ----------------------------------------
	BYTE	W96
// 176   ----------------------------------------
	BYTE	W96
// 177   ----------------------------------------
	BYTE	W96
// 178   ----------------------------------------
	BYTE	W96
// 179   ----------------------------------------
	BYTE	W96
// 180   ----------------------------------------
	BYTE	W96
// 181   ----------------------------------------
	BYTE	W96
// 182   ----------------------------------------
	BYTE	W96
// 183   ----------------------------------------
	BYTE	W96
// 184   ----------------------------------------
	BYTE	W96
// 185   ----------------------------------------
	BYTE	W96
// 186   ----------------------------------------
	BYTE	W96
// 187   ----------------------------------------
	BYTE	W96
// 188   ----------------------------------------
	BYTE	W96
// 189   ----------------------------------------
	BYTE	W96
// 190   ----------------------------------------
	BYTE	W96
// 191   ----------------------------------------
	BYTE	W96
// 192   ----------------------------------------
	BYTE	W96
// 193   ----------------------------------------
	BYTE	W96
// 194   ----------------------------------------
	BYTE	W96
// 195   ----------------------------------------
	BYTE	W96
// 196   ----------------------------------------
	BYTE	W96
// 197   ----------------------------------------
	BYTE	W96
// 198   ----------------------------------------
	BYTE	W96
// 199   ----------------------------------------
	BYTE	W96
// 200   ----------------------------------------
	BYTE	W96
// 201   ----------------------------------------
	BYTE	W96
// 202   ----------------------------------------
	BYTE	W96
// 203   ----------------------------------------
	BYTE	W96
// 204   ----------------------------------------
	BYTE	W96
// 205   ----------------------------------------
	BYTE	W96
// 206   ----------------------------------------
	BYTE	W96
// 207   ----------------------------------------
	BYTE	W96
// 208   ----------------------------------------
	BYTE	W96
// 209   ----------------------------------------
	BYTE	W96
// 210   ----------------------------------------
	BYTE	W96
// 211   ----------------------------------------
	BYTE	PATT
	 POIN2	overdosing8850_1_011
// 212   ----------------------------------------
	BYTE	W96
// 213   ----------------------------------------
	BYTE	W96
// 214   ----------------------------------------
	BYTE	W96
// 215   ----------------------------------------
	BYTE	W96
// 216   ----------------------------------------
	BYTE	W96
// 217   ----------------------------------------
	BYTE	W96
// 218   ----------------------------------------
	BYTE	W96
// 219   ----------------------------------------
	BYTE	W96
// 220   ----------------------------------------
	BYTE	W96
// 221   ----------------------------------------
	BYTE	W96
// 222   ----------------------------------------
	BYTE	W96
// 223   ----------------------------------------
	BYTE	W96
// 224   ----------------------------------------
	BYTE	W96
// 225   ----------------------------------------
	BYTE	W96
// 226   ----------------------------------------
	BYTE	W96
// 227   ----------------------------------------
	BYTE	W96
// 228   ----------------------------------------
	BYTE	W96
// 229   ----------------------------------------
	BYTE	W96
// 230   ----------------------------------------
	BYTE	W96
// 231   ----------------------------------------
	BYTE	FINE

//**************** Track 2 (Midi-Chn.2) ****************//

overdosing8850_2:
	BYTE	KEYSH   overdosing8850_key+0
// 000   ----------------------------------------
	BYTE	W48
	BYTE		VOICE   34
	BYTE		VOL     95*overdosing8850_mvl/mxv
	BYTE		PAN     c_v+0
	BYTE	W48
// 001   ----------------------------------------
	BYTE		MOD     0
	BYTE		BEND    c_v+0
	BYTE	W48
	BYTE	W24
	BYTE	W06
	BYTE	W06
	BYTE	W06
	BYTE	W06
// 002   ----------------------------------------
	BYTE		N44     En1   v120
	BYTE	W96
// 003   ----------------------------------------
	BYTE		N88     Dn1 
	BYTE	W96
// 004   ----------------------------------------
	BYTE		N44     Gn1 
	BYTE	W96
// 005   ----------------------------------------
	BYTE		N88     Cn1 
	BYTE	W96
// 006   ----------------------------------------
	BYTE		N44     An0 
	BYTE	W96
// 007   ----------------------------------------
overdosing8850_2_007:
	BYTE		N44     Bn0   v120
	BYTE	W48
	BYTE		        Dn1 
	BYTE	W48
	BYTE	PEND
// 008   ----------------------------------------
overdosing8850_2_008:
	BYTE		N08     Cn1   v120
	BYTE	W12
	BYTE		N08   
	BYTE	W12
	BYTE		N08   
	BYTE	W12
	BYTE		N08   
	BYTE	W12
	BYTE		N08   
	BYTE	W12
	BYTE		N08   
	BYTE	W12
	BYTE		N08   
	BYTE	W12
	BYTE		N08   
	BYTE	W12
	BYTE	PEND
// 009   ----------------------------------------
	BYTE	PATT
	 POIN2	overdosing8850_2_008
// 010   ----------------------------------------
overdosing8850_2_010:
	BYTE		N08     Dn1   v120
	BYTE	W12
	BYTE		N08   
	BYTE	W12
	BYTE		N08   
	BYTE	W12
	BYTE		N08   
	BYTE	W12
	BYTE		N08   
	BYTE	W12
	BYTE		N08   
	BYTE	W12
	BYTE		N08   
	BYTE	W12
	BYTE		N08   
	BYTE	W12
	BYTE	PEND
// 011   ----------------------------------------
	BYTE	PATT
	 POIN2	overdosing8850_2_010
// 012   ----------------------------------------
overdosing8850_2_012:
	BYTE		N08     En1   v120
	BYTE	W12
	BYTE		N08   
	BYTE	W12
	BYTE		N08   
	BYTE	W12
	BYTE		N08   
	BYTE	W12
	BYTE		N08   
	BYTE	W12
	BYTE		N08   
	BYTE	W12
	BYTE		N08   
	BYTE	W12
	BYTE		N08   
	BYTE	W12
	BYTE	PEND
// 013   ----------------------------------------
	BYTE	PATT
	 POIN2	overdosing8850_2_012
// 014   ----------------------------------------
	BYTE	PATT
	 POIN2	overdosing8850_2_012
// 015   ----------------------------------------
	BYTE	PATT
	 POIN2	overdosing8850_2_012
// 016   ----------------------------------------
	BYTE	PATT
	 POIN2	overdosing8850_2_012
// 017   ----------------------------------------
	BYTE	PATT
	 POIN2	overdosing8850_2_012
// 018   ----------------------------------------
	BYTE	PATT
	 POIN2	overdosing8850_2_012
// 019   ----------------------------------------
	BYTE	PATT
	 POIN2	overdosing8850_2_012
// 020   ----------------------------------------
	BYTE	PATT
	 POIN2	overdosing8850_2_012
// 021   ----------------------------------------
	BYTE	PATT
	 POIN2	overdosing8850_2_012
// 022   ----------------------------------------
	BYTE	PATT
	 POIN2	overdosing8850_2_012
// 023   ----------------------------------------
	BYTE	W96
// 024   ----------------------------------------
	BYTE	PATT
	 POIN2	overdosing8850_2_012
// 025   ----------------------------------------
overdosing8850_2_025:
	BYTE		N08     En1   v120
	BYTE	W12
	BYTE		N08   
	BYTE	W12
	BYTE		N08   
	BYTE	W12
	BYTE		N08   
	BYTE	W12
	BYTE		N08   
	BYTE	W12
	BYTE		N08   
	BYTE	W12
	BYTE		        Dn1 
	BYTE	W12
	BYTE		N08   
	BYTE	W12
	BYTE	PEND
// 026   ----------------------------------------
	BYTE	PATT
	 POIN2	overdosing8850_2_008
// 027   ----------------------------------------
overdosing8850_2_027:
	BYTE		N08     Fn1   v120
	BYTE	W12
	BYTE		N08   
	BYTE	W12
	BYTE		N08   
	BYTE	W12
	BYTE		N08   
	BYTE	W12
	BYTE		N08   
	BYTE	W12
	BYTE		        Bn0 
	BYTE	W12
	BYTE		        Fn1 
	BYTE	W12
	BYTE		        En1 
	BYTE	W12
	BYTE	PEND
// 028   ----------------------------------------
	BYTE	PATT
	 POIN2	overdosing8850_2_010
// 029   ----------------------------------------
	BYTE	PATT
	 POIN2	overdosing8850_2_012
// 030   ----------------------------------------
overdosing8850_2_030:
	BYTE		N08     An0   v120
	BYTE	W12
	BYTE		N08   
	BYTE	W12
	BYTE		N08   
	BYTE	W12
	BYTE		N08   
	BYTE	W12
	BYTE		N08   
	BYTE	W12
	BYTE		N08   
	BYTE	W12
	BYTE		N08   
	BYTE	W12
	BYTE		N08   
	BYTE	W12
	BYTE	PEND
// 031   ----------------------------------------
	BYTE	PATT
	 POIN2	overdosing8850_2_030
// 032   ----------------------------------------
	BYTE	PATT
	 POIN2	overdosing8850_2_030
// 033   ----------------------------------------
overdosing8850_2_033:
	BYTE		N08     An0   v120
	BYTE	W12
	BYTE		N08   
	BYTE	W12
	BYTE		N08   
	BYTE	W12
	BYTE		N08   
	BYTE	W12
	BYTE		N08   
	BYTE	W12
	BYTE		N08   
	BYTE	W12
	BYTE		        Bn0 
	BYTE	W12
	BYTE		        Dn1 
	BYTE	W12
	BYTE	PEND
// 034   ----------------------------------------
	BYTE	PATT
	 POIN2	overdosing8850_2_012
// 035   ----------------------------------------
	BYTE	PATT
	 POIN2	overdosing8850_2_025
// 036   ----------------------------------------
	BYTE	PATT
	 POIN2	overdosing8850_2_008
// 037   ----------------------------------------
	BYTE	PATT
	 POIN2	overdosing8850_2_027
// 038   ----------------------------------------
overdosing8850_2_038:
	BYTE		N08     Cs1   v120
	BYTE	W12
	BYTE		N08   
	BYTE	W12
	BYTE		N08   
	BYTE	W12
	BYTE		N08   
	BYTE	W12
	BYTE		N08   
	BYTE	W12
	BYTE		N08   
	BYTE	W12
	BYTE		N08   
	BYTE	W12
	BYTE		N08   
	BYTE	W12
	BYTE	PEND
// 039   ----------------------------------------
overdosing8850_2_039:
	BYTE		N08     Ds1   v120
	BYTE	W12
	BYTE		N08   
	BYTE	W12
	BYTE		N08   
	BYTE	W12
	BYTE		N08   
	BYTE	W12
	BYTE		N08   
	BYTE	W12
	BYTE		N08   
	BYTE	W12
	BYTE		N08   
	BYTE	W12
	BYTE		N08   
	BYTE	W12
	BYTE	PEND
// 040   ----------------------------------------
overdosing8850_2_040:
	BYTE		N08     Gs0   v120
	BYTE	W12
	BYTE		N08   
	BYTE	W12
	BYTE		N08   
	BYTE	W12
	BYTE		N08   
	BYTE	W12
	BYTE		N08   
	BYTE	W12
	BYTE		N08   
	BYTE	W12
	BYTE		N08   
	BYTE	W12
	BYTE		N08   
	BYTE	W12
	BYTE	PEND
// 041   ----------------------------------------
overdosing8850_2_041:
	BYTE		N08     Gs0   v120
	BYTE	W12
	BYTE		N08   
	BYTE	W12
	BYTE		N08   
	BYTE	W12
	BYTE		N08   
	BYTE	W12
	BYTE		N08   
	BYTE	W12
	BYTE		N08   
	BYTE	W12
	BYTE		        Fs0 
	BYTE	W12
	BYTE		N08   
	BYTE	W12
	BYTE	PEND
// 042   ----------------------------------------
	BYTE	PATT
	 POIN2	overdosing8850_2_040
// 043   ----------------------------------------
overdosing8850_2_043:
	BYTE		N08     Gs0   v120
	BYTE	W12
	BYTE		N08   
	BYTE	W12
	BYTE		N08   
	BYTE	W12
	BYTE		N08   
	BYTE	W12
	BYTE		N08   
	BYTE	W12
	BYTE		N08   
	BYTE	W12
	BYTE		        As0 
	BYTE	W12
	BYTE		N08   
	BYTE	W12
	BYTE	PEND
// 044   ----------------------------------------
	BYTE	PATT
	 POIN2	overdosing8850_2_040
// 045   ----------------------------------------
	BYTE	PATT
	 POIN2	overdosing8850_2_041
// 046   ----------------------------------------
	BYTE	PATT
	 POIN2	overdosing8850_2_040
// 047   ----------------------------------------
	BYTE	PATT
	 POIN2	overdosing8850_2_043
// 048   ----------------------------------------
overdosing8850_2_048:
	BYTE		N08     En0   v120
	BYTE	W12
	BYTE		N08   
	BYTE	W12
	BYTE		N08   
	BYTE	W12
	BYTE		N08   
	BYTE	W12
	BYTE		N08   
	BYTE	W12
	BYTE		N08   
	BYTE	W12
	BYTE		N08   
	BYTE	W12
	BYTE		N08   
	BYTE	W12
	BYTE	PEND
// 049   ----------------------------------------
	BYTE	PATT
	 POIN2	overdosing8850_2_048
// 050   ----------------------------------------
	BYTE	PATT
	 POIN2	overdosing8850_2_048
// 051   ----------------------------------------
overdosing8850_2_051:
	BYTE		N08     En0   v120
	BYTE	W12
	BYTE		N08   
	BYTE	W12
	BYTE		N08   
	BYTE	W12
	BYTE		N08   
	BYTE	W12
	BYTE		        Fs0 
	BYTE	W12
	BYTE		N08   
	BYTE	W12
	BYTE		N08   
	BYTE	W12
	BYTE		N08   
	BYTE	W12
	BYTE	PEND
// 052   ----------------------------------------
	BYTE	PATT
	 POIN2	overdosing8850_2_040
// 053   ----------------------------------------
	BYTE	PATT
	 POIN2	overdosing8850_2_030
// 054   ----------------------------------------
overdosing8850_2_054:
	BYTE		N08     Ds0   v120
	BYTE	W12
	BYTE		N08   
	BYTE	W12
	BYTE		N08   
	BYTE	W12
	BYTE		N08   
	BYTE	W12
	BYTE		N08   
	BYTE	W12
	BYTE		N08   
	BYTE	W12
	BYTE		N08   
	BYTE	W12
	BYTE		N08   
	BYTE	W12
	BYTE	PEND
// 055   ----------------------------------------
overdosing8850_2_055:
	BYTE		N08     Gn0   v120
	BYTE	W12
	BYTE		N08   
	BYTE	W12
	BYTE		N08   
	BYTE	W12
	BYTE		N08   
	BYTE	W12
	BYTE		        Ds0 
	BYTE	W12
	BYTE		N08   
	BYTE	W12
	BYTE		N08   
	BYTE	W12
	BYTE		N08   
	BYTE	W12
	BYTE	PEND
// 056   ----------------------------------------
	BYTE	PATT
	 POIN2	overdosing8850_2_048
// 057   ----------------------------------------
	BYTE	PATT
	 POIN2	overdosing8850_2_048
// 058   ----------------------------------------
	BYTE	PATT
	 POIN2	overdosing8850_2_048
// 059   ----------------------------------------
	BYTE	PATT
	 POIN2	overdosing8850_2_051
// 060   ----------------------------------------
	BYTE	PATT
	 POIN2	overdosing8850_2_040
// 061   ----------------------------------------
	BYTE	PATT
	 POIN2	overdosing8850_2_030
// 062   ----------------------------------------
	BYTE	PATT
	 POIN2	overdosing8850_2_054
// 063   ----------------------------------------
overdosing8850_2_063:
	BYTE		N08     Gn0   v120
	BYTE	W12
	BYTE		N08   
	BYTE	W12
	BYTE		N08   
	BYTE	W12
	BYTE		N08   
	BYTE	W12
	BYTE		        Ds0 
	BYTE	W24
	BYTE		N22     Ds1 
	BYTE	W24
	BYTE	PEND
// 064   ----------------------------------------
overdosing8850_2_064:
	BYTE		N08     Fn1   v120
	BYTE	W12
	BYTE		N08   
	BYTE	W12
	BYTE		N08   
	BYTE	W12
	BYTE		N08   
	BYTE	W12
	BYTE		N08   
	BYTE	W12
	BYTE		N08   
	BYTE	W12
	BYTE		        Ds1 
	BYTE	W12
	BYTE		N08   
	BYTE	W12
	BYTE	PEND
// 065   ----------------------------------------
overdosing8850_2_065:
	BYTE		N08     Cs1   v120
	BYTE	W12
	BYTE		N08   
	BYTE	W12
	BYTE		N08   
	BYTE	W12
	BYTE		N08   
	BYTE	W12
	BYTE		N08   
	BYTE	W12
	BYTE		N08   
	BYTE	W12
	BYTE		        Cn1 
	BYTE	W12
	BYTE		N08   
	BYTE	W12
	BYTE	PEND
// 066   ----------------------------------------
overdosing8850_2_066:
	BYTE		N08     As0   v120
	BYTE	W12
	BYTE		N08   
	BYTE	W12
	BYTE		N08   
	BYTE	W12
	BYTE		N08   
	BYTE	W12
	BYTE		        Ds1 
	BYTE	W12
	BYTE		N08   
	BYTE	W12
	BYTE		N08   
	BYTE	W12
	BYTE		N08   
	BYTE	W12
	BYTE	PEND
// 067   ----------------------------------------
overdosing8850_2_067:
	BYTE		N08     Gs1   v120
	BYTE	W12
	BYTE		N08   
	BYTE	W12
	BYTE		N08   
	BYTE	W12
	BYTE		N08   
	BYTE	W12
	BYTE		        Ds1 
	BYTE	W12
	BYTE		N08   
	BYTE	W12
	BYTE		N08   
	BYTE	W12
	BYTE		N08   
	BYTE	W12
	BYTE	PEND
// 068   ----------------------------------------
overdosing8850_2_068:
	BYTE		N08     Cs1   v120
	BYTE	W12
	BYTE		N08   
	BYTE	W12
	BYTE		N08   
	BYTE	W12
	BYTE		N08   
	BYTE	W12
	BYTE		        Cn1 
	BYTE	W12
	BYTE		N08   
	BYTE	W12
	BYTE		N08   
	BYTE	W12
	BYTE		N08   
	BYTE	W12
	BYTE	PEND
// 069   ----------------------------------------
overdosing8850_2_069:
	BYTE		N08     As0   v120
	BYTE	W12
	BYTE		N08   
	BYTE	W12
	BYTE		N08   
	BYTE	W12
	BYTE		N08   
	BYTE	W12
	BYTE		        Gs0 
	BYTE	W12
	BYTE		N08   
	BYTE	W12
	BYTE		N08   
	BYTE	W12
	BYTE		N08   
	BYTE	W12
	BYTE	PEND
// 070   ----------------------------------------
overdosing8850_2_070:
	BYTE		N08     Fn0   v120
	BYTE	W12
	BYTE		N08   
	BYTE	W12
	BYTE		N08   
	BYTE	W12
	BYTE		N08   
	BYTE	W12
	BYTE		        Bn0 
	BYTE	W12
	BYTE		N08   
	BYTE	W12
	BYTE		N08   
	BYTE	W12
	BYTE		N08   
	BYTE	W12
	BYTE	PEND
// 071   ----------------------------------------
overdosing8850_2_071:
	BYTE		N08     Fn1   v120
	BYTE	W12
	BYTE		N08   
	BYTE	W12
	BYTE		N08   
	BYTE	W12
	BYTE		N08   
	BYTE	W12
	BYTE		        Gs1 
	BYTE	W24
	BYTE		N22     Ds1 
	BYTE	W24
	BYTE	PEND
// 072   ----------------------------------------
	BYTE	PATT
	 POIN2	overdosing8850_2_064
// 073   ----------------------------------------
	BYTE	PATT
	 POIN2	overdosing8850_2_065
// 074   ----------------------------------------
	BYTE	PATT
	 POIN2	overdosing8850_2_066
// 075   ----------------------------------------
	BYTE	PATT
	 POIN2	overdosing8850_2_067
// 076   ----------------------------------------
	BYTE	PATT
	 POIN2	overdosing8850_2_068
// 077   ----------------------------------------
	BYTE	PATT
	 POIN2	overdosing8850_2_069
// 078   ----------------------------------------
overdosing8850_2_078:
	BYTE		N08     Fs0   v120
	BYTE	W12
	BYTE		N08   
	BYTE	W12
	BYTE		N08   
	BYTE	W12
	BYTE		N08   
	BYTE	W12
	BYTE		        Bn0 
	BYTE	W12
	BYTE		N08   
	BYTE	W12
	BYTE		N08   
	BYTE	W12
	BYTE		N08   
	BYTE	W12
	BYTE	PEND
// 079   ----------------------------------------
overdosing8850_2_079:
	BYTE		N08     En1   v120
	BYTE	W12
	BYTE		N08   
	BYTE	W12
	BYTE		N08   
	BYTE	W12
	BYTE		N08   
	BYTE	W12
	BYTE		        Gs1 
	BYTE	W12
	BYTE		N08   
	BYTE	W12
	BYTE		N08   
	BYTE	W12
	BYTE		N08   
	BYTE	W12
	BYTE	PEND
// 080   ----------------------------------------
overdosing8850_2_080:
	BYTE		N08     Cs1   v120
	BYTE	W12
	BYTE		N08   
	BYTE	W12
	BYTE		N08   
	BYTE	W12
	BYTE		N08   
	BYTE	W12
	BYTE		        Fs1 
	BYTE	W12
	BYTE		N08   
	BYTE	W12
	BYTE		N08   
	BYTE	W12
	BYTE		N08   
	BYTE	W12
	BYTE	PEND
// 081   ----------------------------------------
overdosing8850_2_081:
	BYTE		N08     Bn0   v120
	BYTE	W12
	BYTE		N08   
	BYTE	W12
	BYTE		N08   
	BYTE	W12
	BYTE		N08   
	BYTE	W12
	BYTE		        En1 
	BYTE	W12
	BYTE		N08   
	BYTE	W12
	BYTE		N08   
	BYTE	W12
	BYTE		N08   
	BYTE	W12
	BYTE	PEND
// 082   ----------------------------------------
	BYTE	PATT
	 POIN2	overdosing8850_2_012
// 083   ----------------------------------------
	BYTE	PATT
	 POIN2	overdosing8850_2_012
// 084   ----------------------------------------
	BYTE	PATT
	 POIN2	overdosing8850_2_012
// 085   ----------------------------------------
	BYTE	PATT
	 POIN2	overdosing8850_2_012
// 086   ----------------------------------------
	BYTE	PATT
	 POIN2	overdosing8850_2_012
// 087   ----------------------------------------
	BYTE	PATT
	 POIN2	overdosing8850_2_012
// 088   ----------------------------------------
	BYTE	PATT
	 POIN2	overdosing8850_2_012
// 089   ----------------------------------------
	BYTE	PATT
	 POIN2	overdosing8850_2_012
// 090   ----------------------------------------
	BYTE	PATT
	 POIN2	overdosing8850_2_012
// 091   ----------------------------------------
	BYTE	PATT
	 POIN2	overdosing8850_2_012
// 092   ----------------------------------------
	BYTE	PATT
	 POIN2	overdosing8850_2_012
// 093   ----------------------------------------
	BYTE	W96
// 094   ----------------------------------------
	BYTE	PATT
	 POIN2	overdosing8850_2_012
// 095   ----------------------------------------
	BYTE	PATT
	 POIN2	overdosing8850_2_025
// 096   ----------------------------------------
	BYTE	PATT
	 POIN2	overdosing8850_2_008
// 097   ----------------------------------------
	BYTE	PATT
	 POIN2	overdosing8850_2_027
// 098   ----------------------------------------
	BYTE	PATT
	 POIN2	overdosing8850_2_010
// 099   ----------------------------------------
	BYTE	PATT
	 POIN2	overdosing8850_2_012
// 100   ----------------------------------------
	BYTE	PATT
	 POIN2	overdosing8850_2_030
// 101   ----------------------------------------
	BYTE	PATT
	 POIN2	overdosing8850_2_030
// 102   ----------------------------------------
	BYTE	PATT
	 POIN2	overdosing8850_2_030
// 103   ----------------------------------------
	BYTE	PATT
	 POIN2	overdosing8850_2_033
// 104   ----------------------------------------
	BYTE	PATT
	 POIN2	overdosing8850_2_012
// 105   ----------------------------------------
	BYTE	PATT
	 POIN2	overdosing8850_2_025
// 106   ----------------------------------------
	BYTE	PATT
	 POIN2	overdosing8850_2_008
// 107   ----------------------------------------
	BYTE	PATT
	 POIN2	overdosing8850_2_027
// 108   ----------------------------------------
	BYTE	PATT
	 POIN2	overdosing8850_2_038
// 109   ----------------------------------------
	BYTE	PATT
	 POIN2	overdosing8850_2_039
// 110   ----------------------------------------
	BYTE	PATT
	 POIN2	overdosing8850_2_040
// 111   ----------------------------------------
	BYTE	PATT
	 POIN2	overdosing8850_2_041
// 112   ----------------------------------------
	BYTE	PATT
	 POIN2	overdosing8850_2_040
// 113   ----------------------------------------
	BYTE	PATT
	 POIN2	overdosing8850_2_043
// 114   ----------------------------------------
	BYTE	PATT
	 POIN2	overdosing8850_2_040
// 115   ----------------------------------------
	BYTE	PATT
	 POIN2	overdosing8850_2_041
// 116   ----------------------------------------
	BYTE	PATT
	 POIN2	overdosing8850_2_040
// 117   ----------------------------------------
	BYTE	PATT
	 POIN2	overdosing8850_2_043
// 118   ----------------------------------------
	BYTE	PATT
	 POIN2	overdosing8850_2_048
// 119   ----------------------------------------
	BYTE	PATT
	 POIN2	overdosing8850_2_048
// 120   ----------------------------------------
	BYTE	PATT
	 POIN2	overdosing8850_2_048
// 121   ----------------------------------------
	BYTE	PATT
	 POIN2	overdosing8850_2_051
// 122   ----------------------------------------
	BYTE	PATT
	 POIN2	overdosing8850_2_040
// 123   ----------------------------------------
	BYTE	PATT
	 POIN2	overdosing8850_2_030
// 124   ----------------------------------------
	BYTE	PATT
	 POIN2	overdosing8850_2_054
// 125   ----------------------------------------
	BYTE	PATT
	 POIN2	overdosing8850_2_055
// 126   ----------------------------------------
	BYTE	PATT
	 POIN2	overdosing8850_2_048
// 127   ----------------------------------------
	BYTE	PATT
	 POIN2	overdosing8850_2_048
// 128   ----------------------------------------
	BYTE	PATT
	 POIN2	overdosing8850_2_048
// 129   ----------------------------------------
	BYTE	PATT
	 POIN2	overdosing8850_2_051
// 130   ----------------------------------------
	BYTE	PATT
	 POIN2	overdosing8850_2_040
// 131   ----------------------------------------
	BYTE	PATT
	 POIN2	overdosing8850_2_030
// 132   ----------------------------------------
	BYTE	PATT
	 POIN2	overdosing8850_2_054
// 133   ----------------------------------------
	BYTE	PATT
	 POIN2	overdosing8850_2_063
// 134   ----------------------------------------
	BYTE	PATT
	 POIN2	overdosing8850_2_064
// 135   ----------------------------------------
	BYTE	PATT
	 POIN2	overdosing8850_2_065
// 136   ----------------------------------------
	BYTE	PATT
	 POIN2	overdosing8850_2_066
// 137   ----------------------------------------
	BYTE	PATT
	 POIN2	overdosing8850_2_067
// 138   ----------------------------------------
	BYTE	PATT
	 POIN2	overdosing8850_2_068
// 139   ----------------------------------------
	BYTE	PATT
	 POIN2	overdosing8850_2_069
// 140   ----------------------------------------
	BYTE	PATT
	 POIN2	overdosing8850_2_070
// 141   ----------------------------------------
	BYTE	PATT
	 POIN2	overdosing8850_2_071
// 142   ----------------------------------------
	BYTE	PATT
	 POIN2	overdosing8850_2_064
// 143   ----------------------------------------
	BYTE	PATT
	 POIN2	overdosing8850_2_065
// 144   ----------------------------------------
	BYTE	PATT
	 POIN2	overdosing8850_2_066
// 145   ----------------------------------------
	BYTE	PATT
	 POIN2	overdosing8850_2_067
// 146   ----------------------------------------
	BYTE	PATT
	 POIN2	overdosing8850_2_068
// 147   ----------------------------------------
	BYTE	PATT
	 POIN2	overdosing8850_2_069
// 148   ----------------------------------------
	BYTE	PATT
	 POIN2	overdosing8850_2_078
// 149   ----------------------------------------
	BYTE	PATT
	 POIN2	overdosing8850_2_079
// 150   ----------------------------------------
	BYTE	PATT
	 POIN2	overdosing8850_2_080
// 151   ----------------------------------------
	BYTE	PATT
	 POIN2	overdosing8850_2_081
// 152   ----------------------------------------
	BYTE	PATT
	 POIN2	overdosing8850_2_012
// 153   ----------------------------------------
	BYTE	PATT
	 POIN2	overdosing8850_2_012
// 154   ----------------------------------------
	BYTE	PATT
	 POIN2	overdosing8850_2_012
// 155   ----------------------------------------
	BYTE	PATT
	 POIN2	overdosing8850_2_012
// 156   ----------------------------------------
	BYTE	PATT
	 POIN2	overdosing8850_2_040
// 157   ----------------------------------------
	BYTE	PATT
	 POIN2	overdosing8850_2_041
// 158   ----------------------------------------
	BYTE	PATT
	 POIN2	overdosing8850_2_040
// 159   ----------------------------------------
	BYTE	PATT
	 POIN2	overdosing8850_2_043
// 160   ----------------------------------------
	BYTE	PATT
	 POIN2	overdosing8850_2_040
// 161   ----------------------------------------
	BYTE	PATT
	 POIN2	overdosing8850_2_041
// 162   ----------------------------------------
	BYTE	PATT
	 POIN2	overdosing8850_2_040
// 163   ----------------------------------------
	BYTE	W12
	BYTE		N08     Fs0   v120
	BYTE	W12
	BYTE		        Bn0 
	BYTE	W12
	BYTE		        Fs0 
	BYTE	W12
	BYTE		        Ds1 
	BYTE	W12
	BYTE		        Bn0 
	BYTE	W12
	BYTE		        Fs0 
	BYTE	W12
	BYTE		        BnM1
	BYTE	W12
// 164   ----------------------------------------
	BYTE	PATT
	 POIN2	overdosing8850_2_048
// 165   ----------------------------------------
	BYTE	PATT
	 POIN2	overdosing8850_2_048
// 166   ----------------------------------------
	BYTE	PATT
	 POIN2	overdosing8850_2_048
// 167   ----------------------------------------
	BYTE	PATT
	 POIN2	overdosing8850_2_051
// 168   ----------------------------------------
	BYTE	PATT
	 POIN2	overdosing8850_2_040
// 169   ----------------------------------------
	BYTE	PATT
	 POIN2	overdosing8850_2_030
// 170   ----------------------------------------
	BYTE	PATT
	 POIN2	overdosing8850_2_054
// 171   ----------------------------------------
	BYTE	PATT
	 POIN2	overdosing8850_2_055
// 172   ----------------------------------------
	BYTE	PATT
	 POIN2	overdosing8850_2_048
// 173   ----------------------------------------
	BYTE	PATT
	 POIN2	overdosing8850_2_048
// 174   ----------------------------------------
	BYTE	PATT
	 POIN2	overdosing8850_2_048
// 175   ----------------------------------------
	BYTE	PATT
	 POIN2	overdosing8850_2_051
// 176   ----------------------------------------
	BYTE	PATT
	 POIN2	overdosing8850_2_040
// 177   ----------------------------------------
	BYTE	PATT
	 POIN2	overdosing8850_2_030
// 178   ----------------------------------------
	BYTE	PATT
	 POIN2	overdosing8850_2_054
// 179   ----------------------------------------
	BYTE	PATT
	 POIN2	overdosing8850_2_063
// 180   ----------------------------------------
	BYTE	PATT
	 POIN2	overdosing8850_2_064
// 181   ----------------------------------------
	BYTE	PATT
	 POIN2	overdosing8850_2_065
// 182   ----------------------------------------
	BYTE	PATT
	 POIN2	overdosing8850_2_066
// 183   ----------------------------------------
	BYTE	PATT
	 POIN2	overdosing8850_2_067
// 184   ----------------------------------------
	BYTE	PATT
	 POIN2	overdosing8850_2_068
// 185   ----------------------------------------
	BYTE	PATT
	 POIN2	overdosing8850_2_069
// 186   ----------------------------------------
	BYTE	PATT
	 POIN2	overdosing8850_2_070
// 187   ----------------------------------------
	BYTE	PATT
	 POIN2	overdosing8850_2_071
// 188   ----------------------------------------
	BYTE	PATT
	 POIN2	overdosing8850_2_064
// 189   ----------------------------------------
	BYTE	PATT
	 POIN2	overdosing8850_2_065
// 190   ----------------------------------------
	BYTE	PATT
	 POIN2	overdosing8850_2_066
// 191   ----------------------------------------
	BYTE	PATT
	 POIN2	overdosing8850_2_067
// 192   ----------------------------------------
	BYTE	PATT
	 POIN2	overdosing8850_2_068
// 193   ----------------------------------------
	BYTE	PATT
	 POIN2	overdosing8850_2_069
// 194   ----------------------------------------
	BYTE	PATT
	 POIN2	overdosing8850_2_078
// 195   ----------------------------------------
	BYTE	PATT
	 POIN2	overdosing8850_2_079
// 196   ----------------------------------------
	BYTE	PATT
	 POIN2	overdosing8850_2_080
// 197   ----------------------------------------
	BYTE	PATT
	 POIN2	overdosing8850_2_081
// 198   ----------------------------------------
	BYTE		TIE     Fs0   v120
	BYTE	W96
// 199   ----------------------------------------
	BYTE	W92
	BYTE	W02
	BYTE		EOT   
	BYTE	W02
// 200   ----------------------------------------
	BYTE		TIE     Cs1 
	BYTE	W96
// 201   ----------------------------------------
	BYTE	W68
	BYTE	W03
	BYTE		EOT   
	BYTE	W24
	BYTE	W01
// 202   ----------------------------------------
	BYTE		N44     En1 
	BYTE	W96
// 203   ----------------------------------------
	BYTE		N88     Dn1 
	BYTE	W96
// 204   ----------------------------------------
	BYTE		N44     Gn1 
	BYTE	W96
// 205   ----------------------------------------
	BYTE		N88     Cn1 
	BYTE	W96
// 206   ----------------------------------------
	BYTE		N44     An0 
	BYTE	W96
// 207   ----------------------------------------
	BYTE	PATT
	 POIN2	overdosing8850_2_007
// 208   ----------------------------------------
	BYTE	PATT
	 POIN2	overdosing8850_2_008
// 209   ----------------------------------------
	BYTE	PATT
	 POIN2	overdosing8850_2_008
// 210   ----------------------------------------
	BYTE	PATT
	 POIN2	overdosing8850_2_010
// 211   ----------------------------------------
	BYTE	PATT
	 POIN2	overdosing8850_2_010
// 212   ----------------------------------------
	BYTE	PATT
	 POIN2	overdosing8850_2_012
// 213   ----------------------------------------
	BYTE	PATT
	 POIN2	overdosing8850_2_012
// 214   ----------------------------------------
	BYTE	PATT
	 POIN2	overdosing8850_2_012
// 215   ----------------------------------------
	BYTE	PATT
	 POIN2	overdosing8850_2_012
// 216   ----------------------------------------
	BYTE	PATT
	 POIN2	overdosing8850_2_012
// 217   ----------------------------------------
	BYTE	PATT
	 POIN2	overdosing8850_2_012
// 218   ----------------------------------------
	BYTE	PATT
	 POIN2	overdosing8850_2_012
// 219   ----------------------------------------
	BYTE	PATT
	 POIN2	overdosing8850_2_012
// 220   ----------------------------------------
	BYTE	PATT
	 POIN2	overdosing8850_2_012
// 221   ----------------------------------------
	BYTE	PATT
	 POIN2	overdosing8850_2_012
// 222   ----------------------------------------
	BYTE	PATT
	 POIN2	overdosing8850_2_012
// 223   ----------------------------------------
	BYTE	W96
// 224   ----------------------------------------
	BYTE		TIE     En0   v120
	BYTE	W96
// 225   ----------------------------------------
	BYTE	W96
// 226   ----------------------------------------
	BYTE	W92
	BYTE	W03
	BYTE		EOT   
	BYTE	W01
// 227   ----------------------------------------
	BYTE	W96
// 228   ----------------------------------------
	BYTE	W96
// 229   ----------------------------------------
	BYTE	W96
// 230   ----------------------------------------
	BYTE	W96
// 231   ----------------------------------------
	BYTE	FINE

//**************** Track 3 (Midi-Chn.3) ****************//

overdosing8850_3:
	BYTE	KEYSH   overdosing8850_key+0
// 000   ----------------------------------------
	BYTE	W48
	BYTE		VOICE   29
	BYTE		VOL     15*overdosing8850_mvl/mxv
	BYTE		PAN     c_v+0
	BYTE	W48
// 001   ----------------------------------------
	BYTE		MOD     0
	BYTE		BEND    c_v+0
	BYTE	W48
	BYTE	W24
	BYTE	W06
	BYTE	W06
	BYTE	W06
	BYTE	W06
// 002   ----------------------------------------
	BYTE	W96
// 003   ----------------------------------------
	BYTE	W96
// 004   ----------------------------------------
	BYTE	W96
// 005   ----------------------------------------
	BYTE	W96
// 006   ----------------------------------------
	BYTE	W96
// 007   ----------------------------------------
	BYTE	W96
// 008   ----------------------------------------
	BYTE	W96
// 009   ----------------------------------------
	BYTE	W96
// 010   ----------------------------------------
	BYTE	W96
// 011   ----------------------------------------
	BYTE	W96
// 012   ----------------------------------------
	BYTE	W96
// 013   ----------------------------------------
	BYTE	W96
// 014   ----------------------------------------
	BYTE	W96
// 015   ----------------------------------------
	BYTE	W96
// 016   ----------------------------------------
	BYTE	W96
// 017   ----------------------------------------
	BYTE	W96
// 018   ----------------------------------------
	BYTE	W96
// 019   ----------------------------------------
	BYTE	W96
// 020   ----------------------------------------
	BYTE	W96
// 021   ----------------------------------------
	BYTE	W96
// 022   ----------------------------------------
	BYTE	W96
// 023   ----------------------------------------
	BYTE	W96
// 024   ----------------------------------------
overdosing8850_3_024:
	BYTE		N11     En3   v120
	BYTE	W12
	BYTE		N05     Gn3 
	BYTE	W12
	BYTE		        Bn3 
	BYTE	W12
	BYTE		N56     Dn4 
	BYTE	W06
	BYTE		MOD     0
	BYTE	W01
	BYTE		        1
	BYTE	W01
	BYTE		        2
	BYTE	W01
	BYTE		        8
	BYTE	W01
	BYTE		        11
	BYTE	W02
	BYTE		        21
	BYTE	W01
	BYTE		        24
	BYTE	W01
	BYTE		        28
	BYTE	W01
	BYTE		        51
	BYTE	W01
	BYTE		        60
	BYTE	W01
	BYTE		        67
	BYTE	W01
	BYTE		        91
	BYTE	W01
	BYTE		        111
	BYTE	W01
	BYTE		        127
	BYTE	W36
	BYTE	W03
	BYTE		        0
	BYTE	W01
	BYTE	PEND
// 025   ----------------------------------------
overdosing8850_3_025:
	BYTE		N32     Cs4   v120
	BYTE	W36
	BYTE		N05     Dn4 
	BYTE	W06
	BYTE		        Cs4 
	BYTE	W06
	BYTE		N23     Bn3 
	BYTE	W24
	BYTE		        An3 
	BYTE	W24
	BYTE	PEND
// 026   ----------------------------------------
overdosing8850_3_026:
	BYTE		N23     Bn3   v120
	BYTE	W24
	BYTE		        En4 
	BYTE	W24
	BYTE		        Gn3 
	BYTE	W24
	BYTE		        An3 
	BYTE	W24
	BYTE	PEND
// 027   ----------------------------------------
overdosing8850_3_027:
	BYTE		N32     Bn3   v120
	BYTE	W02
	BYTE		MOD     0
	BYTE	W01
	BYTE		        25
	BYTE	W01
	BYTE		        38
	BYTE	W01
	BYTE		        51
	BYTE	W01
	BYTE		        76
	BYTE	W01
	BYTE		        89
	BYTE	W01
	BYTE		        102
	BYTE	W01
	BYTE		        127
	BYTE	W24
	BYTE	W02
	BYTE		        0
	BYTE	W01
	BYTE		N11     An3 
	BYTE	W12
	BYTE		N23     En3 
	BYTE	W24
	BYTE		        An3 
	BYTE	W24
	BYTE	PEND
// 028   ----------------------------------------
overdosing8850_3_028:
	BYTE		N80     Bn3   v120
	BYTE	W24
	BYTE	W01
	BYTE		MOD     7
	BYTE	W01
	BYTE		        14
	BYTE	W01
	BYTE		        29
	BYTE	W01
	BYTE		        36
	BYTE	W01
	BYTE		        43
	BYTE	W01
	BYTE		        57
	BYTE	W01
	BYTE		        64
	BYTE	W01
	BYTE		        71
	BYTE	W01
	BYTE		        85
	BYTE	W01
	BYTE		        92
	BYTE	W01
	BYTE		        99
	BYTE	W01
	BYTE		        113
	BYTE	W01
	BYTE		        120
	BYTE	W01
	BYTE		        127
	BYTE	W44
	BYTE		        0
	BYTE	W02
	BYTE		N05     An3 
	BYTE	W06
	BYTE		        Bn3 
	BYTE	W06
	BYTE	PEND
// 029   ----------------------------------------
overdosing8850_3_029:
	BYTE		N44     Cs4   v120
	BYTE	W06
	BYTE		MOD     12
	BYTE	W01
	BYTE		        25
	BYTE	W01
	BYTE		        38
	BYTE	W01
	BYTE		        63
	BYTE	W01
	BYTE		        76
	BYTE	W01
	BYTE		        89
	BYTE	W01
	BYTE		        114
	BYTE	W01
	BYTE		        122
	BYTE	W01
	BYTE		        127
	BYTE	W32
	BYTE	W01
	BYTE		        0
	BYTE	W01
	BYTE		N44     An3 
	BYTE	W48
	BYTE	PEND
// 030   ----------------------------------------
overdosing8850_3_030:
	BYTE		N92     Bn3   v120
	BYTE	W24
	BYTE		MOD     12
	BYTE	W01
	BYTE		        18
	BYTE	W01
	BYTE		        24
	BYTE	W01
	BYTE		        36
	BYTE	W01
	BYTE		        42
	BYTE	W01
	BYTE		        48
	BYTE	W01
	BYTE		        60
	BYTE	W01
	BYTE		        67
	BYTE	W01
	BYTE		        73
	BYTE	W01
	BYTE		        85
	BYTE	W01
	BYTE		        91
	BYTE	W01
	BYTE		        97
	BYTE	W01
	BYTE		        109
	BYTE	W01
	BYTE		        115
	BYTE	W01
	BYTE		        122
	BYTE	W01
	BYTE		        127
	BYTE	W56
	BYTE		        0
	BYTE	W01
	BYTE	PEND
// 031   ----------------------------------------
	BYTE	W96
// 032   ----------------------------------------
	BYTE	W96
// 033   ----------------------------------------
	BYTE	W96
// 034   ----------------------------------------
overdosing8850_3_034:
	BYTE		N11     En3   v120
	BYTE	W12
	BYTE		N05     Gn3 
	BYTE	W12
	BYTE		        Bn3 
	BYTE	W12
	BYTE		N56     Dn4 
	BYTE	W09
	BYTE		MOD     2
	BYTE	W01
	BYTE		        5
	BYTE	W01
	BYTE		        7
	BYTE	W01
	BYTE		        13
	BYTE	W01
	BYTE		        17
	BYTE	W01
	BYTE		        19
	BYTE	W01
	BYTE		        31
	BYTE	W01
	BYTE		        33
	BYTE	W01
	BYTE		        46
	BYTE	W01
	BYTE		        55
	BYTE	W01
	BYTE		        66
	BYTE	W01
	BYTE		        81
	BYTE	W01
	BYTE		        102
	BYTE	W01
	BYTE		        127
	BYTE	W36
	BYTE	W01
	BYTE		        0
	BYTE	W01
	BYTE	PEND
// 035   ----------------------------------------
	BYTE	PATT
	 POIN2	overdosing8850_3_025
// 036   ----------------------------------------
overdosing8850_3_036:
	BYTE		N23     Bn3   v120
	BYTE	W24
	BYTE		        En4 
	BYTE	W24
	BYTE		        Gn4 
	BYTE	W24
	BYTE		        Bn4 
	BYTE	W24
	BYTE	PEND
// 037   ----------------------------------------
overdosing8850_3_037:
	BYTE		N23     An4   v120
	BYTE	W24
	BYTE		        Gn4 
	BYTE	W24
	BYTE		        Fn4 
	BYTE	W24
	BYTE		        En4 
	BYTE	W24
	BYTE	PEND
// 038   ----------------------------------------
overdosing8850_3_038:
	BYTE		N80     Ds4   v120
	BYTE	W09
	BYTE		MOD     6
	BYTE	W01
	BYTE		        12
	BYTE	W01
	BYTE		        18
	BYTE	W01
	BYTE		        31
	BYTE	W01
	BYTE		        37
	BYTE	W01
	BYTE		        43
	BYTE	W01
	BYTE		        55
	BYTE	W01
	BYTE		        61
	BYTE	W01
	BYTE		        67
	BYTE	W01
	BYTE		        79
	BYTE	W01
	BYTE		        85
	BYTE	W01
	BYTE		        91
	BYTE	W01
	BYTE		        103
	BYTE	W01
	BYTE		        109
	BYTE	W01
	BYTE		        115
	BYTE	W01
	BYTE		        127
	BYTE	W01
	BYTE		        127
	BYTE	W56
	BYTE	W02
	BYTE		        0
	BYTE	W01
	BYTE		N05     Cs4 
	BYTE	W06
	BYTE		        Ds4 
	BYTE	W06
	BYTE	PEND
// 039   ----------------------------------------
overdosing8850_3_039:
	BYTE		N44     Fn4   v120
	BYTE	W06
	BYTE		MOD     7
	BYTE	W01
	BYTE		        14
	BYTE	W01
	BYTE		        20
	BYTE	W01
	BYTE		        34
	BYTE	W01
	BYTE		        40
	BYTE	W01
	BYTE		        47
	BYTE	W01
	BYTE		        61
	BYTE	W01
	BYTE		        67
	BYTE	W01
	BYTE		        74
	BYTE	W01
	BYTE		        87
	BYTE	W01
	BYTE		        94
	BYTE	W01
	BYTE		        101
	BYTE	W01
	BYTE		        114
	BYTE	W01
	BYTE		        121
	BYTE	W01
	BYTE		        127
	BYTE	W24
	BYTE	W02
	BYTE		        0
	BYTE	W02
	BYTE		N44     Cs4 
	BYTE	W48
	BYTE	PEND
// 040   ----------------------------------------
overdosing8850_3_040:
	BYTE		N92     Ds4   v120
	BYTE	W20
	BYTE		MOD     10
	BYTE	W01
	BYTE		        30
	BYTE	W01
	BYTE		        39
	BYTE	W01
	BYTE		        49
	BYTE	W01
	BYTE		        69
	BYTE	W01
	BYTE		        79
	BYTE	W01
	BYTE		        88
	BYTE	W01
	BYTE		        108
	BYTE	W01
	BYTE		        118
	BYTE	W01
	BYTE		        127
	BYTE	W64
	BYTE	W01
	BYTE		        0
	BYTE	W02
	BYTE	PEND
// 041   ----------------------------------------
	BYTE	W96
// 042   ----------------------------------------
	BYTE	W96
// 043   ----------------------------------------
	BYTE	W96
// 044   ----------------------------------------
	BYTE	W96
// 045   ----------------------------------------
	BYTE	W96
// 046   ----------------------------------------
	BYTE	W96
// 047   ----------------------------------------
	BYTE	W96
// 048   ----------------------------------------
	BYTE	W96
// 049   ----------------------------------------
	BYTE	W96
// 050   ----------------------------------------
	BYTE	W96
// 051   ----------------------------------------
	BYTE	W96
// 052   ----------------------------------------
	BYTE	W96
// 053   ----------------------------------------
	BYTE	W96
// 054   ----------------------------------------
	BYTE	W96
// 055   ----------------------------------------
	BYTE	W96
// 056   ----------------------------------------
	BYTE	W96
// 057   ----------------------------------------
	BYTE	W96
// 058   ----------------------------------------
	BYTE	W96
// 059   ----------------------------------------
	BYTE	W96
// 060   ----------------------------------------
	BYTE	W96
// 061   ----------------------------------------
	BYTE	W96
// 062   ----------------------------------------
	BYTE	W96
// 063   ----------------------------------------
	BYTE	W72
	BYTE		N22     Ds3 
	BYTE	W24
// 064   ----------------------------------------
overdosing8850_3_064:
	BYTE		N10     Fn3   v120
	BYTE	W24
	BYTE		N22     Fn4 
	BYTE	W24
	BYTE		N10     Ds4 
	BYTE	W24
	BYTE		N22     As3 
	BYTE	W24
	BYTE	PEND
// 065   ----------------------------------------
overdosing8850_3_065:
	BYTE		N32     Cn4   v120
	BYTE	W07
	BYTE		MOD     0
	BYTE	W01
	BYTE		        12
	BYTE	W01
	BYTE		        38
	BYTE	W01
	BYTE		        51
	BYTE	W01
	BYTE		        63
	BYTE	W01
	BYTE		        89
	BYTE	W01
	BYTE		        102
	BYTE	W01
	BYTE		        115
	BYTE	W01
	BYTE		        127
	BYTE	W19
	BYTE		        0
	BYTE	W02
	BYTE		N10     As3 
	BYTE	W12
	BYTE		N22     Fn3 
	BYTE	W24
	BYTE		        Ds4 
	BYTE	W24
	BYTE	PEND
// 066   ----------------------------------------
overdosing8850_3_066:
	BYTE		N10     Fn4   v120
	BYTE	W24
	BYTE		N22     Gs4 
	BYTE	W24
	BYTE		N10     Gn4 
	BYTE	W24
	BYTE		N22     Ds4 
	BYTE	W24
	BYTE	PEND
// 067   ----------------------------------------
overdosing8850_3_067:
	BYTE		N68     Cn4   v120
	BYTE	W15
	BYTE		MOD     0
	BYTE	W01
	BYTE		        8
	BYTE	W01
	BYTE		        15
	BYTE	W01
	BYTE		        30
	BYTE	W01
	BYTE		        38
	BYTE	W01
	BYTE		        45
	BYTE	W01
	BYTE		        60
	BYTE	W01
	BYTE		        68
	BYTE	W01
	BYTE		        75
	BYTE	W01
	BYTE		        90
	BYTE	W01
	BYTE		        98
	BYTE	W01
	BYTE		        105
	BYTE	W01
	BYTE		        120
	BYTE	W01
	BYTE		        127
	BYTE	W42
	BYTE		        0
	BYTE	W02
	BYTE		N22     Ds3 
	BYTE	W24
	BYTE	PEND
// 068   ----------------------------------------
overdosing8850_3_068:
	BYTE		N10     Fn3   v120
	BYTE	W24
	BYTE		N22     Cn4 
	BYTE	W24
	BYTE		N10     As3 
	BYTE	W24
	BYTE		N22     Cn4 
	BYTE	W24
	BYTE	PEND
// 069   ----------------------------------------
overdosing8850_3_069:
	BYTE		N10     Ds4   v120
	BYTE	W24
	BYTE		N22     As3 
	BYTE	W24
	BYTE		        Gs3 
	BYTE	W24
	BYTE		        Gn3 
	BYTE	W24
	BYTE	PEND
// 070   ----------------------------------------
overdosing8850_3_070:
	BYTE		N32     Fn3   v120
	BYTE	W06
	BYTE		MOD     11
	BYTE	W01
	BYTE		        21
	BYTE	W01
	BYTE		        32
	BYTE	W01
	BYTE		        53
	BYTE	W01
	BYTE		        64
	BYTE	W01
	BYTE		        74
	BYTE	W01
	BYTE		        96
	BYTE	W01
	BYTE		        106
	BYTE	W01
	BYTE		        117
	BYTE	W01
	BYTE		        127
	BYTE	W19
	BYTE		        0
	BYTE	W02
	BYTE		N05     Ds3 
	BYTE	W06
	BYTE		        Fn3 
	BYTE	W06
	BYTE		N32     As3 
	BYTE	W36
	BYTE		N05     Fs3 
	BYTE	W06
	BYTE		        As3 
	BYTE	W06
	BYTE	PEND
// 071   ----------------------------------------
overdosing8850_3_071:
	BYTE		N32     Ds4   v120
	BYTE	W06
	BYTE		MOD     36
	BYTE	W01
	BYTE		        54
	BYTE	W01
	BYTE		        73
	BYTE	W01
	BYTE		        109
	BYTE	W01
	BYTE		        127
	BYTE	W24
	BYTE		        0
	BYTE	W02
	BYTE		N05     Cn4 
	BYTE	W06
	BYTE		        Ds4 
	BYTE	W06
	BYTE		N10     Gs4 
	BYTE	W24
	BYTE		N22     Ds3 
	BYTE	W24
	BYTE	PEND
// 072   ----------------------------------------
	BYTE	PATT
	 POIN2	overdosing8850_3_064
// 073   ----------------------------------------
overdosing8850_3_073:
	BYTE		N32     Cn4   v120
	BYTE	W07
	BYTE		MOD     0
	BYTE	W01
	BYTE		        12
	BYTE	W01
	BYTE		        38
	BYTE	W01
	BYTE		        51
	BYTE	W01
	BYTE		        63
	BYTE	W01
	BYTE		        89
	BYTE	W01
	BYTE		        102
	BYTE	W01
	BYTE		        115
	BYTE	W01
	BYTE		        127
	BYTE	W19
	BYTE		        0
	BYTE	W02
	BYTE		N10     As3 
	BYTE	W12
	BYTE		N22     Fn4 
	BYTE	W24
	BYTE		        Ds4 
	BYTE	W24
	BYTE	PEND
// 074   ----------------------------------------
	BYTE	PATT
	 POIN2	overdosing8850_3_066
// 075   ----------------------------------------
	BYTE	PATT
	 POIN2	overdosing8850_3_067
// 076   ----------------------------------------
	BYTE	PATT
	 POIN2	overdosing8850_3_068
// 077   ----------------------------------------
overdosing8850_3_077:
	BYTE		N10     Ds4   v120
	BYTE	W24
	BYTE		N22     As3 
	BYTE	W24
	BYTE		N10     Gs3 
	BYTE	W24
	BYTE		N22     Gn3 
	BYTE	W24
	BYTE	PEND
// 078   ----------------------------------------
overdosing8850_3_078:
	BYTE		N32     Fn3   v120
	BYTE	W06
	BYTE		MOD     11
	BYTE	W01
	BYTE		        21
	BYTE	W01
	BYTE		        32
	BYTE	W01
	BYTE		        53
	BYTE	W01
	BYTE		        64
	BYTE	W01
	BYTE		        74
	BYTE	W01
	BYTE		        96
	BYTE	W01
	BYTE		        106
	BYTE	W01
	BYTE		        117
	BYTE	W01
	BYTE		        127
	BYTE	W19
	BYTE		        0
	BYTE	W02
	BYTE		N05     Ds3 
	BYTE	W06
	BYTE		        Fn3 
	BYTE	W06
	BYTE		N32     As3 
	BYTE	W36
	BYTE		N05     Gs3 
	BYTE	W06
	BYTE		        Cn4 
	BYTE	W06
	BYTE	PEND
// 079   ----------------------------------------
overdosing8850_3_079:
	BYTE		N32     Ds4   v120
	BYTE	W06
	BYTE		MOD     36
	BYTE	W01
	BYTE		        54
	BYTE	W01
	BYTE		        73
	BYTE	W01
	BYTE		        109
	BYTE	W01
	BYTE		        127
	BYTE	W24
	BYTE		        0
	BYTE	W02
	BYTE		N05     Cn4 
	BYTE	W06
	BYTE		        Ds4 
	BYTE	W06
	BYTE		N32     Gs4 
	BYTE	W36
	BYTE		N05     Fs4 
	BYTE	W06
	BYTE		        Gs4 
	BYTE	W06
	BYTE	PEND
// 080   ----------------------------------------
overdosing8850_3_080:
	BYTE		N32     Cs5   v120
	BYTE	W09
	BYTE		MOD     28
	BYTE	W01
	BYTE		        42
	BYTE	W01
	BYTE		        57
	BYTE	W01
	BYTE		        85
	BYTE	W01
	BYTE		        99
	BYTE	W01
	BYTE		        113
	BYTE	W01
	BYTE		        127
	BYTE	W19
	BYTE		        0
	BYTE	W02
	BYTE		N05     Bn4 
	BYTE	W06
	BYTE		        Cs5 
	BYTE	W06
	BYTE		N32     Fs4 
	BYTE	W36
	BYTE		N05     En4 
	BYTE	W06
	BYTE		        Fs4 
	BYTE	W06
	BYTE	PEND
// 081   ----------------------------------------
overdosing8850_3_081:
	BYTE		N32     Bn4   v120
	BYTE	W04
	BYTE		MOD     13
	BYTE	W01
	BYTE		        25
	BYTE	W01
	BYTE		        51
	BYTE	W01
	BYTE		        63
	BYTE	W01
	BYTE		        76
	BYTE	W01
	BYTE		        102
	BYTE	W01
	BYTE		        114
	BYTE	W01
	BYTE		        124
	BYTE	W01
	BYTE		        127
	BYTE	W23
	BYTE		        0
	BYTE	W01
	BYTE		N05     An4 
	BYTE	W06
	BYTE		        Bn4 
	BYTE	W06
	BYTE		N11     En4 
	BYTE	W24
	BYTE		N23     An4 
	BYTE	W12
	BYTE		BEND    c_v+0
	BYTE	W01
	BYTE		        c_v-2
	BYTE	W01
	BYTE		        c_v-3
	BYTE	W01
	BYTE		        c_v-5
	BYTE	W01
	BYTE		        c_v-6
	BYTE	W01
	BYTE		        c_v-7
	BYTE	W01
	BYTE		        c_v-9
	BYTE	W01
	BYTE		        c_v-10
	BYTE	W01
	BYTE		        c_v-11
	BYTE	W01
	BYTE		        c_v-13
	BYTE	W01
	BYTE		        c_v-14
	BYTE	W01
	BYTE		        c_v+0
	BYTE	W01
	BYTE	PEND
// 082   ----------------------------------------
overdosing8850_3_082:
	BYTE		TIE     Fs4   v120
	BYTE	W42
	BYTE		MOD     31
	BYTE	W01
	BYTE		        47
	BYTE	W01
	BYTE		        63
	BYTE	W01
	BYTE		        95
	BYTE	W01
	BYTE		        109
	BYTE	W01
	BYTE		        121
	BYTE	W01
	BYTE		        127
	BYTE	W48
	BYTE	PEND
// 083   ----------------------------------------
	BYTE	W44
	BYTE	W03
	BYTE		EOT   
	BYTE	W01
	BYTE		MOD     0
	BYTE	W48
// 084   ----------------------------------------
	BYTE	W96
// 085   ----------------------------------------
	BYTE	W96
// 086   ----------------------------------------
	BYTE	W96
// 087   ----------------------------------------
	BYTE	W96
// 088   ----------------------------------------
	BYTE	W96
// 089   ----------------------------------------
	BYTE	W96
// 090   ----------------------------------------
	BYTE	W96
// 091   ----------------------------------------
	BYTE	W96
// 092   ----------------------------------------
	BYTE	W96
// 093   ----------------------------------------
	BYTE	W96
// 094   ----------------------------------------
	BYTE	PATT
	 POIN2	overdosing8850_3_024
// 095   ----------------------------------------
	BYTE	PATT
	 POIN2	overdosing8850_3_025
// 096   ----------------------------------------
	BYTE	PATT
	 POIN2	overdosing8850_3_026
// 097   ----------------------------------------
	BYTE	PATT
	 POIN2	overdosing8850_3_027
// 098   ----------------------------------------
	BYTE	PATT
	 POIN2	overdosing8850_3_028
// 099   ----------------------------------------
	BYTE	PATT
	 POIN2	overdosing8850_3_029
// 100   ----------------------------------------
	BYTE	PATT
	 POIN2	overdosing8850_3_030
// 101   ----------------------------------------
	BYTE	W96
// 102   ----------------------------------------
	BYTE	W96
// 103   ----------------------------------------
	BYTE	W96
// 104   ----------------------------------------
	BYTE	PATT
	 POIN2	overdosing8850_3_034
// 105   ----------------------------------------
	BYTE	PATT
	 POIN2	overdosing8850_3_025
// 106   ----------------------------------------
	BYTE	PATT
	 POIN2	overdosing8850_3_036
// 107   ----------------------------------------
	BYTE	PATT
	 POIN2	overdosing8850_3_037
// 108   ----------------------------------------
	BYTE	PATT
	 POIN2	overdosing8850_3_038
// 109   ----------------------------------------
	BYTE	PATT
	 POIN2	overdosing8850_3_039
// 110   ----------------------------------------
	BYTE	PATT
	 POIN2	overdosing8850_3_040
// 111   ----------------------------------------
	BYTE	W96
// 112   ----------------------------------------
	BYTE	W96
// 113   ----------------------------------------
	BYTE	W96
// 114   ----------------------------------------
	BYTE	W96
// 115   ----------------------------------------
	BYTE	W96
// 116   ----------------------------------------
	BYTE	W96
// 117   ----------------------------------------
	BYTE	W96
// 118   ----------------------------------------
	BYTE	W96
// 119   ----------------------------------------
	BYTE	W96
// 120   ----------------------------------------
	BYTE	W96
// 121   ----------------------------------------
	BYTE	W96
// 122   ----------------------------------------
	BYTE	W96
// 123   ----------------------------------------
	BYTE	W96
// 124   ----------------------------------------
	BYTE	W96
// 125   ----------------------------------------
	BYTE	W96
// 126   ----------------------------------------
	BYTE	W96
// 127   ----------------------------------------
	BYTE	W96
// 128   ----------------------------------------
	BYTE	W96
// 129   ----------------------------------------
	BYTE	W96
// 130   ----------------------------------------
	BYTE	W96
// 131   ----------------------------------------
	BYTE	W96
// 132   ----------------------------------------
	BYTE	W96
// 133   ----------------------------------------
	BYTE	W72
	BYTE		N22     Ds3   v120
	BYTE	W24
// 134   ----------------------------------------
	BYTE	PATT
	 POIN2	overdosing8850_3_064
// 135   ----------------------------------------
	BYTE	PATT
	 POIN2	overdosing8850_3_065
// 136   ----------------------------------------
	BYTE	PATT
	 POIN2	overdosing8850_3_066
// 137   ----------------------------------------
	BYTE	PATT
	 POIN2	overdosing8850_3_067
// 138   ----------------------------------------
	BYTE	PATT
	 POIN2	overdosing8850_3_068
// 139   ----------------------------------------
	BYTE	PATT
	 POIN2	overdosing8850_3_069
// 140   ----------------------------------------
	BYTE	PATT
	 POIN2	overdosing8850_3_070
// 141   ----------------------------------------
	BYTE	PATT
	 POIN2	overdosing8850_3_071
// 142   ----------------------------------------
	BYTE	PATT
	 POIN2	overdosing8850_3_064
// 143   ----------------------------------------
	BYTE	PATT
	 POIN2	overdosing8850_3_073
// 144   ----------------------------------------
	BYTE	PATT
	 POIN2	overdosing8850_3_066
// 145   ----------------------------------------
	BYTE	PATT
	 POIN2	overdosing8850_3_067
// 146   ----------------------------------------
	BYTE	PATT
	 POIN2	overdosing8850_3_068
// 147   ----------------------------------------
	BYTE	PATT
	 POIN2	overdosing8850_3_077
// 148   ----------------------------------------
	BYTE	PATT
	 POIN2	overdosing8850_3_078
// 149   ----------------------------------------
	BYTE	PATT
	 POIN2	overdosing8850_3_079
// 150   ----------------------------------------
	BYTE	PATT
	 POIN2	overdosing8850_3_080
// 151   ----------------------------------------
	BYTE	PATT
	 POIN2	overdosing8850_3_081
// 152   ----------------------------------------
	BYTE	PATT
	 POIN2	overdosing8850_3_082
// 153   ----------------------------------------
	BYTE	W44
	BYTE	W03
	BYTE		EOT     Fs4 
	BYTE	W01
	BYTE		MOD     0
	BYTE	W48
// 154   ----------------------------------------
	BYTE	W96
// 155   ----------------------------------------
	BYTE	W96
// 156   ----------------------------------------
	BYTE	W96
// 157   ----------------------------------------
	BYTE	W96
// 158   ----------------------------------------
	BYTE	W96
// 159   ----------------------------------------
	BYTE	W96
// 160   ----------------------------------------
	BYTE	W96
// 161   ----------------------------------------
	BYTE	W96
// 162   ----------------------------------------
	BYTE	W96
// 163   ----------------------------------------
	BYTE	W96
// 164   ----------------------------------------
	BYTE	W96
// 165   ----------------------------------------
	BYTE	W96
// 166   ----------------------------------------
	BYTE	W96
// 167   ----------------------------------------
	BYTE	W96
// 168   ----------------------------------------
	BYTE	W96
// 169   ----------------------------------------
	BYTE	W96
// 170   ----------------------------------------
	BYTE	W96
// 171   ----------------------------------------
	BYTE	W96
// 172   ----------------------------------------
	BYTE	W96
// 173   ----------------------------------------
	BYTE	W96
// 174   ----------------------------------------
	BYTE	W96
// 175   ----------------------------------------
	BYTE	W96
// 176   ----------------------------------------
	BYTE	W96
// 177   ----------------------------------------
	BYTE	W96
// 178   ----------------------------------------
	BYTE	W96
// 179   ----------------------------------------
	BYTE	W72
	BYTE		N22     Ds3   v120
	BYTE	W24
// 180   ----------------------------------------
	BYTE	PATT
	 POIN2	overdosing8850_3_064
// 181   ----------------------------------------
	BYTE	PATT
	 POIN2	overdosing8850_3_065
// 182   ----------------------------------------
	BYTE	PATT
	 POIN2	overdosing8850_3_066
// 183   ----------------------------------------
	BYTE	PATT
	 POIN2	overdosing8850_3_067
// 184   ----------------------------------------
	BYTE	PATT
	 POIN2	overdosing8850_3_068
// 185   ----------------------------------------
	BYTE	PATT
	 POIN2	overdosing8850_3_069
// 186   ----------------------------------------
	BYTE	PATT
	 POIN2	overdosing8850_3_070
// 187   ----------------------------------------
	BYTE	PATT
	 POIN2	overdosing8850_3_071
// 188   ----------------------------------------
	BYTE	PATT
	 POIN2	overdosing8850_3_064
// 189   ----------------------------------------
	BYTE	PATT
	 POIN2	overdosing8850_3_073
// 190   ----------------------------------------
	BYTE		N10     Fn4   v120
	BYTE	W12
	BYTE		        Cn4 
	BYTE	W12
	BYTE		N11     Gs4 
	BYTE	W12
	BYTE		        Gn4 
	BYTE	W12
	BYTE		N10     Cn5 
	BYTE	W12
	BYTE		        As4 
	BYTE	W12
	BYTE		N11     Gn4 
	BYTE	W12
	BYTE		        As4 
	BYTE	W12
// 191   ----------------------------------------
	BYTE		N56     Gs4 
	BYTE	W16
	BYTE		MOD     8
	BYTE	W01
	BYTE		        15
	BYTE	W01
	BYTE		        30
	BYTE	W01
	BYTE		        38
	BYTE	W01
	BYTE		        45
	BYTE	W01
	BYTE		        60
	BYTE	W01
	BYTE		        68
	BYTE	W01
	BYTE		        75
	BYTE	W01
	BYTE		        90
	BYTE	W01
	BYTE		        98
	BYTE	W01
	BYTE		        105
	BYTE	W01
	BYTE		        120
	BYTE	W01
	BYTE		        127
	BYTE	W30
	BYTE	W01
	BYTE		        0
	BYTE	W01
	BYTE		N10     Cn4 
	BYTE	W12
	BYTE		        Gn3 
	BYTE	W12
	BYTE		        Ds3 
	BYTE	W12
// 192   ----------------------------------------
	BYTE	PATT
	 POIN2	overdosing8850_3_068
// 193   ----------------------------------------
	BYTE		N10     Ds4   v120
	BYTE	W24
	BYTE		N22     As3 
	BYTE	W24
	BYTE		N10     Gs4 
	BYTE	W24
	BYTE		N22     Gn4 
	BYTE	W24
// 194   ----------------------------------------
	BYTE		N32     Fn4 
	BYTE	W06
	BYTE		MOD     11
	BYTE	W01
	BYTE		        21
	BYTE	W01
	BYTE		        32
	BYTE	W01
	BYTE		        53
	BYTE	W01
	BYTE		        64
	BYTE	W01
	BYTE		        74
	BYTE	W01
	BYTE		        96
	BYTE	W01
	BYTE		        106
	BYTE	W01
	BYTE		        117
	BYTE	W01
	BYTE		        127
	BYTE	W19
	BYTE		        0
	BYTE	W02
	BYTE		N05     Ds4 
	BYTE	W06
	BYTE		        Fn4 
	BYTE	W06
	BYTE		N32     As4 
	BYTE	W36
	BYTE		N05     Gs4 
	BYTE	W06
	BYTE		        Fn4 
	BYTE	W06
// 195   ----------------------------------------
	BYTE	PATT
	 POIN2	overdosing8850_3_079
// 196   ----------------------------------------
	BYTE	PATT
	 POIN2	overdosing8850_3_080
// 197   ----------------------------------------
	BYTE	PATT
	 POIN2	overdosing8850_3_081
// 198   ----------------------------------------
	BYTE	PATT
	 POIN2	overdosing8850_3_082
// 199   ----------------------------------------
	BYTE	W44
	BYTE	W03
	BYTE		EOT     Fs4 
	BYTE	W01
	BYTE		MOD     0
	BYTE	W48
// 200   ----------------------------------------
	BYTE	W96
// 201   ----------------------------------------
	BYTE	W96
// 202   ----------------------------------------
	BYTE	W96
// 203   ----------------------------------------
	BYTE	W96
// 204   ----------------------------------------
	BYTE	W96
// 205   ----------------------------------------
	BYTE	W96
// 206   ----------------------------------------
	BYTE	W96
// 207   ----------------------------------------
	BYTE	W96
// 208   ----------------------------------------
	BYTE	W96
// 209   ----------------------------------------
	BYTE	W96
// 210   ----------------------------------------
	BYTE	W96
// 211   ----------------------------------------
	BYTE	W96
// 212   ----------------------------------------
	BYTE	W96
// 213   ----------------------------------------
	BYTE	W96
// 214   ----------------------------------------
	BYTE	W96
// 215   ----------------------------------------
	BYTE	W96
// 216   ----------------------------------------
	BYTE	W96
// 217   ----------------------------------------
	BYTE	W96
// 218   ----------------------------------------
	BYTE	W96
// 219   ----------------------------------------
	BYTE	W96
// 220   ----------------------------------------
	BYTE	W96
// 221   ----------------------------------------
	BYTE	W96
// 222   ----------------------------------------
	BYTE	W96
// 223   ----------------------------------------
	BYTE	W96
// 224   ----------------------------------------
	BYTE	W96
// 225   ----------------------------------------
	BYTE	W96
// 226   ----------------------------------------
	BYTE	W96
// 227   ----------------------------------------
	BYTE	W96
// 228   ----------------------------------------
	BYTE	W96
// 229   ----------------------------------------
	BYTE	W96
// 230   ----------------------------------------
	BYTE	W96
// 231   ----------------------------------------
	BYTE	FINE

//**************** Track 4 (Midi-Chn.4) ****************//

overdosing8850_4:
	BYTE	KEYSH   overdosing8850_key+0
// 000   ----------------------------------------
	BYTE	W48
	BYTE		VOICE   50
	BYTE		VOL     103*overdosing8850_mvl/mxv
	BYTE		PAN     c_v+0
	BYTE	W48
// 001   ----------------------------------------
	BYTE		MOD     0
	BYTE		BEND    c_v+0
	BYTE	W48
	BYTE	W24
	BYTE	W06
	BYTE	W06
	BYTE	W06
	BYTE	W06
// 002   ----------------------------------------
overdosing8850_4_002:
	BYTE		N44     Gn3   v100
	BYTE		N44     Bn3 
	BYTE		N44     Dn4 
	BYTE	W96
	BYTE	PEND
// 003   ----------------------------------------
overdosing8850_4_003:
	BYTE		N92     Dn3   v100
	BYTE		N92     Fs3 
	BYTE		N92     An3 
	BYTE	W96
	BYTE	PEND
// 004   ----------------------------------------
overdosing8850_4_004:
	BYTE		N44     Dn3   v100
	BYTE		N44     Gn3 
	BYTE		N44     Bn3 
	BYTE	W96
	BYTE	PEND
// 005   ----------------------------------------
overdosing8850_4_005:
	BYTE		N92     Gn2   v100
	BYTE		N92     Bn2 
	BYTE		N92     En3 
	BYTE	W96
	BYTE	PEND
// 006   ----------------------------------------
overdosing8850_4_006:
	BYTE		N44     An2   v100
	BYTE		N44     Cn3 
	BYTE		N44     En3 
	BYTE	W96
	BYTE	PEND
// 007   ----------------------------------------
overdosing8850_4_007:
	BYTE		N44     Bn2   v100
	BYTE		N44     En3 
	BYTE		N44     Gn3 
	BYTE	W48
	BYTE		        Bn2 
	BYTE		N44     Dn3 
	BYTE		N44     Fs3 
	BYTE	W48
	BYTE	PEND
// 008   ----------------------------------------
overdosing8850_4_008:
	BYTE		N92     Cn3   v100
	BYTE		N92     En3 
	BYTE		N92     Fs3 
	BYTE	W96
	BYTE	PEND
// 009   ----------------------------------------
overdosing8850_4_009:
	BYTE		N92     Gn2   v100
	BYTE		N92     Cn3 
	BYTE		N92     En3 
	BYTE	W96
	BYTE	PEND
// 010   ----------------------------------------
overdosing8850_4_010:
	BYTE		N92     Cn3   v100
	BYTE		N92     En3 
	BYTE		N92     Gn3 
	BYTE	W96
	BYTE	PEND
// 011   ----------------------------------------
overdosing8850_4_011:
	BYTE		N92     An2   v100
	BYTE		N92     Dn3 
	BYTE		N92     Fs3 
	BYTE	W96
	BYTE	PEND
// 012   ----------------------------------------
overdosing8850_4_012:
	BYTE		TIE     An2   v100
	BYTE		TIE     Dn3 
	BYTE		TIE     Fs3 
	BYTE	W96
	BYTE	PEND
// 013   ----------------------------------------
	BYTE	W92
	BYTE	W02
	BYTE		EOT     An2 
	BYTE		        Dn3 
	BYTE		        Fs3 
	BYTE	W02
// 014   ----------------------------------------
	BYTE	W96
// 015   ----------------------------------------
	BYTE	W96
// 016   ----------------------------------------
	BYTE	W96
// 017   ----------------------------------------
	BYTE	W96
// 018   ----------------------------------------
	BYTE	W96
// 019   ----------------------------------------
	BYTE	W96
// 020   ----------------------------------------
	BYTE	W96
// 021   ----------------------------------------
	BYTE	W96
// 022   ----------------------------------------
	BYTE	W96
// 023   ----------------------------------------
	BYTE	W96
// 024   ----------------------------------------
overdosing8850_4_024:
	BYTE		N11     En3   v120
	BYTE	W12
	BYTE		N05     Gn3 
	BYTE	W12
	BYTE		        Bn3 
	BYTE	W12
	BYTE		N56     Dn4 
	BYTE	W60
	BYTE	PEND
// 025   ----------------------------------------
overdosing8850_4_025:
	BYTE		N32     Cs4   v120
	BYTE	W36
	BYTE		N05     Dn4 
	BYTE	W06
	BYTE		        Cs4 
	BYTE	W06
	BYTE		N23     Bn3 
	BYTE	W24
	BYTE		        An3 
	BYTE	W24
	BYTE	PEND
// 026   ----------------------------------------
overdosing8850_4_026:
	BYTE		N23     Bn3   v120
	BYTE	W24
	BYTE		        En4 
	BYTE	W24
	BYTE		        Gn3 
	BYTE	W24
	BYTE		        An3 
	BYTE	W24
	BYTE	PEND
// 027   ----------------------------------------
overdosing8850_4_027:
	BYTE		N32     Bn3   v120
	BYTE	W36
	BYTE		N11     An3 
	BYTE	W12
	BYTE		N23     En3 
	BYTE	W24
	BYTE		        An3 
	BYTE	W24
	BYTE	PEND
// 028   ----------------------------------------
overdosing8850_4_028:
	BYTE		N80     Bn3   v120
	BYTE	W84
	BYTE		N05     An3 
	BYTE	W06
	BYTE		        Bn3 
	BYTE	W06
	BYTE	PEND
// 029   ----------------------------------------
overdosing8850_4_029:
	BYTE		N44     Cs4   v120
	BYTE	W48
	BYTE		        An3 
	BYTE	W48
	BYTE	PEND
// 030   ----------------------------------------
	BYTE		N92     Bn3 
	BYTE	W96
// 031   ----------------------------------------
	BYTE	W96
// 032   ----------------------------------------
	BYTE	W96
// 033   ----------------------------------------
	BYTE	W96
// 034   ----------------------------------------
	BYTE	PATT
	 POIN2	overdosing8850_4_024
// 035   ----------------------------------------
	BYTE	PATT
	 POIN2	overdosing8850_4_025
// 036   ----------------------------------------
overdosing8850_4_036:
	BYTE		N23     Bn3   v120
	BYTE	W24
	BYTE		        En4 
	BYTE	W24
	BYTE		        Gn4 
	BYTE	W24
	BYTE		        Bn4 
	BYTE	W24
	BYTE	PEND
// 037   ----------------------------------------
overdosing8850_4_037:
	BYTE		N23     An4   v120
	BYTE	W24
	BYTE		        Gn4 
	BYTE	W24
	BYTE		        Fn4 
	BYTE	W24
	BYTE		        En4 
	BYTE	W24
	BYTE	PEND
// 038   ----------------------------------------
overdosing8850_4_038:
	BYTE		N80     Ds4   v120
	BYTE	W84
	BYTE		N05     Cs4 
	BYTE	W06
	BYTE		        Ds4 
	BYTE	W06
	BYTE	PEND
// 039   ----------------------------------------
overdosing8850_4_039:
	BYTE		N44     Fn4   v120
	BYTE	W48
	BYTE		        Cs4 
	BYTE	W48
	BYTE	PEND
// 040   ----------------------------------------
	BYTE		N92     Ds4 
	BYTE	W96
// 041   ----------------------------------------
	BYTE	W96
// 042   ----------------------------------------
	BYTE	W96
// 043   ----------------------------------------
	BYTE	W96
// 044   ----------------------------------------
	BYTE	W96
// 045   ----------------------------------------
	BYTE	W96
// 046   ----------------------------------------
	BYTE	W96
// 047   ----------------------------------------
	BYTE	W96
// 048   ----------------------------------------
	BYTE	W96
// 049   ----------------------------------------
	BYTE	W96
// 050   ----------------------------------------
	BYTE	W96
// 051   ----------------------------------------
	BYTE	W96
// 052   ----------------------------------------
	BYTE	W96
// 053   ----------------------------------------
	BYTE	W96
// 054   ----------------------------------------
	BYTE	W96
// 055   ----------------------------------------
	BYTE	W96
// 056   ----------------------------------------
	BYTE	W96
// 057   ----------------------------------------
	BYTE	W96
// 058   ----------------------------------------
	BYTE	W96
// 059   ----------------------------------------
	BYTE	W96
// 060   ----------------------------------------
	BYTE	W96
// 061   ----------------------------------------
	BYTE	W96
// 062   ----------------------------------------
	BYTE	W96
// 063   ----------------------------------------
overdosing8850_4_063:
	BYTE	W72
	BYTE		N22     As2   v120
	BYTE		N22     Ds3 
	BYTE	W24
	BYTE	PEND
// 064   ----------------------------------------
overdosing8850_4_064:
	BYTE		N10     Cn3   v120
	BYTE		N10     Fn3 
	BYTE	W24
	BYTE		N22     Cn4 
	BYTE		N22     Fn4 
	BYTE	W24
	BYTE		N10     As3 
	BYTE		N10     Ds4 
	BYTE	W24
	BYTE		N22     Gn3 
	BYTE		N22     As3 
	BYTE	W24
	BYTE	PEND
// 065   ----------------------------------------
overdosing8850_4_065:
	BYTE		N32     Gs3   v120
	BYTE		N32     Cn4 
	BYTE	W36
	BYTE		N10     Fn3 
	BYTE		N10     As3 
	BYTE	W12
	BYTE		N22     Cn3 
	BYTE		N22     Fn3 
	BYTE	W24
	BYTE		        As3 
	BYTE		N22     Ds4 
	BYTE	W24
	BYTE	PEND
// 066   ----------------------------------------
overdosing8850_4_066:
	BYTE		N10     Cs4   v120
	BYTE		N10     Fn4 
	BYTE	W24
	BYTE		N22   
	BYTE		N22     Gs4 
	BYTE	W24
	BYTE		N10     Ds4 
	BYTE		N10     Gn4 
	BYTE	W24
	BYTE		N22     Cn4 
	BYTE		N22     Ds4 
	BYTE	W24
	BYTE	PEND
// 067   ----------------------------------------
overdosing8850_4_067:
	BYTE		N68     Gs3   v120
	BYTE		N68     Cn4 
	BYTE	W72
	BYTE		N22     As2 
	BYTE		N22     Ds3 
	BYTE	W24
	BYTE	PEND
// 068   ----------------------------------------
overdosing8850_4_068:
	BYTE		N10     Cn3   v120
	BYTE		N10     Fn3 
	BYTE	W24
	BYTE		N22     Gs3 
	BYTE		N22     Cn4 
	BYTE	W24
	BYTE		N10     Gn3 
	BYTE		N10     As3 
	BYTE	W24
	BYTE		N22     Gs3 
	BYTE		N22     Cn4 
	BYTE	W24
	BYTE	PEND
// 069   ----------------------------------------
overdosing8850_4_069:
	BYTE		N10     As3   v120
	BYTE		N10     Ds4 
	BYTE	W24
	BYTE		N22     Gn3 
	BYTE		N22     As3 
	BYTE	W24
	BYTE		        Fn3 
	BYTE		N22     Gs3 
	BYTE	W24
	BYTE		        Ds3 
	BYTE		N22     Gn3 
	BYTE	W24
	BYTE	PEND
// 070   ----------------------------------------
overdosing8850_4_070:
	BYTE		N32     Cs3   v120
	BYTE		N32     Fn3 
	BYTE	W36
	BYTE		N05     As2 
	BYTE		N05     Ds3 
	BYTE	W06
	BYTE		        Cs3 
	BYTE		N05     Fn3 
	BYTE	W06
	BYTE		N32   
	BYTE		N32     As3 
	BYTE	W36
	BYTE		N05     Cs3 
	BYTE		N05     Fs3 
	BYTE	W06
	BYTE		N05   
	BYTE		N05     As3 
	BYTE	W06
	BYTE	PEND
// 071   ----------------------------------------
overdosing8850_4_071:
	BYTE		N32     Gs3   v120
	BYTE		N32     Ds4 
	BYTE	W36
	BYTE		N05     Fs3 
	BYTE		N05     Cn4 
	BYTE	W06
	BYTE		        Gs3 
	BYTE		N05     Ds4 
	BYTE	W06
	BYTE		N10     Cs4 
	BYTE		N10     Gs4 
	BYTE	W24
	BYTE		N22     As2 
	BYTE		N22     Ds3 
	BYTE	W24
	BYTE	PEND
// 072   ----------------------------------------
	BYTE	PATT
	 POIN2	overdosing8850_4_064
// 073   ----------------------------------------
overdosing8850_4_073:
	BYTE		N32     Gs3   v120
	BYTE		N32     Cn4 
	BYTE	W36
	BYTE		N10     Fn3 
	BYTE		N10     As3 
	BYTE	W12
	BYTE		N22     Cn4 
	BYTE		N22     Fn4 
	BYTE	W24
	BYTE		        As3 
	BYTE		N22     Ds4 
	BYTE	W24
	BYTE	PEND
// 074   ----------------------------------------
	BYTE	PATT
	 POIN2	overdosing8850_4_066
// 075   ----------------------------------------
	BYTE	PATT
	 POIN2	overdosing8850_4_067
// 076   ----------------------------------------
	BYTE	PATT
	 POIN2	overdosing8850_4_068
// 077   ----------------------------------------
overdosing8850_4_077:
	BYTE		N10     As3   v120
	BYTE		N10     Ds4 
	BYTE	W24
	BYTE		N22     Gn3 
	BYTE		N22     As3 
	BYTE	W24
	BYTE		N10     Fn3 
	BYTE		N10     Gs3 
	BYTE	W24
	BYTE		N22     Ds3 
	BYTE		N22     Gn3 
	BYTE	W24
	BYTE	PEND
// 078   ----------------------------------------
overdosing8850_4_078:
	BYTE		N32     Cs3   v120
	BYTE		N32     Fn3 
	BYTE	W36
	BYTE		N05     As2 
	BYTE		N05     Ds3 
	BYTE	W06
	BYTE		        Cs3 
	BYTE		N05     Fn3 
	BYTE	W06
	BYTE		N32   
	BYTE		N32     As3 
	BYTE	W36
	BYTE		N05     Cs3 
	BYTE		N05     Gs3 
	BYTE	W06
	BYTE		        Fn3 
	BYTE		N05     Cn4 
	BYTE	W06
	BYTE	PEND
// 079   ----------------------------------------
overdosing8850_4_079:
	BYTE		N32     Gs3   v120
	BYTE		N32     Ds4 
	BYTE	W36
	BYTE		N05     Fs3 
	BYTE		N05     Cn4 
	BYTE	W06
	BYTE		        Gs3 
	BYTE		N05     Ds4 
	BYTE	W06
	BYTE		N32     Cs4 
	BYTE		N32     Gs4 
	BYTE	W36
	BYTE		N05     Bn3 
	BYTE		N05     Fs4 
	BYTE	W06
	BYTE		        Cs4 
	BYTE		N05     Gs4 
	BYTE	W06
	BYTE	PEND
// 080   ----------------------------------------
overdosing8850_4_080:
	BYTE		N32     Gs4   v120
	BYTE		N32     Cs5 
	BYTE	W36
	BYTE		N05     Fs4 
	BYTE		N05     Bn4 
	BYTE	W06
	BYTE		        Gs4 
	BYTE		N05     Cs5 
	BYTE	W06
	BYTE		N32     Cs4 
	BYTE		N32     Fs4 
	BYTE	W36
	BYTE		N05     Bn3 
	BYTE		N05     En4 
	BYTE	W06
	BYTE		        Cs4 
	BYTE		N05     Fs4 
	BYTE	W06
	BYTE	PEND
// 081   ----------------------------------------
overdosing8850_4_081:
	BYTE		N32     Fs4   v120
	BYTE		N32     Bn4 
	BYTE	W36
	BYTE		N05     En4 
	BYTE		N05     An4 
	BYTE	W06
	BYTE		        Fs4 
	BYTE		N05     Bn4 
	BYTE	W06
	BYTE		N11     Bn3 
	BYTE		N11     En4 
	BYTE	W24
	BYTE		N11   
	BYTE		N11     An4 
	BYTE	W12
	BYTE		N05     Ds4 
	BYTE		N05     Gs4 
	BYTE	W06
	BYTE		        Dn4 
	BYTE		N05     Gn4 
	BYTE	W06
	BYTE	PEND
// 082   ----------------------------------------
overdosing8850_4_082:
	BYTE		TIE     Cs4   v120
	BYTE		TIE     Fs4 
	BYTE	W96
	BYTE	PEND
// 083   ----------------------------------------
	BYTE	W44
	BYTE	W03
	BYTE		EOT     Cs4 
	BYTE		        Fs4 
	BYTE	W48
	BYTE	W01
// 084   ----------------------------------------
	BYTE	W96
// 085   ----------------------------------------
	BYTE	W96
// 086   ----------------------------------------
	BYTE	W96
// 087   ----------------------------------------
	BYTE	W96
// 088   ----------------------------------------
	BYTE	W96
// 089   ----------------------------------------
	BYTE	W96
// 090   ----------------------------------------
	BYTE	W96
// 091   ----------------------------------------
	BYTE	W96
// 092   ----------------------------------------
	BYTE	W96
// 093   ----------------------------------------
	BYTE	W96
// 094   ----------------------------------------
	BYTE	PATT
	 POIN2	overdosing8850_4_024
// 095   ----------------------------------------
	BYTE	PATT
	 POIN2	overdosing8850_4_025
// 096   ----------------------------------------
	BYTE	PATT
	 POIN2	overdosing8850_4_026
// 097   ----------------------------------------
	BYTE	PATT
	 POIN2	overdosing8850_4_027
// 098   ----------------------------------------
	BYTE	PATT
	 POIN2	overdosing8850_4_028
// 099   ----------------------------------------
	BYTE	PATT
	 POIN2	overdosing8850_4_029
// 100   ----------------------------------------
	BYTE		N92     Bn3   v120
	BYTE	W96
// 101   ----------------------------------------
	BYTE	W96
// 102   ----------------------------------------
	BYTE	W96
// 103   ----------------------------------------
	BYTE	W96
// 104   ----------------------------------------
	BYTE	PATT
	 POIN2	overdosing8850_4_024
// 105   ----------------------------------------
	BYTE	PATT
	 POIN2	overdosing8850_4_025
// 106   ----------------------------------------
	BYTE	PATT
	 POIN2	overdosing8850_4_036
// 107   ----------------------------------------
	BYTE	PATT
	 POIN2	overdosing8850_4_037
// 108   ----------------------------------------
	BYTE	PATT
	 POIN2	overdosing8850_4_038
// 109   ----------------------------------------
	BYTE	PATT
	 POIN2	overdosing8850_4_039
// 110   ----------------------------------------
	BYTE		N92     Ds4   v120
	BYTE	W96
// 111   ----------------------------------------
	BYTE	W96
// 112   ----------------------------------------
	BYTE	W96
// 113   ----------------------------------------
	BYTE	W96
// 114   ----------------------------------------
	BYTE	W96
// 115   ----------------------------------------
	BYTE	W96
// 116   ----------------------------------------
	BYTE	W96
// 117   ----------------------------------------
	BYTE	W96
// 118   ----------------------------------------
	BYTE	W96
// 119   ----------------------------------------
	BYTE	W96
// 120   ----------------------------------------
	BYTE	W96
// 121   ----------------------------------------
	BYTE	W96
// 122   ----------------------------------------
	BYTE	W96
// 123   ----------------------------------------
	BYTE	W96
// 124   ----------------------------------------
	BYTE	W96
// 125   ----------------------------------------
	BYTE	W96
// 126   ----------------------------------------
	BYTE	W96
// 127   ----------------------------------------
	BYTE	W96
// 128   ----------------------------------------
	BYTE	W96
// 129   ----------------------------------------
	BYTE	W96
// 130   ----------------------------------------
	BYTE	W96
// 131   ----------------------------------------
	BYTE	W96
// 132   ----------------------------------------
	BYTE	W96
// 133   ----------------------------------------
	BYTE	PATT
	 POIN2	overdosing8850_4_063
// 134   ----------------------------------------
	BYTE	PATT
	 POIN2	overdosing8850_4_064
// 135   ----------------------------------------
	BYTE	PATT
	 POIN2	overdosing8850_4_065
// 136   ----------------------------------------
	BYTE	PATT
	 POIN2	overdosing8850_4_066
// 137   ----------------------------------------
	BYTE	PATT
	 POIN2	overdosing8850_4_067
// 138   ----------------------------------------
	BYTE	PATT
	 POIN2	overdosing8850_4_068
// 139   ----------------------------------------
	BYTE	PATT
	 POIN2	overdosing8850_4_069
// 140   ----------------------------------------
	BYTE	PATT
	 POIN2	overdosing8850_4_070
// 141   ----------------------------------------
	BYTE	PATT
	 POIN2	overdosing8850_4_071
// 142   ----------------------------------------
	BYTE	PATT
	 POIN2	overdosing8850_4_064
// 143   ----------------------------------------
	BYTE	PATT
	 POIN2	overdosing8850_4_073
// 144   ----------------------------------------
	BYTE	PATT
	 POIN2	overdosing8850_4_066
// 145   ----------------------------------------
	BYTE	PATT
	 POIN2	overdosing8850_4_067
// 146   ----------------------------------------
	BYTE	PATT
	 POIN2	overdosing8850_4_068
// 147   ----------------------------------------
	BYTE	PATT
	 POIN2	overdosing8850_4_077
// 148   ----------------------------------------
	BYTE	PATT
	 POIN2	overdosing8850_4_078
// 149   ----------------------------------------
	BYTE	PATT
	 POIN2	overdosing8850_4_079
// 150   ----------------------------------------
	BYTE	PATT
	 POIN2	overdosing8850_4_080
// 151   ----------------------------------------
	BYTE	PATT
	 POIN2	overdosing8850_4_081
// 152   ----------------------------------------
	BYTE	PATT
	 POIN2	overdosing8850_4_082
// 153   ----------------------------------------
	BYTE	W44
	BYTE	W03
	BYTE		EOT     Cs4 
	BYTE		        Fs4 
	BYTE	W48
	BYTE	W01
// 154   ----------------------------------------
	BYTE	W96
// 155   ----------------------------------------
	BYTE	W96
// 156   ----------------------------------------
	BYTE	W96
// 157   ----------------------------------------
	BYTE	W96
// 158   ----------------------------------------
	BYTE	W96
// 159   ----------------------------------------
	BYTE	W96
// 160   ----------------------------------------
	BYTE	W96
// 161   ----------------------------------------
	BYTE	W96
// 162   ----------------------------------------
	BYTE	W96
// 163   ----------------------------------------
	BYTE	W96
// 164   ----------------------------------------
	BYTE	W96
// 165   ----------------------------------------
	BYTE	W96
// 166   ----------------------------------------
	BYTE	W96
// 167   ----------------------------------------
	BYTE	W96
// 168   ----------------------------------------
	BYTE	W96
// 169   ----------------------------------------
	BYTE	W96
// 170   ----------------------------------------
	BYTE	W96
// 171   ----------------------------------------
	BYTE	W96
// 172   ----------------------------------------
	BYTE	W96
// 173   ----------------------------------------
	BYTE	W96
// 174   ----------------------------------------
	BYTE	W96
// 175   ----------------------------------------
	BYTE	W96
// 176   ----------------------------------------
	BYTE	W96
// 177   ----------------------------------------
	BYTE	W96
// 178   ----------------------------------------
	BYTE	W96
// 179   ----------------------------------------
	BYTE	PATT
	 POIN2	overdosing8850_4_063
// 180   ----------------------------------------
	BYTE	PATT
	 POIN2	overdosing8850_4_064
// 181   ----------------------------------------
	BYTE	PATT
	 POIN2	overdosing8850_4_065
// 182   ----------------------------------------
	BYTE	PATT
	 POIN2	overdosing8850_4_066
// 183   ----------------------------------------
	BYTE	PATT
	 POIN2	overdosing8850_4_067
// 184   ----------------------------------------
	BYTE	PATT
	 POIN2	overdosing8850_4_068
// 185   ----------------------------------------
	BYTE	PATT
	 POIN2	overdosing8850_4_069
// 186   ----------------------------------------
	BYTE	PATT
	 POIN2	overdosing8850_4_070
// 187   ----------------------------------------
	BYTE	PATT
	 POIN2	overdosing8850_4_071
// 188   ----------------------------------------
	BYTE	PATT
	 POIN2	overdosing8850_4_064
// 189   ----------------------------------------
	BYTE	PATT
	 POIN2	overdosing8850_4_073
// 190   ----------------------------------------
	BYTE		N10     Cs4   v120
	BYTE		N10     Fn4 
	BYTE	W12
	BYTE		        Gs3 
	BYTE		N10     Cn4 
	BYTE	W12
	BYTE		N11     Fn4 
	BYTE		N11     Gs4 
	BYTE	W12
	BYTE		        Ds4 
	BYTE		N11     Gn4 
	BYTE	W12
	BYTE		N10     Gs4 
	BYTE		N10     Cn5 
	BYTE	W12
	BYTE		        Gn4 
	BYTE		N10     As4 
	BYTE	W12
	BYTE		N11     Ds4 
	BYTE		N11     Gn4 
	BYTE	W12
	BYTE		N11   
	BYTE		N11     As4 
	BYTE	W12
// 191   ----------------------------------------
	BYTE		N56     Cn4 
	BYTE		N56     Gs4 
	BYTE	W60
	BYTE		N10     Gn3 
	BYTE		N10     Cn4 
	BYTE	W12
	BYTE		        Ds3 
	BYTE		N10     Gn3 
	BYTE	W12
	BYTE		        As2 
	BYTE		N10     Ds3 
	BYTE	W12
// 192   ----------------------------------------
	BYTE	PATT
	 POIN2	overdosing8850_4_068
// 193   ----------------------------------------
	BYTE		N10     As3   v120
	BYTE		N10     Ds4 
	BYTE	W24
	BYTE		N22     Gn3 
	BYTE		N22     As3 
	BYTE	W24
	BYTE		N10     Fn4 
	BYTE		N10     Gs4 
	BYTE	W24
	BYTE		N22     Ds4 
	BYTE		N22     Gn4 
	BYTE	W24
// 194   ----------------------------------------
	BYTE		N32     Cs4 
	BYTE		N32     Fn4 
	BYTE	W36
	BYTE		N05     As3 
	BYTE		N05     Ds4 
	BYTE	W06
	BYTE		        Cs4 
	BYTE		N05     Fn4 
	BYTE	W06
	BYTE		N32   
	BYTE		N32     As4 
	BYTE	W36
	BYTE		N05     Cs4 
	BYTE		N05     Gs4 
	BYTE	W06
	BYTE		        As3 
	BYTE		N05     Fn4 
	BYTE	W06
// 195   ----------------------------------------
	BYTE	PATT
	 POIN2	overdosing8850_4_079
// 196   ----------------------------------------
	BYTE	PATT
	 POIN2	overdosing8850_4_080
// 197   ----------------------------------------
	BYTE	PATT
	 POIN2	overdosing8850_4_081
// 198   ----------------------------------------
	BYTE	PATT
	 POIN2	overdosing8850_4_082
// 199   ----------------------------------------
	BYTE	W44
	BYTE	W03
	BYTE		EOT     Cs4 
	BYTE		        Fs4 
	BYTE	W48
	BYTE	W01
// 200   ----------------------------------------
	BYTE	W96
// 201   ----------------------------------------
	BYTE	W96
// 202   ----------------------------------------
	BYTE	PATT
	 POIN2	overdosing8850_4_002
// 203   ----------------------------------------
	BYTE	PATT
	 POIN2	overdosing8850_4_003
// 204   ----------------------------------------
	BYTE	PATT
	 POIN2	overdosing8850_4_004
// 205   ----------------------------------------
	BYTE	PATT
	 POIN2	overdosing8850_4_005
// 206   ----------------------------------------
	BYTE	PATT
	 POIN2	overdosing8850_4_006
// 207   ----------------------------------------
	BYTE	PATT
	 POIN2	overdosing8850_4_007
// 208   ----------------------------------------
	BYTE	PATT
	 POIN2	overdosing8850_4_008
// 209   ----------------------------------------
	BYTE	PATT
	 POIN2	overdosing8850_4_009
// 210   ----------------------------------------
	BYTE	PATT
	 POIN2	overdosing8850_4_010
// 211   ----------------------------------------
	BYTE	PATT
	 POIN2	overdosing8850_4_011
// 212   ----------------------------------------
	BYTE	PATT
	 POIN2	overdosing8850_4_012
// 213   ----------------------------------------
	BYTE	W92
	BYTE	W02
	BYTE		EOT     An2 
	BYTE		        Dn3 
	BYTE		        Fs3 
	BYTE	W02
// 214   ----------------------------------------
	BYTE	W96
// 215   ----------------------------------------
	BYTE	W96
// 216   ----------------------------------------
	BYTE	W96
// 217   ----------------------------------------
	BYTE	W96
// 218   ----------------------------------------
	BYTE	W96
// 219   ----------------------------------------
	BYTE	W96
// 220   ----------------------------------------
	BYTE	W96
// 221   ----------------------------------------
	BYTE	W96
// 222   ----------------------------------------
	BYTE	W96
// 223   ----------------------------------------
	BYTE	W96
// 224   ----------------------------------------
	BYTE	W96
// 225   ----------------------------------------
	BYTE	W96
// 226   ----------------------------------------
	BYTE	W96
// 227   ----------------------------------------
	BYTE	W96
// 228   ----------------------------------------
	BYTE	W96
// 229   ----------------------------------------
	BYTE	W96
// 230   ----------------------------------------
	BYTE	W96
// 231   ----------------------------------------
	BYTE	FINE

//**************** Track 5 (Midi-Chn.5) ****************//

overdosing8850_5:
	BYTE	KEYSH   overdosing8850_key+0
// 000   ----------------------------------------
	BYTE	W48
	BYTE		VOICE   52
	BYTE		VOL     93*overdosing8850_mvl/mxv
	BYTE		PAN     c_v+0
	BYTE	W48
// 001   ----------------------------------------
	BYTE		MOD     0
	BYTE		BEND    c_v+0
	BYTE	W48
	BYTE	W24
	BYTE	W06
	BYTE	W06
	BYTE	W06
	BYTE	W06
// 002   ----------------------------------------
	BYTE		N44     Bn3   v100
	BYTE		N44     Dn4 
	BYTE	W96
// 003   ----------------------------------------
	BYTE		N92     Fs3 
	BYTE		N92     An3 
	BYTE	W96
// 004   ----------------------------------------
	BYTE		N44     Gn3 
	BYTE		N44     Bn3 
	BYTE	W96
// 005   ----------------------------------------
	BYTE		N92     Bn2 
	BYTE		N92     En3 
	BYTE	W96
// 006   ----------------------------------------
	BYTE		N44     Cn3 
	BYTE		N44     En3 
	BYTE	W96
// 007   ----------------------------------------
overdosing8850_5_007:
	BYTE		N44     En3   v100
	BYTE		N44     Gn3 
	BYTE	W48
	BYTE		        Dn3 
	BYTE		N44     Fs3 
	BYTE	W48
	BYTE	PEND
// 008   ----------------------------------------
	BYTE		N92     En3 
	BYTE		N92     Fs3 
	BYTE	W96
// 009   ----------------------------------------
	BYTE		        En3 
	BYTE		N92     Gn3 
	BYTE	W96
// 010   ----------------------------------------
	BYTE		        En3 
	BYTE		N92     Gn3 
	BYTE	W96
// 011   ----------------------------------------
	BYTE		        Fs3 
	BYTE		N92     An3 
	BYTE	W96
// 012   ----------------------------------------
overdosing8850_5_012:
	BYTE		TIE     Fs3   v100
	BYTE		TIE     An3 
	BYTE	W96
	BYTE	PEND
// 013   ----------------------------------------
	BYTE	W96
// 014   ----------------------------------------
	BYTE	W96
// 015   ----------------------------------------
	BYTE	W92
	BYTE	W02
	BYTE		EOT     Fs3 
	BYTE		        An3 
	BYTE	W02
// 016   ----------------------------------------
overdosing8850_5_016:
	BYTE		TIE     Dn3   v080
	BYTE		TIE     Fs3 
	BYTE	W96
	BYTE	PEND
// 017   ----------------------------------------
	BYTE	W96
// 018   ----------------------------------------
	BYTE	W96
// 019   ----------------------------------------
	BYTE	W92
	BYTE	W03
	BYTE		EOT     Dn3 
	BYTE		        Fs3 
	BYTE	W01
// 020   ----------------------------------------
	BYTE	PATT
	 POIN2	overdosing8850_5_016
// 021   ----------------------------------------
	BYTE	W96
// 022   ----------------------------------------
	BYTE	W92
	BYTE	W03
	BYTE		EOT     Dn3 
	BYTE		        Fs3 
	BYTE	W01
// 023   ----------------------------------------
	BYTE	W96
// 024   ----------------------------------------
	BYTE		N92     En3   v100
	BYTE		N92     Gn3 
	BYTE	W96
// 025   ----------------------------------------
	BYTE		        Fs3 
	BYTE		N92     An3 
	BYTE	W96
// 026   ----------------------------------------
overdosing8850_5_026:
	BYTE		N44     En3   v100
	BYTE		N44     Gn3 
	BYTE	W48
	BYTE		N44   
	BYTE		N44     Bn3 
	BYTE	W48
	BYTE	PEND
// 027   ----------------------------------------
overdosing8850_5_027:
	BYTE		N32     Bn3   v100
	BYTE		N32     Dn4 
	BYTE	W36
	BYTE		N10     An3 
	BYTE		N10     Cn4 
	BYTE	W12
	BYTE		N22     En3 
	BYTE		N22     Gn3 
	BYTE	W24
	BYTE		        An3 
	BYTE		N22     Cn4 
	BYTE	W24
	BYTE	PEND
// 028   ----------------------------------------
	BYTE		N92   
	BYTE		N92     En4 
	BYTE	W96
// 029   ----------------------------------------
overdosing8850_5_029:
	BYTE		N44     Dn4   v100
	BYTE		N44     Fs4 
	BYTE	W48
	BYTE		        An3 
	BYTE		N44     Dn4 
	BYTE	W48
	BYTE	PEND
// 030   ----------------------------------------
overdosing8850_5_030:
	BYTE		TIE     Bn3   v100
	BYTE		TIE     En4 
	BYTE	W96
	BYTE	PEND
// 031   ----------------------------------------
	BYTE	W96
// 032   ----------------------------------------
	BYTE	W96
// 033   ----------------------------------------
	BYTE	W92
	BYTE	W02
	BYTE		EOT     Bn3 
	BYTE		        En4 
	BYTE	W02
// 034   ----------------------------------------
	BYTE		N92     En3 
	BYTE		N92     Gn3 
	BYTE	W96
// 035   ----------------------------------------
	BYTE		        Fs3 
	BYTE		N92     An3 
	BYTE	W96
// 036   ----------------------------------------
overdosing8850_5_036:
	BYTE		N44     En3   v100
	BYTE		N44     Gn3 
	BYTE	W48
	BYTE		        En3 
	BYTE		N44     Gn3 
	BYTE	W48
	BYTE	PEND
// 037   ----------------------------------------
overdosing8850_5_037:
	BYTE		N23     Bn3   v100
	BYTE		N23     En4 
	BYTE	W24
	BYTE		        An3 
	BYTE		N23     Dn4 
	BYTE	W24
	BYTE		        Dn3 
	BYTE		N23     Gn3 
	BYTE	W24
	BYTE		N23   
	BYTE		N23     Cn4 
	BYTE	W24
	BYTE	PEND
// 038   ----------------------------------------
	BYTE		N92     Fs3 
	BYTE		N92     Bn3 
	BYTE	W96
// 039   ----------------------------------------
overdosing8850_5_039:
	BYTE		N44     Bn3   v100
	BYTE		N44     Cs4 
	BYTE	W48
	BYTE		        Fn3 
	BYTE		N44     Gs3 
	BYTE	W48
	BYTE	PEND
// 040   ----------------------------------------
overdosing8850_5_040:
	BYTE		TIE     Bn3   v100
	BYTE		TIE     Ds4 
	BYTE	W96
	BYTE	PEND
// 041   ----------------------------------------
	BYTE	W96
// 042   ----------------------------------------
	BYTE	W96
// 043   ----------------------------------------
	BYTE	W92
	BYTE	W02
	BYTE		EOT     Bn3 
	BYTE		        Ds4 
	BYTE	W02
// 044   ----------------------------------------
	BYTE	PATT
	 POIN2	overdosing8850_5_040
// 045   ----------------------------------------
	BYTE	W96
// 046   ----------------------------------------
	BYTE	W96
// 047   ----------------------------------------
	BYTE	W92
	BYTE	W02
	BYTE		EOT     Bn3 
	BYTE		        Ds4 
	BYTE	W02
// 048   ----------------------------------------
overdosing8850_5_048:
	BYTE		N92     Bn2   v100
	BYTE		N92     En3 
	BYTE		N92     Gs3 
	BYTE	W96
	BYTE	PEND
// 049   ----------------------------------------
overdosing8850_5_049:
	BYTE		N92     Cs3   v100
	BYTE		N92     Fs3 
	BYTE		N92     As3 
	BYTE	W96
	BYTE	PEND
// 050   ----------------------------------------
overdosing8850_5_050:
	BYTE		N92     Ds3   v100
	BYTE		N92     Gs3 
	BYTE		N92     Bn3 
	BYTE	W96
	BYTE	PEND
// 051   ----------------------------------------
overdosing8850_5_051:
	BYTE		N44     En3   v100
	BYTE		N44     Gs3 
	BYTE		N44     Bn3 
	BYTE	W48
	BYTE		        Fs3 
	BYTE		N44     As3 
	BYTE		N44     Cs4 
	BYTE	W48
	BYTE	PEND
// 052   ----------------------------------------
	BYTE	PATT
	 POIN2	overdosing8850_5_050
// 053   ----------------------------------------
overdosing8850_5_053:
	BYTE		N92     Gs3   v100
	BYTE		N92     Cs4 
	BYTE		N92     En4 
	BYTE	W96
	BYTE	PEND
// 054   ----------------------------------------
overdosing8850_5_054:
	BYTE		N44     As3   v100
	BYTE		N44     Ds4 
	BYTE		N44     Gn4 
	BYTE	W48
	BYTE		        Gn3 
	BYTE		N44     As3 
	BYTE		N44     Ds4 
	BYTE	W48
	BYTE	PEND
// 055   ----------------------------------------
overdosing8850_5_055:
	BYTE		N22     As3   v100
	BYTE		N22     Ds4 
	BYTE		N22     Gn4 
	BYTE	W24
	BYTE		        Ds3 
	BYTE		N22     Gn3 
	BYTE		N22     As3 
	BYTE	W24
	BYTE		        Gn3 
	BYTE		N22     As3 
	BYTE		N22     Ds4 
	BYTE	W24
	BYTE		        As2 
	BYTE		N22     Ds3 
	BYTE		N22     Gn3 
	BYTE	W24
	BYTE	PEND
// 056   ----------------------------------------
	BYTE	PATT
	 POIN2	overdosing8850_5_048
// 057   ----------------------------------------
	BYTE	PATT
	 POIN2	overdosing8850_5_049
// 058   ----------------------------------------
	BYTE	PATT
	 POIN2	overdosing8850_5_050
// 059   ----------------------------------------
	BYTE	PATT
	 POIN2	overdosing8850_5_051
// 060   ----------------------------------------
	BYTE	PATT
	 POIN2	overdosing8850_5_050
// 061   ----------------------------------------
	BYTE	PATT
	 POIN2	overdosing8850_5_053
// 062   ----------------------------------------
	BYTE	PATT
	 POIN2	overdosing8850_5_054
// 063   ----------------------------------------
overdosing8850_5_063:
	BYTE		N22     As3   v100
	BYTE		N22     Ds4 
	BYTE		N22     Gn4 
	BYTE	W24
	BYTE		        Gn3 
	BYTE		N22     As3 
	BYTE		N22     Ds4 
	BYTE	W24
	BYTE		N11     As3 
	BYTE		N11     Ds4 
	BYTE		N11     Gn4 
	BYTE	W48
	BYTE	PEND
// 064   ----------------------------------------
overdosing8850_5_064:
	BYTE		N68     Cn4   v100
	BYTE		N68     Fn4 
	BYTE	W72
	BYTE		N21     As3 
	BYTE		N21     Ds4 
	BYTE	W24
	BYTE	PEND
// 065   ----------------------------------------
overdosing8850_5_065:
	BYTE		N68     Gs3   v100
	BYTE		N68     Cs4 
	BYTE	W72
	BYTE		N20     Gn3 
	BYTE		N20     Cn4 
	BYTE	W24
	BYTE	PEND
// 066   ----------------------------------------
overdosing8850_5_066:
	BYTE		N44     Gs3   v100
	BYTE		N44     Cs4 
	BYTE	W48
	BYTE		        As3 
	BYTE		N44     Ds4 
	BYTE	W48
	BYTE	PEND
// 067   ----------------------------------------
overdosing8850_5_067:
	BYTE		N44     Cn4   v100
	BYTE		N44     Ds4 
	BYTE	W48
	BYTE		N22     Cn4 
	BYTE		N22     Fn4 
	BYTE	W24
	BYTE		N21     As3 
	BYTE		N21     Ds4 
	BYTE	W24
	BYTE	PEND
// 068   ----------------------------------------
	BYTE	PATT
	 POIN2	overdosing8850_5_066
// 069   ----------------------------------------
overdosing8850_5_069:
	BYTE		N44     Gs3   v100
	BYTE		N44     Cs4 
	BYTE	W48
	BYTE		N22     Gs3 
	BYTE		N22     Cn4 
	BYTE	W24
	BYTE		        Ds3 
	BYTE		N22     Gs3 
	BYTE	W24
	BYTE	PEND
// 070   ----------------------------------------
overdosing8850_5_070:
	BYTE		N44     Fn3   v100
	BYTE		N44     As3 
	BYTE	W48
	BYTE		        Fs3 
	BYTE		N44     Bn3 
	BYTE	W48
	BYTE	PEND
// 071   ----------------------------------------
overdosing8850_5_071:
	BYTE		N22     As3   v100
	BYTE		N22     Cs4 
	BYTE	W24
	BYTE		N23     As3 
	BYTE		N23     Dn4 
	BYTE	W24
	BYTE		N09     Cn4 
	BYTE		N09     Ds4 
	BYTE	W24
	BYTE		N22     As3 
	BYTE		N22     Ds4 
	BYTE	W24
	BYTE	PEND
// 072   ----------------------------------------
	BYTE	PATT
	 POIN2	overdosing8850_5_064
// 073   ----------------------------------------
	BYTE	PATT
	 POIN2	overdosing8850_5_065
// 074   ----------------------------------------
	BYTE	PATT
	 POIN2	overdosing8850_5_066
// 075   ----------------------------------------
	BYTE	PATT
	 POIN2	overdosing8850_5_067
// 076   ----------------------------------------
	BYTE	PATT
	 POIN2	overdosing8850_5_066
// 077   ----------------------------------------
overdosing8850_5_077:
	BYTE		N44     Cs4   v100
	BYTE		N44     Fn4 
	BYTE	W48
	BYTE		N22     Cn4 
	BYTE		N22     Ds4 
	BYTE	W24
	BYTE		        Gs3 
	BYTE		N22     Cn4 
	BYTE	W24
	BYTE	PEND
// 078   ----------------------------------------
overdosing8850_5_078:
	BYTE		N44     Fn3   v100
	BYTE		N44     As3 
	BYTE	W48
	BYTE		        Bn3 
	BYTE		N44     Ds4 
	BYTE	W48
	BYTE	PEND
// 079   ----------------------------------------
overdosing8850_5_079:
	BYTE		N44     Cn4   v100
	BYTE		N44     Gn4 
	BYTE	W48
	BYTE		        Ds4 
	BYTE		N44     Gs4 
	BYTE	W48
	BYTE	PEND
// 080   ----------------------------------------
overdosing8850_5_080:
	BYTE		N44     As3   v100
	BYTE		N44     Cs4 
	BYTE	W48
	BYTE		N44   
	BYTE		N44     Fs4 
	BYTE	W48
	BYTE	PEND
// 081   ----------------------------------------
overdosing8850_5_081:
	BYTE		N44     Bn3   v100
	BYTE		N44     Ds4 
	BYTE	W48
	BYTE		        En4 
	BYTE		N44     An4 
	BYTE	W48
	BYTE	PEND
// 082   ----------------------------------------
overdosing8850_5_082:
	BYTE		TIE     An3   v100
	BYTE		TIE     Cs4 
	BYTE	W96
	BYTE	PEND
// 083   ----------------------------------------
	BYTE	W96
// 084   ----------------------------------------
	BYTE	W96
// 085   ----------------------------------------
	BYTE	W92
	BYTE	W02
	BYTE		EOT     An3 
	BYTE		        Cs4 
	BYTE	W02
// 086   ----------------------------------------
	BYTE	PATT
	 POIN2	overdosing8850_5_016
// 087   ----------------------------------------
	BYTE	W96
// 088   ----------------------------------------
	BYTE	W96
// 089   ----------------------------------------
	BYTE	W92
	BYTE	W03
	BYTE		EOT     Dn3 
	BYTE		        Fs3 
	BYTE	W01
// 090   ----------------------------------------
	BYTE	PATT
	 POIN2	overdosing8850_5_016
// 091   ----------------------------------------
	BYTE	W96
// 092   ----------------------------------------
	BYTE	W92
	BYTE	W03
	BYTE		EOT     Dn3 
	BYTE		        Fs3 
	BYTE	W01
// 093   ----------------------------------------
	BYTE	W96
// 094   ----------------------------------------
	BYTE		N92     En3   v100
	BYTE		N92     Gn3 
	BYTE	W96
// 095   ----------------------------------------
	BYTE		        Fs3 
	BYTE		N92     An3 
	BYTE	W96
// 096   ----------------------------------------
	BYTE	PATT
	 POIN2	overdosing8850_5_026
// 097   ----------------------------------------
	BYTE	PATT
	 POIN2	overdosing8850_5_027
// 098   ----------------------------------------
	BYTE		N92     Cn4   v100
	BYTE		N92     En4 
	BYTE	W96
// 099   ----------------------------------------
	BYTE	PATT
	 POIN2	overdosing8850_5_029
// 100   ----------------------------------------
	BYTE	PATT
	 POIN2	overdosing8850_5_030
// 101   ----------------------------------------
	BYTE	W96
// 102   ----------------------------------------
	BYTE	W96
// 103   ----------------------------------------
	BYTE	W92
	BYTE	W02
	BYTE		EOT     Bn3 
	BYTE		        En4 
	BYTE	W02
// 104   ----------------------------------------
	BYTE		N92     En3   v100
	BYTE		N92     Gn3 
	BYTE	W96
// 105   ----------------------------------------
	BYTE		        Fs3 
	BYTE		N92     An3 
	BYTE	W96
// 106   ----------------------------------------
	BYTE	PATT
	 POIN2	overdosing8850_5_036
// 107   ----------------------------------------
	BYTE	PATT
	 POIN2	overdosing8850_5_037
// 108   ----------------------------------------
	BYTE		N92     Fs3   v100
	BYTE		N92     Bn3 
	BYTE	W96
// 109   ----------------------------------------
	BYTE	PATT
	 POIN2	overdosing8850_5_039
// 110   ----------------------------------------
	BYTE	PATT
	 POIN2	overdosing8850_5_040
// 111   ----------------------------------------
	BYTE	W96
// 112   ----------------------------------------
	BYTE	W96
// 113   ----------------------------------------
	BYTE	W92
	BYTE	W02
	BYTE		EOT     Bn3 
	BYTE		        Ds4 
	BYTE	W02
// 114   ----------------------------------------
	BYTE	PATT
	 POIN2	overdosing8850_5_040
// 115   ----------------------------------------
	BYTE	W96
// 116   ----------------------------------------
	BYTE	W96
// 117   ----------------------------------------
	BYTE	W92
	BYTE	W02
	BYTE		EOT     Bn3 
	BYTE		        Ds4 
	BYTE	W02
// 118   ----------------------------------------
	BYTE	PATT
	 POIN2	overdosing8850_5_048
// 119   ----------------------------------------
	BYTE	PATT
	 POIN2	overdosing8850_5_049
// 120   ----------------------------------------
	BYTE	PATT
	 POIN2	overdosing8850_5_050
// 121   ----------------------------------------
	BYTE	PATT
	 POIN2	overdosing8850_5_051
// 122   ----------------------------------------
	BYTE	PATT
	 POIN2	overdosing8850_5_050
// 123   ----------------------------------------
	BYTE	PATT
	 POIN2	overdosing8850_5_053
// 124   ----------------------------------------
	BYTE	PATT
	 POIN2	overdosing8850_5_054
// 125   ----------------------------------------
	BYTE	PATT
	 POIN2	overdosing8850_5_055
// 126   ----------------------------------------
	BYTE	PATT
	 POIN2	overdosing8850_5_048
// 127   ----------------------------------------
	BYTE	PATT
	 POIN2	overdosing8850_5_049
// 128   ----------------------------------------
	BYTE	PATT
	 POIN2	overdosing8850_5_050
// 129   ----------------------------------------
	BYTE	PATT
	 POIN2	overdosing8850_5_051
// 130   ----------------------------------------
	BYTE	PATT
	 POIN2	overdosing8850_5_050
// 131   ----------------------------------------
	BYTE	PATT
	 POIN2	overdosing8850_5_053
// 132   ----------------------------------------
	BYTE	PATT
	 POIN2	overdosing8850_5_054
// 133   ----------------------------------------
	BYTE	PATT
	 POIN2	overdosing8850_5_063
// 134   ----------------------------------------
	BYTE	PATT
	 POIN2	overdosing8850_5_064
// 135   ----------------------------------------
	BYTE	PATT
	 POIN2	overdosing8850_5_065
// 136   ----------------------------------------
	BYTE	PATT
	 POIN2	overdosing8850_5_066
// 137   ----------------------------------------
	BYTE	PATT
	 POIN2	overdosing8850_5_067
// 138   ----------------------------------------
	BYTE	PATT
	 POIN2	overdosing8850_5_066
// 139   ----------------------------------------
	BYTE	PATT
	 POIN2	overdosing8850_5_069
// 140   ----------------------------------------
	BYTE	PATT
	 POIN2	overdosing8850_5_070
// 141   ----------------------------------------
	BYTE	PATT
	 POIN2	overdosing8850_5_071
// 142   ----------------------------------------
	BYTE	PATT
	 POIN2	overdosing8850_5_064
// 143   ----------------------------------------
	BYTE	PATT
	 POIN2	overdosing8850_5_065
// 144   ----------------------------------------
	BYTE	PATT
	 POIN2	overdosing8850_5_066
// 145   ----------------------------------------
	BYTE	PATT
	 POIN2	overdosing8850_5_067
// 146   ----------------------------------------
	BYTE	PATT
	 POIN2	overdosing8850_5_066
// 147   ----------------------------------------
	BYTE	PATT
	 POIN2	overdosing8850_5_077
// 148   ----------------------------------------
	BYTE	PATT
	 POIN2	overdosing8850_5_078
// 149   ----------------------------------------
	BYTE	PATT
	 POIN2	overdosing8850_5_079
// 150   ----------------------------------------
	BYTE	PATT
	 POIN2	overdosing8850_5_080
// 151   ----------------------------------------
	BYTE	PATT
	 POIN2	overdosing8850_5_081
// 152   ----------------------------------------
	BYTE	PATT
	 POIN2	overdosing8850_5_082
// 153   ----------------------------------------
	BYTE	W96
// 154   ----------------------------------------
	BYTE	W96
// 155   ----------------------------------------
	BYTE	W92
	BYTE	W02
	BYTE		EOT     An3 
	BYTE		        Cs4 
	BYTE	W02
// 156   ----------------------------------------
	BYTE	PATT
	 POIN2	overdosing8850_5_040
// 157   ----------------------------------------
	BYTE	W96
// 158   ----------------------------------------
	BYTE	W96
// 159   ----------------------------------------
	BYTE	W92
	BYTE	W02
	BYTE		EOT     Bn3 
	BYTE		        Ds4 
	BYTE	W02
// 160   ----------------------------------------
	BYTE	PATT
	 POIN2	overdosing8850_5_040
// 161   ----------------------------------------
	BYTE	W96
// 162   ----------------------------------------
	BYTE	W96
// 163   ----------------------------------------
	BYTE	W92
	BYTE	W02
	BYTE		EOT     Bn3 
	BYTE		        Ds4 
	BYTE	W02
// 164   ----------------------------------------
	BYTE	PATT
	 POIN2	overdosing8850_5_048
// 165   ----------------------------------------
	BYTE	PATT
	 POIN2	overdosing8850_5_049
// 166   ----------------------------------------
	BYTE	PATT
	 POIN2	overdosing8850_5_050
// 167   ----------------------------------------
	BYTE	PATT
	 POIN2	overdosing8850_5_051
// 168   ----------------------------------------
	BYTE	PATT
	 POIN2	overdosing8850_5_050
// 169   ----------------------------------------
	BYTE	PATT
	 POIN2	overdosing8850_5_053
// 170   ----------------------------------------
	BYTE	PATT
	 POIN2	overdosing8850_5_054
// 171   ----------------------------------------
	BYTE	PATT
	 POIN2	overdosing8850_5_055
// 172   ----------------------------------------
	BYTE	PATT
	 POIN2	overdosing8850_5_048
// 173   ----------------------------------------
	BYTE	PATT
	 POIN2	overdosing8850_5_049
// 174   ----------------------------------------
	BYTE	PATT
	 POIN2	overdosing8850_5_050
// 175   ----------------------------------------
	BYTE	PATT
	 POIN2	overdosing8850_5_051
// 176   ----------------------------------------
	BYTE	PATT
	 POIN2	overdosing8850_5_050
// 177   ----------------------------------------
	BYTE	PATT
	 POIN2	overdosing8850_5_053
// 178   ----------------------------------------
	BYTE	PATT
	 POIN2	overdosing8850_5_054
// 179   ----------------------------------------
	BYTE	PATT
	 POIN2	overdosing8850_5_063
// 180   ----------------------------------------
	BYTE	PATT
	 POIN2	overdosing8850_5_064
// 181   ----------------------------------------
	BYTE	PATT
	 POIN2	overdosing8850_5_065
// 182   ----------------------------------------
	BYTE	PATT
	 POIN2	overdosing8850_5_066
// 183   ----------------------------------------
	BYTE	PATT
	 POIN2	overdosing8850_5_067
// 184   ----------------------------------------
	BYTE	PATT
	 POIN2	overdosing8850_5_066
// 185   ----------------------------------------
	BYTE	PATT
	 POIN2	overdosing8850_5_069
// 186   ----------------------------------------
	BYTE	PATT
	 POIN2	overdosing8850_5_070
// 187   ----------------------------------------
	BYTE	PATT
	 POIN2	overdosing8850_5_071
// 188   ----------------------------------------
	BYTE	PATT
	 POIN2	overdosing8850_5_064
// 189   ----------------------------------------
	BYTE	PATT
	 POIN2	overdosing8850_5_065
// 190   ----------------------------------------
	BYTE	PATT
	 POIN2	overdosing8850_5_066
// 191   ----------------------------------------
	BYTE	PATT
	 POIN2	overdosing8850_5_067
// 192   ----------------------------------------
	BYTE	PATT
	 POIN2	overdosing8850_5_066
// 193   ----------------------------------------
	BYTE	PATT
	 POIN2	overdosing8850_5_077
// 194   ----------------------------------------
	BYTE	PATT
	 POIN2	overdosing8850_5_078
// 195   ----------------------------------------
	BYTE	PATT
	 POIN2	overdosing8850_5_079
// 196   ----------------------------------------
	BYTE	PATT
	 POIN2	overdosing8850_5_080
// 197   ----------------------------------------
	BYTE	PATT
	 POIN2	overdosing8850_5_081
// 198   ----------------------------------------
	BYTE	PATT
	 POIN2	overdosing8850_5_082
// 199   ----------------------------------------
	BYTE	W92
	BYTE	W03
	BYTE		EOT     An3 
	BYTE		        Cs4 
	BYTE	W01
// 200   ----------------------------------------
	BYTE		N92     Bn3   v100
	BYTE		N92     En4 
	BYTE	W96
// 201   ----------------------------------------
	BYTE		N92   
	BYTE		N92     An4 
	BYTE	W96
// 202   ----------------------------------------
	BYTE		N44     Bn3 
	BYTE		N44     Dn4 
	BYTE	W96
// 203   ----------------------------------------
	BYTE		N92     Fs3 
	BYTE		N92     An3 
	BYTE	W96
// 204   ----------------------------------------
	BYTE		N44     Gn3 
	BYTE		N44     Bn3 
	BYTE	W96
// 205   ----------------------------------------
	BYTE		N92     Bn2 
	BYTE		N92     En3 
	BYTE	W96
// 206   ----------------------------------------
	BYTE		N44     Cn3 
	BYTE		N44     En3 
	BYTE	W96
// 207   ----------------------------------------
	BYTE	PATT
	 POIN2	overdosing8850_5_007
// 208   ----------------------------------------
	BYTE		N92     En3   v100
	BYTE		N92     Fs3 
	BYTE	W96
// 209   ----------------------------------------
	BYTE		        En3 
	BYTE		N92     Gn3 
	BYTE	W96
// 210   ----------------------------------------
	BYTE		        En3 
	BYTE		N92     Gn3 
	BYTE	W96
// 211   ----------------------------------------
	BYTE		        Fs3 
	BYTE		N92     An3 
	BYTE	W96
// 212   ----------------------------------------
	BYTE	PATT
	 POIN2	overdosing8850_5_012
// 213   ----------------------------------------
	BYTE	W96
// 214   ----------------------------------------
	BYTE	W96
// 215   ----------------------------------------
	BYTE	W92
	BYTE	W02
	BYTE		EOT     Fs3 
	BYTE		        An3 
	BYTE	W02
// 216   ----------------------------------------
	BYTE	PATT
	 POIN2	overdosing8850_5_016
// 217   ----------------------------------------
	BYTE	W96
// 218   ----------------------------------------
	BYTE	W96
// 219   ----------------------------------------
	BYTE	W92
	BYTE	W03
	BYTE		EOT     Dn3 
	BYTE		        Fs3 
	BYTE	W01
// 220   ----------------------------------------
	BYTE	PATT
	 POIN2	overdosing8850_5_016
// 221   ----------------------------------------
	BYTE	W96
// 222   ----------------------------------------
	BYTE	W92
	BYTE	W03
	BYTE		EOT     Dn3 
	BYTE		        Fs3 
	BYTE	W01
// 223   ----------------------------------------
	BYTE	W96
// 224   ----------------------------------------
	BYTE	W96
// 225   ----------------------------------------
	BYTE	W96
// 226   ----------------------------------------
	BYTE	W96
// 227   ----------------------------------------
	BYTE	W96
// 228   ----------------------------------------
	BYTE	W96
// 229   ----------------------------------------
	BYTE	W96
// 230   ----------------------------------------
	BYTE	W96
// 231   ----------------------------------------
	BYTE	FINE

//**************** Track 6 (Midi-Chn.6) ****************//

overdosing8850_6:
	BYTE	KEYSH   overdosing8850_key+0
// 000   ----------------------------------------
	BYTE	W48
	BYTE		VOICE   16
	BYTE		VOL     68*overdosing8850_mvl/mxv
	BYTE		PAN     c_v+0
	BYTE	W48
// 001   ----------------------------------------
	BYTE		MOD     0
	BYTE		BEND    c_v+0
	BYTE	W48
	BYTE	W24
	BYTE		PAN     c_v-64
	BYTE	W06
	BYTE	W06
	BYTE	W06
	BYTE	W06
// 002   ----------------------------------------
overdosing8850_6_002:
	BYTE		N44     Bn3   v092
	BYTE		N44     Dn4 
	BYTE	W90
	BYTE		PAN     c_v+63
	BYTE	W06
	BYTE	PEND
// 003   ----------------------------------------
	BYTE		N92     Fs3 
	BYTE		N92     An3 
	BYTE	W96
// 004   ----------------------------------------
overdosing8850_6_004:
	BYTE		PAN     c_v-64
	BYTE		N44     Gn3   v092
	BYTE		N44     Bn3 
	BYTE	W96
	BYTE	PEND
// 005   ----------------------------------------
overdosing8850_6_005:
	BYTE		PAN     c_v+63
	BYTE		N92     Bn2   v092
	BYTE		N92     En3 
	BYTE	W96
	BYTE	PEND
// 006   ----------------------------------------
overdosing8850_6_006:
	BYTE		PAN     c_v-64
	BYTE		N44     Cn3   v092
	BYTE		N44     En3 
	BYTE	W96
	BYTE	PEND
// 007   ----------------------------------------
overdosing8850_6_007:
	BYTE		PAN     c_v+63
	BYTE		N44     Bn2   v092
	BYTE		N44     En3 
	BYTE	W48
	BYTE		PAN     c_v-64
	BYTE		N44     Bn2 
	BYTE		N44     Dn3 
	BYTE	W48
	BYTE	PEND
// 008   ----------------------------------------
	BYTE	PATT
	 POIN2	overdosing8850_6_005
// 009   ----------------------------------------
overdosing8850_6_009:
	BYTE		PAN     c_v-64
	BYTE		N92     Cn3   v092
	BYTE		N92     En3 
	BYTE	W96
	BYTE	PEND
// 010   ----------------------------------------
overdosing8850_6_010:
	BYTE		PAN     c_v+0
	BYTE		N92     An2   v100
	BYTE		N92     Dn3 
	BYTE	W96
	BYTE	PEND
// 011   ----------------------------------------
	BYTE		        An2 
	BYTE		N92     Dn3 
	BYTE	W96
// 012   ----------------------------------------
overdosing8850_6_012:
	BYTE		TIE     En2   v112
	BYTE		TIE     An2 
	BYTE	W96
	BYTE	PEND
// 013   ----------------------------------------
	BYTE	W96
// 014   ----------------------------------------
	BYTE	W96
// 015   ----------------------------------------
	BYTE	W92
	BYTE	W02
	BYTE		EOT     En2 
	BYTE		        An2 
	BYTE	W02
// 016   ----------------------------------------
overdosing8850_6_016:
	BYTE		TIE     Dn2   v112
	BYTE		TIE     Fs2 
	BYTE		TIE     An2 
	BYTE	W96
	BYTE	PEND
// 017   ----------------------------------------
	BYTE	W96
// 018   ----------------------------------------
	BYTE	W96
// 019   ----------------------------------------
	BYTE	W92
	BYTE	W03
	BYTE		EOT     Dn2 
	BYTE		        Fs2 
	BYTE		        An2 
	BYTE	W01
// 020   ----------------------------------------
	BYTE	PATT
	 POIN2	overdosing8850_6_016
// 021   ----------------------------------------
	BYTE	W96
// 022   ----------------------------------------
	BYTE	W92
	BYTE	W03
	BYTE		EOT     Dn2 
	BYTE		        Fs2 
	BYTE		        An2 
	BYTE	W01
// 023   ----------------------------------------
	BYTE	W96
// 024   ----------------------------------------
overdosing8850_6_024:
	BYTE		N11     En2   v120
	BYTE		N11     En3 
	BYTE	W12
	BYTE		N05     Gn2 
	BYTE		N05     Gn3 
	BYTE	W12
	BYTE		        Bn2 
	BYTE		N05     Bn3 
	BYTE	W12
	BYTE		N56     Dn3 
	BYTE		N56     Dn4 
	BYTE	W60
	BYTE	PEND
// 025   ----------------------------------------
overdosing8850_6_025:
	BYTE		N32     Cs3   v120
	BYTE		N32     Cs4 
	BYTE	W36
	BYTE		N05     Dn3 
	BYTE		N05     Dn4 
	BYTE	W06
	BYTE		        Cs3 
	BYTE		N05     Cs4 
	BYTE	W06
	BYTE		N23     Bn2 
	BYTE		N23     Bn3 
	BYTE	W24
	BYTE		        An2 
	BYTE		N23     An3 
	BYTE	W24
	BYTE	PEND
// 026   ----------------------------------------
overdosing8850_6_026:
	BYTE		N23     Bn2   v120
	BYTE		N23     Bn3 
	BYTE	W24
	BYTE		        En3 
	BYTE		N23     En4 
	BYTE	W24
	BYTE		        Gn2 
	BYTE		N23     Gn3 
	BYTE	W24
	BYTE		        An2 
	BYTE		N23     An3 
	BYTE	W24
	BYTE	PEND
// 027   ----------------------------------------
overdosing8850_6_027:
	BYTE		N32     Bn2   v120
	BYTE		N32     Bn3 
	BYTE	W36
	BYTE		N11     An2 
	BYTE		N11     An3 
	BYTE	W12
	BYTE		N23     En2 
	BYTE		N23     En3 
	BYTE	W24
	BYTE		        An2 
	BYTE		N23     An3 
	BYTE	W24
	BYTE	PEND
// 028   ----------------------------------------
overdosing8850_6_028:
	BYTE		N80     Bn2   v120
	BYTE		N80     Bn3 
	BYTE	W84
	BYTE		N05     An2 
	BYTE		N05     An3 
	BYTE	W06
	BYTE		        Bn2 
	BYTE		N05     Bn3 
	BYTE	W06
	BYTE	PEND
// 029   ----------------------------------------
overdosing8850_6_029:
	BYTE		N44     Cs3   v120
	BYTE		N44     Cs4 
	BYTE	W48
	BYTE		        An2 
	BYTE		N44     An3 
	BYTE	W48
	BYTE	PEND
// 030   ----------------------------------------
	BYTE		N92     Bn2 
	BYTE		N92     Bn3 
	BYTE	W96
// 031   ----------------------------------------
	BYTE	W96
// 032   ----------------------------------------
	BYTE	W96
// 033   ----------------------------------------
	BYTE	W96
// 034   ----------------------------------------
	BYTE	PATT
	 POIN2	overdosing8850_6_024
// 035   ----------------------------------------
	BYTE	PATT
	 POIN2	overdosing8850_6_025
// 036   ----------------------------------------
overdosing8850_6_036:
	BYTE		N23     Bn2   v120
	BYTE		N23     Bn3 
	BYTE	W24
	BYTE		        En3 
	BYTE		N23     En4 
	BYTE	W24
	BYTE		        Gn3 
	BYTE		N23     Gn4 
	BYTE	W24
	BYTE		        Bn3 
	BYTE		N23     Bn4 
	BYTE	W24
	BYTE	PEND
// 037   ----------------------------------------
overdosing8850_6_037:
	BYTE		N23     An3   v120
	BYTE		N23     An4 
	BYTE	W24
	BYTE		        Gn3 
	BYTE		N23     Gn4 
	BYTE	W24
	BYTE		        Fn3 
	BYTE		N23     Fn4 
	BYTE	W24
	BYTE		        En3 
	BYTE		N23     En4 
	BYTE	W24
	BYTE	PEND
// 038   ----------------------------------------
overdosing8850_6_038:
	BYTE		N80     Ds3   v120
	BYTE		N80     Ds4 
	BYTE	W84
	BYTE		N05     Cs3 
	BYTE		N05     Cs4 
	BYTE	W06
	BYTE		        Ds3 
	BYTE		N05     Ds4 
	BYTE	W06
	BYTE	PEND
// 039   ----------------------------------------
overdosing8850_6_039:
	BYTE		N44     Fn3   v120
	BYTE		N44     Fn4 
	BYTE	W48
	BYTE		        Cs3 
	BYTE		N44     Cs4 
	BYTE	W48
	BYTE	PEND
// 040   ----------------------------------------
	BYTE		N92     Ds3 
	BYTE		N92     Ds4 
	BYTE	W96
// 041   ----------------------------------------
	BYTE	W96
// 042   ----------------------------------------
	BYTE	W96
// 043   ----------------------------------------
	BYTE	W96
// 044   ----------------------------------------
	BYTE	W96
// 045   ----------------------------------------
	BYTE	W96
// 046   ----------------------------------------
	BYTE	W96
// 047   ----------------------------------------
	BYTE	W96
// 048   ----------------------------------------
overdosing8850_6_048:
	BYTE		N92     Gs2   v100
	BYTE		N92     Bn2 
	BYTE		N92     En3 
	BYTE	W96
	BYTE	PEND
// 049   ----------------------------------------
overdosing8850_6_049:
	BYTE		N92     As2   v100
	BYTE		N92     Cs3 
	BYTE		N92     Fs3 
	BYTE	W96
	BYTE	PEND
// 050   ----------------------------------------
overdosing8850_6_050:
	BYTE		N92     Bn2   v100
	BYTE		N92     Ds3 
	BYTE		N92     Gs3 
	BYTE	W96
	BYTE	PEND
// 051   ----------------------------------------
overdosing8850_6_051:
	BYTE		N44     Gs2   v100
	BYTE		N44     Bn2 
	BYTE		N44     En3 
	BYTE	W48
	BYTE		        As2 
	BYTE		N44     Ds3 
	BYTE		N44     Fs3 
	BYTE	W48
	BYTE	PEND
// 052   ----------------------------------------
	BYTE	PATT
	 POIN2	overdosing8850_6_050
// 053   ----------------------------------------
	BYTE		N92     En3   v100
	BYTE		N92     An3 
	BYTE		N92     Cs4 
	BYTE	W96
// 054   ----------------------------------------
overdosing8850_6_054:
	BYTE		N92     Ds3   v100
	BYTE		N92     Gn3 
	BYTE		N92     As3 
	BYTE	W96
	BYTE	PEND
// 055   ----------------------------------------
overdosing8850_6_055:
	BYTE		N44     As2   v100
	BYTE		N44     Ds3 
	BYTE		N44     Gn3 
	BYTE	W48
	BYTE		N16     As2 
	BYTE		N16     Cs3 
	BYTE		N16     Gn3 
	BYTE	W18
	BYTE		        Bn2 
	BYTE		N16     Ds3 
	BYTE		N16     Gs3 
	BYTE	W18
	BYTE		N10     Cs3 
	BYTE		N10     Gn3 
	BYTE		N10     As3 
	BYTE	W12
	BYTE	PEND
// 056   ----------------------------------------
	BYTE	PATT
	 POIN2	overdosing8850_6_048
// 057   ----------------------------------------
	BYTE	PATT
	 POIN2	overdosing8850_6_049
// 058   ----------------------------------------
	BYTE	PATT
	 POIN2	overdosing8850_6_050
// 059   ----------------------------------------
	BYTE	PATT
	 POIN2	overdosing8850_6_051
// 060   ----------------------------------------
	BYTE	PATT
	 POIN2	overdosing8850_6_050
// 061   ----------------------------------------
	BYTE		N92     En3   v100
	BYTE		N92     An3 
	BYTE		N92     Cs4 
	BYTE	W96
// 062   ----------------------------------------
	BYTE	PATT
	 POIN2	overdosing8850_6_054
// 063   ----------------------------------------
overdosing8850_6_063:
	BYTE		N44     As2   v100
	BYTE		N44     Ds3 
	BYTE		N44     Gn3 
	BYTE	W48
	BYTE		N10     As2 
	BYTE		N10     Ds3 
	BYTE		N10     Gn3 
	BYTE	W24
	BYTE		N22     As2 
	BYTE		N22     Ds3 
	BYTE		N22     Gn3 
	BYTE	W24
	BYTE	PEND
// 064   ----------------------------------------
overdosing8850_6_064:
	BYTE		N68     Gs2   v100
	BYTE		N68     Cn3 
	BYTE		N68     Fn3 
	BYTE	W24
	BYTE		N22     Cn4   v120
	BYTE		N22     Fn4 
	BYTE	W24
	BYTE		N10     As3 
	BYTE		N10     Ds4 
	BYTE	W24
	BYTE		N22     Gn2   v100
	BYTE		N22     As2 
	BYTE		N22     Ds3 
	BYTE	W24
	BYTE	PEND
// 065   ----------------------------------------
overdosing8850_6_065:
	BYTE		N44     Fn2   v100
	BYTE		N44     Gs2 
	BYTE		N44     Cs3 
	BYTE	W48
	BYTE		N22     Fn2 
	BYTE		N22     Gs2 
	BYTE		N22     Cs3 
	BYTE	W24
	BYTE		        Ds2 
	BYTE		N22     Gn2 
	BYTE		N22     Cn3 
	BYTE	W24
	BYTE	PEND
// 066   ----------------------------------------
overdosing8850_6_066:
	BYTE		N44     Fn2   v100
	BYTE		N44     Gs2 
	BYTE		N44     Cs3 
	BYTE	W48
	BYTE		        Gn2 
	BYTE		N44     As2 
	BYTE		N44     Ds3 
	BYTE	W48
	BYTE	PEND
// 067   ----------------------------------------
overdosing8850_6_067:
	BYTE		N44     Gs2   v100
	BYTE		N44     Cn3 
	BYTE		N44     Fn3 
	BYTE	W48
	BYTE		N22     Gs2 
	BYTE		N22     Cn3 
	BYTE		N22     Fn3 
	BYTE	W24
	BYTE		N21     Gn2 
	BYTE		N21     As2 
	BYTE		N21     Ds3 
	BYTE	W24
	BYTE	PEND
// 068   ----------------------------------------
	BYTE	PATT
	 POIN2	overdosing8850_6_066
// 069   ----------------------------------------
overdosing8850_6_069:
	BYTE		N44     As2   v100
	BYTE		N44     Cs3 
	BYTE		N44     Fn3 
	BYTE	W48
	BYTE		N22     Gs2 
	BYTE		N22     Cn3 
	BYTE		N22     Ds3 
	BYTE	W24
	BYTE		        Ds2 
	BYTE		N22     Gs2 
	BYTE		N22     Cn3 
	BYTE	W24
	BYTE	PEND
// 070   ----------------------------------------
overdosing8850_6_070:
	BYTE		N44     Cs2   v100
	BYTE		N44     Fn2 
	BYTE		N44     As2 
	BYTE	W48
	BYTE		        Ds2 
	BYTE		N44     Fs2 
	BYTE		N44     Bn2 
	BYTE	W48
	BYTE	PEND
// 071   ----------------------------------------
overdosing8850_6_071:
	BYTE		N44     Fn2   v100
	BYTE		N44     As2 
	BYTE		N44     Cs3 
	BYTE	W48
	BYTE		N22     Gs2 
	BYTE		N22     Cn3 
	BYTE		N22     Ds3 
	BYTE	W24
	BYTE		        Gn2 
	BYTE		N22     As2 
	BYTE		N22     Ds3 
	BYTE	W24
	BYTE	PEND
// 072   ----------------------------------------
overdosing8850_6_072:
	BYTE		N68     Gs2   v100
	BYTE		N68     Cn3 
	BYTE		N68     Fn3 
	BYTE	W72
	BYTE		N22     Gn2 
	BYTE		N22     As2 
	BYTE		N22     Ds3 
	BYTE	W24
	BYTE	PEND
// 073   ----------------------------------------
	BYTE	PATT
	 POIN2	overdosing8850_6_065
// 074   ----------------------------------------
	BYTE	PATT
	 POIN2	overdosing8850_6_066
// 075   ----------------------------------------
	BYTE	PATT
	 POIN2	overdosing8850_6_067
// 076   ----------------------------------------
	BYTE	PATT
	 POIN2	overdosing8850_6_066
// 077   ----------------------------------------
overdosing8850_6_077:
	BYTE		N44     As2   v100
	BYTE		N44     Cs3 
	BYTE		N44     Fn3 
	BYTE	W48
	BYTE		        Gs2 
	BYTE		N44     Cn3 
	BYTE		N44     Ds3 
	BYTE	W48
	BYTE	PEND
// 078   ----------------------------------------
overdosing8850_6_078:
	BYTE		N44     Fn2   v100
	BYTE		N44     As2 
	BYTE		N44     Cs3 
	BYTE	W48
	BYTE		        Fs2 
	BYTE		N44     Bn2 
	BYTE		N44     Ds3 
	BYTE	W48
	BYTE	PEND
// 079   ----------------------------------------
	BYTE	PATT
	 POIN2	overdosing8850_6_077
// 080   ----------------------------------------
overdosing8850_6_080:
	BYTE		N44     Fn2   v100
	BYTE		N44     As2 
	BYTE		N44     Cs3 
	BYTE	W48
	BYTE		        As2 
	BYTE		N44     Cs3 
	BYTE		N44     Fs3 
	BYTE	W48
	BYTE	PEND
// 081   ----------------------------------------
overdosing8850_6_081:
	BYTE		N44     Fs2   v100
	BYTE		N44     Bn2 
	BYTE		N44     Ds3 
	BYTE	W48
	BYTE		        Gs2 
	BYTE		N44     Cs3 
	BYTE		N44     En3 
	BYTE	W48
	BYTE	PEND
// 082   ----------------------------------------
overdosing8850_6_082:
	BYTE		TIE     Fs2   v112
	BYTE		TIE     Cs3 
	BYTE	W96
	BYTE	PEND
// 083   ----------------------------------------
	BYTE	W96
// 084   ----------------------------------------
	BYTE	W96
// 085   ----------------------------------------
	BYTE	W92
	BYTE	W02
	BYTE		EOT     Fs2 
	BYTE		        Cs3 
	BYTE	W02
// 086   ----------------------------------------
	BYTE	PATT
	 POIN2	overdosing8850_6_016
// 087   ----------------------------------------
	BYTE	W96
// 088   ----------------------------------------
	BYTE	W96
// 089   ----------------------------------------
	BYTE	W92
	BYTE	W03
	BYTE		EOT     Dn2 
	BYTE		        Fs2 
	BYTE		        An2 
	BYTE	W01
// 090   ----------------------------------------
	BYTE	PATT
	 POIN2	overdosing8850_6_016
// 091   ----------------------------------------
	BYTE	W96
// 092   ----------------------------------------
	BYTE	W92
	BYTE	W03
	BYTE		EOT     Dn2 
	BYTE		        Fs2 
	BYTE		        An2 
	BYTE	W01
// 093   ----------------------------------------
	BYTE	W96
// 094   ----------------------------------------
	BYTE	PATT
	 POIN2	overdosing8850_6_024
// 095   ----------------------------------------
	BYTE	PATT
	 POIN2	overdosing8850_6_025
// 096   ----------------------------------------
	BYTE	PATT
	 POIN2	overdosing8850_6_026
// 097   ----------------------------------------
	BYTE	PATT
	 POIN2	overdosing8850_6_027
// 098   ----------------------------------------
	BYTE	PATT
	 POIN2	overdosing8850_6_028
// 099   ----------------------------------------
	BYTE	PATT
	 POIN2	overdosing8850_6_029
// 100   ----------------------------------------
	BYTE		N92     Bn2   v120
	BYTE		N92     Bn3 
	BYTE	W96
// 101   ----------------------------------------
	BYTE	W96
// 102   ----------------------------------------
	BYTE	W96
// 103   ----------------------------------------
	BYTE	W96
// 104   ----------------------------------------
	BYTE	PATT
	 POIN2	overdosing8850_6_024
// 105   ----------------------------------------
	BYTE	PATT
	 POIN2	overdosing8850_6_025
// 106   ----------------------------------------
	BYTE	PATT
	 POIN2	overdosing8850_6_036
// 107   ----------------------------------------
	BYTE	PATT
	 POIN2	overdosing8850_6_037
// 108   ----------------------------------------
	BYTE	PATT
	 POIN2	overdosing8850_6_038
// 109   ----------------------------------------
	BYTE	PATT
	 POIN2	overdosing8850_6_039
// 110   ----------------------------------------
	BYTE		N92     Ds3   v120
	BYTE		N92     Ds4 
	BYTE	W96
// 111   ----------------------------------------
	BYTE	W96
// 112   ----------------------------------------
	BYTE	W96
// 113   ----------------------------------------
	BYTE	W96
// 114   ----------------------------------------
	BYTE	W96
// 115   ----------------------------------------
	BYTE	W96
// 116   ----------------------------------------
	BYTE	W96
// 117   ----------------------------------------
	BYTE	W96
// 118   ----------------------------------------
	BYTE	PATT
	 POIN2	overdosing8850_6_048
// 119   ----------------------------------------
	BYTE	PATT
	 POIN2	overdosing8850_6_049
// 120   ----------------------------------------
	BYTE	PATT
	 POIN2	overdosing8850_6_050
// 121   ----------------------------------------
	BYTE	PATT
	 POIN2	overdosing8850_6_051
// 122   ----------------------------------------
	BYTE	PATT
	 POIN2	overdosing8850_6_050
// 123   ----------------------------------------
	BYTE		N92     En3   v100
	BYTE		N92     An3 
	BYTE		N92     Cs4 
	BYTE	W96
// 124   ----------------------------------------
	BYTE	PATT
	 POIN2	overdosing8850_6_054
// 125   ----------------------------------------
	BYTE	PATT
	 POIN2	overdosing8850_6_055
// 126   ----------------------------------------
	BYTE	PATT
	 POIN2	overdosing8850_6_048
// 127   ----------------------------------------
	BYTE	PATT
	 POIN2	overdosing8850_6_049
// 128   ----------------------------------------
	BYTE	PATT
	 POIN2	overdosing8850_6_050
// 129   ----------------------------------------
	BYTE	PATT
	 POIN2	overdosing8850_6_051
// 130   ----------------------------------------
	BYTE	PATT
	 POIN2	overdosing8850_6_050
// 131   ----------------------------------------
	BYTE		N92     En3   v100
	BYTE		N92     An3 
	BYTE		N92     Cs4 
	BYTE	W96
// 132   ----------------------------------------
	BYTE	PATT
	 POIN2	overdosing8850_6_054
// 133   ----------------------------------------
	BYTE	PATT
	 POIN2	overdosing8850_6_063
// 134   ----------------------------------------
	BYTE	PATT
	 POIN2	overdosing8850_6_064
// 135   ----------------------------------------
	BYTE	PATT
	 POIN2	overdosing8850_6_065
// 136   ----------------------------------------
	BYTE	PATT
	 POIN2	overdosing8850_6_066
// 137   ----------------------------------------
	BYTE	PATT
	 POIN2	overdosing8850_6_067
// 138   ----------------------------------------
	BYTE	PATT
	 POIN2	overdosing8850_6_066
// 139   ----------------------------------------
	BYTE	PATT
	 POIN2	overdosing8850_6_069
// 140   ----------------------------------------
	BYTE	PATT
	 POIN2	overdosing8850_6_070
// 141   ----------------------------------------
	BYTE	PATT
	 POIN2	overdosing8850_6_071
// 142   ----------------------------------------
	BYTE	PATT
	 POIN2	overdosing8850_6_072
// 143   ----------------------------------------
	BYTE	PATT
	 POIN2	overdosing8850_6_065
// 144   ----------------------------------------
	BYTE	PATT
	 POIN2	overdosing8850_6_066
// 145   ----------------------------------------
	BYTE	PATT
	 POIN2	overdosing8850_6_067
// 146   ----------------------------------------
	BYTE	PATT
	 POIN2	overdosing8850_6_066
// 147   ----------------------------------------
	BYTE	PATT
	 POIN2	overdosing8850_6_077
// 148   ----------------------------------------
	BYTE	PATT
	 POIN2	overdosing8850_6_078
// 149   ----------------------------------------
	BYTE	PATT
	 POIN2	overdosing8850_6_077
// 150   ----------------------------------------
	BYTE	PATT
	 POIN2	overdosing8850_6_080
// 151   ----------------------------------------
	BYTE	PATT
	 POIN2	overdosing8850_6_081
// 152   ----------------------------------------
	BYTE	PATT
	 POIN2	overdosing8850_6_082
// 153   ----------------------------------------
	BYTE	W96
// 154   ----------------------------------------
	BYTE	W96
// 155   ----------------------------------------
	BYTE	W92
	BYTE	W02
	BYTE		EOT     Fs2 
	BYTE		        Cs3 
	BYTE	W02
// 156   ----------------------------------------
	BYTE	W96
// 157   ----------------------------------------
	BYTE	W96
// 158   ----------------------------------------
	BYTE	W96
// 159   ----------------------------------------
	BYTE	W96
// 160   ----------------------------------------
	BYTE	W96
// 161   ----------------------------------------
	BYTE	W96
// 162   ----------------------------------------
	BYTE	W96
// 163   ----------------------------------------
	BYTE	W96
// 164   ----------------------------------------
	BYTE	PATT
	 POIN2	overdosing8850_6_048
// 165   ----------------------------------------
	BYTE	PATT
	 POIN2	overdosing8850_6_049
// 166   ----------------------------------------
	BYTE	PATT
	 POIN2	overdosing8850_6_050
// 167   ----------------------------------------
	BYTE	PATT
	 POIN2	overdosing8850_6_051
// 168   ----------------------------------------
	BYTE	PATT
	 POIN2	overdosing8850_6_050
// 169   ----------------------------------------
	BYTE		N92     En3   v100
	BYTE		N92     An3 
	BYTE		N92     Cs4 
	BYTE	W96
// 170   ----------------------------------------
	BYTE	PATT
	 POIN2	overdosing8850_6_054
// 171   ----------------------------------------
	BYTE	PATT
	 POIN2	overdosing8850_6_055
// 172   ----------------------------------------
	BYTE	PATT
	 POIN2	overdosing8850_6_048
// 173   ----------------------------------------
	BYTE	PATT
	 POIN2	overdosing8850_6_049
// 174   ----------------------------------------
	BYTE	PATT
	 POIN2	overdosing8850_6_050
// 175   ----------------------------------------
	BYTE	PATT
	 POIN2	overdosing8850_6_051
// 176   ----------------------------------------
	BYTE	PATT
	 POIN2	overdosing8850_6_050
// 177   ----------------------------------------
	BYTE		N92     En3   v100
	BYTE		N92     An3 
	BYTE		N92     Cs4 
	BYTE	W96
// 178   ----------------------------------------
	BYTE	PATT
	 POIN2	overdosing8850_6_054
// 179   ----------------------------------------
	BYTE	PATT
	 POIN2	overdosing8850_6_063
// 180   ----------------------------------------
	BYTE	PATT
	 POIN2	overdosing8850_6_064
// 181   ----------------------------------------
	BYTE	PATT
	 POIN2	overdosing8850_6_065
// 182   ----------------------------------------
	BYTE	PATT
	 POIN2	overdosing8850_6_066
// 183   ----------------------------------------
	BYTE	PATT
	 POIN2	overdosing8850_6_067
// 184   ----------------------------------------
	BYTE	PATT
	 POIN2	overdosing8850_6_066
// 185   ----------------------------------------
	BYTE	PATT
	 POIN2	overdosing8850_6_069
// 186   ----------------------------------------
	BYTE	PATT
	 POIN2	overdosing8850_6_070
// 187   ----------------------------------------
	BYTE	PATT
	 POIN2	overdosing8850_6_071
// 188   ----------------------------------------
	BYTE	PATT
	 POIN2	overdosing8850_6_072
// 189   ----------------------------------------
	BYTE	PATT
	 POIN2	overdosing8850_6_065
// 190   ----------------------------------------
	BYTE	PATT
	 POIN2	overdosing8850_6_066
// 191   ----------------------------------------
	BYTE	PATT
	 POIN2	overdosing8850_6_067
// 192   ----------------------------------------
	BYTE	PATT
	 POIN2	overdosing8850_6_066
// 193   ----------------------------------------
	BYTE	PATT
	 POIN2	overdosing8850_6_077
// 194   ----------------------------------------
	BYTE	PATT
	 POIN2	overdosing8850_6_078
// 195   ----------------------------------------
	BYTE	PATT
	 POIN2	overdosing8850_6_077
// 196   ----------------------------------------
	BYTE	PATT
	 POIN2	overdosing8850_6_080
// 197   ----------------------------------------
	BYTE	PATT
	 POIN2	overdosing8850_6_081
// 198   ----------------------------------------
	BYTE		TIE     Fs2   v112
	BYTE		TIE     An2 
	BYTE	W96
// 199   ----------------------------------------
	BYTE	W92
	BYTE	W03
	BYTE		EOT     Fs2 
	BYTE		        An2 
	BYTE	W01
// 200   ----------------------------------------
	BYTE		N92     Bn2 
	BYTE		N92     En3 
	BYTE	W96
// 201   ----------------------------------------
	BYTE		N92   
	BYTE		N92     Gs3 
	BYTE	W96
// 202   ----------------------------------------
	BYTE	PATT
	 POIN2	overdosing8850_6_002
// 203   ----------------------------------------
	BYTE		N92     Fs3   v092
	BYTE		N92     An3 
	BYTE	W96
// 204   ----------------------------------------
	BYTE	PATT
	 POIN2	overdosing8850_6_004
// 205   ----------------------------------------
	BYTE	PATT
	 POIN2	overdosing8850_6_005
// 206   ----------------------------------------
	BYTE	PATT
	 POIN2	overdosing8850_6_006
// 207   ----------------------------------------
	BYTE	PATT
	 POIN2	overdosing8850_6_007
// 208   ----------------------------------------
	BYTE	PATT
	 POIN2	overdosing8850_6_005
// 209   ----------------------------------------
	BYTE	PATT
	 POIN2	overdosing8850_6_009
// 210   ----------------------------------------
	BYTE	PATT
	 POIN2	overdosing8850_6_010
// 211   ----------------------------------------
	BYTE		N92     An2   v100
	BYTE		N92     Dn3 
	BYTE	W96
// 212   ----------------------------------------
	BYTE	PATT
	 POIN2	overdosing8850_6_012
// 213   ----------------------------------------
	BYTE	W96
// 214   ----------------------------------------
	BYTE	W96
// 215   ----------------------------------------
	BYTE	W92
	BYTE	W02
	BYTE		EOT     En2 
	BYTE		        An2 
	BYTE	W02
// 216   ----------------------------------------
	BYTE	PATT
	 POIN2	overdosing8850_6_016
// 217   ----------------------------------------
	BYTE	W96
// 218   ----------------------------------------
	BYTE	W96
// 219   ----------------------------------------
	BYTE	W92
	BYTE	W03
	BYTE		EOT     Dn2 
	BYTE		        Fs2 
	BYTE		        An2 
	BYTE	W01
// 220   ----------------------------------------
	BYTE	PATT
	 POIN2	overdosing8850_6_016
// 221   ----------------------------------------
	BYTE	W96
// 222   ----------------------------------------
	BYTE	W92
	BYTE	W03
	BYTE		EOT     Dn2 
	BYTE		        Fs2 
	BYTE		        An2 
	BYTE	W01
// 223   ----------------------------------------
	BYTE	W96
// 224   ----------------------------------------
	BYTE	W96
// 225   ----------------------------------------
	BYTE	W96
// 226   ----------------------------------------
	BYTE	W96
// 227   ----------------------------------------
	BYTE	W96
// 228   ----------------------------------------
	BYTE	W96
// 229   ----------------------------------------
	BYTE	W96
// 230   ----------------------------------------
	BYTE	W96
// 231   ----------------------------------------
	BYTE	FINE

//**************** Track 7 (Midi-Chn.7) ****************//

overdosing8850_7:
	BYTE	KEYSH   overdosing8850_key+0
// 000   ----------------------------------------
	BYTE	W48
	BYTE		VOICE   0
	BYTE		VOL     103*overdosing8850_mvl/mxv
	BYTE		PAN     c_v+0
	BYTE	W48
// 001   ----------------------------------------
	BYTE		MOD     0
	BYTE		BEND    c_v+0
	BYTE	W48
	BYTE	W24
	BYTE	W06
	BYTE	W06
	BYTE	W06
	BYTE	W06
// 002   ----------------------------------------
overdosing8850_7_002:
	BYTE		N44     Gn2   v100
	BYTE		N44     Bn2 
	BYTE		N44     En3 
	BYTE	W96
	BYTE	PEND
// 003   ----------------------------------------
overdosing8850_7_003:
	BYTE		N92     Fs2   v100
	BYTE		N92     An2 
	BYTE		N92     Dn3 
	BYTE	W96
	BYTE	PEND
// 004   ----------------------------------------
overdosing8850_7_004:
	BYTE		N44     Gn2   v100
	BYTE		N44     Bn2 
	BYTE		N44     Dn3 
	BYTE	W96
	BYTE	PEND
// 005   ----------------------------------------
overdosing8850_7_005:
	BYTE		N92     En2   v100
	BYTE		N92     Gn2 
	BYTE		N92     Cn3 
	BYTE	W96
	BYTE	PEND
// 006   ----------------------------------------
overdosing8850_7_006:
	BYTE		N44     Cn2   v100
	BYTE		N44     En2 
	BYTE		N44     An2 
	BYTE	W96
	BYTE	PEND
// 007   ----------------------------------------
overdosing8850_7_007:
	BYTE		N44     Dn2   v100
	BYTE		N44     Fs2 
	BYTE		N44     Bn2 
	BYTE	W48
	BYTE		        Dn2 
	BYTE		N44     Fs2 
	BYTE		N44     Bn2 
	BYTE	W48
	BYTE	PEND
// 008   ----------------------------------------
overdosing8850_7_008:
	BYTE		N11     Cn2   v092
	BYTE		N11     En2 
	BYTE		N11     Gn2 
	BYTE		N11     Cn3 
	BYTE	W36
	BYTE		        Cn2 
	BYTE		N11     En2 
	BYTE		N11     Gn2 
	BYTE		N11     Cn3 
	BYTE	W36
	BYTE		        Cn2 
	BYTE		N11     En2 
	BYTE		N11     Gn2 
	BYTE		N11     Cn3 
	BYTE	W24
	BYTE	PEND
// 009   ----------------------------------------
	BYTE	PATT
	 POIN2	overdosing8850_7_008
// 010   ----------------------------------------
overdosing8850_7_010:
	BYTE		N11     Dn2   v092
	BYTE		N11     Fs2 
	BYTE		N11     Bn2 
	BYTE		N11     Dn3 
	BYTE	W36
	BYTE		        Dn2 
	BYTE		N11     Fs2 
	BYTE		N11     Bn2 
	BYTE		N11     Dn3 
	BYTE	W36
	BYTE		        Dn2 
	BYTE		N11     Fs2 
	BYTE		N11     Bn2 
	BYTE		N11     Dn3 
	BYTE	W24
	BYTE	PEND
// 011   ----------------------------------------
	BYTE	PATT
	 POIN2	overdosing8850_7_010
// 012   ----------------------------------------
overdosing8850_7_012:
	BYTE		N11     En2   v092
	BYTE		N11     Fs2 
	BYTE		N11     An2 
	BYTE		N11     Dn3 
	BYTE	W36
	BYTE		        En2 
	BYTE		N11     Fs2 
	BYTE		N11     An2 
	BYTE		N11     Dn3 
	BYTE	W36
	BYTE		        En2 
	BYTE		N11     Fs2 
	BYTE		N11     An2 
	BYTE		N11     Dn3 
	BYTE	W24
	BYTE	PEND
// 013   ----------------------------------------
overdosing8850_7_013:
	BYTE	W12
	BYTE		N11     En2   v092
	BYTE		N11     Fs2 
	BYTE		N11     An2 
	BYTE		N11     Dn3 
	BYTE	W36
	BYTE		        En2 
	BYTE		N11     Fs2 
	BYTE		N11     An2 
	BYTE		N11     Dn3 
	BYTE	W24
	BYTE		        En2 
	BYTE		N11     Fs2 
	BYTE		N11     An2 
	BYTE		N11     Dn3 
	BYTE	W24
	BYTE	PEND
// 014   ----------------------------------------
	BYTE	PATT
	 POIN2	overdosing8850_7_012
// 015   ----------------------------------------
	BYTE	PATT
	 POIN2	overdosing8850_7_013
// 016   ----------------------------------------
overdosing8850_7_016:
	BYTE		N10     Fs2   v100
	BYTE		N10     An2 
	BYTE		N10     Dn3 
	BYTE		N10     Fs3 
	BYTE		N10     Fs4   v112
	BYTE	W12
	BYTE		N04     Fs3   v100
	BYTE		N04     Fs4   v112
	BYTE	W06
	BYTE		        En3   v100
	BYTE		N04     En4   v112
	BYTE	W06
	BYTE		        Dn3   v100
	BYTE		N04     Dn4   v112
	BYTE	W12
	BYTE		N10     Fs2   v100
	BYTE		N10     An2 
	BYTE		N10     Dn3 
	BYTE		N10     Fs3 
	BYTE		N10     Fs4   v112
	BYTE	W12
	BYTE		N04     Fs3   v100
	BYTE		N04     Fs4   v112
	BYTE	W06
	BYTE		        En3   v100
	BYTE		N04     En4   v112
	BYTE	W06
	BYTE		        Dn3   v100
	BYTE		N04     Dn4   v112
	BYTE	W12
	BYTE		N10     Fs2   v100
	BYTE		N10     An2 
	BYTE		N10     Dn3 
	BYTE		N10     Fs3 
	BYTE		N10     Fs4   v112
	BYTE	W12
	BYTE		N04     Fs3   v100
	BYTE		N04     Fs4   v112
	BYTE	W06
	BYTE		        En3   v100
	BYTE		N04     En4   v112
	BYTE	W06
	BYTE	PEND
// 017   ----------------------------------------
overdosing8850_7_017:
	BYTE		N04     Dn3   v100
	BYTE		N04     Dn4   v112
	BYTE	W12
	BYTE		N10     Fs2   v100
	BYTE		N10     An2 
	BYTE		N10     Dn3 
	BYTE		N10     Fs3 
	BYTE		N10     Fs4   v112
	BYTE	W12
	BYTE		N04     Fs3   v100
	BYTE		N04     Fs4   v112
	BYTE	W06
	BYTE		        En3   v100
	BYTE		N04     En4   v112
	BYTE	W06
	BYTE		        Dn3   v100
	BYTE		N04     Dn4   v112
	BYTE	W12
	BYTE		N11     En2   v100
	BYTE		N11     Gs2 
	BYTE		N11     Bn2 
	BYTE		N11     En3 
	BYTE		N10     Bn3   v112
	BYTE		N10     En4 
	BYTE		N10     Gs4 
	BYTE	W24
	BYTE		N22     En2   v100
	BYTE		N22     Gs2 
	BYTE		N22     Bn2 
	BYTE		N22     En3 
	BYTE		N22     Bn3   v112
	BYTE		N22     En4 
	BYTE		N22     Gs4 
	BYTE	W24
	BYTE	PEND
// 018   ----------------------------------------
	BYTE	PATT
	 POIN2	overdosing8850_7_016
// 019   ----------------------------------------
overdosing8850_7_019:
	BYTE		N04     Dn3   v100
	BYTE		N04     Dn4   v112
	BYTE	W12
	BYTE		N32     En2   v100
	BYTE		N32     Fs2 
	BYTE		N32     An2 
	BYTE		N32     Dn3 
	BYTE		N32     Dn4   v112
	BYTE		N32     Fs4 
	BYTE		N32     An4 
	BYTE	W36
	BYTE		N11     En2   v100
	BYTE		N11     Gs2 
	BYTE		N11     Bn2 
	BYTE		N11     En3 
	BYTE		N10     En4   v112
	BYTE		N10     Gs4 
	BYTE		N10     Bn4 
	BYTE	W24
	BYTE		N22     En2   v100
	BYTE		N22     Gs2 
	BYTE		N22     Bn2 
	BYTE		N22     En3 
	BYTE		N22     En4   v112
	BYTE		N22     Gs4 
	BYTE		N22     Bn4 
	BYTE	W24
	BYTE	PEND
// 020   ----------------------------------------
overdosing8850_7_020:
	BYTE		N11     Fs2   v100
	BYTE		N11     An2 
	BYTE		N11     Dn3 
	BYTE		N10     Fs3   v112
	BYTE		N10     Fs4 
	BYTE	W12
	BYTE		N04     Fs3 
	BYTE		N04     Fs4 
	BYTE	W06
	BYTE		        En3 
	BYTE		N04     En4 
	BYTE	W06
	BYTE		        Dn3 
	BYTE		N04     Dn4 
	BYTE	W12
	BYTE		N11     Fs2   v100
	BYTE		N11     An2 
	BYTE		N11     Dn3 
	BYTE		N10     Fs3   v112
	BYTE		N10     Fs4 
	BYTE	W12
	BYTE		N04     Fs3 
	BYTE		N04     Fs4 
	BYTE	W06
	BYTE		        En3 
	BYTE		N04     En4 
	BYTE	W06
	BYTE		        Dn3 
	BYTE		N04     Dn4 
	BYTE	W12
	BYTE		N11     Fs2   v100
	BYTE		N11     An2 
	BYTE		N11     Dn3 
	BYTE		N10     Fs3   v112
	BYTE		N10     Fs4 
	BYTE	W12
	BYTE		N04     Fs3 
	BYTE		N04     Fs4 
	BYTE	W06
	BYTE		        En3 
	BYTE		N04     En4 
	BYTE	W06
	BYTE	PEND
// 021   ----------------------------------------
overdosing8850_7_021:
	BYTE		N04     Dn3   v112
	BYTE		N04     Dn4 
	BYTE	W12
	BYTE		N11     Fs2   v100
	BYTE		N11     An2 
	BYTE		N11     Dn3 
	BYTE		N10     Fs3   v112
	BYTE		N10     Fs4 
	BYTE	W12
	BYTE		N04     Fs3 
	BYTE		N04     Fs4 
	BYTE	W06
	BYTE		        En3 
	BYTE		N04     En4 
	BYTE	W06
	BYTE		        Dn3 
	BYTE		N04     Dn4 
	BYTE	W12
	BYTE		N11     En2   v100
	BYTE		N11     Gs2 
	BYTE		N11     Bn2 
	BYTE		N11     En3 
	BYTE		N10     Bn3   v112
	BYTE		N10     En4 
	BYTE		N10     Gs4 
	BYTE	W24
	BYTE		N22     En2   v100
	BYTE		N22     Gs2 
	BYTE		N22     Bn2 
	BYTE		N22     En3 
	BYTE		N22     Bn3   v112
	BYTE		N22     En4 
	BYTE		N22     Gs4 
	BYTE	W24
	BYTE	PEND
// 022   ----------------------------------------
overdosing8850_7_022:
	BYTE		N11     Fs2   v100
	BYTE		N11     An2 
	BYTE		N11     Dn3 
	BYTE		N10     Fs3   v112
	BYTE		N10     Fs4 
	BYTE	W12
	BYTE		N04     Fs3 
	BYTE		N04     Fs4 
	BYTE	W06
	BYTE		        En3 
	BYTE		N04     En4 
	BYTE	W06
	BYTE		        Dn3 
	BYTE		N04     Dn4 
	BYTE	W12
	BYTE		N11     Fs2   v100
	BYTE		N11     An2 
	BYTE		N11     Dn3 
	BYTE		N10     Fs3   v112
	BYTE		N10     Fs4 
	BYTE	W12
	BYTE		N04     Fs3 
	BYTE		N04     Fs4 
	BYTE	W06
	BYTE		        En3 
	BYTE		N04     En4 
	BYTE	W06
	BYTE		        Dn3 
	BYTE		N04     Dn4 
	BYTE	W12
	BYTE		N10     En2   v100
	BYTE		N10     Fs2 
	BYTE		N10     An2 
	BYTE		N10     Dn3 
	BYTE		N10     An3   v112
	BYTE		N10     Dn4 
	BYTE		N10     Fs4 
	BYTE	W12
	BYTE		        En2   v100
	BYTE		N10     Fs2 
	BYTE		N10     An2 
	BYTE		N10     Dn3 
	BYTE		N10     An3   v112
	BYTE		N10     Dn4 
	BYTE		N10     Fs4 
	BYTE	W12
	BYTE	PEND
// 023   ----------------------------------------
	BYTE	W96
// 024   ----------------------------------------
overdosing8850_7_024:
	BYTE		N11     En2   v092
	BYTE		N11     Gn2 
	BYTE		N11     Bn2 
	BYTE		N11     En3 
	BYTE	W36
	BYTE		        En2 
	BYTE		N11     Gn2 
	BYTE		N11     Bn2 
	BYTE		N11     En3 
	BYTE	W36
	BYTE		        En2 
	BYTE		N11     Gn2 
	BYTE		N11     Bn2 
	BYTE		N11     En3 
	BYTE	W24
	BYTE	PEND
// 025   ----------------------------------------
overdosing8850_7_025:
	BYTE		N11     En2   v092
	BYTE		N11     Gn2 
	BYTE		N11     Bn2 
	BYTE		N11     En3 
	BYTE	W36
	BYTE		        En2 
	BYTE		N11     Gn2 
	BYTE		N11     Bn2 
	BYTE		N11     En3 
	BYTE	W24
	BYTE		N10     En2 
	BYTE		N10     Gn2 
	BYTE		N10     Bn2 
	BYTE		N10     En3 
	BYTE	W12
	BYTE		N11     Dn2 
	BYTE		N11     Fs2 
	BYTE		N11     An2 
	BYTE		N11     Dn3 
	BYTE	W24
	BYTE	PEND
// 026   ----------------------------------------
	BYTE	PATT
	 POIN2	overdosing8850_7_008
// 027   ----------------------------------------
overdosing8850_7_027:
	BYTE		N11     Fn2   v092
	BYTE		N11     An2 
	BYTE		N11     Cn3 
	BYTE		N11     Fn3 
	BYTE	W36
	BYTE		        Fn2 
	BYTE		N11     An2 
	BYTE		N11     Cn3 
	BYTE		N11     Fn3 
	BYTE	W36
	BYTE		N10     Fn2 
	BYTE		N10     An2 
	BYTE		N10     Cn3 
	BYTE		N10     Fn3 
	BYTE	W12
	BYTE		        En2 
	BYTE		N10     Gn2 
	BYTE		N10     Bn2 
	BYTE		N10     En3 
	BYTE	W12
	BYTE	PEND
// 028   ----------------------------------------
overdosing8850_7_028:
	BYTE		N11     Dn2   v092
	BYTE		N11     Fn2 
	BYTE		N11     An2 
	BYTE		N11     Dn3 
	BYTE	W36
	BYTE		        Dn2 
	BYTE		N11     Fn2 
	BYTE		N11     An2 
	BYTE		N11     Dn3 
	BYTE	W36
	BYTE		        Dn2 
	BYTE		N11     Fn2 
	BYTE		N11     An2 
	BYTE		N11     Dn3 
	BYTE	W24
	BYTE	PEND
// 029   ----------------------------------------
	BYTE	PATT
	 POIN2	overdosing8850_7_024
// 030   ----------------------------------------
overdosing8850_7_030:
	BYTE		N10     Bn2   v100
	BYTE		N10     En3 
	BYTE		N10     Gn3 
	BYTE		N10     Bn3 
	BYTE		N10     Bn4   v112
	BYTE	W12
	BYTE		N04     Bn3   v100
	BYTE		N04     Bn4   v112
	BYTE	W06
	BYTE		        An3   v100
	BYTE		N04     An4   v112
	BYTE	W06
	BYTE		        Gn3   v100
	BYTE		N04     Gn4   v112
	BYTE	W12
	BYTE		N10     Bn2   v100
	BYTE		N10     En3 
	BYTE		N10     Gn3 
	BYTE		N10     Bn3 
	BYTE		N10     Bn4   v112
	BYTE	W12
	BYTE		N04     Bn3   v100
	BYTE		N04     Bn4   v112
	BYTE	W06
	BYTE		        An3   v100
	BYTE		N04     An4   v112
	BYTE	W06
	BYTE		        Gn3   v100
	BYTE		N04     Gn4   v112
	BYTE	W12
	BYTE		N10     Bn2   v100
	BYTE		N10     En3 
	BYTE		N10     Gn3 
	BYTE		N10     Bn3 
	BYTE		N10     Bn4   v112
	BYTE	W12
	BYTE		N04     Bn3   v100
	BYTE		N04     Bn4   v112
	BYTE	W06
	BYTE		        An3   v100
	BYTE		N04     An4   v112
	BYTE	W06
	BYTE	PEND
// 031   ----------------------------------------
overdosing8850_7_031:
	BYTE		N04     Gn3   v100
	BYTE		N04     Gn4   v112
	BYTE	W12
	BYTE		N10     Bn2   v100
	BYTE		N10     En3 
	BYTE		N10     Gn3 
	BYTE		N10     Bn3 
	BYTE		N10     Bn4   v112
	BYTE	W12
	BYTE		N04     Bn3   v100
	BYTE		N04     Bn4   v112
	BYTE	W06
	BYTE		        An3   v100
	BYTE		N04     An4   v112
	BYTE	W06
	BYTE		        Gn3   v100
	BYTE		N04     Gn4   v112
	BYTE	W12
	BYTE		N11     Fs2   v100
	BYTE		N11     An2 
	BYTE		N11     Dn3 
	BYTE		N11     Fs3 
	BYTE		N10     Fs4   v112
	BYTE		N10     An4 
	BYTE		N10     Dn5 
	BYTE	W24
	BYTE		N22     Fs2   v100
	BYTE		N22     An2 
	BYTE		N22     Dn3 
	BYTE		N22     Fs3 
	BYTE		N22     Fs4   v112
	BYTE		N22     An4 
	BYTE		N22     Dn5 
	BYTE	W24
	BYTE	PEND
// 032   ----------------------------------------
	BYTE	PATT
	 POIN2	overdosing8850_7_030
// 033   ----------------------------------------
	BYTE	PATT
	 POIN2	overdosing8850_7_031
// 034   ----------------------------------------
	BYTE	PATT
	 POIN2	overdosing8850_7_024
// 035   ----------------------------------------
	BYTE	PATT
	 POIN2	overdosing8850_7_025
// 036   ----------------------------------------
	BYTE	PATT
	 POIN2	overdosing8850_7_008
// 037   ----------------------------------------
overdosing8850_7_037:
	BYTE		N11     Fn2   v092
	BYTE		N11     An2 
	BYTE		N11     Cn3 
	BYTE		N11     Fn3 
	BYTE	W36
	BYTE		        Fn2 
	BYTE		N11     An2 
	BYTE		N11     Cn3 
	BYTE		N11     Fn3 
	BYTE	W36
	BYTE		N10     Fn2 
	BYTE		N10     An2 
	BYTE		N10     Cn3 
	BYTE		N10     Fn3 
	BYTE	W12
	BYTE		        Gn2 
	BYTE		N10     Bn2 
	BYTE		N10     En3 
	BYTE		N10     Gn3 
	BYTE	W12
	BYTE	PEND
// 038   ----------------------------------------
overdosing8850_7_038:
	BYTE		N11     Fs2   v092
	BYTE		N11     Bn2 
	BYTE		N11     Ds3 
	BYTE		N11     Fs3 
	BYTE	W36
	BYTE		        Fs2 
	BYTE		N11     Bn2 
	BYTE		N11     Ds3 
	BYTE		N11     Fs3 
	BYTE	W36
	BYTE		        Fs2 
	BYTE		N11     Bn2 
	BYTE		N11     Ds3 
	BYTE		N11     Fs3 
	BYTE	W24
	BYTE	PEND
// 039   ----------------------------------------
overdosing8850_7_039:
	BYTE		N11     Gs2   v092
	BYTE		N11     Cs3 
	BYTE		N11     Fn3 
	BYTE		N11     Gs3 
	BYTE	W36
	BYTE		        Gs2 
	BYTE		N11     Cs3 
	BYTE		N11     Fn3 
	BYTE		N11     Gs3 
	BYTE	W36
	BYTE		        Gs2 
	BYTE		N11     Cs3 
	BYTE		N11     Fn3 
	BYTE		N11     Gs3 
	BYTE	W24
	BYTE	PEND
// 040   ----------------------------------------
overdosing8850_7_040:
	BYTE		N10     Ds3   v100
	BYTE		N10     Fs3 
	BYTE		N10     Bn3 
	BYTE		N10     Ds4 
	BYTE		N10     Ds5   v112
	BYTE	W12
	BYTE		N04     Ds4   v100
	BYTE		N04     Ds5   v112
	BYTE	W06
	BYTE		        Cs4   v100
	BYTE		N04     Cs5   v112
	BYTE	W06
	BYTE		        Bn3   v100
	BYTE		N04     Bn4   v112
	BYTE	W12
	BYTE		N10     Ds3   v100
	BYTE		N10     Fs3 
	BYTE		N10     Bn3 
	BYTE		N10     Ds4 
	BYTE		N10     Ds5   v112
	BYTE	W12
	BYTE		N04     Ds4   v100
	BYTE		N04     Ds5   v112
	BYTE	W06
	BYTE		        Cs4   v100
	BYTE		N04     Cs5   v112
	BYTE	W06
	BYTE		        Bn3   v100
	BYTE		N04     Bn4   v112
	BYTE	W12
	BYTE		N10     Ds3   v100
	BYTE		N10     Fs3 
	BYTE		N10     Bn3 
	BYTE		N10     Ds4 
	BYTE		N10     Ds5   v112
	BYTE	W12
	BYTE		N04     Ds4   v100
	BYTE		N04     Ds5   v112
	BYTE	W06
	BYTE		        Cs4   v100
	BYTE		N04     Cs5   v112
	BYTE	W06
	BYTE	PEND
// 041   ----------------------------------------
overdosing8850_7_041:
	BYTE		N04     Bn3   v100
	BYTE		N04     Bn4   v112
	BYTE	W12
	BYTE		N10     Ds3   v100
	BYTE		N10     Gs3 
	BYTE		N10     Bn3 
	BYTE		N10     Ds4 
	BYTE		N10     Ds5   v112
	BYTE	W12
	BYTE		N04     Ds4   v100
	BYTE		N04     Ds5   v112
	BYTE	W06
	BYTE		        Cs4   v100
	BYTE		N04     Cs5   v112
	BYTE	W06
	BYTE		        Bn3   v100
	BYTE		N04     Bn4   v112
	BYTE	W12
	BYTE		N11     En3   v100
	BYTE		N11     Gs3 
	BYTE		N11     Bn3 
	BYTE		N11     Ds4 
	BYTE		N11     Gs4   v112
	BYTE		N11     Bn4 
	BYTE		N11     Ds5 
	BYTE	W24
	BYTE		N22     Fs3   v100
	BYTE		N22     As3 
	BYTE		N22     Cs4 
	BYTE		N22     Fn4 
	BYTE		N22     As4   v112
	BYTE		N22     Cs5 
	BYTE		N22     Fn5 
	BYTE	W24
	BYTE	PEND
// 042   ----------------------------------------
	BYTE	PATT
	 POIN2	overdosing8850_7_040
// 043   ----------------------------------------
overdosing8850_7_043:
	BYTE		N04     Bn3   v100
	BYTE		N04     Bn4   v112
	BYTE	W12
	BYTE		N32     Fs3   v100
	BYTE		N32     Bn3 
	BYTE		N32     Ds4 
	BYTE		N32     Fs4 
	BYTE		N32     Bn4   v112
	BYTE		N32     Ds5 
	BYTE		N32     Fs5 
	BYTE	W36
	BYTE		N11     Gs3   v100
	BYTE		N11     Cs4 
	BYTE		N11     Fn4 
	BYTE		N11     Gs4 
	BYTE		N11     Cs5   v112
	BYTE		N11     Fn5 
	BYTE		N11     Gs5 
	BYTE	W24
	BYTE		N22     Gs3   v100
	BYTE		N22     Cs4 
	BYTE		N22     Fn4 
	BYTE		N22     Gs4 
	BYTE		N22     Cs5   v112
	BYTE		N22     Fn5 
	BYTE		N22     Gs5 
	BYTE	W24
	BYTE	PEND
// 044   ----------------------------------------
	BYTE	PATT
	 POIN2	overdosing8850_7_040
// 045   ----------------------------------------
	BYTE	PATT
	 POIN2	overdosing8850_7_041
// 046   ----------------------------------------
	BYTE	PATT
	 POIN2	overdosing8850_7_040
// 047   ----------------------------------------
	BYTE	PATT
	 POIN2	overdosing8850_7_043
// 048   ----------------------------------------
overdosing8850_7_048:
	BYTE		N92     En3   v100
	BYTE		N92     Gs3 
	BYTE		N92     Bn3 
	BYTE		N92     En4 
	BYTE	W96
	BYTE	PEND
// 049   ----------------------------------------
overdosing8850_7_049:
	BYTE		N92     Fs3   v100
	BYTE		N92     As3 
	BYTE		N92     Cs4 
	BYTE		N92     Fs4 
	BYTE	W96
	BYTE	PEND
// 050   ----------------------------------------
overdosing8850_7_050:
	BYTE		N92     Ds3   v100
	BYTE		N92     Gs3 
	BYTE		N92     Bn3 
	BYTE		N92     Ds4 
	BYTE	W96
	BYTE	PEND
// 051   ----------------------------------------
overdosing8850_7_051:
	BYTE		N44     En3   v100
	BYTE		N44     Gs3 
	BYTE		N44     Bn3 
	BYTE		N44     En4 
	BYTE		N10     As4   v120
	BYTE	W12
	BYTE		        Bn4 
	BYTE	W12
	BYTE		N68     Gs4 
	BYTE	W24
	BYTE		N44     Fs3   v100
	BYTE		N44     As3 
	BYTE		N44     Ds4 
	BYTE		N44     Fs4 
	BYTE	W48
	BYTE	PEND
// 052   ----------------------------------------
	BYTE	PATT
	 POIN2	overdosing8850_7_050
// 053   ----------------------------------------
overdosing8850_7_053:
	BYTE		N92     Gs3   v100
	BYTE		N92     Cs4 
	BYTE		N92     En4 
	BYTE		N92     Gs4 
	BYTE	W96
	BYTE	PEND
// 054   ----------------------------------------
overdosing8850_7_054:
	BYTE		N92     Gn3   v100
	BYTE		N92     As3 
	BYTE		N92     Ds4 
	BYTE		N92     Gn4 
	BYTE	W96
	BYTE	PEND
// 055   ----------------------------------------
overdosing8850_7_055:
	BYTE		N44     Ds3   v100
	BYTE		N44     Gn3 
	BYTE		N44     As3 
	BYTE		N44     Ds4 
	BYTE	W48
	BYTE		N16     Gn3 
	BYTE		N16     As3 
	BYTE		N16     Cs4 
	BYTE		N16     Gn4 
	BYTE	W18
	BYTE		        Gs3 
	BYTE		N16     Bn3 
	BYTE		N16     Ds4 
	BYTE		N16     Gs4 
	BYTE	W18
	BYTE		N10     As3 
	BYTE		N10     Cs4 
	BYTE		N10     Gn4 
	BYTE		N10     As4 
	BYTE	W12
	BYTE	PEND
// 056   ----------------------------------------
	BYTE	PATT
	 POIN2	overdosing8850_7_048
// 057   ----------------------------------------
	BYTE	PATT
	 POIN2	overdosing8850_7_049
// 058   ----------------------------------------
	BYTE	PATT
	 POIN2	overdosing8850_7_050
// 059   ----------------------------------------
	BYTE	PATT
	 POIN2	overdosing8850_7_051
// 060   ----------------------------------------
	BYTE	PATT
	 POIN2	overdosing8850_7_050
// 061   ----------------------------------------
	BYTE	PATT
	 POIN2	overdosing8850_7_053
// 062   ----------------------------------------
	BYTE	PATT
	 POIN2	overdosing8850_7_054
// 063   ----------------------------------------
overdosing8850_7_063:
	BYTE		N08     Ds3   v092
	BYTE		N08     Gn3 
	BYTE		N08     As3 
	BYTE		N08     Ds4 
	BYTE	W12
	BYTE		        Ds3 
	BYTE		N08     Gn3 
	BYTE		N08     As3 
	BYTE		N08     Ds4 
	BYTE	W12
	BYTE		        Ds3 
	BYTE		N08     Gn3 
	BYTE		N08     As3 
	BYTE		N08     Ds4 
	BYTE	W12
	BYTE		        Ds3 
	BYTE		N08     Gn3 
	BYTE		N08     As3 
	BYTE		N08     Ds4 
	BYTE	W12
	BYTE		N10     Gn3 
	BYTE		N10     As3 
	BYTE		N10     Ds4 
	BYTE		N10     Gn4 
	BYTE	W24
	BYTE		N22     As3 
	BYTE		N22     Ds4 
	BYTE		N22     Gn4 
	BYTE		N22     As4 
	BYTE	W24
	BYTE	PEND
// 064   ----------------------------------------
overdosing8850_7_064:
	BYTE		N05     Fn2   v092
	BYTE		N05     Gs2 
	BYTE		N05     Cn3 
	BYTE		N05     Fn3 
	BYTE	W24
	BYTE		        Fn2 
	BYTE		N05     Gs2 
	BYTE		N05     Cn3 
	BYTE		N05     Fn3 
	BYTE	W24
	BYTE		        Fn2 
	BYTE		N05     Gs2 
	BYTE		N05     Cn3 
	BYTE		N05     Fn3 
	BYTE	W24
	BYTE		N21     Ds2 
	BYTE		N21     Gn2 
	BYTE		N21     As2 
	BYTE		N21     Ds3 
	BYTE	W24
	BYTE	PEND
// 065   ----------------------------------------
overdosing8850_7_065:
	BYTE		N05     Cs2   v092
	BYTE		N05     Fn2 
	BYTE		N05     Gs2 
	BYTE		N05     Cs3 
	BYTE	W24
	BYTE		        Cs2 
	BYTE		N05     Fn2 
	BYTE		N05     Gs2 
	BYTE		N05     Cs3 
	BYTE	W24
	BYTE		        Cs2 
	BYTE		N05     Fn2 
	BYTE		N05     Gs2 
	BYTE		N05     Cs3 
	BYTE	W24
	BYTE		N20     Cn2 
	BYTE		N20     Ds2 
	BYTE		N20     Gn2 
	BYTE		N20     Cn3 
	BYTE	W24
	BYTE	PEND
// 066   ----------------------------------------
overdosing8850_7_066:
	BYTE		N05     Cs2   v092
	BYTE		N05     Fn2 
	BYTE		N05     Gs2 
	BYTE		N05     Cs3 
	BYTE	W24
	BYTE		        Cs2 
	BYTE		N05     Fn2 
	BYTE		N05     Gs2 
	BYTE		N05     Cs3 
	BYTE	W24
	BYTE		        Ds2 
	BYTE		N05     Gn2 
	BYTE		N05     As2 
	BYTE		N05     Ds3 
	BYTE	W24
	BYTE		        Ds2 
	BYTE		N05     Gn2 
	BYTE		N05     As2 
	BYTE		N05     Ds3 
	BYTE	W24
	BYTE	PEND
// 067   ----------------------------------------
	BYTE	PATT
	 POIN2	overdosing8850_7_064
// 068   ----------------------------------------
	BYTE	PATT
	 POIN2	overdosing8850_7_066
// 069   ----------------------------------------
overdosing8850_7_069:
	BYTE		N05     Fn2   v092
	BYTE		N05     As2 
	BYTE		N05     Cs3 
	BYTE		N05     Fn3 
	BYTE	W24
	BYTE		        Fn2 
	BYTE		N05     As2 
	BYTE		N05     Cs3 
	BYTE		N05     Fn3 
	BYTE	W24
	BYTE		        Ds2 
	BYTE		N05     Gs2 
	BYTE		N05     Cn3 
	BYTE		N05     Ds3 
	BYTE	W24
	BYTE		        Cn2 
	BYTE		N05     Ds2 
	BYTE		N05     Gs2 
	BYTE		N05     Cn3 
	BYTE	W24
	BYTE	PEND
// 070   ----------------------------------------
overdosing8850_7_070:
	BYTE		N20     As1   v092
	BYTE		N20     Cs2 
	BYTE		N20     Fn2 
	BYTE		N20     As2 
	BYTE	W24
	BYTE		        As1 
	BYTE		N20     Cs2 
	BYTE		N20     Fn2 
	BYTE		N20     As2 
	BYTE	W24
	BYTE		        Ds2 
	BYTE		N20     Fs2 
	BYTE		N20     Bn2 
	BYTE		N20     Ds3 
	BYTE	W24
	BYTE		        Ds2 
	BYTE		N20     Fs2 
	BYTE		N20     Bn2 
	BYTE		N20     Ds3 
	BYTE	W24
	BYTE	PEND
// 071   ----------------------------------------
overdosing8850_7_071:
	BYTE		N08     Fn2   v092
	BYTE		N08     As2 
	BYTE		N08     Cs3 
	BYTE		N08     Fn3 
	BYTE	W12
	BYTE		        Fn2 
	BYTE		N08     As2 
	BYTE		N08     Cs3 
	BYTE		N08     Fn3 
	BYTE	W12
	BYTE		        Cs2 
	BYTE		N08     Fn2 
	BYTE		N08     As2 
	BYTE		N08     Cs3 
	BYTE	W12
	BYTE		        As1 
	BYTE		N08     Cs2 
	BYTE		N08     Fn2 
	BYTE		N08     As2 
	BYTE	W12
	BYTE		N09     Gs2 
	BYTE		N09     Cn3 
	BYTE		N09     Ds3 
	BYTE		N09     Gs3 
	BYTE	W24
	BYTE		N19     Ds2 
	BYTE		N19     Gn2 
	BYTE		N19     As2 
	BYTE		N19     Ds3 
	BYTE	W24
	BYTE	PEND
// 072   ----------------------------------------
	BYTE	PATT
	 POIN2	overdosing8850_7_064
// 073   ----------------------------------------
	BYTE	PATT
	 POIN2	overdosing8850_7_065
// 074   ----------------------------------------
	BYTE	PATT
	 POIN2	overdosing8850_7_066
// 075   ----------------------------------------
	BYTE	PATT
	 POIN2	overdosing8850_7_064
// 076   ----------------------------------------
	BYTE	PATT
	 POIN2	overdosing8850_7_066
// 077   ----------------------------------------
overdosing8850_7_077:
	BYTE		N05     Fn2   v092
	BYTE		N05     As2 
	BYTE		N05     Cs3 
	BYTE		N05     Fn3 
	BYTE	W24
	BYTE		        Fn2 
	BYTE		N05     As2 
	BYTE		N05     Cs3 
	BYTE		N05     Fn3 
	BYTE	W24
	BYTE		        Ds2 
	BYTE		N05     Gs2 
	BYTE		N05     Cn3 
	BYTE		N05     Ds3 
	BYTE	W24
	BYTE		N20     Cn2 
	BYTE		N20     Ds2 
	BYTE		N20     Gs2 
	BYTE		N20     Cn3 
	BYTE	W24
	BYTE	PEND
// 078   ----------------------------------------
overdosing8850_7_078:
	BYTE		N20     As1   v092
	BYTE		N20     Cs2 
	BYTE		N20     Fn2 
	BYTE		N20     As2 
	BYTE	W24
	BYTE		        As1 
	BYTE		N20     Cs2 
	BYTE		N20     Fn2 
	BYTE		N20     As2 
	BYTE	W24
	BYTE		        Bn1 
	BYTE		N20     Ds2 
	BYTE		N20     Fs2 
	BYTE		N20     Bn2 
	BYTE	W24
	BYTE		        Bn1 
	BYTE		N20     Ds2 
	BYTE		N20     Fs2 
	BYTE		N20     Bn2 
	BYTE	W24
	BYTE	PEND
// 079   ----------------------------------------
overdosing8850_7_079:
	BYTE		N20     As1   v092
	BYTE		N20     Ds2 
	BYTE		N20     Fn2 
	BYTE		N20     As2 
	BYTE	W24
	BYTE		        As1 
	BYTE		N20     Ds2 
	BYTE		N20     Fn2 
	BYTE		N20     As2 
	BYTE	W24
	BYTE		        Ds2 
	BYTE		N20     Gs2 
	BYTE		N20     Cn3 
	BYTE		N20     Ds3 
	BYTE	W24
	BYTE		        Ds2 
	BYTE		N20     Gn2 
	BYTE		N20     As2 
	BYTE		N20     Ds3 
	BYTE	W24
	BYTE	PEND
// 080   ----------------------------------------
overdosing8850_7_080:
	BYTE		N20     Cs2   v100
	BYTE		N20     Fn2 
	BYTE		N20     As2 
	BYTE		N20     Cs3 
	BYTE	W24
	BYTE		        Cs2 
	BYTE		N20     Fn2 
	BYTE		N20     As2 
	BYTE		N20     Cs3 
	BYTE	W24
	BYTE		        Fs2 
	BYTE		N20     As2 
	BYTE		N20     Cs3 
	BYTE		N20     Fs3 
	BYTE	W24
	BYTE		        Fs2 
	BYTE		N20     As2 
	BYTE		N20     Cs3 
	BYTE		N20     Fs3 
	BYTE	W24
	BYTE	PEND
// 081   ----------------------------------------
overdosing8850_7_081:
	BYTE		N20     Ds2   v100
	BYTE		N20     Fs2 
	BYTE		N20     Bn2 
	BYTE		N20     Ds3 
	BYTE	W24
	BYTE		        Ds2 
	BYTE		N20     Fs2 
	BYTE		N20     Bn2 
	BYTE		N20     Ds3 
	BYTE	W24
	BYTE		        En2 
	BYTE		N20     Gs2 
	BYTE		N20     Cs3 
	BYTE		N20     En3 
	BYTE	W24
	BYTE		        En2 
	BYTE		N20     Gs2 
	BYTE		N20     Cs3 
	BYTE		N20     En3 
	BYTE	W24
	BYTE	PEND
// 082   ----------------------------------------
	BYTE	PATT
	 POIN2	overdosing8850_7_012
// 083   ----------------------------------------
	BYTE	PATT
	 POIN2	overdosing8850_7_013
// 084   ----------------------------------------
	BYTE	PATT
	 POIN2	overdosing8850_7_012
// 085   ----------------------------------------
	BYTE	PATT
	 POIN2	overdosing8850_7_013
// 086   ----------------------------------------
	BYTE	PATT
	 POIN2	overdosing8850_7_016
// 087   ----------------------------------------
	BYTE	PATT
	 POIN2	overdosing8850_7_017
// 088   ----------------------------------------
	BYTE	PATT
	 POIN2	overdosing8850_7_016
// 089   ----------------------------------------
	BYTE	PATT
	 POIN2	overdosing8850_7_019
// 090   ----------------------------------------
	BYTE	PATT
	 POIN2	overdosing8850_7_020
// 091   ----------------------------------------
	BYTE	PATT
	 POIN2	overdosing8850_7_021
// 092   ----------------------------------------
	BYTE	PATT
	 POIN2	overdosing8850_7_022
// 093   ----------------------------------------
	BYTE	W96
// 094   ----------------------------------------
	BYTE	PATT
	 POIN2	overdosing8850_7_024
// 095   ----------------------------------------
	BYTE	PATT
	 POIN2	overdosing8850_7_025
// 096   ----------------------------------------
	BYTE	PATT
	 POIN2	overdosing8850_7_008
// 097   ----------------------------------------
	BYTE	PATT
	 POIN2	overdosing8850_7_027
// 098   ----------------------------------------
	BYTE	PATT
	 POIN2	overdosing8850_7_028
// 099   ----------------------------------------
	BYTE	PATT
	 POIN2	overdosing8850_7_024
// 100   ----------------------------------------
	BYTE	PATT
	 POIN2	overdosing8850_7_030
// 101   ----------------------------------------
	BYTE	PATT
	 POIN2	overdosing8850_7_031
// 102   ----------------------------------------
	BYTE	PATT
	 POIN2	overdosing8850_7_030
// 103   ----------------------------------------
	BYTE	PATT
	 POIN2	overdosing8850_7_031
// 104   ----------------------------------------
	BYTE	PATT
	 POIN2	overdosing8850_7_024
// 105   ----------------------------------------
	BYTE	PATT
	 POIN2	overdosing8850_7_025
// 106   ----------------------------------------
	BYTE	PATT
	 POIN2	overdosing8850_7_008
// 107   ----------------------------------------
	BYTE	PATT
	 POIN2	overdosing8850_7_037
// 108   ----------------------------------------
	BYTE	PATT
	 POIN2	overdosing8850_7_038
// 109   ----------------------------------------
	BYTE	PATT
	 POIN2	overdosing8850_7_039
// 110   ----------------------------------------
	BYTE	PATT
	 POIN2	overdosing8850_7_040
// 111   ----------------------------------------
	BYTE	PATT
	 POIN2	overdosing8850_7_041
// 112   ----------------------------------------
	BYTE	PATT
	 POIN2	overdosing8850_7_040
// 113   ----------------------------------------
	BYTE	PATT
	 POIN2	overdosing8850_7_043
// 114   ----------------------------------------
	BYTE	PATT
	 POIN2	overdosing8850_7_040
// 115   ----------------------------------------
	BYTE	PATT
	 POIN2	overdosing8850_7_041
// 116   ----------------------------------------
	BYTE	PATT
	 POIN2	overdosing8850_7_040
// 117   ----------------------------------------
	BYTE	PATT
	 POIN2	overdosing8850_7_043
// 118   ----------------------------------------
	BYTE	PATT
	 POIN2	overdosing8850_7_048
// 119   ----------------------------------------
	BYTE	PATT
	 POIN2	overdosing8850_7_049
// 120   ----------------------------------------
	BYTE	PATT
	 POIN2	overdosing8850_7_050
// 121   ----------------------------------------
	BYTE	PATT
	 POIN2	overdosing8850_7_051
// 122   ----------------------------------------
	BYTE	PATT
	 POIN2	overdosing8850_7_050
// 123   ----------------------------------------
	BYTE	PATT
	 POIN2	overdosing8850_7_053
// 124   ----------------------------------------
	BYTE	PATT
	 POIN2	overdosing8850_7_054
// 125   ----------------------------------------
	BYTE	PATT
	 POIN2	overdosing8850_7_055
// 126   ----------------------------------------
	BYTE	PATT
	 POIN2	overdosing8850_7_048
// 127   ----------------------------------------
	BYTE	PATT
	 POIN2	overdosing8850_7_049
// 128   ----------------------------------------
	BYTE	PATT
	 POIN2	overdosing8850_7_050
// 129   ----------------------------------------
	BYTE	PATT
	 POIN2	overdosing8850_7_051
// 130   ----------------------------------------
	BYTE	PATT
	 POIN2	overdosing8850_7_050
// 131   ----------------------------------------
	BYTE	PATT
	 POIN2	overdosing8850_7_053
// 132   ----------------------------------------
	BYTE	PATT
	 POIN2	overdosing8850_7_054
// 133   ----------------------------------------
	BYTE	PATT
	 POIN2	overdosing8850_7_063
// 134   ----------------------------------------
	BYTE	PATT
	 POIN2	overdosing8850_7_064
// 135   ----------------------------------------
	BYTE	PATT
	 POIN2	overdosing8850_7_065
// 136   ----------------------------------------
	BYTE	PATT
	 POIN2	overdosing8850_7_066
// 137   ----------------------------------------
	BYTE	PATT
	 POIN2	overdosing8850_7_064
// 138   ----------------------------------------
	BYTE	PATT
	 POIN2	overdosing8850_7_066
// 139   ----------------------------------------
	BYTE	PATT
	 POIN2	overdosing8850_7_069
// 140   ----------------------------------------
	BYTE	PATT
	 POIN2	overdosing8850_7_070
// 141   ----------------------------------------
	BYTE	PATT
	 POIN2	overdosing8850_7_071
// 142   ----------------------------------------
	BYTE	PATT
	 POIN2	overdosing8850_7_064
// 143   ----------------------------------------
	BYTE	PATT
	 POIN2	overdosing8850_7_065
// 144   ----------------------------------------
	BYTE	PATT
	 POIN2	overdosing8850_7_066
// 145   ----------------------------------------
	BYTE	PATT
	 POIN2	overdosing8850_7_064
// 146   ----------------------------------------
	BYTE	PATT
	 POIN2	overdosing8850_7_066
// 147   ----------------------------------------
	BYTE	PATT
	 POIN2	overdosing8850_7_077
// 148   ----------------------------------------
	BYTE	PATT
	 POIN2	overdosing8850_7_078
// 149   ----------------------------------------
	BYTE	PATT
	 POIN2	overdosing8850_7_079
// 150   ----------------------------------------
	BYTE	PATT
	 POIN2	overdosing8850_7_080
// 151   ----------------------------------------
	BYTE	PATT
	 POIN2	overdosing8850_7_081
// 152   ----------------------------------------
	BYTE	PATT
	 POIN2	overdosing8850_7_012
// 153   ----------------------------------------
	BYTE	PATT
	 POIN2	overdosing8850_7_013
// 154   ----------------------------------------
	BYTE	PATT
	 POIN2	overdosing8850_7_012
// 155   ----------------------------------------
	BYTE	PATT
	 POIN2	overdosing8850_7_013
// 156   ----------------------------------------
	BYTE	PATT
	 POIN2	overdosing8850_7_040
// 157   ----------------------------------------
	BYTE	PATT
	 POIN2	overdosing8850_7_041
// 158   ----------------------------------------
	BYTE	PATT
	 POIN2	overdosing8850_7_040
// 159   ----------------------------------------
	BYTE	PATT
	 POIN2	overdosing8850_7_043
// 160   ----------------------------------------
	BYTE	PATT
	 POIN2	overdosing8850_7_040
// 161   ----------------------------------------
	BYTE	PATT
	 POIN2	overdosing8850_7_041
// 162   ----------------------------------------
	BYTE		N10     Ds3   v100
	BYTE		N10     Fs3 
	BYTE		N10     Bn3 
	BYTE		N10     Ds4 
	BYTE		N10     Ds5   v112
	BYTE	W12
	BYTE		N04     Ds4   v100
	BYTE		N04     Ds5   v112
	BYTE	W06
	BYTE		        Cs4   v100
	BYTE		N04     Cs5   v112
	BYTE	W06
	BYTE		        Bn3   v100
	BYTE		N04     Bn4   v112
	BYTE	W12
	BYTE		N10     Ds3   v100
	BYTE		N10     Fs3 
	BYTE		N10     Bn3 
	BYTE		N10     Ds4 
	BYTE		N10     Ds5   v112
	BYTE	W12
	BYTE		N04     Ds4   v100
	BYTE		N04     Ds5   v112
	BYTE	W06
	BYTE		        Cs4   v100
	BYTE		N04     Cs5   v112
	BYTE	W06
	BYTE		        Bn3   v100
	BYTE		N04     Bn4   v112
	BYTE	W12
	BYTE		N08     Ds3   v100
	BYTE		N08     Fs3 
	BYTE		N08     Bn3 
	BYTE		N08     Ds4 
	BYTE		N08     Ds5   v112
	BYTE	W12
	BYTE		        Ds3   v100
	BYTE		N08     Fs3 
	BYTE		N08     Bn3 
	BYTE		N08     Ds4 
	BYTE		N08     Ds5   v112
	BYTE	W12
// 163   ----------------------------------------
	BYTE	W96
// 164   ----------------------------------------
	BYTE	PATT
	 POIN2	overdosing8850_7_048
// 165   ----------------------------------------
	BYTE	PATT
	 POIN2	overdosing8850_7_049
// 166   ----------------------------------------
	BYTE	PATT
	 POIN2	overdosing8850_7_050
// 167   ----------------------------------------
	BYTE	PATT
	 POIN2	overdosing8850_7_051
// 168   ----------------------------------------
	BYTE	PATT
	 POIN2	overdosing8850_7_050
// 169   ----------------------------------------
	BYTE	PATT
	 POIN2	overdosing8850_7_053
// 170   ----------------------------------------
	BYTE	PATT
	 POIN2	overdosing8850_7_054
// 171   ----------------------------------------
	BYTE	PATT
	 POIN2	overdosing8850_7_055
// 172   ----------------------------------------
	BYTE	PATT
	 POIN2	overdosing8850_7_048
// 173   ----------------------------------------
	BYTE	PATT
	 POIN2	overdosing8850_7_049
// 174   ----------------------------------------
	BYTE	PATT
	 POIN2	overdosing8850_7_050
// 175   ----------------------------------------
	BYTE	PATT
	 POIN2	overdosing8850_7_051
// 176   ----------------------------------------
	BYTE	PATT
	 POIN2	overdosing8850_7_050
// 177   ----------------------------------------
	BYTE	PATT
	 POIN2	overdosing8850_7_053
// 178   ----------------------------------------
	BYTE	PATT
	 POIN2	overdosing8850_7_054
// 179   ----------------------------------------
	BYTE	PATT
	 POIN2	overdosing8850_7_063
// 180   ----------------------------------------
	BYTE	PATT
	 POIN2	overdosing8850_7_064
// 181   ----------------------------------------
	BYTE	PATT
	 POIN2	overdosing8850_7_065
// 182   ----------------------------------------
	BYTE	PATT
	 POIN2	overdosing8850_7_066
// 183   ----------------------------------------
	BYTE	PATT
	 POIN2	overdosing8850_7_064
// 184   ----------------------------------------
	BYTE	PATT
	 POIN2	overdosing8850_7_066
// 185   ----------------------------------------
	BYTE	PATT
	 POIN2	overdosing8850_7_069
// 186   ----------------------------------------
	BYTE	PATT
	 POIN2	overdosing8850_7_070
// 187   ----------------------------------------
	BYTE	PATT
	 POIN2	overdosing8850_7_071
// 188   ----------------------------------------
	BYTE	PATT
	 POIN2	overdosing8850_7_064
// 189   ----------------------------------------
	BYTE	PATT
	 POIN2	overdosing8850_7_065
// 190   ----------------------------------------
	BYTE	PATT
	 POIN2	overdosing8850_7_066
// 191   ----------------------------------------
	BYTE	PATT
	 POIN2	overdosing8850_7_064
// 192   ----------------------------------------
	BYTE	PATT
	 POIN2	overdosing8850_7_066
// 193   ----------------------------------------
	BYTE	PATT
	 POIN2	overdosing8850_7_077
// 194   ----------------------------------------
	BYTE	PATT
	 POIN2	overdosing8850_7_078
// 195   ----------------------------------------
	BYTE	PATT
	 POIN2	overdosing8850_7_079
// 196   ----------------------------------------
	BYTE	PATT
	 POIN2	overdosing8850_7_080
// 197   ----------------------------------------
	BYTE	PATT
	 POIN2	overdosing8850_7_081
// 198   ----------------------------------------
	BYTE		TIE     Cs2   v092
	BYTE		TIE     Fs2 
	BYTE		TIE     An2 
	BYTE		TIE     Cs3 
	BYTE	W96
// 199   ----------------------------------------
	BYTE	W92
	BYTE	W02
	BYTE		EOT     Cs2 
	BYTE		        Fs2 
	BYTE		        An2 
	BYTE		        Cs3 
	BYTE	W02
// 200   ----------------------------------------
overdosing8850_7_200:
	BYTE		N92     Gs2   v092
	BYTE		N92     Bn2 
	BYTE		N92     En3 
	BYTE	W96
	BYTE	PEND
// 201   ----------------------------------------
	BYTE	PATT
	 POIN2	overdosing8850_7_200
// 202   ----------------------------------------
	BYTE	PATT
	 POIN2	overdosing8850_7_002
// 203   ----------------------------------------
	BYTE	PATT
	 POIN2	overdosing8850_7_003
// 204   ----------------------------------------
	BYTE	PATT
	 POIN2	overdosing8850_7_004
// 205   ----------------------------------------
	BYTE	PATT
	 POIN2	overdosing8850_7_005
// 206   ----------------------------------------
	BYTE	PATT
	 POIN2	overdosing8850_7_006
// 207   ----------------------------------------
	BYTE	PATT
	 POIN2	overdosing8850_7_007
// 208   ----------------------------------------
	BYTE	PATT
	 POIN2	overdosing8850_7_008
// 209   ----------------------------------------
	BYTE	PATT
	 POIN2	overdosing8850_7_008
// 210   ----------------------------------------
	BYTE	PATT
	 POIN2	overdosing8850_7_010
// 211   ----------------------------------------
	BYTE	PATT
	 POIN2	overdosing8850_7_010
// 212   ----------------------------------------
	BYTE	PATT
	 POIN2	overdosing8850_7_012
// 213   ----------------------------------------
	BYTE	PATT
	 POIN2	overdosing8850_7_013
// 214   ----------------------------------------
	BYTE	PATT
	 POIN2	overdosing8850_7_012
// 215   ----------------------------------------
	BYTE	PATT
	 POIN2	overdosing8850_7_013
// 216   ----------------------------------------
	BYTE	PATT
	 POIN2	overdosing8850_7_016
// 217   ----------------------------------------
	BYTE	PATT
	 POIN2	overdosing8850_7_017
// 218   ----------------------------------------
	BYTE	PATT
	 POIN2	overdosing8850_7_016
// 219   ----------------------------------------
	BYTE	PATT
	 POIN2	overdosing8850_7_019
// 220   ----------------------------------------
	BYTE	PATT
	 POIN2	overdosing8850_7_020
// 221   ----------------------------------------
	BYTE	PATT
	 POIN2	overdosing8850_7_021
// 222   ----------------------------------------
	BYTE		N11     Fs2   v100
	BYTE		N11     An2 
	BYTE		N11     Dn3 
	BYTE		N10     Fs3   v112
	BYTE		N10     Fs4 
	BYTE	W12
	BYTE		N04     Fs3 
	BYTE		N04     Fs4 
	BYTE	W06
	BYTE		        En3 
	BYTE		N04     En4 
	BYTE	W06
	BYTE		        Dn3 
	BYTE		N04     Dn4 
	BYTE	W12
	BYTE		N11     Fs2   v100
	BYTE		N11     An2 
	BYTE		N11     Dn3 
	BYTE		N10     Fs3   v112
	BYTE		N10     Fs4 
	BYTE	W12
	BYTE		N04     Fs3 
	BYTE		N04     Fs4 
	BYTE	W06
	BYTE		        En3 
	BYTE		N04     En4 
	BYTE	W06
	BYTE		        Dn3 
	BYTE		N04     Dn4 
	BYTE	W12
	BYTE		N10     Dn2   v100
	BYTE		N10     Fs2 
	BYTE		N10     An2 
	BYTE		N10     Dn3 
	BYTE		N10     Fs3   v112
	BYTE		N10     An3 
	BYTE		N10     Dn4 
	BYTE	W12
	BYTE		        Dn2   v100
	BYTE		N10     Fs2 
	BYTE		N10     An2 
	BYTE		N10     Dn3 
	BYTE		N10     Fs3   v112
	BYTE		N10     An3 
	BYTE		N10     Dn4 
	BYTE	W12
// 223   ----------------------------------------
	BYTE	W96
// 224   ----------------------------------------
	BYTE		TIE     Dn2   v100
	BYTE		TIE     Fs2 
	BYTE		TIE     Bn2 
	BYTE		TIE     Dn3 
	BYTE		TIE     An3 
	BYTE	W03
	BYTE		        Cs4   v088
	BYTE	W03
	BYTE		        Fs4   v084
	BYTE	W90
// 225   ----------------------------------------
	BYTE	W96
// 226   ----------------------------------------
	BYTE	W96
// 227   ----------------------------------------
	BYTE	W96
// 228   ----------------------------------------
	BYTE	W96
// 229   ----------------------------------------
	BYTE	W92
	BYTE	W03
	BYTE		EOT     Dn2 
	BYTE		        Fs2 
	BYTE		        Bn2 
	BYTE		        Dn3 
	BYTE		        An3 
	BYTE		        Cs4 
	BYTE	W01
	BYTE		        Fs4 
// 230   ----------------------------------------
	BYTE	W96
// 231   ----------------------------------------
	BYTE	FINE

//**************** Track 8 (Midi-Chn.8) ****************//

overdosing8850_8:
	BYTE	KEYSH   overdosing8850_key+0
// 000   ----------------------------------------
	BYTE	W48
	BYTE		VOICE   31
	BYTE		VOL     50*overdosing8850_mvl/mxv
	BYTE		PAN     c_v+0
	BYTE	W48
// 001   ----------------------------------------
	BYTE		MOD     0
	BYTE		BEND    c_v+0
	BYTE	W48
	BYTE	W24
	BYTE	W06
	BYTE	W06
	BYTE	W06
	BYTE	W06
// 002   ----------------------------------------
	BYTE	W96
// 003   ----------------------------------------
	BYTE	W96
// 004   ----------------------------------------
	BYTE	W96
// 005   ----------------------------------------
	BYTE	W96
// 006   ----------------------------------------
	BYTE	W96
// 007   ----------------------------------------
	BYTE	W96
// 008   ----------------------------------------
	BYTE	W96
// 009   ----------------------------------------
	BYTE	W96
// 010   ----------------------------------------
	BYTE	W96
// 011   ----------------------------------------
	BYTE	W96
// 012   ----------------------------------------
	BYTE	W96
// 013   ----------------------------------------
	BYTE	W96
// 014   ----------------------------------------
	BYTE	W96
// 015   ----------------------------------------
	BYTE	W96
// 016   ----------------------------------------
	BYTE	W96
// 017   ----------------------------------------
	BYTE	W96
// 018   ----------------------------------------
	BYTE	W96
// 019   ----------------------------------------
	BYTE	W96
// 020   ----------------------------------------
	BYTE	W96
// 021   ----------------------------------------
	BYTE	W96
// 022   ----------------------------------------
	BYTE	W96
// 023   ----------------------------------------
	BYTE	W48
	BYTE		N44     Dn3   v036
	BYTE	W48
// 024   ----------------------------------------
	BYTE	W96
// 025   ----------------------------------------
	BYTE	W96
// 026   ----------------------------------------
	BYTE	W96
// 027   ----------------------------------------
	BYTE	W96
// 028   ----------------------------------------
	BYTE	W96
// 029   ----------------------------------------
	BYTE	W96
// 030   ----------------------------------------
	BYTE	W96
// 031   ----------------------------------------
	BYTE	W96
// 032   ----------------------------------------
	BYTE	W96
// 033   ----------------------------------------
	BYTE	W96
// 034   ----------------------------------------
	BYTE	W96
// 035   ----------------------------------------
	BYTE	W96
// 036   ----------------------------------------
	BYTE	W96
// 037   ----------------------------------------
	BYTE	W96
// 038   ----------------------------------------
	BYTE	W96
// 039   ----------------------------------------
	BYTE	W96
// 040   ----------------------------------------
	BYTE	W96
// 041   ----------------------------------------
	BYTE	W96
// 042   ----------------------------------------
	BYTE	W96
// 043   ----------------------------------------
	BYTE	W96
// 044   ----------------------------------------
	BYTE	W96
// 045   ----------------------------------------
	BYTE	W96
// 046   ----------------------------------------
	BYTE	W96
// 047   ----------------------------------------
	BYTE	W96
// 048   ----------------------------------------
	BYTE	W96
// 049   ----------------------------------------
	BYTE	W96
// 050   ----------------------------------------
	BYTE	W96
// 051   ----------------------------------------
	BYTE	W96
// 052   ----------------------------------------
	BYTE	W96
// 053   ----------------------------------------
	BYTE	W96
// 054   ----------------------------------------
	BYTE	W96
// 055   ----------------------------------------
	BYTE	W96
// 056   ----------------------------------------
	BYTE	W96
// 057   ----------------------------------------
	BYTE	W96
// 058   ----------------------------------------
	BYTE	W96
// 059   ----------------------------------------
	BYTE	W96
// 060   ----------------------------------------
	BYTE	W96
// 061   ----------------------------------------
	BYTE	W96
// 062   ----------------------------------------
	BYTE	W96
// 063   ----------------------------------------
	BYTE	W96
// 064   ----------------------------------------
	BYTE	W96
// 065   ----------------------------------------
	BYTE	W96
// 066   ----------------------------------------
	BYTE	W96
// 067   ----------------------------------------
	BYTE	W96
// 068   ----------------------------------------
	BYTE	W96
// 069   ----------------------------------------
	BYTE	W96
// 070   ----------------------------------------
	BYTE	W96
// 071   ----------------------------------------
	BYTE	W96
// 072   ----------------------------------------
	BYTE	W96
// 073   ----------------------------------------
	BYTE	W96
// 074   ----------------------------------------
	BYTE	W96
// 075   ----------------------------------------
	BYTE	W96
// 076   ----------------------------------------
	BYTE	W96
// 077   ----------------------------------------
	BYTE	W96
// 078   ----------------------------------------
	BYTE	W96
// 079   ----------------------------------------
	BYTE	W96
// 080   ----------------------------------------
	BYTE	W96
// 081   ----------------------------------------
	BYTE	W96
// 082   ----------------------------------------
	BYTE	W96
// 083   ----------------------------------------
	BYTE	W96
// 084   ----------------------------------------
	BYTE	W96
// 085   ----------------------------------------
	BYTE	W96
// 086   ----------------------------------------
	BYTE	W96
// 087   ----------------------------------------
	BYTE	W96
// 088   ----------------------------------------
	BYTE	W96
// 089   ----------------------------------------
	BYTE	W96
// 090   ----------------------------------------
	BYTE	W96
// 091   ----------------------------------------
	BYTE	W96
// 092   ----------------------------------------
	BYTE	W96
// 093   ----------------------------------------
	BYTE	W48
	BYTE		N44   
	BYTE	W48
// 094   ----------------------------------------
	BYTE	W96
// 095   ----------------------------------------
	BYTE	W96
// 096   ----------------------------------------
	BYTE	W96
// 097   ----------------------------------------
	BYTE	W96
// 098   ----------------------------------------
	BYTE	W96
// 099   ----------------------------------------
	BYTE	W96
// 100   ----------------------------------------
	BYTE	W96
// 101   ----------------------------------------
	BYTE	W96
// 102   ----------------------------------------
	BYTE	W96
// 103   ----------------------------------------
	BYTE	W96
// 104   ----------------------------------------
	BYTE	W96
// 105   ----------------------------------------
	BYTE	W96
// 106   ----------------------------------------
	BYTE	W96
// 107   ----------------------------------------
	BYTE	W96
// 108   ----------------------------------------
	BYTE	W96
// 109   ----------------------------------------
	BYTE	W96
// 110   ----------------------------------------
	BYTE	W96
// 111   ----------------------------------------
	BYTE	W96
// 112   ----------------------------------------
	BYTE	W96
// 113   ----------------------------------------
	BYTE	W96
// 114   ----------------------------------------
	BYTE	W96
// 115   ----------------------------------------
	BYTE	W96
// 116   ----------------------------------------
	BYTE	W96
// 117   ----------------------------------------
	BYTE	W96
// 118   ----------------------------------------
	BYTE	W96
// 119   ----------------------------------------
	BYTE	W96
// 120   ----------------------------------------
	BYTE	W96
// 121   ----------------------------------------
	BYTE	W96
// 122   ----------------------------------------
	BYTE	W96
// 123   ----------------------------------------
	BYTE	W96
// 124   ----------------------------------------
	BYTE	W96
// 125   ----------------------------------------
	BYTE	W96
// 126   ----------------------------------------
	BYTE	W96
// 127   ----------------------------------------
	BYTE	W96
// 128   ----------------------------------------
	BYTE	W96
// 129   ----------------------------------------
	BYTE	W96
// 130   ----------------------------------------
	BYTE	W96
// 131   ----------------------------------------
	BYTE	W96
// 132   ----------------------------------------
	BYTE	W96
// 133   ----------------------------------------
	BYTE	W96
// 134   ----------------------------------------
	BYTE	W96
// 135   ----------------------------------------
	BYTE	W96
// 136   ----------------------------------------
	BYTE	W96
// 137   ----------------------------------------
	BYTE	W96
// 138   ----------------------------------------
	BYTE	W96
// 139   ----------------------------------------
	BYTE	W96
// 140   ----------------------------------------
	BYTE	W96
// 141   ----------------------------------------
	BYTE	W96
// 142   ----------------------------------------
	BYTE	W96
// 143   ----------------------------------------
	BYTE	W96
// 144   ----------------------------------------
	BYTE	W96
// 145   ----------------------------------------
	BYTE	W96
// 146   ----------------------------------------
	BYTE	W96
// 147   ----------------------------------------
	BYTE	W96
// 148   ----------------------------------------
	BYTE	W96
// 149   ----------------------------------------
	BYTE	W96
// 150   ----------------------------------------
	BYTE	W96
// 151   ----------------------------------------
	BYTE	W96
// 152   ----------------------------------------
	BYTE	W96
// 153   ----------------------------------------
	BYTE		TIE     Fn4   v028
	BYTE	W54
	BYTE		MOD     0
	BYTE	W01
	BYTE		        2
	BYTE	W01
	BYTE		        5
	BYTE	W01
	BYTE		        10
	BYTE	W01
	BYTE		        13
	BYTE	W01
	BYTE		        15
	BYTE	W01
	BYTE		        20
	BYTE	W01
	BYTE		        23
	BYTE	W01
	BYTE		        26
	BYTE	W01
	BYTE		        31
	BYTE	W01
	BYTE		        33
	BYTE	W01
	BYTE		        36
	BYTE	W01
	BYTE		        41
	BYTE	W01
	BYTE		        44
	BYTE	W01
	BYTE		        47
	BYTE	W01
	BYTE		        52
	BYTE	W01
	BYTE		        54
	BYTE	W01
	BYTE		        57
	BYTE	W01
	BYTE		        62
	BYTE	W01
	BYTE		        65
	BYTE	W01
	BYTE		        67
	BYTE	W01
	BYTE		        73
	BYTE	W01
	BYTE		        75
	BYTE	W01
	BYTE		        78
	BYTE	W01
	BYTE		        83
	BYTE	W01
	BYTE		        86
	BYTE	W01
	BYTE		        88
	BYTE	W01
	BYTE		        94
	BYTE	W01
	BYTE		        96
	BYTE	W01
	BYTE		        99
	BYTE	W01
	BYTE		        104
	BYTE	W01
	BYTE		        107
	BYTE	W01
	BYTE		        109
	BYTE	W01
	BYTE		        114
	BYTE	W01
	BYTE		        117
	BYTE	W01
	BYTE		        120
	BYTE	W01
	BYTE		        125
	BYTE	W01
	BYTE		        127
	BYTE	W05
// 154   ----------------------------------------
	BYTE	W96
// 155   ----------------------------------------
	BYTE	W92
	BYTE	W01
	BYTE		        0
	BYTE	W02
	BYTE		EOT   
	BYTE	W01
// 156   ----------------------------------------
	BYTE	W96
// 157   ----------------------------------------
	BYTE	W96
// 158   ----------------------------------------
	BYTE	W96
// 159   ----------------------------------------
	BYTE	W96
// 160   ----------------------------------------
	BYTE	W96
// 161   ----------------------------------------
	BYTE	W96
// 162   ----------------------------------------
	BYTE	W96
// 163   ----------------------------------------
	BYTE		N32     Fn2   v076
	BYTE		N32     An2 
	BYTE	W36
	BYTE		N02     An2   v100
	BYTE		N02     Cn3 
	BYTE	W06
	BYTE		        An2 
	BYTE		N02     Cn3 
	BYTE	W06
	BYTE		N44     Gn3   v076
	BYTE		N44     Bn3 
	BYTE	W48
// 164   ----------------------------------------
	BYTE	W96
// 165   ----------------------------------------
	BYTE	W96
// 166   ----------------------------------------
	BYTE	W96
// 167   ----------------------------------------
	BYTE	W96
// 168   ----------------------------------------
	BYTE	W96
// 169   ----------------------------------------
	BYTE	W96
// 170   ----------------------------------------
	BYTE	W96
// 171   ----------------------------------------
	BYTE	W96
// 172   ----------------------------------------
	BYTE	W96
// 173   ----------------------------------------
	BYTE	W96
// 174   ----------------------------------------
	BYTE	W96
// 175   ----------------------------------------
	BYTE	W96
// 176   ----------------------------------------
	BYTE	W96
// 177   ----------------------------------------
	BYTE	W96
// 178   ----------------------------------------
	BYTE	W96
// 179   ----------------------------------------
	BYTE	W96
// 180   ----------------------------------------
	BYTE	W96
// 181   ----------------------------------------
	BYTE	W96
// 182   ----------------------------------------
	BYTE	W96
// 183   ----------------------------------------
	BYTE	W96
// 184   ----------------------------------------
	BYTE	W96
// 185   ----------------------------------------
	BYTE	W96
// 186   ----------------------------------------
	BYTE	W96
// 187   ----------------------------------------
	BYTE	W96
// 188   ----------------------------------------
	BYTE	W96
// 189   ----------------------------------------
	BYTE	W96
// 190   ----------------------------------------
	BYTE	W96
// 191   ----------------------------------------
	BYTE	W96
// 192   ----------------------------------------
	BYTE	W96
// 193   ----------------------------------------
	BYTE	W96
// 194   ----------------------------------------
	BYTE	W96
// 195   ----------------------------------------
	BYTE	W96
// 196   ----------------------------------------
	BYTE	W96
// 197   ----------------------------------------
	BYTE	W96
// 198   ----------------------------------------
	BYTE	W96
// 199   ----------------------------------------
	BYTE	W96
// 200   ----------------------------------------
	BYTE	W96
// 201   ----------------------------------------
	BYTE	W96
// 202   ----------------------------------------
	BYTE	W96
// 203   ----------------------------------------
	BYTE	W96
// 204   ----------------------------------------
	BYTE	W96
// 205   ----------------------------------------
	BYTE	W96
// 206   ----------------------------------------
	BYTE	W96
// 207   ----------------------------------------
	BYTE	W96
// 208   ----------------------------------------
	BYTE	W96
// 209   ----------------------------------------
	BYTE	W96
// 210   ----------------------------------------
	BYTE	W96
// 211   ----------------------------------------
	BYTE	W96
// 212   ----------------------------------------
	BYTE	W96
// 213   ----------------------------------------
	BYTE	W96
// 214   ----------------------------------------
	BYTE	W96
// 215   ----------------------------------------
	BYTE	W96
// 216   ----------------------------------------
	BYTE	W96
// 217   ----------------------------------------
	BYTE	W96
// 218   ----------------------------------------
	BYTE	W96
// 219   ----------------------------------------
	BYTE	W96
// 220   ----------------------------------------
	BYTE	W96
// 221   ----------------------------------------
	BYTE	W96
// 222   ----------------------------------------
	BYTE	W96
// 223   ----------------------------------------
	BYTE	W96
// 224   ----------------------------------------
	BYTE	W96
// 225   ----------------------------------------
	BYTE	W96
// 226   ----------------------------------------
	BYTE	W96
// 227   ----------------------------------------
	BYTE	W96
// 228   ----------------------------------------
	BYTE	W96
// 229   ----------------------------------------
	BYTE	W96
// 230   ----------------------------------------
	BYTE	W96
// 231   ----------------------------------------
	BYTE	FINE

//**************** Track 9 (Midi-Chn.9) ****************//

overdosing8850_9:
	BYTE	KEYSH   overdosing8850_key+0
// 000   ----------------------------------------
	BYTE	W48
	BYTE		VOICE   84
	BYTE		VOL     80*overdosing8850_mvl/mxv
	BYTE		PAN     c_v+0
	BYTE	W48
// 001   ----------------------------------------
	BYTE		MOD     0
	BYTE		BEND    c_v+0
	BYTE	W48
	BYTE		PAN     c_v-64
	BYTE	W24
	BYTE		VOL     80*overdosing8850_mvl/mxv
	BYTE	W06
	BYTE	W06
	BYTE	W06
	BYTE	W06
// 002   ----------------------------------------
overdosing8850_9_002:
	BYTE		PAN     c_v-63
	BYTE		N04     Bn5   v108
	BYTE	W01
	BYTE		PAN     c_v-62
	BYTE	W01
	BYTE		        c_v-61
	BYTE	W01
	BYTE		        c_v-59
	BYTE	W01
	BYTE		        c_v-58
	BYTE	W01
	BYTE		        c_v-57
	BYTE	W01
	BYTE		        c_v-55
	BYTE		N04     Bn4   v096
	BYTE	W01
	BYTE		PAN     c_v-54
	BYTE	W01
	BYTE		        c_v-53
	BYTE	W01
	BYTE		        c_v-51
	BYTE	W01
	BYTE		        c_v-50
	BYTE	W01
	BYTE		        c_v-49
	BYTE	W01
	BYTE		        c_v-47
	BYTE		N04     Gn5   v108
	BYTE	W01
	BYTE		PAN     c_v-46
	BYTE	W01
	BYTE		        c_v-45
	BYTE	W01
	BYTE		        c_v-43
	BYTE	W01
	BYTE		        c_v-42
	BYTE	W01
	BYTE		        c_v-41
	BYTE	W01
	BYTE		        c_v-39
	BYTE		N04     Gn4   v096
	BYTE	W01
	BYTE		PAN     c_v-38
	BYTE	W01
	BYTE		        c_v-37
	BYTE	W01
	BYTE		        c_v-35
	BYTE	W01
	BYTE		        c_v-34
	BYTE	W01
	BYTE		        c_v-33
	BYTE	W01
	BYTE		        c_v-31
	BYTE		N04     An5   v108
	BYTE	W01
	BYTE		PAN     c_v-30
	BYTE	W01
	BYTE		        c_v-29
	BYTE	W01
	BYTE		        c_v-27
	BYTE	W01
	BYTE		        c_v-26
	BYTE	W01
	BYTE		        c_v-25
	BYTE	W01
	BYTE		        c_v-23
	BYTE		N04     An4   v096
	BYTE	W01
	BYTE		PAN     c_v-22
	BYTE	W01
	BYTE		        c_v-21
	BYTE	W01
	BYTE		        c_v-19
	BYTE	W01
	BYTE		        c_v-18
	BYTE	W01
	BYTE		        c_v-17
	BYTE	W01
	BYTE		        c_v-15
	BYTE		N04     Bn5   v108
	BYTE	W01
	BYTE		PAN     c_v-14
	BYTE	W01
	BYTE		        c_v-13
	BYTE	W01
	BYTE		        c_v-11
	BYTE	W01
	BYTE		        c_v-10
	BYTE	W01
	BYTE		        c_v-9
	BYTE	W01
	BYTE		        c_v-7
	BYTE		N04     Bn4   v096
	BYTE	W01
	BYTE		PAN     c_v-6
	BYTE	W01
	BYTE		        c_v-5
	BYTE	W01
	BYTE		        c_v-3
	BYTE	W01
	BYTE		        c_v-2
	BYTE	W01
	BYTE		        c_v-1
	BYTE	W01
	BYTE		        c_v+1
	BYTE		N04     Dn6   v108
	BYTE	W01
	BYTE		PAN     c_v+2
	BYTE	W01
	BYTE		        c_v+3
	BYTE	W01
	BYTE		        c_v+5
	BYTE	W01
	BYTE		        c_v+6
	BYTE	W01
	BYTE		        c_v+7
	BYTE	W01
	BYTE		        c_v+9
	BYTE		N04     Dn5   v096
	BYTE	W01
	BYTE		PAN     c_v+10
	BYTE	W01
	BYTE		        c_v+11
	BYTE	W01
	BYTE		        c_v+13
	BYTE	W01
	BYTE		        c_v+14
	BYTE	W01
	BYTE		        c_v+15
	BYTE	W01
	BYTE		        c_v+17
	BYTE		N04     En6   v108
	BYTE	W01
	BYTE		PAN     c_v+18
	BYTE	W01
	BYTE		        c_v+19
	BYTE	W01
	BYTE		        c_v+21
	BYTE	W01
	BYTE		        c_v+22
	BYTE	W01
	BYTE		        c_v+23
	BYTE	W01
	BYTE		        c_v+25
	BYTE		N04     En5   v096
	BYTE	W01
	BYTE		PAN     c_v+26
	BYTE	W01
	BYTE		        c_v+27
	BYTE	W01
	BYTE		        c_v+29
	BYTE	W01
	BYTE		        c_v+30
	BYTE	W01
	BYTE		        c_v+31
	BYTE	W01
	BYTE		        c_v+33
	BYTE		N04     Dn6   v108
	BYTE	W01
	BYTE		PAN     c_v+34
	BYTE	W01
	BYTE		        c_v+35
	BYTE	W01
	BYTE		        c_v+37
	BYTE	W01
	BYTE		        c_v+38
	BYTE	W01
	BYTE		        c_v+39
	BYTE	W01
	BYTE		        c_v+41
	BYTE		N04     Dn5   v096
	BYTE	W01
	BYTE		PAN     c_v+42
	BYTE	W01
	BYTE		        c_v+43
	BYTE	W01
	BYTE		        c_v+45
	BYTE	W01
	BYTE		        c_v+46
	BYTE	W01
	BYTE		        c_v+47
	BYTE	W01
	BYTE		        c_v+49
	BYTE		N04     An5   v108
	BYTE	W01
	BYTE		PAN     c_v+50
	BYTE	W01
	BYTE		        c_v+51
	BYTE	W01
	BYTE		        c_v+53
	BYTE	W01
	BYTE		        c_v+54
	BYTE	W01
	BYTE		        c_v+55
	BYTE	W01
	BYTE		        c_v+57
	BYTE		N04     An4   v096
	BYTE	W01
	BYTE		PAN     c_v+58
	BYTE	W01
	BYTE		        c_v+59
	BYTE	W01
	BYTE		        c_v+61
	BYTE	W01
	BYTE		        c_v+62
	BYTE	W01
	BYTE		        c_v+63
	BYTE	W01
	BYTE	PEND
// 003   ----------------------------------------
overdosing8850_9_003:
	BYTE		N04     Bn5   v108
	BYTE	W01
	BYTE		PAN     c_v+62
	BYTE	W01
	BYTE		        c_v+61
	BYTE	W01
	BYTE		        c_v+59
	BYTE	W01
	BYTE		        c_v+58
	BYTE	W01
	BYTE		        c_v+57
	BYTE	W01
	BYTE		        c_v+55
	BYTE		N04     Bn4   v096
	BYTE	W01
	BYTE		PAN     c_v+54
	BYTE	W01
	BYTE		        c_v+53
	BYTE	W01
	BYTE		        c_v+51
	BYTE	W01
	BYTE		        c_v+50
	BYTE	W01
	BYTE		        c_v+49
	BYTE	W01
	BYTE		        c_v+47
	BYTE		N04     En5   v108
	BYTE	W01
	BYTE		PAN     c_v+46
	BYTE	W01
	BYTE		        c_v+45
	BYTE	W01
	BYTE		        c_v+43
	BYTE	W01
	BYTE		        c_v+42
	BYTE	W01
	BYTE		        c_v+41
	BYTE	W01
	BYTE		        c_v+39
	BYTE		N04     En4   v096
	BYTE	W01
	BYTE		PAN     c_v+38
	BYTE	W01
	BYTE		        c_v+37
	BYTE	W01
	BYTE		        c_v+35
	BYTE	W01
	BYTE		        c_v+34
	BYTE	W01
	BYTE		        c_v+33
	BYTE	W01
	BYTE		        c_v+31
	BYTE		N04     Gn5   v108
	BYTE	W01
	BYTE		PAN     c_v+30
	BYTE	W01
	BYTE		        c_v+29
	BYTE	W01
	BYTE		        c_v+27
	BYTE	W01
	BYTE		        c_v+26
	BYTE	W01
	BYTE		        c_v+25
	BYTE	W01
	BYTE		        c_v+23
	BYTE		N04     Gn4   v096
	BYTE	W01
	BYTE		PAN     c_v+22
	BYTE	W01
	BYTE		        c_v+21
	BYTE	W01
	BYTE		        c_v+19
	BYTE	W01
	BYTE		        c_v+18
	BYTE	W01
	BYTE		        c_v+17
	BYTE	W01
	BYTE		        c_v+15
	BYTE		N04     An5   v108
	BYTE	W01
	BYTE		PAN     c_v+14
	BYTE	W01
	BYTE		        c_v+13
	BYTE	W01
	BYTE		        c_v+11
	BYTE	W01
	BYTE		        c_v+10
	BYTE	W01
	BYTE		        c_v+9
	BYTE	W01
	BYTE		        c_v+7
	BYTE		N04     An4   v096
	BYTE	W01
	BYTE		PAN     c_v+6
	BYTE	W01
	BYTE		        c_v+5
	BYTE	W01
	BYTE		        c_v+3
	BYTE	W01
	BYTE		        c_v+2
	BYTE	W01
	BYTE		        c_v+1
	BYTE	W01
	BYTE		        c_v-1
	BYTE		N04     Bn5   v108
	BYTE	W01
	BYTE		PAN     c_v-2
	BYTE	W01
	BYTE		        c_v-3
	BYTE	W01
	BYTE		        c_v-5
	BYTE	W01
	BYTE		        c_v-6
	BYTE	W01
	BYTE		        c_v-7
	BYTE	W01
	BYTE		        c_v-9
	BYTE		N04     Bn4   v096
	BYTE	W01
	BYTE		PAN     c_v-10
	BYTE	W01
	BYTE		        c_v-11
	BYTE	W01
	BYTE		        c_v-13
	BYTE	W01
	BYTE		        c_v-14
	BYTE	W01
	BYTE		        c_v-15
	BYTE	W01
	BYTE		        c_v-17
	BYTE		N04     Cn6   v108
	BYTE	W01
	BYTE		PAN     c_v-18
	BYTE	W01
	BYTE		        c_v-19
	BYTE	W01
	BYTE		        c_v-21
	BYTE	W01
	BYTE		        c_v-22
	BYTE	W01
	BYTE		        c_v-23
	BYTE	W01
	BYTE		        c_v-25
	BYTE		N04     Cn5   v096
	BYTE	W01
	BYTE		PAN     c_v-26
	BYTE	W01
	BYTE		        c_v-27
	BYTE	W01
	BYTE		        c_v-29
	BYTE	W01
	BYTE		        c_v-30
	BYTE	W01
	BYTE		        c_v-31
	BYTE	W01
	BYTE		        c_v-33
	BYTE		N04     Bn5   v108
	BYTE	W01
	BYTE		PAN     c_v-34
	BYTE	W01
	BYTE		        c_v-35
	BYTE	W01
	BYTE		        c_v-37
	BYTE	W01
	BYTE		        c_v-38
	BYTE	W01
	BYTE		        c_v-39
	BYTE	W01
	BYTE		        c_v-41
	BYTE		N04     Bn4   v096
	BYTE	W01
	BYTE		PAN     c_v-42
	BYTE	W01
	BYTE		        c_v-43
	BYTE	W01
	BYTE		        c_v-45
	BYTE	W01
	BYTE		        c_v-46
	BYTE	W01
	BYTE		        c_v-47
	BYTE	W01
	BYTE		        c_v-49
	BYTE		N04     En5   v108
	BYTE	W01
	BYTE		PAN     c_v-50
	BYTE	W01
	BYTE		        c_v-51
	BYTE	W01
	BYTE		        c_v-53
	BYTE	W01
	BYTE		        c_v-54
	BYTE	W01
	BYTE		        c_v-55
	BYTE	W01
	BYTE		        c_v-57
	BYTE		N04     En4   v096
	BYTE	W01
	BYTE		PAN     c_v-58
	BYTE	W01
	BYTE		        c_v-59
	BYTE	W01
	BYTE		        c_v-61
	BYTE	W01
	BYTE		        c_v-62
	BYTE	W01
	BYTE		        c_v-64
	BYTE	W01
	BYTE	PEND
// 004   ----------------------------------------
overdosing8850_9_004:
	BYTE		N04     Bn5   v108
	BYTE	W01
	BYTE		PAN     c_v-63
	BYTE	W01
	BYTE		        c_v-62
	BYTE	W01
	BYTE		        c_v-60
	BYTE	W01
	BYTE		        c_v-59
	BYTE	W01
	BYTE		        c_v-58
	BYTE	W01
	BYTE		        c_v-56
	BYTE		N04     Bn4   v096
	BYTE	W01
	BYTE		PAN     c_v-55
	BYTE	W01
	BYTE		        c_v-54
	BYTE	W01
	BYTE		        c_v-52
	BYTE	W01
	BYTE		        c_v-51
	BYTE	W01
	BYTE		        c_v-50
	BYTE	W01
	BYTE		        c_v-48
	BYTE		N04     Fs5   v108
	BYTE	W01
	BYTE		PAN     c_v-47
	BYTE	W01
	BYTE		        c_v-46
	BYTE	W01
	BYTE		        c_v-44
	BYTE	W01
	BYTE		        c_v-43
	BYTE	W01
	BYTE		        c_v-42
	BYTE	W01
	BYTE		        c_v-40
	BYTE		N04     Fs4   v096
	BYTE	W01
	BYTE		PAN     c_v-39
	BYTE	W01
	BYTE		        c_v-38
	BYTE	W01
	BYTE		        c_v-36
	BYTE	W01
	BYTE		        c_v-35
	BYTE	W01
	BYTE		        c_v-34
	BYTE	W01
	BYTE		        c_v-32
	BYTE		N04     Gn5   v108
	BYTE	W01
	BYTE		PAN     c_v-31
	BYTE	W01
	BYTE		        c_v-30
	BYTE	W01
	BYTE		        c_v-28
	BYTE	W01
	BYTE		        c_v-27
	BYTE	W01
	BYTE		        c_v-26
	BYTE	W01
	BYTE		        c_v-24
	BYTE		N04     Gn4   v096
	BYTE	W01
	BYTE		PAN     c_v-23
	BYTE	W01
	BYTE		        c_v-22
	BYTE	W01
	BYTE		        c_v-20
	BYTE	W01
	BYTE		        c_v-19
	BYTE	W01
	BYTE		        c_v-18
	BYTE	W01
	BYTE		        c_v-16
	BYTE		N04     An5   v108
	BYTE	W01
	BYTE		PAN     c_v-15
	BYTE	W01
	BYTE		        c_v-14
	BYTE	W01
	BYTE		        c_v-12
	BYTE	W01
	BYTE		        c_v-11
	BYTE	W01
	BYTE		        c_v-10
	BYTE	W01
	BYTE		        c_v-8
	BYTE		N04     An4   v096
	BYTE	W01
	BYTE		PAN     c_v-7
	BYTE	W01
	BYTE		        c_v-6
	BYTE	W01
	BYTE		        c_v-4
	BYTE	W01
	BYTE		        c_v-3
	BYTE	W01
	BYTE		        c_v-2
	BYTE	W01
	BYTE		        c_v+0
	BYTE		N04     Bn5   v108
	BYTE	W01
	BYTE		PAN     c_v+1
	BYTE	W01
	BYTE		        c_v+2
	BYTE	W01
	BYTE		        c_v+4
	BYTE	W01
	BYTE		        c_v+5
	BYTE	W01
	BYTE		        c_v+6
	BYTE	W01
	BYTE		        c_v+8
	BYTE		N04     Bn4   v096
	BYTE	W01
	BYTE		PAN     c_v+9
	BYTE	W01
	BYTE		        c_v+10
	BYTE	W01
	BYTE		        c_v+12
	BYTE	W01
	BYTE		        c_v+13
	BYTE	W01
	BYTE		        c_v+14
	BYTE	W01
	BYTE		        c_v+16
	BYTE		N04     Cn6   v108
	BYTE	W01
	BYTE		PAN     c_v+17
	BYTE	W01
	BYTE		        c_v+18
	BYTE	W01
	BYTE		        c_v+20
	BYTE	W01
	BYTE		        c_v+21
	BYTE	W01
	BYTE		        c_v+22
	BYTE	W01
	BYTE		        c_v+24
	BYTE		N04     Cn5   v096
	BYTE	W01
	BYTE		PAN     c_v+25
	BYTE	W01
	BYTE		        c_v+26
	BYTE	W01
	BYTE		        c_v+28
	BYTE	W01
	BYTE		        c_v+29
	BYTE	W01
	BYTE		        c_v+30
	BYTE	W01
	BYTE		        c_v+32
	BYTE		N04     Dn6   v108
	BYTE	W01
	BYTE		PAN     c_v+33
	BYTE	W01
	BYTE		        c_v+34
	BYTE	W01
	BYTE		        c_v+36
	BYTE	W01
	BYTE		        c_v+37
	BYTE	W01
	BYTE		        c_v+38
	BYTE	W01
	BYTE		        c_v+40
	BYTE		N04     Dn5   v096
	BYTE	W01
	BYTE		PAN     c_v+41
	BYTE	W01
	BYTE		        c_v+42
	BYTE	W01
	BYTE		        c_v+44
	BYTE	W01
	BYTE		        c_v+45
	BYTE	W01
	BYTE		        c_v+46
	BYTE	W01
	BYTE		        c_v+48
	BYTE		N04     An5   v108
	BYTE	W01
	BYTE		PAN     c_v+49
	BYTE	W01
	BYTE		        c_v+50
	BYTE	W01
	BYTE		        c_v+52
	BYTE	W01
	BYTE		        c_v+53
	BYTE	W01
	BYTE		        c_v+54
	BYTE	W01
	BYTE		        c_v+56
	BYTE		N04     An4   v096
	BYTE	W01
	BYTE		PAN     c_v+57
	BYTE	W01
	BYTE		        c_v+58
	BYTE	W01
	BYTE		        c_v+60
	BYTE	W01
	BYTE		        c_v+61
	BYTE	W01
	BYTE		        c_v+63
	BYTE	W01
	BYTE	PEND
// 005   ----------------------------------------
	BYTE	PATT
	 POIN2	overdosing8850_9_003
// 006   ----------------------------------------
overdosing8850_9_006:
	BYTE		N04     Gn5   v108
	BYTE	W01
	BYTE		PAN     c_v-63
	BYTE	W01
	BYTE		        c_v-62
	BYTE	W01
	BYTE		        c_v-60
	BYTE	W01
	BYTE		        c_v-59
	BYTE	W01
	BYTE		        c_v-58
	BYTE	W01
	BYTE		        c_v-56
	BYTE		N04     Gn4   v096
	BYTE	W01
	BYTE		PAN     c_v-55
	BYTE	W01
	BYTE		        c_v-54
	BYTE	W01
	BYTE		        c_v-52
	BYTE	W01
	BYTE		        c_v-51
	BYTE	W01
	BYTE		        c_v-50
	BYTE	W01
	BYTE		        c_v-48
	BYTE		N04     En5   v108
	BYTE	W01
	BYTE		PAN     c_v-47
	BYTE	W01
	BYTE		        c_v-46
	BYTE	W01
	BYTE		        c_v-44
	BYTE	W01
	BYTE		        c_v-43
	BYTE	W01
	BYTE		        c_v-42
	BYTE	W01
	BYTE		        c_v-40
	BYTE		N04     En4   v096
	BYTE	W01
	BYTE		PAN     c_v-39
	BYTE	W01
	BYTE		        c_v-38
	BYTE	W01
	BYTE		        c_v-36
	BYTE	W01
	BYTE		        c_v-35
	BYTE	W01
	BYTE		        c_v-34
	BYTE	W01
	BYTE		        c_v-32
	BYTE		N04     Gn5   v108
	BYTE	W01
	BYTE		PAN     c_v-31
	BYTE	W01
	BYTE		        c_v-30
	BYTE	W01
	BYTE		        c_v-28
	BYTE	W01
	BYTE		        c_v-27
	BYTE	W01
	BYTE		        c_v-26
	BYTE	W01
	BYTE		        c_v-24
	BYTE		N04     Gn4   v096
	BYTE	W01
	BYTE		PAN     c_v-23
	BYTE	W01
	BYTE		        c_v-22
	BYTE	W01
	BYTE		        c_v-20
	BYTE	W01
	BYTE		        c_v-19
	BYTE	W01
	BYTE		        c_v-18
	BYTE	W01
	BYTE		        c_v-16
	BYTE		N04     Bn5   v108
	BYTE	W01
	BYTE		PAN     c_v-15
	BYTE	W01
	BYTE		        c_v-14
	BYTE	W01
	BYTE		        c_v-12
	BYTE	W01
	BYTE		        c_v-11
	BYTE	W01
	BYTE		        c_v-10
	BYTE	W01
	BYTE		        c_v-8
	BYTE		N04     Bn4   v096
	BYTE	W01
	BYTE		PAN     c_v-7
	BYTE	W01
	BYTE		        c_v-6
	BYTE	W01
	BYTE		        c_v-4
	BYTE	W01
	BYTE		        c_v-3
	BYTE	W01
	BYTE		        c_v-2
	BYTE	W01
	BYTE		        c_v+0
	BYTE		N04     An5   v108
	BYTE	W01
	BYTE		PAN     c_v+1
	BYTE	W01
	BYTE		        c_v+2
	BYTE	W01
	BYTE		        c_v+4
	BYTE	W01
	BYTE		        c_v+5
	BYTE	W01
	BYTE		        c_v+6
	BYTE	W01
	BYTE		        c_v+8
	BYTE		N04     An4   v096
	BYTE	W01
	BYTE		PAN     c_v+9
	BYTE	W01
	BYTE		        c_v+10
	BYTE	W01
	BYTE		        c_v+12
	BYTE	W01
	BYTE		        c_v+13
	BYTE	W01
	BYTE		        c_v+14
	BYTE	W01
	BYTE		        c_v+16
	BYTE		N04     Dn6   v108
	BYTE	W01
	BYTE		PAN     c_v+17
	BYTE	W01
	BYTE		        c_v+18
	BYTE	W01
	BYTE		        c_v+20
	BYTE	W01
	BYTE		        c_v+21
	BYTE	W01
	BYTE		        c_v+22
	BYTE	W01
	BYTE		        c_v+24
	BYTE		N04     Dn5   v096
	BYTE	W01
	BYTE		PAN     c_v+25
	BYTE	W01
	BYTE		        c_v+26
	BYTE	W01
	BYTE		        c_v+28
	BYTE	W01
	BYTE		        c_v+29
	BYTE	W01
	BYTE		        c_v+30
	BYTE	W01
	BYTE		        c_v+32
	BYTE		N04     Bn5   v108
	BYTE	W01
	BYTE		PAN     c_v+33
	BYTE	W01
	BYTE		        c_v+34
	BYTE	W01
	BYTE		        c_v+36
	BYTE	W01
	BYTE		        c_v+37
	BYTE	W01
	BYTE		        c_v+38
	BYTE	W01
	BYTE		        c_v+40
	BYTE		N04     Bn4   v096
	BYTE	W01
	BYTE		PAN     c_v+41
	BYTE	W01
	BYTE		        c_v+42
	BYTE	W01
	BYTE		        c_v+44
	BYTE	W01
	BYTE		        c_v+45
	BYTE	W01
	BYTE		        c_v+46
	BYTE	W01
	BYTE		        c_v+48
	BYTE		N04     Gn5   v108
	BYTE	W01
	BYTE		PAN     c_v+49
	BYTE	W01
	BYTE		        c_v+50
	BYTE	W01
	BYTE		        c_v+52
	BYTE	W01
	BYTE		        c_v+53
	BYTE	W01
	BYTE		        c_v+54
	BYTE	W01
	BYTE		        c_v+56
	BYTE		N04     Gn4   v096
	BYTE	W01
	BYTE		PAN     c_v+57
	BYTE	W01
	BYTE		        c_v+58
	BYTE	W01
	BYTE		        c_v+60
	BYTE	W01
	BYTE		        c_v+61
	BYTE	W01
	BYTE		        c_v+62
	BYTE	W01
	BYTE	PEND
// 007   ----------------------------------------
overdosing8850_9_007:
	BYTE		PAN     c_v+63
	BYTE		N04     An5   v108
	BYTE	W01
	BYTE		PAN     c_v+62
	BYTE	W01
	BYTE		        c_v+61
	BYTE	W01
	BYTE		        c_v+59
	BYTE	W01
	BYTE		        c_v+58
	BYTE	W01
	BYTE		        c_v+57
	BYTE	W01
	BYTE		        c_v+55
	BYTE		N04     An4   v096
	BYTE	W01
	BYTE		PAN     c_v+54
	BYTE	W01
	BYTE		        c_v+53
	BYTE	W01
	BYTE		        c_v+51
	BYTE	W01
	BYTE		        c_v+50
	BYTE	W01
	BYTE		        c_v+49
	BYTE	W01
	BYTE		        c_v+47
	BYTE		N04     Fs5   v108
	BYTE	W01
	BYTE		PAN     c_v+46
	BYTE	W01
	BYTE		        c_v+45
	BYTE	W01
	BYTE		        c_v+43
	BYTE	W01
	BYTE		        c_v+42
	BYTE	W01
	BYTE		        c_v+41
	BYTE	W01
	BYTE		        c_v+39
	BYTE		N04     Fs4   v096
	BYTE	W01
	BYTE		PAN     c_v+38
	BYTE	W01
	BYTE		        c_v+37
	BYTE	W01
	BYTE		        c_v+35
	BYTE	W01
	BYTE		        c_v+34
	BYTE	W01
	BYTE		        c_v+33
	BYTE	W01
	BYTE		        c_v+31
	BYTE		N04     An5   v108
	BYTE	W01
	BYTE		PAN     c_v+30
	BYTE	W01
	BYTE		        c_v+29
	BYTE	W01
	BYTE		        c_v+27
	BYTE	W01
	BYTE		        c_v+26
	BYTE	W01
	BYTE		        c_v+25
	BYTE	W01
	BYTE		        c_v+23
	BYTE		N04     An4   v096
	BYTE	W01
	BYTE		PAN     c_v+22
	BYTE	W01
	BYTE		        c_v+21
	BYTE	W01
	BYTE		        c_v+19
	BYTE	W01
	BYTE		        c_v+18
	BYTE	W01
	BYTE		        c_v+17
	BYTE	W01
	BYTE		        c_v+15
	BYTE		N04     Bn5   v108
	BYTE	W01
	BYTE		PAN     c_v+14
	BYTE	W01
	BYTE		        c_v+13
	BYTE	W01
	BYTE		        c_v+11
	BYTE	W01
	BYTE		        c_v+10
	BYTE	W01
	BYTE		        c_v+9
	BYTE	W01
	BYTE		        c_v+7
	BYTE		N04     Bn4   v096
	BYTE	W01
	BYTE		PAN     c_v+6
	BYTE	W01
	BYTE		        c_v+5
	BYTE	W01
	BYTE		        c_v+3
	BYTE	W01
	BYTE		        c_v+2
	BYTE	W01
	BYTE		        c_v+1
	BYTE	W01
	BYTE		        c_v-1
	BYTE		N04     An5   v108
	BYTE	W01
	BYTE		PAN     c_v-2
	BYTE	W01
	BYTE		        c_v-3
	BYTE	W01
	BYTE		        c_v-5
	BYTE	W01
	BYTE		        c_v-6
	BYTE	W01
	BYTE		        c_v-7
	BYTE	W01
	BYTE		        c_v-9
	BYTE		N04     An4   v096
	BYTE	W01
	BYTE		PAN     c_v-10
	BYTE	W01
	BYTE		        c_v-11
	BYTE	W01
	BYTE		        c_v-13
	BYTE	W01
	BYTE		        c_v-14
	BYTE	W01
	BYTE		        c_v-15
	BYTE	W01
	BYTE		        c_v-17
	BYTE		N04     Dn6   v108
	BYTE	W01
	BYTE		PAN     c_v-18
	BYTE	W01
	BYTE		        c_v-19
	BYTE	W01
	BYTE		        c_v-21
	BYTE	W01
	BYTE		        c_v-22
	BYTE	W01
	BYTE		        c_v-23
	BYTE	W01
	BYTE		        c_v-25
	BYTE		N04     Dn5   v096
	BYTE	W01
	BYTE		PAN     c_v-26
	BYTE	W01
	BYTE		        c_v-27
	BYTE	W01
	BYTE		        c_v-29
	BYTE	W01
	BYTE		        c_v-30
	BYTE	W01
	BYTE		        c_v-31
	BYTE	W01
	BYTE		        c_v-33
	BYTE		N04     Bn5   v108
	BYTE	W01
	BYTE		PAN     c_v-34
	BYTE	W01
	BYTE		        c_v-35
	BYTE	W01
	BYTE		        c_v-37
	BYTE	W01
	BYTE		        c_v-38
	BYTE	W01
	BYTE		        c_v-39
	BYTE	W01
	BYTE		        c_v-41
	BYTE		N04     Bn4   v096
	BYTE	W01
	BYTE		PAN     c_v-42
	BYTE	W01
	BYTE		        c_v-43
	BYTE	W01
	BYTE		        c_v-45
	BYTE	W01
	BYTE		        c_v-46
	BYTE	W01
	BYTE		        c_v-47
	BYTE	W01
	BYTE		        c_v-49
	BYTE		N04     Fs5   v108
	BYTE	W01
	BYTE		PAN     c_v-50
	BYTE	W01
	BYTE		        c_v-51
	BYTE	W01
	BYTE		        c_v-53
	BYTE	W01
	BYTE		        c_v-54
	BYTE	W01
	BYTE		        c_v-55
	BYTE	W01
	BYTE		        c_v-57
	BYTE		N04     Fs4   v096
	BYTE	W01
	BYTE		PAN     c_v-58
	BYTE	W01
	BYTE		        c_v-59
	BYTE	W01
	BYTE		        c_v-61
	BYTE	W01
	BYTE		        c_v-62
	BYTE	W01
	BYTE		        c_v-64
	BYTE	W01
	BYTE	PEND
// 008   ----------------------------------------
overdosing8850_9_008:
	BYTE		PAN     c_v+0
	BYTE		N04     Bn5   v108
	BYTE	W06
	BYTE		        Bn4   v096
	BYTE	W06
	BYTE		        En5   v108
	BYTE	W06
	BYTE		        En4   v096
	BYTE	W06
	BYTE		        Gn5   v108
	BYTE	W06
	BYTE		        Gn4   v096
	BYTE	W06
	BYTE		        An5   v108
	BYTE	W06
	BYTE		        An4   v096
	BYTE	W06
	BYTE		VOL     80*overdosing8850_mvl/mxv
	BYTE		N04     Bn5   v108
	BYTE	W06
	BYTE		        Bn4   v096
	BYTE	W06
	BYTE		        Cn6   v108
	BYTE	W06
	BYTE		        Cn5   v096
	BYTE	W06
	BYTE		        Bn5   v108
	BYTE	W06
	BYTE		        Bn4   v096
	BYTE	W06
	BYTE		        En5   v108
	BYTE	W06
	BYTE		        En4   v096
	BYTE	W05
	BYTE		VOL     80*overdosing8850_mvl/mxv
	BYTE	W01
	BYTE	PEND
// 009   ----------------------------------------
overdosing8850_9_009:
	BYTE		VOL     79*overdosing8850_mvl/mxv
	BYTE		N04     Bn5   v108
	BYTE	W03
	BYTE		VOL     78*overdosing8850_mvl/mxv
	BYTE	W03
	BYTE		N04     Bn4   v096
	BYTE	W01
	BYTE		VOL     77*overdosing8850_mvl/mxv
	BYTE	W04
	BYTE		        76*overdosing8850_mvl/mxv
	BYTE	W01
	BYTE		N04     En5   v108
	BYTE	W03
	BYTE		VOL     75*overdosing8850_mvl/mxv
	BYTE	W03
	BYTE		        74*overdosing8850_mvl/mxv
	BYTE		N04     En4   v096
	BYTE	W04
	BYTE		VOL     73*overdosing8850_mvl/mxv
	BYTE	W02
	BYTE		N04     Gn5   v108
	BYTE	W02
	BYTE		VOL     72*overdosing8850_mvl/mxv
	BYTE	W04
	BYTE		        71*overdosing8850_mvl/mxv
	BYTE		N04     Gn4   v096
	BYTE	W03
	BYTE		VOL     70*overdosing8850_mvl/mxv
	BYTE	W03
	BYTE		        69*overdosing8850_mvl/mxv
	BYTE		N04     An5   v108
	BYTE	W04
	BYTE		VOL     68*overdosing8850_mvl/mxv
	BYTE	W02
	BYTE		N04     An4   v096
	BYTE	W02
	BYTE		VOL     67*overdosing8850_mvl/mxv
	BYTE	W04
	BYTE		        66*overdosing8850_mvl/mxv
	BYTE		N04     Bn5   v108
	BYTE	W03
	BYTE		VOL     65*overdosing8850_mvl/mxv
	BYTE	W03
	BYTE		N04     Bn4   v096
	BYTE	W01
	BYTE		VOL     64*overdosing8850_mvl/mxv
	BYTE	W04
	BYTE		        63*overdosing8850_mvl/mxv
	BYTE	W01
	BYTE		N04     Cn6   v108
	BYTE	W02
	BYTE		VOL     62*overdosing8850_mvl/mxv
	BYTE	W04
	BYTE		        61*overdosing8850_mvl/mxv
	BYTE		N04     Cn5   v096
	BYTE	W03
	BYTE		VOL     60*overdosing8850_mvl/mxv
	BYTE	W03
	BYTE		N04     Bn5   v108
	BYTE	W01
	BYTE		VOL     59*overdosing8850_mvl/mxv
	BYTE	W04
	BYTE		        58*overdosing8850_mvl/mxv
	BYTE	W01
	BYTE		N04     Bn4   v096
	BYTE	W03
	BYTE		VOL     57*overdosing8850_mvl/mxv
	BYTE	W03
	BYTE		        56*overdosing8850_mvl/mxv
	BYTE		N04     En5   v108
	BYTE	W04
	BYTE		VOL     55*overdosing8850_mvl/mxv
	BYTE	W02
	BYTE		N04     En4   v096
	BYTE	W01
	BYTE		VOL     54*overdosing8850_mvl/mxv
	BYTE	W04
	BYTE		        53*overdosing8850_mvl/mxv
	BYTE	W01
	BYTE	PEND
// 010   ----------------------------------------
overdosing8850_9_010:
	BYTE		N04     Bn5   v108
	BYTE	W03
	BYTE		VOL     52*overdosing8850_mvl/mxv
	BYTE	W03
	BYTE		        51*overdosing8850_mvl/mxv
	BYTE		N04     Bn4   v096
	BYTE	W04
	BYTE		VOL     50*overdosing8850_mvl/mxv
	BYTE	W02
	BYTE		N04     En5   v108
	BYTE	W02
	BYTE		VOL     49*overdosing8850_mvl/mxv
	BYTE	W04
	BYTE		        48*overdosing8850_mvl/mxv
	BYTE		N04     En4   v096
	BYTE	W03
	BYTE		VOL     47*overdosing8850_mvl/mxv
	BYTE	W03
	BYTE		        46*overdosing8850_mvl/mxv
	BYTE		N04     Gn5   v108
	BYTE	W04
	BYTE		VOL     45*overdosing8850_mvl/mxv
	BYTE	W02
	BYTE		N04     Gn4   v096
	BYTE	W02
	BYTE		VOL     44*overdosing8850_mvl/mxv
	BYTE	W04
	BYTE		        43*overdosing8850_mvl/mxv
	BYTE		N04     An5   v108
	BYTE	W03
	BYTE		VOL     42*overdosing8850_mvl/mxv
	BYTE	W03
	BYTE		N04     An4   v096
	BYTE	W01
	BYTE		VOL     41*overdosing8850_mvl/mxv
	BYTE	W04
	BYTE		        40*overdosing8850_mvl/mxv
	BYTE	W01
	BYTE		N04     Bn5   v108
	BYTE	W03
	BYTE		VOL     39*overdosing8850_mvl/mxv
	BYTE	W03
	BYTE		        38*overdosing8850_mvl/mxv
	BYTE		N04     Bn4   v096
	BYTE	W03
	BYTE		VOL     37*overdosing8850_mvl/mxv
	BYTE	W03
	BYTE		N04     Cn6   v108
	BYTE	W01
	BYTE		VOL     36*overdosing8850_mvl/mxv
	BYTE	W04
	BYTE		        35*overdosing8850_mvl/mxv
	BYTE	W01
	BYTE		N04     Cn5   v096
	BYTE	W03
	BYTE		VOL     34*overdosing8850_mvl/mxv
	BYTE	W03
	BYTE		        33*overdosing8850_mvl/mxv
	BYTE		N04     Bn5   v108
	BYTE	W04
	BYTE		VOL     32*overdosing8850_mvl/mxv
	BYTE	W02
	BYTE		N04     Bn4   v096
	BYTE	W02
	BYTE		VOL     31*overdosing8850_mvl/mxv
	BYTE	W03
	BYTE		        30*overdosing8850_mvl/mxv
	BYTE	W01
	BYTE		N04     En5   v108
	BYTE	W03
	BYTE		VOL     29*overdosing8850_mvl/mxv
	BYTE	W03
	BYTE		        28*overdosing8850_mvl/mxv
	BYTE		N04     En4   v096
	BYTE	W04
	BYTE		VOL     27*overdosing8850_mvl/mxv
	BYTE	W02
	BYTE	PEND
// 011   ----------------------------------------
overdosing8850_9_011:
	BYTE		N04     Bn5   v108
	BYTE	W02
	BYTE		VOL     26*overdosing8850_mvl/mxv
	BYTE	W04
	BYTE		        25*overdosing8850_mvl/mxv
	BYTE		N04     Bn4   v096
	BYTE	W03
	BYTE		VOL     24*overdosing8850_mvl/mxv
	BYTE	W03
	BYTE		N04     En5   v108
	BYTE	W01
	BYTE		VOL     23*overdosing8850_mvl/mxv
	BYTE	W03
	BYTE		        22*overdosing8850_mvl/mxv
	BYTE	W02
	BYTE		N04     En4   v096
	BYTE	W02
	BYTE		VOL     21*overdosing8850_mvl/mxv
	BYTE	W04
	BYTE		        20*overdosing8850_mvl/mxv
	BYTE		N04     Gn5   v108
	BYTE	W03
	BYTE		VOL     19*overdosing8850_mvl/mxv
	BYTE	W03
	BYTE		N04     Gn4   v096
	BYTE	W01
	BYTE		VOL     18*overdosing8850_mvl/mxv
	BYTE	W04
	BYTE		        17*overdosing8850_mvl/mxv
	BYTE	W01
	BYTE		N04     An5   v108
	BYTE	W03
	BYTE		VOL     16*overdosing8850_mvl/mxv
	BYTE	W03
	BYTE		        15*overdosing8850_mvl/mxv
	BYTE		N04     An4   v096
	BYTE	W03
	BYTE		VOL     14*overdosing8850_mvl/mxv
	BYTE	W03
	BYTE		N04     Bn5   v108
	BYTE	W01
	BYTE		VOL     13*overdosing8850_mvl/mxv
	BYTE	W04
	BYTE		        12*overdosing8850_mvl/mxv
	BYTE	W01
	BYTE		N04     Bn4   v096
	BYTE	W03
	BYTE		VOL     11*overdosing8850_mvl/mxv
	BYTE	W03
	BYTE		        10*overdosing8850_mvl/mxv
	BYTE		N04     Cn6   v108
	BYTE	W04
	BYTE		VOL     9*overdosing8850_mvl/mxv
	BYTE	W02
	BYTE		N04     Cn5   v096
	BYTE	W02
	BYTE		VOL     8*overdosing8850_mvl/mxv
	BYTE	W04
	BYTE		        7*overdosing8850_mvl/mxv
	BYTE		N04     Bn5   v108
	BYTE	W03
	BYTE		VOL     6*overdosing8850_mvl/mxv
	BYTE	W03
	BYTE		        5*overdosing8850_mvl/mxv
	BYTE		N04     Bn4   v096
	BYTE	W04
	BYTE		VOL     4*overdosing8850_mvl/mxv
	BYTE	W02
	BYTE		N04     En5   v108
	BYTE	W02
	BYTE		VOL     3*overdosing8850_mvl/mxv
	BYTE	W04
	BYTE		        2*overdosing8850_mvl/mxv
	BYTE		N04     En4   v096
	BYTE	W03
	BYTE		VOL     1*overdosing8850_mvl/mxv
	BYTE	W03
	BYTE	PEND
// 012   ----------------------------------------
overdosing8850_9_012:
	BYTE	W01
	BYTE		VOL     0*overdosing8850_mvl/mxv
	BYTE	W92
	BYTE	W03
	BYTE	PEND
// 013   ----------------------------------------
	BYTE		        80*overdosing8850_mvl/mxv
	BYTE	W96
// 014   ----------------------------------------
	BYTE	W96
// 015   ----------------------------------------
	BYTE	W96
// 016   ----------------------------------------
	BYTE	W96
// 017   ----------------------------------------
	BYTE	W96
// 018   ----------------------------------------
	BYTE	W96
// 019   ----------------------------------------
	BYTE	W96
// 020   ----------------------------------------
	BYTE	W96
// 021   ----------------------------------------
	BYTE	W96
// 022   ----------------------------------------
overdosing8850_9_022:
	BYTE	W92
	BYTE	W01
	BYTE		PAN     c_v-64
	BYTE	W03
	BYTE	PEND
// 023   ----------------------------------------
overdosing8850_9_023:
	BYTE		PAN     c_v-60
	BYTE		N04     Bn5   v127
	BYTE	W01
	BYTE		PAN     c_v-56
	BYTE	W01
	BYTE		        c_v-52
	BYTE	W01
	BYTE		        c_v-44
	BYTE	W01
	BYTE		        c_v-40
	BYTE	W01
	BYTE		        c_v-36
	BYTE	W01
	BYTE		        c_v-27
	BYTE		N04     En5 
	BYTE	W01
	BYTE		PAN     c_v-23
	BYTE	W01
	BYTE		        c_v-19
	BYTE	W01
	BYTE		        c_v-11
	BYTE	W01
	BYTE		        c_v-7
	BYTE	W01
	BYTE		        c_v-3
	BYTE	W01
	BYTE		        c_v+6
	BYTE		N04     An5 
	BYTE	W01
	BYTE		PAN     c_v+10
	BYTE	W01
	BYTE		        c_v+14
	BYTE	W01
	BYTE		        c_v+22
	BYTE	W01
	BYTE		        c_v+26
	BYTE	W01
	BYTE		        c_v+30
	BYTE	W01
	BYTE		        c_v+39
	BYTE		N04     Dn5 
	BYTE	W01
	BYTE		PAN     c_v+43
	BYTE	W01
	BYTE		        c_v+47
	BYTE	W01
	BYTE		        c_v+55
	BYTE	W01
	BYTE		        c_v+59
	BYTE	W01
	BYTE		        c_v+63
	BYTE	W01
	BYTE		        c_v+59
	BYTE		N04     Gn5 
	BYTE	W01
	BYTE		PAN     c_v+55
	BYTE	W01
	BYTE		        c_v+51
	BYTE	W01
	BYTE		        c_v+42
	BYTE	W01
	BYTE		        c_v+38
	BYTE	W01
	BYTE		        c_v+34
	BYTE	W01
	BYTE		        c_v+26
	BYTE		N04     Bn4 
	BYTE	W01
	BYTE		PAN     c_v+22
	BYTE	W01
	BYTE		        c_v+18
	BYTE	W01
	BYTE		        c_v+10
	BYTE	W01
	BYTE		        c_v+6
	BYTE	W01
	BYTE		        c_v+2
	BYTE	W01
	BYTE		        c_v-7
	BYTE		N04     Dn5 
	BYTE	W01
	BYTE		PAN     c_v-11
	BYTE	W01
	BYTE		        c_v-15
	BYTE	W01
	BYTE		        c_v-23
	BYTE	W01
	BYTE		        c_v-27
	BYTE	W01
	BYTE		        c_v-31
	BYTE	W01
	BYTE		        c_v-39
	BYTE		N04     An4 
	BYTE	W01
	BYTE		PAN     c_v-43
	BYTE	W01
	BYTE		        c_v-47
	BYTE	W01
	BYTE		        c_v-56
	BYTE	W01
	BYTE		        c_v-60
	BYTE	W01
	BYTE		        c_v-64
	BYTE	W01
	BYTE		        c_v-60
	BYTE		N04     Bn4 
	BYTE	W01
	BYTE		PAN     c_v-56
	BYTE	W01
	BYTE		        c_v-52
	BYTE	W01
	BYTE		        c_v-44
	BYTE	W01
	BYTE		        c_v-40
	BYTE	W01
	BYTE		        c_v-36
	BYTE	W01
	BYTE		        c_v-28
	BYTE		N04     Dn5 
	BYTE	W01
	BYTE		PAN     c_v-23
	BYTE	W01
	BYTE		        c_v-19
	BYTE	W01
	BYTE		        c_v-11
	BYTE	W01
	BYTE		        c_v-7
	BYTE	W01
	BYTE		        c_v-3
	BYTE	W01
	BYTE		        c_v+5
	BYTE		N04     En5 
	BYTE	W01
	BYTE		PAN     c_v+9
	BYTE	W01
	BYTE		        c_v+13
	BYTE	W01
	BYTE		        c_v+22
	BYTE	W01
	BYTE		        c_v+26
	BYTE	W01
	BYTE		        c_v+30
	BYTE	W01
	BYTE		        c_v+38
	BYTE		N04     Fs5 
	BYTE	W01
	BYTE		PAN     c_v+42
	BYTE	W01
	BYTE		        c_v+46
	BYTE	W01
	BYTE		        c_v+55
	BYTE	W01
	BYTE		        c_v+59
	BYTE	W01
	BYTE		        c_v+63
	BYTE	W01
	BYTE		        c_v+58
	BYTE		N04     An5 
	BYTE	W01
	BYTE		PAN     c_v+54
	BYTE	W01
	BYTE		        c_v+50
	BYTE	W01
	BYTE		        c_v+42
	BYTE	W01
	BYTE		        c_v+38
	BYTE	W01
	BYTE		        c_v+33
	BYTE	W01
	BYTE		        c_v+25
	BYTE		N04     Gn5 
	BYTE	W01
	BYTE		PAN     c_v+21
	BYTE	W01
	BYTE		        c_v+17
	BYTE	W01
	BYTE		        c_v+9
	BYTE	W01
	BYTE		        c_v+5
	BYTE	W01
	BYTE		        c_v+1
	BYTE	W01
	BYTE		        c_v-7
	BYTE		N04     Fs5 
	BYTE	W01
	BYTE		PAN     c_v-11
	BYTE	W01
	BYTE		        c_v-16
	BYTE	W01
	BYTE		        c_v-24
	BYTE	W01
	BYTE		        c_v-28
	BYTE	W01
	BYTE		        c_v-32
	BYTE	W01
	BYTE		        c_v-40
	BYTE		N04     Dn5 
	BYTE	W01
	BYTE		PAN     c_v-44
	BYTE	W01
	BYTE		        c_v-48
	BYTE	W01
	BYTE		        c_v-56
	BYTE	W01
	BYTE		        c_v-60
	BYTE	W01
	BYTE		        c_v-64
	BYTE	W01
	BYTE	PEND
// 024   ----------------------------------------
	BYTE	W96
// 025   ----------------------------------------
	BYTE	W96
// 026   ----------------------------------------
	BYTE	W96
// 027   ----------------------------------------
	BYTE	W96
// 028   ----------------------------------------
	BYTE	W96
// 029   ----------------------------------------
	BYTE	W96
// 030   ----------------------------------------
	BYTE	W96
// 031   ----------------------------------------
	BYTE	W96
// 032   ----------------------------------------
	BYTE	W96
// 033   ----------------------------------------
	BYTE	W96
// 034   ----------------------------------------
	BYTE	W96
// 035   ----------------------------------------
	BYTE	W96
// 036   ----------------------------------------
	BYTE	W96
// 037   ----------------------------------------
	BYTE	W96
// 038   ----------------------------------------
	BYTE	W96
// 039   ----------------------------------------
	BYTE	W96
// 040   ----------------------------------------
	BYTE	W96
// 041   ----------------------------------------
	BYTE	W96
// 042   ----------------------------------------
	BYTE	W96
// 043   ----------------------------------------
	BYTE	W96
// 044   ----------------------------------------
	BYTE	W96
// 045   ----------------------------------------
	BYTE	W96
// 046   ----------------------------------------
	BYTE	W96
// 047   ----------------------------------------
	BYTE	W96
// 048   ----------------------------------------
	BYTE	W96
// 049   ----------------------------------------
	BYTE	W96
// 050   ----------------------------------------
	BYTE	W96
// 051   ----------------------------------------
	BYTE	W96
// 052   ----------------------------------------
	BYTE	W96
// 053   ----------------------------------------
	BYTE	W96
// 054   ----------------------------------------
	BYTE	W96
// 055   ----------------------------------------
	BYTE	W96
// 056   ----------------------------------------
	BYTE	W96
// 057   ----------------------------------------
	BYTE	W96
// 058   ----------------------------------------
	BYTE	W96
// 059   ----------------------------------------
	BYTE	W96
// 060   ----------------------------------------
	BYTE	W96
// 061   ----------------------------------------
	BYTE	W96
// 062   ----------------------------------------
	BYTE	W96
// 063   ----------------------------------------
	BYTE	W96
// 064   ----------------------------------------
	BYTE	W96
// 065   ----------------------------------------
	BYTE	W96
// 066   ----------------------------------------
	BYTE	W96
// 067   ----------------------------------------
	BYTE	W96
// 068   ----------------------------------------
	BYTE	W96
// 069   ----------------------------------------
	BYTE	W96
// 070   ----------------------------------------
	BYTE	W96
// 071   ----------------------------------------
	BYTE	W96
// 072   ----------------------------------------
	BYTE	W96
// 073   ----------------------------------------
	BYTE	W96
// 074   ----------------------------------------
	BYTE	W96
// 075   ----------------------------------------
	BYTE	W96
// 076   ----------------------------------------
	BYTE	W96
// 077   ----------------------------------------
	BYTE	W96
// 078   ----------------------------------------
	BYTE	W96
// 079   ----------------------------------------
	BYTE	W96
// 080   ----------------------------------------
	BYTE	W96
// 081   ----------------------------------------
	BYTE	W96
// 082   ----------------------------------------
	BYTE	W96
// 083   ----------------------------------------
	BYTE	W96
// 084   ----------------------------------------
	BYTE	W96
// 085   ----------------------------------------
	BYTE	W96
// 086   ----------------------------------------
	BYTE	W96
// 087   ----------------------------------------
	BYTE	W96
// 088   ----------------------------------------
	BYTE	W96
// 089   ----------------------------------------
	BYTE	W96
// 090   ----------------------------------------
	BYTE	W96
// 091   ----------------------------------------
	BYTE	W96
// 092   ----------------------------------------
	BYTE	PATT
	 POIN2	overdosing8850_9_022
// 093   ----------------------------------------
	BYTE	PATT
	 POIN2	overdosing8850_9_023
// 094   ----------------------------------------
	BYTE	W96
// 095   ----------------------------------------
	BYTE	W96
// 096   ----------------------------------------
	BYTE	W96
// 097   ----------------------------------------
	BYTE	W96
// 098   ----------------------------------------
	BYTE	W96
// 099   ----------------------------------------
	BYTE	W96
// 100   ----------------------------------------
	BYTE	W96
// 101   ----------------------------------------
	BYTE	W96
// 102   ----------------------------------------
	BYTE	W96
// 103   ----------------------------------------
	BYTE	W96
// 104   ----------------------------------------
	BYTE	W96
// 105   ----------------------------------------
	BYTE	W96
// 106   ----------------------------------------
	BYTE	W96
// 107   ----------------------------------------
	BYTE	W96
// 108   ----------------------------------------
	BYTE	W96
// 109   ----------------------------------------
	BYTE	W96
// 110   ----------------------------------------
	BYTE	W96
// 111   ----------------------------------------
	BYTE	W96
// 112   ----------------------------------------
	BYTE	W96
// 113   ----------------------------------------
	BYTE	W96
// 114   ----------------------------------------
	BYTE	W96
// 115   ----------------------------------------
	BYTE	W96
// 116   ----------------------------------------
	BYTE	W96
// 117   ----------------------------------------
	BYTE	W96
// 118   ----------------------------------------
	BYTE	W96
// 119   ----------------------------------------
	BYTE	W96
// 120   ----------------------------------------
	BYTE	W96
// 121   ----------------------------------------
	BYTE	W96
// 122   ----------------------------------------
	BYTE	W96
// 123   ----------------------------------------
	BYTE	W96
// 124   ----------------------------------------
	BYTE	W96
// 125   ----------------------------------------
	BYTE	W96
// 126   ----------------------------------------
	BYTE	W96
// 127   ----------------------------------------
	BYTE	W96
// 128   ----------------------------------------
	BYTE	W96
// 129   ----------------------------------------
	BYTE	W96
// 130   ----------------------------------------
	BYTE	W96
// 131   ----------------------------------------
	BYTE	W96
// 132   ----------------------------------------
	BYTE	W96
// 133   ----------------------------------------
	BYTE	W96
// 134   ----------------------------------------
	BYTE	W96
// 135   ----------------------------------------
	BYTE	W96
// 136   ----------------------------------------
	BYTE	W96
// 137   ----------------------------------------
	BYTE	W96
// 138   ----------------------------------------
	BYTE	W96
// 139   ----------------------------------------
	BYTE	W96
// 140   ----------------------------------------
	BYTE	W96
// 141   ----------------------------------------
	BYTE	W96
// 142   ----------------------------------------
	BYTE	W96
// 143   ----------------------------------------
	BYTE	W96
// 144   ----------------------------------------
	BYTE	W96
// 145   ----------------------------------------
	BYTE	W96
// 146   ----------------------------------------
	BYTE	W96
// 147   ----------------------------------------
	BYTE	W96
// 148   ----------------------------------------
	BYTE	W96
// 149   ----------------------------------------
	BYTE	W96
// 150   ----------------------------------------
	BYTE	W96
// 151   ----------------------------------------
	BYTE	W96
// 152   ----------------------------------------
	BYTE	W96
// 153   ----------------------------------------
	BYTE	W96
// 154   ----------------------------------------
	BYTE	W96
// 155   ----------------------------------------
	BYTE	W96
// 156   ----------------------------------------
	BYTE	W96
// 157   ----------------------------------------
	BYTE	W96
// 158   ----------------------------------------
	BYTE	W96
// 159   ----------------------------------------
	BYTE	W96
// 160   ----------------------------------------
	BYTE	W96
// 161   ----------------------------------------
	BYTE	W96
// 162   ----------------------------------------
	BYTE	W96
// 163   ----------------------------------------
	BYTE	PATT
	 POIN2	overdosing8850_9_023
// 164   ----------------------------------------
	BYTE	W96
// 165   ----------------------------------------
	BYTE	W96
// 166   ----------------------------------------
	BYTE	W96
// 167   ----------------------------------------
	BYTE	W96
// 168   ----------------------------------------
	BYTE	W96
// 169   ----------------------------------------
	BYTE	W96
// 170   ----------------------------------------
	BYTE	W96
// 171   ----------------------------------------
	BYTE	W96
// 172   ----------------------------------------
	BYTE	W96
// 173   ----------------------------------------
	BYTE	W96
// 174   ----------------------------------------
	BYTE	W96
// 175   ----------------------------------------
	BYTE	W96
// 176   ----------------------------------------
	BYTE	W96
// 177   ----------------------------------------
	BYTE	W96
// 178   ----------------------------------------
	BYTE	W96
// 179   ----------------------------------------
	BYTE	W96
// 180   ----------------------------------------
	BYTE	W96
// 181   ----------------------------------------
	BYTE	W96
// 182   ----------------------------------------
	BYTE	W96
// 183   ----------------------------------------
	BYTE	W96
// 184   ----------------------------------------
	BYTE	W96
// 185   ----------------------------------------
	BYTE	W96
// 186   ----------------------------------------
	BYTE	W96
// 187   ----------------------------------------
	BYTE	W96
// 188   ----------------------------------------
	BYTE	W96
// 189   ----------------------------------------
	BYTE	W96
// 190   ----------------------------------------
	BYTE	W96
// 191   ----------------------------------------
	BYTE	W96
// 192   ----------------------------------------
	BYTE	W96
// 193   ----------------------------------------
	BYTE	W96
// 194   ----------------------------------------
	BYTE	W96
// 195   ----------------------------------------
	BYTE	W96
// 196   ----------------------------------------
	BYTE	W96
// 197   ----------------------------------------
	BYTE	W96
// 198   ----------------------------------------
	BYTE	W96
// 199   ----------------------------------------
	BYTE	W96
// 200   ----------------------------------------
	BYTE	W96
// 201   ----------------------------------------
	BYTE	W96
// 202   ----------------------------------------
	BYTE	PATT
	 POIN2	overdosing8850_9_002
// 203   ----------------------------------------
	BYTE	PATT
	 POIN2	overdosing8850_9_003
// 204   ----------------------------------------
	BYTE	PATT
	 POIN2	overdosing8850_9_004
// 205   ----------------------------------------
	BYTE	PATT
	 POIN2	overdosing8850_9_003
// 206   ----------------------------------------
	BYTE	PATT
	 POIN2	overdosing8850_9_006
// 207   ----------------------------------------
	BYTE	PATT
	 POIN2	overdosing8850_9_007
// 208   ----------------------------------------
	BYTE	PATT
	 POIN2	overdosing8850_9_008
// 209   ----------------------------------------
	BYTE	PATT
	 POIN2	overdosing8850_9_009
// 210   ----------------------------------------
	BYTE	PATT
	 POIN2	overdosing8850_9_010
// 211   ----------------------------------------
	BYTE	PATT
	 POIN2	overdosing8850_9_011
// 212   ----------------------------------------
	BYTE	PATT
	 POIN2	overdosing8850_9_012
// 213   ----------------------------------------
	BYTE		VOL     80*overdosing8850_mvl/mxv
	BYTE	W96
// 214   ----------------------------------------
	BYTE	W96
// 215   ----------------------------------------
	BYTE	W96
// 216   ----------------------------------------
	BYTE	W96
// 217   ----------------------------------------
	BYTE	W96
// 218   ----------------------------------------
	BYTE	W96
// 219   ----------------------------------------
	BYTE	W96
// 220   ----------------------------------------
	BYTE	W96
// 221   ----------------------------------------
	BYTE	W96
// 222   ----------------------------------------
	BYTE	PATT
	 POIN2	overdosing8850_9_022
// 223   ----------------------------------------
	BYTE	W96
// 224   ----------------------------------------
	BYTE	W96
// 225   ----------------------------------------
	BYTE	W96
// 226   ----------------------------------------
	BYTE	W96
// 227   ----------------------------------------
	BYTE	W96
// 228   ----------------------------------------
	BYTE	W96
// 229   ----------------------------------------
	BYTE	W96
// 230   ----------------------------------------
	BYTE	W96
// 231   ----------------------------------------
	BYTE	FINE

//**************** Track 10 (Midi-Chn.11) ****************//

overdosing8850_10:
	BYTE	KEYSH   overdosing8850_key+0
// 000   ----------------------------------------
	BYTE	W48
	BYTE		VOICE   62
	BYTE		VOL     90*overdosing8850_mvl/mxv
	BYTE		PAN     c_v+0
	BYTE	W48
// 001   ----------------------------------------
	BYTE		MOD     0
	BYTE		BEND    c_v+0
	BYTE	W48
	BYTE	W24
	BYTE	W06
	BYTE	W06
	BYTE	W06
	BYTE	W06
// 002   ----------------------------------------
	BYTE	W96
// 003   ----------------------------------------
	BYTE	W96
// 004   ----------------------------------------
	BYTE	W96
// 005   ----------------------------------------
	BYTE	W96
// 006   ----------------------------------------
	BYTE	W96
// 007   ----------------------------------------
	BYTE	W96
// 008   ----------------------------------------
	BYTE	W96
// 009   ----------------------------------------
	BYTE	W96
// 010   ----------------------------------------
	BYTE	W96
// 011   ----------------------------------------
	BYTE	W96
// 012   ----------------------------------------
	BYTE	W96
// 013   ----------------------------------------
	BYTE	W96
// 014   ----------------------------------------
	BYTE	W96
// 015   ----------------------------------------
	BYTE	W96
// 016   ----------------------------------------
	BYTE	W96
// 017   ----------------------------------------
	BYTE	W96
// 018   ----------------------------------------
	BYTE	W96
// 019   ----------------------------------------
	BYTE	W96
// 020   ----------------------------------------
	BYTE	W96
// 021   ----------------------------------------
	BYTE	W96
// 022   ----------------------------------------
	BYTE	W96
// 023   ----------------------------------------
	BYTE	W96
// 024   ----------------------------------------
	BYTE	W96
// 025   ----------------------------------------
	BYTE	W96
// 026   ----------------------------------------
	BYTE	W96
// 027   ----------------------------------------
	BYTE	W96
// 028   ----------------------------------------
	BYTE	W96
// 029   ----------------------------------------
	BYTE	W96
// 030   ----------------------------------------
	BYTE	W96
// 031   ----------------------------------------
	BYTE	W96
// 032   ----------------------------------------
	BYTE	W96
// 033   ----------------------------------------
	BYTE	W96
// 034   ----------------------------------------
	BYTE	W96
// 035   ----------------------------------------
	BYTE	W96
// 036   ----------------------------------------
	BYTE	W96
// 037   ----------------------------------------
	BYTE	W96
// 038   ----------------------------------------
	BYTE	W96
// 039   ----------------------------------------
	BYTE	W96
// 040   ----------------------------------------
	BYTE	W96
// 041   ----------------------------------------
	BYTE	W96
// 042   ----------------------------------------
	BYTE	W96
// 043   ----------------------------------------
	BYTE	W96
// 044   ----------------------------------------
	BYTE	W96
// 045   ----------------------------------------
	BYTE	W96
// 046   ----------------------------------------
	BYTE	W96
// 047   ----------------------------------------
	BYTE	W84
	BYTE		N05     Gs3   v120
	BYTE		N05     Gs4 
	BYTE	W06
	BYTE		        As3 
	BYTE		N05     As4 
	BYTE	W06
// 048   ----------------------------------------
overdosing8850_10_048:
	BYTE		N32     Bn3   v120
	BYTE		N32     Bn4 
	BYTE	W36
	BYTE		N05     En3 
	BYTE		N05     En4 
	BYTE	W06
	BYTE		        Fs3 
	BYTE		N05     Fs4 
	BYTE	W06
	BYTE		N23     Gs3 
	BYTE		N23     Gs4 
	BYTE	W24
	BYTE		        Bn3 
	BYTE		N23     Bn4 
	BYTE	W24
	BYTE	PEND
// 049   ----------------------------------------
overdosing8850_10_049:
	BYTE		N23     As3   v120
	BYTE		N23     As4 
	BYTE	W24
	BYTE		        Fs3 
	BYTE		N23     Fs4 
	BYTE	W24
	BYTE		N17     Cs4 
	BYTE		N17     Cs5 
	BYTE	W18
	BYTE		        Bn3 
	BYTE		N17     Bn4 
	BYTE	W18
	BYTE		N11     As3 
	BYTE		N11     As4 
	BYTE	W12
	BYTE	PEND
// 050   ----------------------------------------
overdosing8850_10_050:
	BYTE		N11     As3   v120
	BYTE		N11     As4 
	BYTE	W12
	BYTE		        Bn3 
	BYTE		N11     Bn4 
	BYTE	W12
	BYTE		TIE     Gs3 
	BYTE		TIE     Gs4 
	BYTE	W44
	BYTE	W03
	BYTE		MOD     0
	BYTE	W01
	BYTE		        11
	BYTE	W01
	BYTE		        16
	BYTE	W01
	BYTE		        21
	BYTE	W01
	BYTE		        32
	BYTE	W01
	BYTE		        37
	BYTE	W01
	BYTE		        43
	BYTE	W01
	BYTE		        53
	BYTE	W01
	BYTE		        59
	BYTE	W01
	BYTE		        64
	BYTE	W01
	BYTE		        74
	BYTE	W01
	BYTE		        80
	BYTE	W01
	BYTE		        85
	BYTE	W01
	BYTE		        96
	BYTE	W01
	BYTE		        101
	BYTE	W01
	BYTE		        106
	BYTE	W01
	BYTE		        117
	BYTE	W01
	BYTE		        122
	BYTE	W01
	BYTE		        127
	BYTE	W07
	BYTE	PEND
// 051   ----------------------------------------
	BYTE	W68
	BYTE	W03
	BYTE		EOT     Gs3 
	BYTE		        Gs4 
	BYTE	W01
	BYTE		MOD     0
	BYTE	W24
// 052   ----------------------------------------
	BYTE	PATT
	 POIN2	overdosing8850_10_048
// 053   ----------------------------------------
overdosing8850_10_053:
	BYTE		N23     Cs4   v120
	BYTE		N23     Cs5 
	BYTE	W24
	BYTE		N05     Gs3 
	BYTE		N05     Gs4 
	BYTE	W06
	BYTE		        Bn3 
	BYTE		N05     Bn4 
	BYTE	W06
	BYTE		        Cs4 
	BYTE		N05     Cs5 
	BYTE	W06
	BYTE		        Ds4 
	BYTE		N05     Ds5 
	BYTE	W06
	BYTE		N16     En4 
	BYTE		N16     En5 
	BYTE	W18
	BYTE		        Ds4 
	BYTE		N16     Ds5 
	BYTE	W18
	BYTE		N10     Cs4 
	BYTE		N10     Cs5 
	BYTE	W12
	BYTE	PEND
// 054   ----------------------------------------
overdosing8850_10_054:
	BYTE		N44     Ds4   v120
	BYTE		N44     Ds5 
	BYTE	W48
	BYTE		N23     Cs4 
	BYTE		N23     Cs5 
	BYTE	W24
	BYTE		        Bn3 
	BYTE		N23     Bn4 
	BYTE	W24
	BYTE	PEND
// 055   ----------------------------------------
overdosing8850_10_055:
	BYTE		N16     As3   v120
	BYTE		N16     As4 
	BYTE	W18
	BYTE		        Bn3 
	BYTE		N16     Bn4 
	BYTE	W18
	BYTE		N10     Cs4 
	BYTE		N10     Cs5 
	BYTE	W12
	BYTE		N16     Gn3 
	BYTE		N16     Gn4 
	BYTE	W18
	BYTE		        Gs3 
	BYTE		N16     Gs4 
	BYTE	W18
	BYTE		N10     As3 
	BYTE		N10     As4 
	BYTE	W12
	BYTE	PEND
// 056   ----------------------------------------
	BYTE	PATT
	 POIN2	overdosing8850_10_048
// 057   ----------------------------------------
	BYTE	PATT
	 POIN2	overdosing8850_10_049
// 058   ----------------------------------------
overdosing8850_10_058:
	BYTE		N11     As3   v120
	BYTE		N11     As4 
	BYTE	W12
	BYTE		        Bn3 
	BYTE		N11     Bn4 
	BYTE	W12
	BYTE		TIE     Gs3 
	BYTE		TIE     Gs4 
	BYTE	W44
	BYTE	W03
	BYTE		MOD     0
	BYTE	W01
	BYTE		        8
	BYTE	W01
	BYTE		        12
	BYTE	W01
	BYTE		        16
	BYTE	W01
	BYTE		        24
	BYTE	W01
	BYTE		        28
	BYTE	W01
	BYTE		        33
	BYTE	W01
	BYTE		        41
	BYTE	W01
	BYTE		        45
	BYTE	W01
	BYTE		        49
	BYTE	W01
	BYTE		        57
	BYTE	W01
	BYTE		        61
	BYTE	W01
	BYTE		        66
	BYTE	W01
	BYTE		        74
	BYTE	W01
	BYTE		        78
	BYTE	W01
	BYTE		        82
	BYTE	W01
	BYTE		        90
	BYTE	W01
	BYTE		        94
	BYTE	W01
	BYTE		        99
	BYTE	W01
	BYTE		        107
	BYTE	W01
	BYTE		        111
	BYTE	W01
	BYTE		        115
	BYTE	W01
	BYTE		        123
	BYTE	W01
	BYTE		        127
	BYTE	W02
	BYTE	PEND
// 059   ----------------------------------------
	BYTE	W68
	BYTE	W03
	BYTE		EOT     Gs3 
	BYTE		        Gs4 
	BYTE	W01
	BYTE		MOD     0
	BYTE	W24
// 060   ----------------------------------------
overdosing8850_10_060:
	BYTE		N32     Bn3   v120
	BYTE		N32     Bn4 
	BYTE	W36
	BYTE		N05     Gs3 
	BYTE		N05     Gs4 
	BYTE	W06
	BYTE		        As3 
	BYTE		N05     As4 
	BYTE	W06
	BYTE		N23     Bn3 
	BYTE		N23     Bn4 
	BYTE	W24
	BYTE		        Ds4 
	BYTE		N23     Ds5 
	BYTE	W24
	BYTE	PEND
// 061   ----------------------------------------
overdosing8850_10_061:
	BYTE		N23     Fs4   v120
	BYTE		N23     Fs5 
	BYTE	W24
	BYTE		        En4 
	BYTE		N23     En5 
	BYTE	W24
	BYTE		        Cs4 
	BYTE		N23     Cs5 
	BYTE	W24
	BYTE		        En4 
	BYTE		N23     En5 
	BYTE	W24
	BYTE	PEND
// 062   ----------------------------------------
overdosing8850_10_062:
	BYTE		N44     Gn4   v120
	BYTE		N44     Gn5 
	BYTE	W48
	BYTE		N16     Gn4 
	BYTE		N16     Gn5 
	BYTE	W18
	BYTE		        Gs4 
	BYTE		N16     Gs5 
	BYTE	W18
	BYTE		N10     As4 
	BYTE		N10     As5 
	BYTE	W12
	BYTE	PEND
// 063   ----------------------------------------
overdosing8850_10_063:
	BYTE		N52     Ds4   v120
	BYTE		N52     Ds5 
	BYTE	W12
	BYTE		MOD     9
	BYTE	W01
	BYTE		        18
	BYTE	W01
	BYTE		        27
	BYTE	W01
	BYTE		        45
	BYTE	W01
	BYTE		        54
	BYTE	W01
	BYTE		        63
	BYTE	W01
	BYTE		        82
	BYTE	W01
	BYTE		        91
	BYTE	W01
	BYTE		        100
	BYTE	W01
	BYTE		        118
	BYTE	W01
	BYTE		        127
	BYTE	W32
	BYTE		        0
	BYTE	W42
	BYTE	PEND
// 064   ----------------------------------------
	BYTE	W96
// 065   ----------------------------------------
	BYTE	W96
// 066   ----------------------------------------
	BYTE	W96
// 067   ----------------------------------------
	BYTE	W96
// 068   ----------------------------------------
	BYTE	W96
// 069   ----------------------------------------
	BYTE	W96
// 070   ----------------------------------------
	BYTE	W96
// 071   ----------------------------------------
	BYTE	W96
// 072   ----------------------------------------
	BYTE	W96
// 073   ----------------------------------------
	BYTE	W96
// 074   ----------------------------------------
	BYTE	W96
// 075   ----------------------------------------
	BYTE	W96
// 076   ----------------------------------------
	BYTE	W96
// 077   ----------------------------------------
	BYTE	W96
// 078   ----------------------------------------
	BYTE	W96
// 079   ----------------------------------------
	BYTE	W96
// 080   ----------------------------------------
	BYTE	W96
// 081   ----------------------------------------
	BYTE	W96
// 082   ----------------------------------------
	BYTE	W96
// 083   ----------------------------------------
	BYTE	W96
// 084   ----------------------------------------
	BYTE	W96
// 085   ----------------------------------------
	BYTE	W96
// 086   ----------------------------------------
	BYTE	W96
// 087   ----------------------------------------
	BYTE	W96
// 088   ----------------------------------------
	BYTE	W96
// 089   ----------------------------------------
	BYTE	W96
// 090   ----------------------------------------
	BYTE	W96
// 091   ----------------------------------------
	BYTE	W96
// 092   ----------------------------------------
	BYTE	W96
// 093   ----------------------------------------
	BYTE	W96
// 094   ----------------------------------------
	BYTE	W96
// 095   ----------------------------------------
	BYTE	W96
// 096   ----------------------------------------
	BYTE	W96
// 097   ----------------------------------------
	BYTE	W96
// 098   ----------------------------------------
	BYTE	W96
// 099   ----------------------------------------
	BYTE	W96
// 100   ----------------------------------------
	BYTE	W96
// 101   ----------------------------------------
	BYTE	W96
// 102   ----------------------------------------
	BYTE	W96
// 103   ----------------------------------------
	BYTE	W96
// 104   ----------------------------------------
	BYTE	W96
// 105   ----------------------------------------
	BYTE	W96
// 106   ----------------------------------------
	BYTE	W96
// 107   ----------------------------------------
	BYTE	W96
// 108   ----------------------------------------
	BYTE	W96
// 109   ----------------------------------------
	BYTE	W96
// 110   ----------------------------------------
	BYTE	W96
// 111   ----------------------------------------
	BYTE	W96
// 112   ----------------------------------------
	BYTE	W96
// 113   ----------------------------------------
	BYTE	W96
// 114   ----------------------------------------
	BYTE	W96
// 115   ----------------------------------------
	BYTE	W96
// 116   ----------------------------------------
	BYTE	W96
// 117   ----------------------------------------
	BYTE	W96
// 118   ----------------------------------------
	BYTE	W96
// 119   ----------------------------------------
	BYTE	W96
// 120   ----------------------------------------
	BYTE	W96
// 121   ----------------------------------------
	BYTE	W96
// 122   ----------------------------------------
	BYTE	W96
// 123   ----------------------------------------
	BYTE	W96
// 124   ----------------------------------------
	BYTE	W96
// 125   ----------------------------------------
	BYTE	W96
// 126   ----------------------------------------
	BYTE	W96
// 127   ----------------------------------------
	BYTE	W96
// 128   ----------------------------------------
	BYTE	W96
// 129   ----------------------------------------
	BYTE	W96
// 130   ----------------------------------------
	BYTE	W96
// 131   ----------------------------------------
	BYTE	W96
// 132   ----------------------------------------
	BYTE	W96
// 133   ----------------------------------------
	BYTE	W96
// 134   ----------------------------------------
	BYTE	W96
// 135   ----------------------------------------
	BYTE	W96
// 136   ----------------------------------------
	BYTE	W96
// 137   ----------------------------------------
	BYTE	W96
// 138   ----------------------------------------
	BYTE	W96
// 139   ----------------------------------------
	BYTE	W96
// 140   ----------------------------------------
	BYTE	W96
// 141   ----------------------------------------
	BYTE	W96
// 142   ----------------------------------------
	BYTE	W96
// 143   ----------------------------------------
	BYTE	W96
// 144   ----------------------------------------
	BYTE	W96
// 145   ----------------------------------------
	BYTE	W96
// 146   ----------------------------------------
	BYTE	W96
// 147   ----------------------------------------
	BYTE	W96
// 148   ----------------------------------------
	BYTE	W96
// 149   ----------------------------------------
	BYTE	W96
// 150   ----------------------------------------
	BYTE	W96
// 151   ----------------------------------------
	BYTE	W96
// 152   ----------------------------------------
	BYTE	W96
// 153   ----------------------------------------
	BYTE	W96
// 154   ----------------------------------------
	BYTE	W96
// 155   ----------------------------------------
	BYTE	W96
// 156   ----------------------------------------
	BYTE	W96
// 157   ----------------------------------------
	BYTE	W96
// 158   ----------------------------------------
	BYTE	W96
// 159   ----------------------------------------
	BYTE	W96
// 160   ----------------------------------------
	BYTE	W96
// 161   ----------------------------------------
	BYTE	W96
// 162   ----------------------------------------
	BYTE	W96
// 163   ----------------------------------------
	BYTE	W72
	BYTE		N05     Ds3 
	BYTE		N05     Ds4 
	BYTE	W06
	BYTE		        Fs3 
	BYTE		N05     Fs4 
	BYTE	W06
	BYTE		        Gs3 
	BYTE		N05     Gs4 
	BYTE	W06
	BYTE		        As3 
	BYTE		N05     As4 
	BYTE	W06
// 164   ----------------------------------------
	BYTE	PATT
	 POIN2	overdosing8850_10_048
// 165   ----------------------------------------
	BYTE	PATT
	 POIN2	overdosing8850_10_049
// 166   ----------------------------------------
	BYTE	PATT
	 POIN2	overdosing8850_10_050
// 167   ----------------------------------------
	BYTE	W68
	BYTE	W03
	BYTE		EOT     Gs3 
	BYTE		        Gs4 
	BYTE	W01
	BYTE		MOD     0
	BYTE	W24
// 168   ----------------------------------------
	BYTE	PATT
	 POIN2	overdosing8850_10_048
// 169   ----------------------------------------
	BYTE	PATT
	 POIN2	overdosing8850_10_053
// 170   ----------------------------------------
	BYTE	PATT
	 POIN2	overdosing8850_10_054
// 171   ----------------------------------------
	BYTE	PATT
	 POIN2	overdosing8850_10_055
// 172   ----------------------------------------
	BYTE	PATT
	 POIN2	overdosing8850_10_048
// 173   ----------------------------------------
	BYTE	PATT
	 POIN2	overdosing8850_10_049
// 174   ----------------------------------------
	BYTE	PATT
	 POIN2	overdosing8850_10_058
// 175   ----------------------------------------
	BYTE	W68
	BYTE	W03
	BYTE		EOT     Gs3 
	BYTE		        Gs4 
	BYTE	W01
	BYTE		MOD     0
	BYTE	W24
// 176   ----------------------------------------
	BYTE	PATT
	 POIN2	overdosing8850_10_060
// 177   ----------------------------------------
	BYTE	PATT
	 POIN2	overdosing8850_10_061
// 178   ----------------------------------------
	BYTE	PATT
	 POIN2	overdosing8850_10_062
// 179   ----------------------------------------
	BYTE	PATT
	 POIN2	overdosing8850_10_063
// 180   ----------------------------------------
	BYTE	W96
// 181   ----------------------------------------
	BYTE	W96
// 182   ----------------------------------------
	BYTE	W96
// 183   ----------------------------------------
	BYTE	W96
// 184   ----------------------------------------
	BYTE	W96
// 185   ----------------------------------------
	BYTE	W96
// 186   ----------------------------------------
	BYTE	W96
// 187   ----------------------------------------
	BYTE	W96
// 188   ----------------------------------------
	BYTE	W96
// 189   ----------------------------------------
	BYTE	W96
// 190   ----------------------------------------
	BYTE	W96
// 191   ----------------------------------------
	BYTE	W96
// 192   ----------------------------------------
	BYTE	W96
// 193   ----------------------------------------
	BYTE	W96
// 194   ----------------------------------------
	BYTE	W96
// 195   ----------------------------------------
	BYTE	W96
// 196   ----------------------------------------
	BYTE	W96
// 197   ----------------------------------------
	BYTE	W96
// 198   ----------------------------------------
	BYTE	W96
// 199   ----------------------------------------
	BYTE	W96
// 200   ----------------------------------------
	BYTE	W96
// 201   ----------------------------------------
	BYTE	W96
// 202   ----------------------------------------
	BYTE	W96
// 203   ----------------------------------------
	BYTE	W96
// 204   ----------------------------------------
	BYTE	W96
// 205   ----------------------------------------
	BYTE	W96
// 206   ----------------------------------------
	BYTE	W96
// 207   ----------------------------------------
	BYTE	W96
// 208   ----------------------------------------
	BYTE	W96
// 209   ----------------------------------------
	BYTE	W96
// 210   ----------------------------------------
	BYTE	W96
// 211   ----------------------------------------
	BYTE	W96
// 212   ----------------------------------------
	BYTE	W96
// 213   ----------------------------------------
	BYTE	W96
// 214   ----------------------------------------
	BYTE	W96
// 215   ----------------------------------------
	BYTE	W96
// 216   ----------------------------------------
	BYTE	W96
// 217   ----------------------------------------
	BYTE	W96
// 218   ----------------------------------------
	BYTE	W96
// 219   ----------------------------------------
	BYTE	W96
// 220   ----------------------------------------
	BYTE	W96
// 221   ----------------------------------------
	BYTE	W96
// 222   ----------------------------------------
	BYTE	W96
// 223   ----------------------------------------
	BYTE	W96
// 224   ----------------------------------------
	BYTE	W96
// 225   ----------------------------------------
	BYTE	W96
// 226   ----------------------------------------
	BYTE	W96
// 227   ----------------------------------------
	BYTE	W96
// 228   ----------------------------------------
	BYTE	W96
// 229   ----------------------------------------
	BYTE	W96
// 230   ----------------------------------------
	BYTE	W96
// 231   ----------------------------------------
	BYTE	FINE

//**************** Track 11 (Midi-Chn.12) ****************//

overdosing8850_11:
	BYTE	KEYSH   overdosing8850_key+0
// 000   ----------------------------------------
	BYTE	W48
	BYTE		VOICE   30
	BYTE		VOL     93*overdosing8850_mvl/mxv
	BYTE		PAN     c_v+0
	BYTE	W48
// 001   ----------------------------------------
	BYTE		MOD     0
	BYTE		BEND    c_v+0
	BYTE	W48
	BYTE	W24
	BYTE	W06
	BYTE	W06
	BYTE	W06
	BYTE	W06
// 002   ----------------------------------------
	BYTE	W96
// 003   ----------------------------------------
	BYTE	W96
// 004   ----------------------------------------
	BYTE	W96
// 005   ----------------------------------------
	BYTE	W96
// 006   ----------------------------------------
	BYTE	W96
// 007   ----------------------------------------
overdosing8850_11_007:
	BYTE	W48
	BYTE		N44     Bn0   v112
	BYTE		N44     Bn1 
	BYTE	W01
	BYTE		BEND    c_v+0
	BYTE	W02
	BYTE		        c_v+3
	BYTE	W01
	BYTE		        c_v+6
	BYTE	W01
	BYTE		        c_v+12
	BYTE	W01
	BYTE		        c_v+25
	BYTE	W01
	BYTE		        c_v+32
	BYTE	W01
	BYTE		        c_v+39
	BYTE	W01
	BYTE		        c_v+52
	BYTE	W01
	BYTE		        c_v+56
	BYTE	W01
	BYTE		        c_v+59
	BYTE	W01
	BYTE		        c_v+63
	BYTE	W21
	BYTE		        c_v+62
	BYTE	W01
	BYTE		        c_v+60
	BYTE	W01
	BYTE		        c_v+58
	BYTE	W01
	BYTE		        c_v+54
	BYTE	W01
	BYTE		        c_v+51
	BYTE	W01
	BYTE		        c_v+47
	BYTE	W01
	BYTE		        c_v+42
	BYTE	W01
	BYTE		        c_v+38
	BYTE	W01
	BYTE		        c_v+35
	BYTE	W01
	BYTE		        c_v+21
	BYTE	W01
	BYTE		        c_v+11
	BYTE	W01
	BYTE		        c_v+0
	BYTE	W04
	BYTE	PEND
// 008   ----------------------------------------
overdosing8850_11_008:
	BYTE		N11     Cn1   v092
	BYTE		N11     Gn1 
	BYTE		N11     Cn2 
	BYTE	W24
	BYTE		N04     Cn1 
	BYTE		N04     Gn1 
	BYTE		N04     Cn2 
	BYTE	W12
	BYTE		N11     Cn1 
	BYTE		N11     Gn1 
	BYTE		N11     Cn2 
	BYTE	W24
	BYTE		N04     Cn1 
	BYTE		N04     Gn1 
	BYTE		N04     Cn2 
	BYTE	W12
	BYTE		N11     Cn1 
	BYTE		N11     Gn1 
	BYTE		N11     Cn2 
	BYTE	W24
	BYTE	PEND
// 009   ----------------------------------------
	BYTE	PATT
	 POIN2	overdosing8850_11_008
// 010   ----------------------------------------
overdosing8850_11_010:
	BYTE		N11     Dn1   v092
	BYTE		N11     An1 
	BYTE		N11     Dn2 
	BYTE	W24
	BYTE		N04     Dn1 
	BYTE		N04     An1 
	BYTE		N04     Dn2 
	BYTE	W12
	BYTE		N11     Dn1 
	BYTE		N11     An1 
	BYTE		N11     Dn2 
	BYTE	W24
	BYTE		N04     Dn1 
	BYTE		N04     An1 
	BYTE		N04     Dn2 
	BYTE	W12
	BYTE		N11     Dn1 
	BYTE		N11     An1 
	BYTE		N11     Dn2 
	BYTE	W24
	BYTE	PEND
// 011   ----------------------------------------
	BYTE	PATT
	 POIN2	overdosing8850_11_010
// 012   ----------------------------------------
overdosing8850_11_012:
	BYTE		N11     En1   v092
	BYTE		N11     An1 
	BYTE		N11     En2 
	BYTE	W24
	BYTE		N04     En1 
	BYTE		N04     An1 
	BYTE		N04     En2 
	BYTE	W12
	BYTE		N11     En1 
	BYTE		N11     An1 
	BYTE		N11     En2 
	BYTE	W24
	BYTE		N04     En1 
	BYTE		N04     An1 
	BYTE		N04     En2 
	BYTE	W12
	BYTE		N11     En1 
	BYTE		N11     An1 
	BYTE		N11     En2 
	BYTE	W24
	BYTE	PEND
// 013   ----------------------------------------
overdosing8850_11_013:
	BYTE		N04     En1   v092
	BYTE		N04     An1 
	BYTE		N04     En2 
	BYTE	W12
	BYTE		N11     En1 
	BYTE		N11     An1 
	BYTE		N11     En2 
	BYTE	W24
	BYTE		N04     En1 
	BYTE		N04     An1 
	BYTE		N04     En2 
	BYTE	W12
	BYTE		N11     En1 
	BYTE		N11     An1 
	BYTE		N11     En2 
	BYTE	W24
	BYTE		        En1 
	BYTE		N11     An1 
	BYTE		N11     En2 
	BYTE	W24
	BYTE	PEND
// 014   ----------------------------------------
	BYTE	PATT
	 POIN2	overdosing8850_11_012
// 015   ----------------------------------------
	BYTE	PATT
	 POIN2	overdosing8850_11_013
// 016   ----------------------------------------
	BYTE	PATT
	 POIN2	overdosing8850_11_010
// 017   ----------------------------------------
overdosing8850_11_017:
	BYTE		N04     Dn1   v092
	BYTE		N04     An1 
	BYTE		N04     Dn2 
	BYTE	W12
	BYTE		N11     Dn1 
	BYTE		N11     An1 
	BYTE		N11     Dn2 
	BYTE	W24
	BYTE		N04     Dn1 
	BYTE		N04     An1 
	BYTE		N04     Dn2 
	BYTE	W12
	BYTE		N11     En1 
	BYTE		N11     Bn1 
	BYTE		N11     En2 
	BYTE	W24
	BYTE		N22     En1 
	BYTE		N22     Bn1 
	BYTE		N22     En2 
	BYTE	W24
	BYTE	PEND
// 018   ----------------------------------------
	BYTE	PATT
	 POIN2	overdosing8850_11_010
// 019   ----------------------------------------
overdosing8850_11_019:
	BYTE		N04     Dn1   v092
	BYTE		N04     An1 
	BYTE		N04     Dn2 
	BYTE	W12
	BYTE		N32     Dn1 
	BYTE		N32     An1 
	BYTE		N32     Dn2 
	BYTE	W36
	BYTE		N11     En1 
	BYTE		N11     Bn1 
	BYTE		N11     En2 
	BYTE	W24
	BYTE		N22     En1 
	BYTE		N22     Bn1 
	BYTE		N22     En2 
	BYTE	W24
	BYTE	PEND
// 020   ----------------------------------------
	BYTE	PATT
	 POIN2	overdosing8850_11_010
// 021   ----------------------------------------
	BYTE	PATT
	 POIN2	overdosing8850_11_017
// 022   ----------------------------------------
overdosing8850_11_022:
	BYTE		N11     Dn1   v092
	BYTE		N11     An1 
	BYTE		N11     Dn2 
	BYTE	W24
	BYTE		N04     Dn1 
	BYTE		N04     An1 
	BYTE		N04     Dn2 
	BYTE	W12
	BYTE		N11     Dn1 
	BYTE		N11     An1 
	BYTE		N11     Dn2 
	BYTE	W24
	BYTE		N04     Dn1 
	BYTE		N04     An1 
	BYTE		N04     Dn2 
	BYTE	W12
	BYTE		N10     En1 
	BYTE		N10     An1 
	BYTE		N10     En2 
	BYTE	W12
	BYTE		        En1 
	BYTE		N10     An1 
	BYTE		N10     En2 
	BYTE	W12
	BYTE	PEND
// 023   ----------------------------------------
	BYTE	W96
// 024   ----------------------------------------
overdosing8850_11_024:
	BYTE		N11     En1   v092
	BYTE		N11     Bn1 
	BYTE		N11     En2 
	BYTE	W24
	BYTE		N04     En1 
	BYTE		N04     Bn1 
	BYTE		N04     En2 
	BYTE	W12
	BYTE		N11     En1 
	BYTE		N11     Bn1 
	BYTE		N11     En2 
	BYTE	W24
	BYTE		N04     En1 
	BYTE		N04     Bn1 
	BYTE		N04     En2 
	BYTE	W12
	BYTE		N11     En1 
	BYTE		N11     Bn1 
	BYTE		N11     En2 
	BYTE	W24
	BYTE	PEND
// 025   ----------------------------------------
overdosing8850_11_025:
	BYTE		N11     En1   v092
	BYTE		N11     Bn1 
	BYTE		N11     En2 
	BYTE	W24
	BYTE		N04     En1 
	BYTE		N04     Bn1 
	BYTE		N04     En2 
	BYTE	W12
	BYTE		N11     En1 
	BYTE		N11     Bn1 
	BYTE		N11     En2 
	BYTE	W24
	BYTE		N04     En1 
	BYTE		N04     Bn1 
	BYTE		N04     En2 
	BYTE	W12
	BYTE		N11     Dn1 
	BYTE		N11     An1 
	BYTE		N11     Dn2 
	BYTE	W24
	BYTE	PEND
// 026   ----------------------------------------
	BYTE	PATT
	 POIN2	overdosing8850_11_008
// 027   ----------------------------------------
overdosing8850_11_027:
	BYTE		N11     Fn1   v092
	BYTE		N11     Cn2 
	BYTE		N11     Fn2 
	BYTE	W24
	BYTE		N04     Fn1 
	BYTE		N04     Cn2 
	BYTE		N04     Fn2 
	BYTE	W12
	BYTE		N11     Fn1 
	BYTE		N11     Cn2 
	BYTE		N11     Fn2 
	BYTE	W24
	BYTE		N04     Fn1 
	BYTE		N04     Cn2 
	BYTE		N04     Fn2 
	BYTE	W12
	BYTE		N10     Fn1 
	BYTE		N10     Cn2 
	BYTE		N10     Fn2 
	BYTE	W12
	BYTE		        En1 
	BYTE		N10     Bn1 
	BYTE		N10     En2 
	BYTE	W12
	BYTE	PEND
// 028   ----------------------------------------
	BYTE	PATT
	 POIN2	overdosing8850_11_010
// 029   ----------------------------------------
	BYTE	PATT
	 POIN2	overdosing8850_11_024
// 030   ----------------------------------------
	BYTE	PATT
	 POIN2	overdosing8850_11_024
// 031   ----------------------------------------
overdosing8850_11_031:
	BYTE		N04     En1   v092
	BYTE		N04     Bn1 
	BYTE		N04     En2 
	BYTE	W12
	BYTE		N11     En1 
	BYTE		N11     Bn1 
	BYTE		N11     En2 
	BYTE	W24
	BYTE		N04     En1 
	BYTE		N04     Bn1 
	BYTE		N04     En2 
	BYTE	W12
	BYTE		N11     Fs1 
	BYTE		N11     Dn2 
	BYTE		N11     Fs2 
	BYTE	W24
	BYTE		N22     Fs1 
	BYTE		N22     Dn2 
	BYTE		N22     Fs2 
	BYTE	W24
	BYTE	PEND
// 032   ----------------------------------------
	BYTE	PATT
	 POIN2	overdosing8850_11_024
// 033   ----------------------------------------
	BYTE	PATT
	 POIN2	overdosing8850_11_031
// 034   ----------------------------------------
	BYTE	PATT
	 POIN2	overdosing8850_11_024
// 035   ----------------------------------------
	BYTE	PATT
	 POIN2	overdosing8850_11_025
// 036   ----------------------------------------
	BYTE	PATT
	 POIN2	overdosing8850_11_008
// 037   ----------------------------------------
	BYTE	PATT
	 POIN2	overdosing8850_11_027
// 038   ----------------------------------------
overdosing8850_11_038:
	BYTE		N11     Ds1   v092
	BYTE		N11     Bn1 
	BYTE		N11     Ds2 
	BYTE	W24
	BYTE		N04     Ds1 
	BYTE		N04     Bn1 
	BYTE		N04     Ds2 
	BYTE	W12
	BYTE		N11     Ds1 
	BYTE		N11     Bn1 
	BYTE		N11     Ds2 
	BYTE	W24
	BYTE		N04     Ds1 
	BYTE		N04     Bn1 
	BYTE		N04     Ds2 
	BYTE	W12
	BYTE		N11     Ds1 
	BYTE		N11     Bn1 
	BYTE		N11     Ds2 
	BYTE	W24
	BYTE	PEND
// 039   ----------------------------------------
overdosing8850_11_039:
	BYTE		N11     Fn1   v092
	BYTE		N11     Cs2 
	BYTE		N11     Fn2 
	BYTE	W24
	BYTE		N04     Fn1 
	BYTE		N04     Cs2 
	BYTE		N04     Fn2 
	BYTE	W12
	BYTE		N11     Fn1 
	BYTE		N11     Cs2 
	BYTE		N11     Fn2 
	BYTE	W24
	BYTE		N04     Fn1 
	BYTE		N04     Cs2 
	BYTE		N04     Fn2 
	BYTE	W12
	BYTE		N11     Fn1 
	BYTE		N11     Cs2 
	BYTE		N11     Fn2 
	BYTE	W24
	BYTE	PEND
// 040   ----------------------------------------
	BYTE	PATT
	 POIN2	overdosing8850_11_038
// 041   ----------------------------------------
overdosing8850_11_041:
	BYTE		N04     Ds1   v092
	BYTE		N04     Bn1 
	BYTE		N04     Ds2 
	BYTE	W12
	BYTE		N11     Ds1 
	BYTE		N11     Bn1 
	BYTE		N11     Ds2 
	BYTE	W24
	BYTE		N04     Ds1 
	BYTE		N04     Bn1 
	BYTE		N04     Ds2 
	BYTE	W12
	BYTE		N11     Ds1 
	BYTE		N11     Bn1 
	BYTE		N11     Ds2 
	BYTE	W24
	BYTE		N22     Fn1 
	BYTE		N22     Cs2 
	BYTE		N22     Fn2 
	BYTE	W24
	BYTE	PEND
// 042   ----------------------------------------
	BYTE	PATT
	 POIN2	overdosing8850_11_038
// 043   ----------------------------------------
overdosing8850_11_043:
	BYTE		N04     Ds1   v092
	BYTE		N04     Bn1 
	BYTE		N04     Ds2 
	BYTE	W12
	BYTE		N20     Ds1 
	BYTE		N20     Bn1 
	BYTE		N20     Ds2 
	BYTE	W24
	BYTE		N04     Ds1 
	BYTE		N04     Bn1 
	BYTE		N04     Ds2 
	BYTE	W12
	BYTE		N11     Fn1 
	BYTE		N11     Cs2 
	BYTE		N11     Fn2 
	BYTE	W24
	BYTE		N22     Fn1 
	BYTE		N22     Cs2 
	BYTE		N22     Fn2 
	BYTE	W24
	BYTE	PEND
// 044   ----------------------------------------
	BYTE	PATT
	 POIN2	overdosing8850_11_038
// 045   ----------------------------------------
	BYTE	PATT
	 POIN2	overdosing8850_11_041
// 046   ----------------------------------------
	BYTE	PATT
	 POIN2	overdosing8850_11_038
// 047   ----------------------------------------
	BYTE	PATT
	 POIN2	overdosing8850_11_043
// 048   ----------------------------------------
overdosing8850_11_048:
	BYTE		N05     Cn1   v100
	BYTE		N05     En1 
	BYTE	W12
	BYTE		        Cn1 
	BYTE		N05     En1 
	BYTE	W12
	BYTE		N10     Bn1 
	BYTE		N10     En2 
	BYTE	W12
	BYTE		N04     En1 
	BYTE		N04     Bn1 
	BYTE	W06
	BYTE		        En1 
	BYTE		N04     Bn1 
	BYTE	W06
	BYTE		N05     Cn1 
	BYTE		N05     En1 
	BYTE	W12
	BYTE		        Cn1 
	BYTE		N05     En1 
	BYTE	W12
	BYTE		N10     Bn1 
	BYTE		N10     En2 
	BYTE	W12
	BYTE		N05     En1 
	BYTE		N05     Gn1 
	BYTE	W12
	BYTE	PEND
// 049   ----------------------------------------
	BYTE	PATT
	 POIN2	overdosing8850_11_048
// 050   ----------------------------------------
	BYTE	PATT
	 POIN2	overdosing8850_11_048
// 051   ----------------------------------------
overdosing8850_11_051:
	BYTE		N05     Cn1   v100
	BYTE		N05     En1 
	BYTE	W12
	BYTE		        Cn1 
	BYTE		N05     En1 
	BYTE	W12
	BYTE		N10     Bn1 
	BYTE		N10     En2 
	BYTE	W12
	BYTE		N04     Gn1 
	BYTE		N04     Bn1 
	BYTE	W06
	BYTE		        Gn1 
	BYTE		N04     Bn1 
	BYTE	W06
	BYTE		N05     En1 
	BYTE		N05     Gs1 
	BYTE	W06
	BYTE		        En1 
	BYTE		N05     Gs1 
	BYTE	W06
	BYTE		        En1 
	BYTE		N05     Gs1 
	BYTE	W12
	BYTE		N10   
	BYTE		N10     Cs2 
	BYTE	W12
	BYTE		N10   
	BYTE		N10     Fs2 
	BYTE	W12
	BYTE	PEND
// 052   ----------------------------------------
overdosing8850_11_052:
	BYTE		N05     Ds1   v100
	BYTE		N05     Gs1 
	BYTE	W12
	BYTE		        Ds1 
	BYTE		N05     Gs1 
	BYTE	W12
	BYTE		N10     Ds2 
	BYTE		N10     Gs2 
	BYTE	W12
	BYTE		N04     Gs1 
	BYTE		N04     Ds2 
	BYTE	W06
	BYTE		        Gs1 
	BYTE		N04     Ds2 
	BYTE	W06
	BYTE		N05     Ds1 
	BYTE		N05     Gs1 
	BYTE	W12
	BYTE		        Ds1 
	BYTE		N05     Gs1 
	BYTE	W12
	BYTE		N10     Ds2 
	BYTE		N10     Gs2 
	BYTE	W12
	BYTE		N05     Gs1 
	BYTE		N05     Ds2 
	BYTE	W12
	BYTE	PEND
// 053   ----------------------------------------
overdosing8850_11_053:
	BYTE		N05     En1   v100
	BYTE		N05     An1 
	BYTE	W12
	BYTE		        En1 
	BYTE		N05     An1 
	BYTE	W12
	BYTE		N10     En2 
	BYTE		N10     An2 
	BYTE	W12
	BYTE		N04     An1 
	BYTE		N04     En2 
	BYTE	W06
	BYTE		        An1 
	BYTE		N04     En2 
	BYTE	W06
	BYTE		N05     En1 
	BYTE		N05     An1 
	BYTE	W12
	BYTE		        En1 
	BYTE		N05     An1 
	BYTE	W12
	BYTE		N10     En2 
	BYTE		N10     An2 
	BYTE	W12
	BYTE		N05     An1 
	BYTE		N05     En2 
	BYTE	W12
	BYTE	PEND
// 054   ----------------------------------------
overdosing8850_11_054:
	BYTE		N05     As0   v100
	BYTE		N05     Ds1 
	BYTE	W12
	BYTE		        As0 
	BYTE		N05     Ds1 
	BYTE	W12
	BYTE		N10     As1 
	BYTE		N10     Ds2 
	BYTE	W12
	BYTE		N04     Ds1 
	BYTE		N04     As1 
	BYTE	W06
	BYTE		        Ds1 
	BYTE		N04     As1 
	BYTE	W06
	BYTE		N05     As0 
	BYTE		N05     Ds1 
	BYTE	W12
	BYTE		        As0 
	BYTE		N05     Ds1 
	BYTE	W12
	BYTE		N10     As1 
	BYTE		N10     Ds2 
	BYTE	W12
	BYTE		N05     Ds1 
	BYTE		N05     As1 
	BYTE	W12
	BYTE	PEND
// 055   ----------------------------------------
overdosing8850_11_055:
	BYTE		N05     As0   v100
	BYTE		N05     Ds1 
	BYTE	W12
	BYTE		        As0 
	BYTE		N05     Ds1 
	BYTE	W12
	BYTE		N10     As1 
	BYTE		N10     Ds2 
	BYTE	W12
	BYTE		N04     Ds1 
	BYTE		N04     As1 
	BYTE	W06
	BYTE		        Ds1 
	BYTE		N04     As1 
	BYTE	W06
	BYTE		N05     As0 
	BYTE		N05     Ds1 
	BYTE	W06
	BYTE		        As0 
	BYTE		N05     Ds1 
	BYTE	W06
	BYTE		        As0 
	BYTE		N05     Ds1 
	BYTE	W12
	BYTE		N10     As1 
	BYTE		N10     Ds2 
	BYTE	W12
	BYTE		N10   
	BYTE		N10     Gn2 
	BYTE	W12
	BYTE	PEND
// 056   ----------------------------------------
	BYTE	PATT
	 POIN2	overdosing8850_11_048
// 057   ----------------------------------------
	BYTE	PATT
	 POIN2	overdosing8850_11_048
// 058   ----------------------------------------
	BYTE	PATT
	 POIN2	overdosing8850_11_048
// 059   ----------------------------------------
	BYTE	PATT
	 POIN2	overdosing8850_11_051
// 060   ----------------------------------------
	BYTE	PATT
	 POIN2	overdosing8850_11_052
// 061   ----------------------------------------
	BYTE	PATT
	 POIN2	overdosing8850_11_053
// 062   ----------------------------------------
	BYTE	PATT
	 POIN2	overdosing8850_11_054
// 063   ----------------------------------------
overdosing8850_11_063:
	BYTE		N10     As0   v100
	BYTE		N10     Ds1 
	BYTE	W12
	BYTE		        As0 
	BYTE		N10     Ds1 
	BYTE	W12
	BYTE		        As0 
	BYTE		N10     Ds1 
	BYTE	W12
	BYTE		        As0 
	BYTE		N10     Ds1 
	BYTE	W12
	BYTE		N10   
	BYTE		N10     Gn1 
	BYTE	W24
	BYTE		N22     Cn1 
	BYTE		N22     Ds1 
	BYTE	W24
	BYTE	PEND
// 064   ----------------------------------------
overdosing8850_11_064:
	BYTE		N05     Fn1   v092
	BYTE		N05     Cn2 
	BYTE		N05     Fn2 
	BYTE	W12
	BYTE		N02     Fn1 
	BYTE		N02     Cn2 
	BYTE		N02     Fn2 
	BYTE	W06
	BYTE		        Fn1 
	BYTE		N02     Cn2 
	BYTE		N02     Fn2 
	BYTE	W06
	BYTE		N05     Fn1 
	BYTE		N05     Cn2 
	BYTE		N05     Fn2 
	BYTE	W12
	BYTE		N02     Fn1 
	BYTE		N02     Cn2 
	BYTE		N02     Fn2 
	BYTE	W06
	BYTE		        Fn1 
	BYTE		N02     Cn2 
	BYTE		N02     Fn2 
	BYTE	W06
	BYTE		N05     Fn1 
	BYTE		N05     Cn2 
	BYTE		N05     Fn2 
	BYTE	W12
	BYTE		N02     Fn1 
	BYTE		N02     Cn2 
	BYTE		N02     Fn2 
	BYTE	W06
	BYTE		        Fn1 
	BYTE		N02     Cn2 
	BYTE		N02     Fn2 
	BYTE	W06
	BYTE		N21     Ds1 
	BYTE		N21     As1 
	BYTE		N21     Ds2 
	BYTE	W24
	BYTE	PEND
// 065   ----------------------------------------
overdosing8850_11_065:
	BYTE		N05     Cs1   v092
	BYTE		N05     Gs1 
	BYTE		N05     Cs2 
	BYTE	W12
	BYTE		N02     Cs1 
	BYTE		N02     Gs1 
	BYTE		N02     Cs2 
	BYTE	W06
	BYTE		        Cs1 
	BYTE		N02     Gs1 
	BYTE		N02     Cs2 
	BYTE	W06
	BYTE		N05     Cs1 
	BYTE		N05     Gs1 
	BYTE		N05     Cs2 
	BYTE	W12
	BYTE		N02     Cs1 
	BYTE		N02     Gs1 
	BYTE		N02     Cs2 
	BYTE	W06
	BYTE		        Cs1 
	BYTE		N02     Gs1 
	BYTE		N02     Cs2 
	BYTE	W06
	BYTE		N05     Cs1 
	BYTE		N05     Gs1 
	BYTE		N05     Cs2 
	BYTE	W12
	BYTE		N02     Cs1 
	BYTE		N02     Gs1 
	BYTE		N02     Cs2 
	BYTE	W06
	BYTE		        Cs1 
	BYTE		N02     Gs1 
	BYTE		N02     Cs2 
	BYTE	W06
	BYTE		N20     Cn1 
	BYTE		N20     Gn1 
	BYTE		N20     Cn2 
	BYTE	W24
	BYTE	PEND
// 066   ----------------------------------------
overdosing8850_11_066:
	BYTE		N05     Cs1   v092
	BYTE		N05     Gs1 
	BYTE		N05     Cs2 
	BYTE	W12
	BYTE		N02     Cs1 
	BYTE		N02     Gs1 
	BYTE		N02     Cs2 
	BYTE	W06
	BYTE		        Cs1 
	BYTE		N02     Gs1 
	BYTE		N02     Cs2 
	BYTE	W06
	BYTE		N05     Cs1 
	BYTE		N05     Gs1 
	BYTE		N05     Cs2 
	BYTE	W12
	BYTE		N02     Cs1 
	BYTE		N02     Gs1 
	BYTE		N02     Cs2 
	BYTE	W06
	BYTE		        Cs1 
	BYTE		N02     Gs1 
	BYTE		N02     Cs2 
	BYTE	W06
	BYTE		N05     Ds1 
	BYTE		N05     As1 
	BYTE		N05     Ds2 
	BYTE	W12
	BYTE		N02     Ds1 
	BYTE		N02     As1 
	BYTE		N02     Ds2 
	BYTE	W06
	BYTE		        Ds1 
	BYTE		N02     As1 
	BYTE		N02     Ds2 
	BYTE	W06
	BYTE		N05     Ds1 
	BYTE		N05     As1 
	BYTE		N05     Ds2 
	BYTE	W12
	BYTE		N02     Ds1 
	BYTE		N02     As1 
	BYTE		N02     Ds2 
	BYTE	W06
	BYTE		        Ds1 
	BYTE		N02     As1 
	BYTE		N02     Ds2 
	BYTE	W06
	BYTE	PEND
// 067   ----------------------------------------
overdosing8850_11_067:
	BYTE		N05     Cn1   v092
	BYTE		N05     Gs1 
	BYTE		N05     Cn2 
	BYTE	W12
	BYTE		N02     Cn1 
	BYTE		N02     Gs1 
	BYTE		N02     Cn2 
	BYTE	W06
	BYTE		        Cn1 
	BYTE		N02     Gs1 
	BYTE		N02     Cn2 
	BYTE	W06
	BYTE		N05     Cn1 
	BYTE		N05     Gs1 
	BYTE		N05     Cn2 
	BYTE	W12
	BYTE		N02     Cn1 
	BYTE		N02     Gs1 
	BYTE		N02     Cn2 
	BYTE	W06
	BYTE		        Cn1 
	BYTE		N02     Gs1 
	BYTE		N02     Cn2 
	BYTE	W06
	BYTE		N05     Cn1 
	BYTE		N05     Gs1 
	BYTE		N05     Cn2 
	BYTE	W12
	BYTE		N02     Cn1 
	BYTE		N02     Gs1 
	BYTE		N02     Cn2 
	BYTE	W06
	BYTE		        Cn1 
	BYTE		N02     Gs1 
	BYTE		N02     Cn2 
	BYTE	W06
	BYTE		N21     Ds1 
	BYTE		N21     As1 
	BYTE		N21     Ds2 
	BYTE	W24
	BYTE	PEND
// 068   ----------------------------------------
	BYTE	PATT
	 POIN2	overdosing8850_11_066
// 069   ----------------------------------------
overdosing8850_11_069:
	BYTE		N05     Fn1   v092
	BYTE		N05     Cs2 
	BYTE		N05     Fn2 
	BYTE	W12
	BYTE		N02     Fn1 
	BYTE		N02     Cs2 
	BYTE		N02     Fn2 
	BYTE	W06
	BYTE		        Fn1 
	BYTE		N02     Cs2 
	BYTE		N02     Fn2 
	BYTE	W06
	BYTE		N05     Fn1 
	BYTE		N05     Cs2 
	BYTE		N05     Fn2 
	BYTE	W12
	BYTE		N02     Fn1 
	BYTE		N02     Cs2 
	BYTE		N02     Fn2 
	BYTE	W06
	BYTE		        Fn1 
	BYTE		N02     Cs2 
	BYTE		N02     Fn2 
	BYTE	W06
	BYTE		N05     Ds1 
	BYTE		N05     Cn2 
	BYTE		N05     Ds2 
	BYTE	W12
	BYTE		N02     Ds1 
	BYTE		N02     Cn2 
	BYTE		N02     Ds2 
	BYTE	W06
	BYTE		        Ds1 
	BYTE		N02     Cn2 
	BYTE		N02     Ds2 
	BYTE	W06
	BYTE		N05     Cn1 
	BYTE		N05     Gs1 
	BYTE		N05     Cn2 
	BYTE	W12
	BYTE		N02     Cn1 
	BYTE		N02     Gs1 
	BYTE		N02     Cn2 
	BYTE	W06
	BYTE		        Cn1 
	BYTE		N02     Gs1 
	BYTE		N02     Cn2 
	BYTE	W06
	BYTE	PEND
// 070   ----------------------------------------
overdosing8850_11_070:
	BYTE		N05     As0   v092
	BYTE		N05     Fn1 
	BYTE		N05     As1 
	BYTE	W12
	BYTE		N02     As0 
	BYTE		N02     Fn1 
	BYTE		N02     As1 
	BYTE	W06
	BYTE		        As0 
	BYTE		N02     Fn1 
	BYTE		N02     As1 
	BYTE	W06
	BYTE		N05     As0 
	BYTE		N05     Fn1 
	BYTE		N05     As1 
	BYTE	W12
	BYTE		N02     As0 
	BYTE		N02     Fn1 
	BYTE		N02     As1 
	BYTE	W06
	BYTE		        As0 
	BYTE		N02     Fn1 
	BYTE		N02     As1 
	BYTE	W06
	BYTE		N05     Ds1 
	BYTE		N05     Bn1 
	BYTE		N05     Ds2 
	BYTE	W12
	BYTE		N02     Ds1 
	BYTE		N02     Bn1 
	BYTE		N02     Ds2 
	BYTE	W06
	BYTE		        Ds1 
	BYTE		N02     Bn1 
	BYTE		N02     Ds2 
	BYTE	W06
	BYTE		N05     Ds1 
	BYTE		N05     Bn1 
	BYTE		N05     Ds2 
	BYTE	W12
	BYTE		N02     Ds1 
	BYTE		N02     Bn1 
	BYTE		N02     Ds2 
	BYTE	W06
	BYTE		        Ds1 
	BYTE		N02     Bn1 
	BYTE		N02     Ds2 
	BYTE	W06
	BYTE	PEND
// 071   ----------------------------------------
overdosing8850_11_071:
	BYTE		N05     Fn1   v092
	BYTE		N05     Cs2 
	BYTE		N05     Fn2 
	BYTE	W12
	BYTE		N02     Fn1 
	BYTE		N02     Cs2 
	BYTE		N02     Fn2 
	BYTE	W06
	BYTE		        Fn1 
	BYTE		N02     Cs2 
	BYTE		N02     Fn2 
	BYTE	W06
	BYTE		N05     Cs1 
	BYTE		N05     As1 
	BYTE		N05     Cs2 
	BYTE	W12
	BYTE		N02     Cs1 
	BYTE		N02     As1 
	BYTE		N02     Cs2 
	BYTE	W06
	BYTE		        Cs1 
	BYTE		N02     As1 
	BYTE		N02     Cs2 
	BYTE	W06
	BYTE		N05     Gs1 
	BYTE		N05     Ds2 
	BYTE		N05     Gs2 
	BYTE	W12
	BYTE		N02     Gs1 
	BYTE		N02     Ds2 
	BYTE		N02     Gs2 
	BYTE	W06
	BYTE		        Gs1 
	BYTE		N02     Ds2 
	BYTE		N02     Gs2 
	BYTE	W06
	BYTE		N20     Ds1 
	BYTE		N20     Gn1 
	BYTE		N20     As1 
	BYTE		N20     Ds2 
	BYTE	W24
	BYTE	PEND
// 072   ----------------------------------------
	BYTE	PATT
	 POIN2	overdosing8850_11_064
// 073   ----------------------------------------
	BYTE	PATT
	 POIN2	overdosing8850_11_065
// 074   ----------------------------------------
	BYTE	PATT
	 POIN2	overdosing8850_11_066
// 075   ----------------------------------------
	BYTE	PATT
	 POIN2	overdosing8850_11_064
// 076   ----------------------------------------
	BYTE	PATT
	 POIN2	overdosing8850_11_066
// 077   ----------------------------------------
overdosing8850_11_077:
	BYTE		N05     Fn1   v092
	BYTE		N05     Cs2 
	BYTE		N05     Fn2 
	BYTE	W12
	BYTE		N02     Fn1 
	BYTE		N02     Cs2 
	BYTE		N02     Fn2 
	BYTE	W06
	BYTE		        Fn1 
	BYTE		N02     Cs2 
	BYTE		N02     Fn2 
	BYTE	W06
	BYTE		N05     Fn1 
	BYTE		N05     Cs2 
	BYTE		N05     Fn2 
	BYTE	W12
	BYTE		N02     Fn1 
	BYTE		N02     Cs2 
	BYTE		N02     Fn2 
	BYTE	W06
	BYTE		        Fn1 
	BYTE		N02     Cs2 
	BYTE		N02     Fn2 
	BYTE	W06
	BYTE		N05     Ds1 
	BYTE		N05     Cn2 
	BYTE		N05     Ds2 
	BYTE	W12
	BYTE		N02     Ds1 
	BYTE		N02     Cn2 
	BYTE		N02     Ds2 
	BYTE	W06
	BYTE		        Ds1 
	BYTE		N02     Cn2 
	BYTE		N02     Ds2 
	BYTE	W06
	BYTE		N22     Cn1 
	BYTE		N22     Gs1 
	BYTE		N22     Cn2 
	BYTE	W24
	BYTE	PEND
// 078   ----------------------------------------
overdosing8850_11_078:
	BYTE		N05     As0   v092
	BYTE		N05     Fn1 
	BYTE		N05     As1 
	BYTE	W12
	BYTE		N02     As0 
	BYTE		N02     Fn1 
	BYTE		N02     As1 
	BYTE	W06
	BYTE		        As0 
	BYTE		N02     Fn1 
	BYTE		N02     As1 
	BYTE	W06
	BYTE		N05     As0 
	BYTE		N05     Fn1 
	BYTE		N05     As1 
	BYTE	W12
	BYTE		N02     As0 
	BYTE		N02     Fn1 
	BYTE		N02     As1 
	BYTE	W06
	BYTE		        As0 
	BYTE		N02     Fn1 
	BYTE		N02     As1 
	BYTE	W06
	BYTE		N05     Bn0 
	BYTE		N05     Fs1 
	BYTE		N05     Bn1 
	BYTE	W12
	BYTE		N02     Bn0 
	BYTE		N02     Fs1 
	BYTE		N02     Bn1 
	BYTE	W06
	BYTE		        Bn0 
	BYTE		N02     Fs1 
	BYTE		N02     Bn1 
	BYTE	W06
	BYTE		N05     Bn0 
	BYTE		N05     Fs1 
	BYTE		N05     Bn1 
	BYTE	W12
	BYTE		N02     Bn0 
	BYTE		N02     Fs1 
	BYTE		N02     Bn1 
	BYTE	W06
	BYTE		        Bn0 
	BYTE		N02     Fs1 
	BYTE		N02     Bn1 
	BYTE	W06
	BYTE	PEND
// 079   ----------------------------------------
overdosing8850_11_079:
	BYTE		N05     As0   v092
	BYTE		N05     Fn1 
	BYTE		N05     As1 
	BYTE	W12
	BYTE		N02     As0 
	BYTE		N02     Fn1 
	BYTE		N02     As1 
	BYTE	W06
	BYTE		        As0 
	BYTE		N02     Fn1 
	BYTE		N02     As1 
	BYTE	W06
	BYTE		N05     As0 
	BYTE		N05     Fn1 
	BYTE		N05     As1 
	BYTE	W12
	BYTE		N02     As0 
	BYTE		N02     Fn1 
	BYTE		N02     As1 
	BYTE	W06
	BYTE		        As0 
	BYTE		N02     Fn1 
	BYTE		N02     As1 
	BYTE	W06
	BYTE		N05     Ds1 
	BYTE		N05     Cn2 
	BYTE		N05     Ds2 
	BYTE	W12
	BYTE		N02     Ds1 
	BYTE		N02     Cn2 
	BYTE		N02     Ds2 
	BYTE	W06
	BYTE		        Ds1 
	BYTE		N02     Cn2 
	BYTE		N02     Ds2 
	BYTE	W06
	BYTE		N05     Ds1 
	BYTE		N05     As1 
	BYTE		N05     Ds2 
	BYTE	W12
	BYTE		N02     Ds1 
	BYTE		N02     As1 
	BYTE		N02     Ds2 
	BYTE	W06
	BYTE		        Ds1 
	BYTE		N02     As1 
	BYTE		N02     Ds2 
	BYTE	W06
	BYTE	PEND
// 080   ----------------------------------------
overdosing8850_11_080:
	BYTE		N05     Cs1   v100
	BYTE		N05     As1 
	BYTE		N05     Cs2 
	BYTE	W12
	BYTE		N02     Cs1 
	BYTE		N02     As1 
	BYTE		N02     Cs2 
	BYTE	W06
	BYTE		        Cs1 
	BYTE		N02     As1 
	BYTE		N02     Cs2 
	BYTE	W06
	BYTE		N05     Cs1 
	BYTE		N05     As1 
	BYTE		N05     Cs2 
	BYTE	W12
	BYTE		N02     Cs1 
	BYTE		N02     As1 
	BYTE		N02     Cs2 
	BYTE	W06
	BYTE		        Cs1 
	BYTE		N02     As1 
	BYTE		N02     Cs2 
	BYTE	W06
	BYTE		N05     Fs1 
	BYTE		N05     Cs2 
	BYTE		N05     Fs2 
	BYTE	W12
	BYTE		N02     Fs1 
	BYTE		N02     Cs2 
	BYTE		N02     Fs2 
	BYTE	W06
	BYTE		        Fs1 
	BYTE		N02     Cs2 
	BYTE		N02     Fs2 
	BYTE	W06
	BYTE		N05     Fs1 
	BYTE		N05     Cs2 
	BYTE		N05     Fs2 
	BYTE	W12
	BYTE		N02     Fs1 
	BYTE		N02     Cs2 
	BYTE		N02     Fs2 
	BYTE	W06
	BYTE		        Fs1 
	BYTE		N02     Cs2 
	BYTE		N02     Fs2 
	BYTE	W06
	BYTE	PEND
// 081   ----------------------------------------
overdosing8850_11_081:
	BYTE		N05     Ds1   v100
	BYTE		N05     Bn1 
	BYTE		N05     Ds2 
	BYTE	W12
	BYTE		N02     Ds1 
	BYTE		N02     Bn1 
	BYTE		N02     Ds2 
	BYTE	W06
	BYTE		        Ds1 
	BYTE		N02     Bn1 
	BYTE		N02     Ds2 
	BYTE	W06
	BYTE		N05     Ds1 
	BYTE		N05     Bn1 
	BYTE		N05     Ds2 
	BYTE	W12
	BYTE		N02     Ds1 
	BYTE		N02     Bn1 
	BYTE		N02     Ds2 
	BYTE	W06
	BYTE		        Ds1 
	BYTE		N02     Bn1 
	BYTE		N02     Ds2 
	BYTE	W06
	BYTE		N05     En1 
	BYTE		N05     Cs2 
	BYTE		N05     En2 
	BYTE	W12
	BYTE		N02     En1 
	BYTE		N02     Cs2 
	BYTE		N02     En2 
	BYTE	W06
	BYTE		        En1 
	BYTE		N02     Cs2 
	BYTE		N02     En2 
	BYTE	W06
	BYTE		N05     En1 
	BYTE		N05     Cs2 
	BYTE		N05     En2 
	BYTE	W12
	BYTE		N02     En1 
	BYTE		N02     Cs2 
	BYTE		N02     En2 
	BYTE	W06
	BYTE		        En1 
	BYTE		N02     Cs2 
	BYTE		N02     En2 
	BYTE	W06
	BYTE	PEND
// 082   ----------------------------------------
overdosing8850_11_082:
	BYTE		N11     Cs1   v092
	BYTE		N11     An1 
	BYTE		N11     Cs2 
	BYTE	W24
	BYTE		N04     Cs1 
	BYTE		N04     An1 
	BYTE		N04     Cs2 
	BYTE	W12
	BYTE		N11     Cs1 
	BYTE		N11     An1 
	BYTE		N11     Cs2 
	BYTE	W24
	BYTE		N04     Cs1 
	BYTE		N04     An1 
	BYTE		N04     Cs2 
	BYTE	W12
	BYTE		N11     Cs1 
	BYTE		N11     An1 
	BYTE		N11     Cs2 
	BYTE	W24
	BYTE	PEND
// 083   ----------------------------------------
overdosing8850_11_083:
	BYTE		N04     Cs1   v092
	BYTE		N04     An1 
	BYTE		N04     Cs2 
	BYTE	W12
	BYTE		N11     Cs1 
	BYTE		N11     An1 
	BYTE		N11     Cs2 
	BYTE	W24
	BYTE		N04     Cs1 
	BYTE		N04     An1 
	BYTE		N04     Cs2 
	BYTE	W12
	BYTE		N11     Cs1 
	BYTE		N11     An1 
	BYTE		N11     Cs2 
	BYTE	W24
	BYTE		        Cs1 
	BYTE		N11     An1 
	BYTE		N11     Cs2 
	BYTE	W24
	BYTE	PEND
// 084   ----------------------------------------
	BYTE	PATT
	 POIN2	overdosing8850_11_082
// 085   ----------------------------------------
	BYTE	PATT
	 POIN2	overdosing8850_11_083
// 086   ----------------------------------------
	BYTE	PATT
	 POIN2	overdosing8850_11_010
// 087   ----------------------------------------
	BYTE	PATT
	 POIN2	overdosing8850_11_017
// 088   ----------------------------------------
	BYTE	PATT
	 POIN2	overdosing8850_11_010
// 089   ----------------------------------------
	BYTE	PATT
	 POIN2	overdosing8850_11_019
// 090   ----------------------------------------
	BYTE	PATT
	 POIN2	overdosing8850_11_010
// 091   ----------------------------------------
	BYTE	PATT
	 POIN2	overdosing8850_11_017
// 092   ----------------------------------------
	BYTE	PATT
	 POIN2	overdosing8850_11_022
// 093   ----------------------------------------
	BYTE	W96
// 094   ----------------------------------------
	BYTE	PATT
	 POIN2	overdosing8850_11_024
// 095   ----------------------------------------
	BYTE	PATT
	 POIN2	overdosing8850_11_025
// 096   ----------------------------------------
	BYTE	PATT
	 POIN2	overdosing8850_11_008
// 097   ----------------------------------------
	BYTE	PATT
	 POIN2	overdosing8850_11_027
// 098   ----------------------------------------
	BYTE	PATT
	 POIN2	overdosing8850_11_010
// 099   ----------------------------------------
	BYTE	PATT
	 POIN2	overdosing8850_11_024
// 100   ----------------------------------------
overdosing8850_11_100:
	BYTE		N11     En1   v092
	BYTE		N11     Cn2 
	BYTE		N11     En2 
	BYTE	W24
	BYTE		N04     En1 
	BYTE		N04     Cn2 
	BYTE		N04     En2 
	BYTE	W12
	BYTE		N11     En1 
	BYTE		N11     Cn2 
	BYTE		N11     En2 
	BYTE	W24
	BYTE		N04     En1 
	BYTE		N04     Cn2 
	BYTE		N04     En2 
	BYTE	W12
	BYTE		N11     En1 
	BYTE		N11     Cn2 
	BYTE		N11     En2 
	BYTE	W24
	BYTE	PEND
// 101   ----------------------------------------
overdosing8850_11_101:
	BYTE		N04     En1   v092
	BYTE		N04     Cn2 
	BYTE		N04     En2 
	BYTE	W12
	BYTE		N11     En1 
	BYTE		N11     Cn2 
	BYTE		N11     En2 
	BYTE	W24
	BYTE		N04     En1 
	BYTE		N04     Cn2 
	BYTE		N04     En2 
	BYTE	W12
	BYTE		N11     Fs1 
	BYTE		N11     Dn2 
	BYTE		N11     Fs2 
	BYTE	W24
	BYTE		N22     Fs1 
	BYTE		N22     Dn2 
	BYTE		N22     Fs2 
	BYTE	W24
	BYTE	PEND
// 102   ----------------------------------------
	BYTE	PATT
	 POIN2	overdosing8850_11_100
// 103   ----------------------------------------
	BYTE	PATT
	 POIN2	overdosing8850_11_101
// 104   ----------------------------------------
	BYTE	PATT
	 POIN2	overdosing8850_11_024
// 105   ----------------------------------------
	BYTE	PATT
	 POIN2	overdosing8850_11_025
// 106   ----------------------------------------
	BYTE	PATT
	 POIN2	overdosing8850_11_008
// 107   ----------------------------------------
	BYTE	PATT
	 POIN2	overdosing8850_11_027
// 108   ----------------------------------------
	BYTE	PATT
	 POIN2	overdosing8850_11_038
// 109   ----------------------------------------
	BYTE	PATT
	 POIN2	overdosing8850_11_039
// 110   ----------------------------------------
	BYTE	PATT
	 POIN2	overdosing8850_11_038
// 111   ----------------------------------------
	BYTE	PATT
	 POIN2	overdosing8850_11_041
// 112   ----------------------------------------
	BYTE	PATT
	 POIN2	overdosing8850_11_038
// 113   ----------------------------------------
	BYTE	PATT
	 POIN2	overdosing8850_11_043
// 114   ----------------------------------------
	BYTE	PATT
	 POIN2	overdosing8850_11_038
// 115   ----------------------------------------
	BYTE	PATT
	 POIN2	overdosing8850_11_041
// 116   ----------------------------------------
	BYTE	PATT
	 POIN2	overdosing8850_11_038
// 117   ----------------------------------------
	BYTE	PATT
	 POIN2	overdosing8850_11_043
// 118   ----------------------------------------
	BYTE	PATT
	 POIN2	overdosing8850_11_048
// 119   ----------------------------------------
	BYTE	PATT
	 POIN2	overdosing8850_11_048
// 120   ----------------------------------------
	BYTE	PATT
	 POIN2	overdosing8850_11_048
// 121   ----------------------------------------
	BYTE	PATT
	 POIN2	overdosing8850_11_051
// 122   ----------------------------------------
	BYTE	PATT
	 POIN2	overdosing8850_11_052
// 123   ----------------------------------------
	BYTE	PATT
	 POIN2	overdosing8850_11_053
// 124   ----------------------------------------
	BYTE	PATT
	 POIN2	overdosing8850_11_054
// 125   ----------------------------------------
	BYTE	PATT
	 POIN2	overdosing8850_11_055
// 126   ----------------------------------------
	BYTE	PATT
	 POIN2	overdosing8850_11_048
// 127   ----------------------------------------
	BYTE	PATT
	 POIN2	overdosing8850_11_048
// 128   ----------------------------------------
	BYTE	PATT
	 POIN2	overdosing8850_11_048
// 129   ----------------------------------------
	BYTE	PATT
	 POIN2	overdosing8850_11_051
// 130   ----------------------------------------
	BYTE	PATT
	 POIN2	overdosing8850_11_052
// 131   ----------------------------------------
	BYTE	PATT
	 POIN2	overdosing8850_11_053
// 132   ----------------------------------------
	BYTE	PATT
	 POIN2	overdosing8850_11_054
// 133   ----------------------------------------
	BYTE	PATT
	 POIN2	overdosing8850_11_063
// 134   ----------------------------------------
	BYTE	PATT
	 POIN2	overdosing8850_11_064
// 135   ----------------------------------------
	BYTE	PATT
	 POIN2	overdosing8850_11_065
// 136   ----------------------------------------
	BYTE	PATT
	 POIN2	overdosing8850_11_066
// 137   ----------------------------------------
	BYTE	PATT
	 POIN2	overdosing8850_11_067
// 138   ----------------------------------------
	BYTE	PATT
	 POIN2	overdosing8850_11_066
// 139   ----------------------------------------
	BYTE	PATT
	 POIN2	overdosing8850_11_069
// 140   ----------------------------------------
	BYTE	PATT
	 POIN2	overdosing8850_11_070
// 141   ----------------------------------------
	BYTE	PATT
	 POIN2	overdosing8850_11_071
// 142   ----------------------------------------
	BYTE	PATT
	 POIN2	overdosing8850_11_064
// 143   ----------------------------------------
	BYTE	PATT
	 POIN2	overdosing8850_11_065
// 144   ----------------------------------------
	BYTE	PATT
	 POIN2	overdosing8850_11_066
// 145   ----------------------------------------
	BYTE	PATT
	 POIN2	overdosing8850_11_064
// 146   ----------------------------------------
	BYTE	PATT
	 POIN2	overdosing8850_11_066
// 147   ----------------------------------------
	BYTE	PATT
	 POIN2	overdosing8850_11_077
// 148   ----------------------------------------
	BYTE	PATT
	 POIN2	overdosing8850_11_078
// 149   ----------------------------------------
	BYTE	PATT
	 POIN2	overdosing8850_11_079
// 150   ----------------------------------------
	BYTE	PATT
	 POIN2	overdosing8850_11_080
// 151   ----------------------------------------
	BYTE	PATT
	 POIN2	overdosing8850_11_081
// 152   ----------------------------------------
	BYTE	PATT
	 POIN2	overdosing8850_11_082
// 153   ----------------------------------------
	BYTE	PATT
	 POIN2	overdosing8850_11_083
// 154   ----------------------------------------
	BYTE	PATT
	 POIN2	overdosing8850_11_082
// 155   ----------------------------------------
	BYTE	PATT
	 POIN2	overdosing8850_11_083
// 156   ----------------------------------------
	BYTE	PATT
	 POIN2	overdosing8850_11_038
// 157   ----------------------------------------
	BYTE	PATT
	 POIN2	overdosing8850_11_041
// 158   ----------------------------------------
	BYTE	PATT
	 POIN2	overdosing8850_11_038
// 159   ----------------------------------------
	BYTE	PATT
	 POIN2	overdosing8850_11_043
// 160   ----------------------------------------
	BYTE	PATT
	 POIN2	overdosing8850_11_038
// 161   ----------------------------------------
	BYTE	PATT
	 POIN2	overdosing8850_11_041
// 162   ----------------------------------------
	BYTE		N11     Ds1   v092
	BYTE		N11     Bn1 
	BYTE		N11     Ds2 
	BYTE	W24
	BYTE		N04     Ds1 
	BYTE		N04     Bn1 
	BYTE		N04     Ds2 
	BYTE	W12
	BYTE		N11     Ds1 
	BYTE		N11     Bn1 
	BYTE		N11     Ds2 
	BYTE	W24
	BYTE		N04     Ds1 
	BYTE		N04     Bn1 
	BYTE		N04     Ds2 
	BYTE	W12
	BYTE		N11     Bn0 
	BYTE		N11     Gs1 
	BYTE		N11     Bn1 
	BYTE	W12
	BYTE		        Bn0 
	BYTE		N11     Gs1 
	BYTE		N11     Bn1 
	BYTE	W12
// 163   ----------------------------------------
	BYTE		N44     Bn0 
	BYTE		N44     Fs1 
	BYTE		N44     Bn1 
	BYTE	W48
	BYTE		        Ds1 
	BYTE		N44     Bn1 
	BYTE		N44     Ds2 
	BYTE	W48
// 164   ----------------------------------------
	BYTE	PATT
	 POIN2	overdosing8850_11_048
// 165   ----------------------------------------
	BYTE	PATT
	 POIN2	overdosing8850_11_048
// 166   ----------------------------------------
	BYTE	PATT
	 POIN2	overdosing8850_11_048
// 167   ----------------------------------------
	BYTE	PATT
	 POIN2	overdosing8850_11_051
// 168   ----------------------------------------
	BYTE	PATT
	 POIN2	overdosing8850_11_052
// 169   ----------------------------------------
	BYTE	PATT
	 POIN2	overdosing8850_11_053
// 170   ----------------------------------------
	BYTE	PATT
	 POIN2	overdosing8850_11_054
// 171   ----------------------------------------
	BYTE	PATT
	 POIN2	overdosing8850_11_055
// 172   ----------------------------------------
	BYTE	PATT
	 POIN2	overdosing8850_11_048
// 173   ----------------------------------------
	BYTE	PATT
	 POIN2	overdosing8850_11_048
// 174   ----------------------------------------
	BYTE	PATT
	 POIN2	overdosing8850_11_048
// 175   ----------------------------------------
	BYTE	PATT
	 POIN2	overdosing8850_11_051
// 176   ----------------------------------------
	BYTE	PATT
	 POIN2	overdosing8850_11_052
// 177   ----------------------------------------
	BYTE	PATT
	 POIN2	overdosing8850_11_053
// 178   ----------------------------------------
	BYTE	PATT
	 POIN2	overdosing8850_11_054
// 179   ----------------------------------------
	BYTE	PATT
	 POIN2	overdosing8850_11_063
// 180   ----------------------------------------
	BYTE	PATT
	 POIN2	overdosing8850_11_064
// 181   ----------------------------------------
	BYTE	PATT
	 POIN2	overdosing8850_11_065
// 182   ----------------------------------------
	BYTE	PATT
	 POIN2	overdosing8850_11_066
// 183   ----------------------------------------
	BYTE	PATT
	 POIN2	overdosing8850_11_067
// 184   ----------------------------------------
	BYTE	PATT
	 POIN2	overdosing8850_11_066
// 185   ----------------------------------------
	BYTE	PATT
	 POIN2	overdosing8850_11_069
// 186   ----------------------------------------
	BYTE	PATT
	 POIN2	overdosing8850_11_070
// 187   ----------------------------------------
	BYTE	PATT
	 POIN2	overdosing8850_11_071
// 188   ----------------------------------------
	BYTE	PATT
	 POIN2	overdosing8850_11_064
// 189   ----------------------------------------
	BYTE	PATT
	 POIN2	overdosing8850_11_065
// 190   ----------------------------------------
	BYTE	PATT
	 POIN2	overdosing8850_11_066
// 191   ----------------------------------------
	BYTE	PATT
	 POIN2	overdosing8850_11_064
// 192   ----------------------------------------
	BYTE	PATT
	 POIN2	overdosing8850_11_066
// 193   ----------------------------------------
	BYTE	PATT
	 POIN2	overdosing8850_11_077
// 194   ----------------------------------------
	BYTE	PATT
	 POIN2	overdosing8850_11_078
// 195   ----------------------------------------
	BYTE	PATT
	 POIN2	overdosing8850_11_079
// 196   ----------------------------------------
	BYTE	PATT
	 POIN2	overdosing8850_11_080
// 197   ----------------------------------------
	BYTE	PATT
	 POIN2	overdosing8850_11_081
// 198   ----------------------------------------
	BYTE		TIE     Fs1   v092
	BYTE		TIE     Cs2 
	BYTE		TIE     Fs2 
	BYTE	W96
// 199   ----------------------------------------
	BYTE	W92
	BYTE	W02
	BYTE		EOT     Fs1 
	BYTE		        Cs2 
	BYTE		        Fs2 
	BYTE	W02
// 200   ----------------------------------------
	BYTE	W96
// 201   ----------------------------------------
	BYTE	W96
// 202   ----------------------------------------
	BYTE	W96
// 203   ----------------------------------------
	BYTE	W96
// 204   ----------------------------------------
	BYTE	W96
// 205   ----------------------------------------
	BYTE	W96
// 206   ----------------------------------------
	BYTE	W96
// 207   ----------------------------------------
	BYTE	PATT
	 POIN2	overdosing8850_11_007
// 208   ----------------------------------------
	BYTE	PATT
	 POIN2	overdosing8850_11_008
// 209   ----------------------------------------
	BYTE	PATT
	 POIN2	overdosing8850_11_008
// 210   ----------------------------------------
	BYTE	PATT
	 POIN2	overdosing8850_11_010
// 211   ----------------------------------------
	BYTE	PATT
	 POIN2	overdosing8850_11_010
// 212   ----------------------------------------
	BYTE	PATT
	 POIN2	overdosing8850_11_012
// 213   ----------------------------------------
	BYTE	PATT
	 POIN2	overdosing8850_11_013
// 214   ----------------------------------------
	BYTE	PATT
	 POIN2	overdosing8850_11_012
// 215   ----------------------------------------
	BYTE	PATT
	 POIN2	overdosing8850_11_013
// 216   ----------------------------------------
	BYTE	PATT
	 POIN2	overdosing8850_11_010
// 217   ----------------------------------------
	BYTE	PATT
	 POIN2	overdosing8850_11_017
// 218   ----------------------------------------
	BYTE	PATT
	 POIN2	overdosing8850_11_010
// 219   ----------------------------------------
	BYTE	PATT
	 POIN2	overdosing8850_11_019
// 220   ----------------------------------------
	BYTE	PATT
	 POIN2	overdosing8850_11_010
// 221   ----------------------------------------
	BYTE	PATT
	 POIN2	overdosing8850_11_017
// 222   ----------------------------------------
	BYTE	PATT
	 POIN2	overdosing8850_11_022
// 223   ----------------------------------------
	BYTE	W96
// 224   ----------------------------------------
	BYTE	W96
// 225   ----------------------------------------
	BYTE	W96
// 226   ----------------------------------------
	BYTE	W96
// 227   ----------------------------------------
	BYTE	W96
// 228   ----------------------------------------
	BYTE	W96
// 229   ----------------------------------------
	BYTE	W96
// 230   ----------------------------------------
	BYTE	W96
// 231   ----------------------------------------
	BYTE	FINE

//**************** Track 12 (Midi-Chn.13) ****************//

overdosing8850_12:
	BYTE	KEYSH   overdosing8850_key+0
// 000   ----------------------------------------
	BYTE	W48
	BYTE		VOICE   47
	BYTE		VOL     100*overdosing8850_mvl/mxv
	BYTE		PAN     c_v-20
	BYTE	W48
// 001   ----------------------------------------
	BYTE		MOD     0
	BYTE		BEND    c_v+0
	BYTE	W48
	BYTE	W24
	BYTE	W06
	BYTE	W06
	BYTE	W06
	BYTE	W06
// 002   ----------------------------------------
	BYTE	W96
// 003   ----------------------------------------
	BYTE	W96
// 004   ----------------------------------------
	BYTE	W96
// 005   ----------------------------------------
	BYTE	W96
// 006   ----------------------------------------
	BYTE	W96
// 007   ----------------------------------------
	BYTE	W96
// 008   ----------------------------------------
overdosing8850_12_008:
	BYTE		N02     En1   v120
	BYTE	W36
	BYTE		N02   
	BYTE	W36
	BYTE		N02   
	BYTE	W24
	BYTE	PEND
// 009   ----------------------------------------
	BYTE	PATT
	 POIN2	overdosing8850_12_008
// 010   ----------------------------------------
	BYTE	PATT
	 POIN2	overdosing8850_12_008
// 011   ----------------------------------------
	BYTE	PATT
	 POIN2	overdosing8850_12_008
// 012   ----------------------------------------
	BYTE	PATT
	 POIN2	overdosing8850_12_008
// 013   ----------------------------------------
overdosing8850_12_013:
	BYTE	W12
	BYTE		N02     En1   v120
	BYTE	W36
	BYTE		N02   
	BYTE	W24
	BYTE		N02   
	BYTE	W24
	BYTE	PEND
// 014   ----------------------------------------
	BYTE	PATT
	 POIN2	overdosing8850_12_008
// 015   ----------------------------------------
	BYTE	PATT
	 POIN2	overdosing8850_12_013
// 016   ----------------------------------------
	BYTE	PATT
	 POIN2	overdosing8850_12_008
// 017   ----------------------------------------
	BYTE	PATT
	 POIN2	overdosing8850_12_013
// 018   ----------------------------------------
	BYTE	PATT
	 POIN2	overdosing8850_12_008
// 019   ----------------------------------------
	BYTE	PATT
	 POIN2	overdosing8850_12_013
// 020   ----------------------------------------
	BYTE	PATT
	 POIN2	overdosing8850_12_008
// 021   ----------------------------------------
	BYTE	PATT
	 POIN2	overdosing8850_12_013
// 022   ----------------------------------------
overdosing8850_12_022:
	BYTE		N02     En1   v120
	BYTE	W36
	BYTE		N02   
	BYTE	W36
	BYTE		N02   
	BYTE	W12
	BYTE		N02   
	BYTE	W12
	BYTE	PEND
// 023   ----------------------------------------
	BYTE	W96
// 024   ----------------------------------------
	BYTE	PATT
	 POIN2	overdosing8850_12_008
// 025   ----------------------------------------
	BYTE	PATT
	 POIN2	overdosing8850_12_008
// 026   ----------------------------------------
	BYTE	PATT
	 POIN2	overdosing8850_12_008
// 027   ----------------------------------------
	BYTE	PATT
	 POIN2	overdosing8850_12_008
// 028   ----------------------------------------
	BYTE	PATT
	 POIN2	overdosing8850_12_008
// 029   ----------------------------------------
	BYTE	PATT
	 POIN2	overdosing8850_12_008
// 030   ----------------------------------------
	BYTE	PATT
	 POIN2	overdosing8850_12_008
// 031   ----------------------------------------
	BYTE	PATT
	 POIN2	overdosing8850_12_013
// 032   ----------------------------------------
	BYTE	PATT
	 POIN2	overdosing8850_12_008
// 033   ----------------------------------------
	BYTE	PATT
	 POIN2	overdosing8850_12_013
// 034   ----------------------------------------
	BYTE	PATT
	 POIN2	overdosing8850_12_008
// 035   ----------------------------------------
	BYTE	PATT
	 POIN2	overdosing8850_12_008
// 036   ----------------------------------------
	BYTE	PATT
	 POIN2	overdosing8850_12_008
// 037   ----------------------------------------
	BYTE	PATT
	 POIN2	overdosing8850_12_008
// 038   ----------------------------------------
	BYTE	PATT
	 POIN2	overdosing8850_12_008
// 039   ----------------------------------------
	BYTE	PATT
	 POIN2	overdosing8850_12_008
// 040   ----------------------------------------
	BYTE	PATT
	 POIN2	overdosing8850_12_008
// 041   ----------------------------------------
	BYTE	PATT
	 POIN2	overdosing8850_12_013
// 042   ----------------------------------------
	BYTE	PATT
	 POIN2	overdosing8850_12_008
// 043   ----------------------------------------
	BYTE	PATT
	 POIN2	overdosing8850_12_013
// 044   ----------------------------------------
	BYTE	PATT
	 POIN2	overdosing8850_12_008
// 045   ----------------------------------------
	BYTE	PATT
	 POIN2	overdosing8850_12_013
// 046   ----------------------------------------
	BYTE	PATT
	 POIN2	overdosing8850_12_008
// 047   ----------------------------------------
	BYTE	PATT
	 POIN2	overdosing8850_12_013
// 048   ----------------------------------------
	BYTE	W96
// 049   ----------------------------------------
	BYTE	W96
// 050   ----------------------------------------
	BYTE	W96
// 051   ----------------------------------------
	BYTE	W96
// 052   ----------------------------------------
	BYTE	W96
// 053   ----------------------------------------
	BYTE	W96
// 054   ----------------------------------------
	BYTE	W96
// 055   ----------------------------------------
	BYTE	W96
// 056   ----------------------------------------
	BYTE	W96
// 057   ----------------------------------------
	BYTE	W96
// 058   ----------------------------------------
	BYTE	W96
// 059   ----------------------------------------
	BYTE	W96
// 060   ----------------------------------------
	BYTE	W96
// 061   ----------------------------------------
	BYTE	W96
// 062   ----------------------------------------
	BYTE	W96
// 063   ----------------------------------------
	BYTE	W96
// 064   ----------------------------------------
	BYTE	W96
// 065   ----------------------------------------
	BYTE	W96
// 066   ----------------------------------------
	BYTE	W96
// 067   ----------------------------------------
	BYTE	W96
// 068   ----------------------------------------
	BYTE	W96
// 069   ----------------------------------------
	BYTE	W96
// 070   ----------------------------------------
	BYTE	W96
// 071   ----------------------------------------
	BYTE	W96
// 072   ----------------------------------------
	BYTE	W96
// 073   ----------------------------------------
	BYTE	W96
// 074   ----------------------------------------
	BYTE	W96
// 075   ----------------------------------------
	BYTE	W96
// 076   ----------------------------------------
	BYTE	W96
// 077   ----------------------------------------
	BYTE	W96
// 078   ----------------------------------------
	BYTE	W96
// 079   ----------------------------------------
	BYTE	W96
// 080   ----------------------------------------
	BYTE	W96
// 081   ----------------------------------------
	BYTE	W96
// 082   ----------------------------------------
	BYTE	PATT
	 POIN2	overdosing8850_12_008
// 083   ----------------------------------------
	BYTE	PATT
	 POIN2	overdosing8850_12_013
// 084   ----------------------------------------
	BYTE	PATT
	 POIN2	overdosing8850_12_008
// 085   ----------------------------------------
	BYTE	PATT
	 POIN2	overdosing8850_12_013
// 086   ----------------------------------------
	BYTE	PATT
	 POIN2	overdosing8850_12_008
// 087   ----------------------------------------
	BYTE	PATT
	 POIN2	overdosing8850_12_013
// 088   ----------------------------------------
	BYTE	PATT
	 POIN2	overdosing8850_12_008
// 089   ----------------------------------------
	BYTE	PATT
	 POIN2	overdosing8850_12_013
// 090   ----------------------------------------
	BYTE	PATT
	 POIN2	overdosing8850_12_008
// 091   ----------------------------------------
	BYTE	PATT
	 POIN2	overdosing8850_12_013
// 092   ----------------------------------------
	BYTE	PATT
	 POIN2	overdosing8850_12_022
// 093   ----------------------------------------
	BYTE	W96
// 094   ----------------------------------------
	BYTE	PATT
	 POIN2	overdosing8850_12_008
// 095   ----------------------------------------
	BYTE	PATT
	 POIN2	overdosing8850_12_008
// 096   ----------------------------------------
	BYTE	PATT
	 POIN2	overdosing8850_12_008
// 097   ----------------------------------------
	BYTE	PATT
	 POIN2	overdosing8850_12_008
// 098   ----------------------------------------
	BYTE	PATT
	 POIN2	overdosing8850_12_008
// 099   ----------------------------------------
	BYTE	PATT
	 POIN2	overdosing8850_12_008
// 100   ----------------------------------------
	BYTE	PATT
	 POIN2	overdosing8850_12_008
// 101   ----------------------------------------
	BYTE	PATT
	 POIN2	overdosing8850_12_013
// 102   ----------------------------------------
	BYTE	PATT
	 POIN2	overdosing8850_12_008
// 103   ----------------------------------------
	BYTE	PATT
	 POIN2	overdosing8850_12_013
// 104   ----------------------------------------
	BYTE	PATT
	 POIN2	overdosing8850_12_008
// 105   ----------------------------------------
	BYTE	PATT
	 POIN2	overdosing8850_12_008
// 106   ----------------------------------------
	BYTE	PATT
	 POIN2	overdosing8850_12_008
// 107   ----------------------------------------
	BYTE	PATT
	 POIN2	overdosing8850_12_008
// 108   ----------------------------------------
	BYTE	PATT
	 POIN2	overdosing8850_12_008
// 109   ----------------------------------------
	BYTE	PATT
	 POIN2	overdosing8850_12_008
// 110   ----------------------------------------
	BYTE	PATT
	 POIN2	overdosing8850_12_008
// 111   ----------------------------------------
	BYTE	PATT
	 POIN2	overdosing8850_12_013
// 112   ----------------------------------------
	BYTE	PATT
	 POIN2	overdosing8850_12_008
// 113   ----------------------------------------
	BYTE	PATT
	 POIN2	overdosing8850_12_013
// 114   ----------------------------------------
	BYTE	PATT
	 POIN2	overdosing8850_12_008
// 115   ----------------------------------------
	BYTE	PATT
	 POIN2	overdosing8850_12_013
// 116   ----------------------------------------
	BYTE	PATT
	 POIN2	overdosing8850_12_008
// 117   ----------------------------------------
	BYTE	PATT
	 POIN2	overdosing8850_12_013
// 118   ----------------------------------------
	BYTE	W96
// 119   ----------------------------------------
	BYTE	W96
// 120   ----------------------------------------
	BYTE	W96
// 121   ----------------------------------------
	BYTE	W96
// 122   ----------------------------------------
	BYTE	W96
// 123   ----------------------------------------
	BYTE	W96
// 124   ----------------------------------------
	BYTE	W96
// 125   ----------------------------------------
	BYTE	W96
// 126   ----------------------------------------
	BYTE	W96
// 127   ----------------------------------------
	BYTE	W96
// 128   ----------------------------------------
	BYTE	W96
// 129   ----------------------------------------
	BYTE	W96
// 130   ----------------------------------------
	BYTE	W96
// 131   ----------------------------------------
	BYTE	W96
// 132   ----------------------------------------
	BYTE	W96
// 133   ----------------------------------------
	BYTE	W96
// 134   ----------------------------------------
	BYTE	W96
// 135   ----------------------------------------
	BYTE	W96
// 136   ----------------------------------------
	BYTE	W96
// 137   ----------------------------------------
	BYTE	W96
// 138   ----------------------------------------
	BYTE	W96
// 139   ----------------------------------------
	BYTE	W96
// 140   ----------------------------------------
	BYTE	W96
// 141   ----------------------------------------
	BYTE	W96
// 142   ----------------------------------------
	BYTE	W96
// 143   ----------------------------------------
	BYTE	W96
// 144   ----------------------------------------
	BYTE	W96
// 145   ----------------------------------------
	BYTE	W96
// 146   ----------------------------------------
	BYTE	W96
// 147   ----------------------------------------
	BYTE	W96
// 148   ----------------------------------------
	BYTE	W96
// 149   ----------------------------------------
	BYTE	W96
// 150   ----------------------------------------
	BYTE	W96
// 151   ----------------------------------------
	BYTE	W96
// 152   ----------------------------------------
	BYTE	PATT
	 POIN2	overdosing8850_12_008
// 153   ----------------------------------------
	BYTE	PATT
	 POIN2	overdosing8850_12_013
// 154   ----------------------------------------
	BYTE	PATT
	 POIN2	overdosing8850_12_008
// 155   ----------------------------------------
	BYTE	PATT
	 POIN2	overdosing8850_12_013
// 156   ----------------------------------------
	BYTE	PATT
	 POIN2	overdosing8850_12_008
// 157   ----------------------------------------
	BYTE	PATT
	 POIN2	overdosing8850_12_013
// 158   ----------------------------------------
	BYTE	PATT
	 POIN2	overdosing8850_12_008
// 159   ----------------------------------------
	BYTE	PATT
	 POIN2	overdosing8850_12_013
// 160   ----------------------------------------
	BYTE	PATT
	 POIN2	overdosing8850_12_008
// 161   ----------------------------------------
	BYTE	PATT
	 POIN2	overdosing8850_12_013
// 162   ----------------------------------------
	BYTE	PATT
	 POIN2	overdosing8850_12_008
// 163   ----------------------------------------
	BYTE	W96
// 164   ----------------------------------------
	BYTE	W96
// 165   ----------------------------------------
	BYTE	W96
// 166   ----------------------------------------
	BYTE	W96
// 167   ----------------------------------------
	BYTE	W96
// 168   ----------------------------------------
	BYTE	W96
// 169   ----------------------------------------
	BYTE	W96
// 170   ----------------------------------------
	BYTE	W96
// 171   ----------------------------------------
	BYTE	W96
// 172   ----------------------------------------
	BYTE	W96
// 173   ----------------------------------------
	BYTE	W96
// 174   ----------------------------------------
	BYTE	W96
// 175   ----------------------------------------
	BYTE	W96
// 176   ----------------------------------------
	BYTE	W96
// 177   ----------------------------------------
	BYTE	W96
// 178   ----------------------------------------
	BYTE	W96
// 179   ----------------------------------------
	BYTE	W96
// 180   ----------------------------------------
	BYTE	W96
// 181   ----------------------------------------
	BYTE	W96
// 182   ----------------------------------------
	BYTE	W96
// 183   ----------------------------------------
	BYTE	W96
// 184   ----------------------------------------
	BYTE	W96
// 185   ----------------------------------------
	BYTE	W96
// 186   ----------------------------------------
	BYTE	W96
// 187   ----------------------------------------
	BYTE	W96
// 188   ----------------------------------------
	BYTE	W96
// 189   ----------------------------------------
	BYTE	W96
// 190   ----------------------------------------
	BYTE	W96
// 191   ----------------------------------------
	BYTE	W96
// 192   ----------------------------------------
	BYTE	W96
// 193   ----------------------------------------
	BYTE	W96
// 194   ----------------------------------------
	BYTE	W96
// 195   ----------------------------------------
	BYTE	W96
// 196   ----------------------------------------
	BYTE	W96
// 197   ----------------------------------------
	BYTE	W96
// 198   ----------------------------------------
	BYTE	W96
// 199   ----------------------------------------
	BYTE	W96
// 200   ----------------------------------------
	BYTE	W96
// 201   ----------------------------------------
	BYTE	W96
// 202   ----------------------------------------
	BYTE	W96
// 203   ----------------------------------------
	BYTE	W96
// 204   ----------------------------------------
	BYTE	W96
// 205   ----------------------------------------
	BYTE	W96
// 206   ----------------------------------------
	BYTE	W96
// 207   ----------------------------------------
	BYTE	W96
// 208   ----------------------------------------
	BYTE	PATT
	 POIN2	overdosing8850_12_008
// 209   ----------------------------------------
	BYTE	PATT
	 POIN2	overdosing8850_12_008
// 210   ----------------------------------------
	BYTE	PATT
	 POIN2	overdosing8850_12_008
// 211   ----------------------------------------
	BYTE	PATT
	 POIN2	overdosing8850_12_008
// 212   ----------------------------------------
	BYTE	PATT
	 POIN2	overdosing8850_12_008
// 213   ----------------------------------------
	BYTE	PATT
	 POIN2	overdosing8850_12_013
// 214   ----------------------------------------
	BYTE	PATT
	 POIN2	overdosing8850_12_008
// 215   ----------------------------------------
	BYTE	PATT
	 POIN2	overdosing8850_12_013
// 216   ----------------------------------------
	BYTE	PATT
	 POIN2	overdosing8850_12_008
// 217   ----------------------------------------
	BYTE	PATT
	 POIN2	overdosing8850_12_013
// 218   ----------------------------------------
	BYTE	PATT
	 POIN2	overdosing8850_12_008
// 219   ----------------------------------------
	BYTE	PATT
	 POIN2	overdosing8850_12_013
// 220   ----------------------------------------
	BYTE	PATT
	 POIN2	overdosing8850_12_008
// 221   ----------------------------------------
	BYTE	PATT
	 POIN2	overdosing8850_12_013
// 222   ----------------------------------------
	BYTE	PATT
	 POIN2	overdosing8850_12_022
// 223   ----------------------------------------
	BYTE	W96
// 224   ----------------------------------------
	BYTE	W96
// 225   ----------------------------------------
	BYTE	W96
// 226   ----------------------------------------
	BYTE	W96
// 227   ----------------------------------------
	BYTE	W96
// 228   ----------------------------------------
	BYTE	W96
// 229   ----------------------------------------
	BYTE	W96
// 230   ----------------------------------------
	BYTE	W96
// 231   ----------------------------------------
	BYTE	FINE

//******************************************************//
	ALIGN 4

overdosing8850:
	BYTE	12	// NumTrks
	BYTE	0	// NumBlks
	BYTE	overdosing8850_pri	// Priority
	BYTE	overdosing8850_rev	// Reverb.

	POIN2	overdosing8850_grp

	POIN2	overdosing8850_1
	POIN2	overdosing8850_2
	POIN2	overdosing8850_3
	POIN2	overdosing8850_4
	POIN2	overdosing8850_5
	POIN2	overdosing8850_6
	POIN2	overdosing8850_7
	POIN2	overdosing8850_8
	POIN2	overdosing8850_9
	POIN2	overdosing8850_10
	POIN2	overdosing8850_11
	POIN2	overdosing8850_12

	
