//Event file generated from Sappy .s format.
	#include "MPlayDef.event"

	#define	TalesofSymphonia-FightingoftheSpirit-RayZa_grp  voicegroup000
	#define	TalesofSymphonia-FightingoftheSpirit-RayZa_pri  0
	#define	TalesofSymphonia-FightingoftheSpirit-RayZa_rev  0
	#define	TalesofSymphonia-FightingoftheSpirit-RayZa_mvl  127
	#define	TalesofSymphonia-FightingoftheSpirit-RayZa_key  0
	#define	TalesofSymphonia-FightingoftheSpirit-RayZa_tbs  1
	#define	TalesofSymphonia-FightingoftheSpirit-RayZa_exg  0
	#define	TalesofSymphonia-FightingoftheSpirit-RayZa_cmp  1

	// .rodata
	//	TalesofSymphonia-FightingoftheSpirit-RayZa
	ALIGN 4

//**************** Track 1 (Midi-Chn.1) ****************//

TalesofSymphonia-FightingoftheSpirit-RayZa_1:
	BYTE	KEYSH   TalesofSymphonia-FightingoftheSpirit-RayZa_key+0
// 000   ----------------------------------------
	BYTE	TEMPO   173*TalesofSymphonia-FightingoftheSpirit-RayZa_tbs/2
	BYTE		VOICE   30
	BYTE		PAN     c_v+0
	BYTE		VOL     127*TalesofSymphonia-FightingoftheSpirit-RayZa_mvl/mxv
	BYTE		TIE     An1   v104
	BYTE	W96
// 001   ----------------------------------------
	BYTE	W96
	BYTE		EOT   
// 002   ----------------------------------------
	BYTE		TIE   
	BYTE	W96
// 003   ----------------------------------------
	BYTE	W72
	BYTE		EOT   
	BYTE		N09   
	BYTE	W09
	BYTE		N06     En2 
	BYTE	W06
	BYTE		N09     Gn2 
	BYTE	W09
// 004   ----------------------------------------
	BYTE		N36     Cn3   v127
	BYTE	W36
	BYTE		        Bn2   v096
	BYTE	W36
	BYTE		N84     An2   v100
	BYTE	W24
// 005   ----------------------------------------
	BYTE	W60
	BYTE		N12     Bn2   v096
	BYTE	W12
	BYTE		        Cn3   v112
	BYTE	W12
	BYTE		        Dn3   v096
	BYTE	W12
// 006   ----------------------------------------
TalesofSymphonia-FightingoftheSpirit-RayZa_1_006:
	BYTE		N36     En3   v120
	BYTE	W36
	BYTE		N84     An2   v088
	BYTE	W60
	BYTE	PEND
// 007   ----------------------------------------
TalesofSymphonia-FightingoftheSpirit-RayZa_1_007:
	BYTE	W24
	BYTE		N24     Bn2   v108
	BYTE	W24
	BYTE		        Cn3   v116
	BYTE	W24
	BYTE		        Dn3   v112
	BYTE	W24
	BYTE	PEND
// 008   ----------------------------------------
	BYTE		N12     Cn3   v104
	BYTE	W12
	BYTE		N24     Bn2   v092
	BYTE	W24
	BYTE		        Gn2   v116
	BYTE	W24
	BYTE		        Gn2   v096
	BYTE	W24
	BYTE		N36     Gn2   v124
	BYTE	W12
// 009   ----------------------------------------
	BYTE	PATT
	 POIN2	TalesofSymphonia-FightingoftheSpirit-RayZa_1_007
// 010   ----------------------------------------
	BYTE		N12     Cn3   v100
	BYTE	W12
	BYTE		N24     Bn2   v096
	BYTE	W24
	BYTE		N60     An2   v092
	BYTE	W60
// 011   ----------------------------------------
	BYTE		N72     En2   v100
	BYTE	W72
	BYTE		N11     Cn2   v096
	BYTE	W24
// 012   ----------------------------------------
TalesofSymphonia-FightingoftheSpirit-RayZa_1_012:
	BYTE		N36     Cn3   v127
	BYTE	W36
	BYTE		        Bn2   v092
	BYTE	W36
	BYTE		N84     An2   v104
	BYTE	W24
	BYTE	PEND
// 013   ----------------------------------------
TalesofSymphonia-FightingoftheSpirit-RayZa_1_013:
	BYTE	W60
	BYTE		N12     Bn2   v096
	BYTE	W12
	BYTE		        Cn3   v108
	BYTE	W12
	BYTE		        Dn3   v104
	BYTE	W12
	BYTE	PEND
// 014   ----------------------------------------
	BYTE		N60     En3   v116
	BYTE	W60
	BYTE		N24     Dn3   v088
	BYTE	W24
	BYTE		N12     Cn3 
	BYTE	W12
// 015   ----------------------------------------
TalesofSymphonia-FightingoftheSpirit-RayZa_1_015:
	BYTE		N36     Bn2   v104
	BYTE	W36
	BYTE		N60     An2   v088
	BYTE	W60
	BYTE	PEND
// 016   ----------------------------------------
	BYTE		N24     An2   v108
	BYTE	W24
	BYTE		N12     Bn2   v100
	BYTE	W12
	BYTE		N36     Cn3   v096
	BYTE	W36
	BYTE		N24     Dn3   v108
	BYTE	W24
// 017   ----------------------------------------
	BYTE		        En3   v116
	BYTE	W24
	BYTE		        Dn3   v104
	BYTE	W24
	BYTE		        Cn3   v096
	BYTE	W24
	BYTE		        Bn2 
	BYTE	W24
// 018   ----------------------------------------
	BYTE		N12     Cn3   v116
	BYTE	W12
	BYTE		N24     Bn2   v092
	BYTE	W24
	BYTE		TIE     An2   v100
	BYTE	W60
// 019   ----------------------------------------
	BYTE		N48     Gn2 
	BYTE	W96
	BYTE		EOT     An2 
// 020   ----------------------------------------
TalesofSymphonia-FightingoftheSpirit-RayZa_1_020:
	BYTE		N84     Dn3   v127
	BYTE	W84
	BYTE		N12     Cn3   v084
	BYTE	W12
	BYTE	PEND
// 021   ----------------------------------------
	BYTE		N48     Bn2   v108
	BYTE	W48
	BYTE		N18   
	BYTE	W18
	BYTE		        Cn3   v104
	BYTE	W18
	BYTE		N12     Dn3   v096
	BYTE	W12
// 022   ----------------------------------------
	BYTE		N48     Cn3   v104
	BYTE	W48
	BYTE		        Bn2   v108
	BYTE	W48
// 023   ----------------------------------------
	BYTE		        An2   v104
	BYTE	W48
	BYTE		        Gn2   v100
	BYTE	W48
// 024   ----------------------------------------
	BYTE		N84     Dn3   v127
	BYTE	W84
	BYTE		N12     Cn3   v092
	BYTE	W12
// 025   ----------------------------------------
	BYTE		N24     Cn3   v104
	BYTE	W24
	BYTE		        Bn2   v100
	BYTE	W24
	BYTE		        Fn3   v127
	BYTE	W24
	BYTE		        En3   v100
	BYTE	W24
// 026   ----------------------------------------
	BYTE		N48     Dn3 
	BYTE	W48
	BYTE		N36     Cn3 
	BYTE	W36
	BYTE		N06     Bn2   v096
	BYTE	W06
	BYTE		        Cn3   v100
	BYTE	W06
// 027   ----------------------------------------
	BYTE		N48     Bn2   v104
	BYTE	W48
	BYTE		N24     An2   v108
	BYTE	W24
	BYTE		        Gn2   v100
	BYTE	W24
// 028   ----------------------------------------
	BYTE		N48     An2   v112
	BYTE	W48
	BYTE		N12   
	BYTE	W12
	BYTE		        Bn2   v096
	BYTE	W12
	BYTE		        Cn3   v104
	BYTE	W12
	BYTE		N24     Dn3   v100
	BYTE	W12
// 029   ----------------------------------------
	BYTE	W12
	BYTE		N12     Dn3   v092
	BYTE	W12
	BYTE		N24     Cn3   v096
	BYTE	W24
	BYTE		        Bn2   v104
	BYTE	W24
	BYTE		        An2   v100
	BYTE	W24
// 030   ----------------------------------------
	BYTE		N48     An2   v112
	BYTE	W48
	BYTE		N12   
	BYTE	W12
	BYTE		        Bn2   v092
	BYTE	W12
	BYTE		        Cn3   v104
	BYTE	W12
	BYTE		N24     Dn3   v096
	BYTE	W12
// 031   ----------------------------------------
	BYTE	W12
	BYTE		N12   
	BYTE	W12
	BYTE		N24     Cn3 
	BYTE	W24
	BYTE		        Bn2   v108
	BYTE	W24
	BYTE		        An2   v104
	BYTE	W24
// 032   ----------------------------------------
	BYTE		N48     An2   v108
	BYTE	W48
	BYTE		N12     An2   v112
	BYTE	W12
	BYTE		        Bn2   v096
	BYTE	W12
	BYTE		        Cn3   v108
	BYTE	W12
	BYTE		N24     Gn3   v112
	BYTE	W12
// 033   ----------------------------------------
	BYTE	W12
	BYTE		N12     Gn3   v100
	BYTE	W12
	BYTE		N24     Fn3   v096
	BYTE	W24
	BYTE		        En3   v100
	BYTE	W24
	BYTE		        Dn3   v092
	BYTE	W24
// 034   ----------------------------------------
	BYTE		N48     Bn2   v104
	BYTE	W48
	BYTE		N12     Bn2   v108
	BYTE	W12
	BYTE		        Cn3   v100
	BYTE	W12
	BYTE		        Dn3   v112
	BYTE	W12
	BYTE		N24     En3   v100
	BYTE	W12
// 035   ----------------------------------------
	BYTE	W12
	BYTE		N12     Dn3   v088
	BYTE	W12
	BYTE		        Cn3   v096
	BYTE	W12
	BYTE		N24     Bn2 
	BYTE	W24
	BYTE		N12     An2   v092
	BYTE	W12
	BYTE		N24     Bn2   v104
	BYTE	W24
// 036   ----------------------------------------
	BYTE		N36     Bn2   v108
	BYTE	W36
	BYTE		TIE     An2   v084
	BYTE	W60
// 037   ----------------------------------------
	BYTE	W60
	BYTE		EOT   
	BYTE		N12     Bn2   v092
	BYTE	W12
	BYTE		        Cn3   v104
	BYTE	W12
	BYTE		        Dn3   v100
	BYTE	W12
// 038   ----------------------------------------
	BYTE	PATT
	 POIN2	TalesofSymphonia-FightingoftheSpirit-RayZa_1_006
// 039   ----------------------------------------
	BYTE	W24
	BYTE		N24     Bn2   v108
	BYTE	W24
	BYTE		        Cn3   v120
	BYTE	W24
	BYTE		        Dn3   v112
	BYTE	W24
// 040   ----------------------------------------
	BYTE		N12     Cn3   v104
	BYTE	W12
	BYTE		N24     Bn2   v092
	BYTE	W24
	BYTE		        Gn2   v116
	BYTE	W24
	BYTE		        Gn2   v092
	BYTE	W24
	BYTE		N36     Gn2   v124
	BYTE	W12
// 041   ----------------------------------------
TalesofSymphonia-FightingoftheSpirit-RayZa_1_041:
	BYTE	W24
	BYTE		N24     Bn2   v108
	BYTE	W24
	BYTE		        Cn3   v112
	BYTE	W24
	BYTE		        Dn3 
	BYTE	W24
	BYTE	PEND
// 042   ----------------------------------------
	BYTE		N12     Cn3   v108
	BYTE	W12
	BYTE		N24     Bn2   v092
	BYTE	W24
	BYTE		N72     An2 
	BYTE	W60
// 043   ----------------------------------------
	BYTE	W12
	BYTE		N12     En2 
	BYTE	W12
	BYTE		        An2   v104
	BYTE	W12
	BYTE		        En2   v092
	BYTE	W12
	BYTE		        Bn2   v116
	BYTE	W12
	BYTE		        En2   v088
	BYTE	W12
	BYTE		        Cn3   v120
	BYTE	W12
	BYTE		        En2   v092
	BYTE	W12
// 044   ----------------------------------------
	BYTE		N36     Bn2   v116
	BYTE	W36
	BYTE		TIE     An2   v092
	BYTE	W60
// 045   ----------------------------------------
	BYTE	W60
	BYTE		EOT   
	BYTE		N12     Bn2   v096
	BYTE	W12
	BYTE		        Cn3   v108
	BYTE	W12
	BYTE		        Dn3   v100
	BYTE	W12
// 046   ----------------------------------------
TalesofSymphonia-FightingoftheSpirit-RayZa_1_046:
	BYTE		N36     En3   v116
	BYTE	W36
	BYTE		N84     An2   v088
	BYTE	W60
	BYTE	PEND
// 047   ----------------------------------------
	BYTE	W24
	BYTE		N24     Bn2   v112
	BYTE	W24
	BYTE		        Cn3   v108
	BYTE	W24
	BYTE		        Dn3   v112
	BYTE	W24
// 048   ----------------------------------------
	BYTE		N12     Cn3   v100
	BYTE	W12
	BYTE		N24     Bn2   v088
	BYTE	W24
	BYTE		        Gn2   v112
	BYTE	W24
	BYTE		        Gn2   v096
	BYTE	W24
	BYTE		N36     Gn2   v120
	BYTE	W12
// 049   ----------------------------------------
TalesofSymphonia-FightingoftheSpirit-RayZa_1_049:
	BYTE	W24
	BYTE		N24     Bn2   v112
	BYTE	W24
	BYTE		        Cn3   v116
	BYTE	W24
	BYTE		        Dn3   v112
	BYTE	W24
	BYTE	PEND
// 050   ----------------------------------------
	BYTE		N12     Cn3   v104
	BYTE	W12
	BYTE		N24     Bn2   v088
	BYTE	W24
	BYTE		N72     An2   v092
	BYTE	W60
// 051   ----------------------------------------
	BYTE	W12
	BYTE		N12     En3   v116
	BYTE	W12
	BYTE		        Dn3   v104
	BYTE	W12
	BYTE		        Bn2   v088
	BYTE	W12
	BYTE		        Cn3   v112
	BYTE	W12
	BYTE		        Bn2   v092
	BYTE	W12
	BYTE		        Gn2   v096
	BYTE	W12
	BYTE		        En2   v088
	BYTE	W12
// 052   ----------------------------------------
	BYTE		        Cn3   v127
	BYTE	W12
	BYTE		        Cn3   v104
	BYTE	W12
	BYTE		        Bn2 
	BYTE	W12
	BYTE		N05     Cn3   v096
	BYTE	W24
	BYTE		N24     Bn2   v084
	BYTE	W24
	BYTE		        Dn3   v100
	BYTE	W12
// 053   ----------------------------------------
	BYTE	W12
	BYTE		N12     Cn3   v092
	BYTE	W12
	BYTE		N24     Bn2   v096
	BYTE	W24
	BYTE		N48     Cn3   v116
	BYTE	W48
// 054   ----------------------------------------
	BYTE		N12     Cn3   v108
	BYTE	W12
	BYTE		        Cn3   v092
	BYTE	W12
	BYTE		        Bn2   v100
	BYTE	W12
	BYTE		N05     Cn3   v104
	BYTE	W24
	BYTE		N24     Bn2   v084
	BYTE	W24
	BYTE		        Dn3   v100
	BYTE	W12
// 055   ----------------------------------------
TalesofSymphonia-FightingoftheSpirit-RayZa_1_055:
	BYTE	W12
	BYTE		N12     Cn3   v092
	BYTE	W12
	BYTE		N24     Bn2   v100
	BYTE	W24
	BYTE		N48     Cn3   v116
	BYTE	W48
	BYTE	PEND
// 056   ----------------------------------------
	BYTE		N12     Dn3   v108
	BYTE	W12
	BYTE		        Dn3   v096
	BYTE	W12
	BYTE		        Cn3   v100
	BYTE	W12
	BYTE		N05     Dn3   v096
	BYTE	W24
	BYTE		N24     Cn3   v088
	BYTE	W24
	BYTE		        En3   v104
	BYTE	W12
// 057   ----------------------------------------
	BYTE	W12
	BYTE		N12     Dn3   v088
	BYTE	W12
	BYTE		N24     Cn3   v096
	BYTE	W24
	BYTE		N48     Dn3   v116
	BYTE	W48
// 058   ----------------------------------------
	BYTE		N12     Cn3   v104
	BYTE	W12
	BYTE		        Cn3   v096
	BYTE	W12
	BYTE		        Bn2   v100
	BYTE	W12
	BYTE		N05     Cn3   v104
	BYTE	W24
	BYTE		N24     Bn2   v084
	BYTE	W24
	BYTE		        Dn3   v100
	BYTE	W12
// 059   ----------------------------------------
TalesofSymphonia-FightingoftheSpirit-RayZa_1_059:
	BYTE	W12
	BYTE		N12     Cn3   v088
	BYTE	W12
	BYTE		N24     Bn2   v100
	BYTE	W24
	BYTE		N48     Cn3   v112
	BYTE	W48
	BYTE	PEND
// 060   ----------------------------------------
	BYTE		N12     Cn3   v108
	BYTE	W12
	BYTE		        Cn3   v088
	BYTE	W12
	BYTE		        Bn2   v104
	BYTE	W12
	BYTE		N05     Cn3   v100
	BYTE	W24
	BYTE		N24     Bn2   v088
	BYTE	W24
	BYTE		        Dn3   v100
	BYTE	W12
// 061   ----------------------------------------
TalesofSymphonia-FightingoftheSpirit-RayZa_1_061:
	BYTE	W12
	BYTE		N12     Cn3   v084
	BYTE	W12
	BYTE		N24     Bn2   v100
	BYTE	W24
	BYTE		N48     Cn3   v112
	BYTE	W48
	BYTE	PEND
// 062   ----------------------------------------
	BYTE		N12     Cn3   v108
	BYTE	W12
	BYTE		        Cn3   v096
	BYTE	W12
	BYTE		        Bn2   v100
	BYTE	W12
	BYTE		N05     Cn3   v096
	BYTE	W24
	BYTE		N24     Bn2   v088
	BYTE	W24
	BYTE		        Dn3   v096
	BYTE	W12
// 063   ----------------------------------------
	BYTE	PATT
	 POIN2	TalesofSymphonia-FightingoftheSpirit-RayZa_1_059
// 064   ----------------------------------------
	BYTE		N12     Dn3   v116
	BYTE	W12
	BYTE		        Dn3   v092
	BYTE	W12
	BYTE		        Cn3   v100
	BYTE	W12
	BYTE		N05     Dn3 
	BYTE	W24
	BYTE		N24     Cn3   v084
	BYTE	W24
	BYTE		        En3   v104
	BYTE	W12
// 065   ----------------------------------------
	BYTE	W12
	BYTE		N12     Dn3   v092
	BYTE	W12
	BYTE		N24     Cn3 
	BYTE	W24
	BYTE		N48     Dn3   v116
	BYTE	W48
// 066   ----------------------------------------
	BYTE		N12     Cn3   v100
	BYTE	W12
	BYTE		        Cn3   v092
	BYTE	W12
	BYTE		        Bn2   v100
	BYTE	W12
	BYTE		N05     Cn3 
	BYTE	W24
	BYTE		N24     Bn2   v084
	BYTE	W24
	BYTE		        Dn3   v100
	BYTE	W12
// 067   ----------------------------------------
	BYTE	PATT
	 POIN2	TalesofSymphonia-FightingoftheSpirit-RayZa_1_061
// 068   ----------------------------------------
	BYTE		N36     Cn3   v112
	BYTE	W36
	BYTE		        Bn2   v096
	BYTE	W36
	BYTE		N84     An2   v100
	BYTE	W24
// 069   ----------------------------------------
	BYTE	PATT
	 POIN2	TalesofSymphonia-FightingoftheSpirit-RayZa_1_013
// 070   ----------------------------------------
	BYTE		N36     En3   v116
	BYTE	W36
	BYTE		N84     An2   v084
	BYTE	W60
// 071   ----------------------------------------
	BYTE	PATT
	 POIN2	TalesofSymphonia-FightingoftheSpirit-RayZa_1_049
// 072   ----------------------------------------
	BYTE		N12     Cn3   v104
	BYTE	W12
	BYTE		N24     Bn2   v092
	BYTE	W24
	BYTE		        Gn2   v112
	BYTE	W24
	BYTE		        Gn2   v088
	BYTE	W24
	BYTE		N36     Gn2   v120
	BYTE	W12
// 073   ----------------------------------------
	BYTE	W24
	BYTE		N24     Bn2   v112
	BYTE	W24
	BYTE		        Cn3   v116
	BYTE	W24
	BYTE		        Dn3 
	BYTE	W24
// 074   ----------------------------------------
	BYTE		N12     Cn3   v104
	BYTE	W12
	BYTE		N24     Bn2   v092
	BYTE	W24
	BYTE		N60     An2   v088
	BYTE	W60
// 075   ----------------------------------------
	BYTE		N72     En2   v104
	BYTE	W72
	BYTE		N11     Cn2   v096
	BYTE	W24
// 076   ----------------------------------------
	BYTE		N36     Cn3   v127
	BYTE	W36
	BYTE		        Bn2   v096
	BYTE	W36
	BYTE		N84     An2 
	BYTE	W24
// 077   ----------------------------------------
	BYTE	W60
	BYTE		N12     Bn2 
	BYTE	W12
	BYTE		        Cn3   v112
	BYTE	W12
	BYTE		        Dn3   v100
	BYTE	W12
// 078   ----------------------------------------
	BYTE		N60     En3   v112
	BYTE	W60
	BYTE		N24     Dn3   v088
	BYTE	W24
	BYTE		N12     Cn3   v092
	BYTE	W12
// 079   ----------------------------------------
	BYTE		N36     Bn2   v108
	BYTE	W36
	BYTE		N60     An2   v088
	BYTE	W60
// 080   ----------------------------------------
	BYTE		N24     An2   v108
	BYTE	W24
	BYTE		N12     Bn2   v100
	BYTE	W12
	BYTE		N36     Cn3 
	BYTE	W36
	BYTE		N24     Dn3   v108
	BYTE	W24
// 081   ----------------------------------------
	BYTE		        En3   v120
	BYTE	W24
	BYTE		        Dn3   v096
	BYTE	W24
	BYTE		        Cn3   v100
	BYTE	W24
	BYTE		        Bn2   v096
	BYTE	W24
// 082   ----------------------------------------
	BYTE		N12     Cn3   v116
	BYTE	W12
	BYTE		N24     Bn2   v092
	BYTE	W24
	BYTE		TIE     An2 
	BYTE	W60
// 083   ----------------------------------------
	BYTE		N48     Gn2   v104
	BYTE	W96
	BYTE		EOT     An2 
// 084   ----------------------------------------
	BYTE	PATT
	 POIN2	TalesofSymphonia-FightingoftheSpirit-RayZa_1_020
// 085   ----------------------------------------
	BYTE		N48     Bn2   v104
	BYTE	W48
	BYTE		N18     Bn2   v108
	BYTE	W18
	BYTE		        Cn3   v104
	BYTE	W18
	BYTE		N12     Dn3   v096
	BYTE	W12
// 086   ----------------------------------------
	BYTE		N48     Cn3   v104
	BYTE	W48
	BYTE		        Bn2   v100
	BYTE	W48
// 087   ----------------------------------------
	BYTE		        An2   v104
	BYTE	W48
	BYTE		        Gn2 
	BYTE	W48
// 088   ----------------------------------------
	BYTE		N84     Dn3   v127
	BYTE	W84
	BYTE		N12     Cn3   v088
	BYTE	W12
// 089   ----------------------------------------
	BYTE		N24     Cn3   v108
	BYTE	W24
	BYTE		        Bn2   v104
	BYTE	W24
	BYTE		        Fn3   v127
	BYTE	W24
	BYTE		        En3   v104
	BYTE	W24
// 090   ----------------------------------------
	BYTE		N48     Dn3   v100
	BYTE	W48
	BYTE		N36     Cn3 
	BYTE	W36
	BYTE		N06     Bn2   v092
	BYTE	W06
	BYTE		        Cn3   v108
	BYTE	W06
// 091   ----------------------------------------
	BYTE		N48     Bn2 
	BYTE	W48
	BYTE		N24     An2   v104
	BYTE	W24
	BYTE		        Gn2   v100
	BYTE	W24
// 092   ----------------------------------------
	BYTE		N48     An2   v116
	BYTE	W48
	BYTE		N12     An2   v108
	BYTE	W12
	BYTE		        Bn2   v100
	BYTE	W12
	BYTE		        Cn3   v108
	BYTE	W12
	BYTE		N24     Dn3   v104
	BYTE	W12
// 093   ----------------------------------------
	BYTE	W12
	BYTE		N12     Dn3   v096
	BYTE	W12
	BYTE		N24     Cn3   v100
	BYTE	W24
	BYTE		        Bn2   v108
	BYTE	W24
	BYTE		        An2   v096
	BYTE	W24
// 094   ----------------------------------------
	BYTE		N48     An2   v108
	BYTE	W48
	BYTE		N12   
	BYTE	W12
	BYTE		        Bn2   v092
	BYTE	W12
	BYTE		        Cn3   v108
	BYTE	W12
	BYTE		N24     Dn3   v100
	BYTE	W12
// 095   ----------------------------------------
	BYTE	W12
	BYTE		N12     Dn3   v092
	BYTE	W12
	BYTE		N24     Cn3   v100
	BYTE	W24
	BYTE		        Bn2   v108
	BYTE	W24
	BYTE		        An2   v104
	BYTE	W24
// 096   ----------------------------------------
	BYTE		N48     An2   v108
	BYTE	W48
	BYTE		N12   
	BYTE	W12
	BYTE		        Bn2   v104
	BYTE	W12
	BYTE		        Cn3 
	BYTE	W12
	BYTE		N24     Gn3   v112
	BYTE	W12
// 097   ----------------------------------------
	BYTE	W12
	BYTE		N12     Gn3   v092
	BYTE	W12
	BYTE		N24     Fn3   v096
	BYTE	W24
	BYTE		        En3   v108
	BYTE	W24
	BYTE		        Dn3   v096
	BYTE	W24
// 098   ----------------------------------------
	BYTE		N48     Bn2   v104
	BYTE	W48
	BYTE		N12   
	BYTE	W12
	BYTE		        Cn3   v096
	BYTE	W12
	BYTE		        Dn3   v108
	BYTE	W12
	BYTE		N24     En3   v104
	BYTE	W12
// 099   ----------------------------------------
	BYTE	W12
	BYTE		N12     Dn3   v092
	BYTE	W12
	BYTE		        Cn3   v096
	BYTE	W12
	BYTE		N24     Bn2   v084
	BYTE	W24
	BYTE		N12     An2   v088
	BYTE	W12
	BYTE		N24     Bn2   v108
	BYTE	W24
// 100   ----------------------------------------
	BYTE		N36   
	BYTE	W36
	BYTE		TIE     An2   v092
	BYTE	W60
// 101   ----------------------------------------
	BYTE	W60
	BYTE		EOT   
	BYTE		N12     Bn2   v096
	BYTE	W12
	BYTE		        Cn3   v108
	BYTE	W12
	BYTE		        Dn3   v104
	BYTE	W12
// 102   ----------------------------------------
	BYTE		N36     En3   v112
	BYTE	W36
	BYTE		N84     An2   v092
	BYTE	W60
// 103   ----------------------------------------
	BYTE	W24
	BYTE		N24     Bn2   v112
	BYTE	W24
	BYTE		        Cn3 
	BYTE	W24
	BYTE		        Dn3   v116
	BYTE	W24
// 104   ----------------------------------------
	BYTE		N12     Cn3   v104
	BYTE	W12
	BYTE		N24     Bn2   v088
	BYTE	W24
	BYTE		        Gn2   v116
	BYTE	W24
	BYTE		        Gn2   v092
	BYTE	W24
	BYTE		N36     Gn2   v116
	BYTE	W12
// 105   ----------------------------------------
	BYTE	W24
	BYTE		N24     Bn2   v112
	BYTE	W24
	BYTE		        Cn3   v120
	BYTE	W24
	BYTE		        Dn3   v112
	BYTE	W24
// 106   ----------------------------------------
	BYTE		N12     Cn3   v100
	BYTE	W12
	BYTE		N24     Bn2   v092
	BYTE	W24
	BYTE		N72     An2 
	BYTE	W60
// 107   ----------------------------------------
	BYTE	W12
	BYTE		N12     En2   v088
	BYTE	W12
	BYTE		        An2   v108
	BYTE	W12
	BYTE		        En2   v088
	BYTE	W12
	BYTE		        Bn2   v116
	BYTE	W12
	BYTE		        En2   v088
	BYTE	W12
	BYTE		        Cn3   v124
	BYTE	W12
	BYTE		        En2   v084
	BYTE	W12
// 108   ----------------------------------------
	BYTE		N36     Bn2   v120
	BYTE	W36
	BYTE		TIE     An2   v096
	BYTE	W60
// 109   ----------------------------------------
	BYTE	W60
	BYTE		EOT   
	BYTE		N12     Bn2   v100
	BYTE	W12
	BYTE		        Cn3   v104
	BYTE	W12
	BYTE		        Dn3   v096
	BYTE	W12
// 110   ----------------------------------------
	BYTE	PATT
	 POIN2	TalesofSymphonia-FightingoftheSpirit-RayZa_1_046
// 111   ----------------------------------------
	BYTE	PATT
	 POIN2	TalesofSymphonia-FightingoftheSpirit-RayZa_1_007
// 112   ----------------------------------------
	BYTE		N12     Cn3   v100
	BYTE	W12
	BYTE		N24     Bn2   v088
	BYTE	W24
	BYTE		        Gn2   v112
	BYTE	W24
	BYTE		        Gn2   v092
	BYTE	W24
	BYTE		N36     Gn2   v120
	BYTE	W12
// 113   ----------------------------------------
	BYTE	PATT
	 POIN2	TalesofSymphonia-FightingoftheSpirit-RayZa_1_041
// 114   ----------------------------------------
	BYTE		N12     Cn3   v100
	BYTE	W12
	BYTE		N24     Bn2   v088
	BYTE	W24
	BYTE		N72     An2   v096
	BYTE	W60
// 115   ----------------------------------------
	BYTE	W12
	BYTE		N12     En3   v108
	BYTE	W12
	BYTE		        Dn3   v096
	BYTE	W12
	BYTE		        Bn2   v088
	BYTE	W12
	BYTE		        Cn3   v116
	BYTE	W12
	BYTE		        Bn2   v092
	BYTE	W12
	BYTE		        Gn2   v096
	BYTE	W12
	BYTE		        En2   v092
	BYTE	W12
// 116   ----------------------------------------
	BYTE		        Cn3   v127
	BYTE	W12
	BYTE		        Cn3   v096
	BYTE	W12
	BYTE		        Bn2   v100
	BYTE	W12
	BYTE		N05     Cn3 
	BYTE	W24
	BYTE		N24     Bn2   v084
	BYTE	W24
	BYTE		        Dn3   v104
	BYTE	W12
// 117   ----------------------------------------
	BYTE	PATT
	 POIN2	TalesofSymphonia-FightingoftheSpirit-RayZa_1_059
// 118   ----------------------------------------
	BYTE		N12     Cn3   v112
	BYTE	W12
	BYTE		        Cn3   v092
	BYTE	W12
	BYTE		        Bn2   v104
	BYTE	W12
	BYTE		N05     Cn3   v096
	BYTE	W24
	BYTE		N24     Bn2   v088
	BYTE	W24
	BYTE		        Dn3   v104
	BYTE	W12
// 119   ----------------------------------------
	BYTE	W12
	BYTE		N12     Cn3   v092
	BYTE	W12
	BYTE		N24     Bn2   v100
	BYTE	W24
	BYTE		N48     Cn3   v120
	BYTE	W48
// 120   ----------------------------------------
	BYTE		N12     Dn3   v116
	BYTE	W12
	BYTE		        Dn3   v092
	BYTE	W12
	BYTE		        Cn3   v100
	BYTE	W12
	BYTE		N05     Dn3   v104
	BYTE	W24
	BYTE		N24     Cn3   v084
	BYTE	W24
	BYTE		        En3   v104
	BYTE	W12
// 121   ----------------------------------------
	BYTE	W12
	BYTE		N12     Dn3   v088
	BYTE	W12
	BYTE		N24     Cn3   v096
	BYTE	W24
	BYTE		N48     Dn3   v112
	BYTE	W48
// 122   ----------------------------------------
	BYTE		N12     Cn3   v104
	BYTE	W12
	BYTE		        Cn3   v092
	BYTE	W12
	BYTE		        Bn2   v100
	BYTE	W12
	BYTE		N05     Cn3 
	BYTE	W24
	BYTE		N24     Bn2   v084
	BYTE	W24
	BYTE		        Dn3   v100
	BYTE	W12
// 123   ----------------------------------------
	BYTE	W12
	BYTE		N12     Cn3   v088
	BYTE	W12
	BYTE		N24     Bn2   v100
	BYTE	W24
	BYTE		N48     Cn3   v108
	BYTE	W48
// 124   ----------------------------------------
	BYTE		N12     Cn3   v112
	BYTE	W12
	BYTE		        Cn3   v092
	BYTE	W12
	BYTE		        Bn2   v100
	BYTE	W12
	BYTE		N05     Cn3   v104
	BYTE	W24
	BYTE		N24     Bn2   v084
	BYTE	W24
	BYTE		        Dn3   v108
	BYTE	W12
// 125   ----------------------------------------
	BYTE	W12
	BYTE		N12     Cn3   v088
	BYTE	W12
	BYTE		N24     Bn2   v096
	BYTE	W24
	BYTE		N48     Cn3   v116
	BYTE	W48
// 126   ----------------------------------------
	BYTE		N12     Cn3   v104
	BYTE	W12
	BYTE		        Cn3   v096
	BYTE	W12
	BYTE		        Bn2 
	BYTE	W12
	BYTE		N05     Cn3 
	BYTE	W24
	BYTE		N24     Bn2   v084
	BYTE	W24
	BYTE		        Dn3   v100
	BYTE	W12
// 127   ----------------------------------------
	BYTE	PATT
	 POIN2	TalesofSymphonia-FightingoftheSpirit-RayZa_1_055
// 128   ----------------------------------------
	BYTE		N12     Dn3   v120
	BYTE	W12
	BYTE		        Dn3   v092
	BYTE	W12
	BYTE		        Cn3   v096
	BYTE	W12
	BYTE		N05     Dn3   v100
	BYTE	W24
	BYTE		N24     Cn3   v088
	BYTE	W24
	BYTE		        En3   v100
	BYTE	W12
// 129   ----------------------------------------
	BYTE	W12
	BYTE		N12     Dn3   v084
	BYTE	W12
	BYTE		N24     Cn3   v100
	BYTE	W24
	BYTE		N48     Dn3   v120
	BYTE	W48
// 130   ----------------------------------------
	BYTE		N12     Cn3   v104
	BYTE	W12
	BYTE		        Cn3   v096
	BYTE	W12
	BYTE		        Bn2   v100
	BYTE	W12
	BYTE		N05     Cn3 
	BYTE	W24
	BYTE		N24     Bn2   v084
	BYTE	W24
	BYTE		        Dn3   v100
	BYTE	W12
// 131   ----------------------------------------
	BYTE	PATT
	 POIN2	TalesofSymphonia-FightingoftheSpirit-RayZa_1_061
// 132   ----------------------------------------
	BYTE		N36     Cn3   v112
	BYTE	W36
	BYTE		        Bn2   v092
	BYTE	W36
	BYTE		N84     An2   v104
	BYTE	W24
// 133   ----------------------------------------
	BYTE	PATT
	 POIN2	TalesofSymphonia-FightingoftheSpirit-RayZa_1_013
// 134   ----------------------------------------
	BYTE	PATT
	 POIN2	TalesofSymphonia-FightingoftheSpirit-RayZa_1_046
// 135   ----------------------------------------
	BYTE	W24
	BYTE		N24     Bn2   v104
	BYTE	W24
	BYTE		        Cn3   v116
	BYTE	W24
	BYTE		        Dn3   v112
	BYTE	W24
// 136   ----------------------------------------
	BYTE		N12     Cn3   v104
	BYTE	W12
	BYTE		N24     Bn2   v088
	BYTE	W24
	BYTE		        Gn2   v116
	BYTE	W24
	BYTE		        Gn2   v096
	BYTE	W24
	BYTE		N36     Gn2   v116
	BYTE	W12
// 137   ----------------------------------------
	BYTE	W24
	BYTE		N24     Bn2   v108
	BYTE	W24
	BYTE		        Cn3   v116
	BYTE	W24
	BYTE		        Dn3 
	BYTE	W24
// 138   ----------------------------------------
	BYTE		N12     Cn3   v104
	BYTE	W12
	BYTE		N24     Bn2   v092
	BYTE	W24
	BYTE		N60     An2 
	BYTE	W60
// 139   ----------------------------------------
	BYTE		N72     En2   v104
	BYTE	W72
	BYTE		N11     Cn2   v100
	BYTE	W24
// 140   ----------------------------------------
	BYTE	PATT
	 POIN2	TalesofSymphonia-FightingoftheSpirit-RayZa_1_012
// 141   ----------------------------------------
	BYTE	W60
	BYTE		N12     Bn2   v100
	BYTE	W12
	BYTE		        Cn3   v108
	BYTE	W12
	BYTE		        Dn3   v100
	BYTE	W12
// 142   ----------------------------------------
	BYTE		N60     En3   v112
	BYTE	W60
	BYTE		N24     Dn3   v084
	BYTE	W24
	BYTE		N12     Cn3 
	BYTE	W12
// 143   ----------------------------------------
	BYTE	PATT
	 POIN2	TalesofSymphonia-FightingoftheSpirit-RayZa_1_015
// 144   ----------------------------------------
	BYTE		N24     An2   v104
	BYTE	W24
	BYTE		N12     Bn2   v108
	BYTE	W12
	BYTE		N36     Cn3   v100
	BYTE	W36
	BYTE		N24     Dn3   v116
	BYTE	W24
// 145   ----------------------------------------
	BYTE		        En3 
	BYTE	W24
	BYTE		        Dn3   v096
	BYTE	W24
	BYTE		        Cn3   v100
	BYTE	W24
	BYTE		        Bn2   v096
	BYTE	W24
// 146   ----------------------------------------
	BYTE		N12     Cn3   v112
	BYTE	W12
	BYTE		N24     Bn2   v092
	BYTE	W24
	BYTE		TIE     An2 
	BYTE	W60
// 147   ----------------------------------------
	BYTE		N48     Gn2   v104
	BYTE	W96
	BYTE		EOT     An2 
// 148   ----------------------------------------
	BYTE	FINE

//**************** Track 2 (Midi-Chn.2) ****************//

TalesofSymphonia-FightingoftheSpirit-RayZa_2:
	BYTE	KEYSH   TalesofSymphonia-FightingoftheSpirit-RayZa_key+0
// 000   ----------------------------------------
	BYTE		VOICE   52
	BYTE		PAN     c_v+0
	BYTE		VOL     106*TalesofSymphonia-FightingoftheSpirit-RayZa_mvl/mxv
	BYTE		N96     En3   v084
	BYTE	W96
// 001   ----------------------------------------
	BYTE		        Fs3   v072
	BYTE	W96
// 002   ----------------------------------------
	BYTE		        En3   v100
	BYTE		N96     An3 
	BYTE	W96
// 003   ----------------------------------------
	BYTE		        Fs3   v072
	BYTE		N96     Bn3 
	BYTE	W96
// 004   ----------------------------------------
	BYTE		N36     En4 
	BYTE	W36
	BYTE		        Dn4   v060
	BYTE	W36
	BYTE		TIE     Cn4 
	BYTE	W24
// 005   ----------------------------------------
	BYTE	W96
// 006   ----------------------------------------
	BYTE	W96
// 007   ----------------------------------------
	BYTE	W96
	BYTE		EOT   
// 008   ----------------------------------------
	BYTE		N48     En4   v080
	BYTE	W48
	BYTE		        Dn4   v064
	BYTE	W48
// 009   ----------------------------------------
TalesofSymphonia-FightingoftheSpirit-RayZa_2_009:
	BYTE		N48     Bn3   v064
	BYTE	W48
	BYTE		        Gn3   v060
	BYTE	W48
	BYTE	PEND
// 010   ----------------------------------------
	BYTE		TIE     Cn4   v076
	BYTE	W96
// 011   ----------------------------------------
	BYTE	W96
	BYTE		EOT   
// 012   ----------------------------------------
TalesofSymphonia-FightingoftheSpirit-RayZa_2_012:
	BYTE		N36     En4   v076
	BYTE	W36
	BYTE		        Dn4   v056
	BYTE	W36
	BYTE		TIE     Cn4   v060
	BYTE	W24
	BYTE	PEND
// 013   ----------------------------------------
	BYTE	W96
// 014   ----------------------------------------
	BYTE	W96
// 015   ----------------------------------------
	BYTE	W96
	BYTE		EOT   
// 016   ----------------------------------------
TalesofSymphonia-FightingoftheSpirit-RayZa_2_016:
	BYTE		N48     En4   v080
	BYTE	W48
	BYTE		        Dn4   v068
	BYTE	W48
	BYTE	PEND
// 017   ----------------------------------------
	BYTE	PATT
	 POIN2	TalesofSymphonia-FightingoftheSpirit-RayZa_2_009
// 018   ----------------------------------------
	BYTE		TIE     Cn4   v072
	BYTE	W96
// 019   ----------------------------------------
	BYTE	W96
	BYTE		EOT   
// 020   ----------------------------------------
	BYTE	W96
// 021   ----------------------------------------
	BYTE	W96
// 022   ----------------------------------------
	BYTE	W96
// 023   ----------------------------------------
	BYTE	W96
// 024   ----------------------------------------
	BYTE	W96
// 025   ----------------------------------------
	BYTE	W96
// 026   ----------------------------------------
	BYTE	W96
// 027   ----------------------------------------
	BYTE	W96
// 028   ----------------------------------------
	BYTE	W96
// 029   ----------------------------------------
	BYTE	W96
// 030   ----------------------------------------
	BYTE	W96
// 031   ----------------------------------------
	BYTE	W96
// 032   ----------------------------------------
	BYTE	W96
// 033   ----------------------------------------
	BYTE	W96
// 034   ----------------------------------------
	BYTE	W96
// 035   ----------------------------------------
	BYTE	W96
// 036   ----------------------------------------
	BYTE		N36     En4   v064
	BYTE	W36
	BYTE		        Dn4   v052
	BYTE	W36
	BYTE		TIE     Cn4   v060
	BYTE	W24
// 037   ----------------------------------------
	BYTE	W96
// 038   ----------------------------------------
	BYTE	W96
// 039   ----------------------------------------
	BYTE	W96
	BYTE		EOT   
// 040   ----------------------------------------
TalesofSymphonia-FightingoftheSpirit-RayZa_2_040:
	BYTE		N48     En4   v076
	BYTE	W48
	BYTE		        Dn4   v064
	BYTE	W48
	BYTE	PEND
// 041   ----------------------------------------
TalesofSymphonia-FightingoftheSpirit-RayZa_2_041:
	BYTE		N48     Bn3   v060
	BYTE	W48
	BYTE		        Gn3 
	BYTE	W48
	BYTE	PEND
// 042   ----------------------------------------
	BYTE		TIE     Cn4   v072
	BYTE	W96
// 043   ----------------------------------------
	BYTE	W96
	BYTE		EOT   
// 044   ----------------------------------------
	BYTE		N36     En4   v068
	BYTE	W36
	BYTE		        Dn4   v060
	BYTE	W36
	BYTE		TIE     Cn4   v064
	BYTE	W24
// 045   ----------------------------------------
	BYTE	W96
// 046   ----------------------------------------
	BYTE	W96
// 047   ----------------------------------------
	BYTE	W96
	BYTE		EOT   
// 048   ----------------------------------------
	BYTE		N48     En4   v072
	BYTE	W48
	BYTE		        Dn4   v068
	BYTE	W48
// 049   ----------------------------------------
	BYTE		        An3   v060
	BYTE	W48
	BYTE		        Bn3   v072
	BYTE	W48
// 050   ----------------------------------------
	BYTE		TIE     Cn4   v076
	BYTE	W96
// 051   ----------------------------------------
	BYTE	W96
	BYTE		EOT   
// 052   ----------------------------------------
	BYTE		N96     An2   v060
	BYTE	W96
// 053   ----------------------------------------
	BYTE		N48     En3   v080
	BYTE	W48
	BYTE		N24     Dn3   v064
	BYTE	W24
	BYTE		        En3   v068
	BYTE	W24
// 054   ----------------------------------------
	BYTE		N96     Fn3 
	BYTE	W96
// 055   ----------------------------------------
	BYTE		        Cn3 
	BYTE	W96
// 056   ----------------------------------------
	BYTE		        An2   v064
	BYTE	W96
// 057   ----------------------------------------
	BYTE		        Gn3   v080
	BYTE	W96
// 058   ----------------------------------------
	BYTE		        En3   v060
	BYTE	W96
// 059   ----------------------------------------
	BYTE		        An3   v080
	BYTE	W96
// 060   ----------------------------------------
	BYTE		        An2   v060
	BYTE	W96
// 061   ----------------------------------------
	BYTE		N48     En3   v080
	BYTE	W48
	BYTE		N24     Dn3   v072
	BYTE	W24
	BYTE		        En3   v068
	BYTE	W24
// 062   ----------------------------------------
	BYTE		N96     Fn3   v072
	BYTE	W96
// 063   ----------------------------------------
	BYTE		        Cn3   v056
	BYTE	W96
// 064   ----------------------------------------
	BYTE		        Cn4   v084
	BYTE	W96
// 065   ----------------------------------------
	BYTE		        Gn3   v056
	BYTE	W96
// 066   ----------------------------------------
	BYTE		TIE     An3   v076
	BYTE	W96
// 067   ----------------------------------------
	BYTE	W96
	BYTE		EOT   
// 068   ----------------------------------------
	BYTE		N36     En4   v080
	BYTE	W36
	BYTE		        Dn4   v060
	BYTE	W36
	BYTE		TIE     Cn4 
	BYTE	W24
// 069   ----------------------------------------
	BYTE	W96
// 070   ----------------------------------------
	BYTE	W96
// 071   ----------------------------------------
	BYTE	W96
	BYTE		EOT   
// 072   ----------------------------------------
TalesofSymphonia-FightingoftheSpirit-RayZa_2_072:
	BYTE		N48     En4   v072
	BYTE	W48
	BYTE		        Dn4   v064
	BYTE	W48
	BYTE	PEND
// 073   ----------------------------------------
	BYTE	PATT
	 POIN2	TalesofSymphonia-FightingoftheSpirit-RayZa_2_009
// 074   ----------------------------------------
	BYTE		TIE     Cn4   v072
	BYTE	W96
// 075   ----------------------------------------
	BYTE	W96
	BYTE		EOT   
// 076   ----------------------------------------
	BYTE		N36     En4 
	BYTE	W36
	BYTE		        Dn4   v060
	BYTE	W36
	BYTE		TIE     Cn4   v064
	BYTE	W24
// 077   ----------------------------------------
	BYTE	W96
// 078   ----------------------------------------
	BYTE	W96
// 079   ----------------------------------------
	BYTE	W96
	BYTE		EOT   
// 080   ----------------------------------------
	BYTE	PATT
	 POIN2	TalesofSymphonia-FightingoftheSpirit-RayZa_2_072
// 081   ----------------------------------------
	BYTE	PATT
	 POIN2	TalesofSymphonia-FightingoftheSpirit-RayZa_2_041
// 082   ----------------------------------------
	BYTE		TIE     Cn4   v076
	BYTE	W96
// 083   ----------------------------------------
	BYTE	W96
	BYTE		EOT   
// 084   ----------------------------------------
	BYTE	W96
// 085   ----------------------------------------
	BYTE	W96
// 086   ----------------------------------------
	BYTE	W96
// 087   ----------------------------------------
	BYTE	W96
// 088   ----------------------------------------
	BYTE	W96
// 089   ----------------------------------------
	BYTE	W96
// 090   ----------------------------------------
	BYTE	W96
// 091   ----------------------------------------
	BYTE	W96
// 092   ----------------------------------------
	BYTE	W96
// 093   ----------------------------------------
	BYTE	W96
// 094   ----------------------------------------
	BYTE	W96
// 095   ----------------------------------------
	BYTE	W96
// 096   ----------------------------------------
	BYTE	W96
// 097   ----------------------------------------
	BYTE	W96
// 098   ----------------------------------------
	BYTE	W96
// 099   ----------------------------------------
	BYTE	W96
// 100   ----------------------------------------
	BYTE		N36     En4   v060
	BYTE	W36
	BYTE		        Dn4   v052
	BYTE	W36
	BYTE		TIE     Cn4   v060
	BYTE	W24
// 101   ----------------------------------------
	BYTE	W96
// 102   ----------------------------------------
	BYTE	W96
// 103   ----------------------------------------
	BYTE	W96
	BYTE		EOT   
// 104   ----------------------------------------
	BYTE	PATT
	 POIN2	TalesofSymphonia-FightingoftheSpirit-RayZa_2_072
// 105   ----------------------------------------
	BYTE		N48     Bn3   v060
	BYTE	W48
	BYTE		        Gn3   v056
	BYTE	W48
// 106   ----------------------------------------
	BYTE		TIE     Cn4   v080
	BYTE	W96
// 107   ----------------------------------------
	BYTE	W96
	BYTE		EOT   
// 108   ----------------------------------------
	BYTE	PATT
	 POIN2	TalesofSymphonia-FightingoftheSpirit-RayZa_2_012
// 109   ----------------------------------------
	BYTE	W96
// 110   ----------------------------------------
	BYTE	W96
// 111   ----------------------------------------
	BYTE	W96
	BYTE		EOT     Cn4 
// 112   ----------------------------------------
	BYTE	PATT
	 POIN2	TalesofSymphonia-FightingoftheSpirit-RayZa_2_016
// 113   ----------------------------------------
	BYTE		N48     An3   v056
	BYTE	W48
	BYTE		        Bn3   v072
	BYTE	W48
// 114   ----------------------------------------
	BYTE		TIE     Cn4   v076
	BYTE	W96
// 115   ----------------------------------------
	BYTE	W96
	BYTE		EOT   
// 116   ----------------------------------------
	BYTE		N96     An2   v060
	BYTE	W96
// 117   ----------------------------------------
	BYTE		N48     En3   v076
	BYTE	W48
	BYTE		N24     Dn3   v068
	BYTE	W24
	BYTE		        En3 
	BYTE	W24
// 118   ----------------------------------------
	BYTE		N96     Fn3   v072
	BYTE	W96
// 119   ----------------------------------------
	BYTE		        Cn3   v060
	BYTE	W96
// 120   ----------------------------------------
	BYTE		        An2   v064
	BYTE	W96
// 121   ----------------------------------------
	BYTE		        Gn3   v088
	BYTE	W96
// 122   ----------------------------------------
	BYTE		        En3   v072
	BYTE	W96
// 123   ----------------------------------------
	BYTE		        An3   v076
	BYTE	W96
// 124   ----------------------------------------
	BYTE		        An2   v064
	BYTE	W96
// 125   ----------------------------------------
	BYTE		N48     En3   v080
	BYTE	W48
	BYTE		N24     Dn3   v064
	BYTE	W24
	BYTE		        En3   v072
	BYTE	W24
// 126   ----------------------------------------
	BYTE		N96     Fn3 
	BYTE	W96
// 127   ----------------------------------------
	BYTE		        Cn3   v060
	BYTE	W96
// 128   ----------------------------------------
	BYTE		        Cn4   v084
	BYTE	W96
// 129   ----------------------------------------
	BYTE		        Gn3   v072
	BYTE	W96
// 130   ----------------------------------------
	BYTE		TIE     An3   v076
	BYTE	W96
// 131   ----------------------------------------
	BYTE	W96
	BYTE		EOT   
// 132   ----------------------------------------
	BYTE		N36     En4 
	BYTE	W36
	BYTE		        Dn4   v052
	BYTE	W36
	BYTE		TIE     Cn4   v060
	BYTE	W24
// 133   ----------------------------------------
	BYTE	W96
// 134   ----------------------------------------
	BYTE	W96
// 135   ----------------------------------------
	BYTE	W96
	BYTE		EOT   
// 136   ----------------------------------------
	BYTE	PATT
	 POIN2	TalesofSymphonia-FightingoftheSpirit-RayZa_2_040
// 137   ----------------------------------------
	BYTE	PATT
	 POIN2	TalesofSymphonia-FightingoftheSpirit-RayZa_2_041
// 138   ----------------------------------------
	BYTE		TIE     Cn4   v076
	BYTE	W96
// 139   ----------------------------------------
	BYTE	W96
	BYTE		EOT   
// 140   ----------------------------------------
	BYTE		N36     En4 
	BYTE	W36
	BYTE		        Dn4   v052
	BYTE	W36
	BYTE		TIE     Cn4   v064
	BYTE	W24
// 141   ----------------------------------------
	BYTE	W96
// 142   ----------------------------------------
	BYTE	W96
// 143   ----------------------------------------
	BYTE	W96
	BYTE		EOT   
// 144   ----------------------------------------
	BYTE		N48     En4   v076
	BYTE	W48
	BYTE		        Dn4   v068
	BYTE	W48
// 145   ----------------------------------------
	BYTE		        Bn3   v064
	BYTE	W48
	BYTE		        Gn3   v056
	BYTE	W48
// 146   ----------------------------------------
	BYTE		TIE     Cn4   v076
	BYTE	W96
// 147   ----------------------------------------
	BYTE	W96
	BYTE		EOT   
// 148   ----------------------------------------
	BYTE	FINE

//**************** Track 3 (Midi-Chn.3) ****************//

TalesofSymphonia-FightingoftheSpirit-RayZa_3:
	BYTE	KEYSH   TalesofSymphonia-FightingoftheSpirit-RayZa_key+0
// 000   ----------------------------------------
	BYTE		VOICE   48
	BYTE		PAN     c_v-32
	BYTE		VOL     108*TalesofSymphonia-FightingoftheSpirit-RayZa_mvl/mxv
	BYTE	W96
// 001   ----------------------------------------
	BYTE	W96
// 002   ----------------------------------------
	BYTE	W96
// 003   ----------------------------------------
	BYTE	W96
// 004   ----------------------------------------
	BYTE		N36     En4   v084
	BYTE	W36
	BYTE		        Dn4   v072
	BYTE	W36
	BYTE		TIE     Cn4   v080
	BYTE	W24
// 005   ----------------------------------------
	BYTE	W84
	BYTE		EOT   
	BYTE		N12     An3   v076
	BYTE	W12
// 006   ----------------------------------------
	BYTE		TIE     Fn3   v080
	BYTE	W96
// 007   ----------------------------------------
	BYTE	W24
	BYTE		EOT   
	BYTE		N24     Gn3   v096
	BYTE	W24
	BYTE		        An3   v100
	BYTE	W24
	BYTE		        Bn3   v096
	BYTE	W24
// 008   ----------------------------------------
TalesofSymphonia-FightingoftheSpirit-RayZa_3_008:
	BYTE		N48     En4   v108
	BYTE	W48
	BYTE		        Dn4   v084
	BYTE	W48
	BYTE	PEND
// 009   ----------------------------------------
	BYTE		        Bn3   v088
	BYTE	W48
	BYTE		        Gn3   v076
	BYTE	W48
// 010   ----------------------------------------
	BYTE		N96     An3   v096
	BYTE	W96
// 011   ----------------------------------------
	BYTE	W12
	BYTE		N12     An3   v076
	BYTE	W12
	BYTE		        Cn4   v096
	BYTE	W12
	BYTE		        An3   v072
	BYTE	W12
	BYTE		        En4   v108
	BYTE	W12
	BYTE		        Cn4   v072
	BYTE	W12
	BYTE		        An3   v076
	BYTE	W12
	BYTE		        En3   v068
	BYTE	W12
// 012   ----------------------------------------
	BYTE		N36     En4   v120
	BYTE	W36
	BYTE		        Dn4   v080
	BYTE	W36
	BYTE		TIE     Cn4   v084
	BYTE	W24
// 013   ----------------------------------------
	BYTE	W84
	BYTE		EOT   
	BYTE		N12     An3   v072
	BYTE	W12
// 014   ----------------------------------------
TalesofSymphonia-FightingoftheSpirit-RayZa_3_014:
	BYTE		N48     Fn3   v080
	BYTE	W48
	BYTE		        An3   v104
	BYTE	W48
	BYTE	PEND
// 015   ----------------------------------------
TalesofSymphonia-FightingoftheSpirit-RayZa_3_015:
	BYTE		N48     Cn4   v104
	BYTE	W48
	BYTE		        Fn4 
	BYTE	W48
	BYTE	PEND
// 016   ----------------------------------------
TalesofSymphonia-FightingoftheSpirit-RayZa_3_016:
	BYTE		N48     En4   v092
	BYTE	W48
	BYTE		        Dn4   v088
	BYTE	W48
	BYTE	PEND
// 017   ----------------------------------------
TalesofSymphonia-FightingoftheSpirit-RayZa_3_017:
	BYTE		N48     Bn3   v088
	BYTE	W48
	BYTE		        Gn3   v080
	BYTE	W48
	BYTE	PEND
// 018   ----------------------------------------
	BYTE		N96     An3   v096
	BYTE	W96
// 019   ----------------------------------------
	BYTE	W12
	BYTE		N12     An3   v072
	BYTE	W12
	BYTE		        Cn4   v100
	BYTE	W12
	BYTE		        An3   v072
	BYTE	W12
	BYTE		        En4   v112
	BYTE	W12
	BYTE		        Cn4   v076
	BYTE	W12
	BYTE		        An3   v080
	BYTE	W12
	BYTE		        En3   v068
	BYTE	W12
// 020   ----------------------------------------
	BYTE		TIE     Fn3   v076
	BYTE	W96
// 021   ----------------------------------------
	BYTE	W60
	BYTE		EOT   
	BYTE		N18     Gn3 
	BYTE	W18
	BYTE		        An3   v080
	BYTE	W18
// 022   ----------------------------------------
	BYTE		N96     Gn3   v072
	BYTE	W96
// 023   ----------------------------------------
	BYTE		N48     An3   v080
	BYTE	W48
	BYTE		        Bn3   v084
	BYTE	W48
// 024   ----------------------------------------
	BYTE		N96     An3   v076
	BYTE	W96
// 025   ----------------------------------------
	BYTE		N60     Fn3   v068
	BYTE	W60
	BYTE		N18     Gn3   v072
	BYTE	W18
	BYTE		        An3   v080
	BYTE	W18
// 026   ----------------------------------------
	BYTE		N72     Gn3   v072
	BYTE	W72
	BYTE		N24     Cn4   v084
	BYTE	W24
// 027   ----------------------------------------
	BYTE		N48     Dn4 
	BYTE	W48
	BYTE		N24     Cn4   v068
	BYTE	W24
	BYTE		        Bn3   v072
	BYTE	W24
// 028   ----------------------------------------
	BYTE		N48     Fn3   v068
	BYTE	W48
	BYTE		N12     Fn3   v076
	BYTE	W12
	BYTE		        Gn3   v068
	BYTE	W12
	BYTE		        An3   v076
	BYTE	W12
	BYTE		N24     Bn3   v072
	BYTE	W12
// 029   ----------------------------------------
	BYTE	W12
	BYTE		N12     Bn3   v068
	BYTE	W12
	BYTE		N24     An3   v072
	BYTE	W24
	BYTE		        Gn3 
	BYTE	W24
	BYTE		        Fn3   v068
	BYTE	W24
// 030   ----------------------------------------
	BYTE		N48     Fn3   v080
	BYTE	W48
	BYTE		N12   
	BYTE	W12
	BYTE		        Gn3   v072
	BYTE	W12
	BYTE		        An3   v080
	BYTE	W12
	BYTE		N24     Bn3   v076
	BYTE	W12
// 031   ----------------------------------------
	BYTE	W12
	BYTE		N12     Bn3   v068
	BYTE	W12
	BYTE		N24     An3   v072
	BYTE	W24
	BYTE		        Gn3   v076
	BYTE	W24
	BYTE		        Fn3   v072
	BYTE	W24
// 032   ----------------------------------------
	BYTE		N48     Fn3   v080
	BYTE	W48
	BYTE		N12     Fn3   v076
	BYTE	W12
	BYTE		        Gn3 
	BYTE	W12
	BYTE		        An3   v084
	BYTE	W12
	BYTE		N24     En4   v080
	BYTE	W12
// 033   ----------------------------------------
	BYTE	W12
	BYTE		N12     En4   v072
	BYTE	W12
	BYTE		N24     Dn4   v068
	BYTE	W24
	BYTE		        Cn4   v072
	BYTE	W24
	BYTE		        Bn3 
	BYTE	W24
// 034   ----------------------------------------
	BYTE		N96     Bn3   v076
	BYTE	W96
// 035   ----------------------------------------
	BYTE		N24     Bn4   v100
	BYTE	W24
	BYTE		        Gn4   v072
	BYTE	W24
	BYTE		        En4 
	BYTE	W24
	BYTE		        Bn4   v092
	BYTE	W24
// 036   ----------------------------------------
	BYTE		N36     En4   v080
	BYTE	W36
	BYTE		        Dn4   v072
	BYTE	W36
	BYTE		TIE     Cn4   v080
	BYTE	W24
// 037   ----------------------------------------
	BYTE	W84
	BYTE		EOT   
	BYTE		N12     An3   v072
	BYTE	W12
// 038   ----------------------------------------
	BYTE		TIE     Fn3   v080
	BYTE	W96
// 039   ----------------------------------------
	BYTE	W24
	BYTE		EOT   
	BYTE		N24     Gn3   v096
	BYTE	W24
	BYTE		        An3   v100
	BYTE	W24
	BYTE		        Bn3   v096
	BYTE	W24
// 040   ----------------------------------------
TalesofSymphonia-FightingoftheSpirit-RayZa_3_040:
	BYTE		N48     En4   v108
	BYTE	W48
	BYTE		        Dn4   v088
	BYTE	W48
	BYTE	PEND
// 041   ----------------------------------------
TalesofSymphonia-FightingoftheSpirit-RayZa_3_041:
	BYTE		N48     Bn3   v084
	BYTE	W48
	BYTE		        Gn3   v080
	BYTE	W48
	BYTE	PEND
// 042   ----------------------------------------
	BYTE		        An3   v100
	BYTE	W48
	BYTE		        En3   v084
	BYTE	W48
// 043   ----------------------------------------
TalesofSymphonia-FightingoftheSpirit-RayZa_3_043:
	BYTE		N48     An3   v100
	BYTE	W48
	BYTE		        Bn3 
	BYTE	W48
	BYTE	PEND
// 044   ----------------------------------------
	BYTE		N36     En4 
	BYTE	W36
	BYTE		        Dn4   v076
	BYTE	W36
	BYTE		TIE     Cn4   v084
	BYTE	W24
// 045   ----------------------------------------
	BYTE	W84
	BYTE		EOT   
	BYTE		N12     An3   v072
	BYTE	W12
// 046   ----------------------------------------
	BYTE		TIE     Fn3   v084
	BYTE	W96
// 047   ----------------------------------------
	BYTE	W24
	BYTE		EOT   
	BYTE		N24     Gn3   v096
	BYTE	W24
	BYTE		        An3   v100
	BYTE	W24
	BYTE		        Bn3   v092
	BYTE	W24
// 048   ----------------------------------------
	BYTE		N48     En4   v108
	BYTE	W48
	BYTE		        Dn4   v096
	BYTE	W48
// 049   ----------------------------------------
	BYTE		        An3   v080
	BYTE	W48
	BYTE		        Bn3   v096
	BYTE	W48
// 050   ----------------------------------------
	BYTE		TIE     Cn4   v100
	BYTE	W96
// 051   ----------------------------------------
	BYTE	W96
	BYTE		EOT   
// 052   ----------------------------------------
	BYTE		TIE     An2   v084
	BYTE	W96
// 053   ----------------------------------------
	BYTE	W96
	BYTE		EOT   
// 054   ----------------------------------------
	BYTE		TIE     Fn3   v108
	BYTE	W96
// 055   ----------------------------------------
	BYTE	W96
	BYTE		EOT   
// 056   ----------------------------------------
	BYTE		TIE     Gn2   v084
	BYTE	W96
// 057   ----------------------------------------
	BYTE	W96
	BYTE		EOT   
// 058   ----------------------------------------
	BYTE		TIE     An2   v100
	BYTE	W96
// 059   ----------------------------------------
	BYTE	W96
	BYTE		EOT   
// 060   ----------------------------------------
	BYTE		TIE     An2   v092
	BYTE	W96
// 061   ----------------------------------------
	BYTE	W48
	BYTE		EOT   
	BYTE		N48     En3   v108
	BYTE	W48
// 062   ----------------------------------------
	BYTE		N96     Fn2   v080
	BYTE	W96
// 063   ----------------------------------------
TalesofSymphonia-FightingoftheSpirit-RayZa_3_063:
	BYTE		N48     En3   v112
	BYTE	W48
	BYTE		        Dn3   v092
	BYTE	W48
	BYTE	PEND
// 064   ----------------------------------------
	BYTE		N96     Gn2   v084
	BYTE	W96
// 065   ----------------------------------------
TalesofSymphonia-FightingoftheSpirit-RayZa_3_065:
	BYTE		N48     Cn3   v108
	BYTE	W48
	BYTE		        Dn3   v100
	BYTE	W48
	BYTE	PEND
// 066   ----------------------------------------
	BYTE		N96     An2   v088
	BYTE	W96
// 067   ----------------------------------------
	BYTE		        An3   v120
	BYTE	W96
// 068   ----------------------------------------
	BYTE		N36     En4   v116
	BYTE	W36
	BYTE		        Dn4   v080
	BYTE	W36
	BYTE		TIE     Cn4   v076
	BYTE	W24
// 069   ----------------------------------------
	BYTE	W84
	BYTE		EOT   
	BYTE		N12     An3   v072
	BYTE	W12
// 070   ----------------------------------------
	BYTE		TIE     Fn3   v084
	BYTE	W96
// 071   ----------------------------------------
	BYTE	W24
	BYTE		EOT   
	BYTE		N24     Gn3   v092
	BYTE	W24
	BYTE		        An3   v100
	BYTE	W24
	BYTE		        Bn3   v096
	BYTE	W24
// 072   ----------------------------------------
	BYTE	PATT
	 POIN2	TalesofSymphonia-FightingoftheSpirit-RayZa_3_008
// 073   ----------------------------------------
	BYTE	PATT
	 POIN2	TalesofSymphonia-FightingoftheSpirit-RayZa_3_041
// 074   ----------------------------------------
	BYTE		N96     An3   v096
	BYTE	W96
// 075   ----------------------------------------
	BYTE	W12
	BYTE		N12     An3   v072
	BYTE	W12
	BYTE		        Cn4   v096
	BYTE	W12
	BYTE		        An3   v076
	BYTE	W12
	BYTE		        En4   v112
	BYTE	W12
	BYTE		        Cn4   v080
	BYTE	W12
	BYTE		        An3   v084
	BYTE	W12
	BYTE		        En3   v068
	BYTE	W12
// 076   ----------------------------------------
	BYTE		N36     En4   v116
	BYTE	W36
	BYTE		        Dn4   v084
	BYTE	W36
	BYTE		TIE     Cn4   v080
	BYTE	W24
// 077   ----------------------------------------
	BYTE	W84
	BYTE		EOT   
	BYTE		N12     An3   v076
	BYTE	W12
// 078   ----------------------------------------
	BYTE		N48     Fn3   v088
	BYTE	W48
	BYTE		        An3   v104
	BYTE	W48
// 079   ----------------------------------------
	BYTE	PATT
	 POIN2	TalesofSymphonia-FightingoftheSpirit-RayZa_3_015
// 080   ----------------------------------------
	BYTE	PATT
	 POIN2	TalesofSymphonia-FightingoftheSpirit-RayZa_3_016
// 081   ----------------------------------------
	BYTE		N48     Bn3   v080
	BYTE	W48
	BYTE		        Gn3 
	BYTE	W48
// 082   ----------------------------------------
	BYTE		N96     An3   v100
	BYTE	W96
// 083   ----------------------------------------
	BYTE	W12
	BYTE		N12     An3   v072
	BYTE	W12
	BYTE		        Cn4   v092
	BYTE	W12
	BYTE		        An3   v076
	BYTE	W12
	BYTE		        En4   v108
	BYTE	W12
	BYTE		        Cn4   v068
	BYTE	W12
	BYTE		        An3   v080
	BYTE	W12
	BYTE		        En3   v064
	BYTE	W12
// 084   ----------------------------------------
	BYTE		TIE     Fn3   v076
	BYTE	W96
// 085   ----------------------------------------
	BYTE	W60
	BYTE		EOT   
	BYTE		N18     Gn3   v072
	BYTE	W18
	BYTE		        An3   v076
	BYTE	W18
// 086   ----------------------------------------
	BYTE		N96     Gn3 
	BYTE	W96
// 087   ----------------------------------------
	BYTE		N48     An3   v084
	BYTE	W48
	BYTE		        Bn3   v080
	BYTE	W48
// 088   ----------------------------------------
	BYTE		N96     An3   v076
	BYTE	W96
// 089   ----------------------------------------
	BYTE		N60     Fn3   v072
	BYTE	W60
	BYTE		N18     Gn3 
	BYTE	W18
	BYTE		        An3   v080
	BYTE	W18
// 090   ----------------------------------------
	BYTE		N72     Gn3   v072
	BYTE	W72
	BYTE		N24     Cn4   v088
	BYTE	W24
// 091   ----------------------------------------
	BYTE		N48     Dn4   v080
	BYTE	W48
	BYTE		N24     Cn4   v076
	BYTE	W24
	BYTE		        Bn3   v072
	BYTE	W24
// 092   ----------------------------------------
	BYTE		N48     Fn3   v068
	BYTE	W48
	BYTE		N12     Fn3   v080
	BYTE	W12
	BYTE		        Gn3   v076
	BYTE	W12
	BYTE		        An3 
	BYTE	W12
	BYTE		N24     Bn3   v072
	BYTE	W12
// 093   ----------------------------------------
	BYTE	W12
	BYTE		N12     Bn3   v068
	BYTE	W12
	BYTE		N24     An3   v072
	BYTE	W24
	BYTE		        Gn3 
	BYTE	W24
	BYTE		        Fn3   v076
	BYTE	W24
// 094   ----------------------------------------
	BYTE		N48     Fn3   v072
	BYTE	W48
	BYTE		N12     Fn3   v076
	BYTE	W12
	BYTE		        Gn3 
	BYTE	W12
	BYTE		        An3   v084
	BYTE	W12
	BYTE		N24     Bn3   v068
	BYTE	W12
// 095   ----------------------------------------
	BYTE	W12
	BYTE		N12   
	BYTE	W12
	BYTE		N24     An3   v072
	BYTE	W24
	BYTE		        Gn3   v076
	BYTE	W24
	BYTE		        Fn3   v068
	BYTE	W24
// 096   ----------------------------------------
	BYTE		N48     Fn3   v080
	BYTE	W48
	BYTE		N12   
	BYTE	W12
	BYTE		        Gn3   v072
	BYTE	W12
	BYTE		        An3   v076
	BYTE	W12
	BYTE		N24     En4   v084
	BYTE	W12
// 097   ----------------------------------------
	BYTE	W12
	BYTE		N12     En4   v068
	BYTE	W12
	BYTE		N24     Dn4 
	BYTE	W24
	BYTE		        Cn4   v076
	BYTE	W24
	BYTE		        Bn3   v068
	BYTE	W24
// 098   ----------------------------------------
	BYTE		N96     Bn3   v080
	BYTE	W96
// 099   ----------------------------------------
	BYTE		N24     Bn4   v104
	BYTE	W24
	BYTE		        Gn4   v068
	BYTE	W24
	BYTE		        En4 
	BYTE	W24
	BYTE		        Bn4   v088
	BYTE	W24
// 100   ----------------------------------------
	BYTE		N36     En4   v080
	BYTE	W36
	BYTE		        Dn4   v076
	BYTE	W36
	BYTE		TIE     Cn4   v080
	BYTE	W24
// 101   ----------------------------------------
	BYTE	W84
	BYTE		EOT   
	BYTE		N12     An3   v076
	BYTE	W12
// 102   ----------------------------------------
	BYTE		TIE     Fn3   v080
	BYTE	W96
// 103   ----------------------------------------
	BYTE	W24
	BYTE		EOT   
	BYTE		N24     Gn3   v092
	BYTE	W24
	BYTE		        An3   v096
	BYTE	W24
	BYTE		        Bn3   v092
	BYTE	W24
// 104   ----------------------------------------
	BYTE		N48     En4   v108
	BYTE	W48
	BYTE		        Dn4   v092
	BYTE	W48
// 105   ----------------------------------------
	BYTE	PATT
	 POIN2	TalesofSymphonia-FightingoftheSpirit-RayZa_3_017
// 106   ----------------------------------------
	BYTE		N48     An3   v096
	BYTE	W48
	BYTE		        En3   v080
	BYTE	W48
// 107   ----------------------------------------
	BYTE	PATT
	 POIN2	TalesofSymphonia-FightingoftheSpirit-RayZa_3_043
// 108   ----------------------------------------
	BYTE		N36     En4   v104
	BYTE	W36
	BYTE		        Dn4   v080
	BYTE	W36
	BYTE		TIE     Cn4   v084
	BYTE	W24
// 109   ----------------------------------------
	BYTE	W84
	BYTE		EOT   
	BYTE		N12     An3   v076
	BYTE	W12
// 110   ----------------------------------------
	BYTE		TIE     Fn3   v084
	BYTE	W96
// 111   ----------------------------------------
	BYTE	W24
	BYTE		EOT   
	BYTE		N24     Gn3   v088
	BYTE	W24
	BYTE		        An3   v100
	BYTE	W24
	BYTE		        Bn3 
	BYTE	W24
// 112   ----------------------------------------
	BYTE		N48     En4   v112
	BYTE	W48
	BYTE		        Dn4   v084
	BYTE	W48
// 113   ----------------------------------------
	BYTE		        An3 
	BYTE	W48
	BYTE		        Bn3   v092
	BYTE	W48
// 114   ----------------------------------------
	BYTE		TIE     Cn4 
	BYTE	W96
// 115   ----------------------------------------
	BYTE	W96
	BYTE		EOT   
// 116   ----------------------------------------
	BYTE		TIE     An2   v080
	BYTE	W96
// 117   ----------------------------------------
	BYTE	W96
	BYTE		EOT   
// 118   ----------------------------------------
	BYTE		TIE     Fn3   v112
	BYTE	W96
// 119   ----------------------------------------
	BYTE	W96
	BYTE		EOT   
// 120   ----------------------------------------
	BYTE		TIE     Gn2   v084
	BYTE	W96
// 121   ----------------------------------------
	BYTE	W96
	BYTE		EOT   
// 122   ----------------------------------------
	BYTE		TIE     An2   v096
	BYTE	W96
// 123   ----------------------------------------
	BYTE	W96
	BYTE		EOT   
// 124   ----------------------------------------
	BYTE		TIE     An2   v092
	BYTE	W96
// 125   ----------------------------------------
	BYTE	W48
	BYTE		EOT   
	BYTE		N48     En3   v104
	BYTE	W48
// 126   ----------------------------------------
	BYTE		N96     Fn2   v088
	BYTE	W96
// 127   ----------------------------------------
	BYTE	PATT
	 POIN2	TalesofSymphonia-FightingoftheSpirit-RayZa_3_063
// 128   ----------------------------------------
	BYTE		N96     Gn2   v088
	BYTE	W96
// 129   ----------------------------------------
	BYTE	PATT
	 POIN2	TalesofSymphonia-FightingoftheSpirit-RayZa_3_065
// 130   ----------------------------------------
	BYTE		N96     An2   v088
	BYTE	W96
// 131   ----------------------------------------
	BYTE		        An3   v116
	BYTE	W96
// 132   ----------------------------------------
	BYTE		N36     En4 
	BYTE	W36
	BYTE		        Dn4   v080
	BYTE	W36
	BYTE		TIE     Cn4   v084
	BYTE	W24
// 133   ----------------------------------------
	BYTE	W84
	BYTE		EOT   
	BYTE		N12     An3   v076
	BYTE	W12
// 134   ----------------------------------------
	BYTE		TIE     Fn3   v084
	BYTE	W96
// 135   ----------------------------------------
	BYTE	W24
	BYTE		EOT   
	BYTE		N24     Gn3   v096
	BYTE	W24
	BYTE		        An3   v100
	BYTE	W24
	BYTE		        Bn3   v092
	BYTE	W24
// 136   ----------------------------------------
	BYTE	PATT
	 POIN2	TalesofSymphonia-FightingoftheSpirit-RayZa_3_040
// 137   ----------------------------------------
	BYTE		N48     Bn3   v084
	BYTE	W48
	BYTE		        Gn3   v088
	BYTE	W48
// 138   ----------------------------------------
	BYTE		N96     An3   v100
	BYTE	W96
// 139   ----------------------------------------
	BYTE	W12
	BYTE		N12     An3   v072
	BYTE	W12
	BYTE		        Cn4   v096
	BYTE	W12
	BYTE		        An3   v076
	BYTE	W12
	BYTE		        En4   v108
	BYTE	W12
	BYTE		        Cn4   v080
	BYTE	W12
	BYTE		        An3 
	BYTE	W12
	BYTE		        En3   v072
	BYTE	W12
// 140   ----------------------------------------
	BYTE		N36     En4   v112
	BYTE	W36
	BYTE		        Dn4   v076
	BYTE	W36
	BYTE		TIE     Cn4   v092
	BYTE	W24
// 141   ----------------------------------------
	BYTE	W84
	BYTE		EOT   
	BYTE		N12     An3   v072
	BYTE	W12
// 142   ----------------------------------------
	BYTE	PATT
	 POIN2	TalesofSymphonia-FightingoftheSpirit-RayZa_3_014
// 143   ----------------------------------------
	BYTE		N48     Cn4   v096
	BYTE	W48
	BYTE		        Fn4   v108
	BYTE	W48
// 144   ----------------------------------------
	BYTE		        En4   v096
	BYTE	W48
	BYTE		        Dn4   v088
	BYTE	W48
// 145   ----------------------------------------
	BYTE		        Bn3   v080
	BYTE	W48
	BYTE		        Gn3   v084
	BYTE	W48
// 146   ----------------------------------------
	BYTE		N96     An3   v096
	BYTE	W96
// 147   ----------------------------------------
	BYTE	W12
	BYTE		N12     An3   v072
	BYTE	W12
	BYTE		        Cn4   v096
	BYTE	W12
	BYTE		        An3   v076
	BYTE	W12
	BYTE		        En4   v112
	BYTE	W12
	BYTE		        Cn4   v072
	BYTE	W12
	BYTE		        An3   v080
	BYTE	W12
	BYTE		        En3   v068
	BYTE	W12
// 148   ----------------------------------------
	BYTE	FINE

//**************** Track 4 (Midi-Chn.4) ****************//

TalesofSymphonia-FightingoftheSpirit-RayZa_4:
	BYTE	KEYSH   TalesofSymphonia-FightingoftheSpirit-RayZa_key+0
// 000   ----------------------------------------
	BYTE		VOICE   34
	BYTE		PAN     c_v+0
	BYTE		VOL     116*TalesofSymphonia-FightingoftheSpirit-RayZa_mvl/mxv
	BYTE	W96
// 001   ----------------------------------------
	BYTE	W84
	BYTE		N06     An0   v052
	BYTE	W06
	BYTE		        An0   v064
	BYTE	W06
// 002   ----------------------------------------
	BYTE		N96   
	BYTE	W96
// 003   ----------------------------------------
	BYTE	W96
// 004   ----------------------------------------
	BYTE		N12     An0   v084
	BYTE	W12
	BYTE		        An0   v076
	BYTE	W12
	BYTE		        En1   v096
	BYTE	W12
	BYTE		N24     An0   v068
	BYTE	W24
	BYTE		N12     An0   v080
	BYTE	W12
	BYTE		        En1   v088
	BYTE	W12
	BYTE		N24     An0   v076
	BYTE	W12
// 005   ----------------------------------------
	BYTE	W12
	BYTE		N12     An0   v080
	BYTE	W12
	BYTE		        Cn1   v092
	BYTE	W12
	BYTE		        An0   v076
	BYTE	W12
	BYTE		        En1   v104
	BYTE	W12
	BYTE		        An0   v072
	BYTE	W12
	BYTE		        Cn1   v088
	BYTE	W12
	BYTE		        An0   v080
	BYTE	W12
// 006   ----------------------------------------
TalesofSymphonia-FightingoftheSpirit-RayZa_4_006:
	BYTE		N12     Fn0   v088
	BYTE	W12
	BYTE		        Fn0   v080
	BYTE	W12
	BYTE		        Cn1   v100
	BYTE	W12
	BYTE		N24     Fn0   v072
	BYTE	W24
	BYTE		N12     Fn0   v080
	BYTE	W12
	BYTE		        Cn1   v096
	BYTE	W12
	BYTE		N24     Fn0   v076
	BYTE	W12
	BYTE	PEND
// 007   ----------------------------------------
	BYTE	W12
	BYTE		N12     Fn0   v084
	BYTE	W12
	BYTE		        An0   v088
	BYTE	W12
	BYTE		        Fn0   v076
	BYTE	W12
	BYTE		        Cn1   v104
	BYTE	W12
	BYTE		        Fn0   v076
	BYTE	W12
	BYTE		        An0   v096
	BYTE	W12
	BYTE		        Fn0   v080
	BYTE	W12
// 008   ----------------------------------------
	BYTE		        Gn0   v096
	BYTE	W12
	BYTE		        Gn0   v084
	BYTE	W12
	BYTE		        Dn1   v096
	BYTE	W12
	BYTE		N24     Gn0   v076
	BYTE	W24
	BYTE		N12     Gn0   v080
	BYTE	W12
	BYTE		        Dn1   v100
	BYTE	W12
	BYTE		N24     Gn0   v076
	BYTE	W12
// 009   ----------------------------------------
TalesofSymphonia-FightingoftheSpirit-RayZa_4_009:
	BYTE	W12
	BYTE		N12     Gn0   v080
	BYTE	W12
	BYTE		        Bn0   v096
	BYTE	W12
	BYTE		        Gn0   v076
	BYTE	W12
	BYTE		        Gn0   v088
	BYTE	W12
	BYTE		        Gn0   v080
	BYTE	W12
	BYTE		        Gn0   v088
	BYTE	W12
	BYTE		        Bn0 
	BYTE	W12
	BYTE	PEND
// 010   ----------------------------------------
	BYTE		        An0   v092
	BYTE	W12
	BYTE		        An0   v076
	BYTE	W12
	BYTE		        En1   v096
	BYTE	W12
	BYTE		N24     An0   v076
	BYTE	W24
	BYTE		N12     An0   v080
	BYTE	W12
	BYTE		        En1   v096
	BYTE	W12
	BYTE		N24     An0   v076
	BYTE	W12
// 011   ----------------------------------------
	BYTE	W12
	BYTE		N12     An0   v084
	BYTE	W12
	BYTE		        Cn1   v092
	BYTE	W12
	BYTE		        An0   v076
	BYTE	W12
	BYTE		        En1   v096
	BYTE	W12
	BYTE		        An0   v076
	BYTE	W12
	BYTE		        Cn1   v088
	BYTE	W12
	BYTE		        An0   v076
	BYTE	W12
// 012   ----------------------------------------
	BYTE		        An0   v096
	BYTE	W12
	BYTE		        An0   v084
	BYTE	W12
	BYTE		        En1   v096
	BYTE	W12
	BYTE		N24     An0   v072
	BYTE	W24
	BYTE		N12     An0   v076
	BYTE	W12
	BYTE		        En1   v096
	BYTE	W12
	BYTE		N24     An0   v072
	BYTE	W12
// 013   ----------------------------------------
	BYTE	W12
	BYTE		N12     An0   v084
	BYTE	W12
	BYTE		        Cn1   v088
	BYTE	W12
	BYTE		        An0   v080
	BYTE	W12
	BYTE		        En1   v104
	BYTE	W12
	BYTE		        An0   v076
	BYTE	W12
	BYTE		        Cn1   v088
	BYTE	W12
	BYTE		        An0   v080
	BYTE	W12
// 014   ----------------------------------------
	BYTE		        Fn0   v088
	BYTE	W12
	BYTE		        Fn0   v080
	BYTE	W12
	BYTE		        Cn1   v088
	BYTE	W12
	BYTE		N24     Fn0   v076
	BYTE	W24
	BYTE		N12   
	BYTE	W12
	BYTE		        Cn1   v096
	BYTE	W12
	BYTE		N24     Fn0   v072
	BYTE	W12
// 015   ----------------------------------------
	BYTE	W12
	BYTE		N12     Fn0   v080
	BYTE	W12
	BYTE		        An0   v096
	BYTE	W12
	BYTE		        Fn0   v076
	BYTE	W12
	BYTE		        Cn1   v104
	BYTE	W12
	BYTE		        Fn0   v076
	BYTE	W12
	BYTE		        An0   v096
	BYTE	W12
	BYTE		        Fn0   v076
	BYTE	W12
// 016   ----------------------------------------
	BYTE		        Gn0   v096
	BYTE	W12
	BYTE		        Gn0   v084
	BYTE	W12
	BYTE		        Dn1   v096
	BYTE	W12
	BYTE		N24     Gn0   v076
	BYTE	W24
	BYTE		N12     Gn0   v080
	BYTE	W12
	BYTE		        Dn1   v096
	BYTE	W12
	BYTE		N24     Gn0   v080
	BYTE	W12
// 017   ----------------------------------------
	BYTE	W12
	BYTE		N12   
	BYTE	W12
	BYTE		        Bn0   v096
	BYTE	W12
	BYTE		        Gn0   v076
	BYTE	W12
	BYTE		        Gn0   v092
	BYTE	W12
	BYTE		        Gn0   v084
	BYTE	W12
	BYTE		        Gn0   v088
	BYTE	W12
	BYTE		        Bn0   v084
	BYTE	W12
// 018   ----------------------------------------
	BYTE		        An0   v088
	BYTE	W12
	BYTE		        An0   v080
	BYTE	W12
	BYTE		        En1   v100
	BYTE	W12
	BYTE		N24     An0   v076
	BYTE	W24
	BYTE		N12     An0   v084
	BYTE	W12
	BYTE		        En1   v100
	BYTE	W12
	BYTE		N24     An0   v076
	BYTE	W12
// 019   ----------------------------------------
	BYTE	W12
	BYTE		N12   
	BYTE	W12
	BYTE		        Cn1   v092
	BYTE	W12
	BYTE		        An0   v080
	BYTE	W12
	BYTE		        En1   v104
	BYTE	W12
	BYTE		        An0   v076
	BYTE	W12
	BYTE		        Cn1   v092
	BYTE	W12
	BYTE		        An0   v080
	BYTE	W12
// 020   ----------------------------------------
	BYTE		N17     Fn1   v100
	BYTE	W36
	BYTE		N24     Fn1   v080
	BYTE	W24
	BYTE		N12     Cn1   v076
	BYTE	W12
	BYTE		        Cn1   v088
	BYTE	W12
	BYTE		        Cn1   v080
	BYTE	W12
// 021   ----------------------------------------
	BYTE		N18     Fn1   v100
	BYTE	W18
	BYTE		        Fn1   v088
	BYTE	W18
	BYTE		N24     Fn1   v080
	BYTE	W24
	BYTE		N12     Cn1   v072
	BYTE	W12
	BYTE		        Cn1   v092
	BYTE	W12
	BYTE		        Cn1   v084
	BYTE	W12
// 022   ----------------------------------------
	BYTE		N17     Gn1   v096
	BYTE	W36
	BYTE		N24     Gn1   v084
	BYTE	W24
	BYTE		N12     Dn1   v076
	BYTE	W12
	BYTE		        Dn1   v088
	BYTE	W12
	BYTE		        Dn1   v076
	BYTE	W12
// 023   ----------------------------------------
	BYTE		N18     Gn1   v100
	BYTE	W18
	BYTE		        Gn1   v088
	BYTE	W18
	BYTE		N24     Gn1   v076
	BYTE	W24
	BYTE		N12     Bn1   v084
	BYTE	W12
	BYTE		        An1   v088
	BYTE	W12
	BYTE		        Gn1   v076
	BYTE	W12
// 024   ----------------------------------------
	BYTE		N18     Fn1   v088
	BYTE	W18
	BYTE		        Fn1   v084
	BYTE	W18
	BYTE		N24     Fn1   v080
	BYTE	W24
	BYTE		N12     Cn1   v072
	BYTE	W12
	BYTE		        Cn1   v092
	BYTE	W12
	BYTE		        Cn1   v084
	BYTE	W12
// 025   ----------------------------------------
	BYTE		N18     Fn1   v100
	BYTE	W18
	BYTE		        Fn1   v084
	BYTE	W18
	BYTE		N24     Fn1   v080
	BYTE	W24
	BYTE		N12     Cn1   v072
	BYTE	W12
	BYTE		        Cn1   v088
	BYTE	W12
	BYTE		        Cn1   v080
	BYTE	W12
// 026   ----------------------------------------
	BYTE		N17     Gn1   v096
	BYTE	W36
	BYTE		N24     Gn1   v084
	BYTE	W24
	BYTE		N12     Dn1   v076
	BYTE	W12
	BYTE		        Dn1   v084
	BYTE	W12
	BYTE		        Dn1   v080
	BYTE	W12
// 027   ----------------------------------------
	BYTE		        Gn1   v096
	BYTE	W12
	BYTE		        Dn1   v080
	BYTE	W12
	BYTE		        Bn1   v100
	BYTE	W12
	BYTE		        Dn1   v076
	BYTE	W12
	BYTE		        An1   v100
	BYTE	W12
	BYTE		        Dn1   v072
	BYTE	W12
	BYTE		        Gn1   v096
	BYTE	W12
	BYTE		        Dn1   v072
	BYTE	W12
// 028   ----------------------------------------
	BYTE		N17     Fn1   v092
	BYTE	W36
	BYTE		N24     Fn1   v084
	BYTE	W24
	BYTE		N12     Cn1   v072
	BYTE	W12
	BYTE		        Cn1   v088
	BYTE	W12
	BYTE		        Cn1   v076
	BYTE	W12
// 029   ----------------------------------------
	BYTE		N18     Fn1   v100
	BYTE	W18
	BYTE		        Fn1   v088
	BYTE	W18
	BYTE		N24     Fn1   v084
	BYTE	W24
	BYTE		N12     Cn1   v076
	BYTE	W12
	BYTE		        Cn1   v088
	BYTE	W12
	BYTE		        Cn1   v084
	BYTE	W12
// 030   ----------------------------------------
	BYTE		N17     Gn1   v100
	BYTE	W36
	BYTE		N24     Gn1   v084
	BYTE	W24
	BYTE		N12     Dn1   v076
	BYTE	W12
	BYTE		        Dn1   v088
	BYTE	W12
	BYTE		        Dn1   v080
	BYTE	W12
// 031   ----------------------------------------
	BYTE		N18     Gn1   v100
	BYTE	W18
	BYTE		        Gn1   v084
	BYTE	W18
	BYTE		N24   
	BYTE	W24
	BYTE		N12     Bn1   v092
	BYTE	W12
	BYTE		        An1   v084
	BYTE	W12
	BYTE		        Gn1   v080
	BYTE	W12
// 032   ----------------------------------------
	BYTE		N18     Fn1   v092
	BYTE	W18
	BYTE		        Fn1   v084
	BYTE	W18
	BYTE		N24   
	BYTE	W24
	BYTE		N12     Cn1   v076
	BYTE	W12
	BYTE		        Cn1   v084
	BYTE	W12
	BYTE		N12   
	BYTE	W12
// 033   ----------------------------------------
	BYTE		N18     Fn1   v100
	BYTE	W18
	BYTE		        Fn1   v088
	BYTE	W18
	BYTE		N24     Fn1   v084
	BYTE	W24
	BYTE		N12     Cn1   v072
	BYTE	W12
	BYTE		        Cn1   v088
	BYTE	W12
	BYTE		        Cn1   v080
	BYTE	W12
// 034   ----------------------------------------
	BYTE		N17     En1   v096
	BYTE	W36
	BYTE		N24     En1   v084
	BYTE	W24
	BYTE		N12     Bn0   v076
	BYTE	W12
	BYTE		        Bn0   v088
	BYTE	W12
	BYTE		        Bn0   v084
	BYTE	W12
// 035   ----------------------------------------
	BYTE		        Bn1   v108
	BYTE	W12
	BYTE		        Gn1   v076
	BYTE	W12
	BYTE		        Dn2   v096
	BYTE	W12
	BYTE		        Gn1   v080
	BYTE	W12
	BYTE		        Cn2   v100
	BYTE	W12
	BYTE		        Gn1   v076
	BYTE	W12
	BYTE		        Bn1   v092
	BYTE	W12
	BYTE		        Gn1   v072
	BYTE	W12
// 036   ----------------------------------------
	BYTE		        An0   v084
	BYTE	W12
	BYTE		N12   
	BYTE	W12
	BYTE		        En1   v100
	BYTE	W12
	BYTE		N24     An0   v072
	BYTE	W24
	BYTE		N12     An0   v080
	BYTE	W12
	BYTE		        En1   v100
	BYTE	W12
	BYTE		N24     An0   v072
	BYTE	W12
// 037   ----------------------------------------
	BYTE	W12
	BYTE		N12     An0   v084
	BYTE	W12
	BYTE		        Cn1   v092
	BYTE	W12
	BYTE		        An0   v076
	BYTE	W12
	BYTE		        En1   v100
	BYTE	W12
	BYTE		        An0   v076
	BYTE	W12
	BYTE		        Cn1   v092
	BYTE	W12
	BYTE		        An0   v080
	BYTE	W12
// 038   ----------------------------------------
	BYTE	PATT
	 POIN2	TalesofSymphonia-FightingoftheSpirit-RayZa_4_006
// 039   ----------------------------------------
	BYTE	W12
	BYTE		N12     Fn0   v080
	BYTE	W12
	BYTE		        An0   v092
	BYTE	W12
	BYTE		        Fn0   v076
	BYTE	W12
	BYTE		        Cn1   v104
	BYTE	W12
	BYTE		        Fn0   v072
	BYTE	W12
	BYTE		        An0   v092
	BYTE	W12
	BYTE		        Fn0   v076
	BYTE	W12
// 040   ----------------------------------------
	BYTE		        Gn0   v096
	BYTE	W12
	BYTE		        Gn0   v080
	BYTE	W12
	BYTE		        Dn1   v100
	BYTE	W12
	BYTE		N24     Gn0   v072
	BYTE	W24
	BYTE		N12     Gn0   v080
	BYTE	W12
	BYTE		        Dn1   v096
	BYTE	W12
	BYTE		N24     Gn0   v076
	BYTE	W12
// 041   ----------------------------------------
	BYTE	W12
	BYTE		N12     Gn0   v080
	BYTE	W12
	BYTE		        Bn0   v100
	BYTE	W12
	BYTE		        Gn0   v076
	BYTE	W12
	BYTE		        Gn0   v088
	BYTE	W12
	BYTE		        Gn0   v080
	BYTE	W12
	BYTE		        Gn0   v088
	BYTE	W12
	BYTE		        Bn0   v084
	BYTE	W12
// 042   ----------------------------------------
	BYTE		        An0   v096
	BYTE	W12
	BYTE		        An0   v080
	BYTE	W12
	BYTE		        En1   v100
	BYTE	W12
	BYTE		N24     An0   v080
	BYTE	W24
	BYTE		N12   
	BYTE	W12
	BYTE		        En1   v096
	BYTE	W12
	BYTE		N24     An0   v076
	BYTE	W12
// 043   ----------------------------------------
	BYTE	W12
	BYTE		N12     An0   v084
	BYTE	W12
	BYTE		        Cn1   v092
	BYTE	W12
	BYTE		        An0   v076
	BYTE	W12
	BYTE		        En1   v096
	BYTE	W12
	BYTE		        An0   v076
	BYTE	W12
	BYTE		        Cn1   v088
	BYTE	W12
	BYTE		        An0   v080
	BYTE	W12
// 044   ----------------------------------------
	BYTE		        An0   v100
	BYTE	W12
	BYTE		        An0   v076
	BYTE	W12
	BYTE		        En1   v096
	BYTE	W12
	BYTE		N24     An0   v080
	BYTE	W24
	BYTE		N12   
	BYTE	W12
	BYTE		        En1   v096
	BYTE	W12
	BYTE		N24     An0   v080
	BYTE	W12
// 045   ----------------------------------------
	BYTE	W12
	BYTE		N12   
	BYTE	W12
	BYTE		        Cn1   v096
	BYTE	W12
	BYTE		        An0   v076
	BYTE	W12
	BYTE		        En1   v100
	BYTE	W12
	BYTE		        An0   v072
	BYTE	W12
	BYTE		        Cn1   v092
	BYTE	W12
	BYTE		        An0   v080
	BYTE	W12
// 046   ----------------------------------------
	BYTE		        Fn0   v088
	BYTE	W12
	BYTE		        Fn0   v076
	BYTE	W12
	BYTE		        Cn1   v092
	BYTE	W12
	BYTE		N24     Fn0   v076
	BYTE	W24
	BYTE		N12     Fn0   v084
	BYTE	W12
	BYTE		        Cn1   v100
	BYTE	W12
	BYTE		N24     Fn0   v080
	BYTE	W12
// 047   ----------------------------------------
	BYTE	W12
	BYTE		N12     Fn0   v076
	BYTE	W12
	BYTE		        An0   v092
	BYTE	W12
	BYTE		        Fn0   v080
	BYTE	W12
	BYTE		        Cn1   v100
	BYTE	W12
	BYTE		        Fn0   v080
	BYTE	W12
	BYTE		        An0   v092
	BYTE	W12
	BYTE		        Fn0   v076
	BYTE	W12
// 048   ----------------------------------------
	BYTE		        Gn0   v100
	BYTE	W12
	BYTE		        Gn0   v080
	BYTE	W12
	BYTE		        Dn1   v100
	BYTE	W12
	BYTE		N24     Gn0   v068
	BYTE	W24
	BYTE		N12     Gn0   v080
	BYTE	W12
	BYTE		        Dn1   v096
	BYTE	W12
	BYTE		N24     Gn0   v072
	BYTE	W12
// 049   ----------------------------------------
	BYTE	W12
	BYTE		N12     Gn0   v080
	BYTE	W12
	BYTE		        Bn0   v092
	BYTE	W12
	BYTE		        Gn0   v076
	BYTE	W12
	BYTE		        Gn0   v092
	BYTE	W12
	BYTE		        Gn0   v084
	BYTE	W12
	BYTE		        Gn0   v088
	BYTE	W12
	BYTE		        Bn0   v084
	BYTE	W12
// 050   ----------------------------------------
	BYTE		        An0 
	BYTE	W12
	BYTE		N12   
	BYTE	W12
	BYTE		        En1   v096
	BYTE	W12
	BYTE		N24     An0   v072
	BYTE	W24
	BYTE		N12     An0   v076
	BYTE	W12
	BYTE		        En1   v100
	BYTE	W12
	BYTE		N24     An0   v072
	BYTE	W12
// 051   ----------------------------------------
	BYTE	W12
	BYTE		N12   
	BYTE	W12
	BYTE		        Cn1   v092
	BYTE	W12
	BYTE		        An0   v076
	BYTE	W12
	BYTE		        En1   v104
	BYTE	W12
	BYTE		        An0   v076
	BYTE	W12
	BYTE		        Cn1   v092
	BYTE	W12
	BYTE		        An0   v076
	BYTE	W12
// 052   ----------------------------------------
	BYTE		        An0   v096
	BYTE	W12
	BYTE		        An0   v076
	BYTE	W12
	BYTE		        An0   v096
	BYTE	W12
	BYTE		N05     An0   v080
	BYTE	W24
	BYTE		N24     An0   v072
	BYTE	W24
	BYTE		        An0   v080
	BYTE	W12
// 053   ----------------------------------------
TalesofSymphonia-FightingoftheSpirit-RayZa_4_053:
	BYTE	W12
	BYTE		N12     An0   v084
	BYTE	W12
	BYTE		N24     An0   v088
	BYTE	W24
	BYTE		N48     An0   v092
	BYTE	W48
	BYTE	PEND
// 054   ----------------------------------------
	BYTE		N12     Fn0   v088
	BYTE	W12
	BYTE		        Fn0   v080
	BYTE	W12
	BYTE		        Fn0   v088
	BYTE	W12
	BYTE		N05     Fn0   v080
	BYTE	W24
	BYTE		N24     Fn0   v068
	BYTE	W24
	BYTE		        Fn0   v072
	BYTE	W12
// 055   ----------------------------------------
	BYTE	W12
	BYTE		N12     Fn0   v080
	BYTE	W12
	BYTE		N24     Fn0   v088
	BYTE	W24
	BYTE		N48     Fn0   v092
	BYTE	W48
// 056   ----------------------------------------
	BYTE		N12     Gn0   v096
	BYTE	W12
	BYTE		        Gn0   v080
	BYTE	W12
	BYTE		        Gn0   v092
	BYTE	W12
	BYTE		N05     Gn0   v076
	BYTE	W24
	BYTE		N24   
	BYTE	W24
	BYTE		        Gn0   v080
	BYTE	W12
// 057   ----------------------------------------
	BYTE	W12
	BYTE		N12   
	BYTE	W12
	BYTE		N24     Gn0   v088
	BYTE	W24
	BYTE		N48     Gn0   v092
	BYTE	W48
// 058   ----------------------------------------
	BYTE		N12     An0   v096
	BYTE	W12
	BYTE		        An0   v084
	BYTE	W12
	BYTE		        An0   v088
	BYTE	W12
	BYTE		N05     An0   v076
	BYTE	W24
	BYTE		N24   
	BYTE	W24
	BYTE		N24   
	BYTE	W12
// 059   ----------------------------------------
	BYTE	PATT
	 POIN2	TalesofSymphonia-FightingoftheSpirit-RayZa_4_053
// 060   ----------------------------------------
	BYTE		N12     An0   v092
	BYTE	W12
	BYTE		        An0   v076
	BYTE	W12
	BYTE		        An0   v092
	BYTE	W12
	BYTE		N05     An0   v080
	BYTE	W24
	BYTE		N24     An0   v072
	BYTE	W24
	BYTE		        An0   v080
	BYTE	W12
// 061   ----------------------------------------
	BYTE	PATT
	 POIN2	TalesofSymphonia-FightingoftheSpirit-RayZa_4_053
// 062   ----------------------------------------
	BYTE		N12     Fn0   v088
	BYTE	W12
	BYTE		        Fn0   v076
	BYTE	W12
	BYTE		        Fn0   v088
	BYTE	W12
	BYTE		N05     Fn0   v084
	BYTE	W24
	BYTE		N24     Fn0   v072
	BYTE	W24
	BYTE		        Fn0   v080
	BYTE	W12
// 063   ----------------------------------------
	BYTE	W12
	BYTE		N12     Fn0   v076
	BYTE	W12
	BYTE		N24     Fn0   v092
	BYTE	W24
	BYTE		N48     Fn0   v096
	BYTE	W48
// 064   ----------------------------------------
	BYTE		N12     Gn0   v100
	BYTE	W12
	BYTE		        Gn0   v080
	BYTE	W12
	BYTE		        Gn0   v088
	BYTE	W12
	BYTE		N05     Gn0   v084
	BYTE	W24
	BYTE		N24     Gn0   v072
	BYTE	W24
	BYTE		        Gn0   v080
	BYTE	W12
// 065   ----------------------------------------
TalesofSymphonia-FightingoftheSpirit-RayZa_4_065:
	BYTE	W12
	BYTE		N12     Gn0   v084
	BYTE	W12
	BYTE		N24     Gn0   v088
	BYTE	W24
	BYTE		N48     Gn0   v096
	BYTE	W48
	BYTE	PEND
// 066   ----------------------------------------
	BYTE		N12     An0   v100
	BYTE	W12
	BYTE		        An0   v076
	BYTE	W12
	BYTE		        An0   v092
	BYTE	W12
	BYTE		N05     An0   v080
	BYTE	W24
	BYTE		N24     An0   v076
	BYTE	W24
	BYTE		N24   
	BYTE	W12
// 067   ----------------------------------------
	BYTE	W12
	BYTE		N12     An0   v080
	BYTE	W12
	BYTE		N24     An0   v088
	BYTE	W24
	BYTE		N48   
	BYTE	W48
// 068   ----------------------------------------
TalesofSymphonia-FightingoftheSpirit-RayZa_4_068:
	BYTE		N12     An0   v092
	BYTE	W12
	BYTE		        An0   v080
	BYTE	W12
	BYTE		        En1   v096
	BYTE	W12
	BYTE		N24     An0   v076
	BYTE	W24
	BYTE		N12     An0   v080
	BYTE	W12
	BYTE		        En1   v096
	BYTE	W12
	BYTE		N24     An0   v076
	BYTE	W12
	BYTE	PEND
// 069   ----------------------------------------
	BYTE	W12
	BYTE		N12     An0   v080
	BYTE	W12
	BYTE		        Cn1   v096
	BYTE	W12
	BYTE		        An0   v080
	BYTE	W12
	BYTE		        En1   v096
	BYTE	W12
	BYTE		        An0   v072
	BYTE	W12
	BYTE		        Cn1   v092
	BYTE	W12
	BYTE		        An0   v076
	BYTE	W12
// 070   ----------------------------------------
	BYTE		        Fn0   v088
	BYTE	W12
	BYTE		        Fn0   v076
	BYTE	W12
	BYTE		        Cn1   v096
	BYTE	W12
	BYTE		N24     Fn0   v076
	BYTE	W24
	BYTE		N12     Fn0   v080
	BYTE	W12
	BYTE		        Cn1   v096
	BYTE	W12
	BYTE		N24     Fn0   v072
	BYTE	W12
// 071   ----------------------------------------
TalesofSymphonia-FightingoftheSpirit-RayZa_4_071:
	BYTE	W12
	BYTE		N12     Fn0   v080
	BYTE	W12
	BYTE		        An0   v096
	BYTE	W12
	BYTE		        Fn0   v076
	BYTE	W12
	BYTE		        Cn1   v100
	BYTE	W12
	BYTE		        Fn0   v076
	BYTE	W12
	BYTE		        An0   v096
	BYTE	W12
	BYTE		        Fn0   v076
	BYTE	W12
	BYTE	PEND
// 072   ----------------------------------------
	BYTE		        Gn0   v092
	BYTE	W12
	BYTE		        Gn0   v080
	BYTE	W12
	BYTE		        Dn1   v096
	BYTE	W12
	BYTE		N24     Gn0   v076
	BYTE	W24
	BYTE		N12     Gn0   v080
	BYTE	W12
	BYTE		        Dn1   v096
	BYTE	W12
	BYTE		N24     Gn0   v076
	BYTE	W12
// 073   ----------------------------------------
	BYTE	W12
	BYTE		N12     Gn0   v084
	BYTE	W12
	BYTE		        Bn0   v096
	BYTE	W12
	BYTE		        Gn0   v076
	BYTE	W12
	BYTE		        Gn0   v092
	BYTE	W12
	BYTE		        Gn0   v080
	BYTE	W12
	BYTE		        Gn0   v092
	BYTE	W12
	BYTE		        Bn0   v080
	BYTE	W12
// 074   ----------------------------------------
	BYTE		        An0   v088
	BYTE	W12
	BYTE		        An0   v084
	BYTE	W12
	BYTE		        En1   v096
	BYTE	W12
	BYTE		N24     An0   v076
	BYTE	W24
	BYTE		N12     An0   v080
	BYTE	W12
	BYTE		        En1   v100
	BYTE	W12
	BYTE		N24     An0   v072
	BYTE	W12
// 075   ----------------------------------------
	BYTE	W12
	BYTE		N12     An0   v084
	BYTE	W12
	BYTE		        Cn1   v096
	BYTE	W12
	BYTE		        An0   v080
	BYTE	W12
	BYTE		        En1   v108
	BYTE	W12
	BYTE		        An0   v080
	BYTE	W12
	BYTE		        Cn1   v096
	BYTE	W12
	BYTE		        An0   v080
	BYTE	W12
// 076   ----------------------------------------
	BYTE		        An0   v092
	BYTE	W12
	BYTE		        An0   v080
	BYTE	W12
	BYTE		        En1   v100
	BYTE	W12
	BYTE		N24     An0   v072
	BYTE	W24
	BYTE		N12     An0   v076
	BYTE	W12
	BYTE		        En1   v096
	BYTE	W12
	BYTE		N24     An0   v076
	BYTE	W12
// 077   ----------------------------------------
	BYTE	W12
	BYTE		N12     An0   v080
	BYTE	W12
	BYTE		        Cn1   v092
	BYTE	W12
	BYTE		        An0   v080
	BYTE	W12
	BYTE		        En1   v104
	BYTE	W12
	BYTE		        An0   v072
	BYTE	W12
	BYTE		        Cn1   v096
	BYTE	W12
	BYTE		        An0   v076
	BYTE	W12
// 078   ----------------------------------------
	BYTE		        Fn0   v092
	BYTE	W12
	BYTE		        Fn0   v076
	BYTE	W12
	BYTE		        Cn1   v096
	BYTE	W12
	BYTE		N24     Fn0   v080
	BYTE	W24
	BYTE		N12     Fn0   v084
	BYTE	W12
	BYTE		        Cn1   v096
	BYTE	W12
	BYTE		N24     Fn0   v072
	BYTE	W12
// 079   ----------------------------------------
	BYTE	PATT
	 POIN2	TalesofSymphonia-FightingoftheSpirit-RayZa_4_071
// 080   ----------------------------------------
	BYTE		N12     Gn0   v100
	BYTE	W12
	BYTE		        Gn0   v084
	BYTE	W12
	BYTE		        Dn1   v100
	BYTE	W12
	BYTE		N24     Gn0   v076
	BYTE	W24
	BYTE		N12     Gn0   v084
	BYTE	W12
	BYTE		        Dn1   v096
	BYTE	W12
	BYTE		N24     Gn0   v072
	BYTE	W12
// 081   ----------------------------------------
	BYTE	W12
	BYTE		N12     Gn0   v084
	BYTE	W12
	BYTE		        Bn0   v096
	BYTE	W12
	BYTE		        Gn0   v076
	BYTE	W12
	BYTE		        Gn0   v092
	BYTE	W12
	BYTE		        Gn0   v080
	BYTE	W12
	BYTE		        Gn0   v092
	BYTE	W12
	BYTE		        Bn0   v084
	BYTE	W12
// 082   ----------------------------------------
	BYTE		        An0   v096
	BYTE	W12
	BYTE		        An0   v080
	BYTE	W12
	BYTE		        En1   v092
	BYTE	W12
	BYTE		N24     An0   v072
	BYTE	W24
	BYTE		N12     An0   v084
	BYTE	W12
	BYTE		        En1   v100
	BYTE	W12
	BYTE		N24     An0   v076
	BYTE	W12
// 083   ----------------------------------------
	BYTE	W12
	BYTE		N12     An0   v080
	BYTE	W12
	BYTE		        Cn1   v096
	BYTE	W12
	BYTE		        An0   v080
	BYTE	W12
	BYTE		        En1   v104
	BYTE	W12
	BYTE		        An0   v076
	BYTE	W12
	BYTE		        Cn1   v096
	BYTE	W12
	BYTE		        An0   v076
	BYTE	W12
// 084   ----------------------------------------
	BYTE		N17     Fn1   v100
	BYTE	W36
	BYTE		N24     Fn1   v080
	BYTE	W24
	BYTE		N12     Cn1   v076
	BYTE	W12
	BYTE		        Cn1   v092
	BYTE	W12
	BYTE		        Cn1   v080
	BYTE	W12
// 085   ----------------------------------------
	BYTE		N18     Fn1   v100
	BYTE	W18
	BYTE		        Fn1   v084
	BYTE	W18
	BYTE		N24     Fn1   v080
	BYTE	W24
	BYTE		N12     Cn1   v076
	BYTE	W12
	BYTE		        Cn1   v088
	BYTE	W12
	BYTE		        Cn1   v080
	BYTE	W12
// 086   ----------------------------------------
	BYTE		N17     Gn1   v108
	BYTE	W36
	BYTE		N24     Gn1   v084
	BYTE	W24
	BYTE		N12     Dn1   v072
	BYTE	W12
	BYTE		        Dn1   v092
	BYTE	W12
	BYTE		        Dn1   v088
	BYTE	W12
// 087   ----------------------------------------
	BYTE		N18     Gn1   v100
	BYTE	W18
	BYTE		        Gn1   v088
	BYTE	W18
	BYTE		N24     Gn1   v084
	BYTE	W24
	BYTE		N12     Bn1 
	BYTE	W12
	BYTE		        An1 
	BYTE	W12
	BYTE		        Gn1   v080
	BYTE	W12
// 088   ----------------------------------------
	BYTE		N18     Fn1   v088
	BYTE	W18
	BYTE		        Fn1   v084
	BYTE	W18
	BYTE		N24     Fn1   v080
	BYTE	W24
	BYTE		N12     Cn1   v072
	BYTE	W12
	BYTE		        Cn1   v092
	BYTE	W12
	BYTE		        Cn1   v080
	BYTE	W12
// 089   ----------------------------------------
	BYTE		N18     Fn1   v100
	BYTE	W18
	BYTE		        Fn1   v088
	BYTE	W18
	BYTE		N24     Fn1   v080
	BYTE	W24
	BYTE		N12     Cn1   v072
	BYTE	W12
	BYTE		        Cn1   v088
	BYTE	W12
	BYTE		        Cn1   v084
	BYTE	W12
// 090   ----------------------------------------
	BYTE		N17     Gn1   v100
	BYTE	W36
	BYTE		N24     Gn1   v084
	BYTE	W24
	BYTE		N12     Dn1   v080
	BYTE	W12
	BYTE		        Dn1   v092
	BYTE	W12
	BYTE		        Dn1   v080
	BYTE	W12
// 091   ----------------------------------------
	BYTE		        Gn1   v096
	BYTE	W12
	BYTE		        Dn1   v076
	BYTE	W12
	BYTE		        Bn1   v104
	BYTE	W12
	BYTE		        Dn1   v072
	BYTE	W12
	BYTE		        An1   v100
	BYTE	W12
	BYTE		        Dn1   v076
	BYTE	W12
	BYTE		        Gn1   v096
	BYTE	W12
	BYTE		        Dn1   v076
	BYTE	W12
// 092   ----------------------------------------
	BYTE		N17     Fn1   v100
	BYTE	W36
	BYTE		N24     Fn1   v080
	BYTE	W24
	BYTE		N12     Cn1   v076
	BYTE	W12
	BYTE		        Cn1   v092
	BYTE	W12
	BYTE		        Cn1   v088
	BYTE	W12
// 093   ----------------------------------------
	BYTE		N18     Fn1   v104
	BYTE	W18
	BYTE		        Fn1   v088
	BYTE	W18
	BYTE		N24     Fn1   v080
	BYTE	W24
	BYTE		N12     Cn1   v076
	BYTE	W12
	BYTE		        Cn1   v088
	BYTE	W12
	BYTE		        Cn1   v080
	BYTE	W12
// 094   ----------------------------------------
	BYTE		N17     Gn1   v096
	BYTE	W36
	BYTE		N24     Gn1   v080
	BYTE	W24
	BYTE		N12     Dn1 
	BYTE	W12
	BYTE		        Dn1   v088
	BYTE	W12
	BYTE		        Dn1   v080
	BYTE	W12
// 095   ----------------------------------------
	BYTE		N18     Gn1   v096
	BYTE	W18
	BYTE		        Gn1   v084
	BYTE	W18
	BYTE		N24     Gn1   v076
	BYTE	W24
	BYTE		N12     Bn1   v084
	BYTE	W12
	BYTE		        An1   v088
	BYTE	W12
	BYTE		        Gn1   v076
	BYTE	W12
// 096   ----------------------------------------
	BYTE		N18     Fn1   v092
	BYTE	W18
	BYTE		        Fn1   v088
	BYTE	W18
	BYTE		N24     Fn1   v076
	BYTE	W24
	BYTE		N12     Cn1 
	BYTE	W12
	BYTE		        Cn1   v088
	BYTE	W12
	BYTE		        Cn1   v084
	BYTE	W12
// 097   ----------------------------------------
	BYTE		N18     Fn1   v104
	BYTE	W18
	BYTE		        Fn1   v084
	BYTE	W18
	BYTE		N24   
	BYTE	W24
	BYTE		N12     Cn1   v076
	BYTE	W12
	BYTE		        Cn1   v092
	BYTE	W12
	BYTE		        Cn1   v080
	BYTE	W12
// 098   ----------------------------------------
	BYTE		N17     En1   v096
	BYTE	W36
	BYTE		N24     En1   v076
	BYTE	W24
	BYTE		N12     Bn0   v072
	BYTE	W12
	BYTE		        Bn0   v088
	BYTE	W12
	BYTE		        Bn0   v076
	BYTE	W12
// 099   ----------------------------------------
	BYTE		        Bn1   v104
	BYTE	W12
	BYTE		        Gn1   v076
	BYTE	W12
	BYTE		        Dn2   v092
	BYTE	W12
	BYTE		        Gn1   v072
	BYTE	W12
	BYTE		        Cn2   v100
	BYTE	W12
	BYTE		        Gn1   v080
	BYTE	W12
	BYTE		        Bn1   v096
	BYTE	W12
	BYTE		        Gn1   v080
	BYTE	W12
// 100   ----------------------------------------
	BYTE		        An0 
	BYTE	W12
	BYTE		N12   
	BYTE	W12
	BYTE		        En1   v092
	BYTE	W12
	BYTE		N24     An0   v076
	BYTE	W24
	BYTE		N12     An0   v080
	BYTE	W12
	BYTE		        En1   v096
	BYTE	W12
	BYTE		N24     An0   v072
	BYTE	W12
// 101   ----------------------------------------
	BYTE	W12
	BYTE		N12     An0   v080
	BYTE	W12
	BYTE		        Cn1   v092
	BYTE	W12
	BYTE		        An0   v084
	BYTE	W12
	BYTE		        En1   v104
	BYTE	W12
	BYTE		        An0   v076
	BYTE	W12
	BYTE		        Cn1   v092
	BYTE	W12
	BYTE		        An0   v076
	BYTE	W12
// 102   ----------------------------------------
	BYTE		        Fn0   v088
	BYTE	W12
	BYTE		        Fn0   v080
	BYTE	W12
	BYTE		        Cn1   v100
	BYTE	W12
	BYTE		N24     Fn0   v076
	BYTE	W24
	BYTE		N12     Fn0   v080
	BYTE	W12
	BYTE		        Cn1   v100
	BYTE	W12
	BYTE		N24     Fn0   v072
	BYTE	W12
// 103   ----------------------------------------
	BYTE	W12
	BYTE		N12     Fn0   v084
	BYTE	W12
	BYTE		        An0   v096
	BYTE	W12
	BYTE		        Fn0   v076
	BYTE	W12
	BYTE		        Cn1   v096
	BYTE	W12
	BYTE		        Fn0   v072
	BYTE	W12
	BYTE		        An0   v096
	BYTE	W12
	BYTE		        Fn0   v076
	BYTE	W12
// 104   ----------------------------------------
	BYTE		        Gn0   v092
	BYTE	W12
	BYTE		        Gn0   v080
	BYTE	W12
	BYTE		        Dn1   v100
	BYTE	W12
	BYTE		N24     Gn0   v076
	BYTE	W24
	BYTE		N12     Gn0   v084
	BYTE	W12
	BYTE		        Dn1   v096
	BYTE	W12
	BYTE		N24     Gn0   v080
	BYTE	W12
// 105   ----------------------------------------
	BYTE	W12
	BYTE		N12     Gn0   v084
	BYTE	W12
	BYTE		        Bn0   v100
	BYTE	W12
	BYTE		        Gn0   v080
	BYTE	W12
	BYTE		        Gn0   v096
	BYTE	W12
	BYTE		        Gn0   v080
	BYTE	W12
	BYTE		        Gn0   v092
	BYTE	W12
	BYTE		        Bn0   v088
	BYTE	W12
// 106   ----------------------------------------
	BYTE		        An0   v092
	BYTE	W12
	BYTE		        An0   v080
	BYTE	W12
	BYTE		        En1   v096
	BYTE	W12
	BYTE		N24     An0   v072
	BYTE	W24
	BYTE		N12   
	BYTE	W12
	BYTE		        En1   v096
	BYTE	W12
	BYTE		N24     An0   v076
	BYTE	W12
// 107   ----------------------------------------
	BYTE	W12
	BYTE		N12     An0   v080
	BYTE	W12
	BYTE		        Cn1   v096
	BYTE	W12
	BYTE		        An0   v076
	BYTE	W12
	BYTE		        En1   v100
	BYTE	W12
	BYTE		        An0   v072
	BYTE	W12
	BYTE		        Cn1   v088
	BYTE	W12
	BYTE		        An0   v072
	BYTE	W12
// 108   ----------------------------------------
	BYTE		        An0   v088
	BYTE	W12
	BYTE		        An0   v084
	BYTE	W12
	BYTE		        En1   v100
	BYTE	W12
	BYTE		N24     An0   v072
	BYTE	W24
	BYTE		N12     An0   v080
	BYTE	W12
	BYTE		        En1   v096
	BYTE	W12
	BYTE		N24     An0   v076
	BYTE	W12
// 109   ----------------------------------------
	BYTE	W12
	BYTE		N12     An0   v080
	BYTE	W12
	BYTE		        Cn1   v088
	BYTE	W12
	BYTE		        An0   v076
	BYTE	W12
	BYTE		        En1   v100
	BYTE	W12
	BYTE		        An0   v076
	BYTE	W12
	BYTE		        Cn1   v088
	BYTE	W12
	BYTE		        An0   v080
	BYTE	W12
// 110   ----------------------------------------
	BYTE		        Fn0   v088
	BYTE	W12
	BYTE		        Fn0   v080
	BYTE	W12
	BYTE		        Cn1   v092
	BYTE	W12
	BYTE		N24     Fn0   v072
	BYTE	W24
	BYTE		N12     Fn0   v076
	BYTE	W12
	BYTE		        Cn1   v100
	BYTE	W12
	BYTE		N24     Fn0   v072
	BYTE	W12
// 111   ----------------------------------------
	BYTE	W12
	BYTE		N12     Fn0   v084
	BYTE	W12
	BYTE		        An0   v096
	BYTE	W12
	BYTE		        Fn0   v076
	BYTE	W12
	BYTE		        Cn1   v100
	BYTE	W12
	BYTE		        Fn0   v072
	BYTE	W12
	BYTE		        An0   v092
	BYTE	W12
	BYTE		        Fn0   v076
	BYTE	W12
// 112   ----------------------------------------
	BYTE		        Gn0   v092
	BYTE	W12
	BYTE		        Gn0   v080
	BYTE	W12
	BYTE		        Dn1   v096
	BYTE	W12
	BYTE		N24     Gn0   v076
	BYTE	W24
	BYTE		N12     Gn0   v080
	BYTE	W12
	BYTE		        Dn1   v096
	BYTE	W12
	BYTE		N24     Gn0   v072
	BYTE	W12
// 113   ----------------------------------------
	BYTE	W12
	BYTE		N12     Gn0   v080
	BYTE	W12
	BYTE		        Bn0   v096
	BYTE	W12
	BYTE		        Gn0   v080
	BYTE	W12
	BYTE		        Gn0   v092
	BYTE	W12
	BYTE		        Gn0   v084
	BYTE	W12
	BYTE		N12   
	BYTE	W12
	BYTE		        Bn0 
	BYTE	W12
// 114   ----------------------------------------
	BYTE		        An0   v092
	BYTE	W12
	BYTE		        An0   v084
	BYTE	W12
	BYTE		        En1   v096
	BYTE	W12
	BYTE		N24     An0   v076
	BYTE	W24
	BYTE		N12     An0   v084
	BYTE	W12
	BYTE		        En1   v096
	BYTE	W12
	BYTE		N24     An0   v072
	BYTE	W12
// 115   ----------------------------------------
	BYTE	W12
	BYTE		N12     An0   v080
	BYTE	W12
	BYTE		        Cn1   v092
	BYTE	W12
	BYTE		        An0   v080
	BYTE	W12
	BYTE		        En1   v100
	BYTE	W12
	BYTE		        An0   v076
	BYTE	W12
	BYTE		        Cn1   v092
	BYTE	W12
	BYTE		        An0   v080
	BYTE	W12
// 116   ----------------------------------------
	BYTE		        An0   v092
	BYTE	W12
	BYTE		        An0   v072
	BYTE	W12
	BYTE		        An0   v092
	BYTE	W12
	BYTE		N05     An0   v084
	BYTE	W24
	BYTE		N24     An0   v072
	BYTE	W24
	BYTE		        An0   v080
	BYTE	W12
// 117   ----------------------------------------
TalesofSymphonia-FightingoftheSpirit-RayZa_4_117:
	BYTE	W12
	BYTE		N12     An0   v080
	BYTE	W12
	BYTE		N24     An0   v088
	BYTE	W24
	BYTE		N48     An0   v092
	BYTE	W48
	BYTE	PEND
// 118   ----------------------------------------
	BYTE		N12     Fn0 
	BYTE	W12
	BYTE		        Fn0   v076
	BYTE	W12
	BYTE		        Fn0   v088
	BYTE	W12
	BYTE		N05     Fn0   v080
	BYTE	W24
	BYTE		N24     Fn0   v076
	BYTE	W24
	BYTE		N24   
	BYTE	W12
// 119   ----------------------------------------
	BYTE	W12
	BYTE		N12     Fn0   v080
	BYTE	W12
	BYTE		N24     Fn0   v088
	BYTE	W24
	BYTE		N48     Fn0   v096
	BYTE	W48
// 120   ----------------------------------------
	BYTE		N12     Gn0 
	BYTE	W12
	BYTE		        Gn0   v084
	BYTE	W12
	BYTE		        Gn0   v088
	BYTE	W12
	BYTE		N05     Gn0   v080
	BYTE	W24
	BYTE		N24     Gn0   v072
	BYTE	W24
	BYTE		        Gn0   v080
	BYTE	W12
// 121   ----------------------------------------
	BYTE	PATT
	 POIN2	TalesofSymphonia-FightingoftheSpirit-RayZa_4_065
// 122   ----------------------------------------
	BYTE		N12     An0   v096
	BYTE	W12
	BYTE		        An0   v080
	BYTE	W12
	BYTE		        An0   v092
	BYTE	W12
	BYTE		N05     An0   v080
	BYTE	W24
	BYTE		N24     An0   v076
	BYTE	W24
	BYTE		N24   
	BYTE	W12
// 123   ----------------------------------------
	BYTE	PATT
	 POIN2	TalesofSymphonia-FightingoftheSpirit-RayZa_4_117
// 124   ----------------------------------------
	BYTE		N12     An0   v096
	BYTE	W12
	BYTE		        An0   v084
	BYTE	W12
	BYTE		N12   
	BYTE	W12
	BYTE		N05     An0   v080
	BYTE	W24
	BYTE		N24     An0   v072
	BYTE	W24
	BYTE		        An0   v084
	BYTE	W12
// 125   ----------------------------------------
	BYTE	W12
	BYTE		N12     An0   v076
	BYTE	W12
	BYTE		N24     An0   v080
	BYTE	W24
	BYTE		N48     An0   v096
	BYTE	W48
// 126   ----------------------------------------
	BYTE		N12     Fn0   v088
	BYTE	W12
	BYTE		        Fn0   v080
	BYTE	W12
	BYTE		        Fn0   v088
	BYTE	W12
	BYTE		N05     Fn0   v084
	BYTE	W24
	BYTE		N24     Fn0   v072
	BYTE	W24
	BYTE		        Fn0   v080
	BYTE	W12
// 127   ----------------------------------------
	BYTE	W12
	BYTE		N12   
	BYTE	W12
	BYTE		N24     Fn0   v088
	BYTE	W24
	BYTE		N48   
	BYTE	W48
// 128   ----------------------------------------
	BYTE		N12     Gn0   v100
	BYTE	W12
	BYTE		        Gn0   v076
	BYTE	W12
	BYTE		        Gn0   v088
	BYTE	W12
	BYTE		N05     Gn0   v080
	BYTE	W24
	BYTE		N24     Gn0   v072
	BYTE	W24
	BYTE		        Gn0   v076
	BYTE	W12
// 129   ----------------------------------------
	BYTE	W12
	BYTE		N12     Gn0   v080
	BYTE	W12
	BYTE		N24     Gn0   v092
	BYTE	W24
	BYTE		N48   
	BYTE	W48
// 130   ----------------------------------------
	BYTE		N12     An0   v096
	BYTE	W12
	BYTE		        An0   v084
	BYTE	W12
	BYTE		        An0   v088
	BYTE	W12
	BYTE		N05     An0   v080
	BYTE	W24
	BYTE		N24     An0   v072
	BYTE	W24
	BYTE		        An0   v080
	BYTE	W12
// 131   ----------------------------------------
	BYTE	W12
	BYTE		N12   
	BYTE	W12
	BYTE		N24     An0   v088
	BYTE	W24
	BYTE		N48     An0   v096
	BYTE	W48
// 132   ----------------------------------------
	BYTE	PATT
	 POIN2	TalesofSymphonia-FightingoftheSpirit-RayZa_4_068
// 133   ----------------------------------------
	BYTE	W12
	BYTE		N12     An0   v080
	BYTE	W12
	BYTE		        Cn1   v096
	BYTE	W12
	BYTE		        An0   v080
	BYTE	W12
	BYTE		        En1   v100
	BYTE	W12
	BYTE		        An0   v072
	BYTE	W12
	BYTE		        Cn1   v096
	BYTE	W12
	BYTE		        An0   v080
	BYTE	W12
// 134   ----------------------------------------
	BYTE		        Fn0   v088
	BYTE	W12
	BYTE		        Fn0   v080
	BYTE	W12
	BYTE		        Cn1   v096
	BYTE	W12
	BYTE		N24     Fn0   v076
	BYTE	W24
	BYTE		N12     Fn0   v080
	BYTE	W12
	BYTE		        Cn1   v096
	BYTE	W12
	BYTE		N24     Fn0   v076
	BYTE	W12
// 135   ----------------------------------------
	BYTE	W12
	BYTE		N12     Fn0   v084
	BYTE	W12
	BYTE		        An0   v092
	BYTE	W12
	BYTE		        Fn0   v080
	BYTE	W12
	BYTE		        Cn1   v100
	BYTE	W12
	BYTE		        Fn0   v076
	BYTE	W12
	BYTE		        An0   v096
	BYTE	W12
	BYTE		        Fn0   v076
	BYTE	W12
// 136   ----------------------------------------
	BYTE		        Gn0   v100
	BYTE	W12
	BYTE		        Gn0   v080
	BYTE	W12
	BYTE		        Dn1   v096
	BYTE	W12
	BYTE		N24     Gn0   v076
	BYTE	W24
	BYTE		N12     Gn0   v080
	BYTE	W12
	BYTE		        Dn1   v092
	BYTE	W12
	BYTE		N24     Gn0   v080
	BYTE	W12
// 137   ----------------------------------------
	BYTE	PATT
	 POIN2	TalesofSymphonia-FightingoftheSpirit-RayZa_4_009
// 138   ----------------------------------------
	BYTE		N12     An0   v092
	BYTE	W12
	BYTE		        An0   v080
	BYTE	W12
	BYTE		        En1   v100
	BYTE	W12
	BYTE		N24     An0   v072
	BYTE	W24
	BYTE		N12     An0   v080
	BYTE	W12
	BYTE		        En1   v096
	BYTE	W12
	BYTE		N24     An0   v072
	BYTE	W12
// 139   ----------------------------------------
	BYTE	W12
	BYTE		N12     An0   v084
	BYTE	W12
	BYTE		        Cn1   v092
	BYTE	W12
	BYTE		        An0   v076
	BYTE	W12
	BYTE		        En1   v104
	BYTE	W12
	BYTE		        An0   v068
	BYTE	W12
	BYTE		        Cn1   v092
	BYTE	W12
	BYTE		        An0   v076
	BYTE	W12
// 140   ----------------------------------------
	BYTE		        An0   v096
	BYTE	W12
	BYTE		        An0   v076
	BYTE	W12
	BYTE		        En1   v100
	BYTE	W12
	BYTE		N24     An0   v072
	BYTE	W24
	BYTE		N12     An0   v080
	BYTE	W12
	BYTE		        En1   v092
	BYTE	W12
	BYTE		N24     An0   v076
	BYTE	W12
// 141   ----------------------------------------
	BYTE	W12
	BYTE		N12     An0   v080
	BYTE	W12
	BYTE		        Cn1   v096
	BYTE	W12
	BYTE		        An0   v076
	BYTE	W12
	BYTE		        En1   v100
	BYTE	W12
	BYTE		        An0   v076
	BYTE	W12
	BYTE		        Cn1   v092
	BYTE	W12
	BYTE		        An0   v084
	BYTE	W12
// 142   ----------------------------------------
	BYTE	PATT
	 POIN2	TalesofSymphonia-FightingoftheSpirit-RayZa_4_006
// 143   ----------------------------------------
	BYTE	W12
	BYTE		N12     Fn0   v080
	BYTE	W12
	BYTE		        An0   v092
	BYTE	W12
	BYTE		        Fn0   v076
	BYTE	W12
	BYTE		        Cn1   v100
	BYTE	W12
	BYTE		        Fn0   v072
	BYTE	W12
	BYTE		        An0   v092
	BYTE	W12
	BYTE		        Fn0   v076
	BYTE	W12
// 144   ----------------------------------------
	BYTE		        Gn0   v096
	BYTE	W12
	BYTE		        Gn0   v080
	BYTE	W12
	BYTE		        Dn1   v092
	BYTE	W12
	BYTE		N24     Gn0   v080
	BYTE	W24
	BYTE		N12     Gn0   v084
	BYTE	W12
	BYTE		        Dn1   v096
	BYTE	W12
	BYTE		N24     Gn0   v076
	BYTE	W12
// 145   ----------------------------------------
	BYTE	W12
	BYTE		N12   
	BYTE	W12
	BYTE		        Bn0   v096
	BYTE	W12
	BYTE		        Gn0   v076
	BYTE	W12
	BYTE		        Gn0   v088
	BYTE	W12
	BYTE		        Gn0   v080
	BYTE	W12
	BYTE		        Gn0   v088
	BYTE	W12
	BYTE		        Bn0   v084
	BYTE	W12
// 146   ----------------------------------------
	BYTE		        An0   v092
	BYTE	W12
	BYTE		        An0   v080
	BYTE	W12
	BYTE		        En1   v092
	BYTE	W12
	BYTE		N24     An0   v072
	BYTE	W24
	BYTE		N12     An0   v080
	BYTE	W12
	BYTE		        En1   v096
	BYTE	W12
	BYTE		N24     An0   v076
	BYTE	W12
// 147   ----------------------------------------
	BYTE	W12
	BYTE		N12     An0   v080
	BYTE	W12
	BYTE		        Cn1   v092
	BYTE	W12
	BYTE		        An0   v084
	BYTE	W12
	BYTE		        En1   v100
	BYTE	W12
	BYTE		        An0   v072
	BYTE	W12
	BYTE		        Cn1   v088
	BYTE	W12
	BYTE		        An0   v080
	BYTE	W12
// 148   ----------------------------------------
	BYTE	FINE

//**************** Track 5 (Midi-Chn.5) ****************//

TalesofSymphonia-FightingoftheSpirit-RayZa_5:
	BYTE	KEYSH   TalesofSymphonia-FightingoftheSpirit-RayZa_key+0
// 000   ----------------------------------------
	BYTE		VOICE   6
	BYTE		PAN     c_v+12
	BYTE		VOL     94*TalesofSymphonia-FightingoftheSpirit-RayZa_mvl/mxv
	BYTE		N12     En4   v080
	BYTE	W12
	BYTE		        An3   v064
	BYTE	W12
	BYTE		        Cn4   v092
	BYTE	W12
	BYTE		        An3   v076
	BYTE	W12
	BYTE		        Dn4   v104
	BYTE	W12
	BYTE		        An3   v076
	BYTE	W12
	BYTE		        Cn4   v100
	BYTE	W12
	BYTE		        Gn3   v068
	BYTE	W12
// 001   ----------------------------------------
	BYTE		        En4   v112
	BYTE	W12
	BYTE		        An3   v068
	BYTE	W12
	BYTE		        Cn4   v092
	BYTE	W12
	BYTE		        An3   v076
	BYTE	W12
	BYTE		        Dn4   v108
	BYTE	W12
	BYTE		        An3   v072
	BYTE	W12
	BYTE		        Cn4   v096
	BYTE	W12
	BYTE		        Gn3   v072
	BYTE	W12
// 002   ----------------------------------------
	BYTE		        En4   v112
	BYTE	W12
	BYTE		        An3   v072
	BYTE	W12
	BYTE		        Cn4   v096
	BYTE	W12
	BYTE		        An3   v076
	BYTE	W12
	BYTE		        Dn4   v104
	BYTE	W12
	BYTE		        An3   v076
	BYTE	W12
	BYTE		        Cn4   v092
	BYTE	W12
	BYTE		        Gn3   v068
	BYTE	W12
// 003   ----------------------------------------
	BYTE		        En4   v116
	BYTE	W12
	BYTE		        An3   v068
	BYTE	W12
	BYTE		        Cn4   v096
	BYTE	W12
	BYTE		        An3   v076
	BYTE	W12
	BYTE		        An3   v092
	BYTE	W12
	BYTE		        Bn3   v088
	BYTE	W12
	BYTE		        Cn4   v096
	BYTE	W12
	BYTE		        En4   v088
	BYTE	W12
// 004   ----------------------------------------
	BYTE		        En4   v100
	BYTE	W12
	BYTE		        An3   v068
	BYTE	W12
	BYTE		        Cn4   v096
	BYTE	W12
	BYTE		        An3   v076
	BYTE	W12
	BYTE		        Dn4   v108
	BYTE	W12
	BYTE		        An3   v072
	BYTE	W12
	BYTE		N24     Cn4   v092
	BYTE	W24
// 005   ----------------------------------------
	BYTE		N12     En4   v104
	BYTE	W12
	BYTE		        An3   v068
	BYTE	W12
	BYTE		        Cn4   v096
	BYTE	W12
	BYTE		        An3   v076
	BYTE	W12
	BYTE		        Dn4   v104
	BYTE	W12
	BYTE		        An3   v072
	BYTE	W12
	BYTE		N24     Cn4   v092
	BYTE	W24
// 006   ----------------------------------------
	BYTE		N12     En4   v104
	BYTE	W12
	BYTE		        An3   v064
	BYTE	W12
	BYTE		        Cn4   v100
	BYTE	W12
	BYTE		        An3   v072
	BYTE	W12
	BYTE		        Dn4   v108
	BYTE	W12
	BYTE		        An3   v076
	BYTE	W12
	BYTE		        Cn4   v096
	BYTE	W12
	BYTE		        Gn3   v072
	BYTE	W12
// 007   ----------------------------------------
	BYTE		        En4   v108
	BYTE	W12
	BYTE		        An3   v068
	BYTE	W12
	BYTE		        Cn4   v096
	BYTE	W12
	BYTE		        An3   v076
	BYTE	W12
	BYTE		        Dn4   v100
	BYTE	W12
	BYTE		        An3   v068
	BYTE	W12
	BYTE		        Cn4   v100
	BYTE	W12
	BYTE		        Gn3   v068
	BYTE	W12
// 008   ----------------------------------------
	BYTE		        En4   v108
	BYTE	W12
	BYTE		        An3   v068
	BYTE	W12
	BYTE		        Cn4   v096
	BYTE	W12
	BYTE		        An3   v080
	BYTE	W12
	BYTE		        Dn4   v104
	BYTE	W12
	BYTE		        An3   v072
	BYTE	W12
	BYTE		N24     Cn4   v096
	BYTE	W24
// 009   ----------------------------------------
	BYTE		N12     En4   v104
	BYTE	W12
	BYTE		        An3   v068
	BYTE	W12
	BYTE		        Cn4   v088
	BYTE	W12
	BYTE		        An3   v076
	BYTE	W12
	BYTE		        Dn4   v100
	BYTE	W12
	BYTE		        An3   v076
	BYTE	W12
	BYTE		N24     Cn4   v096
	BYTE	W24
// 010   ----------------------------------------
	BYTE		N12     En4   v104
	BYTE	W12
	BYTE		        An3   v068
	BYTE	W12
	BYTE		        Cn4   v092
	BYTE	W12
	BYTE		        An3   v072
	BYTE	W12
	BYTE		        Dn4   v100
	BYTE	W12
	BYTE		        An3   v068
	BYTE	W12
	BYTE		        Cn4   v092
	BYTE	W12
	BYTE		        Gn3   v072
	BYTE	W12
// 011   ----------------------------------------
	BYTE		        En4   v112
	BYTE	W12
	BYTE		        An3   v064
	BYTE	W12
	BYTE		        Cn4   v096
	BYTE	W12
	BYTE		        An3   v076
	BYTE	W12
	BYTE		        An3   v096
	BYTE	W12
	BYTE		        Bn3   v088
	BYTE	W12
	BYTE		        Cn4   v096
	BYTE	W12
	BYTE		        En4   v088
	BYTE	W12
// 012   ----------------------------------------
	BYTE		        En4   v092
	BYTE	W12
	BYTE		        An3   v068
	BYTE	W12
	BYTE		        Cn4   v092
	BYTE	W12
	BYTE		        An3   v072
	BYTE	W12
	BYTE		        Dn4   v108
	BYTE	W12
	BYTE		        An3   v072
	BYTE	W12
	BYTE		N24     Cn4   v096
	BYTE	W24
// 013   ----------------------------------------
TalesofSymphonia-FightingoftheSpirit-RayZa_5_013:
	BYTE		N12     En4   v104
	BYTE	W12
	BYTE		        An3   v068
	BYTE	W12
	BYTE		        Cn4   v096
	BYTE	W12
	BYTE		        An3   v076
	BYTE	W12
	BYTE		        Dn4   v104
	BYTE	W12
	BYTE		        An3   v072
	BYTE	W12
	BYTE		N24     Cn4   v096
	BYTE	W24
	BYTE	PEND
// 014   ----------------------------------------
	BYTE		N12     En4   v100
	BYTE	W12
	BYTE		        An3   v068
	BYTE	W12
	BYTE		        Cn4   v096
	BYTE	W12
	BYTE		        An3   v072
	BYTE	W12
	BYTE		        Dn4   v100
	BYTE	W12
	BYTE		        An3   v068
	BYTE	W12
	BYTE		        Cn4   v092
	BYTE	W12
	BYTE		        Gn3   v068
	BYTE	W12
// 015   ----------------------------------------
	BYTE		        En4   v112
	BYTE	W12
	BYTE		        An3   v068
	BYTE	W12
	BYTE		        Cn4   v092
	BYTE	W12
	BYTE		        An3   v076
	BYTE	W12
	BYTE		        Dn4   v108
	BYTE	W12
	BYTE		        An3   v072
	BYTE	W12
	BYTE		        Cn4   v092
	BYTE	W12
	BYTE		        Gn3   v072
	BYTE	W12
// 016   ----------------------------------------
	BYTE		        En4   v116
	BYTE	W12
	BYTE		        An3   v068
	BYTE	W12
	BYTE		        Cn4   v096
	BYTE	W12
	BYTE		        An3   v076
	BYTE	W12
	BYTE		        Dn4   v108
	BYTE	W12
	BYTE		        An3   v076
	BYTE	W12
	BYTE		N24     Cn4   v096
	BYTE	W24
// 017   ----------------------------------------
	BYTE		N12     En4   v112
	BYTE	W12
	BYTE		        An3   v068
	BYTE	W12
	BYTE		        Cn4   v092
	BYTE	W12
	BYTE		        An3   v072
	BYTE	W12
	BYTE		        Dn4   v100
	BYTE	W12
	BYTE		        An3   v076
	BYTE	W12
	BYTE		N24     Cn4   v092
	BYTE	W24
// 018   ----------------------------------------
	BYTE		N12     En4   v104
	BYTE	W12
	BYTE		        An3   v064
	BYTE	W12
	BYTE		        Cn4   v096
	BYTE	W12
	BYTE		        An3   v072
	BYTE	W12
	BYTE		        Dn4   v104
	BYTE	W12
	BYTE		        An3   v072
	BYTE	W12
	BYTE		        Cn4   v096
	BYTE	W12
	BYTE		        Gn3   v072
	BYTE	W12
// 019   ----------------------------------------
	BYTE		        En4   v116
	BYTE	W12
	BYTE		        An3   v068
	BYTE	W12
	BYTE		        Cn4   v096
	BYTE	W12
	BYTE		        An3   v072
	BYTE	W12
	BYTE		        An3   v092
	BYTE	W12
	BYTE		        Bn3   v088
	BYTE	W12
	BYTE		        Cn4   v096
	BYTE	W12
	BYTE		        En4   v088
	BYTE	W12
// 020   ----------------------------------------
	BYTE		        En4   v080
	BYTE	W12
	BYTE		        An3   v056
	BYTE	W12
	BYTE		        Cn4   v080
	BYTE	W12
	BYTE		        An3   v056
	BYTE	W12
	BYTE		        Dn4   v088
	BYTE	W12
	BYTE		        An3   v060
	BYTE	W12
	BYTE		        Cn4   v084
	BYTE	W12
	BYTE		        Gn3   v060
	BYTE	W12
// 021   ----------------------------------------
	BYTE		        En4   v092
	BYTE	W12
	BYTE		        An3   v056
	BYTE	W12
	BYTE		        Cn4   v076
	BYTE	W12
	BYTE		        An3   v064
	BYTE	W12
	BYTE		        Dn4   v084
	BYTE	W12
	BYTE		        An3   v064
	BYTE	W12
	BYTE		        Cn4   v084
	BYTE	W12
	BYTE		        Gn3   v056
	BYTE	W12
// 022   ----------------------------------------
	BYTE		        En4   v096
	BYTE	W12
	BYTE		        An3   v052
	BYTE	W12
	BYTE		        Cn4   v080
	BYTE	W12
	BYTE		        An3   v064
	BYTE	W12
	BYTE		        Dn4   v092
	BYTE	W12
	BYTE		        An3   v060
	BYTE	W12
	BYTE		        Cn4   v080
	BYTE	W12
	BYTE		        Gn3   v064
	BYTE	W12
// 023   ----------------------------------------
	BYTE		        En4   v100
	BYTE	W12
	BYTE		        An3   v056
	BYTE	W12
	BYTE		        Cn4   v080
	BYTE	W12
	BYTE		        An3   v064
	BYTE	W12
	BYTE		        Dn4   v088
	BYTE	W12
	BYTE		        An3   v064
	BYTE	W12
	BYTE		        Cn4   v076
	BYTE	W12
	BYTE		        Gn3   v060
	BYTE	W12
// 024   ----------------------------------------
	BYTE		        En4   v100
	BYTE	W12
	BYTE		        An3   v060
	BYTE	W12
	BYTE		        Cn4   v076
	BYTE	W12
	BYTE		        An3   v064
	BYTE	W12
	BYTE		        Dn4   v088
	BYTE	W12
	BYTE		        An3   v060
	BYTE	W12
	BYTE		        Cn4   v080
	BYTE	W12
	BYTE		        Gn3   v060
	BYTE	W12
// 025   ----------------------------------------
	BYTE		        En4   v096
	BYTE	W12
	BYTE		        An3   v056
	BYTE	W12
	BYTE		        Cn4   v080
	BYTE	W12
	BYTE		        An3   v064
	BYTE	W12
	BYTE		        Dn4   v088
	BYTE	W12
	BYTE		        An3   v060
	BYTE	W12
	BYTE		        Cn4   v080
	BYTE	W12
	BYTE		        Gn3   v060
	BYTE	W12
// 026   ----------------------------------------
	BYTE		        En4   v092
	BYTE	W12
	BYTE		        An3   v060
	BYTE	W12
	BYTE		        Cn4   v076
	BYTE	W12
	BYTE		        An3   v060
	BYTE	W12
	BYTE		        Dn4   v092
	BYTE	W12
	BYTE		        An3   v068
	BYTE	W12
	BYTE		        Cn4   v084
	BYTE	W12
	BYTE		        Gn3   v064
	BYTE	W12
// 027   ----------------------------------------
	BYTE		        En4   v096
	BYTE	W12
	BYTE		        An3   v060
	BYTE	W12
	BYTE		        Cn4   v084
	BYTE	W12
	BYTE		        An3   v064
	BYTE	W12
	BYTE		        An3   v080
	BYTE	W12
	BYTE		        Bn3   v076
	BYTE	W12
	BYTE		        Cn4   v084
	BYTE	W12
	BYTE		        En4   v080
	BYTE	W12
// 028   ----------------------------------------
	BYTE		        En4   v084
	BYTE	W12
	BYTE		        An3   v056
	BYTE	W12
	BYTE		        Cn4   v076
	BYTE	W12
	BYTE		        An3   v060
	BYTE	W12
	BYTE		        Dn4   v092
	BYTE	W12
	BYTE		        An3   v060
	BYTE	W12
	BYTE		        Cn4   v076
	BYTE	W12
	BYTE		        Gn3   v056
	BYTE	W12
// 029   ----------------------------------------
	BYTE		        En4   v096
	BYTE	W12
	BYTE		        An3   v060
	BYTE	W12
	BYTE		        Cn4   v080
	BYTE	W12
	BYTE		        An3   v060
	BYTE	W12
	BYTE		        Dn4   v088
	BYTE	W12
	BYTE		        An3   v060
	BYTE	W12
	BYTE		        Cn4   v080
	BYTE	W12
	BYTE		        Gn3   v064
	BYTE	W12
// 030   ----------------------------------------
	BYTE		        En4   v096
	BYTE	W12
	BYTE		        An3   v060
	BYTE	W12
	BYTE		        Cn4   v084
	BYTE	W12
	BYTE		        An3   v064
	BYTE	W12
	BYTE		        Dn4   v084
	BYTE	W12
	BYTE		        An3   v064
	BYTE	W12
	BYTE		        Cn4   v080
	BYTE	W12
	BYTE		        Gn3   v060
	BYTE	W12
// 031   ----------------------------------------
	BYTE		        En4   v092
	BYTE	W12
	BYTE		        An3   v060
	BYTE	W12
	BYTE		        Cn4   v080
	BYTE	W12
	BYTE		        An3   v064
	BYTE	W12
	BYTE		        Dn4   v088
	BYTE	W12
	BYTE		        An3   v060
	BYTE	W12
	BYTE		        Cn4   v084
	BYTE	W12
	BYTE		        Gn3   v060
	BYTE	W12
// 032   ----------------------------------------
	BYTE		        En4   v092
	BYTE	W12
	BYTE		        An3   v060
	BYTE	W12
	BYTE		        Cn4   v080
	BYTE	W12
	BYTE		        An3   v064
	BYTE	W12
	BYTE		        Dn4   v084
	BYTE	W12
	BYTE		        An3   v056
	BYTE	W12
	BYTE		        Cn4   v080
	BYTE	W12
	BYTE		        Gn3   v064
	BYTE	W12
// 033   ----------------------------------------
	BYTE		        En4   v092
	BYTE	W12
	BYTE		        An3   v056
	BYTE	W12
	BYTE		        Cn4   v080
	BYTE	W12
	BYTE		        An3   v060
	BYTE	W12
	BYTE		        Dn4   v088
	BYTE	W12
	BYTE		        An3   v060
	BYTE	W12
	BYTE		        Cn4   v080
	BYTE	W12
	BYTE		        Gn3   v056
	BYTE	W12
// 034   ----------------------------------------
	BYTE		        En4   v096
	BYTE	W12
	BYTE		        An3   v060
	BYTE	W12
	BYTE		        Cn4   v080
	BYTE	W12
	BYTE		        An3   v064
	BYTE	W12
	BYTE		        Dn4   v096
	BYTE	W12
	BYTE		        An3   v064
	BYTE	W12
	BYTE		        Cn4   v080
	BYTE	W12
	BYTE		        Gn3   v060
	BYTE	W12
// 035   ----------------------------------------
	BYTE		        En4   v096
	BYTE	W12
	BYTE		        An3   v060
	BYTE	W12
	BYTE		        Cn4   v080
	BYTE	W12
	BYTE		        An3   v064
	BYTE	W12
	BYTE		        An3   v080
	BYTE	W12
	BYTE		        Bn3   v072
	BYTE	W12
	BYTE		        Cn4   v080
	BYTE	W12
	BYTE		        En4   v076
	BYTE	W12
// 036   ----------------------------------------
	BYTE		        En4   v092
	BYTE	W12
	BYTE		        An3   v068
	BYTE	W12
	BYTE		        Cn4   v096
	BYTE	W12
	BYTE		        An3   v076
	BYTE	W12
	BYTE		        Dn4   v104
	BYTE	W12
	BYTE		        An3   v064
	BYTE	W12
	BYTE		N24     Cn4   v096
	BYTE	W24
// 037   ----------------------------------------
	BYTE		N12     En4   v104
	BYTE	W12
	BYTE		        An3   v068
	BYTE	W12
	BYTE		        Cn4   v104
	BYTE	W12
	BYTE		        An3   v072
	BYTE	W12
	BYTE		        Dn4   v100
	BYTE	W12
	BYTE		        An3   v072
	BYTE	W12
	BYTE		N24     Cn4   v096
	BYTE	W24
// 038   ----------------------------------------
	BYTE		N12     En4   v104
	BYTE	W12
	BYTE		        An3   v064
	BYTE	W12
	BYTE		        Cn4   v092
	BYTE	W12
	BYTE		        An3   v076
	BYTE	W12
	BYTE		        Dn4   v108
	BYTE	W12
	BYTE		        An3   v064
	BYTE	W12
	BYTE		        Cn4   v096
	BYTE	W12
	BYTE		        Gn3   v064
	BYTE	W12
// 039   ----------------------------------------
	BYTE		        En4   v116
	BYTE	W12
	BYTE		        An3   v068
	BYTE	W12
	BYTE		        Cn4   v092
	BYTE	W12
	BYTE		        An3   v076
	BYTE	W12
	BYTE		        Dn4   v104
	BYTE	W12
	BYTE		        An3   v068
	BYTE	W12
	BYTE		        Cn4   v096
	BYTE	W12
	BYTE		        Gn3   v068
	BYTE	W12
// 040   ----------------------------------------
	BYTE		        En4   v112
	BYTE	W12
	BYTE		        An3   v064
	BYTE	W12
	BYTE		        Cn4   v092
	BYTE	W12
	BYTE		        An3   v076
	BYTE	W12
	BYTE		        Dn4   v108
	BYTE	W12
	BYTE		        An3   v072
	BYTE	W12
	BYTE		N24     Cn4   v092
	BYTE	W24
// 041   ----------------------------------------
	BYTE		N12     En4   v104
	BYTE	W12
	BYTE		        An3   v068
	BYTE	W12
	BYTE		        Cn4   v092
	BYTE	W12
	BYTE		        An3   v072
	BYTE	W12
	BYTE		        Dn4   v104
	BYTE	W12
	BYTE		        An3   v072
	BYTE	W12
	BYTE		N24     Cn4   v092
	BYTE	W24
// 042   ----------------------------------------
	BYTE		N12     En4   v104
	BYTE	W12
	BYTE		        An3   v072
	BYTE	W12
	BYTE		        Cn4   v096
	BYTE	W12
	BYTE		        An3   v076
	BYTE	W12
	BYTE		        Dn4   v104
	BYTE	W12
	BYTE		        An3   v068
	BYTE	W12
	BYTE		        Cn4   v092
	BYTE	W12
	BYTE		        Gn3   v068
	BYTE	W12
// 043   ----------------------------------------
	BYTE		        En4   v104
	BYTE	W12
	BYTE		        An3   v068
	BYTE	W12
	BYTE		        Cn4   v096
	BYTE	W12
	BYTE		        An3   v068
	BYTE	W12
	BYTE		        An3   v096
	BYTE	W12
	BYTE		        Bn3   v088
	BYTE	W12
	BYTE		        Cn4   v092
	BYTE	W12
	BYTE		        En4   v088
	BYTE	W12
// 044   ----------------------------------------
	BYTE		        En4   v100
	BYTE	W12
	BYTE		        An3   v064
	BYTE	W12
	BYTE		        Cn4   v096
	BYTE	W12
	BYTE		        An3   v068
	BYTE	W12
	BYTE		        Dn4   v104
	BYTE	W12
	BYTE		        An3   v072
	BYTE	W12
	BYTE		N24     Cn4   v100
	BYTE	W24
// 045   ----------------------------------------
	BYTE		N12     En4   v104
	BYTE	W12
	BYTE		        An3   v068
	BYTE	W12
	BYTE		        Cn4   v100
	BYTE	W12
	BYTE		        An3   v076
	BYTE	W12
	BYTE		        Dn4   v104
	BYTE	W12
	BYTE		        An3   v076
	BYTE	W12
	BYTE		N24     Cn4   v096
	BYTE	W24
// 046   ----------------------------------------
	BYTE		N12     En4   v104
	BYTE	W12
	BYTE		        An3   v064
	BYTE	W12
	BYTE		        Cn4   v096
	BYTE	W12
	BYTE		        An3   v076
	BYTE	W12
	BYTE		        Dn4   v104
	BYTE	W12
	BYTE		        An3   v072
	BYTE	W12
	BYTE		        Cn4   v100
	BYTE	W12
	BYTE		        Gn3   v072
	BYTE	W12
// 047   ----------------------------------------
	BYTE		        En4   v116
	BYTE	W12
	BYTE		        An3   v068
	BYTE	W12
	BYTE		        Cn4   v096
	BYTE	W12
	BYTE		        An3   v072
	BYTE	W12
	BYTE		        Dn4   v104
	BYTE	W12
	BYTE		        An3   v072
	BYTE	W12
	BYTE		        Cn4   v092
	BYTE	W12
	BYTE		        Gn3   v068
	BYTE	W12
// 048   ----------------------------------------
	BYTE		        En4   v112
	BYTE	W12
	BYTE		        An3   v068
	BYTE	W12
	BYTE		        Cn4   v096
	BYTE	W12
	BYTE		        An3   v080
	BYTE	W12
	BYTE		        Dn4   v104
	BYTE	W12
	BYTE		        An3   v072
	BYTE	W12
	BYTE		N24     Cn4   v096
	BYTE	W24
// 049   ----------------------------------------
TalesofSymphonia-FightingoftheSpirit-RayZa_5_049:
	BYTE		N12     En4   v104
	BYTE	W12
	BYTE		        An3   v068
	BYTE	W12
	BYTE		        Cn4   v092
	BYTE	W12
	BYTE		        An3   v072
	BYTE	W12
	BYTE		        Dn4   v104
	BYTE	W12
	BYTE		        An3   v068
	BYTE	W12
	BYTE		N24     Cn4   v096
	BYTE	W24
	BYTE	PEND
// 050   ----------------------------------------
	BYTE		N12     En4   v108
	BYTE	W12
	BYTE		        An3   v064
	BYTE	W12
	BYTE		        Cn4   v096
	BYTE	W12
	BYTE		        An3   v068
	BYTE	W12
	BYTE		        Dn4   v100
	BYTE	W12
	BYTE		        An3   v072
	BYTE	W12
	BYTE		        Cn4   v092
	BYTE	W12
	BYTE		        Gn3   v068
	BYTE	W12
// 051   ----------------------------------------
	BYTE		        En4   v116
	BYTE	W12
	BYTE		        An3   v068
	BYTE	W12
	BYTE		        Cn4   v092
	BYTE	W12
	BYTE		        An3   v076
	BYTE	W12
	BYTE		        An3   v092
	BYTE	W12
	BYTE		        Bn3 
	BYTE	W12
	BYTE		        Cn4   v096
	BYTE	W12
	BYTE		        En4   v088
	BYTE	W12
// 052   ----------------------------------------
	BYTE		        En4   v096
	BYTE	W12
	BYTE		        An3   v068
	BYTE	W12
	BYTE		        Cn4   v096
	BYTE	W12
	BYTE		        An3   v072
	BYTE	W12
	BYTE		        Dn4   v104
	BYTE	W12
	BYTE		        An3   v072
	BYTE	W12
	BYTE		N24     Cn4   v096
	BYTE	W24
// 053   ----------------------------------------
	BYTE		N12     En4   v108
	BYTE	W12
	BYTE		        An3   v068
	BYTE	W12
	BYTE		        Cn4   v096
	BYTE	W12
	BYTE		        An3   v076
	BYTE	W12
	BYTE		        Dn4   v104
	BYTE	W12
	BYTE		        An3   v072
	BYTE	W12
	BYTE		N24     Cn4   v092
	BYTE	W24
// 054   ----------------------------------------
	BYTE		N12     En4   v104
	BYTE	W12
	BYTE		        An3   v068
	BYTE	W12
	BYTE		        Cn4   v096
	BYTE	W12
	BYTE		        An3   v072
	BYTE	W12
	BYTE		        Dn4   v100
	BYTE	W12
	BYTE		        An3   v072
	BYTE	W12
	BYTE		        Cn4   v092
	BYTE	W12
	BYTE		        Gn3   v072
	BYTE	W12
// 055   ----------------------------------------
	BYTE		        En4   v112
	BYTE	W12
	BYTE		        An3   v068
	BYTE	W12
	BYTE		        Cn4   v100
	BYTE	W12
	BYTE		        An3   v076
	BYTE	W12
	BYTE		        Dn4   v104
	BYTE	W12
	BYTE		        An3   v068
	BYTE	W12
	BYTE		        Cn4   v096
	BYTE	W12
	BYTE		        Gn3   v072
	BYTE	W12
// 056   ----------------------------------------
	BYTE		        En4   v112
	BYTE	W12
	BYTE		        An3   v072
	BYTE	W12
	BYTE		        Cn4   v092
	BYTE	W12
	BYTE		        An3   v080
	BYTE	W12
	BYTE		        Dn4   v104
	BYTE	W12
	BYTE		        An3   v076
	BYTE	W12
	BYTE		N24     Cn4   v100
	BYTE	W24
// 057   ----------------------------------------
	BYTE		N12     En4 
	BYTE	W12
	BYTE		        An3   v068
	BYTE	W12
	BYTE		        Cn4   v092
	BYTE	W12
	BYTE		        An3   v072
	BYTE	W12
	BYTE		        Dn4   v104
	BYTE	W12
	BYTE		        An3   v076
	BYTE	W12
	BYTE		N24     Cn4   v092
	BYTE	W24
// 058   ----------------------------------------
	BYTE		N12     En4   v100
	BYTE	W12
	BYTE		        An3   v072
	BYTE	W12
	BYTE		        Cn4   v096
	BYTE	W12
	BYTE		        An3   v080
	BYTE	W12
	BYTE		        Dn4   v104
	BYTE	W12
	BYTE		        An3   v072
	BYTE	W12
	BYTE		        Cn4   v096
	BYTE	W12
	BYTE		        Gn3   v068
	BYTE	W12
// 059   ----------------------------------------
	BYTE		        En4   v112
	BYTE	W12
	BYTE		        An3   v064
	BYTE	W12
	BYTE		        Cn4   v096
	BYTE	W12
	BYTE		        An3   v080
	BYTE	W12
	BYTE		        An3   v092
	BYTE	W12
	BYTE		        Bn3   v088
	BYTE	W12
	BYTE		        Cn4   v092
	BYTE	W12
	BYTE		        En4 
	BYTE	W12
// 060   ----------------------------------------
	BYTE		N12   
	BYTE	W12
	BYTE		        An3   v060
	BYTE	W12
	BYTE		        Cn4   v096
	BYTE	W12
	BYTE		        An3   v072
	BYTE	W12
	BYTE		        Dn4   v104
	BYTE	W12
	BYTE		        An3   v072
	BYTE	W12
	BYTE		N24     Cn4   v100
	BYTE	W24
// 061   ----------------------------------------
	BYTE		N12     En4 
	BYTE	W12
	BYTE		        An3   v064
	BYTE	W12
	BYTE		        Cn4   v100
	BYTE	W12
	BYTE		        An3   v072
	BYTE	W12
	BYTE		        Dn4   v104
	BYTE	W12
	BYTE		        An3   v072
	BYTE	W12
	BYTE		N24     Cn4   v092
	BYTE	W24
// 062   ----------------------------------------
	BYTE		N12     En4   v104
	BYTE	W12
	BYTE		        An3   v064
	BYTE	W12
	BYTE		        Cn4   v092
	BYTE	W12
	BYTE		        An3   v076
	BYTE	W12
	BYTE		        Dn4   v104
	BYTE	W12
	BYTE		        An3   v068
	BYTE	W12
	BYTE		        Cn4   v100
	BYTE	W12
	BYTE		        Gn3   v072
	BYTE	W12
// 063   ----------------------------------------
	BYTE		        En4   v112
	BYTE	W12
	BYTE		        An3   v068
	BYTE	W12
	BYTE		        Cn4   v092
	BYTE	W12
	BYTE		        An3   v072
	BYTE	W12
	BYTE		        Dn4   v104
	BYTE	W12
	BYTE		        An3   v072
	BYTE	W12
	BYTE		        Cn4   v096
	BYTE	W12
	BYTE		        Gn3   v072
	BYTE	W12
// 064   ----------------------------------------
	BYTE		        En4   v112
	BYTE	W12
	BYTE		        An3   v068
	BYTE	W12
	BYTE		        Cn4   v096
	BYTE	W12
	BYTE		        An3   v076
	BYTE	W12
	BYTE		        Dn4   v108
	BYTE	W12
	BYTE		        An3   v076
	BYTE	W12
	BYTE		N24     Cn4   v092
	BYTE	W24
// 065   ----------------------------------------
	BYTE		N12     En4   v104
	BYTE	W12
	BYTE		        An3   v068
	BYTE	W12
	BYTE		        Cn4   v100
	BYTE	W12
	BYTE		        An3   v072
	BYTE	W12
	BYTE		        Dn4   v108
	BYTE	W12
	BYTE		        An3   v072
	BYTE	W12
	BYTE		N24     Cn4   v096
	BYTE	W24
// 066   ----------------------------------------
	BYTE		N12     En4   v104
	BYTE	W12
	BYTE		        An3   v068
	BYTE	W12
	BYTE		        Cn4   v096
	BYTE	W12
	BYTE		        An3   v072
	BYTE	W12
	BYTE		        Dn4   v104
	BYTE	W12
	BYTE		        An3   v076
	BYTE	W12
	BYTE		        Cn4   v096
	BYTE	W12
	BYTE		        Gn3   v068
	BYTE	W12
// 067   ----------------------------------------
	BYTE		        En4   v116
	BYTE	W12
	BYTE		        An3   v072
	BYTE	W12
	BYTE		        Cn4   v096
	BYTE	W12
	BYTE		        An3   v080
	BYTE	W12
	BYTE		        An3   v092
	BYTE	W12
	BYTE		        Bn3   v088
	BYTE	W12
	BYTE		        Cn4   v092
	BYTE	W12
	BYTE		        En4 
	BYTE	W12
// 068   ----------------------------------------
	BYTE		        En4   v096
	BYTE	W12
	BYTE		        An3   v064
	BYTE	W12
	BYTE		        Cn4   v096
	BYTE	W12
	BYTE		        An3   v072
	BYTE	W12
	BYTE		        Dn4   v104
	BYTE	W12
	BYTE		        An3   v068
	BYTE	W12
	BYTE		N24     Cn4   v096
	BYTE	W24
// 069   ----------------------------------------
	BYTE		N12     En4   v108
	BYTE	W12
	BYTE		        An3   v068
	BYTE	W12
	BYTE		        Cn4   v096
	BYTE	W12
	BYTE		        An3   v072
	BYTE	W12
	BYTE		        Dn4   v108
	BYTE	W12
	BYTE		        An3   v076
	BYTE	W12
	BYTE		N24     Cn4   v100
	BYTE	W24
// 070   ----------------------------------------
	BYTE		N12     En4   v104
	BYTE	W12
	BYTE		        An3   v068
	BYTE	W12
	BYTE		        Cn4   v096
	BYTE	W12
	BYTE		        An3   v072
	BYTE	W12
	BYTE		        Dn4   v100
	BYTE	W12
	BYTE		        An3   v068
	BYTE	W12
	BYTE		        Cn4   v096
	BYTE	W12
	BYTE		        Gn3   v076
	BYTE	W12
// 071   ----------------------------------------
	BYTE		        En4   v112
	BYTE	W12
	BYTE		        An3   v072
	BYTE	W12
	BYTE		        Cn4   v096
	BYTE	W12
	BYTE		        An3   v076
	BYTE	W12
	BYTE		        Dn4   v108
	BYTE	W12
	BYTE		        An3   v068
	BYTE	W12
	BYTE		        Cn4   v096
	BYTE	W12
	BYTE		        Gn3   v068
	BYTE	W12
// 072   ----------------------------------------
	BYTE		        En4   v116
	BYTE	W12
	BYTE		        An3   v072
	BYTE	W12
	BYTE		        Cn4   v092
	BYTE	W12
	BYTE		        An3   v076
	BYTE	W12
	BYTE		        Dn4   v104
	BYTE	W12
	BYTE		        An3   v068
	BYTE	W12
	BYTE		N24     Cn4   v096
	BYTE	W24
// 073   ----------------------------------------
	BYTE		N12     En4 
	BYTE	W12
	BYTE		        An3   v068
	BYTE	W12
	BYTE		        Cn4   v096
	BYTE	W12
	BYTE		        An3   v080
	BYTE	W12
	BYTE		        Dn4   v100
	BYTE	W12
	BYTE		        An3   v072
	BYTE	W12
	BYTE		N24     Cn4   v096
	BYTE	W24
// 074   ----------------------------------------
	BYTE		N12     En4   v104
	BYTE	W12
	BYTE		        An3   v068
	BYTE	W12
	BYTE		        Cn4   v092
	BYTE	W12
	BYTE		        An3   v076
	BYTE	W12
	BYTE		        Dn4   v104
	BYTE	W12
	BYTE		        An3   v072
	BYTE	W12
	BYTE		        Cn4   v096
	BYTE	W12
	BYTE		        Gn3   v072
	BYTE	W12
// 075   ----------------------------------------
	BYTE		        En4   v108
	BYTE	W12
	BYTE		        An3   v068
	BYTE	W12
	BYTE		        Cn4   v096
	BYTE	W12
	BYTE		        An3   v072
	BYTE	W12
	BYTE		        An3   v092
	BYTE	W12
	BYTE		        Bn3   v084
	BYTE	W12
	BYTE		        Cn4   v092
	BYTE	W12
	BYTE		        En4   v096
	BYTE	W12
// 076   ----------------------------------------
	BYTE		N12   
	BYTE	W12
	BYTE		        An3   v064
	BYTE	W12
	BYTE		        Cn4   v092
	BYTE	W12
	BYTE		        An3   v072
	BYTE	W12
	BYTE		        Dn4   v104
	BYTE	W12
	BYTE		        An3   v072
	BYTE	W12
	BYTE		N24     Cn4   v100
	BYTE	W24
// 077   ----------------------------------------
	BYTE		N12     En4   v104
	BYTE	W12
	BYTE		        An3   v068
	BYTE	W12
	BYTE		        Cn4   v096
	BYTE	W12
	BYTE		        An3   v076
	BYTE	W12
	BYTE		        Dn4   v100
	BYTE	W12
	BYTE		        An3   v068
	BYTE	W12
	BYTE		N24     Cn4   v092
	BYTE	W24
// 078   ----------------------------------------
	BYTE		N12     En4   v100
	BYTE	W12
	BYTE		        An3   v068
	BYTE	W12
	BYTE		        Cn4   v096
	BYTE	W12
	BYTE		        An3   v068
	BYTE	W12
	BYTE		        Dn4   v104
	BYTE	W12
	BYTE		        An3   v076
	BYTE	W12
	BYTE		        Cn4   v096
	BYTE	W12
	BYTE		        Gn3   v068
	BYTE	W12
// 079   ----------------------------------------
	BYTE		        En4   v116
	BYTE	W12
	BYTE		        An3   v072
	BYTE	W12
	BYTE		        Cn4   v096
	BYTE	W12
	BYTE		        An3   v076
	BYTE	W12
	BYTE		        Dn4   v108
	BYTE	W12
	BYTE		        An3   v068
	BYTE	W12
	BYTE		        Cn4   v096
	BYTE	W12
	BYTE		        Gn3   v068
	BYTE	W12
// 080   ----------------------------------------
	BYTE		        En4   v112
	BYTE	W12
	BYTE		        An3   v068
	BYTE	W12
	BYTE		        Cn4   v096
	BYTE	W12
	BYTE		        An3   v076
	BYTE	W12
	BYTE		        Dn4   v108
	BYTE	W12
	BYTE		        An3   v072
	BYTE	W12
	BYTE		N24     Cn4   v100
	BYTE	W24
// 081   ----------------------------------------
	BYTE		N12     En4   v108
	BYTE	W12
	BYTE		        An3   v068
	BYTE	W12
	BYTE		        Cn4   v092
	BYTE	W12
	BYTE		        An3   v076
	BYTE	W12
	BYTE		        Dn4   v108
	BYTE	W12
	BYTE		        An3   v072
	BYTE	W12
	BYTE		N24     Cn4   v092
	BYTE	W24
// 082   ----------------------------------------
	BYTE		N12     En4   v104
	BYTE	W12
	BYTE		        An3   v064
	BYTE	W12
	BYTE		        Cn4   v092
	BYTE	W12
	BYTE		        An3   v076
	BYTE	W12
	BYTE		        Dn4   v100
	BYTE	W12
	BYTE		        An3   v068
	BYTE	W12
	BYTE		        Cn4   v096
	BYTE	W12
	BYTE		        Gn3   v076
	BYTE	W12
// 083   ----------------------------------------
	BYTE		        En4   v108
	BYTE	W12
	BYTE		        An3   v064
	BYTE	W12
	BYTE		        Cn4   v096
	BYTE	W12
	BYTE		        An3   v076
	BYTE	W12
	BYTE		        An3   v092
	BYTE	W12
	BYTE		        Bn3   v080
	BYTE	W12
	BYTE		        Cn4   v092
	BYTE	W12
	BYTE		        En4 
	BYTE	W12
// 084   ----------------------------------------
	BYTE		        En4   v080
	BYTE	W12
	BYTE		        An3   v064
	BYTE	W12
	BYTE		        Cn4   v080
	BYTE	W12
	BYTE		        An3   v060
	BYTE	W12
	BYTE		        Dn4   v088
	BYTE	W12
	BYTE		        An3   v060
	BYTE	W12
	BYTE		        Cn4   v080
	BYTE	W12
	BYTE		        Gn3   v064
	BYTE	W12
// 085   ----------------------------------------
	BYTE		        En4   v092
	BYTE	W12
	BYTE		        An3   v056
	BYTE	W12
	BYTE		        Cn4   v080
	BYTE	W12
	BYTE		        An3   v060
	BYTE	W12
	BYTE		        Dn4   v084
	BYTE	W12
	BYTE		        An3   v064
	BYTE	W12
	BYTE		        Cn4   v084
	BYTE	W12
	BYTE		        Gn3   v064
	BYTE	W12
// 086   ----------------------------------------
	BYTE		        En4   v092
	BYTE	W12
	BYTE		        An3   v056
	BYTE	W12
	BYTE		        Cn4   v080
	BYTE	W12
	BYTE		        An3   v064
	BYTE	W12
	BYTE		        Dn4   v088
	BYTE	W12
	BYTE		        An3   v060
	BYTE	W12
	BYTE		        Cn4   v084
	BYTE	W12
	BYTE		        Gn3   v060
	BYTE	W12
// 087   ----------------------------------------
	BYTE		        En4   v096
	BYTE	W12
	BYTE		        An3   v060
	BYTE	W12
	BYTE		        Cn4   v080
	BYTE	W12
	BYTE		        An3   v068
	BYTE	W12
	BYTE		        Dn4   v088
	BYTE	W12
	BYTE		        An3   v060
	BYTE	W12
	BYTE		        Cn4   v084
	BYTE	W12
	BYTE		        Gn3   v060
	BYTE	W12
// 088   ----------------------------------------
	BYTE		        En4   v092
	BYTE	W12
	BYTE		        An3   v060
	BYTE	W12
	BYTE		        Cn4   v076
	BYTE	W12
	BYTE		        An3   v072
	BYTE	W12
	BYTE		        Dn4   v088
	BYTE	W12
	BYTE		        An3   v060
	BYTE	W12
	BYTE		        Cn4   v084
	BYTE	W12
	BYTE		        Gn3   v060
	BYTE	W12
// 089   ----------------------------------------
	BYTE		        En4   v092
	BYTE	W12
	BYTE		        An3   v056
	BYTE	W12
	BYTE		        Cn4   v080
	BYTE	W12
	BYTE		        An3   v060
	BYTE	W12
	BYTE		        Dn4   v084
	BYTE	W12
	BYTE		        An3   v060
	BYTE	W12
	BYTE		        Cn4   v080
	BYTE	W12
	BYTE		        Gn3   v060
	BYTE	W12
// 090   ----------------------------------------
	BYTE		        En4   v100
	BYTE	W12
	BYTE		        An3   v060
	BYTE	W12
	BYTE		        Cn4   v080
	BYTE	W12
	BYTE		        An3   v064
	BYTE	W12
	BYTE		        Dn4   v092
	BYTE	W12
	BYTE		        An3   v064
	BYTE	W12
	BYTE		        Cn4   v080
	BYTE	W12
	BYTE		        Gn3   v060
	BYTE	W12
// 091   ----------------------------------------
	BYTE		        En4   v096
	BYTE	W12
	BYTE		        An3   v060
	BYTE	W12
	BYTE		        Cn4   v084
	BYTE	W12
	BYTE		        An3   v064
	BYTE	W12
	BYTE		        An3   v076
	BYTE	W12
	BYTE		        Bn3   v072
	BYTE	W12
	BYTE		        Cn4   v080
	BYTE	W12
	BYTE		        En4   v076
	BYTE	W12
// 092   ----------------------------------------
	BYTE		        En4   v084
	BYTE	W12
	BYTE		        An3   v056
	BYTE	W12
	BYTE		        Cn4   v076
	BYTE	W12
	BYTE		        An3   v068
	BYTE	W12
	BYTE		        Dn4   v088
	BYTE	W12
	BYTE		        An3   v064
	BYTE	W12
	BYTE		        Cn4   v080
	BYTE	W12
	BYTE		        Gn3   v056
	BYTE	W12
// 093   ----------------------------------------
	BYTE		        En4   v092
	BYTE	W12
	BYTE		        An3   v056
	BYTE	W12
	BYTE		        Cn4   v080
	BYTE	W12
	BYTE		        An3   v060
	BYTE	W12
	BYTE		        Dn4   v080
	BYTE	W12
	BYTE		        An3   v056
	BYTE	W12
	BYTE		        Cn4   v080
	BYTE	W12
	BYTE		        Gn3   v064
	BYTE	W12
// 094   ----------------------------------------
	BYTE		        En4   v092
	BYTE	W12
	BYTE		        An3   v060
	BYTE	W12
	BYTE		        Cn4   v084
	BYTE	W12
	BYTE		        An3   v064
	BYTE	W12
	BYTE		        Dn4   v088
	BYTE	W12
	BYTE		        An3   v064
	BYTE	W12
	BYTE		        Cn4   v076
	BYTE	W12
	BYTE		        Gn3   v064
	BYTE	W12
// 095   ----------------------------------------
	BYTE		        En4   v100
	BYTE	W12
	BYTE		        An3   v064
	BYTE	W12
	BYTE		        Cn4   v084
	BYTE	W12
	BYTE		        An3   v064
	BYTE	W12
	BYTE		        Dn4   v088
	BYTE	W12
	BYTE		        An3   v064
	BYTE	W12
	BYTE		        Cn4   v080
	BYTE	W12
	BYTE		        Gn3   v060
	BYTE	W12
// 096   ----------------------------------------
	BYTE		        En4   v092
	BYTE	W12
	BYTE		        An3   v060
	BYTE	W12
	BYTE		        Cn4   v080
	BYTE	W12
	BYTE		        An3   v064
	BYTE	W12
	BYTE		        Dn4   v088
	BYTE	W12
	BYTE		        An3   v064
	BYTE	W12
	BYTE		        Cn4   v080
	BYTE	W12
	BYTE		        Gn3   v060
	BYTE	W12
// 097   ----------------------------------------
	BYTE		        En4   v096
	BYTE	W12
	BYTE		        An3   v056
	BYTE	W12
	BYTE		        Cn4   v084
	BYTE	W12
	BYTE		        An3   v064
	BYTE	W12
	BYTE		        Dn4   v092
	BYTE	W12
	BYTE		        An3   v064
	BYTE	W12
	BYTE		        Cn4   v076
	BYTE	W12
	BYTE		        Gn3   v064
	BYTE	W12
// 098   ----------------------------------------
	BYTE		        En4   v092
	BYTE	W12
	BYTE		        An3   v060
	BYTE	W12
	BYTE		        Cn4   v084
	BYTE	W12
	BYTE		        An3   v068
	BYTE	W12
	BYTE		        Dn4   v088
	BYTE	W12
	BYTE		        An3   v060
	BYTE	W12
	BYTE		        Cn4   v080
	BYTE	W12
	BYTE		        Gn3   v064
	BYTE	W12
// 099   ----------------------------------------
	BYTE		        En4   v096
	BYTE	W12
	BYTE		        An3   v060
	BYTE	W12
	BYTE		        Cn4   v084
	BYTE	W12
	BYTE		        An3   v064
	BYTE	W12
	BYTE		        An3   v084
	BYTE	W12
	BYTE		        Bn3   v072
	BYTE	W12
	BYTE		        Cn4   v076
	BYTE	W12
	BYTE		        En4   v080
	BYTE	W12
// 100   ----------------------------------------
	BYTE		        En4   v092
	BYTE	W12
	BYTE		        An3   v064
	BYTE	W12
	BYTE		        Cn4   v092
	BYTE	W12
	BYTE		        An3   v072
	BYTE	W12
	BYTE		        Dn4   v100
	BYTE	W12
	BYTE		        An3   v072
	BYTE	W12
	BYTE		N24     Cn4   v096
	BYTE	W24
// 101   ----------------------------------------
	BYTE		N12     En4   v104
	BYTE	W12
	BYTE		        An3   v064
	BYTE	W12
	BYTE		        Cn4   v096
	BYTE	W12
	BYTE		        An3   v076
	BYTE	W12
	BYTE		        Dn4   v100
	BYTE	W12
	BYTE		        An3   v072
	BYTE	W12
	BYTE		N24     Cn4   v096
	BYTE	W24
// 102   ----------------------------------------
	BYTE		N12     En4   v112
	BYTE	W12
	BYTE		        An3   v068
	BYTE	W12
	BYTE		        Cn4   v100
	BYTE	W12
	BYTE		        An3   v076
	BYTE	W12
	BYTE		        Dn4   v104
	BYTE	W12
	BYTE		        An3   v072
	BYTE	W12
	BYTE		        Cn4   v096
	BYTE	W12
	BYTE		        Gn3   v076
	BYTE	W12
// 103   ----------------------------------------
	BYTE		        En4   v112
	BYTE	W12
	BYTE		        An3   v072
	BYTE	W12
	BYTE		        Cn4   v100
	BYTE	W12
	BYTE		        An3   v076
	BYTE	W12
	BYTE		        Dn4   v104
	BYTE	W12
	BYTE		        An3   v072
	BYTE	W12
	BYTE		        Cn4   v092
	BYTE	W12
	BYTE		        Gn3   v072
	BYTE	W12
// 104   ----------------------------------------
	BYTE		        En4   v108
	BYTE	W12
	BYTE		        An3   v064
	BYTE	W12
	BYTE		        Cn4   v096
	BYTE	W12
	BYTE		        An3   v068
	BYTE	W12
	BYTE		        Dn4   v104
	BYTE	W12
	BYTE		        An3   v068
	BYTE	W12
	BYTE		N24     Cn4   v092
	BYTE	W24
// 105   ----------------------------------------
	BYTE		N12     En4   v104
	BYTE	W12
	BYTE		        An3   v068
	BYTE	W12
	BYTE		        Cn4   v092
	BYTE	W12
	BYTE		        An3   v080
	BYTE	W12
	BYTE		        Dn4   v100
	BYTE	W12
	BYTE		        An3   v072
	BYTE	W12
	BYTE		N24     Cn4   v092
	BYTE	W24
// 106   ----------------------------------------
	BYTE		N12     En4   v104
	BYTE	W12
	BYTE		        An3   v068
	BYTE	W12
	BYTE		        Cn4   v096
	BYTE	W12
	BYTE		        An3   v072
	BYTE	W12
	BYTE		        Dn4   v100
	BYTE	W12
	BYTE		        An3   v076
	BYTE	W12
	BYTE		        Cn4   v096
	BYTE	W12
	BYTE		        Gn3   v068
	BYTE	W12
// 107   ----------------------------------------
	BYTE		        En4   v112
	BYTE	W12
	BYTE		        An3   v068
	BYTE	W12
	BYTE		        Cn4   v096
	BYTE	W12
	BYTE		        An3   v076
	BYTE	W12
	BYTE		        An3   v092
	BYTE	W12
	BYTE		        Bn3   v084
	BYTE	W12
	BYTE		        Cn4   v096
	BYTE	W12
	BYTE		        En4   v084
	BYTE	W12
// 108   ----------------------------------------
	BYTE		        En4   v096
	BYTE	W12
	BYTE		        An3   v064
	BYTE	W12
	BYTE		        Cn4   v092
	BYTE	W12
	BYTE		        An3   v080
	BYTE	W12
	BYTE		        Dn4   v104
	BYTE	W12
	BYTE		        An3   v072
	BYTE	W12
	BYTE		N24     Cn4   v100
	BYTE	W24
// 109   ----------------------------------------
	BYTE		N12     En4 
	BYTE	W12
	BYTE		        An3   v064
	BYTE	W12
	BYTE		        Cn4   v096
	BYTE	W12
	BYTE		        An3   v072
	BYTE	W12
	BYTE		        Dn4   v104
	BYTE	W12
	BYTE		        An3   v068
	BYTE	W12
	BYTE		N24     Cn4   v096
	BYTE	W24
// 110   ----------------------------------------
	BYTE		N12     En4   v108
	BYTE	W12
	BYTE		        An3   v068
	BYTE	W12
	BYTE		        Cn4   v096
	BYTE	W12
	BYTE		        An3   v076
	BYTE	W12
	BYTE		        Dn4   v108
	BYTE	W12
	BYTE		        An3   v076
	BYTE	W12
	BYTE		        Cn4   v096
	BYTE	W12
	BYTE		        Gn3   v072
	BYTE	W12
// 111   ----------------------------------------
	BYTE		        En4   v112
	BYTE	W12
	BYTE		        An3   v064
	BYTE	W12
	BYTE		        Cn4   v096
	BYTE	W12
	BYTE		        An3   v072
	BYTE	W12
	BYTE		        Dn4   v104
	BYTE	W12
	BYTE		        An3   v072
	BYTE	W12
	BYTE		        Cn4   v096
	BYTE	W12
	BYTE		        Gn3   v072
	BYTE	W12
// 112   ----------------------------------------
	BYTE		        En4   v112
	BYTE	W12
	BYTE		        An3   v068
	BYTE	W12
	BYTE		        Cn4   v096
	BYTE	W12
	BYTE		        An3   v076
	BYTE	W12
	BYTE		        Dn4   v104
	BYTE	W12
	BYTE		        An3   v072
	BYTE	W12
	BYTE		N24     Cn4   v100
	BYTE	W24
// 113   ----------------------------------------
	BYTE		N12     En4   v104
	BYTE	W12
	BYTE		        An3   v072
	BYTE	W12
	BYTE		        Cn4   v092
	BYTE	W12
	BYTE		        An3   v076
	BYTE	W12
	BYTE		        Dn4   v108
	BYTE	W12
	BYTE		        An3   v072
	BYTE	W12
	BYTE		N24     Cn4   v092
	BYTE	W24
// 114   ----------------------------------------
	BYTE		N12     En4   v104
	BYTE	W12
	BYTE		        An3   v064
	BYTE	W12
	BYTE		        Cn4   v096
	BYTE	W12
	BYTE		        An3   v072
	BYTE	W12
	BYTE		        Dn4   v104
	BYTE	W12
	BYTE		        An3   v076
	BYTE	W12
	BYTE		        Cn4   v100
	BYTE	W12
	BYTE		        Gn3   v072
	BYTE	W12
// 115   ----------------------------------------
	BYTE		        En4   v112
	BYTE	W12
	BYTE		        An3   v064
	BYTE	W12
	BYTE		        Cn4   v096
	BYTE	W12
	BYTE		        An3   v072
	BYTE	W12
	BYTE		        An3   v088
	BYTE	W12
	BYTE		        Bn3 
	BYTE	W12
	BYTE		        Cn4   v096
	BYTE	W12
	BYTE		        En4   v088
	BYTE	W12
// 116   ----------------------------------------
	BYTE		        En4   v096
	BYTE	W12
	BYTE		        An3   v068
	BYTE	W12
	BYTE		        Cn4   v096
	BYTE	W12
	BYTE		        An3   v072
	BYTE	W12
	BYTE		        Dn4   v108
	BYTE	W12
	BYTE		        An3   v068
	BYTE	W12
	BYTE		N24     Cn4   v096
	BYTE	W24
// 117   ----------------------------------------
	BYTE	PATT
	 POIN2	TalesofSymphonia-FightingoftheSpirit-RayZa_5_049
// 118   ----------------------------------------
	BYTE		N12     En4   v104
	BYTE	W12
	BYTE		        An3   v072
	BYTE	W12
	BYTE		        Cn4   v096
	BYTE	W12
	BYTE		        An3   v076
	BYTE	W12
	BYTE		        Dn4   v104
	BYTE	W12
	BYTE		        An3   v068
	BYTE	W12
	BYTE		        Cn4   v096
	BYTE	W12
	BYTE		        Gn3   v072
	BYTE	W12
// 119   ----------------------------------------
	BYTE		        En4   v108
	BYTE	W12
	BYTE		        An3   v068
	BYTE	W12
	BYTE		        Cn4   v096
	BYTE	W12
	BYTE		        An3   v072
	BYTE	W12
	BYTE		        Dn4   v108
	BYTE	W12
	BYTE		        An3   v076
	BYTE	W12
	BYTE		        Cn4   v096
	BYTE	W12
	BYTE		        Gn3   v072
	BYTE	W12
// 120   ----------------------------------------
	BYTE		        En4   v112
	BYTE	W12
	BYTE		        An3   v068
	BYTE	W12
	BYTE		        Cn4   v096
	BYTE	W12
	BYTE		        An3   v072
	BYTE	W12
	BYTE		        Dn4   v100
	BYTE	W12
	BYTE		        An3   v072
	BYTE	W12
	BYTE		N24     Cn4   v092
	BYTE	W24
// 121   ----------------------------------------
	BYTE		N12     En4   v104
	BYTE	W12
	BYTE		        An3   v064
	BYTE	W12
	BYTE		        Cn4   v092
	BYTE	W12
	BYTE		        An3   v072
	BYTE	W12
	BYTE		        Dn4   v104
	BYTE	W12
	BYTE		        An3   v072
	BYTE	W12
	BYTE		N24     Cn4   v096
	BYTE	W24
// 122   ----------------------------------------
	BYTE		N12     En4   v104
	BYTE	W12
	BYTE		        An3   v068
	BYTE	W12
	BYTE		        Cn4   v092
	BYTE	W12
	BYTE		        An3   v076
	BYTE	W12
	BYTE		        Dn4   v104
	BYTE	W12
	BYTE		        An3   v068
	BYTE	W12
	BYTE		        Cn4   v100
	BYTE	W12
	BYTE		        Gn3   v072
	BYTE	W12
// 123   ----------------------------------------
	BYTE		        En4   v112
	BYTE	W12
	BYTE		        An3   v068
	BYTE	W12
	BYTE		        Cn4   v092
	BYTE	W12
	BYTE		        An3   v072
	BYTE	W12
	BYTE		        An3   v092
	BYTE	W12
	BYTE		        Bn3 
	BYTE	W12
	BYTE		        Cn4   v096
	BYTE	W12
	BYTE		        En4   v092
	BYTE	W12
// 124   ----------------------------------------
	BYTE		        En4   v096
	BYTE	W12
	BYTE		        An3   v068
	BYTE	W12
	BYTE		        Cn4   v092
	BYTE	W12
	BYTE		        An3   v076
	BYTE	W12
	BYTE		        Dn4   v104
	BYTE	W12
	BYTE		        An3   v076
	BYTE	W12
	BYTE		N24     Cn4   v096
	BYTE	W24
// 125   ----------------------------------------
	BYTE		N12     En4   v108
	BYTE	W12
	BYTE		        An3   v072
	BYTE	W12
	BYTE		        Cn4   v096
	BYTE	W12
	BYTE		        An3   v076
	BYTE	W12
	BYTE		        Dn4   v108
	BYTE	W12
	BYTE		        An3   v068
	BYTE	W12
	BYTE		N24     Cn4   v096
	BYTE	W24
// 126   ----------------------------------------
	BYTE		N12     En4   v104
	BYTE	W12
	BYTE		        An3   v068
	BYTE	W12
	BYTE		        Cn4   v092
	BYTE	W12
	BYTE		        An3   v076
	BYTE	W12
	BYTE		        Dn4   v104
	BYTE	W12
	BYTE		        An3   v076
	BYTE	W12
	BYTE		        Cn4   v096
	BYTE	W12
	BYTE		        Gn3   v068
	BYTE	W12
// 127   ----------------------------------------
	BYTE		        En4   v112
	BYTE	W12
	BYTE		        An3   v068
	BYTE	W12
	BYTE		        Cn4   v096
	BYTE	W12
	BYTE		        An3   v076
	BYTE	W12
	BYTE		        Dn4   v104
	BYTE	W12
	BYTE		        An3   v068
	BYTE	W12
	BYTE		        Cn4   v096
	BYTE	W12
	BYTE		        Gn3   v072
	BYTE	W12
// 128   ----------------------------------------
	BYTE		        En4   v112
	BYTE	W12
	BYTE		        An3   v072
	BYTE	W12
	BYTE		        Cn4   v096
	BYTE	W12
	BYTE		        An3   v072
	BYTE	W12
	BYTE		        Dn4   v100
	BYTE	W12
	BYTE		        An3   v076
	BYTE	W12
	BYTE		N24     Cn4   v096
	BYTE	W24
// 129   ----------------------------------------
	BYTE		N12     En4   v104
	BYTE	W12
	BYTE		        An3   v068
	BYTE	W12
	BYTE		        Cn4   v092
	BYTE	W12
	BYTE		        An3   v072
	BYTE	W12
	BYTE		        Dn4   v100
	BYTE	W12
	BYTE		        An3   v068
	BYTE	W12
	BYTE		N24     Cn4   v088
	BYTE	W24
// 130   ----------------------------------------
	BYTE		N12     En4   v104
	BYTE	W12
	BYTE		        An3   v064
	BYTE	W12
	BYTE		        Cn4   v092
	BYTE	W12
	BYTE		        An3   v076
	BYTE	W12
	BYTE		        Dn4   v104
	BYTE	W12
	BYTE		        An3   v068
	BYTE	W12
	BYTE		        Cn4   v096
	BYTE	W12
	BYTE		        Gn3   v068
	BYTE	W12
// 131   ----------------------------------------
	BYTE		        En4   v108
	BYTE	W12
	BYTE		        An3   v068
	BYTE	W12
	BYTE		        Cn4   v096
	BYTE	W12
	BYTE		        An3   v072
	BYTE	W12
	BYTE		        An3   v092
	BYTE	W12
	BYTE		        Bn3   v084
	BYTE	W12
	BYTE		        Cn4   v096
	BYTE	W12
	BYTE		        En4   v092
	BYTE	W12
// 132   ----------------------------------------
	BYTE		        En4   v096
	BYTE	W12
	BYTE		        An3   v068
	BYTE	W12
	BYTE		        Cn4   v092
	BYTE	W12
	BYTE		        An3   v068
	BYTE	W12
	BYTE		        Dn4   v104
	BYTE	W12
	BYTE		        An3   v072
	BYTE	W12
	BYTE		N24     Cn4   v092
	BYTE	W24
// 133   ----------------------------------------
	BYTE		N12     En4   v104
	BYTE	W12
	BYTE		        An3   v072
	BYTE	W12
	BYTE		        Cn4   v096
	BYTE	W12
	BYTE		        An3   v076
	BYTE	W12
	BYTE		        Dn4   v104
	BYTE	W12
	BYTE		        An3   v072
	BYTE	W12
	BYTE		N24     Cn4   v092
	BYTE	W24
// 134   ----------------------------------------
	BYTE		N12     En4   v108
	BYTE	W12
	BYTE		        An3   v064
	BYTE	W12
	BYTE		        Cn4   v092
	BYTE	W12
	BYTE		        An3   v072
	BYTE	W12
	BYTE		        Dn4   v108
	BYTE	W12
	BYTE		        An3   v072
	BYTE	W12
	BYTE		        Cn4   v096
	BYTE	W12
	BYTE		        Gn3   v068
	BYTE	W12
// 135   ----------------------------------------
	BYTE		        En4   v116
	BYTE	W12
	BYTE		        An3   v068
	BYTE	W12
	BYTE		        Cn4   v096
	BYTE	W12
	BYTE		        An3   v080
	BYTE	W12
	BYTE		        Dn4   v108
	BYTE	W12
	BYTE		        An3   v072
	BYTE	W12
	BYTE		        Cn4   v096
	BYTE	W12
	BYTE		        Gn3   v068
	BYTE	W12
// 136   ----------------------------------------
	BYTE		        En4   v108
	BYTE	W12
	BYTE		        An3   v064
	BYTE	W12
	BYTE		        Cn4   v096
	BYTE	W12
	BYTE		        An3   v068
	BYTE	W12
	BYTE		        Dn4   v108
	BYTE	W12
	BYTE		        An3   v072
	BYTE	W12
	BYTE		N24     Cn4   v096
	BYTE	W24
// 137   ----------------------------------------
	BYTE	PATT
	 POIN2	TalesofSymphonia-FightingoftheSpirit-RayZa_5_013
// 138   ----------------------------------------
	BYTE		N12     En4   v104
	BYTE	W12
	BYTE		        An3   v068
	BYTE	W12
	BYTE		        Cn4   v096
	BYTE	W12
	BYTE		        An3   v076
	BYTE	W12
	BYTE		        Dn4   v104
	BYTE	W12
	BYTE		        An3   v072
	BYTE	W12
	BYTE		        Cn4   v092
	BYTE	W12
	BYTE		        Gn3   v068
	BYTE	W12
// 139   ----------------------------------------
	BYTE		        En4   v112
	BYTE	W12
	BYTE		        An3   v068
	BYTE	W12
	BYTE		        Cn4   v096
	BYTE	W12
	BYTE		        An3   v076
	BYTE	W12
	BYTE		        An3   v092
	BYTE	W12
	BYTE		        Bn3   v088
	BYTE	W12
	BYTE		        Cn4 
	BYTE	W12
	BYTE		        En4 
	BYTE	W12
// 140   ----------------------------------------
	BYTE		        En4   v096
	BYTE	W12
	BYTE		        An3   v068
	BYTE	W12
	BYTE		        Cn4   v092
	BYTE	W12
	BYTE		        An3   v076
	BYTE	W12
	BYTE		        Dn4   v100
	BYTE	W12
	BYTE		        An3   v072
	BYTE	W12
	BYTE		N24     Cn4   v100
	BYTE	W24
// 141   ----------------------------------------
	BYTE		N12     En4   v108
	BYTE	W12
	BYTE		        An3   v064
	BYTE	W12
	BYTE		        Cn4   v100
	BYTE	W12
	BYTE		        An3   v076
	BYTE	W12
	BYTE		        Dn4   v104
	BYTE	W12
	BYTE		        An3   v072
	BYTE	W12
	BYTE		N24     Cn4   v092
	BYTE	W24
// 142   ----------------------------------------
	BYTE		N12     En4   v104
	BYTE	W12
	BYTE		        An3   v064
	BYTE	W12
	BYTE		        Cn4   v096
	BYTE	W12
	BYTE		        An3   v080
	BYTE	W12
	BYTE		        Dn4   v104
	BYTE	W12
	BYTE		        An3   v072
	BYTE	W12
	BYTE		        Cn4   v096
	BYTE	W12
	BYTE		        Gn3   v068
	BYTE	W12
// 143   ----------------------------------------
	BYTE		        En4   v112
	BYTE	W12
	BYTE		        An3   v068
	BYTE	W12
	BYTE		        Cn4   v096
	BYTE	W12
	BYTE		        An3   v080
	BYTE	W12
	BYTE		        Dn4   v104
	BYTE	W12
	BYTE		        An3   v072
	BYTE	W12
	BYTE		        Cn4   v096
	BYTE	W12
	BYTE		        Gn3   v064
	BYTE	W12
// 144   ----------------------------------------
	BYTE		        En4   v108
	BYTE	W12
	BYTE		        An3   v068
	BYTE	W12
	BYTE		        Cn4   v096
	BYTE	W12
	BYTE		        An3   v072
	BYTE	W12
	BYTE		        Dn4   v108
	BYTE	W12
	BYTE		        An3   v072
	BYTE	W12
	BYTE		N24     Cn4   v092
	BYTE	W24
// 145   ----------------------------------------
	BYTE		N12     En4   v104
	BYTE	W12
	BYTE		        An3   v064
	BYTE	W12
	BYTE		        Cn4   v092
	BYTE	W12
	BYTE		        An3   v076
	BYTE	W12
	BYTE		        Dn4   v104
	BYTE	W12
	BYTE		        An3   v072
	BYTE	W12
	BYTE		N24     Cn4   v096
	BYTE	W24
// 146   ----------------------------------------
	BYTE		N12     En4   v108
	BYTE	W12
	BYTE		        An3   v068
	BYTE	W12
	BYTE		        Cn4   v096
	BYTE	W12
	BYTE		        An3   v072
	BYTE	W12
	BYTE		        Dn4   v104
	BYTE	W12
	BYTE		        An3   v072
	BYTE	W12
	BYTE		        Cn4   v104
	BYTE	W12
	BYTE		        Gn3   v072
	BYTE	W12
// 147   ----------------------------------------
	BYTE		        En4   v112
	BYTE	W12
	BYTE		        An3   v068
	BYTE	W12
	BYTE		        Cn4   v092
	BYTE	W12
	BYTE		        An3   v072
	BYTE	W12
	BYTE		        An3   v096
	BYTE	W12
	BYTE		        Bn3   v088
	BYTE	W12
	BYTE		        Cn4   v096
	BYTE	W12
	BYTE		        En4   v088
	BYTE	W12
// 148   ----------------------------------------
	BYTE	FINE

//**************** Track 6 (Midi-Chn.10) ****************//

TalesofSymphonia-FightingoftheSpirit-RayZa_6:
	BYTE	KEYSH   TalesofSymphonia-FightingoftheSpirit-RayZa_key+0
// 000   ----------------------------------------
	BYTE		VOICE   0
	BYTE		PAN     c_v+0
	BYTE		VOL     121*TalesofSymphonia-FightingoftheSpirit-RayZa_mvl/mxv
	BYTE		N48     Fn1   v076
	BYTE		N48     An2   v084
	BYTE	W84
	BYTE		N06     Bn1   v068
	BYTE	W06
	BYTE		        Bn1   v076
	BYTE	W06
// 001   ----------------------------------------
	BYTE		N48     Fn1   v084
	BYTE	W84
	BYTE		N06     Bn1   v072
	BYTE	W06
	BYTE		        Bn1   v084
	BYTE	W06
// 002   ----------------------------------------
	BYTE		N24     Bn0   v068
	BYTE		N12     An2   v084
	BYTE	W12
	BYTE		        Bn2 
	BYTE	W12
	BYTE		N24     Bn0   v080
	BYTE	W12
	BYTE		N12     Bn2   v072
	BYTE	W12
	BYTE		N24     Bn0   v088
	BYTE	W12
	BYTE		N12     Bn2   v072
	BYTE	W12
	BYTE		N24     Bn0   v080
	BYTE	W12
	BYTE		N12     Bn2   v072
	BYTE	W12
// 003   ----------------------------------------
	BYTE		N06     An1   v100
	BYTE		N24     An2   v088
	BYTE	W06
	BYTE		N06     An1   v084
	BYTE	W06
	BYTE		        An1   v076
	BYTE	W12
	BYTE		        An1   v072
	BYTE		N24     An2   v088
	BYTE	W06
	BYTE		N06     An1   v076
	BYTE	W06
	BYTE		        An1   v068
	BYTE	W12
	BYTE		        An1   v084
	BYTE	W06
	BYTE		        An1   v080
	BYTE	W06
	BYTE		        An1   v072
	BYTE	W06
	BYTE		        Bn0   v068
	BYTE	W06
	BYTE		        Gn1   v080
	BYTE	W06
	BYTE		        Gn1   v076
	BYTE	W06
	BYTE		N12     Fn1   v064
	BYTE	W12
// 004   ----------------------------------------
	BYTE		        Fn1   v080
	BYTE		N72     An2   v084
	BYTE	W12
	BYTE		N12     Fn1   v076
	BYTE	W12
	BYTE		        Bn1   v096
	BYTE	W12
	BYTE		N24     Fn1   v064
	BYTE	W24
	BYTE		N12     Fn1   v072
	BYTE	W12
	BYTE		N24     Bn1   v100
	BYTE	W12
	BYTE		N12     Bn2   v076
	BYTE	W12
// 005   ----------------------------------------
	BYTE		        Fn1 
	BYTE	W12
	BYTE		        Fn1   v072
	BYTE	W12
	BYTE		        Bn1   v092
	BYTE	W12
	BYTE		N24     Fn1   v060
	BYTE	W24
	BYTE		N12     Fn1   v076
	BYTE	W12
	BYTE		N24     Bn1   v092
	BYTE	W12
	BYTE		N12     Bn2   v072
	BYTE	W12
// 006   ----------------------------------------
	BYTE		        Fn1   v108
	BYTE	W12
	BYTE		        Fn1   v084
	BYTE	W12
	BYTE		        Bn1   v104
	BYTE	W12
	BYTE		N24     Fn1   v072
	BYTE	W24
	BYTE		N12     Fn1   v076
	BYTE	W12
	BYTE		N24     Bn1   v104
	BYTE	W24
// 007   ----------------------------------------
TalesofSymphonia-FightingoftheSpirit-RayZa_6_007:
	BYTE		N12     Fn1   v080
	BYTE	W12
	BYTE		N12   
	BYTE	W12
	BYTE		        Bn1   v104
	BYTE	W12
	BYTE		N24     Fn1   v068
	BYTE	W24
	BYTE		N12     Fn1   v080
	BYTE	W12
	BYTE		N24     Bn1   v104
	BYTE	W24
	BYTE	PEND
// 008   ----------------------------------------
	BYTE		N12     Fn1   v072
	BYTE	W12
	BYTE		N12   
	BYTE	W12
	BYTE		        Bn1   v092
	BYTE	W12
	BYTE		N24     Fn1   v064
	BYTE	W24
	BYTE		N12     Fn1   v076
	BYTE	W12
	BYTE		N24     Bn1   v096
	BYTE	W12
	BYTE		N12     Bn2   v072
	BYTE	W12
// 009   ----------------------------------------
	BYTE		        Fn1 
	BYTE	W12
	BYTE		N12   
	BYTE	W12
	BYTE		        Bn1   v096
	BYTE	W12
	BYTE		N24     Fn1   v064
	BYTE	W24
	BYTE		N12     Fn1   v072
	BYTE	W12
	BYTE		N24     Bn1   v096
	BYTE	W12
	BYTE		N12     Bn2   v072
	BYTE	W12
// 010   ----------------------------------------
	BYTE		        Fn1   v108
	BYTE	W12
	BYTE		        Fn1   v084
	BYTE	W12
	BYTE		        Bn1   v100
	BYTE	W12
	BYTE		N24     Fn1   v064
	BYTE	W24
	BYTE		N12     Fn1   v084
	BYTE	W12
	BYTE		N24     Bn1   v104
	BYTE	W24
// 011   ----------------------------------------
	BYTE		N12     Fn1   v080
	BYTE	W12
	BYTE		        Fn1   v084
	BYTE	W12
	BYTE		        Bn1   v104
	BYTE	W12
	BYTE		N24     Fn1   v072
	BYTE	W24
	BYTE		N12     Fn1   v080
	BYTE	W12
	BYTE		N24     Bn1   v104
	BYTE	W24
// 012   ----------------------------------------
	BYTE		N12     Fn1   v072
	BYTE		N72     An2   v084
	BYTE	W12
	BYTE		N12     Fn1   v072
	BYTE	W12
	BYTE		        Bn1   v096
	BYTE	W12
	BYTE		N24     Fn1   v064
	BYTE	W24
	BYTE		N12     Fn1   v072
	BYTE	W12
	BYTE		N24     Bn1   v096
	BYTE	W12
	BYTE		N12     Bn2   v076
	BYTE	W12
// 013   ----------------------------------------
	BYTE		        Fn1 
	BYTE	W12
	BYTE		        Fn1   v072
	BYTE	W12
	BYTE		        Bn1   v092
	BYTE	W12
	BYTE		N24     Fn1   v060
	BYTE	W24
	BYTE		N12     Fn1   v076
	BYTE	W12
	BYTE		N24     Bn1   v096
	BYTE	W12
	BYTE		N12     Bn2   v072
	BYTE	W12
// 014   ----------------------------------------
	BYTE		        Fn1   v112
	BYTE	W12
	BYTE		        Fn1   v080
	BYTE	W12
	BYTE		        Bn1   v104
	BYTE	W12
	BYTE		N24     Fn1   v072
	BYTE	W24
	BYTE		N12     Fn1   v080
	BYTE	W12
	BYTE		N24     Bn1   v108
	BYTE	W24
// 015   ----------------------------------------
	BYTE		N12     Fn1   v076
	BYTE	W12
	BYTE		N12   
	BYTE	W12
	BYTE		        Bn1   v104
	BYTE	W12
	BYTE		N24     Fn1   v064
	BYTE	W24
	BYTE		N12     Fn1   v084
	BYTE	W12
	BYTE		N24     Bn1   v104
	BYTE	W24
// 016   ----------------------------------------
	BYTE		N12     Fn1   v076
	BYTE	W12
	BYTE		N12   
	BYTE	W12
	BYTE		        Bn1   v096
	BYTE	W12
	BYTE		N24     Fn1   v064
	BYTE	W24
	BYTE		N12     Fn1   v072
	BYTE	W12
	BYTE		N24     Bn1   v100
	BYTE	W12
	BYTE		N12     Bn2   v068
	BYTE	W12
// 017   ----------------------------------------
	BYTE		        Fn1   v072
	BYTE	W12
	BYTE		        Fn1   v068
	BYTE	W12
	BYTE		        Bn1   v096
	BYTE	W12
	BYTE		N24     Fn1   v060
	BYTE	W24
	BYTE		N12     Fn1   v072
	BYTE	W12
	BYTE		N24     Bn1   v088
	BYTE	W12
	BYTE		N12     Bn2   v072
	BYTE	W12
// 018   ----------------------------------------
	BYTE		N24     Bn0   v068
	BYTE		N12     An2   v088
	BYTE	W12
	BYTE		        Bn2   v076
	BYTE	W12
	BYTE		N24     Bn0   v080
	BYTE	W12
	BYTE		N12     Bn2   v068
	BYTE	W12
	BYTE		N24     Bn0   v084
	BYTE	W12
	BYTE		N12     Bn2   v072
	BYTE	W12
	BYTE		N24     Bn0   v080
	BYTE	W12
	BYTE		N12     Bn2   v068
	BYTE	W12
// 019   ----------------------------------------
	BYTE		N06     An1   v096
	BYTE		N24     An2   v092
	BYTE	W06
	BYTE		N06     An1   v080
	BYTE	W06
	BYTE		        An1   v076
	BYTE	W12
	BYTE		        An1   v072
	BYTE		N24     An2   v088
	BYTE	W06
	BYTE		N06     An1   v076
	BYTE	W06
	BYTE		N06   
	BYTE	W12
	BYTE		N06   
	BYTE	W06
	BYTE		N06   
	BYTE	W06
	BYTE		N06   
	BYTE	W06
	BYTE		        Bn0   v064
	BYTE	W06
	BYTE		        Gn1   v088
	BYTE	W06
	BYTE		        Gn1   v080
	BYTE	W06
	BYTE		N12     Fn1   v068
	BYTE	W12
// 020   ----------------------------------------
TalesofSymphonia-FightingoftheSpirit-RayZa_6_020:
	BYTE	W60
	BYTE		N12     Gn1   v072
	BYTE	W12
	BYTE		N24     Bn1   v096
	BYTE	W24
	BYTE	PEND
// 021   ----------------------------------------
TalesofSymphonia-FightingoftheSpirit-RayZa_6_021:
	BYTE	W60
	BYTE		N12     Gn1   v068
	BYTE	W12
	BYTE		N24     Bn1   v100
	BYTE	W24
	BYTE	PEND
// 022   ----------------------------------------
	BYTE	W60
	BYTE		N12     Gn1   v068
	BYTE	W12
	BYTE		N24     Bn1   v092
	BYTE	W24
// 023   ----------------------------------------
	BYTE	W60
	BYTE		N12     Gn1   v072
	BYTE	W12
	BYTE		N06     Bn1   v100
	BYTE	W06
	BYTE		        Bn1   v084
	BYTE	W06
	BYTE		        Bn1   v080
	BYTE	W12
// 024   ----------------------------------------
TalesofSymphonia-FightingoftheSpirit-RayZa_6_024:
	BYTE	W60
	BYTE		N12     Gn1   v068
	BYTE	W12
	BYTE		N24     Bn1   v104
	BYTE	W24
	BYTE	PEND
// 025   ----------------------------------------
TalesofSymphonia-FightingoftheSpirit-RayZa_6_025:
	BYTE	W60
	BYTE		N12     Gn1   v072
	BYTE	W12
	BYTE		N24     Bn1   v100
	BYTE	W24
	BYTE	PEND
// 026   ----------------------------------------
	BYTE	PATT
	 POIN2	TalesofSymphonia-FightingoftheSpirit-RayZa_6_020
// 027   ----------------------------------------
	BYTE	W60
	BYTE		N12     Gn1   v076
	BYTE	W12
	BYTE		N06     Bn1   v096
	BYTE	W06
	BYTE		        Bn1   v084
	BYTE	W06
	BYTE		        Bn1   v080
	BYTE	W12
// 028   ----------------------------------------
	BYTE	PATT
	 POIN2	TalesofSymphonia-FightingoftheSpirit-RayZa_6_025
// 029   ----------------------------------------
	BYTE	PATT
	 POIN2	TalesofSymphonia-FightingoftheSpirit-RayZa_6_020
// 030   ----------------------------------------
	BYTE	PATT
	 POIN2	TalesofSymphonia-FightingoftheSpirit-RayZa_6_020
// 031   ----------------------------------------
	BYTE	W60
	BYTE		N12     Gn1   v072
	BYTE	W12
	BYTE		N06     Bn1   v100
	BYTE	W06
	BYTE		        Bn1   v088
	BYTE	W06
	BYTE		        Bn1   v080
	BYTE	W12
// 032   ----------------------------------------
TalesofSymphonia-FightingoftheSpirit-RayZa_6_032:
	BYTE	W60
	BYTE		N12     Gn1   v076
	BYTE	W12
	BYTE		N24     Bn1   v100
	BYTE	W24
	BYTE	PEND
// 033   ----------------------------------------
	BYTE	PATT
	 POIN2	TalesofSymphonia-FightingoftheSpirit-RayZa_6_025
// 034   ----------------------------------------
TalesofSymphonia-FightingoftheSpirit-RayZa_6_034:
	BYTE	W60
	BYTE		N12     Gn1   v076
	BYTE	W12
	BYTE		N24     Bn1   v096
	BYTE	W24
	BYTE	PEND
// 035   ----------------------------------------
	BYTE		N06     An1   v092
	BYTE		N24     An2   v084
	BYTE	W06
	BYTE		N06     An1   v076
	BYTE	W06
	BYTE		N06   
	BYTE	W12
	BYTE		N06   
	BYTE		N24     An2   v088
	BYTE	W06
	BYTE		N06     An1   v072
	BYTE	W06
	BYTE		        An1   v076
	BYTE	W12
	BYTE		N06   
	BYTE	W06
	BYTE		        An1   v080
	BYTE	W06
	BYTE		        An1   v072
	BYTE	W06
	BYTE		        Bn0   v060
	BYTE	W06
	BYTE		        Gn1   v092
	BYTE	W06
	BYTE		        Gn1   v076
	BYTE	W06
	BYTE		N12     Fn1   v068
	BYTE	W12
// 036   ----------------------------------------
	BYTE		        Fn1   v092
	BYTE		N72     An2   v084
	BYTE	W12
	BYTE		N12     Fn1   v072
	BYTE	W12
	BYTE		        Bn1   v096
	BYTE	W12
	BYTE		N24     Fn1   v060
	BYTE	W24
	BYTE		N12     Fn1   v076
	BYTE	W12
	BYTE		N24     Bn1   v096
	BYTE	W12
	BYTE		N12     Bn2   v076
	BYTE	W12
// 037   ----------------------------------------
	BYTE		        Fn1   v072
	BYTE	W12
	BYTE		N12   
	BYTE	W12
	BYTE		        Bn1   v100
	BYTE	W12
	BYTE		N24     Fn1   v060
	BYTE	W24
	BYTE		N12     Fn1   v068
	BYTE	W12
	BYTE		N24     Bn1   v096
	BYTE	W12
	BYTE		N12     Bn2   v076
	BYTE	W12
// 038   ----------------------------------------
	BYTE		        Fn1   v108
	BYTE	W12
	BYTE		        Fn1   v080
	BYTE	W12
	BYTE		        Bn1   v104
	BYTE	W12
	BYTE		N24     Fn1   v068
	BYTE	W24
	BYTE		N12     Fn1   v084
	BYTE	W12
	BYTE		N24     Bn1   v100
	BYTE	W24
// 039   ----------------------------------------
	BYTE	PATT
	 POIN2	TalesofSymphonia-FightingoftheSpirit-RayZa_6_007
// 040   ----------------------------------------
	BYTE		N12     Fn1   v072
	BYTE	W12
	BYTE		N12   
	BYTE	W12
	BYTE		        Bn1   v100
	BYTE	W12
	BYTE		N24     Fn1   v060
	BYTE	W24
	BYTE		N12     Fn1   v072
	BYTE	W12
	BYTE		N24     Bn1   v100
	BYTE	W12
	BYTE		N12     Bn2   v068
	BYTE	W12
// 041   ----------------------------------------
	BYTE		        Fn1   v076
	BYTE	W12
	BYTE		        Fn1   v068
	BYTE	W12
	BYTE		        Bn1   v100
	BYTE	W12
	BYTE		N24     Fn1   v064
	BYTE	W24
	BYTE		N12     Fn1   v072
	BYTE	W12
	BYTE		N24     Bn1   v096
	BYTE	W12
	BYTE		N12     Bn2   v076
	BYTE	W12
// 042   ----------------------------------------
	BYTE		        Fn1   v112
	BYTE	W12
	BYTE		        Fn1   v080
	BYTE	W12
	BYTE		        Bn1   v104
	BYTE	W12
	BYTE		N24     Fn1   v068
	BYTE	W24
	BYTE		N12     Fn1   v080
	BYTE	W12
	BYTE		N24     Bn1   v104
	BYTE	W24
// 043   ----------------------------------------
	BYTE		N12     Fn1   v080
	BYTE	W12
	BYTE		N12   
	BYTE	W12
	BYTE		        Bn1   v108
	BYTE	W12
	BYTE		N24     Fn1   v064
	BYTE	W24
	BYTE		N12     Fn1   v084
	BYTE	W12
	BYTE		N24     Bn1   v108
	BYTE	W24
// 044   ----------------------------------------
	BYTE		N12     Fn1   v072
	BYTE		N72     An2   v084
	BYTE	W12
	BYTE		N12     Fn1   v076
	BYTE	W12
	BYTE		        Bn1   v100
	BYTE	W12
	BYTE		N24     Fn1   v064
	BYTE	W24
	BYTE		N12     Fn1   v072
	BYTE	W12
	BYTE		N24     Bn1   v096
	BYTE	W12
	BYTE		N12     Bn2   v068
	BYTE	W12
// 045   ----------------------------------------
	BYTE		        Fn1   v072
	BYTE	W12
	BYTE		        Fn1   v068
	BYTE	W12
	BYTE		        Bn1   v096
	BYTE	W12
	BYTE		N24     Fn1   v064
	BYTE	W24
	BYTE		N12     Fn1   v072
	BYTE	W12
	BYTE		N24     Bn1   v092
	BYTE	W12
	BYTE		N12     Bn2   v080
	BYTE	W12
// 046   ----------------------------------------
	BYTE		        Fn1   v108
	BYTE	W12
	BYTE		        Fn1   v092
	BYTE	W12
	BYTE		        Bn1   v104
	BYTE	W12
	BYTE		N24     Fn1   v068
	BYTE	W24
	BYTE		N12     Fn1   v076
	BYTE	W12
	BYTE		N24     Bn1   v104
	BYTE	W24
// 047   ----------------------------------------
	BYTE		N12     Fn1   v080
	BYTE	W12
	BYTE		        Fn1   v076
	BYTE	W12
	BYTE		        Bn1   v104
	BYTE	W12
	BYTE		N24     Fn1   v068
	BYTE	W24
	BYTE		N12     Fn1   v076
	BYTE	W12
	BYTE		N24     Bn1   v108
	BYTE	W24
// 048   ----------------------------------------
	BYTE		N12     Fn1   v072
	BYTE	W12
	BYTE		N12   
	BYTE	W12
	BYTE		        Bn1   v092
	BYTE	W12
	BYTE		N24     Fn1   v068
	BYTE	W24
	BYTE		N12     Fn1   v072
	BYTE	W12
	BYTE		N24     Bn1   v092
	BYTE	W12
	BYTE		N12     Bn2   v068
	BYTE	W12
// 049   ----------------------------------------
	BYTE		        Fn1   v072
	BYTE	W12
	BYTE		        Fn1   v068
	BYTE	W12
	BYTE		        Bn1   v096
	BYTE	W12
	BYTE		N24     Fn1   v064
	BYTE	W24
	BYTE		N12     Fn1   v076
	BYTE	W12
	BYTE		N24     Bn1   v096
	BYTE	W12
	BYTE		N12     Bn2   v072
	BYTE	W12
// 050   ----------------------------------------
	BYTE		N24     Bn0   v068
	BYTE		N12     An2   v088
	BYTE	W12
	BYTE		        Bn2   v084
	BYTE	W12
	BYTE		N24     Bn0   v080
	BYTE	W12
	BYTE		N12     Bn2   v072
	BYTE	W12
	BYTE		N24     Bn0   v088
	BYTE	W12
	BYTE		N12     Bn2   v068
	BYTE	W12
	BYTE		N24     Bn0   v080
	BYTE	W12
	BYTE		N12     Bn2   v068
	BYTE	W12
// 051   ----------------------------------------
	BYTE		N06     An1   v092
	BYTE		N24     An2   v084
	BYTE	W06
	BYTE		N06     An1   v076
	BYTE	W06
	BYTE		        An1   v072
	BYTE	W12
	BYTE		N06   
	BYTE		N24     An2   v088
	BYTE	W06
	BYTE		N06     An1   v076
	BYTE	W06
	BYTE		N06   
	BYTE	W12
	BYTE		N06   
	BYTE	W06
	BYTE		        An1   v080
	BYTE	W06
	BYTE		        An1   v076
	BYTE	W06
	BYTE		        Bn0   v068
	BYTE	W06
	BYTE		        Gn1   v088
	BYTE	W06
	BYTE		        Gn1   v080
	BYTE	W06
	BYTE		N12     Fn1   v068
	BYTE	W12
// 052   ----------------------------------------
	BYTE		        Dn3   v080
	BYTE	W12
	BYTE		        Bn2   v076
	BYTE	W12
	BYTE		        Dn3   v100
	BYTE	W12
	BYTE		        Bn2   v080
	BYTE	W12
	BYTE		        Dn3   v100
	BYTE	W12
	BYTE		        Bn2   v080
	BYTE	W12
	BYTE		        Dn3   v096
	BYTE	W12
	BYTE		        Bn2   v076
	BYTE	W12
// 053   ----------------------------------------
	BYTE		        Dn3   v104
	BYTE	W12
	BYTE		        Bn2   v080
	BYTE	W12
	BYTE		        Dn3   v096
	BYTE	W12
	BYTE		        Bn2   v080
	BYTE	W12
	BYTE		        Dn3   v100
	BYTE	W12
	BYTE		        Bn2   v080
	BYTE	W12
	BYTE		        Dn3   v100
	BYTE	W12
	BYTE		        Bn2   v080
	BYTE	W12
// 054   ----------------------------------------
	BYTE		        Dn3   v096
	BYTE	W12
	BYTE		        Bn2   v080
	BYTE	W12
	BYTE		        Dn3   v096
	BYTE	W12
	BYTE		        Bn2   v080
	BYTE	W12
	BYTE		        Dn3   v108
	BYTE	W12
	BYTE		        Bn2   v080
	BYTE	W12
	BYTE		        Dn3   v096
	BYTE	W12
	BYTE		        Bn2   v076
	BYTE	W12
// 055   ----------------------------------------
	BYTE		        Dn3   v072
	BYTE	W12
	BYTE		        Bn2 
	BYTE	W12
	BYTE		        Dn3   v092
	BYTE	W12
	BYTE		        Bn2   v076
	BYTE	W12
	BYTE		        Dn3   v092
	BYTE	W12
	BYTE		        Bn2   v068
	BYTE	W12
	BYTE		        Dn3   v088
	BYTE	W12
	BYTE		        An1   v068
	BYTE		N12     Bn2   v076
	BYTE	W12
// 056   ----------------------------------------
	BYTE		        Dn3   v072
	BYTE	W12
	BYTE		        Bn2 
	BYTE	W12
	BYTE		        Dn3   v096
	BYTE	W12
	BYTE		        Bn2   v076
	BYTE	W12
	BYTE		        Dn3   v100
	BYTE	W12
	BYTE		        Bn2   v084
	BYTE	W12
	BYTE		        Dn3   v100
	BYTE	W12
	BYTE		        Bn2   v080
	BYTE	W12
// 057   ----------------------------------------
	BYTE		        Dn3   v100
	BYTE	W12
	BYTE		        Bn2   v080
	BYTE	W12
	BYTE		        Dn3   v096
	BYTE	W12
	BYTE		        Bn2   v080
	BYTE	W12
	BYTE		        Dn3   v100
	BYTE	W12
	BYTE		        Bn2   v076
	BYTE	W12
	BYTE		        Dn3   v092
	BYTE	W12
	BYTE		        Bn2   v076
	BYTE	W12
// 058   ----------------------------------------
	BYTE		        Dn3   v100
	BYTE	W12
	BYTE		        Bn2   v080
	BYTE	W12
	BYTE		        Dn3   v096
	BYTE	W12
	BYTE		        Bn2   v076
	BYTE	W12
	BYTE		        Dn3   v100
	BYTE	W12
	BYTE		        Bn2   v080
	BYTE	W12
	BYTE		        Dn3   v096
	BYTE	W12
	BYTE		        Bn2   v080
	BYTE	W12
// 059   ----------------------------------------
	BYTE		        Dn3   v092
	BYTE	W12
	BYTE		        Bn2   v072
	BYTE	W12
	BYTE		        Dn3   v084
	BYTE	W12
	BYTE		        Bn2   v076
	BYTE	W12
	BYTE		        Dn3   v092
	BYTE	W12
	BYTE		        Bn2   v068
	BYTE	W12
	BYTE		        An1   v080
	BYTE		N12     Dn3   v084
	BYTE	W12
	BYTE		        An1 
	BYTE		N12     Bn2   v072
	BYTE	W12
// 060   ----------------------------------------
	BYTE		N48     An2   v084
	BYTE		N12     Dn3   v092
	BYTE	W12
	BYTE		        Bn2   v072
	BYTE	W12
	BYTE		        Dn3   v088
	BYTE	W12
	BYTE		        Bn2   v072
	BYTE	W12
	BYTE		        An1   v116
	BYTE		N12     Dn3   v088
	BYTE	W12
	BYTE		        Bn2   v068
	BYTE	W12
	BYTE		        Dn3   v088
	BYTE	W12
	BYTE		        Bn2   v068
	BYTE	W12
// 061   ----------------------------------------
	BYTE		        Dn3   v096
	BYTE	W12
	BYTE		        Bn2   v076
	BYTE	W12
	BYTE		N24     An1   v080
	BYTE		N12     Dn3   v088
	BYTE	W12
	BYTE		        Bn2   v072
	BYTE	W12
	BYTE		        Dn3   v096
	BYTE	W12
	BYTE		        Bn2   v072
	BYTE	W12
	BYTE		N24     An1   v076
	BYTE		N12     Dn3   v088
	BYTE	W12
	BYTE		        Bn2   v072
	BYTE	W12
// 062   ----------------------------------------
	BYTE		        Dn3   v092
	BYTE	W12
	BYTE		        Bn2   v072
	BYTE	W12
	BYTE		        Dn3   v088
	BYTE	W12
	BYTE		        Bn2   v076
	BYTE	W12
	BYTE		        An1   v080
	BYTE		N12     Dn3   v092
	BYTE	W12
	BYTE		        Bn2   v068
	BYTE	W12
	BYTE		        Dn3   v084
	BYTE	W12
	BYTE		        Bn2   v072
	BYTE	W12
// 063   ----------------------------------------
	BYTE		        Dn3   v092
	BYTE	W12
	BYTE		        Bn2   v072
	BYTE	W12
	BYTE		N24     An1   v076
	BYTE		N12     Dn3   v092
	BYTE	W12
	BYTE		        Bn2   v072
	BYTE	W12
	BYTE		        Dn3   v096
	BYTE	W12
	BYTE		        Bn2   v072
	BYTE	W12
	BYTE		N24     An1   v080
	BYTE		N12     Dn3   v088
	BYTE	W12
	BYTE		        Bn2   v068
	BYTE	W12
// 064   ----------------------------------------
	BYTE		        Dn3   v092
	BYTE	W12
	BYTE		        Bn2   v072
	BYTE	W12
	BYTE		N24     An1   v080
	BYTE		N12     Dn3   v084
	BYTE	W12
	BYTE		        Bn2   v068
	BYTE	W12
	BYTE		        Dn3   v096
	BYTE	W12
	BYTE		        Bn2   v072
	BYTE	W12
	BYTE		N24     An1   v084
	BYTE		N12     Dn3   v088
	BYTE	W12
	BYTE		        Bn2   v072
	BYTE	W12
// 065   ----------------------------------------
	BYTE		        Dn3   v092
	BYTE	W12
	BYTE		        Bn2   v072
	BYTE	W12
	BYTE		N24     An1   v084
	BYTE		N12     Dn3   v092
	BYTE	W12
	BYTE		        Bn2   v068
	BYTE	W12
	BYTE		        Dn3   v092
	BYTE	W12
	BYTE		        Bn2   v076
	BYTE	W12
	BYTE		N24     An1   v084
	BYTE		N12     Dn3   v088
	BYTE	W12
	BYTE		        Bn2   v076
	BYTE	W12
// 066   ----------------------------------------
	BYTE		N24     Bn0   v096
	BYTE		N06     Bn2   v080
	BYTE	W06
	BYTE		        Bn2   v092
	BYTE	W06
	BYTE		        Bn2   v080
	BYTE	W12
	BYTE		N24     Bn0   v084
	BYTE		N06     Bn2   v080
	BYTE	W06
	BYTE		        Bn2   v084
	BYTE	W06
	BYTE		        Bn2   v080
	BYTE	W12
	BYTE		N24     Bn0   v084
	BYTE		N06     Bn2 
	BYTE	W06
	BYTE		        Bn2   v080
	BYTE	W06
	BYTE		N06   
	BYTE	W12
	BYTE		N24     Bn0 
	BYTE		N06     Bn2 
	BYTE	W06
	BYTE		        Bn2   v084
	BYTE	W06
	BYTE		        Bn2   v076
	BYTE	W12
// 067   ----------------------------------------
	BYTE		        An1   v096
	BYTE		N24     An2   v088
	BYTE	W06
	BYTE		N06     An1   v080
	BYTE	W06
	BYTE		        An1   v072
	BYTE	W12
	BYTE		N06   
	BYTE		N24     An2   v088
	BYTE	W06
	BYTE		N06     An1   v076
	BYTE	W06
	BYTE		        An1   v072
	BYTE	W12
	BYTE		        An1   v080
	BYTE	W06
	BYTE		        An1   v076
	BYTE	W06
	BYTE		N06   
	BYTE	W06
	BYTE		        Bn0   v064
	BYTE	W06
	BYTE		        Gn1   v084
	BYTE	W06
	BYTE		        Gn1   v076
	BYTE	W06
	BYTE		N12     Fn1   v068
	BYTE	W12
// 068   ----------------------------------------
	BYTE		        Fn1   v080
	BYTE		N72     An2   v084
	BYTE	W12
	BYTE		N12     Fn1   v072
	BYTE	W12
	BYTE		        Bn1   v100
	BYTE	W12
	BYTE		N24     Fn1   v064
	BYTE	W24
	BYTE		N12     Fn1   v072
	BYTE	W12
	BYTE		N24     Bn1   v096
	BYTE	W12
	BYTE		N12     Bn2   v068
	BYTE	W12
// 069   ----------------------------------------
	BYTE		        Fn1   v072
	BYTE	W12
	BYTE		N12   
	BYTE	W12
	BYTE		        Bn1   v092
	BYTE	W12
	BYTE		N24     Fn1   v064
	BYTE	W24
	BYTE		N12     Fn1   v068
	BYTE	W12
	BYTE		N24     Bn1   v096
	BYTE	W12
	BYTE		N12     Bn2   v072
	BYTE	W12
// 070   ----------------------------------------
	BYTE		        Fn1   v112
	BYTE	W12
	BYTE		        Fn1   v084
	BYTE	W12
	BYTE		        Bn1   v104
	BYTE	W12
	BYTE		N24     Fn1   v072
	BYTE	W24
	BYTE		N12     Fn1   v080
	BYTE	W12
	BYTE		N24     Bn1   v104
	BYTE	W24
// 071   ----------------------------------------
	BYTE		N12     Fn1   v076
	BYTE	W12
	BYTE		N12   
	BYTE	W12
	BYTE		        Bn1   v104
	BYTE	W12
	BYTE		N24     Fn1   v068
	BYTE	W24
	BYTE		N12     Fn1   v080
	BYTE	W12
	BYTE		N24     Bn1   v108
	BYTE	W24
// 072   ----------------------------------------
	BYTE		N12     Fn1   v068
	BYTE	W12
	BYTE		        Fn1   v076
	BYTE	W12
	BYTE		        Bn1   v096
	BYTE	W12
	BYTE		N24     Fn1   v060
	BYTE	W24
	BYTE		N12     Fn1   v076
	BYTE	W12
	BYTE		N24     Bn1   v092
	BYTE	W12
	BYTE		N12     Bn2   v072
	BYTE	W12
// 073   ----------------------------------------
	BYTE		        Fn1 
	BYTE	W12
	BYTE		        Fn1   v076
	BYTE	W12
	BYTE		        Bn1   v088
	BYTE	W12
	BYTE		N24     Fn1   v064
	BYTE	W24
	BYTE		N12     Fn1   v076
	BYTE	W12
	BYTE		N24     Bn1   v092
	BYTE	W12
	BYTE		N12     Bn2   v076
	BYTE	W12
// 074   ----------------------------------------
	BYTE		        Fn1   v108
	BYTE	W12
	BYTE		        Fn1   v084
	BYTE	W12
	BYTE		        Bn1   v108
	BYTE	W12
	BYTE		N24     Fn1   v068
	BYTE	W24
	BYTE		N12     Fn1   v080
	BYTE	W12
	BYTE		N24     Bn1   v100
	BYTE	W24
// 075   ----------------------------------------
	BYTE	PATT
	 POIN2	TalesofSymphonia-FightingoftheSpirit-RayZa_6_007
// 076   ----------------------------------------
	BYTE		N12     Fn1   v072
	BYTE		N72     An2   v080
	BYTE	W12
	BYTE		N12     Fn1   v068
	BYTE	W12
	BYTE		        Bn1   v092
	BYTE	W12
	BYTE		N24     Fn1   v064
	BYTE	W24
	BYTE		N12     Fn1   v076
	BYTE	W12
	BYTE		N24     Bn1   v096
	BYTE	W12
	BYTE		N12     Bn2   v068
	BYTE	W12
// 077   ----------------------------------------
	BYTE		        Fn1   v072
	BYTE	W12
	BYTE		        Fn1   v068
	BYTE	W12
	BYTE		        Bn1   v092
	BYTE	W12
	BYTE		N24     Fn1   v060
	BYTE	W24
	BYTE		N12     Fn1   v080
	BYTE	W12
	BYTE		N24     Bn1   v092
	BYTE	W12
	BYTE		N12     Bn2   v076
	BYTE	W12
// 078   ----------------------------------------
	BYTE		        Fn1   v112
	BYTE	W12
	BYTE		        Fn1   v084
	BYTE	W12
	BYTE		        Bn1   v104
	BYTE	W12
	BYTE		N24     Fn1   v064
	BYTE	W24
	BYTE		N12     Fn1   v076
	BYTE	W12
	BYTE		N24     Bn1   v100
	BYTE	W24
// 079   ----------------------------------------
	BYTE		N12     Fn1   v080
	BYTE	W12
	BYTE		N12   
	BYTE	W12
	BYTE		        Bn1   v104
	BYTE	W12
	BYTE		N24     Fn1   v068
	BYTE	W24
	BYTE		N12     Fn1   v084
	BYTE	W12
	BYTE		N24     Bn1   v104
	BYTE	W24
// 080   ----------------------------------------
	BYTE		N12     Fn1   v072
	BYTE	W12
	BYTE		N12   
	BYTE	W12
	BYTE		        Bn1   v096
	BYTE	W12
	BYTE		N24     Fn1   v060
	BYTE	W24
	BYTE		N12     Fn1   v064
	BYTE	W12
	BYTE		N24     Bn1   v092
	BYTE	W12
	BYTE		N12     Bn2   v072
	BYTE	W12
// 081   ----------------------------------------
	BYTE		        Fn1 
	BYTE	W12
	BYTE		        Fn1   v068
	BYTE	W12
	BYTE		        Bn1   v096
	BYTE	W12
	BYTE		N24     Fn1   v064
	BYTE	W24
	BYTE		N12     Fn1   v072
	BYTE	W12
	BYTE		N24     Bn1   v092
	BYTE	W12
	BYTE		N12     Bn2   v072
	BYTE	W12
// 082   ----------------------------------------
	BYTE		N24     Bn0 
	BYTE		N12     An2   v092
	BYTE	W12
	BYTE		        Bn2   v080
	BYTE	W12
	BYTE		N24     Bn0   v076
	BYTE	W12
	BYTE		N12     Bn2   v072
	BYTE	W12
	BYTE		N24     Bn0   v088
	BYTE	W12
	BYTE		N12     Bn2   v076
	BYTE	W12
	BYTE		N24     Bn0   v084
	BYTE	W12
	BYTE		N12     Bn2   v068
	BYTE	W12
// 083   ----------------------------------------
	BYTE		N06     An1   v100
	BYTE		N24     An2   v088
	BYTE	W06
	BYTE		N06     An1   v080
	BYTE	W06
	BYTE		        An1   v072
	BYTE	W12
	BYTE		        An1   v076
	BYTE		N24     An2   v092
	BYTE	W06
	BYTE		N06     An1   v076
	BYTE	W06
	BYTE		N06   
	BYTE	W12
	BYTE		        An1   v068
	BYTE	W06
	BYTE		        An1   v076
	BYTE	W06
	BYTE		N06   
	BYTE	W06
	BYTE		        Bn0   v068
	BYTE	W06
	BYTE		        Gn1   v088
	BYTE	W06
	BYTE		        Gn1   v076
	BYTE	W06
	BYTE		N12     Fn1   v072
	BYTE	W12
// 084   ----------------------------------------
	BYTE	W60
	BYTE		        Gn1   v068
	BYTE	W12
	BYTE		N24     Bn1   v096
	BYTE	W24
// 085   ----------------------------------------
	BYTE	W60
	BYTE		N12     Gn1   v072
	BYTE	W12
	BYTE		N24     Bn1   v104
	BYTE	W24
// 086   ----------------------------------------
	BYTE	PATT
	 POIN2	TalesofSymphonia-FightingoftheSpirit-RayZa_6_024
// 087   ----------------------------------------
	BYTE	W60
	BYTE		N12     Gn1   v072
	BYTE	W12
	BYTE		N06     Bn1   v096
	BYTE	W06
	BYTE		        Bn1   v088
	BYTE	W06
	BYTE		        Bn1   v080
	BYTE	W12
// 088   ----------------------------------------
	BYTE	PATT
	 POIN2	TalesofSymphonia-FightingoftheSpirit-RayZa_6_025
// 089   ----------------------------------------
	BYTE	PATT
	 POIN2	TalesofSymphonia-FightingoftheSpirit-RayZa_6_032
// 090   ----------------------------------------
	BYTE	PATT
	 POIN2	TalesofSymphonia-FightingoftheSpirit-RayZa_6_025
// 091   ----------------------------------------
	BYTE	W60
	BYTE		N12     Gn1   v072
	BYTE	W12
	BYTE		N06     Bn1   v096
	BYTE	W06
	BYTE		        Bn1   v088
	BYTE	W06
	BYTE		        Bn1   v084
	BYTE	W12
// 092   ----------------------------------------
	BYTE	PATT
	 POIN2	TalesofSymphonia-FightingoftheSpirit-RayZa_6_032
// 093   ----------------------------------------
	BYTE	PATT
	 POIN2	TalesofSymphonia-FightingoftheSpirit-RayZa_6_020
// 094   ----------------------------------------
	BYTE	PATT
	 POIN2	TalesofSymphonia-FightingoftheSpirit-RayZa_6_021
// 095   ----------------------------------------
	BYTE	W60
	BYTE		N12     Gn1   v068
	BYTE	W12
	BYTE		N06     Bn1   v100
	BYTE	W06
	BYTE		        Bn1   v088
	BYTE	W06
	BYTE		        Bn1   v080
	BYTE	W12
// 096   ----------------------------------------
	BYTE	PATT
	 POIN2	TalesofSymphonia-FightingoftheSpirit-RayZa_6_032
// 097   ----------------------------------------
	BYTE	PATT
	 POIN2	TalesofSymphonia-FightingoftheSpirit-RayZa_6_034
// 098   ----------------------------------------
	BYTE	PATT
	 POIN2	TalesofSymphonia-FightingoftheSpirit-RayZa_6_025
// 099   ----------------------------------------
	BYTE		N06     An1   v096
	BYTE		N24     An2   v088
	BYTE	W06
	BYTE		N06     An1   v072
	BYTE	W06
	BYTE		        An1   v076
	BYTE	W12
	BYTE		        An1   v072
	BYTE		N24     An2   v088
	BYTE	W06
	BYTE		N06     An1   v080
	BYTE	W06
	BYTE		        An1   v076
	BYTE	W12
	BYTE		N06   
	BYTE	W06
	BYTE		        An1   v072
	BYTE	W06
	BYTE		        An1   v076
	BYTE	W06
	BYTE		        Bn0   v068
	BYTE	W06
	BYTE		        Gn1   v088
	BYTE	W06
	BYTE		        Gn1   v072
	BYTE	W06
	BYTE		N12     Fn1   v068
	BYTE	W12
// 100   ----------------------------------------
	BYTE		        Fn1   v084
	BYTE		N72     An2   v080
	BYTE	W12
	BYTE		N12     Fn1   v072
	BYTE	W12
	BYTE		        Bn1   v096
	BYTE	W12
	BYTE		N24     Fn1   v056
	BYTE	W24
	BYTE		N12     Fn1   v072
	BYTE	W12
	BYTE		N24     Bn1   v096
	BYTE	W12
	BYTE		N12     Bn2   v072
	BYTE	W12
// 101   ----------------------------------------
	BYTE		        Fn1 
	BYTE	W12
	BYTE		N12   
	BYTE	W12
	BYTE		        Bn1   v092
	BYTE	W12
	BYTE		N24     Fn1   v064
	BYTE	W24
	BYTE		N12     Fn1   v072
	BYTE	W12
	BYTE		N24     Bn1   v096
	BYTE	W12
	BYTE		N12     Bn2   v068
	BYTE	W12
// 102   ----------------------------------------
	BYTE		        Fn1   v104
	BYTE	W12
	BYTE		        Fn1   v088
	BYTE	W12
	BYTE		        Bn1   v108
	BYTE	W12
	BYTE		N24     Fn1   v072
	BYTE	W24
	BYTE		N12     Fn1   v084
	BYTE	W12
	BYTE		N24     Bn1   v104
	BYTE	W24
// 103   ----------------------------------------
	BYTE		N12     Fn1   v080
	BYTE	W12
	BYTE		        Fn1   v076
	BYTE	W12
	BYTE		        Bn1   v104
	BYTE	W12
	BYTE		N24     Fn1   v068
	BYTE	W24
	BYTE		N12     Fn1   v080
	BYTE	W12
	BYTE		N24     Bn1   v104
	BYTE	W24
// 104   ----------------------------------------
	BYTE		N12     Fn1   v072
	BYTE	W12
	BYTE		N12   
	BYTE	W12
	BYTE		        Bn1   v096
	BYTE	W12
	BYTE		N24     Fn1   v060
	BYTE	W24
	BYTE		N12     Fn1   v080
	BYTE	W12
	BYTE		N24     Bn1   v096
	BYTE	W12
	BYTE		N12     Bn2   v076
	BYTE	W12
// 105   ----------------------------------------
	BYTE		        Fn1   v072
	BYTE	W12
	BYTE		N12   
	BYTE	W12
	BYTE		        Bn1   v096
	BYTE	W12
	BYTE		N24     Fn1   v060
	BYTE	W24
	BYTE		N12     Fn1   v076
	BYTE	W12
	BYTE		N24     Bn1   v092
	BYTE	W12
	BYTE		N12     Bn2   v072
	BYTE	W12
// 106   ----------------------------------------
	BYTE		        Fn1   v112
	BYTE	W12
	BYTE		        Fn1   v088
	BYTE	W12
	BYTE		        Bn1   v104
	BYTE	W12
	BYTE		N24     Fn1   v068
	BYTE	W24
	BYTE		N12     Fn1   v084
	BYTE	W12
	BYTE		N24     Bn1   v112
	BYTE	W24
// 107   ----------------------------------------
	BYTE		N12     Fn1   v084
	BYTE	W12
	BYTE		        Fn1   v080
	BYTE	W12
	BYTE		        Bn1   v100
	BYTE	W12
	BYTE		N24     Fn1   v068
	BYTE	W24
	BYTE		N12     Fn1   v080
	BYTE	W12
	BYTE		N24     Bn1   v108
	BYTE	W24
// 108   ----------------------------------------
	BYTE		N12     Fn1   v076
	BYTE		N72     An2   v088
	BYTE	W12
	BYTE		N12     Fn1   v068
	BYTE	W12
	BYTE		        Bn1   v100
	BYTE	W12
	BYTE		N24     Fn1   v060
	BYTE	W24
	BYTE		N12     Fn1   v072
	BYTE	W12
	BYTE		N24     Bn1   v096
	BYTE	W12
	BYTE		N12     Bn2   v072
	BYTE	W12
// 109   ----------------------------------------
	BYTE		        Fn1   v076
	BYTE	W12
	BYTE		        Fn1   v072
	BYTE	W12
	BYTE		        Bn1   v092
	BYTE	W12
	BYTE		N24     Fn1   v060
	BYTE	W24
	BYTE		N12     Fn1   v068
	BYTE	W12
	BYTE		N24     Bn1   v100
	BYTE	W12
	BYTE		N12     Bn2   v072
	BYTE	W12
// 110   ----------------------------------------
	BYTE		        Fn1   v108
	BYTE	W12
	BYTE		        Fn1   v084
	BYTE	W12
	BYTE		        Bn1   v108
	BYTE	W12
	BYTE		N24     Fn1   v068
	BYTE	W24
	BYTE		N12     Fn1   v076
	BYTE	W12
	BYTE		N24     Bn1   v108
	BYTE	W24
// 111   ----------------------------------------
	BYTE		N12     Fn1   v080
	BYTE	W12
	BYTE		        Fn1   v076
	BYTE	W12
	BYTE		        Bn1   v108
	BYTE	W12
	BYTE		N24     Fn1   v068
	BYTE	W24
	BYTE		N12     Fn1   v076
	BYTE	W12
	BYTE		N24     Bn1   v100
	BYTE	W24
// 112   ----------------------------------------
	BYTE		N12     Fn1   v072
	BYTE	W12
	BYTE		N12   
	BYTE	W12
	BYTE		        Bn1   v092
	BYTE	W12
	BYTE		N24     Fn1   v060
	BYTE	W24
	BYTE		N12     Fn1   v076
	BYTE	W12
	BYTE		N24     Bn1   v092
	BYTE	W12
	BYTE		N12     Bn2   v076
	BYTE	W12
// 113   ----------------------------------------
	BYTE		        Fn1 
	BYTE	W12
	BYTE		        Fn1   v068
	BYTE	W12
	BYTE		        Bn1   v096
	BYTE	W12
	BYTE		N24     Fn1   v060
	BYTE	W24
	BYTE		N12     Fn1   v068
	BYTE	W12
	BYTE		N24     Bn1   v096
	BYTE	W12
	BYTE		N12     Bn2   v076
	BYTE	W12
// 114   ----------------------------------------
	BYTE		N24     Bn0   v064
	BYTE		N12     An2   v088
	BYTE	W12
	BYTE		        Bn2   v080
	BYTE	W12
	BYTE		N24     Bn0   v072
	BYTE	W12
	BYTE		N12     Bn2 
	BYTE	W12
	BYTE		N24     Bn0   v080
	BYTE	W12
	BYTE		N12     Bn2   v072
	BYTE	W12
	BYTE		N24     Bn0   v080
	BYTE	W12
	BYTE		N12     Bn2   v072
	BYTE	W12
// 115   ----------------------------------------
	BYTE		N06     An1   v096
	BYTE		N24     An2   v092
	BYTE	W06
	BYTE		N06     An1   v076
	BYTE	W06
	BYTE		        An1   v072
	BYTE	W12
	BYTE		        An1   v068
	BYTE		N24     An2   v092
	BYTE	W06
	BYTE		N06     An1   v076
	BYTE	W06
	BYTE		        An1   v072
	BYTE	W12
	BYTE		        An1   v076
	BYTE	W06
	BYTE		N06   
	BYTE	W06
	BYTE		N06   
	BYTE	W06
	BYTE		        Bn0   v064
	BYTE	W06
	BYTE		        Gn1   v088
	BYTE	W06
	BYTE		        Gn1   v080
	BYTE	W06
	BYTE		N12     Fn1   v072
	BYTE	W12
// 116   ----------------------------------------
	BYTE		        Dn3   v084
	BYTE	W12
	BYTE		        Bn2   v076
	BYTE	W12
	BYTE		        Dn3   v096
	BYTE	W12
	BYTE		        Bn2   v076
	BYTE	W12
	BYTE		        Dn3   v104
	BYTE	W12
	BYTE		        Bn2   v076
	BYTE	W12
	BYTE		        Dn3   v096
	BYTE	W12
	BYTE		        Bn2   v080
	BYTE	W12
// 117   ----------------------------------------
	BYTE		        Dn3   v096
	BYTE	W12
	BYTE		        Bn2   v080
	BYTE	W12
	BYTE		        Dn3   v096
	BYTE	W12
	BYTE		        Bn2   v080
	BYTE	W12
	BYTE		        Dn3   v096
	BYTE	W12
	BYTE		        Bn2   v080
	BYTE	W12
	BYTE		        Dn3   v096
	BYTE	W12
	BYTE		        Bn2   v080
	BYTE	W12
// 118   ----------------------------------------
	BYTE		        Dn3   v104
	BYTE	W12
	BYTE		        Bn2   v080
	BYTE	W12
	BYTE		        Dn3   v104
	BYTE	W12
	BYTE		        Bn2   v076
	BYTE	W12
	BYTE		        Dn3   v104
	BYTE	W12
	BYTE		        Bn2   v080
	BYTE	W12
	BYTE		        Dn3   v104
	BYTE	W12
	BYTE		        Bn2   v076
	BYTE	W12
// 119   ----------------------------------------
	BYTE		        Dn3   v072
	BYTE	W12
	BYTE		        Bn2 
	BYTE	W12
	BYTE		        Dn3   v088
	BYTE	W12
	BYTE		        Bn2   v072
	BYTE	W12
	BYTE		        Dn3   v092
	BYTE	W12
	BYTE		        Bn2   v072
	BYTE	W12
	BYTE		        Dn3   v088
	BYTE	W12
	BYTE		        An1   v072
	BYTE		N12     Bn2   v080
	BYTE	W12
// 120   ----------------------------------------
	BYTE		        Dn3   v072
	BYTE	W12
	BYTE		        Bn2   v076
	BYTE	W12
	BYTE		        Dn3   v100
	BYTE	W12
	BYTE		        Bn2   v084
	BYTE	W12
	BYTE		        Dn3   v100
	BYTE	W12
	BYTE		        Bn2   v080
	BYTE	W12
	BYTE		        Dn3   v092
	BYTE	W12
	BYTE		        Bn2   v080
	BYTE	W12
// 121   ----------------------------------------
	BYTE		        Dn3   v100
	BYTE	W12
	BYTE		        Bn2   v072
	BYTE	W12
	BYTE		        Dn3   v096
	BYTE	W12
	BYTE		        Bn2   v080
	BYTE	W12
	BYTE		        Dn3   v100
	BYTE	W12
	BYTE		        Bn2   v076
	BYTE	W12
	BYTE		        Dn3   v092
	BYTE	W12
	BYTE		        Bn2   v080
	BYTE	W12
// 122   ----------------------------------------
	BYTE		        Dn3   v096
	BYTE	W12
	BYTE		        Bn2   v080
	BYTE	W12
	BYTE		        Dn3   v100
	BYTE	W12
	BYTE		        Bn2   v080
	BYTE	W12
	BYTE		        Dn3   v104
	BYTE	W12
	BYTE		        Bn2   v080
	BYTE	W12
	BYTE		        Dn3   v096
	BYTE	W12
	BYTE		        Bn2   v076
	BYTE	W12
// 123   ----------------------------------------
	BYTE		        Dn3   v096
	BYTE	W12
	BYTE		        Bn2   v076
	BYTE	W12
	BYTE		        Dn3   v088
	BYTE	W12
	BYTE		        Bn2   v068
	BYTE	W12
	BYTE		        Dn3   v096
	BYTE	W12
	BYTE		        Bn2   v072
	BYTE	W12
	BYTE		        An1   v080
	BYTE		N12     Dn3   v092
	BYTE	W12
	BYTE		        An1   v080
	BYTE		N12     Bn2   v076
	BYTE	W12
// 124   ----------------------------------------
	BYTE		N48     An2 
	BYTE		N12     Dn3   v096
	BYTE	W12
	BYTE		        Bn2   v072
	BYTE	W12
	BYTE		        Dn3   v092
	BYTE	W12
	BYTE		        Bn2   v072
	BYTE	W12
	BYTE		        An1   v112
	BYTE		N12     Dn3   v092
	BYTE	W12
	BYTE		        Bn2   v072
	BYTE	W12
	BYTE		        Dn3   v084
	BYTE	W12
	BYTE		        Bn2   v068
	BYTE	W12
// 125   ----------------------------------------
	BYTE		        Dn3   v092
	BYTE	W12
	BYTE		        Bn2   v072
	BYTE	W12
	BYTE		N24     An1   v076
	BYTE		N12     Dn3   v084
	BYTE	W12
	BYTE		        Bn2   v072
	BYTE	W12
	BYTE		        Dn3   v088
	BYTE	W12
	BYTE		        Bn2   v072
	BYTE	W12
	BYTE		N24     An1   v084
	BYTE		N12     Dn3   v088
	BYTE	W12
	BYTE		        Bn2   v072
	BYTE	W12
// 126   ----------------------------------------
	BYTE		        Dn3   v092
	BYTE	W12
	BYTE		        Bn2   v072
	BYTE	W12
	BYTE		        Dn3   v088
	BYTE	W12
	BYTE		        Bn2   v068
	BYTE	W12
	BYTE		        An1   v080
	BYTE		N12     Dn3   v092
	BYTE	W12
	BYTE		        Bn2   v072
	BYTE	W12
	BYTE		        Dn3   v092
	BYTE	W12
	BYTE		        Bn2   v068
	BYTE	W12
// 127   ----------------------------------------
	BYTE		        Dn3   v092
	BYTE	W12
	BYTE		        Bn2   v076
	BYTE	W12
	BYTE		N24     An1   v080
	BYTE		N12     Dn3   v088
	BYTE	W12
	BYTE		        Bn2   v068
	BYTE	W12
	BYTE		        Dn3   v092
	BYTE	W12
	BYTE		        Bn2   v076
	BYTE	W12
	BYTE		N24     An1   v084
	BYTE		N12     Dn3   v088
	BYTE	W12
	BYTE		        Bn2   v076
	BYTE	W12
// 128   ----------------------------------------
	BYTE		        Dn3   v092
	BYTE	W12
	BYTE		        Bn2   v072
	BYTE	W12
	BYTE		N24     An1   v080
	BYTE		N12     Dn3   v092
	BYTE	W12
	BYTE		        Bn2   v072
	BYTE	W12
	BYTE		        Dn3   v088
	BYTE	W12
	BYTE		        Bn2   v072
	BYTE	W12
	BYTE		N24     An1   v084
	BYTE		N12     Dn3   v088
	BYTE	W12
	BYTE		        Bn2   v072
	BYTE	W12
// 129   ----------------------------------------
	BYTE		        Dn3   v096
	BYTE	W12
	BYTE		        Bn2   v076
	BYTE	W12
	BYTE		N24     An1 
	BYTE		N12     Dn3   v088
	BYTE	W12
	BYTE		        Bn2   v072
	BYTE	W12
	BYTE		        Dn3   v096
	BYTE	W12
	BYTE		        Bn2   v072
	BYTE	W12
	BYTE		N24     An1   v080
	BYTE		N12     Dn3   v088
	BYTE	W12
	BYTE		        Bn2   v072
	BYTE	W12
// 130   ----------------------------------------
	BYTE		N24     Bn0   v096
	BYTE		N06     Bn2   v080
	BYTE	W06
	BYTE		        Bn2   v088
	BYTE	W06
	BYTE		N06   
	BYTE	W12
	BYTE		N24     Bn0   v080
	BYTE		N06     Bn2   v076
	BYTE	W06
	BYTE		        Bn2   v080
	BYTE	W06
	BYTE		N06   
	BYTE	W12
	BYTE		N24     Bn0   v088
	BYTE		N06     Bn2   v084
	BYTE	W06
	BYTE		        Bn2   v080
	BYTE	W06
	BYTE		        Bn2   v076
	BYTE	W12
	BYTE		N24     Bn0   v084
	BYTE		N06     Bn2   v080
	BYTE	W06
	BYTE		N06   
	BYTE	W06
	BYTE		N06   
	BYTE	W12
// 131   ----------------------------------------
	BYTE		        An1   v096
	BYTE		N24     An2   v084
	BYTE	W06
	BYTE		N06     An1   v080
	BYTE	W06
	BYTE		        An1   v076
	BYTE	W12
	BYTE		        An1   v072
	BYTE		N24     An2   v084
	BYTE	W06
	BYTE		N06     An1   v076
	BYTE	W06
	BYTE		        An1   v072
	BYTE	W12
	BYTE		        An1   v076
	BYTE	W06
	BYTE		N06   
	BYTE	W06
	BYTE		N06   
	BYTE	W06
	BYTE		        Bn0   v064
	BYTE	W06
	BYTE		        Gn1   v092
	BYTE	W06
	BYTE		        Gn1   v076
	BYTE	W06
	BYTE		N12     Fn1   v072
	BYTE	W12
// 132   ----------------------------------------
	BYTE		        Fn1   v096
	BYTE		N72     An2   v084
	BYTE	W12
	BYTE		N12     Fn1   v080
	BYTE	W12
	BYTE		        Bn1   v108
	BYTE	W12
	BYTE		N24     Fn1   v068
	BYTE	W24
	BYTE		N12     Fn1   v076
	BYTE	W12
	BYTE		N24     Bn1   v108
	BYTE	W12
	BYTE		N12     Bn2   v072
	BYTE	W12
// 133   ----------------------------------------
	BYTE		        Fn1   v080
	BYTE	W12
	BYTE		N12   
	BYTE	W12
	BYTE		        Bn1   v104
	BYTE	W12
	BYTE		N24     Fn1   v068
	BYTE	W24
	BYTE		N12     Fn1   v084
	BYTE	W12
	BYTE		N24     Bn1   v104
	BYTE	W12
	BYTE		N12     Bn2   v072
	BYTE	W12
// 134   ----------------------------------------
	BYTE		        Fn1   v112
	BYTE	W12
	BYTE		        Fn1   v084
	BYTE	W12
	BYTE		        Bn1   v108
	BYTE	W12
	BYTE		N24     Fn1   v068
	BYTE	W24
	BYTE		N12     Fn1   v080
	BYTE	W12
	BYTE		N24     Bn1   v108
	BYTE	W24
// 135   ----------------------------------------
	BYTE		N12     Fn1   v080
	BYTE	W12
	BYTE		N12   
	BYTE	W12
	BYTE		        Bn1   v104
	BYTE	W12
	BYTE		N24     Fn1   v072
	BYTE	W24
	BYTE		N12     Fn1   v084
	BYTE	W12
	BYTE		N24     Bn1   v104
	BYTE	W24
// 136   ----------------------------------------
	BYTE		N12     Fn1   v080
	BYTE	W12
	BYTE		        Fn1   v076
	BYTE	W12
	BYTE		        Bn1   v104
	BYTE	W12
	BYTE		N24     Fn1   v072
	BYTE	W24
	BYTE		N12     Fn1   v080
	BYTE	W12
	BYTE		N24     Bn1   v108
	BYTE	W12
	BYTE		N12     Bn2   v068
	BYTE	W12
// 137   ----------------------------------------
	BYTE		        Fn1   v076
	BYTE	W12
	BYTE		N12   
	BYTE	W12
	BYTE		        Bn1   v108
	BYTE	W12
	BYTE		N24     Fn1   v068
	BYTE	W24
	BYTE		N12     Fn1   v080
	BYTE	W12
	BYTE		N24     Bn1   v104
	BYTE	W12
	BYTE		N12     Bn2   v068
	BYTE	W12
// 138   ----------------------------------------
	BYTE		        Fn1   v108
	BYTE	W12
	BYTE		        Fn1   v088
	BYTE	W12
	BYTE		        Bn1   v108
	BYTE	W12
	BYTE		N24     Fn1   v068
	BYTE	W24
	BYTE		N12     Fn1   v080
	BYTE	W12
	BYTE		N24     Bn1   v108
	BYTE	W24
// 139   ----------------------------------------
	BYTE		N12     Fn1   v076
	BYTE	W12
	BYTE		        Fn1   v080
	BYTE	W12
	BYTE		        Bn1   v100
	BYTE	W12
	BYTE		N24     Fn1   v076
	BYTE	W24
	BYTE		N12     Fn1   v080
	BYTE	W12
	BYTE		N24     Bn1   v104
	BYTE	W24
// 140   ----------------------------------------
	BYTE		N12     Fn1   v084
	BYTE		N72     An2 
	BYTE	W12
	BYTE		N12     Fn1 
	BYTE	W12
	BYTE		        Bn1   v108
	BYTE	W12
	BYTE		N24     Fn1   v068
	BYTE	W24
	BYTE		N12     Fn1   v076
	BYTE	W12
	BYTE		N24     Bn1   v104
	BYTE	W12
	BYTE		N12     Bn2   v072
	BYTE	W12
// 141   ----------------------------------------
	BYTE		        Fn1   v076
	BYTE	W12
	BYTE		        Fn1   v080
	BYTE	W12
	BYTE		        Bn1   v104
	BYTE	W12
	BYTE		N24     Fn1   v068
	BYTE	W24
	BYTE		N12     Fn1   v084
	BYTE	W12
	BYTE		N24     Bn1   v112
	BYTE	W12
	BYTE		N12     Bn2   v068
	BYTE	W12
// 142   ----------------------------------------
	BYTE		        Fn1   v108
	BYTE	W12
	BYTE		        Fn1   v080
	BYTE	W12
	BYTE		        Bn1   v104
	BYTE	W12
	BYTE		N24     Fn1   v064
	BYTE	W24
	BYTE		N12     Fn1   v080
	BYTE	W12
	BYTE		N24     Bn1   v100
	BYTE	W24
// 143   ----------------------------------------
	BYTE		N12     Fn1   v080
	BYTE	W12
	BYTE		        Fn1   v076
	BYTE	W12
	BYTE		        Bn1   v104
	BYTE	W12
	BYTE		N24     Fn1   v072
	BYTE	W24
	BYTE		N12     Fn1   v084
	BYTE	W12
	BYTE		N24     Bn1   v104
	BYTE	W24
// 144   ----------------------------------------
	BYTE		N12     Fn1   v084
	BYTE	W12
	BYTE		        Fn1   v076
	BYTE	W12
	BYTE		        Bn1   v108
	BYTE	W12
	BYTE		N24     Fn1   v072
	BYTE	W24
	BYTE		N12     Fn1   v080
	BYTE	W12
	BYTE		N24     Bn1   v108
	BYTE	W12
	BYTE		N12     Bn2   v072
	BYTE	W12
// 145   ----------------------------------------
	BYTE		        Fn1   v080
	BYTE	W12
	BYTE		N12   
	BYTE	W12
	BYTE		        Bn1   v104
	BYTE	W12
	BYTE		N24     Fn1   v076
	BYTE	W24
	BYTE		N12     Fn1   v080
	BYTE	W12
	BYTE		N24     Bn1   v104
	BYTE	W12
	BYTE		N12     Bn2   v076
	BYTE	W12
// 146   ----------------------------------------
	BYTE		N24     Bn0 
	BYTE		N12     An2   v088
	BYTE	W12
	BYTE		        Bn2   v084
	BYTE	W12
	BYTE		N24     Bn0 
	BYTE	W12
	BYTE		N12     Bn2   v072
	BYTE	W12
	BYTE		N24     Bn0   v092
	BYTE	W12
	BYTE		N12     Bn2   v076
	BYTE	W12
	BYTE		N24     Bn0   v088
	BYTE	W12
	BYTE		N12     Bn2   v076
	BYTE	W12
// 147   ----------------------------------------
	BYTE		N06     An1   v108
	BYTE		N24     An2   v092
	BYTE	W06
	BYTE		N06     An1   v088
	BYTE	W06
	BYTE		        An1   v080
	BYTE	W12
	BYTE		N06   
	BYTE		N24     An2   v096
	BYTE	W06
	BYTE		N06     An1   v088
	BYTE	W06
	BYTE		        An1   v080
	BYTE	W12
	BYTE		        An1   v088
	BYTE	W06
	BYTE		        An1   v084
	BYTE	W06
	BYTE		        An1   v080
	BYTE	W06
	BYTE		        Bn0   v072
	BYTE	W06
	BYTE		        Gn1   v100
	BYTE	W06
	BYTE		        Gn1   v088
	BYTE	W06
	BYTE		N12     Fn1   v076
	BYTE	W12
// 148   ----------------------------------------
	BYTE	FINE

//******************************************************//
	ALIGN 4

TalesofSymphonia-FightingoftheSpirit-RayZa:
	BYTE	6	// NumTrks
	BYTE	0	// NumBlks
	BYTE	TalesofSymphonia-FightingoftheSpirit-RayZa_pri	// Priority
	BYTE	TalesofSymphonia-FightingoftheSpirit-RayZa_rev	// Reverb.

	POIN2	TalesofSymphonia-FightingoftheSpirit-RayZa_grp

	POIN2	TalesofSymphonia-FightingoftheSpirit-RayZa_1
	POIN2	TalesofSymphonia-FightingoftheSpirit-RayZa_2
	POIN2	TalesofSymphonia-FightingoftheSpirit-RayZa_3
	POIN2	TalesofSymphonia-FightingoftheSpirit-RayZa_4
	POIN2	TalesofSymphonia-FightingoftheSpirit-RayZa_5
	POIN2	TalesofSymphonia-FightingoftheSpirit-RayZa_6

	
