//Event file generated from Sappy .s format.
	#include "MPlayDef.event"

	#define	untilwemeetagain8850_grp  voicegroup000
	#define	untilwemeetagain8850_pri  0
	#define	untilwemeetagain8850_rev  0
	#define	untilwemeetagain8850_mvl  63
	#define	untilwemeetagain8850_key  0
	#define	untilwemeetagain8850_tbs  1
	#define	untilwemeetagain8850_exg  0
	#define	untilwemeetagain8850_cmp  1

	// .rodata
	//	untilwemeetagain8850
	ALIGN 4

//**************** Track 1 (Midi-Chn.1) ****************//

untilwemeetagain8850_1:
	BYTE	KEYSH   untilwemeetagain8850_key+0
// 000   ----------------------------------------
	BYTE	TEMPO   126*untilwemeetagain8850_tbs/2
	BYTE	W96
// 001   ----------------------------------------
	BYTE		VOICE   73
	BYTE		VOL     125*untilwemeetagain8850_mvl/mxv
	BYTE		PAN     c_v+0
	BYTE	W48
	BYTE		MOD     0
	BYTE		BEND    c_v+0
	BYTE	W24
	BYTE	W12
	BYTE	W06
	BYTE	W06
// 002   ----------------------------------------
	BYTE	W96
// 003   ----------------------------------------
	BYTE	W96
// 004   ----------------------------------------
	BYTE	W96
// 005   ----------------------------------------
	BYTE	W96
// 006   ----------------------------------------
	BYTE	W96
// 007   ----------------------------------------
	BYTE	W96
// 008   ----------------------------------------
	BYTE	W96
// 009   ----------------------------------------
	BYTE	W96
// 010   ----------------------------------------
untilwemeetagain8850_1_010:
	BYTE		N23     An3   v112
	BYTE	W24
	BYTE		        Gs3 
	BYTE	W24
	BYTE		N11     An3 
	BYTE	W12
	BYTE		N23     As3 
	BYTE	W24
	BYTE		N44     An3 
	BYTE	W12
	BYTE	PEND
// 011   ----------------------------------------
untilwemeetagain8850_1_011:
	BYTE	W36
	BYTE		N28     En3   v112
	BYTE	W36
	BYTE		N11   
	BYTE	W12
	BYTE		        Fn3 
	BYTE	W12
	BYTE	PEND
// 012   ----------------------------------------
untilwemeetagain8850_1_012:
	BYTE		N32     Gn3   v112
	BYTE	W36
	BYTE		        An3 
	BYTE	W36
	BYTE		N23     Dn3 
	BYTE	W24
	BYTE	PEND
// 013   ----------------------------------------
untilwemeetagain8850_1_013:
	BYTE		N32     Dn3   v112
	BYTE	W36
	BYTE		N05     En3 
	BYTE	W06
	BYTE		        Dn3 
	BYTE	W06
	BYTE		N23     Cs3 
	BYTE	W24
	BYTE		N11     Dn3 
	BYTE	W12
	BYTE		        En3 
	BYTE	W12
	BYTE	PEND
// 014   ----------------------------------------
untilwemeetagain8850_1_014:
	BYTE		N11     Fn3   v112
	BYTE	W12
	BYTE		        En3 
	BYTE	W12
	BYTE		N23     Dn3 
	BYTE	W24
	BYTE		N23   
	BYTE	W24
	BYTE		N11     An3 
	BYTE	W12
	BYTE		N44     Gn3 
	BYTE	W12
	BYTE	PEND
// 015   ----------------------------------------
untilwemeetagain8850_1_015:
	BYTE	W36
	BYTE		N32     Fn3   v112
	BYTE	W36
	BYTE		N23     En3 
	BYTE	W20
	BYTE		MOD     0
	BYTE	W04
	BYTE	PEND
// 016   ----------------------------------------
untilwemeetagain8850_1_016:
	BYTE		N80     Fs3   v112
	BYTE	W06
	BYTE		MOD     1
	BYTE	W01
	BYTE		        3
	BYTE	W01
	BYTE		        6
	BYTE	W01
	BYTE		        10
	BYTE	W01
	BYTE		        12
	BYTE	W01
	BYTE		        13
	BYTE	W01
	BYTE		        20
	BYTE	W01
	BYTE		        24
	BYTE	W01
	BYTE		        27
	BYTE	W01
	BYTE		        31
	BYTE	W01
	BYTE		        34
	BYTE	W01
	BYTE		        36
	BYTE	W01
	BYTE		        45
	BYTE	W01
	BYTE		        47
	BYTE	W01
	BYTE		        49
	BYTE	W01
	BYTE		        55
	BYTE	W01
	BYTE		        58
	BYTE	W01
	BYTE		        62
	BYTE	W01
	BYTE		        68
	BYTE	W01
	BYTE		        70
	BYTE	W01
	BYTE		        73
	BYTE	W01
	BYTE		        80
	BYTE	W01
	BYTE		        82
	BYTE	W01
	BYTE		        85
	BYTE	W01
	BYTE		        91
	BYTE	W52
	BYTE		        0
	BYTE	W02
	BYTE		N92     An3 
	BYTE	W12
	BYTE	PEND
// 017   ----------------------------------------
untilwemeetagain8850_1_017:
	BYTE	W15
	BYTE		MOD     1
	BYTE	W03
	BYTE		        3
	BYTE	W02
	BYTE		        6
	BYTE	W01
	BYTE		        7
	BYTE	W01
	BYTE		        9
	BYTE	W01
	BYTE		        13
	BYTE	W01
	BYTE		        17
	BYTE	W01
	BYTE		        19
	BYTE	W01
	BYTE		        20
	BYTE	W01
	BYTE		        26
	BYTE	W02
	BYTE		        31
	BYTE	W01
	BYTE		        33
	BYTE	W01
	BYTE		        36
	BYTE	W01
	BYTE		        38
	BYTE	W01
	BYTE		        45
	BYTE	W01
	BYTE		        48
	BYTE	W01
	BYTE		        52
	BYTE	W01
	BYTE		        57
	BYTE	W01
	BYTE		        59
	BYTE	W01
	BYTE		        68
	BYTE	W01
	BYTE		        92
	BYTE	W42
	BYTE		        0
	BYTE	W15
	BYTE	PEND
// 018   ----------------------------------------
	BYTE	PATT
	 POIN2	untilwemeetagain8850_1_010
// 019   ----------------------------------------
	BYTE	PATT
	 POIN2	untilwemeetagain8850_1_011
// 020   ----------------------------------------
	BYTE	PATT
	 POIN2	untilwemeetagain8850_1_012
// 021   ----------------------------------------
	BYTE	PATT
	 POIN2	untilwemeetagain8850_1_013
// 022   ----------------------------------------
	BYTE	PATT
	 POIN2	untilwemeetagain8850_1_014
// 023   ----------------------------------------
untilwemeetagain8850_1_023:
	BYTE	W36
	BYTE		N32     Fn3   v112
	BYTE	W36
	BYTE		N23     En3 
	BYTE	W24
	BYTE	PEND
// 024   ----------------------------------------
untilwemeetagain8850_1_024:
	BYTE		N80     Fn3   v112
	BYTE	W08
	BYTE		MOD     0
	BYTE	W01
	BYTE		        1
	BYTE	W02
	BYTE		        3
	BYTE	W01
	BYTE		        5
	BYTE	W02
	BYTE		        9
	BYTE	W01
	BYTE		        10
	BYTE	W01
	BYTE		        12
	BYTE	W01
	BYTE		        15
	BYTE	W01
	BYTE		        19
	BYTE	W01
	BYTE		        21
	BYTE	W01
	BYTE		        23
	BYTE	W01
	BYTE		        26
	BYTE	W01
	BYTE		        28
	BYTE	W01
	BYTE		        32
	BYTE	W01
	BYTE		        34
	BYTE	W01
	BYTE		        38
	BYTE	W01
	BYTE		        42
	BYTE	W01
	BYTE		        45
	BYTE	W01
	BYTE		        51
	BYTE	W01
	BYTE		        56
	BYTE	W01
	BYTE		        65
	BYTE	W01
	BYTE		        70
	BYTE	W01
	BYTE		        74
	BYTE	W01
	BYTE		        81
	BYTE	W48
	BYTE	W02
	BYTE		        0
	BYTE	W01
	BYTE		TIE     Fs3 
	BYTE	W12
	BYTE	PEND
// 025   ----------------------------------------
untilwemeetagain8850_1_025:
	BYTE	W14
	BYTE		MOD     1
	BYTE	W02
	BYTE		        3
	BYTE	W02
	BYTE		        5
	BYTE	W02
	BYTE		        7
	BYTE	W01
	BYTE		        11
	BYTE	W02
	BYTE		        13
	BYTE	W01
	BYTE		        19
	BYTE	W02
	BYTE		        22
	BYTE	W01
	BYTE		        26
	BYTE	W01
	BYTE		        30
	BYTE	W02
	BYTE		        37
	BYTE	W01
	BYTE		        42
	BYTE	W01
	BYTE		        45
	BYTE	W01
	BYTE		        53
	BYTE	W01
	BYTE		        56
	BYTE	W01
	BYTE		        61
	BYTE	W01
	BYTE		        64
	BYTE	W01
	BYTE		        68
	BYTE	W01
	BYTE		        72
	BYTE	W01
	BYTE		        82
	BYTE	W52
	BYTE	W01
	BYTE		        0
	BYTE	W01
	BYTE	PEND
	BYTE		EOT     Fs3 
	BYTE	W03
// 026   ----------------------------------------
	BYTE	W96
// 027   ----------------------------------------
	BYTE	W96
// 028   ----------------------------------------
	BYTE	W96
// 029   ----------------------------------------
	BYTE	W96
// 030   ----------------------------------------
	BYTE	W96
// 031   ----------------------------------------
	BYTE	W96
// 032   ----------------------------------------
	BYTE	W96
// 033   ----------------------------------------
	BYTE	W96
// 034   ----------------------------------------
	BYTE	W96
// 035   ----------------------------------------
	BYTE	W96
// 036   ----------------------------------------
	BYTE	W96
// 037   ----------------------------------------
	BYTE	W96
// 038   ----------------------------------------
	BYTE	W96
// 039   ----------------------------------------
	BYTE	W96
// 040   ----------------------------------------
	BYTE	W96
// 041   ----------------------------------------
	BYTE	W96
// 042   ----------------------------------------
	BYTE	PATT
	 POIN2	untilwemeetagain8850_1_010
// 043   ----------------------------------------
	BYTE	PATT
	 POIN2	untilwemeetagain8850_1_011
// 044   ----------------------------------------
	BYTE	PATT
	 POIN2	untilwemeetagain8850_1_012
// 045   ----------------------------------------
	BYTE	PATT
	 POIN2	untilwemeetagain8850_1_013
// 046   ----------------------------------------
	BYTE	PATT
	 POIN2	untilwemeetagain8850_1_014
// 047   ----------------------------------------
	BYTE	PATT
	 POIN2	untilwemeetagain8850_1_015
// 048   ----------------------------------------
	BYTE	PATT
	 POIN2	untilwemeetagain8850_1_016
// 049   ----------------------------------------
	BYTE	PATT
	 POIN2	untilwemeetagain8850_1_017
// 050   ----------------------------------------
	BYTE	PATT
	 POIN2	untilwemeetagain8850_1_010
// 051   ----------------------------------------
	BYTE	PATT
	 POIN2	untilwemeetagain8850_1_011
// 052   ----------------------------------------
	BYTE	PATT
	 POIN2	untilwemeetagain8850_1_012
// 053   ----------------------------------------
	BYTE	PATT
	 POIN2	untilwemeetagain8850_1_013
// 054   ----------------------------------------
	BYTE	PATT
	 POIN2	untilwemeetagain8850_1_014
// 055   ----------------------------------------
	BYTE	PATT
	 POIN2	untilwemeetagain8850_1_023
// 056   ----------------------------------------
	BYTE	PATT
	 POIN2	untilwemeetagain8850_1_024
// 057   ----------------------------------------
	BYTE	PATT
	 POIN2	untilwemeetagain8850_1_025
	BYTE		EOT     Fs3 
	BYTE	W03
// 058   ----------------------------------------
	BYTE	W96
// 059   ----------------------------------------
	BYTE	W96
// 060   ----------------------------------------
	BYTE	W96
// 061   ----------------------------------------
	BYTE	W96
// 062   ----------------------------------------
	BYTE	W96
// 063   ----------------------------------------
	BYTE	W96
// 064   ----------------------------------------
	BYTE	W96
// 065   ----------------------------------------
	BYTE	W96
// 066   ----------------------------------------
	BYTE	W96
// 067   ----------------------------------------
	BYTE	W96
// 068   ----------------------------------------
	BYTE	W96
// 069   ----------------------------------------
	BYTE	W96
// 070   ----------------------------------------
	BYTE	W96
// 071   ----------------------------------------
	BYTE	W96
// 072   ----------------------------------------
	BYTE	W96
// 073   ----------------------------------------
	BYTE	W96
// 074   ----------------------------------------
	BYTE	W96
// 075   ----------------------------------------
	BYTE	W96
// 076   ----------------------------------------
	BYTE	W96
// 077   ----------------------------------------
	BYTE	W96
// 078   ----------------------------------------
	BYTE	W96
// 079   ----------------------------------------
	BYTE	W96
// 080   ----------------------------------------
	BYTE	W96
// 081   ----------------------------------------
	BYTE	W96
// 082   ----------------------------------------
	BYTE	W96
// 083   ----------------------------------------
	BYTE	W96
// 084   ----------------------------------------
	BYTE	W96
// 085   ----------------------------------------
	BYTE	W96
// 086   ----------------------------------------
	BYTE	W96
// 087   ----------------------------------------
	BYTE	W96
// 088   ----------------------------------------
	BYTE	W96
// 089   ----------------------------------------
	BYTE	W96
// 090   ----------------------------------------
	BYTE	W96
// 091   ----------------------------------------
	BYTE	W96
// 092   ----------------------------------------
	BYTE	W96
// 093   ----------------------------------------
	BYTE	W96
// 094   ----------------------------------------
	BYTE	W96
// 095   ----------------------------------------
	BYTE	W96
// 096   ----------------------------------------
	BYTE	W96
// 097   ----------------------------------------
	BYTE	W96
// 098   ----------------------------------------
	BYTE	PATT
	 POIN2	untilwemeetagain8850_1_010
// 099   ----------------------------------------
	BYTE	PATT
	 POIN2	untilwemeetagain8850_1_011
// 100   ----------------------------------------
	BYTE	PATT
	 POIN2	untilwemeetagain8850_1_012
// 101   ----------------------------------------
	BYTE	PATT
	 POIN2	untilwemeetagain8850_1_013
// 102   ----------------------------------------
	BYTE	PATT
	 POIN2	untilwemeetagain8850_1_014
// 103   ----------------------------------------
	BYTE	PATT
	 POIN2	untilwemeetagain8850_1_015
// 104   ----------------------------------------
	BYTE	PATT
	 POIN2	untilwemeetagain8850_1_016
// 105   ----------------------------------------
	BYTE	PATT
	 POIN2	untilwemeetagain8850_1_017
// 106   ----------------------------------------
	BYTE	PATT
	 POIN2	untilwemeetagain8850_1_010
// 107   ----------------------------------------
	BYTE	PATT
	 POIN2	untilwemeetagain8850_1_011
// 108   ----------------------------------------
	BYTE	PATT
	 POIN2	untilwemeetagain8850_1_012
// 109   ----------------------------------------
	BYTE	PATT
	 POIN2	untilwemeetagain8850_1_013
// 110   ----------------------------------------
	BYTE	PATT
	 POIN2	untilwemeetagain8850_1_014
// 111   ----------------------------------------
	BYTE	PATT
	 POIN2	untilwemeetagain8850_1_023
// 112   ----------------------------------------
	BYTE	PATT
	 POIN2	untilwemeetagain8850_1_024
// 113   ----------------------------------------
	BYTE	PATT
	 POIN2	untilwemeetagain8850_1_025
	BYTE		EOT     Fs3 
	BYTE	W03
// 114   ----------------------------------------
	BYTE	W96
// 115   ----------------------------------------
	BYTE	W96
// 116   ----------------------------------------
	BYTE	W96
// 117   ----------------------------------------
	BYTE	W96
// 118   ----------------------------------------
	BYTE	W96
// 119   ----------------------------------------
	BYTE	W96
// 120   ----------------------------------------
	BYTE	W96
// 121   ----------------------------------------
	BYTE	W96
// 122   ----------------------------------------
	BYTE	W96
// 123   ----------------------------------------
	BYTE	W96
// 124   ----------------------------------------
	BYTE	W96
// 125   ----------------------------------------
	BYTE	W96
// 126   ----------------------------------------
	BYTE	W96
// 127   ----------------------------------------
	BYTE	W96
// 128   ----------------------------------------
	BYTE	W96
// 129   ----------------------------------------
	BYTE	W96
// 130   ----------------------------------------
	BYTE		N23     An3   v112
	BYTE	W24
	BYTE		        Dn3 
	BYTE	W24
	BYTE		N11     En3 
	BYTE	W12
	BYTE		        Fn3 
	BYTE	W12
	BYTE		        Gn3 
	BYTE	W12
	BYTE		N44     Fn3 
	BYTE	W12
// 131   ----------------------------------------
	BYTE	W36
	BYTE		N23     En3 
	BYTE	W24
	BYTE		N11     Cn3 
	BYTE	W12
	BYTE		        Dn3 
	BYTE	W12
	BYTE		        En3 
	BYTE	W12
// 132   ----------------------------------------
	BYTE		N23     Gn3 
	BYTE	W24
	BYTE		        En3 
	BYTE	W24
	BYTE		N11     Cn3 
	BYTE	W12
	BYTE		        Dn3 
	BYTE	W12
	BYTE		        En3 
	BYTE	W12
	BYTE		N44     Fn3 
	BYTE	W12
// 133   ----------------------------------------
	BYTE	W36
	BYTE		N30     Dn3 
	BYTE	W36
	BYTE		N11   
	BYTE	W12
	BYTE		N11   
	BYTE	W12
// 134   ----------------------------------------
	BYTE		N23   
	BYTE	W24
	BYTE		        Fn3 
	BYTE	W24
	BYTE		N11     Gn3 
	BYTE	W12
	BYTE		N23     An3 
	BYTE	W24
	BYTE		N32     Gn3 
	BYTE	W12
// 135   ----------------------------------------
	BYTE	W24
	BYTE		N23     Fn3 
	BYTE	W24
	BYTE		N11     En3 
	BYTE	W12
	BYTE		N23     Cn3 
	BYTE	W24
	BYTE		N68     Dn3 
	BYTE	W08
	BYTE		MOD     0
	BYTE	W04
// 136   ----------------------------------------
	BYTE	W06
	BYTE		        1
	BYTE	W01
	BYTE		        3
	BYTE	W01
	BYTE		        6
	BYTE	W01
	BYTE		        10
	BYTE	W01
	BYTE		        12
	BYTE	W01
	BYTE		        13
	BYTE	W01
	BYTE		        20
	BYTE	W01
	BYTE		        24
	BYTE	W01
	BYTE		        27
	BYTE	W01
	BYTE		        31
	BYTE	W01
	BYTE		        34
	BYTE	W01
	BYTE		        36
	BYTE	W01
	BYTE		        45
	BYTE	W01
	BYTE		        47
	BYTE	W01
	BYTE		        49
	BYTE	W01
	BYTE		        55
	BYTE	W01
	BYTE		        58
	BYTE	W01
	BYTE		        62
	BYTE	W01
	BYTE		        68
	BYTE	W01
	BYTE		        70
	BYTE	W01
	BYTE		        73
	BYTE	W01
	BYTE		        80
	BYTE	W01
	BYTE		        82
	BYTE	W01
	BYTE		        85
	BYTE	W01
	BYTE		        97
	BYTE	W28
	BYTE	W01
	BYTE		        0
	BYTE	W01
	BYTE		N03     As2 
	BYTE	W04
	BYTE		        Cn3 
	BYTE	W04
	BYTE		        Dn3 
	BYTE	W04
	BYTE		        En3 
	BYTE	W04
	BYTE		        Fn3 
	BYTE	W04
	BYTE		        Gn3 
	BYTE	W04
	BYTE		        An3 
	BYTE	W04
	BYTE		        As3 
	BYTE	W04
	BYTE		        Cn4 
	BYTE	W04
// 137   ----------------------------------------
	BYTE		N92     Dn4 
	BYTE	W15
	BYTE		MOD     1
	BYTE	W03
	BYTE		        3
	BYTE	W02
	BYTE		        6
	BYTE	W01
	BYTE		        7
	BYTE	W01
	BYTE		        9
	BYTE	W01
	BYTE		        13
	BYTE	W01
	BYTE		        17
	BYTE	W01
	BYTE		        19
	BYTE	W01
	BYTE		        20
	BYTE	W01
	BYTE		        26
	BYTE	W02
	BYTE		        31
	BYTE	W01
	BYTE		        33
	BYTE	W01
	BYTE		        36
	BYTE	W01
	BYTE		        38
	BYTE	W01
	BYTE		        45
	BYTE	W01
	BYTE		        48
	BYTE	W01
	BYTE		        52
	BYTE	W01
	BYTE		        57
	BYTE	W01
	BYTE		        59
	BYTE	W01
	BYTE		        68
	BYTE	W01
	BYTE		        101
	BYTE	W56
	BYTE		        0
	BYTE	W01
// 138   ----------------------------------------
	BYTE	W96
// 139   ----------------------------------------
	BYTE	W96
// 140   ----------------------------------------
	BYTE	W96
// 141   ----------------------------------------
	BYTE	W96
// 142   ----------------------------------------
	BYTE	W96
// 143   ----------------------------------------
	BYTE	W96
// 144   ----------------------------------------
	BYTE	W96
// 145   ----------------------------------------
	BYTE	W96
// 146   ----------------------------------------
	BYTE	W96
// 147   ----------------------------------------
	BYTE	W96
// 148   ----------------------------------------
	BYTE	W96
// 149   ----------------------------------------
	BYTE	W96
// 150   ----------------------------------------
	BYTE	W96
// 151   ----------------------------------------
	BYTE	W96
// 152   ----------------------------------------
	BYTE	W96
// 153   ----------------------------------------
	BYTE	W96
// 154   ----------------------------------------
	BYTE	W96
// 155   ----------------------------------------
	BYTE	W96
// 156   ----------------------------------------
	BYTE	W96
// 157   ----------------------------------------
	BYTE	W96
// 158   ----------------------------------------
	BYTE	W96
// 159   ----------------------------------------
	BYTE	W06
	BYTE	FINE

//**************** Track 2 (Midi-Chn.2) ****************//

untilwemeetagain8850_2:
	BYTE	KEYSH   untilwemeetagain8850_key+0
// 000   ----------------------------------------
	BYTE	W96
// 001   ----------------------------------------
	BYTE		VOICE   34
	BYTE		VOL     110*untilwemeetagain8850_mvl/mxv
	BYTE		PAN     c_v+0
	BYTE	W48
	BYTE		MOD     0
	BYTE		BEND    c_v+0
	BYTE	W48
// 002   ----------------------------------------
	BYTE	W96
// 003   ----------------------------------------
	BYTE	W96
// 004   ----------------------------------------
	BYTE	W96
// 005   ----------------------------------------
	BYTE	W96
// 006   ----------------------------------------
	BYTE	W96
// 007   ----------------------------------------
	BYTE	W96
// 008   ----------------------------------------
	BYTE	W96
// 009   ----------------------------------------
	BYTE		N22     An0   v080
	BYTE	W24
	BYTE		        Bn0 
	BYTE	W24
	BYTE		        Cs1 
	BYTE	W24
	BYTE		        En1 
	BYTE	W24
// 010   ----------------------------------------
untilwemeetagain8850_2_010:
	BYTE		N08     Dn1   v100
	BYTE	W12
	BYTE		N10     Dn2 
	BYTE	W12
	BYTE		N08     Dn1 
	BYTE	W12
	BYTE		N10     Dn2 
	BYTE	W12
	BYTE		N08     Dn1 
	BYTE	W12
	BYTE		N10     Dn2 
	BYTE	W12
	BYTE		N08     Dn1 
	BYTE	W12
	BYTE		N10     Dn2 
	BYTE	W12
	BYTE	PEND
// 011   ----------------------------------------
untilwemeetagain8850_2_011:
	BYTE		N08     Cn1   v100
	BYTE	W12
	BYTE		N10     Cn2 
	BYTE	W12
	BYTE		N08     Cn1 
	BYTE	W12
	BYTE		N10     Cn2 
	BYTE	W12
	BYTE		N08     Cn1 
	BYTE	W12
	BYTE		N10     Cn2 
	BYTE	W12
	BYTE		N08     Cn1 
	BYTE	W12
	BYTE		N10     Cn2 
	BYTE	W12
	BYTE	PEND
// 012   ----------------------------------------
untilwemeetagain8850_2_012:
	BYTE		N08     As0   v100
	BYTE	W12
	BYTE		N10     As1 
	BYTE	W12
	BYTE		N08     As0 
	BYTE	W12
	BYTE		N10     As1 
	BYTE	W12
	BYTE		N08     As0 
	BYTE	W12
	BYTE		N10     As1 
	BYTE	W12
	BYTE		N08     As0 
	BYTE	W12
	BYTE		N10     As1 
	BYTE	W12
	BYTE	PEND
// 013   ----------------------------------------
untilwemeetagain8850_2_013:
	BYTE		N08     An0   v100
	BYTE	W12
	BYTE		N10     An1 
	BYTE	W12
	BYTE		N08     An0 
	BYTE	W12
	BYTE		N10     An1 
	BYTE	W12
	BYTE		N08     An0 
	BYTE	W12
	BYTE		N10     An1 
	BYTE	W12
	BYTE		N08     An0 
	BYTE	W12
	BYTE		N10     An1 
	BYTE	W12
	BYTE	PEND
// 014   ----------------------------------------
	BYTE	PATT
	 POIN2	untilwemeetagain8850_2_012
// 015   ----------------------------------------
	BYTE	PATT
	 POIN2	untilwemeetagain8850_2_011
// 016   ----------------------------------------
	BYTE	PATT
	 POIN2	untilwemeetagain8850_2_010
// 017   ----------------------------------------
untilwemeetagain8850_2_017:
	BYTE		N08     Dn1   v100
	BYTE	W12
	BYTE		N10     Dn2 
	BYTE	W12
	BYTE		N08     Dn1 
	BYTE	W12
	BYTE		N10     Dn2 
	BYTE	W12
	BYTE		N05     Dn1 
	BYTE	W06
	BYTE		        Fn1 
	BYTE	W06
	BYTE		        Gn1 
	BYTE	W06
	BYTE		        En1 
	BYTE	W06
	BYTE		        Fn1 
	BYTE	W06
	BYTE		        Gn1 
	BYTE	W06
	BYTE		        As1 
	BYTE	W06
	BYTE		        Cn2 
	BYTE	W06
	BYTE	PEND
// 018   ----------------------------------------
	BYTE	PATT
	 POIN2	untilwemeetagain8850_2_010
// 019   ----------------------------------------
	BYTE	PATT
	 POIN2	untilwemeetagain8850_2_011
// 020   ----------------------------------------
	BYTE	PATT
	 POIN2	untilwemeetagain8850_2_012
// 021   ----------------------------------------
	BYTE	PATT
	 POIN2	untilwemeetagain8850_2_013
// 022   ----------------------------------------
	BYTE	PATT
	 POIN2	untilwemeetagain8850_2_012
// 023   ----------------------------------------
	BYTE	PATT
	 POIN2	untilwemeetagain8850_2_011
// 024   ----------------------------------------
	BYTE	PATT
	 POIN2	untilwemeetagain8850_2_010
// 025   ----------------------------------------
untilwemeetagain8850_2_025:
	BYTE		N08     Dn1   v100
	BYTE	W12
	BYTE		N10     Dn2 
	BYTE	W12
	BYTE		N08     Dn1 
	BYTE	W12
	BYTE		N10     Dn2 
	BYTE	W12
	BYTE		N05     An1 
	BYTE	W06
	BYTE		        Gn1 
	BYTE	W06
	BYTE		        Fn1 
	BYTE	W06
	BYTE		        Gn1 
	BYTE	W06
	BYTE		        Fn1 
	BYTE	W06
	BYTE		        Dn1 
	BYTE	W06
	BYTE		        Cn1 
	BYTE	W06
	BYTE		        An0 
	BYTE	W06
	BYTE	PEND
// 026   ----------------------------------------
untilwemeetagain8850_2_026:
	BYTE		N08     Gn0   v100
	BYTE	W12
	BYTE		N10     Gn1 
	BYTE	W12
	BYTE		N08     Gn0 
	BYTE	W12
	BYTE		N10     Gn1 
	BYTE	W12
	BYTE		N08     Gn0 
	BYTE	W12
	BYTE		N10     Gn1 
	BYTE	W12
	BYTE		N08     Gn0 
	BYTE	W12
	BYTE		N10     Gn1 
	BYTE	W12
	BYTE	PEND
// 027   ----------------------------------------
	BYTE	PATT
	 POIN2	untilwemeetagain8850_2_013
// 028   ----------------------------------------
untilwemeetagain8850_2_028:
	BYTE		N08     Bn0   v100
	BYTE	W12
	BYTE		N10     Bn1 
	BYTE	W12
	BYTE		N08     Bn0 
	BYTE	W12
	BYTE		N10     Bn1 
	BYTE	W12
	BYTE		N08     Bn0 
	BYTE	W12
	BYTE		N10     Bn1 
	BYTE	W12
	BYTE		N08     Bn0 
	BYTE	W12
	BYTE		N10     Bn1 
	BYTE	W12
	BYTE	PEND
// 029   ----------------------------------------
untilwemeetagain8850_2_029:
	BYTE		N08     Dn1   v100
	BYTE	W12
	BYTE		N10     Dn2 
	BYTE	W12
	BYTE		N08     Dn1 
	BYTE	W12
	BYTE		N10     Dn2 
	BYTE	W12
	BYTE		N08     Dn1 
	BYTE	W12
	BYTE		N10     An1 
	BYTE	W12
	BYTE		N08     Dn1 
	BYTE	W12
	BYTE		N10     Fs1 
	BYTE	W12
	BYTE	PEND
// 030   ----------------------------------------
	BYTE	PATT
	 POIN2	untilwemeetagain8850_2_026
// 031   ----------------------------------------
	BYTE	PATT
	 POIN2	untilwemeetagain8850_2_013
// 032   ----------------------------------------
	BYTE	PATT
	 POIN2	untilwemeetagain8850_2_028
// 033   ----------------------------------------
untilwemeetagain8850_2_033:
	BYTE		N08     Dn1   v100
	BYTE	W12
	BYTE		N10     Dn2 
	BYTE	W12
	BYTE		N08     Dn1 
	BYTE	W12
	BYTE		N10     Dn2 
	BYTE	W12
	BYTE		N08     Dn1 
	BYTE	W12
	BYTE		N10     Bn1 
	BYTE	W12
	BYTE		        Fs1 
	BYTE	W12
	BYTE		        Dn1 
	BYTE	W12
	BYTE	PEND
// 034   ----------------------------------------
	BYTE	PATT
	 POIN2	untilwemeetagain8850_2_026
// 035   ----------------------------------------
	BYTE	PATT
	 POIN2	untilwemeetagain8850_2_013
// 036   ----------------------------------------
	BYTE	PATT
	 POIN2	untilwemeetagain8850_2_028
// 037   ----------------------------------------
	BYTE	PATT
	 POIN2	untilwemeetagain8850_2_029
// 038   ----------------------------------------
	BYTE	PATT
	 POIN2	untilwemeetagain8850_2_026
// 039   ----------------------------------------
	BYTE	PATT
	 POIN2	untilwemeetagain8850_2_013
// 040   ----------------------------------------
	BYTE	PATT
	 POIN2	untilwemeetagain8850_2_010
// 041   ----------------------------------------
untilwemeetagain8850_2_041:
	BYTE		N10     Dn1   v100
	BYTE	W12
	BYTE		        Fs1 
	BYTE	W12
	BYTE		N11     An1 
	BYTE	W12
	BYTE		N10     An0 
	BYTE	W12
	BYTE		        Dn1 
	BYTE	W12
	BYTE		        Dn2 
	BYTE	W12
	BYTE		        An0 
	BYTE	W12
	BYTE		        Dn2 
	BYTE	W12
	BYTE	PEND
// 042   ----------------------------------------
	BYTE	PATT
	 POIN2	untilwemeetagain8850_2_010
// 043   ----------------------------------------
	BYTE	PATT
	 POIN2	untilwemeetagain8850_2_011
// 044   ----------------------------------------
	BYTE	PATT
	 POIN2	untilwemeetagain8850_2_012
// 045   ----------------------------------------
	BYTE	PATT
	 POIN2	untilwemeetagain8850_2_013
// 046   ----------------------------------------
	BYTE	PATT
	 POIN2	untilwemeetagain8850_2_012
// 047   ----------------------------------------
	BYTE	PATT
	 POIN2	untilwemeetagain8850_2_011
// 048   ----------------------------------------
	BYTE	PATT
	 POIN2	untilwemeetagain8850_2_010
// 049   ----------------------------------------
	BYTE	PATT
	 POIN2	untilwemeetagain8850_2_017
// 050   ----------------------------------------
	BYTE	PATT
	 POIN2	untilwemeetagain8850_2_010
// 051   ----------------------------------------
	BYTE	PATT
	 POIN2	untilwemeetagain8850_2_011
// 052   ----------------------------------------
	BYTE	PATT
	 POIN2	untilwemeetagain8850_2_012
// 053   ----------------------------------------
	BYTE	PATT
	 POIN2	untilwemeetagain8850_2_013
// 054   ----------------------------------------
	BYTE	PATT
	 POIN2	untilwemeetagain8850_2_012
// 055   ----------------------------------------
	BYTE	PATT
	 POIN2	untilwemeetagain8850_2_011
// 056   ----------------------------------------
	BYTE	PATT
	 POIN2	untilwemeetagain8850_2_010
// 057   ----------------------------------------
	BYTE	PATT
	 POIN2	untilwemeetagain8850_2_025
// 058   ----------------------------------------
	BYTE	PATT
	 POIN2	untilwemeetagain8850_2_026
// 059   ----------------------------------------
	BYTE	PATT
	 POIN2	untilwemeetagain8850_2_013
// 060   ----------------------------------------
	BYTE	PATT
	 POIN2	untilwemeetagain8850_2_028
// 061   ----------------------------------------
	BYTE	PATT
	 POIN2	untilwemeetagain8850_2_029
// 062   ----------------------------------------
	BYTE	PATT
	 POIN2	untilwemeetagain8850_2_026
// 063   ----------------------------------------
	BYTE	PATT
	 POIN2	untilwemeetagain8850_2_013
// 064   ----------------------------------------
	BYTE	PATT
	 POIN2	untilwemeetagain8850_2_028
// 065   ----------------------------------------
	BYTE	PATT
	 POIN2	untilwemeetagain8850_2_033
// 066   ----------------------------------------
	BYTE	PATT
	 POIN2	untilwemeetagain8850_2_026
// 067   ----------------------------------------
	BYTE	PATT
	 POIN2	untilwemeetagain8850_2_013
// 068   ----------------------------------------
	BYTE	PATT
	 POIN2	untilwemeetagain8850_2_028
// 069   ----------------------------------------
	BYTE	PATT
	 POIN2	untilwemeetagain8850_2_029
// 070   ----------------------------------------
	BYTE	PATT
	 POIN2	untilwemeetagain8850_2_026
// 071   ----------------------------------------
	BYTE	PATT
	 POIN2	untilwemeetagain8850_2_013
// 072   ----------------------------------------
	BYTE	PATT
	 POIN2	untilwemeetagain8850_2_010
// 073   ----------------------------------------
	BYTE		N10     Dn1   v100
	BYTE	W12
	BYTE		        Fs1 
	BYTE	W12
	BYTE		N11     An1 
	BYTE	W12
	BYTE		N10     An0 
	BYTE	W12
	BYTE		        Dn1 
	BYTE	W12
	BYTE		        Dn2 
	BYTE	W12
	BYTE		        An0 
	BYTE	W12
	BYTE		        An1 
	BYTE	W12
// 074   ----------------------------------------
	BYTE		N92     Dn1   v092
	BYTE	W96
// 075   ----------------------------------------
	BYTE		        Cn1 
	BYTE	W96
// 076   ----------------------------------------
	BYTE		        As0 
	BYTE	W96
// 077   ----------------------------------------
untilwemeetagain8850_2_077:
	BYTE		N44     Gn0   v092
	BYTE	W48
	BYTE		        An0 
	BYTE	W48
	BYTE	PEND
// 078   ----------------------------------------
	BYTE		N92     As0 
	BYTE	W96
// 079   ----------------------------------------
	BYTE		        Cn1 
	BYTE	W96
// 080   ----------------------------------------
	BYTE		        Gn0 
	BYTE	W96
// 081   ----------------------------------------
untilwemeetagain8850_2_081:
	BYTE		N22     An0   v092
	BYTE	W24
	BYTE		        Bn0 
	BYTE	W24
	BYTE		        Cs1 
	BYTE	W24
	BYTE		        En1 
	BYTE	W24
	BYTE	PEND
// 082   ----------------------------------------
	BYTE		N92     Dn1 
	BYTE	W96
// 083   ----------------------------------------
	BYTE		        Cn1 
	BYTE	W96
// 084   ----------------------------------------
	BYTE		        As0 
	BYTE	W96
// 085   ----------------------------------------
	BYTE	PATT
	 POIN2	untilwemeetagain8850_2_077
// 086   ----------------------------------------
	BYTE		N92     As0   v092
	BYTE	W96
// 087   ----------------------------------------
	BYTE		        Cn1 
	BYTE	W96
// 088   ----------------------------------------
	BYTE		        Gn0 
	BYTE	W96
// 089   ----------------------------------------
	BYTE	PATT
	 POIN2	untilwemeetagain8850_2_081
// 090   ----------------------------------------
	BYTE	PATT
	 POIN2	untilwemeetagain8850_2_010
// 091   ----------------------------------------
	BYTE	PATT
	 POIN2	untilwemeetagain8850_2_011
// 092   ----------------------------------------
	BYTE	PATT
	 POIN2	untilwemeetagain8850_2_012
// 093   ----------------------------------------
	BYTE		N08     Gn0   v100
	BYTE	W12
	BYTE		N10     Gn1 
	BYTE	W12
	BYTE		N08     Gn0 
	BYTE	W12
	BYTE		N10     Gn1 
	BYTE	W12
	BYTE		N08     An0 
	BYTE	W12
	BYTE		N10     An1 
	BYTE	W12
	BYTE		N08     An0 
	BYTE	W12
	BYTE		N10     An1 
	BYTE	W12
// 094   ----------------------------------------
	BYTE	PATT
	 POIN2	untilwemeetagain8850_2_012
// 095   ----------------------------------------
	BYTE	PATT
	 POIN2	untilwemeetagain8850_2_011
// 096   ----------------------------------------
	BYTE	PATT
	 POIN2	untilwemeetagain8850_2_026
// 097   ----------------------------------------
	BYTE		N08     An0   v100
	BYTE	W12
	BYTE		N10     An1 
	BYTE	W12
	BYTE		N08     Bn0 
	BYTE	W12
	BYTE		N10     Bn1 
	BYTE	W12
	BYTE		N08     Gn0 
	BYTE	W12
	BYTE		N10     Gn1 
	BYTE	W12
	BYTE		N08     En0 
	BYTE	W12
	BYTE		N10     En1 
	BYTE	W12
// 098   ----------------------------------------
	BYTE	PATT
	 POIN2	untilwemeetagain8850_2_010
// 099   ----------------------------------------
	BYTE	PATT
	 POIN2	untilwemeetagain8850_2_011
// 100   ----------------------------------------
	BYTE	PATT
	 POIN2	untilwemeetagain8850_2_012
// 101   ----------------------------------------
	BYTE	PATT
	 POIN2	untilwemeetagain8850_2_013
// 102   ----------------------------------------
	BYTE	PATT
	 POIN2	untilwemeetagain8850_2_012
// 103   ----------------------------------------
	BYTE	PATT
	 POIN2	untilwemeetagain8850_2_011
// 104   ----------------------------------------
	BYTE	PATT
	 POIN2	untilwemeetagain8850_2_010
// 105   ----------------------------------------
	BYTE	PATT
	 POIN2	untilwemeetagain8850_2_017
// 106   ----------------------------------------
	BYTE	PATT
	 POIN2	untilwemeetagain8850_2_010
// 107   ----------------------------------------
	BYTE	PATT
	 POIN2	untilwemeetagain8850_2_011
// 108   ----------------------------------------
	BYTE	PATT
	 POIN2	untilwemeetagain8850_2_012
// 109   ----------------------------------------
	BYTE	PATT
	 POIN2	untilwemeetagain8850_2_013
// 110   ----------------------------------------
	BYTE	PATT
	 POIN2	untilwemeetagain8850_2_012
// 111   ----------------------------------------
	BYTE	PATT
	 POIN2	untilwemeetagain8850_2_011
// 112   ----------------------------------------
	BYTE	PATT
	 POIN2	untilwemeetagain8850_2_010
// 113   ----------------------------------------
	BYTE	PATT
	 POIN2	untilwemeetagain8850_2_025
// 114   ----------------------------------------
	BYTE	PATT
	 POIN2	untilwemeetagain8850_2_026
// 115   ----------------------------------------
	BYTE	PATT
	 POIN2	untilwemeetagain8850_2_013
// 116   ----------------------------------------
	BYTE	PATT
	 POIN2	untilwemeetagain8850_2_028
// 117   ----------------------------------------
	BYTE	PATT
	 POIN2	untilwemeetagain8850_2_029
// 118   ----------------------------------------
	BYTE	PATT
	 POIN2	untilwemeetagain8850_2_026
// 119   ----------------------------------------
	BYTE	PATT
	 POIN2	untilwemeetagain8850_2_013
// 120   ----------------------------------------
	BYTE	PATT
	 POIN2	untilwemeetagain8850_2_028
// 121   ----------------------------------------
	BYTE	PATT
	 POIN2	untilwemeetagain8850_2_033
// 122   ----------------------------------------
	BYTE	PATT
	 POIN2	untilwemeetagain8850_2_026
// 123   ----------------------------------------
	BYTE	PATT
	 POIN2	untilwemeetagain8850_2_013
// 124   ----------------------------------------
	BYTE	PATT
	 POIN2	untilwemeetagain8850_2_028
// 125   ----------------------------------------
	BYTE	PATT
	 POIN2	untilwemeetagain8850_2_029
// 126   ----------------------------------------
	BYTE	PATT
	 POIN2	untilwemeetagain8850_2_026
// 127   ----------------------------------------
	BYTE	PATT
	 POIN2	untilwemeetagain8850_2_013
// 128   ----------------------------------------
	BYTE	PATT
	 POIN2	untilwemeetagain8850_2_010
// 129   ----------------------------------------
	BYTE	PATT
	 POIN2	untilwemeetagain8850_2_041
// 130   ----------------------------------------
	BYTE	PATT
	 POIN2	untilwemeetagain8850_2_010
// 131   ----------------------------------------
	BYTE		N08     Cs1   v100
	BYTE	W12
	BYTE		N10     Cs2 
	BYTE	W12
	BYTE		N08     Cs1 
	BYTE	W12
	BYTE		N10     Cs2 
	BYTE	W12
	BYTE		N08     Cs1 
	BYTE	W12
	BYTE		N10     Cs2 
	BYTE	W12
	BYTE		N08     Cs1 
	BYTE	W12
	BYTE		N10     Cs2 
	BYTE	W12
// 132   ----------------------------------------
	BYTE	PATT
	 POIN2	untilwemeetagain8850_2_011
// 133   ----------------------------------------
	BYTE	PATT
	 POIN2	untilwemeetagain8850_2_028
// 134   ----------------------------------------
	BYTE	PATT
	 POIN2	untilwemeetagain8850_2_012
// 135   ----------------------------------------
	BYTE	PATT
	 POIN2	untilwemeetagain8850_2_011
// 136   ----------------------------------------
	BYTE	PATT
	 POIN2	untilwemeetagain8850_2_010
// 137   ----------------------------------------
	BYTE	PATT
	 POIN2	untilwemeetagain8850_2_017
// 138   ----------------------------------------
	BYTE		N92     Dn1   v092
	BYTE	W96
// 139   ----------------------------------------
	BYTE		        Cn1 
	BYTE	W96
// 140   ----------------------------------------
	BYTE		        As0 
	BYTE	W96
// 141   ----------------------------------------
	BYTE	PATT
	 POIN2	untilwemeetagain8850_2_077
// 142   ----------------------------------------
	BYTE		N92     As0   v092
	BYTE	W96
// 143   ----------------------------------------
	BYTE		        Cn1 
	BYTE	W96
// 144   ----------------------------------------
	BYTE		        Gn0 
	BYTE	W96
// 145   ----------------------------------------
	BYTE	PATT
	 POIN2	untilwemeetagain8850_2_081
// 146   ----------------------------------------
	BYTE		N92     Dn1   v092
	BYTE	W96
// 147   ----------------------------------------
	BYTE		        Cn1 
	BYTE	W96
// 148   ----------------------------------------
	BYTE		        As0 
	BYTE	W96
// 149   ----------------------------------------
	BYTE	PATT
	 POIN2	untilwemeetagain8850_2_077
// 150   ----------------------------------------
	BYTE		N92     As0   v092
	BYTE	W96
// 151   ----------------------------------------
	BYTE		        Cn1 
	BYTE	W96
// 152   ----------------------------------------
	BYTE		        Gn0 
	BYTE	W96
// 153   ----------------------------------------
	BYTE	PATT
	 POIN2	untilwemeetagain8850_2_081
// 154   ----------------------------------------
	BYTE		TIE     Dn0   v092
	BYTE	W96
// 155   ----------------------------------------
	BYTE	W92
	BYTE	W03
	BYTE		EOT   
	BYTE	W01
// 156   ----------------------------------------
	BYTE	W96
// 157   ----------------------------------------
	BYTE	W96
// 158   ----------------------------------------
	BYTE	W96
// 159   ----------------------------------------
	BYTE	W06
	BYTE	FINE

//**************** Track 3 (Midi-Chn.3) ****************//

untilwemeetagain8850_3:
	BYTE	KEYSH   untilwemeetagain8850_key+0
// 000   ----------------------------------------
	BYTE	W96
// 001   ----------------------------------------
	BYTE		VOICE   56
	BYTE		VOL     105*untilwemeetagain8850_mvl/mxv
	BYTE		PAN     c_v+0
	BYTE	W48
	BYTE		MOD     0
	BYTE		BEND    c_v+0
	BYTE	W48
// 002   ----------------------------------------
	BYTE	W96
// 003   ----------------------------------------
	BYTE	W96
// 004   ----------------------------------------
	BYTE	W96
// 005   ----------------------------------------
	BYTE	W96
// 006   ----------------------------------------
	BYTE	W96
// 007   ----------------------------------------
	BYTE	W96
// 008   ----------------------------------------
	BYTE	W96
// 009   ----------------------------------------
	BYTE	W96
// 010   ----------------------------------------
	BYTE	W96
// 011   ----------------------------------------
	BYTE	W96
// 012   ----------------------------------------
	BYTE	W96
// 013   ----------------------------------------
	BYTE	W96
// 014   ----------------------------------------
	BYTE	W96
// 015   ----------------------------------------
	BYTE	W96
// 016   ----------------------------------------
	BYTE	W96
// 017   ----------------------------------------
	BYTE	W96
// 018   ----------------------------------------
	BYTE	W96
// 019   ----------------------------------------
	BYTE	W96
// 020   ----------------------------------------
	BYTE	W96
// 021   ----------------------------------------
	BYTE	W96
// 022   ----------------------------------------
	BYTE	W96
// 023   ----------------------------------------
	BYTE	W96
// 024   ----------------------------------------
	BYTE	W96
// 025   ----------------------------------------
	BYTE	W96
// 026   ----------------------------------------
	BYTE	W96
// 027   ----------------------------------------
	BYTE	W96
// 028   ----------------------------------------
	BYTE	W96
// 029   ----------------------------------------
	BYTE	W96
// 030   ----------------------------------------
	BYTE	W96
// 031   ----------------------------------------
	BYTE	W96
// 032   ----------------------------------------
	BYTE	W96
// 033   ----------------------------------------
	BYTE	W72
	BYTE		N23     Bn3   v112
	BYTE	W24
// 034   ----------------------------------------
untilwemeetagain8850_3_034:
	BYTE		N68     Fs4   v112
	BYTE	W14
	BYTE		MOD     1
	BYTE	W01
	BYTE		        3
	BYTE	W02
	BYTE		        5
	BYTE	W01
	BYTE		        7
	BYTE	W01
	BYTE		        8
	BYTE	W01
	BYTE		        12
	BYTE	W01
	BYTE		        14
	BYTE	W01
	BYTE		        16
	BYTE	W01
	BYTE		        21
	BYTE	W01
	BYTE		        25
	BYTE	W01
	BYTE		        28
	BYTE	W01
	BYTE		        31
	BYTE	W01
	BYTE		        37
	BYTE	W01
	BYTE		        40
	BYTE	W02
	BYTE		        50
	BYTE	W01
	BYTE		        53
	BYTE	W01
	BYTE		        57
	BYTE	W01
	BYTE		        66
	BYTE	W01
	BYTE		        72
	BYTE	W01
	BYTE		        77
	BYTE	W01
	BYTE		        91
	BYTE	W01
	BYTE		        97
	BYTE	W01
	BYTE		        103
	BYTE	W01
	BYTE		        127
	BYTE	W32
	BYTE		        0
	BYTE	W01
	BYTE		N11     Gn4 
	BYTE	W12
	BYTE		N68     En4 
	BYTE	W12
	BYTE	PEND
// 035   ----------------------------------------
untilwemeetagain8850_3_035:
	BYTE	W05
	BYTE		MOD     1
	BYTE	W01
	BYTE		        3
	BYTE	W01
	BYTE		        5
	BYTE	W02
	BYTE		        7
	BYTE	W01
	BYTE		        10
	BYTE	W01
	BYTE		        13
	BYTE	W01
	BYTE		        18
	BYTE	W01
	BYTE		        21
	BYTE	W01
	BYTE		        24
	BYTE	W01
	BYTE		        34
	BYTE	W01
	BYTE		        41
	BYTE	W01
	BYTE		        48
	BYTE	W01
	BYTE		        118
	BYTE	W01
	BYTE		        127
	BYTE	W40
	BYTE		        0
	BYTE	W01
	BYTE		N11     Cs4   v112
	BYTE	W12
	BYTE		        Dn4 
	BYTE	W12
	BYTE		N23     En4 
	BYTE	W12
	BYTE	PEND
// 036   ----------------------------------------
untilwemeetagain8850_3_036:
	BYTE	W12
	BYTE		N11     En4   v112
	BYTE	W12
	BYTE		N17     Cs4 
	BYTE	W24
	BYTE		        Fs4 
	BYTE	W18
	BYTE		N05     En4 
	BYTE	W18
	BYTE		N56     Dn4 
	BYTE	W11
	BYTE		MOD     0
	BYTE	W01
	BYTE	PEND
// 037   ----------------------------------------
untilwemeetagain8850_3_037:
	BYTE		MOD     3
	BYTE	W01
	BYTE		        4
	BYTE	W01
	BYTE		        6
	BYTE	W01
	BYTE		        10
	BYTE	W01
	BYTE		        13
	BYTE	W01
	BYTE		        15
	BYTE	W01
	BYTE		        23
	BYTE	W01
	BYTE		        28
	BYTE	W01
	BYTE		        32
	BYTE	W01
	BYTE		        35
	BYTE	W01
	BYTE		        40
	BYTE	W01
	BYTE		        45
	BYTE	W01
	BYTE		        58
	BYTE	W01
	BYTE		        63
	BYTE	W01
	BYTE		        71
	BYTE	W01
	BYTE		        91
	BYTE	W01
	BYTE		        116
	BYTE	W01
	BYTE		        127
	BYTE	W30
	BYTE		        0
	BYTE	W01
	BYTE		N23     Bn3   v112
	BYTE	W24
	BYTE		        Cs4 
	BYTE	W24
	BYTE	PEND
// 038   ----------------------------------------
untilwemeetagain8850_3_038:
	BYTE		N68     Dn4   v112
	BYTE	W15
	BYTE		MOD     2
	BYTE	W01
	BYTE		        3
	BYTE	W02
	BYTE		        7
	BYTE	W01
	BYTE		        9
	BYTE	W01
	BYTE		        10
	BYTE	W01
	BYTE		        14
	BYTE	W01
	BYTE		        16
	BYTE	W01
	BYTE		        21
	BYTE	W01
	BYTE		        28
	BYTE	W01
	BYTE		        36
	BYTE	W01
	BYTE		        40
	BYTE	W01
	BYTE		        62
	BYTE	W01
	BYTE		        82
	BYTE	W01
	BYTE		        127
	BYTE	W42
	BYTE		        0
	BYTE	W01
	BYTE		N11     Fs4 
	BYTE	W12
	BYTE		N56     En4 
	BYTE	W12
	BYTE	PEND
// 039   ----------------------------------------
untilwemeetagain8850_3_039:
	BYTE	W48
	BYTE		N23     Dn4   v112
	BYTE	W24
	BYTE		N11     En4 
	BYTE	W12
	BYTE		TIE     Dn4 
	BYTE	W12
	BYTE	PEND
// 040   ----------------------------------------
untilwemeetagain8850_3_040:
	BYTE	W13
	BYTE		MOD     1
	BYTE	W03
	BYTE		        3
	BYTE	W01
	BYTE		        4
	BYTE	W01
	BYTE		        5
	BYTE	W01
	BYTE		        7
	BYTE	W01
	BYTE		        9
	BYTE	W01
	BYTE		        12
	BYTE	W02
	BYTE		        14
	BYTE	W01
	BYTE		        16
	BYTE	W01
	BYTE		        19
	BYTE	W01
	BYTE		        21
	BYTE	W01
	BYTE		        24
	BYTE	W01
	BYTE		        26
	BYTE	W02
	BYTE		        34
	BYTE	W02
	BYTE		        38
	BYTE	W01
	BYTE		        45
	BYTE	W01
	BYTE		        48
	BYTE	W01
	BYTE		        52
	BYTE	W01
	BYTE		        59
	BYTE	W01
	BYTE		        64
	BYTE	W01
	BYTE		        66
	BYTE	W01
	BYTE		        76
	BYTE	W01
	BYTE		        86
	BYTE	W01
	BYTE		        94
	BYTE	W01
	BYTE		        106
	BYTE	W01
	BYTE		        118
	BYTE	W01
	BYTE		        127
	BYTE	W52
	BYTE	PEND
// 041   ----------------------------------------
	BYTE	W68
	BYTE	W03
	BYTE		EOT     Dn4 
	BYTE		MOD     0
	BYTE	W24
	BYTE	W01
// 042   ----------------------------------------
	BYTE	W96
// 043   ----------------------------------------
	BYTE	W96
// 044   ----------------------------------------
	BYTE	W96
// 045   ----------------------------------------
	BYTE	W96
// 046   ----------------------------------------
	BYTE	W96
// 047   ----------------------------------------
	BYTE	W96
// 048   ----------------------------------------
	BYTE	W96
// 049   ----------------------------------------
	BYTE	W96
// 050   ----------------------------------------
	BYTE	W96
// 051   ----------------------------------------
	BYTE	W96
// 052   ----------------------------------------
	BYTE	W96
// 053   ----------------------------------------
	BYTE	W96
// 054   ----------------------------------------
	BYTE	W96
// 055   ----------------------------------------
	BYTE	W96
// 056   ----------------------------------------
	BYTE	W96
// 057   ----------------------------------------
	BYTE	W96
// 058   ----------------------------------------
	BYTE	W96
// 059   ----------------------------------------
	BYTE	W96
// 060   ----------------------------------------
	BYTE	W96
// 061   ----------------------------------------
	BYTE	W96
// 062   ----------------------------------------
	BYTE	W96
// 063   ----------------------------------------
	BYTE	W96
// 064   ----------------------------------------
	BYTE	W96
// 065   ----------------------------------------
	BYTE	W60
	BYTE		N11     Fs3   v112
	BYTE	W12
	BYTE		        Dn4 
	BYTE	W12
	BYTE		        En4 
	BYTE	W12
// 066   ----------------------------------------
	BYTE	PATT
	 POIN2	untilwemeetagain8850_3_034
// 067   ----------------------------------------
	BYTE	PATT
	 POIN2	untilwemeetagain8850_3_035
// 068   ----------------------------------------
	BYTE	PATT
	 POIN2	untilwemeetagain8850_3_036
// 069   ----------------------------------------
	BYTE	PATT
	 POIN2	untilwemeetagain8850_3_037
// 070   ----------------------------------------
	BYTE	PATT
	 POIN2	untilwemeetagain8850_3_038
// 071   ----------------------------------------
	BYTE	PATT
	 POIN2	untilwemeetagain8850_3_039
// 072   ----------------------------------------
	BYTE	PATT
	 POIN2	untilwemeetagain8850_3_040
// 073   ----------------------------------------
	BYTE	W68
	BYTE	W03
	BYTE		EOT     Dn4 
	BYTE		MOD     0
	BYTE	W24
	BYTE	W01
// 074   ----------------------------------------
	BYTE	W96
// 075   ----------------------------------------
	BYTE	W96
// 076   ----------------------------------------
	BYTE	W96
// 077   ----------------------------------------
	BYTE	W96
// 078   ----------------------------------------
	BYTE	W96
// 079   ----------------------------------------
	BYTE	W96
// 080   ----------------------------------------
	BYTE	W96
// 081   ----------------------------------------
	BYTE	W96
// 082   ----------------------------------------
	BYTE	W96
// 083   ----------------------------------------
	BYTE	W96
// 084   ----------------------------------------
	BYTE	W96
// 085   ----------------------------------------
	BYTE	W96
// 086   ----------------------------------------
	BYTE	W96
// 087   ----------------------------------------
	BYTE	W96
// 088   ----------------------------------------
	BYTE	W96
// 089   ----------------------------------------
	BYTE	W96
// 090   ----------------------------------------
	BYTE	W96
// 091   ----------------------------------------
	BYTE	W96
// 092   ----------------------------------------
	BYTE	W96
// 093   ----------------------------------------
	BYTE	W96
// 094   ----------------------------------------
	BYTE	W96
// 095   ----------------------------------------
	BYTE	W96
// 096   ----------------------------------------
	BYTE	W96
// 097   ----------------------------------------
	BYTE	W96
// 098   ----------------------------------------
	BYTE	W96
// 099   ----------------------------------------
	BYTE	W96
// 100   ----------------------------------------
	BYTE	W96
// 101   ----------------------------------------
	BYTE	W96
// 102   ----------------------------------------
	BYTE	W96
// 103   ----------------------------------------
	BYTE	W96
// 104   ----------------------------------------
	BYTE	W96
// 105   ----------------------------------------
	BYTE	W96
// 106   ----------------------------------------
	BYTE	W96
// 107   ----------------------------------------
	BYTE	W96
// 108   ----------------------------------------
	BYTE	W96
// 109   ----------------------------------------
	BYTE	W96
// 110   ----------------------------------------
	BYTE	W96
// 111   ----------------------------------------
	BYTE	W96
// 112   ----------------------------------------
	BYTE	W96
// 113   ----------------------------------------
	BYTE	W96
// 114   ----------------------------------------
	BYTE	W96
// 115   ----------------------------------------
	BYTE	W96
// 116   ----------------------------------------
	BYTE	W96
// 117   ----------------------------------------
	BYTE	W96
// 118   ----------------------------------------
	BYTE	W96
// 119   ----------------------------------------
	BYTE	W96
// 120   ----------------------------------------
	BYTE	W96
// 121   ----------------------------------------
	BYTE	W60
	BYTE		N04     Bn2   v112
	BYTE	W04
	BYTE		        Dn3 
	BYTE	W04
	BYTE		        En3 
	BYTE	W04
	BYTE		        Fs3 
	BYTE	W04
	BYTE		        An3 
	BYTE	W04
	BYTE		        Bn3 
	BYTE	W04
	BYTE		        Cs4 
	BYTE	W04
	BYTE		        Dn4 
	BYTE	W04
	BYTE		N03     En4 
	BYTE	W04
// 122   ----------------------------------------
	BYTE	PATT
	 POIN2	untilwemeetagain8850_3_034
// 123   ----------------------------------------
	BYTE	W05
	BYTE		MOD     1
	BYTE	W01
	BYTE		        3
	BYTE	W01
	BYTE		        5
	BYTE	W02
	BYTE		        7
	BYTE	W01
	BYTE		        10
	BYTE	W01
	BYTE		        13
	BYTE	W01
	BYTE		        18
	BYTE	W01
	BYTE		        21
	BYTE	W01
	BYTE		        24
	BYTE	W01
	BYTE		        34
	BYTE	W01
	BYTE		        41
	BYTE	W01
	BYTE		        48
	BYTE	W01
	BYTE		        118
	BYTE	W01
	BYTE		        127
	BYTE	W40
	BYTE		        0
	BYTE	W01
	BYTE		N11     Fs4   v112
	BYTE	W12
	BYTE		        Gn4 
	BYTE	W12
	BYTE		N23     An4 
	BYTE	W12
// 124   ----------------------------------------
	BYTE	W12
	BYTE		N11   
	BYTE	W12
	BYTE		N17     Gn4 
	BYTE	W24
	BYTE		        Fs4 
	BYTE	W18
	BYTE		N05     En4 
	BYTE	W18
	BYTE		N56     Dn4 
	BYTE	W11
	BYTE		MOD     0
	BYTE	W01
// 125   ----------------------------------------
	BYTE	PATT
	 POIN2	untilwemeetagain8850_3_037
// 126   ----------------------------------------
	BYTE		N68     Dn4   v112
	BYTE	W15
	BYTE		MOD     2
	BYTE	W01
	BYTE		        3
	BYTE	W02
	BYTE		        7
	BYTE	W01
	BYTE		        9
	BYTE	W01
	BYTE		        10
	BYTE	W01
	BYTE		        14
	BYTE	W01
	BYTE		        16
	BYTE	W01
	BYTE		        21
	BYTE	W01
	BYTE		        28
	BYTE	W01
	BYTE		        36
	BYTE	W01
	BYTE		        40
	BYTE	W01
	BYTE		        62
	BYTE	W01
	BYTE		        82
	BYTE	W01
	BYTE		        127
	BYTE	W42
	BYTE		        0
	BYTE	W01
	BYTE		N11     En4 
	BYTE	W12
	BYTE		N44     Cs4 
	BYTE	W12
// 127   ----------------------------------------
	BYTE	W36
	BYTE		N23     Fs4 
	BYTE	W24
	BYTE		N11     Gn4 
	BYTE	W12
	BYTE		        En4 
	BYTE	W12
	BYTE		TIE     Fs4 
	BYTE	W12
// 128   ----------------------------------------
	BYTE	PATT
	 POIN2	untilwemeetagain8850_3_040
// 129   ----------------------------------------
	BYTE	W68
	BYTE	W03
	BYTE		EOT     Fs4 
	BYTE		MOD     0
	BYTE	W24
	BYTE	W01
// 130   ----------------------------------------
	BYTE	W96
// 131   ----------------------------------------
	BYTE	W96
// 132   ----------------------------------------
	BYTE	W96
// 133   ----------------------------------------
	BYTE	W96
// 134   ----------------------------------------
	BYTE	W96
// 135   ----------------------------------------
	BYTE	W96
// 136   ----------------------------------------
	BYTE	W96
// 137   ----------------------------------------
	BYTE	W96
// 138   ----------------------------------------
	BYTE	W96
// 139   ----------------------------------------
	BYTE	W96
// 140   ----------------------------------------
	BYTE	W96
// 141   ----------------------------------------
	BYTE	W96
// 142   ----------------------------------------
	BYTE	W96
// 143   ----------------------------------------
	BYTE	W96
// 144   ----------------------------------------
	BYTE	W96
// 145   ----------------------------------------
	BYTE	W96
// 146   ----------------------------------------
	BYTE	W96
// 147   ----------------------------------------
	BYTE	W96
// 148   ----------------------------------------
	BYTE	W96
// 149   ----------------------------------------
	BYTE	W96
// 150   ----------------------------------------
	BYTE	W96
// 151   ----------------------------------------
	BYTE	W96
// 152   ----------------------------------------
	BYTE	W96
// 153   ----------------------------------------
	BYTE	W96
// 154   ----------------------------------------
	BYTE	W96
// 155   ----------------------------------------
	BYTE	W96
// 156   ----------------------------------------
	BYTE	W96
// 157   ----------------------------------------
	BYTE	W96
// 158   ----------------------------------------
	BYTE	W96
// 159   ----------------------------------------
	BYTE	W06
	BYTE	FINE

//**************** Track 4 (Midi-Chn.4) ****************//

untilwemeetagain8850_4:
	BYTE	KEYSH   untilwemeetagain8850_key+0
// 000   ----------------------------------------
	BYTE	W96
// 001   ----------------------------------------
	BYTE		VOICE   71
	BYTE		VOL     115*untilwemeetagain8850_mvl/mxv
	BYTE		PAN     c_v+0
	BYTE	W48
	BYTE		MOD     0
	BYTE		        0
	BYTE		BEND    c_v+0
	BYTE	W48
// 002   ----------------------------------------
	BYTE	W96
// 003   ----------------------------------------
	BYTE	W96
// 004   ----------------------------------------
	BYTE	W96
// 005   ----------------------------------------
	BYTE	W96
// 006   ----------------------------------------
	BYTE	W96
// 007   ----------------------------------------
	BYTE	W96
// 008   ----------------------------------------
	BYTE	W96
// 009   ----------------------------------------
	BYTE	W96
// 010   ----------------------------------------
	BYTE	W96
// 011   ----------------------------------------
	BYTE	W96
// 012   ----------------------------------------
	BYTE	W96
// 013   ----------------------------------------
	BYTE	W96
// 014   ----------------------------------------
	BYTE	W96
// 015   ----------------------------------------
	BYTE	W96
// 016   ----------------------------------------
	BYTE	W96
// 017   ----------------------------------------
	BYTE	W96
// 018   ----------------------------------------
	BYTE	W96
// 019   ----------------------------------------
	BYTE	W96
// 020   ----------------------------------------
	BYTE	W96
// 021   ----------------------------------------
	BYTE	W96
// 022   ----------------------------------------
	BYTE	W96
// 023   ----------------------------------------
	BYTE	W96
// 024   ----------------------------------------
	BYTE	W96
// 025   ----------------------------------------
untilwemeetagain8850_4_025:
	BYTE	W12
	BYTE		N11     Dn3   v112
	BYTE	W12
	BYTE		        En3 
	BYTE	W12
	BYTE		        Dn3 
	BYTE	W12
	BYTE		        Fs3 
	BYTE	W12
	BYTE		        Dn3 
	BYTE	W12
	BYTE		        Gn3 
	BYTE	W12
	BYTE		        En3 
	BYTE	W12
	BYTE	PEND
// 026   ----------------------------------------
untilwemeetagain8850_4_026:
	BYTE		N68     Fs4   v112
	BYTE	W14
	BYTE		MOD     1
	BYTE	W01
	BYTE		        3
	BYTE	W02
	BYTE		        5
	BYTE	W01
	BYTE		        7
	BYTE	W01
	BYTE		        8
	BYTE	W01
	BYTE		        12
	BYTE	W01
	BYTE		        14
	BYTE	W01
	BYTE		        16
	BYTE	W01
	BYTE		        21
	BYTE	W01
	BYTE		        25
	BYTE	W01
	BYTE		        28
	BYTE	W01
	BYTE		        31
	BYTE	W01
	BYTE		        37
	BYTE	W01
	BYTE		        40
	BYTE	W02
	BYTE		        50
	BYTE	W01
	BYTE		        53
	BYTE	W01
	BYTE		        57
	BYTE	W01
	BYTE		        66
	BYTE	W01
	BYTE		        72
	BYTE	W01
	BYTE		        77
	BYTE	W01
	BYTE		        92
	BYTE	W32
	BYTE	W03
	BYTE		        0
	BYTE	W01
	BYTE		N11     Gn4 
	BYTE	W12
	BYTE		N68     En4 
	BYTE	W12
	BYTE	PEND
// 027   ----------------------------------------
untilwemeetagain8850_4_027:
	BYTE	W05
	BYTE		MOD     1
	BYTE	W01
	BYTE		        3
	BYTE	W01
	BYTE		        5
	BYTE	W02
	BYTE		        7
	BYTE	W01
	BYTE		        10
	BYTE	W01
	BYTE		        13
	BYTE	W01
	BYTE		        18
	BYTE	W01
	BYTE		        21
	BYTE	W01
	BYTE		        24
	BYTE	W01
	BYTE		        34
	BYTE	W01
	BYTE		        41
	BYTE	W01
	BYTE		        48
	BYTE	W01
	BYTE		        93
	BYTE	W40
	BYTE	W01
	BYTE		        0
	BYTE	W01
	BYTE		N11     Cs4   v112
	BYTE	W12
	BYTE		        Dn4 
	BYTE	W12
	BYTE		N23     En4 
	BYTE	W12
	BYTE	PEND
// 028   ----------------------------------------
untilwemeetagain8850_4_028:
	BYTE	W12
	BYTE		N11     En4   v112
	BYTE	W12
	BYTE		N17     Cs4 
	BYTE	W24
	BYTE		        Fs4 
	BYTE	W18
	BYTE		N05     En4 
	BYTE	W18
	BYTE		N56     Dn4 
	BYTE	W12
	BYTE	PEND
// 029   ----------------------------------------
untilwemeetagain8850_4_029:
	BYTE		MOD     3
	BYTE	W01
	BYTE		        4
	BYTE	W01
	BYTE		        6
	BYTE	W01
	BYTE		        10
	BYTE	W01
	BYTE		        13
	BYTE	W01
	BYTE		        15
	BYTE	W01
	BYTE		        23
	BYTE	W01
	BYTE		        28
	BYTE	W01
	BYTE		        32
	BYTE	W01
	BYTE		        35
	BYTE	W01
	BYTE		        40
	BYTE	W01
	BYTE		        45
	BYTE	W01
	BYTE		        58
	BYTE	W01
	BYTE		        63
	BYTE	W01
	BYTE		        71
	BYTE	W01
	BYTE		        87
	BYTE	W32
	BYTE		        0
	BYTE	W01
	BYTE		N23     Bn3   v112
	BYTE	W24
	BYTE		        Cs4 
	BYTE	W24
	BYTE	PEND
// 030   ----------------------------------------
untilwemeetagain8850_4_030:
	BYTE		N68     Dn4   v112
	BYTE	W15
	BYTE		MOD     2
	BYTE	W01
	BYTE		        3
	BYTE	W02
	BYTE		        7
	BYTE	W01
	BYTE		        9
	BYTE	W01
	BYTE		        10
	BYTE	W01
	BYTE		        14
	BYTE	W01
	BYTE		        16
	BYTE	W01
	BYTE		        21
	BYTE	W01
	BYTE		        28
	BYTE	W01
	BYTE		        36
	BYTE	W01
	BYTE		        40
	BYTE	W01
	BYTE		        62
	BYTE	W01
	BYTE		        82
	BYTE	W01
	BYTE		        84
	BYTE	W42
	BYTE		        0
	BYTE	W01
	BYTE		N11     Fs4 
	BYTE	W12
	BYTE		N56     En4 
	BYTE	W12
	BYTE	PEND
// 031   ----------------------------------------
untilwemeetagain8850_4_031:
	BYTE	W48
	BYTE		N23     Dn4   v112
	BYTE	W24
	BYTE		N11     En4 
	BYTE	W12
	BYTE		TIE     Fs4 
	BYTE	W12
	BYTE	PEND
// 032   ----------------------------------------
untilwemeetagain8850_4_032:
	BYTE	W13
	BYTE		MOD     1
	BYTE	W03
	BYTE		        3
	BYTE	W01
	BYTE		        4
	BYTE	W01
	BYTE		        5
	BYTE	W01
	BYTE		        7
	BYTE	W01
	BYTE		        9
	BYTE	W01
	BYTE		        12
	BYTE	W02
	BYTE		        14
	BYTE	W01
	BYTE		        16
	BYTE	W01
	BYTE		        19
	BYTE	W01
	BYTE		        21
	BYTE	W01
	BYTE		        24
	BYTE	W01
	BYTE		        26
	BYTE	W02
	BYTE		        34
	BYTE	W02
	BYTE		        38
	BYTE	W01
	BYTE		        45
	BYTE	W01
	BYTE		        48
	BYTE	W01
	BYTE		        52
	BYTE	W01
	BYTE		        59
	BYTE	W01
	BYTE		        64
	BYTE	W01
	BYTE		        66
	BYTE	W01
	BYTE		        76
	BYTE	W01
	BYTE		        86
	BYTE	W01
	BYTE		        87
	BYTE	W54
	BYTE	W01
	BYTE	PEND
// 033   ----------------------------------------
	BYTE	W68
	BYTE	W03
	BYTE		EOT     Fs4 
	BYTE		MOD     0
	BYTE	W24
	BYTE	W01
// 034   ----------------------------------------
	BYTE	W96
// 035   ----------------------------------------
	BYTE	W96
// 036   ----------------------------------------
	BYTE	W96
// 037   ----------------------------------------
	BYTE	W96
// 038   ----------------------------------------
	BYTE	W96
// 039   ----------------------------------------
	BYTE	W96
// 040   ----------------------------------------
	BYTE	W96
// 041   ----------------------------------------
untilwemeetagain8850_4_041:
	BYTE	W24
	BYTE		N02     Fs3   v112
	BYTE	W06
	BYTE		        An3 
	BYTE	W06
	BYTE		        Dn4 
	BYTE	W06
	BYTE		        Fs4 
	BYTE	W06
	BYTE		        An3 
	BYTE	W06
	BYTE		        Dn4 
	BYTE	W06
	BYTE		        Fs4 
	BYTE	W06
	BYTE		        An4 
	BYTE	W06
	BYTE		        Dn4 
	BYTE	W06
	BYTE		        Fs4 
	BYTE	W06
	BYTE		        An4 
	BYTE	W06
	BYTE		        Dn5 
	BYTE	W06
	BYTE	PEND
// 042   ----------------------------------------
	BYTE	W96
// 043   ----------------------------------------
	BYTE	W96
// 044   ----------------------------------------
	BYTE	W96
// 045   ----------------------------------------
	BYTE	W96
// 046   ----------------------------------------
	BYTE	W96
// 047   ----------------------------------------
	BYTE	W96
// 048   ----------------------------------------
	BYTE	W96
// 049   ----------------------------------------
	BYTE	W96
// 050   ----------------------------------------
	BYTE	W96
// 051   ----------------------------------------
	BYTE	W96
// 052   ----------------------------------------
	BYTE	W96
// 053   ----------------------------------------
	BYTE	W96
// 054   ----------------------------------------
	BYTE	W96
// 055   ----------------------------------------
	BYTE	W96
// 056   ----------------------------------------
	BYTE	W96
// 057   ----------------------------------------
	BYTE	PATT
	 POIN2	untilwemeetagain8850_4_025
// 058   ----------------------------------------
	BYTE	PATT
	 POIN2	untilwemeetagain8850_4_026
// 059   ----------------------------------------
	BYTE	PATT
	 POIN2	untilwemeetagain8850_4_027
// 060   ----------------------------------------
	BYTE	PATT
	 POIN2	untilwemeetagain8850_4_028
// 061   ----------------------------------------
	BYTE	PATT
	 POIN2	untilwemeetagain8850_4_029
// 062   ----------------------------------------
	BYTE	PATT
	 POIN2	untilwemeetagain8850_4_030
// 063   ----------------------------------------
	BYTE	PATT
	 POIN2	untilwemeetagain8850_4_031
// 064   ----------------------------------------
	BYTE	PATT
	 POIN2	untilwemeetagain8850_4_032
// 065   ----------------------------------------
	BYTE	W68
	BYTE	W03
	BYTE		EOT     Fs4 
	BYTE		MOD     0
	BYTE	W24
	BYTE	W01
// 066   ----------------------------------------
	BYTE	W96
// 067   ----------------------------------------
	BYTE	W96
// 068   ----------------------------------------
	BYTE	W96
// 069   ----------------------------------------
	BYTE	W96
// 070   ----------------------------------------
	BYTE	W96
// 071   ----------------------------------------
	BYTE	W96
// 072   ----------------------------------------
	BYTE	W96
// 073   ----------------------------------------
	BYTE	PATT
	 POIN2	untilwemeetagain8850_4_041
// 074   ----------------------------------------
	BYTE	W96
// 075   ----------------------------------------
	BYTE	W96
// 076   ----------------------------------------
	BYTE	W96
// 077   ----------------------------------------
	BYTE	W96
// 078   ----------------------------------------
	BYTE	W96
// 079   ----------------------------------------
	BYTE	W96
// 080   ----------------------------------------
	BYTE	W96
// 081   ----------------------------------------
	BYTE	W48
	BYTE		N17     An3   v112
	BYTE	W18
	BYTE		        Fn4 
	BYTE	W18
	BYTE		N11     As4 
	BYTE	W12
// 082   ----------------------------------------
	BYTE		N17     An4 
	BYTE	W18
	BYTE		        Gn4 
	BYTE	W18
	BYTE		N23     Fn4 
	BYTE	W24
	BYTE		N11     En4 
	BYTE	W12
	BYTE		        Cn4 
	BYTE	W12
	BYTE		N56     Dn4 
	BYTE	W12
// 083   ----------------------------------------
	BYTE	W03
	BYTE		MOD     6
	BYTE	W01
	BYTE		        12
	BYTE	W01
	BYTE		        19
	BYTE	W01
	BYTE		        33
	BYTE	W01
	BYTE		        38
	BYTE	W01
	BYTE		        48
	BYTE	W01
	BYTE		        93
	BYTE	W01
	BYTE		        111
	BYTE	W01
	BYTE		        127
	BYTE	W36
	BYTE		        0
	BYTE	W01
	BYTE		N23     An3 
	BYTE	W24
	BYTE		        An4 
	BYTE	W24
// 084   ----------------------------------------
	BYTE		        Gn4 
	BYTE	W24
	BYTE		N05     Fn4 
	BYTE	W12
	BYTE		N23     En4 
	BYTE	W24
	BYTE		N11     Dn4 
	BYTE	W12
	BYTE		        Cs4 
	BYTE	W12
	BYTE		        As3 
	BYTE	W12
// 085   ----------------------------------------
	BYTE		N23     An3 
	BYTE	W24
	BYTE		        Dn3 
	BYTE	W24
	BYTE		        Gn3 
	BYTE	W24
	BYTE		        Cn3 
	BYTE	W24
// 086   ----------------------------------------
	BYTE		N32     Fn3 
	BYTE	W36
	BYTE		N11     En4 
	BYTE	W12
	BYTE		N15     Dn4 
	BYTE	W16
	BYTE		        Cn4 
	BYTE	W16
	BYTE		        As3 
	BYTE	W16
// 087   ----------------------------------------
	BYTE		N44     An3 
	BYTE	W03
	BYTE		MOD     0
	BYTE	W01
	BYTE		        3
	BYTE	W01
	BYTE		        6
	BYTE	W01
	BYTE		        13
	BYTE	W01
	BYTE		        18
	BYTE	W01
	BYTE		        19
	BYTE	W01
	BYTE		        30
	BYTE	W01
	BYTE		        40
	BYTE	W01
	BYTE		        64
	BYTE	W01
	BYTE		        84
	BYTE	W01
	BYTE		        100
	BYTE	W01
	BYTE		        107
	BYTE	W01
	BYTE		        127
	BYTE	W32
	BYTE		        0
	BYTE	W01
	BYTE		N15     Gn3 
	BYTE	W16
	BYTE		        En3 
	BYTE	W16
	BYTE		        Cn3 
	BYTE	W16
// 088   ----------------------------------------
	BYTE		N32     Dn3 
	BYTE	W36
	BYTE		N44     Dn4 
	BYTE	W48
	BYTE		N05     En4 
	BYTE	W06
	BYTE		        Fn4 
	BYTE	W06
// 089   ----------------------------------------
	BYTE		N44     Gn4 
	BYTE	W48
	BYTE		        As4 
	BYTE	W03
	BYTE		MOD     4
	BYTE	W01
	BYTE		        9
	BYTE	W01
	BYTE		        10
	BYTE	W01
	BYTE		        21
	BYTE	W01
	BYTE		        31
	BYTE	W01
	BYTE		        42
	BYTE	W01
	BYTE		        86
	BYTE	W01
	BYTE		        127
	BYTE	W36
	BYTE		        0
	BYTE	W02
// 090   ----------------------------------------
	BYTE		N05     An4 
	BYTE	W06
	BYTE		        Fn4 
	BYTE	W06
	BYTE		        Dn4 
	BYTE	W12
	BYTE		N11     An3 
	BYTE	W12
	BYTE		        An4 
	BYTE	W12
	BYTE		        Gn4 
	BYTE	W12
	BYTE		        Fn4 
	BYTE	W12
	BYTE		        En4 
	BYTE	W12
	BYTE		        Fn4 
	BYTE	W12
// 091   ----------------------------------------
	BYTE		N05     En4 
	BYTE	W06
	BYTE		        Fn4 
	BYTE	W06
	BYTE		        Gn4 
	BYTE	W06
	BYTE		        En4 
	BYTE	W06
	BYTE		N11     Fn4 
	BYTE	W12
	BYTE		        Dn4 
	BYTE	W12
	BYTE		        Cn4 
	BYTE	W12
	BYTE		        Gn4 
	BYTE	W12
	BYTE		        An3 
	BYTE	W12
	BYTE		        Gn4 
	BYTE	W12
// 092   ----------------------------------------
	BYTE		        Fn4 
	BYTE	W12
	BYTE		        Dn4 
	BYTE	W12
	BYTE		        As3 
	BYTE	W12
	BYTE		N05     Dn4 
	BYTE	W06
	BYTE		        En4 
	BYTE	W06
	BYTE		N11     Fn4 
	BYTE	W12
	BYTE		        Gn4 
	BYTE	W12
	BYTE		        An4 
	BYTE	W12
	BYTE		        Dn5 
	BYTE	W12
// 093   ----------------------------------------
	BYTE		N11   
	BYTE	W12
	BYTE		        Fn5 
	BYTE	W12
	BYTE		        En5 
	BYTE	W12
	BYTE		        Cn5 
	BYTE	W12
	BYTE		N32     An4 
	BYTE	W01
	BYTE		MOD     1
	BYTE	W02
	BYTE		        3
	BYTE	W01
	BYTE		        6
	BYTE	W01
	BYTE		        9
	BYTE	W01
	BYTE		        16
	BYTE	W01
	BYTE		        20
	BYTE	W01
	BYTE		        26
	BYTE	W01
	BYTE		        38
	BYTE	W01
	BYTE		        43
	BYTE	W01
	BYTE		        54
	BYTE	W01
	BYTE		        67
	BYTE	W01
	BYTE		        81
	BYTE	W01
	BYTE		        101
	BYTE	W01
	BYTE		        127
	BYTE	W19
	BYTE		        0
	BYTE	W02
	BYTE		N05     As4 
	BYTE	W06
	BYTE		        Cn5 
	BYTE	W06
// 094   ----------------------------------------
	BYTE		N32     Dn5 
	BYTE	W03
	BYTE		MOD     41
	BYTE	W01
	BYTE		        66
	BYTE	W01
	BYTE		        107
	BYTE	W01
	BYTE		        127
	BYTE	W28
	BYTE		        0
	BYTE	W02
	BYTE		N05     Fn5 
	BYTE	W06
	BYTE		        En5 
	BYTE	W06
	BYTE		        Dn5 
	BYTE	W06
	BYTE		        En5 
	BYTE	W06
	BYTE		        Dn5 
	BYTE	W04
	BYTE		MOD     0
	BYTE	W02
	BYTE		N05     Cn5 
	BYTE	W06
	BYTE		N11     An4 
	BYTE	W12
	BYTE		N05     As4 
	BYTE	W06
	BYTE		        Dn5 
	BYTE	W06
// 095   ----------------------------------------
	BYTE		N17     En5 
	BYTE	W18
	BYTE		        Cn5 
	BYTE	W18
	BYTE		N32     Gn5 
	BYTE	W02
	BYTE		MOD     2
	BYTE	W01
	BYTE		        30
	BYTE	W01
	BYTE		        44
	BYTE	W01
	BYTE		        53
	BYTE	W01
	BYTE		        91
	BYTE	W01
	BYTE		        102
	BYTE	W01
	BYTE		        116
	BYTE	W01
	BYTE		        127
	BYTE	W24
	BYTE	W02
	BYTE		        0
	BYTE	W07
	BYTE		N05     Dn5 
	BYTE	W06
	BYTE		        Fn5 
	BYTE	W06
	BYTE		        Gn5 
	BYTE	W06
// 096   ----------------------------------------
	BYTE		N15     An5 
	BYTE	W16
	BYTE		        En5 
	BYTE	W16
	BYTE		        Dn5 
	BYTE	W16
	BYTE		        Cn5 
	BYTE	W16
	BYTE		        As4 
	BYTE	W16
	BYTE		        An4 
	BYTE	W16
// 097   ----------------------------------------
	BYTE		N88     Gn4 
	BYTE	W10
	BYTE		MOD     1
	BYTE	W01
	BYTE		        2
	BYTE	W01
	BYTE		        4
	BYTE	W01
	BYTE		        7
	BYTE	W01
	BYTE		        8
	BYTE	W01
	BYTE		        11
	BYTE	W01
	BYTE		        13
	BYTE	W01
	BYTE		        14
	BYTE	W01
	BYTE		        18
	BYTE	W02
	BYTE		        22
	BYTE	W01
	BYTE		        26
	BYTE	W01
	BYTE		        29
	BYTE	W01
	BYTE		        31
	BYTE	W01
	BYTE		        38
	BYTE	W01
	BYTE		        39
	BYTE	W01
	BYTE		        45
	BYTE	W01
	BYTE		        49
	BYTE	W01
	BYTE		        55
	BYTE	W01
	BYTE		        56
	BYTE	W01
	BYTE		        64
	BYTE	W01
	BYTE		        70
	BYTE	W01
	BYTE		        72
	BYTE	W01
	BYTE		        80
	BYTE	W01
	BYTE		        87
	BYTE	W01
	BYTE		        92
	BYTE	W01
	BYTE		        105
	BYTE	W01
	BYTE		        111
	BYTE	W01
	BYTE		        119
	BYTE	W01
	BYTE		        127
	BYTE	W48
	BYTE	W01
	BYTE		        0
	BYTE	W08
// 098   ----------------------------------------
	BYTE	W15
	BYTE		        0
	BYTE	W03
	BYTE		        0
	BYTE	W01
	BYTE		        0
	BYTE	W02
	BYTE		        0
	BYTE	W01
	BYTE		        0
	BYTE	W02
	BYTE		        0
	BYTE	W01
	BYTE		        0
	BYTE	W68
	BYTE	W03
// 099   ----------------------------------------
	BYTE	W96
// 100   ----------------------------------------
	BYTE	W96
// 101   ----------------------------------------
	BYTE	W96
// 102   ----------------------------------------
	BYTE	W96
// 103   ----------------------------------------
	BYTE	W96
// 104   ----------------------------------------
	BYTE	W96
// 105   ----------------------------------------
	BYTE	W96
// 106   ----------------------------------------
	BYTE	W96
// 107   ----------------------------------------
	BYTE	W96
// 108   ----------------------------------------
	BYTE	W96
// 109   ----------------------------------------
	BYTE	W96
// 110   ----------------------------------------
	BYTE	W96
// 111   ----------------------------------------
	BYTE	W96
// 112   ----------------------------------------
	BYTE	W96
// 113   ----------------------------------------
	BYTE	PATT
	 POIN2	untilwemeetagain8850_4_025
// 114   ----------------------------------------
	BYTE	PATT
	 POIN2	untilwemeetagain8850_4_026
// 115   ----------------------------------------
	BYTE	PATT
	 POIN2	untilwemeetagain8850_4_027
// 116   ----------------------------------------
	BYTE	PATT
	 POIN2	untilwemeetagain8850_4_028
// 117   ----------------------------------------
	BYTE	PATT
	 POIN2	untilwemeetagain8850_4_029
// 118   ----------------------------------------
	BYTE	PATT
	 POIN2	untilwemeetagain8850_4_030
// 119   ----------------------------------------
	BYTE	PATT
	 POIN2	untilwemeetagain8850_4_031
// 120   ----------------------------------------
	BYTE	PATT
	 POIN2	untilwemeetagain8850_4_032
// 121   ----------------------------------------
	BYTE	W68
	BYTE	W03
	BYTE		EOT     Fs4 
	BYTE		MOD     0
	BYTE	W24
	BYTE	W01
// 122   ----------------------------------------
	BYTE	W96
// 123   ----------------------------------------
	BYTE	W96
// 124   ----------------------------------------
	BYTE	W96
// 125   ----------------------------------------
	BYTE	W96
// 126   ----------------------------------------
	BYTE	W96
// 127   ----------------------------------------
	BYTE	W96
// 128   ----------------------------------------
	BYTE	W96
// 129   ----------------------------------------
	BYTE	PATT
	 POIN2	untilwemeetagain8850_4_041
// 130   ----------------------------------------
	BYTE		N23     Dn4   v100
	BYTE	W24
	BYTE		        Fn3 
	BYTE	W24
	BYTE		N11     Gn3 
	BYTE	W12
	BYTE		        An3 
	BYTE	W12
	BYTE		        As3 
	BYTE	W12
	BYTE		N44     An3 
	BYTE	W12
// 131   ----------------------------------------
	BYTE	W36
	BYTE		N23     Gn3 
	BYTE	W24
	BYTE		N11     En3 
	BYTE	W12
	BYTE		        Fn3 
	BYTE	W12
	BYTE		        Gn3 
	BYTE	W12
// 132   ----------------------------------------
	BYTE		N23     As3 
	BYTE	W24
	BYTE		        Gn3 
	BYTE	W24
	BYTE		N11     En3 
	BYTE	W12
	BYTE		        Fn3 
	BYTE	W12
	BYTE		        Gn3 
	BYTE	W12
	BYTE		N44     An3 
	BYTE	W12
// 133   ----------------------------------------
	BYTE	W36
	BYTE		N30     Fn3 
	BYTE	W36
	BYTE		N11   
	BYTE	W12
	BYTE		N11   
	BYTE	W12
// 134   ----------------------------------------
	BYTE		N23   
	BYTE	W24
	BYTE		        Gn3 
	BYTE	W24
	BYTE		N11     As3 
	BYTE	W12
	BYTE		N23     Cn4 
	BYTE	W24
	BYTE		N32     As3 
	BYTE	W12
// 135   ----------------------------------------
	BYTE	W24
	BYTE		N23     An3 
	BYTE	W24
	BYTE		N11     Gn3 
	BYTE	W12
	BYTE		N23     As3 
	BYTE	W24
	BYTE		N56     An3 
	BYTE	W12
// 136   ----------------------------------------
	BYTE	W48
	BYTE		N44     En3 
	BYTE	W48
// 137   ----------------------------------------
	BYTE		N92     Fn3 
	BYTE	W96
// 138   ----------------------------------------
	BYTE	W96
// 139   ----------------------------------------
	BYTE	W96
// 140   ----------------------------------------
	BYTE	W96
// 141   ----------------------------------------
	BYTE	W96
// 142   ----------------------------------------
	BYTE	W96
// 143   ----------------------------------------
	BYTE	W96
// 144   ----------------------------------------
	BYTE	W96
// 145   ----------------------------------------
	BYTE	W96
// 146   ----------------------------------------
	BYTE	W96
// 147   ----------------------------------------
	BYTE	W96
// 148   ----------------------------------------
	BYTE	W96
// 149   ----------------------------------------
	BYTE	W96
// 150   ----------------------------------------
	BYTE	W96
// 151   ----------------------------------------
	BYTE	W96
// 152   ----------------------------------------
	BYTE	W96
// 153   ----------------------------------------
	BYTE	W96
// 154   ----------------------------------------
	BYTE	W96
// 155   ----------------------------------------
	BYTE	W96
// 156   ----------------------------------------
	BYTE	W96
// 157   ----------------------------------------
	BYTE	W96
// 158   ----------------------------------------
	BYTE	W96
// 159   ----------------------------------------
	BYTE	W06
	BYTE	FINE

//**************** Track 5 (Midi-Chn.5) ****************//

untilwemeetagain8850_5:
	BYTE	KEYSH   untilwemeetagain8850_key+0
// 000   ----------------------------------------
	BYTE	W96
// 001   ----------------------------------------
	BYTE		VOICE   48
	BYTE		VOL     120*untilwemeetagain8850_mvl/mxv
	BYTE		PAN     c_v+0
	BYTE	W48
	BYTE		MOD     0
	BYTE		BEND    c_v+0
	BYTE	W48
// 002   ----------------------------------------
untilwemeetagain8850_5_002:
	BYTE		N92     An1   v072
	BYTE		N92     An2 
	BYTE		N92     Dn3 
	BYTE	W96
	BYTE	PEND
// 003   ----------------------------------------
untilwemeetagain8850_5_003:
	BYTE		N44     Gn1   v072
	BYTE		N44     Cn3 
	BYTE		N44     En3 
	BYTE	W48
	BYTE		        An1 
	BYTE		N44     Dn3 
	BYTE		N44     Fn3 
	BYTE	W48
	BYTE	PEND
// 004   ----------------------------------------
untilwemeetagain8850_5_004:
	BYTE		N92     As1   v072
	BYTE		N44     Dn3 
	BYTE		N44     Gn3 
	BYTE	W48
	BYTE		        An2 
	BYTE		N44     Dn3 
	BYTE	W48
	BYTE	PEND
// 005   ----------------------------------------
untilwemeetagain8850_5_005:
	BYTE		N44     Gn1   v072
	BYTE		N44     As2 
	BYTE		N44     Dn3 
	BYTE	W48
	BYTE		        An1 
	BYTE		N44     Cn3 
	BYTE		N44     En3 
	BYTE	W48
	BYTE	PEND
// 006   ----------------------------------------
untilwemeetagain8850_5_006:
	BYTE		N44     As1   v072
	BYTE		N44     Dn3 
	BYTE		N44     Fn3 
	BYTE	W48
	BYTE		        Fn1 
	BYTE		N44     As2 
	BYTE		N44     Dn3 
	BYTE	W48
	BYTE	PEND
// 007   ----------------------------------------
untilwemeetagain8850_5_007:
	BYTE		N44     Gn1   v072
	BYTE		N44     En3 
	BYTE		N44     Gn3 
	BYTE	W48
	BYTE		        An1 
	BYTE		N44     An2 
	BYTE		N44     Cn3 
	BYTE	W48
	BYTE	PEND
// 008   ----------------------------------------
untilwemeetagain8850_5_008:
	BYTE		N92     Gn1   v072
	BYTE		N44     Gn2 
	BYTE		N44     As2 
	BYTE	W48
	BYTE		        Dn3 
	BYTE		N44     Fn3 
	BYTE	W48
	BYTE	PEND
// 009   ----------------------------------------
	BYTE		        Gn1 
	BYTE		N23     Cs3   v092
	BYTE		N23     En3 
	BYTE		N23     Cs4 
	BYTE		N23     En4 
	BYTE	W24
	BYTE		        Dn3 
	BYTE		N23     Fn3 
	BYTE		N23     Dn4 
	BYTE		N23     Fn4 
	BYTE	W24
	BYTE		N44     An1   v072
	BYTE		N11     En3   v092
	BYTE		N11     Gn3 
	BYTE		N11     En4 
	BYTE		N11     Gn4 
	BYTE	W12
	BYTE		N32     Gn3 
	BYTE		N32     As3 
	BYTE		N32     Gn4 
	BYTE		N32     As4 
	BYTE	W36
// 010   ----------------------------------------
untilwemeetagain8850_5_010:
	BYTE		N44     An2   v100
	BYTE		N44     Dn3 
	BYTE		TIE     An4   v072
	BYTE		TIE     Dn5 
	BYTE	W48
	BYTE		N11     An2   v100
	BYTE		N11     Dn3 
	BYTE	W12
	BYTE		N23     Cn3 
	BYTE		N23     En3 
	BYTE	W24
	BYTE		N44     Dn3 
	BYTE		N44     Fn3 
	BYTE	W12
	BYTE	PEND
// 011   ----------------------------------------
untilwemeetagain8850_5_011:
	BYTE	W36
	BYTE		N56     En3   v100
	BYTE		N56     Gn3 
	BYTE	W32
	BYTE	W03
	BYTE	PEND
	BYTE		EOT     An4 
	BYTE		        Dn5 
	BYTE	W01
	BYTE		N23     En4   v072
	BYTE		N23     An4 
	BYTE	W24
// 012   ----------------------------------------
untilwemeetagain8850_5_012:
	BYTE		N44     As2   v100
	BYTE		N44     En3 
	BYTE		N92     An4   v072
	BYTE		N92     Dn5 
	BYTE	W48
	BYTE		N44     Dn3   v100
	BYTE		N44     Fn3 
	BYTE	W48
	BYTE	PEND
// 013   ----------------------------------------
untilwemeetagain8850_5_013:
	BYTE		N44     En3   v100
	BYTE		N44     Gn3 
	BYTE		N44     Bn4   v072
	BYTE		N44     En5 
	BYTE	W48
	BYTE		        En3   v100
	BYTE		N44     An3 
	BYTE		N44     An4   v072
	BYTE		N44     Cs5 
	BYTE	W48
	BYTE	PEND
// 014   ----------------------------------------
untilwemeetagain8850_5_014:
	BYTE		N11     An2   v100
	BYTE		N11     Dn3 
	BYTE		N92     As4   v072
	BYTE		N92     Dn5 
	BYTE	W12
	BYTE		N11     An2   v100
	BYTE		N11     Dn3 
	BYTE	W12
	BYTE		N23   
	BYTE		N23     Fn3 
	BYTE	W24
	BYTE		N11     Cn3 
	BYTE		N11     En3 
	BYTE	W12
	BYTE		N23     As2 
	BYTE		N23     Fn3 
	BYTE	W24
	BYTE		N56     Gn2 
	BYTE		N56     Dn3 
	BYTE	W12
	BYTE	PEND
// 015   ----------------------------------------
untilwemeetagain8850_5_015:
	BYTE		N92     Gn4   v072
	BYTE		N92     Cn5 
	BYTE	W48
	BYTE		N44     An2   v100
	BYTE		N44     Cn3 
	BYTE	W48
	BYTE	PEND
// 016   ----------------------------------------
untilwemeetagain8850_5_016:
	BYTE		N80     An2   v100
	BYTE		N80     Dn3 
	BYTE		N80     Fs4   v072
	BYTE		N80     An4 
	BYTE	W84
	BYTE		N23     An2   v100
	BYTE		N23     Dn3 
	BYTE		N23     An3 
	BYTE		N23     Dn4 
	BYTE	W12
	BYTE	PEND
// 017   ----------------------------------------
untilwemeetagain8850_5_017:
	BYTE	W12
	BYTE		N11     An2   v100
	BYTE		N11     Dn3 
	BYTE		N11     An3 
	BYTE		N11     Dn4 
	BYTE	W12
	BYTE		N23     Cn3 
	BYTE		N23     En3 
	BYTE		N23     Cn4 
	BYTE		N23     En4 
	BYTE	W24
	BYTE		        Dn3 
	BYTE		N23     Fn3 
	BYTE		N23     Dn4 
	BYTE		N23     Fn4 
	BYTE	W24
	BYTE		        En3 
	BYTE		N23     Gn3 
	BYTE		N23     En4 
	BYTE		N23     Gn4 
	BYTE	W24
	BYTE	PEND
// 018   ----------------------------------------
	BYTE	PATT
	 POIN2	untilwemeetagain8850_5_010
// 019   ----------------------------------------
	BYTE	PATT
	 POIN2	untilwemeetagain8850_5_011
	BYTE		EOT     An4 
	BYTE		        Dn5 
	BYTE	W01
	BYTE		N23     En4   v072
	BYTE		N23     An4 
	BYTE	W24
// 020   ----------------------------------------
	BYTE	PATT
	 POIN2	untilwemeetagain8850_5_012
// 021   ----------------------------------------
	BYTE	PATT
	 POIN2	untilwemeetagain8850_5_013
// 022   ----------------------------------------
	BYTE	PATT
	 POIN2	untilwemeetagain8850_5_014
// 023   ----------------------------------------
untilwemeetagain8850_5_023:
	BYTE		N92     Gn4   v072
	BYTE		N92     Cn5 
	BYTE	W48
	BYTE		N44     An2   v100
	BYTE		N44     En3 
	BYTE	W48
	BYTE	PEND
// 024   ----------------------------------------
untilwemeetagain8850_5_024:
	BYTE		N80     An2   v100
	BYTE		N80     Dn3 
	BYTE		N80     Fn4   v072
	BYTE		N80     An4 
	BYTE	W84
	BYTE		TIE     Dn3   v100
	BYTE		TIE     Fs3 
	BYTE		N23     An4   v072
	BYTE		N23     Dn5 
	BYTE	W12
	BYTE	PEND
// 025   ----------------------------------------
untilwemeetagain8850_5_025:
	BYTE	W12
	BYTE		N11     An4   v080
	BYTE		N11     Dn5 
	BYTE	W12
	BYTE		        Bn4 
	BYTE		N11     En5 
	BYTE	W12
	BYTE		        An4 
	BYTE		N11     Dn5 
	BYTE	W12
	BYTE		        Cs5 
	BYTE		N11     Fs5 
	BYTE	W12
	BYTE		        An4 
	BYTE		N11     Dn5 
	BYTE	W12
	BYTE		N11   
	BYTE		N11     Gn5 
	BYTE	W12
	BYTE		        Bn4 
	BYTE		N11     En5 
	BYTE	W11
	BYTE	PEND
	BYTE		EOT     Dn3 
	BYTE		        Fs3 
	BYTE	W01
// 026   ----------------------------------------
untilwemeetagain8850_5_026:
	BYTE		N92     Bn2   v080
	BYTE		N92     Dn3 
	BYTE		N23     Gn3   v100
	BYTE	W24
	BYTE		        Bn3 
	BYTE	W24
	BYTE		        Gn3 
	BYTE	W24
	BYTE		N05     An3 
	BYTE	W12
	BYTE		N32   
	BYTE	W12
	BYTE	PEND
// 027   ----------------------------------------
untilwemeetagain8850_5_027:
	BYTE		N92     An2   v080
	BYTE		N92     Cs3 
	BYTE	W24
	BYTE		N23     Bn3   v100
	BYTE	W24
	BYTE		        Cs4 
	BYTE	W24
	BYTE		        Dn4 
	BYTE	W24
	BYTE	PEND
// 028   ----------------------------------------
untilwemeetagain8850_5_028:
	BYTE		N44     Cs3   v080
	BYTE		N44     En3 
	BYTE		N23     An3   v100
	BYTE	W24
	BYTE		        Cs4 
	BYTE	W24
	BYTE		N44     En3   v080
	BYTE		N44     Gn3 
	BYTE		N23     En4   v100
	BYTE	W24
	BYTE		        Cs4 
	BYTE	W24
	BYTE	PEND
// 029   ----------------------------------------
untilwemeetagain8850_5_029:
	BYTE		N23     Dn3   v080
	BYTE		N23     Fs3 
	BYTE		N23     An3   v100
	BYTE	W24
	BYTE		        En3   v080
	BYTE		N23     Gn3 
	BYTE		N23     Dn4   v100
	BYTE	W24
	BYTE		        Dn3   v080
	BYTE		N23     Fs3 
	BYTE		N17     Fs4   v100
	BYTE	W18
	BYTE		        En4 
	BYTE	W06
	BYTE		N23     Cs3   v080
	BYTE		N23     En3 
	BYTE	W12
	BYTE		N11     Cs4   v100
	BYTE	W12
	BYTE	PEND
// 030   ----------------------------------------
	BYTE	PATT
	 POIN2	untilwemeetagain8850_5_026
// 031   ----------------------------------------
untilwemeetagain8850_5_031:
	BYTE		N92     An2   v080
	BYTE		N92     Cs3 
	BYTE	W24
	BYTE		N23     Cs4   v100
	BYTE	W24
	BYTE		        En4 
	BYTE	W24
	BYTE		        Gn4 
	BYTE	W24
	BYTE	PEND
// 032   ----------------------------------------
untilwemeetagain8850_5_032:
	BYTE		N44     Dn3   v080
	BYTE		N44     Fs3 
	BYTE		N23     Fs4   v100
	BYTE	W24
	BYTE		        En4 
	BYTE	W24
	BYTE		N44     En3   v080
	BYTE		N44     Gn3 
	BYTE		N23     Dn4   v100
	BYTE	W24
	BYTE		N11     Cs4 
	BYTE	W12
	BYTE		N23     An3 
	BYTE		N23     An4 
	BYTE	W12
	BYTE	PEND
// 033   ----------------------------------------
untilwemeetagain8850_5_033:
	BYTE		N23     Dn3   v080
	BYTE		N23     Fs3 
	BYTE	W12
	BYTE		N11     An3   v100
	BYTE		N11     An4 
	BYTE	W12
	BYTE		N23     Dn3   v080
	BYTE		N23     Gn3 
	BYTE		N23     Dn4   v100
	BYTE		N23     Gn4 
	BYTE	W24
	BYTE		N17     Dn3   v080
	BYTE		N17     Fs3 
	BYTE		N17     Dn4   v100
	BYTE		N17     Fs4 
	BYTE	W18
	BYTE		        Cs3   v080
	BYTE		N17     En3 
	BYTE		N17     Cs4   v100
	BYTE		N17     En4 
	BYTE	W18
	BYTE		N11     An2   v080
	BYTE		N11     Cs3 
	BYTE		N11     An3   v100
	BYTE		N11     Cs4 
	BYTE	W12
	BYTE	PEND
// 034   ----------------------------------------
	BYTE	PATT
	 POIN2	untilwemeetagain8850_5_026
// 035   ----------------------------------------
	BYTE	PATT
	 POIN2	untilwemeetagain8850_5_027
// 036   ----------------------------------------
	BYTE	PATT
	 POIN2	untilwemeetagain8850_5_028
// 037   ----------------------------------------
	BYTE	PATT
	 POIN2	untilwemeetagain8850_5_029
// 038   ----------------------------------------
	BYTE	PATT
	 POIN2	untilwemeetagain8850_5_026
// 039   ----------------------------------------
	BYTE	PATT
	 POIN2	untilwemeetagain8850_5_031
// 040   ----------------------------------------
untilwemeetagain8850_5_040:
	BYTE		N44     Dn3   v080
	BYTE		N44     Fs3 
	BYTE		N23     An4   v100
	BYTE	W24
	BYTE		        Gn4 
	BYTE	W24
	BYTE		N32     En3   v080
	BYTE		N32     An3 
	BYTE		N23     Fs4   v100
	BYTE	W24
	BYTE		N11     En4 
	BYTE	W12
	BYTE		TIE     Dn3   v080
	BYTE		TIE     Fs3 
	BYTE		TIE     Dn4   v100
	BYTE	W12
	BYTE	PEND
// 041   ----------------------------------------
	BYTE	W92
	BYTE	W03
	BYTE		EOT     Dn3 
	BYTE		        Fs3 
	BYTE		        Dn4 
	BYTE	W01
// 042   ----------------------------------------
	BYTE	PATT
	 POIN2	untilwemeetagain8850_5_010
// 043   ----------------------------------------
	BYTE	PATT
	 POIN2	untilwemeetagain8850_5_011
	BYTE		EOT     An4 
	BYTE		        Dn5 
	BYTE	W01
	BYTE		N23     En4   v072
	BYTE		N23     An4 
	BYTE	W24
// 044   ----------------------------------------
	BYTE	PATT
	 POIN2	untilwemeetagain8850_5_012
// 045   ----------------------------------------
	BYTE	PATT
	 POIN2	untilwemeetagain8850_5_013
// 046   ----------------------------------------
	BYTE	PATT
	 POIN2	untilwemeetagain8850_5_014
// 047   ----------------------------------------
	BYTE	PATT
	 POIN2	untilwemeetagain8850_5_015
// 048   ----------------------------------------
	BYTE	PATT
	 POIN2	untilwemeetagain8850_5_016
// 049   ----------------------------------------
	BYTE	PATT
	 POIN2	untilwemeetagain8850_5_017
// 050   ----------------------------------------
	BYTE	PATT
	 POIN2	untilwemeetagain8850_5_010
// 051   ----------------------------------------
	BYTE	PATT
	 POIN2	untilwemeetagain8850_5_011
	BYTE		EOT     An4 
	BYTE		        Dn5 
	BYTE	W01
	BYTE		N23     En4   v072
	BYTE		N23     An4 
	BYTE	W24
// 052   ----------------------------------------
	BYTE	PATT
	 POIN2	untilwemeetagain8850_5_012
// 053   ----------------------------------------
	BYTE	PATT
	 POIN2	untilwemeetagain8850_5_013
// 054   ----------------------------------------
	BYTE	PATT
	 POIN2	untilwemeetagain8850_5_014
// 055   ----------------------------------------
	BYTE	PATT
	 POIN2	untilwemeetagain8850_5_023
// 056   ----------------------------------------
	BYTE	PATT
	 POIN2	untilwemeetagain8850_5_024
// 057   ----------------------------------------
	BYTE	PATT
	 POIN2	untilwemeetagain8850_5_025
	BYTE		EOT     Dn3 
	BYTE		        Fs3 
	BYTE	W01
// 058   ----------------------------------------
	BYTE	PATT
	 POIN2	untilwemeetagain8850_5_026
// 059   ----------------------------------------
	BYTE	PATT
	 POIN2	untilwemeetagain8850_5_027
// 060   ----------------------------------------
	BYTE	PATT
	 POIN2	untilwemeetagain8850_5_028
// 061   ----------------------------------------
	BYTE	PATT
	 POIN2	untilwemeetagain8850_5_029
// 062   ----------------------------------------
	BYTE	PATT
	 POIN2	untilwemeetagain8850_5_026
// 063   ----------------------------------------
	BYTE	PATT
	 POIN2	untilwemeetagain8850_5_031
// 064   ----------------------------------------
	BYTE	PATT
	 POIN2	untilwemeetagain8850_5_032
// 065   ----------------------------------------
	BYTE	PATT
	 POIN2	untilwemeetagain8850_5_033
// 066   ----------------------------------------
	BYTE	PATT
	 POIN2	untilwemeetagain8850_5_026
// 067   ----------------------------------------
	BYTE	PATT
	 POIN2	untilwemeetagain8850_5_027
// 068   ----------------------------------------
	BYTE	PATT
	 POIN2	untilwemeetagain8850_5_028
// 069   ----------------------------------------
	BYTE	PATT
	 POIN2	untilwemeetagain8850_5_029
// 070   ----------------------------------------
	BYTE	PATT
	 POIN2	untilwemeetagain8850_5_026
// 071   ----------------------------------------
	BYTE	PATT
	 POIN2	untilwemeetagain8850_5_031
// 072   ----------------------------------------
	BYTE	PATT
	 POIN2	untilwemeetagain8850_5_040
// 073   ----------------------------------------
	BYTE	W92
	BYTE	W03
	BYTE		EOT     Dn3 
	BYTE		        Fs3 
	BYTE		        Dn4 
	BYTE	W01
// 074   ----------------------------------------
	BYTE		N92     An2   v072
	BYTE		N92     Dn3 
	BYTE	W96
// 075   ----------------------------------------
untilwemeetagain8850_5_075:
	BYTE		N44     Cn3   v072
	BYTE		N44     En3 
	BYTE	W48
	BYTE		        Dn3 
	BYTE		N44     Fn3 
	BYTE	W48
	BYTE	PEND
// 076   ----------------------------------------
untilwemeetagain8850_5_076:
	BYTE		N44     Dn3   v072
	BYTE		N44     Gn3 
	BYTE	W48
	BYTE		        An2 
	BYTE		N44     Dn3 
	BYTE	W48
	BYTE	PEND
// 077   ----------------------------------------
untilwemeetagain8850_5_077:
	BYTE		N44     As2   v072
	BYTE		N44     Dn3 
	BYTE	W48
	BYTE		        Cn3 
	BYTE		N44     En3 
	BYTE	W48
	BYTE	PEND
// 078   ----------------------------------------
untilwemeetagain8850_5_078:
	BYTE		N44     Dn3   v072
	BYTE		N44     Fn3 
	BYTE	W48
	BYTE		        As2 
	BYTE		N44     Dn3 
	BYTE	W48
	BYTE	PEND
// 079   ----------------------------------------
untilwemeetagain8850_5_079:
	BYTE		N44     En3   v072
	BYTE		N44     Gn3 
	BYTE	W48
	BYTE		        An2 
	BYTE		N44     Cn3 
	BYTE	W48
	BYTE	PEND
// 080   ----------------------------------------
untilwemeetagain8850_5_080:
	BYTE		N44     Gn2   v072
	BYTE		N44     As2 
	BYTE	W48
	BYTE		        Dn3 
	BYTE		N44     Fn3 
	BYTE	W48
	BYTE	PEND
// 081   ----------------------------------------
untilwemeetagain8850_5_081:
	BYTE		N23     Cs3   v092
	BYTE		N23     En3 
	BYTE		N23     Cs4 
	BYTE		N23     En4 
	BYTE	W24
	BYTE		        Dn3 
	BYTE		N23     Fn3 
	BYTE		N23     Dn4 
	BYTE		N23     Fn4 
	BYTE	W24
	BYTE		N11     En3 
	BYTE		N11     Gn3 
	BYTE		N11     En4 
	BYTE		N11     Gn4 
	BYTE	W12
	BYTE		N32     Gn3 
	BYTE		N32     As3 
	BYTE		N32     Gn4 
	BYTE		N32     As4 
	BYTE	W36
	BYTE	PEND
// 082   ----------------------------------------
	BYTE		N92     An2   v072
	BYTE		N92     Dn3 
	BYTE	W96
// 083   ----------------------------------------
	BYTE	PATT
	 POIN2	untilwemeetagain8850_5_075
// 084   ----------------------------------------
	BYTE	PATT
	 POIN2	untilwemeetagain8850_5_076
// 085   ----------------------------------------
	BYTE	PATT
	 POIN2	untilwemeetagain8850_5_077
// 086   ----------------------------------------
	BYTE	PATT
	 POIN2	untilwemeetagain8850_5_078
// 087   ----------------------------------------
	BYTE	PATT
	 POIN2	untilwemeetagain8850_5_079
// 088   ----------------------------------------
	BYTE	PATT
	 POIN2	untilwemeetagain8850_5_080
// 089   ----------------------------------------
	BYTE	PATT
	 POIN2	untilwemeetagain8850_5_081
// 090   ----------------------------------------
	BYTE		N92     An2   v072
	BYTE		N92     Dn3 
	BYTE	W96
// 091   ----------------------------------------
	BYTE	PATT
	 POIN2	untilwemeetagain8850_5_075
// 092   ----------------------------------------
	BYTE	PATT
	 POIN2	untilwemeetagain8850_5_076
// 093   ----------------------------------------
	BYTE	PATT
	 POIN2	untilwemeetagain8850_5_077
// 094   ----------------------------------------
	BYTE	PATT
	 POIN2	untilwemeetagain8850_5_078
// 095   ----------------------------------------
	BYTE	PATT
	 POIN2	untilwemeetagain8850_5_079
// 096   ----------------------------------------
	BYTE	PATT
	 POIN2	untilwemeetagain8850_5_080
// 097   ----------------------------------------
	BYTE	PATT
	 POIN2	untilwemeetagain8850_5_081
// 098   ----------------------------------------
	BYTE	PATT
	 POIN2	untilwemeetagain8850_5_010
// 099   ----------------------------------------
	BYTE	PATT
	 POIN2	untilwemeetagain8850_5_011
	BYTE		EOT     An4 
	BYTE		        Dn5 
	BYTE	W01
	BYTE		N23     En4   v072
	BYTE		N23     An4 
	BYTE	W24
// 100   ----------------------------------------
	BYTE	PATT
	 POIN2	untilwemeetagain8850_5_012
// 101   ----------------------------------------
	BYTE	PATT
	 POIN2	untilwemeetagain8850_5_013
// 102   ----------------------------------------
	BYTE	PATT
	 POIN2	untilwemeetagain8850_5_014
// 103   ----------------------------------------
	BYTE	PATT
	 POIN2	untilwemeetagain8850_5_015
// 104   ----------------------------------------
	BYTE	PATT
	 POIN2	untilwemeetagain8850_5_016
// 105   ----------------------------------------
	BYTE	PATT
	 POIN2	untilwemeetagain8850_5_017
// 106   ----------------------------------------
	BYTE	PATT
	 POIN2	untilwemeetagain8850_5_010
// 107   ----------------------------------------
	BYTE	PATT
	 POIN2	untilwemeetagain8850_5_011
	BYTE		EOT     An4 
	BYTE		        Dn5 
	BYTE	W01
	BYTE		N23     En4   v072
	BYTE		N23     An4 
	BYTE	W24
// 108   ----------------------------------------
	BYTE	PATT
	 POIN2	untilwemeetagain8850_5_012
// 109   ----------------------------------------
	BYTE	PATT
	 POIN2	untilwemeetagain8850_5_013
// 110   ----------------------------------------
	BYTE	PATT
	 POIN2	untilwemeetagain8850_5_014
// 111   ----------------------------------------
	BYTE	PATT
	 POIN2	untilwemeetagain8850_5_023
// 112   ----------------------------------------
	BYTE	PATT
	 POIN2	untilwemeetagain8850_5_024
// 113   ----------------------------------------
	BYTE	PATT
	 POIN2	untilwemeetagain8850_5_025
	BYTE		EOT     Dn3 
	BYTE		        Fs3 
	BYTE	W01
// 114   ----------------------------------------
	BYTE	PATT
	 POIN2	untilwemeetagain8850_5_026
// 115   ----------------------------------------
	BYTE	PATT
	 POIN2	untilwemeetagain8850_5_027
// 116   ----------------------------------------
	BYTE	PATT
	 POIN2	untilwemeetagain8850_5_028
// 117   ----------------------------------------
	BYTE	PATT
	 POIN2	untilwemeetagain8850_5_029
// 118   ----------------------------------------
	BYTE	PATT
	 POIN2	untilwemeetagain8850_5_026
// 119   ----------------------------------------
	BYTE	PATT
	 POIN2	untilwemeetagain8850_5_031
// 120   ----------------------------------------
	BYTE	PATT
	 POIN2	untilwemeetagain8850_5_032
// 121   ----------------------------------------
	BYTE	PATT
	 POIN2	untilwemeetagain8850_5_033
// 122   ----------------------------------------
	BYTE	PATT
	 POIN2	untilwemeetagain8850_5_026
// 123   ----------------------------------------
	BYTE	PATT
	 POIN2	untilwemeetagain8850_5_027
// 124   ----------------------------------------
	BYTE	PATT
	 POIN2	untilwemeetagain8850_5_028
// 125   ----------------------------------------
	BYTE	PATT
	 POIN2	untilwemeetagain8850_5_029
// 126   ----------------------------------------
	BYTE	PATT
	 POIN2	untilwemeetagain8850_5_026
// 127   ----------------------------------------
	BYTE	PATT
	 POIN2	untilwemeetagain8850_5_031
// 128   ----------------------------------------
	BYTE	PATT
	 POIN2	untilwemeetagain8850_5_040
// 129   ----------------------------------------
	BYTE	W92
	BYTE	W03
	BYTE		EOT     Dn3 
	BYTE		        Fs3 
	BYTE		        Dn4 
	BYTE	W01
// 130   ----------------------------------------
	BYTE		N92     Fn3   v100
	BYTE		N92     An3 
	BYTE		TIE     An4   v072
	BYTE		TIE     Dn5 
	BYTE	W96
// 131   ----------------------------------------
	BYTE		N92     En3   v100
	BYTE		N92     An3 
	BYTE	W68
	BYTE	W03
	BYTE		EOT     An4 
	BYTE		        Dn5 
	BYTE	W01
	BYTE		N23     En4   v072
	BYTE		N23     An4 
	BYTE	W24
// 132   ----------------------------------------
	BYTE		N44     En3   v100
	BYTE		N44     Gn3 
	BYTE		N92     An4   v072
	BYTE		N92     Dn5 
	BYTE	W48
	BYTE		N44     Cn3   v100
	BYTE		N44     En3 
	BYTE	W48
// 133   ----------------------------------------
	BYTE		        Dn3 
	BYTE		N44     Fn3 
	BYTE		N44     Dn5   v072
	BYTE		N44     Fn5 
	BYTE	W48
	BYTE		        Dn3   v100
	BYTE		N44     Gn3 
	BYTE		N44     Gn4   v072
	BYTE		N44     Cn5 
	BYTE	W48
// 134   ----------------------------------------
	BYTE		N11     An2   v100
	BYTE		N11     Dn3 
	BYTE		N92     As4   v072
	BYTE		N92     Dn5 
	BYTE	W12
	BYTE		N11     An2   v100
	BYTE		N11     Dn3 
	BYTE	W12
	BYTE		N23   
	BYTE		N23     Fn3 
	BYTE	W24
	BYTE		N11     Cn3 
	BYTE		N11     En3 
	BYTE	W12
	BYTE		N23     Dn3 
	BYTE		N23     Fn3 
	BYTE	W24
	BYTE		N56     As2 
	BYTE		N56     Dn3 
	BYTE	W12
// 135   ----------------------------------------
	BYTE		N92     Gn4   v072
	BYTE		N92     Cn5 
	BYTE	W48
	BYTE		N44     Cn3   v100
	BYTE		N44     En3 
	BYTE	W48
// 136   ----------------------------------------
	BYTE		N80     Dn3 
	BYTE		N80     Fn3 
	BYTE		N80     Fs4   v072
	BYTE		N80     An4 
	BYTE	W84
	BYTE		N23     An2   v100
	BYTE		N23     Dn3 
	BYTE		N23     An3 
	BYTE		N23     Dn4 
	BYTE	W12
// 137   ----------------------------------------
	BYTE	PATT
	 POIN2	untilwemeetagain8850_5_017
// 138   ----------------------------------------
	BYTE		N92     An2   v072
	BYTE		N92     Dn3 
	BYTE	W96
// 139   ----------------------------------------
	BYTE	PATT
	 POIN2	untilwemeetagain8850_5_075
// 140   ----------------------------------------
	BYTE	PATT
	 POIN2	untilwemeetagain8850_5_076
// 141   ----------------------------------------
	BYTE	PATT
	 POIN2	untilwemeetagain8850_5_077
// 142   ----------------------------------------
	BYTE	PATT
	 POIN2	untilwemeetagain8850_5_078
// 143   ----------------------------------------
	BYTE	PATT
	 POIN2	untilwemeetagain8850_5_079
// 144   ----------------------------------------
	BYTE	PATT
	 POIN2	untilwemeetagain8850_5_080
// 145   ----------------------------------------
	BYTE		N23     Cs3   v092
	BYTE		N23     En3 
	BYTE	W24
	BYTE		        Dn3 
	BYTE		N23     Fn3 
	BYTE	W24
	BYTE		N11     En3 
	BYTE		N11     Gn3 
	BYTE	W12
	BYTE		N32   
	BYTE		N32     As3 
	BYTE	W36
// 146   ----------------------------------------
	BYTE	PATT
	 POIN2	untilwemeetagain8850_5_002
// 147   ----------------------------------------
	BYTE	PATT
	 POIN2	untilwemeetagain8850_5_003
// 148   ----------------------------------------
	BYTE	PATT
	 POIN2	untilwemeetagain8850_5_004
// 149   ----------------------------------------
	BYTE	PATT
	 POIN2	untilwemeetagain8850_5_005
// 150   ----------------------------------------
	BYTE	PATT
	 POIN2	untilwemeetagain8850_5_006
// 151   ----------------------------------------
	BYTE	PATT
	 POIN2	untilwemeetagain8850_5_007
// 152   ----------------------------------------
	BYTE	PATT
	 POIN2	untilwemeetagain8850_5_008
// 153   ----------------------------------------
	BYTE		N44     Gn1   v072
	BYTE		N23     Cs3   v092
	BYTE		N23     En3 
	BYTE	W24
	BYTE		        Dn3 
	BYTE		N23     Fn3 
	BYTE	W24
	BYTE		N44     An1   v072
	BYTE		N11     En3   v092
	BYTE		N11     Gn3 
	BYTE	W12
	BYTE		N32   
	BYTE		N32     As3 
	BYTE	W36
// 154   ----------------------------------------
	BYTE		TIE     Dn2   v072
	BYTE		TIE     Dn3   v092
	BYTE		TIE     Fn3 
	BYTE	W96
// 155   ----------------------------------------
	BYTE	W92
	BYTE	W03
	BYTE		EOT     Dn2 
	BYTE		        Dn3 
	BYTE		        Fn3 
	BYTE	W01
// 156   ----------------------------------------
	BYTE	W96
// 157   ----------------------------------------
	BYTE	W96
// 158   ----------------------------------------
	BYTE	W96
// 159   ----------------------------------------
	BYTE	W06
	BYTE	FINE

//**************** Track 6 (Midi-Chn.6) ****************//

untilwemeetagain8850_6:
	BYTE	KEYSH   untilwemeetagain8850_key+0
// 000   ----------------------------------------
	BYTE	W96
// 001   ----------------------------------------
	BYTE		VOICE   88
	BYTE		VOL     127*untilwemeetagain8850_mvl/mxv
	BYTE		PAN     c_v-45
	BYTE	W48
	BYTE		MOD     0
	BYTE		BEND    c_v+0
	BYTE	W48
// 002   ----------------------------------------
untilwemeetagain8850_6_002:
	BYTE		N05     An5   v127
	BYTE	W12
	BYTE		        Dn5 
	BYTE	W12
	BYTE		        An5 
	BYTE	W72
	BYTE	PEND
// 003   ----------------------------------------
untilwemeetagain8850_6_003:
	BYTE		N05     Gn5   v127
	BYTE	W12
	BYTE		        Cn5 
	BYTE	W12
	BYTE		        Gn5 
	BYTE	W72
	BYTE	PEND
// 004   ----------------------------------------
untilwemeetagain8850_6_004:
	BYTE		N05     Cn6   v127
	BYTE	W12
	BYTE		        Gn5 
	BYTE	W12
	BYTE		        Cn6 
	BYTE	W72
	BYTE	PEND
// 005   ----------------------------------------
untilwemeetagain8850_6_005:
	BYTE		N05     Cn6   v127
	BYTE	W12
	BYTE		        Fn5 
	BYTE	W12
	BYTE		        Cn6 
	BYTE	W12
	BYTE		        Dn5 
	BYTE	W12
	BYTE		        Gn5 
	BYTE	W48
	BYTE	PEND
// 006   ----------------------------------------
untilwemeetagain8850_6_006:
	BYTE		N05     An5   v127
	BYTE	W12
	BYTE		        Dn5 
	BYTE	W12
	BYTE		        An5 
	BYTE	W24
	BYTE		        Dn5 
	BYTE	W48
	BYTE	PEND
// 007   ----------------------------------------
untilwemeetagain8850_6_007:
	BYTE		N05     Gn5   v127
	BYTE	W12
	BYTE		        Cn5 
	BYTE	W12
	BYTE		        Gn5 
	BYTE	W24
	BYTE		        Cn5 
	BYTE	W24
	BYTE		        An4 
	BYTE	W24
	BYTE	PEND
// 008   ----------------------------------------
untilwemeetagain8850_6_008:
	BYTE		N05     Gn5   v127
	BYTE	W12
	BYTE		        Cn5 
	BYTE	W12
	BYTE		        Gn5 
	BYTE	W24
	BYTE		        Fn5 
	BYTE	W12
	BYTE		        Cn5 
	BYTE	W12
	BYTE		        As5 
	BYTE	W24
	BYTE	PEND
// 009   ----------------------------------------
untilwemeetagain8850_6_009:
	BYTE		N05     Gn5   v127
	BYTE	W12
	BYTE		        Cn5 
	BYTE	W12
	BYTE		        An5 
	BYTE	W12
	BYTE		        Dn5 
	BYTE	W12
	BYTE		        As5 
	BYTE	W12
	BYTE		        Fn5 
	BYTE	W12
	BYTE		        Cn6 
	BYTE	W12
	BYTE		        Gn5 
	BYTE	W12
	BYTE	PEND
// 010   ----------------------------------------
untilwemeetagain8850_6_010:
	BYTE		N05     Dn5   v127
	BYTE	W48
	BYTE		N05   
	BYTE	W12
	BYTE		        En5 
	BYTE	W24
	BYTE		        Fn5 
	BYTE	W12
	BYTE	PEND
// 011   ----------------------------------------
	BYTE	W36
	BYTE		        Gn5 
	BYTE	W60
// 012   ----------------------------------------
untilwemeetagain8850_6_012:
	BYTE		N05     En5   v127
	BYTE	W48
	BYTE		        Fn5 
	BYTE	W48
	BYTE	PEND
// 013   ----------------------------------------
untilwemeetagain8850_6_013:
	BYTE		N05     Gn5   v127
	BYTE	W48
	BYTE		        An5 
	BYTE	W48
	BYTE	PEND
// 014   ----------------------------------------
untilwemeetagain8850_6_014:
	BYTE		N05     Dn5   v127
	BYTE	W12
	BYTE		N05   
	BYTE	W12
	BYTE		        Fn5 
	BYTE	W24
	BYTE		        En5 
	BYTE	W12
	BYTE		        Fn5 
	BYTE	W24
	BYTE		        Dn5 
	BYTE	W12
	BYTE	PEND
// 015   ----------------------------------------
	BYTE	W48
	BYTE		        Cn5 
	BYTE	W48
// 016   ----------------------------------------
untilwemeetagain8850_6_016:
	BYTE		N24     Dn5   v127
	BYTE	W84
	BYTE		N05   
	BYTE	W12
	BYTE	PEND
// 017   ----------------------------------------
untilwemeetagain8850_6_017:
	BYTE	W12
	BYTE		N05     Dn5   v127
	BYTE	W12
	BYTE		        En5 
	BYTE	W24
	BYTE		        Fn5 
	BYTE	W24
	BYTE		        Gn5 
	BYTE	W24
	BYTE	PEND
// 018   ----------------------------------------
	BYTE	PATT
	 POIN2	untilwemeetagain8850_6_010
// 019   ----------------------------------------
	BYTE	W36
	BYTE		N05     Gn5   v127
	BYTE	W60
// 020   ----------------------------------------
	BYTE	PATT
	 POIN2	untilwemeetagain8850_6_012
// 021   ----------------------------------------
	BYTE	PATT
	 POIN2	untilwemeetagain8850_6_013
// 022   ----------------------------------------
	BYTE	PATT
	 POIN2	untilwemeetagain8850_6_014
// 023   ----------------------------------------
	BYTE	W48
	BYTE		N05     En5   v127
	BYTE	W48
// 024   ----------------------------------------
untilwemeetagain8850_6_024:
	BYTE		N24     Dn5   v127
	BYTE	W84
	BYTE		N48     Fs5 
	BYTE		N48     Dn6 
	BYTE	W12
	BYTE	PEND
// 025   ----------------------------------------
	BYTE	W96
// 026   ----------------------------------------
untilwemeetagain8850_6_026:
	BYTE		N05     Gn4   v127
	BYTE	W24
	BYTE		        Bn4 
	BYTE	W24
	BYTE		        Gn4 
	BYTE	W24
	BYTE		        An4 
	BYTE	W12
	BYTE		N05   
	BYTE	W12
	BYTE	PEND
// 027   ----------------------------------------
untilwemeetagain8850_6_027:
	BYTE	W24
	BYTE		N05     Bn4   v127
	BYTE	W24
	BYTE		        Cs5 
	BYTE	W24
	BYTE		        Dn5 
	BYTE	W24
	BYTE	PEND
// 028   ----------------------------------------
untilwemeetagain8850_6_028:
	BYTE		N05     An4   v127
	BYTE	W24
	BYTE		        Cs5 
	BYTE	W24
	BYTE		        En5 
	BYTE	W24
	BYTE		        Cs5 
	BYTE	W24
	BYTE	PEND
// 029   ----------------------------------------
untilwemeetagain8850_6_029:
	BYTE		N05     An4   v127
	BYTE	W24
	BYTE		        Dn5 
	BYTE	W24
	BYTE		        Fs5 
	BYTE	W18
	BYTE		        En5 
	BYTE	W18
	BYTE		        Cs5 
	BYTE	W12
	BYTE	PEND
// 030   ----------------------------------------
	BYTE	PATT
	 POIN2	untilwemeetagain8850_6_026
// 031   ----------------------------------------
untilwemeetagain8850_6_031:
	BYTE	W24
	BYTE		N05     Cs5   v127
	BYTE	W24
	BYTE		        En5 
	BYTE	W24
	BYTE		        Gn5 
	BYTE	W24
	BYTE	PEND
// 032   ----------------------------------------
untilwemeetagain8850_6_032:
	BYTE		N05     Fs5   v127
	BYTE	W24
	BYTE		        En5 
	BYTE	W24
	BYTE		        Dn5 
	BYTE	W24
	BYTE		        Cs5 
	BYTE	W12
	BYTE		        An5 
	BYTE		N05     An6 
	BYTE	W12
	BYTE	PEND
// 033   ----------------------------------------
untilwemeetagain8850_6_033:
	BYTE	W12
	BYTE		N05     An5   v127
	BYTE		N05     An6 
	BYTE	W12
	BYTE		        Gn5 
	BYTE		N05     Gn6 
	BYTE	W24
	BYTE		        Fs5 
	BYTE		N05     Fs6 
	BYTE	W18
	BYTE		        En5 
	BYTE		N05     En6 
	BYTE	W18
	BYTE		        Cs5 
	BYTE		N05     Cs6 
	BYTE	W12
	BYTE	PEND
// 034   ----------------------------------------
	BYTE	PATT
	 POIN2	untilwemeetagain8850_6_026
// 035   ----------------------------------------
	BYTE	PATT
	 POIN2	untilwemeetagain8850_6_027
// 036   ----------------------------------------
	BYTE	PATT
	 POIN2	untilwemeetagain8850_6_028
// 037   ----------------------------------------
	BYTE	PATT
	 POIN2	untilwemeetagain8850_6_029
// 038   ----------------------------------------
	BYTE	PATT
	 POIN2	untilwemeetagain8850_6_026
// 039   ----------------------------------------
	BYTE	PATT
	 POIN2	untilwemeetagain8850_6_031
// 040   ----------------------------------------
untilwemeetagain8850_6_040:
	BYTE		N05     An5   v127
	BYTE	W24
	BYTE		        Gn5 
	BYTE	W24
	BYTE		        Fs5 
	BYTE	W24
	BYTE		        En5 
	BYTE	W12
	BYTE		        Dn5 
	BYTE	W12
	BYTE	PEND
// 041   ----------------------------------------
untilwemeetagain8850_6_041:
	BYTE	W24
	BYTE		N02     Fs4   v127
	BYTE	W06
	BYTE		        An4 
	BYTE	W06
	BYTE		        Dn5 
	BYTE	W06
	BYTE		        Fs5 
	BYTE	W06
	BYTE		        An4 
	BYTE	W06
	BYTE		        Dn5 
	BYTE	W06
	BYTE		        Fs5 
	BYTE	W06
	BYTE		        An5 
	BYTE	W06
	BYTE		        Dn5 
	BYTE	W06
	BYTE		        Fs5 
	BYTE	W06
	BYTE		        An5 
	BYTE	W06
	BYTE		        Dn6 
	BYTE	W06
	BYTE	PEND
// 042   ----------------------------------------
	BYTE	PATT
	 POIN2	untilwemeetagain8850_6_010
// 043   ----------------------------------------
	BYTE	W36
	BYTE		N05     Gn5   v127
	BYTE	W60
// 044   ----------------------------------------
	BYTE	PATT
	 POIN2	untilwemeetagain8850_6_012
// 045   ----------------------------------------
	BYTE	PATT
	 POIN2	untilwemeetagain8850_6_013
// 046   ----------------------------------------
	BYTE	PATT
	 POIN2	untilwemeetagain8850_6_014
// 047   ----------------------------------------
	BYTE	W48
	BYTE		N05     Cn5   v127
	BYTE	W48
// 048   ----------------------------------------
	BYTE	PATT
	 POIN2	untilwemeetagain8850_6_016
// 049   ----------------------------------------
	BYTE	PATT
	 POIN2	untilwemeetagain8850_6_017
// 050   ----------------------------------------
	BYTE	PATT
	 POIN2	untilwemeetagain8850_6_010
// 051   ----------------------------------------
	BYTE	W36
	BYTE		N05     Gn5   v127
	BYTE	W60
// 052   ----------------------------------------
	BYTE	PATT
	 POIN2	untilwemeetagain8850_6_012
// 053   ----------------------------------------
	BYTE	PATT
	 POIN2	untilwemeetagain8850_6_013
// 054   ----------------------------------------
	BYTE	PATT
	 POIN2	untilwemeetagain8850_6_014
// 055   ----------------------------------------
	BYTE	W48
	BYTE		N05     En5   v127
	BYTE	W48
// 056   ----------------------------------------
	BYTE	PATT
	 POIN2	untilwemeetagain8850_6_024
// 057   ----------------------------------------
	BYTE	W96
// 058   ----------------------------------------
	BYTE	PATT
	 POIN2	untilwemeetagain8850_6_026
// 059   ----------------------------------------
	BYTE	PATT
	 POIN2	untilwemeetagain8850_6_027
// 060   ----------------------------------------
	BYTE	PATT
	 POIN2	untilwemeetagain8850_6_028
// 061   ----------------------------------------
	BYTE	PATT
	 POIN2	untilwemeetagain8850_6_029
// 062   ----------------------------------------
	BYTE	PATT
	 POIN2	untilwemeetagain8850_6_026
// 063   ----------------------------------------
	BYTE	PATT
	 POIN2	untilwemeetagain8850_6_031
// 064   ----------------------------------------
	BYTE	PATT
	 POIN2	untilwemeetagain8850_6_032
// 065   ----------------------------------------
	BYTE	PATT
	 POIN2	untilwemeetagain8850_6_033
// 066   ----------------------------------------
	BYTE	PATT
	 POIN2	untilwemeetagain8850_6_026
// 067   ----------------------------------------
	BYTE	PATT
	 POIN2	untilwemeetagain8850_6_027
// 068   ----------------------------------------
	BYTE	PATT
	 POIN2	untilwemeetagain8850_6_028
// 069   ----------------------------------------
	BYTE	PATT
	 POIN2	untilwemeetagain8850_6_029
// 070   ----------------------------------------
	BYTE	PATT
	 POIN2	untilwemeetagain8850_6_026
// 071   ----------------------------------------
	BYTE	PATT
	 POIN2	untilwemeetagain8850_6_031
// 072   ----------------------------------------
	BYTE	PATT
	 POIN2	untilwemeetagain8850_6_040
// 073   ----------------------------------------
	BYTE	PATT
	 POIN2	untilwemeetagain8850_6_041
// 074   ----------------------------------------
	BYTE	PATT
	 POIN2	untilwemeetagain8850_6_002
// 075   ----------------------------------------
	BYTE	PATT
	 POIN2	untilwemeetagain8850_6_003
// 076   ----------------------------------------
	BYTE	PATT
	 POIN2	untilwemeetagain8850_6_004
// 077   ----------------------------------------
	BYTE	PATT
	 POIN2	untilwemeetagain8850_6_005
// 078   ----------------------------------------
	BYTE	PATT
	 POIN2	untilwemeetagain8850_6_006
// 079   ----------------------------------------
	BYTE	PATT
	 POIN2	untilwemeetagain8850_6_007
// 080   ----------------------------------------
	BYTE	PATT
	 POIN2	untilwemeetagain8850_6_008
// 081   ----------------------------------------
	BYTE	PATT
	 POIN2	untilwemeetagain8850_6_009
// 082   ----------------------------------------
	BYTE	PATT
	 POIN2	untilwemeetagain8850_6_002
// 083   ----------------------------------------
	BYTE	PATT
	 POIN2	untilwemeetagain8850_6_003
// 084   ----------------------------------------
	BYTE	PATT
	 POIN2	untilwemeetagain8850_6_004
// 085   ----------------------------------------
	BYTE	PATT
	 POIN2	untilwemeetagain8850_6_005
// 086   ----------------------------------------
	BYTE	PATT
	 POIN2	untilwemeetagain8850_6_006
// 087   ----------------------------------------
	BYTE	PATT
	 POIN2	untilwemeetagain8850_6_007
// 088   ----------------------------------------
	BYTE	PATT
	 POIN2	untilwemeetagain8850_6_008
// 089   ----------------------------------------
	BYTE	PATT
	 POIN2	untilwemeetagain8850_6_009
// 090   ----------------------------------------
	BYTE	PATT
	 POIN2	untilwemeetagain8850_6_002
// 091   ----------------------------------------
	BYTE	PATT
	 POIN2	untilwemeetagain8850_6_003
// 092   ----------------------------------------
	BYTE	PATT
	 POIN2	untilwemeetagain8850_6_004
// 093   ----------------------------------------
	BYTE	PATT
	 POIN2	untilwemeetagain8850_6_005
// 094   ----------------------------------------
	BYTE	PATT
	 POIN2	untilwemeetagain8850_6_006
// 095   ----------------------------------------
	BYTE	PATT
	 POIN2	untilwemeetagain8850_6_007
// 096   ----------------------------------------
	BYTE	PATT
	 POIN2	untilwemeetagain8850_6_008
// 097   ----------------------------------------
	BYTE	PATT
	 POIN2	untilwemeetagain8850_6_009
// 098   ----------------------------------------
	BYTE	PATT
	 POIN2	untilwemeetagain8850_6_010
// 099   ----------------------------------------
	BYTE	W36
	BYTE		N05     Gn5   v127
	BYTE	W60
// 100   ----------------------------------------
	BYTE	PATT
	 POIN2	untilwemeetagain8850_6_012
// 101   ----------------------------------------
	BYTE	PATT
	 POIN2	untilwemeetagain8850_6_013
// 102   ----------------------------------------
	BYTE	PATT
	 POIN2	untilwemeetagain8850_6_014
// 103   ----------------------------------------
	BYTE	W48
	BYTE		N05     Cn5   v127
	BYTE	W48
// 104   ----------------------------------------
	BYTE	PATT
	 POIN2	untilwemeetagain8850_6_016
// 105   ----------------------------------------
	BYTE	PATT
	 POIN2	untilwemeetagain8850_6_017
// 106   ----------------------------------------
	BYTE	PATT
	 POIN2	untilwemeetagain8850_6_010
// 107   ----------------------------------------
	BYTE	W36
	BYTE		N05     Gn5   v127
	BYTE	W60
// 108   ----------------------------------------
	BYTE	PATT
	 POIN2	untilwemeetagain8850_6_012
// 109   ----------------------------------------
	BYTE	PATT
	 POIN2	untilwemeetagain8850_6_013
// 110   ----------------------------------------
	BYTE	PATT
	 POIN2	untilwemeetagain8850_6_014
// 111   ----------------------------------------
	BYTE	W48
	BYTE		N05     En5   v127
	BYTE	W48
// 112   ----------------------------------------
	BYTE	PATT
	 POIN2	untilwemeetagain8850_6_024
// 113   ----------------------------------------
	BYTE	W96
// 114   ----------------------------------------
	BYTE	PATT
	 POIN2	untilwemeetagain8850_6_026
// 115   ----------------------------------------
	BYTE	PATT
	 POIN2	untilwemeetagain8850_6_027
// 116   ----------------------------------------
	BYTE	PATT
	 POIN2	untilwemeetagain8850_6_028
// 117   ----------------------------------------
	BYTE	PATT
	 POIN2	untilwemeetagain8850_6_029
// 118   ----------------------------------------
	BYTE	PATT
	 POIN2	untilwemeetagain8850_6_026
// 119   ----------------------------------------
	BYTE	PATT
	 POIN2	untilwemeetagain8850_6_031
// 120   ----------------------------------------
	BYTE	PATT
	 POIN2	untilwemeetagain8850_6_032
// 121   ----------------------------------------
	BYTE	PATT
	 POIN2	untilwemeetagain8850_6_033
// 122   ----------------------------------------
	BYTE	PATT
	 POIN2	untilwemeetagain8850_6_026
// 123   ----------------------------------------
	BYTE	PATT
	 POIN2	untilwemeetagain8850_6_027
// 124   ----------------------------------------
	BYTE	PATT
	 POIN2	untilwemeetagain8850_6_028
// 125   ----------------------------------------
	BYTE	PATT
	 POIN2	untilwemeetagain8850_6_029
// 126   ----------------------------------------
	BYTE	PATT
	 POIN2	untilwemeetagain8850_6_026
// 127   ----------------------------------------
	BYTE	PATT
	 POIN2	untilwemeetagain8850_6_031
// 128   ----------------------------------------
	BYTE	PATT
	 POIN2	untilwemeetagain8850_6_040
// 129   ----------------------------------------
	BYTE	PATT
	 POIN2	untilwemeetagain8850_6_041
// 130   ----------------------------------------
	BYTE	PATT
	 POIN2	untilwemeetagain8850_6_010
// 131   ----------------------------------------
	BYTE	W48
	BYTE		N05     Gn5   v127
	BYTE		N05     Gn6 
	BYTE	W48
// 132   ----------------------------------------
	BYTE		        En5 
	BYTE	W48
	BYTE		        Dn5 
	BYTE	W12
	BYTE		        En5 
	BYTE	W24
	BYTE		        Fn5 
	BYTE	W12
// 133   ----------------------------------------
	BYTE	W48
	BYTE		        An5 
	BYTE		N05     An6 
	BYTE	W48
// 134   ----------------------------------------
	BYTE	PATT
	 POIN2	untilwemeetagain8850_6_014
// 135   ----------------------------------------
	BYTE	W12
	BYTE		N05     Dn5   v127
	BYTE	W12
	BYTE		        Gn5 
	BYTE	W24
	BYTE		        Fn5 
	BYTE	W12
	BYTE		        Gn5 
	BYTE	W24
	BYTE		N24     An5 
	BYTE		N24     Dn6 
	BYTE	W12
// 136   ----------------------------------------
	BYTE	W84
	BYTE		N05     Dn5 
	BYTE	W12
// 137   ----------------------------------------
	BYTE	PATT
	 POIN2	untilwemeetagain8850_6_017
// 138   ----------------------------------------
	BYTE	PATT
	 POIN2	untilwemeetagain8850_6_002
// 139   ----------------------------------------
	BYTE	PATT
	 POIN2	untilwemeetagain8850_6_003
// 140   ----------------------------------------
	BYTE	PATT
	 POIN2	untilwemeetagain8850_6_004
// 141   ----------------------------------------
	BYTE	PATT
	 POIN2	untilwemeetagain8850_6_005
// 142   ----------------------------------------
	BYTE	PATT
	 POIN2	untilwemeetagain8850_6_006
// 143   ----------------------------------------
	BYTE	PATT
	 POIN2	untilwemeetagain8850_6_007
// 144   ----------------------------------------
	BYTE	PATT
	 POIN2	untilwemeetagain8850_6_008
// 145   ----------------------------------------
	BYTE	PATT
	 POIN2	untilwemeetagain8850_6_009
// 146   ----------------------------------------
	BYTE	PATT
	 POIN2	untilwemeetagain8850_6_002
// 147   ----------------------------------------
	BYTE	PATT
	 POIN2	untilwemeetagain8850_6_003
// 148   ----------------------------------------
	BYTE	PATT
	 POIN2	untilwemeetagain8850_6_004
// 149   ----------------------------------------
	BYTE	PATT
	 POIN2	untilwemeetagain8850_6_005
// 150   ----------------------------------------
	BYTE	PATT
	 POIN2	untilwemeetagain8850_6_006
// 151   ----------------------------------------
	BYTE	PATT
	 POIN2	untilwemeetagain8850_6_007
// 152   ----------------------------------------
	BYTE	PATT
	 POIN2	untilwemeetagain8850_6_008
// 153   ----------------------------------------
	BYTE	PATT
	 POIN2	untilwemeetagain8850_6_009
// 154   ----------------------------------------
	BYTE	W96
// 155   ----------------------------------------
	BYTE	W96
// 156   ----------------------------------------
	BYTE	W96
// 157   ----------------------------------------
	BYTE	W96
// 158   ----------------------------------------
	BYTE	W96
// 159   ----------------------------------------
	BYTE	W06
	BYTE	FINE

//**************** Track 7 (Midi-Chn.7) ****************//

untilwemeetagain8850_7:
	BYTE	KEYSH   untilwemeetagain8850_key+0
// 000   ----------------------------------------
	BYTE	W96
// 001   ----------------------------------------
	BYTE		VOICE   50
	BYTE		VOL     90*untilwemeetagain8850_mvl/mxv
	BYTE		PAN     c_v+0
	BYTE	W48
	BYTE		MOD     0
	BYTE		BEND    c_v+0
	BYTE	W48
// 002   ----------------------------------------
untilwemeetagain8850_7_002:
	BYTE		N92     Fn3   v080
	BYTE		N92     An3 
	BYTE		N92     Dn4 
	BYTE	W96
	BYTE	PEND
// 003   ----------------------------------------
untilwemeetagain8850_7_003:
	BYTE		N44     Gn3   v080
	BYTE		N44     Cn4 
	BYTE		N44     En4 
	BYTE	W48
	BYTE		        An3 
	BYTE		N44     Dn4 
	BYTE		N44     Fn4 
	BYTE	W48
	BYTE	PEND
// 004   ----------------------------------------
untilwemeetagain8850_7_004:
	BYTE		N44     As3   v080
	BYTE		N44     Dn4 
	BYTE		N44     Gn4 
	BYTE	W48
	BYTE		        Fn3 
	BYTE		N44     An3 
	BYTE		N44     Dn4 
	BYTE	W48
	BYTE	PEND
// 005   ----------------------------------------
untilwemeetagain8850_7_005:
	BYTE		N44     Fn3   v080
	BYTE		N44     As3 
	BYTE		N44     Dn4 
	BYTE	W48
	BYTE		        An3 
	BYTE		N44     Cn4 
	BYTE		N44     En4 
	BYTE	W48
	BYTE	PEND
// 006   ----------------------------------------
untilwemeetagain8850_7_006:
	BYTE		N44     As3   v080
	BYTE		N44     Dn4 
	BYTE		N44     Fn4 
	BYTE		N40     An5 
	BYTE	W48
	BYTE		N44     Gn3 
	BYTE		N44     As3 
	BYTE		N44     Dn4 
	BYTE		N40     Cn6 
	BYTE	W48
	BYTE	PEND
// 007   ----------------------------------------
untilwemeetagain8850_7_007:
	BYTE		N44     Cn4   v080
	BYTE		N44     En4 
	BYTE		N44     Gn4 
	BYTE		N40     Gn5 
	BYTE	W48
	BYTE		N44     Fn3 
	BYTE		N44     An3 
	BYTE		N44     Cn4 
	BYTE		N40     An5 
	BYTE	W48
	BYTE	PEND
// 008   ----------------------------------------
untilwemeetagain8850_7_008:
	BYTE		N44     Dn3   v080
	BYTE		N44     Gn3 
	BYTE		N44     As3 
	BYTE		N88     As5 
	BYTE	W48
	BYTE		N44     As3 
	BYTE		N44     Dn4 
	BYTE		N44     Fn4 
	BYTE	W48
	BYTE	PEND
// 009   ----------------------------------------
untilwemeetagain8850_7_009:
	BYTE		N88     Cs4   v080
	BYTE		N88     En4 
	BYTE		N88     Gn4 
	BYTE		N88     An5 
	BYTE	W96
	BYTE	PEND
// 010   ----------------------------------------
	BYTE	W96
// 011   ----------------------------------------
	BYTE	W96
// 012   ----------------------------------------
	BYTE	W96
// 013   ----------------------------------------
	BYTE	W96
// 014   ----------------------------------------
	BYTE	W96
// 015   ----------------------------------------
	BYTE	W96
// 016   ----------------------------------------
	BYTE	W96
// 017   ----------------------------------------
	BYTE	W96
// 018   ----------------------------------------
	BYTE	W96
// 019   ----------------------------------------
	BYTE	W96
// 020   ----------------------------------------
	BYTE	W96
// 021   ----------------------------------------
	BYTE	W96
// 022   ----------------------------------------
	BYTE	W96
// 023   ----------------------------------------
	BYTE	W96
// 024   ----------------------------------------
	BYTE	W96
// 025   ----------------------------------------
	BYTE	W96
// 026   ----------------------------------------
	BYTE	W96
// 027   ----------------------------------------
	BYTE	W96
// 028   ----------------------------------------
	BYTE	W96
// 029   ----------------------------------------
	BYTE	W96
// 030   ----------------------------------------
	BYTE	W96
// 031   ----------------------------------------
	BYTE	W96
// 032   ----------------------------------------
	BYTE	W96
// 033   ----------------------------------------
	BYTE	W96
// 034   ----------------------------------------
	BYTE	W96
// 035   ----------------------------------------
	BYTE	W96
// 036   ----------------------------------------
	BYTE	W96
// 037   ----------------------------------------
	BYTE	W96
// 038   ----------------------------------------
	BYTE	W96
// 039   ----------------------------------------
	BYTE	W96
// 040   ----------------------------------------
	BYTE	W96
// 041   ----------------------------------------
	BYTE	W96
// 042   ----------------------------------------
	BYTE	W96
// 043   ----------------------------------------
	BYTE	W96
// 044   ----------------------------------------
	BYTE	W96
// 045   ----------------------------------------
	BYTE	W96
// 046   ----------------------------------------
	BYTE	W96
// 047   ----------------------------------------
	BYTE	W96
// 048   ----------------------------------------
	BYTE	W96
// 049   ----------------------------------------
	BYTE	W96
// 050   ----------------------------------------
	BYTE	W96
// 051   ----------------------------------------
	BYTE	W96
// 052   ----------------------------------------
	BYTE	W96
// 053   ----------------------------------------
	BYTE	W96
// 054   ----------------------------------------
	BYTE	W96
// 055   ----------------------------------------
	BYTE	W96
// 056   ----------------------------------------
	BYTE	W96
// 057   ----------------------------------------
	BYTE	W96
// 058   ----------------------------------------
	BYTE	W96
// 059   ----------------------------------------
	BYTE	W96
// 060   ----------------------------------------
	BYTE	W96
// 061   ----------------------------------------
	BYTE	W96
// 062   ----------------------------------------
	BYTE	W96
// 063   ----------------------------------------
	BYTE	W96
// 064   ----------------------------------------
	BYTE	W96
// 065   ----------------------------------------
	BYTE	W96
// 066   ----------------------------------------
	BYTE	W96
// 067   ----------------------------------------
	BYTE	W96
// 068   ----------------------------------------
	BYTE	W96
// 069   ----------------------------------------
	BYTE	W96
// 070   ----------------------------------------
	BYTE	W96
// 071   ----------------------------------------
	BYTE	W96
// 072   ----------------------------------------
	BYTE	W96
// 073   ----------------------------------------
	BYTE	W96
// 074   ----------------------------------------
	BYTE	PATT
	 POIN2	untilwemeetagain8850_7_002
// 075   ----------------------------------------
	BYTE	PATT
	 POIN2	untilwemeetagain8850_7_003
// 076   ----------------------------------------
	BYTE	PATT
	 POIN2	untilwemeetagain8850_7_004
// 077   ----------------------------------------
	BYTE	PATT
	 POIN2	untilwemeetagain8850_7_005
// 078   ----------------------------------------
	BYTE	PATT
	 POIN2	untilwemeetagain8850_7_006
// 079   ----------------------------------------
	BYTE	PATT
	 POIN2	untilwemeetagain8850_7_007
// 080   ----------------------------------------
	BYTE	PATT
	 POIN2	untilwemeetagain8850_7_008
// 081   ----------------------------------------
	BYTE	PATT
	 POIN2	untilwemeetagain8850_7_009
// 082   ----------------------------------------
	BYTE	PATT
	 POIN2	untilwemeetagain8850_7_002
// 083   ----------------------------------------
	BYTE	PATT
	 POIN2	untilwemeetagain8850_7_003
// 084   ----------------------------------------
	BYTE	PATT
	 POIN2	untilwemeetagain8850_7_004
// 085   ----------------------------------------
	BYTE	PATT
	 POIN2	untilwemeetagain8850_7_005
// 086   ----------------------------------------
	BYTE	PATT
	 POIN2	untilwemeetagain8850_7_006
// 087   ----------------------------------------
	BYTE	PATT
	 POIN2	untilwemeetagain8850_7_007
// 088   ----------------------------------------
	BYTE	PATT
	 POIN2	untilwemeetagain8850_7_008
// 089   ----------------------------------------
	BYTE	PATT
	 POIN2	untilwemeetagain8850_7_009
// 090   ----------------------------------------
	BYTE	PATT
	 POIN2	untilwemeetagain8850_7_002
// 091   ----------------------------------------
	BYTE	PATT
	 POIN2	untilwemeetagain8850_7_003
// 092   ----------------------------------------
	BYTE	PATT
	 POIN2	untilwemeetagain8850_7_004
// 093   ----------------------------------------
	BYTE	PATT
	 POIN2	untilwemeetagain8850_7_005
// 094   ----------------------------------------
	BYTE	PATT
	 POIN2	untilwemeetagain8850_7_006
// 095   ----------------------------------------
	BYTE	PATT
	 POIN2	untilwemeetagain8850_7_007
// 096   ----------------------------------------
	BYTE	PATT
	 POIN2	untilwemeetagain8850_7_008
// 097   ----------------------------------------
	BYTE	PATT
	 POIN2	untilwemeetagain8850_7_009
// 098   ----------------------------------------
	BYTE	W96
// 099   ----------------------------------------
	BYTE	W96
// 100   ----------------------------------------
	BYTE	W96
// 101   ----------------------------------------
	BYTE	W96
// 102   ----------------------------------------
	BYTE	W96
// 103   ----------------------------------------
	BYTE	W96
// 104   ----------------------------------------
	BYTE	W96
// 105   ----------------------------------------
	BYTE	W96
// 106   ----------------------------------------
	BYTE	W96
// 107   ----------------------------------------
	BYTE	W96
// 108   ----------------------------------------
	BYTE	W96
// 109   ----------------------------------------
	BYTE	W96
// 110   ----------------------------------------
	BYTE	W96
// 111   ----------------------------------------
	BYTE	W96
// 112   ----------------------------------------
	BYTE	W96
// 113   ----------------------------------------
	BYTE	W96
// 114   ----------------------------------------
	BYTE	W96
// 115   ----------------------------------------
	BYTE	W96
// 116   ----------------------------------------
	BYTE	W96
// 117   ----------------------------------------
	BYTE	W96
// 118   ----------------------------------------
	BYTE	W96
// 119   ----------------------------------------
	BYTE	W96
// 120   ----------------------------------------
	BYTE	W96
// 121   ----------------------------------------
	BYTE	W96
// 122   ----------------------------------------
	BYTE	W96
// 123   ----------------------------------------
	BYTE	W96
// 124   ----------------------------------------
	BYTE	W96
// 125   ----------------------------------------
	BYTE	W96
// 126   ----------------------------------------
	BYTE	W96
// 127   ----------------------------------------
	BYTE	W96
// 128   ----------------------------------------
	BYTE	W96
// 129   ----------------------------------------
	BYTE	W96
// 130   ----------------------------------------
	BYTE	W96
// 131   ----------------------------------------
	BYTE	W96
// 132   ----------------------------------------
	BYTE	W96
// 133   ----------------------------------------
	BYTE	W96
// 134   ----------------------------------------
	BYTE	W96
// 135   ----------------------------------------
	BYTE	W96
// 136   ----------------------------------------
	BYTE	W96
// 137   ----------------------------------------
	BYTE	W96
// 138   ----------------------------------------
	BYTE	PATT
	 POIN2	untilwemeetagain8850_7_002
// 139   ----------------------------------------
	BYTE	PATT
	 POIN2	untilwemeetagain8850_7_003
// 140   ----------------------------------------
	BYTE	PATT
	 POIN2	untilwemeetagain8850_7_004
// 141   ----------------------------------------
	BYTE	PATT
	 POIN2	untilwemeetagain8850_7_005
// 142   ----------------------------------------
	BYTE	PATT
	 POIN2	untilwemeetagain8850_7_006
// 143   ----------------------------------------
	BYTE	PATT
	 POIN2	untilwemeetagain8850_7_007
// 144   ----------------------------------------
	BYTE	PATT
	 POIN2	untilwemeetagain8850_7_008
// 145   ----------------------------------------
	BYTE	PATT
	 POIN2	untilwemeetagain8850_7_009
// 146   ----------------------------------------
	BYTE	PATT
	 POIN2	untilwemeetagain8850_7_002
// 147   ----------------------------------------
	BYTE	PATT
	 POIN2	untilwemeetagain8850_7_003
// 148   ----------------------------------------
	BYTE	PATT
	 POIN2	untilwemeetagain8850_7_004
// 149   ----------------------------------------
	BYTE	PATT
	 POIN2	untilwemeetagain8850_7_005
// 150   ----------------------------------------
	BYTE	PATT
	 POIN2	untilwemeetagain8850_7_006
// 151   ----------------------------------------
	BYTE	PATT
	 POIN2	untilwemeetagain8850_7_007
// 152   ----------------------------------------
	BYTE	PATT
	 POIN2	untilwemeetagain8850_7_008
// 153   ----------------------------------------
	BYTE	PATT
	 POIN2	untilwemeetagain8850_7_009
// 154   ----------------------------------------
	BYTE		TIE     Dn4   v080
	BYTE		TIE     Fn4 
	BYTE		TIE     An4 
	BYTE		TIE     Dn6 
	BYTE	W96
// 155   ----------------------------------------
	BYTE	W92
	BYTE	W03
	BYTE		EOT     Dn4 
	BYTE		        Fn4 
	BYTE		        An4 
	BYTE		        Dn6 
	BYTE	W01
// 156   ----------------------------------------
	BYTE	W96
// 157   ----------------------------------------
	BYTE	W96
// 158   ----------------------------------------
	BYTE	W96
// 159   ----------------------------------------
	BYTE	W06
	BYTE	FINE

//**************** Track 8 (Midi-Chn.10) ****************//

untilwemeetagain8850_8:
	BYTE	KEYSH   untilwemeetagain8850_key+0
// 000   ----------------------------------------
	BYTE	W96
// 001   ----------------------------------------
	BYTE		VOICE   32
	BYTE		VOL     127*untilwemeetagain8850_mvl/mxv
	BYTE		PAN     c_v+0
	BYTE	W48
	BYTE		MOD     0
	BYTE		BEND    c_v+0
	BYTE	W48
// 002   ----------------------------------------
untilwemeetagain8850_8_002:
	BYTE		N02     Bn0   v112
	BYTE		N02     Fs1   v127
	BYTE	W06
	BYTE		N02   
	BYTE	W06
	BYTE		        As1 
	BYTE	W06
	BYTE		        Gs1 
	BYTE	W06
	BYTE		        Fs1 
	BYTE	W06
	BYTE		N02   
	BYTE	W06
	BYTE		        Bn0   v112
	BYTE		N02     As1   v127
	BYTE	W06
	BYTE		        Gs1 
	BYTE	W06
	BYTE		        Bn0   v112
	BYTE		N02     As1   v127
	BYTE	W06
	BYTE		        Gs1 
	BYTE	W06
	BYTE		        Fs1 
	BYTE	W06
	BYTE		        As1 
	BYTE	W06
	BYTE		        Dn1   v112
	BYTE		N02     Gs1   v127
	BYTE	W06
	BYTE		        Fs1 
	BYTE	W06
	BYTE		        As1 
	BYTE	W06
	BYTE		        Gs1 
	BYTE	W06
	BYTE	PEND
// 003   ----------------------------------------
	BYTE	PATT
	 POIN2	untilwemeetagain8850_8_002
// 004   ----------------------------------------
	BYTE	PATT
	 POIN2	untilwemeetagain8850_8_002
// 005   ----------------------------------------
untilwemeetagain8850_8_005:
	BYTE		N02     Bn0   v112
	BYTE		N02     Fs1   v127
	BYTE	W06
	BYTE		N02   
	BYTE	W06
	BYTE		        As1 
	BYTE	W06
	BYTE		        Gs1 
	BYTE	W06
	BYTE		        Fs1 
	BYTE	W06
	BYTE		N02   
	BYTE	W06
	BYTE		        Bn0   v112
	BYTE		N02     As1   v127
	BYTE	W06
	BYTE		        Gs1 
	BYTE	W06
	BYTE		        Bn0   v112
	BYTE		N02     As1   v127
	BYTE	W06
	BYTE		        Gs1 
	BYTE	W06
	BYTE		        Fs1 
	BYTE	W06
	BYTE		        As1 
	BYTE	W06
	BYTE		        Dn1   v112
	BYTE		N02     Gs1   v127
	BYTE	W06
	BYTE		        Fs1 
	BYTE	W06
	BYTE		        Bn0   v112
	BYTE		N02     As1   v127
	BYTE	W06
	BYTE		        Dn1   v112
	BYTE		N02     Gs1   v127
	BYTE	W06
	BYTE	PEND
// 006   ----------------------------------------
untilwemeetagain8850_8_006:
	BYTE		N02     Bn0   v112
	BYTE		N02     Fs1   v127
	BYTE		N02     Fn2 
	BYTE	W06
	BYTE		        Fs1 
	BYTE	W06
	BYTE		        As1 
	BYTE	W06
	BYTE		        Gs1 
	BYTE	W06
	BYTE		        Fs1 
	BYTE	W06
	BYTE		N02   
	BYTE	W06
	BYTE		        Bn0   v112
	BYTE		N02     As1   v127
	BYTE	W06
	BYTE		        Gs1 
	BYTE	W06
	BYTE		        Bn0   v112
	BYTE		N02     As1   v127
	BYTE	W06
	BYTE		        Gs1 
	BYTE	W06
	BYTE		        Fs1 
	BYTE	W06
	BYTE		        As1 
	BYTE	W06
	BYTE		        Dn1   v112
	BYTE		N02     Gs1   v127
	BYTE	W06
	BYTE		        Fs1 
	BYTE	W06
	BYTE		        As1 
	BYTE	W06
	BYTE		        Gs1 
	BYTE	W06
	BYTE	PEND
// 007   ----------------------------------------
	BYTE	PATT
	 POIN2	untilwemeetagain8850_8_002
// 008   ----------------------------------------
	BYTE	PATT
	 POIN2	untilwemeetagain8850_8_002
// 009   ----------------------------------------
	BYTE		N02     Bn0   v112
	BYTE		N02     Fs1   v127
	BYTE	W06
	BYTE		N02   
	BYTE	W06
	BYTE		        As1 
	BYTE	W06
	BYTE		        Bn0   v112
	BYTE		N02     Gs1   v127
	BYTE	W06
	BYTE		        Fs1 
	BYTE	W06
	BYTE		N02   
	BYTE	W06
	BYTE		        Bn0   v112
	BYTE		N02     As1   v127
	BYTE	W06
	BYTE		        Gs1 
	BYTE	W06
	BYTE		        Bn0   v112
	BYTE		N02     Dn1 
	BYTE	W06
	BYTE		N02   
	BYTE	W06
	BYTE		        Bn1 
	BYTE	W06
	BYTE		        Bn0 
	BYTE		N02     Dn1 
	BYTE	W06
	BYTE		N02   
	BYTE	W06
	BYTE		        Gn1 
	BYTE	W06
	BYTE		        Bn0 
	BYTE		N02     Dn1 
	BYTE	W06
	BYTE		N02   
	BYTE	W06
// 010   ----------------------------------------
untilwemeetagain8850_8_010:
	BYTE		N02     Bn0   v112
	BYTE		N02     Fs1   v127
	BYTE		N02     Cs2 
	BYTE	W12
	BYTE		        Fs1 
	BYTE	W06
	BYTE		        As1 
	BYTE	W06
	BYTE		        Dn1   v112
	BYTE		N02     Fs1   v127
	BYTE	W12
	BYTE		N02   
	BYTE	W06
	BYTE		        As1 
	BYTE	W06
	BYTE		        Bn0   v112
	BYTE		N02     Fs1   v127
	BYTE	W12
	BYTE		        Bn0   v112
	BYTE		N02     Fs1   v127
	BYTE	W06
	BYTE		        As1 
	BYTE	W06
	BYTE		        Dn1   v112
	BYTE		N02     Fs1   v127
	BYTE	W12
	BYTE		N02   
	BYTE	W06
	BYTE		        As1 
	BYTE	W06
	BYTE	PEND
// 011   ----------------------------------------
untilwemeetagain8850_8_011:
	BYTE		N02     Bn0   v112
	BYTE		N02     Fs1   v127
	BYTE	W12
	BYTE		N02   
	BYTE	W06
	BYTE		        As1 
	BYTE	W06
	BYTE		        Dn1   v112
	BYTE		N02     Fs1   v127
	BYTE	W12
	BYTE		N02   
	BYTE	W06
	BYTE		        Dn1   v112
	BYTE		N02     As1   v127
	BYTE	W06
	BYTE		        Bn0   v112
	BYTE		N02     Fs1   v127
	BYTE	W06
	BYTE		N02   
	BYTE	W06
	BYTE		        Bn0   v112
	BYTE		N02     As1   v127
	BYTE	W06
	BYTE		        Gs1 
	BYTE	W06
	BYTE		        Dn1   v112
	BYTE		N02     Fs1   v127
	BYTE	W06
	BYTE		N02   
	BYTE	W06
	BYTE		        Gs1 
	BYTE	W06
	BYTE		        As1 
	BYTE	W06
	BYTE	PEND
// 012   ----------------------------------------
untilwemeetagain8850_8_012:
	BYTE		N02     Bn0   v112
	BYTE		N02     Fs1   v127
	BYTE	W12
	BYTE		N02   
	BYTE	W06
	BYTE		        As1 
	BYTE	W06
	BYTE		        Dn1   v112
	BYTE		N02     Fs1   v127
	BYTE	W12
	BYTE		N02   
	BYTE	W06
	BYTE		        As1 
	BYTE	W06
	BYTE		        Bn0   v112
	BYTE		N02     Fs1   v127
	BYTE	W12
	BYTE		        Bn0   v112
	BYTE		N02     Fs1   v127
	BYTE	W06
	BYTE		        As1 
	BYTE	W06
	BYTE		        Dn1   v112
	BYTE		N02     Fs1   v127
	BYTE	W12
	BYTE		N02   
	BYTE	W06
	BYTE		        As1 
	BYTE	W06
	BYTE	PEND
// 013   ----------------------------------------
untilwemeetagain8850_8_013:
	BYTE		N02     Bn0   v112
	BYTE		N02     Fs1   v127
	BYTE	W12
	BYTE		N02   
	BYTE	W06
	BYTE		        As1 
	BYTE	W06
	BYTE		        Dn1   v112
	BYTE		N02     Fs1   v127
	BYTE	W12
	BYTE		N02   
	BYTE	W06
	BYTE		        As1 
	BYTE	W06
	BYTE		        Bn0   v112
	BYTE		N02     Fs1   v127
	BYTE	W06
	BYTE		N02   
	BYTE	W06
	BYTE		        Bn0   v112
	BYTE		N02     As1   v127
	BYTE	W06
	BYTE		        Gs1 
	BYTE	W06
	BYTE		        Dn1   v112
	BYTE		N02     Fs1   v127
	BYTE	W06
	BYTE		N02   
	BYTE	W06
	BYTE		        Bn0   v112
	BYTE		N02     Gs1   v127
	BYTE	W06
	BYTE		        Dn1   v112
	BYTE		N02     As1   v127
	BYTE	W06
	BYTE	PEND
// 014   ----------------------------------------
	BYTE	PATT
	 POIN2	untilwemeetagain8850_8_012
// 015   ----------------------------------------
untilwemeetagain8850_8_015:
	BYTE		N02     Bn0   v112
	BYTE		N02     Fs1   v127
	BYTE	W12
	BYTE		N02   
	BYTE	W06
	BYTE		        As1 
	BYTE	W06
	BYTE		        Dn1   v112
	BYTE		N02     Fs1   v127
	BYTE	W12
	BYTE		N02   
	BYTE	W06
	BYTE		        As1 
	BYTE	W06
	BYTE		        Bn0   v112
	BYTE		N02     Fs1   v127
	BYTE	W06
	BYTE		N02   
	BYTE	W06
	BYTE		        Bn0   v112
	BYTE		N02     As1   v127
	BYTE	W06
	BYTE		        Gs1 
	BYTE	W06
	BYTE		        Dn1   v112
	BYTE		N02     Fs1   v127
	BYTE	W06
	BYTE		N02   
	BYTE	W06
	BYTE		        Gs1 
	BYTE	W06
	BYTE		        Dn1   v112
	BYTE		N02     As1   v127
	BYTE	W06
	BYTE	PEND
// 016   ----------------------------------------
	BYTE	PATT
	 POIN2	untilwemeetagain8850_8_012
// 017   ----------------------------------------
untilwemeetagain8850_8_017:
	BYTE		N02     Bn0   v112
	BYTE		N02     Fs1   v127
	BYTE	W12
	BYTE		N02   
	BYTE	W06
	BYTE		        As1 
	BYTE	W06
	BYTE		        Dn1   v112
	BYTE		N02     Fs1   v127
	BYTE	W06
	BYTE		N02   
	BYTE	W06
	BYTE		        As1 
	BYTE	W06
	BYTE		        Dn1   v112
	BYTE		N02     Gs1   v127
	BYTE	W06
	BYTE		        Bn0   v112
	BYTE		N02     Dn2 
	BYTE		N02     Gn2   v127
	BYTE	W06
	BYTE		        Dn1   v112
	BYTE	W06
	BYTE		        Bn0 
	BYTE		N02     Cn2 
	BYTE	W06
	BYTE		        Dn1 
	BYTE	W06
	BYTE		        Bn0 
	BYTE		N02     An1 
	BYTE	W06
	BYTE		        Dn1 
	BYTE	W06
	BYTE		        Bn0 
	BYTE		N02     Dn2 
	BYTE	W06
	BYTE		        Dn1 
	BYTE	W06
	BYTE	PEND
// 018   ----------------------------------------
untilwemeetagain8850_8_018:
	BYTE		N02     Bn0   v112
	BYTE		N02     Fs1   v127
	BYTE		N02     Gn2 
	BYTE	W12
	BYTE		        Fs1 
	BYTE	W06
	BYTE		        As1 
	BYTE	W06
	BYTE		        Dn1   v112
	BYTE		N02     Fs1   v127
	BYTE	W12
	BYTE		N02   
	BYTE	W06
	BYTE		        As1 
	BYTE	W06
	BYTE		        Bn0   v112
	BYTE		N02     Fs1   v127
	BYTE	W12
	BYTE		        Bn0   v112
	BYTE		N02     Fs1   v127
	BYTE	W06
	BYTE		        As1 
	BYTE	W06
	BYTE		        Dn1   v112
	BYTE		N02     Fs1   v127
	BYTE	W12
	BYTE		N02   
	BYTE	W06
	BYTE		        As1 
	BYTE	W06
	BYTE	PEND
// 019   ----------------------------------------
	BYTE	PATT
	 POIN2	untilwemeetagain8850_8_011
// 020   ----------------------------------------
	BYTE	PATT
	 POIN2	untilwemeetagain8850_8_012
// 021   ----------------------------------------
	BYTE	PATT
	 POIN2	untilwemeetagain8850_8_013
// 022   ----------------------------------------
	BYTE	PATT
	 POIN2	untilwemeetagain8850_8_012
// 023   ----------------------------------------
	BYTE	PATT
	 POIN2	untilwemeetagain8850_8_015
// 024   ----------------------------------------
	BYTE	PATT
	 POIN2	untilwemeetagain8850_8_012
// 025   ----------------------------------------
untilwemeetagain8850_8_025:
	BYTE		N02     Bn0   v112
	BYTE		N02     Fs1   v127
	BYTE	W12
	BYTE		N02   
	BYTE	W06
	BYTE		        As1 
	BYTE	W06
	BYTE		        Dn1   v112
	BYTE		N02     Fs1   v127
	BYTE	W06
	BYTE		N02   
	BYTE	W06
	BYTE		        As1 
	BYTE	W06
	BYTE		        Dn1   v112
	BYTE		N02     Gs1   v127
	BYTE	W06
	BYTE		        Bn0   v112
	BYTE		N02     Dn2 
	BYTE		N02     Gn2   v127
	BYTE	W06
	BYTE		        Dn1   v112
	BYTE	W06
	BYTE		        Bn0 
	BYTE		N02     Cn2 
	BYTE	W06
	BYTE		        Dn1 
	BYTE	W06
	BYTE		        Bn0 
	BYTE		N02     An1 
	BYTE	W06
	BYTE		        Dn1 
	BYTE	W06
	BYTE		        Bn0 
	BYTE		N02     Dn1 
	BYTE	W06
	BYTE		N02   
	BYTE	W06
	BYTE	PEND
// 026   ----------------------------------------
untilwemeetagain8850_8_026:
	BYTE		N02     Bn0   v112
	BYTE		N02     Fs1   v127
	BYTE		N02     Cs2 
	BYTE	W06
	BYTE		        Fs1 
	BYTE	W06
	BYTE		        As1 
	BYTE	W12
	BYTE		        Dn1   v112
	BYTE		N02     Fs1   v127
	BYTE	W06
	BYTE		N02   
	BYTE	W06
	BYTE		        As1 
	BYTE	W12
	BYTE		        Bn0   v112
	BYTE		N02     Fs1   v127
	BYTE	W06
	BYTE		N02   
	BYTE	W06
	BYTE		        Bn0   v112
	BYTE		N02     As1   v127
	BYTE	W12
	BYTE		        Dn1   v112
	BYTE		N02     Fs1   v127
	BYTE	W06
	BYTE		N02   
	BYTE	W06
	BYTE		        As1 
	BYTE	W06
	BYTE		        Gs1 
	BYTE	W06
	BYTE	PEND
// 027   ----------------------------------------
untilwemeetagain8850_8_027:
	BYTE		N02     Bn0   v112
	BYTE		N02     Fs1   v127
	BYTE	W06
	BYTE		N02   
	BYTE	W06
	BYTE		        As1 
	BYTE	W12
	BYTE		        Dn1   v112
	BYTE		N02     Fs1   v127
	BYTE	W06
	BYTE		N02   
	BYTE	W06
	BYTE		        As1 
	BYTE	W06
	BYTE		        Dn1   v112
	BYTE	W06
	BYTE		        Bn0 
	BYTE		N02     Fs1   v127
	BYTE	W06
	BYTE		        Gs1 
	BYTE	W06
	BYTE		        Bn0   v112
	BYTE		N02     As1   v127
	BYTE	W06
	BYTE		        Gs1 
	BYTE	W06
	BYTE		        Dn1   v112
	BYTE		N02     Fs1   v127
	BYTE	W06
	BYTE		N02   
	BYTE	W06
	BYTE		        Gs1 
	BYTE	W06
	BYTE		        As1 
	BYTE	W06
	BYTE	PEND
// 028   ----------------------------------------
untilwemeetagain8850_8_028:
	BYTE		N02     Bn0   v112
	BYTE		N02     Fs1   v127
	BYTE	W06
	BYTE		N02   
	BYTE	W06
	BYTE		        As1 
	BYTE	W12
	BYTE		        Dn1   v112
	BYTE		N02     Fs1   v127
	BYTE	W06
	BYTE		N02   
	BYTE	W06
	BYTE		        As1 
	BYTE	W12
	BYTE		        Bn0   v112
	BYTE		N02     Fs1   v127
	BYTE	W06
	BYTE		N02   
	BYTE	W06
	BYTE		        Bn0   v112
	BYTE		N02     As1   v127
	BYTE	W12
	BYTE		        Dn1   v112
	BYTE		N02     Fs1   v127
	BYTE	W06
	BYTE		N02   
	BYTE	W06
	BYTE		        As1 
	BYTE	W06
	BYTE		        Gs1 
	BYTE	W06
	BYTE	PEND
// 029   ----------------------------------------
untilwemeetagain8850_8_029:
	BYTE		N02     Bn0   v112
	BYTE		N02     Fs1   v127
	BYTE	W06
	BYTE		N02   
	BYTE	W06
	BYTE		        As1 
	BYTE	W12
	BYTE		        Dn1   v112
	BYTE		N02     Fs1   v127
	BYTE	W06
	BYTE		N02   
	BYTE	W06
	BYTE		        As1 
	BYTE	W06
	BYTE		        Dn1   v112
	BYTE	W06
	BYTE		        Bn0 
	BYTE		N02     Fs1   v127
	BYTE	W06
	BYTE		        Gs1 
	BYTE	W06
	BYTE		        Bn0   v112
	BYTE		N02     As1   v127
	BYTE	W06
	BYTE		        Gs1 
	BYTE	W06
	BYTE		        Dn1   v112
	BYTE		N02     Fs1   v127
	BYTE	W06
	BYTE		N02   
	BYTE	W06
	BYTE		        Bn0   v112
	BYTE		N02     Fn1 
	BYTE		N02     Gs1   v127
	BYTE	W06
	BYTE		        As1 
	BYTE	W06
	BYTE	PEND
// 030   ----------------------------------------
	BYTE	PATT
	 POIN2	untilwemeetagain8850_8_028
// 031   ----------------------------------------
	BYTE	PATT
	 POIN2	untilwemeetagain8850_8_027
// 032   ----------------------------------------
	BYTE	PATT
	 POIN2	untilwemeetagain8850_8_028
// 033   ----------------------------------------
untilwemeetagain8850_8_033:
	BYTE		N02     Bn0   v112
	BYTE		N02     Fs1   v127
	BYTE	W06
	BYTE		        As1 
	BYTE	W06
	BYTE		        Fn2 
	BYTE	W12
	BYTE		        Dn1   v112
	BYTE		N02     Fs1   v127
	BYTE	W06
	BYTE		        As1 
	BYTE	W06
	BYTE		        Bn0   v112
	BYTE		N02     Fn2   v127
	BYTE	W06
	BYTE		        Dn1   v112
	BYTE	W06
	BYTE		        Bn0 
	BYTE		N02     Dn1 
	BYTE	W06
	BYTE		        Dn2 
	BYTE	W06
	BYTE		        Bn0 
	BYTE		N02     An1 
	BYTE	W06
	BYTE		        Dn1 
	BYTE	W06
	BYTE		        Bn0 
	BYTE		N02     Dn1 
	BYTE		N02     Cn2 
	BYTE	W06
	BYTE		        Gn1 
	BYTE	W06
	BYTE		        Bn0 
	BYTE		N02     Dn1 
	BYTE	W06
	BYTE		N02   
	BYTE	W06
	BYTE	PEND
// 034   ----------------------------------------
	BYTE	PATT
	 POIN2	untilwemeetagain8850_8_026
// 035   ----------------------------------------
	BYTE	PATT
	 POIN2	untilwemeetagain8850_8_027
// 036   ----------------------------------------
	BYTE	PATT
	 POIN2	untilwemeetagain8850_8_028
// 037   ----------------------------------------
untilwemeetagain8850_8_037:
	BYTE		N02     Bn0   v112
	BYTE		N02     Fs1   v127
	BYTE	W06
	BYTE		N02   
	BYTE	W06
	BYTE		        As1 
	BYTE	W12
	BYTE		        Dn1   v112
	BYTE		N02     Fs1   v127
	BYTE	W06
	BYTE		N02   
	BYTE	W06
	BYTE		        As1 
	BYTE	W06
	BYTE		        Dn1   v112
	BYTE	W06
	BYTE		        Bn0 
	BYTE		N02     Fs1   v127
	BYTE	W06
	BYTE		        Gs1 
	BYTE	W06
	BYTE		        Bn0   v112
	BYTE		N02     As1   v127
	BYTE	W06
	BYTE		        Gs1 
	BYTE	W06
	BYTE		        Dn1   v112
	BYTE		N02     Fs1   v127
	BYTE	W06
	BYTE		N02   
	BYTE	W06
	BYTE		        Bn0   v112
	BYTE		N02     Gs1   v127
	BYTE		N02     Bn1   v112
	BYTE	W06
	BYTE		        As1   v127
	BYTE	W06
	BYTE	PEND
// 038   ----------------------------------------
untilwemeetagain8850_8_038:
	BYTE		N02     Bn0   v112
	BYTE		N02     Fs1   v127
	BYTE		N02     An2 
	BYTE	W06
	BYTE		        Fs1 
	BYTE	W06
	BYTE		        As1 
	BYTE	W12
	BYTE		        Dn1   v112
	BYTE		N02     Fs1   v127
	BYTE	W06
	BYTE		N02   
	BYTE	W06
	BYTE		        As1 
	BYTE	W12
	BYTE		        Bn0   v112
	BYTE		N02     Fs1   v127
	BYTE	W06
	BYTE		N02   
	BYTE	W06
	BYTE		        Bn0   v112
	BYTE		N02     As1   v127
	BYTE	W12
	BYTE		        Dn1   v112
	BYTE		N02     Fs1   v127
	BYTE	W06
	BYTE		N02   
	BYTE	W06
	BYTE		        As1 
	BYTE	W06
	BYTE		        Gs1 
	BYTE	W06
	BYTE	PEND
// 039   ----------------------------------------
untilwemeetagain8850_8_039:
	BYTE		N02     Bn0   v112
	BYTE		N02     Fs1   v127
	BYTE	W06
	BYTE		N02   
	BYTE	W06
	BYTE		        As1 
	BYTE	W12
	BYTE		        Dn1   v112
	BYTE		N02     Fs1   v127
	BYTE	W06
	BYTE		N02   
	BYTE	W06
	BYTE		        As1 
	BYTE	W06
	BYTE		        Dn1   v112
	BYTE	W06
	BYTE		        Bn0 
	BYTE		N02     Fs1   v127
	BYTE	W06
	BYTE		        Gs1 
	BYTE	W06
	BYTE		        Bn0   v112
	BYTE		N02     As1   v127
	BYTE	W06
	BYTE		        Gs1 
	BYTE	W06
	BYTE		        Dn1   v112
	BYTE		N02     Fs1   v127
	BYTE	W06
	BYTE		N02   
	BYTE	W06
	BYTE		        Bn0   v112
	BYTE		N02     Gs1   v127
	BYTE	W06
	BYTE		        Dn1   v112
	BYTE		N02     As1   v127
	BYTE	W06
	BYTE	PEND
// 040   ----------------------------------------
	BYTE	PATT
	 POIN2	untilwemeetagain8850_8_028
// 041   ----------------------------------------
untilwemeetagain8850_8_041:
	BYTE		N02     Bn0   v112
	BYTE		N02     Fs1   v127
	BYTE	W06
	BYTE		        As1 
	BYTE	W06
	BYTE		        Fn2 
	BYTE	W12
	BYTE		        Dn1   v112
	BYTE		N02     Fs1   v127
	BYTE	W06
	BYTE		        As1 
	BYTE	W06
	BYTE		        Fn2 
	BYTE	W06
	BYTE		        Dn1   v112
	BYTE	W06
	BYTE		        Bn0 
	BYTE		N02     Dn1 
	BYTE	W06
	BYTE		        Cn2 
	BYTE	W06
	BYTE		        Bn0 
	BYTE		N02     Gn1 
	BYTE	W06
	BYTE		        Dn1   v127
	BYTE	W06
	BYTE		        Bn0   v112
	BYTE		N02     Bn1 
	BYTE	W06
	BYTE		        Gn1 
	BYTE	W06
	BYTE		        Bn0 
	BYTE		N02     Dn1 
	BYTE	W06
	BYTE		        Fn1 
	BYTE	W06
	BYTE	PEND
// 042   ----------------------------------------
	BYTE	PATT
	 POIN2	untilwemeetagain8850_8_010
// 043   ----------------------------------------
	BYTE	PATT
	 POIN2	untilwemeetagain8850_8_011
// 044   ----------------------------------------
	BYTE	PATT
	 POIN2	untilwemeetagain8850_8_012
// 045   ----------------------------------------
	BYTE	PATT
	 POIN2	untilwemeetagain8850_8_013
// 046   ----------------------------------------
	BYTE	PATT
	 POIN2	untilwemeetagain8850_8_012
// 047   ----------------------------------------
	BYTE	PATT
	 POIN2	untilwemeetagain8850_8_015
// 048   ----------------------------------------
	BYTE	PATT
	 POIN2	untilwemeetagain8850_8_012
// 049   ----------------------------------------
	BYTE	PATT
	 POIN2	untilwemeetagain8850_8_017
// 050   ----------------------------------------
	BYTE	PATT
	 POIN2	untilwemeetagain8850_8_018
// 051   ----------------------------------------
	BYTE	PATT
	 POIN2	untilwemeetagain8850_8_011
// 052   ----------------------------------------
	BYTE	PATT
	 POIN2	untilwemeetagain8850_8_012
// 053   ----------------------------------------
	BYTE	PATT
	 POIN2	untilwemeetagain8850_8_013
// 054   ----------------------------------------
	BYTE	PATT
	 POIN2	untilwemeetagain8850_8_012
// 055   ----------------------------------------
	BYTE	PATT
	 POIN2	untilwemeetagain8850_8_015
// 056   ----------------------------------------
	BYTE	PATT
	 POIN2	untilwemeetagain8850_8_012
// 057   ----------------------------------------
	BYTE	PATT
	 POIN2	untilwemeetagain8850_8_025
// 058   ----------------------------------------
	BYTE	PATT
	 POIN2	untilwemeetagain8850_8_026
// 059   ----------------------------------------
	BYTE	PATT
	 POIN2	untilwemeetagain8850_8_027
// 060   ----------------------------------------
	BYTE	PATT
	 POIN2	untilwemeetagain8850_8_028
// 061   ----------------------------------------
	BYTE	PATT
	 POIN2	untilwemeetagain8850_8_029
// 062   ----------------------------------------
	BYTE	PATT
	 POIN2	untilwemeetagain8850_8_028
// 063   ----------------------------------------
	BYTE	PATT
	 POIN2	untilwemeetagain8850_8_027
// 064   ----------------------------------------
	BYTE	PATT
	 POIN2	untilwemeetagain8850_8_028
// 065   ----------------------------------------
	BYTE	PATT
	 POIN2	untilwemeetagain8850_8_033
// 066   ----------------------------------------
	BYTE	PATT
	 POIN2	untilwemeetagain8850_8_026
// 067   ----------------------------------------
	BYTE	PATT
	 POIN2	untilwemeetagain8850_8_027
// 068   ----------------------------------------
	BYTE	PATT
	 POIN2	untilwemeetagain8850_8_028
// 069   ----------------------------------------
	BYTE	PATT
	 POIN2	untilwemeetagain8850_8_037
// 070   ----------------------------------------
	BYTE	PATT
	 POIN2	untilwemeetagain8850_8_038
// 071   ----------------------------------------
	BYTE	PATT
	 POIN2	untilwemeetagain8850_8_039
// 072   ----------------------------------------
	BYTE	PATT
	 POIN2	untilwemeetagain8850_8_028
// 073   ----------------------------------------
	BYTE	PATT
	 POIN2	untilwemeetagain8850_8_041
// 074   ----------------------------------------
untilwemeetagain8850_8_074:
	BYTE		N02     Bn0   v112
	BYTE		N02     Fs1   v127
	BYTE		N02     Cs2 
	BYTE	W06
	BYTE		        Fs1 
	BYTE	W06
	BYTE		        As1 
	BYTE	W06
	BYTE		        Gs1 
	BYTE	W06
	BYTE		        Fs1 
	BYTE	W06
	BYTE		N02   
	BYTE	W06
	BYTE		        Bn0   v112
	BYTE		N02     As1   v127
	BYTE	W06
	BYTE		        Gs1 
	BYTE	W06
	BYTE		        Bn0   v112
	BYTE		N02     As1   v127
	BYTE	W06
	BYTE		        Gs1 
	BYTE	W06
	BYTE		        Fs1 
	BYTE	W06
	BYTE		        As1 
	BYTE	W06
	BYTE		        Dn1   v112
	BYTE		N02     Gs1   v127
	BYTE	W06
	BYTE		        Fs1 
	BYTE	W06
	BYTE		        As1 
	BYTE	W06
	BYTE		        Gs1 
	BYTE	W06
	BYTE	PEND
// 075   ----------------------------------------
	BYTE	PATT
	 POIN2	untilwemeetagain8850_8_002
// 076   ----------------------------------------
	BYTE	PATT
	 POIN2	untilwemeetagain8850_8_002
// 077   ----------------------------------------
	BYTE	PATT
	 POIN2	untilwemeetagain8850_8_005
// 078   ----------------------------------------
	BYTE	PATT
	 POIN2	untilwemeetagain8850_8_006
// 079   ----------------------------------------
	BYTE	PATT
	 POIN2	untilwemeetagain8850_8_002
// 080   ----------------------------------------
	BYTE	PATT
	 POIN2	untilwemeetagain8850_8_002
// 081   ----------------------------------------
	BYTE		N02     Bn0   v112
	BYTE		N02     Fs1   v127
	BYTE	W06
	BYTE		N02   
	BYTE	W06
	BYTE		        As1 
	BYTE	W06
	BYTE		        Gs1 
	BYTE	W06
	BYTE		        Bn0   v112
	BYTE		N02     Dn1 
	BYTE		N02     An2   v127
	BYTE	W06
	BYTE		        Fs1 
	BYTE	W06
	BYTE		        As1 
	BYTE	W06
	BYTE		        Gs1 
	BYTE	W06
	BYTE		        Bn0   v112
	BYTE		N02     Dn1 
	BYTE	W06
	BYTE		N02   
	BYTE	W06
	BYTE		        Bn1 
	BYTE	W06
	BYTE		        Bn0 
	BYTE		N02     Dn1 
	BYTE	W06
	BYTE		N02   
	BYTE	W06
	BYTE		        Gn1 
	BYTE	W06
	BYTE		        Bn0 
	BYTE		N02     Dn1 
	BYTE	W06
	BYTE		N02   
	BYTE	W06
// 082   ----------------------------------------
	BYTE	PATT
	 POIN2	untilwemeetagain8850_8_010
// 083   ----------------------------------------
	BYTE	PATT
	 POIN2	untilwemeetagain8850_8_011
// 084   ----------------------------------------
	BYTE	PATT
	 POIN2	untilwemeetagain8850_8_012
// 085   ----------------------------------------
	BYTE	PATT
	 POIN2	untilwemeetagain8850_8_013
// 086   ----------------------------------------
	BYTE	PATT
	 POIN2	untilwemeetagain8850_8_012
// 087   ----------------------------------------
	BYTE	PATT
	 POIN2	untilwemeetagain8850_8_015
// 088   ----------------------------------------
	BYTE	PATT
	 POIN2	untilwemeetagain8850_8_012
// 089   ----------------------------------------
	BYTE	PATT
	 POIN2	untilwemeetagain8850_8_017
// 090   ----------------------------------------
	BYTE	PATT
	 POIN2	untilwemeetagain8850_8_018
// 091   ----------------------------------------
	BYTE	PATT
	 POIN2	untilwemeetagain8850_8_011
// 092   ----------------------------------------
	BYTE	PATT
	 POIN2	untilwemeetagain8850_8_012
// 093   ----------------------------------------
	BYTE	PATT
	 POIN2	untilwemeetagain8850_8_013
// 094   ----------------------------------------
	BYTE	PATT
	 POIN2	untilwemeetagain8850_8_012
// 095   ----------------------------------------
	BYTE	PATT
	 POIN2	untilwemeetagain8850_8_015
// 096   ----------------------------------------
	BYTE	PATT
	 POIN2	untilwemeetagain8850_8_012
// 097   ----------------------------------------
	BYTE	PATT
	 POIN2	untilwemeetagain8850_8_025
// 098   ----------------------------------------
	BYTE	PATT
	 POIN2	untilwemeetagain8850_8_010
// 099   ----------------------------------------
	BYTE	PATT
	 POIN2	untilwemeetagain8850_8_011
// 100   ----------------------------------------
	BYTE	PATT
	 POIN2	untilwemeetagain8850_8_012
// 101   ----------------------------------------
	BYTE	PATT
	 POIN2	untilwemeetagain8850_8_013
// 102   ----------------------------------------
	BYTE	PATT
	 POIN2	untilwemeetagain8850_8_012
// 103   ----------------------------------------
	BYTE	PATT
	 POIN2	untilwemeetagain8850_8_015
// 104   ----------------------------------------
	BYTE	PATT
	 POIN2	untilwemeetagain8850_8_012
// 105   ----------------------------------------
	BYTE	PATT
	 POIN2	untilwemeetagain8850_8_017
// 106   ----------------------------------------
	BYTE	PATT
	 POIN2	untilwemeetagain8850_8_018
// 107   ----------------------------------------
	BYTE	PATT
	 POIN2	untilwemeetagain8850_8_011
// 108   ----------------------------------------
	BYTE	PATT
	 POIN2	untilwemeetagain8850_8_012
// 109   ----------------------------------------
	BYTE	PATT
	 POIN2	untilwemeetagain8850_8_013
// 110   ----------------------------------------
	BYTE	PATT
	 POIN2	untilwemeetagain8850_8_012
// 111   ----------------------------------------
	BYTE	PATT
	 POIN2	untilwemeetagain8850_8_015
// 112   ----------------------------------------
	BYTE	PATT
	 POIN2	untilwemeetagain8850_8_012
// 113   ----------------------------------------
	BYTE	PATT
	 POIN2	untilwemeetagain8850_8_025
// 114   ----------------------------------------
	BYTE	PATT
	 POIN2	untilwemeetagain8850_8_026
// 115   ----------------------------------------
	BYTE	PATT
	 POIN2	untilwemeetagain8850_8_027
// 116   ----------------------------------------
	BYTE	PATT
	 POIN2	untilwemeetagain8850_8_028
// 117   ----------------------------------------
	BYTE	PATT
	 POIN2	untilwemeetagain8850_8_029
// 118   ----------------------------------------
	BYTE	PATT
	 POIN2	untilwemeetagain8850_8_028
// 119   ----------------------------------------
	BYTE	PATT
	 POIN2	untilwemeetagain8850_8_027
// 120   ----------------------------------------
	BYTE	PATT
	 POIN2	untilwemeetagain8850_8_028
// 121   ----------------------------------------
	BYTE	PATT
	 POIN2	untilwemeetagain8850_8_033
// 122   ----------------------------------------
	BYTE	PATT
	 POIN2	untilwemeetagain8850_8_026
// 123   ----------------------------------------
	BYTE	PATT
	 POIN2	untilwemeetagain8850_8_027
// 124   ----------------------------------------
	BYTE	PATT
	 POIN2	untilwemeetagain8850_8_028
// 125   ----------------------------------------
	BYTE	PATT
	 POIN2	untilwemeetagain8850_8_037
// 126   ----------------------------------------
	BYTE	PATT
	 POIN2	untilwemeetagain8850_8_038
// 127   ----------------------------------------
	BYTE	PATT
	 POIN2	untilwemeetagain8850_8_039
// 128   ----------------------------------------
	BYTE	PATT
	 POIN2	untilwemeetagain8850_8_028
// 129   ----------------------------------------
	BYTE	PATT
	 POIN2	untilwemeetagain8850_8_041
// 130   ----------------------------------------
	BYTE	PATT
	 POIN2	untilwemeetagain8850_8_010
// 131   ----------------------------------------
	BYTE	PATT
	 POIN2	untilwemeetagain8850_8_011
// 132   ----------------------------------------
	BYTE	PATT
	 POIN2	untilwemeetagain8850_8_012
// 133   ----------------------------------------
	BYTE	PATT
	 POIN2	untilwemeetagain8850_8_013
// 134   ----------------------------------------
	BYTE	PATT
	 POIN2	untilwemeetagain8850_8_012
// 135   ----------------------------------------
	BYTE	PATT
	 POIN2	untilwemeetagain8850_8_015
// 136   ----------------------------------------
	BYTE	PATT
	 POIN2	untilwemeetagain8850_8_012
// 137   ----------------------------------------
	BYTE	PATT
	 POIN2	untilwemeetagain8850_8_017
// 138   ----------------------------------------
	BYTE	PATT
	 POIN2	untilwemeetagain8850_8_074
// 139   ----------------------------------------
	BYTE	PATT
	 POIN2	untilwemeetagain8850_8_002
// 140   ----------------------------------------
	BYTE	PATT
	 POIN2	untilwemeetagain8850_8_002
// 141   ----------------------------------------
	BYTE	PATT
	 POIN2	untilwemeetagain8850_8_005
// 142   ----------------------------------------
	BYTE	PATT
	 POIN2	untilwemeetagain8850_8_006
// 143   ----------------------------------------
	BYTE	PATT
	 POIN2	untilwemeetagain8850_8_002
// 144   ----------------------------------------
	BYTE	PATT
	 POIN2	untilwemeetagain8850_8_002
// 145   ----------------------------------------
	BYTE		N02     Bn0   v112
	BYTE		N02     Fs1   v127
	BYTE	W06
	BYTE		N02   
	BYTE	W06
	BYTE		        As1 
	BYTE	W06
	BYTE		        Gs1 
	BYTE	W06
	BYTE		        Bn0   v112
	BYTE		N02     Dn1 
	BYTE		N02     An2   v127
	BYTE	W06
	BYTE		        Fs1 
	BYTE	W06
	BYTE		        Bn0   v112
	BYTE		N02     Dn1 
	BYTE		N02     As1   v127
	BYTE	W06
	BYTE		        Dn1   v112
	BYTE		N02     Gs1   v127
	BYTE	W06
	BYTE		        Bn0   v112
	BYTE		N02     Cn2 
	BYTE		N02     Fn2   v127
	BYTE	W12
	BYTE		        As1 
	BYTE	W06
	BYTE		        Bn0   v112
	BYTE		N02     An1 
	BYTE		N02     En2   v127
	BYTE	W12
	BYTE		        As1 
	BYTE	W06
	BYTE		        Bn0   v112
	BYTE		N02     Fn1 
	BYTE		N02     Gn2   v127
	BYTE	W06
	BYTE		        Fs1 
	BYTE	W06
// 146   ----------------------------------------
	BYTE		        Bn0   v112
	BYTE		N02     Cs2   v127
	BYTE		TIE     An2 
	BYTE	W96
// 147   ----------------------------------------
	BYTE	W96
// 148   ----------------------------------------
	BYTE	W96
// 149   ----------------------------------------
	BYTE	W96
// 150   ----------------------------------------
	BYTE	W96
// 151   ----------------------------------------
	BYTE	W96
// 152   ----------------------------------------
	BYTE	W96
// 153   ----------------------------------------
	BYTE	W96
// 154   ----------------------------------------
	BYTE	W96
// 155   ----------------------------------------
	BYTE	W96
// 156   ----------------------------------------
	BYTE	W96
// 157   ----------------------------------------
	BYTE	W96
// 158   ----------------------------------------
	BYTE	W96
	BYTE		EOT   
// 159   ----------------------------------------
	BYTE	W06
	BYTE	FINE

//******************************************************//
	ALIGN 4

untilwemeetagain8850:
	BYTE	8	// NumTrks
	BYTE	0	// NumBlks
	BYTE	untilwemeetagain8850_pri	// Priority
	BYTE	untilwemeetagain8850_rev	// Reverb.

	POIN2	untilwemeetagain8850_grp

	POIN2	untilwemeetagain8850_1
	POIN2	untilwemeetagain8850_2
	POIN2	untilwemeetagain8850_3
	POIN2	untilwemeetagain8850_4
	POIN2	untilwemeetagain8850_5
	POIN2	untilwemeetagain8850_6
	POIN2	untilwemeetagain8850_7
	POIN2	untilwemeetagain8850_8

	
