	.include "MPlayDef.s"

	.equ	vastsever8850_grp, voicegroup000
	.equ	vastsever8850_pri, 0
	.equ	vastsever8850_rev, 0
	.equ	vastsever8850_mvl, 127
	.equ	vastsever8850_key, 0
	.equ	vastsever8850_tbs, 1
	.equ	vastsever8850_exg, 0
	.equ	vastsever8850_cmp, 1

	.section .rodata
	.global	vastsever8850
	.align	2

@**************** Track 1 (Midi-Chn.1) ****************@

vastsever8850_1:
	.byte	KEYSH , vastsever8850_key+0
@ 000   ----------------------------------------
	.byte	TEMPO , 142*vastsever8850_tbs/2
	.byte	W96
@ 001   ----------------------------------------
	.byte		VOICE , 50
	.byte		VOL   , 115*vastsever8850_mvl/mxv
	.byte		PAN   , c_v+0
	.byte	W24
	.byte	TEMPO , 140*vastsever8850_tbs/2
	.byte	W24
	.byte		MOD   , 0
	.byte		BEND  , c_v+0
	.byte	W24
	.byte	W06
	.byte	W06
	.byte	W06
	.byte	W06
@ 002   ----------------------------------------
	.byte	W96
@ 003   ----------------------------------------
	.byte	W96
@ 004   ----------------------------------------
	.byte	W96
@ 005   ----------------------------------------
	.byte	W96
@ 006   ----------------------------------------
	.byte	W96
@ 007   ----------------------------------------
	.byte	W96
@ 008   ----------------------------------------
	.byte	W96
@ 009   ----------------------------------------
	.byte	W96
@ 010   ----------------------------------------
	.byte	W96
@ 011   ----------------------------------------
	.byte	W96
@ 012   ----------------------------------------
	.byte	W96
@ 013   ----------------------------------------
	.byte	W96
@ 014   ----------------------------------------
	.byte	W96
@ 015   ----------------------------------------
	.byte	W96
@ 016   ----------------------------------------
	.byte	W96
@ 017   ----------------------------------------
	.byte	W96
@ 018   ----------------------------------------
vastsever8850_1_018:
	.byte		N22   , En4 , v112
	.byte	W24
	.byte		N10   , Fn4 
	.byte	W12
	.byte		N32   , Cn4 
	.byte	W36
	.byte		N22   , An3 
	.byte	W24
	.byte	PEND
@ 019   ----------------------------------------
	.byte		        Bn3 
	.byte	W24
	.byte	TEMPO , 140*vastsever8850_tbs/2
	.byte		N10   , Gn3 
	.byte	W12
	.byte		N22   , An3 
	.byte	W24
	.byte		N10   , Gn3 
	.byte	W12
	.byte		        Fn3 
	.byte	W12
	.byte		N80   , En3 
	.byte	W12
@ 020   ----------------------------------------
vastsever8850_1_020:
	.byte		MOD   , 0
	.byte	W72
	.byte		N10   , Cn3 , v112
	.byte	W12
	.byte		N80   , Gn3 
	.byte	W12
	.byte	PEND
@ 021   ----------------------------------------
vastsever8850_1_021:
	.byte	W72
	.byte		N10   , Fn3 , v112
	.byte	W12
	.byte		N32   , En3 
	.byte	W12
	.byte	PEND
@ 022   ----------------------------------------
vastsever8850_1_022:
	.byte	W24
	.byte		N10   , Dn3 , v112
	.byte	W12
	.byte		N32   , Gn3 
	.byte	W36
	.byte		N22   , Cn4 
	.byte	W24
	.byte	PEND
@ 023   ----------------------------------------
vastsever8850_1_023:
	.byte		N40   , En4 , v112
	.byte	W48
	.byte		N16   
	.byte	W18
	.byte		        Fn4 
	.byte	W18
	.byte		N10   , Gn4 
	.byte	W12
	.byte	PEND
@ 024   ----------------------------------------
	.byte		N92   , En4 
	.byte	W96
@ 025   ----------------------------------------
vastsever8850_1_025:
	.byte		N52   , Cn4 , v112
	.byte	W60
	.byte		N10   
	.byte	W12
	.byte		        Dn4 
	.byte	W12
	.byte		        En4 
	.byte	W12
	.byte	PEND
@ 026   ----------------------------------------
vastsever8850_1_026:
	.byte		N22   , Fn4 , v112
	.byte	W24
	.byte		N10   , En4 
	.byte	W12
	.byte		N22   , Cn4 
	.byte	W24
	.byte		        Gn3 
	.byte	W24
	.byte		N56   , An3 
	.byte	W12
	.byte	PEND
@ 027   ----------------------------------------
vastsever8850_1_027:
	.byte	W48
	.byte		N10   , Dn4 , v112
	.byte	W12
	.byte		        En4 
	.byte	W12
	.byte		        Fn4 
	.byte	W12
	.byte		        Gn4 
	.byte	W12
	.byte	PEND
@ 028   ----------------------------------------
	.byte		N92   , En4 
	.byte	W96
@ 029   ----------------------------------------
vastsever8850_1_029:
	.byte		N10   , Gn4 , v112
	.byte	W12
	.byte		N22   , Fn4 
	.byte	W24
	.byte		        En4 
	.byte	W24
	.byte		        Dn4 
	.byte	W24
	.byte		N10   , Gn4 
	.byte	W12
	.byte	PEND
@ 030   ----------------------------------------
vastsever8850_1_030:
	.byte		N56   , Fn4 , v112
	.byte	W60
	.byte		N10   , Dn4 
	.byte	W12
	.byte		        En4 
	.byte	W12
	.byte		        Fn4 
	.byte	W12
	.byte	PEND
@ 031   ----------------------------------------
vastsever8850_1_031:
	.byte		N44   , Gn4 , v112
	.byte	W48
	.byte		        Fn4 
	.byte	W48
	.byte	PEND
@ 032   ----------------------------------------
vastsever8850_1_032:
	.byte		N68   , En4 , v112
	.byte	W72
	.byte		N10   , Dn4 
	.byte	W12
	.byte		N64   , En4 
	.byte	W12
	.byte	PEND
@ 033   ----------------------------------------
	.byte	W96
@ 034   ----------------------------------------
	.byte	W96
@ 035   ----------------------------------------
	.byte	W96
@ 036   ----------------------------------------
	.byte	W96
@ 037   ----------------------------------------
	.byte	W96
@ 038   ----------------------------------------
	.byte	W96
@ 039   ----------------------------------------
	.byte	W96
@ 040   ----------------------------------------
	.byte	W96
@ 041   ----------------------------------------
	.byte	W96
@ 042   ----------------------------------------
	.byte	W96
@ 043   ----------------------------------------
	.byte	W96
@ 044   ----------------------------------------
	.byte	W96
@ 045   ----------------------------------------
	.byte	W96
@ 046   ----------------------------------------
	.byte	W96
@ 047   ----------------------------------------
	.byte	W96
@ 048   ----------------------------------------
	.byte	W96
@ 049   ----------------------------------------
	.byte	W96
@ 050   ----------------------------------------
	.byte	W96
@ 051   ----------------------------------------
	.byte	W96
@ 052   ----------------------------------------
	.byte	W96
@ 053   ----------------------------------------
	.byte	W96
@ 054   ----------------------------------------
	.byte	W96
@ 055   ----------------------------------------
	.byte	W96
@ 056   ----------------------------------------
	.byte	W96
@ 057   ----------------------------------------
	.byte	W96
@ 058   ----------------------------------------
	.byte	W96
@ 059   ----------------------------------------
	.byte	W96
@ 060   ----------------------------------------
	.byte	W96
@ 061   ----------------------------------------
	.byte	W96
@ 062   ----------------------------------------
	.byte	W96
@ 063   ----------------------------------------
	.byte	W96
@ 064   ----------------------------------------
	.byte	W96
@ 065   ----------------------------------------
	.byte	W96
@ 066   ----------------------------------------
	.byte	W96
@ 067   ----------------------------------------
	.byte	W96
@ 068   ----------------------------------------
	.byte	W96
@ 069   ----------------------------------------
	.byte	W96
@ 070   ----------------------------------------
	.byte	W96
@ 071   ----------------------------------------
	.byte	W96
@ 072   ----------------------------------------
	.byte	W96
@ 073   ----------------------------------------
	.byte	W96
@ 074   ----------------------------------------
	.byte	W96
@ 075   ----------------------------------------
	.byte	W96
@ 076   ----------------------------------------
	.byte	W96
@ 077   ----------------------------------------
	.byte	W96
@ 078   ----------------------------------------
	.byte	PATT
	 .word	vastsever8850_1_018
@ 079   ----------------------------------------
vastsever8850_1_079:
	.byte		N22   , Bn3 , v112
	.byte	W24
	.byte		N10   , Gn3 
	.byte	W12
	.byte		N22   , An3 
	.byte	W24
	.byte		N10   , Gn3 
	.byte	W12
	.byte		        Fn3 
	.byte	W12
	.byte		N80   , En3 
	.byte	W12
	.byte	PEND
@ 080   ----------------------------------------
	.byte	PATT
	 .word	vastsever8850_1_020
@ 081   ----------------------------------------
	.byte	PATT
	 .word	vastsever8850_1_021
@ 082   ----------------------------------------
	.byte	PATT
	 .word	vastsever8850_1_022
@ 083   ----------------------------------------
	.byte	PATT
	 .word	vastsever8850_1_023
@ 084   ----------------------------------------
	.byte		N92   , En4 , v112
	.byte	W96
@ 085   ----------------------------------------
	.byte	PATT
	 .word	vastsever8850_1_025
@ 086   ----------------------------------------
	.byte	PATT
	 .word	vastsever8850_1_026
@ 087   ----------------------------------------
	.byte	PATT
	 .word	vastsever8850_1_027
@ 088   ----------------------------------------
	.byte		N92   , En4 , v112
	.byte	W96
@ 089   ----------------------------------------
	.byte	PATT
	 .word	vastsever8850_1_029
@ 090   ----------------------------------------
	.byte	PATT
	 .word	vastsever8850_1_030
@ 091   ----------------------------------------
	.byte	PATT
	 .word	vastsever8850_1_031
@ 092   ----------------------------------------
	.byte	PATT
	 .word	vastsever8850_1_032
@ 093   ----------------------------------------
	.byte	W96
@ 094   ----------------------------------------
	.byte	W96
@ 095   ----------------------------------------
	.byte	W96
@ 096   ----------------------------------------
	.byte	W96
@ 097   ----------------------------------------
	.byte	W96
@ 098   ----------------------------------------
	.byte	W96
@ 099   ----------------------------------------
	.byte	W96
@ 100   ----------------------------------------
	.byte	W96
@ 101   ----------------------------------------
	.byte	W96
@ 102   ----------------------------------------
	.byte	W96
@ 103   ----------------------------------------
	.byte	W96
@ 104   ----------------------------------------
	.byte	W96
@ 105   ----------------------------------------
	.byte	W96
@ 106   ----------------------------------------
	.byte	W96
@ 107   ----------------------------------------
	.byte	W96
@ 108   ----------------------------------------
	.byte	W96
@ 109   ----------------------------------------
	.byte	W96
@ 110   ----------------------------------------
	.byte	W96
@ 111   ----------------------------------------
	.byte	W96
@ 112   ----------------------------------------
	.byte	W96
@ 113   ----------------------------------------
	.byte	W96
@ 114   ----------------------------------------
	.byte	W96
@ 115   ----------------------------------------
	.byte	W96
@ 116   ----------------------------------------
	.byte	W96
@ 117   ----------------------------------------
	.byte	W96
@ 118   ----------------------------------------
	.byte	W96
@ 119   ----------------------------------------
	.byte	W96
@ 120   ----------------------------------------
	.byte	W96
@ 121   ----------------------------------------
	.byte	W96
@ 122   ----------------------------------------
	.byte	W96
@ 123   ----------------------------------------
	.byte	W96
@ 124   ----------------------------------------
	.byte	W96
@ 125   ----------------------------------------
	.byte	W96
@ 126   ----------------------------------------
	.byte	W96
@ 127   ----------------------------------------
	.byte	W96
@ 128   ----------------------------------------
	.byte	W96
@ 129   ----------------------------------------
	.byte	W96
@ 130   ----------------------------------------
	.byte	W96
@ 131   ----------------------------------------
	.byte	W96
@ 132   ----------------------------------------
	.byte	W96
@ 133   ----------------------------------------
	.byte	W96
@ 134   ----------------------------------------
	.byte	W96
@ 135   ----------------------------------------
	.byte	W96
@ 136   ----------------------------------------
	.byte	W96
@ 137   ----------------------------------------
	.byte	W96
@ 138   ----------------------------------------
	.byte	PATT
	 .word	vastsever8850_1_018
@ 139   ----------------------------------------
	.byte	PATT
	 .word	vastsever8850_1_079
@ 140   ----------------------------------------
	.byte	PATT
	 .word	vastsever8850_1_020
@ 141   ----------------------------------------
	.byte	PATT
	 .word	vastsever8850_1_021
@ 142   ----------------------------------------
	.byte	PATT
	 .word	vastsever8850_1_022
@ 143   ----------------------------------------
	.byte	PATT
	 .word	vastsever8850_1_023
@ 144   ----------------------------------------
	.byte		N92   , En4 , v112
	.byte	W96
@ 145   ----------------------------------------
	.byte	PATT
	 .word	vastsever8850_1_025
@ 146   ----------------------------------------
	.byte	PATT
	 .word	vastsever8850_1_026
@ 147   ----------------------------------------
	.byte	PATT
	 .word	vastsever8850_1_027
@ 148   ----------------------------------------
	.byte		N92   , En4 , v112
	.byte	W96
@ 149   ----------------------------------------
	.byte	PATT
	 .word	vastsever8850_1_029
@ 150   ----------------------------------------
	.byte	PATT
	 .word	vastsever8850_1_030
@ 151   ----------------------------------------
	.byte	PATT
	 .word	vastsever8850_1_031
@ 152   ----------------------------------------
	.byte	PATT
	 .word	vastsever8850_1_032
@ 153   ----------------------------------------
	.byte	W96
@ 154   ----------------------------------------
	.byte	W96
@ 155   ----------------------------------------
	.byte	W96
@ 156   ----------------------------------------
	.byte	W96
@ 157   ----------------------------------------
	.byte	W96
@ 158   ----------------------------------------
	.byte	W96
@ 159   ----------------------------------------
	.byte	W96
@ 160   ----------------------------------------
	.byte	W96
@ 161   ----------------------------------------
	.byte	W96
@ 162   ----------------------------------------
	.byte	W96
@ 163   ----------------------------------------
	.byte	FINE

@**************** Track 2 (Midi-Chn.2) ****************@

vastsever8850_2:
	.byte	KEYSH , vastsever8850_key+0
@ 000   ----------------------------------------
	.byte	W96
@ 001   ----------------------------------------
	.byte		VOICE , 34
	.byte		VOL   , 100*vastsever8850_mvl/mxv
	.byte		PAN   , c_v+0
	.byte	W48
	.byte		MOD   , 0
	.byte		BEND  , c_v+0
	.byte	W24
	.byte	W06
	.byte	W06
	.byte	W06
	.byte	W06
@ 002   ----------------------------------------
	.byte	W96
@ 003   ----------------------------------------
	.byte	W96
@ 004   ----------------------------------------
	.byte	W96
@ 005   ----------------------------------------
	.byte	W96
@ 006   ----------------------------------------
	.byte	W96
@ 007   ----------------------------------------
	.byte	W96
@ 008   ----------------------------------------
	.byte	W96
@ 009   ----------------------------------------
	.byte	W96
@ 010   ----------------------------------------
	.byte		N92   , Dn0 , v100
	.byte	W96
@ 011   ----------------------------------------
	.byte		        En0 
	.byte	W96
@ 012   ----------------------------------------
	.byte		        Fn0 
	.byte	W96
@ 013   ----------------------------------------
	.byte		        Gn0 
	.byte	W96
@ 014   ----------------------------------------
	.byte		        Dn1 
	.byte	W96
@ 015   ----------------------------------------
	.byte		        Cn1 
	.byte	W96
@ 016   ----------------------------------------
	.byte		        As0 
	.byte	W96
@ 017   ----------------------------------------
vastsever8850_2_017:
	.byte		N10   , An0 , v100
	.byte	W72
	.byte		N22   
	.byte	W24
	.byte	PEND
@ 018   ----------------------------------------
vastsever8850_2_018:
	.byte		N10   , Dn1 , v100
	.byte	W12
	.byte		N10   
	.byte	W12
	.byte		N10   
	.byte	W12
	.byte		N10   
	.byte	W12
	.byte		N10   
	.byte	W12
	.byte		N10   
	.byte	W12
	.byte		N10   
	.byte	W12
	.byte		N10   
	.byte	W12
	.byte	PEND
@ 019   ----------------------------------------
vastsever8850_2_019:
	.byte		N10   , Dn1 , v100
	.byte	W12
	.byte		N10   
	.byte	W12
	.byte		N10   
	.byte	W12
	.byte		N10   
	.byte	W12
	.byte		N10   
	.byte	W12
	.byte		        En1 
	.byte	W12
	.byte		        Fn1 
	.byte	W12
	.byte		        Dn1 
	.byte	W12
	.byte	PEND
@ 020   ----------------------------------------
vastsever8850_2_020:
	.byte		N10   , Cn1 , v100
	.byte	W12
	.byte		N10   
	.byte	W12
	.byte		N10   
	.byte	W12
	.byte		N10   
	.byte	W12
	.byte		N10   
	.byte	W12
	.byte		N10   
	.byte	W12
	.byte		N10   
	.byte	W12
	.byte		N10   
	.byte	W12
	.byte	PEND
@ 021   ----------------------------------------
vastsever8850_2_021:
	.byte		N10   , Cn1 , v100
	.byte	W12
	.byte		N10   
	.byte	W12
	.byte		N10   
	.byte	W12
	.byte		N10   
	.byte	W12
	.byte		N10   
	.byte	W12
	.byte		        Dn1 
	.byte	W12
	.byte		        En1 
	.byte	W12
	.byte		        Cn1 
	.byte	W12
	.byte	PEND
@ 022   ----------------------------------------
vastsever8850_2_022:
	.byte		N10   , As0 , v100
	.byte	W12
	.byte		N10   
	.byte	W12
	.byte		N10   
	.byte	W12
	.byte		N10   
	.byte	W12
	.byte		N10   
	.byte	W12
	.byte		N10   
	.byte	W12
	.byte		N10   
	.byte	W12
	.byte		N10   
	.byte	W12
	.byte	PEND
@ 023   ----------------------------------------
vastsever8850_2_023:
	.byte		N10   , As0 , v100
	.byte	W12
	.byte		N10   
	.byte	W12
	.byte		N10   
	.byte	W12
	.byte		N10   
	.byte	W12
	.byte		N10   
	.byte	W12
	.byte		        Gn0 
	.byte	W12
	.byte		        Dn1 
	.byte	W12
	.byte		        As0 
	.byte	W12
	.byte	PEND
@ 024   ----------------------------------------
	.byte	PATT
	 .word	vastsever8850_2_020
@ 025   ----------------------------------------
vastsever8850_2_025:
	.byte		N10   , Cn1 , v100
	.byte	W12
	.byte		        Gn0 
	.byte	W12
	.byte		        Cn1 
	.byte	W12
	.byte		        An0 
	.byte	W12
	.byte		        Cn1 
	.byte	W12
	.byte		        En1 
	.byte	W12
	.byte		        Gn1 
	.byte	W12
	.byte		        En1 
	.byte	W12
	.byte	PEND
@ 026   ----------------------------------------
	.byte	PATT
	 .word	vastsever8850_2_018
@ 027   ----------------------------------------
	.byte	PATT
	 .word	vastsever8850_2_019
@ 028   ----------------------------------------
	.byte	PATT
	 .word	vastsever8850_2_020
@ 029   ----------------------------------------
	.byte	PATT
	 .word	vastsever8850_2_021
@ 030   ----------------------------------------
	.byte	PATT
	 .word	vastsever8850_2_022
@ 031   ----------------------------------------
	.byte	PATT
	 .word	vastsever8850_2_023
@ 032   ----------------------------------------
	.byte	PATT
	 .word	vastsever8850_2_020
@ 033   ----------------------------------------
vastsever8850_2_033:
	.byte		N10   , An0 , v100
	.byte	W12
	.byte		        Gn0 
	.byte	W12
	.byte		        As0 
	.byte	W12
	.byte		        An0 
	.byte	W12
	.byte		        Cs1 
	.byte	W12
	.byte		        En1 
	.byte	W12
	.byte		        Gn1 
	.byte	W12
	.byte		        Cs1 
	.byte	W12
	.byte	PEND
@ 034   ----------------------------------------
vastsever8850_2_034:
	.byte		N22   , Dn1 , v100
	.byte	W24
	.byte		N10   
	.byte	W12
	.byte		N56   , En1 
	.byte	W60
	.byte	PEND
@ 035   ----------------------------------------
vastsever8850_2_035:
	.byte		N22   , Cn1 , v100
	.byte	W24
	.byte		N10   
	.byte	W12
	.byte		N56   , Dn1 
	.byte	W60
	.byte	PEND
@ 036   ----------------------------------------
vastsever8850_2_036:
	.byte		N22   , As0 , v100
	.byte	W24
	.byte		N10   
	.byte	W12
	.byte		N22   , Gn0 
	.byte	W24
	.byte		N10   
	.byte	W12
	.byte		        Dn1 
	.byte	W12
	.byte		        As0 
	.byte	W12
	.byte	PEND
@ 037   ----------------------------------------
vastsever8850_2_037:
	.byte		N10   , Cn1 , v100
	.byte	W12
	.byte		        An0 
	.byte	W12
	.byte		        Cn1 
	.byte	W12
	.byte		N22   , An0 
	.byte	W24
	.byte		N10   
	.byte	W12
	.byte		        Fn1 
	.byte	W12
	.byte		        Cn1 
	.byte	W12
	.byte	PEND
@ 038   ----------------------------------------
	.byte	PATT
	 .word	vastsever8850_2_034
@ 039   ----------------------------------------
	.byte	PATT
	 .word	vastsever8850_2_035
@ 040   ----------------------------------------
	.byte	PATT
	 .word	vastsever8850_2_036
@ 041   ----------------------------------------
	.byte	PATT
	 .word	vastsever8850_2_037
@ 042   ----------------------------------------
	.byte		N92   , As0 , v100
	.byte	W96
@ 043   ----------------------------------------
	.byte		        Gn0 
	.byte	W96
@ 044   ----------------------------------------
	.byte		        An0 
	.byte	W96
@ 045   ----------------------------------------
vastsever8850_2_045:
	.byte		N10   , En0 , v100
	.byte	W12
	.byte		N05   , An0 
	.byte	W12
	.byte		N05   
	.byte	W12
	.byte		N05   
	.byte	W12
	.byte		N05   
	.byte	W12
	.byte		N10   
	.byte	W12
	.byte		N10   
	.byte	W12
	.byte		N10   
	.byte	W12
	.byte	PEND
@ 046   ----------------------------------------
vastsever8850_2_046:
	.byte		N10   , Dn1 , v100
	.byte	W12
	.byte		        An0 
	.byte	W12
	.byte		        Dn1 
	.byte	W12
	.byte		N23   
	.byte	W24
	.byte		N10   , Fn0 
	.byte	W12
	.byte		        An0 
	.byte	W12
	.byte		        Dn1 
	.byte	W12
	.byte	PEND
@ 047   ----------------------------------------
vastsever8850_2_047:
	.byte		N10   , Cn1 , v100
	.byte	W12
	.byte		        Gn0 
	.byte	W12
	.byte		        Cn1 
	.byte	W12
	.byte		N23   
	.byte	W24
	.byte		N10   , Gn0 
	.byte	W12
	.byte		        En1 
	.byte	W12
	.byte		        Cn1 
	.byte	W12
	.byte	PEND
@ 048   ----------------------------------------
vastsever8850_2_048:
	.byte		N10   , Bn0 , v100
	.byte	W12
	.byte		        Gn0 
	.byte	W12
	.byte		        Bn0 
	.byte	W12
	.byte		N23   
	.byte	W24
	.byte		N10   , En0 
	.byte	W12
	.byte		        Gn0 
	.byte	W12
	.byte		        Bn0 
	.byte	W12
	.byte	PEND
@ 049   ----------------------------------------
vastsever8850_2_049:
	.byte		N10   , As0 , v100
	.byte	W12
	.byte		        Fn0 
	.byte	W12
	.byte		        As0 
	.byte	W12
	.byte		N23   , Dn1 
	.byte	W24
	.byte		N10   , Cn1 
	.byte	W12
	.byte		        As0 
	.byte	W12
	.byte		        An0 
	.byte	W12
	.byte	PEND
@ 050   ----------------------------------------
vastsever8850_2_050:
	.byte		N10   , As0 , v100
	.byte	W12
	.byte		        Fn0 
	.byte	W12
	.byte		        As0 
	.byte	W12
	.byte		N23   
	.byte	W24
	.byte		N10   , Dn0 
	.byte	W12
	.byte		        Fn0 
	.byte	W12
	.byte		        As0 
	.byte	W12
	.byte	PEND
@ 051   ----------------------------------------
vastsever8850_2_051:
	.byte		N10   , Cn1 , v100
	.byte	W12
	.byte		        Gn0 
	.byte	W12
	.byte		        Cn1 
	.byte	W12
	.byte		N23   
	.byte	W24
	.byte		N10   , En0 
	.byte	W12
	.byte		        Gn0 
	.byte	W12
	.byte		        Cn1 
	.byte	W12
	.byte	PEND
@ 052   ----------------------------------------
	.byte	PATT
	 .word	vastsever8850_2_050
@ 053   ----------------------------------------
vastsever8850_2_053:
	.byte		N10   , An0 , v100
	.byte	W12
	.byte		        En0 
	.byte	W12
	.byte		        An0 
	.byte	W12
	.byte		N23   
	.byte	W24
	.byte		N10   , Cn0 
	.byte	W12
	.byte		        En0 
	.byte	W12
	.byte		        An0 
	.byte	W12
	.byte	PEND
@ 054   ----------------------------------------
	.byte	PATT
	 .word	vastsever8850_2_046
@ 055   ----------------------------------------
	.byte	PATT
	 .word	vastsever8850_2_047
@ 056   ----------------------------------------
	.byte	PATT
	 .word	vastsever8850_2_048
@ 057   ----------------------------------------
vastsever8850_2_057:
	.byte		N10   , As0 , v100
	.byte	W12
	.byte		        Fn0 
	.byte	W12
	.byte		        As0 
	.byte	W12
	.byte		N23   , Cn1 
	.byte	W24
	.byte		N10   , En0 
	.byte	W12
	.byte		        Gn0 
	.byte	W12
	.byte		        Cn1 
	.byte	W12
	.byte	PEND
@ 058   ----------------------------------------
	.byte	PATT
	 .word	vastsever8850_2_050
@ 059   ----------------------------------------
	.byte	PATT
	 .word	vastsever8850_2_051
@ 060   ----------------------------------------
vastsever8850_2_060:
	.byte		N10   , Dn1 , v100
	.byte	W12
	.byte		        An0 
	.byte	W12
	.byte		        Dn1 
	.byte	W12
	.byte		N23   
	.byte	W24
	.byte		N10   , An0 
	.byte	W12
	.byte		        Gn0 
	.byte	W12
	.byte		        An0 
	.byte	W12
	.byte	PEND
@ 061   ----------------------------------------
vastsever8850_2_061:
	.byte		N10   , Dn1 , v100
	.byte	W12
	.byte		        An0 
	.byte	W12
	.byte		        Dn1 
	.byte	W12
	.byte		N23   
	.byte	W24
	.byte		N10   , Dn0 
	.byte	W12
	.byte		        An0 
	.byte	W12
	.byte		        Dn1 
	.byte	W12
	.byte	PEND
@ 062   ----------------------------------------
	.byte		N92   
	.byte	W96
@ 063   ----------------------------------------
	.byte		        Cn1 
	.byte	W96
@ 064   ----------------------------------------
	.byte		        As0 
	.byte	W96
@ 065   ----------------------------------------
	.byte		        An0 
	.byte	W96
@ 066   ----------------------------------------
	.byte		        Dn1 
	.byte	W96
@ 067   ----------------------------------------
	.byte		        Cn1 
	.byte	W96
@ 068   ----------------------------------------
	.byte		        As0 
	.byte	W96
@ 069   ----------------------------------------
	.byte		        An0 
	.byte	W96
@ 070   ----------------------------------------
	.byte		        Dn1 
	.byte	W96
@ 071   ----------------------------------------
	.byte		        Cn1 
	.byte	W96
@ 072   ----------------------------------------
	.byte		        As0 
	.byte	W96
@ 073   ----------------------------------------
	.byte		        An0 
	.byte	W96
@ 074   ----------------------------------------
	.byte		        Dn1 
	.byte	W96
@ 075   ----------------------------------------
	.byte		        Cn1 
	.byte	W96
@ 076   ----------------------------------------
	.byte		        As0 
	.byte	W96
@ 077   ----------------------------------------
	.byte	PATT
	 .word	vastsever8850_2_017
@ 078   ----------------------------------------
	.byte	PATT
	 .word	vastsever8850_2_018
@ 079   ----------------------------------------
	.byte	PATT
	 .word	vastsever8850_2_019
@ 080   ----------------------------------------
	.byte	PATT
	 .word	vastsever8850_2_020
@ 081   ----------------------------------------
	.byte	PATT
	 .word	vastsever8850_2_021
@ 082   ----------------------------------------
	.byte	PATT
	 .word	vastsever8850_2_022
@ 083   ----------------------------------------
	.byte	PATT
	 .word	vastsever8850_2_023
@ 084   ----------------------------------------
	.byte	PATT
	 .word	vastsever8850_2_020
@ 085   ----------------------------------------
	.byte	PATT
	 .word	vastsever8850_2_025
@ 086   ----------------------------------------
	.byte	PATT
	 .word	vastsever8850_2_018
@ 087   ----------------------------------------
	.byte	PATT
	 .word	vastsever8850_2_019
@ 088   ----------------------------------------
	.byte	PATT
	 .word	vastsever8850_2_020
@ 089   ----------------------------------------
	.byte	PATT
	 .word	vastsever8850_2_021
@ 090   ----------------------------------------
	.byte	PATT
	 .word	vastsever8850_2_022
@ 091   ----------------------------------------
	.byte	PATT
	 .word	vastsever8850_2_023
@ 092   ----------------------------------------
	.byte	PATT
	 .word	vastsever8850_2_020
@ 093   ----------------------------------------
	.byte	PATT
	 .word	vastsever8850_2_033
@ 094   ----------------------------------------
	.byte	PATT
	 .word	vastsever8850_2_034
@ 095   ----------------------------------------
	.byte	PATT
	 .word	vastsever8850_2_035
@ 096   ----------------------------------------
	.byte	PATT
	 .word	vastsever8850_2_036
@ 097   ----------------------------------------
	.byte	PATT
	 .word	vastsever8850_2_037
@ 098   ----------------------------------------
	.byte	PATT
	 .word	vastsever8850_2_034
@ 099   ----------------------------------------
	.byte	PATT
	 .word	vastsever8850_2_035
@ 100   ----------------------------------------
	.byte	PATT
	 .word	vastsever8850_2_036
@ 101   ----------------------------------------
	.byte	PATT
	 .word	vastsever8850_2_037
@ 102   ----------------------------------------
	.byte		N92   , As0 , v100
	.byte	W96
@ 103   ----------------------------------------
	.byte		        Gn0 
	.byte	W96
@ 104   ----------------------------------------
	.byte		        An0 
	.byte	W96
@ 105   ----------------------------------------
	.byte	PATT
	 .word	vastsever8850_2_045
@ 106   ----------------------------------------
	.byte	PATT
	 .word	vastsever8850_2_046
@ 107   ----------------------------------------
	.byte	PATT
	 .word	vastsever8850_2_047
@ 108   ----------------------------------------
	.byte	PATT
	 .word	vastsever8850_2_048
@ 109   ----------------------------------------
	.byte	PATT
	 .word	vastsever8850_2_049
@ 110   ----------------------------------------
	.byte	PATT
	 .word	vastsever8850_2_050
@ 111   ----------------------------------------
	.byte	PATT
	 .word	vastsever8850_2_051
@ 112   ----------------------------------------
	.byte	PATT
	 .word	vastsever8850_2_050
@ 113   ----------------------------------------
	.byte	PATT
	 .word	vastsever8850_2_053
@ 114   ----------------------------------------
	.byte	PATT
	 .word	vastsever8850_2_046
@ 115   ----------------------------------------
	.byte	PATT
	 .word	vastsever8850_2_047
@ 116   ----------------------------------------
	.byte	PATT
	 .word	vastsever8850_2_048
@ 117   ----------------------------------------
	.byte	PATT
	 .word	vastsever8850_2_057
@ 118   ----------------------------------------
	.byte	PATT
	 .word	vastsever8850_2_050
@ 119   ----------------------------------------
	.byte	PATT
	 .word	vastsever8850_2_051
@ 120   ----------------------------------------
	.byte	PATT
	 .word	vastsever8850_2_060
@ 121   ----------------------------------------
	.byte	PATT
	 .word	vastsever8850_2_061
@ 122   ----------------------------------------
	.byte		N92   , Dn1 , v100
	.byte	W96
@ 123   ----------------------------------------
	.byte		        Cn1 
	.byte	W96
@ 124   ----------------------------------------
	.byte		        As0 
	.byte	W96
@ 125   ----------------------------------------
	.byte		        An0 
	.byte	W96
@ 126   ----------------------------------------
	.byte		        Dn1 
	.byte	W96
@ 127   ----------------------------------------
	.byte		        Cn1 
	.byte	W96
@ 128   ----------------------------------------
	.byte		        As0 
	.byte	W96
@ 129   ----------------------------------------
	.byte		        An0 
	.byte	W96
@ 130   ----------------------------------------
vastsever8850_2_130:
	.byte		N10   , Dn1 , v100
	.byte	W12
	.byte		        An0 
	.byte	W12
	.byte		        Dn1 
	.byte	W12
	.byte		N23   
	.byte	W24
	.byte		N10   , An0 
	.byte	W12
	.byte		        Fn0 
	.byte	W12
	.byte		        Dn1 
	.byte	W12
	.byte	PEND
@ 131   ----------------------------------------
vastsever8850_2_131:
	.byte		N10   , Cn1 , v100
	.byte	W12
	.byte		        Gn0 
	.byte	W12
	.byte		        Cn1 
	.byte	W12
	.byte		N23   
	.byte	W24
	.byte		N10   , Gn0 
	.byte	W12
	.byte		        En0 
	.byte	W12
	.byte		        Cn1 
	.byte	W12
	.byte	PEND
@ 132   ----------------------------------------
vastsever8850_2_132:
	.byte		N10   , As0 , v100
	.byte	W12
	.byte		        Fn0 
	.byte	W12
	.byte		        As0 
	.byte	W12
	.byte		N23   
	.byte	W24
	.byte		N10   , Fn0 
	.byte	W12
	.byte		        Dn0 
	.byte	W12
	.byte		        As0 
	.byte	W12
	.byte	PEND
@ 133   ----------------------------------------
	.byte		        An0 
	.byte	W12
	.byte		        En0 
	.byte	W12
	.byte		        An0 
	.byte	W12
	.byte		N23   
	.byte	W24
	.byte		N10   , En0 
	.byte	W12
	.byte		        An0 
	.byte	W12
	.byte		        Cs1 
	.byte	W12
@ 134   ----------------------------------------
	.byte	PATT
	 .word	vastsever8850_2_130
@ 135   ----------------------------------------
	.byte	PATT
	 .word	vastsever8850_2_131
@ 136   ----------------------------------------
	.byte	PATT
	 .word	vastsever8850_2_132
@ 137   ----------------------------------------
	.byte	PATT
	 .word	vastsever8850_2_017
@ 138   ----------------------------------------
	.byte	PATT
	 .word	vastsever8850_2_018
@ 139   ----------------------------------------
	.byte	PATT
	 .word	vastsever8850_2_019
@ 140   ----------------------------------------
	.byte	PATT
	 .word	vastsever8850_2_020
@ 141   ----------------------------------------
	.byte	PATT
	 .word	vastsever8850_2_021
@ 142   ----------------------------------------
	.byte	PATT
	 .word	vastsever8850_2_022
@ 143   ----------------------------------------
	.byte	PATT
	 .word	vastsever8850_2_023
@ 144   ----------------------------------------
	.byte	PATT
	 .word	vastsever8850_2_020
@ 145   ----------------------------------------
	.byte	PATT
	 .word	vastsever8850_2_025
@ 146   ----------------------------------------
	.byte	PATT
	 .word	vastsever8850_2_018
@ 147   ----------------------------------------
	.byte	PATT
	 .word	vastsever8850_2_019
@ 148   ----------------------------------------
	.byte	PATT
	 .word	vastsever8850_2_020
@ 149   ----------------------------------------
	.byte	PATT
	 .word	vastsever8850_2_021
@ 150   ----------------------------------------
	.byte	PATT
	 .word	vastsever8850_2_022
@ 151   ----------------------------------------
	.byte	PATT
	 .word	vastsever8850_2_023
@ 152   ----------------------------------------
	.byte	PATT
	 .word	vastsever8850_2_020
@ 153   ----------------------------------------
	.byte	PATT
	 .word	vastsever8850_2_033
@ 154   ----------------------------------------
	.byte		N10   , Dn1 , v100
	.byte	W12
	.byte		N22   
	.byte	W24
	.byte		N56   , Cn1 
	.byte	W60
@ 155   ----------------------------------------
vastsever8850_2_155:
	.byte		N10   , As0 , v100
	.byte	W12
	.byte		N22   
	.byte	W24
	.byte		N56   , An0 
	.byte	W60
	.byte	PEND
@ 156   ----------------------------------------
	.byte	PATT
	 .word	vastsever8850_2_155
@ 157   ----------------------------------------
	.byte		N10   , As0 , v100
	.byte	W12
	.byte		N22   
	.byte	W24
	.byte		N56   , Cs1 
	.byte	W60
@ 158   ----------------------------------------
	.byte		TIE   , Dn1 
	.byte	W96
@ 159   ----------------------------------------
	.byte	W92
	.byte	W03
	.byte		EOT   
	.byte	W01
@ 160   ----------------------------------------
	.byte	W96
@ 161   ----------------------------------------
	.byte	W96
@ 162   ----------------------------------------
	.byte	W96
@ 163   ----------------------------------------
	.byte	FINE

@**************** Track 3 (Midi-Chn.3) ****************@

vastsever8850_3:
	.byte	KEYSH , vastsever8850_key+0
@ 000   ----------------------------------------
	.byte	W96
@ 001   ----------------------------------------
	.byte		VOICE , 65
	.byte		VOL   , 120*vastsever8850_mvl/mxv
	.byte		PAN   , c_v+0
	.byte	W48
	.byte		MOD   , 0
	.byte		        0
	.byte		BEND  , c_v+0
	.byte	W21
	.byte	W03
	.byte	W06
	.byte	W06
	.byte	W06
	.byte	W03
	.byte		VOL   , 120*vastsever8850_mvl/mxv
	.byte	W03
@ 002   ----------------------------------------
	.byte	W96
@ 003   ----------------------------------------
	.byte	W96
@ 004   ----------------------------------------
	.byte	W96
@ 005   ----------------------------------------
	.byte	W96
@ 006   ----------------------------------------
	.byte	W96
@ 007   ----------------------------------------
	.byte	W96
@ 008   ----------------------------------------
	.byte	W96
@ 009   ----------------------------------------
	.byte	W96
@ 010   ----------------------------------------
	.byte	W96
@ 011   ----------------------------------------
	.byte	W96
@ 012   ----------------------------------------
	.byte	W96
@ 013   ----------------------------------------
	.byte	W96
@ 014   ----------------------------------------
	.byte	W96
@ 015   ----------------------------------------
	.byte	W96
@ 016   ----------------------------------------
	.byte	W96
@ 017   ----------------------------------------
	.byte	W96
@ 018   ----------------------------------------
	.byte	W96
@ 019   ----------------------------------------
	.byte	W96
@ 020   ----------------------------------------
	.byte	W96
@ 021   ----------------------------------------
	.byte	W96
@ 022   ----------------------------------------
	.byte	W96
@ 023   ----------------------------------------
	.byte	W96
@ 024   ----------------------------------------
	.byte	W96
@ 025   ----------------------------------------
	.byte	W96
@ 026   ----------------------------------------
	.byte	W96
@ 027   ----------------------------------------
	.byte	W96
@ 028   ----------------------------------------
	.byte	W96
@ 029   ----------------------------------------
	.byte	W96
@ 030   ----------------------------------------
	.byte	W96
@ 031   ----------------------------------------
	.byte	W96
@ 032   ----------------------------------------
	.byte	W96
@ 033   ----------------------------------------
vastsever8850_3_033:
	.byte	W60
	.byte		N10   , An3 , v096
	.byte	W12
	.byte		N12   , Dn4 , v100
	.byte	W12
	.byte		MOD   , 56
	.byte		N10   , En4 , v092
	.byte	W11
	.byte		MOD   , 0
	.byte	W01
	.byte	PEND
@ 034   ----------------------------------------
vastsever8850_3_034:
	.byte		N10   , Fn4 , v116
	.byte	W12
	.byte		        Gn4 , v092
	.byte	W12
	.byte		MOD   , 65
	.byte		BEND  , c_v+0
	.byte		N10   , An4 , v100
	.byte	W11
	.byte		MOD   , 0
	.byte	W01
	.byte		N22   , Gn4 , v096
	.byte	W24
	.byte		N10   , Fn4 , v100
	.byte	W12
	.byte		N22   , En4 , v120
	.byte	W24
	.byte	PEND
@ 035   ----------------------------------------
vastsever8850_3_035:
	.byte		N12   , Cn4 , v116
	.byte	W12
	.byte		N11   , An3 , v096
	.byte	W12
	.byte		        Cn4 , v108
	.byte	W12
	.byte		MOD   , 8
	.byte		N22   , Dn4 , v116
	.byte	W01
	.byte		MOD   , 16
	.byte	W01
	.byte		        24
	.byte	W01
	.byte		        41
	.byte	W01
	.byte		        49
	.byte	W01
	.byte		        60
	.byte	W18
	.byte		        0
	.byte	W01
	.byte		N10   , Dn4 , v108
	.byte	W12
	.byte		N12   , En4 , v092
	.byte	W12
	.byte		N32   , Fn4 , v116
	.byte	W02
	.byte		MOD   , 11
	.byte	W01
	.byte		        32
	.byte	W01
	.byte		        43
	.byte	W01
	.byte		        53
	.byte	W01
	.byte		        60
	.byte	W06
	.byte	PEND
@ 036   ----------------------------------------
vastsever8850_3_036:
	.byte	W23
	.byte		MOD   , 0
	.byte	W01
	.byte		N10   , En4 , v116
	.byte	W12
	.byte		N22   , Fn4 
	.byte	W24
	.byte		N10   , Gn4 , v088
	.byte	W12
	.byte		        An4 , v116
	.byte	W12
	.byte		        Gn4 , v088
	.byte	W12
	.byte	PEND
@ 037   ----------------------------------------
vastsever8850_3_037:
	.byte		N32   , Fn4 , v116
	.byte	W09
	.byte		MOD   , 9
	.byte	W01
	.byte		        18
	.byte	W01
	.byte		        28
	.byte	W01
	.byte		        46
	.byte	W01
	.byte		        55
	.byte	W01
	.byte		        64
	.byte	W01
	.byte		        67
	.byte	W21
	.byte		N05   , Gn4 , v088
	.byte	W06
	.byte		        Fn4 
	.byte	W05
	.byte		MOD   , 0
	.byte	W01
	.byte		N44   , En4 , v104
	.byte	W48
	.byte	PEND
@ 038   ----------------------------------------
vastsever8850_3_038:
	.byte		N10   , Fn4 , v116
	.byte	W12
	.byte		        Gn4 , v092
	.byte	W12
	.byte		MOD   , 65
	.byte		BEND  , c_v+0
	.byte		N10   , An4 , v100
	.byte	W11
	.byte		MOD   , 0
	.byte	W01
	.byte		N22   , Cn5 , v096
	.byte	W24
	.byte		N10   , As4 , v100
	.byte	W12
	.byte		        An4 , v120
	.byte	W12
	.byte		        Gn4 
	.byte	W12
	.byte	PEND
@ 039   ----------------------------------------
vastsever8850_3_039:
	.byte		N10   , En4 , v120
	.byte	W12
	.byte		        Fn4 
	.byte	W12
	.byte		        Gn4 
	.byte	W12
	.byte		MOD   , 8
	.byte		N22   , Fn4 , v116
	.byte	W01
	.byte		MOD   , 16
	.byte	W01
	.byte		        24
	.byte	W01
	.byte		        41
	.byte	W01
	.byte		        49
	.byte	W01
	.byte		        60
	.byte	W18
	.byte		        0
	.byte	W01
	.byte		N10   , Dn4 , v108
	.byte	W12
	.byte		N12   , En4 , v092
	.byte	W12
	.byte		N32   , Fn4 , v116
	.byte	W02
	.byte		MOD   , 11
	.byte	W01
	.byte		        32
	.byte	W01
	.byte		        43
	.byte	W01
	.byte		        53
	.byte	W01
	.byte		        60
	.byte	W06
	.byte	PEND
@ 040   ----------------------------------------
vastsever8850_3_040:
	.byte	W23
	.byte		MOD   , 0
	.byte	W01
	.byte		N10   , En4 , v116
	.byte	W12
	.byte		N22   , Fn4 
	.byte	W24
	.byte		N10   , Gn4 , v088
	.byte	W12
	.byte		        An4 , v116
	.byte	W12
	.byte		N68   , Cn5 , v124
	.byte	W12
	.byte	PEND
@ 041   ----------------------------------------
vastsever8850_3_041:
	.byte	W07
	.byte		MOD   , 8
	.byte	W01
	.byte		        16
	.byte	W01
	.byte		        33
	.byte	W01
	.byte		        42
	.byte	W01
	.byte		        50
	.byte	W01
	.byte		        67
	.byte	W01
	.byte		        75
	.byte	W01
	.byte		        84
	.byte	W01
	.byte		        92
	.byte	W44
	.byte		        0
	.byte	W01
	.byte		N10   , Gn4 , v100
	.byte	W12
	.byte		        Fn4 , v116
	.byte	W12
	.byte		        En4 , v100
	.byte	W12
	.byte	PEND
@ 042   ----------------------------------------
vastsever8850_3_042:
	.byte		N56   , Dn4 , v116
	.byte	W11
	.byte		MOD   , 12
	.byte	W01
	.byte		        38
	.byte	W01
	.byte		        51
	.byte	W01
	.byte		        63
	.byte	W01
	.byte		        75
	.byte	W42
	.byte		        0
	.byte	W03
	.byte		N10   , Dn4 , v100
	.byte	W12
	.byte		        En4 , v116
	.byte	W12
	.byte		        Fn4 , v104
	.byte	W12
	.byte	PEND
@ 043   ----------------------------------------
vastsever8850_3_043:
	.byte		N44   , Gn4 , v116
	.byte	W48
	.byte		        Fn4 , v108
	.byte	W06
	.byte		MOD   , 10
	.byte	W01
	.byte		        21
	.byte	W01
	.byte		        31
	.byte	W01
	.byte		        53
	.byte	W01
	.byte		        63
	.byte	W01
	.byte		        76
	.byte	W32
	.byte	W03
	.byte		        0
	.byte	W02
	.byte	PEND
@ 044   ----------------------------------------
	.byte		N68   , En4 , v112
	.byte	W22
	.byte		MOD   , 5
	.byte	W01
	.byte		        10
	.byte	W01
	.byte		        20
	.byte	W01
	.byte		        25
	.byte	W01
	.byte		        30
	.byte	W01
	.byte		        40
	.byte	W01
	.byte		        46
	.byte	W01
	.byte		        51
	.byte	W01
	.byte		        61
	.byte	W01
	.byte		        66
	.byte	W01
	.byte		        71
	.byte	W01
	.byte		        79
	.byte	W36
	.byte		        0
	.byte	W03
	.byte		N11   , Dn4 , v108
	.byte	W12
	.byte		TIE   , En4 , v124
	.byte	W12
@ 045   ----------------------------------------
	.byte	W02
	.byte		MOD   , 6
	.byte	W01
	.byte		        18
	.byte	W01
	.byte		        23
	.byte	W01
	.byte		        29
	.byte	W01
	.byte		        41
	.byte	W01
	.byte		        47
	.byte	W01
	.byte		        52
	.byte	W01
	.byte		        64
	.byte	W01
	.byte		        70
	.byte	W01
	.byte		        75
	.byte	W01
	.byte		        87
	.byte	W01
	.byte		        92
	.byte	W24
	.byte		VOL   , 120*vastsever8850_mvl/mxv
	.byte	W01
	.byte		        119*vastsever8850_mvl/mxv
	.byte	W01
	.byte		        118*vastsever8850_mvl/mxv
	.byte	W01
	.byte		        117*vastsever8850_mvl/mxv
	.byte	W01
	.byte		        116*vastsever8850_mvl/mxv
	.byte	W01
	.byte		        114*vastsever8850_mvl/mxv
	.byte	W01
	.byte		        113*vastsever8850_mvl/mxv
	.byte	W02
	.byte		        111*vastsever8850_mvl/mxv
	.byte	W01
	.byte		        110*vastsever8850_mvl/mxv
	.byte	W01
	.byte		        109*vastsever8850_mvl/mxv
	.byte	W01
	.byte		        108*vastsever8850_mvl/mxv
	.byte	W01
	.byte		        107*vastsever8850_mvl/mxv
	.byte	W01
	.byte		        106*vastsever8850_mvl/mxv
	.byte	W01
	.byte		        104*vastsever8850_mvl/mxv
	.byte	W02
	.byte		        103*vastsever8850_mvl/mxv
	.byte	W01
	.byte		        101*vastsever8850_mvl/mxv
	.byte	W01
	.byte		        100*vastsever8850_mvl/mxv
	.byte	W01
	.byte		        99*vastsever8850_mvl/mxv
	.byte	W01
	.byte		        98*vastsever8850_mvl/mxv
	.byte	W01
	.byte		        97*vastsever8850_mvl/mxv
	.byte	W01
	.byte		        96*vastsever8850_mvl/mxv
	.byte	W01
	.byte		        94*vastsever8850_mvl/mxv
	.byte	W02
	.byte		        93*vastsever8850_mvl/mxv
	.byte	W01
	.byte		        91*vastsever8850_mvl/mxv
	.byte	W01
	.byte		        90*vastsever8850_mvl/mxv
	.byte	W01
	.byte		        89*vastsever8850_mvl/mxv
	.byte	W01
	.byte		        88*vastsever8850_mvl/mxv
	.byte	W01
	.byte		        87*vastsever8850_mvl/mxv
	.byte	W01
	.byte		        86*vastsever8850_mvl/mxv
	.byte	W01
	.byte		        85*vastsever8850_mvl/mxv
	.byte	W01
	.byte		        84*vastsever8850_mvl/mxv
	.byte	W01
	.byte		        83*vastsever8850_mvl/mxv
	.byte	W01
	.byte		        81*vastsever8850_mvl/mxv
	.byte	W01
	.byte		        80*vastsever8850_mvl/mxv
	.byte	W02
	.byte		        78*vastsever8850_mvl/mxv
	.byte	W01
	.byte		        77*vastsever8850_mvl/mxv
	.byte	W01
	.byte		        76*vastsever8850_mvl/mxv
	.byte	W01
	.byte		        75*vastsever8850_mvl/mxv
	.byte	W01
	.byte		        74*vastsever8850_mvl/mxv
	.byte	W01
	.byte		        73*vastsever8850_mvl/mxv
	.byte	W01
	.byte		        71*vastsever8850_mvl/mxv
	.byte	W01
	.byte		        70*vastsever8850_mvl/mxv
	.byte	W02
	.byte		        68*vastsever8850_mvl/mxv
	.byte	W01
	.byte		        67*vastsever8850_mvl/mxv
	.byte	W01
	.byte		        66*vastsever8850_mvl/mxv
	.byte	W01
	.byte		        65*vastsever8850_mvl/mxv
	.byte	W01
	.byte		        64*vastsever8850_mvl/mxv
	.byte	W01
	.byte		        63*vastsever8850_mvl/mxv
	.byte	W01
	.byte		        61*vastsever8850_mvl/mxv
	.byte	W01
	.byte		        60*vastsever8850_mvl/mxv
	.byte	W02
	.byte		        59*vastsever8850_mvl/mxv
	.byte		MOD   , 0
	.byte		VOL   , 58*vastsever8850_mvl/mxv
	.byte	W01
	.byte		        57*vastsever8850_mvl/mxv
	.byte	W01
	.byte		        56*vastsever8850_mvl/mxv
	.byte	W01
	.byte		EOT   
@ 046   ----------------------------------------
	.byte		VOL   , 55*vastsever8850_mvl/mxv
	.byte	W01
	.byte		        54*vastsever8850_mvl/mxv
	.byte	W92
	.byte	W02
	.byte		        120*vastsever8850_mvl/mxv
	.byte	W01
@ 047   ----------------------------------------
	.byte	W96
@ 048   ----------------------------------------
	.byte	W96
@ 049   ----------------------------------------
	.byte	W96
@ 050   ----------------------------------------
	.byte	W96
@ 051   ----------------------------------------
	.byte	W96
@ 052   ----------------------------------------
	.byte	W96
@ 053   ----------------------------------------
	.byte	W96
@ 054   ----------------------------------------
	.byte	W96
@ 055   ----------------------------------------
	.byte	W96
@ 056   ----------------------------------------
	.byte	W96
@ 057   ----------------------------------------
	.byte	W96
@ 058   ----------------------------------------
	.byte	W96
@ 059   ----------------------------------------
	.byte	W96
@ 060   ----------------------------------------
	.byte	W96
@ 061   ----------------------------------------
	.byte	W96
@ 062   ----------------------------------------
	.byte	W18
	.byte		        87*vastsever8850_mvl/mxv
	.byte	W01
	.byte		        88*vastsever8850_mvl/mxv
	.byte	W01
	.byte		        89*vastsever8850_mvl/mxv
	.byte	W01
	.byte		        90*vastsever8850_mvl/mxv
	.byte	W01
	.byte		        91*vastsever8850_mvl/mxv
	.byte	W01
	.byte		        92*vastsever8850_mvl/mxv
	.byte	W01
	.byte		        94*vastsever8850_mvl/mxv
	.byte		N40   , An4 , v127
	.byte	W01
	.byte		VOL   , 95*vastsever8850_mvl/mxv
	.byte	W02
	.byte		        97*vastsever8850_mvl/mxv
	.byte	W01
	.byte		        98*vastsever8850_mvl/mxv
	.byte	W01
	.byte		        99*vastsever8850_mvl/mxv
	.byte		MOD   , 7
	.byte	W01
	.byte		        14
	.byte		VOL   , 100*vastsever8850_mvl/mxv
	.byte		MOD   , 21
	.byte	W01
	.byte		VOL   , 101*vastsever8850_mvl/mxv
	.byte		MOD   , 28
	.byte	W01
	.byte		VOL   , 102*vastsever8850_mvl/mxv
	.byte		MOD   , 35
	.byte	W01
	.byte		VOL   , 103*vastsever8850_mvl/mxv
	.byte		MOD   , 42
	.byte		VOL   , 104*vastsever8850_mvl/mxv
	.byte		MOD   , 49
	.byte	W01
	.byte		        57
	.byte	W01
	.byte		VOL   , 105*vastsever8850_mvl/mxv
	.byte		MOD   , 64
	.byte	W01
	.byte		VOL   , 106*vastsever8850_mvl/mxv
	.byte		MOD   , 71
	.byte		VOL   , 107*vastsever8850_mvl/mxv
	.byte		MOD   , 78
	.byte	W01
	.byte		VOL   , 108*vastsever8850_mvl/mxv
	.byte	W01
	.byte		        109*vastsever8850_mvl/mxv
	.byte	W01
	.byte		        110*vastsever8850_mvl/mxv
	.byte	W01
	.byte		        111*vastsever8850_mvl/mxv
	.byte	W01
	.byte		        112*vastsever8850_mvl/mxv
	.byte	W01
	.byte		        114*vastsever8850_mvl/mxv
	.byte	W02
	.byte		        115*vastsever8850_mvl/mxv
	.byte	W01
	.byte		        117*vastsever8850_mvl/mxv
	.byte	W01
	.byte		        118*vastsever8850_mvl/mxv
	.byte	W02
	.byte		        120*vastsever8850_mvl/mxv
	.byte	W17
	.byte		MOD   , 0
	.byte	W01
	.byte		N02   , As4 , v100
	.byte	W03
	.byte		        Bn4 , v108
	.byte	W03
	.byte		N22   , Cn5 , v120
	.byte	W24
@ 063   ----------------------------------------
	.byte		        An4 , v092
	.byte	W24
	.byte		N05   , An4 , v100
	.byte	W06
	.byte		        Fn4 , v116
	.byte	W06
	.byte		        Dn4 , v092
	.byte	W06
	.byte		        An3 , v104
	.byte	W06
	.byte		        An4 , v096
	.byte	W06
	.byte		        Fn4 , v092
	.byte	W06
	.byte		        Dn4 , v112
	.byte	W06
	.byte		        An3 , v084
	.byte	W06
	.byte		        An4 , v120
	.byte	W06
	.byte		        Fn4 , v096
	.byte	W06
	.byte		        Dn4 , v108
	.byte	W06
	.byte		        Fn4 , v092
	.byte	W06
@ 064   ----------------------------------------
	.byte		N11   , An4 , v120
	.byte	W12
	.byte		N02   , An4 , v112
	.byte	W06
	.byte		N11   , Gn4 , v104
	.byte	W12
	.byte		        Fn4 , v116
	.byte	W12
	.byte		        Gn4 , v096
	.byte	W12
	.byte		N05   , Fn4 , v112
	.byte	W06
	.byte		        Gn4 , v120
	.byte	W06
	.byte		        Fn4 , v088
	.byte	W06
	.byte		N11   , Dn4 , v104
	.byte	W12
	.byte		N05   , Gn4 , v092
	.byte	W06
	.byte		        Fn4 , v116
	.byte	W06
@ 065   ----------------------------------------
	.byte		        En4 , v096
	.byte	W06
	.byte		        An3 , v112
	.byte	W06
	.byte		        Cs4 , v096
	.byte	W06
	.byte		        En4 , v124
	.byte	W06
	.byte		        An3 , v112
	.byte	W06
	.byte		        An4 , v108
	.byte	W06
	.byte		        Gn4 , v116
	.byte	W06
	.byte		        En4 , v108
	.byte	W06
	.byte		        Gn4 , v096
	.byte	W06
	.byte		        Fn4 , v120
	.byte	W06
	.byte		        En4 , v112
	.byte	W06
	.byte		        Cn5 , v088
	.byte	W06
	.byte		        Gn4 , v112
	.byte	W06
	.byte		        Dn4 , v116
	.byte	W06
	.byte		        An3 , v108
	.byte	W06
	.byte		N02   , Cn4 , v116
	.byte	W03
	.byte		        Cs4 , v096
	.byte	W03
@ 066   ----------------------------------------
	.byte		N28   , Dn4 , v116
	.byte	W30
	.byte		N02   , Cn4 , v092
	.byte	W03
	.byte		        Cs4 , v096
	.byte	W03
	.byte		N28   , Dn4 , v120
	.byte	W30
	.byte		N02   , An3 , v108
	.byte	W03
	.byte		        As3 
	.byte	W03
	.byte		N11   , Cn4 , v120
	.byte	W12
	.byte		N02   , An3 , v076
	.byte	W03
	.byte		        Bn3 , v088
	.byte	W03
	.byte		        Cn4 , v096
	.byte	W03
	.byte		        Cs4 , v100
	.byte	W03
@ 067   ----------------------------------------
	.byte		N28   , Dn4 , v120
	.byte	W30
	.byte		N05   , Cn5 
	.byte	W06
	.byte		        As4 , v088
	.byte	W06
	.byte		        An4 , v112
	.byte	W06
	.byte		        Dn4 , v100
	.byte	W06
	.byte		        Dn3 , v088
	.byte	W06
	.byte		        An3 , v108
	.byte	W06
	.byte		        Fn3 , v096
	.byte	W06
	.byte		        Dn4 , v088
	.byte	W06
	.byte		        As3 , v100
	.byte	W06
	.byte		        An3 , v112
	.byte	W06
	.byte		        Fn4 , v088
	.byte	W06
@ 068   ----------------------------------------
	.byte		N56   , Gn4 , v108
	.byte	W08
	.byte		MOD   , 1
	.byte	W01
	.byte		        4
	.byte	W01
	.byte		        6
	.byte	W01
	.byte		        7
	.byte	W01
	.byte		        12
	.byte	W01
	.byte		        16
	.byte	W01
	.byte		        19
	.byte	W01
	.byte		        39
	.byte	W01
	.byte		        43
	.byte	W01
	.byte		        52
	.byte	W01
	.byte		        99
	.byte	W06
	.byte		VOL   , 118*vastsever8850_mvl/mxv
	.byte	W02
	.byte		        117*vastsever8850_mvl/mxv
	.byte	W01
	.byte		        116*vastsever8850_mvl/mxv
	.byte	W01
	.byte		        115*vastsever8850_mvl/mxv
	.byte	W02
	.byte		        113*vastsever8850_mvl/mxv
	.byte	W02
	.byte		        112*vastsever8850_mvl/mxv
	.byte	W01
	.byte		        111*vastsever8850_mvl/mxv
	.byte	W01
	.byte		        110*vastsever8850_mvl/mxv
	.byte	W02
	.byte		        108*vastsever8850_mvl/mxv
	.byte	W02
	.byte		        107*vastsever8850_mvl/mxv
	.byte	W01
	.byte		        106*vastsever8850_mvl/mxv
	.byte	W01
	.byte		        105*vastsever8850_mvl/mxv
	.byte	W02
	.byte		        103*vastsever8850_mvl/mxv
	.byte	W02
	.byte		        102*vastsever8850_mvl/mxv
	.byte	W01
	.byte		        101*vastsever8850_mvl/mxv
	.byte	W01
	.byte		        100*vastsever8850_mvl/mxv
	.byte	W02
	.byte		        99*vastsever8850_mvl/mxv
	.byte	W01
	.byte		        98*vastsever8850_mvl/mxv
	.byte	W01
	.byte		        97*vastsever8850_mvl/mxv
	.byte	W01
	.byte		        96*vastsever8850_mvl/mxv
	.byte	W01
	.byte		        95*vastsever8850_mvl/mxv
	.byte	W02
	.byte		        94*vastsever8850_mvl/mxv
	.byte	W01
	.byte		        93*vastsever8850_mvl/mxv
	.byte	W01
	.byte		        92*vastsever8850_mvl/mxv
	.byte	W01
	.byte		        91*vastsever8850_mvl/mxv
	.byte	W02
	.byte		MOD   , 0
	.byte	W01
	.byte		VOL   , 120*vastsever8850_mvl/mxv
	.byte		N02   , Cn3 , v084
	.byte	W03
	.byte		        An3 
	.byte	W03
	.byte		        En4 , v096
	.byte	W03
	.byte		        Gn4 , v104
	.byte	W03
	.byte		N52   , Cn5 , v116
	.byte	W03
	.byte		VOL   , 118*vastsever8850_mvl/mxv
	.byte	W01
	.byte		        117*vastsever8850_mvl/mxv
	.byte	W01
	.byte		        115*vastsever8850_mvl/mxv
	.byte	W01
	.byte		        112*vastsever8850_mvl/mxv
	.byte	W01
	.byte		        110*vastsever8850_mvl/mxv
	.byte	W01
	.byte		        108*vastsever8850_mvl/mxv
	.byte	W01
	.byte		        105*vastsever8850_mvl/mxv
	.byte	W01
	.byte		        103*vastsever8850_mvl/mxv
	.byte		MOD   , 1
	.byte	W01
	.byte		VOL   , 104*vastsever8850_mvl/mxv
	.byte		MOD   , 13
	.byte	W01
	.byte		VOL   , 103*vastsever8850_mvl/mxv
	.byte		MOD   , 26
	.byte		VOL   , 104*vastsever8850_mvl/mxv
	.byte		MOD   , 39
	.byte	W01
	.byte		        51
	.byte	W01
	.byte		VOL   , 105*vastsever8850_mvl/mxv
	.byte		MOD   , 64
	.byte	W01
	.byte		VOL   , 106*vastsever8850_mvl/mxv
	.byte		MOD   , 77
	.byte		VOL   , 107*vastsever8850_mvl/mxv
	.byte		MOD   , 89
	.byte	W01
	.byte		VOL   , 108*vastsever8850_mvl/mxv
	.byte		MOD   , 102
	.byte	W01
	.byte		        115
	.byte	W01
	.byte		VOL   , 109*vastsever8850_mvl/mxv
	.byte		MOD   , 127
	.byte		VOL   , 110*vastsever8850_mvl/mxv
	.byte	W01
	.byte		        111*vastsever8850_mvl/mxv
	.byte	W01
	.byte		        112*vastsever8850_mvl/mxv
	.byte	W01
	.byte		        113*vastsever8850_mvl/mxv
	.byte	W01
	.byte		        114*vastsever8850_mvl/mxv
	.byte	W01
	.byte		        115*vastsever8850_mvl/mxv
	.byte	W01
@ 069   ----------------------------------------
	.byte		        116*vastsever8850_mvl/mxv
	.byte	W01
	.byte		        117*vastsever8850_mvl/mxv
	.byte	W01
	.byte		        118*vastsever8850_mvl/mxv
	.byte	W01
	.byte		        120*vastsever8850_mvl/mxv
	.byte	W13
	.byte		        119*vastsever8850_mvl/mxv
	.byte	W01
	.byte		        118*vastsever8850_mvl/mxv
	.byte	W01
	.byte		        116*vastsever8850_mvl/mxv
	.byte	W01
	.byte		        115*vastsever8850_mvl/mxv
	.byte	W01
	.byte		        114*vastsever8850_mvl/mxv
	.byte	W01
	.byte		        112*vastsever8850_mvl/mxv
	.byte	W01
	.byte		        111*vastsever8850_mvl/mxv
	.byte		MOD   , 120
	.byte	W01
	.byte		VOL   , 110*vastsever8850_mvl/mxv
	.byte		MOD   , 113
	.byte	W01
	.byte		VOL   , 109*vastsever8850_mvl/mxv
	.byte		MOD   , 107
	.byte		VOL   , 108*vastsever8850_mvl/mxv
	.byte		MOD   , 100
	.byte	W01
	.byte		VOL   , 107*vastsever8850_mvl/mxv
	.byte		MOD   , 93
	.byte	W01
	.byte		VOL   , 106*vastsever8850_mvl/mxv
	.byte		MOD   , 87
	.byte	W01
	.byte		VOL   , 105*vastsever8850_mvl/mxv
	.byte		MOD   , 80
	.byte		VOL   , 104*vastsever8850_mvl/mxv
	.byte		MOD   , 73
	.byte	W01
	.byte		VOL   , 103*vastsever8850_mvl/mxv
	.byte		MOD   , 67
	.byte	W01
	.byte		VOL   , 102*vastsever8850_mvl/mxv
	.byte		MOD   , 60
	.byte	W01
	.byte		VOL   , 107*vastsever8850_mvl/mxv
	.byte		MOD   , 53
	.byte		VOL   , 120*vastsever8850_mvl/mxv
	.byte		MOD   , 46
	.byte		N03   , Bn4 , v104
	.byte	W01
	.byte		MOD   , 40
	.byte	W01
	.byte		        33
	.byte	W01
	.byte		        20
	.byte	W01
	.byte		        13
	.byte		N03   , Gn4 , v112
	.byte	W01
	.byte		MOD   , 0
	.byte	W03
	.byte		N03   , An4 , v096
	.byte	W04
	.byte		        Fn4 , v092
	.byte	W04
	.byte		        Dn4 , v116
	.byte	W04
	.byte		        Bn3 , v100
	.byte	W04
	.byte		        Gn3 
	.byte	W04
	.byte		        Cs4 , v108
	.byte	W04
	.byte		        Bn3 , v088
	.byte	W03
	.byte		        Cn4 , v096
	.byte	W03
	.byte		        En4 , v108
	.byte	W04
	.byte		TIE   , Gn4 , v124
	.byte	W03
	.byte		VOL   , 117*vastsever8850_mvl/mxv
	.byte	W01
	.byte		        115*vastsever8850_mvl/mxv
	.byte	W01
	.byte		        113*vastsever8850_mvl/mxv
	.byte	W01
	.byte		        109*vastsever8850_mvl/mxv
	.byte	W01
	.byte		        108*vastsever8850_mvl/mxv
	.byte	W01
	.byte		        106*vastsever8850_mvl/mxv
	.byte	W01
	.byte		        102*vastsever8850_mvl/mxv
	.byte	W01
	.byte		        100*vastsever8850_mvl/mxv
	.byte	W01
	.byte		        98*vastsever8850_mvl/mxv
	.byte	W01
	.byte		        94*vastsever8850_mvl/mxv
	.byte	W01
	.byte		        92*vastsever8850_mvl/mxv
	.byte	W01
	.byte		        91*vastsever8850_mvl/mxv
	.byte	W10
@ 070   ----------------------------------------
	.byte		        90*vastsever8850_mvl/mxv
	.byte		MOD   , 4
	.byte	W01
	.byte		        8
	.byte	W01
	.byte		VOL   , 91*vastsever8850_mvl/mxv
	.byte		MOD   , 12
	.byte	W01
	.byte		        21
	.byte	W01
	.byte		        25
	.byte	W01
	.byte		VOL   , 92*vastsever8850_mvl/mxv
	.byte		MOD   , 29
	.byte	W01
	.byte		        37
	.byte	W01
	.byte		        41
	.byte	W01
	.byte		VOL   , 93*vastsever8850_mvl/mxv
	.byte		MOD   , 45
	.byte	W01
	.byte		        54
	.byte	W01
	.byte		        58
	.byte	W01
	.byte		VOL   , 94*vastsever8850_mvl/mxv
	.byte		MOD   , 62
	.byte	W01
	.byte		        70
	.byte	W01
	.byte		        74
	.byte	W01
	.byte		VOL   , 95*vastsever8850_mvl/mxv
	.byte		MOD   , 78
	.byte	W01
	.byte		        86
	.byte	W01
	.byte		        91
	.byte	W01
	.byte		VOL   , 96*vastsever8850_mvl/mxv
	.byte		MOD   , 95
	.byte	W01
	.byte		        103
	.byte	W01
	.byte		        107
	.byte	W01
	.byte		VOL   , 97*vastsever8850_mvl/mxv
	.byte		MOD   , 111
	.byte	W01
	.byte		        119
	.byte	W01
	.byte		        123
	.byte	W01
	.byte		VOL   , 98*vastsever8850_mvl/mxv
	.byte		MOD   , 127
	.byte	W03
	.byte		VOL   , 99*vastsever8850_mvl/mxv
	.byte	W03
	.byte		        100*vastsever8850_mvl/mxv
	.byte	W03
	.byte		        101*vastsever8850_mvl/mxv
	.byte	W03
	.byte		        102*vastsever8850_mvl/mxv
	.byte	W03
	.byte		        103*vastsever8850_mvl/mxv
	.byte	W03
	.byte		        104*vastsever8850_mvl/mxv
	.byte	W03
	.byte		        105*vastsever8850_mvl/mxv
	.byte	W03
	.byte		        106*vastsever8850_mvl/mxv
	.byte	W03
	.byte		        107*vastsever8850_mvl/mxv
	.byte	W03
	.byte		        108*vastsever8850_mvl/mxv
	.byte	W03
	.byte		        109*vastsever8850_mvl/mxv
	.byte	W03
	.byte		        110*vastsever8850_mvl/mxv
	.byte	W04
	.byte		        111*vastsever8850_mvl/mxv
	.byte	W03
	.byte		        112*vastsever8850_mvl/mxv
	.byte	W03
	.byte		        113*vastsever8850_mvl/mxv
	.byte	W03
	.byte		        114*vastsever8850_mvl/mxv
	.byte	W11
	.byte		        115*vastsever8850_mvl/mxv
	.byte	W13
@ 071   ----------------------------------------
	.byte	W09
	.byte		        114*vastsever8850_mvl/mxv
	.byte	W03
	.byte		        113*vastsever8850_mvl/mxv
	.byte	W02
	.byte		        112*vastsever8850_mvl/mxv
	.byte	W02
	.byte		        111*vastsever8850_mvl/mxv
	.byte	W02
	.byte		        110*vastsever8850_mvl/mxv
	.byte	W03
	.byte		        109*vastsever8850_mvl/mxv
	.byte	W02
	.byte		        108*vastsever8850_mvl/mxv
	.byte	W02
	.byte		        107*vastsever8850_mvl/mxv
	.byte	W02
	.byte		        106*vastsever8850_mvl/mxv
	.byte	W02
	.byte		        105*vastsever8850_mvl/mxv
	.byte	W02
	.byte		        104*vastsever8850_mvl/mxv
	.byte	W02
	.byte		        103*vastsever8850_mvl/mxv
	.byte	W03
	.byte		        102*vastsever8850_mvl/mxv
	.byte	W02
	.byte		        100*vastsever8850_mvl/mxv
	.byte	W01
	.byte		        99*vastsever8850_mvl/mxv
	.byte	W01
	.byte		        98*vastsever8850_mvl/mxv
	.byte	W02
	.byte		        97*vastsever8850_mvl/mxv
	.byte	W01
	.byte		        96*vastsever8850_mvl/mxv
	.byte	W01
	.byte		MOD   , 126
	.byte		VOL   , 95*vastsever8850_mvl/mxv
	.byte	W01
	.byte		MOD   , 122
	.byte		VOL   , 94*vastsever8850_mvl/mxv
	.byte	W01
	.byte		MOD   , 120
	.byte		VOL   , 93*vastsever8850_mvl/mxv
	.byte	W01
	.byte		MOD   , 119
	.byte	W01
	.byte		        117
	.byte		VOL   , 92*vastsever8850_mvl/mxv
	.byte		MOD   , 115
	.byte		VOL   , 91*vastsever8850_mvl/mxv
	.byte	W01
	.byte		MOD   , 113
	.byte	W01
	.byte		        111
	.byte		VOL   , 90*vastsever8850_mvl/mxv
	.byte	W01
	.byte		MOD   , 110
	.byte		VOL   , 89*vastsever8850_mvl/mxv
	.byte		MOD   , 108
	.byte	W01
	.byte		        106
	.byte		VOL   , 88*vastsever8850_mvl/mxv
	.byte	W01
	.byte		MOD   , 104
	.byte		VOL   , 87*vastsever8850_mvl/mxv
	.byte	W01
	.byte		MOD   , 101
	.byte		VOL   , 86*vastsever8850_mvl/mxv
	.byte	W01
	.byte		MOD   , 99
	.byte		VOL   , 85*vastsever8850_mvl/mxv
	.byte	W01
	.byte		MOD   , 97
	.byte	W01
	.byte		        95
	.byte		VOL   , 84*vastsever8850_mvl/mxv
	.byte		MOD   , 94
	.byte	W01
	.byte		        92
	.byte	W01
	.byte		        90
	.byte		VOL   , 83*vastsever8850_mvl/mxv
	.byte	W01
	.byte		MOD   , 87
	.byte		VOL   , 82*vastsever8850_mvl/mxv
	.byte	W01
	.byte		MOD   , 85
	.byte	W01
	.byte		        83
	.byte	W01
	.byte		        81
	.byte		VOL   , 81*vastsever8850_mvl/mxv
	.byte		MOD   , 79
	.byte	W01
	.byte		        78
	.byte		VOL   , 80*vastsever8850_mvl/mxv
	.byte	W01
	.byte		MOD   , 76
	.byte	W01
	.byte		        72
	.byte		VOL   , 79*vastsever8850_mvl/mxv
	.byte	W01
	.byte		MOD   , 71
	.byte	W01
	.byte		        69
	.byte		VOL   , 78*vastsever8850_mvl/mxv
	.byte	W01
	.byte		MOD   , 65
	.byte	W01
	.byte		        63
	.byte		VOL   , 77*vastsever8850_mvl/mxv
	.byte	W01
	.byte		MOD   , 62
	.byte	W01
	.byte		        60
	.byte		VOL   , 76*vastsever8850_mvl/mxv
	.byte		MOD   , 58
	.byte	W01
	.byte		        56
	.byte	W01
	.byte		        55
	.byte		VOL   , 75*vastsever8850_mvl/mxv
	.byte	W01
	.byte		MOD   , 51
	.byte		VOL   , 74*vastsever8850_mvl/mxv
	.byte	W01
	.byte		MOD   , 49
	.byte	W01
	.byte		        47
	.byte	W01
	.byte		        46
	.byte		VOL   , 73*vastsever8850_mvl/mxv
	.byte		MOD   , 44
	.byte	W01
	.byte		        42
	.byte	W01
	.byte		        40
	.byte		VOL   , 72*vastsever8850_mvl/mxv
	.byte	W01
	.byte		MOD   , 37
	.byte		VOL   , 71*vastsever8850_mvl/mxv
	.byte	W01
	.byte		MOD   , 35
	.byte	W01
	.byte		        33
	.byte	W01
	.byte		        31
	.byte		VOL   , 70*vastsever8850_mvl/mxv
	.byte		MOD   , 30
	.byte	W01
	.byte		        28
	.byte		VOL   , 69*vastsever8850_mvl/mxv
	.byte	W01
	.byte		MOD   , 26
	.byte	W01
	.byte		        23
	.byte		VOL   , 68*vastsever8850_mvl/mxv
	.byte	W01
	.byte		MOD   , 21
	.byte	W01
	.byte		        19
	.byte		VOL   , 67*vastsever8850_mvl/mxv
	.byte	W01
	.byte		MOD   , 15
	.byte	W01
	.byte		        14
	.byte		VOL   , 66*vastsever8850_mvl/mxv
	.byte	W01
	.byte		MOD   , 12
	.byte	W01
	.byte		        10
	.byte		VOL   , 65*vastsever8850_mvl/mxv
	.byte		MOD   , 8
	.byte	W01
	.byte		        7
	.byte	W01
	.byte		        5
	.byte		VOL   , 64*vastsever8850_mvl/mxv
	.byte	W01
@ 072   ----------------------------------------
	.byte		MOD   , 0
	.byte		VOL   , 63*vastsever8850_mvl/mxv
	.byte	W03
	.byte		        62*vastsever8850_mvl/mxv
	.byte	W01
	.byte		        61*vastsever8850_mvl/mxv
	.byte	W02
	.byte		        60*vastsever8850_mvl/mxv
	.byte	W02
	.byte		        59*vastsever8850_mvl/mxv
	.byte	W02
	.byte		        58*vastsever8850_mvl/mxv
	.byte	W02
	.byte		        57*vastsever8850_mvl/mxv
	.byte	W02
	.byte		        56*vastsever8850_mvl/mxv
	.byte	W01
	.byte		        55*vastsever8850_mvl/mxv
	.byte	W03
	.byte		        54*vastsever8850_mvl/mxv
	.byte	W01
	.byte		        53*vastsever8850_mvl/mxv
	.byte	W02
	.byte		        52*vastsever8850_mvl/mxv
	.byte	W02
	.byte		        51*vastsever8850_mvl/mxv
	.byte	W02
	.byte		        50*vastsever8850_mvl/mxv
	.byte	W02
	.byte		        49*vastsever8850_mvl/mxv
	.byte	W02
	.byte		        48*vastsever8850_mvl/mxv
	.byte	W01
	.byte		        47*vastsever8850_mvl/mxv
	.byte	W03
	.byte		        46*vastsever8850_mvl/mxv
	.byte	W01
	.byte		        45*vastsever8850_mvl/mxv
	.byte	W02
	.byte		        44*vastsever8850_mvl/mxv
	.byte	W02
	.byte		        43*vastsever8850_mvl/mxv
	.byte	W02
	.byte		        42*vastsever8850_mvl/mxv
	.byte	W02
	.byte		        41*vastsever8850_mvl/mxv
	.byte	W02
	.byte		        40*vastsever8850_mvl/mxv
	.byte	W01
	.byte		        39*vastsever8850_mvl/mxv
	.byte	W02
	.byte		EOT   
	.byte	W01
	.byte		VOL   , 38*vastsever8850_mvl/mxv
	.byte	W01
	.byte		        37*vastsever8850_mvl/mxv
	.byte	W44
	.byte	W03
@ 073   ----------------------------------------
	.byte	W92
	.byte	W02
	.byte		        120*vastsever8850_mvl/mxv
	.byte	W02
@ 074   ----------------------------------------
	.byte	W96
@ 075   ----------------------------------------
	.byte	W96
@ 076   ----------------------------------------
	.byte	W96
@ 077   ----------------------------------------
	.byte	W96
@ 078   ----------------------------------------
	.byte	W96
@ 079   ----------------------------------------
	.byte	W96
@ 080   ----------------------------------------
	.byte	W96
@ 081   ----------------------------------------
	.byte	W96
@ 082   ----------------------------------------
	.byte	W96
@ 083   ----------------------------------------
	.byte	W96
@ 084   ----------------------------------------
	.byte	W96
@ 085   ----------------------------------------
	.byte	W96
@ 086   ----------------------------------------
	.byte	W96
@ 087   ----------------------------------------
	.byte	W96
@ 088   ----------------------------------------
	.byte	W96
@ 089   ----------------------------------------
	.byte	W96
@ 090   ----------------------------------------
	.byte	W96
@ 091   ----------------------------------------
	.byte	W96
@ 092   ----------------------------------------
	.byte	W96
@ 093   ----------------------------------------
	.byte	PATT
	 .word	vastsever8850_3_033
@ 094   ----------------------------------------
	.byte	PATT
	 .word	vastsever8850_3_034
@ 095   ----------------------------------------
	.byte	PATT
	 .word	vastsever8850_3_035
@ 096   ----------------------------------------
	.byte	PATT
	 .word	vastsever8850_3_036
@ 097   ----------------------------------------
	.byte	PATT
	 .word	vastsever8850_3_037
@ 098   ----------------------------------------
	.byte	PATT
	 .word	vastsever8850_3_038
@ 099   ----------------------------------------
	.byte	PATT
	 .word	vastsever8850_3_039
@ 100   ----------------------------------------
	.byte	PATT
	 .word	vastsever8850_3_040
@ 101   ----------------------------------------
	.byte	PATT
	 .word	vastsever8850_3_041
@ 102   ----------------------------------------
	.byte	PATT
	 .word	vastsever8850_3_042
@ 103   ----------------------------------------
	.byte	PATT
	 .word	vastsever8850_3_043
@ 104   ----------------------------------------
	.byte		N68   , En4 , v112
	.byte	W22
	.byte		MOD   , 5
	.byte	W01
	.byte		        10
	.byte	W01
	.byte		        20
	.byte	W01
	.byte		        25
	.byte	W01
	.byte		        30
	.byte	W01
	.byte		        40
	.byte	W01
	.byte		        46
	.byte	W01
	.byte		        51
	.byte	W01
	.byte		        61
	.byte	W01
	.byte		        66
	.byte	W01
	.byte		        71
	.byte	W01
	.byte		        79
	.byte	W36
	.byte		        0
	.byte	W03
	.byte		N11   , As4 , v108
	.byte	W12
	.byte		TIE   , An4 , v100
	.byte	W12
@ 105   ----------------------------------------
	.byte	W02
	.byte		MOD   , 6
	.byte	W01
	.byte		        18
	.byte	W01
	.byte		        23
	.byte	W01
	.byte		        29
	.byte	W01
	.byte		        41
	.byte	W01
	.byte		        47
	.byte	W01
	.byte		        52
	.byte	W01
	.byte		        64
	.byte	W01
	.byte		        70
	.byte	W01
	.byte		        75
	.byte	W01
	.byte		        87
	.byte	W01
	.byte		        92
	.byte	W76
	.byte		EOT   
	.byte	W04
	.byte		MOD   , 0
	.byte	W03
@ 106   ----------------------------------------
	.byte	W96
@ 107   ----------------------------------------
	.byte	W96
@ 108   ----------------------------------------
	.byte	W96
@ 109   ----------------------------------------
	.byte	W96
@ 110   ----------------------------------------
	.byte	W96
@ 111   ----------------------------------------
	.byte	W96
@ 112   ----------------------------------------
	.byte	W96
@ 113   ----------------------------------------
	.byte	W96
@ 114   ----------------------------------------
	.byte	W96
@ 115   ----------------------------------------
	.byte	W96
@ 116   ----------------------------------------
	.byte	W96
@ 117   ----------------------------------------
	.byte	W96
@ 118   ----------------------------------------
	.byte	W96
@ 119   ----------------------------------------
	.byte	W96
@ 120   ----------------------------------------
	.byte	W96
@ 121   ----------------------------------------
	.byte	W96
@ 122   ----------------------------------------
	.byte	W96
@ 123   ----------------------------------------
	.byte	W96
@ 124   ----------------------------------------
	.byte	W96
@ 125   ----------------------------------------
	.byte	W96
@ 126   ----------------------------------------
	.byte	W96
@ 127   ----------------------------------------
	.byte	W96
@ 128   ----------------------------------------
	.byte	W96
@ 129   ----------------------------------------
	.byte	W96
@ 130   ----------------------------------------
	.byte		N32   , An4 , v108
	.byte	W36
	.byte		N05   , Fn4 
	.byte	W06
	.byte		        Gn4 , v112
	.byte	W06
	.byte		N28   , An4 , v108
	.byte	W30
	.byte		N05   , Dn4 
	.byte	W06
	.byte		        Fn4 , v096
	.byte	W06
	.byte		        Gn4 , v112
	.byte	W06
@ 131   ----------------------------------------
	.byte		N23   , An4 , v108
	.byte	W24
	.byte		N05   , An3 
	.byte	W06
	.byte		        Dn4 , v112
	.byte	W06
	.byte		        Fn4 , v100
	.byte	W06
	.byte		        Gn4 , v108
	.byte	W06
	.byte		N22   , An4 , v116
	.byte	W24
	.byte		N05   , Fn4 , v108
	.byte	W06
	.byte		        Cn5 , v084
	.byte	W06
	.byte		        As4 , v108
	.byte	W06
	.byte		        Gn4 , v096
	.byte	W06
@ 132   ----------------------------------------
	.byte		N07   , An4 , v108
	.byte	W08
	.byte		        Gn4 , v088
	.byte	W08
	.byte		        Fn4 , v108
	.byte	W08
	.byte		        En4 , v092
	.byte	W08
	.byte		        Dn4 , v100
	.byte	W08
	.byte		        En4 , v108
	.byte	W08
	.byte		N15   , Fn4 , v116
	.byte	W16
	.byte		        An4 , v092
	.byte	W16
	.byte		N07   , Gn4 , v108
	.byte	W08
	.byte		        As4 , v116
	.byte	W08
@ 133   ----------------------------------------
	.byte		N14   , An4 , v108
	.byte	W16
	.byte		N15   , Fn4 
	.byte	W16
	.byte		        Gn4 , v096
	.byte	W16
	.byte		        En4 , v108
	.byte	W16
	.byte		        Dn4 
	.byte	W16
	.byte		        Cs4 , v092
	.byte	W16
@ 134   ----------------------------------------
	.byte		N06   , As3 
	.byte	W06
	.byte		        An3 , v108
	.byte	W06
	.byte		        En3 , v096
	.byte	W06
	.byte		        Cn4 , v108
	.byte	W06
	.byte		        An3 
	.byte	W06
	.byte		        Fn3 , v096
	.byte	W06
	.byte		        Dn4 , v108
	.byte	W06
	.byte		        An3 , v092
	.byte	W06
	.byte		        Fn3 , v108
	.byte	W06
	.byte		        An3 , v084
	.byte	W06
	.byte		        Dn4 , v096
	.byte	W06
	.byte		        Fs4 , v108
	.byte	W06
	.byte		        Fn4 , v096
	.byte	W06
	.byte		        Gs4 , v108
	.byte	W06
	.byte		        Bn4 , v080
	.byte	W06
	.byte		        As4 , v092
	.byte	W06
@ 135   ----------------------------------------
	.byte		        Fn4 , v108
	.byte	W06
	.byte		        Cs5 , v096
	.byte	W06
	.byte		        Cn5 , v100
	.byte	W06
	.byte		        Bn4 , v108
	.byte	W06
	.byte		        As4 , v092
	.byte	W06
	.byte		        An4 , v084
	.byte	W06
	.byte		        Gn4 , v108
	.byte	W05
	.byte		        En4 
	.byte	W07
	.byte		        An4 
	.byte	W06
	.byte		        Gn4 , v096
	.byte	W06
	.byte		        Fn4 , v108
	.byte	W06
	.byte		        En4 , v116
	.byte	W06
	.byte		        Cs4 , v088
	.byte	W06
	.byte		        Fn4 , v100
	.byte	W05
	.byte		        Gn4 , v120
	.byte	W07
	.byte		        As4 , v112
	.byte	W06
@ 136   ----------------------------------------
	.byte		N05   , An4 
	.byte	W06
	.byte		N11   , An4 , v116
	.byte	W12
	.byte		N05   , Gn4 , v112
	.byte	W06
	.byte		N11   , Gn4 , v108
	.byte	W12
	.byte		N05   , Fn4 , v112
	.byte	W06
	.byte		N11   , Fn4 , v108
	.byte	W12
	.byte		N05   , En4 , v116
	.byte	W06
	.byte		N11   , En4 , v096
	.byte	W12
	.byte		N05   , Dn4 , v108
	.byte	W06
	.byte		N11   , Dn4 , v116
	.byte	W12
	.byte		N05   , Cs4 , v108
	.byte	W06
@ 137   ----------------------------------------
	.byte		        An3 
	.byte	W06
	.byte		        En3 
	.byte	W06
	.byte		        Gn3 , v116
	.byte	W06
	.byte		        Dn4 , v108
	.byte	W06
	.byte		        Cn4 , v124
	.byte	W06
	.byte		        Gn4 , v112
	.byte	W06
	.byte		        Dn4 , v124
	.byte	W06
	.byte		        Ds4 , v120
	.byte	W06
	.byte		N11   , En4 , v116
	.byte	W03
	.byte		VOL   , 120*vastsever8850_mvl/mxv
	.byte	W09
	.byte		N05   , Cn4 , v120
	.byte	W06
	.byte		        Gn4 
	.byte	W06
	.byte		N14   , Cn5 , v116
	.byte	W01
	.byte		MOD   , 0
	.byte	W15
	.byte		N04   , Bn4 , v120
	.byte	W04
	.byte		N03   , As4 
	.byte	W04
@ 138   ----------------------------------------
	.byte		TIE   , An4 , v116
	.byte	W10
	.byte		VOL   , 119*vastsever8850_mvl/mxv
	.byte	W02
	.byte		        117*vastsever8850_mvl/mxv
	.byte	W01
	.byte		        116*vastsever8850_mvl/mxv
	.byte	W02
	.byte		        114*vastsever8850_mvl/mxv
	.byte	W01
	.byte		        113*vastsever8850_mvl/mxv
	.byte	W02
	.byte		        111*vastsever8850_mvl/mxv
	.byte	W01
	.byte		        110*vastsever8850_mvl/mxv
	.byte	W01
	.byte		        109*vastsever8850_mvl/mxv
	.byte	W01
	.byte		        108*vastsever8850_mvl/mxv
	.byte	W01
	.byte		        107*vastsever8850_mvl/mxv
	.byte	W01
	.byte		        106*vastsever8850_mvl/mxv
	.byte	W01
	.byte		        105*vastsever8850_mvl/mxv
	.byte	W01
	.byte		        104*vastsever8850_mvl/mxv
	.byte	W01
	.byte		MOD   , 7
	.byte		VOL   , 103*vastsever8850_mvl/mxv
	.byte	W01
	.byte		MOD   , 20
	.byte		VOL   , 102*vastsever8850_mvl/mxv
	.byte	W01
	.byte		MOD   , 27
	.byte		VOL   , 101*vastsever8850_mvl/mxv
	.byte	W01
	.byte		MOD   , 33
	.byte		VOL   , 100*vastsever8850_mvl/mxv
	.byte	W01
	.byte		MOD   , 40
	.byte		VOL   , 99*vastsever8850_mvl/mxv
	.byte		MOD   , 46
	.byte	W01
	.byte		        53
	.byte		VOL   , 98*vastsever8850_mvl/mxv
	.byte	W01
	.byte		MOD   , 60
	.byte		VOL   , 97*vastsever8850_mvl/mxv
	.byte	W01
	.byte		MOD   , 66
	.byte		VOL   , 96*vastsever8850_mvl/mxv
	.byte		MOD   , 73
	.byte	W01
	.byte		        79
	.byte		VOL   , 97*vastsever8850_mvl/mxv
	.byte	W01
	.byte		MOD   , 86
	.byte	W01
	.byte		        99
	.byte	W01
	.byte		        106
	.byte	W01
	.byte		        112
	.byte		VOL   , 98*vastsever8850_mvl/mxv
	.byte	W01
	.byte		MOD   , 127
	.byte	W03
	.byte		VOL   , 99*vastsever8850_mvl/mxv
	.byte	W03
	.byte		        100*vastsever8850_mvl/mxv
	.byte	W03
	.byte		        101*vastsever8850_mvl/mxv
	.byte	W04
	.byte		        102*vastsever8850_mvl/mxv
	.byte	W04
	.byte		        103*vastsever8850_mvl/mxv
	.byte	W04
	.byte		        104*vastsever8850_mvl/mxv
	.byte	W03
	.byte		        105*vastsever8850_mvl/mxv
	.byte	W03
	.byte		        106*vastsever8850_mvl/mxv
	.byte	W04
	.byte		        107*vastsever8850_mvl/mxv
	.byte	W04
	.byte		        108*vastsever8850_mvl/mxv
	.byte	W03
	.byte		        109*vastsever8850_mvl/mxv
	.byte	W04
	.byte		        110*vastsever8850_mvl/mxv
	.byte	W03
	.byte		        111*vastsever8850_mvl/mxv
	.byte	W04
	.byte		        112*vastsever8850_mvl/mxv
	.byte	W03
	.byte		        113*vastsever8850_mvl/mxv
	.byte	W04
	.byte		        114*vastsever8850_mvl/mxv
	.byte	W01
@ 139   ----------------------------------------
	.byte	W03
	.byte		        115*vastsever8850_mvl/mxv
	.byte	W03
	.byte		        116*vastsever8850_mvl/mxv
	.byte	W03
	.byte		        117*vastsever8850_mvl/mxv
	.byte	W14
	.byte		MOD   , 125
	.byte	W01
	.byte		        121
	.byte	W01
	.byte		        118
	.byte	W01
	.byte		        116
	.byte	W01
	.byte		        112
	.byte	W01
	.byte		        110
	.byte	W01
	.byte		        107
	.byte	W01
	.byte		        103
	.byte	W01
	.byte		        101
	.byte	W01
	.byte		        99
	.byte	W01
	.byte		        94
	.byte	W01
	.byte		        92
	.byte	W01
	.byte		        90
	.byte	W01
	.byte		        85
	.byte	W01
	.byte		        83
	.byte	W01
	.byte		        81
	.byte	W01
	.byte		VOL   , 116*vastsever8850_mvl/mxv
	.byte		MOD   , 77
	.byte	W01
	.byte		VOL   , 115*vastsever8850_mvl/mxv
	.byte		MOD   , 74
	.byte	W01
	.byte		VOL   , 114*vastsever8850_mvl/mxv
	.byte		MOD   , 72
	.byte	W01
	.byte		        70
	.byte		VOL   , 113*vastsever8850_mvl/mxv
	.byte		MOD   , 68
	.byte	W01
	.byte		        66
	.byte	W01
	.byte		VOL   , 112*vastsever8850_mvl/mxv
	.byte		MOD   , 63
	.byte	W01
	.byte		VOL   , 111*vastsever8850_mvl/mxv
	.byte		MOD   , 59
	.byte	W01
	.byte		VOL   , 110*vastsever8850_mvl/mxv
	.byte		MOD   , 57
	.byte	W01
	.byte		VOL   , 109*vastsever8850_mvl/mxv
	.byte		MOD   , 55
	.byte	W01
	.byte		        52
	.byte		VOL   , 108*vastsever8850_mvl/mxv
	.byte		MOD   , 50
	.byte	W01
	.byte		VOL   , 107*vastsever8850_mvl/mxv
	.byte		MOD   , 48
	.byte	W01
	.byte		        46
	.byte	W01
	.byte		VOL   , 106*vastsever8850_mvl/mxv
	.byte		MOD   , 41
	.byte	W01
	.byte		VOL   , 105*vastsever8850_mvl/mxv
	.byte		MOD   , 39
	.byte	W01
	.byte		VOL   , 104*vastsever8850_mvl/mxv
	.byte		MOD   , 37
	.byte	W01
	.byte		        35
	.byte		VOL   , 103*vastsever8850_mvl/mxv
	.byte		MOD   , 33
	.byte	W01
	.byte		VOL   , 102*vastsever8850_mvl/mxv
	.byte		MOD   , 30
	.byte	W01
	.byte		        28
	.byte	W01
	.byte		VOL   , 101*vastsever8850_mvl/mxv
	.byte		MOD   , 24
	.byte	W01
	.byte		VOL   , 100*vastsever8850_mvl/mxv
	.byte		MOD   , 22
	.byte	W01
	.byte		VOL   , 99*vastsever8850_mvl/mxv
	.byte		MOD   , 19
	.byte	W01
	.byte		        17
	.byte		VOL   , 98*vastsever8850_mvl/mxv
	.byte		MOD   , 15
	.byte	W01
	.byte		VOL   , 97*vastsever8850_mvl/mxv
	.byte		MOD   , 13
	.byte	W01
	.byte		        11
	.byte	W01
	.byte		VOL   , 96*vastsever8850_mvl/mxv
	.byte		MOD   , 8
	.byte		VOL   , 95*vastsever8850_mvl/mxv
	.byte		MOD   , 6
	.byte	W01
	.byte		        4
	.byte	W01
	.byte		VOL   , 94*vastsever8850_mvl/mxv
	.byte		MOD   , 0
	.byte	W01
	.byte		VOL   , 93*vastsever8850_mvl/mxv
	.byte	W01
	.byte		        92*vastsever8850_mvl/mxv
	.byte	W02
	.byte		        90*vastsever8850_mvl/mxv
	.byte	W02
	.byte		        89*vastsever8850_mvl/mxv
	.byte	W01
	.byte		        88*vastsever8850_mvl/mxv
	.byte	W01
	.byte		        87*vastsever8850_mvl/mxv
	.byte	W02
	.byte		        85*vastsever8850_mvl/mxv
	.byte	W02
	.byte		        84*vastsever8850_mvl/mxv
	.byte	W01
	.byte		        83*vastsever8850_mvl/mxv
	.byte	W01
	.byte		        82*vastsever8850_mvl/mxv
	.byte	W02
	.byte		        80*vastsever8850_mvl/mxv
	.byte	W02
	.byte		        79*vastsever8850_mvl/mxv
	.byte	W01
	.byte		        78*vastsever8850_mvl/mxv
	.byte	W01
	.byte		        77*vastsever8850_mvl/mxv
	.byte	W02
	.byte		        75*vastsever8850_mvl/mxv
	.byte	W02
	.byte		        74*vastsever8850_mvl/mxv
	.byte	W01
	.byte		        73*vastsever8850_mvl/mxv
	.byte	W01
	.byte		        72*vastsever8850_mvl/mxv
	.byte	W01
	.byte		        71*vastsever8850_mvl/mxv
	.byte	W01
	.byte		        70*vastsever8850_mvl/mxv
	.byte	W02
	.byte		EOT   
	.byte		VOL   , 69*vastsever8850_mvl/mxv
	.byte	W01
@ 140   ----------------------------------------
	.byte		        68*vastsever8850_mvl/mxv
	.byte	W01
	.byte		        67*vastsever8850_mvl/mxv
	.byte	W01
	.byte		        66*vastsever8850_mvl/mxv
	.byte	W01
	.byte		        65*vastsever8850_mvl/mxv
	.byte	W02
	.byte		        64*vastsever8850_mvl/mxv
	.byte	W01
	.byte		        63*vastsever8850_mvl/mxv
	.byte	W01
	.byte		        62*vastsever8850_mvl/mxv
	.byte	W01
	.byte		        61*vastsever8850_mvl/mxv
	.byte	W01
	.byte		        60*vastsever8850_mvl/mxv
	.byte	W01
	.byte		        59*vastsever8850_mvl/mxv
	.byte	W02
	.byte		        58*vastsever8850_mvl/mxv
	.byte	W01
	.byte		        57*vastsever8850_mvl/mxv
	.byte	W01
	.byte		        56*vastsever8850_mvl/mxv
	.byte	W01
	.byte		        55*vastsever8850_mvl/mxv
	.byte	W01
	.byte		        54*vastsever8850_mvl/mxv
	.byte	W02
	.byte		        53*vastsever8850_mvl/mxv
	.byte	W01
	.byte		        52*vastsever8850_mvl/mxv
	.byte	W01
	.byte		        51*vastsever8850_mvl/mxv
	.byte	W01
	.byte		        50*vastsever8850_mvl/mxv
	.byte	W01
	.byte		        49*vastsever8850_mvl/mxv
	.byte	W72
	.byte	W02
@ 141   ----------------------------------------
	.byte	W96
@ 142   ----------------------------------------
	.byte	W96
@ 143   ----------------------------------------
	.byte	W96
@ 144   ----------------------------------------
	.byte	W96
@ 145   ----------------------------------------
	.byte	W96
@ 146   ----------------------------------------
	.byte	W96
@ 147   ----------------------------------------
	.byte	W96
@ 148   ----------------------------------------
	.byte	W96
@ 149   ----------------------------------------
	.byte	W96
@ 150   ----------------------------------------
	.byte	W96
@ 151   ----------------------------------------
	.byte	W96
@ 152   ----------------------------------------
	.byte	W96
@ 153   ----------------------------------------
	.byte	W96
@ 154   ----------------------------------------
	.byte	W96
@ 155   ----------------------------------------
	.byte	W96
@ 156   ----------------------------------------
	.byte	W96
@ 157   ----------------------------------------
	.byte	W96
@ 158   ----------------------------------------
	.byte	W96
@ 159   ----------------------------------------
	.byte	W96
@ 160   ----------------------------------------
	.byte	W96
@ 161   ----------------------------------------
	.byte	W96
@ 162   ----------------------------------------
	.byte	W96
@ 163   ----------------------------------------
	.byte	FINE

@**************** Track 4 (Midi-Chn.4) ****************@

vastsever8850_4:
	.byte	KEYSH , vastsever8850_key+0
@ 000   ----------------------------------------
	.byte	W96
@ 001   ----------------------------------------
	.byte		VOICE , 2
	.byte		VOL   , 80*vastsever8850_mvl/mxv
	.byte		PAN   , c_v+0
	.byte	W48
	.byte		MOD   , 0
	.byte		BEND  , c_v+0
	.byte	W24
	.byte	W06
	.byte	W06
	.byte	W06
	.byte	W06
@ 002   ----------------------------------------
vastsever8850_4_002:
	.byte		N92   , An3 , v112
	.byte		N92   , Dn5 
	.byte	W03
	.byte		N90   , Fn5 
	.byte	W03
	.byte		N88   , An5 
	.byte	W90
	.byte	PEND
@ 003   ----------------------------------------
vastsever8850_4_003:
	.byte		N92   , Gn3 , v112
	.byte		N92   , Cn5 
	.byte	W03
	.byte		N90   , En5 
	.byte	W03
	.byte		N88   , An5 
	.byte	W90
	.byte	PEND
@ 004   ----------------------------------------
	.byte	PATT
	 .word	vastsever8850_4_002
@ 005   ----------------------------------------
vastsever8850_4_005:
	.byte		N92   , An3 , v112
	.byte		N92   , Cs5 
	.byte	W03
	.byte		N90   , En5 
	.byte	W03
	.byte		N88   , An5 
	.byte	W90
	.byte	PEND
@ 006   ----------------------------------------
	.byte	PATT
	 .word	vastsever8850_4_002
@ 007   ----------------------------------------
	.byte	PATT
	 .word	vastsever8850_4_003
@ 008   ----------------------------------------
	.byte	PATT
	 .word	vastsever8850_4_002
@ 009   ----------------------------------------
	.byte	PATT
	 .word	vastsever8850_4_005
@ 010   ----------------------------------------
vastsever8850_4_010:
	.byte		N92   , An3 , v112
	.byte		N92   , Dn4 
	.byte		N92   , Fn4 
	.byte		N92   , An4 
	.byte	W96
	.byte	PEND
@ 011   ----------------------------------------
vastsever8850_4_011:
	.byte		N92   , Gn3 , v112
	.byte		N92   , Cn4 
	.byte		N92   , En4 
	.byte		N92   , An4 
	.byte	W96
	.byte	PEND
@ 012   ----------------------------------------
	.byte	PATT
	 .word	vastsever8850_4_010
@ 013   ----------------------------------------
	.byte		N92   , An3 , v112
	.byte		N92   , Cs4 
	.byte		N92   , En4 
	.byte		N92   , An4 
	.byte	W96
@ 014   ----------------------------------------
	.byte	PATT
	 .word	vastsever8850_4_010
@ 015   ----------------------------------------
	.byte	PATT
	 .word	vastsever8850_4_011
@ 016   ----------------------------------------
	.byte	PATT
	 .word	vastsever8850_4_010
@ 017   ----------------------------------------
	.byte		N10   , An3 , v112
	.byte		N10   , Cs4 
	.byte		N10   , En4 
	.byte		N10   , An4 
	.byte	W48
	.byte		N22   , Dn3 
	.byte		N22   , Fn3 
	.byte		N22   , As3 
	.byte		N22   , Dn4 
	.byte	W24
	.byte		        En3 
	.byte		N22   , Gn3 
	.byte		N22   , Cn4 
	.byte		N22   , En4 
	.byte	W24
@ 018   ----------------------------------------
vastsever8850_4_018:
	.byte		N32   , Fn3 , v112
	.byte		N32   , An3 
	.byte		N32   , Dn4 
	.byte		N32   , Fn4 
	.byte	W36
	.byte		N56   , En3 
	.byte		N56   , Gn3 
	.byte		N56   , Cn4 
	.byte		N56   , En4 
	.byte	W60
	.byte	PEND
@ 019   ----------------------------------------
vastsever8850_4_019:
	.byte		N32   , En3 , v112
	.byte		N32   , Gn3 
	.byte		N32   , Cn4 
	.byte		N32   , En4 
	.byte	W36
	.byte		N56   , Fn3 
	.byte		N56   , An3 
	.byte		N56   , Dn4 
	.byte		N56   , Fn4 
	.byte	W60
	.byte	PEND
@ 020   ----------------------------------------
vastsever8850_4_020:
	.byte		N32   , En3 , v112
	.byte		N32   , An3 
	.byte		N32   , Cn4 
	.byte		N32   , En4 
	.byte	W36
	.byte		N56   , Cn3 
	.byte		N56   , En3 
	.byte		N56   , Gn3 
	.byte		N56   , Cn4 
	.byte	W60
	.byte	PEND
@ 021   ----------------------------------------
vastsever8850_4_021:
	.byte		N32   , Dn3 , v112
	.byte		N32   , Fn3 
	.byte		N32   , An3 
	.byte		N32   , Dn4 
	.byte	W36
	.byte		N56   , Cn3 
	.byte		N56   , En3 
	.byte		N56   , Gn3 
	.byte		N56   , Cn4 
	.byte	W60
	.byte	PEND
@ 022   ----------------------------------------
vastsever8850_4_022:
	.byte		N32   , As2 , v112
	.byte		N32   , Dn3 
	.byte		N32   , Fn3 
	.byte		N32   , As3 
	.byte	W36
	.byte		N56   , Cn3 
	.byte		N56   , En3 
	.byte		N56   , Gn3 
	.byte		N56   , Cn4 
	.byte	W60
	.byte	PEND
@ 023   ----------------------------------------
vastsever8850_4_023:
	.byte		N32   , Dn3 , v112
	.byte		N32   , Fn3 
	.byte		N32   , As3 
	.byte		N32   , Dn4 
	.byte	W36
	.byte		N56   , En3 
	.byte		N56   , Gn3 
	.byte		N56   , Cn4 
	.byte		N56   , En4 
	.byte	W60
	.byte	PEND
@ 024   ----------------------------------------
vastsever8850_4_024:
	.byte		N32   , Gn3 , v112
	.byte		N32   , Cn4 
	.byte		N32   , En4 
	.byte		N32   , Gn4 
	.byte	W36
	.byte		N56   , Fn3 
	.byte		N56   , As3 
	.byte		N56   , Dn4 
	.byte		N56   , Fn4 
	.byte	W60
	.byte	PEND
@ 025   ----------------------------------------
vastsever8850_4_025:
	.byte		N10   , Gn3 , v112
	.byte		N10   , Cn4 
	.byte		N10   , En4 
	.byte		N10   , Gn4 
	.byte		N10   , En5 
	.byte		N10   , Gn5 
	.byte	W12
	.byte		N22   , Fn3 
	.byte		N22   , As3 
	.byte		N22   , Dn4 
	.byte		N22   , Fn4 
	.byte		N22   , Dn5 
	.byte		N22   , Fn5 
	.byte	W24
	.byte		        En3 
	.byte		N22   , An3 
	.byte		N22   , Cn4 
	.byte		N22   , En4 
	.byte		N22   , Cn5 
	.byte		N22   , En5 
	.byte	W24
	.byte		N10   , Cs3 
	.byte		N10   , En3 
	.byte		N10   , An3 
	.byte		N10   , Cs4 
	.byte		N10   , An4 
	.byte		N10   , Cs5 
	.byte	W12
	.byte		        Dn3 
	.byte		N10   , Fn3 
	.byte		N10   , Bn3 
	.byte		N10   , Dn4 
	.byte		N10   , Bn4 
	.byte	W12
	.byte		        En3 
	.byte		N10   , Gn3 
	.byte		N10   , Cs4 
	.byte		N10   , En4 
	.byte		N10   , An4 
	.byte		N10   , Cs5 
	.byte		N10   , En5 
	.byte	W12
	.byte	PEND
@ 026   ----------------------------------------
vastsever8850_4_026:
	.byte		N32   , Fn3 , v112
	.byte		N32   , An3 
	.byte		N32   , Dn4 
	.byte		N32   , Fn4 
	.byte		N32   , Fn5 
	.byte	W36
	.byte		N56   , En3 
	.byte		N56   , Gn3 
	.byte		N56   , Cn4 
	.byte		N56   , En4 
	.byte		N21   , En5 
	.byte		N21   , Gn5 
	.byte	W24
	.byte		N10   , Dn5 
	.byte	W12
	.byte		        Fn5 
	.byte	W12
	.byte		        Gn5 
	.byte	W12
	.byte	PEND
@ 027   ----------------------------------------
vastsever8850_4_027:
	.byte		N32   , En3 , v112
	.byte		N32   , Gn3 
	.byte		N32   , Cn4 
	.byte		N32   , En4 
	.byte		N10   , An5 
	.byte	W12
	.byte		        Fn5 
	.byte	W12
	.byte		        Dn5 
	.byte	W12
	.byte		N56   , Fn3 
	.byte		N56   , An3 
	.byte		N56   , Dn4 
	.byte		N56   , Fn4 
	.byte		N21   , Dn5 
	.byte		N21   , Fn5 
	.byte	W24
	.byte		N10   , Dn5 
	.byte	W12
	.byte		        Fn5 
	.byte	W12
	.byte		        Dn5 
	.byte	W12
	.byte	PEND
@ 028   ----------------------------------------
vastsever8850_4_028:
	.byte		N32   , En3 , v112
	.byte		N32   , An3 
	.byte		N32   , Cn4 
	.byte		N32   , En4 
	.byte		N10   , En5 
	.byte	W12
	.byte		        Dn5 
	.byte	W12
	.byte		        Cn5 
	.byte	W12
	.byte		N56   , Cn3 
	.byte		N56   , En3 
	.byte		N56   , Gn3 
	.byte		N56   , Cn4 
	.byte		N21   , Gn4 
	.byte		N21   , Cn5 
	.byte	W24
	.byte		N10   , Fn4 
	.byte	W12
	.byte		        Cn5 
	.byte	W12
	.byte		        An4 
	.byte	W12
	.byte	PEND
@ 029   ----------------------------------------
vastsever8850_4_029:
	.byte		N32   , Dn3 , v112
	.byte		N32   , Fn3 
	.byte		N32   , An3 
	.byte		N32   , Dn4 
	.byte		N10   , Gn4 
	.byte	W12
	.byte		        Cn5 
	.byte	W12
	.byte		        Gn5 
	.byte	W12
	.byte		N56   , En3 
	.byte		N56   , Gn3 
	.byte		N56   , Cn4 
	.byte		N56   , En4 
	.byte		N21   , Cn5 
	.byte		N21   , En5 
	.byte	W24
	.byte		N10   , Cn5 
	.byte	W12
	.byte		        Fn5 
	.byte	W12
	.byte		        Gn5 
	.byte	W12
	.byte	PEND
@ 030   ----------------------------------------
vastsever8850_4_030:
	.byte		N32   , Dn3 , v112
	.byte		N32   , Fn3 
	.byte		N32   , As3 
	.byte		N32   , Dn4 
	.byte		N10   , Fn5 
	.byte	W12
	.byte		        En5 
	.byte	W12
	.byte		        Dn5 
	.byte	W12
	.byte		N56   , Fn3 
	.byte		N56   , An3 
	.byte		N56   , Cn4 
	.byte		N56   , Fn4 
	.byte		N21   , An4 
	.byte		N21   , Cn5 
	.byte	W24
	.byte		N10   , Fn5 
	.byte	W12
	.byte		        En5 
	.byte	W12
	.byte		        Dn5 
	.byte	W12
	.byte	PEND
@ 031   ----------------------------------------
vastsever8850_4_031:
	.byte		N32   , Fn3 , v112
	.byte		N32   , As3 
	.byte		N32   , Dn4 
	.byte		N32   , Fn4 
	.byte		N10   , Fn5 
	.byte	W12
	.byte		        Gn5 
	.byte	W12
	.byte		        An5 
	.byte	W12
	.byte		N56   , Gn3 
	.byte		N56   , As3 
	.byte		N56   , Dn4 
	.byte		N56   , Gn4 
	.byte		N21   , Gn5 
	.byte		N21   , As5 
	.byte	W24
	.byte		N10   , An5 
	.byte	W12
	.byte		        Gn5 
	.byte	W12
	.byte		        Fn5 
	.byte	W12
	.byte	PEND
@ 032   ----------------------------------------
vastsever8850_4_032:
	.byte		N32   , Gn3 , v112
	.byte		N32   , Cn4 
	.byte		N32   , En4 
	.byte		N32   , Gn4 
	.byte		N10   , En5 
	.byte	W12
	.byte		N21   , Cn5 
	.byte		N21   , En5 
	.byte	W24
	.byte		N56   , Fn3 
	.byte		N56   , As3 
	.byte		N56   , Dn4 
	.byte		N56   , Fn4 
	.byte		N10   , Fn5 
	.byte	W12
	.byte		N21   , Dn5 
	.byte		N21   , Fn5 
	.byte	W24
	.byte		N10   , As5 
	.byte	W12
	.byte		N21   , Fn5 
	.byte		N21   , As5 
	.byte	W12
	.byte	PEND
@ 033   ----------------------------------------
vastsever8850_4_033:
	.byte		N32   , Fn3 , v112
	.byte		N32   , As3 
	.byte		N32   , Dn4 
	.byte		N32   , Fn4 
	.byte	W12
	.byte		N10   , An5 
	.byte	W12
	.byte		        En5 
	.byte	W12
	.byte		N56   , En3 
	.byte		N56   , An3 
	.byte		N56   , Cs4 
	.byte		N56   , En4 
	.byte		N10   , Cs5 
	.byte		N10   , En5 
	.byte		N10   , An5 
	.byte	W12
	.byte		        Cs5 
	.byte		N10   , En5 
	.byte		N10   , An5 
	.byte	W12
	.byte		        An4 
	.byte		N10   , Cs5 
	.byte		N10   , En5 
	.byte	W12
	.byte		N21   , Cs5 
	.byte		N21   , En5 
	.byte		N21   , An5 
	.byte	W24
	.byte	PEND
@ 034   ----------------------------------------
vastsever8850_4_034:
	.byte		N04   , Dn3 , v112
	.byte		N04   , Fn3 
	.byte		N04   , As3 
	.byte		N04   , Dn4 
	.byte		N04   , Dn5 
	.byte		N04   , Fn5 
	.byte		N04   , As5 
	.byte	W12
	.byte		        Dn3 
	.byte		N04   , Fn3 
	.byte		N04   , As3 
	.byte		N04   , Dn4 
	.byte	W12
	.byte		        Dn3 
	.byte		N04   , Fn3 
	.byte		N04   , As3 
	.byte		N04   , Dn4 
	.byte	W12
	.byte		        En3 
	.byte		N04   , Gn3 
	.byte		N04   , Cn4 
	.byte		N04   , En4 
	.byte		N04   , Cn5 
	.byte		N04   , En5 
	.byte		N04   , Gn5 
	.byte	W12
	.byte		        En3 
	.byte		N04   , Gn3 
	.byte		N04   , Cn4 
	.byte		N04   , En4 
	.byte	W12
	.byte		        Cn3 
	.byte		N04   , En3 
	.byte		N04   , Gn3 
	.byte		N04   , Cn4 
	.byte	W12
	.byte		        En3 
	.byte		N04   , Gn3 
	.byte		N04   , Cn4 
	.byte		N04   , En4 
	.byte		N04   , Cn5 
	.byte		N04   , En5 
	.byte		N04   , Gn5 
	.byte	W12
	.byte		        En3 
	.byte		N04   , Gn3 
	.byte		N04   , Cn4 
	.byte		N04   , En4 
	.byte	W12
	.byte	PEND
@ 035   ----------------------------------------
vastsever8850_4_035:
	.byte		N04   , En3 , v112
	.byte		N04   , Gn3 
	.byte		N04   , Cn4 
	.byte		N04   , En4 
	.byte		N04   , Cn5 
	.byte		N04   , En5 
	.byte		N04   , Gn5 
	.byte	W12
	.byte		        En3 
	.byte		N04   , Gn3 
	.byte		N04   , Cn4 
	.byte		N04   , En4 
	.byte	W12
	.byte		        En3 
	.byte		N04   , Gn3 
	.byte		N04   , Cn4 
	.byte		N04   , En4 
	.byte	W12
	.byte		        Fn3 
	.byte		N04   , An3 
	.byte		N04   , Dn4 
	.byte		N04   , Fn4 
	.byte		N04   , Dn5 
	.byte		N04   , Fn5 
	.byte		N04   , An5 
	.byte	W12
	.byte		        Fn3 
	.byte		N04   , An3 
	.byte		N04   , Dn4 
	.byte		N04   , Fn4 
	.byte	W12
	.byte		        Dn3 
	.byte		N04   , Fn3 
	.byte		N04   , An3 
	.byte		N04   , Dn4 
	.byte	W12
	.byte		        Fn3 
	.byte		N04   , An3 
	.byte		N04   , Dn4 
	.byte		N04   , Fn4 
	.byte		N04   , Dn5 
	.byte		N04   , Fn5 
	.byte		N04   , An5 
	.byte	W12
	.byte		        Fn3 
	.byte		N04   , An3 
	.byte		N04   , Dn4 
	.byte		N04   , Fn4 
	.byte	W12
	.byte	PEND
@ 036   ----------------------------------------
vastsever8850_4_036:
	.byte		N04   , An3 , v112
	.byte		N04   , Dn4 
	.byte		N04   , Fn4 
	.byte		N04   , An4 
	.byte		N04   , Dn5 
	.byte		N04   , Fn5 
	.byte		N04   , An5 
	.byte	W12
	.byte		        An3 
	.byte		N04   , Dn4 
	.byte		N04   , Fn4 
	.byte		N04   , An4 
	.byte	W12
	.byte		        An3 
	.byte		N04   , Dn4 
	.byte		N04   , Fn4 
	.byte		N04   , An4 
	.byte	W12
	.byte		        Gn3 
	.byte		N04   , Cn4 
	.byte		N04   , En4 
	.byte		N04   , Gn4 
	.byte		N04   , En5 
	.byte		N04   , Gn5 
	.byte		N04   , Cn6 
	.byte	W12
	.byte		        Gn3 
	.byte		N04   , Cn4 
	.byte		N04   , En4 
	.byte		N04   , Gn4 
	.byte	W12
	.byte		        En3 
	.byte		N04   , Gn3 
	.byte		N04   , Cn4 
	.byte		N04   , En4 
	.byte	W12
	.byte		        Gn3 
	.byte		N04   , Cn4 
	.byte		N04   , En4 
	.byte		N04   , Gn4 
	.byte		N04   , En5 
	.byte		N04   , Gn5 
	.byte		N04   , Cn6 
	.byte	W12
	.byte		        Gn3 
	.byte		N04   , Cn4 
	.byte		N04   , En4 
	.byte		N04   , Gn4 
	.byte	W12
	.byte	PEND
@ 037   ----------------------------------------
vastsever8850_4_037:
	.byte		N04   , Fn3 , v112
	.byte		N04   , An3 
	.byte		N04   , Cn4 
	.byte		N04   , Fn4 
	.byte		N04   , Cn5 
	.byte		N04   , Fn5 
	.byte		N04   , An5 
	.byte	W12
	.byte		        Fn3 
	.byte		N04   , An3 
	.byte		N04   , Cn4 
	.byte		N04   , Fn4 
	.byte		N09   , Cn5 
	.byte	W12
	.byte		N04   , Fn3 
	.byte		N04   , An3 
	.byte		N04   , Cn4 
	.byte		N04   , Fn4 
	.byte		N09   , Fn5 
	.byte	W12
	.byte		N04   , En3 
	.byte		N04   , An3 
	.byte		N04   , Cn4 
	.byte		N04   , En4 
	.byte		N04   , Cn5 
	.byte		N04   , En5 
	.byte		N04   , An5 
	.byte	W12
	.byte		N09   , En3 
	.byte		N09   , An3 
	.byte		N09   , Cn4 
	.byte		N09   , En4 
	.byte		N09   , En5 
	.byte	W12
	.byte		        Cn3 
	.byte		N09   , En3 
	.byte		N09   , An3 
	.byte		N09   , Cn4 
	.byte		N09   , Cn5 
	.byte	W12
	.byte		N08   , En3 
	.byte		N08   , An3 
	.byte		N08   , Cn4 
	.byte		N08   , En4 
	.byte		N09   , Cn5 
	.byte		N09   , En5 
	.byte		N09   , An5 
	.byte	W12
	.byte		N08   , En3 
	.byte		N08   , An3 
	.byte		N08   , Cn4 
	.byte		N08   , En4 
	.byte		N09   , Cn5 
	.byte		N09   , En5 
	.byte		N09   , An5 
	.byte	W12
	.byte	PEND
@ 038   ----------------------------------------
	.byte	PATT
	 .word	vastsever8850_4_034
@ 039   ----------------------------------------
	.byte	PATT
	 .word	vastsever8850_4_035
@ 040   ----------------------------------------
vastsever8850_4_040:
	.byte		N04   , An3 , v112
	.byte		N04   , Dn4 
	.byte		N04   , Fn4 
	.byte		N04   , An4 
	.byte		N04   , Dn5 
	.byte		N04   , Fn5 
	.byte		N04   , An5 
	.byte	W12
	.byte		        An3 
	.byte		N04   , Dn4 
	.byte		N04   , Fn4 
	.byte		N04   , An4 
	.byte	W12
	.byte		        An3 
	.byte		N04   , Dn4 
	.byte		N04   , Fn4 
	.byte		N04   , An4 
	.byte	W12
	.byte		        Gn3 
	.byte		N04   , As3 
	.byte		N04   , En4 
	.byte		N04   , Gn4 
	.byte		N04   , En5 
	.byte		N04   , Gn5 
	.byte		N04   , As5 
	.byte	W12
	.byte		        Gn3 
	.byte		N04   , As3 
	.byte		N04   , En4 
	.byte		N04   , Gn4 
	.byte	W12
	.byte		        En3 
	.byte		N04   , Gn3 
	.byte		N04   , As3 
	.byte		N04   , En4 
	.byte	W12
	.byte		        Gn3 
	.byte		N04   , As3 
	.byte		N04   , En4 
	.byte		N04   , Gn4 
	.byte		N04   , En5 
	.byte		N04   , Gn5 
	.byte		N04   , As5 
	.byte	W12
	.byte		        Gn3 
	.byte		N04   , As3 
	.byte		N04   , En4 
	.byte		N04   , Gn4 
	.byte	W12
	.byte	PEND
@ 041   ----------------------------------------
vastsever8850_4_041:
	.byte		N04   , Gn3 , v112
	.byte		N04   , Cn4 
	.byte		N04   , En4 
	.byte		N04   , Gn4 
	.byte		N04   , Cn5 
	.byte		N04   , En5 
	.byte		N04   , Gn5 
	.byte	W12
	.byte		        Gn3 
	.byte		N04   , Cn4 
	.byte		N04   , En4 
	.byte		N04   , Gn4 
	.byte		N04   , Cn5 
	.byte		N04   , En5 
	.byte		N04   , Gn5 
	.byte	W12
	.byte		        Gn3 
	.byte		N04   , Cn4 
	.byte		N04   , En4 
	.byte		N04   , Gn4 
	.byte		N04   , Cn5 
	.byte		N04   , En5 
	.byte		N04   , Gn5 
	.byte	W12
	.byte		N23   , An3 
	.byte		N23   , Cs4 
	.byte		N23   , En4 
	.byte		N23   , An4 
	.byte		N56   , Cs5 
	.byte		N56   , En5 
	.byte		N56   , An5 
	.byte	W24
	.byte		N11   , En3 
	.byte		N11   , An3 
	.byte		N11   , Cs4 
	.byte		N11   , En4 
	.byte	W12
	.byte		N22   , An3 
	.byte		N22   , Cs4 
	.byte		N22   , En4 
	.byte		N22   , An4 
	.byte	W24
	.byte	PEND
@ 042   ----------------------------------------
vastsever8850_4_042:
	.byte		N32   , Dn3 , v112
	.byte		N32   , Fn3 
	.byte		N32   , As3 
	.byte		N32   , Dn4 
	.byte		N04   , Fn5 
	.byte	W06
	.byte		        En5 
	.byte	W06
	.byte		        Dn5 
	.byte	W06
	.byte		        An4 
	.byte	W06
	.byte		        Fn5 
	.byte	W06
	.byte		        En5 
	.byte	W06
	.byte		N56   , Dn3 
	.byte		N56   , Fn3 
	.byte		N56   , As3 
	.byte		N56   , Dn4 
	.byte		N04   , Dn5 
	.byte	W06
	.byte		        An4 
	.byte	W06
	.byte		        Fn5 
	.byte	W06
	.byte		        En5 
	.byte	W06
	.byte		        Dn5 
	.byte	W06
	.byte		        An4 
	.byte	W06
	.byte		        Fn5 
	.byte	W06
	.byte		        En5 
	.byte	W06
	.byte		        Dn5 
	.byte	W06
	.byte		        An4 
	.byte	W06
	.byte	PEND
@ 043   ----------------------------------------
vastsever8850_4_043:
	.byte		N32   , Dn3 , v112
	.byte		N32   , Gn3 
	.byte		N32   , As3 
	.byte		N32   , Dn4 
	.byte		N04   , Fn5 
	.byte	W06
	.byte		        En5 
	.byte	W06
	.byte		        Dn5 
	.byte	W06
	.byte		        An4 
	.byte	W06
	.byte		        Fn5 
	.byte	W06
	.byte		        En5 
	.byte	W06
	.byte		N56   , Dn3 
	.byte		N56   , Gn3 
	.byte		N56   , As3 
	.byte		N56   , Dn4 
	.byte		N04   , Dn5 
	.byte	W06
	.byte		        An4 
	.byte	W06
	.byte		        Fn5 
	.byte	W06
	.byte		        En5 
	.byte	W06
	.byte		        Dn5 
	.byte	W06
	.byte		        An4 
	.byte	W06
	.byte		        Fn5 
	.byte	W06
	.byte		        En5 
	.byte	W06
	.byte		        Dn5 
	.byte	W06
	.byte		        An4 
	.byte	W06
	.byte	PEND
@ 044   ----------------------------------------
vastsever8850_4_044:
	.byte		N32   , En3 , v112
	.byte		N32   , An3 
	.byte		N32   , Cs4 
	.byte		N32   , En4 
	.byte		N04   , An5 
	.byte	W06
	.byte		        En5 
	.byte	W06
	.byte		        Cs5 
	.byte	W06
	.byte		        An4 
	.byte	W06
	.byte		        An5 
	.byte	W06
	.byte		        En5 
	.byte	W06
	.byte		N56   , En3 
	.byte		N56   , An3 
	.byte		N56   , Cs4 
	.byte		N56   , En4 
	.byte		N04   , Cs5 
	.byte	W06
	.byte		        An4 
	.byte	W06
	.byte		        An5 
	.byte	W06
	.byte		        En5 
	.byte	W06
	.byte		        Cs5 
	.byte	W06
	.byte		        An4 
	.byte	W06
	.byte		        An5 
	.byte	W06
	.byte		        En5 
	.byte	W06
	.byte		        Cs5 
	.byte	W06
	.byte		        An4 
	.byte	W06
	.byte	PEND
@ 045   ----------------------------------------
vastsever8850_4_045:
	.byte		N23   , Cs3 , v112
	.byte		N23   , En3 
	.byte		N23   , An3 
	.byte		N04   , An4 
	.byte		N04   , Cs5 
	.byte		N04   , En5 
	.byte		N04   , An5 
	.byte	W06
	.byte		N10   , An4 
	.byte		N10   , Cs5 
	.byte		N10   , En5 
	.byte		N10   , An5 
	.byte	W12
	.byte		N04   , En4 
	.byte		N04   , An4 
	.byte		N04   , Cs5 
	.byte		N04   , En5 
	.byte	W06
	.byte		N23   , Cs3 
	.byte		N23   , En3 
	.byte		N23   , An3 
	.byte		N10   , En4 
	.byte		N10   , An4 
	.byte		N10   , Cs5 
	.byte		N10   , En5 
	.byte	W12
	.byte		N04   , Cs4 
	.byte		N04   , En4 
	.byte		N04   , An4 
	.byte		N04   , Cs5 
	.byte	W06
	.byte		N10   , Cs4 
	.byte		N10   , En4 
	.byte		N10   , An4 
	.byte		N10   , Cs5 
	.byte	W06
	.byte		N23   , An2 
	.byte		N23   , Cs3 
	.byte		N23   , En3 
	.byte	W06
	.byte		N04   , An3 
	.byte		N04   , Cs4 
	.byte		N04   , En4 
	.byte		N04   , An4 
	.byte	W06
	.byte		N10   , An3 
	.byte		N10   , Cs4 
	.byte		N10   , En4 
	.byte		N10   , An4 
	.byte	W12
	.byte		N23   , En2 
	.byte		N23   , An2 
	.byte		N23   , Cs3 
	.byte		N04   , An3 
	.byte		N04   , Cs4 
	.byte		N04   , En4 
	.byte		N04   , An4 
	.byte	W06
	.byte		        En3 
	.byte		N04   , An3 
	.byte		N04   , Cs4 
	.byte		N04   , En4 
	.byte	W06
	.byte		        An3 
	.byte		N04   , Cs4 
	.byte		N04   , En4 
	.byte		N04   , An4 
	.byte	W06
	.byte		        En3 
	.byte		N04   , An3 
	.byte		N04   , Cs4 
	.byte		N04   , En4 
	.byte	W06
	.byte	PEND
@ 046   ----------------------------------------
vastsever8850_4_046:
	.byte		N05   , Dn3 , v112
	.byte		N05   , Fn3 
	.byte		N05   , An3 
	.byte		N05   , Dn4 
	.byte		N05   , Fn4 
	.byte		N05   , An4 
	.byte	W12
	.byte		        Dn3 
	.byte		N05   , Fn3 
	.byte		N05   , An3 
	.byte	W12
	.byte		        Dn3 
	.byte		N05   , Fn3 
	.byte		N05   , An3 
	.byte	W12
	.byte		        Dn3 
	.byte		N05   , Fn3 
	.byte		N05   , An3 
	.byte		N05   , Dn4 
	.byte		N05   , Fn4 
	.byte		N05   , An4 
	.byte	W12
	.byte		        Dn3 
	.byte		N05   , Fn3 
	.byte		N05   , An3 
	.byte	W12
	.byte		        Dn3 
	.byte		N05   , Fn3 
	.byte		N05   , An3 
	.byte	W12
	.byte		        Dn3 
	.byte		N05   , Fn3 
	.byte		N05   , An3 
	.byte		N05   , Dn4 
	.byte		N05   , Fn4 
	.byte		N05   , An4 
	.byte	W12
	.byte		        Dn3 
	.byte		N05   , Fn3 
	.byte		N05   , An3 
	.byte	W12
	.byte	PEND
@ 047   ----------------------------------------
vastsever8850_4_047:
	.byte		N05   , Cn3 , v112
	.byte		N05   , En3 
	.byte		N05   , Gn3 
	.byte		N05   , Cn4 
	.byte		N05   , En4 
	.byte		N05   , Gn4 
	.byte	W12
	.byte		        Cn3 
	.byte		N05   , En3 
	.byte		N05   , Gn3 
	.byte	W12
	.byte		        Cn3 
	.byte		N05   , En3 
	.byte		N05   , Gn3 
	.byte	W12
	.byte		        Cn3 
	.byte		N05   , En3 
	.byte		N05   , Gn3 
	.byte		N05   , Cn4 
	.byte		N05   , En4 
	.byte		N05   , Gn4 
	.byte	W12
	.byte		        Cn3 
	.byte		N05   , En3 
	.byte		N05   , Gn3 
	.byte	W12
	.byte		        Cn3 
	.byte		N05   , En3 
	.byte		N05   , Gn3 
	.byte	W12
	.byte		        Cn3 
	.byte		N05   , En3 
	.byte		N05   , Gn3 
	.byte		N05   , Cn4 
	.byte		N05   , En4 
	.byte		N05   , Gn4 
	.byte	W12
	.byte		        Cn3 
	.byte		N05   , En3 
	.byte		N05   , Gn3 
	.byte	W12
	.byte	PEND
@ 048   ----------------------------------------
vastsever8850_4_048:
	.byte		N05   , Bn2 , v112
	.byte		N05   , Dn3 
	.byte		N05   , Gn3 
	.byte		N05   , Bn3 
	.byte		N05   , Dn4 
	.byte		N05   , Gn4 
	.byte	W12
	.byte		        Bn2 
	.byte		N05   , Dn3 
	.byte		N05   , Gn3 
	.byte	W12
	.byte		        Bn2 
	.byte		N05   , Dn3 
	.byte		N05   , Gn3 
	.byte	W12
	.byte		        Bn2 
	.byte		N05   , Dn3 
	.byte		N05   , Gn3 
	.byte		N05   , Bn3 
	.byte		N05   , Dn4 
	.byte		N05   , Gn4 
	.byte	W12
	.byte		        Bn2 
	.byte		N05   , Dn3 
	.byte		N05   , Gn3 
	.byte	W12
	.byte		        Bn2 
	.byte		N05   , Dn3 
	.byte		N05   , Gn3 
	.byte	W12
	.byte		        Bn2 
	.byte		N05   , Dn3 
	.byte		N05   , Gn3 
	.byte		N05   , Bn3 
	.byte		N05   , Dn4 
	.byte		N05   , Gn4 
	.byte	W12
	.byte		        Bn2 
	.byte		N05   , Dn3 
	.byte		N05   , Gn3 
	.byte	W12
	.byte	PEND
@ 049   ----------------------------------------
vastsever8850_4_049:
	.byte		N05   , Dn3 , v112
	.byte		N05   , Fn3 
	.byte		N05   , As3 
	.byte		N05   , Dn4 
	.byte		N05   , Fn4 
	.byte		N05   , As4 
	.byte	W12
	.byte		        Dn3 
	.byte		N05   , Fn3 
	.byte		N05   , As3 
	.byte	W12
	.byte		        Dn3 
	.byte		N05   , Fn3 
	.byte		N05   , As3 
	.byte	W12
	.byte		        Dn3 
	.byte		N05   , Fn3 
	.byte		N05   , As3 
	.byte		N05   , Dn4 
	.byte		N05   , Fn4 
	.byte		N05   , As4 
	.byte	W12
	.byte		        En3 
	.byte		N05   , An3 
	.byte		N05   , Cn4 
	.byte	W12
	.byte		        En3 
	.byte		N05   , An3 
	.byte		N05   , Cn4 
	.byte	W12
	.byte		        En3 
	.byte		N05   , An3 
	.byte		N05   , Cn4 
	.byte		N05   , En4 
	.byte		N05   , An4 
	.byte		N05   , Cn5 
	.byte	W12
	.byte		        En3 
	.byte		N05   , An3 
	.byte		N05   , Cn4 
	.byte	W12
	.byte	PEND
@ 050   ----------------------------------------
vastsever8850_4_050:
	.byte		N05   , Fn3 , v112
	.byte		N05   , As3 
	.byte		N05   , Dn4 
	.byte		N05   , Fn4 
	.byte		N05   , As4 
	.byte		N05   , Dn5 
	.byte	W12
	.byte		        Fn3 
	.byte		N05   , As3 
	.byte		N05   , Dn4 
	.byte	W12
	.byte		        Fn3 
	.byte		N05   , As3 
	.byte		N05   , Dn4 
	.byte	W12
	.byte		        Fn3 
	.byte		N05   , As3 
	.byte		N05   , Dn4 
	.byte		N05   , Fn4 
	.byte		N05   , As4 
	.byte		N05   , Dn5 
	.byte	W12
	.byte		        Fn3 
	.byte		N05   , As3 
	.byte		N05   , Dn4 
	.byte	W12
	.byte		        Fn3 
	.byte		N05   , As3 
	.byte		N05   , Dn4 
	.byte	W12
	.byte		        Fn3 
	.byte		N05   , As3 
	.byte		N05   , Dn4 
	.byte		N05   , Fn4 
	.byte		N05   , As4 
	.byte		N05   , Dn5 
	.byte	W12
	.byte		        Fn3 
	.byte		N05   , As3 
	.byte		N05   , Dn4 
	.byte	W12
	.byte	PEND
@ 051   ----------------------------------------
vastsever8850_4_051:
	.byte		N05   , Gn3 , v112
	.byte		N05   , As3 
	.byte		N05   , En4 
	.byte		N05   , Gn4 
	.byte		N05   , As4 
	.byte		N05   , En5 
	.byte	W12
	.byte		        Gn3 
	.byte		N05   , As3 
	.byte		N05   , En4 
	.byte	W12
	.byte		        Gn3 
	.byte		N05   , As3 
	.byte		N05   , En4 
	.byte	W12
	.byte		        Gn3 
	.byte		N05   , As3 
	.byte		N05   , En4 
	.byte		N05   , Gn4 
	.byte		N05   , As4 
	.byte		N05   , En5 
	.byte	W12
	.byte		        Gn3 
	.byte		N05   , As3 
	.byte		N05   , En4 
	.byte	W12
	.byte		        Gn3 
	.byte		N05   , As3 
	.byte		N05   , En4 
	.byte	W12
	.byte		        Gn3 
	.byte		N05   , As3 
	.byte		N05   , En4 
	.byte		N05   , Gn4 
	.byte		N05   , As4 
	.byte		N05   , En5 
	.byte	W12
	.byte		        Gn3 
	.byte		N05   , As3 
	.byte		N05   , En4 
	.byte	W12
	.byte	PEND
@ 052   ----------------------------------------
vastsever8850_4_052:
	.byte		N05   , As3 , v112
	.byte		N05   , Dn4 
	.byte		N05   , Gn4 
	.byte		N05   , As4 
	.byte		N05   , Dn5 
	.byte		N05   , Gn5 
	.byte	W12
	.byte		        As3 
	.byte		N05   , Dn4 
	.byte		N05   , Gn4 
	.byte	W12
	.byte		        As3 
	.byte		N05   , Dn4 
	.byte		N05   , Gn4 
	.byte	W12
	.byte		        As3 
	.byte		N05   , Dn4 
	.byte		N05   , Gn4 
	.byte		N05   , As4 
	.byte		N05   , Dn5 
	.byte		N05   , Gn5 
	.byte	W12
	.byte		        As3 
	.byte		N05   , Dn4 
	.byte		N05   , Gn4 
	.byte	W12
	.byte		        As3 
	.byte		N05   , Dn4 
	.byte		N05   , Gn4 
	.byte	W12
	.byte		        As3 
	.byte		N05   , Dn4 
	.byte		N05   , Gn4 
	.byte		N05   , As4 
	.byte		N05   , Dn5 
	.byte		N05   , Gn5 
	.byte	W12
	.byte		        As3 
	.byte		N05   , Dn4 
	.byte		N05   , Gn4 
	.byte	W12
	.byte	PEND
@ 053   ----------------------------------------
vastsever8850_4_053:
	.byte		N05   , An3 , v112
	.byte		N05   , Dn4 
	.byte		N05   , Fn4 
	.byte		N05   , An4 
	.byte		N05   , Dn5 
	.byte		N05   , Fn5 
	.byte	W12
	.byte		        An3 
	.byte		N05   , Dn4 
	.byte		N05   , Fn4 
	.byte	W12
	.byte		        An3 
	.byte		N05   , Dn4 
	.byte		N05   , Fn4 
	.byte	W12
	.byte		        An3 
	.byte		N05   , Dn4 
	.byte		N05   , Fn4 
	.byte		N05   , An4 
	.byte		N05   , Dn5 
	.byte		N05   , Fn5 
	.byte	W12
	.byte		        Cs4 
	.byte		N05   , En4 
	.byte		N05   , An4 
	.byte	W12
	.byte		        Cs4 
	.byte		N05   , En4 
	.byte		N05   , An4 
	.byte		N05   , Cs5 
	.byte		N05   , En5 
	.byte		N05   , An5 
	.byte	W12
	.byte		        An3 
	.byte		N05   , Cs4 
	.byte		N05   , En4 
	.byte		N05   , An4 
	.byte		N05   , Cs5 
	.byte		N05   , En5 
	.byte	W12
	.byte		        Cs4 
	.byte		N05   , En4 
	.byte		N05   , An4 
	.byte		N05   , Cs5 
	.byte		N05   , En5 
	.byte		N05   , An5 
	.byte	W12
	.byte	PEND
@ 054   ----------------------------------------
	.byte	PATT
	 .word	vastsever8850_4_046
@ 055   ----------------------------------------
	.byte	PATT
	 .word	vastsever8850_4_047
@ 056   ----------------------------------------
	.byte	PATT
	 .word	vastsever8850_4_048
@ 057   ----------------------------------------
	.byte	PATT
	 .word	vastsever8850_4_049
@ 058   ----------------------------------------
vastsever8850_4_058:
	.byte		N05   , Dn3 , v112
	.byte		N05   , Fn3 
	.byte		N05   , As3 
	.byte		N05   , Dn4 
	.byte		N05   , Fn4 
	.byte		N05   , As4 
	.byte		N05   , Dn5 
	.byte	W12
	.byte		        Dn3 
	.byte		N05   , Fn3 
	.byte		N05   , As3 
	.byte		N05   , Dn4 
	.byte	W12
	.byte		        Dn3 
	.byte		N05   , Fn3 
	.byte		N05   , As3 
	.byte		N05   , Dn4 
	.byte	W12
	.byte		        Dn3 
	.byte		N05   , Fn3 
	.byte		N05   , As3 
	.byte		N05   , Dn4 
	.byte		N05   , Fn4 
	.byte		N05   , As4 
	.byte		N05   , Dn5 
	.byte	W12
	.byte		        Dn3 
	.byte		N05   , Fn3 
	.byte		N05   , As3 
	.byte		N05   , Dn4 
	.byte	W12
	.byte		        Dn3 
	.byte		N05   , Fn3 
	.byte		N05   , As3 
	.byte		N05   , Dn4 
	.byte	W12
	.byte		        Dn3 
	.byte		N05   , Fn3 
	.byte		N05   , As3 
	.byte		N05   , Dn4 
	.byte		N05   , Fn4 
	.byte		N05   , As4 
	.byte		N05   , Dn5 
	.byte	W12
	.byte		        Dn3 
	.byte		N05   , Fn3 
	.byte		N05   , As3 
	.byte		N05   , Dn4 
	.byte	W12
	.byte	PEND
@ 059   ----------------------------------------
	.byte	PATT
	 .word	vastsever8850_4_051
@ 060   ----------------------------------------
	.byte	PATT
	 .word	vastsever8850_4_052
@ 061   ----------------------------------------
vastsever8850_4_061:
	.byte		N10   , An3 , v112
	.byte		N10   , Dn4 
	.byte		N10   , Fn4 
	.byte		N10   , An4 
	.byte		N10   , Dn5 
	.byte		N10   , Fn5 
	.byte	W12
	.byte		N22   , An3 
	.byte		N22   , Dn4 
	.byte		N22   , Fn4 
	.byte		N22   , An4 
	.byte		N22   , Dn5 
	.byte		N22   , Fn5 
	.byte	W24
	.byte		N10   , Fn3 
	.byte		N10   , An3 
	.byte		N10   , Dn4 
	.byte		N10   , Fn4 
	.byte		N10   , An4 
	.byte		N10   , Dn5 
	.byte	W12
	.byte		N22   , Fn3 
	.byte		N22   , An3 
	.byte		N22   , Dn4 
	.byte		N22   , Fn4 
	.byte		N22   , An4 
	.byte		N22   , Dn5 
	.byte	W24
	.byte		N10   , Dn3 
	.byte		N10   , Fn3 
	.byte		N10   , An3 
	.byte		N10   , Dn4 
	.byte		N10   , Fn4 
	.byte		N10   , An4 
	.byte	W12
	.byte		        An2 
	.byte		N10   , Dn3 
	.byte		N10   , Fn3 
	.byte		N10   , An3 
	.byte		N10   , Dn4 
	.byte		N10   , Fn4 
	.byte	W12
	.byte	PEND
@ 062   ----------------------------------------
	.byte	PATT
	 .word	vastsever8850_4_002
@ 063   ----------------------------------------
	.byte	PATT
	 .word	vastsever8850_4_003
@ 064   ----------------------------------------
	.byte	PATT
	 .word	vastsever8850_4_002
@ 065   ----------------------------------------
	.byte	PATT
	 .word	vastsever8850_4_005
@ 066   ----------------------------------------
	.byte	PATT
	 .word	vastsever8850_4_002
@ 067   ----------------------------------------
	.byte	PATT
	 .word	vastsever8850_4_003
@ 068   ----------------------------------------
	.byte	PATT
	 .word	vastsever8850_4_002
@ 069   ----------------------------------------
	.byte	PATT
	 .word	vastsever8850_4_005
@ 070   ----------------------------------------
	.byte		N92   , An2 , v112
	.byte		N92   , Dn3 
	.byte		N92   , Fn3 
	.byte		N92   , An3 
	.byte		N17   , Fn4 , v127
	.byte		N17   , An4 
	.byte	W18
	.byte		        En4 
	.byte		N17   , Gn4 
	.byte	W18
	.byte		N22   , Dn4 
	.byte		N22   , Fn4 
	.byte	W24
	.byte		N11   , Cn4 
	.byte	W12
	.byte		N03   , Gn4 
	.byte	W02
	.byte		        An4 
	.byte	W01
	.byte		N07   , Cn5 
	.byte	W09
	.byte		N11   , As4 
	.byte	W12
@ 071   ----------------------------------------
	.byte		N92   , Gn2 , v112
	.byte		N92   , Cn3 
	.byte		N92   , En3 
	.byte		N92   , An3 
	.byte		N32   , Cn4 , v127
	.byte		N32   , Fn4 
	.byte		N32   , An4 
	.byte	W36
	.byte		N32   
	.byte		N32   , Dn5 
	.byte		N32   , Fn5 
	.byte	W36
	.byte		N11   , Gn4 
	.byte		N11   , Cn5 
	.byte		N11   , En5 
	.byte	W12
	.byte		N03   , Dn5 
	.byte	W06
	.byte		        Fn5 
	.byte	W06
@ 072   ----------------------------------------
	.byte		N92   , An2 , v112
	.byte		N92   , Dn3 
	.byte		N92   , Fn3 
	.byte		N92   , An3 
	.byte		N32   , An5 , v127
	.byte	W36
	.byte		        Gn5 
	.byte	W36
	.byte		N03   , Fn5 
	.byte	W06
	.byte		        En5 
	.byte	W06
	.byte		        An4 
	.byte	W06
	.byte		        Dn5 
	.byte	W06
@ 073   ----------------------------------------
	.byte		N92   , An2 , v112
	.byte		N92   , Cs3 
	.byte		N92   , En3 
	.byte		N92   , An3 
	.byte		N32   , Dn5 , v127
	.byte		N32   , Fn5 
	.byte	W36
	.byte		N03   , En5 
	.byte	W06
	.byte		        Dn5 
	.byte	W06
	.byte		N05   , An4 
	.byte		N05   , Cs5 
	.byte	W12
	.byte		N22   , En5 
	.byte		N22   , An5 
	.byte		N22   , Cn6 
	.byte	W24
	.byte		N05   , Bn5 
	.byte	W06
	.byte		        As5 
	.byte	W06
@ 074   ----------------------------------------
	.byte		N92   , An2 , v112
	.byte		N92   , Dn3 
	.byte		N92   , Fn3 
	.byte		N92   , An3 
	.byte		N14   , An5 , v127
	.byte	W16
	.byte		        An4 
	.byte		N14   , Dn5 
	.byte	W16
	.byte		N15   
	.byte		N15   , Fn5 
	.byte		N15   , An5 
	.byte	W16
	.byte		N14   , An4 
	.byte		N14   , Dn5 
	.byte		N14   , Fn5 
	.byte	W16
	.byte		        Dn5 
	.byte		N14   , Fn5 
	.byte		N14   , An5 
	.byte	W16
	.byte		N15   , Dn5 
	.byte		N15   , Fn5 
	.byte		N15   , An5 
	.byte	W16
@ 075   ----------------------------------------
	.byte		N92   , Gn2 , v112
	.byte		N92   , Cn3 
	.byte		N92   , En3 
	.byte		N92   , An3 
	.byte		N14   , En5 , v127
	.byte		N14   , An5 
	.byte		N14   , Cn6 
	.byte	W16
	.byte		        Cn5 
	.byte		N14   , En5 
	.byte		N14   , An5 
	.byte	W16
	.byte		N15   , An4 
	.byte		N15   , Cn5 
	.byte		N15   , En5 
	.byte	W16
	.byte		N14   
	.byte		N14   , An5 
	.byte		N14   , Cn6 
	.byte	W16
	.byte		        En5 
	.byte		N14   , An5 
	.byte		N14   , Cn6 
	.byte	W16
	.byte		N04   , An4 , v112
	.byte		N04   , Cn5 
	.byte	W04
	.byte		        Gn4 
	.byte		N04   , Bn4 
	.byte	W04
	.byte		        Fn4 
	.byte		N04   , An4 
	.byte	W04
	.byte		N03   , En4 
	.byte		N03   , Gn4 
	.byte	W04
@ 076   ----------------------------------------
	.byte		N92   , An2 
	.byte		N92   , Dn3 
	.byte		N92   , Fn3 
	.byte		N92   , An3 
	.byte		N32   , Dn4 , v127
	.byte		N32   , Fn4 
	.byte		N32   , An4 
	.byte		N32   , Dn5 
	.byte	W36
	.byte		N04   , An4 
	.byte	W06
	.byte		        Dn5 
	.byte	W06
	.byte		N11   , An5 
	.byte	W12
	.byte		N04   , Gn5 
	.byte	W06
	.byte		        Fn5 
	.byte	W06
	.byte		N11   , En5 
	.byte	W12
	.byte		N05   , Dn5 
	.byte	W06
	.byte		        En5 
	.byte	W06
@ 077   ----------------------------------------
	.byte		N10   , An2 , v112
	.byte		N10   , Cs3 
	.byte		N10   , En3 
	.byte		N10   , An3 
	.byte		N05   , An5 , v127
	.byte	W06
	.byte		        Gn5 
	.byte	W06
	.byte		        En5 
	.byte	W06
	.byte		        Gn5 
	.byte	W06
	.byte		        En5 
	.byte	W06
	.byte		        Dn5 
	.byte	W06
	.byte		        En5 
	.byte	W06
	.byte		        Dn5 
	.byte	W06
	.byte		N22   , Dn3 , v112
	.byte		N22   , Fn3 
	.byte		N22   , As3 
	.byte		N22   , Dn4 
	.byte		N05   , As4 , v127
	.byte	W06
	.byte		        Dn5 
	.byte	W06
	.byte		        En5 
	.byte	W06
	.byte		        Fn5 
	.byte	W06
	.byte		N22   , En3 
	.byte		N22   , Gn3 
	.byte		N22   , Cn4 
	.byte		N22   , En4 
	.byte		N15   , Gn4 
	.byte		N15   , Cn5 
	.byte		N15   , En5 
	.byte	W24
@ 078   ----------------------------------------
	.byte	PATT
	 .word	vastsever8850_4_018
@ 079   ----------------------------------------
	.byte	PATT
	 .word	vastsever8850_4_019
@ 080   ----------------------------------------
	.byte	PATT
	 .word	vastsever8850_4_020
@ 081   ----------------------------------------
	.byte	PATT
	 .word	vastsever8850_4_021
@ 082   ----------------------------------------
	.byte	PATT
	 .word	vastsever8850_4_022
@ 083   ----------------------------------------
	.byte	PATT
	 .word	vastsever8850_4_023
@ 084   ----------------------------------------
	.byte	PATT
	 .word	vastsever8850_4_024
@ 085   ----------------------------------------
	.byte	PATT
	 .word	vastsever8850_4_025
@ 086   ----------------------------------------
	.byte	PATT
	 .word	vastsever8850_4_026
@ 087   ----------------------------------------
	.byte	PATT
	 .word	vastsever8850_4_027
@ 088   ----------------------------------------
	.byte	PATT
	 .word	vastsever8850_4_028
@ 089   ----------------------------------------
	.byte	PATT
	 .word	vastsever8850_4_029
@ 090   ----------------------------------------
	.byte	PATT
	 .word	vastsever8850_4_030
@ 091   ----------------------------------------
	.byte	PATT
	 .word	vastsever8850_4_031
@ 092   ----------------------------------------
	.byte	PATT
	 .word	vastsever8850_4_032
@ 093   ----------------------------------------
	.byte	PATT
	 .word	vastsever8850_4_033
@ 094   ----------------------------------------
	.byte	PATT
	 .word	vastsever8850_4_034
@ 095   ----------------------------------------
	.byte	PATT
	 .word	vastsever8850_4_035
@ 096   ----------------------------------------
	.byte	PATT
	 .word	vastsever8850_4_036
@ 097   ----------------------------------------
	.byte	PATT
	 .word	vastsever8850_4_037
@ 098   ----------------------------------------
	.byte	PATT
	 .word	vastsever8850_4_034
@ 099   ----------------------------------------
	.byte	PATT
	 .word	vastsever8850_4_035
@ 100   ----------------------------------------
	.byte	PATT
	 .word	vastsever8850_4_040
@ 101   ----------------------------------------
	.byte	PATT
	 .word	vastsever8850_4_041
@ 102   ----------------------------------------
	.byte	PATT
	 .word	vastsever8850_4_042
@ 103   ----------------------------------------
	.byte	PATT
	 .word	vastsever8850_4_043
@ 104   ----------------------------------------
	.byte	PATT
	 .word	vastsever8850_4_044
@ 105   ----------------------------------------
	.byte	PATT
	 .word	vastsever8850_4_045
@ 106   ----------------------------------------
	.byte	PATT
	 .word	vastsever8850_4_046
@ 107   ----------------------------------------
	.byte	PATT
	 .word	vastsever8850_4_047
@ 108   ----------------------------------------
	.byte	PATT
	 .word	vastsever8850_4_048
@ 109   ----------------------------------------
	.byte	PATT
	 .word	vastsever8850_4_049
@ 110   ----------------------------------------
	.byte	PATT
	 .word	vastsever8850_4_050
@ 111   ----------------------------------------
	.byte	PATT
	 .word	vastsever8850_4_051
@ 112   ----------------------------------------
	.byte	PATT
	 .word	vastsever8850_4_052
@ 113   ----------------------------------------
	.byte	PATT
	 .word	vastsever8850_4_053
@ 114   ----------------------------------------
	.byte	PATT
	 .word	vastsever8850_4_046
@ 115   ----------------------------------------
	.byte	PATT
	 .word	vastsever8850_4_047
@ 116   ----------------------------------------
	.byte	PATT
	 .word	vastsever8850_4_048
@ 117   ----------------------------------------
	.byte	PATT
	 .word	vastsever8850_4_049
@ 118   ----------------------------------------
	.byte	PATT
	 .word	vastsever8850_4_058
@ 119   ----------------------------------------
	.byte	PATT
	 .word	vastsever8850_4_051
@ 120   ----------------------------------------
	.byte	PATT
	 .word	vastsever8850_4_052
@ 121   ----------------------------------------
	.byte	PATT
	 .word	vastsever8850_4_061
@ 122   ----------------------------------------
	.byte	PATT
	 .word	vastsever8850_4_002
@ 123   ----------------------------------------
	.byte	PATT
	 .word	vastsever8850_4_003
@ 124   ----------------------------------------
	.byte	PATT
	 .word	vastsever8850_4_002
@ 125   ----------------------------------------
	.byte	PATT
	 .word	vastsever8850_4_005
@ 126   ----------------------------------------
	.byte	PATT
	 .word	vastsever8850_4_002
@ 127   ----------------------------------------
	.byte	PATT
	 .word	vastsever8850_4_003
@ 128   ----------------------------------------
	.byte	PATT
	 .word	vastsever8850_4_002
@ 129   ----------------------------------------
	.byte	PATT
	 .word	vastsever8850_4_005
@ 130   ----------------------------------------
vastsever8850_4_130:
	.byte		N92   , An2 , v112
	.byte		N92   , Dn3 
	.byte		N92   , Fn3 
	.byte		N92   , An3 
	.byte		N92   , Dn5 
	.byte	W03
	.byte		N90   , Fn5 
	.byte	W03
	.byte		N88   , An5 
	.byte	W90
	.byte	PEND
@ 131   ----------------------------------------
vastsever8850_4_131:
	.byte		N92   , Gn2 , v112
	.byte		N92   , Cn3 
	.byte		N92   , En3 
	.byte		N92   , An3 
	.byte		N92   , Cn5 
	.byte	W03
	.byte		N90   , En5 
	.byte	W03
	.byte		N88   , An5 
	.byte	W90
	.byte	PEND
@ 132   ----------------------------------------
	.byte	PATT
	 .word	vastsever8850_4_130
@ 133   ----------------------------------------
	.byte		N92   , An2 , v112
	.byte		N92   , Cs3 
	.byte		N92   , En3 
	.byte		N92   , An3 
	.byte		N92   , Cs5 
	.byte	W03
	.byte		N90   , En5 
	.byte	W03
	.byte		N88   , An5 
	.byte	W90
@ 134   ----------------------------------------
	.byte	PATT
	 .word	vastsever8850_4_130
@ 135   ----------------------------------------
	.byte	PATT
	 .word	vastsever8850_4_131
@ 136   ----------------------------------------
	.byte	PATT
	 .word	vastsever8850_4_130
@ 137   ----------------------------------------
	.byte		N10   , An2 , v112
	.byte		N10   , Cs3 
	.byte		N10   , En3 
	.byte		N10   , An3 
	.byte		N11   , Dn5 
	.byte	W03
	.byte		N08   , Fn5 
	.byte	W03
	.byte		N05   , An5 
	.byte	W42
	.byte		N22   , Dn3 
	.byte		N22   , Fn3 
	.byte		N22   , As3 
	.byte		N22   , Dn4 
	.byte	W24
	.byte		        En3 , v127
	.byte		N22   , Gn3 
	.byte		N22   , Cn4 
	.byte		N22   , En4 
	.byte	W24
@ 138   ----------------------------------------
	.byte	PATT
	 .word	vastsever8850_4_018
@ 139   ----------------------------------------
	.byte	PATT
	 .word	vastsever8850_4_019
@ 140   ----------------------------------------
	.byte	PATT
	 .word	vastsever8850_4_020
@ 141   ----------------------------------------
	.byte	PATT
	 .word	vastsever8850_4_021
@ 142   ----------------------------------------
	.byte	PATT
	 .word	vastsever8850_4_022
@ 143   ----------------------------------------
	.byte	PATT
	 .word	vastsever8850_4_023
@ 144   ----------------------------------------
	.byte	PATT
	 .word	vastsever8850_4_024
@ 145   ----------------------------------------
	.byte	PATT
	 .word	vastsever8850_4_025
@ 146   ----------------------------------------
	.byte	PATT
	 .word	vastsever8850_4_026
@ 147   ----------------------------------------
	.byte	PATT
	 .word	vastsever8850_4_027
@ 148   ----------------------------------------
	.byte	PATT
	 .word	vastsever8850_4_028
@ 149   ----------------------------------------
	.byte	PATT
	 .word	vastsever8850_4_029
@ 150   ----------------------------------------
	.byte	PATT
	 .word	vastsever8850_4_030
@ 151   ----------------------------------------
	.byte	PATT
	 .word	vastsever8850_4_031
@ 152   ----------------------------------------
	.byte	PATT
	 .word	vastsever8850_4_032
@ 153   ----------------------------------------
	.byte	PATT
	 .word	vastsever8850_4_033
@ 154   ----------------------------------------
	.byte		N32   , Dn3 , v112
	.byte		N32   , Fn3 
	.byte		N32   , An3 
	.byte		N32   , Dn4 
	.byte		N10   , An4 
	.byte		N10   , Dn5 
	.byte		N10   , Fn5 
	.byte	W12
	.byte		N22   , An4 
	.byte		N22   , Dn5 
	.byte		N22   , Fn5 
	.byte	W24
	.byte		N56   , Cn3 
	.byte		N56   , En3 
	.byte		N56   , Gn3 
	.byte		N56   , Cn4 
	.byte		N56   , Gn4 
	.byte		N56   , Cn5 
	.byte		N56   , En5 
	.byte	W60
@ 155   ----------------------------------------
	.byte		N32   , As2 
	.byte		N32   , Dn3 
	.byte		N32   , Gn3 
	.byte		N32   , As3 
	.byte		N10   , Gn4 
	.byte		N10   , As4 
	.byte		N10   , Dn5 
	.byte	W12
	.byte		N22   , Gn4 
	.byte		N22   , As4 
	.byte		N22   , Dn5 
	.byte	W24
	.byte		N56   , Cs3 
	.byte		N56   , En3 
	.byte		N56   , An3 
	.byte		N56   , Cs4 
	.byte		N56   , An4 
	.byte		N56   , Cs5 
	.byte		N56   , En5 
	.byte	W60
@ 156   ----------------------------------------
	.byte		N32   , Gn3 
	.byte		N32   , As3 
	.byte		N32   , Dn4 
	.byte		N32   , Gn4 
	.byte		N10   , Dn5 
	.byte		N10   , Gn5 
	.byte		N10   , As5 
	.byte	W12
	.byte		N22   , Dn5 
	.byte		N22   , Gn5 
	.byte		N22   , As5 
	.byte	W24
	.byte		N56   , En3 
	.byte		N56   , An3 
	.byte		N56   , Cs4 
	.byte		N56   , En4 
	.byte		N56   , Cs5 
	.byte		N56   , En5 
	.byte		N56   , An5 
	.byte	W60
@ 157   ----------------------------------------
	.byte		N32   , En3 
	.byte		N32   , Gn3 
	.byte		N32   , As3 
	.byte		N32   , En4 
	.byte		N10   , As4 
	.byte		N10   , En5 
	.byte		N10   , Gn5 
	.byte	W12
	.byte		N22   , As4 
	.byte		N22   , En5 
	.byte		N22   , Gn5 
	.byte	W24
	.byte		N56   , Cs3 
	.byte		N56   , En3 
	.byte		N56   , An3 
	.byte		N56   , Cs4 
	.byte		N56   , An4 
	.byte		N56   , Cs5 
	.byte		N56   , En5 
	.byte	W60
@ 158   ----------------------------------------
	.byte		TIE   , Dn3 
	.byte		TIE   , Fn3 
	.byte		TIE   , An3 
	.byte		TIE   , Dn4 
	.byte		TIE   , Dn5 
	.byte		TIE   , Fn5 
	.byte		TIE   , An5 
	.byte	W96
@ 159   ----------------------------------------
	.byte	W92
	.byte	W03
	.byte		EOT   , Dn3 
	.byte		        Fn3 
	.byte		        An3 
	.byte		        Dn4 
	.byte		        Dn5 
	.byte		        Fn5 
	.byte		        An5 
	.byte	W01
@ 160   ----------------------------------------
	.byte	W96
@ 161   ----------------------------------------
	.byte	W96
@ 162   ----------------------------------------
	.byte	W96
@ 163   ----------------------------------------
	.byte	FINE

@**************** Track 5 (Midi-Chn.5) ****************@

vastsever8850_5:
	.byte	KEYSH , vastsever8850_key+0
@ 000   ----------------------------------------
	.byte	W96
@ 001   ----------------------------------------
	.byte		VOICE , 73
	.byte		VOL   , 95*vastsever8850_mvl/mxv
	.byte		PAN   , c_v-20
	.byte	W48
	.byte		MOD   , 0
	.byte		BEND  , c_v+0
	.byte	W24
	.byte	W24
@ 002   ----------------------------------------
	.byte	W96
@ 003   ----------------------------------------
	.byte	W96
@ 004   ----------------------------------------
	.byte	W96
@ 005   ----------------------------------------
	.byte	W96
@ 006   ----------------------------------------
	.byte	W96
@ 007   ----------------------------------------
	.byte	W96
@ 008   ----------------------------------------
	.byte	W96
@ 009   ----------------------------------------
	.byte	W96
@ 010   ----------------------------------------
	.byte	W96
@ 011   ----------------------------------------
	.byte	W96
@ 012   ----------------------------------------
	.byte	W96
@ 013   ----------------------------------------
	.byte	W96
@ 014   ----------------------------------------
	.byte	W96
@ 015   ----------------------------------------
	.byte	W96
@ 016   ----------------------------------------
	.byte	W96
@ 017   ----------------------------------------
	.byte	W96
@ 018   ----------------------------------------
	.byte	W96
@ 019   ----------------------------------------
	.byte	W96
@ 020   ----------------------------------------
	.byte	W96
@ 021   ----------------------------------------
	.byte	W96
@ 022   ----------------------------------------
	.byte	W96
@ 023   ----------------------------------------
	.byte	W96
@ 024   ----------------------------------------
	.byte	W96
@ 025   ----------------------------------------
	.byte	W96
@ 026   ----------------------------------------
	.byte	W96
@ 027   ----------------------------------------
	.byte	W96
@ 028   ----------------------------------------
	.byte	W96
@ 029   ----------------------------------------
	.byte	W96
@ 030   ----------------------------------------
	.byte	W96
@ 031   ----------------------------------------
	.byte	W96
@ 032   ----------------------------------------
	.byte	W96
@ 033   ----------------------------------------
	.byte	W96
@ 034   ----------------------------------------
	.byte	W96
@ 035   ----------------------------------------
	.byte	W96
@ 036   ----------------------------------------
	.byte	W96
@ 037   ----------------------------------------
	.byte	W96
@ 038   ----------------------------------------
	.byte	W96
@ 039   ----------------------------------------
	.byte	W96
@ 040   ----------------------------------------
	.byte	W96
@ 041   ----------------------------------------
	.byte	W96
@ 042   ----------------------------------------
vastsever8850_5_042:
	.byte		N92   , An5 , v100
	.byte	W22
	.byte		MOD   , 0
	.byte	W01
	.byte		        7
	.byte	W01
	.byte		        23
	.byte	W01
	.byte		        31
	.byte	W01
	.byte		        39
	.byte	W01
	.byte		        55
	.byte	W01
	.byte		        63
	.byte	W01
	.byte		        71
	.byte	W01
	.byte		        87
	.byte	W01
	.byte		        95
	.byte	W01
	.byte		        103
	.byte	W01
	.byte		        119
	.byte	W01
	.byte		        127
	.byte	W60
	.byte		        0
	.byte	W02
	.byte	PEND
@ 043   ----------------------------------------
vastsever8850_5_043:
	.byte		N92   , Gn5 , v100
	.byte	W24
	.byte	W03
	.byte		MOD   , 12
	.byte	W01
	.byte		        23
	.byte	W01
	.byte		        35
	.byte	W01
	.byte		        58
	.byte	W01
	.byte		        70
	.byte	W01
	.byte		        81
	.byte	W01
	.byte		        104
	.byte	W01
	.byte		        116
	.byte	W01
	.byte		        127
	.byte	W56
	.byte	W03
	.byte		        0
	.byte	W02
	.byte	PEND
@ 044   ----------------------------------------
vastsever8850_5_044:
	.byte		N92   , An5 , v100
	.byte	W24
	.byte	W01
	.byte		MOD   , 14
	.byte	W01
	.byte		        28
	.byte	W01
	.byte		        56
	.byte	W01
	.byte		        71
	.byte	W01
	.byte		        85
	.byte	W01
	.byte		        113
	.byte	W01
	.byte		        127
	.byte	W60
	.byte	W03
	.byte		        0
	.byte	W02
	.byte	PEND
@ 045   ----------------------------------------
vastsever8850_5_045:
	.byte		N04   , An4 , v100
	.byte	W06
	.byte		        En4 
	.byte	W06
	.byte		        Cs5 
	.byte	W06
	.byte		        An4 
	.byte	W06
	.byte		        En5 
	.byte	W06
	.byte		        An4 
	.byte	W06
	.byte		        An5 
	.byte	W06
	.byte		        En5 
	.byte	W06
	.byte		        An4 
	.byte	W06
	.byte		        An5 
	.byte	W06
	.byte		        En5 
	.byte	W06
	.byte		        An4 
	.byte	W06
	.byte		        An5 
	.byte	W12
	.byte		N11   , An4 , v112
	.byte	W12
	.byte	PEND
@ 046   ----------------------------------------
vastsever8850_5_046:
	.byte		N32   , An4 , v112
	.byte	W06
	.byte		MOD   , 0
	.byte	W01
	.byte		        18
	.byte	W01
	.byte		        36
	.byte	W01
	.byte		        73
	.byte	W01
	.byte		        91
	.byte	W01
	.byte		        109
	.byte	W01
	.byte		        127
	.byte	W23
	.byte		        0
	.byte	W01
	.byte		N32   , Gn4 
	.byte	W36
	.byte		N23   , Cn5 
	.byte	W24
	.byte	PEND
@ 047   ----------------------------------------
vastsever8850_5_047:
	.byte		N32   , An4 , v112
	.byte	W06
	.byte		MOD   , 31
	.byte	W01
	.byte		        47
	.byte	W01
	.byte		        63
	.byte	W01
	.byte		        95
	.byte	W01
	.byte		        111
	.byte	W01
	.byte		        127
	.byte	W24
	.byte		        0
	.byte	W01
	.byte		N23   , Dn4 
	.byte	W24
	.byte		N11   , En4 
	.byte	W12
	.byte		        Fn4 
	.byte	W12
	.byte		        Gn4 
	.byte	W12
	.byte	PEND
@ 048   ----------------------------------------
vastsever8850_5_048:
	.byte		N32   , An4 , v112
	.byte	W36
	.byte		        Gn4 
	.byte	W09
	.byte		MOD   , 25
	.byte	W01
	.byte		        51
	.byte	W01
	.byte		        76
	.byte	W01
	.byte		        127
	.byte	W23
	.byte		        0
	.byte	W01
	.byte		N11   , Dn4 
	.byte	W12
	.byte		        En4 
	.byte	W12
	.byte	PEND
@ 049   ----------------------------------------
vastsever8850_5_049:
	.byte		N23   , Fn4 , v112
	.byte	W24
	.byte		N11   , Gn4 
	.byte	W12
	.byte		N32   , En4 
	.byte	W04
	.byte		MOD   , 0
	.byte	W01
	.byte		        15
	.byte	W01
	.byte		        47
	.byte	W01
	.byte		        63
	.byte	W01
	.byte		        79
	.byte	W01
	.byte		        111
	.byte	W01
	.byte		        127
	.byte	W24
	.byte	W01
	.byte		        0
	.byte	W01
	.byte		N23   , Cn4 
	.byte	W24
	.byte	PEND
@ 050   ----------------------------------------
vastsever8850_5_050:
	.byte		N56   , As3 , v112
	.byte	W60
	.byte		N11   , Cn4 
	.byte	W12
	.byte		        Dn4 
	.byte	W12
	.byte		        Fn4 
	.byte	W12
	.byte	PEND
@ 051   ----------------------------------------
vastsever8850_5_051:
	.byte		N32   , En4 , v112
	.byte	W05
	.byte		MOD   , 0
	.byte	W01
	.byte		        32
	.byte	W01
	.byte		        48
	.byte	W01
	.byte		        64
	.byte	W01
	.byte		        96
	.byte	W01
	.byte		        112
	.byte	W01
	.byte		        127
	.byte	W24
	.byte		        0
	.byte	W01
	.byte		N32   , Fn4 
	.byte	W36
	.byte		N23   , Gn4 
	.byte	W24
	.byte	PEND
@ 052   ----------------------------------------
vastsever8850_5_052:
	.byte		N32   , An4 , v112
	.byte	W08
	.byte		MOD   , 21
	.byte	W01
	.byte		        63
	.byte	W01
	.byte		        85
	.byte	W01
	.byte		        107
	.byte	W01
	.byte		        127
	.byte	W23
	.byte		        0
	.byte	W01
	.byte		N32   , Gn4 
	.byte	W36
	.byte		N23   , Cn5 
	.byte	W24
	.byte	PEND
@ 053   ----------------------------------------
vastsever8850_5_053:
	.byte		N44   , An4 , v112
	.byte	W09
	.byte		MOD   , 21
	.byte	W01
	.byte		        42
	.byte	W01
	.byte		        63
	.byte	W01
	.byte		        106
	.byte	W01
	.byte		        127
	.byte	W32
	.byte		        0
	.byte	W03
	.byte		N11   , Dn4 
	.byte	W12
	.byte		        En4 
	.byte	W12
	.byte		        Fn4 
	.byte	W12
	.byte		        Gn4 
	.byte	W12
	.byte	PEND
@ 054   ----------------------------------------
	.byte	PATT
	 .word	vastsever8850_5_046
@ 055   ----------------------------------------
	.byte	PATT
	 .word	vastsever8850_5_047
@ 056   ----------------------------------------
	.byte	PATT
	 .word	vastsever8850_5_048
@ 057   ----------------------------------------
	.byte	PATT
	 .word	vastsever8850_5_049
@ 058   ----------------------------------------
	.byte	PATT
	 .word	vastsever8850_5_050
@ 059   ----------------------------------------
	.byte	PATT
	 .word	vastsever8850_5_051
@ 060   ----------------------------------------
	.byte		N11   , En4 , v112
	.byte	W12
	.byte		        Dn4 
	.byte	W12
	.byte		        Cn5 
	.byte	W12
	.byte		N23   , En5 
	.byte	W24
	.byte		N11   , Gn5 
	.byte	W12
	.byte		        En5 
	.byte	W12
	.byte		N92   , Dn5 
	.byte	W12
@ 061   ----------------------------------------
	.byte	W09
	.byte		MOD   , 21
	.byte	W01
	.byte		        42
	.byte	W01
	.byte		        63
	.byte	W01
	.byte		        106
	.byte	W01
	.byte		        127
	.byte	W76
	.byte	W01
	.byte		        0
	.byte	W06
@ 062   ----------------------------------------
	.byte	W96
@ 063   ----------------------------------------
	.byte	W96
@ 064   ----------------------------------------
	.byte	W96
@ 065   ----------------------------------------
	.byte	W96
@ 066   ----------------------------------------
	.byte	W96
@ 067   ----------------------------------------
	.byte	W96
@ 068   ----------------------------------------
	.byte	W96
@ 069   ----------------------------------------
	.byte	W96
@ 070   ----------------------------------------
	.byte	W96
@ 071   ----------------------------------------
	.byte	W96
@ 072   ----------------------------------------
	.byte	W96
@ 073   ----------------------------------------
	.byte	W96
@ 074   ----------------------------------------
	.byte	W96
@ 075   ----------------------------------------
	.byte	W96
@ 076   ----------------------------------------
	.byte	W96
@ 077   ----------------------------------------
	.byte	W96
@ 078   ----------------------------------------
	.byte	W96
@ 079   ----------------------------------------
	.byte	W96
@ 080   ----------------------------------------
	.byte	W96
@ 081   ----------------------------------------
	.byte	W96
@ 082   ----------------------------------------
	.byte	W96
@ 083   ----------------------------------------
	.byte	W96
@ 084   ----------------------------------------
	.byte	W96
@ 085   ----------------------------------------
	.byte	W96
@ 086   ----------------------------------------
	.byte	W96
@ 087   ----------------------------------------
	.byte	W96
@ 088   ----------------------------------------
	.byte	W96
@ 089   ----------------------------------------
	.byte	W96
@ 090   ----------------------------------------
	.byte	W96
@ 091   ----------------------------------------
	.byte	W96
@ 092   ----------------------------------------
	.byte	W96
@ 093   ----------------------------------------
	.byte	W96
@ 094   ----------------------------------------
	.byte	W96
@ 095   ----------------------------------------
	.byte	W96
@ 096   ----------------------------------------
	.byte	W96
@ 097   ----------------------------------------
	.byte	W96
@ 098   ----------------------------------------
	.byte	W96
@ 099   ----------------------------------------
	.byte	W96
@ 100   ----------------------------------------
	.byte	W96
@ 101   ----------------------------------------
	.byte	W96
@ 102   ----------------------------------------
	.byte	PATT
	 .word	vastsever8850_5_042
@ 103   ----------------------------------------
	.byte	PATT
	 .word	vastsever8850_5_043
@ 104   ----------------------------------------
	.byte	PATT
	 .word	vastsever8850_5_044
@ 105   ----------------------------------------
	.byte	PATT
	 .word	vastsever8850_5_045
@ 106   ----------------------------------------
	.byte	PATT
	 .word	vastsever8850_5_046
@ 107   ----------------------------------------
	.byte	PATT
	 .word	vastsever8850_5_047
@ 108   ----------------------------------------
	.byte	PATT
	 .word	vastsever8850_5_048
@ 109   ----------------------------------------
	.byte	PATT
	 .word	vastsever8850_5_049
@ 110   ----------------------------------------
	.byte	PATT
	 .word	vastsever8850_5_050
@ 111   ----------------------------------------
	.byte	PATT
	 .word	vastsever8850_5_051
@ 112   ----------------------------------------
	.byte	PATT
	 .word	vastsever8850_5_052
@ 113   ----------------------------------------
	.byte	PATT
	 .word	vastsever8850_5_053
@ 114   ----------------------------------------
	.byte	PATT
	 .word	vastsever8850_5_046
@ 115   ----------------------------------------
	.byte	PATT
	 .word	vastsever8850_5_047
@ 116   ----------------------------------------
	.byte	PATT
	 .word	vastsever8850_5_048
@ 117   ----------------------------------------
	.byte	PATT
	 .word	vastsever8850_5_049
@ 118   ----------------------------------------
	.byte	PATT
	 .word	vastsever8850_5_050
@ 119   ----------------------------------------
	.byte	PATT
	 .word	vastsever8850_5_051
@ 120   ----------------------------------------
	.byte		N92   , En4 , v112
	.byte	W96
@ 121   ----------------------------------------
	.byte		N76   , Fn4 
	.byte	W09
	.byte		MOD   , 21
	.byte	W01
	.byte		        42
	.byte	W01
	.byte		        63
	.byte	W01
	.byte		        106
	.byte	W01
	.byte		        127
	.byte	W64
	.byte		        0
	.byte	W07
	.byte		N05   , Dn4 
	.byte	W06
	.byte		        En4 
	.byte	W06
@ 122   ----------------------------------------
	.byte		N32   , Fn4 
	.byte	W36
	.byte		        An4 
	.byte	W36
	.byte		N22   , Fn4 
	.byte	W24
@ 123   ----------------------------------------
	.byte		N32   , En4 
	.byte	W36
	.byte		        Gn4 
	.byte	W36
	.byte		N22   , En4 
	.byte	W24
@ 124   ----------------------------------------
	.byte		        Dn4 
	.byte	W24
	.byte		N11   , En4 
	.byte	W12
	.byte		N22   , Fn4 
	.byte	W24
	.byte		N11   , An4 
	.byte	W12
	.byte		        Gn4 
	.byte	W12
	.byte		        Fn4 
	.byte	W12
@ 125   ----------------------------------------
	.byte		N22   , En4 
	.byte	W24
	.byte		N11   , An4 
	.byte	W12
	.byte		        En4 
	.byte	W12
	.byte		        Dn5 
	.byte	W12
	.byte		        An4 
	.byte	W12
	.byte		        En5 
	.byte	W12
	.byte		        An4 
	.byte	W12
@ 126   ----------------------------------------
	.byte		N32   , An5 
	.byte	W03
	.byte		MOD   , 18
	.byte	W01
	.byte		        37
	.byte	W01
	.byte		        55
	.byte	W01
	.byte		        91
	.byte	W01
	.byte		        109
	.byte	W01
	.byte		        127
	.byte	W24
	.byte	W03
	.byte		        0
	.byte	W01
	.byte		N05   , Gn5 
	.byte	W06
	.byte		        Fn5 
	.byte	W06
	.byte		        An4 
	.byte	W12
	.byte		N11   , An5 
	.byte	W12
	.byte		        Gn5 
	.byte	W12
	.byte		        Fn5 
	.byte	W12
@ 127   ----------------------------------------
	.byte		N32   , En5 
	.byte	W04
	.byte		MOD   , 21
	.byte	W01
	.byte		        42
	.byte	W01
	.byte		        84
	.byte	W01
	.byte		        105
	.byte	W01
	.byte		        127
	.byte	W24
	.byte	W03
	.byte		        0
	.byte	W01
	.byte		N05   , Gn5 
	.byte	W06
	.byte		        An5 
	.byte	W06
	.byte		N22   , En6 
	.byte	W24
	.byte		        Cn6 
	.byte	W24
@ 128   ----------------------------------------
	.byte		N32   , An5 
	.byte	W36
	.byte		N22   , Fn5 
	.byte	W24
	.byte		        Dn5 
	.byte	W24
	.byte		N05   , En5 
	.byte	W06
	.byte		        Dn5 
	.byte	W06
@ 129   ----------------------------------------
	.byte		N88   , Cs5 
	.byte	W11
	.byte		MOD   , 11
	.byte	W01
	.byte		        34
	.byte	W01
	.byte		        46
	.byte	W01
	.byte		        58
	.byte	W01
	.byte		        81
	.byte	W01
	.byte		        93
	.byte	W01
	.byte		        104
	.byte	W01
	.byte		        127
	.byte	W72
	.byte		        0
	.byte	W06
@ 130   ----------------------------------------
	.byte	W96
@ 131   ----------------------------------------
	.byte	W96
@ 132   ----------------------------------------
	.byte	W96
@ 133   ----------------------------------------
	.byte	W96
@ 134   ----------------------------------------
	.byte	W96
@ 135   ----------------------------------------
	.byte	W96
@ 136   ----------------------------------------
	.byte	W96
@ 137   ----------------------------------------
	.byte	W96
@ 138   ----------------------------------------
	.byte	W96
@ 139   ----------------------------------------
	.byte	W96
@ 140   ----------------------------------------
	.byte	W96
@ 141   ----------------------------------------
	.byte	W96
@ 142   ----------------------------------------
	.byte	W96
@ 143   ----------------------------------------
	.byte	W96
@ 144   ----------------------------------------
	.byte	W96
@ 145   ----------------------------------------
	.byte	W96
@ 146   ----------------------------------------
	.byte	W96
@ 147   ----------------------------------------
	.byte	W96
@ 148   ----------------------------------------
	.byte	W96
@ 149   ----------------------------------------
	.byte	W96
@ 150   ----------------------------------------
	.byte	W96
@ 151   ----------------------------------------
	.byte	W96
@ 152   ----------------------------------------
	.byte	W96
@ 153   ----------------------------------------
	.byte	W96
@ 154   ----------------------------------------
	.byte	W96
@ 155   ----------------------------------------
	.byte	W96
@ 156   ----------------------------------------
	.byte	W96
@ 157   ----------------------------------------
	.byte	W96
@ 158   ----------------------------------------
	.byte	W96
@ 159   ----------------------------------------
	.byte	W96
@ 160   ----------------------------------------
	.byte	W96
@ 161   ----------------------------------------
	.byte	W96
@ 162   ----------------------------------------
	.byte	W96
@ 163   ----------------------------------------
	.byte	FINE

@**************** Track 6 (Midi-Chn.6) ****************@

vastsever8850_6:
	.byte	KEYSH , vastsever8850_key+0
@ 000   ----------------------------------------
	.byte	W96
@ 001   ----------------------------------------
	.byte		VOICE , 66
	.byte		VOL   , 90*vastsever8850_mvl/mxv
	.byte		PAN   , c_v+20
	.byte	W48
	.byte		MOD   , 0
	.byte		BEND  , c_v+0
	.byte	W24
	.byte	W24
@ 002   ----------------------------------------
	.byte	W96
@ 003   ----------------------------------------
	.byte	W96
@ 004   ----------------------------------------
	.byte	W96
@ 005   ----------------------------------------
	.byte	W96
@ 006   ----------------------------------------
	.byte	W96
@ 007   ----------------------------------------
	.byte	W96
@ 008   ----------------------------------------
	.byte	W96
@ 009   ----------------------------------------
	.byte	W96
@ 010   ----------------------------------------
	.byte	W96
@ 011   ----------------------------------------
	.byte	W96
@ 012   ----------------------------------------
	.byte	W96
@ 013   ----------------------------------------
	.byte	W96
@ 014   ----------------------------------------
	.byte	W96
@ 015   ----------------------------------------
	.byte	W96
@ 016   ----------------------------------------
	.byte	W96
@ 017   ----------------------------------------
	.byte	W96
@ 018   ----------------------------------------
	.byte	W96
@ 019   ----------------------------------------
	.byte	W96
@ 020   ----------------------------------------
	.byte	W96
@ 021   ----------------------------------------
	.byte	W96
@ 022   ----------------------------------------
	.byte	W96
@ 023   ----------------------------------------
	.byte	W96
@ 024   ----------------------------------------
	.byte	W96
@ 025   ----------------------------------------
	.byte	W96
@ 026   ----------------------------------------
	.byte	W96
@ 027   ----------------------------------------
	.byte	W96
@ 028   ----------------------------------------
	.byte	W96
@ 029   ----------------------------------------
	.byte	W96
@ 030   ----------------------------------------
	.byte	W96
@ 031   ----------------------------------------
	.byte	W96
@ 032   ----------------------------------------
	.byte	W96
@ 033   ----------------------------------------
	.byte	W96
@ 034   ----------------------------------------
	.byte	W96
@ 035   ----------------------------------------
	.byte	W96
@ 036   ----------------------------------------
	.byte	W96
@ 037   ----------------------------------------
	.byte	W96
@ 038   ----------------------------------------
	.byte	W96
@ 039   ----------------------------------------
	.byte	W96
@ 040   ----------------------------------------
	.byte	W96
@ 041   ----------------------------------------
	.byte	W96
@ 042   ----------------------------------------
	.byte	W96
@ 043   ----------------------------------------
	.byte	W96
@ 044   ----------------------------------------
	.byte	W96
@ 045   ----------------------------------------
	.byte	W84
	.byte		N11   , Dn4 , v112
	.byte	W12
@ 046   ----------------------------------------
vastsever8850_6_046:
	.byte		N32   , Dn4 , v112
	.byte	W06
	.byte		MOD   , 0
	.byte	W01
	.byte		        18
	.byte	W01
	.byte		        36
	.byte	W01
	.byte		        73
	.byte	W01
	.byte		        91
	.byte	W01
	.byte		        109
	.byte	W01
	.byte		        127
	.byte	W23
	.byte		        0
	.byte	W01
	.byte		N32   , Cn4 
	.byte	W36
	.byte		N23   , En4 
	.byte	W24
	.byte	PEND
@ 047   ----------------------------------------
vastsever8850_6_047:
	.byte		N32   , Cn4 , v112
	.byte	W06
	.byte		MOD   , 31
	.byte	W01
	.byte		        47
	.byte	W01
	.byte		        63
	.byte	W01
	.byte		        95
	.byte	W01
	.byte		        111
	.byte	W01
	.byte		        127
	.byte	W24
	.byte		        0
	.byte	W01
	.byte		N23   , Gn3 
	.byte	W24
	.byte		N11   , An3 
	.byte	W12
	.byte		        As3 
	.byte	W12
	.byte		        Cn4 
	.byte	W12
	.byte	PEND
@ 048   ----------------------------------------
vastsever8850_6_048:
	.byte		N32   , Bn3 , v112
	.byte	W36
	.byte		        Cn4 
	.byte	W09
	.byte		MOD   , 25
	.byte	W01
	.byte		        51
	.byte	W01
	.byte		        76
	.byte	W01
	.byte		        127
	.byte	W23
	.byte		        0
	.byte	W01
	.byte		N11   , Gn3 
	.byte	W12
	.byte		        An3 
	.byte	W12
	.byte	PEND
@ 049   ----------------------------------------
vastsever8850_6_049:
	.byte		N23   , As3 , v112
	.byte	W24
	.byte		N11   , Cn4 
	.byte	W12
	.byte		N32   , An3 
	.byte	W04
	.byte		MOD   , 0
	.byte	W01
	.byte		        15
	.byte	W01
	.byte		        47
	.byte	W01
	.byte		        63
	.byte	W01
	.byte		        79
	.byte	W01
	.byte		        111
	.byte	W01
	.byte		        127
	.byte	W24
	.byte	W01
	.byte		        0
	.byte	W01
	.byte		N23   , Fn3 
	.byte	W24
	.byte	PEND
@ 050   ----------------------------------------
vastsever8850_6_050:
	.byte		N56   , Dn3 , v112
	.byte	W60
	.byte		N11   , Fn3 
	.byte	W12
	.byte		        Gn3 
	.byte	W12
	.byte		        An3 
	.byte	W12
	.byte	PEND
@ 051   ----------------------------------------
vastsever8850_6_051:
	.byte		N32   , Gn3 , v112
	.byte	W05
	.byte		MOD   , 0
	.byte	W01
	.byte		        32
	.byte	W01
	.byte		        48
	.byte	W01
	.byte		        64
	.byte	W01
	.byte		        96
	.byte	W01
	.byte		        112
	.byte	W01
	.byte		        127
	.byte	W24
	.byte		        0
	.byte	W01
	.byte		N32   , As3 
	.byte	W36
	.byte		N23   , Cn4 
	.byte	W24
	.byte	PEND
@ 052   ----------------------------------------
vastsever8850_6_052:
	.byte		N32   , Dn4 , v112
	.byte	W08
	.byte		MOD   , 21
	.byte	W01
	.byte		        63
	.byte	W01
	.byte		        85
	.byte	W01
	.byte		        107
	.byte	W01
	.byte		        127
	.byte	W23
	.byte		        0
	.byte	W01
	.byte		N32   , Cn4 
	.byte	W36
	.byte		N23   , Fn4 
	.byte	W24
	.byte	PEND
@ 053   ----------------------------------------
vastsever8850_6_053:
	.byte		N32   , Dn4 , v112
	.byte	W09
	.byte		MOD   , 21
	.byte	W01
	.byte		        42
	.byte	W01
	.byte		        63
	.byte	W01
	.byte		        106
	.byte	W01
	.byte		        127
	.byte	W21
	.byte		        0
	.byte	W02
	.byte		N22   , Cs4 
	.byte	W24
	.byte		N11   , An3 
	.byte	W12
	.byte		        Dn4 
	.byte	W12
	.byte		        En4 
	.byte	W12
	.byte	PEND
@ 054   ----------------------------------------
vastsever8850_6_054:
	.byte		N32   , Fn4 , v112
	.byte	W07
	.byte		MOD   , 18
	.byte	W01
	.byte		        36
	.byte	W01
	.byte		        73
	.byte	W01
	.byte		        91
	.byte	W01
	.byte		        109
	.byte	W01
	.byte		        127
	.byte	W23
	.byte		        0
	.byte	W01
	.byte		N32   , En4 
	.byte	W36
	.byte		N23   , Gn4 
	.byte	W24
	.byte	PEND
@ 055   ----------------------------------------
vastsever8850_6_055:
	.byte		N32   , Fn4 , v112
	.byte	W06
	.byte		MOD   , 31
	.byte	W01
	.byte		        47
	.byte	W01
	.byte		        63
	.byte	W01
	.byte		        95
	.byte	W01
	.byte		        111
	.byte	W01
	.byte		        127
	.byte	W24
	.byte		        0
	.byte	W01
	.byte		N23   , As3 
	.byte	W24
	.byte		N11   , Cn4 
	.byte	W12
	.byte		        Dn4 
	.byte	W12
	.byte		        En4 
	.byte	W12
	.byte	PEND
@ 056   ----------------------------------------
vastsever8850_6_056:
	.byte		N32   , Fn4 , v112
	.byte	W36
	.byte		        En4 
	.byte	W09
	.byte		MOD   , 25
	.byte	W01
	.byte		        51
	.byte	W01
	.byte		        76
	.byte	W01
	.byte		        127
	.byte	W23
	.byte		        0
	.byte	W01
	.byte		N11   , An3 
	.byte	W12
	.byte		        Cn4 
	.byte	W12
	.byte	PEND
@ 057   ----------------------------------------
vastsever8850_6_057:
	.byte		N23   , As3 , v112
	.byte	W24
	.byte		N11   , An3 
	.byte	W12
	.byte		N32   , Cn4 
	.byte	W04
	.byte		MOD   , 0
	.byte	W01
	.byte		        15
	.byte	W01
	.byte		        47
	.byte	W01
	.byte		        63
	.byte	W01
	.byte		        79
	.byte	W01
	.byte		        111
	.byte	W01
	.byte		        127
	.byte	W24
	.byte	W01
	.byte		        0
	.byte	W01
	.byte		N23   , An3 
	.byte	W24
	.byte	PEND
@ 058   ----------------------------------------
vastsever8850_6_058:
	.byte		N56   , Gn3 , v112
	.byte	W60
	.byte		N11   
	.byte	W12
	.byte		        An3 
	.byte	W12
	.byte		        As3 
	.byte	W12
	.byte	PEND
@ 059   ----------------------------------------
vastsever8850_6_059:
	.byte		N32   , Cn4 , v112
	.byte	W05
	.byte		MOD   , 0
	.byte	W01
	.byte		        32
	.byte	W01
	.byte		        48
	.byte	W01
	.byte		        64
	.byte	W01
	.byte		        96
	.byte	W01
	.byte		        112
	.byte	W01
	.byte		        127
	.byte	W24
	.byte		        0
	.byte	W01
	.byte		N32   , Dn4 
	.byte	W36
	.byte		N23   , En4 
	.byte	W24
	.byte	PEND
@ 060   ----------------------------------------
	.byte		N32   , Cn4 
	.byte	W36
	.byte		        En4 
	.byte	W36
	.byte		N22   , Gn4 
	.byte	W24
@ 061   ----------------------------------------
	.byte		N92   , Fn4 
	.byte	W09
	.byte		MOD   , 21
	.byte	W01
	.byte		        42
	.byte	W01
	.byte		        63
	.byte	W01
	.byte		        106
	.byte	W01
	.byte		        127
	.byte	W76
	.byte	W01
	.byte		        0
	.byte	W06
@ 062   ----------------------------------------
	.byte	W96
@ 063   ----------------------------------------
	.byte	W96
@ 064   ----------------------------------------
	.byte	W96
@ 065   ----------------------------------------
	.byte	W96
@ 066   ----------------------------------------
	.byte	W96
@ 067   ----------------------------------------
	.byte	W96
@ 068   ----------------------------------------
	.byte	W96
@ 069   ----------------------------------------
	.byte	W96
@ 070   ----------------------------------------
	.byte	W96
@ 071   ----------------------------------------
	.byte	W96
@ 072   ----------------------------------------
	.byte	W96
@ 073   ----------------------------------------
	.byte	W96
@ 074   ----------------------------------------
	.byte	W96
@ 075   ----------------------------------------
	.byte	W96
@ 076   ----------------------------------------
	.byte	W96
@ 077   ----------------------------------------
	.byte	W96
@ 078   ----------------------------------------
	.byte	W96
@ 079   ----------------------------------------
	.byte	W96
@ 080   ----------------------------------------
	.byte	W96
@ 081   ----------------------------------------
	.byte	W96
@ 082   ----------------------------------------
	.byte	W96
@ 083   ----------------------------------------
	.byte	W96
@ 084   ----------------------------------------
	.byte	W96
@ 085   ----------------------------------------
	.byte	W96
@ 086   ----------------------------------------
	.byte	W96
@ 087   ----------------------------------------
	.byte	W96
@ 088   ----------------------------------------
	.byte	W96
@ 089   ----------------------------------------
	.byte	W96
@ 090   ----------------------------------------
	.byte	W96
@ 091   ----------------------------------------
	.byte	W96
@ 092   ----------------------------------------
	.byte	W96
@ 093   ----------------------------------------
	.byte	W96
@ 094   ----------------------------------------
	.byte	W96
@ 095   ----------------------------------------
	.byte	W96
@ 096   ----------------------------------------
	.byte	W96
@ 097   ----------------------------------------
	.byte	W96
@ 098   ----------------------------------------
	.byte	W96
@ 099   ----------------------------------------
	.byte	W96
@ 100   ----------------------------------------
	.byte	W96
@ 101   ----------------------------------------
	.byte	W96
@ 102   ----------------------------------------
	.byte	W96
@ 103   ----------------------------------------
	.byte	W96
@ 104   ----------------------------------------
	.byte	W96
@ 105   ----------------------------------------
	.byte	W84
	.byte		N11   , Dn4 
	.byte	W12
@ 106   ----------------------------------------
	.byte	PATT
	 .word	vastsever8850_6_046
@ 107   ----------------------------------------
	.byte	PATT
	 .word	vastsever8850_6_047
@ 108   ----------------------------------------
	.byte	PATT
	 .word	vastsever8850_6_048
@ 109   ----------------------------------------
	.byte	PATT
	 .word	vastsever8850_6_049
@ 110   ----------------------------------------
	.byte	PATT
	 .word	vastsever8850_6_050
@ 111   ----------------------------------------
	.byte	PATT
	 .word	vastsever8850_6_051
@ 112   ----------------------------------------
	.byte	PATT
	 .word	vastsever8850_6_052
@ 113   ----------------------------------------
	.byte	PATT
	 .word	vastsever8850_6_053
@ 114   ----------------------------------------
	.byte	PATT
	 .word	vastsever8850_6_054
@ 115   ----------------------------------------
	.byte	PATT
	 .word	vastsever8850_6_055
@ 116   ----------------------------------------
	.byte	PATT
	 .word	vastsever8850_6_056
@ 117   ----------------------------------------
	.byte	PATT
	 .word	vastsever8850_6_057
@ 118   ----------------------------------------
	.byte	PATT
	 .word	vastsever8850_6_058
@ 119   ----------------------------------------
	.byte	PATT
	 .word	vastsever8850_6_059
@ 120   ----------------------------------------
	.byte		N32   , Cn4 , v112
	.byte	W36
	.byte		        Gn4 
	.byte	W36
	.byte		N22   , As4 
	.byte	W24
@ 121   ----------------------------------------
	.byte		N92   , An4 
	.byte	W09
	.byte		MOD   , 21
	.byte	W01
	.byte		        42
	.byte	W01
	.byte		        63
	.byte	W01
	.byte		        106
	.byte	W01
	.byte		        127
	.byte	W76
	.byte	W01
	.byte		        0
	.byte	W06
@ 122   ----------------------------------------
	.byte	W96
@ 123   ----------------------------------------
	.byte	W96
@ 124   ----------------------------------------
	.byte	W96
@ 125   ----------------------------------------
	.byte	W96
@ 126   ----------------------------------------
	.byte	W96
@ 127   ----------------------------------------
	.byte	W96
@ 128   ----------------------------------------
	.byte	W96
@ 129   ----------------------------------------
	.byte	W96
@ 130   ----------------------------------------
	.byte	W96
@ 131   ----------------------------------------
	.byte	W96
@ 132   ----------------------------------------
	.byte	W96
@ 133   ----------------------------------------
	.byte	W96
@ 134   ----------------------------------------
	.byte	W96
@ 135   ----------------------------------------
	.byte	W96
@ 136   ----------------------------------------
	.byte	W96
@ 137   ----------------------------------------
	.byte	W96
@ 138   ----------------------------------------
	.byte	W96
@ 139   ----------------------------------------
	.byte	W96
@ 140   ----------------------------------------
	.byte	W96
@ 141   ----------------------------------------
	.byte	W96
@ 142   ----------------------------------------
	.byte	W96
@ 143   ----------------------------------------
	.byte	W96
@ 144   ----------------------------------------
	.byte	W96
@ 145   ----------------------------------------
	.byte	W96
@ 146   ----------------------------------------
	.byte	W96
@ 147   ----------------------------------------
	.byte	W96
@ 148   ----------------------------------------
	.byte	W96
@ 149   ----------------------------------------
	.byte	W96
@ 150   ----------------------------------------
	.byte	W96
@ 151   ----------------------------------------
	.byte	W96
@ 152   ----------------------------------------
	.byte	W96
@ 153   ----------------------------------------
	.byte	W96
@ 154   ----------------------------------------
	.byte	W96
@ 155   ----------------------------------------
	.byte	W96
@ 156   ----------------------------------------
	.byte	W96
@ 157   ----------------------------------------
	.byte	W96
@ 158   ----------------------------------------
	.byte	W96
@ 159   ----------------------------------------
	.byte	W96
@ 160   ----------------------------------------
	.byte	W96
@ 161   ----------------------------------------
	.byte	W96
@ 162   ----------------------------------------
	.byte	W96
@ 163   ----------------------------------------
	.byte	FINE

@**************** Track 7 (Midi-Chn.7) ****************@

vastsever8850_7:
	.byte	KEYSH , vastsever8850_key+0
@ 000   ----------------------------------------
	.byte	W96
@ 001   ----------------------------------------
	.byte		VOICE , 25
	.byte		VOL   , 100*vastsever8850_mvl/mxv
	.byte		PAN   , c_v-64
	.byte	W48
	.byte		MOD   , 0
	.byte		BEND  , c_v+0
	.byte	W24
	.byte	W06
	.byte	W06
	.byte	W06
	.byte	W06
@ 002   ----------------------------------------
vastsever8850_7_002:
	.byte		N92   , An2 , v100
	.byte		N32   , Dn3 
	.byte	W12
	.byte		N23   , Fn3 
	.byte	W12
	.byte		N11   , An3 
	.byte	W12
	.byte		N32   , Dn3 
	.byte	W12
	.byte		N23   , Fn3 
	.byte	W12
	.byte		N11   , An3 
	.byte	W12
	.byte		N23   , Dn3 
	.byte	W12
	.byte		N11   , Fn3 
	.byte	W12
	.byte	PEND
@ 003   ----------------------------------------
vastsever8850_7_003:
	.byte		N92   , Gn2 , v100
	.byte		N11   , An3 
	.byte	W12
	.byte		N32   , Cn3 
	.byte	W12
	.byte		N23   , En3 
	.byte	W12
	.byte		N11   , An3 
	.byte	W12
	.byte		N32   , Cn3 
	.byte	W12
	.byte		N23   , En3 
	.byte	W12
	.byte		N11   , An3 
	.byte	W12
	.byte		N10   , Cn3 
	.byte	W12
	.byte	PEND
@ 004   ----------------------------------------
vastsever8850_7_004:
	.byte		N92   , Fn2 , v100
	.byte		N22   , Dn3 
	.byte	W12
	.byte		N11   , An3 
	.byte	W12
	.byte		N32   , As2 
	.byte	W12
	.byte		N23   , Dn3 
	.byte	W12
	.byte		N11   , An3 
	.byte	W12
	.byte		N32   , As2 
	.byte	W12
	.byte		N23   , Dn3 
	.byte	W12
	.byte		N11   , An3 
	.byte	W12
	.byte	PEND
@ 005   ----------------------------------------
vastsever8850_7_005:
	.byte		N92   , En2 , v100
	.byte		N32   , An2 
	.byte	W12
	.byte		N23   , En3 
	.byte	W12
	.byte		N11   , An3 
	.byte	W12
	.byte		N23   , An2 
	.byte	W12
	.byte		N11   , En3 
	.byte	W12
	.byte		N32   , An3 
	.byte	W12
	.byte		N23   , En3 
	.byte	W12
	.byte		N11   , An2 
	.byte	W12
	.byte	PEND
@ 006   ----------------------------------------
	.byte	PATT
	 .word	vastsever8850_7_002
@ 007   ----------------------------------------
	.byte	PATT
	 .word	vastsever8850_7_003
@ 008   ----------------------------------------
	.byte	PATT
	 .word	vastsever8850_7_004
@ 009   ----------------------------------------
	.byte	PATT
	 .word	vastsever8850_7_005
@ 010   ----------------------------------------
	.byte	PATT
	 .word	vastsever8850_7_002
@ 011   ----------------------------------------
	.byte	PATT
	 .word	vastsever8850_7_003
@ 012   ----------------------------------------
	.byte	PATT
	 .word	vastsever8850_7_004
@ 013   ----------------------------------------
	.byte	PATT
	 .word	vastsever8850_7_005
@ 014   ----------------------------------------
	.byte	PATT
	 .word	vastsever8850_7_002
@ 015   ----------------------------------------
	.byte	PATT
	 .word	vastsever8850_7_003
@ 016   ----------------------------------------
	.byte	PATT
	 .word	vastsever8850_7_004
@ 017   ----------------------------------------
	.byte	PATT
	 .word	vastsever8850_7_005
@ 018   ----------------------------------------
vastsever8850_7_018:
	.byte		N92   , An2 , v100
	.byte	W12
	.byte		N80   , Dn3 
	.byte	W12
	.byte		N68   , Fn3 
	.byte	W12
	.byte		N56   , An3 
	.byte	W60
	.byte	PEND
@ 019   ----------------------------------------
vastsever8850_7_019:
	.byte		N92   , An2 , v100
	.byte	W12
	.byte		N80   , Cn3 
	.byte	W12
	.byte		N68   , Fn3 
	.byte	W12
	.byte		N56   , An3 
	.byte	W60
	.byte	PEND
@ 020   ----------------------------------------
vastsever8850_7_020:
	.byte		N32   , Gn2 , v100
	.byte	W12
	.byte		N22   , Cn3 
	.byte	W12
	.byte		N10   , En3 
	.byte	W12
	.byte		N56   , Gn3 
	.byte	W24
	.byte		N32   , Fn3 
	.byte	W12
	.byte		N22   , Gn2 
	.byte	W12
	.byte		N10   , Cn3 
	.byte	W12
	.byte	PEND
@ 021   ----------------------------------------
vastsever8850_7_021:
	.byte		N32   , Gn2 , v100
	.byte	W12
	.byte		N22   , Cn2 
	.byte	W12
	.byte		N10   , En2 
	.byte	W12
	.byte		N56   , Gn2 
	.byte	W01
	.byte		        Cn3 
	.byte	W02
	.byte		N54   , En3 
	.byte	W56
	.byte	W01
	.byte	PEND
@ 022   ----------------------------------------
vastsever8850_7_022:
	.byte		N56   , As2 , v100
	.byte	W12
	.byte		N44   , Dn3 
	.byte	W12
	.byte		N32   , Gn3 
	.byte	W12
	.byte		N22   , As3 
	.byte	W24
	.byte		N44   , Dn3 
	.byte	W12
	.byte		N32   , Fn3 
	.byte	W12
	.byte		N22   , As3 
	.byte	W12
	.byte	PEND
@ 023   ----------------------------------------
vastsever8850_7_023:
	.byte	W12
	.byte		N44   , En3 , v100
	.byte	W12
	.byte		N32   , As2 
	.byte	W12
	.byte		N22   , Gn2 
	.byte	W24
	.byte		N68   , As2 
	.byte	W12
	.byte		N56   , Fn3 
	.byte	W12
	.byte		N44   , En3 
	.byte	W12
	.byte	PEND
@ 024   ----------------------------------------
vastsever8850_7_024:
	.byte	W36
	.byte		N44   , Dn3 , v100
	.byte	W36
	.byte		N10   , An2 
	.byte	W12
	.byte		N68   , Gn2 
	.byte	W01
	.byte		        Cn3 
	.byte	W02
	.byte		N66   , En3 
	.byte	W09
	.byte	PEND
@ 025   ----------------------------------------
vastsever8850_7_025:
	.byte	W60
	.byte		N32   , An3 , v100
	.byte	W12
	.byte		N22   , En3 
	.byte	W12
	.byte		N10   , Cn3 
	.byte	W12
	.byte	PEND
@ 026   ----------------------------------------
vastsever8850_7_026:
	.byte		N32   , An2 , v100
	.byte	W12
	.byte		N22   , Dn3 
	.byte	W12
	.byte		N10   , Fn3 
	.byte	W12
	.byte		N32   , An2 
	.byte	W12
	.byte		N22   , Dn3 
	.byte	W12
	.byte		N32   , Fn3 
	.byte	W12
	.byte		N22   , Dn3 
	.byte	W12
	.byte		N10   , An2 
	.byte	W12
	.byte	PEND
@ 027   ----------------------------------------
vastsever8850_7_027:
	.byte		N32   , Dn2 , v100
	.byte	W12
	.byte		N22   , Fn2 
	.byte	W12
	.byte		N10   , An2 
	.byte	W12
	.byte		N32   , Dn3 
	.byte	W12
	.byte		N22   , An2 
	.byte	W12
	.byte		N10   , Fn2 
	.byte	W12
	.byte		N22   
	.byte	W12
	.byte		N10   , An2 
	.byte	W12
	.byte	PEND
@ 028   ----------------------------------------
vastsever8850_7_028:
	.byte		N32   , Gn2 , v100
	.byte	W12
	.byte		N22   , Cn3 
	.byte	W12
	.byte		N10   , En3 
	.byte	W12
	.byte		N32   , Gn3 
	.byte	W12
	.byte		N22   , Fn3 
	.byte	W12
	.byte		N10   , Cn3 
	.byte	W12
	.byte		N22   , Gn2 
	.byte	W12
	.byte		N10   , Cn3 
	.byte	W12
	.byte	PEND
@ 029   ----------------------------------------
vastsever8850_7_029:
	.byte		N32   , Gn2 , v100
	.byte	W12
	.byte		N22   , Cn2 
	.byte	W12
	.byte		N10   , En2 
	.byte	W12
	.byte		N32   , Gn2 
	.byte	W12
	.byte		N22   , Cn3 
	.byte	W12
	.byte		N10   , En3 
	.byte	W12
	.byte		N22   , En2 
	.byte	W12
	.byte		N10   , Gn3 
	.byte	W12
	.byte	PEND
@ 030   ----------------------------------------
vastsever8850_7_030:
	.byte		N56   , As2 , v100
	.byte	W12
	.byte		N44   , Dn3 
	.byte	W12
	.byte		N32   , Gn3 
	.byte	W12
	.byte		N22   , As3 
	.byte	W24
	.byte		N44   , As2 
	.byte	W12
	.byte		N32   , Dn3 
	.byte	W12
	.byte		N22   , Gn3 
	.byte	W12
	.byte	PEND
@ 031   ----------------------------------------
	.byte	PATT
	 .word	vastsever8850_7_023
@ 032   ----------------------------------------
vastsever8850_7_032:
	.byte	W36
	.byte		N44   , Dn3 , v100
	.byte	W36
	.byte		N10   , An2 
	.byte	W12
	.byte		N22   , Gn2 
	.byte	W01
	.byte		N20   , Cn3 
	.byte	W02
	.byte		N19   , En3 
	.byte	W09
	.byte	PEND
@ 033   ----------------------------------------
vastsever8850_7_033:
	.byte	W12
	.byte		N80   , An2 , v100
	.byte	W12
	.byte		N68   , En3 
	.byte	W12
	.byte		N56   , An3 
	.byte	W60
	.byte	PEND
@ 034   ----------------------------------------
vastsever8850_7_034:
	.byte		N92   , An3 , v100
	.byte	W36
	.byte		N56   , En3 
	.byte	W36
	.byte		N22   , An2 
	.byte	W24
	.byte	PEND
@ 035   ----------------------------------------
vastsever8850_7_035:
	.byte		N32   , En3 , v100
	.byte	W12
	.byte		N22   , Cn3 
	.byte	W12
	.byte		N10   , An2 
	.byte	W12
	.byte		N56   , Dn3 
	.byte		N56   , Fn3 
	.byte	W60
	.byte	PEND
@ 036   ----------------------------------------
vastsever8850_7_036:
	.byte		N92   , An3 , v100
	.byte	W36
	.byte		N56   , En3 
	.byte	W36
	.byte		N22   , Cn4 
	.byte	W24
	.byte	PEND
@ 037   ----------------------------------------
vastsever8850_7_037:
	.byte		N32   , An3 , v100
	.byte	W12
	.byte		N22   , Fn3 
	.byte	W12
	.byte		N10   , Cn4 
	.byte	W12
	.byte		N22   , En3 
	.byte		N22   , An3 
	.byte	W24
	.byte		N32   , En3 
	.byte		N32   , Gn3 
	.byte	W36
	.byte	PEND
@ 038   ----------------------------------------
vastsever8850_7_038:
	.byte		N32   , An3 , v100
	.byte	W12
	.byte		N22   , En3 
	.byte	W12
	.byte		N10   , An2 
	.byte	W12
	.byte		N22   , Fn3 
	.byte		N22   , An3 
	.byte	W24
	.byte		N32   , En3 
	.byte		N32   , Gn3 
	.byte	W36
	.byte	PEND
@ 039   ----------------------------------------
vastsever8850_7_039:
	.byte		N32   , Dn3 , v100
	.byte	W12
	.byte		N22   , Fn3 
	.byte	W12
	.byte		N10   , An3 
	.byte	W12
	.byte		N32   , Dn3 
	.byte		N32   , Fn3 
	.byte	W36
	.byte		N22   , An2 
	.byte		N22   , Dn3 
	.byte	W24
	.byte	PEND
@ 040   ----------------------------------------
vastsever8850_7_040:
	.byte		N32   , An2 , v100
	.byte	W12
	.byte		N22   , Dn3 
	.byte	W12
	.byte		N10   , An3 
	.byte	W12
	.byte		N32   , An2 
	.byte	W12
	.byte		N22   , Dn3 
	.byte	W12
	.byte		N10   , An3 
	.byte	W12
	.byte		N32   , An2 
	.byte	W12
	.byte		N22   , Dn3 
	.byte	W12
	.byte	PEND
@ 041   ----------------------------------------
vastsever8850_7_041:
	.byte		N10   , As3 , v100
	.byte	W12
	.byte		N32   , An2 
	.byte	W12
	.byte		N22   , En3 
	.byte	W12
	.byte		N10   , An3 
	.byte	W12
	.byte		N22   , An2 
	.byte	W12
	.byte		N10   , En3 
	.byte	W12
	.byte		N20   , An3 
	.byte	W12
	.byte		N10   , An2 
	.byte	W12
	.byte	PEND
@ 042   ----------------------------------------
vastsever8850_7_042:
	.byte		N92   , Dn3 , v100
	.byte	W03
	.byte		N90   , Fn3 
	.byte	W03
	.byte		N88   , An3 
	.byte	W90
	.byte	PEND
@ 043   ----------------------------------------
	.byte	PATT
	 .word	vastsever8850_7_042
@ 044   ----------------------------------------
vastsever8850_7_044:
	.byte		N92   , Cs3 , v100
	.byte	W03
	.byte		N90   , En3 
	.byte	W03
	.byte		N88   , An3 
	.byte	W90
	.byte	PEND
@ 045   ----------------------------------------
vastsever8850_7_045:
	.byte		N68   , Cs3 , v100
	.byte	W03
	.byte		N66   , En3 
	.byte	W03
	.byte		N64   , An3 
	.byte	W66
	.byte		N22   , Cs3 
	.byte		N22   , En3 
	.byte		N22   , Gn3 
	.byte	W24
	.byte	PEND
@ 046   ----------------------------------------
vastsever8850_7_046:
	.byte		N92   , An2 , v100
	.byte	W03
	.byte		        Fn3 
	.byte	W03
	.byte		N88   , An3 
	.byte	W90
	.byte	PEND
@ 047   ----------------------------------------
vastsever8850_7_047:
	.byte		N92   , Gn2 , v100
	.byte	W03
	.byte		        En3 
	.byte	W03
	.byte		N88   , Gn3 
	.byte	W90
	.byte	PEND
@ 048   ----------------------------------------
vastsever8850_7_048:
	.byte		N92   , Gn2 , v100
	.byte	W03
	.byte		        Dn3 
	.byte	W03
	.byte		N88   , Gn3 
	.byte	W90
	.byte	PEND
@ 049   ----------------------------------------
vastsever8850_7_049:
	.byte		N44   , As2 , v100
	.byte	W03
	.byte		        Dn3 
	.byte	W03
	.byte		N40   , Fn3 
	.byte	W42
	.byte		N44   , Cn3 
	.byte	W03
	.byte		        Fn3 
	.byte	W03
	.byte		N40   , An3 
	.byte	W42
	.byte	PEND
@ 050   ----------------------------------------
vastsever8850_7_050:
	.byte		N92   , Fn3 , v100
	.byte		N92   , As3 
	.byte	W36
	.byte		N56   , Dn3 
	.byte	W60
	.byte	PEND
@ 051   ----------------------------------------
vastsever8850_7_051:
	.byte		N92   , Gn3 , v100
	.byte		N92   , As3 
	.byte	W36
	.byte		N56   , Dn3 
	.byte	W60
	.byte	PEND
@ 052   ----------------------------------------
vastsever8850_7_052:
	.byte		N32   , Fn3 , v100
	.byte		N32   , An3 
	.byte	W36
	.byte		        Dn4 
	.byte	W12
	.byte		N23   , An3 
	.byte	W12
	.byte		N11   , En3 
	.byte	W12
	.byte		N23   , An2 
	.byte	W12
	.byte		N11   , En3 
	.byte	W12
	.byte	PEND
@ 053   ----------------------------------------
vastsever8850_7_053:
	.byte		N32   , Cs3 , v100
	.byte	W12
	.byte		N23   , Gn3 
	.byte	W12
	.byte		N11   , As3 
	.byte	W12
	.byte		N56   , An3 
	.byte		N56   , Cs4 
	.byte	W24
	.byte		N32   , En3 
	.byte	W12
	.byte		N23   , Cs3 
	.byte	W12
	.byte		N11   , An2 
	.byte	W12
	.byte	PEND
@ 054   ----------------------------------------
	.byte	PATT
	 .word	vastsever8850_7_046
@ 055   ----------------------------------------
	.byte	PATT
	 .word	vastsever8850_7_047
@ 056   ----------------------------------------
	.byte	PATT
	 .word	vastsever8850_7_048
@ 057   ----------------------------------------
vastsever8850_7_057:
	.byte		N44   , As2 , v100
	.byte	W03
	.byte		        Dn3 
	.byte	W03
	.byte		N40   , Fn3 
	.byte	W42
	.byte		N44   , Cn3 
	.byte	W03
	.byte		        En3 
	.byte	W03
	.byte		N40   , An3 
	.byte	W42
	.byte	PEND
@ 058   ----------------------------------------
	.byte	PATT
	 .word	vastsever8850_7_050
@ 059   ----------------------------------------
vastsever8850_7_059:
	.byte		N92   , Gn3 , v100
	.byte		N92   , Cn4 
	.byte	W36
	.byte		N56   , Dn3 
	.byte	W60
	.byte	PEND
@ 060   ----------------------------------------
vastsever8850_7_060:
	.byte		N32   , Dn3 , v100
	.byte		N32   , Fn3 
	.byte	W36
	.byte		        Dn4 
	.byte	W12
	.byte		N23   , An3 
	.byte	W12
	.byte		N11   , En3 
	.byte	W12
	.byte		N23   , An2 
	.byte	W12
	.byte		N11   , En3 
	.byte	W12
	.byte	PEND
@ 061   ----------------------------------------
vastsever8850_7_061:
	.byte		N32   , Dn3 , v100
	.byte	W12
	.byte		N23   , Fn3 
	.byte	W12
	.byte		N11   , An3 
	.byte	W12
	.byte		N56   , An2 
	.byte		N56   , Dn3 
	.byte	W60
	.byte	PEND
@ 062   ----------------------------------------
	.byte	PATT
	 .word	vastsever8850_7_002
@ 063   ----------------------------------------
	.byte	PATT
	 .word	vastsever8850_7_003
@ 064   ----------------------------------------
	.byte	PATT
	 .word	vastsever8850_7_004
@ 065   ----------------------------------------
	.byte	PATT
	 .word	vastsever8850_7_005
@ 066   ----------------------------------------
	.byte	PATT
	 .word	vastsever8850_7_002
@ 067   ----------------------------------------
	.byte	PATT
	 .word	vastsever8850_7_003
@ 068   ----------------------------------------
	.byte	PATT
	 .word	vastsever8850_7_004
@ 069   ----------------------------------------
	.byte	PATT
	 .word	vastsever8850_7_005
@ 070   ----------------------------------------
	.byte	PATT
	 .word	vastsever8850_7_002
@ 071   ----------------------------------------
	.byte	PATT
	 .word	vastsever8850_7_003
@ 072   ----------------------------------------
	.byte	PATT
	 .word	vastsever8850_7_004
@ 073   ----------------------------------------
	.byte	PATT
	 .word	vastsever8850_7_005
@ 074   ----------------------------------------
	.byte	PATT
	 .word	vastsever8850_7_002
@ 075   ----------------------------------------
	.byte	PATT
	 .word	vastsever8850_7_003
@ 076   ----------------------------------------
	.byte	PATT
	 .word	vastsever8850_7_004
@ 077   ----------------------------------------
	.byte	PATT
	 .word	vastsever8850_7_005
@ 078   ----------------------------------------
	.byte	PATT
	 .word	vastsever8850_7_018
@ 079   ----------------------------------------
	.byte	PATT
	 .word	vastsever8850_7_019
@ 080   ----------------------------------------
	.byte	PATT
	 .word	vastsever8850_7_020
@ 081   ----------------------------------------
	.byte	PATT
	 .word	vastsever8850_7_021
@ 082   ----------------------------------------
	.byte	PATT
	 .word	vastsever8850_7_022
@ 083   ----------------------------------------
	.byte	PATT
	 .word	vastsever8850_7_023
@ 084   ----------------------------------------
	.byte	PATT
	 .word	vastsever8850_7_024
@ 085   ----------------------------------------
	.byte	PATT
	 .word	vastsever8850_7_025
@ 086   ----------------------------------------
	.byte	PATT
	 .word	vastsever8850_7_026
@ 087   ----------------------------------------
	.byte	PATT
	 .word	vastsever8850_7_027
@ 088   ----------------------------------------
	.byte	PATT
	 .word	vastsever8850_7_028
@ 089   ----------------------------------------
	.byte	PATT
	 .word	vastsever8850_7_029
@ 090   ----------------------------------------
	.byte	PATT
	 .word	vastsever8850_7_030
@ 091   ----------------------------------------
	.byte	PATT
	 .word	vastsever8850_7_023
@ 092   ----------------------------------------
	.byte	PATT
	 .word	vastsever8850_7_032
@ 093   ----------------------------------------
	.byte	PATT
	 .word	vastsever8850_7_033
@ 094   ----------------------------------------
	.byte	PATT
	 .word	vastsever8850_7_034
@ 095   ----------------------------------------
	.byte	PATT
	 .word	vastsever8850_7_035
@ 096   ----------------------------------------
	.byte	PATT
	 .word	vastsever8850_7_036
@ 097   ----------------------------------------
	.byte	PATT
	 .word	vastsever8850_7_037
@ 098   ----------------------------------------
	.byte	PATT
	 .word	vastsever8850_7_038
@ 099   ----------------------------------------
	.byte	PATT
	 .word	vastsever8850_7_039
@ 100   ----------------------------------------
	.byte	PATT
	 .word	vastsever8850_7_040
@ 101   ----------------------------------------
	.byte	PATT
	 .word	vastsever8850_7_041
@ 102   ----------------------------------------
	.byte	PATT
	 .word	vastsever8850_7_042
@ 103   ----------------------------------------
	.byte	PATT
	 .word	vastsever8850_7_042
@ 104   ----------------------------------------
	.byte	PATT
	 .word	vastsever8850_7_044
@ 105   ----------------------------------------
	.byte	PATT
	 .word	vastsever8850_7_045
@ 106   ----------------------------------------
	.byte	PATT
	 .word	vastsever8850_7_046
@ 107   ----------------------------------------
	.byte	PATT
	 .word	vastsever8850_7_047
@ 108   ----------------------------------------
	.byte	PATT
	 .word	vastsever8850_7_048
@ 109   ----------------------------------------
	.byte	PATT
	 .word	vastsever8850_7_049
@ 110   ----------------------------------------
	.byte	PATT
	 .word	vastsever8850_7_050
@ 111   ----------------------------------------
	.byte	PATT
	 .word	vastsever8850_7_051
@ 112   ----------------------------------------
	.byte	PATT
	 .word	vastsever8850_7_052
@ 113   ----------------------------------------
	.byte	PATT
	 .word	vastsever8850_7_053
@ 114   ----------------------------------------
	.byte	PATT
	 .word	vastsever8850_7_046
@ 115   ----------------------------------------
	.byte	PATT
	 .word	vastsever8850_7_047
@ 116   ----------------------------------------
	.byte	PATT
	 .word	vastsever8850_7_048
@ 117   ----------------------------------------
	.byte	PATT
	 .word	vastsever8850_7_057
@ 118   ----------------------------------------
	.byte	PATT
	 .word	vastsever8850_7_050
@ 119   ----------------------------------------
	.byte	PATT
	 .word	vastsever8850_7_059
@ 120   ----------------------------------------
	.byte	PATT
	 .word	vastsever8850_7_060
@ 121   ----------------------------------------
	.byte	PATT
	 .word	vastsever8850_7_061
@ 122   ----------------------------------------
	.byte	PATT
	 .word	vastsever8850_7_002
@ 123   ----------------------------------------
	.byte	PATT
	 .word	vastsever8850_7_003
@ 124   ----------------------------------------
	.byte	PATT
	 .word	vastsever8850_7_004
@ 125   ----------------------------------------
	.byte	PATT
	 .word	vastsever8850_7_005
@ 126   ----------------------------------------
	.byte	PATT
	 .word	vastsever8850_7_002
@ 127   ----------------------------------------
	.byte	PATT
	 .word	vastsever8850_7_003
@ 128   ----------------------------------------
	.byte	PATT
	 .word	vastsever8850_7_004
@ 129   ----------------------------------------
	.byte	PATT
	 .word	vastsever8850_7_005
@ 130   ----------------------------------------
	.byte	PATT
	 .word	vastsever8850_7_002
@ 131   ----------------------------------------
	.byte	PATT
	 .word	vastsever8850_7_003
@ 132   ----------------------------------------
	.byte	PATT
	 .word	vastsever8850_7_004
@ 133   ----------------------------------------
	.byte	PATT
	 .word	vastsever8850_7_005
@ 134   ----------------------------------------
	.byte	PATT
	 .word	vastsever8850_7_002
@ 135   ----------------------------------------
	.byte	PATT
	 .word	vastsever8850_7_003
@ 136   ----------------------------------------
	.byte	PATT
	 .word	vastsever8850_7_004
@ 137   ----------------------------------------
	.byte		N92   , En2 , v100
	.byte		N32   , Cs3 
	.byte	W12
	.byte		N23   , En3 
	.byte	W12
	.byte		N11   , An3 
	.byte	W12
	.byte		N23   , Cs3 
	.byte	W12
	.byte		N11   , En3 
	.byte	W12
	.byte		N32   , An3 
	.byte	W12
	.byte		N23   , En3 
	.byte	W12
	.byte		N11   , An2 
	.byte	W12
@ 138   ----------------------------------------
	.byte	PATT
	 .word	vastsever8850_7_018
@ 139   ----------------------------------------
	.byte	PATT
	 .word	vastsever8850_7_019
@ 140   ----------------------------------------
	.byte	PATT
	 .word	vastsever8850_7_020
@ 141   ----------------------------------------
	.byte	PATT
	 .word	vastsever8850_7_021
@ 142   ----------------------------------------
	.byte	PATT
	 .word	vastsever8850_7_022
@ 143   ----------------------------------------
	.byte	PATT
	 .word	vastsever8850_7_023
@ 144   ----------------------------------------
	.byte	PATT
	 .word	vastsever8850_7_024
@ 145   ----------------------------------------
	.byte	PATT
	 .word	vastsever8850_7_025
@ 146   ----------------------------------------
	.byte	PATT
	 .word	vastsever8850_7_026
@ 147   ----------------------------------------
	.byte	PATT
	 .word	vastsever8850_7_027
@ 148   ----------------------------------------
	.byte	PATT
	 .word	vastsever8850_7_028
@ 149   ----------------------------------------
	.byte	PATT
	 .word	vastsever8850_7_029
@ 150   ----------------------------------------
	.byte	PATT
	 .word	vastsever8850_7_030
@ 151   ----------------------------------------
	.byte	PATT
	 .word	vastsever8850_7_023
@ 152   ----------------------------------------
	.byte	PATT
	 .word	vastsever8850_7_032
@ 153   ----------------------------------------
	.byte	W12
	.byte		N44   , An2 , v100
	.byte	W12
	.byte		N32   , En3 
	.byte	W12
	.byte		N22   , An3 
	.byte	W24
	.byte		N32   , En3 
	.byte	W12
	.byte		N22   , An3 
	.byte	W24
@ 154   ----------------------------------------
	.byte		N92   , As2 
	.byte	W12
	.byte		N80   , Dn3 
	.byte	W12
	.byte		N68   , En3 
	.byte	W12
	.byte		N56   , An3 
	.byte	W60
@ 155   ----------------------------------------
	.byte		N92   , Gn2 
	.byte	W12
	.byte		N80   , Cn3 
	.byte	W12
	.byte		N68   , En3 
	.byte	W12
	.byte		N56   , An3 
	.byte	W60
@ 156   ----------------------------------------
	.byte		N92   , As2 
	.byte	W12
	.byte		N80   , Dn3 
	.byte	W12
	.byte		N68   , Fn3 
	.byte	W12
	.byte		N56   , An3 
	.byte	W60
@ 157   ----------------------------------------
	.byte		N68   , An2 
	.byte	W12
	.byte		N56   , Cs3 
	.byte	W12
	.byte		N44   , Gn3 
	.byte	W12
	.byte		N32   , An3 
	.byte	W36
	.byte		N22   , En3 
	.byte		N22   , As3 
	.byte		N22   , Cs4 
	.byte	W24
@ 158   ----------------------------------------
	.byte		TIE   , An2 
	.byte	W01
	.byte		        Dn3 
	.byte	W02
	.byte		        Fn3 
	.byte	W03
	.byte		        An3 
	.byte	W90
@ 159   ----------------------------------------
	.byte	W92
	.byte	W02
	.byte		EOT   , An2 
	.byte		        Fn3 
	.byte		        An3 
	.byte	W01
	.byte		        Dn3 
	.byte	W01
@ 160   ----------------------------------------
	.byte	W96
@ 161   ----------------------------------------
	.byte	W96
@ 162   ----------------------------------------
	.byte	W96
@ 163   ----------------------------------------
	.byte	FINE

@**************** Track 8 (Midi-Chn.8) ****************@

vastsever8850_8:
	.byte	KEYSH , vastsever8850_key+0
@ 000   ----------------------------------------
	.byte	W96
@ 001   ----------------------------------------
	.byte		VOICE , 48
	.byte		VOL   , 90*vastsever8850_mvl/mxv
	.byte		PAN   , c_v+0
	.byte	W48
	.byte		MOD   , 0
	.byte		BEND  , c_v+0
	.byte	W24
	.byte	W06
	.byte	W06
	.byte	W06
	.byte	W06
@ 002   ----------------------------------------
	.byte	W96
@ 003   ----------------------------------------
	.byte	W96
@ 004   ----------------------------------------
	.byte	W96
@ 005   ----------------------------------------
	.byte	W96
@ 006   ----------------------------------------
	.byte	W96
@ 007   ----------------------------------------
	.byte	W96
@ 008   ----------------------------------------
	.byte	W96
@ 009   ----------------------------------------
	.byte	W96
@ 010   ----------------------------------------
	.byte		TIE   , Fn5 , v072
	.byte		TIE   , An5 
	.byte	W96
@ 011   ----------------------------------------
	.byte	W96
@ 012   ----------------------------------------
	.byte	W92
	.byte	W02
	.byte		EOT   , Fn5 
	.byte		        An5 
	.byte	W02
@ 013   ----------------------------------------
	.byte		N92   , En5 
	.byte		N92   , An5 
	.byte	W96
@ 014   ----------------------------------------
	.byte		TIE   
	.byte		TIE   , Dn6 
	.byte	W96
@ 015   ----------------------------------------
	.byte	W96
@ 016   ----------------------------------------
	.byte	W92
	.byte	W02
	.byte		EOT   , An5 
	.byte		        Dn6 
	.byte	W02
@ 017   ----------------------------------------
	.byte	W96
@ 018   ----------------------------------------
	.byte	W96
@ 019   ----------------------------------------
	.byte	W96
@ 020   ----------------------------------------
	.byte	W96
@ 021   ----------------------------------------
	.byte	W96
@ 022   ----------------------------------------
	.byte	W96
@ 023   ----------------------------------------
	.byte	W96
@ 024   ----------------------------------------
	.byte	W96
@ 025   ----------------------------------------
	.byte	W96
@ 026   ----------------------------------------
	.byte	W96
@ 027   ----------------------------------------
	.byte	W96
@ 028   ----------------------------------------
	.byte	W96
@ 029   ----------------------------------------
	.byte	W96
@ 030   ----------------------------------------
	.byte	W96
@ 031   ----------------------------------------
	.byte	W96
@ 032   ----------------------------------------
	.byte	W96
@ 033   ----------------------------------------
	.byte	W96
@ 034   ----------------------------------------
	.byte	W96
@ 035   ----------------------------------------
	.byte	W96
@ 036   ----------------------------------------
	.byte	W96
@ 037   ----------------------------------------
	.byte	W96
@ 038   ----------------------------------------
	.byte	W96
@ 039   ----------------------------------------
	.byte	W96
@ 040   ----------------------------------------
	.byte	W96
@ 041   ----------------------------------------
	.byte	W96
@ 042   ----------------------------------------
	.byte	W96
@ 043   ----------------------------------------
	.byte	W96
@ 044   ----------------------------------------
	.byte	W96
@ 045   ----------------------------------------
vastsever8850_8_045:
	.byte	W12
	.byte		N10   , Cs4 , v092
	.byte		N10   , En4 
	.byte	W12
	.byte		N10   
	.byte		N10   , An4 
	.byte	W12
	.byte		        Gn4 
	.byte		N10   , Bn4 
	.byte	W12
	.byte		        An4 
	.byte		N10   , Cs5 
	.byte	W12
	.byte		        An3 
	.byte		N10   , Cs4 
	.byte		N10   , En4 
	.byte	W12
	.byte		        Cs4 
	.byte		N10   , En4 
	.byte		N10   , An4 
	.byte	W12
	.byte		        En4 
	.byte		N10   , An4 
	.byte		N10   , Cs5 
	.byte	W12
	.byte	PEND
@ 046   ----------------------------------------
vastsever8850_8_046:
	.byte		N92   , An3 , v092
	.byte		N92   , Dn4 
	.byte		N92   , Fn4 
	.byte		N92   , An4 
	.byte	W96
	.byte	PEND
@ 047   ----------------------------------------
vastsever8850_8_047:
	.byte		N92   , Gn3 , v092
	.byte		N92   , Cn4 
	.byte		N92   , En4 
	.byte		N92   , Gn4 
	.byte	W96
	.byte	PEND
@ 048   ----------------------------------------
	.byte	PATT
	 .word	vastsever8850_8_046
@ 049   ----------------------------------------
vastsever8850_8_049:
	.byte		N44   , An3 , v092
	.byte		N44   , Dn4 
	.byte		N44   , Fn4 
	.byte		N44   , An4 
	.byte	W48
	.byte		        Gn3 
	.byte		N44   , Cn4 
	.byte		N44   , En4 
	.byte		N44   , Gn4 
	.byte	W48
	.byte	PEND
@ 050   ----------------------------------------
vastsever8850_8_050:
	.byte		N92   , Fn3 , v092
	.byte		N92   , As3 
	.byte		N92   , Dn4 
	.byte		N92   , Fn4 
	.byte	W96
	.byte	PEND
@ 051   ----------------------------------------
vastsever8850_8_051:
	.byte		N92   , Gn3 , v092
	.byte		N92   , As3 
	.byte		N92   , En4 
	.byte		N92   , Gn4 
	.byte	W96
	.byte	PEND
@ 052   ----------------------------------------
	.byte	PATT
	 .word	vastsever8850_8_046
@ 053   ----------------------------------------
vastsever8850_8_053:
	.byte		N32   , An3 , v092
	.byte		N32   , Dn4 
	.byte		N32   , Fn4 
	.byte		N32   , An4 
	.byte	W36
	.byte		N56   , An3 
	.byte		N56   , Cs4 
	.byte		N56   , En4 
	.byte		N56   , An4 
	.byte	W60
	.byte	PEND
@ 054   ----------------------------------------
	.byte	PATT
	 .word	vastsever8850_8_046
@ 055   ----------------------------------------
vastsever8850_8_055:
	.byte		N92   , Cn4 , v092
	.byte		N92   , En4 
	.byte		N92   , Gn4 
	.byte		N92   , Cn5 
	.byte	W96
	.byte	PEND
@ 056   ----------------------------------------
	.byte	PATT
	 .word	vastsever8850_8_046
@ 057   ----------------------------------------
vastsever8850_8_057:
	.byte		N44   , An3 , v092
	.byte		N44   , Dn4 
	.byte		N44   , Fn4 
	.byte		N44   , An4 
	.byte	W48
	.byte		        Cn4 
	.byte		N44   , En4 
	.byte		N44   , Gn4 
	.byte		N44   , Cn5 
	.byte	W48
	.byte	PEND
@ 058   ----------------------------------------
vastsever8850_8_058:
	.byte		N92   , As3 , v092
	.byte		N92   , Dn4 
	.byte		N92   , Fn4 
	.byte		N92   , As4 
	.byte	W96
	.byte	PEND
@ 059   ----------------------------------------
	.byte	PATT
	 .word	vastsever8850_8_055
@ 060   ----------------------------------------
vastsever8850_8_060:
	.byte		N92   , Cn4 , v092
	.byte		N92   , En4 
	.byte		N92   , An4 
	.byte		N92   , Cn5 
	.byte	W96
	.byte	PEND
@ 061   ----------------------------------------
	.byte	PATT
	 .word	vastsever8850_8_046
@ 062   ----------------------------------------
	.byte	W96
@ 063   ----------------------------------------
	.byte	W96
@ 064   ----------------------------------------
	.byte	W96
@ 065   ----------------------------------------
	.byte	W96
@ 066   ----------------------------------------
	.byte	W96
@ 067   ----------------------------------------
	.byte	W96
@ 068   ----------------------------------------
	.byte	W96
@ 069   ----------------------------------------
	.byte	W96
@ 070   ----------------------------------------
	.byte	W96
@ 071   ----------------------------------------
	.byte	W96
@ 072   ----------------------------------------
	.byte	W96
@ 073   ----------------------------------------
	.byte	W96
@ 074   ----------------------------------------
	.byte	W96
@ 075   ----------------------------------------
	.byte	W96
@ 076   ----------------------------------------
	.byte	W96
@ 077   ----------------------------------------
	.byte	W96
@ 078   ----------------------------------------
	.byte	W96
@ 079   ----------------------------------------
	.byte	W96
@ 080   ----------------------------------------
	.byte	W96
@ 081   ----------------------------------------
	.byte	W96
@ 082   ----------------------------------------
	.byte	W96
@ 083   ----------------------------------------
	.byte	W96
@ 084   ----------------------------------------
	.byte	W96
@ 085   ----------------------------------------
	.byte	W96
@ 086   ----------------------------------------
	.byte	W96
@ 087   ----------------------------------------
	.byte	W96
@ 088   ----------------------------------------
	.byte	W96
@ 089   ----------------------------------------
	.byte	W96
@ 090   ----------------------------------------
	.byte	W96
@ 091   ----------------------------------------
	.byte	W96
@ 092   ----------------------------------------
	.byte	W96
@ 093   ----------------------------------------
	.byte	W96
@ 094   ----------------------------------------
	.byte	W96
@ 095   ----------------------------------------
	.byte	W96
@ 096   ----------------------------------------
	.byte	W96
@ 097   ----------------------------------------
	.byte	W96
@ 098   ----------------------------------------
	.byte	W96
@ 099   ----------------------------------------
	.byte	W96
@ 100   ----------------------------------------
	.byte	W96
@ 101   ----------------------------------------
	.byte	W96
@ 102   ----------------------------------------
	.byte	W96
@ 103   ----------------------------------------
	.byte	W96
@ 104   ----------------------------------------
	.byte	W96
@ 105   ----------------------------------------
	.byte	PATT
	 .word	vastsever8850_8_045
@ 106   ----------------------------------------
	.byte	PATT
	 .word	vastsever8850_8_046
@ 107   ----------------------------------------
	.byte	PATT
	 .word	vastsever8850_8_047
@ 108   ----------------------------------------
	.byte	PATT
	 .word	vastsever8850_8_046
@ 109   ----------------------------------------
	.byte	PATT
	 .word	vastsever8850_8_049
@ 110   ----------------------------------------
	.byte	PATT
	 .word	vastsever8850_8_050
@ 111   ----------------------------------------
	.byte	PATT
	 .word	vastsever8850_8_051
@ 112   ----------------------------------------
	.byte	PATT
	 .word	vastsever8850_8_046
@ 113   ----------------------------------------
	.byte	PATT
	 .word	vastsever8850_8_053
@ 114   ----------------------------------------
	.byte	PATT
	 .word	vastsever8850_8_046
@ 115   ----------------------------------------
	.byte	PATT
	 .word	vastsever8850_8_055
@ 116   ----------------------------------------
	.byte	PATT
	 .word	vastsever8850_8_046
@ 117   ----------------------------------------
	.byte	PATT
	 .word	vastsever8850_8_057
@ 118   ----------------------------------------
	.byte	PATT
	 .word	vastsever8850_8_058
@ 119   ----------------------------------------
	.byte	PATT
	 .word	vastsever8850_8_055
@ 120   ----------------------------------------
	.byte	PATT
	 .word	vastsever8850_8_060
@ 121   ----------------------------------------
	.byte	PATT
	 .word	vastsever8850_8_046
@ 122   ----------------------------------------
	.byte		N92   , Dn4 , v092
	.byte		N92   , Fn4 
	.byte	W96
@ 123   ----------------------------------------
	.byte		        Cn4 
	.byte		N92   , En4 
	.byte	W96
@ 124   ----------------------------------------
	.byte		        Dn4 
	.byte		N92   , Fn4 
	.byte	W96
@ 125   ----------------------------------------
	.byte		        Cs4 
	.byte		N92   , En4 
	.byte	W96
@ 126   ----------------------------------------
	.byte		        Dn4 
	.byte		N92   , Fn4 
	.byte	W96
@ 127   ----------------------------------------
	.byte		        Cn4 
	.byte		N92   , En4 
	.byte	W96
@ 128   ----------------------------------------
	.byte		        Fn4 
	.byte		N92   , An4 
	.byte	W96
@ 129   ----------------------------------------
	.byte		N22   , En4 
	.byte		N22   , An4 
	.byte	W24
	.byte		        En4 
	.byte		N22   , An4 
	.byte		N22   , Cs5 
	.byte	W24
	.byte		        An4 
	.byte		N22   , Cs5 
	.byte		N22   , En5 
	.byte		N22   , Gn5 
	.byte	W24
	.byte		        En4 
	.byte		N22   , An4 
	.byte		N22   , Cs5 
	.byte		N22   , En5 
	.byte	W24
@ 130   ----------------------------------------
vastsever8850_8_130:
	.byte		N92   , Dn4 , v092
	.byte		N92   , Fn4 
	.byte		N92   , An4 
	.byte		N92   , Dn5 
	.byte	W96
	.byte	PEND
@ 131   ----------------------------------------
	.byte	PATT
	 .word	vastsever8850_8_060
@ 132   ----------------------------------------
	.byte	PATT
	 .word	vastsever8850_8_130
@ 133   ----------------------------------------
	.byte		N92   , Cs4 , v092
	.byte		N92   , En4 
	.byte		N92   , An4 
	.byte		N92   , Cs5 
	.byte	W96
@ 134   ----------------------------------------
	.byte	PATT
	 .word	vastsever8850_8_130
@ 135   ----------------------------------------
	.byte	PATT
	 .word	vastsever8850_8_060
@ 136   ----------------------------------------
	.byte	PATT
	 .word	vastsever8850_8_130
@ 137   ----------------------------------------
	.byte		N08   , Cs4 , v092
	.byte		N08   , En4 
	.byte		N08   , An4 
	.byte		N08   , Cs5 
	.byte	W48
	.byte		N22   , An3 
	.byte		N22   , Cs4 
	.byte		N22   , En4 
	.byte		N22   , An4 
	.byte	W24
	.byte		        Cs4 
	.byte		N22   , En4 
	.byte		N22   , An4 
	.byte		N22   , Cs5 
	.byte	W24
@ 138   ----------------------------------------
	.byte	W96
@ 139   ----------------------------------------
	.byte	W96
@ 140   ----------------------------------------
	.byte	W96
@ 141   ----------------------------------------
	.byte	W96
@ 142   ----------------------------------------
	.byte	W96
@ 143   ----------------------------------------
	.byte	W96
@ 144   ----------------------------------------
	.byte	W96
@ 145   ----------------------------------------
	.byte	W96
@ 146   ----------------------------------------
	.byte	W96
@ 147   ----------------------------------------
	.byte	W96
@ 148   ----------------------------------------
	.byte	W96
@ 149   ----------------------------------------
	.byte	W96
@ 150   ----------------------------------------
	.byte	W96
@ 151   ----------------------------------------
	.byte	W96
@ 152   ----------------------------------------
	.byte	W96
@ 153   ----------------------------------------
	.byte	W96
@ 154   ----------------------------------------
	.byte		N32   , An3 
	.byte		N32   , Dn4 
	.byte		N32   , Fn4 
	.byte		N32   , An4 
	.byte	W36
	.byte		N56   , Gn3 
	.byte		N56   , Cn4 
	.byte		N56   , En4 
	.byte		N56   , Gn4 
	.byte	W60
@ 155   ----------------------------------------
	.byte		N32   , Gn3 
	.byte		N32   , As3 
	.byte		N32   , Dn4 
	.byte		N32   , Gn4 
	.byte	W36
	.byte		N56   , An3 
	.byte		N56   , Cs4 
	.byte		N56   , En4 
	.byte		N56   , An4 
	.byte	W60
@ 156   ----------------------------------------
	.byte		N32   , As3 
	.byte		N32   , Dn4 
	.byte		N32   , Gn4 
	.byte		N32   , As4 
	.byte	W36
	.byte		N56   , Cs4 
	.byte		N56   , En4 
	.byte		N56   , An4 
	.byte		N56   , Cs5 
	.byte	W60
@ 157   ----------------------------------------
	.byte		N32   , En4 
	.byte		N32   , Gn4 
	.byte		N32   , As4 
	.byte		N32   , En5 
	.byte	W36
	.byte		N56   , Cs4 
	.byte		N56   , En4 
	.byte		N56   , An4 
	.byte		N56   , Cs5 
	.byte	W60
@ 158   ----------------------------------------
	.byte		TIE   , Dn4 
	.byte		TIE   , Fn4 
	.byte		TIE   , An4 
	.byte		TIE   , Dn5 
	.byte	W96
@ 159   ----------------------------------------
	.byte	W92
	.byte	W03
	.byte		EOT   , Dn4 
	.byte		        Fn4 
	.byte		        An4 
	.byte		        Dn5 
	.byte	W01
@ 160   ----------------------------------------
	.byte	W96
@ 161   ----------------------------------------
	.byte	W96
@ 162   ----------------------------------------
	.byte	W96
@ 163   ----------------------------------------
	.byte	FINE

@**************** Track 9 (Midi-Chn.9) ****************@

vastsever8850_9:
	.byte	KEYSH , vastsever8850_key+0
@ 000   ----------------------------------------
	.byte	W96
@ 001   ----------------------------------------
	.byte		VOICE , 88
	.byte		VOL   , 95*vastsever8850_mvl/mxv
	.byte		PAN   , c_v+0
	.byte	W48
	.byte		MOD   , 0
	.byte		BEND  , c_v+0
	.byte	W24
	.byte	W06
	.byte	W06
	.byte	W06
	.byte	W06
@ 002   ----------------------------------------
	.byte	W96
@ 003   ----------------------------------------
	.byte	W96
@ 004   ----------------------------------------
	.byte	W96
@ 005   ----------------------------------------
	.byte	W96
@ 006   ----------------------------------------
	.byte	W96
@ 007   ----------------------------------------
	.byte	W96
@ 008   ----------------------------------------
	.byte	W96
@ 009   ----------------------------------------
	.byte	W96
@ 010   ----------------------------------------
	.byte	W96
@ 011   ----------------------------------------
	.byte	W96
@ 012   ----------------------------------------
	.byte	W96
@ 013   ----------------------------------------
	.byte	W96
@ 014   ----------------------------------------
	.byte	W96
@ 015   ----------------------------------------
	.byte	W96
@ 016   ----------------------------------------
	.byte	W96
@ 017   ----------------------------------------
	.byte	W96
@ 018   ----------------------------------------
	.byte	W96
@ 019   ----------------------------------------
	.byte	W96
@ 020   ----------------------------------------
	.byte	W96
@ 021   ----------------------------------------
	.byte	W96
@ 022   ----------------------------------------
	.byte	W96
@ 023   ----------------------------------------
	.byte	W96
@ 024   ----------------------------------------
	.byte	W96
@ 025   ----------------------------------------
	.byte	W96
@ 026   ----------------------------------------
	.byte	W96
@ 027   ----------------------------------------
	.byte	W96
@ 028   ----------------------------------------
	.byte	W96
@ 029   ----------------------------------------
	.byte	W96
@ 030   ----------------------------------------
	.byte	W96
@ 031   ----------------------------------------
	.byte	W96
@ 032   ----------------------------------------
	.byte	W96
@ 033   ----------------------------------------
	.byte	W96
@ 034   ----------------------------------------
	.byte	W96
@ 035   ----------------------------------------
	.byte	W96
@ 036   ----------------------------------------
	.byte	W96
@ 037   ----------------------------------------
	.byte	W96
@ 038   ----------------------------------------
	.byte	W96
@ 039   ----------------------------------------
	.byte	W96
@ 040   ----------------------------------------
	.byte	W96
@ 041   ----------------------------------------
	.byte	W96
@ 042   ----------------------------------------
	.byte	W96
@ 043   ----------------------------------------
	.byte	W96
@ 044   ----------------------------------------
	.byte	W96
@ 045   ----------------------------------------
vastsever8850_9_045:
	.byte	W12
	.byte		N02   , En5 , v112
	.byte	W12
	.byte		        An5 
	.byte	W12
	.byte		        Bn5 
	.byte	W12
	.byte		        Cs6 
	.byte	W12
	.byte		        En5 
	.byte	W12
	.byte		        An5 
	.byte	W24
	.byte	PEND
@ 046   ----------------------------------------
vastsever8850_9_046:
	.byte		N02   , An5 , v112
	.byte	W36
	.byte		        Gn5 
	.byte	W36
	.byte		        Cn6 
	.byte	W24
	.byte	PEND
@ 047   ----------------------------------------
vastsever8850_9_047:
	.byte		N02   , An5 , v112
	.byte	W36
	.byte		        Dn5 
	.byte	W24
	.byte		        En5 
	.byte	W12
	.byte		        Fn5 
	.byte	W12
	.byte		        Gn5 
	.byte	W12
	.byte	PEND
@ 048   ----------------------------------------
vastsever8850_9_048:
	.byte		N02   , An5 , v112
	.byte	W36
	.byte		        Gn5 
	.byte	W36
	.byte		        Dn5 
	.byte	W12
	.byte		        En5 
	.byte	W12
	.byte	PEND
@ 049   ----------------------------------------
vastsever8850_9_049:
	.byte		N02   , Fn5 , v112
	.byte	W24
	.byte		        Gn5 
	.byte	W12
	.byte		        En5 
	.byte	W36
	.byte		        Cn5 
	.byte	W24
	.byte	PEND
@ 050   ----------------------------------------
vastsever8850_9_050:
	.byte		N02   , As4 , v112
	.byte	W60
	.byte		        Cn5 
	.byte	W12
	.byte		        Dn5 
	.byte	W12
	.byte		        Fn5 
	.byte	W12
	.byte	PEND
@ 051   ----------------------------------------
vastsever8850_9_051:
	.byte		N02   , En5 , v112
	.byte	W36
	.byte		        Fn5 
	.byte	W36
	.byte		        Gn5 
	.byte	W24
	.byte	PEND
@ 052   ----------------------------------------
	.byte	PATT
	 .word	vastsever8850_9_046
@ 053   ----------------------------------------
vastsever8850_9_053:
	.byte		N02   , An5 , v112
	.byte	W48
	.byte		        Dn5 
	.byte	W12
	.byte		        En5 
	.byte	W12
	.byte		        Fn5 
	.byte	W12
	.byte		        Gn5 
	.byte	W12
	.byte	PEND
@ 054   ----------------------------------------
	.byte	PATT
	 .word	vastsever8850_9_046
@ 055   ----------------------------------------
	.byte	PATT
	 .word	vastsever8850_9_047
@ 056   ----------------------------------------
	.byte	PATT
	 .word	vastsever8850_9_048
@ 057   ----------------------------------------
	.byte	PATT
	 .word	vastsever8850_9_049
@ 058   ----------------------------------------
	.byte	PATT
	 .word	vastsever8850_9_050
@ 059   ----------------------------------------
	.byte	PATT
	 .word	vastsever8850_9_051
@ 060   ----------------------------------------
vastsever8850_9_060:
	.byte		N02   , En5 , v112
	.byte	W12
	.byte		        Dn5 
	.byte	W12
	.byte		        Cn6 
	.byte	W12
	.byte		        En6 
	.byte	W24
	.byte		        Gn6 
	.byte	W12
	.byte		        En6 
	.byte	W12
	.byte		N03   , Dn6 
	.byte	W12
	.byte	PEND
@ 061   ----------------------------------------
	.byte	W96
@ 062   ----------------------------------------
	.byte	W96
@ 063   ----------------------------------------
	.byte	W96
@ 064   ----------------------------------------
	.byte	W96
@ 065   ----------------------------------------
	.byte	W96
@ 066   ----------------------------------------
	.byte	W96
@ 067   ----------------------------------------
	.byte	W96
@ 068   ----------------------------------------
	.byte	W96
@ 069   ----------------------------------------
	.byte	W96
@ 070   ----------------------------------------
	.byte	W96
@ 071   ----------------------------------------
	.byte	W96
@ 072   ----------------------------------------
	.byte	W96
@ 073   ----------------------------------------
	.byte	W96
@ 074   ----------------------------------------
	.byte	W96
@ 075   ----------------------------------------
	.byte	W96
@ 076   ----------------------------------------
	.byte	W96
@ 077   ----------------------------------------
	.byte	W96
@ 078   ----------------------------------------
	.byte	W96
@ 079   ----------------------------------------
	.byte	W96
@ 080   ----------------------------------------
	.byte	W96
@ 081   ----------------------------------------
	.byte	W96
@ 082   ----------------------------------------
	.byte	W96
@ 083   ----------------------------------------
	.byte	W96
@ 084   ----------------------------------------
	.byte	W96
@ 085   ----------------------------------------
	.byte	W96
@ 086   ----------------------------------------
	.byte	W96
@ 087   ----------------------------------------
	.byte	W96
@ 088   ----------------------------------------
	.byte	W96
@ 089   ----------------------------------------
	.byte	W96
@ 090   ----------------------------------------
	.byte	W96
@ 091   ----------------------------------------
	.byte	W96
@ 092   ----------------------------------------
	.byte	W96
@ 093   ----------------------------------------
	.byte	W96
@ 094   ----------------------------------------
	.byte	W96
@ 095   ----------------------------------------
	.byte	W96
@ 096   ----------------------------------------
	.byte	W96
@ 097   ----------------------------------------
	.byte	W96
@ 098   ----------------------------------------
	.byte	W96
@ 099   ----------------------------------------
	.byte	W96
@ 100   ----------------------------------------
	.byte	W96
@ 101   ----------------------------------------
	.byte	W96
@ 102   ----------------------------------------
	.byte	W96
@ 103   ----------------------------------------
	.byte	W96
@ 104   ----------------------------------------
	.byte	W96
@ 105   ----------------------------------------
	.byte	PATT
	 .word	vastsever8850_9_045
@ 106   ----------------------------------------
	.byte	PATT
	 .word	vastsever8850_9_046
@ 107   ----------------------------------------
	.byte	PATT
	 .word	vastsever8850_9_047
@ 108   ----------------------------------------
	.byte	PATT
	 .word	vastsever8850_9_048
@ 109   ----------------------------------------
	.byte	PATT
	 .word	vastsever8850_9_049
@ 110   ----------------------------------------
	.byte	PATT
	 .word	vastsever8850_9_050
@ 111   ----------------------------------------
	.byte	PATT
	 .word	vastsever8850_9_051
@ 112   ----------------------------------------
	.byte	PATT
	 .word	vastsever8850_9_046
@ 113   ----------------------------------------
	.byte	PATT
	 .word	vastsever8850_9_053
@ 114   ----------------------------------------
	.byte	PATT
	 .word	vastsever8850_9_046
@ 115   ----------------------------------------
	.byte	PATT
	 .word	vastsever8850_9_047
@ 116   ----------------------------------------
	.byte	PATT
	 .word	vastsever8850_9_048
@ 117   ----------------------------------------
	.byte	PATT
	 .word	vastsever8850_9_049
@ 118   ----------------------------------------
	.byte	PATT
	 .word	vastsever8850_9_050
@ 119   ----------------------------------------
	.byte	PATT
	 .word	vastsever8850_9_051
@ 120   ----------------------------------------
	.byte	PATT
	 .word	vastsever8850_9_060
@ 121   ----------------------------------------
	.byte	W96
@ 122   ----------------------------------------
	.byte	W96
@ 123   ----------------------------------------
	.byte	W96
@ 124   ----------------------------------------
	.byte	W96
@ 125   ----------------------------------------
	.byte	W96
@ 126   ----------------------------------------
	.byte	W96
@ 127   ----------------------------------------
	.byte	W96
@ 128   ----------------------------------------
	.byte	W96
@ 129   ----------------------------------------
	.byte	W96
@ 130   ----------------------------------------
	.byte	W96
@ 131   ----------------------------------------
	.byte	W96
@ 132   ----------------------------------------
	.byte	W96
@ 133   ----------------------------------------
	.byte	W96
@ 134   ----------------------------------------
	.byte	W96
@ 135   ----------------------------------------
	.byte	W96
@ 136   ----------------------------------------
	.byte	W96
@ 137   ----------------------------------------
	.byte	W96
@ 138   ----------------------------------------
	.byte	W96
@ 139   ----------------------------------------
	.byte	W96
@ 140   ----------------------------------------
	.byte	W96
@ 141   ----------------------------------------
	.byte	W96
@ 142   ----------------------------------------
	.byte	W96
@ 143   ----------------------------------------
	.byte	W96
@ 144   ----------------------------------------
	.byte	W96
@ 145   ----------------------------------------
	.byte	W96
@ 146   ----------------------------------------
	.byte	W96
@ 147   ----------------------------------------
	.byte	W96
@ 148   ----------------------------------------
	.byte	W96
@ 149   ----------------------------------------
	.byte	W96
@ 150   ----------------------------------------
	.byte	W96
@ 151   ----------------------------------------
	.byte	W96
@ 152   ----------------------------------------
	.byte	W96
@ 153   ----------------------------------------
	.byte	W96
@ 154   ----------------------------------------
	.byte	W96
@ 155   ----------------------------------------
	.byte	W96
@ 156   ----------------------------------------
	.byte	W96
@ 157   ----------------------------------------
	.byte	W96
@ 158   ----------------------------------------
	.byte	W96
@ 159   ----------------------------------------
	.byte	W96
@ 160   ----------------------------------------
	.byte	W96
@ 161   ----------------------------------------
	.byte	W96
@ 162   ----------------------------------------
	.byte	W96
@ 163   ----------------------------------------
	.byte	FINE

@**************** Track 10 (Midi-Chn.10) ****************@

vastsever8850_10:
	.byte	KEYSH , vastsever8850_key+0
@ 000   ----------------------------------------
	.byte	W96
@ 001   ----------------------------------------
	.byte		VOICE , 8
	.byte		VOL   , 95*vastsever8850_mvl/mxv
	.byte		PAN   , c_v+0
	.byte	W48
	.byte		MOD   , 0
	.byte		BEND  , c_v+0
	.byte	W48
@ 002   ----------------------------------------
	.byte	W96
@ 003   ----------------------------------------
	.byte	W96
@ 004   ----------------------------------------
	.byte	W96
@ 005   ----------------------------------------
	.byte	W96
@ 006   ----------------------------------------
vastsever8850_10_006:
	.byte		N02   , Fs1 , v112
	.byte	W06
	.byte		N02   
	.byte	W06
	.byte		        As1 
	.byte	W06
	.byte		        Gs1 
	.byte	W06
	.byte		        Fs1 
	.byte	W06
	.byte		N02   
	.byte	W06
	.byte		        As1 
	.byte	W06
	.byte		        Gs1 
	.byte	W06
	.byte		        Fs1 
	.byte	W06
	.byte		N02   
	.byte	W06
	.byte		        As1 
	.byte	W06
	.byte		        Gs1 
	.byte	W06
	.byte		        Fs1 
	.byte	W06
	.byte		N02   
	.byte	W06
	.byte		        As1 
	.byte	W06
	.byte		        Gs1 
	.byte	W06
	.byte	PEND
@ 007   ----------------------------------------
	.byte	PATT
	 .word	vastsever8850_10_006
@ 008   ----------------------------------------
	.byte	PATT
	 .word	vastsever8850_10_006
@ 009   ----------------------------------------
	.byte	PATT
	 .word	vastsever8850_10_006
@ 010   ----------------------------------------
vastsever8850_10_010:
	.byte		N02   , As1 , v112
	.byte		N02   , Cs2 , v127
	.byte	W06
	.byte		        Gs1 , v112
	.byte	W06
	.byte		        Fs1 
	.byte	W06
	.byte		N02   
	.byte	W06
	.byte		        As1 
	.byte	W06
	.byte		        Gs1 
	.byte	W06
	.byte		        Fs1 
	.byte	W06
	.byte		N02   
	.byte	W06
	.byte		        As1 
	.byte	W06
	.byte		        Gs1 
	.byte	W06
	.byte		        Fs1 
	.byte	W06
	.byte		N02   
	.byte	W06
	.byte		        As1 
	.byte	W06
	.byte		        Gs1 
	.byte	W06
	.byte		        Fs1 
	.byte	W06
	.byte		N02   
	.byte	W06
	.byte	PEND
@ 011   ----------------------------------------
vastsever8850_10_011:
	.byte		N02   , As1 , v112
	.byte	W06
	.byte		        Gs1 
	.byte	W06
	.byte		        Fs1 
	.byte	W06
	.byte		N02   
	.byte	W06
	.byte		        As1 
	.byte	W06
	.byte		        Gs1 
	.byte	W06
	.byte		        Fs1 
	.byte	W06
	.byte		N02   
	.byte	W06
	.byte		        As1 
	.byte	W06
	.byte		        Gs1 
	.byte	W06
	.byte		        Fs1 
	.byte	W06
	.byte		N02   
	.byte	W06
	.byte		        As1 
	.byte	W06
	.byte		        Gs1 
	.byte	W06
	.byte		        Fs1 
	.byte	W06
	.byte		N02   
	.byte	W06
	.byte	PEND
@ 012   ----------------------------------------
	.byte	PATT
	 .word	vastsever8850_10_011
@ 013   ----------------------------------------
vastsever8850_10_013:
	.byte		N02   , Fs1 , v112
	.byte	W06
	.byte		N02   
	.byte	W06
	.byte		        As1 
	.byte	W06
	.byte		        Fs1 
	.byte	W06
	.byte		        As1 
	.byte	W06
	.byte		N02   
	.byte	W06
	.byte		        Fs1 
	.byte	W06
	.byte		        As1 
	.byte	W06
	.byte		        Fs1 
	.byte	W06
	.byte		N02   
	.byte	W06
	.byte		        As1 
	.byte	W06
	.byte		        Gs1 
	.byte	W06
	.byte		        Fs1 
	.byte	W06
	.byte		N02   
	.byte	W06
	.byte		        As1 
	.byte	W06
	.byte		        Gs1 
	.byte	W06
	.byte	PEND
@ 014   ----------------------------------------
	.byte	PATT
	 .word	vastsever8850_10_010
@ 015   ----------------------------------------
	.byte	PATT
	 .word	vastsever8850_10_011
@ 016   ----------------------------------------
vastsever8850_10_016:
	.byte		N02   , As1 , v112
	.byte	W12
	.byte		        Gs1 
	.byte	W06
	.byte		        Fs1 
	.byte	W06
	.byte		        As1 , v116
	.byte	W12
	.byte		        Gs1 
	.byte	W06
	.byte		        Fs1 
	.byte	W06
	.byte		        As1 , v120
	.byte	W12
	.byte		        Gs1 
	.byte	W06
	.byte		        Fs1 
	.byte	W06
	.byte		        As1 , v127
	.byte	W18
	.byte		        Gn1 , v112
	.byte	W06
	.byte	PEND
@ 017   ----------------------------------------
vastsever8850_10_017:
	.byte		N02   , An2 , v112
	.byte	W60
	.byte		        Cn2 
	.byte	W06
	.byte		        Gn1 
	.byte	W18
	.byte		        Bn1 
	.byte	W06
	.byte		        Fn1 
	.byte	W06
	.byte	PEND
@ 018   ----------------------------------------
vastsever8850_10_018:
	.byte		N02   , Fs1 , v112
	.byte		N02   , Cs2 , v127
	.byte	W06
	.byte		        Fs1 , v112
	.byte	W06
	.byte		        Gs1 
	.byte	W06
	.byte		        Fs1 
	.byte	W06
	.byte		        As1 
	.byte	W06
	.byte		        Fs1 
	.byte	W06
	.byte		        Gs1 
	.byte	W06
	.byte		        Fs1 
	.byte	W06
	.byte		N02   
	.byte	W06
	.byte		N02   
	.byte	W06
	.byte		        Gs1 
	.byte	W06
	.byte		        Fs1 
	.byte	W06
	.byte		        As1 
	.byte	W06
	.byte		        Fs1 
	.byte	W06
	.byte		        As1 
	.byte	W06
	.byte		        Gs1 
	.byte	W06
	.byte	PEND
@ 019   ----------------------------------------
vastsever8850_10_019:
	.byte		N02   , Fs1 , v112
	.byte	W06
	.byte		        As1 
	.byte	W06
	.byte		        Fs1 
	.byte	W06
	.byte		N02   
	.byte	W06
	.byte		        As1 
	.byte	W06
	.byte		        Fs1 
	.byte	W06
	.byte		        Gs1 
	.byte	W06
	.byte		        As1 
	.byte	W06
	.byte		        Fs1 
	.byte	W06
	.byte		        As1 
	.byte	W06
	.byte		        Fs1 
	.byte	W06
	.byte		        Gs1 
	.byte	W06
	.byte		        As1 
	.byte	W06
	.byte		        Fs1 
	.byte	W06
	.byte		        Gs1 
	.byte	W06
	.byte		        As1 
	.byte	W06
	.byte	PEND
@ 020   ----------------------------------------
vastsever8850_10_020:
	.byte		N02   , Fs1 , v112
	.byte	W06
	.byte		N02   
	.byte	W06
	.byte		        Gs1 
	.byte	W06
	.byte		        Fs1 
	.byte	W06
	.byte		        As1 
	.byte	W06
	.byte		        Fs1 
	.byte	W06
	.byte		        Gs1 
	.byte	W06
	.byte		        Fs1 
	.byte	W06
	.byte		N02   
	.byte	W06
	.byte		N02   
	.byte	W06
	.byte		        Gs1 
	.byte	W06
	.byte		        Fs1 
	.byte	W06
	.byte		        As1 
	.byte	W06
	.byte		        Fs1 
	.byte	W06
	.byte		        As1 
	.byte	W06
	.byte		        Gs1 
	.byte	W06
	.byte	PEND
@ 021   ----------------------------------------
	.byte	PATT
	 .word	vastsever8850_10_019
@ 022   ----------------------------------------
	.byte	PATT
	 .word	vastsever8850_10_020
@ 023   ----------------------------------------
	.byte	PATT
	 .word	vastsever8850_10_019
@ 024   ----------------------------------------
	.byte	PATT
	 .word	vastsever8850_10_020
@ 025   ----------------------------------------
vastsever8850_10_025:
	.byte		N02   , Fs1 , v112
	.byte	W06
	.byte		        As1 
	.byte	W06
	.byte		        Fs1 
	.byte	W06
	.byte		N02   
	.byte	W06
	.byte		        As1 
	.byte	W06
	.byte		        Fs1 
	.byte	W06
	.byte		        Gs1 
	.byte	W06
	.byte		        As1 
	.byte	W06
	.byte		        Fs1 
	.byte	W06
	.byte		        As1 
	.byte	W06
	.byte		        Fs1 
	.byte	W06
	.byte		        Gs1 
	.byte	W06
	.byte		        Fs1 
	.byte	W06
	.byte		        As1 
	.byte	W06
	.byte		        Fs1 
	.byte	W06
	.byte		        As1 
	.byte	W06
	.byte	PEND
@ 026   ----------------------------------------
vastsever8850_10_026:
	.byte		N02   , Fs1 , v112
	.byte		N02   , An2 , v127
	.byte	W06
	.byte		        Fs1 , v112
	.byte	W06
	.byte		        Gs1 
	.byte	W06
	.byte		        Fs1 
	.byte	W06
	.byte		        As1 
	.byte	W06
	.byte		        Fs1 
	.byte	W06
	.byte		        Gs1 
	.byte	W06
	.byte		        Fs1 
	.byte	W06
	.byte		N02   
	.byte	W06
	.byte		N02   
	.byte	W06
	.byte		        Gs1 
	.byte	W06
	.byte		        Fs1 
	.byte	W06
	.byte		        As1 
	.byte	W06
	.byte		        Fs1 
	.byte	W06
	.byte		        As1 
	.byte	W06
	.byte		        Gs1 
	.byte	W06
	.byte	PEND
@ 027   ----------------------------------------
	.byte	PATT
	 .word	vastsever8850_10_019
@ 028   ----------------------------------------
	.byte	PATT
	 .word	vastsever8850_10_020
@ 029   ----------------------------------------
	.byte	PATT
	 .word	vastsever8850_10_019
@ 030   ----------------------------------------
	.byte	PATT
	 .word	vastsever8850_10_020
@ 031   ----------------------------------------
	.byte	PATT
	 .word	vastsever8850_10_019
@ 032   ----------------------------------------
	.byte	PATT
	 .word	vastsever8850_10_020
@ 033   ----------------------------------------
vastsever8850_10_033:
	.byte		N02   , Fs1 , v112
	.byte	W06
	.byte		        As1 
	.byte	W06
	.byte		        Fs1 
	.byte	W06
	.byte		N02   
	.byte	W06
	.byte		        As1 
	.byte	W06
	.byte		        Fs1 
	.byte	W06
	.byte		        Gs1 
	.byte	W06
	.byte		        As1 
	.byte	W06
	.byte		        Fn2 , v127
	.byte	W18
	.byte		        Cn2 , v112
	.byte	W12
	.byte		        Gn1 
	.byte	W12
	.byte		        Fn1 
	.byte	W06
	.byte	PEND
@ 034   ----------------------------------------
vastsever8850_10_034:
	.byte		N02   , As1 , v112
	.byte		N02   , Cs2 , v127
	.byte	W12
	.byte		        As1 , v112
	.byte	W12
	.byte		N02   
	.byte	W12
	.byte		N02   
	.byte	W12
	.byte		N02   
	.byte	W12
	.byte		N02   
	.byte	W12
	.byte		        En2 
	.byte	W12
	.byte		        Gn2 
	.byte	W12
	.byte	PEND
@ 035   ----------------------------------------
vastsever8850_10_035:
	.byte		N02   , As1 , v112
	.byte	W12
	.byte		N02   
	.byte	W12
	.byte		N02   
	.byte	W12
	.byte		N02   
	.byte	W12
	.byte		N02   
	.byte	W12
	.byte		        Fn2 , v127
	.byte	W12
	.byte		        As1 , v112
	.byte	W12
	.byte		        Fn2 , v127
	.byte	W12
	.byte	PEND
@ 036   ----------------------------------------
vastsever8850_10_036:
	.byte		N02   , As1 , v112
	.byte		N02   , An2 , v127
	.byte	W12
	.byte		        As1 , v112
	.byte	W12
	.byte		N02   
	.byte	W12
	.byte		N02   
	.byte	W12
	.byte		N02   
	.byte	W12
	.byte		N02   
	.byte	W12
	.byte		        Gn2 
	.byte	W12
	.byte		        En2 
	.byte	W12
	.byte	PEND
@ 037   ----------------------------------------
vastsever8850_10_037:
	.byte		N02   , As1 , v112
	.byte	W12
	.byte		N02   
	.byte	W12
	.byte		N02   
	.byte	W12
	.byte		N02   
	.byte	W12
	.byte		N02   
	.byte	W12
	.byte		        Fn2 , v127
	.byte	W12
	.byte		        Gn2 , v112
	.byte	W24
	.byte	PEND
@ 038   ----------------------------------------
	.byte	PATT
	 .word	vastsever8850_10_034
@ 039   ----------------------------------------
	.byte	PATT
	 .word	vastsever8850_10_035
@ 040   ----------------------------------------
	.byte	PATT
	 .word	vastsever8850_10_036
@ 041   ----------------------------------------
vastsever8850_10_041:
	.byte		N02   , An2 , v127
	.byte	W06
	.byte		        Dn2 , v112
	.byte	W06
	.byte		        Bn1 
	.byte	W06
	.byte		        Gn1 
	.byte	W12
	.byte		        Cn2 
	.byte	W06
	.byte		        An1 
	.byte	W06
	.byte		        Fn1 
	.byte	W12
	.byte		        Dn2 
	.byte	W06
	.byte		        Bn1 
	.byte	W06
	.byte		        Gn1 
	.byte	W06
	.byte		        An2 , v127
	.byte	W24
	.byte	PEND
@ 042   ----------------------------------------
vastsever8850_10_042:
	.byte		N02   , Cs2 , v127
	.byte	W12
	.byte		        Fs1 , v112
	.byte	W06
	.byte		N02   
	.byte	W06
	.byte		        As1 
	.byte	W12
	.byte		        Fs1 
	.byte	W06
	.byte		N02   
	.byte	W06
	.byte		        As1 
	.byte	W12
	.byte		        Fs1 
	.byte	W06
	.byte		N02   
	.byte	W06
	.byte		        As1 
	.byte	W06
	.byte		        Fs1 
	.byte	W06
	.byte		N02   
	.byte	W06
	.byte		        As1 
	.byte	W06
	.byte	PEND
@ 043   ----------------------------------------
vastsever8850_10_043:
	.byte		N02   , Gn2 , v127
	.byte	W12
	.byte		        Fs1 , v112
	.byte	W06
	.byte		N02   
	.byte	W06
	.byte		        As1 
	.byte	W12
	.byte		        Fs1 
	.byte	W06
	.byte		N02   
	.byte	W06
	.byte		        As1 
	.byte	W12
	.byte		        Fs1 
	.byte	W06
	.byte		N02   
	.byte	W06
	.byte		        As1 
	.byte	W06
	.byte		        Fs1 
	.byte	W06
	.byte		N02   
	.byte	W06
	.byte		        As1 
	.byte	W06
	.byte	PEND
@ 044   ----------------------------------------
	.byte	PATT
	 .word	vastsever8850_10_043
@ 045   ----------------------------------------
vastsever8850_10_045:
	.byte		N02   , Gn2 , v127
	.byte	W06
	.byte		        Dn2 , v112
	.byte	W06
	.byte		        Bn1 
	.byte	W06
	.byte		        Gn1 
	.byte	W12
	.byte		        Dn2 
	.byte	W06
	.byte		        Bn1 
	.byte	W06
	.byte		        Gn1 
	.byte	W12
	.byte		        Cn2 
	.byte	W06
	.byte		        An1 
	.byte	W06
	.byte		        Fn1 
	.byte	W06
	.byte		        An2 , v127
	.byte	W24
	.byte	PEND
@ 046   ----------------------------------------
vastsever8850_10_046:
	.byte		N02   , Fs1 , v112
	.byte		N02   , Cs2 , v127
	.byte	W06
	.byte		        Fs1 , v112
	.byte	W06
	.byte		        As1 
	.byte	W12
	.byte		        Fs1 
	.byte	W06
	.byte		N02   
	.byte	W06
	.byte		        As1 
	.byte	W12
	.byte		        Fs1 
	.byte	W06
	.byte		N02   
	.byte	W06
	.byte		        As1 
	.byte	W12
	.byte		        Fs1 
	.byte	W06
	.byte		N02   
	.byte	W06
	.byte		        As1 
	.byte	W12
	.byte	PEND
@ 047   ----------------------------------------
vastsever8850_10_047:
	.byte		N02   , Fs1 , v112
	.byte	W06
	.byte		N02   
	.byte	W06
	.byte		        As1 
	.byte	W12
	.byte		        Fs1 
	.byte	W06
	.byte		N02   
	.byte	W06
	.byte		        As1 
	.byte	W12
	.byte		        Fs1 
	.byte	W06
	.byte		N02   
	.byte	W06
	.byte		        As1 
	.byte	W12
	.byte		        Fs1 
	.byte	W06
	.byte		N02   
	.byte	W06
	.byte		        As1 
	.byte	W12
	.byte	PEND
@ 048   ----------------------------------------
	.byte	PATT
	 .word	vastsever8850_10_047
@ 049   ----------------------------------------
vastsever8850_10_049:
	.byte		N02   , Fs1 , v112
	.byte	W06
	.byte		N02   
	.byte	W06
	.byte		        As1 
	.byte	W12
	.byte		        Fs1 
	.byte	W06
	.byte		N02   
	.byte	W06
	.byte		        As1 
	.byte	W12
	.byte		        Fs1 
	.byte	W06
	.byte		N02   
	.byte	W06
	.byte		        As1 
	.byte	W24
	.byte		N02   
	.byte	W12
	.byte	PEND
@ 050   ----------------------------------------
vastsever8850_10_050:
	.byte		N02   , Fs1 , v112
	.byte		N02   , An2 , v127
	.byte	W06
	.byte		        Fs1 , v112
	.byte	W06
	.byte		        As1 
	.byte	W12
	.byte		        Fs1 
	.byte	W06
	.byte		N02   
	.byte	W06
	.byte		        As1 
	.byte	W12
	.byte		        Fs1 
	.byte	W06
	.byte		N02   
	.byte	W06
	.byte		        As1 
	.byte	W12
	.byte		        Fs1 
	.byte	W06
	.byte		N02   
	.byte	W06
	.byte		        As1 
	.byte	W12
	.byte	PEND
@ 051   ----------------------------------------
	.byte	PATT
	 .word	vastsever8850_10_047
@ 052   ----------------------------------------
	.byte	PATT
	 .word	vastsever8850_10_047
@ 053   ----------------------------------------
	.byte	PATT
	 .word	vastsever8850_10_049
@ 054   ----------------------------------------
	.byte	PATT
	 .word	vastsever8850_10_046
@ 055   ----------------------------------------
	.byte	PATT
	 .word	vastsever8850_10_047
@ 056   ----------------------------------------
	.byte	PATT
	 .word	vastsever8850_10_047
@ 057   ----------------------------------------
vastsever8850_10_057:
	.byte		N02   , Fs1 , v112
	.byte		N02   , An2 , v127
	.byte	W06
	.byte		        Fs1 , v112
	.byte	W06
	.byte		        As1 
	.byte	W12
	.byte		        Fs1 
	.byte	W06
	.byte		N02   
	.byte	W06
	.byte		        As1 
	.byte	W12
	.byte		        Fs1 
	.byte	W06
	.byte		N02   
	.byte	W06
	.byte		        As1 
	.byte	W12
	.byte		        Gn2 , v127
	.byte	W12
	.byte		        As1 , v112
	.byte	W12
	.byte	PEND
@ 058   ----------------------------------------
	.byte	PATT
	 .word	vastsever8850_10_050
@ 059   ----------------------------------------
	.byte	PATT
	 .word	vastsever8850_10_047
@ 060   ----------------------------------------
	.byte	PATT
	 .word	vastsever8850_10_047
@ 061   ----------------------------------------
vastsever8850_10_061:
	.byte		N02   , Fs1 , v112
	.byte		N02   , Fn2 , v127
	.byte	W06
	.byte		        Fs1 , v112
	.byte	W06
	.byte		        As1 
	.byte	W12
	.byte		        Fs1 
	.byte		N02   , Gn2 , v127
	.byte	W06
	.byte		        Fs1 , v112
	.byte	W06
	.byte		        As1 
	.byte	W30
	.byte		        Cn2 
	.byte	W18
	.byte		        An1 
	.byte	W12
	.byte	PEND
@ 062   ----------------------------------------
vastsever8850_10_062:
	.byte		N02   , Cs2 , v127
	.byte	W12
	.byte		        Fs1 , v112
	.byte	W12
	.byte		        As1 
	.byte	W12
	.byte		        Fs1 
	.byte	W12
	.byte		        As1 
	.byte	W12
	.byte		        Fs1 
	.byte	W12
	.byte		        As1 
	.byte	W12
	.byte		        Fs1 
	.byte	W12
	.byte	PEND
@ 063   ----------------------------------------
vastsever8850_10_063:
	.byte		N02   , As1 , v112
	.byte	W12
	.byte		        Fs1 
	.byte	W12
	.byte		        As1 
	.byte	W12
	.byte		        Fs1 
	.byte	W12
	.byte		        As1 
	.byte	W12
	.byte		        Fs1 
	.byte	W12
	.byte		        As1 
	.byte	W12
	.byte		        Fs1 
	.byte	W12
	.byte	PEND
@ 064   ----------------------------------------
	.byte	PATT
	 .word	vastsever8850_10_063
@ 065   ----------------------------------------
	.byte	PATT
	 .word	vastsever8850_10_063
@ 066   ----------------------------------------
vastsever8850_10_066:
	.byte		N02   , Fs1 , v112
	.byte		N02   , Cs2 , v127
	.byte	W06
	.byte		        Fs1 , v112
	.byte	W06
	.byte		        As1 
	.byte	W06
	.byte		        Gs1 
	.byte	W06
	.byte		        Fs1 
	.byte	W06
	.byte		N02   
	.byte	W06
	.byte		        As1 
	.byte	W06
	.byte		        Gs1 
	.byte	W06
	.byte		        Fs1 
	.byte	W06
	.byte		N02   
	.byte	W06
	.byte		        As1 
	.byte	W06
	.byte		        Gs1 
	.byte	W06
	.byte		        Fs1 
	.byte	W06
	.byte		N02   
	.byte	W06
	.byte		        As1 
	.byte	W06
	.byte		        Gs1 
	.byte	W06
	.byte	PEND
@ 067   ----------------------------------------
	.byte	PATT
	 .word	vastsever8850_10_006
@ 068   ----------------------------------------
	.byte	PATT
	 .word	vastsever8850_10_006
@ 069   ----------------------------------------
	.byte	PATT
	 .word	vastsever8850_10_006
@ 070   ----------------------------------------
	.byte	PATT
	 .word	vastsever8850_10_010
@ 071   ----------------------------------------
	.byte	PATT
	 .word	vastsever8850_10_011
@ 072   ----------------------------------------
	.byte	PATT
	 .word	vastsever8850_10_011
@ 073   ----------------------------------------
	.byte	PATT
	 .word	vastsever8850_10_013
@ 074   ----------------------------------------
	.byte	PATT
	 .word	vastsever8850_10_010
@ 075   ----------------------------------------
	.byte	PATT
	 .word	vastsever8850_10_011
@ 076   ----------------------------------------
	.byte	PATT
	 .word	vastsever8850_10_016
@ 077   ----------------------------------------
	.byte	PATT
	 .word	vastsever8850_10_017
@ 078   ----------------------------------------
	.byte	PATT
	 .word	vastsever8850_10_018
@ 079   ----------------------------------------
	.byte	PATT
	 .word	vastsever8850_10_019
@ 080   ----------------------------------------
	.byte	PATT
	 .word	vastsever8850_10_020
@ 081   ----------------------------------------
	.byte	PATT
	 .word	vastsever8850_10_019
@ 082   ----------------------------------------
	.byte	PATT
	 .word	vastsever8850_10_020
@ 083   ----------------------------------------
	.byte	PATT
	 .word	vastsever8850_10_019
@ 084   ----------------------------------------
	.byte	PATT
	 .word	vastsever8850_10_020
@ 085   ----------------------------------------
	.byte	PATT
	 .word	vastsever8850_10_025
@ 086   ----------------------------------------
	.byte	PATT
	 .word	vastsever8850_10_026
@ 087   ----------------------------------------
	.byte	PATT
	 .word	vastsever8850_10_019
@ 088   ----------------------------------------
	.byte	PATT
	 .word	vastsever8850_10_020
@ 089   ----------------------------------------
	.byte	PATT
	 .word	vastsever8850_10_019
@ 090   ----------------------------------------
	.byte	PATT
	 .word	vastsever8850_10_020
@ 091   ----------------------------------------
	.byte	PATT
	 .word	vastsever8850_10_019
@ 092   ----------------------------------------
	.byte	PATT
	 .word	vastsever8850_10_020
@ 093   ----------------------------------------
	.byte	PATT
	 .word	vastsever8850_10_033
@ 094   ----------------------------------------
	.byte	PATT
	 .word	vastsever8850_10_034
@ 095   ----------------------------------------
	.byte	PATT
	 .word	vastsever8850_10_035
@ 096   ----------------------------------------
	.byte	PATT
	 .word	vastsever8850_10_036
@ 097   ----------------------------------------
	.byte	PATT
	 .word	vastsever8850_10_037
@ 098   ----------------------------------------
	.byte	PATT
	 .word	vastsever8850_10_034
@ 099   ----------------------------------------
	.byte	PATT
	 .word	vastsever8850_10_035
@ 100   ----------------------------------------
	.byte	PATT
	 .word	vastsever8850_10_036
@ 101   ----------------------------------------
	.byte	PATT
	 .word	vastsever8850_10_041
@ 102   ----------------------------------------
	.byte	PATT
	 .word	vastsever8850_10_042
@ 103   ----------------------------------------
	.byte	PATT
	 .word	vastsever8850_10_043
@ 104   ----------------------------------------
	.byte	PATT
	 .word	vastsever8850_10_043
@ 105   ----------------------------------------
	.byte	PATT
	 .word	vastsever8850_10_045
@ 106   ----------------------------------------
	.byte	PATT
	 .word	vastsever8850_10_046
@ 107   ----------------------------------------
	.byte	PATT
	 .word	vastsever8850_10_047
@ 108   ----------------------------------------
	.byte	PATT
	 .word	vastsever8850_10_047
@ 109   ----------------------------------------
	.byte	PATT
	 .word	vastsever8850_10_049
@ 110   ----------------------------------------
	.byte	PATT
	 .word	vastsever8850_10_050
@ 111   ----------------------------------------
	.byte	PATT
	 .word	vastsever8850_10_047
@ 112   ----------------------------------------
	.byte	PATT
	 .word	vastsever8850_10_047
@ 113   ----------------------------------------
	.byte	PATT
	 .word	vastsever8850_10_049
@ 114   ----------------------------------------
	.byte	PATT
	 .word	vastsever8850_10_046
@ 115   ----------------------------------------
	.byte	PATT
	 .word	vastsever8850_10_047
@ 116   ----------------------------------------
	.byte	PATT
	 .word	vastsever8850_10_047
@ 117   ----------------------------------------
	.byte	PATT
	 .word	vastsever8850_10_057
@ 118   ----------------------------------------
	.byte	PATT
	 .word	vastsever8850_10_050
@ 119   ----------------------------------------
	.byte	PATT
	 .word	vastsever8850_10_047
@ 120   ----------------------------------------
	.byte	PATT
	 .word	vastsever8850_10_047
@ 121   ----------------------------------------
	.byte	PATT
	 .word	vastsever8850_10_061
@ 122   ----------------------------------------
	.byte	PATT
	 .word	vastsever8850_10_062
@ 123   ----------------------------------------
	.byte	PATT
	 .word	vastsever8850_10_063
@ 124   ----------------------------------------
	.byte	PATT
	 .word	vastsever8850_10_063
@ 125   ----------------------------------------
	.byte	PATT
	 .word	vastsever8850_10_063
@ 126   ----------------------------------------
	.byte	PATT
	 .word	vastsever8850_10_066
@ 127   ----------------------------------------
	.byte	PATT
	 .word	vastsever8850_10_006
@ 128   ----------------------------------------
	.byte	PATT
	 .word	vastsever8850_10_006
@ 129   ----------------------------------------
	.byte		N02   , Fs1 , v112
	.byte	W06
	.byte		N02   
	.byte	W06
	.byte		        As1 
	.byte	W06
	.byte		        Gs1 
	.byte	W06
	.byte		        Fs1 
	.byte	W06
	.byte		N02   
	.byte	W06
	.byte		        As1 
	.byte	W06
	.byte		        Gs1 
	.byte	W06
	.byte		        An2 , v127
	.byte	W48
@ 130   ----------------------------------------
	.byte		        Fs1 , v112
	.byte		N02   , Cs2 , v127
	.byte	W06
	.byte		        Fs1 , v112
	.byte	W06
	.byte		        Gs1 
	.byte	W06
	.byte		        Fs1 
	.byte	W06
	.byte		        As1 
	.byte	W06
	.byte		        Fs1 
	.byte	W06
	.byte		        Gs1 
	.byte	W06
	.byte		        Fs1 
	.byte		N02   , Cn2 
	.byte	W06
	.byte		        Fs1 
	.byte	W06
	.byte		N02   
	.byte	W06
	.byte		        Gs1 
	.byte	W06
	.byte		        Fs1 
	.byte	W06
	.byte		        As1 
	.byte	W06
	.byte		        Fs1 
	.byte	W06
	.byte		        As1 
	.byte	W06
	.byte		        Gs1 
	.byte	W06
@ 131   ----------------------------------------
vastsever8850_10_131:
	.byte		N02   , Fs1 , v112
	.byte	W06
	.byte		        As1 
	.byte	W06
	.byte		        Fs1 
	.byte	W06
	.byte		N02   
	.byte	W06
	.byte		        As1 
	.byte	W06
	.byte		        Fs1 
	.byte	W06
	.byte		        Gs1 
	.byte	W06
	.byte		        As1 
	.byte		N02   , Cn2 
	.byte	W06
	.byte		        Fs1 
	.byte	W06
	.byte		        As1 
	.byte	W06
	.byte		        Fs1 
	.byte	W06
	.byte		        Gs1 
	.byte	W06
	.byte		        As1 
	.byte	W06
	.byte		        Fs1 
	.byte	W06
	.byte		        Gs1 
	.byte	W06
	.byte		        As1 
	.byte	W06
	.byte	PEND
@ 132   ----------------------------------------
vastsever8850_10_132:
	.byte		N02   , Fs1 , v112
	.byte	W06
	.byte		N02   
	.byte	W06
	.byte		        Gs1 
	.byte	W06
	.byte		        Fs1 
	.byte	W06
	.byte		        As1 
	.byte	W06
	.byte		        Fs1 
	.byte	W06
	.byte		        Gs1 
	.byte	W06
	.byte		        Fs1 
	.byte		N02   , Cn2 
	.byte	W06
	.byte		        Fs1 
	.byte	W06
	.byte		N02   
	.byte	W06
	.byte		        Gs1 
	.byte	W06
	.byte		        Fs1 
	.byte	W06
	.byte		        As1 
	.byte	W06
	.byte		        Fs1 
	.byte	W06
	.byte		        As1 
	.byte	W06
	.byte		        Gs1 
	.byte	W06
	.byte	PEND
@ 133   ----------------------------------------
	.byte	PATT
	 .word	vastsever8850_10_131
@ 134   ----------------------------------------
	.byte		N02   , Fs1 , v112
	.byte		N02   , An2 , v127
	.byte	W06
	.byte		        Fs1 , v112
	.byte	W06
	.byte		        Gs1 
	.byte	W06
	.byte		        Fs1 
	.byte	W06
	.byte		        As1 
	.byte	W06
	.byte		        Fs1 
	.byte	W06
	.byte		        Gs1 
	.byte	W06
	.byte		        Fs1 
	.byte		N02   , Cn2 
	.byte	W06
	.byte		        Fs1 
	.byte	W06
	.byte		N02   
	.byte	W06
	.byte		        Gs1 
	.byte	W06
	.byte		        Fs1 
	.byte	W06
	.byte		        As1 
	.byte	W06
	.byte		        Fs1 
	.byte	W06
	.byte		        As1 
	.byte	W06
	.byte		        Gs1 
	.byte	W06
@ 135   ----------------------------------------
	.byte	PATT
	 .word	vastsever8850_10_131
@ 136   ----------------------------------------
	.byte	PATT
	 .word	vastsever8850_10_132
@ 137   ----------------------------------------
	.byte		N02   , An2 , v112
	.byte	W06
	.byte		        Cn2 
	.byte	W06
	.byte		        An1 
	.byte	W06
	.byte		        Fn1 
	.byte	W12
	.byte		        Cn2 
	.byte	W06
	.byte		        An1 
	.byte	W06
	.byte		        Fn1 
	.byte	W18
	.byte		        Cn2 
	.byte	W06
	.byte		        Gn1 
	.byte	W30
@ 138   ----------------------------------------
	.byte	PATT
	 .word	vastsever8850_10_018
@ 139   ----------------------------------------
	.byte	PATT
	 .word	vastsever8850_10_019
@ 140   ----------------------------------------
	.byte	PATT
	 .word	vastsever8850_10_020
@ 141   ----------------------------------------
	.byte	PATT
	 .word	vastsever8850_10_019
@ 142   ----------------------------------------
	.byte	PATT
	 .word	vastsever8850_10_020
@ 143   ----------------------------------------
	.byte	PATT
	 .word	vastsever8850_10_019
@ 144   ----------------------------------------
	.byte	PATT
	 .word	vastsever8850_10_020
@ 145   ----------------------------------------
	.byte	PATT
	 .word	vastsever8850_10_025
@ 146   ----------------------------------------
	.byte	PATT
	 .word	vastsever8850_10_026
@ 147   ----------------------------------------
	.byte	PATT
	 .word	vastsever8850_10_019
@ 148   ----------------------------------------
	.byte	PATT
	 .word	vastsever8850_10_020
@ 149   ----------------------------------------
	.byte	PATT
	 .word	vastsever8850_10_019
@ 150   ----------------------------------------
	.byte	PATT
	 .word	vastsever8850_10_020
@ 151   ----------------------------------------
	.byte	PATT
	 .word	vastsever8850_10_019
@ 152   ----------------------------------------
	.byte	PATT
	 .word	vastsever8850_10_020
@ 153   ----------------------------------------
	.byte		N02   , Fs1 , v112
	.byte		N02   , Gn2 , v127
	.byte	W06
	.byte		        As1 , v112
	.byte	W06
	.byte		        Fs1 
	.byte	W06
	.byte		N02   
	.byte	W06
	.byte		        As1 
	.byte		N02   , An2 , v127
	.byte	W06
	.byte		        Fs1 , v112
	.byte	W06
	.byte		        Gs1 
	.byte	W06
	.byte		        As1 
	.byte	W06
	.byte		        Fn2 , v127
	.byte	W18
	.byte		        Cn2 , v112
	.byte	W06
	.byte		        Fn2 , v127
	.byte	W06
	.byte		        Gn1 , v112
	.byte	W12
	.byte		        Fn1 
	.byte	W06
@ 154   ----------------------------------------
	.byte		        Cs2 , v127
	.byte	W06
	.byte		        As1 , v112
	.byte	W06
	.byte		        Fs1 
	.byte	W06
	.byte		N02   
	.byte	W06
	.byte		        Gs1 
	.byte	W06
	.byte		        As1 
	.byte	W06
	.byte		        Fs1 
	.byte	W06
	.byte		N02   
	.byte	W06
	.byte		        Gs1 
	.byte	W06
	.byte		        As1 
	.byte	W06
	.byte		        Fs1 
	.byte	W06
	.byte		N02   
	.byte	W06
	.byte		        Gs1 
	.byte	W06
	.byte		        As1 
	.byte	W06
	.byte		        Fs1 
	.byte	W06
	.byte		N02   
	.byte	W06
@ 155   ----------------------------------------
	.byte		        Gs1 
	.byte	W06
	.byte		        As1 
	.byte	W06
	.byte		        Fs1 
	.byte	W06
	.byte		N02   
	.byte	W06
	.byte		        Gs1 
	.byte	W06
	.byte		        As1 
	.byte	W06
	.byte		        Fs1 
	.byte	W06
	.byte		N02   
	.byte	W06
	.byte		        Gs1 
	.byte	W06
	.byte		        As1 
	.byte	W06
	.byte		        Fs1 
	.byte	W06
	.byte		N02   
	.byte	W06
	.byte		        Gs1 
	.byte	W06
	.byte		        As1 
	.byte	W06
	.byte		        Fs1 
	.byte	W06
	.byte		N02   
	.byte	W06
@ 156   ----------------------------------------
	.byte		        An2 , v127
	.byte	W06
	.byte		        As1 , v112
	.byte	W06
	.byte		        Fs1 
	.byte	W06
	.byte		N02   
	.byte	W06
	.byte		        Gs1 
	.byte	W06
	.byte		        As1 
	.byte	W06
	.byte		        Fs1 
	.byte	W06
	.byte		N02   
	.byte	W06
	.byte		        Gs1 
	.byte	W06
	.byte		        As1 
	.byte	W06
	.byte		        Fs1 
	.byte	W06
	.byte		N02   
	.byte	W06
	.byte		        Gs1 
	.byte	W06
	.byte		        As1 
	.byte	W06
	.byte		        Fs1 
	.byte	W06
	.byte		N02   
	.byte	W06
@ 157   ----------------------------------------
	.byte		        Gs1 
	.byte	W06
	.byte		        As1 
	.byte	W06
	.byte		        Fs1 
	.byte	W06
	.byte		N02   
	.byte	W06
	.byte		        Gs1 
	.byte	W06
	.byte		        As1 
	.byte	W06
	.byte		        Fs1 
	.byte	W06
	.byte		N02   
	.byte	W12
	.byte		        Dn2 
	.byte	W12
	.byte		        An1 
	.byte	W12
	.byte		        Cn2 
	.byte	W12
	.byte		        Gn1 
	.byte	W06
@ 158   ----------------------------------------
	.byte		TIE   , Cs2 , v127
	.byte	W96
@ 159   ----------------------------------------
	.byte	W96
@ 160   ----------------------------------------
	.byte	W96
@ 161   ----------------------------------------
	.byte	W92
	.byte	W03
	.byte		EOT   
	.byte	W01
@ 162   ----------------------------------------
	.byte	W96
@ 163   ----------------------------------------
	.byte	FINE

@**************** Track 11 (Midi-Chn.11) ****************@

vastsever8850_11:
	.byte	KEYSH , vastsever8850_key+0
@ 000   ----------------------------------------
	.byte	W96
@ 001   ----------------------------------------
	.byte		VOICE , 51
	.byte		VOL   , 120*vastsever8850_mvl/mxv
	.byte		PAN   , c_v+0
	.byte	W96
@ 002   ----------------------------------------
	.byte	W72
	.byte	W24
@ 003   ----------------------------------------
	.byte	W96
@ 004   ----------------------------------------
	.byte	W96
@ 005   ----------------------------------------
	.byte	W96
@ 006   ----------------------------------------
	.byte	W96
@ 007   ----------------------------------------
	.byte	W96
@ 008   ----------------------------------------
	.byte	W96
@ 009   ----------------------------------------
	.byte	W96
@ 010   ----------------------------------------
vastsever8850_11_010:
	.byte		N02   , Gn1 , v120
	.byte	W24
	.byte		N02   
	.byte	W24
	.byte		N02   
	.byte	W24
	.byte		N02   
	.byte	W24
	.byte	PEND
@ 011   ----------------------------------------
	.byte	PATT
	 .word	vastsever8850_11_010
@ 012   ----------------------------------------
	.byte	PATT
	 .word	vastsever8850_11_010
@ 013   ----------------------------------------
	.byte	PATT
	 .word	vastsever8850_11_010
@ 014   ----------------------------------------
	.byte	PATT
	 .word	vastsever8850_11_010
@ 015   ----------------------------------------
	.byte	PATT
	 .word	vastsever8850_11_010
@ 016   ----------------------------------------
vastsever8850_11_016:
	.byte		N02   , Gn1 , v120
	.byte	W24
	.byte		N02   
	.byte	W24
	.byte		N02   
	.byte	W24
	.byte		N02   
	.byte	W06
	.byte		        Bn5 , v100
	.byte	W06
	.byte		        Gn1 , v120
	.byte		N02   , Bn5 , v100
	.byte	W12
	.byte	PEND
@ 017   ----------------------------------------
vastsever8850_11_017:
	.byte		N02   , Gn1 , v120
	.byte		N02   , Bn5 , v100
	.byte	W48
	.byte		        Gn1 , v120
	.byte		N02   , Bn5 , v100
	.byte	W06
	.byte		N02   
	.byte	W18
	.byte		        Gn1 , v120
	.byte		N02   , Bn5 , v100
	.byte	W06
	.byte		N02   
	.byte	W18
	.byte	PEND
@ 018   ----------------------------------------
vastsever8850_11_018:
	.byte		N02   , Gn1 , v120
	.byte	W24
	.byte		        Bn5 , v100
	.byte	W24
	.byte		        Gn1 , v120
	.byte	W24
	.byte		        Bn5 , v100
	.byte	W24
	.byte	PEND
@ 019   ----------------------------------------
	.byte	PATT
	 .word	vastsever8850_11_018
@ 020   ----------------------------------------
	.byte	PATT
	 .word	vastsever8850_11_018
@ 021   ----------------------------------------
	.byte	PATT
	 .word	vastsever8850_11_018
@ 022   ----------------------------------------
	.byte	PATT
	 .word	vastsever8850_11_018
@ 023   ----------------------------------------
	.byte	PATT
	 .word	vastsever8850_11_018
@ 024   ----------------------------------------
	.byte	PATT
	 .word	vastsever8850_11_018
@ 025   ----------------------------------------
vastsever8850_11_025:
	.byte		N02   , Gn1 , v120
	.byte	W24
	.byte		        Bn5 , v100
	.byte	W24
	.byte		        Gn1 , v120
	.byte	W06
	.byte		        Bn5 , v100
	.byte	W12
	.byte		        Gn1 , v120
	.byte	W06
	.byte		        Bn5 , v100
	.byte	W12
	.byte		        Gn1 , v120
	.byte	W06
	.byte		        Bn5 , v100
	.byte	W06
	.byte	PEND
@ 026   ----------------------------------------
	.byte	PATT
	 .word	vastsever8850_11_018
@ 027   ----------------------------------------
	.byte	PATT
	 .word	vastsever8850_11_018
@ 028   ----------------------------------------
	.byte	PATT
	 .word	vastsever8850_11_018
@ 029   ----------------------------------------
	.byte	PATT
	 .word	vastsever8850_11_018
@ 030   ----------------------------------------
	.byte	PATT
	 .word	vastsever8850_11_018
@ 031   ----------------------------------------
	.byte	PATT
	 .word	vastsever8850_11_018
@ 032   ----------------------------------------
	.byte	PATT
	 .word	vastsever8850_11_018
@ 033   ----------------------------------------
vastsever8850_11_033:
	.byte		N02   , Gn1 , v120
	.byte	W24
	.byte		        Bn5 , v100
	.byte	W24
	.byte		        Gn1 , v120
	.byte	W12
	.byte		N02   
	.byte		N02   , Bn5 , v100
	.byte	W12
	.byte		        Gn1 , v120
	.byte		N02   , Bn5 , v100
	.byte	W12
	.byte		        Gn1 , v120
	.byte		N02   , Bn5 , v100
	.byte	W12
	.byte	PEND
@ 034   ----------------------------------------
vastsever8850_11_034:
	.byte		N02   , Gn1 , v120
	.byte	W24
	.byte		        Bn5 , v100
	.byte	W12
	.byte		        Gn1 , v120
	.byte	W24
	.byte		N02   
	.byte	W12
	.byte		        Bn5 , v100
	.byte	W12
	.byte		        Gn1 , v120
	.byte	W12
	.byte	PEND
@ 035   ----------------------------------------
	.byte	PATT
	 .word	vastsever8850_11_034
@ 036   ----------------------------------------
	.byte	PATT
	 .word	vastsever8850_11_034
@ 037   ----------------------------------------
vastsever8850_11_037:
	.byte		N02   , Gn1 , v120
	.byte	W24
	.byte		        Bn5 , v100
	.byte	W12
	.byte		        Gn1 , v120
	.byte	W24
	.byte		N02   
	.byte	W12
	.byte		        Bn5 , v100
	.byte	W12
	.byte		        Gn1 , v120
	.byte		N02   , Bn5 , v100
	.byte	W06
	.byte		N02   
	.byte	W06
	.byte	PEND
@ 038   ----------------------------------------
	.byte	PATT
	 .word	vastsever8850_11_034
@ 039   ----------------------------------------
	.byte	PATT
	 .word	vastsever8850_11_034
@ 040   ----------------------------------------
	.byte	PATT
	 .word	vastsever8850_11_034
@ 041   ----------------------------------------
vastsever8850_11_041:
	.byte		N02   , Gn1 , v120
	.byte		N02   , Bn5 , v100
	.byte	W24
	.byte		        Gn1 , v120
	.byte		N02   , Bn5 , v100
	.byte	W24
	.byte		        Gn1 , v120
	.byte		N02   , Bn5 , v100
	.byte	W24
	.byte		        Gn1 , v120
	.byte		N02   , Bn5 , v100
	.byte	W24
	.byte	PEND
@ 042   ----------------------------------------
	.byte	PATT
	 .word	vastsever8850_11_041
@ 043   ----------------------------------------
	.byte	PATT
	 .word	vastsever8850_11_041
@ 044   ----------------------------------------
	.byte	PATT
	 .word	vastsever8850_11_041
@ 045   ----------------------------------------
vastsever8850_11_045:
	.byte		N02   , Gn1 , v120
	.byte		N02   , Bn5 , v100
	.byte	W24
	.byte		        Gn1 , v120
	.byte		N02   , Bn5 , v100
	.byte	W24
	.byte		        Gn1 , v120
	.byte		N02   , Bn5 , v100
	.byte	W24
	.byte		        Gn1 , v120
	.byte		N02   , Bn5 , v100
	.byte	W06
	.byte		N02   
	.byte	W06
	.byte		N02   
	.byte	W06
	.byte		N02   
	.byte	W06
	.byte	PEND
@ 046   ----------------------------------------
vastsever8850_11_046:
	.byte		N02   , Gn1 , v120
	.byte	W24
	.byte		        Bn5 , v100
	.byte	W24
	.byte		        Gn1 , v120
	.byte	W12
	.byte		N02   
	.byte	W12
	.byte		        Bn5 , v100
	.byte	W24
	.byte	PEND
@ 047   ----------------------------------------
	.byte	PATT
	 .word	vastsever8850_11_046
@ 048   ----------------------------------------
	.byte	PATT
	 .word	vastsever8850_11_046
@ 049   ----------------------------------------
vastsever8850_11_049:
	.byte		N02   , Gn1 , v120
	.byte	W24
	.byte		        Bn5 , v100
	.byte	W24
	.byte		        Gn1 , v120
	.byte	W12
	.byte		N02   
	.byte	W12
	.byte		        Bn5 , v100
	.byte	W06
	.byte		N02   
	.byte	W06
	.byte		        Gn1 , v120
	.byte	W06
	.byte		        Bn5 , v100
	.byte	W06
	.byte	PEND
@ 050   ----------------------------------------
	.byte	PATT
	 .word	vastsever8850_11_046
@ 051   ----------------------------------------
	.byte	PATT
	 .word	vastsever8850_11_046
@ 052   ----------------------------------------
	.byte	PATT
	 .word	vastsever8850_11_046
@ 053   ----------------------------------------
	.byte	PATT
	 .word	vastsever8850_11_049
@ 054   ----------------------------------------
	.byte	PATT
	 .word	vastsever8850_11_046
@ 055   ----------------------------------------
	.byte	PATT
	 .word	vastsever8850_11_046
@ 056   ----------------------------------------
	.byte	PATT
	 .word	vastsever8850_11_046
@ 057   ----------------------------------------
	.byte	PATT
	 .word	vastsever8850_11_049
@ 058   ----------------------------------------
	.byte	PATT
	 .word	vastsever8850_11_046
@ 059   ----------------------------------------
	.byte	PATT
	 .word	vastsever8850_11_046
@ 060   ----------------------------------------
	.byte	PATT
	 .word	vastsever8850_11_046
@ 061   ----------------------------------------
vastsever8850_11_061:
	.byte		N02   , Gn1 , v120
	.byte	W24
	.byte		N02   
	.byte		N02   , Bn5 , v100
	.byte	W24
	.byte		        Gn1 , v120
	.byte		N02   , Bn5 , v100
	.byte	W06
	.byte		N02   
	.byte	W06
	.byte		        Gn1 , v120
	.byte		N02   , Bn5 , v100
	.byte	W12
	.byte		        Gn1 , v120
	.byte		N02   , Bn5 , v100
	.byte	W06
	.byte		N02   
	.byte	W06
	.byte		        Gn1 , v120
	.byte	W06
	.byte		        Bn5 , v100
	.byte	W06
	.byte	PEND
@ 062   ----------------------------------------
	.byte	PATT
	 .word	vastsever8850_11_010
@ 063   ----------------------------------------
	.byte	PATT
	 .word	vastsever8850_11_010
@ 064   ----------------------------------------
	.byte	PATT
	 .word	vastsever8850_11_010
@ 065   ----------------------------------------
	.byte	PATT
	 .word	vastsever8850_11_010
@ 066   ----------------------------------------
	.byte	PATT
	 .word	vastsever8850_11_010
@ 067   ----------------------------------------
	.byte	PATT
	 .word	vastsever8850_11_010
@ 068   ----------------------------------------
	.byte	PATT
	 .word	vastsever8850_11_010
@ 069   ----------------------------------------
	.byte	PATT
	 .word	vastsever8850_11_010
@ 070   ----------------------------------------
	.byte	PATT
	 .word	vastsever8850_11_010
@ 071   ----------------------------------------
	.byte	PATT
	 .word	vastsever8850_11_010
@ 072   ----------------------------------------
	.byte	PATT
	 .word	vastsever8850_11_010
@ 073   ----------------------------------------
	.byte	PATT
	 .word	vastsever8850_11_010
@ 074   ----------------------------------------
	.byte	PATT
	 .word	vastsever8850_11_010
@ 075   ----------------------------------------
	.byte	PATT
	 .word	vastsever8850_11_010
@ 076   ----------------------------------------
	.byte	PATT
	 .word	vastsever8850_11_016
@ 077   ----------------------------------------
	.byte	PATT
	 .word	vastsever8850_11_017
@ 078   ----------------------------------------
	.byte	PATT
	 .word	vastsever8850_11_018
@ 079   ----------------------------------------
	.byte	PATT
	 .word	vastsever8850_11_018
@ 080   ----------------------------------------
	.byte	PATT
	 .word	vastsever8850_11_018
@ 081   ----------------------------------------
	.byte	PATT
	 .word	vastsever8850_11_018
@ 082   ----------------------------------------
	.byte	PATT
	 .word	vastsever8850_11_018
@ 083   ----------------------------------------
	.byte	PATT
	 .word	vastsever8850_11_018
@ 084   ----------------------------------------
	.byte	PATT
	 .word	vastsever8850_11_018
@ 085   ----------------------------------------
	.byte	PATT
	 .word	vastsever8850_11_025
@ 086   ----------------------------------------
	.byte	PATT
	 .word	vastsever8850_11_018
@ 087   ----------------------------------------
	.byte	PATT
	 .word	vastsever8850_11_018
@ 088   ----------------------------------------
	.byte	PATT
	 .word	vastsever8850_11_018
@ 089   ----------------------------------------
	.byte	PATT
	 .word	vastsever8850_11_018
@ 090   ----------------------------------------
	.byte	PATT
	 .word	vastsever8850_11_018
@ 091   ----------------------------------------
	.byte	PATT
	 .word	vastsever8850_11_018
@ 092   ----------------------------------------
	.byte	PATT
	 .word	vastsever8850_11_018
@ 093   ----------------------------------------
	.byte	PATT
	 .word	vastsever8850_11_033
@ 094   ----------------------------------------
	.byte	PATT
	 .word	vastsever8850_11_034
@ 095   ----------------------------------------
	.byte	PATT
	 .word	vastsever8850_11_034
@ 096   ----------------------------------------
	.byte	PATT
	 .word	vastsever8850_11_034
@ 097   ----------------------------------------
	.byte	PATT
	 .word	vastsever8850_11_037
@ 098   ----------------------------------------
	.byte	PATT
	 .word	vastsever8850_11_034
@ 099   ----------------------------------------
	.byte	PATT
	 .word	vastsever8850_11_034
@ 100   ----------------------------------------
	.byte	PATT
	 .word	vastsever8850_11_034
@ 101   ----------------------------------------
	.byte	PATT
	 .word	vastsever8850_11_041
@ 102   ----------------------------------------
	.byte	PATT
	 .word	vastsever8850_11_041
@ 103   ----------------------------------------
	.byte	PATT
	 .word	vastsever8850_11_041
@ 104   ----------------------------------------
	.byte	PATT
	 .word	vastsever8850_11_041
@ 105   ----------------------------------------
	.byte	PATT
	 .word	vastsever8850_11_045
@ 106   ----------------------------------------
	.byte	PATT
	 .word	vastsever8850_11_046
@ 107   ----------------------------------------
	.byte	PATT
	 .word	vastsever8850_11_046
@ 108   ----------------------------------------
	.byte	PATT
	 .word	vastsever8850_11_046
@ 109   ----------------------------------------
	.byte	PATT
	 .word	vastsever8850_11_049
@ 110   ----------------------------------------
	.byte	PATT
	 .word	vastsever8850_11_046
@ 111   ----------------------------------------
	.byte	PATT
	 .word	vastsever8850_11_046
@ 112   ----------------------------------------
	.byte	PATT
	 .word	vastsever8850_11_046
@ 113   ----------------------------------------
	.byte	PATT
	 .word	vastsever8850_11_049
@ 114   ----------------------------------------
	.byte	PATT
	 .word	vastsever8850_11_046
@ 115   ----------------------------------------
	.byte	PATT
	 .word	vastsever8850_11_046
@ 116   ----------------------------------------
	.byte	PATT
	 .word	vastsever8850_11_046
@ 117   ----------------------------------------
	.byte	PATT
	 .word	vastsever8850_11_049
@ 118   ----------------------------------------
	.byte	PATT
	 .word	vastsever8850_11_046
@ 119   ----------------------------------------
	.byte	PATT
	 .word	vastsever8850_11_046
@ 120   ----------------------------------------
	.byte	PATT
	 .word	vastsever8850_11_046
@ 121   ----------------------------------------
	.byte	PATT
	 .word	vastsever8850_11_061
@ 122   ----------------------------------------
	.byte	PATT
	 .word	vastsever8850_11_010
@ 123   ----------------------------------------
	.byte	PATT
	 .word	vastsever8850_11_010
@ 124   ----------------------------------------
	.byte	PATT
	 .word	vastsever8850_11_010
@ 125   ----------------------------------------
	.byte	PATT
	 .word	vastsever8850_11_010
@ 126   ----------------------------------------
	.byte	PATT
	 .word	vastsever8850_11_010
@ 127   ----------------------------------------
	.byte	PATT
	 .word	vastsever8850_11_010
@ 128   ----------------------------------------
	.byte	PATT
	 .word	vastsever8850_11_010
@ 129   ----------------------------------------
	.byte		N02   , Gn1 , v120
	.byte	W24
	.byte		N02   
	.byte		N02   , Bn5 , v100
	.byte	W18
	.byte		N02   
	.byte	W06
	.byte		        Gn1 , v120
	.byte	W06
	.byte		        Bn5 , v100
	.byte	W06
	.byte		N02   
	.byte	W06
	.byte		N02   
	.byte	W06
	.byte		        Gn1 , v120
	.byte		N02   , Bn5 , v100
	.byte	W06
	.byte		N02   
	.byte	W06
	.byte		N02   
	.byte	W06
	.byte		N02   
	.byte	W06
@ 130   ----------------------------------------
	.byte	PATT
	 .word	vastsever8850_11_046
@ 131   ----------------------------------------
	.byte	PATT
	 .word	vastsever8850_11_046
@ 132   ----------------------------------------
	.byte	PATT
	 .word	vastsever8850_11_046
@ 133   ----------------------------------------
	.byte		N02   , Gn1 , v120
	.byte	W24
	.byte		        Bn5 , v100
	.byte	W24
	.byte		        Gn1 , v120
	.byte	W12
	.byte		N02   
	.byte	W12
	.byte		        Bn5 , v100
	.byte	W12
	.byte		        Gn1 , v120
	.byte	W06
	.byte		        Bn5 , v100
	.byte	W06
@ 134   ----------------------------------------
	.byte	PATT
	 .word	vastsever8850_11_046
@ 135   ----------------------------------------
	.byte	PATT
	 .word	vastsever8850_11_046
@ 136   ----------------------------------------
	.byte	PATT
	 .word	vastsever8850_11_046
@ 137   ----------------------------------------
	.byte		N02   , Gn1 , v120
	.byte		N02   , Bn5 , v100
	.byte	W24
	.byte		        Gn1 , v120
	.byte		N02   , Bn5 , v100
	.byte	W24
	.byte		        Gn1 , v120
	.byte		N02   , Bn5 , v100
	.byte	W06
	.byte		N02   
	.byte	W18
	.byte		        Gn1 , v120
	.byte		N02   , Bn5 , v100
	.byte	W06
	.byte		N02   
	.byte	W06
	.byte		        Gn1 , v120
	.byte		N02   , Bn5 , v100
	.byte	W06
	.byte		N02   
	.byte	W06
@ 138   ----------------------------------------
	.byte	PATT
	 .word	vastsever8850_11_018
@ 139   ----------------------------------------
	.byte	PATT
	 .word	vastsever8850_11_018
@ 140   ----------------------------------------
	.byte	PATT
	 .word	vastsever8850_11_018
@ 141   ----------------------------------------
	.byte	PATT
	 .word	vastsever8850_11_018
@ 142   ----------------------------------------
	.byte	PATT
	 .word	vastsever8850_11_018
@ 143   ----------------------------------------
	.byte	PATT
	 .word	vastsever8850_11_018
@ 144   ----------------------------------------
	.byte	PATT
	 .word	vastsever8850_11_018
@ 145   ----------------------------------------
	.byte	PATT
	 .word	vastsever8850_11_025
@ 146   ----------------------------------------
	.byte	PATT
	 .word	vastsever8850_11_018
@ 147   ----------------------------------------
	.byte	PATT
	 .word	vastsever8850_11_018
@ 148   ----------------------------------------
	.byte	PATT
	 .word	vastsever8850_11_018
@ 149   ----------------------------------------
	.byte	PATT
	 .word	vastsever8850_11_018
@ 150   ----------------------------------------
	.byte	PATT
	 .word	vastsever8850_11_018
@ 151   ----------------------------------------
	.byte	PATT
	 .word	vastsever8850_11_018
@ 152   ----------------------------------------
	.byte	PATT
	 .word	vastsever8850_11_018
@ 153   ----------------------------------------
	.byte	PATT
	 .word	vastsever8850_11_033
@ 154   ----------------------------------------
	.byte	PATT
	 .word	vastsever8850_11_041
@ 155   ----------------------------------------
	.byte	PATT
	 .word	vastsever8850_11_041
@ 156   ----------------------------------------
	.byte	PATT
	 .word	vastsever8850_11_041
@ 157   ----------------------------------------
	.byte		N02   , Gn1 , v120
	.byte		N02   , Bn5 , v100
	.byte	W24
	.byte		        Gn1 , v120
	.byte		N02   , Bn5 , v100
	.byte	W24
	.byte		        Gn1 , v120
	.byte		N02   , Bn5 , v100
	.byte	W12
	.byte		N02   
	.byte	W12
	.byte		        Gn1 , v120
	.byte		N02   , Bn5 , v100
	.byte	W12
	.byte		N02   
	.byte	W12
@ 158   ----------------------------------------
	.byte		        Gn1 , v120
	.byte		N02   , Bn5 , v100
	.byte	W96
@ 159   ----------------------------------------
	.byte	W96
@ 160   ----------------------------------------
	.byte	W96
@ 161   ----------------------------------------
	.byte	W96
@ 162   ----------------------------------------
	.byte	W96
@ 163   ----------------------------------------
	.byte	FINE

@******************************************************@
	.align	2

vastsever8850:
	.byte	11	@ NumTrks
	.byte	0	@ NumBlks
	.byte	vastsever8850_pri	@ Priority
	.byte	vastsever8850_rev	@ Reverb.

	.word	vastsever8850_grp

	.word	vastsever8850_1
	.word	vastsever8850_2
	.word	vastsever8850_3
	.word	vastsever8850_4
	.word	vastsever8850_5
	.word	vastsever8850_6
	.word	vastsever8850_7
	.word	vastsever8850_8
	.word	vastsever8850_9
	.word	vastsever8850_10
	.word	vastsever8850_11

	.end
