//Event file generated from Sappy .s format.
	#include "MPlayDef.event"

	#define	vastsever8850_grp  voicegroup000
	#define	vastsever8850_pri  0
	#define	vastsever8850_rev  0
	#define	vastsever8850_mvl  63
	#define	vastsever8850_key  0
	#define	vastsever8850_tbs  1
	#define	vastsever8850_exg  0
	#define	vastsever8850_cmp  1

	// .rodata
	//	vastsever8850
	ALIGN 4

//**************** Track 1 (Midi-Chn.1) ****************//

vastsever8850_1:
	BYTE	KEYSH   vastsever8850_key+0
// 000   ----------------------------------------
	BYTE	TEMPO   142*vastsever8850_tbs/2
	BYTE	W96
// 001   ----------------------------------------
	BYTE		VOICE   50
	BYTE		VOL     115*vastsever8850_mvl/mxv
	BYTE		PAN     c_v+0
	BYTE	W24
	BYTE	TEMPO   140*vastsever8850_tbs/2
	BYTE	W24
	BYTE		MOD     0
	BYTE		BEND    c_v+0
	BYTE	W24
	BYTE	W06
	BYTE	W06
	BYTE	W06
	BYTE	W06
// 002   ----------------------------------------
	BYTE	W96
// 003   ----------------------------------------
	BYTE	W96
// 004   ----------------------------------------
	BYTE	W96
// 005   ----------------------------------------
	BYTE	W96
// 006   ----------------------------------------
	BYTE	W96
// 007   ----------------------------------------
	BYTE	W96
// 008   ----------------------------------------
	BYTE	W96
// 009   ----------------------------------------
	BYTE	W96
// 010   ----------------------------------------
	BYTE	W96
// 011   ----------------------------------------
	BYTE	W96
// 012   ----------------------------------------
	BYTE	W96
// 013   ----------------------------------------
	BYTE	W96
// 014   ----------------------------------------
	BYTE	W96
// 015   ----------------------------------------
	BYTE	W96
// 016   ----------------------------------------
	BYTE	W96
// 017   ----------------------------------------
	BYTE	W96
// 018   ----------------------------------------
vastsever8850_1_018:
	BYTE		N22     En4   v112
	BYTE	W24
	BYTE		N10     Fn4 
	BYTE	W12
	BYTE		N32     Cn4 
	BYTE	W36
	BYTE		N22     An3 
	BYTE	W24
	BYTE	PEND
// 019   ----------------------------------------
	BYTE		        Bn3 
	BYTE	W24
	BYTE	TEMPO   140*vastsever8850_tbs/2
	BYTE		N10     Gn3 
	BYTE	W12
	BYTE		N22     An3 
	BYTE	W24
	BYTE		N10     Gn3 
	BYTE	W12
	BYTE		        Fn3 
	BYTE	W12
	BYTE		N80     En3 
	BYTE	W12
// 020   ----------------------------------------
vastsever8850_1_020:
	BYTE		MOD     0
	BYTE	W72
	BYTE		N10     Cn3   v112
	BYTE	W12
	BYTE		N80     Gn3 
	BYTE	W12
	BYTE	PEND
// 021   ----------------------------------------
vastsever8850_1_021:
	BYTE	W72
	BYTE		N10     Fn3   v112
	BYTE	W12
	BYTE		N32     En3 
	BYTE	W12
	BYTE	PEND
// 022   ----------------------------------------
vastsever8850_1_022:
	BYTE	W24
	BYTE		N10     Dn3   v112
	BYTE	W12
	BYTE		N32     Gn3 
	BYTE	W36
	BYTE		N22     Cn4 
	BYTE	W24
	BYTE	PEND
// 023   ----------------------------------------
vastsever8850_1_023:
	BYTE		N40     En4   v112
	BYTE	W48
	BYTE		N16   
	BYTE	W18
	BYTE		        Fn4 
	BYTE	W18
	BYTE		N10     Gn4 
	BYTE	W12
	BYTE	PEND
// 024   ----------------------------------------
	BYTE		N92     En4 
	BYTE	W96
// 025   ----------------------------------------
vastsever8850_1_025:
	BYTE		N52     Cn4   v112
	BYTE	W60
	BYTE		N10   
	BYTE	W12
	BYTE		        Dn4 
	BYTE	W12
	BYTE		        En4 
	BYTE	W12
	BYTE	PEND
// 026   ----------------------------------------
vastsever8850_1_026:
	BYTE		N22     Fn4   v112
	BYTE	W24
	BYTE		N10     En4 
	BYTE	W12
	BYTE		N22     Cn4 
	BYTE	W24
	BYTE		        Gn3 
	BYTE	W24
	BYTE		N56     An3 
	BYTE	W12
	BYTE	PEND
// 027   ----------------------------------------
vastsever8850_1_027:
	BYTE	W48
	BYTE		N10     Dn4   v112
	BYTE	W12
	BYTE		        En4 
	BYTE	W12
	BYTE		        Fn4 
	BYTE	W12
	BYTE		        Gn4 
	BYTE	W12
	BYTE	PEND
// 028   ----------------------------------------
	BYTE		N92     En4 
	BYTE	W96
// 029   ----------------------------------------
vastsever8850_1_029:
	BYTE		N10     Gn4   v112
	BYTE	W12
	BYTE		N22     Fn4 
	BYTE	W24
	BYTE		        En4 
	BYTE	W24
	BYTE		        Dn4 
	BYTE	W24
	BYTE		N10     Gn4 
	BYTE	W12
	BYTE	PEND
// 030   ----------------------------------------
vastsever8850_1_030:
	BYTE		N56     Fn4   v112
	BYTE	W60
	BYTE		N10     Dn4 
	BYTE	W12
	BYTE		        En4 
	BYTE	W12
	BYTE		        Fn4 
	BYTE	W12
	BYTE	PEND
// 031   ----------------------------------------
vastsever8850_1_031:
	BYTE		N44     Gn4   v112
	BYTE	W48
	BYTE		        Fn4 
	BYTE	W48
	BYTE	PEND
// 032   ----------------------------------------
vastsever8850_1_032:
	BYTE		N68     En4   v112
	BYTE	W72
	BYTE		N10     Dn4 
	BYTE	W12
	BYTE		N64     En4 
	BYTE	W12
	BYTE	PEND
// 033   ----------------------------------------
	BYTE	W96
// 034   ----------------------------------------
	BYTE	W96
// 035   ----------------------------------------
	BYTE	W96
// 036   ----------------------------------------
	BYTE	W96
// 037   ----------------------------------------
	BYTE	W96
// 038   ----------------------------------------
	BYTE	W96
// 039   ----------------------------------------
	BYTE	W96
// 040   ----------------------------------------
	BYTE	W96
// 041   ----------------------------------------
	BYTE	W96
// 042   ----------------------------------------
	BYTE	W96
// 043   ----------------------------------------
	BYTE	W96
// 044   ----------------------------------------
	BYTE	W96
// 045   ----------------------------------------
	BYTE	W96
// 046   ----------------------------------------
	BYTE	W96
// 047   ----------------------------------------
	BYTE	W96
// 048   ----------------------------------------
	BYTE	W96
// 049   ----------------------------------------
	BYTE	W96
// 050   ----------------------------------------
	BYTE	W96
// 051   ----------------------------------------
	BYTE	W96
// 052   ----------------------------------------
	BYTE	W96
// 053   ----------------------------------------
	BYTE	W96
// 054   ----------------------------------------
	BYTE	W96
// 055   ----------------------------------------
	BYTE	W96
// 056   ----------------------------------------
	BYTE	W96
// 057   ----------------------------------------
	BYTE	W96
// 058   ----------------------------------------
	BYTE	W96
// 059   ----------------------------------------
	BYTE	W96
// 060   ----------------------------------------
	BYTE	W96
// 061   ----------------------------------------
	BYTE	W96
// 062   ----------------------------------------
	BYTE	W96
// 063   ----------------------------------------
	BYTE	W96
// 064   ----------------------------------------
	BYTE	W96
// 065   ----------------------------------------
	BYTE	W96
// 066   ----------------------------------------
	BYTE	W96
// 067   ----------------------------------------
	BYTE	W96
// 068   ----------------------------------------
	BYTE	W96
// 069   ----------------------------------------
	BYTE	W96
// 070   ----------------------------------------
	BYTE	W96
// 071   ----------------------------------------
	BYTE	W96
// 072   ----------------------------------------
	BYTE	W96
// 073   ----------------------------------------
	BYTE	W96
// 074   ----------------------------------------
	BYTE	W96
// 075   ----------------------------------------
	BYTE	W96
// 076   ----------------------------------------
	BYTE	W96
// 077   ----------------------------------------
	BYTE	W96
// 078   ----------------------------------------
	BYTE	PATT
	 POIN2	vastsever8850_1_018
// 079   ----------------------------------------
vastsever8850_1_079:
	BYTE		N22     Bn3   v112
	BYTE	W24
	BYTE		N10     Gn3 
	BYTE	W12
	BYTE		N22     An3 
	BYTE	W24
	BYTE		N10     Gn3 
	BYTE	W12
	BYTE		        Fn3 
	BYTE	W12
	BYTE		N80     En3 
	BYTE	W12
	BYTE	PEND
// 080   ----------------------------------------
	BYTE	PATT
	 POIN2	vastsever8850_1_020
// 081   ----------------------------------------
	BYTE	PATT
	 POIN2	vastsever8850_1_021
// 082   ----------------------------------------
	BYTE	PATT
	 POIN2	vastsever8850_1_022
// 083   ----------------------------------------
	BYTE	PATT
	 POIN2	vastsever8850_1_023
// 084   ----------------------------------------
	BYTE		N92     En4   v112
	BYTE	W96
// 085   ----------------------------------------
	BYTE	PATT
	 POIN2	vastsever8850_1_025
// 086   ----------------------------------------
	BYTE	PATT
	 POIN2	vastsever8850_1_026
// 087   ----------------------------------------
	BYTE	PATT
	 POIN2	vastsever8850_1_027
// 088   ----------------------------------------
	BYTE		N92     En4   v112
	BYTE	W96
// 089   ----------------------------------------
	BYTE	PATT
	 POIN2	vastsever8850_1_029
// 090   ----------------------------------------
	BYTE	PATT
	 POIN2	vastsever8850_1_030
// 091   ----------------------------------------
	BYTE	PATT
	 POIN2	vastsever8850_1_031
// 092   ----------------------------------------
	BYTE	PATT
	 POIN2	vastsever8850_1_032
// 093   ----------------------------------------
	BYTE	W96
// 094   ----------------------------------------
	BYTE	W96
// 095   ----------------------------------------
	BYTE	W96
// 096   ----------------------------------------
	BYTE	W96
// 097   ----------------------------------------
	BYTE	W96
// 098   ----------------------------------------
	BYTE	W96
// 099   ----------------------------------------
	BYTE	W96
// 100   ----------------------------------------
	BYTE	W96
// 101   ----------------------------------------
	BYTE	W96
// 102   ----------------------------------------
	BYTE	W96
// 103   ----------------------------------------
	BYTE	W96
// 104   ----------------------------------------
	BYTE	W96
// 105   ----------------------------------------
	BYTE	W96
// 106   ----------------------------------------
	BYTE	W96
// 107   ----------------------------------------
	BYTE	W96
// 108   ----------------------------------------
	BYTE	W96
// 109   ----------------------------------------
	BYTE	W96
// 110   ----------------------------------------
	BYTE	W96
// 111   ----------------------------------------
	BYTE	W96
// 112   ----------------------------------------
	BYTE	W96
// 113   ----------------------------------------
	BYTE	W96
// 114   ----------------------------------------
	BYTE	W96
// 115   ----------------------------------------
	BYTE	W96
// 116   ----------------------------------------
	BYTE	W96
// 117   ----------------------------------------
	BYTE	W96
// 118   ----------------------------------------
	BYTE	W96
// 119   ----------------------------------------
	BYTE	W96
// 120   ----------------------------------------
	BYTE	W96
// 121   ----------------------------------------
	BYTE	W96
// 122   ----------------------------------------
	BYTE	W96
// 123   ----------------------------------------
	BYTE	W96
// 124   ----------------------------------------
	BYTE	W96
// 125   ----------------------------------------
	BYTE	W96
// 126   ----------------------------------------
	BYTE	W96
// 127   ----------------------------------------
	BYTE	W96
// 128   ----------------------------------------
	BYTE	W96
// 129   ----------------------------------------
	BYTE	W96
// 130   ----------------------------------------
	BYTE	W96
// 131   ----------------------------------------
	BYTE	W96
// 132   ----------------------------------------
	BYTE	W96
// 133   ----------------------------------------
	BYTE	W96
// 134   ----------------------------------------
	BYTE	W96
// 135   ----------------------------------------
	BYTE	W96
// 136   ----------------------------------------
	BYTE	W96
// 137   ----------------------------------------
	BYTE	W96
// 138   ----------------------------------------
	BYTE	PATT
	 POIN2	vastsever8850_1_018
// 139   ----------------------------------------
	BYTE	PATT
	 POIN2	vastsever8850_1_079
// 140   ----------------------------------------
	BYTE	PATT
	 POIN2	vastsever8850_1_020
// 141   ----------------------------------------
	BYTE	PATT
	 POIN2	vastsever8850_1_021
// 142   ----------------------------------------
	BYTE	PATT
	 POIN2	vastsever8850_1_022
// 143   ----------------------------------------
	BYTE	PATT
	 POIN2	vastsever8850_1_023
// 144   ----------------------------------------
	BYTE		N92     En4   v112
	BYTE	W96
// 145   ----------------------------------------
	BYTE	PATT
	 POIN2	vastsever8850_1_025
// 146   ----------------------------------------
	BYTE	PATT
	 POIN2	vastsever8850_1_026
// 147   ----------------------------------------
	BYTE	PATT
	 POIN2	vastsever8850_1_027
// 148   ----------------------------------------
	BYTE		N92     En4   v112
	BYTE	W96
// 149   ----------------------------------------
	BYTE	PATT
	 POIN2	vastsever8850_1_029
// 150   ----------------------------------------
	BYTE	PATT
	 POIN2	vastsever8850_1_030
// 151   ----------------------------------------
	BYTE	PATT
	 POIN2	vastsever8850_1_031
// 152   ----------------------------------------
	BYTE	PATT
	 POIN2	vastsever8850_1_032
// 153   ----------------------------------------
	BYTE	W96
// 154   ----------------------------------------
	BYTE	W96
// 155   ----------------------------------------
	BYTE	W96
// 156   ----------------------------------------
	BYTE	W96
// 157   ----------------------------------------
	BYTE	W96
// 158   ----------------------------------------
	BYTE	W96
// 159   ----------------------------------------
	BYTE	W96
// 160   ----------------------------------------
	BYTE	W96
// 161   ----------------------------------------
	BYTE	W96
// 162   ----------------------------------------
	BYTE	W96
// 163   ----------------------------------------
	BYTE	FINE

//**************** Track 2 (Midi-Chn.2) ****************//

vastsever8850_2:
	BYTE	KEYSH   vastsever8850_key+0
// 000   ----------------------------------------
	BYTE	W96
// 001   ----------------------------------------
	BYTE		VOICE   34
	BYTE		VOL     100*vastsever8850_mvl/mxv
	BYTE		PAN     c_v+0
	BYTE	W48
	BYTE		MOD     0
	BYTE		BEND    c_v+0
	BYTE	W24
	BYTE	W06
	BYTE	W06
	BYTE	W06
	BYTE	W06
// 002   ----------------------------------------
	BYTE	W96
// 003   ----------------------------------------
	BYTE	W96
// 004   ----------------------------------------
	BYTE	W96
// 005   ----------------------------------------
	BYTE	W96
// 006   ----------------------------------------
	BYTE	W96
// 007   ----------------------------------------
	BYTE	W96
// 008   ----------------------------------------
	BYTE	W96
// 009   ----------------------------------------
	BYTE	W96
// 010   ----------------------------------------
	BYTE		N92     Dn0   v100
	BYTE	W96
// 011   ----------------------------------------
	BYTE		        En0 
	BYTE	W96
// 012   ----------------------------------------
	BYTE		        Fn0 
	BYTE	W96
// 013   ----------------------------------------
	BYTE		        Gn0 
	BYTE	W96
// 014   ----------------------------------------
	BYTE		        Dn1 
	BYTE	W96
// 015   ----------------------------------------
	BYTE		        Cn1 
	BYTE	W96
// 016   ----------------------------------------
	BYTE		        As0 
	BYTE	W96
// 017   ----------------------------------------
vastsever8850_2_017:
	BYTE		N10     An0   v100
	BYTE	W72
	BYTE		N22   
	BYTE	W24
	BYTE	PEND
// 018   ----------------------------------------
vastsever8850_2_018:
	BYTE		N10     Dn1   v100
	BYTE	W12
	BYTE		N10   
	BYTE	W12
	BYTE		N10   
	BYTE	W12
	BYTE		N10   
	BYTE	W12
	BYTE		N10   
	BYTE	W12
	BYTE		N10   
	BYTE	W12
	BYTE		N10   
	BYTE	W12
	BYTE		N10   
	BYTE	W12
	BYTE	PEND
// 019   ----------------------------------------
vastsever8850_2_019:
	BYTE		N10     Dn1   v100
	BYTE	W12
	BYTE		N10   
	BYTE	W12
	BYTE		N10   
	BYTE	W12
	BYTE		N10   
	BYTE	W12
	BYTE		N10   
	BYTE	W12
	BYTE		        En1 
	BYTE	W12
	BYTE		        Fn1 
	BYTE	W12
	BYTE		        Dn1 
	BYTE	W12
	BYTE	PEND
// 020   ----------------------------------------
vastsever8850_2_020:
	BYTE		N10     Cn1   v100
	BYTE	W12
	BYTE		N10   
	BYTE	W12
	BYTE		N10   
	BYTE	W12
	BYTE		N10   
	BYTE	W12
	BYTE		N10   
	BYTE	W12
	BYTE		N10   
	BYTE	W12
	BYTE		N10   
	BYTE	W12
	BYTE		N10   
	BYTE	W12
	BYTE	PEND
// 021   ----------------------------------------
vastsever8850_2_021:
	BYTE		N10     Cn1   v100
	BYTE	W12
	BYTE		N10   
	BYTE	W12
	BYTE		N10   
	BYTE	W12
	BYTE		N10   
	BYTE	W12
	BYTE		N10   
	BYTE	W12
	BYTE		        Dn1 
	BYTE	W12
	BYTE		        En1 
	BYTE	W12
	BYTE		        Cn1 
	BYTE	W12
	BYTE	PEND
// 022   ----------------------------------------
vastsever8850_2_022:
	BYTE		N10     As0   v100
	BYTE	W12
	BYTE		N10   
	BYTE	W12
	BYTE		N10   
	BYTE	W12
	BYTE		N10   
	BYTE	W12
	BYTE		N10   
	BYTE	W12
	BYTE		N10   
	BYTE	W12
	BYTE		N10   
	BYTE	W12
	BYTE		N10   
	BYTE	W12
	BYTE	PEND
// 023   ----------------------------------------
vastsever8850_2_023:
	BYTE		N10     As0   v100
	BYTE	W12
	BYTE		N10   
	BYTE	W12
	BYTE		N10   
	BYTE	W12
	BYTE		N10   
	BYTE	W12
	BYTE		N10   
	BYTE	W12
	BYTE		        Gn0 
	BYTE	W12
	BYTE		        Dn1 
	BYTE	W12
	BYTE		        As0 
	BYTE	W12
	BYTE	PEND
// 024   ----------------------------------------
	BYTE	PATT
	 POIN2	vastsever8850_2_020
// 025   ----------------------------------------
vastsever8850_2_025:
	BYTE		N10     Cn1   v100
	BYTE	W12
	BYTE		        Gn0 
	BYTE	W12
	BYTE		        Cn1 
	BYTE	W12
	BYTE		        An0 
	BYTE	W12
	BYTE		        Cn1 
	BYTE	W12
	BYTE		        En1 
	BYTE	W12
	BYTE		        Gn1 
	BYTE	W12
	BYTE		        En1 
	BYTE	W12
	BYTE	PEND
// 026   ----------------------------------------
	BYTE	PATT
	 POIN2	vastsever8850_2_018
// 027   ----------------------------------------
	BYTE	PATT
	 POIN2	vastsever8850_2_019
// 028   ----------------------------------------
	BYTE	PATT
	 POIN2	vastsever8850_2_020
// 029   ----------------------------------------
	BYTE	PATT
	 POIN2	vastsever8850_2_021
// 030   ----------------------------------------
	BYTE	PATT
	 POIN2	vastsever8850_2_022
// 031   ----------------------------------------
	BYTE	PATT
	 POIN2	vastsever8850_2_023
// 032   ----------------------------------------
	BYTE	PATT
	 POIN2	vastsever8850_2_020
// 033   ----------------------------------------
vastsever8850_2_033:
	BYTE		N10     An0   v100
	BYTE	W12
	BYTE		        Gn0 
	BYTE	W12
	BYTE		        As0 
	BYTE	W12
	BYTE		        An0 
	BYTE	W12
	BYTE		        Cs1 
	BYTE	W12
	BYTE		        En1 
	BYTE	W12
	BYTE		        Gn1 
	BYTE	W12
	BYTE		        Cs1 
	BYTE	W12
	BYTE	PEND
// 034   ----------------------------------------
vastsever8850_2_034:
	BYTE		N22     Dn1   v100
	BYTE	W24
	BYTE		N10   
	BYTE	W12
	BYTE		N56     En1 
	BYTE	W60
	BYTE	PEND
// 035   ----------------------------------------
vastsever8850_2_035:
	BYTE		N22     Cn1   v100
	BYTE	W24
	BYTE		N10   
	BYTE	W12
	BYTE		N56     Dn1 
	BYTE	W60
	BYTE	PEND
// 036   ----------------------------------------
vastsever8850_2_036:
	BYTE		N22     As0   v100
	BYTE	W24
	BYTE		N10   
	BYTE	W12
	BYTE		N22     Gn0 
	BYTE	W24
	BYTE		N10   
	BYTE	W12
	BYTE		        Dn1 
	BYTE	W12
	BYTE		        As0 
	BYTE	W12
	BYTE	PEND
// 037   ----------------------------------------
vastsever8850_2_037:
	BYTE		N10     Cn1   v100
	BYTE	W12
	BYTE		        An0 
	BYTE	W12
	BYTE		        Cn1 
	BYTE	W12
	BYTE		N22     An0 
	BYTE	W24
	BYTE		N10   
	BYTE	W12
	BYTE		        Fn1 
	BYTE	W12
	BYTE		        Cn1 
	BYTE	W12
	BYTE	PEND
// 038   ----------------------------------------
	BYTE	PATT
	 POIN2	vastsever8850_2_034
// 039   ----------------------------------------
	BYTE	PATT
	 POIN2	vastsever8850_2_035
// 040   ----------------------------------------
	BYTE	PATT
	 POIN2	vastsever8850_2_036
// 041   ----------------------------------------
	BYTE	PATT
	 POIN2	vastsever8850_2_037
// 042   ----------------------------------------
	BYTE		N92     As0   v100
	BYTE	W96
// 043   ----------------------------------------
	BYTE		        Gn0 
	BYTE	W96
// 044   ----------------------------------------
	BYTE		        An0 
	BYTE	W96
// 045   ----------------------------------------
vastsever8850_2_045:
	BYTE		N10     En0   v100
	BYTE	W12
	BYTE		N05     An0 
	BYTE	W12
	BYTE		N05   
	BYTE	W12
	BYTE		N05   
	BYTE	W12
	BYTE		N05   
	BYTE	W12
	BYTE		N10   
	BYTE	W12
	BYTE		N10   
	BYTE	W12
	BYTE		N10   
	BYTE	W12
	BYTE	PEND
// 046   ----------------------------------------
vastsever8850_2_046:
	BYTE		N10     Dn1   v100
	BYTE	W12
	BYTE		        An0 
	BYTE	W12
	BYTE		        Dn1 
	BYTE	W12
	BYTE		N23   
	BYTE	W24
	BYTE		N10     Fn0 
	BYTE	W12
	BYTE		        An0 
	BYTE	W12
	BYTE		        Dn1 
	BYTE	W12
	BYTE	PEND
// 047   ----------------------------------------
vastsever8850_2_047:
	BYTE		N10     Cn1   v100
	BYTE	W12
	BYTE		        Gn0 
	BYTE	W12
	BYTE		        Cn1 
	BYTE	W12
	BYTE		N23   
	BYTE	W24
	BYTE		N10     Gn0 
	BYTE	W12
	BYTE		        En1 
	BYTE	W12
	BYTE		        Cn1 
	BYTE	W12
	BYTE	PEND
// 048   ----------------------------------------
vastsever8850_2_048:
	BYTE		N10     Bn0   v100
	BYTE	W12
	BYTE		        Gn0 
	BYTE	W12
	BYTE		        Bn0 
	BYTE	W12
	BYTE		N23   
	BYTE	W24
	BYTE		N10     En0 
	BYTE	W12
	BYTE		        Gn0 
	BYTE	W12
	BYTE		        Bn0 
	BYTE	W12
	BYTE	PEND
// 049   ----------------------------------------
vastsever8850_2_049:
	BYTE		N10     As0   v100
	BYTE	W12
	BYTE		        Fn0 
	BYTE	W12
	BYTE		        As0 
	BYTE	W12
	BYTE		N23     Dn1 
	BYTE	W24
	BYTE		N10     Cn1 
	BYTE	W12
	BYTE		        As0 
	BYTE	W12
	BYTE		        An0 
	BYTE	W12
	BYTE	PEND
// 050   ----------------------------------------
vastsever8850_2_050:
	BYTE		N10     As0   v100
	BYTE	W12
	BYTE		        Fn0 
	BYTE	W12
	BYTE		        As0 
	BYTE	W12
	BYTE		N23   
	BYTE	W24
	BYTE		N10     Dn0 
	BYTE	W12
	BYTE		        Fn0 
	BYTE	W12
	BYTE		        As0 
	BYTE	W12
	BYTE	PEND
// 051   ----------------------------------------
vastsever8850_2_051:
	BYTE		N10     Cn1   v100
	BYTE	W12
	BYTE		        Gn0 
	BYTE	W12
	BYTE		        Cn1 
	BYTE	W12
	BYTE		N23   
	BYTE	W24
	BYTE		N10     En0 
	BYTE	W12
	BYTE		        Gn0 
	BYTE	W12
	BYTE		        Cn1 
	BYTE	W12
	BYTE	PEND
// 052   ----------------------------------------
	BYTE	PATT
	 POIN2	vastsever8850_2_050
// 053   ----------------------------------------
vastsever8850_2_053:
	BYTE		N10     An0   v100
	BYTE	W12
	BYTE		        En0 
	BYTE	W12
	BYTE		        An0 
	BYTE	W12
	BYTE		N23   
	BYTE	W24
	BYTE		N10     Cn0 
	BYTE	W12
	BYTE		        En0 
	BYTE	W12
	BYTE		        An0 
	BYTE	W12
	BYTE	PEND
// 054   ----------------------------------------
	BYTE	PATT
	 POIN2	vastsever8850_2_046
// 055   ----------------------------------------
	BYTE	PATT
	 POIN2	vastsever8850_2_047
// 056   ----------------------------------------
	BYTE	PATT
	 POIN2	vastsever8850_2_048
// 057   ----------------------------------------
vastsever8850_2_057:
	BYTE		N10     As0   v100
	BYTE	W12
	BYTE		        Fn0 
	BYTE	W12
	BYTE		        As0 
	BYTE	W12
	BYTE		N23     Cn1 
	BYTE	W24
	BYTE		N10     En0 
	BYTE	W12
	BYTE		        Gn0 
	BYTE	W12
	BYTE		        Cn1 
	BYTE	W12
	BYTE	PEND
// 058   ----------------------------------------
	BYTE	PATT
	 POIN2	vastsever8850_2_050
// 059   ----------------------------------------
	BYTE	PATT
	 POIN2	vastsever8850_2_051
// 060   ----------------------------------------
vastsever8850_2_060:
	BYTE		N10     Dn1   v100
	BYTE	W12
	BYTE		        An0 
	BYTE	W12
	BYTE		        Dn1 
	BYTE	W12
	BYTE		N23   
	BYTE	W24
	BYTE		N10     An0 
	BYTE	W12
	BYTE		        Gn0 
	BYTE	W12
	BYTE		        An0 
	BYTE	W12
	BYTE	PEND
// 061   ----------------------------------------
vastsever8850_2_061:
	BYTE		N10     Dn1   v100
	BYTE	W12
	BYTE		        An0 
	BYTE	W12
	BYTE		        Dn1 
	BYTE	W12
	BYTE		N23   
	BYTE	W24
	BYTE		N10     Dn0 
	BYTE	W12
	BYTE		        An0 
	BYTE	W12
	BYTE		        Dn1 
	BYTE	W12
	BYTE	PEND
// 062   ----------------------------------------
	BYTE		N92   
	BYTE	W96
// 063   ----------------------------------------
	BYTE		        Cn1 
	BYTE	W96
// 064   ----------------------------------------
	BYTE		        As0 
	BYTE	W96
// 065   ----------------------------------------
	BYTE		        An0 
	BYTE	W96
// 066   ----------------------------------------
	BYTE		        Dn1 
	BYTE	W96
// 067   ----------------------------------------
	BYTE		        Cn1 
	BYTE	W96
// 068   ----------------------------------------
	BYTE		        As0 
	BYTE	W96
// 069   ----------------------------------------
	BYTE		        An0 
	BYTE	W96
// 070   ----------------------------------------
	BYTE		        Dn1 
	BYTE	W96
// 071   ----------------------------------------
	BYTE		        Cn1 
	BYTE	W96
// 072   ----------------------------------------
	BYTE		        As0 
	BYTE	W96
// 073   ----------------------------------------
	BYTE		        An0 
	BYTE	W96
// 074   ----------------------------------------
	BYTE		        Dn1 
	BYTE	W96
// 075   ----------------------------------------
	BYTE		        Cn1 
	BYTE	W96
// 076   ----------------------------------------
	BYTE		        As0 
	BYTE	W96
// 077   ----------------------------------------
	BYTE	PATT
	 POIN2	vastsever8850_2_017
// 078   ----------------------------------------
	BYTE	PATT
	 POIN2	vastsever8850_2_018
// 079   ----------------------------------------
	BYTE	PATT
	 POIN2	vastsever8850_2_019
// 080   ----------------------------------------
	BYTE	PATT
	 POIN2	vastsever8850_2_020
// 081   ----------------------------------------
	BYTE	PATT
	 POIN2	vastsever8850_2_021
// 082   ----------------------------------------
	BYTE	PATT
	 POIN2	vastsever8850_2_022
// 083   ----------------------------------------
	BYTE	PATT
	 POIN2	vastsever8850_2_023
// 084   ----------------------------------------
	BYTE	PATT
	 POIN2	vastsever8850_2_020
// 085   ----------------------------------------
	BYTE	PATT
	 POIN2	vastsever8850_2_025
// 086   ----------------------------------------
	BYTE	PATT
	 POIN2	vastsever8850_2_018
// 087   ----------------------------------------
	BYTE	PATT
	 POIN2	vastsever8850_2_019
// 088   ----------------------------------------
	BYTE	PATT
	 POIN2	vastsever8850_2_020
// 089   ----------------------------------------
	BYTE	PATT
	 POIN2	vastsever8850_2_021
// 090   ----------------------------------------
	BYTE	PATT
	 POIN2	vastsever8850_2_022
// 091   ----------------------------------------
	BYTE	PATT
	 POIN2	vastsever8850_2_023
// 092   ----------------------------------------
	BYTE	PATT
	 POIN2	vastsever8850_2_020
// 093   ----------------------------------------
	BYTE	PATT
	 POIN2	vastsever8850_2_033
// 094   ----------------------------------------
	BYTE	PATT
	 POIN2	vastsever8850_2_034
// 095   ----------------------------------------
	BYTE	PATT
	 POIN2	vastsever8850_2_035
// 096   ----------------------------------------
	BYTE	PATT
	 POIN2	vastsever8850_2_036
// 097   ----------------------------------------
	BYTE	PATT
	 POIN2	vastsever8850_2_037
// 098   ----------------------------------------
	BYTE	PATT
	 POIN2	vastsever8850_2_034
// 099   ----------------------------------------
	BYTE	PATT
	 POIN2	vastsever8850_2_035
// 100   ----------------------------------------
	BYTE	PATT
	 POIN2	vastsever8850_2_036
// 101   ----------------------------------------
	BYTE	PATT
	 POIN2	vastsever8850_2_037
// 102   ----------------------------------------
	BYTE		N92     As0   v100
	BYTE	W96
// 103   ----------------------------------------
	BYTE		        Gn0 
	BYTE	W96
// 104   ----------------------------------------
	BYTE		        An0 
	BYTE	W96
// 105   ----------------------------------------
	BYTE	PATT
	 POIN2	vastsever8850_2_045
// 106   ----------------------------------------
	BYTE	PATT
	 POIN2	vastsever8850_2_046
// 107   ----------------------------------------
	BYTE	PATT
	 POIN2	vastsever8850_2_047
// 108   ----------------------------------------
	BYTE	PATT
	 POIN2	vastsever8850_2_048
// 109   ----------------------------------------
	BYTE	PATT
	 POIN2	vastsever8850_2_049
// 110   ----------------------------------------
	BYTE	PATT
	 POIN2	vastsever8850_2_050
// 111   ----------------------------------------
	BYTE	PATT
	 POIN2	vastsever8850_2_051
// 112   ----------------------------------------
	BYTE	PATT
	 POIN2	vastsever8850_2_050
// 113   ----------------------------------------
	BYTE	PATT
	 POIN2	vastsever8850_2_053
// 114   ----------------------------------------
	BYTE	PATT
	 POIN2	vastsever8850_2_046
// 115   ----------------------------------------
	BYTE	PATT
	 POIN2	vastsever8850_2_047
// 116   ----------------------------------------
	BYTE	PATT
	 POIN2	vastsever8850_2_048
// 117   ----------------------------------------
	BYTE	PATT
	 POIN2	vastsever8850_2_057
// 118   ----------------------------------------
	BYTE	PATT
	 POIN2	vastsever8850_2_050
// 119   ----------------------------------------
	BYTE	PATT
	 POIN2	vastsever8850_2_051
// 120   ----------------------------------------
	BYTE	PATT
	 POIN2	vastsever8850_2_060
// 121   ----------------------------------------
	BYTE	PATT
	 POIN2	vastsever8850_2_061
// 122   ----------------------------------------
	BYTE		N92     Dn1   v100
	BYTE	W96
// 123   ----------------------------------------
	BYTE		        Cn1 
	BYTE	W96
// 124   ----------------------------------------
	BYTE		        As0 
	BYTE	W96
// 125   ----------------------------------------
	BYTE		        An0 
	BYTE	W96
// 126   ----------------------------------------
	BYTE		        Dn1 
	BYTE	W96
// 127   ----------------------------------------
	BYTE		        Cn1 
	BYTE	W96
// 128   ----------------------------------------
	BYTE		        As0 
	BYTE	W96
// 129   ----------------------------------------
	BYTE		        An0 
	BYTE	W96
// 130   ----------------------------------------
vastsever8850_2_130:
	BYTE		N10     Dn1   v100
	BYTE	W12
	BYTE		        An0 
	BYTE	W12
	BYTE		        Dn1 
	BYTE	W12
	BYTE		N23   
	BYTE	W24
	BYTE		N10     An0 
	BYTE	W12
	BYTE		        Fn0 
	BYTE	W12
	BYTE		        Dn1 
	BYTE	W12
	BYTE	PEND
// 131   ----------------------------------------
vastsever8850_2_131:
	BYTE		N10     Cn1   v100
	BYTE	W12
	BYTE		        Gn0 
	BYTE	W12
	BYTE		        Cn1 
	BYTE	W12
	BYTE		N23   
	BYTE	W24
	BYTE		N10     Gn0 
	BYTE	W12
	BYTE		        En0 
	BYTE	W12
	BYTE		        Cn1 
	BYTE	W12
	BYTE	PEND
// 132   ----------------------------------------
vastsever8850_2_132:
	BYTE		N10     As0   v100
	BYTE	W12
	BYTE		        Fn0 
	BYTE	W12
	BYTE		        As0 
	BYTE	W12
	BYTE		N23   
	BYTE	W24
	BYTE		N10     Fn0 
	BYTE	W12
	BYTE		        Dn0 
	BYTE	W12
	BYTE		        As0 
	BYTE	W12
	BYTE	PEND
// 133   ----------------------------------------
	BYTE		        An0 
	BYTE	W12
	BYTE		        En0 
	BYTE	W12
	BYTE		        An0 
	BYTE	W12
	BYTE		N23   
	BYTE	W24
	BYTE		N10     En0 
	BYTE	W12
	BYTE		        An0 
	BYTE	W12
	BYTE		        Cs1 
	BYTE	W12
// 134   ----------------------------------------
	BYTE	PATT
	 POIN2	vastsever8850_2_130
// 135   ----------------------------------------
	BYTE	PATT
	 POIN2	vastsever8850_2_131
// 136   ----------------------------------------
	BYTE	PATT
	 POIN2	vastsever8850_2_132
// 137   ----------------------------------------
	BYTE	PATT
	 POIN2	vastsever8850_2_017
// 138   ----------------------------------------
	BYTE	PATT
	 POIN2	vastsever8850_2_018
// 139   ----------------------------------------
	BYTE	PATT
	 POIN2	vastsever8850_2_019
// 140   ----------------------------------------
	BYTE	PATT
	 POIN2	vastsever8850_2_020
// 141   ----------------------------------------
	BYTE	PATT
	 POIN2	vastsever8850_2_021
// 142   ----------------------------------------
	BYTE	PATT
	 POIN2	vastsever8850_2_022
// 143   ----------------------------------------
	BYTE	PATT
	 POIN2	vastsever8850_2_023
// 144   ----------------------------------------
	BYTE	PATT
	 POIN2	vastsever8850_2_020
// 145   ----------------------------------------
	BYTE	PATT
	 POIN2	vastsever8850_2_025
// 146   ----------------------------------------
	BYTE	PATT
	 POIN2	vastsever8850_2_018
// 147   ----------------------------------------
	BYTE	PATT
	 POIN2	vastsever8850_2_019
// 148   ----------------------------------------
	BYTE	PATT
	 POIN2	vastsever8850_2_020
// 149   ----------------------------------------
	BYTE	PATT
	 POIN2	vastsever8850_2_021
// 150   ----------------------------------------
	BYTE	PATT
	 POIN2	vastsever8850_2_022
// 151   ----------------------------------------
	BYTE	PATT
	 POIN2	vastsever8850_2_023
// 152   ----------------------------------------
	BYTE	PATT
	 POIN2	vastsever8850_2_020
// 153   ----------------------------------------
	BYTE	PATT
	 POIN2	vastsever8850_2_033
// 154   ----------------------------------------
	BYTE		N10     Dn1   v100
	BYTE	W12
	BYTE		N22   
	BYTE	W24
	BYTE		N56     Cn1 
	BYTE	W60
// 155   ----------------------------------------
vastsever8850_2_155:
	BYTE		N10     As0   v100
	BYTE	W12
	BYTE		N22   
	BYTE	W24
	BYTE		N56     An0 
	BYTE	W60
	BYTE	PEND
// 156   ----------------------------------------
	BYTE	PATT
	 POIN2	vastsever8850_2_155
// 157   ----------------------------------------
	BYTE		N10     As0   v100
	BYTE	W12
	BYTE		N22   
	BYTE	W24
	BYTE		N56     Cs1 
	BYTE	W60
// 158   ----------------------------------------
	BYTE		TIE     Dn1 
	BYTE	W96
// 159   ----------------------------------------
	BYTE	W92
	BYTE	W03
	BYTE		EOT   
	BYTE	W01
// 160   ----------------------------------------
	BYTE	W96
// 161   ----------------------------------------
	BYTE	W96
// 162   ----------------------------------------
	BYTE	W96
// 163   ----------------------------------------
	BYTE	FINE

//**************** Track 3 (Midi-Chn.3) ****************//

vastsever8850_3:
	BYTE	KEYSH   vastsever8850_key+0
// 000   ----------------------------------------
	BYTE	W96
// 001   ----------------------------------------
	BYTE		VOICE   65
	BYTE		VOL     120*vastsever8850_mvl/mxv
	BYTE		PAN     c_v+0
	BYTE	W48
	BYTE		MOD     0
	BYTE		        0
	BYTE		BEND    c_v+0
	BYTE	W21
	BYTE	W03
	BYTE	W06
	BYTE	W06
	BYTE	W06
	BYTE	W03
	BYTE		VOL     120*vastsever8850_mvl/mxv
	BYTE	W03
// 002   ----------------------------------------
	BYTE	W96
// 003   ----------------------------------------
	BYTE	W96
// 004   ----------------------------------------
	BYTE	W96
// 005   ----------------------------------------
	BYTE	W96
// 006   ----------------------------------------
	BYTE	W96
// 007   ----------------------------------------
	BYTE	W96
// 008   ----------------------------------------
	BYTE	W96
// 009   ----------------------------------------
	BYTE	W96
// 010   ----------------------------------------
	BYTE	W96
// 011   ----------------------------------------
	BYTE	W96
// 012   ----------------------------------------
	BYTE	W96
// 013   ----------------------------------------
	BYTE	W96
// 014   ----------------------------------------
	BYTE	W96
// 015   ----------------------------------------
	BYTE	W96
// 016   ----------------------------------------
	BYTE	W96
// 017   ----------------------------------------
	BYTE	W96
// 018   ----------------------------------------
	BYTE	W96
// 019   ----------------------------------------
	BYTE	W96
// 020   ----------------------------------------
	BYTE	W96
// 021   ----------------------------------------
	BYTE	W96
// 022   ----------------------------------------
	BYTE	W96
// 023   ----------------------------------------
	BYTE	W96
// 024   ----------------------------------------
	BYTE	W96
// 025   ----------------------------------------
	BYTE	W96
// 026   ----------------------------------------
	BYTE	W96
// 027   ----------------------------------------
	BYTE	W96
// 028   ----------------------------------------
	BYTE	W96
// 029   ----------------------------------------
	BYTE	W96
// 030   ----------------------------------------
	BYTE	W96
// 031   ----------------------------------------
	BYTE	W96
// 032   ----------------------------------------
	BYTE	W96
// 033   ----------------------------------------
vastsever8850_3_033:
	BYTE	W60
	BYTE		N10     An3   v096
	BYTE	W12
	BYTE		N12     Dn4   v100
	BYTE	W12
	BYTE		MOD     56
	BYTE		N10     En4   v092
	BYTE	W11
	BYTE		MOD     0
	BYTE	W01
	BYTE	PEND
// 034   ----------------------------------------
vastsever8850_3_034:
	BYTE		N10     Fn4   v116
	BYTE	W12
	BYTE		        Gn4   v092
	BYTE	W12
	BYTE		MOD     65
	BYTE		BEND    c_v+0
	BYTE		N10     An4   v100
	BYTE	W11
	BYTE		MOD     0
	BYTE	W01
	BYTE		N22     Gn4   v096
	BYTE	W24
	BYTE		N10     Fn4   v100
	BYTE	W12
	BYTE		N22     En4   v120
	BYTE	W24
	BYTE	PEND
// 035   ----------------------------------------
vastsever8850_3_035:
	BYTE		N12     Cn4   v116
	BYTE	W12
	BYTE		N11     An3   v096
	BYTE	W12
	BYTE		        Cn4   v108
	BYTE	W12
	BYTE		MOD     8
	BYTE		N22     Dn4   v116
	BYTE	W01
	BYTE		MOD     16
	BYTE	W01
	BYTE		        24
	BYTE	W01
	BYTE		        41
	BYTE	W01
	BYTE		        49
	BYTE	W01
	BYTE		        60
	BYTE	W18
	BYTE		        0
	BYTE	W01
	BYTE		N10     Dn4   v108
	BYTE	W12
	BYTE		N12     En4   v092
	BYTE	W12
	BYTE		N32     Fn4   v116
	BYTE	W02
	BYTE		MOD     11
	BYTE	W01
	BYTE		        32
	BYTE	W01
	BYTE		        43
	BYTE	W01
	BYTE		        53
	BYTE	W01
	BYTE		        60
	BYTE	W06
	BYTE	PEND
// 036   ----------------------------------------
vastsever8850_3_036:
	BYTE	W23
	BYTE		MOD     0
	BYTE	W01
	BYTE		N10     En4   v116
	BYTE	W12
	BYTE		N22     Fn4 
	BYTE	W24
	BYTE		N10     Gn4   v088
	BYTE	W12
	BYTE		        An4   v116
	BYTE	W12
	BYTE		        Gn4   v088
	BYTE	W12
	BYTE	PEND
// 037   ----------------------------------------
vastsever8850_3_037:
	BYTE		N32     Fn4   v116
	BYTE	W09
	BYTE		MOD     9
	BYTE	W01
	BYTE		        18
	BYTE	W01
	BYTE		        28
	BYTE	W01
	BYTE		        46
	BYTE	W01
	BYTE		        55
	BYTE	W01
	BYTE		        64
	BYTE	W01
	BYTE		        67
	BYTE	W21
	BYTE		N05     Gn4   v088
	BYTE	W06
	BYTE		        Fn4 
	BYTE	W05
	BYTE		MOD     0
	BYTE	W01
	BYTE		N44     En4   v104
	BYTE	W48
	BYTE	PEND
// 038   ----------------------------------------
vastsever8850_3_038:
	BYTE		N10     Fn4   v116
	BYTE	W12
	BYTE		        Gn4   v092
	BYTE	W12
	BYTE		MOD     65
	BYTE		BEND    c_v+0
	BYTE		N10     An4   v100
	BYTE	W11
	BYTE		MOD     0
	BYTE	W01
	BYTE		N22     Cn5   v096
	BYTE	W24
	BYTE		N10     As4   v100
	BYTE	W12
	BYTE		        An4   v120
	BYTE	W12
	BYTE		        Gn4 
	BYTE	W12
	BYTE	PEND
// 039   ----------------------------------------
vastsever8850_3_039:
	BYTE		N10     En4   v120
	BYTE	W12
	BYTE		        Fn4 
	BYTE	W12
	BYTE		        Gn4 
	BYTE	W12
	BYTE		MOD     8
	BYTE		N22     Fn4   v116
	BYTE	W01
	BYTE		MOD     16
	BYTE	W01
	BYTE		        24
	BYTE	W01
	BYTE		        41
	BYTE	W01
	BYTE		        49
	BYTE	W01
	BYTE		        60
	BYTE	W18
	BYTE		        0
	BYTE	W01
	BYTE		N10     Dn4   v108
	BYTE	W12
	BYTE		N12     En4   v092
	BYTE	W12
	BYTE		N32     Fn4   v116
	BYTE	W02
	BYTE		MOD     11
	BYTE	W01
	BYTE		        32
	BYTE	W01
	BYTE		        43
	BYTE	W01
	BYTE		        53
	BYTE	W01
	BYTE		        60
	BYTE	W06
	BYTE	PEND
// 040   ----------------------------------------
vastsever8850_3_040:
	BYTE	W23
	BYTE		MOD     0
	BYTE	W01
	BYTE		N10     En4   v116
	BYTE	W12
	BYTE		N22     Fn4 
	BYTE	W24
	BYTE		N10     Gn4   v088
	BYTE	W12
	BYTE		        An4   v116
	BYTE	W12
	BYTE		N68     Cn5   v124
	BYTE	W12
	BYTE	PEND
// 041   ----------------------------------------
vastsever8850_3_041:
	BYTE	W07
	BYTE		MOD     8
	BYTE	W01
	BYTE		        16
	BYTE	W01
	BYTE		        33
	BYTE	W01
	BYTE		        42
	BYTE	W01
	BYTE		        50
	BYTE	W01
	BYTE		        67
	BYTE	W01
	BYTE		        75
	BYTE	W01
	BYTE		        84
	BYTE	W01
	BYTE		        92
	BYTE	W44
	BYTE		        0
	BYTE	W01
	BYTE		N10     Gn4   v100
	BYTE	W12
	BYTE		        Fn4   v116
	BYTE	W12
	BYTE		        En4   v100
	BYTE	W12
	BYTE	PEND
// 042   ----------------------------------------
vastsever8850_3_042:
	BYTE		N56     Dn4   v116
	BYTE	W11
	BYTE		MOD     12
	BYTE	W01
	BYTE		        38
	BYTE	W01
	BYTE		        51
	BYTE	W01
	BYTE		        63
	BYTE	W01
	BYTE		        75
	BYTE	W42
	BYTE		        0
	BYTE	W03
	BYTE		N10     Dn4   v100
	BYTE	W12
	BYTE		        En4   v116
	BYTE	W12
	BYTE		        Fn4   v104
	BYTE	W12
	BYTE	PEND
// 043   ----------------------------------------
vastsever8850_3_043:
	BYTE		N44     Gn4   v116
	BYTE	W48
	BYTE		        Fn4   v108
	BYTE	W06
	BYTE		MOD     10
	BYTE	W01
	BYTE		        21
	BYTE	W01
	BYTE		        31
	BYTE	W01
	BYTE		        53
	BYTE	W01
	BYTE		        63
	BYTE	W01
	BYTE		        76
	BYTE	W32
	BYTE	W03
	BYTE		        0
	BYTE	W02
	BYTE	PEND
// 044   ----------------------------------------
	BYTE		N68     En4   v112
	BYTE	W22
	BYTE		MOD     5
	BYTE	W01
	BYTE		        10
	BYTE	W01
	BYTE		        20
	BYTE	W01
	BYTE		        25
	BYTE	W01
	BYTE		        30
	BYTE	W01
	BYTE		        40
	BYTE	W01
	BYTE		        46
	BYTE	W01
	BYTE		        51
	BYTE	W01
	BYTE		        61
	BYTE	W01
	BYTE		        66
	BYTE	W01
	BYTE		        71
	BYTE	W01
	BYTE		        79
	BYTE	W36
	BYTE		        0
	BYTE	W03
	BYTE		N11     Dn4   v108
	BYTE	W12
	BYTE		TIE     En4   v124
	BYTE	W12
// 045   ----------------------------------------
	BYTE	W02
	BYTE		MOD     6
	BYTE	W01
	BYTE		        18
	BYTE	W01
	BYTE		        23
	BYTE	W01
	BYTE		        29
	BYTE	W01
	BYTE		        41
	BYTE	W01
	BYTE		        47
	BYTE	W01
	BYTE		        52
	BYTE	W01
	BYTE		        64
	BYTE	W01
	BYTE		        70
	BYTE	W01
	BYTE		        75
	BYTE	W01
	BYTE		        87
	BYTE	W01
	BYTE		        92
	BYTE	W24
	BYTE		VOL     120*vastsever8850_mvl/mxv
	BYTE	W01
	BYTE		        119*vastsever8850_mvl/mxv
	BYTE	W01
	BYTE		        118*vastsever8850_mvl/mxv
	BYTE	W01
	BYTE		        117*vastsever8850_mvl/mxv
	BYTE	W01
	BYTE		        116*vastsever8850_mvl/mxv
	BYTE	W01
	BYTE		        114*vastsever8850_mvl/mxv
	BYTE	W01
	BYTE		        113*vastsever8850_mvl/mxv
	BYTE	W02
	BYTE		        111*vastsever8850_mvl/mxv
	BYTE	W01
	BYTE		        110*vastsever8850_mvl/mxv
	BYTE	W01
	BYTE		        109*vastsever8850_mvl/mxv
	BYTE	W01
	BYTE		        108*vastsever8850_mvl/mxv
	BYTE	W01
	BYTE		        107*vastsever8850_mvl/mxv
	BYTE	W01
	BYTE		        106*vastsever8850_mvl/mxv
	BYTE	W01
	BYTE		        104*vastsever8850_mvl/mxv
	BYTE	W02
	BYTE		        103*vastsever8850_mvl/mxv
	BYTE	W01
	BYTE		        101*vastsever8850_mvl/mxv
	BYTE	W01
	BYTE		        100*vastsever8850_mvl/mxv
	BYTE	W01
	BYTE		        99*vastsever8850_mvl/mxv
	BYTE	W01
	BYTE		        98*vastsever8850_mvl/mxv
	BYTE	W01
	BYTE		        97*vastsever8850_mvl/mxv
	BYTE	W01
	BYTE		        96*vastsever8850_mvl/mxv
	BYTE	W01
	BYTE		        94*vastsever8850_mvl/mxv
	BYTE	W02
	BYTE		        93*vastsever8850_mvl/mxv
	BYTE	W01
	BYTE		        91*vastsever8850_mvl/mxv
	BYTE	W01
	BYTE		        90*vastsever8850_mvl/mxv
	BYTE	W01
	BYTE		        89*vastsever8850_mvl/mxv
	BYTE	W01
	BYTE		        88*vastsever8850_mvl/mxv
	BYTE	W01
	BYTE		        87*vastsever8850_mvl/mxv
	BYTE	W01
	BYTE		        86*vastsever8850_mvl/mxv
	BYTE	W01
	BYTE		        85*vastsever8850_mvl/mxv
	BYTE	W01
	BYTE		        84*vastsever8850_mvl/mxv
	BYTE	W01
	BYTE		        83*vastsever8850_mvl/mxv
	BYTE	W01
	BYTE		        81*vastsever8850_mvl/mxv
	BYTE	W01
	BYTE		        80*vastsever8850_mvl/mxv
	BYTE	W02
	BYTE		        78*vastsever8850_mvl/mxv
	BYTE	W01
	BYTE		        77*vastsever8850_mvl/mxv
	BYTE	W01
	BYTE		        76*vastsever8850_mvl/mxv
	BYTE	W01
	BYTE		        75*vastsever8850_mvl/mxv
	BYTE	W01
	BYTE		        74*vastsever8850_mvl/mxv
	BYTE	W01
	BYTE		        73*vastsever8850_mvl/mxv
	BYTE	W01
	BYTE		        71*vastsever8850_mvl/mxv
	BYTE	W01
	BYTE		        70*vastsever8850_mvl/mxv
	BYTE	W02
	BYTE		        68*vastsever8850_mvl/mxv
	BYTE	W01
	BYTE		        67*vastsever8850_mvl/mxv
	BYTE	W01
	BYTE		        66*vastsever8850_mvl/mxv
	BYTE	W01
	BYTE		        65*vastsever8850_mvl/mxv
	BYTE	W01
	BYTE		        64*vastsever8850_mvl/mxv
	BYTE	W01
	BYTE		        63*vastsever8850_mvl/mxv
	BYTE	W01
	BYTE		        61*vastsever8850_mvl/mxv
	BYTE	W01
	BYTE		        60*vastsever8850_mvl/mxv
	BYTE	W02
	BYTE		        59*vastsever8850_mvl/mxv
	BYTE		MOD     0
	BYTE		VOL     58*vastsever8850_mvl/mxv
	BYTE	W01
	BYTE		        57*vastsever8850_mvl/mxv
	BYTE	W01
	BYTE		        56*vastsever8850_mvl/mxv
	BYTE	W01
	BYTE		EOT   
// 046   ----------------------------------------
	BYTE		VOL     55*vastsever8850_mvl/mxv
	BYTE	W01
	BYTE		        54*vastsever8850_mvl/mxv
	BYTE	W92
	BYTE	W02
	BYTE		        120*vastsever8850_mvl/mxv
	BYTE	W01
// 047   ----------------------------------------
	BYTE	W96
// 048   ----------------------------------------
	BYTE	W96
// 049   ----------------------------------------
	BYTE	W96
// 050   ----------------------------------------
	BYTE	W96
// 051   ----------------------------------------
	BYTE	W96
// 052   ----------------------------------------
	BYTE	W96
// 053   ----------------------------------------
	BYTE	W96
// 054   ----------------------------------------
	BYTE	W96
// 055   ----------------------------------------
	BYTE	W96
// 056   ----------------------------------------
	BYTE	W96
// 057   ----------------------------------------
	BYTE	W96
// 058   ----------------------------------------
	BYTE	W96
// 059   ----------------------------------------
	BYTE	W96
// 060   ----------------------------------------
	BYTE	W96
// 061   ----------------------------------------
	BYTE	W96
// 062   ----------------------------------------
	BYTE	W18
	BYTE		        87*vastsever8850_mvl/mxv
	BYTE	W01
	BYTE		        88*vastsever8850_mvl/mxv
	BYTE	W01
	BYTE		        89*vastsever8850_mvl/mxv
	BYTE	W01
	BYTE		        90*vastsever8850_mvl/mxv
	BYTE	W01
	BYTE		        91*vastsever8850_mvl/mxv
	BYTE	W01
	BYTE		        92*vastsever8850_mvl/mxv
	BYTE	W01
	BYTE		        94*vastsever8850_mvl/mxv
	BYTE		N40     An4   v127
	BYTE	W01
	BYTE		VOL     95*vastsever8850_mvl/mxv
	BYTE	W02
	BYTE		        97*vastsever8850_mvl/mxv
	BYTE	W01
	BYTE		        98*vastsever8850_mvl/mxv
	BYTE	W01
	BYTE		        99*vastsever8850_mvl/mxv
	BYTE		MOD     7
	BYTE	W01
	BYTE		        14
	BYTE		VOL     100*vastsever8850_mvl/mxv
	BYTE		MOD     21
	BYTE	W01
	BYTE		VOL     101*vastsever8850_mvl/mxv
	BYTE		MOD     28
	BYTE	W01
	BYTE		VOL     102*vastsever8850_mvl/mxv
	BYTE		MOD     35
	BYTE	W01
	BYTE		VOL     103*vastsever8850_mvl/mxv
	BYTE		MOD     42
	BYTE		VOL     104*vastsever8850_mvl/mxv
	BYTE		MOD     49
	BYTE	W01
	BYTE		        57
	BYTE	W01
	BYTE		VOL     105*vastsever8850_mvl/mxv
	BYTE		MOD     64
	BYTE	W01
	BYTE		VOL     106*vastsever8850_mvl/mxv
	BYTE		MOD     71
	BYTE		VOL     107*vastsever8850_mvl/mxv
	BYTE		MOD     78
	BYTE	W01
	BYTE		VOL     108*vastsever8850_mvl/mxv
	BYTE	W01
	BYTE		        109*vastsever8850_mvl/mxv
	BYTE	W01
	BYTE		        110*vastsever8850_mvl/mxv
	BYTE	W01
	BYTE		        111*vastsever8850_mvl/mxv
	BYTE	W01
	BYTE		        112*vastsever8850_mvl/mxv
	BYTE	W01
	BYTE		        114*vastsever8850_mvl/mxv
	BYTE	W02
	BYTE		        115*vastsever8850_mvl/mxv
	BYTE	W01
	BYTE		        117*vastsever8850_mvl/mxv
	BYTE	W01
	BYTE		        118*vastsever8850_mvl/mxv
	BYTE	W02
	BYTE		        120*vastsever8850_mvl/mxv
	BYTE	W17
	BYTE		MOD     0
	BYTE	W01
	BYTE		N02     As4   v100
	BYTE	W03
	BYTE		        Bn4   v108
	BYTE	W03
	BYTE		N22     Cn5   v120
	BYTE	W24
// 063   ----------------------------------------
	BYTE		        An4   v092
	BYTE	W24
	BYTE		N05     An4   v100
	BYTE	W06
	BYTE		        Fn4   v116
	BYTE	W06
	BYTE		        Dn4   v092
	BYTE	W06
	BYTE		        An3   v104
	BYTE	W06
	BYTE		        An4   v096
	BYTE	W06
	BYTE		        Fn4   v092
	BYTE	W06
	BYTE		        Dn4   v112
	BYTE	W06
	BYTE		        An3   v084
	BYTE	W06
	BYTE		        An4   v120
	BYTE	W06
	BYTE		        Fn4   v096
	BYTE	W06
	BYTE		        Dn4   v108
	BYTE	W06
	BYTE		        Fn4   v092
	BYTE	W06
// 064   ----------------------------------------
	BYTE		N11     An4   v120
	BYTE	W12
	BYTE		N02     An4   v112
	BYTE	W06
	BYTE		N11     Gn4   v104
	BYTE	W12
	BYTE		        Fn4   v116
	BYTE	W12
	BYTE		        Gn4   v096
	BYTE	W12
	BYTE		N05     Fn4   v112
	BYTE	W06
	BYTE		        Gn4   v120
	BYTE	W06
	BYTE		        Fn4   v088
	BYTE	W06
	BYTE		N11     Dn4   v104
	BYTE	W12
	BYTE		N05     Gn4   v092
	BYTE	W06
	BYTE		        Fn4   v116
	BYTE	W06
// 065   ----------------------------------------
	BYTE		        En4   v096
	BYTE	W06
	BYTE		        An3   v112
	BYTE	W06
	BYTE		        Cs4   v096
	BYTE	W06
	BYTE		        En4   v124
	BYTE	W06
	BYTE		        An3   v112
	BYTE	W06
	BYTE		        An4   v108
	BYTE	W06
	BYTE		        Gn4   v116
	BYTE	W06
	BYTE		        En4   v108
	BYTE	W06
	BYTE		        Gn4   v096
	BYTE	W06
	BYTE		        Fn4   v120
	BYTE	W06
	BYTE		        En4   v112
	BYTE	W06
	BYTE		        Cn5   v088
	BYTE	W06
	BYTE		        Gn4   v112
	BYTE	W06
	BYTE		        Dn4   v116
	BYTE	W06
	BYTE		        An3   v108
	BYTE	W06
	BYTE		N02     Cn4   v116
	BYTE	W03
	BYTE		        Cs4   v096
	BYTE	W03
// 066   ----------------------------------------
	BYTE		N28     Dn4   v116
	BYTE	W30
	BYTE		N02     Cn4   v092
	BYTE	W03
	BYTE		        Cs4   v096
	BYTE	W03
	BYTE		N28     Dn4   v120
	BYTE	W30
	BYTE		N02     An3   v108
	BYTE	W03
	BYTE		        As3 
	BYTE	W03
	BYTE		N11     Cn4   v120
	BYTE	W12
	BYTE		N02     An3   v076
	BYTE	W03
	BYTE		        Bn3   v088
	BYTE	W03
	BYTE		        Cn4   v096
	BYTE	W03
	BYTE		        Cs4   v100
	BYTE	W03
// 067   ----------------------------------------
	BYTE		N28     Dn4   v120
	BYTE	W30
	BYTE		N05     Cn5 
	BYTE	W06
	BYTE		        As4   v088
	BYTE	W06
	BYTE		        An4   v112
	BYTE	W06
	BYTE		        Dn4   v100
	BYTE	W06
	BYTE		        Dn3   v088
	BYTE	W06
	BYTE		        An3   v108
	BYTE	W06
	BYTE		        Fn3   v096
	BYTE	W06
	BYTE		        Dn4   v088
	BYTE	W06
	BYTE		        As3   v100
	BYTE	W06
	BYTE		        An3   v112
	BYTE	W06
	BYTE		        Fn4   v088
	BYTE	W06
// 068   ----------------------------------------
	BYTE		N56     Gn4   v108
	BYTE	W08
	BYTE		MOD     1
	BYTE	W01
	BYTE		        4
	BYTE	W01
	BYTE		        6
	BYTE	W01
	BYTE		        7
	BYTE	W01
	BYTE		        12
	BYTE	W01
	BYTE		        16
	BYTE	W01
	BYTE		        19
	BYTE	W01
	BYTE		        39
	BYTE	W01
	BYTE		        43
	BYTE	W01
	BYTE		        52
	BYTE	W01
	BYTE		        99
	BYTE	W06
	BYTE		VOL     118*vastsever8850_mvl/mxv
	BYTE	W02
	BYTE		        117*vastsever8850_mvl/mxv
	BYTE	W01
	BYTE		        116*vastsever8850_mvl/mxv
	BYTE	W01
	BYTE		        115*vastsever8850_mvl/mxv
	BYTE	W02
	BYTE		        113*vastsever8850_mvl/mxv
	BYTE	W02
	BYTE		        112*vastsever8850_mvl/mxv
	BYTE	W01
	BYTE		        111*vastsever8850_mvl/mxv
	BYTE	W01
	BYTE		        110*vastsever8850_mvl/mxv
	BYTE	W02
	BYTE		        108*vastsever8850_mvl/mxv
	BYTE	W02
	BYTE		        107*vastsever8850_mvl/mxv
	BYTE	W01
	BYTE		        106*vastsever8850_mvl/mxv
	BYTE	W01
	BYTE		        105*vastsever8850_mvl/mxv
	BYTE	W02
	BYTE		        103*vastsever8850_mvl/mxv
	BYTE	W02
	BYTE		        102*vastsever8850_mvl/mxv
	BYTE	W01
	BYTE		        101*vastsever8850_mvl/mxv
	BYTE	W01
	BYTE		        100*vastsever8850_mvl/mxv
	BYTE	W02
	BYTE		        99*vastsever8850_mvl/mxv
	BYTE	W01
	BYTE		        98*vastsever8850_mvl/mxv
	BYTE	W01
	BYTE		        97*vastsever8850_mvl/mxv
	BYTE	W01
	BYTE		        96*vastsever8850_mvl/mxv
	BYTE	W01
	BYTE		        95*vastsever8850_mvl/mxv
	BYTE	W02
	BYTE		        94*vastsever8850_mvl/mxv
	BYTE	W01
	BYTE		        93*vastsever8850_mvl/mxv
	BYTE	W01
	BYTE		        92*vastsever8850_mvl/mxv
	BYTE	W01
	BYTE		        91*vastsever8850_mvl/mxv
	BYTE	W02
	BYTE		MOD     0
	BYTE	W01
	BYTE		VOL     120*vastsever8850_mvl/mxv
	BYTE		N02     Cn3   v084
	BYTE	W03
	BYTE		        An3 
	BYTE	W03
	BYTE		        En4   v096
	BYTE	W03
	BYTE		        Gn4   v104
	BYTE	W03
	BYTE		N52     Cn5   v116
	BYTE	W03
	BYTE		VOL     118*vastsever8850_mvl/mxv
	BYTE	W01
	BYTE		        117*vastsever8850_mvl/mxv
	BYTE	W01
	BYTE		        115*vastsever8850_mvl/mxv
	BYTE	W01
	BYTE		        112*vastsever8850_mvl/mxv
	BYTE	W01
	BYTE		        110*vastsever8850_mvl/mxv
	BYTE	W01
	BYTE		        108*vastsever8850_mvl/mxv
	BYTE	W01
	BYTE		        105*vastsever8850_mvl/mxv
	BYTE	W01
	BYTE		        103*vastsever8850_mvl/mxv
	BYTE		MOD     1
	BYTE	W01
	BYTE		VOL     104*vastsever8850_mvl/mxv
	BYTE		MOD     13
	BYTE	W01
	BYTE		VOL     103*vastsever8850_mvl/mxv
	BYTE		MOD     26
	BYTE		VOL     104*vastsever8850_mvl/mxv
	BYTE		MOD     39
	BYTE	W01
	BYTE		        51
	BYTE	W01
	BYTE		VOL     105*vastsever8850_mvl/mxv
	BYTE		MOD     64
	BYTE	W01
	BYTE		VOL     106*vastsever8850_mvl/mxv
	BYTE		MOD     77
	BYTE		VOL     107*vastsever8850_mvl/mxv
	BYTE		MOD     89
	BYTE	W01
	BYTE		VOL     108*vastsever8850_mvl/mxv
	BYTE		MOD     102
	BYTE	W01
	BYTE		        115
	BYTE	W01
	BYTE		VOL     109*vastsever8850_mvl/mxv
	BYTE		MOD     127
	BYTE		VOL     110*vastsever8850_mvl/mxv
	BYTE	W01
	BYTE		        111*vastsever8850_mvl/mxv
	BYTE	W01
	BYTE		        112*vastsever8850_mvl/mxv
	BYTE	W01
	BYTE		        113*vastsever8850_mvl/mxv
	BYTE	W01
	BYTE		        114*vastsever8850_mvl/mxv
	BYTE	W01
	BYTE		        115*vastsever8850_mvl/mxv
	BYTE	W01
// 069   ----------------------------------------
	BYTE		        116*vastsever8850_mvl/mxv
	BYTE	W01
	BYTE		        117*vastsever8850_mvl/mxv
	BYTE	W01
	BYTE		        118*vastsever8850_mvl/mxv
	BYTE	W01
	BYTE		        120*vastsever8850_mvl/mxv
	BYTE	W13
	BYTE		        119*vastsever8850_mvl/mxv
	BYTE	W01
	BYTE		        118*vastsever8850_mvl/mxv
	BYTE	W01
	BYTE		        116*vastsever8850_mvl/mxv
	BYTE	W01
	BYTE		        115*vastsever8850_mvl/mxv
	BYTE	W01
	BYTE		        114*vastsever8850_mvl/mxv
	BYTE	W01
	BYTE		        112*vastsever8850_mvl/mxv
	BYTE	W01
	BYTE		        111*vastsever8850_mvl/mxv
	BYTE		MOD     120
	BYTE	W01
	BYTE		VOL     110*vastsever8850_mvl/mxv
	BYTE		MOD     113
	BYTE	W01
	BYTE		VOL     109*vastsever8850_mvl/mxv
	BYTE		MOD     107
	BYTE		VOL     108*vastsever8850_mvl/mxv
	BYTE		MOD     100
	BYTE	W01
	BYTE		VOL     107*vastsever8850_mvl/mxv
	BYTE		MOD     93
	BYTE	W01
	BYTE		VOL     106*vastsever8850_mvl/mxv
	BYTE		MOD     87
	BYTE	W01
	BYTE		VOL     105*vastsever8850_mvl/mxv
	BYTE		MOD     80
	BYTE		VOL     104*vastsever8850_mvl/mxv
	BYTE		MOD     73
	BYTE	W01
	BYTE		VOL     103*vastsever8850_mvl/mxv
	BYTE		MOD     67
	BYTE	W01
	BYTE		VOL     102*vastsever8850_mvl/mxv
	BYTE		MOD     60
	BYTE	W01
	BYTE		VOL     107*vastsever8850_mvl/mxv
	BYTE		MOD     53
	BYTE		VOL     120*vastsever8850_mvl/mxv
	BYTE		MOD     46
	BYTE		N03     Bn4   v104
	BYTE	W01
	BYTE		MOD     40
	BYTE	W01
	BYTE		        33
	BYTE	W01
	BYTE		        20
	BYTE	W01
	BYTE		        13
	BYTE		N03     Gn4   v112
	BYTE	W01
	BYTE		MOD     0
	BYTE	W03
	BYTE		N03     An4   v096
	BYTE	W04
	BYTE		        Fn4   v092
	BYTE	W04
	BYTE		        Dn4   v116
	BYTE	W04
	BYTE		        Bn3   v100
	BYTE	W04
	BYTE		        Gn3 
	BYTE	W04
	BYTE		        Cs4   v108
	BYTE	W04
	BYTE		        Bn3   v088
	BYTE	W03
	BYTE		        Cn4   v096
	BYTE	W03
	BYTE		        En4   v108
	BYTE	W04
	BYTE		TIE     Gn4   v124
	BYTE	W03
	BYTE		VOL     117*vastsever8850_mvl/mxv
	BYTE	W01
	BYTE		        115*vastsever8850_mvl/mxv
	BYTE	W01
	BYTE		        113*vastsever8850_mvl/mxv
	BYTE	W01
	BYTE		        109*vastsever8850_mvl/mxv
	BYTE	W01
	BYTE		        108*vastsever8850_mvl/mxv
	BYTE	W01
	BYTE		        106*vastsever8850_mvl/mxv
	BYTE	W01
	BYTE		        102*vastsever8850_mvl/mxv
	BYTE	W01
	BYTE		        100*vastsever8850_mvl/mxv
	BYTE	W01
	BYTE		        98*vastsever8850_mvl/mxv
	BYTE	W01
	BYTE		        94*vastsever8850_mvl/mxv
	BYTE	W01
	BYTE		        92*vastsever8850_mvl/mxv
	BYTE	W01
	BYTE		        91*vastsever8850_mvl/mxv
	BYTE	W10
// 070   ----------------------------------------
	BYTE		        90*vastsever8850_mvl/mxv
	BYTE		MOD     4
	BYTE	W01
	BYTE		        8
	BYTE	W01
	BYTE		VOL     91*vastsever8850_mvl/mxv
	BYTE		MOD     12
	BYTE	W01
	BYTE		        21
	BYTE	W01
	BYTE		        25
	BYTE	W01
	BYTE		VOL     92*vastsever8850_mvl/mxv
	BYTE		MOD     29
	BYTE	W01
	BYTE		        37
	BYTE	W01
	BYTE		        41
	BYTE	W01
	BYTE		VOL     93*vastsever8850_mvl/mxv
	BYTE		MOD     45
	BYTE	W01
	BYTE		        54
	BYTE	W01
	BYTE		        58
	BYTE	W01
	BYTE		VOL     94*vastsever8850_mvl/mxv
	BYTE		MOD     62
	BYTE	W01
	BYTE		        70
	BYTE	W01
	BYTE		        74
	BYTE	W01
	BYTE		VOL     95*vastsever8850_mvl/mxv
	BYTE		MOD     78
	BYTE	W01
	BYTE		        86
	BYTE	W01
	BYTE		        91
	BYTE	W01
	BYTE		VOL     96*vastsever8850_mvl/mxv
	BYTE		MOD     95
	BYTE	W01
	BYTE		        103
	BYTE	W01
	BYTE		        107
	BYTE	W01
	BYTE		VOL     97*vastsever8850_mvl/mxv
	BYTE		MOD     111
	BYTE	W01
	BYTE		        119
	BYTE	W01
	BYTE		        123
	BYTE	W01
	BYTE		VOL     98*vastsever8850_mvl/mxv
	BYTE		MOD     127
	BYTE	W03
	BYTE		VOL     99*vastsever8850_mvl/mxv
	BYTE	W03
	BYTE		        100*vastsever8850_mvl/mxv
	BYTE	W03
	BYTE		        101*vastsever8850_mvl/mxv
	BYTE	W03
	BYTE		        102*vastsever8850_mvl/mxv
	BYTE	W03
	BYTE		        103*vastsever8850_mvl/mxv
	BYTE	W03
	BYTE		        104*vastsever8850_mvl/mxv
	BYTE	W03
	BYTE		        105*vastsever8850_mvl/mxv
	BYTE	W03
	BYTE		        106*vastsever8850_mvl/mxv
	BYTE	W03
	BYTE		        107*vastsever8850_mvl/mxv
	BYTE	W03
	BYTE		        108*vastsever8850_mvl/mxv
	BYTE	W03
	BYTE		        109*vastsever8850_mvl/mxv
	BYTE	W03
	BYTE		        110*vastsever8850_mvl/mxv
	BYTE	W04
	BYTE		        111*vastsever8850_mvl/mxv
	BYTE	W03
	BYTE		        112*vastsever8850_mvl/mxv
	BYTE	W03
	BYTE		        113*vastsever8850_mvl/mxv
	BYTE	W03
	BYTE		        114*vastsever8850_mvl/mxv
	BYTE	W11
	BYTE		        115*vastsever8850_mvl/mxv
	BYTE	W13
// 071   ----------------------------------------
	BYTE	W09
	BYTE		        114*vastsever8850_mvl/mxv
	BYTE	W03
	BYTE		        113*vastsever8850_mvl/mxv
	BYTE	W02
	BYTE		        112*vastsever8850_mvl/mxv
	BYTE	W02
	BYTE		        111*vastsever8850_mvl/mxv
	BYTE	W02
	BYTE		        110*vastsever8850_mvl/mxv
	BYTE	W03
	BYTE		        109*vastsever8850_mvl/mxv
	BYTE	W02
	BYTE		        108*vastsever8850_mvl/mxv
	BYTE	W02
	BYTE		        107*vastsever8850_mvl/mxv
	BYTE	W02
	BYTE		        106*vastsever8850_mvl/mxv
	BYTE	W02
	BYTE		        105*vastsever8850_mvl/mxv
	BYTE	W02
	BYTE		        104*vastsever8850_mvl/mxv
	BYTE	W02
	BYTE		        103*vastsever8850_mvl/mxv
	BYTE	W03
	BYTE		        102*vastsever8850_mvl/mxv
	BYTE	W02
	BYTE		        100*vastsever8850_mvl/mxv
	BYTE	W01
	BYTE		        99*vastsever8850_mvl/mxv
	BYTE	W01
	BYTE		        98*vastsever8850_mvl/mxv
	BYTE	W02
	BYTE		        97*vastsever8850_mvl/mxv
	BYTE	W01
	BYTE		        96*vastsever8850_mvl/mxv
	BYTE	W01
	BYTE		MOD     126
	BYTE		VOL     95*vastsever8850_mvl/mxv
	BYTE	W01
	BYTE		MOD     122
	BYTE		VOL     94*vastsever8850_mvl/mxv
	BYTE	W01
	BYTE		MOD     120
	BYTE		VOL     93*vastsever8850_mvl/mxv
	BYTE	W01
	BYTE		MOD     119
	BYTE	W01
	BYTE		        117
	BYTE		VOL     92*vastsever8850_mvl/mxv
	BYTE		MOD     115
	BYTE		VOL     91*vastsever8850_mvl/mxv
	BYTE	W01
	BYTE		MOD     113
	BYTE	W01
	BYTE		        111
	BYTE		VOL     90*vastsever8850_mvl/mxv
	BYTE	W01
	BYTE		MOD     110
	BYTE		VOL     89*vastsever8850_mvl/mxv
	BYTE		MOD     108
	BYTE	W01
	BYTE		        106
	BYTE		VOL     88*vastsever8850_mvl/mxv
	BYTE	W01
	BYTE		MOD     104
	BYTE		VOL     87*vastsever8850_mvl/mxv
	BYTE	W01
	BYTE		MOD     101
	BYTE		VOL     86*vastsever8850_mvl/mxv
	BYTE	W01
	BYTE		MOD     99
	BYTE		VOL     85*vastsever8850_mvl/mxv
	BYTE	W01
	BYTE		MOD     97
	BYTE	W01
	BYTE		        95
	BYTE		VOL     84*vastsever8850_mvl/mxv
	BYTE		MOD     94
	BYTE	W01
	BYTE		        92
	BYTE	W01
	BYTE		        90
	BYTE		VOL     83*vastsever8850_mvl/mxv
	BYTE	W01
	BYTE		MOD     87
	BYTE		VOL     82*vastsever8850_mvl/mxv
	BYTE	W01
	BYTE		MOD     85
	BYTE	W01
	BYTE		        83
	BYTE	W01
	BYTE		        81
	BYTE		VOL     81*vastsever8850_mvl/mxv
	BYTE		MOD     79
	BYTE	W01
	BYTE		        78
	BYTE		VOL     80*vastsever8850_mvl/mxv
	BYTE	W01
	BYTE		MOD     76
	BYTE	W01
	BYTE		        72
	BYTE		VOL     79*vastsever8850_mvl/mxv
	BYTE	W01
	BYTE		MOD     71
	BYTE	W01
	BYTE		        69
	BYTE		VOL     78*vastsever8850_mvl/mxv
	BYTE	W01
	BYTE		MOD     65
	BYTE	W01
	BYTE		        63
	BYTE		VOL     77*vastsever8850_mvl/mxv
	BYTE	W01
	BYTE		MOD     62
	BYTE	W01
	BYTE		        60
	BYTE		VOL     76*vastsever8850_mvl/mxv
	BYTE		MOD     58
	BYTE	W01
	BYTE		        56
	BYTE	W01
	BYTE		        55
	BYTE		VOL     75*vastsever8850_mvl/mxv
	BYTE	W01
	BYTE		MOD     51
	BYTE		VOL     74*vastsever8850_mvl/mxv
	BYTE	W01
	BYTE		MOD     49
	BYTE	W01
	BYTE		        47
	BYTE	W01
	BYTE		        46
	BYTE		VOL     73*vastsever8850_mvl/mxv
	BYTE		MOD     44
	BYTE	W01
	BYTE		        42
	BYTE	W01
	BYTE		        40
	BYTE		VOL     72*vastsever8850_mvl/mxv
	BYTE	W01
	BYTE		MOD     37
	BYTE		VOL     71*vastsever8850_mvl/mxv
	BYTE	W01
	BYTE		MOD     35
	BYTE	W01
	BYTE		        33
	BYTE	W01
	BYTE		        31
	BYTE		VOL     70*vastsever8850_mvl/mxv
	BYTE		MOD     30
	BYTE	W01
	BYTE		        28
	BYTE		VOL     69*vastsever8850_mvl/mxv
	BYTE	W01
	BYTE		MOD     26
	BYTE	W01
	BYTE		        23
	BYTE		VOL     68*vastsever8850_mvl/mxv
	BYTE	W01
	BYTE		MOD     21
	BYTE	W01
	BYTE		        19
	BYTE		VOL     67*vastsever8850_mvl/mxv
	BYTE	W01
	BYTE		MOD     15
	BYTE	W01
	BYTE		        14
	BYTE		VOL     66*vastsever8850_mvl/mxv
	BYTE	W01
	BYTE		MOD     12
	BYTE	W01
	BYTE		        10
	BYTE		VOL     65*vastsever8850_mvl/mxv
	BYTE		MOD     8
	BYTE	W01
	BYTE		        7
	BYTE	W01
	BYTE		        5
	BYTE		VOL     64*vastsever8850_mvl/mxv
	BYTE	W01
// 072   ----------------------------------------
	BYTE		MOD     0
	BYTE		VOL     63*vastsever8850_mvl/mxv
	BYTE	W03
	BYTE		        62*vastsever8850_mvl/mxv
	BYTE	W01
	BYTE		        61*vastsever8850_mvl/mxv
	BYTE	W02
	BYTE		        60*vastsever8850_mvl/mxv
	BYTE	W02
	BYTE		        59*vastsever8850_mvl/mxv
	BYTE	W02
	BYTE		        58*vastsever8850_mvl/mxv
	BYTE	W02
	BYTE		        57*vastsever8850_mvl/mxv
	BYTE	W02
	BYTE		        56*vastsever8850_mvl/mxv
	BYTE	W01
	BYTE		        55*vastsever8850_mvl/mxv
	BYTE	W03
	BYTE		        54*vastsever8850_mvl/mxv
	BYTE	W01
	BYTE		        53*vastsever8850_mvl/mxv
	BYTE	W02
	BYTE		        52*vastsever8850_mvl/mxv
	BYTE	W02
	BYTE		        51*vastsever8850_mvl/mxv
	BYTE	W02
	BYTE		        50*vastsever8850_mvl/mxv
	BYTE	W02
	BYTE		        49*vastsever8850_mvl/mxv
	BYTE	W02
	BYTE		        48*vastsever8850_mvl/mxv
	BYTE	W01
	BYTE		        47*vastsever8850_mvl/mxv
	BYTE	W03
	BYTE		        46*vastsever8850_mvl/mxv
	BYTE	W01
	BYTE		        45*vastsever8850_mvl/mxv
	BYTE	W02
	BYTE		        44*vastsever8850_mvl/mxv
	BYTE	W02
	BYTE		        43*vastsever8850_mvl/mxv
	BYTE	W02
	BYTE		        42*vastsever8850_mvl/mxv
	BYTE	W02
	BYTE		        41*vastsever8850_mvl/mxv
	BYTE	W02
	BYTE		        40*vastsever8850_mvl/mxv
	BYTE	W01
	BYTE		        39*vastsever8850_mvl/mxv
	BYTE	W02
	BYTE		EOT   
	BYTE	W01
	BYTE		VOL     38*vastsever8850_mvl/mxv
	BYTE	W01
	BYTE		        37*vastsever8850_mvl/mxv
	BYTE	W44
	BYTE	W03
// 073   ----------------------------------------
	BYTE	W92
	BYTE	W02
	BYTE		        120*vastsever8850_mvl/mxv
	BYTE	W02
// 074   ----------------------------------------
	BYTE	W96
// 075   ----------------------------------------
	BYTE	W96
// 076   ----------------------------------------
	BYTE	W96
// 077   ----------------------------------------
	BYTE	W96
// 078   ----------------------------------------
	BYTE	W96
// 079   ----------------------------------------
	BYTE	W96
// 080   ----------------------------------------
	BYTE	W96
// 081   ----------------------------------------
	BYTE	W96
// 082   ----------------------------------------
	BYTE	W96
// 083   ----------------------------------------
	BYTE	W96
// 084   ----------------------------------------
	BYTE	W96
// 085   ----------------------------------------
	BYTE	W96
// 086   ----------------------------------------
	BYTE	W96
// 087   ----------------------------------------
	BYTE	W96
// 088   ----------------------------------------
	BYTE	W96
// 089   ----------------------------------------
	BYTE	W96
// 090   ----------------------------------------
	BYTE	W96
// 091   ----------------------------------------
	BYTE	W96
// 092   ----------------------------------------
	BYTE	W96
// 093   ----------------------------------------
	BYTE	PATT
	 POIN2	vastsever8850_3_033
// 094   ----------------------------------------
	BYTE	PATT
	 POIN2	vastsever8850_3_034
// 095   ----------------------------------------
	BYTE	PATT
	 POIN2	vastsever8850_3_035
// 096   ----------------------------------------
	BYTE	PATT
	 POIN2	vastsever8850_3_036
// 097   ----------------------------------------
	BYTE	PATT
	 POIN2	vastsever8850_3_037
// 098   ----------------------------------------
	BYTE	PATT
	 POIN2	vastsever8850_3_038
// 099   ----------------------------------------
	BYTE	PATT
	 POIN2	vastsever8850_3_039
// 100   ----------------------------------------
	BYTE	PATT
	 POIN2	vastsever8850_3_040
// 101   ----------------------------------------
	BYTE	PATT
	 POIN2	vastsever8850_3_041
// 102   ----------------------------------------
	BYTE	PATT
	 POIN2	vastsever8850_3_042
// 103   ----------------------------------------
	BYTE	PATT
	 POIN2	vastsever8850_3_043
// 104   ----------------------------------------
	BYTE		N68     En4   v112
	BYTE	W22
	BYTE		MOD     5
	BYTE	W01
	BYTE		        10
	BYTE	W01
	BYTE		        20
	BYTE	W01
	BYTE		        25
	BYTE	W01
	BYTE		        30
	BYTE	W01
	BYTE		        40
	BYTE	W01
	BYTE		        46
	BYTE	W01
	BYTE		        51
	BYTE	W01
	BYTE		        61
	BYTE	W01
	BYTE		        66
	BYTE	W01
	BYTE		        71
	BYTE	W01
	BYTE		        79
	BYTE	W36
	BYTE		        0
	BYTE	W03
	BYTE		N11     As4   v108
	BYTE	W12
	BYTE		TIE     An4   v100
	BYTE	W12
// 105   ----------------------------------------
	BYTE	W02
	BYTE		MOD     6
	BYTE	W01
	BYTE		        18
	BYTE	W01
	BYTE		        23
	BYTE	W01
	BYTE		        29
	BYTE	W01
	BYTE		        41
	BYTE	W01
	BYTE		        47
	BYTE	W01
	BYTE		        52
	BYTE	W01
	BYTE		        64
	BYTE	W01
	BYTE		        70
	BYTE	W01
	BYTE		        75
	BYTE	W01
	BYTE		        87
	BYTE	W01
	BYTE		        92
	BYTE	W76
	BYTE		EOT   
	BYTE	W04
	BYTE		MOD     0
	BYTE	W03
// 106   ----------------------------------------
	BYTE	W96
// 107   ----------------------------------------
	BYTE	W96
// 108   ----------------------------------------
	BYTE	W96
// 109   ----------------------------------------
	BYTE	W96
// 110   ----------------------------------------
	BYTE	W96
// 111   ----------------------------------------
	BYTE	W96
// 112   ----------------------------------------
	BYTE	W96
// 113   ----------------------------------------
	BYTE	W96
// 114   ----------------------------------------
	BYTE	W96
// 115   ----------------------------------------
	BYTE	W96
// 116   ----------------------------------------
	BYTE	W96
// 117   ----------------------------------------
	BYTE	W96
// 118   ----------------------------------------
	BYTE	W96
// 119   ----------------------------------------
	BYTE	W96
// 120   ----------------------------------------
	BYTE	W96
// 121   ----------------------------------------
	BYTE	W96
// 122   ----------------------------------------
	BYTE	W96
// 123   ----------------------------------------
	BYTE	W96
// 124   ----------------------------------------
	BYTE	W96
// 125   ----------------------------------------
	BYTE	W96
// 126   ----------------------------------------
	BYTE	W96
// 127   ----------------------------------------
	BYTE	W96
// 128   ----------------------------------------
	BYTE	W96
// 129   ----------------------------------------
	BYTE	W96
// 130   ----------------------------------------
	BYTE		N32     An4   v108
	BYTE	W36
	BYTE		N05     Fn4 
	BYTE	W06
	BYTE		        Gn4   v112
	BYTE	W06
	BYTE		N28     An4   v108
	BYTE	W30
	BYTE		N05     Dn4 
	BYTE	W06
	BYTE		        Fn4   v096
	BYTE	W06
	BYTE		        Gn4   v112
	BYTE	W06
// 131   ----------------------------------------
	BYTE		N23     An4   v108
	BYTE	W24
	BYTE		N05     An3 
	BYTE	W06
	BYTE		        Dn4   v112
	BYTE	W06
	BYTE		        Fn4   v100
	BYTE	W06
	BYTE		        Gn4   v108
	BYTE	W06
	BYTE		N22     An4   v116
	BYTE	W24
	BYTE		N05     Fn4   v108
	BYTE	W06
	BYTE		        Cn5   v084
	BYTE	W06
	BYTE		        As4   v108
	BYTE	W06
	BYTE		        Gn4   v096
	BYTE	W06
// 132   ----------------------------------------
	BYTE		N07     An4   v108
	BYTE	W08
	BYTE		        Gn4   v088
	BYTE	W08
	BYTE		        Fn4   v108
	BYTE	W08
	BYTE		        En4   v092
	BYTE	W08
	BYTE		        Dn4   v100
	BYTE	W08
	BYTE		        En4   v108
	BYTE	W08
	BYTE		N15     Fn4   v116
	BYTE	W16
	BYTE		        An4   v092
	BYTE	W16
	BYTE		N07     Gn4   v108
	BYTE	W08
	BYTE		        As4   v116
	BYTE	W08
// 133   ----------------------------------------
	BYTE		N14     An4   v108
	BYTE	W16
	BYTE		N15     Fn4 
	BYTE	W16
	BYTE		        Gn4   v096
	BYTE	W16
	BYTE		        En4   v108
	BYTE	W16
	BYTE		        Dn4 
	BYTE	W16
	BYTE		        Cs4   v092
	BYTE	W16
// 134   ----------------------------------------
	BYTE		N06     As3 
	BYTE	W06
	BYTE		        An3   v108
	BYTE	W06
	BYTE		        En3   v096
	BYTE	W06
	BYTE		        Cn4   v108
	BYTE	W06
	BYTE		        An3 
	BYTE	W06
	BYTE		        Fn3   v096
	BYTE	W06
	BYTE		        Dn4   v108
	BYTE	W06
	BYTE		        An3   v092
	BYTE	W06
	BYTE		        Fn3   v108
	BYTE	W06
	BYTE		        An3   v084
	BYTE	W06
	BYTE		        Dn4   v096
	BYTE	W06
	BYTE		        Fs4   v108
	BYTE	W06
	BYTE		        Fn4   v096
	BYTE	W06
	BYTE		        Gs4   v108
	BYTE	W06
	BYTE		        Bn4   v080
	BYTE	W06
	BYTE		        As4   v092
	BYTE	W06
// 135   ----------------------------------------
	BYTE		        Fn4   v108
	BYTE	W06
	BYTE		        Cs5   v096
	BYTE	W06
	BYTE		        Cn5   v100
	BYTE	W06
	BYTE		        Bn4   v108
	BYTE	W06
	BYTE		        As4   v092
	BYTE	W06
	BYTE		        An4   v084
	BYTE	W06
	BYTE		        Gn4   v108
	BYTE	W05
	BYTE		        En4 
	BYTE	W07
	BYTE		        An4 
	BYTE	W06
	BYTE		        Gn4   v096
	BYTE	W06
	BYTE		        Fn4   v108
	BYTE	W06
	BYTE		        En4   v116
	BYTE	W06
	BYTE		        Cs4   v088
	BYTE	W06
	BYTE		        Fn4   v100
	BYTE	W05
	BYTE		        Gn4   v120
	BYTE	W07
	BYTE		        As4   v112
	BYTE	W06
// 136   ----------------------------------------
	BYTE		N05     An4 
	BYTE	W06
	BYTE		N11     An4   v116
	BYTE	W12
	BYTE		N05     Gn4   v112
	BYTE	W06
	BYTE		N11     Gn4   v108
	BYTE	W12
	BYTE		N05     Fn4   v112
	BYTE	W06
	BYTE		N11     Fn4   v108
	BYTE	W12
	BYTE		N05     En4   v116
	BYTE	W06
	BYTE		N11     En4   v096
	BYTE	W12
	BYTE		N05     Dn4   v108
	BYTE	W06
	BYTE		N11     Dn4   v116
	BYTE	W12
	BYTE		N05     Cs4   v108
	BYTE	W06
// 137   ----------------------------------------
	BYTE		        An3 
	BYTE	W06
	BYTE		        En3 
	BYTE	W06
	BYTE		        Gn3   v116
	BYTE	W06
	BYTE		        Dn4   v108
	BYTE	W06
	BYTE		        Cn4   v124
	BYTE	W06
	BYTE		        Gn4   v112
	BYTE	W06
	BYTE		        Dn4   v124
	BYTE	W06
	BYTE		        Ds4   v120
	BYTE	W06
	BYTE		N11     En4   v116
	BYTE	W03
	BYTE		VOL     120*vastsever8850_mvl/mxv
	BYTE	W09
	BYTE		N05     Cn4   v120
	BYTE	W06
	BYTE		        Gn4 
	BYTE	W06
	BYTE		N14     Cn5   v116
	BYTE	W01
	BYTE		MOD     0
	BYTE	W15
	BYTE		N04     Bn4   v120
	BYTE	W04
	BYTE		N03     As4 
	BYTE	W04
// 138   ----------------------------------------
	BYTE		TIE     An4   v116
	BYTE	W10
	BYTE		VOL     119*vastsever8850_mvl/mxv
	BYTE	W02
	BYTE		        117*vastsever8850_mvl/mxv
	BYTE	W01
	BYTE		        116*vastsever8850_mvl/mxv
	BYTE	W02
	BYTE		        114*vastsever8850_mvl/mxv
	BYTE	W01
	BYTE		        113*vastsever8850_mvl/mxv
	BYTE	W02
	BYTE		        111*vastsever8850_mvl/mxv
	BYTE	W01
	BYTE		        110*vastsever8850_mvl/mxv
	BYTE	W01
	BYTE		        109*vastsever8850_mvl/mxv
	BYTE	W01
	BYTE		        108*vastsever8850_mvl/mxv
	BYTE	W01
	BYTE		        107*vastsever8850_mvl/mxv
	BYTE	W01
	BYTE		        106*vastsever8850_mvl/mxv
	BYTE	W01
	BYTE		        105*vastsever8850_mvl/mxv
	BYTE	W01
	BYTE		        104*vastsever8850_mvl/mxv
	BYTE	W01
	BYTE		MOD     7
	BYTE		VOL     103*vastsever8850_mvl/mxv
	BYTE	W01
	BYTE		MOD     20
	BYTE		VOL     102*vastsever8850_mvl/mxv
	BYTE	W01
	BYTE		MOD     27
	BYTE		VOL     101*vastsever8850_mvl/mxv
	BYTE	W01
	BYTE		MOD     33
	BYTE		VOL     100*vastsever8850_mvl/mxv
	BYTE	W01
	BYTE		MOD     40
	BYTE		VOL     99*vastsever8850_mvl/mxv
	BYTE		MOD     46
	BYTE	W01
	BYTE		        53
	BYTE		VOL     98*vastsever8850_mvl/mxv
	BYTE	W01
	BYTE		MOD     60
	BYTE		VOL     97*vastsever8850_mvl/mxv
	BYTE	W01
	BYTE		MOD     66
	BYTE		VOL     96*vastsever8850_mvl/mxv
	BYTE		MOD     73
	BYTE	W01
	BYTE		        79
	BYTE		VOL     97*vastsever8850_mvl/mxv
	BYTE	W01
	BYTE		MOD     86
	BYTE	W01
	BYTE		        99
	BYTE	W01
	BYTE		        106
	BYTE	W01
	BYTE		        112
	BYTE		VOL     98*vastsever8850_mvl/mxv
	BYTE	W01
	BYTE		MOD     127
	BYTE	W03
	BYTE		VOL     99*vastsever8850_mvl/mxv
	BYTE	W03
	BYTE		        100*vastsever8850_mvl/mxv
	BYTE	W03
	BYTE		        101*vastsever8850_mvl/mxv
	BYTE	W04
	BYTE		        102*vastsever8850_mvl/mxv
	BYTE	W04
	BYTE		        103*vastsever8850_mvl/mxv
	BYTE	W04
	BYTE		        104*vastsever8850_mvl/mxv
	BYTE	W03
	BYTE		        105*vastsever8850_mvl/mxv
	BYTE	W03
	BYTE		        106*vastsever8850_mvl/mxv
	BYTE	W04
	BYTE		        107*vastsever8850_mvl/mxv
	BYTE	W04
	BYTE		        108*vastsever8850_mvl/mxv
	BYTE	W03
	BYTE		        109*vastsever8850_mvl/mxv
	BYTE	W04
	BYTE		        110*vastsever8850_mvl/mxv
	BYTE	W03
	BYTE		        111*vastsever8850_mvl/mxv
	BYTE	W04
	BYTE		        112*vastsever8850_mvl/mxv
	BYTE	W03
	BYTE		        113*vastsever8850_mvl/mxv
	BYTE	W04
	BYTE		        114*vastsever8850_mvl/mxv
	BYTE	W01
// 139   ----------------------------------------
	BYTE	W03
	BYTE		        115*vastsever8850_mvl/mxv
	BYTE	W03
	BYTE		        116*vastsever8850_mvl/mxv
	BYTE	W03
	BYTE		        117*vastsever8850_mvl/mxv
	BYTE	W14
	BYTE		MOD     125
	BYTE	W01
	BYTE		        121
	BYTE	W01
	BYTE		        118
	BYTE	W01
	BYTE		        116
	BYTE	W01
	BYTE		        112
	BYTE	W01
	BYTE		        110
	BYTE	W01
	BYTE		        107
	BYTE	W01
	BYTE		        103
	BYTE	W01
	BYTE		        101
	BYTE	W01
	BYTE		        99
	BYTE	W01
	BYTE		        94
	BYTE	W01
	BYTE		        92
	BYTE	W01
	BYTE		        90
	BYTE	W01
	BYTE		        85
	BYTE	W01
	BYTE		        83
	BYTE	W01
	BYTE		        81
	BYTE	W01
	BYTE		VOL     116*vastsever8850_mvl/mxv
	BYTE		MOD     77
	BYTE	W01
	BYTE		VOL     115*vastsever8850_mvl/mxv
	BYTE		MOD     74
	BYTE	W01
	BYTE		VOL     114*vastsever8850_mvl/mxv
	BYTE		MOD     72
	BYTE	W01
	BYTE		        70
	BYTE		VOL     113*vastsever8850_mvl/mxv
	BYTE		MOD     68
	BYTE	W01
	BYTE		        66
	BYTE	W01
	BYTE		VOL     112*vastsever8850_mvl/mxv
	BYTE		MOD     63
	BYTE	W01
	BYTE		VOL     111*vastsever8850_mvl/mxv
	BYTE		MOD     59
	BYTE	W01
	BYTE		VOL     110*vastsever8850_mvl/mxv
	BYTE		MOD     57
	BYTE	W01
	BYTE		VOL     109*vastsever8850_mvl/mxv
	BYTE		MOD     55
	BYTE	W01
	BYTE		        52
	BYTE		VOL     108*vastsever8850_mvl/mxv
	BYTE		MOD     50
	BYTE	W01
	BYTE		VOL     107*vastsever8850_mvl/mxv
	BYTE		MOD     48
	BYTE	W01
	BYTE		        46
	BYTE	W01
	BYTE		VOL     106*vastsever8850_mvl/mxv
	BYTE		MOD     41
	BYTE	W01
	BYTE		VOL     105*vastsever8850_mvl/mxv
	BYTE		MOD     39
	BYTE	W01
	BYTE		VOL     104*vastsever8850_mvl/mxv
	BYTE		MOD     37
	BYTE	W01
	BYTE		        35
	BYTE		VOL     103*vastsever8850_mvl/mxv
	BYTE		MOD     33
	BYTE	W01
	BYTE		VOL     102*vastsever8850_mvl/mxv
	BYTE		MOD     30
	BYTE	W01
	BYTE		        28
	BYTE	W01
	BYTE		VOL     101*vastsever8850_mvl/mxv
	BYTE		MOD     24
	BYTE	W01
	BYTE		VOL     100*vastsever8850_mvl/mxv
	BYTE		MOD     22
	BYTE	W01
	BYTE		VOL     99*vastsever8850_mvl/mxv
	BYTE		MOD     19
	BYTE	W01
	BYTE		        17
	BYTE		VOL     98*vastsever8850_mvl/mxv
	BYTE		MOD     15
	BYTE	W01
	BYTE		VOL     97*vastsever8850_mvl/mxv
	BYTE		MOD     13
	BYTE	W01
	BYTE		        11
	BYTE	W01
	BYTE		VOL     96*vastsever8850_mvl/mxv
	BYTE		MOD     8
	BYTE		VOL     95*vastsever8850_mvl/mxv
	BYTE		MOD     6
	BYTE	W01
	BYTE		        4
	BYTE	W01
	BYTE		VOL     94*vastsever8850_mvl/mxv
	BYTE		MOD     0
	BYTE	W01
	BYTE		VOL     93*vastsever8850_mvl/mxv
	BYTE	W01
	BYTE		        92*vastsever8850_mvl/mxv
	BYTE	W02
	BYTE		        90*vastsever8850_mvl/mxv
	BYTE	W02
	BYTE		        89*vastsever8850_mvl/mxv
	BYTE	W01
	BYTE		        88*vastsever8850_mvl/mxv
	BYTE	W01
	BYTE		        87*vastsever8850_mvl/mxv
	BYTE	W02
	BYTE		        85*vastsever8850_mvl/mxv
	BYTE	W02
	BYTE		        84*vastsever8850_mvl/mxv
	BYTE	W01
	BYTE		        83*vastsever8850_mvl/mxv
	BYTE	W01
	BYTE		        82*vastsever8850_mvl/mxv
	BYTE	W02
	BYTE		        80*vastsever8850_mvl/mxv
	BYTE	W02
	BYTE		        79*vastsever8850_mvl/mxv
	BYTE	W01
	BYTE		        78*vastsever8850_mvl/mxv
	BYTE	W01
	BYTE		        77*vastsever8850_mvl/mxv
	BYTE	W02
	BYTE		        75*vastsever8850_mvl/mxv
	BYTE	W02
	BYTE		        74*vastsever8850_mvl/mxv
	BYTE	W01
	BYTE		        73*vastsever8850_mvl/mxv
	BYTE	W01
	BYTE		        72*vastsever8850_mvl/mxv
	BYTE	W01
	BYTE		        71*vastsever8850_mvl/mxv
	BYTE	W01
	BYTE		        70*vastsever8850_mvl/mxv
	BYTE	W02
	BYTE		EOT   
	BYTE		VOL     69*vastsever8850_mvl/mxv
	BYTE	W01
// 140   ----------------------------------------
	BYTE		        68*vastsever8850_mvl/mxv
	BYTE	W01
	BYTE		        67*vastsever8850_mvl/mxv
	BYTE	W01
	BYTE		        66*vastsever8850_mvl/mxv
	BYTE	W01
	BYTE		        65*vastsever8850_mvl/mxv
	BYTE	W02
	BYTE		        64*vastsever8850_mvl/mxv
	BYTE	W01
	BYTE		        63*vastsever8850_mvl/mxv
	BYTE	W01
	BYTE		        62*vastsever8850_mvl/mxv
	BYTE	W01
	BYTE		        61*vastsever8850_mvl/mxv
	BYTE	W01
	BYTE		        60*vastsever8850_mvl/mxv
	BYTE	W01
	BYTE		        59*vastsever8850_mvl/mxv
	BYTE	W02
	BYTE		        58*vastsever8850_mvl/mxv
	BYTE	W01
	BYTE		        57*vastsever8850_mvl/mxv
	BYTE	W01
	BYTE		        56*vastsever8850_mvl/mxv
	BYTE	W01
	BYTE		        55*vastsever8850_mvl/mxv
	BYTE	W01
	BYTE		        54*vastsever8850_mvl/mxv
	BYTE	W02
	BYTE		        53*vastsever8850_mvl/mxv
	BYTE	W01
	BYTE		        52*vastsever8850_mvl/mxv
	BYTE	W01
	BYTE		        51*vastsever8850_mvl/mxv
	BYTE	W01
	BYTE		        50*vastsever8850_mvl/mxv
	BYTE	W01
	BYTE		        49*vastsever8850_mvl/mxv
	BYTE	W72
	BYTE	W02
// 141   ----------------------------------------
	BYTE	W96
// 142   ----------------------------------------
	BYTE	W96
// 143   ----------------------------------------
	BYTE	W96
// 144   ----------------------------------------
	BYTE	W96
// 145   ----------------------------------------
	BYTE	W96
// 146   ----------------------------------------
	BYTE	W96
// 147   ----------------------------------------
	BYTE	W96
// 148   ----------------------------------------
	BYTE	W96
// 149   ----------------------------------------
	BYTE	W96
// 150   ----------------------------------------
	BYTE	W96
// 151   ----------------------------------------
	BYTE	W96
// 152   ----------------------------------------
	BYTE	W96
// 153   ----------------------------------------
	BYTE	W96
// 154   ----------------------------------------
	BYTE	W96
// 155   ----------------------------------------
	BYTE	W96
// 156   ----------------------------------------
	BYTE	W96
// 157   ----------------------------------------
	BYTE	W96
// 158   ----------------------------------------
	BYTE	W96
// 159   ----------------------------------------
	BYTE	W96
// 160   ----------------------------------------
	BYTE	W96
// 161   ----------------------------------------
	BYTE	W96
// 162   ----------------------------------------
	BYTE	W96
// 163   ----------------------------------------
	BYTE	FINE

//**************** Track 4 (Midi-Chn.4) ****************//

vastsever8850_4:
	BYTE	KEYSH   vastsever8850_key+0
// 000   ----------------------------------------
	BYTE	W96
// 001   ----------------------------------------
	BYTE		VOICE   2
	BYTE		VOL     80*vastsever8850_mvl/mxv
	BYTE		PAN     c_v+0
	BYTE	W48
	BYTE		MOD     0
	BYTE		BEND    c_v+0
	BYTE	W24
	BYTE	W06
	BYTE	W06
	BYTE	W06
	BYTE	W06
// 002   ----------------------------------------
vastsever8850_4_002:
	BYTE		N92     An3   v112
	BYTE		N92     Dn5 
	BYTE	W03
	BYTE		N90     Fn5 
	BYTE	W03
	BYTE		N88     An5 
	BYTE	W90
	BYTE	PEND
// 003   ----------------------------------------
vastsever8850_4_003:
	BYTE		N92     Gn3   v112
	BYTE		N92     Cn5 
	BYTE	W03
	BYTE		N90     En5 
	BYTE	W03
	BYTE		N88     An5 
	BYTE	W90
	BYTE	PEND
// 004   ----------------------------------------
	BYTE	PATT
	 POIN2	vastsever8850_4_002
// 005   ----------------------------------------
vastsever8850_4_005:
	BYTE		N92     An3   v112
	BYTE		N92     Cs5 
	BYTE	W03
	BYTE		N90     En5 
	BYTE	W03
	BYTE		N88     An5 
	BYTE	W90
	BYTE	PEND
// 006   ----------------------------------------
	BYTE	PATT
	 POIN2	vastsever8850_4_002
// 007   ----------------------------------------
	BYTE	PATT
	 POIN2	vastsever8850_4_003
// 008   ----------------------------------------
	BYTE	PATT
	 POIN2	vastsever8850_4_002
// 009   ----------------------------------------
	BYTE	PATT
	 POIN2	vastsever8850_4_005
// 010   ----------------------------------------
vastsever8850_4_010:
	BYTE		N92     An3   v112
	BYTE		N92     Dn4 
	BYTE		N92     Fn4 
	BYTE		N92     An4 
	BYTE	W96
	BYTE	PEND
// 011   ----------------------------------------
vastsever8850_4_011:
	BYTE		N92     Gn3   v112
	BYTE		N92     Cn4 
	BYTE		N92     En4 
	BYTE		N92     An4 
	BYTE	W96
	BYTE	PEND
// 012   ----------------------------------------
	BYTE	PATT
	 POIN2	vastsever8850_4_010
// 013   ----------------------------------------
	BYTE		N92     An3   v112
	BYTE		N92     Cs4 
	BYTE		N92     En4 
	BYTE		N92     An4 
	BYTE	W96
// 014   ----------------------------------------
	BYTE	PATT
	 POIN2	vastsever8850_4_010
// 015   ----------------------------------------
	BYTE	PATT
	 POIN2	vastsever8850_4_011
// 016   ----------------------------------------
	BYTE	PATT
	 POIN2	vastsever8850_4_010
// 017   ----------------------------------------
	BYTE		N10     An3   v112
	BYTE		N10     Cs4 
	BYTE		N10     En4 
	BYTE		N10     An4 
	BYTE	W48
	BYTE		N22     Dn3 
	BYTE		N22     Fn3 
	BYTE		N22     As3 
	BYTE		N22     Dn4 
	BYTE	W24
	BYTE		        En3 
	BYTE		N22     Gn3 
	BYTE		N22     Cn4 
	BYTE		N22     En4 
	BYTE	W24
// 018   ----------------------------------------
vastsever8850_4_018:
	BYTE		N32     Fn3   v112
	BYTE		N32     An3 
	BYTE		N32     Dn4 
	BYTE		N32     Fn4 
	BYTE	W36
	BYTE		N56     En3 
	BYTE		N56     Gn3 
	BYTE		N56     Cn4 
	BYTE		N56     En4 
	BYTE	W60
	BYTE	PEND
// 019   ----------------------------------------
vastsever8850_4_019:
	BYTE		N32     En3   v112
	BYTE		N32     Gn3 
	BYTE		N32     Cn4 
	BYTE		N32     En4 
	BYTE	W36
	BYTE		N56     Fn3 
	BYTE		N56     An3 
	BYTE		N56     Dn4 
	BYTE		N56     Fn4 
	BYTE	W60
	BYTE	PEND
// 020   ----------------------------------------
vastsever8850_4_020:
	BYTE		N32     En3   v112
	BYTE		N32     An3 
	BYTE		N32     Cn4 
	BYTE		N32     En4 
	BYTE	W36
	BYTE		N56     Cn3 
	BYTE		N56     En3 
	BYTE		N56     Gn3 
	BYTE		N56     Cn4 
	BYTE	W60
	BYTE	PEND
// 021   ----------------------------------------
vastsever8850_4_021:
	BYTE		N32     Dn3   v112
	BYTE		N32     Fn3 
	BYTE		N32     An3 
	BYTE		N32     Dn4 
	BYTE	W36
	BYTE		N56     Cn3 
	BYTE		N56     En3 
	BYTE		N56     Gn3 
	BYTE		N56     Cn4 
	BYTE	W60
	BYTE	PEND
// 022   ----------------------------------------
vastsever8850_4_022:
	BYTE		N32     As2   v112
	BYTE		N32     Dn3 
	BYTE		N32     Fn3 
	BYTE		N32     As3 
	BYTE	W36
	BYTE		N56     Cn3 
	BYTE		N56     En3 
	BYTE		N56     Gn3 
	BYTE		N56     Cn4 
	BYTE	W60
	BYTE	PEND
// 023   ----------------------------------------
vastsever8850_4_023:
	BYTE		N32     Dn3   v112
	BYTE		N32     Fn3 
	BYTE		N32     As3 
	BYTE		N32     Dn4 
	BYTE	W36
	BYTE		N56     En3 
	BYTE		N56     Gn3 
	BYTE		N56     Cn4 
	BYTE		N56     En4 
	BYTE	W60
	BYTE	PEND
// 024   ----------------------------------------
vastsever8850_4_024:
	BYTE		N32     Gn3   v112
	BYTE		N32     Cn4 
	BYTE		N32     En4 
	BYTE		N32     Gn4 
	BYTE	W36
	BYTE		N56     Fn3 
	BYTE		N56     As3 
	BYTE		N56     Dn4 
	BYTE		N56     Fn4 
	BYTE	W60
	BYTE	PEND
// 025   ----------------------------------------
vastsever8850_4_025:
	BYTE		N10     Gn3   v112
	BYTE		N10     Cn4 
	BYTE		N10     En4 
	BYTE		N10     Gn4 
	BYTE		N10     En5 
	BYTE		N10     Gn5 
	BYTE	W12
	BYTE		N22     Fn3 
	BYTE		N22     As3 
	BYTE		N22     Dn4 
	BYTE		N22     Fn4 
	BYTE		N22     Dn5 
	BYTE		N22     Fn5 
	BYTE	W24
	BYTE		        En3 
	BYTE		N22     An3 
	BYTE		N22     Cn4 
	BYTE		N22     En4 
	BYTE		N22     Cn5 
	BYTE		N22     En5 
	BYTE	W24
	BYTE		N10     Cs3 
	BYTE		N10     En3 
	BYTE		N10     An3 
	BYTE		N10     Cs4 
	BYTE		N10     An4 
	BYTE		N10     Cs5 
	BYTE	W12
	BYTE		        Dn3 
	BYTE		N10     Fn3 
	BYTE		N10     Bn3 
	BYTE		N10     Dn4 
	BYTE		N10     Bn4 
	BYTE	W12
	BYTE		        En3 
	BYTE		N10     Gn3 
	BYTE		N10     Cs4 
	BYTE		N10     En4 
	BYTE		N10     An4 
	BYTE		N10     Cs5 
	BYTE		N10     En5 
	BYTE	W12
	BYTE	PEND
// 026   ----------------------------------------
vastsever8850_4_026:
	BYTE		N32     Fn3   v112
	BYTE		N32     An3 
	BYTE		N32     Dn4 
	BYTE		N32     Fn4 
	BYTE		N32     Fn5 
	BYTE	W36
	BYTE		N56     En3 
	BYTE		N56     Gn3 
	BYTE		N56     Cn4 
	BYTE		N56     En4 
	BYTE		N21     En5 
	BYTE		N21     Gn5 
	BYTE	W24
	BYTE		N10     Dn5 
	BYTE	W12
	BYTE		        Fn5 
	BYTE	W12
	BYTE		        Gn5 
	BYTE	W12
	BYTE	PEND
// 027   ----------------------------------------
vastsever8850_4_027:
	BYTE		N32     En3   v112
	BYTE		N32     Gn3 
	BYTE		N32     Cn4 
	BYTE		N32     En4 
	BYTE		N10     An5 
	BYTE	W12
	BYTE		        Fn5 
	BYTE	W12
	BYTE		        Dn5 
	BYTE	W12
	BYTE		N56     Fn3 
	BYTE		N56     An3 
	BYTE		N56     Dn4 
	BYTE		N56     Fn4 
	BYTE		N21     Dn5 
	BYTE		N21     Fn5 
	BYTE	W24
	BYTE		N10     Dn5 
	BYTE	W12
	BYTE		        Fn5 
	BYTE	W12
	BYTE		        Dn5 
	BYTE	W12
	BYTE	PEND
// 028   ----------------------------------------
vastsever8850_4_028:
	BYTE		N32     En3   v112
	BYTE		N32     An3 
	BYTE		N32     Cn4 
	BYTE		N32     En4 
	BYTE		N10     En5 
	BYTE	W12
	BYTE		        Dn5 
	BYTE	W12
	BYTE		        Cn5 
	BYTE	W12
	BYTE		N56     Cn3 
	BYTE		N56     En3 
	BYTE		N56     Gn3 
	BYTE		N56     Cn4 
	BYTE		N21     Gn4 
	BYTE		N21     Cn5 
	BYTE	W24
	BYTE		N10     Fn4 
	BYTE	W12
	BYTE		        Cn5 
	BYTE	W12
	BYTE		        An4 
	BYTE	W12
	BYTE	PEND
// 029   ----------------------------------------
vastsever8850_4_029:
	BYTE		N32     Dn3   v112
	BYTE		N32     Fn3 
	BYTE		N32     An3 
	BYTE		N32     Dn4 
	BYTE		N10     Gn4 
	BYTE	W12
	BYTE		        Cn5 
	BYTE	W12
	BYTE		        Gn5 
	BYTE	W12
	BYTE		N56     En3 
	BYTE		N56     Gn3 
	BYTE		N56     Cn4 
	BYTE		N56     En4 
	BYTE		N21     Cn5 
	BYTE		N21     En5 
	BYTE	W24
	BYTE		N10     Cn5 
	BYTE	W12
	BYTE		        Fn5 
	BYTE	W12
	BYTE		        Gn5 
	BYTE	W12
	BYTE	PEND
// 030   ----------------------------------------
vastsever8850_4_030:
	BYTE		N32     Dn3   v112
	BYTE		N32     Fn3 
	BYTE		N32     As3 
	BYTE		N32     Dn4 
	BYTE		N10     Fn5 
	BYTE	W12
	BYTE		        En5 
	BYTE	W12
	BYTE		        Dn5 
	BYTE	W12
	BYTE		N56     Fn3 
	BYTE		N56     An3 
	BYTE		N56     Cn4 
	BYTE		N56     Fn4 
	BYTE		N21     An4 
	BYTE		N21     Cn5 
	BYTE	W24
	BYTE		N10     Fn5 
	BYTE	W12
	BYTE		        En5 
	BYTE	W12
	BYTE		        Dn5 
	BYTE	W12
	BYTE	PEND
// 031   ----------------------------------------
vastsever8850_4_031:
	BYTE		N32     Fn3   v112
	BYTE		N32     As3 
	BYTE		N32     Dn4 
	BYTE		N32     Fn4 
	BYTE		N10     Fn5 
	BYTE	W12
	BYTE		        Gn5 
	BYTE	W12
	BYTE		        An5 
	BYTE	W12
	BYTE		N56     Gn3 
	BYTE		N56     As3 
	BYTE		N56     Dn4 
	BYTE		N56     Gn4 
	BYTE		N21     Gn5 
	BYTE		N21     As5 
	BYTE	W24
	BYTE		N10     An5 
	BYTE	W12
	BYTE		        Gn5 
	BYTE	W12
	BYTE		        Fn5 
	BYTE	W12
	BYTE	PEND
// 032   ----------------------------------------
vastsever8850_4_032:
	BYTE		N32     Gn3   v112
	BYTE		N32     Cn4 
	BYTE		N32     En4 
	BYTE		N32     Gn4 
	BYTE		N10     En5 
	BYTE	W12
	BYTE		N21     Cn5 
	BYTE		N21     En5 
	BYTE	W24
	BYTE		N56     Fn3 
	BYTE		N56     As3 
	BYTE		N56     Dn4 
	BYTE		N56     Fn4 
	BYTE		N10     Fn5 
	BYTE	W12
	BYTE		N21     Dn5 
	BYTE		N21     Fn5 
	BYTE	W24
	BYTE		N10     As5 
	BYTE	W12
	BYTE		N21     Fn5 
	BYTE		N21     As5 
	BYTE	W12
	BYTE	PEND
// 033   ----------------------------------------
vastsever8850_4_033:
	BYTE		N32     Fn3   v112
	BYTE		N32     As3 
	BYTE		N32     Dn4 
	BYTE		N32     Fn4 
	BYTE	W12
	BYTE		N10     An5 
	BYTE	W12
	BYTE		        En5 
	BYTE	W12
	BYTE		N56     En3 
	BYTE		N56     An3 
	BYTE		N56     Cs4 
	BYTE		N56     En4 
	BYTE		N10     Cs5 
	BYTE		N10     En5 
	BYTE		N10     An5 
	BYTE	W12
	BYTE		        Cs5 
	BYTE		N10     En5 
	BYTE		N10     An5 
	BYTE	W12
	BYTE		        An4 
	BYTE		N10     Cs5 
	BYTE		N10     En5 
	BYTE	W12
	BYTE		N21     Cs5 
	BYTE		N21     En5 
	BYTE		N21     An5 
	BYTE	W24
	BYTE	PEND
// 034   ----------------------------------------
vastsever8850_4_034:
	BYTE		N04     Dn3   v112
	BYTE		N04     Fn3 
	BYTE		N04     As3 
	BYTE		N04     Dn4 
	BYTE		N04     Dn5 
	BYTE		N04     Fn5 
	BYTE		N04     As5 
	BYTE	W12
	BYTE		        Dn3 
	BYTE		N04     Fn3 
	BYTE		N04     As3 
	BYTE		N04     Dn4 
	BYTE	W12
	BYTE		        Dn3 
	BYTE		N04     Fn3 
	BYTE		N04     As3 
	BYTE		N04     Dn4 
	BYTE	W12
	BYTE		        En3 
	BYTE		N04     Gn3 
	BYTE		N04     Cn4 
	BYTE		N04     En4 
	BYTE		N04     Cn5 
	BYTE		N04     En5 
	BYTE		N04     Gn5 
	BYTE	W12
	BYTE		        En3 
	BYTE		N04     Gn3 
	BYTE		N04     Cn4 
	BYTE		N04     En4 
	BYTE	W12
	BYTE		        Cn3 
	BYTE		N04     En3 
	BYTE		N04     Gn3 
	BYTE		N04     Cn4 
	BYTE	W12
	BYTE		        En3 
	BYTE		N04     Gn3 
	BYTE		N04     Cn4 
	BYTE		N04     En4 
	BYTE		N04     Cn5 
	BYTE		N04     En5 
	BYTE		N04     Gn5 
	BYTE	W12
	BYTE		        En3 
	BYTE		N04     Gn3 
	BYTE		N04     Cn4 
	BYTE		N04     En4 
	BYTE	W12
	BYTE	PEND
// 035   ----------------------------------------
vastsever8850_4_035:
	BYTE		N04     En3   v112
	BYTE		N04     Gn3 
	BYTE		N04     Cn4 
	BYTE		N04     En4 
	BYTE		N04     Cn5 
	BYTE		N04     En5 
	BYTE		N04     Gn5 
	BYTE	W12
	BYTE		        En3 
	BYTE		N04     Gn3 
	BYTE		N04     Cn4 
	BYTE		N04     En4 
	BYTE	W12
	BYTE		        En3 
	BYTE		N04     Gn3 
	BYTE		N04     Cn4 
	BYTE		N04     En4 
	BYTE	W12
	BYTE		        Fn3 
	BYTE		N04     An3 
	BYTE		N04     Dn4 
	BYTE		N04     Fn4 
	BYTE		N04     Dn5 
	BYTE		N04     Fn5 
	BYTE		N04     An5 
	BYTE	W12
	BYTE		        Fn3 
	BYTE		N04     An3 
	BYTE		N04     Dn4 
	BYTE		N04     Fn4 
	BYTE	W12
	BYTE		        Dn3 
	BYTE		N04     Fn3 
	BYTE		N04     An3 
	BYTE		N04     Dn4 
	BYTE	W12
	BYTE		        Fn3 
	BYTE		N04     An3 
	BYTE		N04     Dn4 
	BYTE		N04     Fn4 
	BYTE		N04     Dn5 
	BYTE		N04     Fn5 
	BYTE		N04     An5 
	BYTE	W12
	BYTE		        Fn3 
	BYTE		N04     An3 
	BYTE		N04     Dn4 
	BYTE		N04     Fn4 
	BYTE	W12
	BYTE	PEND
// 036   ----------------------------------------
vastsever8850_4_036:
	BYTE		N04     An3   v112
	BYTE		N04     Dn4 
	BYTE		N04     Fn4 
	BYTE		N04     An4 
	BYTE		N04     Dn5 
	BYTE		N04     Fn5 
	BYTE		N04     An5 
	BYTE	W12
	BYTE		        An3 
	BYTE		N04     Dn4 
	BYTE		N04     Fn4 
	BYTE		N04     An4 
	BYTE	W12
	BYTE		        An3 
	BYTE		N04     Dn4 
	BYTE		N04     Fn4 
	BYTE		N04     An4 
	BYTE	W12
	BYTE		        Gn3 
	BYTE		N04     Cn4 
	BYTE		N04     En4 
	BYTE		N04     Gn4 
	BYTE		N04     En5 
	BYTE		N04     Gn5 
	BYTE		N04     Cn6 
	BYTE	W12
	BYTE		        Gn3 
	BYTE		N04     Cn4 
	BYTE		N04     En4 
	BYTE		N04     Gn4 
	BYTE	W12
	BYTE		        En3 
	BYTE		N04     Gn3 
	BYTE		N04     Cn4 
	BYTE		N04     En4 
	BYTE	W12
	BYTE		        Gn3 
	BYTE		N04     Cn4 
	BYTE		N04     En4 
	BYTE		N04     Gn4 
	BYTE		N04     En5 
	BYTE		N04     Gn5 
	BYTE		N04     Cn6 
	BYTE	W12
	BYTE		        Gn3 
	BYTE		N04     Cn4 
	BYTE		N04     En4 
	BYTE		N04     Gn4 
	BYTE	W12
	BYTE	PEND
// 037   ----------------------------------------
vastsever8850_4_037:
	BYTE		N04     Fn3   v112
	BYTE		N04     An3 
	BYTE		N04     Cn4 
	BYTE		N04     Fn4 
	BYTE		N04     Cn5 
	BYTE		N04     Fn5 
	BYTE		N04     An5 
	BYTE	W12
	BYTE		        Fn3 
	BYTE		N04     An3 
	BYTE		N04     Cn4 
	BYTE		N04     Fn4 
	BYTE		N09     Cn5 
	BYTE	W12
	BYTE		N04     Fn3 
	BYTE		N04     An3 
	BYTE		N04     Cn4 
	BYTE		N04     Fn4 
	BYTE		N09     Fn5 
	BYTE	W12
	BYTE		N04     En3 
	BYTE		N04     An3 
	BYTE		N04     Cn4 
	BYTE		N04     En4 
	BYTE		N04     Cn5 
	BYTE		N04     En5 
	BYTE		N04     An5 
	BYTE	W12
	BYTE		N09     En3 
	BYTE		N09     An3 
	BYTE		N09     Cn4 
	BYTE		N09     En4 
	BYTE		N09     En5 
	BYTE	W12
	BYTE		        Cn3 
	BYTE		N09     En3 
	BYTE		N09     An3 
	BYTE		N09     Cn4 
	BYTE		N09     Cn5 
	BYTE	W12
	BYTE		N08     En3 
	BYTE		N08     An3 
	BYTE		N08     Cn4 
	BYTE		N08     En4 
	BYTE		N09     Cn5 
	BYTE		N09     En5 
	BYTE		N09     An5 
	BYTE	W12
	BYTE		N08     En3 
	BYTE		N08     An3 
	BYTE		N08     Cn4 
	BYTE		N08     En4 
	BYTE		N09     Cn5 
	BYTE		N09     En5 
	BYTE		N09     An5 
	BYTE	W12
	BYTE	PEND
// 038   ----------------------------------------
	BYTE	PATT
	 POIN2	vastsever8850_4_034
// 039   ----------------------------------------
	BYTE	PATT
	 POIN2	vastsever8850_4_035
// 040   ----------------------------------------
vastsever8850_4_040:
	BYTE		N04     An3   v112
	BYTE		N04     Dn4 
	BYTE		N04     Fn4 
	BYTE		N04     An4 
	BYTE		N04     Dn5 
	BYTE		N04     Fn5 
	BYTE		N04     An5 
	BYTE	W12
	BYTE		        An3 
	BYTE		N04     Dn4 
	BYTE		N04     Fn4 
	BYTE		N04     An4 
	BYTE	W12
	BYTE		        An3 
	BYTE		N04     Dn4 
	BYTE		N04     Fn4 
	BYTE		N04     An4 
	BYTE	W12
	BYTE		        Gn3 
	BYTE		N04     As3 
	BYTE		N04     En4 
	BYTE		N04     Gn4 
	BYTE		N04     En5 
	BYTE		N04     Gn5 
	BYTE		N04     As5 
	BYTE	W12
	BYTE		        Gn3 
	BYTE		N04     As3 
	BYTE		N04     En4 
	BYTE		N04     Gn4 
	BYTE	W12
	BYTE		        En3 
	BYTE		N04     Gn3 
	BYTE		N04     As3 
	BYTE		N04     En4 
	BYTE	W12
	BYTE		        Gn3 
	BYTE		N04     As3 
	BYTE		N04     En4 
	BYTE		N04     Gn4 
	BYTE		N04     En5 
	BYTE		N04     Gn5 
	BYTE		N04     As5 
	BYTE	W12
	BYTE		        Gn3 
	BYTE		N04     As3 
	BYTE		N04     En4 
	BYTE		N04     Gn4 
	BYTE	W12
	BYTE	PEND
// 041   ----------------------------------------
vastsever8850_4_041:
	BYTE		N04     Gn3   v112
	BYTE		N04     Cn4 
	BYTE		N04     En4 
	BYTE		N04     Gn4 
	BYTE		N04     Cn5 
	BYTE		N04     En5 
	BYTE		N04     Gn5 
	BYTE	W12
	BYTE		        Gn3 
	BYTE		N04     Cn4 
	BYTE		N04     En4 
	BYTE		N04     Gn4 
	BYTE		N04     Cn5 
	BYTE		N04     En5 
	BYTE		N04     Gn5 
	BYTE	W12
	BYTE		        Gn3 
	BYTE		N04     Cn4 
	BYTE		N04     En4 
	BYTE		N04     Gn4 
	BYTE		N04     Cn5 
	BYTE		N04     En5 
	BYTE		N04     Gn5 
	BYTE	W12
	BYTE		N23     An3 
	BYTE		N23     Cs4 
	BYTE		N23     En4 
	BYTE		N23     An4 
	BYTE		N56     Cs5 
	BYTE		N56     En5 
	BYTE		N56     An5 
	BYTE	W24
	BYTE		N11     En3 
	BYTE		N11     An3 
	BYTE		N11     Cs4 
	BYTE		N11     En4 
	BYTE	W12
	BYTE		N22     An3 
	BYTE		N22     Cs4 
	BYTE		N22     En4 
	BYTE		N22     An4 
	BYTE	W24
	BYTE	PEND
// 042   ----------------------------------------
vastsever8850_4_042:
	BYTE		N32     Dn3   v112
	BYTE		N32     Fn3 
	BYTE		N32     As3 
	BYTE		N32     Dn4 
	BYTE		N04     Fn5 
	BYTE	W06
	BYTE		        En5 
	BYTE	W06
	BYTE		        Dn5 
	BYTE	W06
	BYTE		        An4 
	BYTE	W06
	BYTE		        Fn5 
	BYTE	W06
	BYTE		        En5 
	BYTE	W06
	BYTE		N56     Dn3 
	BYTE		N56     Fn3 
	BYTE		N56     As3 
	BYTE		N56     Dn4 
	BYTE		N04     Dn5 
	BYTE	W06
	BYTE		        An4 
	BYTE	W06
	BYTE		        Fn5 
	BYTE	W06
	BYTE		        En5 
	BYTE	W06
	BYTE		        Dn5 
	BYTE	W06
	BYTE		        An4 
	BYTE	W06
	BYTE		        Fn5 
	BYTE	W06
	BYTE		        En5 
	BYTE	W06
	BYTE		        Dn5 
	BYTE	W06
	BYTE		        An4 
	BYTE	W06
	BYTE	PEND
// 043   ----------------------------------------
vastsever8850_4_043:
	BYTE		N32     Dn3   v112
	BYTE		N32     Gn3 
	BYTE		N32     As3 
	BYTE		N32     Dn4 
	BYTE		N04     Fn5 
	BYTE	W06
	BYTE		        En5 
	BYTE	W06
	BYTE		        Dn5 
	BYTE	W06
	BYTE		        An4 
	BYTE	W06
	BYTE		        Fn5 
	BYTE	W06
	BYTE		        En5 
	BYTE	W06
	BYTE		N56     Dn3 
	BYTE		N56     Gn3 
	BYTE		N56     As3 
	BYTE		N56     Dn4 
	BYTE		N04     Dn5 
	BYTE	W06
	BYTE		        An4 
	BYTE	W06
	BYTE		        Fn5 
	BYTE	W06
	BYTE		        En5 
	BYTE	W06
	BYTE		        Dn5 
	BYTE	W06
	BYTE		        An4 
	BYTE	W06
	BYTE		        Fn5 
	BYTE	W06
	BYTE		        En5 
	BYTE	W06
	BYTE		        Dn5 
	BYTE	W06
	BYTE		        An4 
	BYTE	W06
	BYTE	PEND
// 044   ----------------------------------------
vastsever8850_4_044:
	BYTE		N32     En3   v112
	BYTE		N32     An3 
	BYTE		N32     Cs4 
	BYTE		N32     En4 
	BYTE		N04     An5 
	BYTE	W06
	BYTE		        En5 
	BYTE	W06
	BYTE		        Cs5 
	BYTE	W06
	BYTE		        An4 
	BYTE	W06
	BYTE		        An5 
	BYTE	W06
	BYTE		        En5 
	BYTE	W06
	BYTE		N56     En3 
	BYTE		N56     An3 
	BYTE		N56     Cs4 
	BYTE		N56     En4 
	BYTE		N04     Cs5 
	BYTE	W06
	BYTE		        An4 
	BYTE	W06
	BYTE		        An5 
	BYTE	W06
	BYTE		        En5 
	BYTE	W06
	BYTE		        Cs5 
	BYTE	W06
	BYTE		        An4 
	BYTE	W06
	BYTE		        An5 
	BYTE	W06
	BYTE		        En5 
	BYTE	W06
	BYTE		        Cs5 
	BYTE	W06
	BYTE		        An4 
	BYTE	W06
	BYTE	PEND
// 045   ----------------------------------------
vastsever8850_4_045:
	BYTE		N23     Cs3   v112
	BYTE		N23     En3 
	BYTE		N23     An3 
	BYTE		N04     An4 
	BYTE		N04     Cs5 
	BYTE		N04     En5 
	BYTE		N04     An5 
	BYTE	W06
	BYTE		N10     An4 
	BYTE		N10     Cs5 
	BYTE		N10     En5 
	BYTE		N10     An5 
	BYTE	W12
	BYTE		N04     En4 
	BYTE		N04     An4 
	BYTE		N04     Cs5 
	BYTE		N04     En5 
	BYTE	W06
	BYTE		N23     Cs3 
	BYTE		N23     En3 
	BYTE		N23     An3 
	BYTE		N10     En4 
	BYTE		N10     An4 
	BYTE		N10     Cs5 
	BYTE		N10     En5 
	BYTE	W12
	BYTE		N04     Cs4 
	BYTE		N04     En4 
	BYTE		N04     An4 
	BYTE		N04     Cs5 
	BYTE	W06
	BYTE		N10     Cs4 
	BYTE		N10     En4 
	BYTE		N10     An4 
	BYTE		N10     Cs5 
	BYTE	W06
	BYTE		N23     An2 
	BYTE		N23     Cs3 
	BYTE		N23     En3 
	BYTE	W06
	BYTE		N04     An3 
	BYTE		N04     Cs4 
	BYTE		N04     En4 
	BYTE		N04     An4 
	BYTE	W06
	BYTE		N10     An3 
	BYTE		N10     Cs4 
	BYTE		N10     En4 
	BYTE		N10     An4 
	BYTE	W12
	BYTE		N23     En2 
	BYTE		N23     An2 
	BYTE		N23     Cs3 
	BYTE		N04     An3 
	BYTE		N04     Cs4 
	BYTE		N04     En4 
	BYTE		N04     An4 
	BYTE	W06
	BYTE		        En3 
	BYTE		N04     An3 
	BYTE		N04     Cs4 
	BYTE		N04     En4 
	BYTE	W06
	BYTE		        An3 
	BYTE		N04     Cs4 
	BYTE		N04     En4 
	BYTE		N04     An4 
	BYTE	W06
	BYTE		        En3 
	BYTE		N04     An3 
	BYTE		N04     Cs4 
	BYTE		N04     En4 
	BYTE	W06
	BYTE	PEND
// 046   ----------------------------------------
vastsever8850_4_046:
	BYTE		N05     Dn3   v112
	BYTE		N05     Fn3 
	BYTE		N05     An3 
	BYTE		N05     Dn4 
	BYTE		N05     Fn4 
	BYTE		N05     An4 
	BYTE	W12
	BYTE		        Dn3 
	BYTE		N05     Fn3 
	BYTE		N05     An3 
	BYTE	W12
	BYTE		        Dn3 
	BYTE		N05     Fn3 
	BYTE		N05     An3 
	BYTE	W12
	BYTE		        Dn3 
	BYTE		N05     Fn3 
	BYTE		N05     An3 
	BYTE		N05     Dn4 
	BYTE		N05     Fn4 
	BYTE		N05     An4 
	BYTE	W12
	BYTE		        Dn3 
	BYTE		N05     Fn3 
	BYTE		N05     An3 
	BYTE	W12
	BYTE		        Dn3 
	BYTE		N05     Fn3 
	BYTE		N05     An3 
	BYTE	W12
	BYTE		        Dn3 
	BYTE		N05     Fn3 
	BYTE		N05     An3 
	BYTE		N05     Dn4 
	BYTE		N05     Fn4 
	BYTE		N05     An4 
	BYTE	W12
	BYTE		        Dn3 
	BYTE		N05     Fn3 
	BYTE		N05     An3 
	BYTE	W12
	BYTE	PEND
// 047   ----------------------------------------
vastsever8850_4_047:
	BYTE		N05     Cn3   v112
	BYTE		N05     En3 
	BYTE		N05     Gn3 
	BYTE		N05     Cn4 
	BYTE		N05     En4 
	BYTE		N05     Gn4 
	BYTE	W12
	BYTE		        Cn3 
	BYTE		N05     En3 
	BYTE		N05     Gn3 
	BYTE	W12
	BYTE		        Cn3 
	BYTE		N05     En3 
	BYTE		N05     Gn3 
	BYTE	W12
	BYTE		        Cn3 
	BYTE		N05     En3 
	BYTE		N05     Gn3 
	BYTE		N05     Cn4 
	BYTE		N05     En4 
	BYTE		N05     Gn4 
	BYTE	W12
	BYTE		        Cn3 
	BYTE		N05     En3 
	BYTE		N05     Gn3 
	BYTE	W12
	BYTE		        Cn3 
	BYTE		N05     En3 
	BYTE		N05     Gn3 
	BYTE	W12
	BYTE		        Cn3 
	BYTE		N05     En3 
	BYTE		N05     Gn3 
	BYTE		N05     Cn4 
	BYTE		N05     En4 
	BYTE		N05     Gn4 
	BYTE	W12
	BYTE		        Cn3 
	BYTE		N05     En3 
	BYTE		N05     Gn3 
	BYTE	W12
	BYTE	PEND
// 048   ----------------------------------------
vastsever8850_4_048:
	BYTE		N05     Bn2   v112
	BYTE		N05     Dn3 
	BYTE		N05     Gn3 
	BYTE		N05     Bn3 
	BYTE		N05     Dn4 
	BYTE		N05     Gn4 
	BYTE	W12
	BYTE		        Bn2 
	BYTE		N05     Dn3 
	BYTE		N05     Gn3 
	BYTE	W12
	BYTE		        Bn2 
	BYTE		N05     Dn3 
	BYTE		N05     Gn3 
	BYTE	W12
	BYTE		        Bn2 
	BYTE		N05     Dn3 
	BYTE		N05     Gn3 
	BYTE		N05     Bn3 
	BYTE		N05     Dn4 
	BYTE		N05     Gn4 
	BYTE	W12
	BYTE		        Bn2 
	BYTE		N05     Dn3 
	BYTE		N05     Gn3 
	BYTE	W12
	BYTE		        Bn2 
	BYTE		N05     Dn3 
	BYTE		N05     Gn3 
	BYTE	W12
	BYTE		        Bn2 
	BYTE		N05     Dn3 
	BYTE		N05     Gn3 
	BYTE		N05     Bn3 
	BYTE		N05     Dn4 
	BYTE		N05     Gn4 
	BYTE	W12
	BYTE		        Bn2 
	BYTE		N05     Dn3 
	BYTE		N05     Gn3 
	BYTE	W12
	BYTE	PEND
// 049   ----------------------------------------
vastsever8850_4_049:
	BYTE		N05     Dn3   v112
	BYTE		N05     Fn3 
	BYTE		N05     As3 
	BYTE		N05     Dn4 
	BYTE		N05     Fn4 
	BYTE		N05     As4 
	BYTE	W12
	BYTE		        Dn3 
	BYTE		N05     Fn3 
	BYTE		N05     As3 
	BYTE	W12
	BYTE		        Dn3 
	BYTE		N05     Fn3 
	BYTE		N05     As3 
	BYTE	W12
	BYTE		        Dn3 
	BYTE		N05     Fn3 
	BYTE		N05     As3 
	BYTE		N05     Dn4 
	BYTE		N05     Fn4 
	BYTE		N05     As4 
	BYTE	W12
	BYTE		        En3 
	BYTE		N05     An3 
	BYTE		N05     Cn4 
	BYTE	W12
	BYTE		        En3 
	BYTE		N05     An3 
	BYTE		N05     Cn4 
	BYTE	W12
	BYTE		        En3 
	BYTE		N05     An3 
	BYTE		N05     Cn4 
	BYTE		N05     En4 
	BYTE		N05     An4 
	BYTE		N05     Cn5 
	BYTE	W12
	BYTE		        En3 
	BYTE		N05     An3 
	BYTE		N05     Cn4 
	BYTE	W12
	BYTE	PEND
// 050   ----------------------------------------
vastsever8850_4_050:
	BYTE		N05     Fn3   v112
	BYTE		N05     As3 
	BYTE		N05     Dn4 
	BYTE		N05     Fn4 
	BYTE		N05     As4 
	BYTE		N05     Dn5 
	BYTE	W12
	BYTE		        Fn3 
	BYTE		N05     As3 
	BYTE		N05     Dn4 
	BYTE	W12
	BYTE		        Fn3 
	BYTE		N05     As3 
	BYTE		N05     Dn4 
	BYTE	W12
	BYTE		        Fn3 
	BYTE		N05     As3 
	BYTE		N05     Dn4 
	BYTE		N05     Fn4 
	BYTE		N05     As4 
	BYTE		N05     Dn5 
	BYTE	W12
	BYTE		        Fn3 
	BYTE		N05     As3 
	BYTE		N05     Dn4 
	BYTE	W12
	BYTE		        Fn3 
	BYTE		N05     As3 
	BYTE		N05     Dn4 
	BYTE	W12
	BYTE		        Fn3 
	BYTE		N05     As3 
	BYTE		N05     Dn4 
	BYTE		N05     Fn4 
	BYTE		N05     As4 
	BYTE		N05     Dn5 
	BYTE	W12
	BYTE		        Fn3 
	BYTE		N05     As3 
	BYTE		N05     Dn4 
	BYTE	W12
	BYTE	PEND
// 051   ----------------------------------------
vastsever8850_4_051:
	BYTE		N05     Gn3   v112
	BYTE		N05     As3 
	BYTE		N05     En4 
	BYTE		N05     Gn4 
	BYTE		N05     As4 
	BYTE		N05     En5 
	BYTE	W12
	BYTE		        Gn3 
	BYTE		N05     As3 
	BYTE		N05     En4 
	BYTE	W12
	BYTE		        Gn3 
	BYTE		N05     As3 
	BYTE		N05     En4 
	BYTE	W12
	BYTE		        Gn3 
	BYTE		N05     As3 
	BYTE		N05     En4 
	BYTE		N05     Gn4 
	BYTE		N05     As4 
	BYTE		N05     En5 
	BYTE	W12
	BYTE		        Gn3 
	BYTE		N05     As3 
	BYTE		N05     En4 
	BYTE	W12
	BYTE		        Gn3 
	BYTE		N05     As3 
	BYTE		N05     En4 
	BYTE	W12
	BYTE		        Gn3 
	BYTE		N05     As3 
	BYTE		N05     En4 
	BYTE		N05     Gn4 
	BYTE		N05     As4 
	BYTE		N05     En5 
	BYTE	W12
	BYTE		        Gn3 
	BYTE		N05     As3 
	BYTE		N05     En4 
	BYTE	W12
	BYTE	PEND
// 052   ----------------------------------------
vastsever8850_4_052:
	BYTE		N05     As3   v112
	BYTE		N05     Dn4 
	BYTE		N05     Gn4 
	BYTE		N05     As4 
	BYTE		N05     Dn5 
	BYTE		N05     Gn5 
	BYTE	W12
	BYTE		        As3 
	BYTE		N05     Dn4 
	BYTE		N05     Gn4 
	BYTE	W12
	BYTE		        As3 
	BYTE		N05     Dn4 
	BYTE		N05     Gn4 
	BYTE	W12
	BYTE		        As3 
	BYTE		N05     Dn4 
	BYTE		N05     Gn4 
	BYTE		N05     As4 
	BYTE		N05     Dn5 
	BYTE		N05     Gn5 
	BYTE	W12
	BYTE		        As3 
	BYTE		N05     Dn4 
	BYTE		N05     Gn4 
	BYTE	W12
	BYTE		        As3 
	BYTE		N05     Dn4 
	BYTE		N05     Gn4 
	BYTE	W12
	BYTE		        As3 
	BYTE		N05     Dn4 
	BYTE		N05     Gn4 
	BYTE		N05     As4 
	BYTE		N05     Dn5 
	BYTE		N05     Gn5 
	BYTE	W12
	BYTE		        As3 
	BYTE		N05     Dn4 
	BYTE		N05     Gn4 
	BYTE	W12
	BYTE	PEND
// 053   ----------------------------------------
vastsever8850_4_053:
	BYTE		N05     An3   v112
	BYTE		N05     Dn4 
	BYTE		N05     Fn4 
	BYTE		N05     An4 
	BYTE		N05     Dn5 
	BYTE		N05     Fn5 
	BYTE	W12
	BYTE		        An3 
	BYTE		N05     Dn4 
	BYTE		N05     Fn4 
	BYTE	W12
	BYTE		        An3 
	BYTE		N05     Dn4 
	BYTE		N05     Fn4 
	BYTE	W12
	BYTE		        An3 
	BYTE		N05     Dn4 
	BYTE		N05     Fn4 
	BYTE		N05     An4 
	BYTE		N05     Dn5 
	BYTE		N05     Fn5 
	BYTE	W12
	BYTE		        Cs4 
	BYTE		N05     En4 
	BYTE		N05     An4 
	BYTE	W12
	BYTE		        Cs4 
	BYTE		N05     En4 
	BYTE		N05     An4 
	BYTE		N05     Cs5 
	BYTE		N05     En5 
	BYTE		N05     An5 
	BYTE	W12
	BYTE		        An3 
	BYTE		N05     Cs4 
	BYTE		N05     En4 
	BYTE		N05     An4 
	BYTE		N05     Cs5 
	BYTE		N05     En5 
	BYTE	W12
	BYTE		        Cs4 
	BYTE		N05     En4 
	BYTE		N05     An4 
	BYTE		N05     Cs5 
	BYTE		N05     En5 
	BYTE		N05     An5 
	BYTE	W12
	BYTE	PEND
// 054   ----------------------------------------
	BYTE	PATT
	 POIN2	vastsever8850_4_046
// 055   ----------------------------------------
	BYTE	PATT
	 POIN2	vastsever8850_4_047
// 056   ----------------------------------------
	BYTE	PATT
	 POIN2	vastsever8850_4_048
// 057   ----------------------------------------
	BYTE	PATT
	 POIN2	vastsever8850_4_049
// 058   ----------------------------------------
vastsever8850_4_058:
	BYTE		N05     Dn3   v112
	BYTE		N05     Fn3 
	BYTE		N05     As3 
	BYTE		N05     Dn4 
	BYTE		N05     Fn4 
	BYTE		N05     As4 
	BYTE		N05     Dn5 
	BYTE	W12
	BYTE		        Dn3 
	BYTE		N05     Fn3 
	BYTE		N05     As3 
	BYTE		N05     Dn4 
	BYTE	W12
	BYTE		        Dn3 
	BYTE		N05     Fn3 
	BYTE		N05     As3 
	BYTE		N05     Dn4 
	BYTE	W12
	BYTE		        Dn3 
	BYTE		N05     Fn3 
	BYTE		N05     As3 
	BYTE		N05     Dn4 
	BYTE		N05     Fn4 
	BYTE		N05     As4 
	BYTE		N05     Dn5 
	BYTE	W12
	BYTE		        Dn3 
	BYTE		N05     Fn3 
	BYTE		N05     As3 
	BYTE		N05     Dn4 
	BYTE	W12
	BYTE		        Dn3 
	BYTE		N05     Fn3 
	BYTE		N05     As3 
	BYTE		N05     Dn4 
	BYTE	W12
	BYTE		        Dn3 
	BYTE		N05     Fn3 
	BYTE		N05     As3 
	BYTE		N05     Dn4 
	BYTE		N05     Fn4 
	BYTE		N05     As4 
	BYTE		N05     Dn5 
	BYTE	W12
	BYTE		        Dn3 
	BYTE		N05     Fn3 
	BYTE		N05     As3 
	BYTE		N05     Dn4 
	BYTE	W12
	BYTE	PEND
// 059   ----------------------------------------
	BYTE	PATT
	 POIN2	vastsever8850_4_051
// 060   ----------------------------------------
	BYTE	PATT
	 POIN2	vastsever8850_4_052
// 061   ----------------------------------------
vastsever8850_4_061:
	BYTE		N10     An3   v112
	BYTE		N10     Dn4 
	BYTE		N10     Fn4 
	BYTE		N10     An4 
	BYTE		N10     Dn5 
	BYTE		N10     Fn5 
	BYTE	W12
	BYTE		N22     An3 
	BYTE		N22     Dn4 
	BYTE		N22     Fn4 
	BYTE		N22     An4 
	BYTE		N22     Dn5 
	BYTE		N22     Fn5 
	BYTE	W24
	BYTE		N10     Fn3 
	BYTE		N10     An3 
	BYTE		N10     Dn4 
	BYTE		N10     Fn4 
	BYTE		N10     An4 
	BYTE		N10     Dn5 
	BYTE	W12
	BYTE		N22     Fn3 
	BYTE		N22     An3 
	BYTE		N22     Dn4 
	BYTE		N22     Fn4 
	BYTE		N22     An4 
	BYTE		N22     Dn5 
	BYTE	W24
	BYTE		N10     Dn3 
	BYTE		N10     Fn3 
	BYTE		N10     An3 
	BYTE		N10     Dn4 
	BYTE		N10     Fn4 
	BYTE		N10     An4 
	BYTE	W12
	BYTE		        An2 
	BYTE		N10     Dn3 
	BYTE		N10     Fn3 
	BYTE		N10     An3 
	BYTE		N10     Dn4 
	BYTE		N10     Fn4 
	BYTE	W12
	BYTE	PEND
// 062   ----------------------------------------
	BYTE	PATT
	 POIN2	vastsever8850_4_002
// 063   ----------------------------------------
	BYTE	PATT
	 POIN2	vastsever8850_4_003
// 064   ----------------------------------------
	BYTE	PATT
	 POIN2	vastsever8850_4_002
// 065   ----------------------------------------
	BYTE	PATT
	 POIN2	vastsever8850_4_005
// 066   ----------------------------------------
	BYTE	PATT
	 POIN2	vastsever8850_4_002
// 067   ----------------------------------------
	BYTE	PATT
	 POIN2	vastsever8850_4_003
// 068   ----------------------------------------
	BYTE	PATT
	 POIN2	vastsever8850_4_002
// 069   ----------------------------------------
	BYTE	PATT
	 POIN2	vastsever8850_4_005
// 070   ----------------------------------------
	BYTE		N92     An2   v112
	BYTE		N92     Dn3 
	BYTE		N92     Fn3 
	BYTE		N92     An3 
	BYTE		N17     Fn4   v127
	BYTE		N17     An4 
	BYTE	W18
	BYTE		        En4 
	BYTE		N17     Gn4 
	BYTE	W18
	BYTE		N22     Dn4 
	BYTE		N22     Fn4 
	BYTE	W24
	BYTE		N11     Cn4 
	BYTE	W12
	BYTE		N03     Gn4 
	BYTE	W02
	BYTE		        An4 
	BYTE	W01
	BYTE		N07     Cn5 
	BYTE	W09
	BYTE		N11     As4 
	BYTE	W12
// 071   ----------------------------------------
	BYTE		N92     Gn2   v112
	BYTE		N92     Cn3 
	BYTE		N92     En3 
	BYTE		N92     An3 
	BYTE		N32     Cn4   v127
	BYTE		N32     Fn4 
	BYTE		N32     An4 
	BYTE	W36
	BYTE		N32   
	BYTE		N32     Dn5 
	BYTE		N32     Fn5 
	BYTE	W36
	BYTE		N11     Gn4 
	BYTE		N11     Cn5 
	BYTE		N11     En5 
	BYTE	W12
	BYTE		N03     Dn5 
	BYTE	W06
	BYTE		        Fn5 
	BYTE	W06
// 072   ----------------------------------------
	BYTE		N92     An2   v112
	BYTE		N92     Dn3 
	BYTE		N92     Fn3 
	BYTE		N92     An3 
	BYTE		N32     An5   v127
	BYTE	W36
	BYTE		        Gn5 
	BYTE	W36
	BYTE		N03     Fn5 
	BYTE	W06
	BYTE		        En5 
	BYTE	W06
	BYTE		        An4 
	BYTE	W06
	BYTE		        Dn5 
	BYTE	W06
// 073   ----------------------------------------
	BYTE		N92     An2   v112
	BYTE		N92     Cs3 
	BYTE		N92     En3 
	BYTE		N92     An3 
	BYTE		N32     Dn5   v127
	BYTE		N32     Fn5 
	BYTE	W36
	BYTE		N03     En5 
	BYTE	W06
	BYTE		        Dn5 
	BYTE	W06
	BYTE		N05     An4 
	BYTE		N05     Cs5 
	BYTE	W12
	BYTE		N22     En5 
	BYTE		N22     An5 
	BYTE		N22     Cn6 
	BYTE	W24
	BYTE		N05     Bn5 
	BYTE	W06
	BYTE		        As5 
	BYTE	W06
// 074   ----------------------------------------
	BYTE		N92     An2   v112
	BYTE		N92     Dn3 
	BYTE		N92     Fn3 
	BYTE		N92     An3 
	BYTE		N14     An5   v127
	BYTE	W16
	BYTE		        An4 
	BYTE		N14     Dn5 
	BYTE	W16
	BYTE		N15   
	BYTE		N15     Fn5 
	BYTE		N15     An5 
	BYTE	W16
	BYTE		N14     An4 
	BYTE		N14     Dn5 
	BYTE		N14     Fn5 
	BYTE	W16
	BYTE		        Dn5 
	BYTE		N14     Fn5 
	BYTE		N14     An5 
	BYTE	W16
	BYTE		N15     Dn5 
	BYTE		N15     Fn5 
	BYTE		N15     An5 
	BYTE	W16
// 075   ----------------------------------------
	BYTE		N92     Gn2   v112
	BYTE		N92     Cn3 
	BYTE		N92     En3 
	BYTE		N92     An3 
	BYTE		N14     En5   v127
	BYTE		N14     An5 
	BYTE		N14     Cn6 
	BYTE	W16
	BYTE		        Cn5 
	BYTE		N14     En5 
	BYTE		N14     An5 
	BYTE	W16
	BYTE		N15     An4 
	BYTE		N15     Cn5 
	BYTE		N15     En5 
	BYTE	W16
	BYTE		N14   
	BYTE		N14     An5 
	BYTE		N14     Cn6 
	BYTE	W16
	BYTE		        En5 
	BYTE		N14     An5 
	BYTE		N14     Cn6 
	BYTE	W16
	BYTE		N04     An4   v112
	BYTE		N04     Cn5 
	BYTE	W04
	BYTE		        Gn4 
	BYTE		N04     Bn4 
	BYTE	W04
	BYTE		        Fn4 
	BYTE		N04     An4 
	BYTE	W04
	BYTE		N03     En4 
	BYTE		N03     Gn4 
	BYTE	W04
// 076   ----------------------------------------
	BYTE		N92     An2 
	BYTE		N92     Dn3 
	BYTE		N92     Fn3 
	BYTE		N92     An3 
	BYTE		N32     Dn4   v127
	BYTE		N32     Fn4 
	BYTE		N32     An4 
	BYTE		N32     Dn5 
	BYTE	W36
	BYTE		N04     An4 
	BYTE	W06
	BYTE		        Dn5 
	BYTE	W06
	BYTE		N11     An5 
	BYTE	W12
	BYTE		N04     Gn5 
	BYTE	W06
	BYTE		        Fn5 
	BYTE	W06
	BYTE		N11     En5 
	BYTE	W12
	BYTE		N05     Dn5 
	BYTE	W06
	BYTE		        En5 
	BYTE	W06
// 077   ----------------------------------------
	BYTE		N10     An2   v112
	BYTE		N10     Cs3 
	BYTE		N10     En3 
	BYTE		N10     An3 
	BYTE		N05     An5   v127
	BYTE	W06
	BYTE		        Gn5 
	BYTE	W06
	BYTE		        En5 
	BYTE	W06
	BYTE		        Gn5 
	BYTE	W06
	BYTE		        En5 
	BYTE	W06
	BYTE		        Dn5 
	BYTE	W06
	BYTE		        En5 
	BYTE	W06
	BYTE		        Dn5 
	BYTE	W06
	BYTE		N22     Dn3   v112
	BYTE		N22     Fn3 
	BYTE		N22     As3 
	BYTE		N22     Dn4 
	BYTE		N05     As4   v127
	BYTE	W06
	BYTE		        Dn5 
	BYTE	W06
	BYTE		        En5 
	BYTE	W06
	BYTE		        Fn5 
	BYTE	W06
	BYTE		N22     En3 
	BYTE		N22     Gn3 
	BYTE		N22     Cn4 
	BYTE		N22     En4 
	BYTE		N15     Gn4 
	BYTE		N15     Cn5 
	BYTE		N15     En5 
	BYTE	W24
// 078   ----------------------------------------
	BYTE	PATT
	 POIN2	vastsever8850_4_018
// 079   ----------------------------------------
	BYTE	PATT
	 POIN2	vastsever8850_4_019
// 080   ----------------------------------------
	BYTE	PATT
	 POIN2	vastsever8850_4_020
// 081   ----------------------------------------
	BYTE	PATT
	 POIN2	vastsever8850_4_021
// 082   ----------------------------------------
	BYTE	PATT
	 POIN2	vastsever8850_4_022
// 083   ----------------------------------------
	BYTE	PATT
	 POIN2	vastsever8850_4_023
// 084   ----------------------------------------
	BYTE	PATT
	 POIN2	vastsever8850_4_024
// 085   ----------------------------------------
	BYTE	PATT
	 POIN2	vastsever8850_4_025
// 086   ----------------------------------------
	BYTE	PATT
	 POIN2	vastsever8850_4_026
// 087   ----------------------------------------
	BYTE	PATT
	 POIN2	vastsever8850_4_027
// 088   ----------------------------------------
	BYTE	PATT
	 POIN2	vastsever8850_4_028
// 089   ----------------------------------------
	BYTE	PATT
	 POIN2	vastsever8850_4_029
// 090   ----------------------------------------
	BYTE	PATT
	 POIN2	vastsever8850_4_030
// 091   ----------------------------------------
	BYTE	PATT
	 POIN2	vastsever8850_4_031
// 092   ----------------------------------------
	BYTE	PATT
	 POIN2	vastsever8850_4_032
// 093   ----------------------------------------
	BYTE	PATT
	 POIN2	vastsever8850_4_033
// 094   ----------------------------------------
	BYTE	PATT
	 POIN2	vastsever8850_4_034
// 095   ----------------------------------------
	BYTE	PATT
	 POIN2	vastsever8850_4_035
// 096   ----------------------------------------
	BYTE	PATT
	 POIN2	vastsever8850_4_036
// 097   ----------------------------------------
	BYTE	PATT
	 POIN2	vastsever8850_4_037
// 098   ----------------------------------------
	BYTE	PATT
	 POIN2	vastsever8850_4_034
// 099   ----------------------------------------
	BYTE	PATT
	 POIN2	vastsever8850_4_035
// 100   ----------------------------------------
	BYTE	PATT
	 POIN2	vastsever8850_4_040
// 101   ----------------------------------------
	BYTE	PATT
	 POIN2	vastsever8850_4_041
// 102   ----------------------------------------
	BYTE	PATT
	 POIN2	vastsever8850_4_042
// 103   ----------------------------------------
	BYTE	PATT
	 POIN2	vastsever8850_4_043
// 104   ----------------------------------------
	BYTE	PATT
	 POIN2	vastsever8850_4_044
// 105   ----------------------------------------
	BYTE	PATT
	 POIN2	vastsever8850_4_045
// 106   ----------------------------------------
	BYTE	PATT
	 POIN2	vastsever8850_4_046
// 107   ----------------------------------------
	BYTE	PATT
	 POIN2	vastsever8850_4_047
// 108   ----------------------------------------
	BYTE	PATT
	 POIN2	vastsever8850_4_048
// 109   ----------------------------------------
	BYTE	PATT
	 POIN2	vastsever8850_4_049
// 110   ----------------------------------------
	BYTE	PATT
	 POIN2	vastsever8850_4_050
// 111   ----------------------------------------
	BYTE	PATT
	 POIN2	vastsever8850_4_051
// 112   ----------------------------------------
	BYTE	PATT
	 POIN2	vastsever8850_4_052
// 113   ----------------------------------------
	BYTE	PATT
	 POIN2	vastsever8850_4_053
// 114   ----------------------------------------
	BYTE	PATT
	 POIN2	vastsever8850_4_046
// 115   ----------------------------------------
	BYTE	PATT
	 POIN2	vastsever8850_4_047
// 116   ----------------------------------------
	BYTE	PATT
	 POIN2	vastsever8850_4_048
// 117   ----------------------------------------
	BYTE	PATT
	 POIN2	vastsever8850_4_049
// 118   ----------------------------------------
	BYTE	PATT
	 POIN2	vastsever8850_4_058
// 119   ----------------------------------------
	BYTE	PATT
	 POIN2	vastsever8850_4_051
// 120   ----------------------------------------
	BYTE	PATT
	 POIN2	vastsever8850_4_052
// 121   ----------------------------------------
	BYTE	PATT
	 POIN2	vastsever8850_4_061
// 122   ----------------------------------------
	BYTE	PATT
	 POIN2	vastsever8850_4_002
// 123   ----------------------------------------
	BYTE	PATT
	 POIN2	vastsever8850_4_003
// 124   ----------------------------------------
	BYTE	PATT
	 POIN2	vastsever8850_4_002
// 125   ----------------------------------------
	BYTE	PATT
	 POIN2	vastsever8850_4_005
// 126   ----------------------------------------
	BYTE	PATT
	 POIN2	vastsever8850_4_002
// 127   ----------------------------------------
	BYTE	PATT
	 POIN2	vastsever8850_4_003
// 128   ----------------------------------------
	BYTE	PATT
	 POIN2	vastsever8850_4_002
// 129   ----------------------------------------
	BYTE	PATT
	 POIN2	vastsever8850_4_005
// 130   ----------------------------------------
vastsever8850_4_130:
	BYTE		N92     An2   v112
	BYTE		N92     Dn3 
	BYTE		N92     Fn3 
	BYTE		N92     An3 
	BYTE		N92     Dn5 
	BYTE	W03
	BYTE		N90     Fn5 
	BYTE	W03
	BYTE		N88     An5 
	BYTE	W90
	BYTE	PEND
// 131   ----------------------------------------
vastsever8850_4_131:
	BYTE		N92     Gn2   v112
	BYTE		N92     Cn3 
	BYTE		N92     En3 
	BYTE		N92     An3 
	BYTE		N92     Cn5 
	BYTE	W03
	BYTE		N90     En5 
	BYTE	W03
	BYTE		N88     An5 
	BYTE	W90
	BYTE	PEND
// 132   ----------------------------------------
	BYTE	PATT
	 POIN2	vastsever8850_4_130
// 133   ----------------------------------------
	BYTE		N92     An2   v112
	BYTE		N92     Cs3 
	BYTE		N92     En3 
	BYTE		N92     An3 
	BYTE		N92     Cs5 
	BYTE	W03
	BYTE		N90     En5 
	BYTE	W03
	BYTE		N88     An5 
	BYTE	W90
// 134   ----------------------------------------
	BYTE	PATT
	 POIN2	vastsever8850_4_130
// 135   ----------------------------------------
	BYTE	PATT
	 POIN2	vastsever8850_4_131
// 136   ----------------------------------------
	BYTE	PATT
	 POIN2	vastsever8850_4_130
// 137   ----------------------------------------
	BYTE		N10     An2   v112
	BYTE		N10     Cs3 
	BYTE		N10     En3 
	BYTE		N10     An3 
	BYTE		N11     Dn5 
	BYTE	W03
	BYTE		N08     Fn5 
	BYTE	W03
	BYTE		N05     An5 
	BYTE	W42
	BYTE		N22     Dn3 
	BYTE		N22     Fn3 
	BYTE		N22     As3 
	BYTE		N22     Dn4 
	BYTE	W24
	BYTE		        En3   v127
	BYTE		N22     Gn3 
	BYTE		N22     Cn4 
	BYTE		N22     En4 
	BYTE	W24
// 138   ----------------------------------------
	BYTE	PATT
	 POIN2	vastsever8850_4_018
// 139   ----------------------------------------
	BYTE	PATT
	 POIN2	vastsever8850_4_019
// 140   ----------------------------------------
	BYTE	PATT
	 POIN2	vastsever8850_4_020
// 141   ----------------------------------------
	BYTE	PATT
	 POIN2	vastsever8850_4_021
// 142   ----------------------------------------
	BYTE	PATT
	 POIN2	vastsever8850_4_022
// 143   ----------------------------------------
	BYTE	PATT
	 POIN2	vastsever8850_4_023
// 144   ----------------------------------------
	BYTE	PATT
	 POIN2	vastsever8850_4_024
// 145   ----------------------------------------
	BYTE	PATT
	 POIN2	vastsever8850_4_025
// 146   ----------------------------------------
	BYTE	PATT
	 POIN2	vastsever8850_4_026
// 147   ----------------------------------------
	BYTE	PATT
	 POIN2	vastsever8850_4_027
// 148   ----------------------------------------
	BYTE	PATT
	 POIN2	vastsever8850_4_028
// 149   ----------------------------------------
	BYTE	PATT
	 POIN2	vastsever8850_4_029
// 150   ----------------------------------------
	BYTE	PATT
	 POIN2	vastsever8850_4_030
// 151   ----------------------------------------
	BYTE	PATT
	 POIN2	vastsever8850_4_031
// 152   ----------------------------------------
	BYTE	PATT
	 POIN2	vastsever8850_4_032
// 153   ----------------------------------------
	BYTE	PATT
	 POIN2	vastsever8850_4_033
// 154   ----------------------------------------
	BYTE		N32     Dn3   v112
	BYTE		N32     Fn3 
	BYTE		N32     An3 
	BYTE		N32     Dn4 
	BYTE		N10     An4 
	BYTE		N10     Dn5 
	BYTE		N10     Fn5 
	BYTE	W12
	BYTE		N22     An4 
	BYTE		N22     Dn5 
	BYTE		N22     Fn5 
	BYTE	W24
	BYTE		N56     Cn3 
	BYTE		N56     En3 
	BYTE		N56     Gn3 
	BYTE		N56     Cn4 
	BYTE		N56     Gn4 
	BYTE		N56     Cn5 
	BYTE		N56     En5 
	BYTE	W60
// 155   ----------------------------------------
	BYTE		N32     As2 
	BYTE		N32     Dn3 
	BYTE		N32     Gn3 
	BYTE		N32     As3 
	BYTE		N10     Gn4 
	BYTE		N10     As4 
	BYTE		N10     Dn5 
	BYTE	W12
	BYTE		N22     Gn4 
	BYTE		N22     As4 
	BYTE		N22     Dn5 
	BYTE	W24
	BYTE		N56     Cs3 
	BYTE		N56     En3 
	BYTE		N56     An3 
	BYTE		N56     Cs4 
	BYTE		N56     An4 
	BYTE		N56     Cs5 
	BYTE		N56     En5 
	BYTE	W60
// 156   ----------------------------------------
	BYTE		N32     Gn3 
	BYTE		N32     As3 
	BYTE		N32     Dn4 
	BYTE		N32     Gn4 
	BYTE		N10     Dn5 
	BYTE		N10     Gn5 
	BYTE		N10     As5 
	BYTE	W12
	BYTE		N22     Dn5 
	BYTE		N22     Gn5 
	BYTE		N22     As5 
	BYTE	W24
	BYTE		N56     En3 
	BYTE		N56     An3 
	BYTE		N56     Cs4 
	BYTE		N56     En4 
	BYTE		N56     Cs5 
	BYTE		N56     En5 
	BYTE		N56     An5 
	BYTE	W60
// 157   ----------------------------------------
	BYTE		N32     En3 
	BYTE		N32     Gn3 
	BYTE		N32     As3 
	BYTE		N32     En4 
	BYTE		N10     As4 
	BYTE		N10     En5 
	BYTE		N10     Gn5 
	BYTE	W12
	BYTE		N22     As4 
	BYTE		N22     En5 
	BYTE		N22     Gn5 
	BYTE	W24
	BYTE		N56     Cs3 
	BYTE		N56     En3 
	BYTE		N56     An3 
	BYTE		N56     Cs4 
	BYTE		N56     An4 
	BYTE		N56     Cs5 
	BYTE		N56     En5 
	BYTE	W60
// 158   ----------------------------------------
	BYTE		TIE     Dn3 
	BYTE		TIE     Fn3 
	BYTE		TIE     An3 
	BYTE		TIE     Dn4 
	BYTE		TIE     Dn5 
	BYTE		TIE     Fn5 
	BYTE		TIE     An5 
	BYTE	W96
// 159   ----------------------------------------
	BYTE	W92
	BYTE	W03
	BYTE		EOT     Dn3 
	BYTE		        Fn3 
	BYTE		        An3 
	BYTE		        Dn4 
	BYTE		        Dn5 
	BYTE		        Fn5 
	BYTE		        An5 
	BYTE	W01
// 160   ----------------------------------------
	BYTE	W96
// 161   ----------------------------------------
	BYTE	W96
// 162   ----------------------------------------
	BYTE	W96
// 163   ----------------------------------------
	BYTE	FINE

//**************** Track 5 (Midi-Chn.5) ****************//

vastsever8850_5:
	BYTE	KEYSH   vastsever8850_key+0
// 000   ----------------------------------------
	BYTE	W96
// 001   ----------------------------------------
	BYTE		VOICE   73
	BYTE		VOL     95*vastsever8850_mvl/mxv
	BYTE		PAN     c_v-20
	BYTE	W48
	BYTE		MOD     0
	BYTE		BEND    c_v+0
	BYTE	W24
	BYTE	W24
// 002   ----------------------------------------
	BYTE	W96
// 003   ----------------------------------------
	BYTE	W96
// 004   ----------------------------------------
	BYTE	W96
// 005   ----------------------------------------
	BYTE	W96
// 006   ----------------------------------------
	BYTE	W96
// 007   ----------------------------------------
	BYTE	W96
// 008   ----------------------------------------
	BYTE	W96
// 009   ----------------------------------------
	BYTE	W96
// 010   ----------------------------------------
	BYTE	W96
// 011   ----------------------------------------
	BYTE	W96
// 012   ----------------------------------------
	BYTE	W96
// 013   ----------------------------------------
	BYTE	W96
// 014   ----------------------------------------
	BYTE	W96
// 015   ----------------------------------------
	BYTE	W96
// 016   ----------------------------------------
	BYTE	W96
// 017   ----------------------------------------
	BYTE	W96
// 018   ----------------------------------------
	BYTE	W96
// 019   ----------------------------------------
	BYTE	W96
// 020   ----------------------------------------
	BYTE	W96
// 021   ----------------------------------------
	BYTE	W96
// 022   ----------------------------------------
	BYTE	W96
// 023   ----------------------------------------
	BYTE	W96
// 024   ----------------------------------------
	BYTE	W96
// 025   ----------------------------------------
	BYTE	W96
// 026   ----------------------------------------
	BYTE	W96
// 027   ----------------------------------------
	BYTE	W96
// 028   ----------------------------------------
	BYTE	W96
// 029   ----------------------------------------
	BYTE	W96
// 030   ----------------------------------------
	BYTE	W96
// 031   ----------------------------------------
	BYTE	W96
// 032   ----------------------------------------
	BYTE	W96
// 033   ----------------------------------------
	BYTE	W96
// 034   ----------------------------------------
	BYTE	W96
// 035   ----------------------------------------
	BYTE	W96
// 036   ----------------------------------------
	BYTE	W96
// 037   ----------------------------------------
	BYTE	W96
// 038   ----------------------------------------
	BYTE	W96
// 039   ----------------------------------------
	BYTE	W96
// 040   ----------------------------------------
	BYTE	W96
// 041   ----------------------------------------
	BYTE	W96
// 042   ----------------------------------------
vastsever8850_5_042:
	BYTE		N92     An5   v100
	BYTE	W22
	BYTE		MOD     0
	BYTE	W01
	BYTE		        7
	BYTE	W01
	BYTE		        23
	BYTE	W01
	BYTE		        31
	BYTE	W01
	BYTE		        39
	BYTE	W01
	BYTE		        55
	BYTE	W01
	BYTE		        63
	BYTE	W01
	BYTE		        71
	BYTE	W01
	BYTE		        87
	BYTE	W01
	BYTE		        95
	BYTE	W01
	BYTE		        103
	BYTE	W01
	BYTE		        119
	BYTE	W01
	BYTE		        127
	BYTE	W60
	BYTE		        0
	BYTE	W02
	BYTE	PEND
// 043   ----------------------------------------
vastsever8850_5_043:
	BYTE		N92     Gn5   v100
	BYTE	W24
	BYTE	W03
	BYTE		MOD     12
	BYTE	W01
	BYTE		        23
	BYTE	W01
	BYTE		        35
	BYTE	W01
	BYTE		        58
	BYTE	W01
	BYTE		        70
	BYTE	W01
	BYTE		        81
	BYTE	W01
	BYTE		        104
	BYTE	W01
	BYTE		        116
	BYTE	W01
	BYTE		        127
	BYTE	W56
	BYTE	W03
	BYTE		        0
	BYTE	W02
	BYTE	PEND
// 044   ----------------------------------------
vastsever8850_5_044:
	BYTE		N92     An5   v100
	BYTE	W24
	BYTE	W01
	BYTE		MOD     14
	BYTE	W01
	BYTE		        28
	BYTE	W01
	BYTE		        56
	BYTE	W01
	BYTE		        71
	BYTE	W01
	BYTE		        85
	BYTE	W01
	BYTE		        113
	BYTE	W01
	BYTE		        127
	BYTE	W60
	BYTE	W03
	BYTE		        0
	BYTE	W02
	BYTE	PEND
// 045   ----------------------------------------
vastsever8850_5_045:
	BYTE		N04     An4   v100
	BYTE	W06
	BYTE		        En4 
	BYTE	W06
	BYTE		        Cs5 
	BYTE	W06
	BYTE		        An4 
	BYTE	W06
	BYTE		        En5 
	BYTE	W06
	BYTE		        An4 
	BYTE	W06
	BYTE		        An5 
	BYTE	W06
	BYTE		        En5 
	BYTE	W06
	BYTE		        An4 
	BYTE	W06
	BYTE		        An5 
	BYTE	W06
	BYTE		        En5 
	BYTE	W06
	BYTE		        An4 
	BYTE	W06
	BYTE		        An5 
	BYTE	W12
	BYTE		N11     An4   v112
	BYTE	W12
	BYTE	PEND
// 046   ----------------------------------------
vastsever8850_5_046:
	BYTE		N32     An4   v112
	BYTE	W06
	BYTE		MOD     0
	BYTE	W01
	BYTE		        18
	BYTE	W01
	BYTE		        36
	BYTE	W01
	BYTE		        73
	BYTE	W01
	BYTE		        91
	BYTE	W01
	BYTE		        109
	BYTE	W01
	BYTE		        127
	BYTE	W23
	BYTE		        0
	BYTE	W01
	BYTE		N32     Gn4 
	BYTE	W36
	BYTE		N23     Cn5 
	BYTE	W24
	BYTE	PEND
// 047   ----------------------------------------
vastsever8850_5_047:
	BYTE		N32     An4   v112
	BYTE	W06
	BYTE		MOD     31
	BYTE	W01
	BYTE		        47
	BYTE	W01
	BYTE		        63
	BYTE	W01
	BYTE		        95
	BYTE	W01
	BYTE		        111
	BYTE	W01
	BYTE		        127
	BYTE	W24
	BYTE		        0
	BYTE	W01
	BYTE		N23     Dn4 
	BYTE	W24
	BYTE		N11     En4 
	BYTE	W12
	BYTE		        Fn4 
	BYTE	W12
	BYTE		        Gn4 
	BYTE	W12
	BYTE	PEND
// 048   ----------------------------------------
vastsever8850_5_048:
	BYTE		N32     An4   v112
	BYTE	W36
	BYTE		        Gn4 
	BYTE	W09
	BYTE		MOD     25
	BYTE	W01
	BYTE		        51
	BYTE	W01
	BYTE		        76
	BYTE	W01
	BYTE		        127
	BYTE	W23
	BYTE		        0
	BYTE	W01
	BYTE		N11     Dn4 
	BYTE	W12
	BYTE		        En4 
	BYTE	W12
	BYTE	PEND
// 049   ----------------------------------------
vastsever8850_5_049:
	BYTE		N23     Fn4   v112
	BYTE	W24
	BYTE		N11     Gn4 
	BYTE	W12
	BYTE		N32     En4 
	BYTE	W04
	BYTE		MOD     0
	BYTE	W01
	BYTE		        15
	BYTE	W01
	BYTE		        47
	BYTE	W01
	BYTE		        63
	BYTE	W01
	BYTE		        79
	BYTE	W01
	BYTE		        111
	BYTE	W01
	BYTE		        127
	BYTE	W24
	BYTE	W01
	BYTE		        0
	BYTE	W01
	BYTE		N23     Cn4 
	BYTE	W24
	BYTE	PEND
// 050   ----------------------------------------
vastsever8850_5_050:
	BYTE		N56     As3   v112
	BYTE	W60
	BYTE		N11     Cn4 
	BYTE	W12
	BYTE		        Dn4 
	BYTE	W12
	BYTE		        Fn4 
	BYTE	W12
	BYTE	PEND
// 051   ----------------------------------------
vastsever8850_5_051:
	BYTE		N32     En4   v112
	BYTE	W05
	BYTE		MOD     0
	BYTE	W01
	BYTE		        32
	BYTE	W01
	BYTE		        48
	BYTE	W01
	BYTE		        64
	BYTE	W01
	BYTE		        96
	BYTE	W01
	BYTE		        112
	BYTE	W01
	BYTE		        127
	BYTE	W24
	BYTE		        0
	BYTE	W01
	BYTE		N32     Fn4 
	BYTE	W36
	BYTE		N23     Gn4 
	BYTE	W24
	BYTE	PEND
// 052   ----------------------------------------
vastsever8850_5_052:
	BYTE		N32     An4   v112
	BYTE	W08
	BYTE		MOD     21
	BYTE	W01
	BYTE		        63
	BYTE	W01
	BYTE		        85
	BYTE	W01
	BYTE		        107
	BYTE	W01
	BYTE		        127
	BYTE	W23
	BYTE		        0
	BYTE	W01
	BYTE		N32     Gn4 
	BYTE	W36
	BYTE		N23     Cn5 
	BYTE	W24
	BYTE	PEND
// 053   ----------------------------------------
vastsever8850_5_053:
	BYTE		N44     An4   v112
	BYTE	W09
	BYTE		MOD     21
	BYTE	W01
	BYTE		        42
	BYTE	W01
	BYTE		        63
	BYTE	W01
	BYTE		        106
	BYTE	W01
	BYTE		        127
	BYTE	W32
	BYTE		        0
	BYTE	W03
	BYTE		N11     Dn4 
	BYTE	W12
	BYTE		        En4 
	BYTE	W12
	BYTE		        Fn4 
	BYTE	W12
	BYTE		        Gn4 
	BYTE	W12
	BYTE	PEND
// 054   ----------------------------------------
	BYTE	PATT
	 POIN2	vastsever8850_5_046
// 055   ----------------------------------------
	BYTE	PATT
	 POIN2	vastsever8850_5_047
// 056   ----------------------------------------
	BYTE	PATT
	 POIN2	vastsever8850_5_048
// 057   ----------------------------------------
	BYTE	PATT
	 POIN2	vastsever8850_5_049
// 058   ----------------------------------------
	BYTE	PATT
	 POIN2	vastsever8850_5_050
// 059   ----------------------------------------
	BYTE	PATT
	 POIN2	vastsever8850_5_051
// 060   ----------------------------------------
	BYTE		N11     En4   v112
	BYTE	W12
	BYTE		        Dn4 
	BYTE	W12
	BYTE		        Cn5 
	BYTE	W12
	BYTE		N23     En5 
	BYTE	W24
	BYTE		N11     Gn5 
	BYTE	W12
	BYTE		        En5 
	BYTE	W12
	BYTE		N92     Dn5 
	BYTE	W12
// 061   ----------------------------------------
	BYTE	W09
	BYTE		MOD     21
	BYTE	W01
	BYTE		        42
	BYTE	W01
	BYTE		        63
	BYTE	W01
	BYTE		        106
	BYTE	W01
	BYTE		        127
	BYTE	W76
	BYTE	W01
	BYTE		        0
	BYTE	W06
// 062   ----------------------------------------
	BYTE	W96
// 063   ----------------------------------------
	BYTE	W96
// 064   ----------------------------------------
	BYTE	W96
// 065   ----------------------------------------
	BYTE	W96
// 066   ----------------------------------------
	BYTE	W96
// 067   ----------------------------------------
	BYTE	W96
// 068   ----------------------------------------
	BYTE	W96
// 069   ----------------------------------------
	BYTE	W96
// 070   ----------------------------------------
	BYTE	W96
// 071   ----------------------------------------
	BYTE	W96
// 072   ----------------------------------------
	BYTE	W96
// 073   ----------------------------------------
	BYTE	W96
// 074   ----------------------------------------
	BYTE	W96
// 075   ----------------------------------------
	BYTE	W96
// 076   ----------------------------------------
	BYTE	W96
// 077   ----------------------------------------
	BYTE	W96
// 078   ----------------------------------------
	BYTE	W96
// 079   ----------------------------------------
	BYTE	W96
// 080   ----------------------------------------
	BYTE	W96
// 081   ----------------------------------------
	BYTE	W96
// 082   ----------------------------------------
	BYTE	W96
// 083   ----------------------------------------
	BYTE	W96
// 084   ----------------------------------------
	BYTE	W96
// 085   ----------------------------------------
	BYTE	W96
// 086   ----------------------------------------
	BYTE	W96
// 087   ----------------------------------------
	BYTE	W96
// 088   ----------------------------------------
	BYTE	W96
// 089   ----------------------------------------
	BYTE	W96
// 090   ----------------------------------------
	BYTE	W96
// 091   ----------------------------------------
	BYTE	W96
// 092   ----------------------------------------
	BYTE	W96
// 093   ----------------------------------------
	BYTE	W96
// 094   ----------------------------------------
	BYTE	W96
// 095   ----------------------------------------
	BYTE	W96
// 096   ----------------------------------------
	BYTE	W96
// 097   ----------------------------------------
	BYTE	W96
// 098   ----------------------------------------
	BYTE	W96
// 099   ----------------------------------------
	BYTE	W96
// 100   ----------------------------------------
	BYTE	W96
// 101   ----------------------------------------
	BYTE	W96
// 102   ----------------------------------------
	BYTE	PATT
	 POIN2	vastsever8850_5_042
// 103   ----------------------------------------
	BYTE	PATT
	 POIN2	vastsever8850_5_043
// 104   ----------------------------------------
	BYTE	PATT
	 POIN2	vastsever8850_5_044
// 105   ----------------------------------------
	BYTE	PATT
	 POIN2	vastsever8850_5_045
// 106   ----------------------------------------
	BYTE	PATT
	 POIN2	vastsever8850_5_046
// 107   ----------------------------------------
	BYTE	PATT
	 POIN2	vastsever8850_5_047
// 108   ----------------------------------------
	BYTE	PATT
	 POIN2	vastsever8850_5_048
// 109   ----------------------------------------
	BYTE	PATT
	 POIN2	vastsever8850_5_049
// 110   ----------------------------------------
	BYTE	PATT
	 POIN2	vastsever8850_5_050
// 111   ----------------------------------------
	BYTE	PATT
	 POIN2	vastsever8850_5_051
// 112   ----------------------------------------
	BYTE	PATT
	 POIN2	vastsever8850_5_052
// 113   ----------------------------------------
	BYTE	PATT
	 POIN2	vastsever8850_5_053
// 114   ----------------------------------------
	BYTE	PATT
	 POIN2	vastsever8850_5_046
// 115   ----------------------------------------
	BYTE	PATT
	 POIN2	vastsever8850_5_047
// 116   ----------------------------------------
	BYTE	PATT
	 POIN2	vastsever8850_5_048
// 117   ----------------------------------------
	BYTE	PATT
	 POIN2	vastsever8850_5_049
// 118   ----------------------------------------
	BYTE	PATT
	 POIN2	vastsever8850_5_050
// 119   ----------------------------------------
	BYTE	PATT
	 POIN2	vastsever8850_5_051
// 120   ----------------------------------------
	BYTE		N92     En4   v112
	BYTE	W96
// 121   ----------------------------------------
	BYTE		N76     Fn4 
	BYTE	W09
	BYTE		MOD     21
	BYTE	W01
	BYTE		        42
	BYTE	W01
	BYTE		        63
	BYTE	W01
	BYTE		        106
	BYTE	W01
	BYTE		        127
	BYTE	W64
	BYTE		        0
	BYTE	W07
	BYTE		N05     Dn4 
	BYTE	W06
	BYTE		        En4 
	BYTE	W06
// 122   ----------------------------------------
	BYTE		N32     Fn4 
	BYTE	W36
	BYTE		        An4 
	BYTE	W36
	BYTE		N22     Fn4 
	BYTE	W24
// 123   ----------------------------------------
	BYTE		N32     En4 
	BYTE	W36
	BYTE		        Gn4 
	BYTE	W36
	BYTE		N22     En4 
	BYTE	W24
// 124   ----------------------------------------
	BYTE		        Dn4 
	BYTE	W24
	BYTE		N11     En4 
	BYTE	W12
	BYTE		N22     Fn4 
	BYTE	W24
	BYTE		N11     An4 
	BYTE	W12
	BYTE		        Gn4 
	BYTE	W12
	BYTE		        Fn4 
	BYTE	W12
// 125   ----------------------------------------
	BYTE		N22     En4 
	BYTE	W24
	BYTE		N11     An4 
	BYTE	W12
	BYTE		        En4 
	BYTE	W12
	BYTE		        Dn5 
	BYTE	W12
	BYTE		        An4 
	BYTE	W12
	BYTE		        En5 
	BYTE	W12
	BYTE		        An4 
	BYTE	W12
// 126   ----------------------------------------
	BYTE		N32     An5 
	BYTE	W03
	BYTE		MOD     18
	BYTE	W01
	BYTE		        37
	BYTE	W01
	BYTE		        55
	BYTE	W01
	BYTE		        91
	BYTE	W01
	BYTE		        109
	BYTE	W01
	BYTE		        127
	BYTE	W24
	BYTE	W03
	BYTE		        0
	BYTE	W01
	BYTE		N05     Gn5 
	BYTE	W06
	BYTE		        Fn5 
	BYTE	W06
	BYTE		        An4 
	BYTE	W12
	BYTE		N11     An5 
	BYTE	W12
	BYTE		        Gn5 
	BYTE	W12
	BYTE		        Fn5 
	BYTE	W12
// 127   ----------------------------------------
	BYTE		N32     En5 
	BYTE	W04
	BYTE		MOD     21
	BYTE	W01
	BYTE		        42
	BYTE	W01
	BYTE		        84
	BYTE	W01
	BYTE		        105
	BYTE	W01
	BYTE		        127
	BYTE	W24
	BYTE	W03
	BYTE		        0
	BYTE	W01
	BYTE		N05     Gn5 
	BYTE	W06
	BYTE		        An5 
	BYTE	W06
	BYTE		N22     En6 
	BYTE	W24
	BYTE		        Cn6 
	BYTE	W24
// 128   ----------------------------------------
	BYTE		N32     An5 
	BYTE	W36
	BYTE		N22     Fn5 
	BYTE	W24
	BYTE		        Dn5 
	BYTE	W24
	BYTE		N05     En5 
	BYTE	W06
	BYTE		        Dn5 
	BYTE	W06
// 129   ----------------------------------------
	BYTE		N88     Cs5 
	BYTE	W11
	BYTE		MOD     11
	BYTE	W01
	BYTE		        34
	BYTE	W01
	BYTE		        46
	BYTE	W01
	BYTE		        58
	BYTE	W01
	BYTE		        81
	BYTE	W01
	BYTE		        93
	BYTE	W01
	BYTE		        104
	BYTE	W01
	BYTE		        127
	BYTE	W72
	BYTE		        0
	BYTE	W06
// 130   ----------------------------------------
	BYTE	W96
// 131   ----------------------------------------
	BYTE	W96
// 132   ----------------------------------------
	BYTE	W96
// 133   ----------------------------------------
	BYTE	W96
// 134   ----------------------------------------
	BYTE	W96
// 135   ----------------------------------------
	BYTE	W96
// 136   ----------------------------------------
	BYTE	W96
// 137   ----------------------------------------
	BYTE	W96
// 138   ----------------------------------------
	BYTE	W96
// 139   ----------------------------------------
	BYTE	W96
// 140   ----------------------------------------
	BYTE	W96
// 141   ----------------------------------------
	BYTE	W96
// 142   ----------------------------------------
	BYTE	W96
// 143   ----------------------------------------
	BYTE	W96
// 144   ----------------------------------------
	BYTE	W96
// 145   ----------------------------------------
	BYTE	W96
// 146   ----------------------------------------
	BYTE	W96
// 147   ----------------------------------------
	BYTE	W96
// 148   ----------------------------------------
	BYTE	W96
// 149   ----------------------------------------
	BYTE	W96
// 150   ----------------------------------------
	BYTE	W96
// 151   ----------------------------------------
	BYTE	W96
// 152   ----------------------------------------
	BYTE	W96
// 153   ----------------------------------------
	BYTE	W96
// 154   ----------------------------------------
	BYTE	W96
// 155   ----------------------------------------
	BYTE	W96
// 156   ----------------------------------------
	BYTE	W96
// 157   ----------------------------------------
	BYTE	W96
// 158   ----------------------------------------
	BYTE	W96
// 159   ----------------------------------------
	BYTE	W96
// 160   ----------------------------------------
	BYTE	W96
// 161   ----------------------------------------
	BYTE	W96
// 162   ----------------------------------------
	BYTE	W96
// 163   ----------------------------------------
	BYTE	FINE

//**************** Track 6 (Midi-Chn.6) ****************//

vastsever8850_6:
	BYTE	KEYSH   vastsever8850_key+0
// 000   ----------------------------------------
	BYTE	W96
// 001   ----------------------------------------
	BYTE		VOICE   66
	BYTE		VOL     90*vastsever8850_mvl/mxv
	BYTE		PAN     c_v+20
	BYTE	W48
	BYTE		MOD     0
	BYTE		BEND    c_v+0
	BYTE	W24
	BYTE	W24
// 002   ----------------------------------------
	BYTE	W96
// 003   ----------------------------------------
	BYTE	W96
// 004   ----------------------------------------
	BYTE	W96
// 005   ----------------------------------------
	BYTE	W96
// 006   ----------------------------------------
	BYTE	W96
// 007   ----------------------------------------
	BYTE	W96
// 008   ----------------------------------------
	BYTE	W96
// 009   ----------------------------------------
	BYTE	W96
// 010   ----------------------------------------
	BYTE	W96
// 011   ----------------------------------------
	BYTE	W96
// 012   ----------------------------------------
	BYTE	W96
// 013   ----------------------------------------
	BYTE	W96
// 014   ----------------------------------------
	BYTE	W96
// 015   ----------------------------------------
	BYTE	W96
// 016   ----------------------------------------
	BYTE	W96
// 017   ----------------------------------------
	BYTE	W96
// 018   ----------------------------------------
	BYTE	W96
// 019   ----------------------------------------
	BYTE	W96
// 020   ----------------------------------------
	BYTE	W96
// 021   ----------------------------------------
	BYTE	W96
// 022   ----------------------------------------
	BYTE	W96
// 023   ----------------------------------------
	BYTE	W96
// 024   ----------------------------------------
	BYTE	W96
// 025   ----------------------------------------
	BYTE	W96
// 026   ----------------------------------------
	BYTE	W96
// 027   ----------------------------------------
	BYTE	W96
// 028   ----------------------------------------
	BYTE	W96
// 029   ----------------------------------------
	BYTE	W96
// 030   ----------------------------------------
	BYTE	W96
// 031   ----------------------------------------
	BYTE	W96
// 032   ----------------------------------------
	BYTE	W96
// 033   ----------------------------------------
	BYTE	W96
// 034   ----------------------------------------
	BYTE	W96
// 035   ----------------------------------------
	BYTE	W96
// 036   ----------------------------------------
	BYTE	W96
// 037   ----------------------------------------
	BYTE	W96
// 038   ----------------------------------------
	BYTE	W96
// 039   ----------------------------------------
	BYTE	W96
// 040   ----------------------------------------
	BYTE	W96
// 041   ----------------------------------------
	BYTE	W96
// 042   ----------------------------------------
	BYTE	W96
// 043   ----------------------------------------
	BYTE	W96
// 044   ----------------------------------------
	BYTE	W96
// 045   ----------------------------------------
	BYTE	W84
	BYTE		N11     Dn4   v112
	BYTE	W12
// 046   ----------------------------------------
vastsever8850_6_046:
	BYTE		N32     Dn4   v112
	BYTE	W06
	BYTE		MOD     0
	BYTE	W01
	BYTE		        18
	BYTE	W01
	BYTE		        36
	BYTE	W01
	BYTE		        73
	BYTE	W01
	BYTE		        91
	BYTE	W01
	BYTE		        109
	BYTE	W01
	BYTE		        127
	BYTE	W23
	BYTE		        0
	BYTE	W01
	BYTE		N32     Cn4 
	BYTE	W36
	BYTE		N23     En4 
	BYTE	W24
	BYTE	PEND
// 047   ----------------------------------------
vastsever8850_6_047:
	BYTE		N32     Cn4   v112
	BYTE	W06
	BYTE		MOD     31
	BYTE	W01
	BYTE		        47
	BYTE	W01
	BYTE		        63
	BYTE	W01
	BYTE		        95
	BYTE	W01
	BYTE		        111
	BYTE	W01
	BYTE		        127
	BYTE	W24
	BYTE		        0
	BYTE	W01
	BYTE		N23     Gn3 
	BYTE	W24
	BYTE		N11     An3 
	BYTE	W12
	BYTE		        As3 
	BYTE	W12
	BYTE		        Cn4 
	BYTE	W12
	BYTE	PEND
// 048   ----------------------------------------
vastsever8850_6_048:
	BYTE		N32     Bn3   v112
	BYTE	W36
	BYTE		        Cn4 
	BYTE	W09
	BYTE		MOD     25
	BYTE	W01
	BYTE		        51
	BYTE	W01
	BYTE		        76
	BYTE	W01
	BYTE		        127
	BYTE	W23
	BYTE		        0
	BYTE	W01
	BYTE		N11     Gn3 
	BYTE	W12
	BYTE		        An3 
	BYTE	W12
	BYTE	PEND
// 049   ----------------------------------------
vastsever8850_6_049:
	BYTE		N23     As3   v112
	BYTE	W24
	BYTE		N11     Cn4 
	BYTE	W12
	BYTE		N32     An3 
	BYTE	W04
	BYTE		MOD     0
	BYTE	W01
	BYTE		        15
	BYTE	W01
	BYTE		        47
	BYTE	W01
	BYTE		        63
	BYTE	W01
	BYTE		        79
	BYTE	W01
	BYTE		        111
	BYTE	W01
	BYTE		        127
	BYTE	W24
	BYTE	W01
	BYTE		        0
	BYTE	W01
	BYTE		N23     Fn3 
	BYTE	W24
	BYTE	PEND
// 050   ----------------------------------------
vastsever8850_6_050:
	BYTE		N56     Dn3   v112
	BYTE	W60
	BYTE		N11     Fn3 
	BYTE	W12
	BYTE		        Gn3 
	BYTE	W12
	BYTE		        An3 
	BYTE	W12
	BYTE	PEND
// 051   ----------------------------------------
vastsever8850_6_051:
	BYTE		N32     Gn3   v112
	BYTE	W05
	BYTE		MOD     0
	BYTE	W01
	BYTE		        32
	BYTE	W01
	BYTE		        48
	BYTE	W01
	BYTE		        64
	BYTE	W01
	BYTE		        96
	BYTE	W01
	BYTE		        112
	BYTE	W01
	BYTE		        127
	BYTE	W24
	BYTE		        0
	BYTE	W01
	BYTE		N32     As3 
	BYTE	W36
	BYTE		N23     Cn4 
	BYTE	W24
	BYTE	PEND
// 052   ----------------------------------------
vastsever8850_6_052:
	BYTE		N32     Dn4   v112
	BYTE	W08
	BYTE		MOD     21
	BYTE	W01
	BYTE		        63
	BYTE	W01
	BYTE		        85
	BYTE	W01
	BYTE		        107
	BYTE	W01
	BYTE		        127
	BYTE	W23
	BYTE		        0
	BYTE	W01
	BYTE		N32     Cn4 
	BYTE	W36
	BYTE		N23     Fn4 
	BYTE	W24
	BYTE	PEND
// 053   ----------------------------------------
vastsever8850_6_053:
	BYTE		N32     Dn4   v112
	BYTE	W09
	BYTE		MOD     21
	BYTE	W01
	BYTE		        42
	BYTE	W01
	BYTE		        63
	BYTE	W01
	BYTE		        106
	BYTE	W01
	BYTE		        127
	BYTE	W21
	BYTE		        0
	BYTE	W02
	BYTE		N22     Cs4 
	BYTE	W24
	BYTE		N11     An3 
	BYTE	W12
	BYTE		        Dn4 
	BYTE	W12
	BYTE		        En4 
	BYTE	W12
	BYTE	PEND
// 054   ----------------------------------------
vastsever8850_6_054:
	BYTE		N32     Fn4   v112
	BYTE	W07
	BYTE		MOD     18
	BYTE	W01
	BYTE		        36
	BYTE	W01
	BYTE		        73
	BYTE	W01
	BYTE		        91
	BYTE	W01
	BYTE		        109
	BYTE	W01
	BYTE		        127
	BYTE	W23
	BYTE		        0
	BYTE	W01
	BYTE		N32     En4 
	BYTE	W36
	BYTE		N23     Gn4 
	BYTE	W24
	BYTE	PEND
// 055   ----------------------------------------
vastsever8850_6_055:
	BYTE		N32     Fn4   v112
	BYTE	W06
	BYTE		MOD     31
	BYTE	W01
	BYTE		        47
	BYTE	W01
	BYTE		        63
	BYTE	W01
	BYTE		        95
	BYTE	W01
	BYTE		        111
	BYTE	W01
	BYTE		        127
	BYTE	W24
	BYTE		        0
	BYTE	W01
	BYTE		N23     As3 
	BYTE	W24
	BYTE		N11     Cn4 
	BYTE	W12
	BYTE		        Dn4 
	BYTE	W12
	BYTE		        En4 
	BYTE	W12
	BYTE	PEND
// 056   ----------------------------------------
vastsever8850_6_056:
	BYTE		N32     Fn4   v112
	BYTE	W36
	BYTE		        En4 
	BYTE	W09
	BYTE		MOD     25
	BYTE	W01
	BYTE		        51
	BYTE	W01
	BYTE		        76
	BYTE	W01
	BYTE		        127
	BYTE	W23
	BYTE		        0
	BYTE	W01
	BYTE		N11     An3 
	BYTE	W12
	BYTE		        Cn4 
	BYTE	W12
	BYTE	PEND
// 057   ----------------------------------------
vastsever8850_6_057:
	BYTE		N23     As3   v112
	BYTE	W24
	BYTE		N11     An3 
	BYTE	W12
	BYTE		N32     Cn4 
	BYTE	W04
	BYTE		MOD     0
	BYTE	W01
	BYTE		        15
	BYTE	W01
	BYTE		        47
	BYTE	W01
	BYTE		        63
	BYTE	W01
	BYTE		        79
	BYTE	W01
	BYTE		        111
	BYTE	W01
	BYTE		        127
	BYTE	W24
	BYTE	W01
	BYTE		        0
	BYTE	W01
	BYTE		N23     An3 
	BYTE	W24
	BYTE	PEND
// 058   ----------------------------------------
vastsever8850_6_058:
	BYTE		N56     Gn3   v112
	BYTE	W60
	BYTE		N11   
	BYTE	W12
	BYTE		        An3 
	BYTE	W12
	BYTE		        As3 
	BYTE	W12
	BYTE	PEND
// 059   ----------------------------------------
vastsever8850_6_059:
	BYTE		N32     Cn4   v112
	BYTE	W05
	BYTE		MOD     0
	BYTE	W01
	BYTE		        32
	BYTE	W01
	BYTE		        48
	BYTE	W01
	BYTE		        64
	BYTE	W01
	BYTE		        96
	BYTE	W01
	BYTE		        112
	BYTE	W01
	BYTE		        127
	BYTE	W24
	BYTE		        0
	BYTE	W01
	BYTE		N32     Dn4 
	BYTE	W36
	BYTE		N23     En4 
	BYTE	W24
	BYTE	PEND
// 060   ----------------------------------------
	BYTE		N32     Cn4 
	BYTE	W36
	BYTE		        En4 
	BYTE	W36
	BYTE		N22     Gn4 
	BYTE	W24
// 061   ----------------------------------------
	BYTE		N92     Fn4 
	BYTE	W09
	BYTE		MOD     21
	BYTE	W01
	BYTE		        42
	BYTE	W01
	BYTE		        63
	BYTE	W01
	BYTE		        106
	BYTE	W01
	BYTE		        127
	BYTE	W76
	BYTE	W01
	BYTE		        0
	BYTE	W06
// 062   ----------------------------------------
	BYTE	W96
// 063   ----------------------------------------
	BYTE	W96
// 064   ----------------------------------------
	BYTE	W96
// 065   ----------------------------------------
	BYTE	W96
// 066   ----------------------------------------
	BYTE	W96
// 067   ----------------------------------------
	BYTE	W96
// 068   ----------------------------------------
	BYTE	W96
// 069   ----------------------------------------
	BYTE	W96
// 070   ----------------------------------------
	BYTE	W96
// 071   ----------------------------------------
	BYTE	W96
// 072   ----------------------------------------
	BYTE	W96
// 073   ----------------------------------------
	BYTE	W96
// 074   ----------------------------------------
	BYTE	W96
// 075   ----------------------------------------
	BYTE	W96
// 076   ----------------------------------------
	BYTE	W96
// 077   ----------------------------------------
	BYTE	W96
// 078   ----------------------------------------
	BYTE	W96
// 079   ----------------------------------------
	BYTE	W96
// 080   ----------------------------------------
	BYTE	W96
// 081   ----------------------------------------
	BYTE	W96
// 082   ----------------------------------------
	BYTE	W96
// 083   ----------------------------------------
	BYTE	W96
// 084   ----------------------------------------
	BYTE	W96
// 085   ----------------------------------------
	BYTE	W96
// 086   ----------------------------------------
	BYTE	W96
// 087   ----------------------------------------
	BYTE	W96
// 088   ----------------------------------------
	BYTE	W96
// 089   ----------------------------------------
	BYTE	W96
// 090   ----------------------------------------
	BYTE	W96
// 091   ----------------------------------------
	BYTE	W96
// 092   ----------------------------------------
	BYTE	W96
// 093   ----------------------------------------
	BYTE	W96
// 094   ----------------------------------------
	BYTE	W96
// 095   ----------------------------------------
	BYTE	W96
// 096   ----------------------------------------
	BYTE	W96
// 097   ----------------------------------------
	BYTE	W96
// 098   ----------------------------------------
	BYTE	W96
// 099   ----------------------------------------
	BYTE	W96
// 100   ----------------------------------------
	BYTE	W96
// 101   ----------------------------------------
	BYTE	W96
// 102   ----------------------------------------
	BYTE	W96
// 103   ----------------------------------------
	BYTE	W96
// 104   ----------------------------------------
	BYTE	W96
// 105   ----------------------------------------
	BYTE	W84
	BYTE		N11     Dn4 
	BYTE	W12
// 106   ----------------------------------------
	BYTE	PATT
	 POIN2	vastsever8850_6_046
// 107   ----------------------------------------
	BYTE	PATT
	 POIN2	vastsever8850_6_047
// 108   ----------------------------------------
	BYTE	PATT
	 POIN2	vastsever8850_6_048
// 109   ----------------------------------------
	BYTE	PATT
	 POIN2	vastsever8850_6_049
// 110   ----------------------------------------
	BYTE	PATT
	 POIN2	vastsever8850_6_050
// 111   ----------------------------------------
	BYTE	PATT
	 POIN2	vastsever8850_6_051
// 112   ----------------------------------------
	BYTE	PATT
	 POIN2	vastsever8850_6_052
// 113   ----------------------------------------
	BYTE	PATT
	 POIN2	vastsever8850_6_053
// 114   ----------------------------------------
	BYTE	PATT
	 POIN2	vastsever8850_6_054
// 115   ----------------------------------------
	BYTE	PATT
	 POIN2	vastsever8850_6_055
// 116   ----------------------------------------
	BYTE	PATT
	 POIN2	vastsever8850_6_056
// 117   ----------------------------------------
	BYTE	PATT
	 POIN2	vastsever8850_6_057
// 118   ----------------------------------------
	BYTE	PATT
	 POIN2	vastsever8850_6_058
// 119   ----------------------------------------
	BYTE	PATT
	 POIN2	vastsever8850_6_059
// 120   ----------------------------------------
	BYTE		N32     Cn4   v112
	BYTE	W36
	BYTE		        Gn4 
	BYTE	W36
	BYTE		N22     As4 
	BYTE	W24
// 121   ----------------------------------------
	BYTE		N92     An4 
	BYTE	W09
	BYTE		MOD     21
	BYTE	W01
	BYTE		        42
	BYTE	W01
	BYTE		        63
	BYTE	W01
	BYTE		        106
	BYTE	W01
	BYTE		        127
	BYTE	W76
	BYTE	W01
	BYTE		        0
	BYTE	W06
// 122   ----------------------------------------
	BYTE	W96
// 123   ----------------------------------------
	BYTE	W96
// 124   ----------------------------------------
	BYTE	W96
// 125   ----------------------------------------
	BYTE	W96
// 126   ----------------------------------------
	BYTE	W96
// 127   ----------------------------------------
	BYTE	W96
// 128   ----------------------------------------
	BYTE	W96
// 129   ----------------------------------------
	BYTE	W96
// 130   ----------------------------------------
	BYTE	W96
// 131   ----------------------------------------
	BYTE	W96
// 132   ----------------------------------------
	BYTE	W96
// 133   ----------------------------------------
	BYTE	W96
// 134   ----------------------------------------
	BYTE	W96
// 135   ----------------------------------------
	BYTE	W96
// 136   ----------------------------------------
	BYTE	W96
// 137   ----------------------------------------
	BYTE	W96
// 138   ----------------------------------------
	BYTE	W96
// 139   ----------------------------------------
	BYTE	W96
// 140   ----------------------------------------
	BYTE	W96
// 141   ----------------------------------------
	BYTE	W96
// 142   ----------------------------------------
	BYTE	W96
// 143   ----------------------------------------
	BYTE	W96
// 144   ----------------------------------------
	BYTE	W96
// 145   ----------------------------------------
	BYTE	W96
// 146   ----------------------------------------
	BYTE	W96
// 147   ----------------------------------------
	BYTE	W96
// 148   ----------------------------------------
	BYTE	W96
// 149   ----------------------------------------
	BYTE	W96
// 150   ----------------------------------------
	BYTE	W96
// 151   ----------------------------------------
	BYTE	W96
// 152   ----------------------------------------
	BYTE	W96
// 153   ----------------------------------------
	BYTE	W96
// 154   ----------------------------------------
	BYTE	W96
// 155   ----------------------------------------
	BYTE	W96
// 156   ----------------------------------------
	BYTE	W96
// 157   ----------------------------------------
	BYTE	W96
// 158   ----------------------------------------
	BYTE	W96
// 159   ----------------------------------------
	BYTE	W96
// 160   ----------------------------------------
	BYTE	W96
// 161   ----------------------------------------
	BYTE	W96
// 162   ----------------------------------------
	BYTE	W96
// 163   ----------------------------------------
	BYTE	FINE

//**************** Track 7 (Midi-Chn.7) ****************//

vastsever8850_7:
	BYTE	KEYSH   vastsever8850_key+0
// 000   ----------------------------------------
	BYTE	W96
// 001   ----------------------------------------
	BYTE		VOICE   25
	BYTE		VOL     100*vastsever8850_mvl/mxv
	BYTE		PAN     c_v-64
	BYTE	W48
	BYTE		MOD     0
	BYTE		BEND    c_v+0
	BYTE	W24
	BYTE	W06
	BYTE	W06
	BYTE	W06
	BYTE	W06
// 002   ----------------------------------------
vastsever8850_7_002:
	BYTE		N92     An2   v100
	BYTE		N32     Dn3 
	BYTE	W12
	BYTE		N23     Fn3 
	BYTE	W12
	BYTE		N11     An3 
	BYTE	W12
	BYTE		N32     Dn3 
	BYTE	W12
	BYTE		N23     Fn3 
	BYTE	W12
	BYTE		N11     An3 
	BYTE	W12
	BYTE		N23     Dn3 
	BYTE	W12
	BYTE		N11     Fn3 
	BYTE	W12
	BYTE	PEND
// 003   ----------------------------------------
vastsever8850_7_003:
	BYTE		N92     Gn2   v100
	BYTE		N11     An3 
	BYTE	W12
	BYTE		N32     Cn3 
	BYTE	W12
	BYTE		N23     En3 
	BYTE	W12
	BYTE		N11     An3 
	BYTE	W12
	BYTE		N32     Cn3 
	BYTE	W12
	BYTE		N23     En3 
	BYTE	W12
	BYTE		N11     An3 
	BYTE	W12
	BYTE		N10     Cn3 
	BYTE	W12
	BYTE	PEND
// 004   ----------------------------------------
vastsever8850_7_004:
	BYTE		N92     Fn2   v100
	BYTE		N22     Dn3 
	BYTE	W12
	BYTE		N11     An3 
	BYTE	W12
	BYTE		N32     As2 
	BYTE	W12
	BYTE		N23     Dn3 
	BYTE	W12
	BYTE		N11     An3 
	BYTE	W12
	BYTE		N32     As2 
	BYTE	W12
	BYTE		N23     Dn3 
	BYTE	W12
	BYTE		N11     An3 
	BYTE	W12
	BYTE	PEND
// 005   ----------------------------------------
vastsever8850_7_005:
	BYTE		N92     En2   v100
	BYTE		N32     An2 
	BYTE	W12
	BYTE		N23     En3 
	BYTE	W12
	BYTE		N11     An3 
	BYTE	W12
	BYTE		N23     An2 
	BYTE	W12
	BYTE		N11     En3 
	BYTE	W12
	BYTE		N32     An3 
	BYTE	W12
	BYTE		N23     En3 
	BYTE	W12
	BYTE		N11     An2 
	BYTE	W12
	BYTE	PEND
// 006   ----------------------------------------
	BYTE	PATT
	 POIN2	vastsever8850_7_002
// 007   ----------------------------------------
	BYTE	PATT
	 POIN2	vastsever8850_7_003
// 008   ----------------------------------------
	BYTE	PATT
	 POIN2	vastsever8850_7_004
// 009   ----------------------------------------
	BYTE	PATT
	 POIN2	vastsever8850_7_005
// 010   ----------------------------------------
	BYTE	PATT
	 POIN2	vastsever8850_7_002
// 011   ----------------------------------------
	BYTE	PATT
	 POIN2	vastsever8850_7_003
// 012   ----------------------------------------
	BYTE	PATT
	 POIN2	vastsever8850_7_004
// 013   ----------------------------------------
	BYTE	PATT
	 POIN2	vastsever8850_7_005
// 014   ----------------------------------------
	BYTE	PATT
	 POIN2	vastsever8850_7_002
// 015   ----------------------------------------
	BYTE	PATT
	 POIN2	vastsever8850_7_003
// 016   ----------------------------------------
	BYTE	PATT
	 POIN2	vastsever8850_7_004
// 017   ----------------------------------------
	BYTE	PATT
	 POIN2	vastsever8850_7_005
// 018   ----------------------------------------
vastsever8850_7_018:
	BYTE		N92     An2   v100
	BYTE	W12
	BYTE		N80     Dn3 
	BYTE	W12
	BYTE		N68     Fn3 
	BYTE	W12
	BYTE		N56     An3 
	BYTE	W60
	BYTE	PEND
// 019   ----------------------------------------
vastsever8850_7_019:
	BYTE		N92     An2   v100
	BYTE	W12
	BYTE		N80     Cn3 
	BYTE	W12
	BYTE		N68     Fn3 
	BYTE	W12
	BYTE		N56     An3 
	BYTE	W60
	BYTE	PEND
// 020   ----------------------------------------
vastsever8850_7_020:
	BYTE		N32     Gn2   v100
	BYTE	W12
	BYTE		N22     Cn3 
	BYTE	W12
	BYTE		N10     En3 
	BYTE	W12
	BYTE		N56     Gn3 
	BYTE	W24
	BYTE		N32     Fn3 
	BYTE	W12
	BYTE		N22     Gn2 
	BYTE	W12
	BYTE		N10     Cn3 
	BYTE	W12
	BYTE	PEND
// 021   ----------------------------------------
vastsever8850_7_021:
	BYTE		N32     Gn2   v100
	BYTE	W12
	BYTE		N22     Cn2 
	BYTE	W12
	BYTE		N10     En2 
	BYTE	W12
	BYTE		N56     Gn2 
	BYTE	W01
	BYTE		        Cn3 
	BYTE	W02
	BYTE		N54     En3 
	BYTE	W56
	BYTE	W01
	BYTE	PEND
// 022   ----------------------------------------
vastsever8850_7_022:
	BYTE		N56     As2   v100
	BYTE	W12
	BYTE		N44     Dn3 
	BYTE	W12
	BYTE		N32     Gn3 
	BYTE	W12
	BYTE		N22     As3 
	BYTE	W24
	BYTE		N44     Dn3 
	BYTE	W12
	BYTE		N32     Fn3 
	BYTE	W12
	BYTE		N22     As3 
	BYTE	W12
	BYTE	PEND
// 023   ----------------------------------------
vastsever8850_7_023:
	BYTE	W12
	BYTE		N44     En3   v100
	BYTE	W12
	BYTE		N32     As2 
	BYTE	W12
	BYTE		N22     Gn2 
	BYTE	W24
	BYTE		N68     As2 
	BYTE	W12
	BYTE		N56     Fn3 
	BYTE	W12
	BYTE		N44     En3 
	BYTE	W12
	BYTE	PEND
// 024   ----------------------------------------
vastsever8850_7_024:
	BYTE	W36
	BYTE		N44     Dn3   v100
	BYTE	W36
	BYTE		N10     An2 
	BYTE	W12
	BYTE		N68     Gn2 
	BYTE	W01
	BYTE		        Cn3 
	BYTE	W02
	BYTE		N66     En3 
	BYTE	W09
	BYTE	PEND
// 025   ----------------------------------------
vastsever8850_7_025:
	BYTE	W60
	BYTE		N32     An3   v100
	BYTE	W12
	BYTE		N22     En3 
	BYTE	W12
	BYTE		N10     Cn3 
	BYTE	W12
	BYTE	PEND
// 026   ----------------------------------------
vastsever8850_7_026:
	BYTE		N32     An2   v100
	BYTE	W12
	BYTE		N22     Dn3 
	BYTE	W12
	BYTE		N10     Fn3 
	BYTE	W12
	BYTE		N32     An2 
	BYTE	W12
	BYTE		N22     Dn3 
	BYTE	W12
	BYTE		N32     Fn3 
	BYTE	W12
	BYTE		N22     Dn3 
	BYTE	W12
	BYTE		N10     An2 
	BYTE	W12
	BYTE	PEND
// 027   ----------------------------------------
vastsever8850_7_027:
	BYTE		N32     Dn2   v100
	BYTE	W12
	BYTE		N22     Fn2 
	BYTE	W12
	BYTE		N10     An2 
	BYTE	W12
	BYTE		N32     Dn3 
	BYTE	W12
	BYTE		N22     An2 
	BYTE	W12
	BYTE		N10     Fn2 
	BYTE	W12
	BYTE		N22   
	BYTE	W12
	BYTE		N10     An2 
	BYTE	W12
	BYTE	PEND
// 028   ----------------------------------------
vastsever8850_7_028:
	BYTE		N32     Gn2   v100
	BYTE	W12
	BYTE		N22     Cn3 
	BYTE	W12
	BYTE		N10     En3 
	BYTE	W12
	BYTE		N32     Gn3 
	BYTE	W12
	BYTE		N22     Fn3 
	BYTE	W12
	BYTE		N10     Cn3 
	BYTE	W12
	BYTE		N22     Gn2 
	BYTE	W12
	BYTE		N10     Cn3 
	BYTE	W12
	BYTE	PEND
// 029   ----------------------------------------
vastsever8850_7_029:
	BYTE		N32     Gn2   v100
	BYTE	W12
	BYTE		N22     Cn2 
	BYTE	W12
	BYTE		N10     En2 
	BYTE	W12
	BYTE		N32     Gn2 
	BYTE	W12
	BYTE		N22     Cn3 
	BYTE	W12
	BYTE		N10     En3 
	BYTE	W12
	BYTE		N22     En2 
	BYTE	W12
	BYTE		N10     Gn3 
	BYTE	W12
	BYTE	PEND
// 030   ----------------------------------------
vastsever8850_7_030:
	BYTE		N56     As2   v100
	BYTE	W12
	BYTE		N44     Dn3 
	BYTE	W12
	BYTE		N32     Gn3 
	BYTE	W12
	BYTE		N22     As3 
	BYTE	W24
	BYTE		N44     As2 
	BYTE	W12
	BYTE		N32     Dn3 
	BYTE	W12
	BYTE		N22     Gn3 
	BYTE	W12
	BYTE	PEND
// 031   ----------------------------------------
	BYTE	PATT
	 POIN2	vastsever8850_7_023
// 032   ----------------------------------------
vastsever8850_7_032:
	BYTE	W36
	BYTE		N44     Dn3   v100
	BYTE	W36
	BYTE		N10     An2 
	BYTE	W12
	BYTE		N22     Gn2 
	BYTE	W01
	BYTE		N20     Cn3 
	BYTE	W02
	BYTE		N19     En3 
	BYTE	W09
	BYTE	PEND
// 033   ----------------------------------------
vastsever8850_7_033:
	BYTE	W12
	BYTE		N80     An2   v100
	BYTE	W12
	BYTE		N68     En3 
	BYTE	W12
	BYTE		N56     An3 
	BYTE	W60
	BYTE	PEND
// 034   ----------------------------------------
vastsever8850_7_034:
	BYTE		N92     An3   v100
	BYTE	W36
	BYTE		N56     En3 
	BYTE	W36
	BYTE		N22     An2 
	BYTE	W24
	BYTE	PEND
// 035   ----------------------------------------
vastsever8850_7_035:
	BYTE		N32     En3   v100
	BYTE	W12
	BYTE		N22     Cn3 
	BYTE	W12
	BYTE		N10     An2 
	BYTE	W12
	BYTE		N56     Dn3 
	BYTE		N56     Fn3 
	BYTE	W60
	BYTE	PEND
// 036   ----------------------------------------
vastsever8850_7_036:
	BYTE		N92     An3   v100
	BYTE	W36
	BYTE		N56     En3 
	BYTE	W36
	BYTE		N22     Cn4 
	BYTE	W24
	BYTE	PEND
// 037   ----------------------------------------
vastsever8850_7_037:
	BYTE		N32     An3   v100
	BYTE	W12
	BYTE		N22     Fn3 
	BYTE	W12
	BYTE		N10     Cn4 
	BYTE	W12
	BYTE		N22     En3 
	BYTE		N22     An3 
	BYTE	W24
	BYTE		N32     En3 
	BYTE		N32     Gn3 
	BYTE	W36
	BYTE	PEND
// 038   ----------------------------------------
vastsever8850_7_038:
	BYTE		N32     An3   v100
	BYTE	W12
	BYTE		N22     En3 
	BYTE	W12
	BYTE		N10     An2 
	BYTE	W12
	BYTE		N22     Fn3 
	BYTE		N22     An3 
	BYTE	W24
	BYTE		N32     En3 
	BYTE		N32     Gn3 
	BYTE	W36
	BYTE	PEND
// 039   ----------------------------------------
vastsever8850_7_039:
	BYTE		N32     Dn3   v100
	BYTE	W12
	BYTE		N22     Fn3 
	BYTE	W12
	BYTE		N10     An3 
	BYTE	W12
	BYTE		N32     Dn3 
	BYTE		N32     Fn3 
	BYTE	W36
	BYTE		N22     An2 
	BYTE		N22     Dn3 
	BYTE	W24
	BYTE	PEND
// 040   ----------------------------------------
vastsever8850_7_040:
	BYTE		N32     An2   v100
	BYTE	W12
	BYTE		N22     Dn3 
	BYTE	W12
	BYTE		N10     An3 
	BYTE	W12
	BYTE		N32     An2 
	BYTE	W12
	BYTE		N22     Dn3 
	BYTE	W12
	BYTE		N10     An3 
	BYTE	W12
	BYTE		N32     An2 
	BYTE	W12
	BYTE		N22     Dn3 
	BYTE	W12
	BYTE	PEND
// 041   ----------------------------------------
vastsever8850_7_041:
	BYTE		N10     As3   v100
	BYTE	W12
	BYTE		N32     An2 
	BYTE	W12
	BYTE		N22     En3 
	BYTE	W12
	BYTE		N10     An3 
	BYTE	W12
	BYTE		N22     An2 
	BYTE	W12
	BYTE		N10     En3 
	BYTE	W12
	BYTE		N20     An3 
	BYTE	W12
	BYTE		N10     An2 
	BYTE	W12
	BYTE	PEND
// 042   ----------------------------------------
vastsever8850_7_042:
	BYTE		N92     Dn3   v100
	BYTE	W03
	BYTE		N90     Fn3 
	BYTE	W03
	BYTE		N88     An3 
	BYTE	W90
	BYTE	PEND
// 043   ----------------------------------------
	BYTE	PATT
	 POIN2	vastsever8850_7_042
// 044   ----------------------------------------
vastsever8850_7_044:
	BYTE		N92     Cs3   v100
	BYTE	W03
	BYTE		N90     En3 
	BYTE	W03
	BYTE		N88     An3 
	BYTE	W90
	BYTE	PEND
// 045   ----------------------------------------
vastsever8850_7_045:
	BYTE		N68     Cs3   v100
	BYTE	W03
	BYTE		N66     En3 
	BYTE	W03
	BYTE		N64     An3 
	BYTE	W66
	BYTE		N22     Cs3 
	BYTE		N22     En3 
	BYTE		N22     Gn3 
	BYTE	W24
	BYTE	PEND
// 046   ----------------------------------------
vastsever8850_7_046:
	BYTE		N92     An2   v100
	BYTE	W03
	BYTE		        Fn3 
	BYTE	W03
	BYTE		N88     An3 
	BYTE	W90
	BYTE	PEND
// 047   ----------------------------------------
vastsever8850_7_047:
	BYTE		N92     Gn2   v100
	BYTE	W03
	BYTE		        En3 
	BYTE	W03
	BYTE		N88     Gn3 
	BYTE	W90
	BYTE	PEND
// 048   ----------------------------------------
vastsever8850_7_048:
	BYTE		N92     Gn2   v100
	BYTE	W03
	BYTE		        Dn3 
	BYTE	W03
	BYTE		N88     Gn3 
	BYTE	W90
	BYTE	PEND
// 049   ----------------------------------------
vastsever8850_7_049:
	BYTE		N44     As2   v100
	BYTE	W03
	BYTE		        Dn3 
	BYTE	W03
	BYTE		N40     Fn3 
	BYTE	W42
	BYTE		N44     Cn3 
	BYTE	W03
	BYTE		        Fn3 
	BYTE	W03
	BYTE		N40     An3 
	BYTE	W42
	BYTE	PEND
// 050   ----------------------------------------
vastsever8850_7_050:
	BYTE		N92     Fn3   v100
	BYTE		N92     As3 
	BYTE	W36
	BYTE		N56     Dn3 
	BYTE	W60
	BYTE	PEND
// 051   ----------------------------------------
vastsever8850_7_051:
	BYTE		N92     Gn3   v100
	BYTE		N92     As3 
	BYTE	W36
	BYTE		N56     Dn3 
	BYTE	W60
	BYTE	PEND
// 052   ----------------------------------------
vastsever8850_7_052:
	BYTE		N32     Fn3   v100
	BYTE		N32     An3 
	BYTE	W36
	BYTE		        Dn4 
	BYTE	W12
	BYTE		N23     An3 
	BYTE	W12
	BYTE		N11     En3 
	BYTE	W12
	BYTE		N23     An2 
	BYTE	W12
	BYTE		N11     En3 
	BYTE	W12
	BYTE	PEND
// 053   ----------------------------------------
vastsever8850_7_053:
	BYTE		N32     Cs3   v100
	BYTE	W12
	BYTE		N23     Gn3 
	BYTE	W12
	BYTE		N11     As3 
	BYTE	W12
	BYTE		N56     An3 
	BYTE		N56     Cs4 
	BYTE	W24
	BYTE		N32     En3 
	BYTE	W12
	BYTE		N23     Cs3 
	BYTE	W12
	BYTE		N11     An2 
	BYTE	W12
	BYTE	PEND
// 054   ----------------------------------------
	BYTE	PATT
	 POIN2	vastsever8850_7_046
// 055   ----------------------------------------
	BYTE	PATT
	 POIN2	vastsever8850_7_047
// 056   ----------------------------------------
	BYTE	PATT
	 POIN2	vastsever8850_7_048
// 057   ----------------------------------------
vastsever8850_7_057:
	BYTE		N44     As2   v100
	BYTE	W03
	BYTE		        Dn3 
	BYTE	W03
	BYTE		N40     Fn3 
	BYTE	W42
	BYTE		N44     Cn3 
	BYTE	W03
	BYTE		        En3 
	BYTE	W03
	BYTE		N40     An3 
	BYTE	W42
	BYTE	PEND
// 058   ----------------------------------------
	BYTE	PATT
	 POIN2	vastsever8850_7_050
// 059   ----------------------------------------
vastsever8850_7_059:
	BYTE		N92     Gn3   v100
	BYTE		N92     Cn4 
	BYTE	W36
	BYTE		N56     Dn3 
	BYTE	W60
	BYTE	PEND
// 060   ----------------------------------------
vastsever8850_7_060:
	BYTE		N32     Dn3   v100
	BYTE		N32     Fn3 
	BYTE	W36
	BYTE		        Dn4 
	BYTE	W12
	BYTE		N23     An3 
	BYTE	W12
	BYTE		N11     En3 
	BYTE	W12
	BYTE		N23     An2 
	BYTE	W12
	BYTE		N11     En3 
	BYTE	W12
	BYTE	PEND
// 061   ----------------------------------------
vastsever8850_7_061:
	BYTE		N32     Dn3   v100
	BYTE	W12
	BYTE		N23     Fn3 
	BYTE	W12
	BYTE		N11     An3 
	BYTE	W12
	BYTE		N56     An2 
	BYTE		N56     Dn3 
	BYTE	W60
	BYTE	PEND
// 062   ----------------------------------------
	BYTE	PATT
	 POIN2	vastsever8850_7_002
// 063   ----------------------------------------
	BYTE	PATT
	 POIN2	vastsever8850_7_003
// 064   ----------------------------------------
	BYTE	PATT
	 POIN2	vastsever8850_7_004
// 065   ----------------------------------------
	BYTE	PATT
	 POIN2	vastsever8850_7_005
// 066   ----------------------------------------
	BYTE	PATT
	 POIN2	vastsever8850_7_002
// 067   ----------------------------------------
	BYTE	PATT
	 POIN2	vastsever8850_7_003
// 068   ----------------------------------------
	BYTE	PATT
	 POIN2	vastsever8850_7_004
// 069   ----------------------------------------
	BYTE	PATT
	 POIN2	vastsever8850_7_005
// 070   ----------------------------------------
	BYTE	PATT
	 POIN2	vastsever8850_7_002
// 071   ----------------------------------------
	BYTE	PATT
	 POIN2	vastsever8850_7_003
// 072   ----------------------------------------
	BYTE	PATT
	 POIN2	vastsever8850_7_004
// 073   ----------------------------------------
	BYTE	PATT
	 POIN2	vastsever8850_7_005
// 074   ----------------------------------------
	BYTE	PATT
	 POIN2	vastsever8850_7_002
// 075   ----------------------------------------
	BYTE	PATT
	 POIN2	vastsever8850_7_003
// 076   ----------------------------------------
	BYTE	PATT
	 POIN2	vastsever8850_7_004
// 077   ----------------------------------------
	BYTE	PATT
	 POIN2	vastsever8850_7_005
// 078   ----------------------------------------
	BYTE	PATT
	 POIN2	vastsever8850_7_018
// 079   ----------------------------------------
	BYTE	PATT
	 POIN2	vastsever8850_7_019
// 080   ----------------------------------------
	BYTE	PATT
	 POIN2	vastsever8850_7_020
// 081   ----------------------------------------
	BYTE	PATT
	 POIN2	vastsever8850_7_021
// 082   ----------------------------------------
	BYTE	PATT
	 POIN2	vastsever8850_7_022
// 083   ----------------------------------------
	BYTE	PATT
	 POIN2	vastsever8850_7_023
// 084   ----------------------------------------
	BYTE	PATT
	 POIN2	vastsever8850_7_024
// 085   ----------------------------------------
	BYTE	PATT
	 POIN2	vastsever8850_7_025
// 086   ----------------------------------------
	BYTE	PATT
	 POIN2	vastsever8850_7_026
// 087   ----------------------------------------
	BYTE	PATT
	 POIN2	vastsever8850_7_027
// 088   ----------------------------------------
	BYTE	PATT
	 POIN2	vastsever8850_7_028
// 089   ----------------------------------------
	BYTE	PATT
	 POIN2	vastsever8850_7_029
// 090   ----------------------------------------
	BYTE	PATT
	 POIN2	vastsever8850_7_030
// 091   ----------------------------------------
	BYTE	PATT
	 POIN2	vastsever8850_7_023
// 092   ----------------------------------------
	BYTE	PATT
	 POIN2	vastsever8850_7_032
// 093   ----------------------------------------
	BYTE	PATT
	 POIN2	vastsever8850_7_033
// 094   ----------------------------------------
	BYTE	PATT
	 POIN2	vastsever8850_7_034
// 095   ----------------------------------------
	BYTE	PATT
	 POIN2	vastsever8850_7_035
// 096   ----------------------------------------
	BYTE	PATT
	 POIN2	vastsever8850_7_036
// 097   ----------------------------------------
	BYTE	PATT
	 POIN2	vastsever8850_7_037
// 098   ----------------------------------------
	BYTE	PATT
	 POIN2	vastsever8850_7_038
// 099   ----------------------------------------
	BYTE	PATT
	 POIN2	vastsever8850_7_039
// 100   ----------------------------------------
	BYTE	PATT
	 POIN2	vastsever8850_7_040
// 101   ----------------------------------------
	BYTE	PATT
	 POIN2	vastsever8850_7_041
// 102   ----------------------------------------
	BYTE	PATT
	 POIN2	vastsever8850_7_042
// 103   ----------------------------------------
	BYTE	PATT
	 POIN2	vastsever8850_7_042
// 104   ----------------------------------------
	BYTE	PATT
	 POIN2	vastsever8850_7_044
// 105   ----------------------------------------
	BYTE	PATT
	 POIN2	vastsever8850_7_045
// 106   ----------------------------------------
	BYTE	PATT
	 POIN2	vastsever8850_7_046
// 107   ----------------------------------------
	BYTE	PATT
	 POIN2	vastsever8850_7_047
// 108   ----------------------------------------
	BYTE	PATT
	 POIN2	vastsever8850_7_048
// 109   ----------------------------------------
	BYTE	PATT
	 POIN2	vastsever8850_7_049
// 110   ----------------------------------------
	BYTE	PATT
	 POIN2	vastsever8850_7_050
// 111   ----------------------------------------
	BYTE	PATT
	 POIN2	vastsever8850_7_051
// 112   ----------------------------------------
	BYTE	PATT
	 POIN2	vastsever8850_7_052
// 113   ----------------------------------------
	BYTE	PATT
	 POIN2	vastsever8850_7_053
// 114   ----------------------------------------
	BYTE	PATT
	 POIN2	vastsever8850_7_046
// 115   ----------------------------------------
	BYTE	PATT
	 POIN2	vastsever8850_7_047
// 116   ----------------------------------------
	BYTE	PATT
	 POIN2	vastsever8850_7_048
// 117   ----------------------------------------
	BYTE	PATT
	 POIN2	vastsever8850_7_057
// 118   ----------------------------------------
	BYTE	PATT
	 POIN2	vastsever8850_7_050
// 119   ----------------------------------------
	BYTE	PATT
	 POIN2	vastsever8850_7_059
// 120   ----------------------------------------
	BYTE	PATT
	 POIN2	vastsever8850_7_060
// 121   ----------------------------------------
	BYTE	PATT
	 POIN2	vastsever8850_7_061
// 122   ----------------------------------------
	BYTE	PATT
	 POIN2	vastsever8850_7_002
// 123   ----------------------------------------
	BYTE	PATT
	 POIN2	vastsever8850_7_003
// 124   ----------------------------------------
	BYTE	PATT
	 POIN2	vastsever8850_7_004
// 125   ----------------------------------------
	BYTE	PATT
	 POIN2	vastsever8850_7_005
// 126   ----------------------------------------
	BYTE	PATT
	 POIN2	vastsever8850_7_002
// 127   ----------------------------------------
	BYTE	PATT
	 POIN2	vastsever8850_7_003
// 128   ----------------------------------------
	BYTE	PATT
	 POIN2	vastsever8850_7_004
// 129   ----------------------------------------
	BYTE	PATT
	 POIN2	vastsever8850_7_005
// 130   ----------------------------------------
	BYTE	PATT
	 POIN2	vastsever8850_7_002
// 131   ----------------------------------------
	BYTE	PATT
	 POIN2	vastsever8850_7_003
// 132   ----------------------------------------
	BYTE	PATT
	 POIN2	vastsever8850_7_004
// 133   ----------------------------------------
	BYTE	PATT
	 POIN2	vastsever8850_7_005
// 134   ----------------------------------------
	BYTE	PATT
	 POIN2	vastsever8850_7_002
// 135   ----------------------------------------
	BYTE	PATT
	 POIN2	vastsever8850_7_003
// 136   ----------------------------------------
	BYTE	PATT
	 POIN2	vastsever8850_7_004
// 137   ----------------------------------------
	BYTE		N92     En2   v100
	BYTE		N32     Cs3 
	BYTE	W12
	BYTE		N23     En3 
	BYTE	W12
	BYTE		N11     An3 
	BYTE	W12
	BYTE		N23     Cs3 
	BYTE	W12
	BYTE		N11     En3 
	BYTE	W12
	BYTE		N32     An3 
	BYTE	W12
	BYTE		N23     En3 
	BYTE	W12
	BYTE		N11     An2 
	BYTE	W12
// 138   ----------------------------------------
	BYTE	PATT
	 POIN2	vastsever8850_7_018
// 139   ----------------------------------------
	BYTE	PATT
	 POIN2	vastsever8850_7_019
// 140   ----------------------------------------
	BYTE	PATT
	 POIN2	vastsever8850_7_020
// 141   ----------------------------------------
	BYTE	PATT
	 POIN2	vastsever8850_7_021
// 142   ----------------------------------------
	BYTE	PATT
	 POIN2	vastsever8850_7_022
// 143   ----------------------------------------
	BYTE	PATT
	 POIN2	vastsever8850_7_023
// 144   ----------------------------------------
	BYTE	PATT
	 POIN2	vastsever8850_7_024
// 145   ----------------------------------------
	BYTE	PATT
	 POIN2	vastsever8850_7_025
// 146   ----------------------------------------
	BYTE	PATT
	 POIN2	vastsever8850_7_026
// 147   ----------------------------------------
	BYTE	PATT
	 POIN2	vastsever8850_7_027
// 148   ----------------------------------------
	BYTE	PATT
	 POIN2	vastsever8850_7_028
// 149   ----------------------------------------
	BYTE	PATT
	 POIN2	vastsever8850_7_029
// 150   ----------------------------------------
	BYTE	PATT
	 POIN2	vastsever8850_7_030
// 151   ----------------------------------------
	BYTE	PATT
	 POIN2	vastsever8850_7_023
// 152   ----------------------------------------
	BYTE	PATT
	 POIN2	vastsever8850_7_032
// 153   ----------------------------------------
	BYTE	W12
	BYTE		N44     An2   v100
	BYTE	W12
	BYTE		N32     En3 
	BYTE	W12
	BYTE		N22     An3 
	BYTE	W24
	BYTE		N32     En3 
	BYTE	W12
	BYTE		N22     An3 
	BYTE	W24
// 154   ----------------------------------------
	BYTE		N92     As2 
	BYTE	W12
	BYTE		N80     Dn3 
	BYTE	W12
	BYTE		N68     En3 
	BYTE	W12
	BYTE		N56     An3 
	BYTE	W60
// 155   ----------------------------------------
	BYTE		N92     Gn2 
	BYTE	W12
	BYTE		N80     Cn3 
	BYTE	W12
	BYTE		N68     En3 
	BYTE	W12
	BYTE		N56     An3 
	BYTE	W60
// 156   ----------------------------------------
	BYTE		N92     As2 
	BYTE	W12
	BYTE		N80     Dn3 
	BYTE	W12
	BYTE		N68     Fn3 
	BYTE	W12
	BYTE		N56     An3 
	BYTE	W60
// 157   ----------------------------------------
	BYTE		N68     An2 
	BYTE	W12
	BYTE		N56     Cs3 
	BYTE	W12
	BYTE		N44     Gn3 
	BYTE	W12
	BYTE		N32     An3 
	BYTE	W36
	BYTE		N22     En3 
	BYTE		N22     As3 
	BYTE		N22     Cs4 
	BYTE	W24
// 158   ----------------------------------------
	BYTE		TIE     An2 
	BYTE	W01
	BYTE		        Dn3 
	BYTE	W02
	BYTE		        Fn3 
	BYTE	W03
	BYTE		        An3 
	BYTE	W90
// 159   ----------------------------------------
	BYTE	W92
	BYTE	W02
	BYTE		EOT     An2 
	BYTE		        Fn3 
	BYTE		        An3 
	BYTE	W01
	BYTE		        Dn3 
	BYTE	W01
// 160   ----------------------------------------
	BYTE	W96
// 161   ----------------------------------------
	BYTE	W96
// 162   ----------------------------------------
	BYTE	W96
// 163   ----------------------------------------
	BYTE	FINE

//**************** Track 8 (Midi-Chn.8) ****************//

vastsever8850_8:
	BYTE	KEYSH   vastsever8850_key+0
// 000   ----------------------------------------
	BYTE	W96
// 001   ----------------------------------------
	BYTE		VOICE   48
	BYTE		VOL     90*vastsever8850_mvl/mxv
	BYTE		PAN     c_v+0
	BYTE	W48
	BYTE		MOD     0
	BYTE		BEND    c_v+0
	BYTE	W24
	BYTE	W06
	BYTE	W06
	BYTE	W06
	BYTE	W06
// 002   ----------------------------------------
	BYTE	W96
// 003   ----------------------------------------
	BYTE	W96
// 004   ----------------------------------------
	BYTE	W96
// 005   ----------------------------------------
	BYTE	W96
// 006   ----------------------------------------
	BYTE	W96
// 007   ----------------------------------------
	BYTE	W96
// 008   ----------------------------------------
	BYTE	W96
// 009   ----------------------------------------
	BYTE	W96
// 010   ----------------------------------------
	BYTE		TIE     Fn5   v072
	BYTE		TIE     An5 
	BYTE	W96
// 011   ----------------------------------------
	BYTE	W96
// 012   ----------------------------------------
	BYTE	W92
	BYTE	W02
	BYTE		EOT     Fn5 
	BYTE		        An5 
	BYTE	W02
// 013   ----------------------------------------
	BYTE		N92     En5 
	BYTE		N92     An5 
	BYTE	W96
// 014   ----------------------------------------
	BYTE		TIE   
	BYTE		TIE     Dn6 
	BYTE	W96
// 015   ----------------------------------------
	BYTE	W96
// 016   ----------------------------------------
	BYTE	W92
	BYTE	W02
	BYTE		EOT     An5 
	BYTE		        Dn6 
	BYTE	W02
// 017   ----------------------------------------
	BYTE	W96
// 018   ----------------------------------------
	BYTE	W96
// 019   ----------------------------------------
	BYTE	W96
// 020   ----------------------------------------
	BYTE	W96
// 021   ----------------------------------------
	BYTE	W96
// 022   ----------------------------------------
	BYTE	W96
// 023   ----------------------------------------
	BYTE	W96
// 024   ----------------------------------------
	BYTE	W96
// 025   ----------------------------------------
	BYTE	W96
// 026   ----------------------------------------
	BYTE	W96
// 027   ----------------------------------------
	BYTE	W96
// 028   ----------------------------------------
	BYTE	W96
// 029   ----------------------------------------
	BYTE	W96
// 030   ----------------------------------------
	BYTE	W96
// 031   ----------------------------------------
	BYTE	W96
// 032   ----------------------------------------
	BYTE	W96
// 033   ----------------------------------------
	BYTE	W96
// 034   ----------------------------------------
	BYTE	W96
// 035   ----------------------------------------
	BYTE	W96
// 036   ----------------------------------------
	BYTE	W96
// 037   ----------------------------------------
	BYTE	W96
// 038   ----------------------------------------
	BYTE	W96
// 039   ----------------------------------------
	BYTE	W96
// 040   ----------------------------------------
	BYTE	W96
// 041   ----------------------------------------
	BYTE	W96
// 042   ----------------------------------------
	BYTE	W96
// 043   ----------------------------------------
	BYTE	W96
// 044   ----------------------------------------
	BYTE	W96
// 045   ----------------------------------------
vastsever8850_8_045:
	BYTE	W12
	BYTE		N10     Cs4   v092
	BYTE		N10     En4 
	BYTE	W12
	BYTE		N10   
	BYTE		N10     An4 
	BYTE	W12
	BYTE		        Gn4 
	BYTE		N10     Bn4 
	BYTE	W12
	BYTE		        An4 
	BYTE		N10     Cs5 
	BYTE	W12
	BYTE		        An3 
	BYTE		N10     Cs4 
	BYTE		N10     En4 
	BYTE	W12
	BYTE		        Cs4 
	BYTE		N10     En4 
	BYTE		N10     An4 
	BYTE	W12
	BYTE		        En4 
	BYTE		N10     An4 
	BYTE		N10     Cs5 
	BYTE	W12
	BYTE	PEND
// 046   ----------------------------------------
vastsever8850_8_046:
	BYTE		N92     An3   v092
	BYTE		N92     Dn4 
	BYTE		N92     Fn4 
	BYTE		N92     An4 
	BYTE	W96
	BYTE	PEND
// 047   ----------------------------------------
vastsever8850_8_047:
	BYTE		N92     Gn3   v092
	BYTE		N92     Cn4 
	BYTE		N92     En4 
	BYTE		N92     Gn4 
	BYTE	W96
	BYTE	PEND
// 048   ----------------------------------------
	BYTE	PATT
	 POIN2	vastsever8850_8_046
// 049   ----------------------------------------
vastsever8850_8_049:
	BYTE		N44     An3   v092
	BYTE		N44     Dn4 
	BYTE		N44     Fn4 
	BYTE		N44     An4 
	BYTE	W48
	BYTE		        Gn3 
	BYTE		N44     Cn4 
	BYTE		N44     En4 
	BYTE		N44     Gn4 
	BYTE	W48
	BYTE	PEND
// 050   ----------------------------------------
vastsever8850_8_050:
	BYTE		N92     Fn3   v092
	BYTE		N92     As3 
	BYTE		N92     Dn4 
	BYTE		N92     Fn4 
	BYTE	W96
	BYTE	PEND
// 051   ----------------------------------------
vastsever8850_8_051:
	BYTE		N92     Gn3   v092
	BYTE		N92     As3 
	BYTE		N92     En4 
	BYTE		N92     Gn4 
	BYTE	W96
	BYTE	PEND
// 052   ----------------------------------------
	BYTE	PATT
	 POIN2	vastsever8850_8_046
// 053   ----------------------------------------
vastsever8850_8_053:
	BYTE		N32     An3   v092
	BYTE		N32     Dn4 
	BYTE		N32     Fn4 
	BYTE		N32     An4 
	BYTE	W36
	BYTE		N56     An3 
	BYTE		N56     Cs4 
	BYTE		N56     En4 
	BYTE		N56     An4 
	BYTE	W60
	BYTE	PEND
// 054   ----------------------------------------
	BYTE	PATT
	 POIN2	vastsever8850_8_046
// 055   ----------------------------------------
vastsever8850_8_055:
	BYTE		N92     Cn4   v092
	BYTE		N92     En4 
	BYTE		N92     Gn4 
	BYTE		N92     Cn5 
	BYTE	W96
	BYTE	PEND
// 056   ----------------------------------------
	BYTE	PATT
	 POIN2	vastsever8850_8_046
// 057   ----------------------------------------
vastsever8850_8_057:
	BYTE		N44     An3   v092
	BYTE		N44     Dn4 
	BYTE		N44     Fn4 
	BYTE		N44     An4 
	BYTE	W48
	BYTE		        Cn4 
	BYTE		N44     En4 
	BYTE		N44     Gn4 
	BYTE		N44     Cn5 
	BYTE	W48
	BYTE	PEND
// 058   ----------------------------------------
vastsever8850_8_058:
	BYTE		N92     As3   v092
	BYTE		N92     Dn4 
	BYTE		N92     Fn4 
	BYTE		N92     As4 
	BYTE	W96
	BYTE	PEND
// 059   ----------------------------------------
	BYTE	PATT
	 POIN2	vastsever8850_8_055
// 060   ----------------------------------------
vastsever8850_8_060:
	BYTE		N92     Cn4   v092
	BYTE		N92     En4 
	BYTE		N92     An4 
	BYTE		N92     Cn5 
	BYTE	W96
	BYTE	PEND
// 061   ----------------------------------------
	BYTE	PATT
	 POIN2	vastsever8850_8_046
// 062   ----------------------------------------
	BYTE	W96
// 063   ----------------------------------------
	BYTE	W96
// 064   ----------------------------------------
	BYTE	W96
// 065   ----------------------------------------
	BYTE	W96
// 066   ----------------------------------------
	BYTE	W96
// 067   ----------------------------------------
	BYTE	W96
// 068   ----------------------------------------
	BYTE	W96
// 069   ----------------------------------------
	BYTE	W96
// 070   ----------------------------------------
	BYTE	W96
// 071   ----------------------------------------
	BYTE	W96
// 072   ----------------------------------------
	BYTE	W96
// 073   ----------------------------------------
	BYTE	W96
// 074   ----------------------------------------
	BYTE	W96
// 075   ----------------------------------------
	BYTE	W96
// 076   ----------------------------------------
	BYTE	W96
// 077   ----------------------------------------
	BYTE	W96
// 078   ----------------------------------------
	BYTE	W96
// 079   ----------------------------------------
	BYTE	W96
// 080   ----------------------------------------
	BYTE	W96
// 081   ----------------------------------------
	BYTE	W96
// 082   ----------------------------------------
	BYTE	W96
// 083   ----------------------------------------
	BYTE	W96
// 084   ----------------------------------------
	BYTE	W96
// 085   ----------------------------------------
	BYTE	W96
// 086   ----------------------------------------
	BYTE	W96
// 087   ----------------------------------------
	BYTE	W96
// 088   ----------------------------------------
	BYTE	W96
// 089   ----------------------------------------
	BYTE	W96
// 090   ----------------------------------------
	BYTE	W96
// 091   ----------------------------------------
	BYTE	W96
// 092   ----------------------------------------
	BYTE	W96
// 093   ----------------------------------------
	BYTE	W96
// 094   ----------------------------------------
	BYTE	W96
// 095   ----------------------------------------
	BYTE	W96
// 096   ----------------------------------------
	BYTE	W96
// 097   ----------------------------------------
	BYTE	W96
// 098   ----------------------------------------
	BYTE	W96
// 099   ----------------------------------------
	BYTE	W96
// 100   ----------------------------------------
	BYTE	W96
// 101   ----------------------------------------
	BYTE	W96
// 102   ----------------------------------------
	BYTE	W96
// 103   ----------------------------------------
	BYTE	W96
// 104   ----------------------------------------
	BYTE	W96
// 105   ----------------------------------------
	BYTE	PATT
	 POIN2	vastsever8850_8_045
// 106   ----------------------------------------
	BYTE	PATT
	 POIN2	vastsever8850_8_046
// 107   ----------------------------------------
	BYTE	PATT
	 POIN2	vastsever8850_8_047
// 108   ----------------------------------------
	BYTE	PATT
	 POIN2	vastsever8850_8_046
// 109   ----------------------------------------
	BYTE	PATT
	 POIN2	vastsever8850_8_049
// 110   ----------------------------------------
	BYTE	PATT
	 POIN2	vastsever8850_8_050
// 111   ----------------------------------------
	BYTE	PATT
	 POIN2	vastsever8850_8_051
// 112   ----------------------------------------
	BYTE	PATT
	 POIN2	vastsever8850_8_046
// 113   ----------------------------------------
	BYTE	PATT
	 POIN2	vastsever8850_8_053
// 114   ----------------------------------------
	BYTE	PATT
	 POIN2	vastsever8850_8_046
// 115   ----------------------------------------
	BYTE	PATT
	 POIN2	vastsever8850_8_055
// 116   ----------------------------------------
	BYTE	PATT
	 POIN2	vastsever8850_8_046
// 117   ----------------------------------------
	BYTE	PATT
	 POIN2	vastsever8850_8_057
// 118   ----------------------------------------
	BYTE	PATT
	 POIN2	vastsever8850_8_058
// 119   ----------------------------------------
	BYTE	PATT
	 POIN2	vastsever8850_8_055
// 120   ----------------------------------------
	BYTE	PATT
	 POIN2	vastsever8850_8_060
// 121   ----------------------------------------
	BYTE	PATT
	 POIN2	vastsever8850_8_046
// 122   ----------------------------------------
	BYTE		N92     Dn4   v092
	BYTE		N92     Fn4 
	BYTE	W96
// 123   ----------------------------------------
	BYTE		        Cn4 
	BYTE		N92     En4 
	BYTE	W96
// 124   ----------------------------------------
	BYTE		        Dn4 
	BYTE		N92     Fn4 
	BYTE	W96
// 125   ----------------------------------------
	BYTE		        Cs4 
	BYTE		N92     En4 
	BYTE	W96
// 126   ----------------------------------------
	BYTE		        Dn4 
	BYTE		N92     Fn4 
	BYTE	W96
// 127   ----------------------------------------
	BYTE		        Cn4 
	BYTE		N92     En4 
	BYTE	W96
// 128   ----------------------------------------
	BYTE		        Fn4 
	BYTE		N92     An4 
	BYTE	W96
// 129   ----------------------------------------
	BYTE		N22     En4 
	BYTE		N22     An4 
	BYTE	W24
	BYTE		        En4 
	BYTE		N22     An4 
	BYTE		N22     Cs5 
	BYTE	W24
	BYTE		        An4 
	BYTE		N22     Cs5 
	BYTE		N22     En5 
	BYTE		N22     Gn5 
	BYTE	W24
	BYTE		        En4 
	BYTE		N22     An4 
	BYTE		N22     Cs5 
	BYTE		N22     En5 
	BYTE	W24
// 130   ----------------------------------------
vastsever8850_8_130:
	BYTE		N92     Dn4   v092
	BYTE		N92     Fn4 
	BYTE		N92     An4 
	BYTE		N92     Dn5 
	BYTE	W96
	BYTE	PEND
// 131   ----------------------------------------
	BYTE	PATT
	 POIN2	vastsever8850_8_060
// 132   ----------------------------------------
	BYTE	PATT
	 POIN2	vastsever8850_8_130
// 133   ----------------------------------------
	BYTE		N92     Cs4   v092
	BYTE		N92     En4 
	BYTE		N92     An4 
	BYTE		N92     Cs5 
	BYTE	W96
// 134   ----------------------------------------
	BYTE	PATT
	 POIN2	vastsever8850_8_130
// 135   ----------------------------------------
	BYTE	PATT
	 POIN2	vastsever8850_8_060
// 136   ----------------------------------------
	BYTE	PATT
	 POIN2	vastsever8850_8_130
// 137   ----------------------------------------
	BYTE		N08     Cs4   v092
	BYTE		N08     En4 
	BYTE		N08     An4 
	BYTE		N08     Cs5 
	BYTE	W48
	BYTE		N22     An3 
	BYTE		N22     Cs4 
	BYTE		N22     En4 
	BYTE		N22     An4 
	BYTE	W24
	BYTE		        Cs4 
	BYTE		N22     En4 
	BYTE		N22     An4 
	BYTE		N22     Cs5 
	BYTE	W24
// 138   ----------------------------------------
	BYTE	W96
// 139   ----------------------------------------
	BYTE	W96
// 140   ----------------------------------------
	BYTE	W96
// 141   ----------------------------------------
	BYTE	W96
// 142   ----------------------------------------
	BYTE	W96
// 143   ----------------------------------------
	BYTE	W96
// 144   ----------------------------------------
	BYTE	W96
// 145   ----------------------------------------
	BYTE	W96
// 146   ----------------------------------------
	BYTE	W96
// 147   ----------------------------------------
	BYTE	W96
// 148   ----------------------------------------
	BYTE	W96
// 149   ----------------------------------------
	BYTE	W96
// 150   ----------------------------------------
	BYTE	W96
// 151   ----------------------------------------
	BYTE	W96
// 152   ----------------------------------------
	BYTE	W96
// 153   ----------------------------------------
	BYTE	W96
// 154   ----------------------------------------
	BYTE		N32     An3 
	BYTE		N32     Dn4 
	BYTE		N32     Fn4 
	BYTE		N32     An4 
	BYTE	W36
	BYTE		N56     Gn3 
	BYTE		N56     Cn4 
	BYTE		N56     En4 
	BYTE		N56     Gn4 
	BYTE	W60
// 155   ----------------------------------------
	BYTE		N32     Gn3 
	BYTE		N32     As3 
	BYTE		N32     Dn4 
	BYTE		N32     Gn4 
	BYTE	W36
	BYTE		N56     An3 
	BYTE		N56     Cs4 
	BYTE		N56     En4 
	BYTE		N56     An4 
	BYTE	W60
// 156   ----------------------------------------
	BYTE		N32     As3 
	BYTE		N32     Dn4 
	BYTE		N32     Gn4 
	BYTE		N32     As4 
	BYTE	W36
	BYTE		N56     Cs4 
	BYTE		N56     En4 
	BYTE		N56     An4 
	BYTE		N56     Cs5 
	BYTE	W60
// 157   ----------------------------------------
	BYTE		N32     En4 
	BYTE		N32     Gn4 
	BYTE		N32     As4 
	BYTE		N32     En5 
	BYTE	W36
	BYTE		N56     Cs4 
	BYTE		N56     En4 
	BYTE		N56     An4 
	BYTE		N56     Cs5 
	BYTE	W60
// 158   ----------------------------------------
	BYTE		TIE     Dn4 
	BYTE		TIE     Fn4 
	BYTE		TIE     An4 
	BYTE		TIE     Dn5 
	BYTE	W96
// 159   ----------------------------------------
	BYTE	W92
	BYTE	W03
	BYTE		EOT     Dn4 
	BYTE		        Fn4 
	BYTE		        An4 
	BYTE		        Dn5 
	BYTE	W01
// 160   ----------------------------------------
	BYTE	W96
// 161   ----------------------------------------
	BYTE	W96
// 162   ----------------------------------------
	BYTE	W96
// 163   ----------------------------------------
	BYTE	FINE

//**************** Track 9 (Midi-Chn.9) ****************//

vastsever8850_9:
	BYTE	KEYSH   vastsever8850_key+0
// 000   ----------------------------------------
	BYTE	W96
// 001   ----------------------------------------
	BYTE		VOICE   88
	BYTE		VOL     95*vastsever8850_mvl/mxv
	BYTE		PAN     c_v+0
	BYTE	W48
	BYTE		MOD     0
	BYTE		BEND    c_v+0
	BYTE	W24
	BYTE	W06
	BYTE	W06
	BYTE	W06
	BYTE	W06
// 002   ----------------------------------------
	BYTE	W96
// 003   ----------------------------------------
	BYTE	W96
// 004   ----------------------------------------
	BYTE	W96
// 005   ----------------------------------------
	BYTE	W96
// 006   ----------------------------------------
	BYTE	W96
// 007   ----------------------------------------
	BYTE	W96
// 008   ----------------------------------------
	BYTE	W96
// 009   ----------------------------------------
	BYTE	W96
// 010   ----------------------------------------
	BYTE	W96
// 011   ----------------------------------------
	BYTE	W96
// 012   ----------------------------------------
	BYTE	W96
// 013   ----------------------------------------
	BYTE	W96
// 014   ----------------------------------------
	BYTE	W96
// 015   ----------------------------------------
	BYTE	W96
// 016   ----------------------------------------
	BYTE	W96
// 017   ----------------------------------------
	BYTE	W96
// 018   ----------------------------------------
	BYTE	W96
// 019   ----------------------------------------
	BYTE	W96
// 020   ----------------------------------------
	BYTE	W96
// 021   ----------------------------------------
	BYTE	W96
// 022   ----------------------------------------
	BYTE	W96
// 023   ----------------------------------------
	BYTE	W96
// 024   ----------------------------------------
	BYTE	W96
// 025   ----------------------------------------
	BYTE	W96
// 026   ----------------------------------------
	BYTE	W96
// 027   ----------------------------------------
	BYTE	W96
// 028   ----------------------------------------
	BYTE	W96
// 029   ----------------------------------------
	BYTE	W96
// 030   ----------------------------------------
	BYTE	W96
// 031   ----------------------------------------
	BYTE	W96
// 032   ----------------------------------------
	BYTE	W96
// 033   ----------------------------------------
	BYTE	W96
// 034   ----------------------------------------
	BYTE	W96
// 035   ----------------------------------------
	BYTE	W96
// 036   ----------------------------------------
	BYTE	W96
// 037   ----------------------------------------
	BYTE	W96
// 038   ----------------------------------------
	BYTE	W96
// 039   ----------------------------------------
	BYTE	W96
// 040   ----------------------------------------
	BYTE	W96
// 041   ----------------------------------------
	BYTE	W96
// 042   ----------------------------------------
	BYTE	W96
// 043   ----------------------------------------
	BYTE	W96
// 044   ----------------------------------------
	BYTE	W96
// 045   ----------------------------------------
vastsever8850_9_045:
	BYTE	W12
	BYTE		N02     En5   v112
	BYTE	W12
	BYTE		        An5 
	BYTE	W12
	BYTE		        Bn5 
	BYTE	W12
	BYTE		        Cs6 
	BYTE	W12
	BYTE		        En5 
	BYTE	W12
	BYTE		        An5 
	BYTE	W24
	BYTE	PEND
// 046   ----------------------------------------
vastsever8850_9_046:
	BYTE		N02     An5   v112
	BYTE	W36
	BYTE		        Gn5 
	BYTE	W36
	BYTE		        Cn6 
	BYTE	W24
	BYTE	PEND
// 047   ----------------------------------------
vastsever8850_9_047:
	BYTE		N02     An5   v112
	BYTE	W36
	BYTE		        Dn5 
	BYTE	W24
	BYTE		        En5 
	BYTE	W12
	BYTE		        Fn5 
	BYTE	W12
	BYTE		        Gn5 
	BYTE	W12
	BYTE	PEND
// 048   ----------------------------------------
vastsever8850_9_048:
	BYTE		N02     An5   v112
	BYTE	W36
	BYTE		        Gn5 
	BYTE	W36
	BYTE		        Dn5 
	BYTE	W12
	BYTE		        En5 
	BYTE	W12
	BYTE	PEND
// 049   ----------------------------------------
vastsever8850_9_049:
	BYTE		N02     Fn5   v112
	BYTE	W24
	BYTE		        Gn5 
	BYTE	W12
	BYTE		        En5 
	BYTE	W36
	BYTE		        Cn5 
	BYTE	W24
	BYTE	PEND
// 050   ----------------------------------------
vastsever8850_9_050:
	BYTE		N02     As4   v112
	BYTE	W60
	BYTE		        Cn5 
	BYTE	W12
	BYTE		        Dn5 
	BYTE	W12
	BYTE		        Fn5 
	BYTE	W12
	BYTE	PEND
// 051   ----------------------------------------
vastsever8850_9_051:
	BYTE		N02     En5   v112
	BYTE	W36
	BYTE		        Fn5 
	BYTE	W36
	BYTE		        Gn5 
	BYTE	W24
	BYTE	PEND
// 052   ----------------------------------------
	BYTE	PATT
	 POIN2	vastsever8850_9_046
// 053   ----------------------------------------
vastsever8850_9_053:
	BYTE		N02     An5   v112
	BYTE	W48
	BYTE		        Dn5 
	BYTE	W12
	BYTE		        En5 
	BYTE	W12
	BYTE		        Fn5 
	BYTE	W12
	BYTE		        Gn5 
	BYTE	W12
	BYTE	PEND
// 054   ----------------------------------------
	BYTE	PATT
	 POIN2	vastsever8850_9_046
// 055   ----------------------------------------
	BYTE	PATT
	 POIN2	vastsever8850_9_047
// 056   ----------------------------------------
	BYTE	PATT
	 POIN2	vastsever8850_9_048
// 057   ----------------------------------------
	BYTE	PATT
	 POIN2	vastsever8850_9_049
// 058   ----------------------------------------
	BYTE	PATT
	 POIN2	vastsever8850_9_050
// 059   ----------------------------------------
	BYTE	PATT
	 POIN2	vastsever8850_9_051
// 060   ----------------------------------------
vastsever8850_9_060:
	BYTE		N02     En5   v112
	BYTE	W12
	BYTE		        Dn5 
	BYTE	W12
	BYTE		        Cn6 
	BYTE	W12
	BYTE		        En6 
	BYTE	W24
	BYTE		        Gn6 
	BYTE	W12
	BYTE		        En6 
	BYTE	W12
	BYTE		N03     Dn6 
	BYTE	W12
	BYTE	PEND
// 061   ----------------------------------------
	BYTE	W96
// 062   ----------------------------------------
	BYTE	W96
// 063   ----------------------------------------
	BYTE	W96
// 064   ----------------------------------------
	BYTE	W96
// 065   ----------------------------------------
	BYTE	W96
// 066   ----------------------------------------
	BYTE	W96
// 067   ----------------------------------------
	BYTE	W96
// 068   ----------------------------------------
	BYTE	W96
// 069   ----------------------------------------
	BYTE	W96
// 070   ----------------------------------------
	BYTE	W96
// 071   ----------------------------------------
	BYTE	W96
// 072   ----------------------------------------
	BYTE	W96
// 073   ----------------------------------------
	BYTE	W96
// 074   ----------------------------------------
	BYTE	W96
// 075   ----------------------------------------
	BYTE	W96
// 076   ----------------------------------------
	BYTE	W96
// 077   ----------------------------------------
	BYTE	W96
// 078   ----------------------------------------
	BYTE	W96
// 079   ----------------------------------------
	BYTE	W96
// 080   ----------------------------------------
	BYTE	W96
// 081   ----------------------------------------
	BYTE	W96
// 082   ----------------------------------------
	BYTE	W96
// 083   ----------------------------------------
	BYTE	W96
// 084   ----------------------------------------
	BYTE	W96
// 085   ----------------------------------------
	BYTE	W96
// 086   ----------------------------------------
	BYTE	W96
// 087   ----------------------------------------
	BYTE	W96
// 088   ----------------------------------------
	BYTE	W96
// 089   ----------------------------------------
	BYTE	W96
// 090   ----------------------------------------
	BYTE	W96
// 091   ----------------------------------------
	BYTE	W96
// 092   ----------------------------------------
	BYTE	W96
// 093   ----------------------------------------
	BYTE	W96
// 094   ----------------------------------------
	BYTE	W96
// 095   ----------------------------------------
	BYTE	W96
// 096   ----------------------------------------
	BYTE	W96
// 097   ----------------------------------------
	BYTE	W96
// 098   ----------------------------------------
	BYTE	W96
// 099   ----------------------------------------
	BYTE	W96
// 100   ----------------------------------------
	BYTE	W96
// 101   ----------------------------------------
	BYTE	W96
// 102   ----------------------------------------
	BYTE	W96
// 103   ----------------------------------------
	BYTE	W96
// 104   ----------------------------------------
	BYTE	W96
// 105   ----------------------------------------
	BYTE	PATT
	 POIN2	vastsever8850_9_045
// 106   ----------------------------------------
	BYTE	PATT
	 POIN2	vastsever8850_9_046
// 107   ----------------------------------------
	BYTE	PATT
	 POIN2	vastsever8850_9_047
// 108   ----------------------------------------
	BYTE	PATT
	 POIN2	vastsever8850_9_048
// 109   ----------------------------------------
	BYTE	PATT
	 POIN2	vastsever8850_9_049
// 110   ----------------------------------------
	BYTE	PATT
	 POIN2	vastsever8850_9_050
// 111   ----------------------------------------
	BYTE	PATT
	 POIN2	vastsever8850_9_051
// 112   ----------------------------------------
	BYTE	PATT
	 POIN2	vastsever8850_9_046
// 113   ----------------------------------------
	BYTE	PATT
	 POIN2	vastsever8850_9_053
// 114   ----------------------------------------
	BYTE	PATT
	 POIN2	vastsever8850_9_046
// 115   ----------------------------------------
	BYTE	PATT
	 POIN2	vastsever8850_9_047
// 116   ----------------------------------------
	BYTE	PATT
	 POIN2	vastsever8850_9_048
// 117   ----------------------------------------
	BYTE	PATT
	 POIN2	vastsever8850_9_049
// 118   ----------------------------------------
	BYTE	PATT
	 POIN2	vastsever8850_9_050
// 119   ----------------------------------------
	BYTE	PATT
	 POIN2	vastsever8850_9_051
// 120   ----------------------------------------
	BYTE	PATT
	 POIN2	vastsever8850_9_060
// 121   ----------------------------------------
	BYTE	W96
// 122   ----------------------------------------
	BYTE	W96
// 123   ----------------------------------------
	BYTE	W96
// 124   ----------------------------------------
	BYTE	W96
// 125   ----------------------------------------
	BYTE	W96
// 126   ----------------------------------------
	BYTE	W96
// 127   ----------------------------------------
	BYTE	W96
// 128   ----------------------------------------
	BYTE	W96
// 129   ----------------------------------------
	BYTE	W96
// 130   ----------------------------------------
	BYTE	W96
// 131   ----------------------------------------
	BYTE	W96
// 132   ----------------------------------------
	BYTE	W96
// 133   ----------------------------------------
	BYTE	W96
// 134   ----------------------------------------
	BYTE	W96
// 135   ----------------------------------------
	BYTE	W96
// 136   ----------------------------------------
	BYTE	W96
// 137   ----------------------------------------
	BYTE	W96
// 138   ----------------------------------------
	BYTE	W96
// 139   ----------------------------------------
	BYTE	W96
// 140   ----------------------------------------
	BYTE	W96
// 141   ----------------------------------------
	BYTE	W96
// 142   ----------------------------------------
	BYTE	W96
// 143   ----------------------------------------
	BYTE	W96
// 144   ----------------------------------------
	BYTE	W96
// 145   ----------------------------------------
	BYTE	W96
// 146   ----------------------------------------
	BYTE	W96
// 147   ----------------------------------------
	BYTE	W96
// 148   ----------------------------------------
	BYTE	W96
// 149   ----------------------------------------
	BYTE	W96
// 150   ----------------------------------------
	BYTE	W96
// 151   ----------------------------------------
	BYTE	W96
// 152   ----------------------------------------
	BYTE	W96
// 153   ----------------------------------------
	BYTE	W96
// 154   ----------------------------------------
	BYTE	W96
// 155   ----------------------------------------
	BYTE	W96
// 156   ----------------------------------------
	BYTE	W96
// 157   ----------------------------------------
	BYTE	W96
// 158   ----------------------------------------
	BYTE	W96
// 159   ----------------------------------------
	BYTE	W96
// 160   ----------------------------------------
	BYTE	W96
// 161   ----------------------------------------
	BYTE	W96
// 162   ----------------------------------------
	BYTE	W96
// 163   ----------------------------------------
	BYTE	FINE

//**************** Track 10 (Midi-Chn.10) ****************//

vastsever8850_10:
	BYTE	KEYSH   vastsever8850_key+0
// 000   ----------------------------------------
	BYTE	W96
// 001   ----------------------------------------
	BYTE		VOICE   8
	BYTE		VOL     95*vastsever8850_mvl/mxv
	BYTE		PAN     c_v+0
	BYTE	W48
	BYTE		MOD     0
	BYTE		BEND    c_v+0
	BYTE	W48
// 002   ----------------------------------------
	BYTE	W96
// 003   ----------------------------------------
	BYTE	W96
// 004   ----------------------------------------
	BYTE	W96
// 005   ----------------------------------------
	BYTE	W96
// 006   ----------------------------------------
vastsever8850_10_006:
	BYTE		N02     Fs1   v112
	BYTE	W06
	BYTE		N02   
	BYTE	W06
	BYTE		        As1 
	BYTE	W06
	BYTE		        Gs1 
	BYTE	W06
	BYTE		        Fs1 
	BYTE	W06
	BYTE		N02   
	BYTE	W06
	BYTE		        As1 
	BYTE	W06
	BYTE		        Gs1 
	BYTE	W06
	BYTE		        Fs1 
	BYTE	W06
	BYTE		N02   
	BYTE	W06
	BYTE		        As1 
	BYTE	W06
	BYTE		        Gs1 
	BYTE	W06
	BYTE		        Fs1 
	BYTE	W06
	BYTE		N02   
	BYTE	W06
	BYTE		        As1 
	BYTE	W06
	BYTE		        Gs1 
	BYTE	W06
	BYTE	PEND
// 007   ----------------------------------------
	BYTE	PATT
	 POIN2	vastsever8850_10_006
// 008   ----------------------------------------
	BYTE	PATT
	 POIN2	vastsever8850_10_006
// 009   ----------------------------------------
	BYTE	PATT
	 POIN2	vastsever8850_10_006
// 010   ----------------------------------------
vastsever8850_10_010:
	BYTE		N02     As1   v112
	BYTE		N02     Cs2   v127
	BYTE	W06
	BYTE		        Gs1   v112
	BYTE	W06
	BYTE		        Fs1 
	BYTE	W06
	BYTE		N02   
	BYTE	W06
	BYTE		        As1 
	BYTE	W06
	BYTE		        Gs1 
	BYTE	W06
	BYTE		        Fs1 
	BYTE	W06
	BYTE		N02   
	BYTE	W06
	BYTE		        As1 
	BYTE	W06
	BYTE		        Gs1 
	BYTE	W06
	BYTE		        Fs1 
	BYTE	W06
	BYTE		N02   
	BYTE	W06
	BYTE		        As1 
	BYTE	W06
	BYTE		        Gs1 
	BYTE	W06
	BYTE		        Fs1 
	BYTE	W06
	BYTE		N02   
	BYTE	W06
	BYTE	PEND
// 011   ----------------------------------------
vastsever8850_10_011:
	BYTE		N02     As1   v112
	BYTE	W06
	BYTE		        Gs1 
	BYTE	W06
	BYTE		        Fs1 
	BYTE	W06
	BYTE		N02   
	BYTE	W06
	BYTE		        As1 
	BYTE	W06
	BYTE		        Gs1 
	BYTE	W06
	BYTE		        Fs1 
	BYTE	W06
	BYTE		N02   
	BYTE	W06
	BYTE		        As1 
	BYTE	W06
	BYTE		        Gs1 
	BYTE	W06
	BYTE		        Fs1 
	BYTE	W06
	BYTE		N02   
	BYTE	W06
	BYTE		        As1 
	BYTE	W06
	BYTE		        Gs1 
	BYTE	W06
	BYTE		        Fs1 
	BYTE	W06
	BYTE		N02   
	BYTE	W06
	BYTE	PEND
// 012   ----------------------------------------
	BYTE	PATT
	 POIN2	vastsever8850_10_011
// 013   ----------------------------------------
vastsever8850_10_013:
	BYTE		N02     Fs1   v112
	BYTE	W06
	BYTE		N02   
	BYTE	W06
	BYTE		        As1 
	BYTE	W06
	BYTE		        Fs1 
	BYTE	W06
	BYTE		        As1 
	BYTE	W06
	BYTE		N02   
	BYTE	W06
	BYTE		        Fs1 
	BYTE	W06
	BYTE		        As1 
	BYTE	W06
	BYTE		        Fs1 
	BYTE	W06
	BYTE		N02   
	BYTE	W06
	BYTE		        As1 
	BYTE	W06
	BYTE		        Gs1 
	BYTE	W06
	BYTE		        Fs1 
	BYTE	W06
	BYTE		N02   
	BYTE	W06
	BYTE		        As1 
	BYTE	W06
	BYTE		        Gs1 
	BYTE	W06
	BYTE	PEND
// 014   ----------------------------------------
	BYTE	PATT
	 POIN2	vastsever8850_10_010
// 015   ----------------------------------------
	BYTE	PATT
	 POIN2	vastsever8850_10_011
// 016   ----------------------------------------
vastsever8850_10_016:
	BYTE		N02     As1   v112
	BYTE	W12
	BYTE		        Gs1 
	BYTE	W06
	BYTE		        Fs1 
	BYTE	W06
	BYTE		        As1   v116
	BYTE	W12
	BYTE		        Gs1 
	BYTE	W06
	BYTE		        Fs1 
	BYTE	W06
	BYTE		        As1   v120
	BYTE	W12
	BYTE		        Gs1 
	BYTE	W06
	BYTE		        Fs1 
	BYTE	W06
	BYTE		        As1   v127
	BYTE	W18
	BYTE		        Gn1   v112
	BYTE	W06
	BYTE	PEND
// 017   ----------------------------------------
vastsever8850_10_017:
	BYTE		N02     An2   v112
	BYTE	W60
	BYTE		        Cn2 
	BYTE	W06
	BYTE		        Gn1 
	BYTE	W18
	BYTE		        Bn1 
	BYTE	W06
	BYTE		        Fn1 
	BYTE	W06
	BYTE	PEND
// 018   ----------------------------------------
vastsever8850_10_018:
	BYTE		N02     Fs1   v112
	BYTE		N02     Cs2   v127
	BYTE	W06
	BYTE		        Fs1   v112
	BYTE	W06
	BYTE		        Gs1 
	BYTE	W06
	BYTE		        Fs1 
	BYTE	W06
	BYTE		        As1 
	BYTE	W06
	BYTE		        Fs1 
	BYTE	W06
	BYTE		        Gs1 
	BYTE	W06
	BYTE		        Fs1 
	BYTE	W06
	BYTE		N02   
	BYTE	W06
	BYTE		N02   
	BYTE	W06
	BYTE		        Gs1 
	BYTE	W06
	BYTE		        Fs1 
	BYTE	W06
	BYTE		        As1 
	BYTE	W06
	BYTE		        Fs1 
	BYTE	W06
	BYTE		        As1 
	BYTE	W06
	BYTE		        Gs1 
	BYTE	W06
	BYTE	PEND
// 019   ----------------------------------------
vastsever8850_10_019:
	BYTE		N02     Fs1   v112
	BYTE	W06
	BYTE		        As1 
	BYTE	W06
	BYTE		        Fs1 
	BYTE	W06
	BYTE		N02   
	BYTE	W06
	BYTE		        As1 
	BYTE	W06
	BYTE		        Fs1 
	BYTE	W06
	BYTE		        Gs1 
	BYTE	W06
	BYTE		        As1 
	BYTE	W06
	BYTE		        Fs1 
	BYTE	W06
	BYTE		        As1 
	BYTE	W06
	BYTE		        Fs1 
	BYTE	W06
	BYTE		        Gs1 
	BYTE	W06
	BYTE		        As1 
	BYTE	W06
	BYTE		        Fs1 
	BYTE	W06
	BYTE		        Gs1 
	BYTE	W06
	BYTE		        As1 
	BYTE	W06
	BYTE	PEND
// 020   ----------------------------------------
vastsever8850_10_020:
	BYTE		N02     Fs1   v112
	BYTE	W06
	BYTE		N02   
	BYTE	W06
	BYTE		        Gs1 
	BYTE	W06
	BYTE		        Fs1 
	BYTE	W06
	BYTE		        As1 
	BYTE	W06
	BYTE		        Fs1 
	BYTE	W06
	BYTE		        Gs1 
	BYTE	W06
	BYTE		        Fs1 
	BYTE	W06
	BYTE		N02   
	BYTE	W06
	BYTE		N02   
	BYTE	W06
	BYTE		        Gs1 
	BYTE	W06
	BYTE		        Fs1 
	BYTE	W06
	BYTE		        As1 
	BYTE	W06
	BYTE		        Fs1 
	BYTE	W06
	BYTE		        As1 
	BYTE	W06
	BYTE		        Gs1 
	BYTE	W06
	BYTE	PEND
// 021   ----------------------------------------
	BYTE	PATT
	 POIN2	vastsever8850_10_019
// 022   ----------------------------------------
	BYTE	PATT
	 POIN2	vastsever8850_10_020
// 023   ----------------------------------------
	BYTE	PATT
	 POIN2	vastsever8850_10_019
// 024   ----------------------------------------
	BYTE	PATT
	 POIN2	vastsever8850_10_020
// 025   ----------------------------------------
vastsever8850_10_025:
	BYTE		N02     Fs1   v112
	BYTE	W06
	BYTE		        As1 
	BYTE	W06
	BYTE		        Fs1 
	BYTE	W06
	BYTE		N02   
	BYTE	W06
	BYTE		        As1 
	BYTE	W06
	BYTE		        Fs1 
	BYTE	W06
	BYTE		        Gs1 
	BYTE	W06
	BYTE		        As1 
	BYTE	W06
	BYTE		        Fs1 
	BYTE	W06
	BYTE		        As1 
	BYTE	W06
	BYTE		        Fs1 
	BYTE	W06
	BYTE		        Gs1 
	BYTE	W06
	BYTE		        Fs1 
	BYTE	W06
	BYTE		        As1 
	BYTE	W06
	BYTE		        Fs1 
	BYTE	W06
	BYTE		        As1 
	BYTE	W06
	BYTE	PEND
// 026   ----------------------------------------
vastsever8850_10_026:
	BYTE		N02     Fs1   v112
	BYTE		N02     An2   v127
	BYTE	W06
	BYTE		        Fs1   v112
	BYTE	W06
	BYTE		        Gs1 
	BYTE	W06
	BYTE		        Fs1 
	BYTE	W06
	BYTE		        As1 
	BYTE	W06
	BYTE		        Fs1 
	BYTE	W06
	BYTE		        Gs1 
	BYTE	W06
	BYTE		        Fs1 
	BYTE	W06
	BYTE		N02   
	BYTE	W06
	BYTE		N02   
	BYTE	W06
	BYTE		        Gs1 
	BYTE	W06
	BYTE		        Fs1 
	BYTE	W06
	BYTE		        As1 
	BYTE	W06
	BYTE		        Fs1 
	BYTE	W06
	BYTE		        As1 
	BYTE	W06
	BYTE		        Gs1 
	BYTE	W06
	BYTE	PEND
// 027   ----------------------------------------
	BYTE	PATT
	 POIN2	vastsever8850_10_019
// 028   ----------------------------------------
	BYTE	PATT
	 POIN2	vastsever8850_10_020
// 029   ----------------------------------------
	BYTE	PATT
	 POIN2	vastsever8850_10_019
// 030   ----------------------------------------
	BYTE	PATT
	 POIN2	vastsever8850_10_020
// 031   ----------------------------------------
	BYTE	PATT
	 POIN2	vastsever8850_10_019
// 032   ----------------------------------------
	BYTE	PATT
	 POIN2	vastsever8850_10_020
// 033   ----------------------------------------
vastsever8850_10_033:
	BYTE		N02     Fs1   v112
	BYTE	W06
	BYTE		        As1 
	BYTE	W06
	BYTE		        Fs1 
	BYTE	W06
	BYTE		N02   
	BYTE	W06
	BYTE		        As1 
	BYTE	W06
	BYTE		        Fs1 
	BYTE	W06
	BYTE		        Gs1 
	BYTE	W06
	BYTE		        As1 
	BYTE	W06
	BYTE		        Fn2   v127
	BYTE	W18
	BYTE		        Cn2   v112
	BYTE	W12
	BYTE		        Gn1 
	BYTE	W12
	BYTE		        Fn1 
	BYTE	W06
	BYTE	PEND
// 034   ----------------------------------------
vastsever8850_10_034:
	BYTE		N02     As1   v112
	BYTE		N02     Cs2   v127
	BYTE	W12
	BYTE		        As1   v112
	BYTE	W12
	BYTE		N02   
	BYTE	W12
	BYTE		N02   
	BYTE	W12
	BYTE		N02   
	BYTE	W12
	BYTE		N02   
	BYTE	W12
	BYTE		        En2 
	BYTE	W12
	BYTE		        Gn2 
	BYTE	W12
	BYTE	PEND
// 035   ----------------------------------------
vastsever8850_10_035:
	BYTE		N02     As1   v112
	BYTE	W12
	BYTE		N02   
	BYTE	W12
	BYTE		N02   
	BYTE	W12
	BYTE		N02   
	BYTE	W12
	BYTE		N02   
	BYTE	W12
	BYTE		        Fn2   v127
	BYTE	W12
	BYTE		        As1   v112
	BYTE	W12
	BYTE		        Fn2   v127
	BYTE	W12
	BYTE	PEND
// 036   ----------------------------------------
vastsever8850_10_036:
	BYTE		N02     As1   v112
	BYTE		N02     An2   v127
	BYTE	W12
	BYTE		        As1   v112
	BYTE	W12
	BYTE		N02   
	BYTE	W12
	BYTE		N02   
	BYTE	W12
	BYTE		N02   
	BYTE	W12
	BYTE		N02   
	BYTE	W12
	BYTE		        Gn2 
	BYTE	W12
	BYTE		        En2 
	BYTE	W12
	BYTE	PEND
// 037   ----------------------------------------
vastsever8850_10_037:
	BYTE		N02     As1   v112
	BYTE	W12
	BYTE		N02   
	BYTE	W12
	BYTE		N02   
	BYTE	W12
	BYTE		N02   
	BYTE	W12
	BYTE		N02   
	BYTE	W12
	BYTE		        Fn2   v127
	BYTE	W12
	BYTE		        Gn2   v112
	BYTE	W24
	BYTE	PEND
// 038   ----------------------------------------
	BYTE	PATT
	 POIN2	vastsever8850_10_034
// 039   ----------------------------------------
	BYTE	PATT
	 POIN2	vastsever8850_10_035
// 040   ----------------------------------------
	BYTE	PATT
	 POIN2	vastsever8850_10_036
// 041   ----------------------------------------
vastsever8850_10_041:
	BYTE		N02     An2   v127
	BYTE	W06
	BYTE		        Dn2   v112
	BYTE	W06
	BYTE		        Bn1 
	BYTE	W06
	BYTE		        Gn1 
	BYTE	W12
	BYTE		        Cn2 
	BYTE	W06
	BYTE		        An1 
	BYTE	W06
	BYTE		        Fn1 
	BYTE	W12
	BYTE		        Dn2 
	BYTE	W06
	BYTE		        Bn1 
	BYTE	W06
	BYTE		        Gn1 
	BYTE	W06
	BYTE		        An2   v127
	BYTE	W24
	BYTE	PEND
// 042   ----------------------------------------
vastsever8850_10_042:
	BYTE		N02     Cs2   v127
	BYTE	W12
	BYTE		        Fs1   v112
	BYTE	W06
	BYTE		N02   
	BYTE	W06
	BYTE		        As1 
	BYTE	W12
	BYTE		        Fs1 
	BYTE	W06
	BYTE		N02   
	BYTE	W06
	BYTE		        As1 
	BYTE	W12
	BYTE		        Fs1 
	BYTE	W06
	BYTE		N02   
	BYTE	W06
	BYTE		        As1 
	BYTE	W06
	BYTE		        Fs1 
	BYTE	W06
	BYTE		N02   
	BYTE	W06
	BYTE		        As1 
	BYTE	W06
	BYTE	PEND
// 043   ----------------------------------------
vastsever8850_10_043:
	BYTE		N02     Gn2   v127
	BYTE	W12
	BYTE		        Fs1   v112
	BYTE	W06
	BYTE		N02   
	BYTE	W06
	BYTE		        As1 
	BYTE	W12
	BYTE		        Fs1 
	BYTE	W06
	BYTE		N02   
	BYTE	W06
	BYTE		        As1 
	BYTE	W12
	BYTE		        Fs1 
	BYTE	W06
	BYTE		N02   
	BYTE	W06
	BYTE		        As1 
	BYTE	W06
	BYTE		        Fs1 
	BYTE	W06
	BYTE		N02   
	BYTE	W06
	BYTE		        As1 
	BYTE	W06
	BYTE	PEND
// 044   ----------------------------------------
	BYTE	PATT
	 POIN2	vastsever8850_10_043
// 045   ----------------------------------------
vastsever8850_10_045:
	BYTE		N02     Gn2   v127
	BYTE	W06
	BYTE		        Dn2   v112
	BYTE	W06
	BYTE		        Bn1 
	BYTE	W06
	BYTE		        Gn1 
	BYTE	W12
	BYTE		        Dn2 
	BYTE	W06
	BYTE		        Bn1 
	BYTE	W06
	BYTE		        Gn1 
	BYTE	W12
	BYTE		        Cn2 
	BYTE	W06
	BYTE		        An1 
	BYTE	W06
	BYTE		        Fn1 
	BYTE	W06
	BYTE		        An2   v127
	BYTE	W24
	BYTE	PEND
// 046   ----------------------------------------
vastsever8850_10_046:
	BYTE		N02     Fs1   v112
	BYTE		N02     Cs2   v127
	BYTE	W06
	BYTE		        Fs1   v112
	BYTE	W06
	BYTE		        As1 
	BYTE	W12
	BYTE		        Fs1 
	BYTE	W06
	BYTE		N02   
	BYTE	W06
	BYTE		        As1 
	BYTE	W12
	BYTE		        Fs1 
	BYTE	W06
	BYTE		N02   
	BYTE	W06
	BYTE		        As1 
	BYTE	W12
	BYTE		        Fs1 
	BYTE	W06
	BYTE		N02   
	BYTE	W06
	BYTE		        As1 
	BYTE	W12
	BYTE	PEND
// 047   ----------------------------------------
vastsever8850_10_047:
	BYTE		N02     Fs1   v112
	BYTE	W06
	BYTE		N02   
	BYTE	W06
	BYTE		        As1 
	BYTE	W12
	BYTE		        Fs1 
	BYTE	W06
	BYTE		N02   
	BYTE	W06
	BYTE		        As1 
	BYTE	W12
	BYTE		        Fs1 
	BYTE	W06
	BYTE		N02   
	BYTE	W06
	BYTE		        As1 
	BYTE	W12
	BYTE		        Fs1 
	BYTE	W06
	BYTE		N02   
	BYTE	W06
	BYTE		        As1 
	BYTE	W12
	BYTE	PEND
// 048   ----------------------------------------
	BYTE	PATT
	 POIN2	vastsever8850_10_047
// 049   ----------------------------------------
vastsever8850_10_049:
	BYTE		N02     Fs1   v112
	BYTE	W06
	BYTE		N02   
	BYTE	W06
	BYTE		        As1 
	BYTE	W12
	BYTE		        Fs1 
	BYTE	W06
	BYTE		N02   
	BYTE	W06
	BYTE		        As1 
	BYTE	W12
	BYTE		        Fs1 
	BYTE	W06
	BYTE		N02   
	BYTE	W06
	BYTE		        As1 
	BYTE	W24
	BYTE		N02   
	BYTE	W12
	BYTE	PEND
// 050   ----------------------------------------
vastsever8850_10_050:
	BYTE		N02     Fs1   v112
	BYTE		N02     An2   v127
	BYTE	W06
	BYTE		        Fs1   v112
	BYTE	W06
	BYTE		        As1 
	BYTE	W12
	BYTE		        Fs1 
	BYTE	W06
	BYTE		N02   
	BYTE	W06
	BYTE		        As1 
	BYTE	W12
	BYTE		        Fs1 
	BYTE	W06
	BYTE		N02   
	BYTE	W06
	BYTE		        As1 
	BYTE	W12
	BYTE		        Fs1 
	BYTE	W06
	BYTE		N02   
	BYTE	W06
	BYTE		        As1 
	BYTE	W12
	BYTE	PEND
// 051   ----------------------------------------
	BYTE	PATT
	 POIN2	vastsever8850_10_047
// 052   ----------------------------------------
	BYTE	PATT
	 POIN2	vastsever8850_10_047
// 053   ----------------------------------------
	BYTE	PATT
	 POIN2	vastsever8850_10_049
// 054   ----------------------------------------
	BYTE	PATT
	 POIN2	vastsever8850_10_046
// 055   ----------------------------------------
	BYTE	PATT
	 POIN2	vastsever8850_10_047
// 056   ----------------------------------------
	BYTE	PATT
	 POIN2	vastsever8850_10_047
// 057   ----------------------------------------
vastsever8850_10_057:
	BYTE		N02     Fs1   v112
	BYTE		N02     An2   v127
	BYTE	W06
	BYTE		        Fs1   v112
	BYTE	W06
	BYTE		        As1 
	BYTE	W12
	BYTE		        Fs1 
	BYTE	W06
	BYTE		N02   
	BYTE	W06
	BYTE		        As1 
	BYTE	W12
	BYTE		        Fs1 
	BYTE	W06
	BYTE		N02   
	BYTE	W06
	BYTE		        As1 
	BYTE	W12
	BYTE		        Gn2   v127
	BYTE	W12
	BYTE		        As1   v112
	BYTE	W12
	BYTE	PEND
// 058   ----------------------------------------
	BYTE	PATT
	 POIN2	vastsever8850_10_050
// 059   ----------------------------------------
	BYTE	PATT
	 POIN2	vastsever8850_10_047
// 060   ----------------------------------------
	BYTE	PATT
	 POIN2	vastsever8850_10_047
// 061   ----------------------------------------
vastsever8850_10_061:
	BYTE		N02     Fs1   v112
	BYTE		N02     Fn2   v127
	BYTE	W06
	BYTE		        Fs1   v112
	BYTE	W06
	BYTE		        As1 
	BYTE	W12
	BYTE		        Fs1 
	BYTE		N02     Gn2   v127
	BYTE	W06
	BYTE		        Fs1   v112
	BYTE	W06
	BYTE		        As1 
	BYTE	W30
	BYTE		        Cn2 
	BYTE	W18
	BYTE		        An1 
	BYTE	W12
	BYTE	PEND
// 062   ----------------------------------------
vastsever8850_10_062:
	BYTE		N02     Cs2   v127
	BYTE	W12
	BYTE		        Fs1   v112
	BYTE	W12
	BYTE		        As1 
	BYTE	W12
	BYTE		        Fs1 
	BYTE	W12
	BYTE		        As1 
	BYTE	W12
	BYTE		        Fs1 
	BYTE	W12
	BYTE		        As1 
	BYTE	W12
	BYTE		        Fs1 
	BYTE	W12
	BYTE	PEND
// 063   ----------------------------------------
vastsever8850_10_063:
	BYTE		N02     As1   v112
	BYTE	W12
	BYTE		        Fs1 
	BYTE	W12
	BYTE		        As1 
	BYTE	W12
	BYTE		        Fs1 
	BYTE	W12
	BYTE		        As1 
	BYTE	W12
	BYTE		        Fs1 
	BYTE	W12
	BYTE		        As1 
	BYTE	W12
	BYTE		        Fs1 
	BYTE	W12
	BYTE	PEND
// 064   ----------------------------------------
	BYTE	PATT
	 POIN2	vastsever8850_10_063
// 065   ----------------------------------------
	BYTE	PATT
	 POIN2	vastsever8850_10_063
// 066   ----------------------------------------
vastsever8850_10_066:
	BYTE		N02     Fs1   v112
	BYTE		N02     Cs2   v127
	BYTE	W06
	BYTE		        Fs1   v112
	BYTE	W06
	BYTE		        As1 
	BYTE	W06
	BYTE		        Gs1 
	BYTE	W06
	BYTE		        Fs1 
	BYTE	W06
	BYTE		N02   
	BYTE	W06
	BYTE		        As1 
	BYTE	W06
	BYTE		        Gs1 
	BYTE	W06
	BYTE		        Fs1 
	BYTE	W06
	BYTE		N02   
	BYTE	W06
	BYTE		        As1 
	BYTE	W06
	BYTE		        Gs1 
	BYTE	W06
	BYTE		        Fs1 
	BYTE	W06
	BYTE		N02   
	BYTE	W06
	BYTE		        As1 
	BYTE	W06
	BYTE		        Gs1 
	BYTE	W06
	BYTE	PEND
// 067   ----------------------------------------
	BYTE	PATT
	 POIN2	vastsever8850_10_006
// 068   ----------------------------------------
	BYTE	PATT
	 POIN2	vastsever8850_10_006
// 069   ----------------------------------------
	BYTE	PATT
	 POIN2	vastsever8850_10_006
// 070   ----------------------------------------
	BYTE	PATT
	 POIN2	vastsever8850_10_010
// 071   ----------------------------------------
	BYTE	PATT
	 POIN2	vastsever8850_10_011
// 072   ----------------------------------------
	BYTE	PATT
	 POIN2	vastsever8850_10_011
// 073   ----------------------------------------
	BYTE	PATT
	 POIN2	vastsever8850_10_013
// 074   ----------------------------------------
	BYTE	PATT
	 POIN2	vastsever8850_10_010
// 075   ----------------------------------------
	BYTE	PATT
	 POIN2	vastsever8850_10_011
// 076   ----------------------------------------
	BYTE	PATT
	 POIN2	vastsever8850_10_016
// 077   ----------------------------------------
	BYTE	PATT
	 POIN2	vastsever8850_10_017
// 078   ----------------------------------------
	BYTE	PATT
	 POIN2	vastsever8850_10_018
// 079   ----------------------------------------
	BYTE	PATT
	 POIN2	vastsever8850_10_019
// 080   ----------------------------------------
	BYTE	PATT
	 POIN2	vastsever8850_10_020
// 081   ----------------------------------------
	BYTE	PATT
	 POIN2	vastsever8850_10_019
// 082   ----------------------------------------
	BYTE	PATT
	 POIN2	vastsever8850_10_020
// 083   ----------------------------------------
	BYTE	PATT
	 POIN2	vastsever8850_10_019
// 084   ----------------------------------------
	BYTE	PATT
	 POIN2	vastsever8850_10_020
// 085   ----------------------------------------
	BYTE	PATT
	 POIN2	vastsever8850_10_025
// 086   ----------------------------------------
	BYTE	PATT
	 POIN2	vastsever8850_10_026
// 087   ----------------------------------------
	BYTE	PATT
	 POIN2	vastsever8850_10_019
// 088   ----------------------------------------
	BYTE	PATT
	 POIN2	vastsever8850_10_020
// 089   ----------------------------------------
	BYTE	PATT
	 POIN2	vastsever8850_10_019
// 090   ----------------------------------------
	BYTE	PATT
	 POIN2	vastsever8850_10_020
// 091   ----------------------------------------
	BYTE	PATT
	 POIN2	vastsever8850_10_019
// 092   ----------------------------------------
	BYTE	PATT
	 POIN2	vastsever8850_10_020
// 093   ----------------------------------------
	BYTE	PATT
	 POIN2	vastsever8850_10_033
// 094   ----------------------------------------
	BYTE	PATT
	 POIN2	vastsever8850_10_034
// 095   ----------------------------------------
	BYTE	PATT
	 POIN2	vastsever8850_10_035
// 096   ----------------------------------------
	BYTE	PATT
	 POIN2	vastsever8850_10_036
// 097   ----------------------------------------
	BYTE	PATT
	 POIN2	vastsever8850_10_037
// 098   ----------------------------------------
	BYTE	PATT
	 POIN2	vastsever8850_10_034
// 099   ----------------------------------------
	BYTE	PATT
	 POIN2	vastsever8850_10_035
// 100   ----------------------------------------
	BYTE	PATT
	 POIN2	vastsever8850_10_036
// 101   ----------------------------------------
	BYTE	PATT
	 POIN2	vastsever8850_10_041
// 102   ----------------------------------------
	BYTE	PATT
	 POIN2	vastsever8850_10_042
// 103   ----------------------------------------
	BYTE	PATT
	 POIN2	vastsever8850_10_043
// 104   ----------------------------------------
	BYTE	PATT
	 POIN2	vastsever8850_10_043
// 105   ----------------------------------------
	BYTE	PATT
	 POIN2	vastsever8850_10_045
// 106   ----------------------------------------
	BYTE	PATT
	 POIN2	vastsever8850_10_046
// 107   ----------------------------------------
	BYTE	PATT
	 POIN2	vastsever8850_10_047
// 108   ----------------------------------------
	BYTE	PATT
	 POIN2	vastsever8850_10_047
// 109   ----------------------------------------
	BYTE	PATT
	 POIN2	vastsever8850_10_049
// 110   ----------------------------------------
	BYTE	PATT
	 POIN2	vastsever8850_10_050
// 111   ----------------------------------------
	BYTE	PATT
	 POIN2	vastsever8850_10_047
// 112   ----------------------------------------
	BYTE	PATT
	 POIN2	vastsever8850_10_047
// 113   ----------------------------------------
	BYTE	PATT
	 POIN2	vastsever8850_10_049
// 114   ----------------------------------------
	BYTE	PATT
	 POIN2	vastsever8850_10_046
// 115   ----------------------------------------
	BYTE	PATT
	 POIN2	vastsever8850_10_047
// 116   ----------------------------------------
	BYTE	PATT
	 POIN2	vastsever8850_10_047
// 117   ----------------------------------------
	BYTE	PATT
	 POIN2	vastsever8850_10_057
// 118   ----------------------------------------
	BYTE	PATT
	 POIN2	vastsever8850_10_050
// 119   ----------------------------------------
	BYTE	PATT
	 POIN2	vastsever8850_10_047
// 120   ----------------------------------------
	BYTE	PATT
	 POIN2	vastsever8850_10_047
// 121   ----------------------------------------
	BYTE	PATT
	 POIN2	vastsever8850_10_061
// 122   ----------------------------------------
	BYTE	PATT
	 POIN2	vastsever8850_10_062
// 123   ----------------------------------------
	BYTE	PATT
	 POIN2	vastsever8850_10_063
// 124   ----------------------------------------
	BYTE	PATT
	 POIN2	vastsever8850_10_063
// 125   ----------------------------------------
	BYTE	PATT
	 POIN2	vastsever8850_10_063
// 126   ----------------------------------------
	BYTE	PATT
	 POIN2	vastsever8850_10_066
// 127   ----------------------------------------
	BYTE	PATT
	 POIN2	vastsever8850_10_006
// 128   ----------------------------------------
	BYTE	PATT
	 POIN2	vastsever8850_10_006
// 129   ----------------------------------------
	BYTE		N02     Fs1   v112
	BYTE	W06
	BYTE		N02   
	BYTE	W06
	BYTE		        As1 
	BYTE	W06
	BYTE		        Gs1 
	BYTE	W06
	BYTE		        Fs1 
	BYTE	W06
	BYTE		N02   
	BYTE	W06
	BYTE		        As1 
	BYTE	W06
	BYTE		        Gs1 
	BYTE	W06
	BYTE		        An2   v127
	BYTE	W48
// 130   ----------------------------------------
	BYTE		        Fs1   v112
	BYTE		N02     Cs2   v127
	BYTE	W06
	BYTE		        Fs1   v112
	BYTE	W06
	BYTE		        Gs1 
	BYTE	W06
	BYTE		        Fs1 
	BYTE	W06
	BYTE		        As1 
	BYTE	W06
	BYTE		        Fs1 
	BYTE	W06
	BYTE		        Gs1 
	BYTE	W06
	BYTE		        Fs1 
	BYTE		N02     Cn2 
	BYTE	W06
	BYTE		        Fs1 
	BYTE	W06
	BYTE		N02   
	BYTE	W06
	BYTE		        Gs1 
	BYTE	W06
	BYTE		        Fs1 
	BYTE	W06
	BYTE		        As1 
	BYTE	W06
	BYTE		        Fs1 
	BYTE	W06
	BYTE		        As1 
	BYTE	W06
	BYTE		        Gs1 
	BYTE	W06
// 131   ----------------------------------------
vastsever8850_10_131:
	BYTE		N02     Fs1   v112
	BYTE	W06
	BYTE		        As1 
	BYTE	W06
	BYTE		        Fs1 
	BYTE	W06
	BYTE		N02   
	BYTE	W06
	BYTE		        As1 
	BYTE	W06
	BYTE		        Fs1 
	BYTE	W06
	BYTE		        Gs1 
	BYTE	W06
	BYTE		        As1 
	BYTE		N02     Cn2 
	BYTE	W06
	BYTE		        Fs1 
	BYTE	W06
	BYTE		        As1 
	BYTE	W06
	BYTE		        Fs1 
	BYTE	W06
	BYTE		        Gs1 
	BYTE	W06
	BYTE		        As1 
	BYTE	W06
	BYTE		        Fs1 
	BYTE	W06
	BYTE		        Gs1 
	BYTE	W06
	BYTE		        As1 
	BYTE	W06
	BYTE	PEND
// 132   ----------------------------------------
vastsever8850_10_132:
	BYTE		N02     Fs1   v112
	BYTE	W06
	BYTE		N02   
	BYTE	W06
	BYTE		        Gs1 
	BYTE	W06
	BYTE		        Fs1 
	BYTE	W06
	BYTE		        As1 
	BYTE	W06
	BYTE		        Fs1 
	BYTE	W06
	BYTE		        Gs1 
	BYTE	W06
	BYTE		        Fs1 
	BYTE		N02     Cn2 
	BYTE	W06
	BYTE		        Fs1 
	BYTE	W06
	BYTE		N02   
	BYTE	W06
	BYTE		        Gs1 
	BYTE	W06
	BYTE		        Fs1 
	BYTE	W06
	BYTE		        As1 
	BYTE	W06
	BYTE		        Fs1 
	BYTE	W06
	BYTE		        As1 
	BYTE	W06
	BYTE		        Gs1 
	BYTE	W06
	BYTE	PEND
// 133   ----------------------------------------
	BYTE	PATT
	 POIN2	vastsever8850_10_131
// 134   ----------------------------------------
	BYTE		N02     Fs1   v112
	BYTE		N02     An2   v127
	BYTE	W06
	BYTE		        Fs1   v112
	BYTE	W06
	BYTE		        Gs1 
	BYTE	W06
	BYTE		        Fs1 
	BYTE	W06
	BYTE		        As1 
	BYTE	W06
	BYTE		        Fs1 
	BYTE	W06
	BYTE		        Gs1 
	BYTE	W06
	BYTE		        Fs1 
	BYTE		N02     Cn2 
	BYTE	W06
	BYTE		        Fs1 
	BYTE	W06
	BYTE		N02   
	BYTE	W06
	BYTE		        Gs1 
	BYTE	W06
	BYTE		        Fs1 
	BYTE	W06
	BYTE		        As1 
	BYTE	W06
	BYTE		        Fs1 
	BYTE	W06
	BYTE		        As1 
	BYTE	W06
	BYTE		        Gs1 
	BYTE	W06
// 135   ----------------------------------------
	BYTE	PATT
	 POIN2	vastsever8850_10_131
// 136   ----------------------------------------
	BYTE	PATT
	 POIN2	vastsever8850_10_132
// 137   ----------------------------------------
	BYTE		N02     An2   v112
	BYTE	W06
	BYTE		        Cn2 
	BYTE	W06
	BYTE		        An1 
	BYTE	W06
	BYTE		        Fn1 
	BYTE	W12
	BYTE		        Cn2 
	BYTE	W06
	BYTE		        An1 
	BYTE	W06
	BYTE		        Fn1 
	BYTE	W18
	BYTE		        Cn2 
	BYTE	W06
	BYTE		        Gn1 
	BYTE	W30
// 138   ----------------------------------------
	BYTE	PATT
	 POIN2	vastsever8850_10_018
// 139   ----------------------------------------
	BYTE	PATT
	 POIN2	vastsever8850_10_019
// 140   ----------------------------------------
	BYTE	PATT
	 POIN2	vastsever8850_10_020
// 141   ----------------------------------------
	BYTE	PATT
	 POIN2	vastsever8850_10_019
// 142   ----------------------------------------
	BYTE	PATT
	 POIN2	vastsever8850_10_020
// 143   ----------------------------------------
	BYTE	PATT
	 POIN2	vastsever8850_10_019
// 144   ----------------------------------------
	BYTE	PATT
	 POIN2	vastsever8850_10_020
// 145   ----------------------------------------
	BYTE	PATT
	 POIN2	vastsever8850_10_025
// 146   ----------------------------------------
	BYTE	PATT
	 POIN2	vastsever8850_10_026
// 147   ----------------------------------------
	BYTE	PATT
	 POIN2	vastsever8850_10_019
// 148   ----------------------------------------
	BYTE	PATT
	 POIN2	vastsever8850_10_020
// 149   ----------------------------------------
	BYTE	PATT
	 POIN2	vastsever8850_10_019
// 150   ----------------------------------------
	BYTE	PATT
	 POIN2	vastsever8850_10_020
// 151   ----------------------------------------
	BYTE	PATT
	 POIN2	vastsever8850_10_019
// 152   ----------------------------------------
	BYTE	PATT
	 POIN2	vastsever8850_10_020
// 153   ----------------------------------------
	BYTE		N02     Fs1   v112
	BYTE		N02     Gn2   v127
	BYTE	W06
	BYTE		        As1   v112
	BYTE	W06
	BYTE		        Fs1 
	BYTE	W06
	BYTE		N02   
	BYTE	W06
	BYTE		        As1 
	BYTE		N02     An2   v127
	BYTE	W06
	BYTE		        Fs1   v112
	BYTE	W06
	BYTE		        Gs1 
	BYTE	W06
	BYTE		        As1 
	BYTE	W06
	BYTE		        Fn2   v127
	BYTE	W18
	BYTE		        Cn2   v112
	BYTE	W06
	BYTE		        Fn2   v127
	BYTE	W06
	BYTE		        Gn1   v112
	BYTE	W12
	BYTE		        Fn1 
	BYTE	W06
// 154   ----------------------------------------
	BYTE		        Cs2   v127
	BYTE	W06
	BYTE		        As1   v112
	BYTE	W06
	BYTE		        Fs1 
	BYTE	W06
	BYTE		N02   
	BYTE	W06
	BYTE		        Gs1 
	BYTE	W06
	BYTE		        As1 
	BYTE	W06
	BYTE		        Fs1 
	BYTE	W06
	BYTE		N02   
	BYTE	W06
	BYTE		        Gs1 
	BYTE	W06
	BYTE		        As1 
	BYTE	W06
	BYTE		        Fs1 
	BYTE	W06
	BYTE		N02   
	BYTE	W06
	BYTE		        Gs1 
	BYTE	W06
	BYTE		        As1 
	BYTE	W06
	BYTE		        Fs1 
	BYTE	W06
	BYTE		N02   
	BYTE	W06
// 155   ----------------------------------------
	BYTE		        Gs1 
	BYTE	W06
	BYTE		        As1 
	BYTE	W06
	BYTE		        Fs1 
	BYTE	W06
	BYTE		N02   
	BYTE	W06
	BYTE		        Gs1 
	BYTE	W06
	BYTE		        As1 
	BYTE	W06
	BYTE		        Fs1 
	BYTE	W06
	BYTE		N02   
	BYTE	W06
	BYTE		        Gs1 
	BYTE	W06
	BYTE		        As1 
	BYTE	W06
	BYTE		        Fs1 
	BYTE	W06
	BYTE		N02   
	BYTE	W06
	BYTE		        Gs1 
	BYTE	W06
	BYTE		        As1 
	BYTE	W06
	BYTE		        Fs1 
	BYTE	W06
	BYTE		N02   
	BYTE	W06
// 156   ----------------------------------------
	BYTE		        An2   v127
	BYTE	W06
	BYTE		        As1   v112
	BYTE	W06
	BYTE		        Fs1 
	BYTE	W06
	BYTE		N02   
	BYTE	W06
	BYTE		        Gs1 
	BYTE	W06
	BYTE		        As1 
	BYTE	W06
	BYTE		        Fs1 
	BYTE	W06
	BYTE		N02   
	BYTE	W06
	BYTE		        Gs1 
	BYTE	W06
	BYTE		        As1 
	BYTE	W06
	BYTE		        Fs1 
	BYTE	W06
	BYTE		N02   
	BYTE	W06
	BYTE		        Gs1 
	BYTE	W06
	BYTE		        As1 
	BYTE	W06
	BYTE		        Fs1 
	BYTE	W06
	BYTE		N02   
	BYTE	W06
// 157   ----------------------------------------
	BYTE		        Gs1 
	BYTE	W06
	BYTE		        As1 
	BYTE	W06
	BYTE		        Fs1 
	BYTE	W06
	BYTE		N02   
	BYTE	W06
	BYTE		        Gs1 
	BYTE	W06
	BYTE		        As1 
	BYTE	W06
	BYTE		        Fs1 
	BYTE	W06
	BYTE		N02   
	BYTE	W12
	BYTE		        Dn2 
	BYTE	W12
	BYTE		        An1 
	BYTE	W12
	BYTE		        Cn2 
	BYTE	W12
	BYTE		        Gn1 
	BYTE	W06
// 158   ----------------------------------------
	BYTE		TIE     Cs2   v127
	BYTE	W96
// 159   ----------------------------------------
	BYTE	W96
// 160   ----------------------------------------
	BYTE	W96
// 161   ----------------------------------------
	BYTE	W92
	BYTE	W03
	BYTE		EOT   
	BYTE	W01
// 162   ----------------------------------------
	BYTE	W96
// 163   ----------------------------------------
	BYTE	FINE

//**************** Track 11 (Midi-Chn.11) ****************//

vastsever8850_11:
	BYTE	KEYSH   vastsever8850_key+0
// 000   ----------------------------------------
	BYTE	W96
// 001   ----------------------------------------
	BYTE		VOICE   51
	BYTE		VOL     120*vastsever8850_mvl/mxv
	BYTE		PAN     c_v+0
	BYTE	W96
// 002   ----------------------------------------
	BYTE	W72
	BYTE	W24
// 003   ----------------------------------------
	BYTE	W96
// 004   ----------------------------------------
	BYTE	W96
// 005   ----------------------------------------
	BYTE	W96
// 006   ----------------------------------------
	BYTE	W96
// 007   ----------------------------------------
	BYTE	W96
// 008   ----------------------------------------
	BYTE	W96
// 009   ----------------------------------------
	BYTE	W96
// 010   ----------------------------------------
vastsever8850_11_010:
	BYTE		N02     Gn1   v120
	BYTE	W24
	BYTE		N02   
	BYTE	W24
	BYTE		N02   
	BYTE	W24
	BYTE		N02   
	BYTE	W24
	BYTE	PEND
// 011   ----------------------------------------
	BYTE	PATT
	 POIN2	vastsever8850_11_010
// 012   ----------------------------------------
	BYTE	PATT
	 POIN2	vastsever8850_11_010
// 013   ----------------------------------------
	BYTE	PATT
	 POIN2	vastsever8850_11_010
// 014   ----------------------------------------
	BYTE	PATT
	 POIN2	vastsever8850_11_010
// 015   ----------------------------------------
	BYTE	PATT
	 POIN2	vastsever8850_11_010
// 016   ----------------------------------------
vastsever8850_11_016:
	BYTE		N02     Gn1   v120
	BYTE	W24
	BYTE		N02   
	BYTE	W24
	BYTE		N02   
	BYTE	W24
	BYTE		N02   
	BYTE	W06
	BYTE		        Bn5   v100
	BYTE	W06
	BYTE		        Gn1   v120
	BYTE		N02     Bn5   v100
	BYTE	W12
	BYTE	PEND
// 017   ----------------------------------------
vastsever8850_11_017:
	BYTE		N02     Gn1   v120
	BYTE		N02     Bn5   v100
	BYTE	W48
	BYTE		        Gn1   v120
	BYTE		N02     Bn5   v100
	BYTE	W06
	BYTE		N02   
	BYTE	W18
	BYTE		        Gn1   v120
	BYTE		N02     Bn5   v100
	BYTE	W06
	BYTE		N02   
	BYTE	W18
	BYTE	PEND
// 018   ----------------------------------------
vastsever8850_11_018:
	BYTE		N02     Gn1   v120
	BYTE	W24
	BYTE		        Bn5   v100
	BYTE	W24
	BYTE		        Gn1   v120
	BYTE	W24
	BYTE		        Bn5   v100
	BYTE	W24
	BYTE	PEND
// 019   ----------------------------------------
	BYTE	PATT
	 POIN2	vastsever8850_11_018
// 020   ----------------------------------------
	BYTE	PATT
	 POIN2	vastsever8850_11_018
// 021   ----------------------------------------
	BYTE	PATT
	 POIN2	vastsever8850_11_018
// 022   ----------------------------------------
	BYTE	PATT
	 POIN2	vastsever8850_11_018
// 023   ----------------------------------------
	BYTE	PATT
	 POIN2	vastsever8850_11_018
// 024   ----------------------------------------
	BYTE	PATT
	 POIN2	vastsever8850_11_018
// 025   ----------------------------------------
vastsever8850_11_025:
	BYTE		N02     Gn1   v120
	BYTE	W24
	BYTE		        Bn5   v100
	BYTE	W24
	BYTE		        Gn1   v120
	BYTE	W06
	BYTE		        Bn5   v100
	BYTE	W12
	BYTE		        Gn1   v120
	BYTE	W06
	BYTE		        Bn5   v100
	BYTE	W12
	BYTE		        Gn1   v120
	BYTE	W06
	BYTE		        Bn5   v100
	BYTE	W06
	BYTE	PEND
// 026   ----------------------------------------
	BYTE	PATT
	 POIN2	vastsever8850_11_018
// 027   ----------------------------------------
	BYTE	PATT
	 POIN2	vastsever8850_11_018
// 028   ----------------------------------------
	BYTE	PATT
	 POIN2	vastsever8850_11_018
// 029   ----------------------------------------
	BYTE	PATT
	 POIN2	vastsever8850_11_018
// 030   ----------------------------------------
	BYTE	PATT
	 POIN2	vastsever8850_11_018
// 031   ----------------------------------------
	BYTE	PATT
	 POIN2	vastsever8850_11_018
// 032   ----------------------------------------
	BYTE	PATT
	 POIN2	vastsever8850_11_018
// 033   ----------------------------------------
vastsever8850_11_033:
	BYTE		N02     Gn1   v120
	BYTE	W24
	BYTE		        Bn5   v100
	BYTE	W24
	BYTE		        Gn1   v120
	BYTE	W12
	BYTE		N02   
	BYTE		N02     Bn5   v100
	BYTE	W12
	BYTE		        Gn1   v120
	BYTE		N02     Bn5   v100
	BYTE	W12
	BYTE		        Gn1   v120
	BYTE		N02     Bn5   v100
	BYTE	W12
	BYTE	PEND
// 034   ----------------------------------------
vastsever8850_11_034:
	BYTE		N02     Gn1   v120
	BYTE	W24
	BYTE		        Bn5   v100
	BYTE	W12
	BYTE		        Gn1   v120
	BYTE	W24
	BYTE		N02   
	BYTE	W12
	BYTE		        Bn5   v100
	BYTE	W12
	BYTE		        Gn1   v120
	BYTE	W12
	BYTE	PEND
// 035   ----------------------------------------
	BYTE	PATT
	 POIN2	vastsever8850_11_034
// 036   ----------------------------------------
	BYTE	PATT
	 POIN2	vastsever8850_11_034
// 037   ----------------------------------------
vastsever8850_11_037:
	BYTE		N02     Gn1   v120
	BYTE	W24
	BYTE		        Bn5   v100
	BYTE	W12
	BYTE		        Gn1   v120
	BYTE	W24
	BYTE		N02   
	BYTE	W12
	BYTE		        Bn5   v100
	BYTE	W12
	BYTE		        Gn1   v120
	BYTE		N02     Bn5   v100
	BYTE	W06
	BYTE		N02   
	BYTE	W06
	BYTE	PEND
// 038   ----------------------------------------
	BYTE	PATT
	 POIN2	vastsever8850_11_034
// 039   ----------------------------------------
	BYTE	PATT
	 POIN2	vastsever8850_11_034
// 040   ----------------------------------------
	BYTE	PATT
	 POIN2	vastsever8850_11_034
// 041   ----------------------------------------
vastsever8850_11_041:
	BYTE		N02     Gn1   v120
	BYTE		N02     Bn5   v100
	BYTE	W24
	BYTE		        Gn1   v120
	BYTE		N02     Bn5   v100
	BYTE	W24
	BYTE		        Gn1   v120
	BYTE		N02     Bn5   v100
	BYTE	W24
	BYTE		        Gn1   v120
	BYTE		N02     Bn5   v100
	BYTE	W24
	BYTE	PEND
// 042   ----------------------------------------
	BYTE	PATT
	 POIN2	vastsever8850_11_041
// 043   ----------------------------------------
	BYTE	PATT
	 POIN2	vastsever8850_11_041
// 044   ----------------------------------------
	BYTE	PATT
	 POIN2	vastsever8850_11_041
// 045   ----------------------------------------
vastsever8850_11_045:
	BYTE		N02     Gn1   v120
	BYTE		N02     Bn5   v100
	BYTE	W24
	BYTE		        Gn1   v120
	BYTE		N02     Bn5   v100
	BYTE	W24
	BYTE		        Gn1   v120
	BYTE		N02     Bn5   v100
	BYTE	W24
	BYTE		        Gn1   v120
	BYTE		N02     Bn5   v100
	BYTE	W06
	BYTE		N02   
	BYTE	W06
	BYTE		N02   
	BYTE	W06
	BYTE		N02   
	BYTE	W06
	BYTE	PEND
// 046   ----------------------------------------
vastsever8850_11_046:
	BYTE		N02     Gn1   v120
	BYTE	W24
	BYTE		        Bn5   v100
	BYTE	W24
	BYTE		        Gn1   v120
	BYTE	W12
	BYTE		N02   
	BYTE	W12
	BYTE		        Bn5   v100
	BYTE	W24
	BYTE	PEND
// 047   ----------------------------------------
	BYTE	PATT
	 POIN2	vastsever8850_11_046
// 048   ----------------------------------------
	BYTE	PATT
	 POIN2	vastsever8850_11_046
// 049   ----------------------------------------
vastsever8850_11_049:
	BYTE		N02     Gn1   v120
	BYTE	W24
	BYTE		        Bn5   v100
	BYTE	W24
	BYTE		        Gn1   v120
	BYTE	W12
	BYTE		N02   
	BYTE	W12
	BYTE		        Bn5   v100
	BYTE	W06
	BYTE		N02   
	BYTE	W06
	BYTE		        Gn1   v120
	BYTE	W06
	BYTE		        Bn5   v100
	BYTE	W06
	BYTE	PEND
// 050   ----------------------------------------
	BYTE	PATT
	 POIN2	vastsever8850_11_046
// 051   ----------------------------------------
	BYTE	PATT
	 POIN2	vastsever8850_11_046
// 052   ----------------------------------------
	BYTE	PATT
	 POIN2	vastsever8850_11_046
// 053   ----------------------------------------
	BYTE	PATT
	 POIN2	vastsever8850_11_049
// 054   ----------------------------------------
	BYTE	PATT
	 POIN2	vastsever8850_11_046
// 055   ----------------------------------------
	BYTE	PATT
	 POIN2	vastsever8850_11_046
// 056   ----------------------------------------
	BYTE	PATT
	 POIN2	vastsever8850_11_046
// 057   ----------------------------------------
	BYTE	PATT
	 POIN2	vastsever8850_11_049
// 058   ----------------------------------------
	BYTE	PATT
	 POIN2	vastsever8850_11_046
// 059   ----------------------------------------
	BYTE	PATT
	 POIN2	vastsever8850_11_046
// 060   ----------------------------------------
	BYTE	PATT
	 POIN2	vastsever8850_11_046
// 061   ----------------------------------------
vastsever8850_11_061:
	BYTE		N02     Gn1   v120
	BYTE	W24
	BYTE		N02   
	BYTE		N02     Bn5   v100
	BYTE	W24
	BYTE		        Gn1   v120
	BYTE		N02     Bn5   v100
	BYTE	W06
	BYTE		N02   
	BYTE	W06
	BYTE		        Gn1   v120
	BYTE		N02     Bn5   v100
	BYTE	W12
	BYTE		        Gn1   v120
	BYTE		N02     Bn5   v100
	BYTE	W06
	BYTE		N02   
	BYTE	W06
	BYTE		        Gn1   v120
	BYTE	W06
	BYTE		        Bn5   v100
	BYTE	W06
	BYTE	PEND
// 062   ----------------------------------------
	BYTE	PATT
	 POIN2	vastsever8850_11_010
// 063   ----------------------------------------
	BYTE	PATT
	 POIN2	vastsever8850_11_010
// 064   ----------------------------------------
	BYTE	PATT
	 POIN2	vastsever8850_11_010
// 065   ----------------------------------------
	BYTE	PATT
	 POIN2	vastsever8850_11_010
// 066   ----------------------------------------
	BYTE	PATT
	 POIN2	vastsever8850_11_010
// 067   ----------------------------------------
	BYTE	PATT
	 POIN2	vastsever8850_11_010
// 068   ----------------------------------------
	BYTE	PATT
	 POIN2	vastsever8850_11_010
// 069   ----------------------------------------
	BYTE	PATT
	 POIN2	vastsever8850_11_010
// 070   ----------------------------------------
	BYTE	PATT
	 POIN2	vastsever8850_11_010
// 071   ----------------------------------------
	BYTE	PATT
	 POIN2	vastsever8850_11_010
// 072   ----------------------------------------
	BYTE	PATT
	 POIN2	vastsever8850_11_010
// 073   ----------------------------------------
	BYTE	PATT
	 POIN2	vastsever8850_11_010
// 074   ----------------------------------------
	BYTE	PATT
	 POIN2	vastsever8850_11_010
// 075   ----------------------------------------
	BYTE	PATT
	 POIN2	vastsever8850_11_010
// 076   ----------------------------------------
	BYTE	PATT
	 POIN2	vastsever8850_11_016
// 077   ----------------------------------------
	BYTE	PATT
	 POIN2	vastsever8850_11_017
// 078   ----------------------------------------
	BYTE	PATT
	 POIN2	vastsever8850_11_018
// 079   ----------------------------------------
	BYTE	PATT
	 POIN2	vastsever8850_11_018
// 080   ----------------------------------------
	BYTE	PATT
	 POIN2	vastsever8850_11_018
// 081   ----------------------------------------
	BYTE	PATT
	 POIN2	vastsever8850_11_018
// 082   ----------------------------------------
	BYTE	PATT
	 POIN2	vastsever8850_11_018
// 083   ----------------------------------------
	BYTE	PATT
	 POIN2	vastsever8850_11_018
// 084   ----------------------------------------
	BYTE	PATT
	 POIN2	vastsever8850_11_018
// 085   ----------------------------------------
	BYTE	PATT
	 POIN2	vastsever8850_11_025
// 086   ----------------------------------------
	BYTE	PATT
	 POIN2	vastsever8850_11_018
// 087   ----------------------------------------
	BYTE	PATT
	 POIN2	vastsever8850_11_018
// 088   ----------------------------------------
	BYTE	PATT
	 POIN2	vastsever8850_11_018
// 089   ----------------------------------------
	BYTE	PATT
	 POIN2	vastsever8850_11_018
// 090   ----------------------------------------
	BYTE	PATT
	 POIN2	vastsever8850_11_018
// 091   ----------------------------------------
	BYTE	PATT
	 POIN2	vastsever8850_11_018
// 092   ----------------------------------------
	BYTE	PATT
	 POIN2	vastsever8850_11_018
// 093   ----------------------------------------
	BYTE	PATT
	 POIN2	vastsever8850_11_033
// 094   ----------------------------------------
	BYTE	PATT
	 POIN2	vastsever8850_11_034
// 095   ----------------------------------------
	BYTE	PATT
	 POIN2	vastsever8850_11_034
// 096   ----------------------------------------
	BYTE	PATT
	 POIN2	vastsever8850_11_034
// 097   ----------------------------------------
	BYTE	PATT
	 POIN2	vastsever8850_11_037
// 098   ----------------------------------------
	BYTE	PATT
	 POIN2	vastsever8850_11_034
// 099   ----------------------------------------
	BYTE	PATT
	 POIN2	vastsever8850_11_034
// 100   ----------------------------------------
	BYTE	PATT
	 POIN2	vastsever8850_11_034
// 101   ----------------------------------------
	BYTE	PATT
	 POIN2	vastsever8850_11_041
// 102   ----------------------------------------
	BYTE	PATT
	 POIN2	vastsever8850_11_041
// 103   ----------------------------------------
	BYTE	PATT
	 POIN2	vastsever8850_11_041
// 104   ----------------------------------------
	BYTE	PATT
	 POIN2	vastsever8850_11_041
// 105   ----------------------------------------
	BYTE	PATT
	 POIN2	vastsever8850_11_045
// 106   ----------------------------------------
	BYTE	PATT
	 POIN2	vastsever8850_11_046
// 107   ----------------------------------------
	BYTE	PATT
	 POIN2	vastsever8850_11_046
// 108   ----------------------------------------
	BYTE	PATT
	 POIN2	vastsever8850_11_046
// 109   ----------------------------------------
	BYTE	PATT
	 POIN2	vastsever8850_11_049
// 110   ----------------------------------------
	BYTE	PATT
	 POIN2	vastsever8850_11_046
// 111   ----------------------------------------
	BYTE	PATT
	 POIN2	vastsever8850_11_046
// 112   ----------------------------------------
	BYTE	PATT
	 POIN2	vastsever8850_11_046
// 113   ----------------------------------------
	BYTE	PATT
	 POIN2	vastsever8850_11_049
// 114   ----------------------------------------
	BYTE	PATT
	 POIN2	vastsever8850_11_046
// 115   ----------------------------------------
	BYTE	PATT
	 POIN2	vastsever8850_11_046
// 116   ----------------------------------------
	BYTE	PATT
	 POIN2	vastsever8850_11_046
// 117   ----------------------------------------
	BYTE	PATT
	 POIN2	vastsever8850_11_049
// 118   ----------------------------------------
	BYTE	PATT
	 POIN2	vastsever8850_11_046
// 119   ----------------------------------------
	BYTE	PATT
	 POIN2	vastsever8850_11_046
// 120   ----------------------------------------
	BYTE	PATT
	 POIN2	vastsever8850_11_046
// 121   ----------------------------------------
	BYTE	PATT
	 POIN2	vastsever8850_11_061
// 122   ----------------------------------------
	BYTE	PATT
	 POIN2	vastsever8850_11_010
// 123   ----------------------------------------
	BYTE	PATT
	 POIN2	vastsever8850_11_010
// 124   ----------------------------------------
	BYTE	PATT
	 POIN2	vastsever8850_11_010
// 125   ----------------------------------------
	BYTE	PATT
	 POIN2	vastsever8850_11_010
// 126   ----------------------------------------
	BYTE	PATT
	 POIN2	vastsever8850_11_010
// 127   ----------------------------------------
	BYTE	PATT
	 POIN2	vastsever8850_11_010
// 128   ----------------------------------------
	BYTE	PATT
	 POIN2	vastsever8850_11_010
// 129   ----------------------------------------
	BYTE		N02     Gn1   v120
	BYTE	W24
	BYTE		N02   
	BYTE		N02     Bn5   v100
	BYTE	W18
	BYTE		N02   
	BYTE	W06
	BYTE		        Gn1   v120
	BYTE	W06
	BYTE		        Bn5   v100
	BYTE	W06
	BYTE		N02   
	BYTE	W06
	BYTE		N02   
	BYTE	W06
	BYTE		        Gn1   v120
	BYTE		N02     Bn5   v100
	BYTE	W06
	BYTE		N02   
	BYTE	W06
	BYTE		N02   
	BYTE	W06
	BYTE		N02   
	BYTE	W06
// 130   ----------------------------------------
	BYTE	PATT
	 POIN2	vastsever8850_11_046
// 131   ----------------------------------------
	BYTE	PATT
	 POIN2	vastsever8850_11_046
// 132   ----------------------------------------
	BYTE	PATT
	 POIN2	vastsever8850_11_046
// 133   ----------------------------------------
	BYTE		N02     Gn1   v120
	BYTE	W24
	BYTE		        Bn5   v100
	BYTE	W24
	BYTE		        Gn1   v120
	BYTE	W12
	BYTE		N02   
	BYTE	W12
	BYTE		        Bn5   v100
	BYTE	W12
	BYTE		        Gn1   v120
	BYTE	W06
	BYTE		        Bn5   v100
	BYTE	W06
// 134   ----------------------------------------
	BYTE	PATT
	 POIN2	vastsever8850_11_046
// 135   ----------------------------------------
	BYTE	PATT
	 POIN2	vastsever8850_11_046
// 136   ----------------------------------------
	BYTE	PATT
	 POIN2	vastsever8850_11_046
// 137   ----------------------------------------
	BYTE		N02     Gn1   v120
	BYTE		N02     Bn5   v100
	BYTE	W24
	BYTE		        Gn1   v120
	BYTE		N02     Bn5   v100
	BYTE	W24
	BYTE		        Gn1   v120
	BYTE		N02     Bn5   v100
	BYTE	W06
	BYTE		N02   
	BYTE	W18
	BYTE		        Gn1   v120
	BYTE		N02     Bn5   v100
	BYTE	W06
	BYTE		N02   
	BYTE	W06
	BYTE		        Gn1   v120
	BYTE		N02     Bn5   v100
	BYTE	W06
	BYTE		N02   
	BYTE	W06
// 138   ----------------------------------------
	BYTE	PATT
	 POIN2	vastsever8850_11_018
// 139   ----------------------------------------
	BYTE	PATT
	 POIN2	vastsever8850_11_018
// 140   ----------------------------------------
	BYTE	PATT
	 POIN2	vastsever8850_11_018
// 141   ----------------------------------------
	BYTE	PATT
	 POIN2	vastsever8850_11_018
// 142   ----------------------------------------
	BYTE	PATT
	 POIN2	vastsever8850_11_018
// 143   ----------------------------------------
	BYTE	PATT
	 POIN2	vastsever8850_11_018
// 144   ----------------------------------------
	BYTE	PATT
	 POIN2	vastsever8850_11_018
// 145   ----------------------------------------
	BYTE	PATT
	 POIN2	vastsever8850_11_025
// 146   ----------------------------------------
	BYTE	PATT
	 POIN2	vastsever8850_11_018
// 147   ----------------------------------------
	BYTE	PATT
	 POIN2	vastsever8850_11_018
// 148   ----------------------------------------
	BYTE	PATT
	 POIN2	vastsever8850_11_018
// 149   ----------------------------------------
	BYTE	PATT
	 POIN2	vastsever8850_11_018
// 150   ----------------------------------------
	BYTE	PATT
	 POIN2	vastsever8850_11_018
// 151   ----------------------------------------
	BYTE	PATT
	 POIN2	vastsever8850_11_018
// 152   ----------------------------------------
	BYTE	PATT
	 POIN2	vastsever8850_11_018
// 153   ----------------------------------------
	BYTE	PATT
	 POIN2	vastsever8850_11_033
// 154   ----------------------------------------
	BYTE	PATT
	 POIN2	vastsever8850_11_041
// 155   ----------------------------------------
	BYTE	PATT
	 POIN2	vastsever8850_11_041
// 156   ----------------------------------------
	BYTE	PATT
	 POIN2	vastsever8850_11_041
// 157   ----------------------------------------
	BYTE		N02     Gn1   v120
	BYTE		N02     Bn5   v100
	BYTE	W24
	BYTE		        Gn1   v120
	BYTE		N02     Bn5   v100
	BYTE	W24
	BYTE		        Gn1   v120
	BYTE		N02     Bn5   v100
	BYTE	W12
	BYTE		N02   
	BYTE	W12
	BYTE		        Gn1   v120
	BYTE		N02     Bn5   v100
	BYTE	W12
	BYTE		N02   
	BYTE	W12
// 158   ----------------------------------------
	BYTE		        Gn1   v120
	BYTE		N02     Bn5   v100
	BYTE	W96
// 159   ----------------------------------------
	BYTE	W96
// 160   ----------------------------------------
	BYTE	W96
// 161   ----------------------------------------
	BYTE	W96
// 162   ----------------------------------------
	BYTE	W96
// 163   ----------------------------------------
	BYTE	FINE

//******************************************************//
	ALIGN 4

vastsever8850:
	BYTE	11	// NumTrks
	BYTE	0	// NumBlks
	BYTE	vastsever8850_pri	// Priority
	BYTE	vastsever8850_rev	// Reverb.

	POIN2	vastsever8850_grp

	POIN2	vastsever8850_1
	POIN2	vastsever8850_2
	POIN2	vastsever8850_3
	POIN2	vastsever8850_4
	POIN2	vastsever8850_5
	POIN2	vastsever8850_6
	POIN2	vastsever8850_7
	POIN2	vastsever8850_8
	POIN2	vastsever8850_9
	POIN2	vastsever8850_10
	POIN2	vastsever8850_11

	
