//Event file generated from Sappy .s format.
	#include "MPlayDef.event"

	#define	voiceofthesacredwind8850_grp  voicegroup000
	#define	voiceofthesacredwind8850_pri  0
	#define	voiceofthesacredwind8850_rev  0
	#define	voiceofthesacredwind8850_mvl  63
	#define	voiceofthesacredwind8850_key  0
	#define	voiceofthesacredwind8850_tbs  1
	#define	voiceofthesacredwind8850_exg  0
	#define	voiceofthesacredwind8850_cmp  1

	// .rodata
	//	voiceofthesacredwind8850
	ALIGN 4

//**************** Track 1 (Midi-Chn.1) ****************//

voiceofthesacredwind8850_1:
	BYTE	KEYSH   voiceofthesacredwind8850_key+0
// 000   ----------------------------------------
	BYTE	TEMPO   142*voiceofthesacredwind8850_tbs/2
	BYTE	W96
// 001   ----------------------------------------
	BYTE		VOICE   40
	BYTE		VOL     103*voiceofthesacredwind8850_mvl/mxv
	BYTE		PAN     c_v+0
	BYTE	W48
	BYTE		MOD     0
	BYTE		BEND    c_v+0
	BYTE	W24
	BYTE	W06
	BYTE	W06
	BYTE		N23     An4   v120
	BYTE	W06
	BYTE	W06
// 002   ----------------------------------------
voiceofthesacredwind8850_1_002:
	BYTE	W12
	BYTE		N11     Gn4   v120
	BYTE	W12
	BYTE		        As4 
	BYTE	W12
	BYTE		N44     An4 
	BYTE	W02
	BYTE		MOD     3
	BYTE	W01
	BYTE		        5
	BYTE	W01
	BYTE		        7
	BYTE	W01
	BYTE		        10
	BYTE	W01
	BYTE		        14
	BYTE	W01
	BYTE		        16
	BYTE	W01
	BYTE		        22
	BYTE	W01
	BYTE		        28
	BYTE	W01
	BYTE		        31
	BYTE	W01
	BYTE		        37
	BYTE	W01
	BYTE		        48
	BYTE	W01
	BYTE		        55
	BYTE	W01
	BYTE		        64
	BYTE	W01
	BYTE		        127
	BYTE	W32
	BYTE		        0
	BYTE	W13
	BYTE	PEND
// 003   ----------------------------------------
voiceofthesacredwind8850_1_003:
	BYTE		N11     An4   v120
	BYTE	W12
	BYTE		        Gn4 
	BYTE	W12
	BYTE		        As4 
	BYTE	W12
	BYTE		N44     An4 
	BYTE	W09
	BYTE		MOD     2
	BYTE	W01
	BYTE		        7
	BYTE	W02
	BYTE		        17
	BYTE	W01
	BYTE		        21
	BYTE	W01
	BYTE		        23
	BYTE	W01
	BYTE		        30
	BYTE	W01
	BYTE		        36
	BYTE	W01
	BYTE		        46
	BYTE	W01
	BYTE		        127
	BYTE	W30
	BYTE		        0
	BYTE	W12
	BYTE	PEND
// 004   ----------------------------------------
voiceofthesacredwind8850_1_004:
	BYTE		N11     An4   v120
	BYTE	W12
	BYTE		        Gn4 
	BYTE	W12
	BYTE		        As4 
	BYTE	W12
	BYTE		        An4 
	BYTE	W24
	BYTE		        Cn5 
	BYTE	W24
	BYTE		N23   
	BYTE	W12
	BYTE	PEND
// 005   ----------------------------------------
voiceofthesacredwind8850_1_005:
	BYTE	W12
	BYTE		N11     As4   v120
	BYTE	W12
	BYTE		        An4 
	BYTE	W12
	BYTE		N44     As4 
	BYTE	W03
	BYTE		MOD     8
	BYTE	W01
	BYTE		        14
	BYTE	W01
	BYTE		        19
	BYTE	W01
	BYTE		        32
	BYTE	W01
	BYTE		        39
	BYTE	W01
	BYTE		        47
	BYTE	W01
	BYTE		        75
	BYTE	W01
	BYTE		        96
	BYTE	W01
	BYTE		        127
	BYTE	W36
	BYTE		        0
	BYTE	W13
	BYTE	PEND
// 006   ----------------------------------------
	BYTE	W96
// 007   ----------------------------------------
	BYTE	W96
// 008   ----------------------------------------
	BYTE	W36
	BYTE		BEND    c_v+0
	BYTE	W60
// 009   ----------------------------------------
	BYTE	W96
// 010   ----------------------------------------
voiceofthesacredwind8850_1_010:
	BYTE		N17     An4   v120
	BYTE	W18
	BYTE		BEND    c_v+0
	BYTE		N17     As4 
	BYTE	W18
	BYTE		N64     Fn4 
	BYTE	W06
	BYTE		MOD     0
	BYTE	W02
	BYTE		        3
	BYTE	W01
	BYTE		        6
	BYTE	W01
	BYTE		        7
	BYTE	W01
	BYTE		        9
	BYTE	W01
	BYTE		        14
	BYTE	W01
	BYTE		        16
	BYTE	W01
	BYTE		        21
	BYTE	W01
	BYTE		        28
	BYTE	W01
	BYTE		        38
	BYTE	W01
	BYTE		        43
	BYTE	W01
	BYTE		        52
	BYTE	W01
	BYTE		        61
	BYTE	W01
	BYTE		        67
	BYTE	W01
	BYTE		        88
	BYTE	W01
	BYTE		        94
	BYTE	W01
	BYTE		        99
	BYTE	W01
	BYTE		        116
	BYTE	W01
	BYTE		        127
	BYTE	W32
	BYTE	W03
	BYTE	PEND
// 011   ----------------------------------------
voiceofthesacredwind8850_1_011:
	BYTE	W06
	BYTE		MOD     0
	BYTE	W18
	BYTE		N23     An4   v120
	BYTE	W24
	BYTE		N11     As4 
	BYTE	W12
	BYTE		N23     Fn4 
	BYTE	W24
	BYTE		N11     Gn4 
	BYTE	W12
	BYTE	PEND
// 012   ----------------------------------------
voiceofthesacredwind8850_1_012:
	BYTE		N44     An4   v120
	BYTE	W06
	BYTE		MOD     4
	BYTE	W02
	BYTE		        5
	BYTE	W01
	BYTE		        10
	BYTE	W01
	BYTE		        12
	BYTE	W01
	BYTE		        13
	BYTE	W01
	BYTE		        18
	BYTE	W01
	BYTE		        23
	BYTE	W01
	BYTE		        24
	BYTE	W01
	BYTE		        31
	BYTE	W01
	BYTE		        37
	BYTE	W01
	BYTE		        43
	BYTE	W01
	BYTE		        52
	BYTE	W01
	BYTE		        63
	BYTE	W01
	BYTE		        67
	BYTE	W01
	BYTE		        82
	BYTE	W01
	BYTE		        127
	BYTE	W24
	BYTE	W01
	BYTE		        0
	BYTE	W13
	BYTE		N23     En4 
	BYTE	W24
	BYTE		N80     Fn4 
	BYTE	W12
	BYTE	PEND
// 013   ----------------------------------------
voiceofthesacredwind8850_1_013:
	BYTE	W10
	BYTE		MOD     2
	BYTE	W01
	BYTE		        4
	BYTE	W01
	BYTE		        7
	BYTE	W01
	BYTE		        9
	BYTE	W01
	BYTE		        11
	BYTE	W01
	BYTE		        19
	BYTE	W02
	BYTE		        23
	BYTE	W01
	BYTE		        33
	BYTE	W02
	BYTE		        38
	BYTE	W01
	BYTE		        43
	BYTE	W01
	BYTE		        50
	BYTE	W01
	BYTE		        60
	BYTE	W01
	BYTE		        66
	BYTE	W01
	BYTE		        74
	BYTE	W01
	BYTE		        80
	BYTE	W01
	BYTE		        88
	BYTE	W01
	BYTE		        91
	BYTE	W01
	BYTE		        97
	BYTE	W01
	BYTE		        105
	BYTE	W01
	BYTE		        110
	BYTE	W01
	BYTE		        121
	BYTE	W01
	BYTE		        127
	BYTE	W32
	BYTE	W01
	BYTE		        0
	BYTE	W06
	BYTE		N03     Fn5   v120
	BYTE	W04
	BYTE		        An3 
	BYTE	W04
	BYTE		        Dn5 
	BYTE	W04
	BYTE		        Dn4 
	BYTE	W04
	BYTE		        En4 
	BYTE	W04
	BYTE		        Fn4 
	BYTE	W04
	BYTE	PEND
// 014   ----------------------------------------
voiceofthesacredwind8850_1_014:
	BYTE		N17     An4   v120
	BYTE	W18
	BYTE		        As4 
	BYTE	W18
	BYTE		N68     Dn4 
	BYTE	W09
	BYTE		MOD     2
	BYTE	W01
	BYTE		        3
	BYTE	W01
	BYTE		        5
	BYTE	W01
	BYTE		        9
	BYTE	W01
	BYTE		        14
	BYTE	W01
	BYTE		        16
	BYTE	W01
	BYTE		        23
	BYTE	W01
	BYTE		        26
	BYTE	W01
	BYTE		        28
	BYTE	W01
	BYTE		        39
	BYTE	W01
	BYTE		        44
	BYTE	W01
	BYTE		        48
	BYTE	W01
	BYTE		        87
	BYTE	W01
	BYTE		        127
	BYTE	W36
	BYTE	W02
	BYTE	PEND
// 015   ----------------------------------------
voiceofthesacredwind8850_1_015:
	BYTE	W11
	BYTE		MOD     0
	BYTE	W13
	BYTE		N23     Fn4   v120
	BYTE	W24
	BYTE		N11     En4 
	BYTE	W12
	BYTE		BEND    c_v-24
	BYTE		N08     Cn4 
	BYTE	W02
	BYTE		BEND    c_v-16
	BYTE	W01
	BYTE		        c_v-4
	BYTE	W01
	BYTE		        c_v+0
	BYTE	W20
	BYTE		TIE   
	BYTE	W09
	BYTE		MOD     0
	BYTE	W03
	BYTE	PEND
// 016   ----------------------------------------
voiceofthesacredwind8850_1_016:
	BYTE	W14
	BYTE		MOD     11
	BYTE	W01
	BYTE		        17
	BYTE	W01
	BYTE		        32
	BYTE	W01
	BYTE		        41
	BYTE	W01
	BYTE		        52
	BYTE	W01
	BYTE		        62
	BYTE	W01
	BYTE		        73
	BYTE	W01
	BYTE		        87
	BYTE	W01
	BYTE		        95
	BYTE	W01
	BYTE		        108
	BYTE	W01
	BYTE		        120
	BYTE	W01
	BYTE		        127
	BYTE	W68
	BYTE	W01
	BYTE		        0
	BYTE	W01
	BYTE	PEND
	BYTE		EOT     Cn4 
	BYTE	W01
// 017   ----------------------------------------
voiceofthesacredwind8850_1_017:
	BYTE	W12
	BYTE		N11     An4   v120
	BYTE	W12
	BYTE		N05     Gn4 
	BYTE	W12
	BYTE		N11     As4 
	BYTE	W12
	BYTE		N40     An4 
	BYTE	W04
	BYTE		MOD     3
	BYTE	W01
	BYTE		        9
	BYTE	W01
	BYTE		        25
	BYTE	W01
	BYTE		        33
	BYTE	W01
	BYTE		        43
	BYTE	W01
	BYTE		        58
	BYTE	W01
	BYTE		        68
	BYTE	W01
	BYTE		        77
	BYTE	W01
	BYTE		        115
	BYTE	W01
	BYTE		        127
	BYTE	W28
	BYTE		        0
	BYTE	W07
	BYTE	PEND
// 018   ----------------------------------------
	BYTE	PATT
	 POIN2	voiceofthesacredwind8850_1_010
// 019   ----------------------------------------
	BYTE	PATT
	 POIN2	voiceofthesacredwind8850_1_011
// 020   ----------------------------------------
voiceofthesacredwind8850_1_020:
	BYTE		N44     An4   v120
	BYTE	W06
	BYTE		MOD     4
	BYTE	W02
	BYTE		        5
	BYTE	W01
	BYTE		        10
	BYTE	W01
	BYTE		        12
	BYTE	W01
	BYTE		        13
	BYTE	W01
	BYTE		        18
	BYTE	W01
	BYTE		        23
	BYTE	W01
	BYTE		        24
	BYTE	W01
	BYTE		        31
	BYTE	W01
	BYTE		        37
	BYTE	W01
	BYTE		        43
	BYTE	W01
	BYTE		        52
	BYTE	W01
	BYTE		        63
	BYTE	W01
	BYTE		        67
	BYTE	W01
	BYTE		        82
	BYTE	W01
	BYTE		        127
	BYTE	W24
	BYTE	W01
	BYTE		        0
	BYTE	W13
	BYTE		N23     En4 
	BYTE	W24
	BYTE		N78     Fn4 
	BYTE	W12
	BYTE	PEND
// 021   ----------------------------------------
voiceofthesacredwind8850_1_021:
	BYTE		MOD     0
	BYTE	W14
	BYTE		        1
	BYTE	W01
	BYTE		        8
	BYTE	W01
	BYTE		        15
	BYTE	W01
	BYTE		        26
	BYTE	W01
	BYTE		        40
	BYTE	W01
	BYTE		        52
	BYTE	W01
	BYTE		        63
	BYTE	W01
	BYTE		        87
	BYTE	W01
	BYTE		        93
	BYTE	W01
	BYTE		        107
	BYTE	W01
	BYTE		        127
	BYTE	W40
	BYTE		        0
	BYTE	W08
	BYTE		N11     Dn4   v120
	BYTE	W12
	BYTE		        En4 
	BYTE	W12
	BYTE	PEND
// 022   ----------------------------------------
voiceofthesacredwind8850_1_022:
	BYTE		N44     Fn4   v120
	BYTE	W07
	BYTE		MOD     2
	BYTE	W01
	BYTE		        4
	BYTE	W01
	BYTE		        9
	BYTE	W01
	BYTE		        11
	BYTE	W01
	BYTE		        18
	BYTE	W01
	BYTE		        23
	BYTE	W02
	BYTE		        31
	BYTE	W01
	BYTE		        45
	BYTE	W02
	BYTE		        50
	BYTE	W01
	BYTE		        64
	BYTE	W02
	BYTE		        79
	BYTE	W01
	BYTE		        111
	BYTE	W01
	BYTE		        120
	BYTE	W01
	BYTE		        127
	BYTE	W24
	BYTE		        0
	BYTE	W13
	BYTE		N23     Gn4 
	BYTE	W24
	BYTE		N11     Fn4 
	BYTE	W12
	BYTE	PEND
// 023   ----------------------------------------
voiceofthesacredwind8850_1_023:
	BYTE		N32     En4   v120
	BYTE	W05
	BYTE		MOD     1
	BYTE	W01
	BYTE		        5
	BYTE	W01
	BYTE		        7
	BYTE	W01
	BYTE		        9
	BYTE	W01
	BYTE		        15
	BYTE	W01
	BYTE		        20
	BYTE	W01
	BYTE		        42
	BYTE	W01
	BYTE		        67
	BYTE	W01
	BYTE		        79
	BYTE	W01
	BYTE		        97
	BYTE	W01
	BYTE		        127
	BYTE	W20
	BYTE		        0
	BYTE	W01
	BYTE		N23     Cn4 
	BYTE	W24
	BYTE		N11     En4 
	BYTE	W24
	BYTE		N44   
	BYTE	W03
	BYTE		MOD     1
	BYTE	W01
	BYTE		        3
	BYTE	W01
	BYTE		        6
	BYTE	W01
	BYTE		        15
	BYTE	W01
	BYTE		        18
	BYTE	W01
	BYTE		        20
	BYTE	W01
	BYTE		        31
	BYTE	W01
	BYTE		        36
	BYTE	W01
	BYTE		        53
	BYTE	W01
	BYTE	PEND
// 024   ----------------------------------------
voiceofthesacredwind8850_1_024:
	BYTE		MOD     80
	BYTE	W01
	BYTE		        111
	BYTE	W01
	BYTE		        127
	BYTE	W32
	BYTE		        0
	BYTE	W02
	BYTE		TIE     Dn4   v120
	BYTE	W24
	BYTE		MOD     6
	BYTE	W01
	BYTE		        8
	BYTE	W01
	BYTE		        11
	BYTE	W01
	BYTE		        18
	BYTE	W01
	BYTE		        21
	BYTE	W01
	BYTE		        22
	BYTE	W01
	BYTE		        30
	BYTE	W01
	BYTE		        34
	BYTE	W01
	BYTE		        39
	BYTE	W01
	BYTE		        57
	BYTE	W01
	BYTE		        67
	BYTE	W01
	BYTE		        79
	BYTE	W01
	BYTE		        93
	BYTE	W01
	BYTE		        127
	BYTE	W23
	BYTE	PEND
// 025   ----------------------------------------
voiceofthesacredwind8850_1_025:
	BYTE	W80
	BYTE	W02
	BYTE		MOD     0
	BYTE	W01
	BYTE	PEND
	BYTE		EOT     Dn4 
	BYTE	W13
// 026   ----------------------------------------
	BYTE	W96
// 027   ----------------------------------------
	BYTE	W96
// 028   ----------------------------------------
	BYTE	W96
// 029   ----------------------------------------
	BYTE	W96
// 030   ----------------------------------------
	BYTE	W96
// 031   ----------------------------------------
	BYTE	W96
// 032   ----------------------------------------
	BYTE	W96
// 033   ----------------------------------------
	BYTE	W96
// 034   ----------------------------------------
	BYTE	W96
// 035   ----------------------------------------
	BYTE	W96
// 036   ----------------------------------------
	BYTE	W96
// 037   ----------------------------------------
	BYTE	W96
// 038   ----------------------------------------
	BYTE	W96
// 039   ----------------------------------------
	BYTE	W96
// 040   ----------------------------------------
	BYTE	W96
// 041   ----------------------------------------
	BYTE	W96
// 042   ----------------------------------------
voiceofthesacredwind8850_1_042:
	BYTE	W24
	BYTE		N11     An4   v120
	BYTE	W12
	BYTE		N11   
	BYTE	W12
	BYTE		        Fn4 
	BYTE	W12
	BYTE		N23     Gn4 
	BYTE	W24
	BYTE		N64     An4 
	BYTE	W12
	BYTE	PEND
// 043   ----------------------------------------
voiceofthesacredwind8850_1_043:
	BYTE		MOD     3
	BYTE	W01
	BYTE		        7
	BYTE	W02
	BYTE		        16
	BYTE	W01
	BYTE		        25
	BYTE	W01
	BYTE		        34
	BYTE	W01
	BYTE		        44
	BYTE	W01
	BYTE		        50
	BYTE	W01
	BYTE		        71
	BYTE	W01
	BYTE		        127
	BYTE	W44
	BYTE	W01
	BYTE		        0
	BYTE	W06
	BYTE		N11     An4   v120
	BYTE	W12
	BYTE		        As4 
	BYTE	W12
	BYTE		        An4 
	BYTE	W12
	BYTE	PEND
// 044   ----------------------------------------
voiceofthesacredwind8850_1_044:
	BYTE		N44     Gn4   v120
	BYTE	W10
	BYTE		MOD     2
	BYTE	W01
	BYTE		        10
	BYTE	W01
	BYTE		        35
	BYTE	W01
	BYTE		        40
	BYTE	W01
	BYTE		        53
	BYTE	W01
	BYTE		        92
	BYTE	W01
	BYTE		        112
	BYTE	W01
	BYTE		        127
	BYTE	W30
	BYTE		        0
	BYTE	W13
	BYTE		N11     Cn4 
	BYTE	W12
	BYTE		        Dn4 
	BYTE	W12
	BYTE		        Cn4 
	BYTE	W12
	BYTE	PEND
// 045   ----------------------------------------
	BYTE		        En4 
	BYTE	W12
	BYTE		N23     Dn4 
	BYTE	W24
	BYTE		        Cn4 
	BYTE	W24
	BYTE		N11     En4 
	BYTE	W12
	BYTE		N23     Gn4 
	BYTE	W24
// 046   ----------------------------------------
	BYTE	W24
	BYTE		N11     Fn4 
	BYTE	W12
	BYTE		N11   
	BYTE	W12
	BYTE		        Dn4 
	BYTE	W12
	BYTE		N23     En4 
	BYTE	W24
	BYTE		N56     Fn4 
	BYTE	W08
	BYTE		MOD     0
	BYTE	W01
	BYTE		        3
	BYTE	W01
	BYTE		        4
	BYTE	W01
	BYTE		        6
	BYTE	W01
// 047   ----------------------------------------
voiceofthesacredwind8850_1_047:
	BYTE		MOD     12
	BYTE	W01
	BYTE		        17
	BYTE	W01
	BYTE		        22
	BYTE	W01
	BYTE		        36
	BYTE	W01
	BYTE		        45
	BYTE	W01
	BYTE		        71
	BYTE	W01
	BYTE		        127
	BYTE	W42
	BYTE		        0
	BYTE	W12
	BYTE		N11     Fn4   v120
	BYTE	W12
	BYTE		        Gn4 
	BYTE	W12
	BYTE		        Fn4 
	BYTE	W12
	BYTE	PEND
// 048   ----------------------------------------
voiceofthesacredwind8850_1_048:
	BYTE		N56     En4   v120
	BYTE	W14
	BYTE		MOD     1
	BYTE	W01
	BYTE		        3
	BYTE	W01
	BYTE		        4
	BYTE	W01
	BYTE		        7
	BYTE	W01
	BYTE		        11
	BYTE	W01
	BYTE		        15
	BYTE	W01
	BYTE		        23
	BYTE	W01
	BYTE		        39
	BYTE	W01
	BYTE		        47
	BYTE	W01
	BYTE		        52
	BYTE	W01
	BYTE		        127
	BYTE	W32
	BYTE	W02
	BYTE		        0
	BYTE	W02
	BYTE		N11     Gn4 
	BYTE	W12
	BYTE		        As4 
	BYTE	W12
	BYTE		TIE     An4 
	BYTE	W12
	BYTE	PEND
// 049   ----------------------------------------
voiceofthesacredwind8850_1_049:
	BYTE	W08
	BYTE		MOD     1
	BYTE	W03
	BYTE		        2
	BYTE	W01
	BYTE		        3
	BYTE	W01
	BYTE		        4
	BYTE	W02
	BYTE		        7
	BYTE	W03
	BYTE		        9
	BYTE	W01
	BYTE		        14
	BYTE	W01
	BYTE		        17
	BYTE	W01
	BYTE		        20
	BYTE	W01
	BYTE		        22
	BYTE	W01
	BYTE		        25
	BYTE	W01
	BYTE		        31
	BYTE	W01
	BYTE		        34
	BYTE	W01
	BYTE		        35
	BYTE	W01
	BYTE		        43
	BYTE	W01
	BYTE		        47
	BYTE	W01
	BYTE		        55
	BYTE	W01
	BYTE		        67
	BYTE	W01
	BYTE		        71
	BYTE	W01
	BYTE		        83
	BYTE	W01
	BYTE		        109
	BYTE	W01
	BYTE		        127
	BYTE	W60
	BYTE	W01
	BYTE	PEND
	BYTE		EOT     An4 
	BYTE		MOD     0
	BYTE	W01
// 050   ----------------------------------------
	BYTE	PATT
	 POIN2	voiceofthesacredwind8850_1_042
// 051   ----------------------------------------
	BYTE	PATT
	 POIN2	voiceofthesacredwind8850_1_043
// 052   ----------------------------------------
	BYTE	PATT
	 POIN2	voiceofthesacredwind8850_1_044
// 053   ----------------------------------------
voiceofthesacredwind8850_1_053:
	BYTE		N11     En4   v120
	BYTE	W12
	BYTE		N23     Dn4 
	BYTE	W24
	BYTE		        Cn4 
	BYTE	W24
	BYTE		N11     En4 
	BYTE	W12
	BYTE		        Fn4 
	BYTE	W12
	BYTE		        Gn4 
	BYTE	W12
	BYTE	PEND
// 054   ----------------------------------------
voiceofthesacredwind8850_1_054:
	BYTE		N44     Fn4   v120
	BYTE	W05
	BYTE		MOD     0
	BYTE	W01
	BYTE		        1
	BYTE	W01
	BYTE		        2
	BYTE	W01
	BYTE		        3
	BYTE	W01
	BYTE		        7
	BYTE	W01
	BYTE		        9
	BYTE	W01
	BYTE		        13
	BYTE	W01
	BYTE		        28
	BYTE	W01
	BYTE		        31
	BYTE	W01
	BYTE		        37
	BYTE	W01
	BYTE		        47
	BYTE	W01
	BYTE		        84
	BYTE	W01
	BYTE		        127
	BYTE	W30
	BYTE		        0
	BYTE	W13
	BYTE		N11   
	BYTE	W12
	BYTE		        Gn4 
	BYTE	W12
	BYTE		        An4 
	BYTE	W12
	BYTE	PEND
// 055   ----------------------------------------
	BYTE		N44     Gn4 
	BYTE	W05
	BYTE		MOD     2
	BYTE	W01
	BYTE		        5
	BYTE	W01
	BYTE		        7
	BYTE	W01
	BYTE		        8
	BYTE	W01
	BYTE		        12
	BYTE	W02
	BYTE		        16
	BYTE	W01
	BYTE		        23
	BYTE	W01
	BYTE		        29
	BYTE	W01
	BYTE		        32
	BYTE	W01
	BYTE		        59
	BYTE	W01
	BYTE		        111
	BYTE	W01
	BYTE		        127
	BYTE	W30
	BYTE		        0
	BYTE	W01
	BYTE		N11     En4 
	BYTE	W12
	BYTE		        Cn4 
	BYTE	W24
	BYTE		TIE     Dn4 
	BYTE	W12
// 056   ----------------------------------------
	BYTE	W07
	BYTE		MOD     0
	BYTE	W11
	BYTE		        1
	BYTE	W01
	BYTE		        3
	BYTE	W01
	BYTE		        4
	BYTE	W01
	BYTE		        7
	BYTE	W02
	BYTE		        8
	BYTE	W01
	BYTE		        12
	BYTE	W01
	BYTE		        14
	BYTE	W01
	BYTE		        15
	BYTE	W01
	BYTE		        19
	BYTE	W01
	BYTE		        21
	BYTE	W01
	BYTE		        23
	BYTE	W01
	BYTE		        28
	BYTE	W01
	BYTE		        31
	BYTE	W01
	BYTE		        35
	BYTE	W01
	BYTE		        39
	BYTE	W01
	BYTE		        43
	BYTE	W01
	BYTE		        45
	BYTE	W01
	BYTE		        48
	BYTE	W01
	BYTE		        52
	BYTE	W01
	BYTE		        54
	BYTE	W01
	BYTE		        58
	BYTE	W01
	BYTE		        61
	BYTE	W01
	BYTE		        64
	BYTE	W01
	BYTE		        71
	BYTE	W01
	BYTE		        75
	BYTE	W01
	BYTE		        81
	BYTE	W01
	BYTE		        87
	BYTE	W01
	BYTE		        92
	BYTE	W01
	BYTE		        95
	BYTE	W01
	BYTE		        106
	BYTE	W01
	BYTE		        111
	BYTE	W01
	BYTE		        121
	BYTE	W01
	BYTE		        127
	BYTE	W44
	BYTE	W01
// 057   ----------------------------------------
	BYTE	W92
	BYTE	W03
	BYTE		EOT   
	BYTE		MOD     0
	BYTE	W01
// 058   ----------------------------------------
	BYTE	W96
// 059   ----------------------------------------
	BYTE	W96
// 060   ----------------------------------------
	BYTE	W96
// 061   ----------------------------------------
	BYTE	W96
// 062   ----------------------------------------
	BYTE	W96
// 063   ----------------------------------------
	BYTE	W96
// 064   ----------------------------------------
	BYTE	W96
// 065   ----------------------------------------
	BYTE	W96
// 066   ----------------------------------------
	BYTE	W96
// 067   ----------------------------------------
	BYTE	W96
// 068   ----------------------------------------
	BYTE	W96
// 069   ----------------------------------------
	BYTE	W92
	BYTE	W03
	BYTE	W01
// 070   ----------------------------------------
	BYTE		N05     Gn4 
	BYTE	W06
	BYTE		        Gn3 
	BYTE	W06
	BYTE		        An4 
	BYTE	W06
	BYTE		        An3 
	BYTE	W06
	BYTE		        As4 
	BYTE	W06
	BYTE		        As3 
	BYTE	W06
	BYTE		        Gn4 
	BYTE	W06
	BYTE		        As4 
	BYTE	W06
	BYTE		        Dn5 
	BYTE	W06
	BYTE		        Fn4 
	BYTE	W06
	BYTE		        Dn4 
	BYTE	W06
	BYTE		        Fn4 
	BYTE	W06
	BYTE		        An4 
	BYTE	W06
	BYTE		        As3 
	BYTE	W06
	BYTE		        Fn4 
	BYTE	W06
	BYTE		        An3 
	BYTE	W06
// 071   ----------------------------------------
	BYTE		        Dn4 
	BYTE	W06
	BYTE		        Dn3 
	BYTE	W06
	BYTE		        An4 
	BYTE	W06
	BYTE		        An3 
	BYTE	W06
	BYTE		        As4 
	BYTE	W06
	BYTE		        As3 
	BYTE	W06
	BYTE		        An4 
	BYTE	W06
	BYTE		        As4 
	BYTE	W06
	BYTE		        Dn5 
	BYTE	W06
	BYTE		        Fn4 
	BYTE	W06
	BYTE		        Dn4 
	BYTE	W06
	BYTE		        Fn4 
	BYTE	W06
	BYTE		        An4 
	BYTE	W06
	BYTE		        An3 
	BYTE	W06
	BYTE		        Fn4 
	BYTE	W06
	BYTE		        En4 
	BYTE	W06
// 072   ----------------------------------------
	BYTE		N11     Dn4 
	BYTE	W12
	BYTE		        An4 
	BYTE	W12
	BYTE		        Dn4 
	BYTE	W12
	BYTE		MOD     0
	BYTE		N23     Gn4 
	BYTE	W02
	BYTE		MOD     4
	BYTE	W01
	BYTE		        9
	BYTE	W01
	BYTE		        11
	BYTE	W01
	BYTE		        18
	BYTE	W01
	BYTE		        26
	BYTE	W01
	BYTE		        32
	BYTE	W01
	BYTE		        40
	BYTE	W01
	BYTE		        56
	BYTE	W01
	BYTE		        81
	BYTE	W01
	BYTE		        106
	BYTE	W01
	BYTE		        127
	BYTE	W12
	BYTE		        0
	BYTE		N11     En4 
	BYTE	W12
	BYTE		        Cn4 
	BYTE	W12
	BYTE		        As3 
	BYTE	W12
// 073   ----------------------------------------
	BYTE		N23     An3 
	BYTE	W02
	BYTE		MOD     2
	BYTE	W01
	BYTE		        7
	BYTE	W01
	BYTE		        9
	BYTE	W01
	BYTE		        12
	BYTE	W01
	BYTE		        26
	BYTE	W01
	BYTE		        27
	BYTE	W01
	BYTE		        41
	BYTE	W01
	BYTE		        85
	BYTE	W01
	BYTE		        112
	BYTE	W01
	BYTE		        127
	BYTE	W01
	BYTE		        127
	BYTE	W11
	BYTE		        0
	BYTE	W01
	BYTE		N23     En4 
	BYTE	W24
	BYTE		N11     An4 
	BYTE	W12
	BYTE		N05     Gn4 
	BYTE	W06
	BYTE		        An4 
	BYTE	W06
	BYTE		        As4 
	BYTE	W06
	BYTE		        Cn5 
	BYTE	W06
	BYTE		        Dn5 
	BYTE	W06
	BYTE		        En5 
	BYTE	W06
// 074   ----------------------------------------
	BYTE		N32     Fn5 
	BYTE	W04
	BYTE		MOD     3
	BYTE	W01
	BYTE		        10
	BYTE	W01
	BYTE		        22
	BYTE	W01
	BYTE		        35
	BYTE	W01
	BYTE		        53
	BYTE	W01
	BYTE		        98
	BYTE	W01
	BYTE		        127
	BYTE	W24
	BYTE	W01
	BYTE		        0
	BYTE	W01
	BYTE		N11     En5 
	BYTE	W12
	BYTE		        Gn5 
	BYTE	W12
	BYTE		        Fn5 
	BYTE	W12
	BYTE		        En5 
	BYTE	W12
	BYTE		        Fn5 
	BYTE	W12
// 075   ----------------------------------------
	BYTE		N23     En5 
	BYTE	W24
	BYTE		        An4 
	BYTE	W02
	BYTE		MOD     29
	BYTE	W01
	BYTE		        76
	BYTE	W01
	BYTE		        94
	BYTE	W01
	BYTE		        111
	BYTE	W01
	BYTE		        127
	BYTE	W16
	BYTE		        0
	BYTE	W02
	BYTE		N11     Gn5 
	BYTE	W12
	BYTE		        Fn5 
	BYTE	W12
	BYTE		        En5 
	BYTE	W12
	BYTE		        An4 
	BYTE	W12
// 076   ----------------------------------------
	BYTE		N07     Dn5 
	BYTE	W08
	BYTE		        Cn5 
	BYTE	W08
	BYTE		        As4 
	BYTE	W08
	BYTE		        Cn5 
	BYTE	W08
	BYTE		        As4 
	BYTE	W08
	BYTE		        An4 
	BYTE	W08
	BYTE		        Gn4 
	BYTE	W08
	BYTE		        Fn4 
	BYTE	W08
	BYTE		        En4 
	BYTE	W08
	BYTE		        Dn4 
	BYTE	W08
	BYTE		        Cn4 
	BYTE	W08
	BYTE		        As3 
	BYTE	W08
// 077   ----------------------------------------
	BYTE		N32     An3 
	BYTE	W03
	BYTE		MOD     2
	BYTE	W01
	BYTE		        4
	BYTE	W01
	BYTE		        10
	BYTE	W01
	BYTE		        19
	BYTE	W01
	BYTE		        23
	BYTE	W01
	BYTE		        30
	BYTE	W01
	BYTE		        51
	BYTE	W01
	BYTE		        79
	BYTE	W01
	BYTE		        109
	BYTE	W01
	BYTE		        127
	BYTE	W23
	BYTE		        0
	BYTE	W01
	BYTE		N32     An4 
	BYTE	W07
	BYTE		MOD     4
	BYTE	W01
	BYTE		        6
	BYTE	W01
	BYTE		        13
	BYTE	W01
	BYTE		        18
	BYTE	W01
	BYTE		        26
	BYTE	W01
	BYTE		        54
	BYTE	W01
	BYTE		        73
	BYTE	W01
	BYTE		        97
	BYTE	W01
	BYTE		        127
	BYTE	W20
	BYTE		        0
	BYTE	W01
	BYTE		N11     Cn4 
	BYTE	W12
	BYTE		        An3 
	BYTE	W12
// 078   ----------------------------------------
	BYTE		N32     As3 
	BYTE	W01
	BYTE		MOD     6
	BYTE	W01
	BYTE		        8
	BYTE	W01
	BYTE		        12
	BYTE	W01
	BYTE		        15
	BYTE	W01
	BYTE		        18
	BYTE	W01
	BYTE		        26
	BYTE	W01
	BYTE		        30
	BYTE	W01
	BYTE		        32
	BYTE	W01
	BYTE		        41
	BYTE	W01
	BYTE		        46
	BYTE	W01
	BYTE		        55
	BYTE	W01
	BYTE		        78
	BYTE	W01
	BYTE		        127
	BYTE	W21
	BYTE		        0
	BYTE	W02
	BYTE		N23     Dn5 
	BYTE	W01
	BYTE		MOD     21
	BYTE	W01
	BYTE		        35
	BYTE	W01
	BYTE		        76
	BYTE	W01
	BYTE		        104
	BYTE	W01
	BYTE		        127
	BYTE	W18
	BYTE		        0
	BYTE	W01
	BYTE		N11     En4 
	BYTE	W12
	BYTE		        Cn4 
	BYTE	W12
	BYTE		        As3 
	BYTE	W12
// 079   ----------------------------------------
	BYTE		N32     Fn3 
	BYTE	W03
	BYTE		MOD     4
	BYTE	W01
	BYTE		        9
	BYTE	W01
	BYTE		        11
	BYTE	W01
	BYTE		        19
	BYTE	W01
	BYTE		        23
	BYTE	W01
	BYTE		        27
	BYTE	W01
	BYTE		        42
	BYTE	W01
	BYTE		        127
	BYTE	W24
	BYTE	W01
	BYTE		        0
	BYTE	W01
	BYTE		N23     Dn5 
	BYTE	W01
	BYTE		MOD     3
	BYTE	W01
	BYTE		        40
	BYTE	W01
	BYTE		        93
	BYTE	W01
	BYTE		        127
	BYTE	W19
	BYTE		        0
	BYTE	W01
	BYTE		N11     An4 
	BYTE	W12
	BYTE		        Dn5 
	BYTE	W12
	BYTE		        En5 
	BYTE	W12
// 080   ----------------------------------------
	BYTE		N32     Dn5 
	BYTE	W02
	BYTE		MOD     3
	BYTE	W01
	BYTE		        9
	BYTE	W01
	BYTE		        13
	BYTE	W01
	BYTE		        21
	BYTE	W01
	BYTE		        31
	BYTE	W01
	BYTE		        40
	BYTE	W01
	BYTE		        46
	BYTE	W01
	BYTE		        74
	BYTE	W01
	BYTE		        85
	BYTE	W01
	BYTE		        93
	BYTE	W01
	BYTE		        127
	BYTE	W23
	BYTE		        0
	BYTE	W01
	BYTE		        1
	BYTE		N32     En5 
	BYTE	W01
	BYTE		MOD     3
	BYTE	W01
	BYTE		        6
	BYTE	W01
	BYTE		        15
	BYTE	W01
	BYTE		        21
	BYTE	W01
	BYTE		        27
	BYTE	W01
	BYTE		        43
	BYTE	W01
	BYTE		        47
	BYTE	W01
	BYTE		        60
	BYTE	W01
	BYTE		        76
	BYTE	W01
	BYTE		        84
	BYTE	W01
	BYTE		        94
	BYTE	W01
	BYTE		        127
	BYTE	W23
	BYTE		        0
	BYTE	W01
	BYTE		N23     Fn5   v116
	BYTE	W24
// 081   ----------------------------------------
	BYTE		TIE     An5   v112
	BYTE	W06
	BYTE		MOD     3
	BYTE	W01
	BYTE		        5
	BYTE	W01
	BYTE		        7
	BYTE	W01
	BYTE		        10
	BYTE	W02
	BYTE		        12
	BYTE	W01
	BYTE		        15
	BYTE	W01
	BYTE		        17
	BYTE	W01
	BYTE		        20
	BYTE	W01
	BYTE		        23
	BYTE	W01
	BYTE		        24
	BYTE	W01
	BYTE		        26
	BYTE	W01
	BYTE		        31
	BYTE	W01
	BYTE		        33
	BYTE	W01
	BYTE		        35
	BYTE	W01
	BYTE		        42
	BYTE	W02
	BYTE		        46
	BYTE	W01
	BYTE		        51
	BYTE	W01
	BYTE		        53
	BYTE	W01
	BYTE		        56
	BYTE	W01
	BYTE		        62
	BYTE	W01
	BYTE		        64
	BYTE	W01
	BYTE		        68
	BYTE	W01
	BYTE		        73
	BYTE	W01
	BYTE		        75
	BYTE	W01
	BYTE		        80
	BYTE	W01
	BYTE		        92
	BYTE	W01
	BYTE		        94
	BYTE	W01
	BYTE		        100
	BYTE	W01
	BYTE		        111
	BYTE	W01
	BYTE		        115
	BYTE	W01
	BYTE		        120
	BYTE	W01
	BYTE		        127
	BYTE	W56
	BYTE	W01
// 082   ----------------------------------------
	BYTE	W64
	BYTE		        0
	BYTE	W01
	BYTE		EOT   
	BYTE	W19
	BYTE		N23     An4   v120
	BYTE	W12
// 083   ----------------------------------------
	BYTE	PATT
	 POIN2	voiceofthesacredwind8850_1_002
// 084   ----------------------------------------
	BYTE	PATT
	 POIN2	voiceofthesacredwind8850_1_003
// 085   ----------------------------------------
	BYTE	PATT
	 POIN2	voiceofthesacredwind8850_1_004
// 086   ----------------------------------------
	BYTE	PATT
	 POIN2	voiceofthesacredwind8850_1_005
// 087   ----------------------------------------
	BYTE	W96
// 088   ----------------------------------------
	BYTE	W96
// 089   ----------------------------------------
	BYTE	W36
	BYTE		BEND    c_v+0
	BYTE	W60
// 090   ----------------------------------------
	BYTE	W96
// 091   ----------------------------------------
	BYTE	PATT
	 POIN2	voiceofthesacredwind8850_1_010
// 092   ----------------------------------------
	BYTE	PATT
	 POIN2	voiceofthesacredwind8850_1_011
// 093   ----------------------------------------
	BYTE	PATT
	 POIN2	voiceofthesacredwind8850_1_012
// 094   ----------------------------------------
	BYTE	PATT
	 POIN2	voiceofthesacredwind8850_1_013
// 095   ----------------------------------------
	BYTE	PATT
	 POIN2	voiceofthesacredwind8850_1_014
// 096   ----------------------------------------
	BYTE	PATT
	 POIN2	voiceofthesacredwind8850_1_015
// 097   ----------------------------------------
	BYTE	PATT
	 POIN2	voiceofthesacredwind8850_1_016
	BYTE		EOT     Cn4 
	BYTE	W01
// 098   ----------------------------------------
	BYTE	PATT
	 POIN2	voiceofthesacredwind8850_1_017
// 099   ----------------------------------------
	BYTE	PATT
	 POIN2	voiceofthesacredwind8850_1_010
// 100   ----------------------------------------
	BYTE	PATT
	 POIN2	voiceofthesacredwind8850_1_011
// 101   ----------------------------------------
	BYTE	PATT
	 POIN2	voiceofthesacredwind8850_1_020
// 102   ----------------------------------------
	BYTE	PATT
	 POIN2	voiceofthesacredwind8850_1_021
// 103   ----------------------------------------
	BYTE	PATT
	 POIN2	voiceofthesacredwind8850_1_022
// 104   ----------------------------------------
	BYTE	PATT
	 POIN2	voiceofthesacredwind8850_1_023
// 105   ----------------------------------------
	BYTE	PATT
	 POIN2	voiceofthesacredwind8850_1_024
// 106   ----------------------------------------
	BYTE	PATT
	 POIN2	voiceofthesacredwind8850_1_025
	BYTE		EOT     Dn4 
	BYTE	W13
// 107   ----------------------------------------
	BYTE	W96
// 108   ----------------------------------------
	BYTE	W96
// 109   ----------------------------------------
	BYTE	W96
// 110   ----------------------------------------
	BYTE	W96
// 111   ----------------------------------------
	BYTE	W96
// 112   ----------------------------------------
	BYTE	W96
// 113   ----------------------------------------
	BYTE	W96
// 114   ----------------------------------------
	BYTE	W96
// 115   ----------------------------------------
	BYTE	W96
// 116   ----------------------------------------
	BYTE	W96
// 117   ----------------------------------------
	BYTE	W96
// 118   ----------------------------------------
	BYTE	W96
// 119   ----------------------------------------
	BYTE	W96
// 120   ----------------------------------------
	BYTE	W96
// 121   ----------------------------------------
	BYTE	W96
// 122   ----------------------------------------
	BYTE	W96
// 123   ----------------------------------------
	BYTE	PATT
	 POIN2	voiceofthesacredwind8850_1_042
// 124   ----------------------------------------
	BYTE	PATT
	 POIN2	voiceofthesacredwind8850_1_043
// 125   ----------------------------------------
	BYTE	PATT
	 POIN2	voiceofthesacredwind8850_1_044
// 126   ----------------------------------------
	BYTE		N11     En4   v120
	BYTE	W12
	BYTE		N23     Dn4 
	BYTE	W24
	BYTE		        Cn4 
	BYTE	W24
	BYTE		N11     En4 
	BYTE	W12
	BYTE		N44     Gn4 
	BYTE	W03
	BYTE		MOD     5
	BYTE	W01
	BYTE		        7
	BYTE	W01
	BYTE		        8
	BYTE	W01
	BYTE		        11
	BYTE	W01
	BYTE		        13
	BYTE	W01
	BYTE		        17
	BYTE	W01
	BYTE		        22
	BYTE	W01
	BYTE		        26
	BYTE	W01
	BYTE		        33
	BYTE	W01
	BYTE		        47
	BYTE	W01
	BYTE		        49
	BYTE	W01
	BYTE		        65
	BYTE	W01
	BYTE		        77
	BYTE	W01
	BYTE		        127
	BYTE	W08
// 127   ----------------------------------------
	BYTE	W23
	BYTE		        0
	BYTE	W01
	BYTE		N11     Fn4 
	BYTE	W12
	BYTE		N11   
	BYTE	W12
	BYTE		        Dn4 
	BYTE	W12
	BYTE		N23     En4 
	BYTE	W24
	BYTE		N56     Fn4 
	BYTE	W09
	BYTE		MOD     3
	BYTE	W01
	BYTE		        4
	BYTE	W01
	BYTE		        6
	BYTE	W01
// 128   ----------------------------------------
	BYTE	PATT
	 POIN2	voiceofthesacredwind8850_1_047
// 129   ----------------------------------------
	BYTE	PATT
	 POIN2	voiceofthesacredwind8850_1_048
// 130   ----------------------------------------
	BYTE	PATT
	 POIN2	voiceofthesacredwind8850_1_049
	BYTE		EOT     An4 
	BYTE		MOD     0
	BYTE	W01
// 131   ----------------------------------------
	BYTE	PATT
	 POIN2	voiceofthesacredwind8850_1_042
// 132   ----------------------------------------
	BYTE	PATT
	 POIN2	voiceofthesacredwind8850_1_043
// 133   ----------------------------------------
	BYTE	PATT
	 POIN2	voiceofthesacredwind8850_1_044
// 134   ----------------------------------------
	BYTE	PATT
	 POIN2	voiceofthesacredwind8850_1_053
// 135   ----------------------------------------
	BYTE	PATT
	 POIN2	voiceofthesacredwind8850_1_054
// 136   ----------------------------------------
	BYTE		N44     Gn4   v120
	BYTE	W05
	BYTE		MOD     2
	BYTE	W01
	BYTE		        5
	BYTE	W01
	BYTE		        7
	BYTE	W01
	BYTE		        8
	BYTE	W01
	BYTE		        12
	BYTE	W02
	BYTE		        16
	BYTE	W01
	BYTE		        23
	BYTE	W01
	BYTE		        29
	BYTE	W01
	BYTE		        32
	BYTE	W01
	BYTE		        59
	BYTE	W01
	BYTE		        111
	BYTE	W01
	BYTE		        127
	BYTE	W30
	BYTE		        0
	BYTE	W01
	BYTE		N11     En4 
	BYTE	W12
	BYTE		N44     Cn4 
	BYTE	W03
	BYTE		MOD     2
	BYTE	W01
	BYTE		        5
	BYTE	W01
	BYTE		        6
	BYTE	W01
	BYTE		        10
	BYTE	W01
	BYTE		        14
	BYTE	W01
	BYTE		        19
	BYTE	W01
	BYTE		        27
	BYTE	W01
	BYTE		        30
	BYTE	W01
	BYTE		        35
	BYTE	W01
	BYTE		        44
	BYTE		        53
	BYTE	W01
	BYTE		        75
	BYTE	W01
	BYTE		        101
	BYTE	W01
	BYTE		        127
	BYTE	W21
// 137   ----------------------------------------
	BYTE	W17
	BYTE		        0
	BYTE	W07
	BYTE		N11     An4 
	BYTE	W12
	BYTE		N11   
	BYTE	W12
	BYTE		        Fn4 
	BYTE	W12
	BYTE		N23     Gn4 
	BYTE	W24
	BYTE		N64     An4 
	BYTE	W12
// 138   ----------------------------------------
	BYTE	PATT
	 POIN2	voiceofthesacredwind8850_1_043
// 139   ----------------------------------------
	BYTE		N44     Cn5   v120
	BYTE	W10
	BYTE		MOD     2
	BYTE	W01
	BYTE		        10
	BYTE	W01
	BYTE		        35
	BYTE	W01
	BYTE		        40
	BYTE	W01
	BYTE		        53
	BYTE	W01
	BYTE		        92
	BYTE	W01
	BYTE		        112
	BYTE	W01
	BYTE		        127
	BYTE	W30
	BYTE		        0
	BYTE	W13
	BYTE		N11     An4 
	BYTE	W12
	BYTE		        As4 
	BYTE	W12
	BYTE		        An4 
	BYTE	W12
// 140   ----------------------------------------
	BYTE		N44     Gn4 
	BYTE	W07
	BYTE		MOD     1
	BYTE	W01
	BYTE		        2
	BYTE	W01
	BYTE		        6
	BYTE	W02
	BYTE		        9
	BYTE	W01
	BYTE		        13
	BYTE	W01
	BYTE		        15
	BYTE	W01
	BYTE		        18
	BYTE	W01
	BYTE		        28
	BYTE	W02
	BYTE		        35
	BYTE	W01
	BYTE		        45
	BYTE	W01
	BYTE		        47
	BYTE	W01
	BYTE		        53
	BYTE	W01
	BYTE		        63
	BYTE	W01
	BYTE		        68
	BYTE	W01
	BYTE		        104
	BYTE	W01
	BYTE		        127
	BYTE	W23
	BYTE		        0
	BYTE	W13
	BYTE		N11     En4 
	BYTE	W12
	BYTE		        Fn4 
	BYTE	W12
	BYTE		        Gn4 
	BYTE	W12
// 141   ----------------------------------------
	BYTE		N44     Fn4 
	BYTE	W02
	BYTE		MOD     3
	BYTE	W01
	BYTE		        7
	BYTE	W01
	BYTE		        10
	BYTE	W02
	BYTE		        16
	BYTE	W02
	BYTE		        21
	BYTE	W01
	BYTE		        25
	BYTE	W01
	BYTE		        27
	BYTE	W01
	BYTE		        29
	BYTE	W01
	BYTE		        36
	BYTE	W02
	BYTE		        44
	BYTE	W01
	BYTE		        127
	BYTE	W30
	BYTE	W01
	BYTE		        0
	BYTE	W14
	BYTE		N11   
	BYTE	W12
	BYTE		        Gn4 
	BYTE	W12
	BYTE		        Fn4 
	BYTE	W12
// 142   ----------------------------------------
	BYTE		N14     An4 
	BYTE	W16
	BYTE		        Gn4 
	BYTE	W16
	BYTE		N15     Fn4 
	BYTE	W16
	BYTE		        Dn4 
	BYTE	W16
	BYTE		        Gn4 
	BYTE	W16
	BYTE		        Fn4 
	BYTE	W16
// 143   ----------------------------------------
	BYTE	PATT
	 POIN2	voiceofthesacredwind8850_1_048
// 144   ----------------------------------------
	BYTE	PATT
	 POIN2	voiceofthesacredwind8850_1_049
	BYTE		EOT     An4 
	BYTE		MOD     0
	BYTE	W01
// 145   ----------------------------------------
	BYTE	PATT
	 POIN2	voiceofthesacredwind8850_1_042
// 146   ----------------------------------------
	BYTE	PATT
	 POIN2	voiceofthesacredwind8850_1_043
// 147   ----------------------------------------
	BYTE	PATT
	 POIN2	voiceofthesacredwind8850_1_044
// 148   ----------------------------------------
	BYTE	PATT
	 POIN2	voiceofthesacredwind8850_1_053
// 149   ----------------------------------------
	BYTE	PATT
	 POIN2	voiceofthesacredwind8850_1_054
// 150   ----------------------------------------
	BYTE		N44     Gn4   v120
	BYTE	W05
	BYTE		MOD     2
	BYTE	W01
	BYTE		        5
	BYTE	W01
	BYTE		        7
	BYTE	W01
	BYTE		        8
	BYTE	W01
	BYTE		        12
	BYTE	W02
	BYTE		        16
	BYTE	W01
	BYTE		        23
	BYTE	W01
	BYTE		        29
	BYTE	W01
	BYTE		        32
	BYTE	W01
	BYTE		        59
	BYTE	W01
	BYTE		        111
	BYTE	W01
	BYTE		        127
	BYTE	W30
	BYTE		        0
	BYTE	W01
	BYTE		N11     En4 
	BYTE	W12
	BYTE		        Cn4 
	BYTE	W12
	BYTE	W06
	BYTE	W06
	BYTE		N23     An4 
	BYTE	W06
	BYTE	W06
// 151   ----------------------------------------
	BYTE	PATT
	 POIN2	voiceofthesacredwind8850_1_002
// 152   ----------------------------------------
	BYTE	PATT
	 POIN2	voiceofthesacredwind8850_1_003
// 153   ----------------------------------------
	BYTE	PATT
	 POIN2	voiceofthesacredwind8850_1_004
// 154   ----------------------------------------
	BYTE	PATT
	 POIN2	voiceofthesacredwind8850_1_005
// 155   ----------------------------------------
	BYTE	W96
// 156   ----------------------------------------
	BYTE	W96
// 157   ----------------------------------------
	BYTE	W36
	BYTE		BEND    c_v+0
	BYTE	W60
// 158   ----------------------------------------
	BYTE	W96
// 159   ----------------------------------------
	BYTE	W96
// 160   ----------------------------------------
	BYTE	W96
// 161   ----------------------------------------
	BYTE	W96
// 162   ----------------------------------------
	BYTE	W96
// 163   ----------------------------------------
	BYTE	FINE

//**************** Track 2 (Midi-Chn.2) ****************//

voiceofthesacredwind8850_2:
	BYTE	KEYSH   voiceofthesacredwind8850_key+0
// 000   ----------------------------------------
	BYTE	W96
// 001   ----------------------------------------
	BYTE		VOICE   34
	BYTE		VOL     83*voiceofthesacredwind8850_mvl/mxv
	BYTE		PAN     c_v+0
	BYTE	W48
	BYTE		MOD     0
	BYTE		BEND    c_v+0
	BYTE	W36
	BYTE		N32     Dn1   v112
	BYTE	W12
// 002   ----------------------------------------
voiceofthesacredwind8850_2_002:
	BYTE	W36
	BYTE		N11     Dn1   v112
	BYTE	W24
	BYTE		N11   
	BYTE	W18
	BYTE		N17   
	BYTE	W18
	BYTE	PEND
// 003   ----------------------------------------
voiceofthesacredwind8850_2_003:
	BYTE		N23     Cn1   v112
	BYTE	W36
	BYTE		N11   
	BYTE	W24
	BYTE		N11   
	BYTE	W18
	BYTE		N17   
	BYTE	W18
	BYTE	PEND
// 004   ----------------------------------------
voiceofthesacredwind8850_2_004:
	BYTE		N23     Fn1   v112
	BYTE	W36
	BYTE		N11   
	BYTE	W24
	BYTE		        Cn1 
	BYTE	W12
	BYTE		        Fn1 
	BYTE	W12
	BYTE		N23     Gn1 
	BYTE	W12
	BYTE	PEND
// 005   ----------------------------------------
voiceofthesacredwind8850_2_005:
	BYTE	W12
	BYTE		N11     Gn1   v112
	BYTE	W12
	BYTE		N11   
	BYTE	W12
	BYTE		N23     Dn1 
	BYTE	W24
	BYTE		N11   
	BYTE	W12
	BYTE		N11   
	BYTE	W12
	BYTE		N32     As0 
	BYTE	W12
	BYTE	PEND
// 006   ----------------------------------------
voiceofthesacredwind8850_2_006:
	BYTE	W36
	BYTE		N11     As0   v112
	BYTE	W24
	BYTE		N11   
	BYTE	W12
	BYTE		N23   
	BYTE	W24
	BYTE	PEND
// 007   ----------------------------------------
voiceofthesacredwind8850_2_007:
	BYTE		N23     Cn1   v112
	BYTE	W36
	BYTE		N11   
	BYTE	W24
	BYTE		        An0 
	BYTE	W12
	BYTE		N11   
	BYTE	W12
	BYTE		N32     Dn1 
	BYTE	W12
	BYTE	PEND
// 008   ----------------------------------------
voiceofthesacredwind8850_2_008:
	BYTE	W36
	BYTE		N11     Dn1   v112
	BYTE	W24
	BYTE		N11   
	BYTE	W12
	BYTE		        Gn0 
	BYTE	W12
	BYTE		        An0 
	BYTE	W12
	BYTE	PEND
// 009   ----------------------------------------
voiceofthesacredwind8850_2_009:
	BYTE		N11     Dn1   v112
	BYTE	W36
	BYTE		N04   
	BYTE	W06
	BYTE		N04   
	BYTE	W30
	BYTE		N17   
	BYTE	W24
	BYTE	PEND
// 010   ----------------------------------------
voiceofthesacredwind8850_2_010:
	BYTE		N23     As0   v112
	BYTE	W36
	BYTE		N04   
	BYTE	W06
	BYTE		N04   
	BYTE	W18
	BYTE		N11   
	BYTE	W18
	BYTE		N17   
	BYTE	W18
	BYTE	PEND
// 011   ----------------------------------------
voiceofthesacredwind8850_2_011:
	BYTE		N23     As0   v112
	BYTE	W36
	BYTE		N04   
	BYTE	W06
	BYTE		N04   
	BYTE	W18
	BYTE		N11   
	BYTE	W18
	BYTE		N17     Bn0 
	BYTE	W18
	BYTE	PEND
// 012   ----------------------------------------
voiceofthesacredwind8850_2_012:
	BYTE		N23     Cn1   v112
	BYTE	W36
	BYTE		N04   
	BYTE	W06
	BYTE		N04   
	BYTE	W18
	BYTE		N11   
	BYTE	W18
	BYTE		N17   
	BYTE	W18
	BYTE	PEND
// 013   ----------------------------------------
voiceofthesacredwind8850_2_013:
	BYTE		N23     Dn1   v112
	BYTE	W36
	BYTE		N04   
	BYTE	W06
	BYTE		N04   
	BYTE	W18
	BYTE		N10     An0 
	BYTE	W12
	BYTE		        Dn1 
	BYTE	W12
	BYTE		        An0 
	BYTE	W12
	BYTE	PEND
// 014   ----------------------------------------
voiceofthesacredwind8850_2_014:
	BYTE		N23     Gn0   v112
	BYTE	W36
	BYTE		N04   
	BYTE	W06
	BYTE		N04   
	BYTE	W18
	BYTE		N11   
	BYTE	W18
	BYTE		N17   
	BYTE	W18
	BYTE	PEND
// 015   ----------------------------------------
	BYTE	PATT
	 POIN2	voiceofthesacredwind8850_2_012
// 016   ----------------------------------------
voiceofthesacredwind8850_2_016:
	BYTE		N23     Fn1   v112
	BYTE	W36
	BYTE		N04   
	BYTE	W06
	BYTE		N04   
	BYTE	W18
	BYTE		N11     Fn0 
	BYTE	W18
	BYTE		N17     Gn0 
	BYTE	W18
	BYTE	PEND
// 017   ----------------------------------------
voiceofthesacredwind8850_2_017:
	BYTE		N23     An0   v112
	BYTE	W36
	BYTE		N04   
	BYTE	W06
	BYTE		N04   
	BYTE	W18
	BYTE		N11   
	BYTE	W12
	BYTE		N05     Fn0 
	BYTE	W06
	BYTE		        Fn1 
	BYTE	W06
	BYTE		        Cn1 
	BYTE	W06
	BYTE		        Fn1 
	BYTE	W06
	BYTE	PEND
// 018   ----------------------------------------
	BYTE	PATT
	 POIN2	voiceofthesacredwind8850_2_010
// 019   ----------------------------------------
	BYTE	PATT
	 POIN2	voiceofthesacredwind8850_2_011
// 020   ----------------------------------------
	BYTE	PATT
	 POIN2	voiceofthesacredwind8850_2_012
// 021   ----------------------------------------
	BYTE	PATT
	 POIN2	voiceofthesacredwind8850_2_013
// 022   ----------------------------------------
	BYTE	PATT
	 POIN2	voiceofthesacredwind8850_2_011
// 023   ----------------------------------------
voiceofthesacredwind8850_2_023:
	BYTE		N23     Cn1   v112
	BYTE	W36
	BYTE		N04   
	BYTE	W06
	BYTE		N04   
	BYTE	W18
	BYTE		N11   
	BYTE	W18
	BYTE		N17     Cs1 
	BYTE	W18
	BYTE	PEND
// 024   ----------------------------------------
voiceofthesacredwind8850_2_024:
	BYTE		N23     Dn1   v112
	BYTE	W36
	BYTE		N04   
	BYTE	W06
	BYTE		N04   
	BYTE	W18
	BYTE		N11   
	BYTE	W18
	BYTE		N17   
	BYTE	W18
	BYTE	PEND
// 025   ----------------------------------------
voiceofthesacredwind8850_2_025:
	BYTE		N23     Dn1   v112
	BYTE	W36
	BYTE		N04   
	BYTE	W06
	BYTE		N04   
	BYTE	W18
	BYTE		N11   
	BYTE	W12
	BYTE		        Fn1 
	BYTE	W12
	BYTE		        An1 
	BYTE	W12
	BYTE	PEND
// 026   ----------------------------------------
voiceofthesacredwind8850_2_026:
	BYTE		N23     Gn1   v112
	BYTE	W36
	BYTE		N04   
	BYTE	W06
	BYTE		N04   
	BYTE	W18
	BYTE		N11   
	BYTE	W12
	BYTE		N05     Dn1 
	BYTE	W06
	BYTE		N11     Gn1 
	BYTE	W12
	BYTE		N05     Dn1 
	BYTE	W06
	BYTE	PEND
// 027   ----------------------------------------
voiceofthesacredwind8850_2_027:
	BYTE		N23     Cn1   v112
	BYTE	W36
	BYTE		N04   
	BYTE	W06
	BYTE		N04   
	BYTE	W18
	BYTE		N11   
	BYTE	W12
	BYTE		N05     Gn0 
	BYTE	W06
	BYTE		N11     Cn1 
	BYTE	W12
	BYTE		N05     Gn0 
	BYTE	W06
	BYTE	PEND
// 028   ----------------------------------------
voiceofthesacredwind8850_2_028:
	BYTE		N23     Fn1   v112
	BYTE	W36
	BYTE		N04   
	BYTE	W06
	BYTE		N04   
	BYTE	W18
	BYTE		N11   
	BYTE	W12
	BYTE		N05     Cn1 
	BYTE	W06
	BYTE		N11     Fn1 
	BYTE	W12
	BYTE		N05     Cn1 
	BYTE	W06
	BYTE	PEND
// 029   ----------------------------------------
voiceofthesacredwind8850_2_029:
	BYTE		N23     Fn1   v112
	BYTE	W36
	BYTE		N04   
	BYTE	W06
	BYTE		N04   
	BYTE	W18
	BYTE		N11     Fs1 
	BYTE	W12
	BYTE		N05     Cn1 
	BYTE	W06
	BYTE		N11     Fs1 
	BYTE	W12
	BYTE		N05     Dn1 
	BYTE	W06
	BYTE	PEND
// 030   ----------------------------------------
	BYTE	PATT
	 POIN2	voiceofthesacredwind8850_2_026
// 031   ----------------------------------------
	BYTE	PATT
	 POIN2	voiceofthesacredwind8850_2_027
// 032   ----------------------------------------
	BYTE	PATT
	 POIN2	voiceofthesacredwind8850_2_028
// 033   ----------------------------------------
	BYTE	PATT
	 POIN2	voiceofthesacredwind8850_2_028
// 034   ----------------------------------------
	BYTE	PATT
	 POIN2	voiceofthesacredwind8850_2_026
// 035   ----------------------------------------
	BYTE	PATT
	 POIN2	voiceofthesacredwind8850_2_027
// 036   ----------------------------------------
voiceofthesacredwind8850_2_036:
	BYTE		N23     An0   v112
	BYTE	W36
	BYTE		N04   
	BYTE	W06
	BYTE		N04   
	BYTE	W18
	BYTE		N11   
	BYTE	W12
	BYTE		N05     En0 
	BYTE	W06
	BYTE		N11     An0 
	BYTE	W12
	BYTE		N05     En0 
	BYTE	W06
	BYTE	PEND
// 037   ----------------------------------------
voiceofthesacredwind8850_2_037:
	BYTE		N23     Dn1   v112
	BYTE	W36
	BYTE		N04   
	BYTE	W06
	BYTE		N04   
	BYTE	W18
	BYTE		N10   
	BYTE	W18
	BYTE		N16     Cn1 
	BYTE	W18
	BYTE	PEND
// 038   ----------------------------------------
voiceofthesacredwind8850_2_038:
	BYTE		N23     As0   v112
	BYTE	W24
	BYTE		N04     Gn0 
	BYTE	W12
	BYTE		        As0 
	BYTE	W06
	BYTE		N04   
	BYTE	W18
	BYTE		N10   
	BYTE	W18
	BYTE		N16     An0 
	BYTE	W18
	BYTE	PEND
// 039   ----------------------------------------
voiceofthesacredwind8850_2_039:
	BYTE		N23     Gs0   v112
	BYTE	W24
	BYTE		N04     En0 
	BYTE	W12
	BYTE		        Gs0 
	BYTE	W06
	BYTE		N04   
	BYTE	W18
	BYTE		N10     Bn0 
	BYTE	W12
	BYTE		N10   
	BYTE	W12
	BYTE		N28     An0 
	BYTE	W12
	BYTE	PEND
// 040   ----------------------------------------
voiceofthesacredwind8850_2_040:
	BYTE	W24
	BYTE		N10     An0   v112
	BYTE	W12
	BYTE		N10   
	BYTE	W12
	BYTE		N05     En0 
	BYTE	W12
	BYTE		N10     An0 
	BYTE	W12
	BYTE		N04     En0 
	BYTE	W06
	BYTE		N10     An0 
	BYTE	W12
	BYTE		N04     En0 
	BYTE	W06
	BYTE	PEND
// 041   ----------------------------------------
voiceofthesacredwind8850_2_041:
	BYTE		N17     An0   v112
	BYTE	W24
	BYTE		N10   
	BYTE	W12
	BYTE		N10   
	BYTE	W12
	BYTE		        En0 
	BYTE	W12
	BYTE		N05     An0 
	BYTE	W12
	BYTE		        Cs1 
	BYTE	W12
	BYTE		N28     Dn1 
	BYTE	W12
	BYTE	PEND
// 042   ----------------------------------------
voiceofthesacredwind8850_2_042:
	BYTE	W24
	BYTE		N10     Dn1   v112
	BYTE	W12
	BYTE		N10   
	BYTE	W12
	BYTE		N05     An0 
	BYTE	W12
	BYTE		N10     Dn1 
	BYTE	W12
	BYTE		N04     An0 
	BYTE	W06
	BYTE		N10     Dn1 
	BYTE	W12
	BYTE		N04   
	BYTE	W06
	BYTE	PEND
// 043   ----------------------------------------
voiceofthesacredwind8850_2_043:
	BYTE		N22     Dn1   v112
	BYTE	W24
	BYTE		N10   
	BYTE	W12
	BYTE		N10   
	BYTE	W12
	BYTE		N05     An0 
	BYTE	W12
	BYTE		N10     Dn1 
	BYTE	W12
	BYTE		N04     An0 
	BYTE	W06
	BYTE		N10     Dn1 
	BYTE	W12
	BYTE		N04   
	BYTE	W06
	BYTE	PEND
// 044   ----------------------------------------
voiceofthesacredwind8850_2_044:
	BYTE		N22     Cn1   v112
	BYTE	W24
	BYTE		N10   
	BYTE	W12
	BYTE		N10   
	BYTE	W12
	BYTE		N05     Gn0 
	BYTE	W12
	BYTE		N10     Cn1 
	BYTE	W12
	BYTE		N04     Gn0 
	BYTE	W06
	BYTE		N10     Cn1 
	BYTE	W12
	BYTE		N04   
	BYTE	W06
	BYTE	PEND
// 045   ----------------------------------------
	BYTE	PATT
	 POIN2	voiceofthesacredwind8850_2_044
// 046   ----------------------------------------
voiceofthesacredwind8850_2_046:
	BYTE		N22     As0   v112
	BYTE	W24
	BYTE		N10   
	BYTE	W12
	BYTE		N10   
	BYTE	W12
	BYTE		N05     Fn0 
	BYTE	W12
	BYTE		N10     As0 
	BYTE	W12
	BYTE		N04     Fn0 
	BYTE	W06
	BYTE		N10     As0 
	BYTE	W12
	BYTE		N04   
	BYTE	W06
	BYTE	PEND
// 047   ----------------------------------------
	BYTE	PATT
	 POIN2	voiceofthesacredwind8850_2_046
// 048   ----------------------------------------
voiceofthesacredwind8850_2_048:
	BYTE		N22     An0   v112
	BYTE	W24
	BYTE		N10   
	BYTE	W12
	BYTE		N10   
	BYTE	W12
	BYTE		N05     En0 
	BYTE	W12
	BYTE		N10     An0 
	BYTE	W12
	BYTE		N04     En0 
	BYTE	W06
	BYTE		N10     An0 
	BYTE	W12
	BYTE		N04   
	BYTE	W06
	BYTE	PEND
// 049   ----------------------------------------
voiceofthesacredwind8850_2_049:
	BYTE		N22     An0   v112
	BYTE	W24
	BYTE		N10   
	BYTE	W12
	BYTE		N10   
	BYTE	W12
	BYTE		N05     En0 
	BYTE	W12
	BYTE		N10     An0 
	BYTE	W12
	BYTE		        Cs1 
	BYTE	W12
	BYTE		N28     Dn1 
	BYTE	W12
	BYTE	PEND
// 050   ----------------------------------------
	BYTE	PATT
	 POIN2	voiceofthesacredwind8850_2_042
// 051   ----------------------------------------
	BYTE	PATT
	 POIN2	voiceofthesacredwind8850_2_043
// 052   ----------------------------------------
	BYTE	PATT
	 POIN2	voiceofthesacredwind8850_2_044
// 053   ----------------------------------------
	BYTE	PATT
	 POIN2	voiceofthesacredwind8850_2_044
// 054   ----------------------------------------
voiceofthesacredwind8850_2_054:
	BYTE		N22     As0   v112
	BYTE	W24
	BYTE		N10   
	BYTE	W12
	BYTE		N10   
	BYTE	W12
	BYTE		N05     Fn0 
	BYTE	W12
	BYTE		N10     As0 
	BYTE	W12
	BYTE		N04     Fn0 
	BYTE	W06
	BYTE		N10     As0 
	BYTE	W12
	BYTE		N04     Bn0 
	BYTE	W06
	BYTE	PEND
// 055   ----------------------------------------
	BYTE		N22     Cn1 
	BYTE	W24
	BYTE		N10   
	BYTE	W12
	BYTE		N10   
	BYTE	W12
	BYTE		N05     Gn0 
	BYTE	W12
	BYTE		N10     Cn1 
	BYTE	W12
	BYTE		N04     Gn0 
	BYTE	W06
	BYTE		N10     Cn1 
	BYTE	W12
	BYTE		N04     Cs1 
	BYTE	W06
// 056   ----------------------------------------
	BYTE	PATT
	 POIN2	voiceofthesacredwind8850_2_043
// 057   ----------------------------------------
	BYTE		N32     Dn1   v112
	BYTE	W36
	BYTE		N22   
	BYTE	W24
	BYTE		N32   
	BYTE	W36
// 058   ----------------------------------------
voiceofthesacredwind8850_2_058:
	BYTE		N10     Dn1   v112
	BYTE	W12
	BYTE		N04   
	BYTE	W06
	BYTE		N04   
	BYTE	W06
	BYTE		N10   
	BYTE	W12
	BYTE		N04   
	BYTE	W06
	BYTE		N04   
	BYTE	W06
	BYTE		N10   
	BYTE	W12
	BYTE		N04   
	BYTE	W06
	BYTE		N04   
	BYTE	W06
	BYTE		N10   
	BYTE	W12
	BYTE		N04   
	BYTE	W06
	BYTE		N04   
	BYTE	W06
	BYTE	PEND
// 059   ----------------------------------------
	BYTE	PATT
	 POIN2	voiceofthesacredwind8850_2_058
// 060   ----------------------------------------
	BYTE	PATT
	 POIN2	voiceofthesacredwind8850_2_058
// 061   ----------------------------------------
	BYTE	PATT
	 POIN2	voiceofthesacredwind8850_2_058
// 062   ----------------------------------------
	BYTE	PATT
	 POIN2	voiceofthesacredwind8850_2_058
// 063   ----------------------------------------
	BYTE	PATT
	 POIN2	voiceofthesacredwind8850_2_058
// 064   ----------------------------------------
	BYTE	PATT
	 POIN2	voiceofthesacredwind8850_2_058
// 065   ----------------------------------------
	BYTE	PATT
	 POIN2	voiceofthesacredwind8850_2_058
// 066   ----------------------------------------
	BYTE	PATT
	 POIN2	voiceofthesacredwind8850_2_043
// 067   ----------------------------------------
	BYTE	PATT
	 POIN2	voiceofthesacredwind8850_2_044
// 068   ----------------------------------------
	BYTE	PATT
	 POIN2	voiceofthesacredwind8850_2_046
// 069   ----------------------------------------
	BYTE	PATT
	 POIN2	voiceofthesacredwind8850_2_048
// 070   ----------------------------------------
	BYTE	PATT
	 POIN2	voiceofthesacredwind8850_2_046
// 071   ----------------------------------------
	BYTE	PATT
	 POIN2	voiceofthesacredwind8850_2_043
// 072   ----------------------------------------
	BYTE		N22     Gs0   v112
	BYTE	W24
	BYTE		N10   
	BYTE	W12
	BYTE		N10   
	BYTE	W12
	BYTE		N05     Ds0 
	BYTE	W12
	BYTE		N10     Gs0 
	BYTE	W12
	BYTE		N04     Ds0 
	BYTE	W06
	BYTE		N10     Gs0 
	BYTE	W12
	BYTE		N04   
	BYTE	W06
// 073   ----------------------------------------
	BYTE		N22     An0 
	BYTE	W24
	BYTE		N10   
	BYTE	W12
	BYTE		N10   
	BYTE	W12
	BYTE		N05     En0 
	BYTE	W12
	BYTE		N10     An0 
	BYTE	W12
	BYTE		        Bn0 
	BYTE	W12
	BYTE		        Cs1 
	BYTE	W12
// 074   ----------------------------------------
	BYTE	PATT
	 POIN2	voiceofthesacredwind8850_2_043
// 075   ----------------------------------------
	BYTE	PATT
	 POIN2	voiceofthesacredwind8850_2_044
// 076   ----------------------------------------
	BYTE	PATT
	 POIN2	voiceofthesacredwind8850_2_046
// 077   ----------------------------------------
	BYTE	PATT
	 POIN2	voiceofthesacredwind8850_2_048
// 078   ----------------------------------------
	BYTE		N22     Gn0   v112
	BYTE	W24
	BYTE		N10   
	BYTE	W12
	BYTE		N10   
	BYTE	W12
	BYTE		N05     Dn0 
	BYTE	W12
	BYTE		N10     Gn0 
	BYTE	W12
	BYTE		N04     Dn0 
	BYTE	W06
	BYTE		N10     Gn0 
	BYTE	W12
	BYTE		N04   
	BYTE	W06
// 079   ----------------------------------------
	BYTE	PATT
	 POIN2	voiceofthesacredwind8850_2_043
// 080   ----------------------------------------
	BYTE	PATT
	 POIN2	voiceofthesacredwind8850_2_046
// 081   ----------------------------------------
	BYTE	PATT
	 POIN2	voiceofthesacredwind8850_2_048
// 082   ----------------------------------------
	BYTE		N68     An0   v112
	BYTE	W84
	BYTE		N32     Dn1 
	BYTE	W12
// 083   ----------------------------------------
	BYTE	PATT
	 POIN2	voiceofthesacredwind8850_2_002
// 084   ----------------------------------------
	BYTE	PATT
	 POIN2	voiceofthesacredwind8850_2_003
// 085   ----------------------------------------
	BYTE	PATT
	 POIN2	voiceofthesacredwind8850_2_004
// 086   ----------------------------------------
	BYTE	PATT
	 POIN2	voiceofthesacredwind8850_2_005
// 087   ----------------------------------------
	BYTE	PATT
	 POIN2	voiceofthesacredwind8850_2_006
// 088   ----------------------------------------
	BYTE	PATT
	 POIN2	voiceofthesacredwind8850_2_007
// 089   ----------------------------------------
	BYTE	PATT
	 POIN2	voiceofthesacredwind8850_2_008
// 090   ----------------------------------------
	BYTE	PATT
	 POIN2	voiceofthesacredwind8850_2_009
// 091   ----------------------------------------
	BYTE	PATT
	 POIN2	voiceofthesacredwind8850_2_010
// 092   ----------------------------------------
	BYTE	PATT
	 POIN2	voiceofthesacredwind8850_2_011
// 093   ----------------------------------------
	BYTE	PATT
	 POIN2	voiceofthesacredwind8850_2_012
// 094   ----------------------------------------
	BYTE	PATT
	 POIN2	voiceofthesacredwind8850_2_013
// 095   ----------------------------------------
	BYTE	PATT
	 POIN2	voiceofthesacredwind8850_2_014
// 096   ----------------------------------------
	BYTE	PATT
	 POIN2	voiceofthesacredwind8850_2_012
// 097   ----------------------------------------
	BYTE	PATT
	 POIN2	voiceofthesacredwind8850_2_016
// 098   ----------------------------------------
	BYTE	PATT
	 POIN2	voiceofthesacredwind8850_2_017
// 099   ----------------------------------------
	BYTE	PATT
	 POIN2	voiceofthesacredwind8850_2_010
// 100   ----------------------------------------
	BYTE	PATT
	 POIN2	voiceofthesacredwind8850_2_011
// 101   ----------------------------------------
	BYTE	PATT
	 POIN2	voiceofthesacredwind8850_2_012
// 102   ----------------------------------------
	BYTE	PATT
	 POIN2	voiceofthesacredwind8850_2_013
// 103   ----------------------------------------
	BYTE	PATT
	 POIN2	voiceofthesacredwind8850_2_011
// 104   ----------------------------------------
	BYTE	PATT
	 POIN2	voiceofthesacredwind8850_2_023
// 105   ----------------------------------------
	BYTE	PATT
	 POIN2	voiceofthesacredwind8850_2_024
// 106   ----------------------------------------
	BYTE	PATT
	 POIN2	voiceofthesacredwind8850_2_025
// 107   ----------------------------------------
	BYTE	PATT
	 POIN2	voiceofthesacredwind8850_2_026
// 108   ----------------------------------------
	BYTE	PATT
	 POIN2	voiceofthesacredwind8850_2_027
// 109   ----------------------------------------
	BYTE	PATT
	 POIN2	voiceofthesacredwind8850_2_028
// 110   ----------------------------------------
	BYTE	PATT
	 POIN2	voiceofthesacredwind8850_2_029
// 111   ----------------------------------------
	BYTE	PATT
	 POIN2	voiceofthesacredwind8850_2_026
// 112   ----------------------------------------
	BYTE	PATT
	 POIN2	voiceofthesacredwind8850_2_027
// 113   ----------------------------------------
	BYTE	PATT
	 POIN2	voiceofthesacredwind8850_2_028
// 114   ----------------------------------------
	BYTE	PATT
	 POIN2	voiceofthesacredwind8850_2_028
// 115   ----------------------------------------
	BYTE	PATT
	 POIN2	voiceofthesacredwind8850_2_026
// 116   ----------------------------------------
	BYTE	PATT
	 POIN2	voiceofthesacredwind8850_2_027
// 117   ----------------------------------------
	BYTE	PATT
	 POIN2	voiceofthesacredwind8850_2_036
// 118   ----------------------------------------
	BYTE	PATT
	 POIN2	voiceofthesacredwind8850_2_037
// 119   ----------------------------------------
	BYTE	PATT
	 POIN2	voiceofthesacredwind8850_2_038
// 120   ----------------------------------------
	BYTE	PATT
	 POIN2	voiceofthesacredwind8850_2_039
// 121   ----------------------------------------
	BYTE	PATT
	 POIN2	voiceofthesacredwind8850_2_040
// 122   ----------------------------------------
	BYTE	PATT
	 POIN2	voiceofthesacredwind8850_2_041
// 123   ----------------------------------------
	BYTE	PATT
	 POIN2	voiceofthesacredwind8850_2_042
// 124   ----------------------------------------
	BYTE	PATT
	 POIN2	voiceofthesacredwind8850_2_043
// 125   ----------------------------------------
	BYTE	PATT
	 POIN2	voiceofthesacredwind8850_2_044
// 126   ----------------------------------------
	BYTE	PATT
	 POIN2	voiceofthesacredwind8850_2_044
// 127   ----------------------------------------
	BYTE	PATT
	 POIN2	voiceofthesacredwind8850_2_046
// 128   ----------------------------------------
	BYTE	PATT
	 POIN2	voiceofthesacredwind8850_2_046
// 129   ----------------------------------------
	BYTE	PATT
	 POIN2	voiceofthesacredwind8850_2_048
// 130   ----------------------------------------
	BYTE	PATT
	 POIN2	voiceofthesacredwind8850_2_049
// 131   ----------------------------------------
	BYTE	PATT
	 POIN2	voiceofthesacredwind8850_2_042
// 132   ----------------------------------------
	BYTE	PATT
	 POIN2	voiceofthesacredwind8850_2_043
// 133   ----------------------------------------
	BYTE	PATT
	 POIN2	voiceofthesacredwind8850_2_044
// 134   ----------------------------------------
	BYTE	PATT
	 POIN2	voiceofthesacredwind8850_2_044
// 135   ----------------------------------------
	BYTE	PATT
	 POIN2	voiceofthesacredwind8850_2_054
// 136   ----------------------------------------
	BYTE		N22     Cn1   v112
	BYTE	W24
	BYTE		N10   
	BYTE	W12
	BYTE		N10   
	BYTE	W12
	BYTE		N05     Gn0 
	BYTE	W12
	BYTE		N10     Cn1 
	BYTE	W12
	BYTE		        En1 
	BYTE	W12
	BYTE		N28     Dn1 
	BYTE	W12
// 137   ----------------------------------------
	BYTE	PATT
	 POIN2	voiceofthesacredwind8850_2_042
// 138   ----------------------------------------
	BYTE	PATT
	 POIN2	voiceofthesacredwind8850_2_043
// 139   ----------------------------------------
	BYTE	PATT
	 POIN2	voiceofthesacredwind8850_2_044
// 140   ----------------------------------------
	BYTE	PATT
	 POIN2	voiceofthesacredwind8850_2_044
// 141   ----------------------------------------
	BYTE	PATT
	 POIN2	voiceofthesacredwind8850_2_046
// 142   ----------------------------------------
	BYTE	PATT
	 POIN2	voiceofthesacredwind8850_2_046
// 143   ----------------------------------------
	BYTE	PATT
	 POIN2	voiceofthesacredwind8850_2_048
// 144   ----------------------------------------
	BYTE	PATT
	 POIN2	voiceofthesacredwind8850_2_049
// 145   ----------------------------------------
	BYTE	PATT
	 POIN2	voiceofthesacredwind8850_2_042
// 146   ----------------------------------------
	BYTE	PATT
	 POIN2	voiceofthesacredwind8850_2_043
// 147   ----------------------------------------
	BYTE	PATT
	 POIN2	voiceofthesacredwind8850_2_044
// 148   ----------------------------------------
	BYTE	PATT
	 POIN2	voiceofthesacredwind8850_2_044
// 149   ----------------------------------------
	BYTE	PATT
	 POIN2	voiceofthesacredwind8850_2_054
// 150   ----------------------------------------
	BYTE		N22     Cn1   v112
	BYTE	W24
	BYTE		N10   
	BYTE	W12
	BYTE		N10   
	BYTE	W12
	BYTE		N05     Gn0 
	BYTE	W12
	BYTE		N10     Cn1 
	BYTE	W12
	BYTE		        En1 
	BYTE	W12
	BYTE		N32     Dn1 
	BYTE	W12
// 151   ----------------------------------------
	BYTE	PATT
	 POIN2	voiceofthesacredwind8850_2_002
// 152   ----------------------------------------
	BYTE	PATT
	 POIN2	voiceofthesacredwind8850_2_003
// 153   ----------------------------------------
	BYTE	PATT
	 POIN2	voiceofthesacredwind8850_2_004
// 154   ----------------------------------------
	BYTE	PATT
	 POIN2	voiceofthesacredwind8850_2_005
// 155   ----------------------------------------
	BYTE	PATT
	 POIN2	voiceofthesacredwind8850_2_006
// 156   ----------------------------------------
	BYTE	PATT
	 POIN2	voiceofthesacredwind8850_2_007
// 157   ----------------------------------------
	BYTE	PATT
	 POIN2	voiceofthesacredwind8850_2_008
// 158   ----------------------------------------
	BYTE	PATT
	 POIN2	voiceofthesacredwind8850_2_009
// 159   ----------------------------------------
	BYTE	W96
// 160   ----------------------------------------
	BYTE	W96
// 161   ----------------------------------------
	BYTE	W96
// 162   ----------------------------------------
	BYTE	W96
// 163   ----------------------------------------
	BYTE	FINE

//**************** Track 3 (Midi-Chn.3) ****************//

voiceofthesacredwind8850_3:
	BYTE	KEYSH   voiceofthesacredwind8850_key+0
// 000   ----------------------------------------
	BYTE	W96
// 001   ----------------------------------------
	BYTE		VOICE   83
	BYTE		VOL     98*voiceofthesacredwind8850_mvl/mxv
	BYTE		PAN     c_v+0
	BYTE	W48
	BYTE		MOD     0
	BYTE		BEND    c_v+0
	BYTE	W24
	BYTE	W06
	BYTE	W06
	BYTE	W12
// 002   ----------------------------------------
	BYTE	W96
// 003   ----------------------------------------
	BYTE	W96
// 004   ----------------------------------------
	BYTE	W96
// 005   ----------------------------------------
	BYTE	W84
	BYTE		N40     An4   v100
	BYTE	W12
// 006   ----------------------------------------
voiceofthesacredwind8850_3_006:
	BYTE	W36
	BYTE		N17     Gn4   v100
	BYTE	W24
	BYTE		N28     Dn4 
	BYTE	W36
	BYTE	PEND
// 007   ----------------------------------------
voiceofthesacredwind8850_3_007:
	BYTE		N11     Fn4   v100
	BYTE	W12
	BYTE		        En4 
	BYTE	W24
	BYTE		        Cn4 
	BYTE	W24
	BYTE		N22     An3 
	BYTE	W24
	BYTE		N88     Dn4 
	BYTE	W09
	BYTE		MOD     2
	BYTE	W02
	BYTE		        3
	BYTE	W01
	BYTE	PEND
// 008   ----------------------------------------
voiceofthesacredwind8850_3_008:
	BYTE		MOD     6
	BYTE	W01
	BYTE		        7
	BYTE	W01
	BYTE		        10
	BYTE	W01
	BYTE		        15
	BYTE	W01
	BYTE		        16
	BYTE	W01
	BYTE		        18
	BYTE	W01
	BYTE		        25
	BYTE	W01
	BYTE		        33
	BYTE	W01
	BYTE		        35
	BYTE	W01
	BYTE		        37
	BYTE	W01
	BYTE		        43
	BYTE	W01
	BYTE		        47
	BYTE	W01
	BYTE		        55
	BYTE	W01
	BYTE		        59
	BYTE	W01
	BYTE		        61
	BYTE	W01
	BYTE		        71
	BYTE	W01
	BYTE		        76
	BYTE	W01
	BYTE		        82
	BYTE	W01
	BYTE		        99
	BYTE	W01
	BYTE		        106
	BYTE	W01
	BYTE		        115
	BYTE	W01
	BYTE		        123
	BYTE	W01
	BYTE		        127
	BYTE	W54
	BYTE	W01
	BYTE		        0
	BYTE	W19
	BYTE	PEND
// 009   ----------------------------------------
	BYTE	W96
// 010   ----------------------------------------
	BYTE	W96
// 011   ----------------------------------------
	BYTE	W96
// 012   ----------------------------------------
	BYTE	W96
// 013   ----------------------------------------
	BYTE	W96
// 014   ----------------------------------------
	BYTE	W96
// 015   ----------------------------------------
	BYTE	W96
// 016   ----------------------------------------
	BYTE	W96
// 017   ----------------------------------------
	BYTE	W96
// 018   ----------------------------------------
	BYTE	W96
// 019   ----------------------------------------
	BYTE	W96
// 020   ----------------------------------------
	BYTE	W96
// 021   ----------------------------------------
	BYTE	W96
// 022   ----------------------------------------
	BYTE	W96
// 023   ----------------------------------------
	BYTE	W96
// 024   ----------------------------------------
	BYTE	W96
// 025   ----------------------------------------
voiceofthesacredwind8850_3_025:
	BYTE	W36
	BYTE		N23     Dn3   v100
	BYTE	W24
	BYTE		N11     En3 
	BYTE	W12
	BYTE		        Fn3 
	BYTE	W12
	BYTE		        An3 
	BYTE	W12
	BYTE	PEND
// 026   ----------------------------------------
voiceofthesacredwind8850_3_026:
	BYTE		N23     As3   v100
	BYTE	W24
	BYTE		N11     An3 
	BYTE	W12
	BYTE		        As3 
	BYTE	W24
	BYTE		        Cn4 
	BYTE	W24
	BYTE		N40     Dn4 
	BYTE	W06
	BYTE		MOD     4
	BYTE	W01
	BYTE		        7
	BYTE	W02
	BYTE		        15
	BYTE	W01
	BYTE		        17
	BYTE	W01
	BYTE		        19
	BYTE	W01
	BYTE	PEND
// 027   ----------------------------------------
voiceofthesacredwind8850_3_027:
	BYTE		MOD     28
	BYTE	W01
	BYTE		        32
	BYTE	W01
	BYTE		        38
	BYTE	W01
	BYTE		        52
	BYTE	W01
	BYTE		        60
	BYTE	W01
	BYTE		        79
	BYTE	W01
	BYTE		        127
	BYTE	W23
	BYTE		        0
	BYTE	W05
	BYTE		N01     En4   v100
	BYTE	W02
	BYTE		N11     Fn4 
	BYTE	W12
	BYTE		        En4 
	BYTE	W12
	BYTE		        Cn4 
	BYTE	W24
	BYTE		N92   
	BYTE	W12
	BYTE	PEND
// 028   ----------------------------------------
voiceofthesacredwind8850_3_028:
	BYTE	W22
	BYTE		MOD     1
	BYTE	W01
	BYTE		        4
	BYTE	W01
	BYTE		        7
	BYTE	W01
	BYTE		        10
	BYTE	W01
	BYTE		        14
	BYTE	W01
	BYTE		        22
	BYTE	W01
	BYTE		        25
	BYTE	W01
	BYTE		        30
	BYTE	W01
	BYTE		        42
	BYTE	W01
	BYTE		        52
	BYTE	W01
	BYTE		        57
	BYTE	W01
	BYTE		        81
	BYTE	W01
	BYTE		        86
	BYTE	W01
	BYTE		        127
	BYTE	W42
	BYTE	W01
	BYTE		        127
	BYTE	W03
	BYTE		        0
	BYTE	W01
	BYTE		N01     Gn3   v100
	BYTE	W02
	BYTE		N92     An3 
	BYTE	W12
	BYTE	PEND
// 029   ----------------------------------------
voiceofthesacredwind8850_3_029:
	BYTE	W09
	BYTE		MOD     3
	BYTE	W01
	BYTE		        5
	BYTE	W01
	BYTE		        7
	BYTE	W01
	BYTE		        10
	BYTE	W01
	BYTE		        14
	BYTE	W01
	BYTE		        16
	BYTE	W01
	BYTE		        21
	BYTE	W01
	BYTE		        26
	BYTE	W01
	BYTE		        28
	BYTE	W01
	BYTE		        33
	BYTE	W01
	BYTE		        38
	BYTE	W01
	BYTE		        42
	BYTE	W01
	BYTE		        58
	BYTE	W01
	BYTE		        71
	BYTE	W01
	BYTE		        79
	BYTE	W01
	BYTE		        127
	BYTE	W56
	BYTE	W03
	BYTE		        0
	BYTE	W13
	BYTE	PEND
// 030   ----------------------------------------
voiceofthesacredwind8850_3_030:
	BYTE		N23     As3   v100
	BYTE	W24
	BYTE		N11     An3 
	BYTE	W12
	BYTE		N23     As3 
	BYTE	W24
	BYTE		N11     Cn4 
	BYTE	W24
	BYTE		N40     Dn4 
	BYTE	W03
	BYTE		MOD     0
	BYTE	W02
	BYTE		        1
	BYTE	W01
	BYTE		        4
	BYTE	W01
	BYTE		        6
	BYTE	W01
	BYTE		        7
	BYTE	W01
	BYTE		        14
	BYTE	W01
	BYTE		        17
	BYTE	W01
	BYTE		        21
	BYTE	W01
	BYTE	PEND
// 031   ----------------------------------------
voiceofthesacredwind8850_3_031:
	BYTE		MOD     26
	BYTE	W01
	BYTE		        35
	BYTE	W01
	BYTE		        40
	BYTE	W01
	BYTE		        62
	BYTE	W01
	BYTE		        79
	BYTE	W01
	BYTE		        116
	BYTE	W01
	BYTE		        127
	BYTE	W23
	BYTE		        0
	BYTE	W05
	BYTE		N01     En4   v100
	BYTE	W02
	BYTE		N11     Fn4 
	BYTE	W12
	BYTE		        En4 
	BYTE	W12
	BYTE		        Cn4 
	BYTE	W24
	BYTE		TIE   
	BYTE	W12
	BYTE	PEND
// 032   ----------------------------------------
voiceofthesacredwind8850_3_032:
	BYTE	W18
	BYTE		MOD     1
	BYTE	W01
	BYTE		        2
	BYTE	W01
	BYTE		        4
	BYTE	W01
	BYTE		        6
	BYTE	W01
	BYTE		        7
	BYTE	W02
	BYTE		        10
	BYTE	W01
	BYTE		        12
	BYTE	W01
	BYTE		        15
	BYTE	W01
	BYTE		        17
	BYTE	W01
	BYTE		        18
	BYTE	W01
	BYTE		        22
	BYTE	W01
	BYTE		        25
	BYTE	W01
	BYTE		        27
	BYTE	W01
	BYTE		        29
	BYTE	W01
	BYTE		        36
	BYTE	W01
	BYTE		        39
	BYTE	W01
	BYTE		        41
	BYTE	W01
	BYTE		        47
	BYTE	W02
	BYTE		        50
	BYTE	W01
	BYTE		        62
	BYTE	W01
	BYTE		        63
	BYTE	W01
	BYTE		        70
	BYTE	W01
	BYTE		        74
	BYTE	W01
	BYTE		        79
	BYTE	W01
	BYTE		        82
	BYTE	W01
	BYTE		        89
	BYTE	W01
	BYTE		        97
	BYTE	W01
	BYTE		        103
	BYTE	W01
	BYTE		        123
	BYTE	W01
	BYTE		        127
	BYTE	W44
	BYTE	W03
	BYTE	PEND
// 033   ----------------------------------------
voiceofthesacredwind8850_3_033:
	BYTE	W44
	BYTE	W02
	BYTE		MOD     127
	BYTE	W24
	BYTE	W01
	BYTE	PEND
	BYTE		EOT     Cn4 
	BYTE		MOD     0
	BYTE	W24
	BYTE	W01
// 034   ----------------------------------------
	BYTE	PATT
	 POIN2	voiceofthesacredwind8850_3_026
// 035   ----------------------------------------
voiceofthesacredwind8850_3_035:
	BYTE		MOD     28
	BYTE	W01
	BYTE		        32
	BYTE	W01
	BYTE		        38
	BYTE	W01
	BYTE		        52
	BYTE	W01
	BYTE		        60
	BYTE	W01
	BYTE		        79
	BYTE	W01
	BYTE		        127
	BYTE	W23
	BYTE		        0
	BYTE	W05
	BYTE		N01     En4   v100
	BYTE	W02
	BYTE		N11     Fn4 
	BYTE	W12
	BYTE		        En4 
	BYTE	W12
	BYTE		        Cn4 
	BYTE	W24
	BYTE		N64   
	BYTE	W11
	BYTE		MOD     3
	BYTE	W01
	BYTE	PEND
// 036   ----------------------------------------
voiceofthesacredwind8850_3_036:
	BYTE		MOD     8
	BYTE	W01
	BYTE		        12
	BYTE	W01
	BYTE		        17
	BYTE	W01
	BYTE		        23
	BYTE	W01
	BYTE		        27
	BYTE	W01
	BYTE		        31
	BYTE	W01
	BYTE		        39
	BYTE	W01
	BYTE		        55
	BYTE	W01
	BYTE		        69
	BYTE	W01
	BYTE		        124
	BYTE	W01
	BYTE		        127
	BYTE	W42
	BYTE	W01
	BYTE		        0
	BYTE	W07
	BYTE		N11     En4   v100
	BYTE	W12
	BYTE		        Gn4 
	BYTE	W12
	BYTE		N64     Fn4 
	BYTE	W12
	BYTE	PEND
// 037   ----------------------------------------
voiceofthesacredwind8850_3_037:
	BYTE	W01
	BYTE		MOD     1
	BYTE	W01
	BYTE		        4
	BYTE	W01
	BYTE		        6
	BYTE	W01
	BYTE		        9
	BYTE	W02
	BYTE		        16
	BYTE	W01
	BYTE		        20
	BYTE	W01
	BYTE		        27
	BYTE	W01
	BYTE		        45
	BYTE	W01
	BYTE		        54
	BYTE	W01
	BYTE		        56
	BYTE	W01
	BYTE		        74
	BYTE	W01
	BYTE		        85
	BYTE	W01
	BYTE		        111
	BYTE	W01
	BYTE		        127
	BYTE	W36
	BYTE	W02
	BYTE		        0
	BYTE	W07
	BYTE		N11     Dn4   v100
	BYTE	W18
	BYTE		N17     En4 
	BYTE	W18
	BYTE	PEND
// 038   ----------------------------------------
voiceofthesacredwind8850_3_038:
	BYTE		N44     Fn4   v100
	BYTE	W10
	BYTE		MOD     3
	BYTE	W01
	BYTE		        4
	BYTE	W01
	BYTE		        9
	BYTE	W01
	BYTE		        11
	BYTE	W01
	BYTE		        12
	BYTE	W01
	BYTE		        21
	BYTE	W01
	BYTE		        23
	BYTE	W01
	BYTE		        27
	BYTE	W01
	BYTE		        34
	BYTE	W01
	BYTE		        37
	BYTE	W01
	BYTE		        44
	BYTE	W01
	BYTE		        54
	BYTE	W01
	BYTE		        59
	BYTE	W01
	BYTE		        69
	BYTE	W01
	BYTE		        118
	BYTE	W01
	BYTE		        127
	BYTE	W22
	BYTE		        0
	BYTE	W13
	BYTE		N11     Dn4 
	BYTE	W18
	BYTE		N17     En4 
	BYTE	W18
	BYTE	PEND
// 039   ----------------------------------------
voiceofthesacredwind8850_3_039:
	BYTE		N52     Fn4   v100
	BYTE	W09
	BYTE		MOD     3
	BYTE	W01
	BYTE		        18
	BYTE	W01
	BYTE		        43
	BYTE	W01
	BYTE		        75
	BYTE	W01
	BYTE		        96
	BYTE	W01
	BYTE		        113
	BYTE	W01
	BYTE		        127
	BYTE	W36
	BYTE	W03
	BYTE		        0
	BYTE	W04
	BYTE		N01   
	BYTE	W02
	BYTE		N11     Gn4 
	BYTE	W12
	BYTE		        Fn4 
	BYTE	W12
	BYTE		N88     En4 
	BYTE	W12
	BYTE	PEND
// 040   ----------------------------------------
voiceofthesacredwind8850_3_040:
	BYTE	W04
	BYTE		MOD     1
	BYTE	W02
	BYTE		        3
	BYTE	W01
	BYTE		        4
	BYTE	W01
	BYTE		        5
	BYTE	W01
	BYTE		        9
	BYTE	W01
	BYTE		        10
	BYTE	W01
	BYTE		        14
	BYTE	W01
	BYTE		        21
	BYTE	W01
	BYTE		        25
	BYTE	W01
	BYTE		        34
	BYTE	W01
	BYTE		        41
	BYTE	W02
	BYTE		        47
	BYTE	W01
	BYTE		        77
	BYTE	W01
	BYTE		        82
	BYTE	W01
	BYTE		        87
	BYTE	W01
	BYTE		        127
	BYTE	W56
	BYTE	W01
	BYTE		        0
	BYTE	W04
	BYTE		N01     Gn3   v100
	BYTE	W02
	BYTE		N92     An3 
	BYTE	W12
	BYTE	PEND
// 041   ----------------------------------------
voiceofthesacredwind8850_3_041:
	BYTE	W15
	BYTE		MOD     3
	BYTE	W02
	BYTE		        5
	BYTE	W01
	BYTE		        7
	BYTE	W02
	BYTE		        10
	BYTE	W01
	BYTE		        15
	BYTE	W02
	BYTE		        22
	BYTE	W01
	BYTE		        31
	BYTE	W01
	BYTE		        35
	BYTE	W01
	BYTE		        43
	BYTE	W01
	BYTE		        55
	BYTE	W01
	BYTE		        71
	BYTE	W01
	BYTE		        122
	BYTE	W01
	BYTE		        127
	BYTE	W54
	BYTE		        0
	BYTE	W12
	BYTE	PEND
// 042   ----------------------------------------
	BYTE	W96
// 043   ----------------------------------------
	BYTE	W96
// 044   ----------------------------------------
	BYTE	W96
// 045   ----------------------------------------
	BYTE	W96
// 046   ----------------------------------------
	BYTE	W96
// 047   ----------------------------------------
	BYTE	W96
// 048   ----------------------------------------
	BYTE	W96
// 049   ----------------------------------------
	BYTE	W96
// 050   ----------------------------------------
	BYTE	W96
// 051   ----------------------------------------
	BYTE	W96
// 052   ----------------------------------------
	BYTE	W96
// 053   ----------------------------------------
	BYTE	W96
// 054   ----------------------------------------
	BYTE	W96
// 055   ----------------------------------------
	BYTE	W96
// 056   ----------------------------------------
	BYTE	W96
// 057   ----------------------------------------
	BYTE	W96
// 058   ----------------------------------------
	BYTE	W96
// 059   ----------------------------------------
	BYTE	W96
// 060   ----------------------------------------
	BYTE	W96
// 061   ----------------------------------------
	BYTE	W96
// 062   ----------------------------------------
	BYTE	W96
// 063   ----------------------------------------
	BYTE	W96
// 064   ----------------------------------------
	BYTE	W96
// 065   ----------------------------------------
	BYTE	W96
// 066   ----------------------------------------
	BYTE		        0
	BYTE		N32     Dn4   v100
	BYTE	W03
	BYTE		MOD     1
	BYTE	W01
	BYTE		        6
	BYTE	W01
	BYTE		        8
	BYTE	W01
	BYTE		        12
	BYTE	W01
	BYTE		        15
	BYTE	W01
	BYTE		        20
	BYTE	W01
	BYTE		        31
	BYTE	W01
	BYTE		        37
	BYTE	W01
	BYTE		        55
	BYTE	W01
	BYTE		        104
	BYTE	W01
	BYTE		        127
	BYTE	W21
	BYTE		        0
	BYTE	W02
	BYTE		N02     Fn4 
	BYTE	W01
	BYTE		        An4 
	BYTE	W03
	BYTE		        Cn5 
	BYTE	W02
	BYTE		N16     Dn5 
	BYTE	W18
	BYTE		N10     As4 
	BYTE	W10
	BYTE		N02     Bn4 
	BYTE	W02
	BYTE		N10     Cn5 
	BYTE	W12
	BYTE		N44     An4 
	BYTE	W05
	BYTE		MOD     1
	BYTE	W01
	BYTE		        3
	BYTE	W02
	BYTE		        4
	BYTE	W01
	BYTE		        7
	BYTE	W02
	BYTE		        11
	BYTE	W01
// 067   ----------------------------------------
	BYTE		        12
	BYTE	W02
	BYTE		        14
	BYTE	W01
	BYTE		        17
	BYTE	W01
	BYTE		        21
	BYTE	W01
	BYTE		        23
	BYTE	W01
	BYTE		        31
	BYTE	W01
	BYTE		        32
	BYTE	W01
	BYTE		        39
	BYTE	W01
	BYTE		        45
	BYTE	W01
	BYTE		        55
	BYTE	W01
	BYTE		        61
	BYTE	W01
	BYTE		        74
	BYTE	W01
	BYTE		        79
	BYTE	W01
	BYTE		        127
	BYTE	W19
	BYTE		        0
	BYTE	W03
	BYTE		N32     Fn4 
	BYTE	W32
	BYTE	W02
	BYTE		N02     Cn4 
	BYTE	W02
	BYTE		N10     Dn4 
	BYTE	W12
	BYTE		        Fn4 
	BYTE	W12
// 068   ----------------------------------------
	BYTE		N16     An4 
	BYTE	W18
	BYTE		        Gn4 
	BYTE	W18
	BYTE		N10     Fn4 
	BYTE	W12
	BYTE		        En4 
	BYTE	W12
	BYTE		        An3 
	BYTE	W12
	BYTE		        Cn4 
	BYTE	W12
	BYTE		N02     Fn4 
	BYTE	W03
	BYTE		N42     Gn4 
	BYTE	W03
	BYTE		MOD     2
	BYTE	W02
	BYTE		        5
	BYTE	W01
	BYTE		        10
	BYTE	W02
	BYTE		        20
	BYTE	W01
// 069   ----------------------------------------
	BYTE		        29
	BYTE	W02
	BYTE		        42
	BYTE	W01
	BYTE		        91
	BYTE	W02
	BYTE		        106
	BYTE	W01
	BYTE		        127
	BYTE	W24
	BYTE	W03
	BYTE		        0
	BYTE	W03
	BYTE		N56     An4 
	BYTE	W15
	BYTE		BEND    c_v+0
	BYTE	W03
	BYTE		        c_v-1
	BYTE	W02
	BYTE		        c_v-2
	BYTE	W01
	BYTE		        c_v-3
	BYTE	W01
	BYTE		        c_v-4
	BYTE	W01
	BYTE		        c_v-6
	BYTE	W01
	BYTE		        c_v-7
	BYTE	W02
	BYTE		        c_v-8
	BYTE	W01
	BYTE		        c_v-10
	BYTE	W01
	BYTE		        c_v-11
	BYTE	W01
	BYTE		        c_v-12
	BYTE	W01
	BYTE		        c_v-15
	BYTE	W01
	BYTE		        c_v-16
	BYTE	W01
	BYTE		        c_v-19
	BYTE	W01
	BYTE		        c_v-20
	BYTE	W01
	BYTE		        c_v-22
	BYTE	W01
	BYTE		        c_v-23
	BYTE	W01
	BYTE		        c_v-25
	BYTE	W01
	BYTE		        c_v-27
	BYTE	W01
	BYTE		        c_v-28
	BYTE	W01
	BYTE		        c_v-31
	BYTE	W01
	BYTE		        c_v-32
	BYTE	W01
	BYTE		        c_v-33
	BYTE	W01
	BYTE		        c_v-36
	BYTE	W01
	BYTE		        c_v-37
	BYTE	W01
	BYTE		        c_v-38
	BYTE	W01
	BYTE		        c_v-42
	BYTE	W01
	BYTE		        c_v-43
	BYTE	W01
	BYTE		        c_v-45
	BYTE	W01
	BYTE		        c_v-48
	BYTE	W01
	BYTE		        c_v-49
	BYTE	W01
	BYTE		        c_v-51
	BYTE	W01
	BYTE		        c_v-53
	BYTE	W01
	BYTE		        c_v-54
	BYTE	W01
	BYTE		        c_v-56
	BYTE	W01
	BYTE		        c_v-60
	BYTE	W01
	BYTE		        c_v-61
	BYTE	W01
	BYTE		        c_v-64
	BYTE	W01
	BYTE		        c_v-64
	BYTE	W02
	BYTE		        c_v+0
	BYTE	W01
// 070   ----------------------------------------
	BYTE	W96
// 071   ----------------------------------------
	BYTE	W96
// 072   ----------------------------------------
	BYTE	W96
// 073   ----------------------------------------
	BYTE	W96
// 074   ----------------------------------------
	BYTE	W96
// 075   ----------------------------------------
	BYTE	W96
// 076   ----------------------------------------
	BYTE	W96
// 077   ----------------------------------------
	BYTE	W96
// 078   ----------------------------------------
	BYTE	W96
// 079   ----------------------------------------
	BYTE	W96
// 080   ----------------------------------------
	BYTE	W96
// 081   ----------------------------------------
	BYTE	W96
// 082   ----------------------------------------
voiceofthesacredwind8850_3_082:
	BYTE	W72
	BYTE	W06
	BYTE	W06
	BYTE	W12
	BYTE	PEND
// 083   ----------------------------------------
	BYTE	W96
// 084   ----------------------------------------
	BYTE	W96
// 085   ----------------------------------------
	BYTE	W96
// 086   ----------------------------------------
	BYTE	W84
	BYTE		N40     An4   v100
	BYTE	W12
// 087   ----------------------------------------
	BYTE	PATT
	 POIN2	voiceofthesacredwind8850_3_006
// 088   ----------------------------------------
	BYTE	PATT
	 POIN2	voiceofthesacredwind8850_3_007
// 089   ----------------------------------------
	BYTE	PATT
	 POIN2	voiceofthesacredwind8850_3_008
// 090   ----------------------------------------
	BYTE	W96
// 091   ----------------------------------------
	BYTE	W96
// 092   ----------------------------------------
	BYTE	W96
// 093   ----------------------------------------
	BYTE	W96
// 094   ----------------------------------------
	BYTE	W96
// 095   ----------------------------------------
	BYTE	W96
// 096   ----------------------------------------
	BYTE	W96
// 097   ----------------------------------------
	BYTE	W96
// 098   ----------------------------------------
	BYTE	W96
// 099   ----------------------------------------
	BYTE	W96
// 100   ----------------------------------------
	BYTE	W96
// 101   ----------------------------------------
	BYTE	W96
// 102   ----------------------------------------
	BYTE	W96
// 103   ----------------------------------------
	BYTE	W96
// 104   ----------------------------------------
	BYTE	W96
// 105   ----------------------------------------
	BYTE	W96
// 106   ----------------------------------------
	BYTE	PATT
	 POIN2	voiceofthesacredwind8850_3_025
// 107   ----------------------------------------
	BYTE	PATT
	 POIN2	voiceofthesacredwind8850_3_026
// 108   ----------------------------------------
	BYTE	PATT
	 POIN2	voiceofthesacredwind8850_3_027
// 109   ----------------------------------------
	BYTE	PATT
	 POIN2	voiceofthesacredwind8850_3_028
// 110   ----------------------------------------
	BYTE	PATT
	 POIN2	voiceofthesacredwind8850_3_029
// 111   ----------------------------------------
	BYTE	PATT
	 POIN2	voiceofthesacredwind8850_3_030
// 112   ----------------------------------------
	BYTE	PATT
	 POIN2	voiceofthesacredwind8850_3_031
// 113   ----------------------------------------
	BYTE	PATT
	 POIN2	voiceofthesacredwind8850_3_032
// 114   ----------------------------------------
	BYTE	PATT
	 POIN2	voiceofthesacredwind8850_3_033
	BYTE		EOT     Cn4 
	BYTE		MOD     0
	BYTE	W24
	BYTE	W01
// 115   ----------------------------------------
	BYTE	PATT
	 POIN2	voiceofthesacredwind8850_3_026
// 116   ----------------------------------------
	BYTE	PATT
	 POIN2	voiceofthesacredwind8850_3_035
// 117   ----------------------------------------
	BYTE	PATT
	 POIN2	voiceofthesacredwind8850_3_036
// 118   ----------------------------------------
	BYTE	PATT
	 POIN2	voiceofthesacredwind8850_3_037
// 119   ----------------------------------------
	BYTE	PATT
	 POIN2	voiceofthesacredwind8850_3_038
// 120   ----------------------------------------
	BYTE	PATT
	 POIN2	voiceofthesacredwind8850_3_039
// 121   ----------------------------------------
	BYTE	PATT
	 POIN2	voiceofthesacredwind8850_3_040
// 122   ----------------------------------------
	BYTE	PATT
	 POIN2	voiceofthesacredwind8850_3_041
// 123   ----------------------------------------
	BYTE	W96
// 124   ----------------------------------------
	BYTE	W96
// 125   ----------------------------------------
	BYTE	W96
// 126   ----------------------------------------
	BYTE	W96
// 127   ----------------------------------------
	BYTE	W96
// 128   ----------------------------------------
	BYTE	W96
// 129   ----------------------------------------
	BYTE	W96
// 130   ----------------------------------------
	BYTE	W96
// 131   ----------------------------------------
	BYTE	W96
// 132   ----------------------------------------
	BYTE	W96
// 133   ----------------------------------------
	BYTE	W96
// 134   ----------------------------------------
	BYTE	W96
// 135   ----------------------------------------
	BYTE	W96
// 136   ----------------------------------------
	BYTE	W72
	BYTE	W06
	BYTE	W06
	BYTE		MOD     0
	BYTE	W12
// 137   ----------------------------------------
	BYTE	W96
// 138   ----------------------------------------
	BYTE	W96
// 139   ----------------------------------------
	BYTE	W96
// 140   ----------------------------------------
	BYTE	W96
// 141   ----------------------------------------
	BYTE	W96
// 142   ----------------------------------------
	BYTE	W96
// 143   ----------------------------------------
	BYTE	W96
// 144   ----------------------------------------
	BYTE	W96
// 145   ----------------------------------------
	BYTE	W96
// 146   ----------------------------------------
	BYTE	W96
// 147   ----------------------------------------
	BYTE	W96
// 148   ----------------------------------------
	BYTE	W96
// 149   ----------------------------------------
	BYTE	W96
// 150   ----------------------------------------
	BYTE	PATT
	 POIN2	voiceofthesacredwind8850_3_082
// 151   ----------------------------------------
	BYTE	W96
// 152   ----------------------------------------
	BYTE	W96
// 153   ----------------------------------------
	BYTE	W96
// 154   ----------------------------------------
	BYTE	W84
	BYTE		N40     An4   v100
	BYTE	W12
// 155   ----------------------------------------
	BYTE	PATT
	 POIN2	voiceofthesacredwind8850_3_006
// 156   ----------------------------------------
	BYTE	PATT
	 POIN2	voiceofthesacredwind8850_3_007
// 157   ----------------------------------------
	BYTE	PATT
	 POIN2	voiceofthesacredwind8850_3_008
// 158   ----------------------------------------
	BYTE	W96
// 159   ----------------------------------------
	BYTE	W96
// 160   ----------------------------------------
	BYTE	W96
// 161   ----------------------------------------
	BYTE	W96
// 162   ----------------------------------------
	BYTE	W96
// 163   ----------------------------------------
	BYTE	FINE

//**************** Track 4 (Midi-Chn.4) ****************//

voiceofthesacredwind8850_4:
	BYTE	KEYSH   voiceofthesacredwind8850_key+0
// 000   ----------------------------------------
	BYTE	W96
// 001   ----------------------------------------
	BYTE		VOICE   2
	BYTE		VOL     78*voiceofthesacredwind8850_mvl/mxv
	BYTE		PAN     c_v+0
	BYTE	W48
	BYTE		BEND    c_v+0
	BYTE	W36
	BYTE		N17     Dn3   v120
	BYTE		N17     Fn3 
	BYTE		N17     An3 
	BYTE		N17     Dn4 
	BYTE		N17     Fn4 
	BYTE		N17     An4 
	BYTE	W12
// 002   ----------------------------------------
voiceofthesacredwind8850_4_002:
	BYTE	W12
	BYTE		N02     Dn3   v120
	BYTE		N02     Fn3 
	BYTE		N02     An3 
	BYTE		N02     Dn4 
	BYTE		N02     Fn4 
	BYTE		N02     An4 
	BYTE	W12
	BYTE		        Dn3 
	BYTE		N02     Fn3 
	BYTE		N02     An3 
	BYTE		N02     Dn4 
	BYTE		N02     Fn4 
	BYTE		N02     An4 
	BYTE	W12
	BYTE		        Dn3 
	BYTE		N02     Fn3 
	BYTE		N02     An3 
	BYTE		N02     Dn4 
	BYTE		N02     Fn4 
	BYTE		N02     An4 
	BYTE	W12
	BYTE		        Dn3 
	BYTE		N02     Fn3 
	BYTE		N02     An3 
	BYTE		N02     Dn4 
	BYTE		N02     Fn4 
	BYTE		N02     An4 
	BYTE	W12
	BYTE		        Dn3 
	BYTE		N02     Fn3 
	BYTE		N02     An3 
	BYTE		N02     Dn4 
	BYTE		N02     Fn4 
	BYTE		N02     An4 
	BYTE	W12
	BYTE		        Dn3 
	BYTE		N02     Fn3 
	BYTE		N02     An3 
	BYTE		N02     Dn4 
	BYTE		N02     Fn4 
	BYTE		N02     An4 
	BYTE	W12
	BYTE		        Dn3 
	BYTE		N02     Fn3 
	BYTE		N02     An3 
	BYTE		N02     Dn4 
	BYTE		N02     Fn4 
	BYTE		N02     An4 
	BYTE	W12
	BYTE	PEND
// 003   ----------------------------------------
voiceofthesacredwind8850_4_003:
	BYTE		N02     Cn3   v120
	BYTE		N02     En3 
	BYTE		N02     Gn3 
	BYTE		N02     Dn4 
	BYTE		N02     Fn4 
	BYTE		N02     Gn4 
	BYTE	W12
	BYTE		        Cn3 
	BYTE		N02     En3 
	BYTE		N02     Gn3 
	BYTE		N02     Dn4 
	BYTE		N02     Fn4 
	BYTE		N02     Gn4 
	BYTE	W12
	BYTE		        Cn3 
	BYTE		N02     En3 
	BYTE		N02     Gn3 
	BYTE		N02     Dn4 
	BYTE		N02     Fn4 
	BYTE		N02     Gn4 
	BYTE	W12
	BYTE		        Cn3 
	BYTE		N02     En3 
	BYTE		N02     Gn3 
	BYTE		N02     Dn4 
	BYTE		N02     Fn4 
	BYTE		N02     Gn4 
	BYTE	W12
	BYTE		        Cn3 
	BYTE		N02     En3 
	BYTE		N02     Gn3 
	BYTE		N02     Dn4 
	BYTE		N02     Fn4 
	BYTE		N02     Gn4 
	BYTE	W12
	BYTE		        Cn3 
	BYTE		N02     En3 
	BYTE		N02     Gn3 
	BYTE		N02     Dn4 
	BYTE		N02     Fn4 
	BYTE		N02     Gn4 
	BYTE	W12
	BYTE		        Cn3 
	BYTE		N02     En3 
	BYTE		N02     Gn3 
	BYTE		N02     Dn4 
	BYTE		N02     Fn4 
	BYTE		N02     Gn4 
	BYTE	W12
	BYTE		        Cn3 
	BYTE		N02     En3 
	BYTE		N02     Gn3 
	BYTE		N02     Dn4 
	BYTE		N02     Fn4 
	BYTE		N02     Gn4 
	BYTE	W12
	BYTE	PEND
// 004   ----------------------------------------
voiceofthesacredwind8850_4_004:
	BYTE		N02     Dn3   v120
	BYTE		N02     Fn3 
	BYTE		N02     An3 
	BYTE		N02     Dn4 
	BYTE		N02     Fn4 
	BYTE		N02     An4 
	BYTE	W12
	BYTE		        Dn3 
	BYTE		N02     Fn3 
	BYTE		N02     An3 
	BYTE		N02     Dn4 
	BYTE		N02     Fn4 
	BYTE		N02     An4 
	BYTE	W12
	BYTE		        Dn3 
	BYTE		N02     Fn3 
	BYTE		N02     An3 
	BYTE		N02     Dn4 
	BYTE		N02     Fn4 
	BYTE		N02     An4 
	BYTE	W12
	BYTE		        Dn3 
	BYTE		N02     Fn3 
	BYTE		N02     An3 
	BYTE		N02     Dn4 
	BYTE		N02     Fn4 
	BYTE		N02     An4 
	BYTE	W12
	BYTE		        Dn3 
	BYTE		N02     Fn3 
	BYTE		N02     An3 
	BYTE		N02     Dn4 
	BYTE		N02     Fn4 
	BYTE		N02     An4 
	BYTE	W12
	BYTE		        Dn3 
	BYTE		N02     Fn3 
	BYTE		N02     An3 
	BYTE		N02     Dn4 
	BYTE		N02     Fn4 
	BYTE		N02     An4 
	BYTE	W12
	BYTE		        Fn3 
	BYTE		N02     An3 
	BYTE		N02     Dn4 
	BYTE		N02     Fn4 
	BYTE		N02     An4 
	BYTE		N02     Cn5 
	BYTE	W12
	BYTE		N17     Cn3 
	BYTE		N17     En3 
	BYTE		N17     Gn3 
	BYTE		N17     Cn4 
	BYTE		N44     En4 
	BYTE		N44     Gn4 
	BYTE		N44     Cn5 
	BYTE	W12
	BYTE	PEND
// 005   ----------------------------------------
voiceofthesacredwind8850_4_005:
	BYTE	W12
	BYTE		N02     Cn3   v120
	BYTE		N02     En3 
	BYTE		N02     Gn3 
	BYTE		N02     Cn4 
	BYTE	W12
	BYTE		        Cn3 
	BYTE		N02     En3 
	BYTE		N02     Gn3 
	BYTE		N02     Cn4 
	BYTE	W12
	BYTE		N17     En3 
	BYTE		N17     Gn3 
	BYTE		N17     Cn4 
	BYTE		N17     En4 
	BYTE		N44     Gn4 
	BYTE		N44     Cn5 
	BYTE		N44     En5 
	BYTE	W24
	BYTE		N05     Cn3 
	BYTE		N05     En3 
	BYTE		N05     Gn3 
	BYTE		N05     Cn4 
	BYTE	W12
	BYTE		N02     En3 
	BYTE		N02     Gn3 
	BYTE		N02     Cn4 
	BYTE		N02     En4 
	BYTE	W12
	BYTE		TIE     As2 
	BYTE		TIE     Dn3 
	BYTE		TIE     Fn3 
	BYTE		TIE     As3 
	BYTE	W12
	BYTE	PEND
// 006   ----------------------------------------
voiceofthesacredwind8850_4_006:
	BYTE	W24
	BYTE		N05     Dn4   v120
	BYTE		N05     Fn4 
	BYTE		N05     An4 
	BYTE		N05     Dn5 
	BYTE	W24
	BYTE		        Dn4 
	BYTE		N05     Fn4 
	BYTE		N05     An4 
	BYTE		N05     Dn5 
	BYTE	W24
	BYTE		        Dn4 
	BYTE		N05     Fn4 
	BYTE		N05     An4 
	BYTE		N05     Dn5 
	BYTE	W17
	BYTE	PEND
	BYTE		EOT     As2 
	BYTE		        Dn3 
	BYTE		        Fn3 
	BYTE		        As3 
	BYTE	W07
// 007   ----------------------------------------
voiceofthesacredwind8850_4_007:
	BYTE		N28     Cn3   v120
	BYTE		N28     En3 
	BYTE		N28     An3 
	BYTE		N28     Cn4 
	BYTE		N05     En4 
	BYTE		N05     Gn4 
	BYTE		N05     Cn5 
	BYTE		N05     En5 
	BYTE	W24
	BYTE		        En4 
	BYTE		N05     Gn4 
	BYTE		N05     Cn5 
	BYTE		N05     En5 
	BYTE	W12
	BYTE		N11     An2 
	BYTE		N11     Cn3 
	BYTE		N11     En3 
	BYTE		N11     An3 
	BYTE	W12
	BYTE		N05     En4 
	BYTE		N05     Gn4 
	BYTE		N05     Cn5 
	BYTE		N05     En5 
	BYTE	W12
	BYTE		        En3 
	BYTE		N05     An3 
	BYTE		N05     Cs4 
	BYTE		N05     En4 
	BYTE		N05     An4 
	BYTE		N05     Cs5 
	BYTE		N05     En5 
	BYTE		N05     Gn5 
	BYTE	W12
	BYTE		        En3 
	BYTE		N05     An3 
	BYTE		N05     Cs4 
	BYTE		N05     En4 
	BYTE		N05     An4 
	BYTE		N05     Cs5 
	BYTE		N05     En5 
	BYTE		N05     Gn5 
	BYTE	W12
	BYTE		TIE     Fn3 
	BYTE		TIE     An3 
	BYTE		TIE     Dn4 
	BYTE		TIE     Fn4 
	BYTE		N40     An4 
	BYTE		N40     Dn5 
	BYTE		N40     Fn5 
	BYTE		N40     An5 
	BYTE	W12
	BYTE	PEND
// 008   ----------------------------------------
voiceofthesacredwind8850_4_008:
	BYTE	W36
	BYTE		N11     Fn5   v120
	BYTE	W12
	BYTE		        En5 
	BYTE	W12
	BYTE		        Cn5 
	BYTE	W12
	BYTE		        An4 
	BYTE	W12
	BYTE		        En5 
	BYTE	W05
	BYTE	PEND
	BYTE		EOT     Fn3 
	BYTE		        An3 
	BYTE		        Dn4 
	BYTE		        Fn4 
	BYTE	W07
// 009   ----------------------------------------
voiceofthesacredwind8850_4_009:
	BYTE		N03     Dn3   v120
	BYTE		N03     Fn3 
	BYTE		N03     An3 
	BYTE		N03     Dn4 
	BYTE		N03     Fn4 
	BYTE		N03     An4 
	BYTE		N03     Dn5 
	BYTE		N03     Fn5 
	BYTE	W06
	BYTE		        Dn3 
	BYTE		N03     Fn3 
	BYTE		N03     An3 
	BYTE		N03     Dn4 
	BYTE		N03     Fn4 
	BYTE		N03     An4 
	BYTE		N03     Dn5 
	BYTE		N03     Fn5 
	BYTE	W30
	BYTE		        Dn3 
	BYTE		N03     Fn3 
	BYTE		N03     An3 
	BYTE		N03     Dn4 
	BYTE		N03     Fn4 
	BYTE		N03     An4 
	BYTE		N03     Dn5 
	BYTE		N03     Fn5 
	BYTE	W06
	BYTE		        Dn3 
	BYTE		N03     Fn3 
	BYTE		N03     An3 
	BYTE		N03     Dn4 
	BYTE		N03     Fn4 
	BYTE		N03     An4 
	BYTE		N03     Dn5 
	BYTE		N03     Fn5 
	BYTE	W30
	BYTE		N22     Dn1 
	BYTE		N22     Fn1 
	BYTE		N22     An1 
	BYTE		N22     Dn2 
	BYTE	W24
	BYTE	PEND
// 010   ----------------------------------------
voiceofthesacredwind8850_4_010:
	BYTE		N92     Dn3   v120
	BYTE		N92     Fn3 
	BYTE		N92     As3 
	BYTE		N92     Dn4 
	BYTE	W60
	BYTE		N11     An5 
	BYTE	W12
	BYTE		        As5 
	BYTE	W12
	BYTE		TIE     Fn5 
	BYTE	W12
	BYTE	PEND
// 011   ----------------------------------------
voiceofthesacredwind8850_4_011:
	BYTE		N44     Dn3   v120
	BYTE		N44     Fn3 
	BYTE		N44     As3 
	BYTE		N44     Dn4 
	BYTE	W48
	BYTE		N10     As3 
	BYTE		N10     Cn4 
	BYTE		N10     En4 
	BYTE		N10     An4 
	BYTE	W12
	BYTE		N17     Fn3 
	BYTE		N17     An3 
	BYTE		N17     Cn4 
	BYTE		N17     Fn4 
	BYTE	W24
	BYTE		N05     Fn3 
	BYTE		N05     An3 
	BYTE		N05     Cn4 
	BYTE		N05     Fn4 
	BYTE	W10
	BYTE	PEND
	BYTE		EOT     Fn5 
	BYTE	W02
// 012   ----------------------------------------
voiceofthesacredwind8850_4_012:
	BYTE		N52     En3   v120
	BYTE		N52     Gn3 
	BYTE		N52     Cn4 
	BYTE		N52     En4 
	BYTE		N52     En5 
	BYTE	W60
	BYTE		N17     Cn3 
	BYTE		N17     En3 
	BYTE		N17     An3 
	BYTE		N17     Cn4 
	BYTE		N05     Cn5 
	BYTE	W12
	BYTE		N05   
	BYTE	W12
	BYTE		TIE     Fn3 
	BYTE		TIE     An3 
	BYTE		TIE     Dn4 
	BYTE		TIE     Fn4 
	BYTE		N17     Fn5 
	BYTE	W12
	BYTE	PEND
// 013   ----------------------------------------
voiceofthesacredwind8850_4_013:
	BYTE	W12
	BYTE		N05     Fn5   v120
	BYTE		N05     An5 
	BYTE	W12
	BYTE		        Cn5 
	BYTE		N05     En5 
	BYTE	W12
	BYTE		N05   
	BYTE		N05     Gn5 
	BYTE	W12
	BYTE		        Dn5 
	BYTE		N05     Fn5 
	BYTE	W12
	BYTE		N23     Cn5 
	BYTE		N23     En5 
	BYTE	W24
	BYTE		N11     An4 
	BYTE		N11     Dn5 
	BYTE	W05
	BYTE	PEND
	BYTE		EOT     Fn3 
	BYTE		        An3 
	BYTE		        Dn4 
	BYTE		        Fn4 
	BYTE	W07
// 014   ----------------------------------------
voiceofthesacredwind8850_4_014:
	BYTE		N92     Dn3   v120
	BYTE		N92     Fn3 
	BYTE		N92     As3 
	BYTE		N92     Dn4 
	BYTE	W60
	BYTE		N11     Fn5 
	BYTE		N11     An5 
	BYTE	W12
	BYTE		        Gn5 
	BYTE		N11     As5 
	BYTE	W24
	BYTE	PEND
// 015   ----------------------------------------
voiceofthesacredwind8850_4_015:
	BYTE		N44     Dn3   v120
	BYTE		N44     Fn3 
	BYTE		N44     As3 
	BYTE		N44     Dn4 
	BYTE		N17     Cn5 
	BYTE		N17     En5 
	BYTE	W24
	BYTE		        As4 
	BYTE		N17     Dn5 
	BYTE	W24
	BYTE		N10     As3 
	BYTE		N10     Cn4 
	BYTE		N10     Fn4 
	BYTE		N10     An4 
	BYTE		N10     Cn5 
	BYTE	W12
	BYTE		N17     Fn3 
	BYTE		N17     As3 
	BYTE		N17     Dn4 
	BYTE		N17     Fn4 
	BYTE		N18     As4 
	BYTE	W24
	BYTE		N05     Fn3 
	BYTE		N05     An3 
	BYTE		N05     Dn4 
	BYTE		N05     Fn4 
	BYTE		N52     An4 
	BYTE	W12
	BYTE	PEND
// 016   ----------------------------------------
voiceofthesacredwind8850_4_016:
	BYTE		N52     En3   v120
	BYTE		N52     Gn3 
	BYTE		N52     Cn4 
	BYTE		N52     En4 
	BYTE	W60
	BYTE		N32     Dn3 
	BYTE		N32     Fn3 
	BYTE		N32     As3 
	BYTE		N32     Dn4 
	BYTE		N05     Gn4 
	BYTE		N05     As4 
	BYTE	W06
	BYTE		N05   
	BYTE		N05     Dn5 
	BYTE	W12
	BYTE		N17   
	BYTE		N17     Fn5 
	BYTE	W18
	BYTE	PEND
// 017   ----------------------------------------
voiceofthesacredwind8850_4_017:
	BYTE		N92     En3   v120
	BYTE		N92     An3 
	BYTE		N92     Cs4 
	BYTE		N92     En4 
	BYTE		N05     Cs5 
	BYTE		N05     En5 
	BYTE	W12
	BYTE		        Fn5 
	BYTE		N05     An5 
	BYTE	W12
	BYTE		        En5 
	BYTE		N05     Gn5 
	BYTE	W12
	BYTE		N05   
	BYTE		N05     As5 
	BYTE	W12
	BYTE		        Fn5 
	BYTE		N05     An5 
	BYTE	W06
	BYTE		        An4 
	BYTE	W06
	BYTE		        Cs5 
	BYTE	W06
	BYTE		        En5 
	BYTE	W06
	BYTE		        Dn5 
	BYTE	W06
	BYTE		        En5 
	BYTE	W06
	BYTE		        Fn5 
	BYTE	W06
	BYTE		        Gn5 
	BYTE	W06
	BYTE	PEND
// 018   ----------------------------------------
voiceofthesacredwind8850_4_018:
	BYTE		N92     Dn3   v120
	BYTE		N92     Fn3 
	BYTE		N92     As3 
	BYTE		N92     Dn4 
	BYTE		N44     Fn5 
	BYTE		N44     An5 
	BYTE	W60
	BYTE		N11   
	BYTE	W12
	BYTE		        As5 
	BYTE	W12
	BYTE		TIE     Fn5 
	BYTE	W12
	BYTE	PEND
// 019   ----------------------------------------
	BYTE	PATT
	 POIN2	voiceofthesacredwind8850_4_011
	BYTE		EOT     Fn5 
	BYTE	W02
// 020   ----------------------------------------
voiceofthesacredwind8850_4_020:
	BYTE		N52     En3   v120
	BYTE		N52     Gn3 
	BYTE		N52     Cn4 
	BYTE		N52     En4 
	BYTE		N52     En5 
	BYTE	W60
	BYTE		N17     Cn3 
	BYTE		N17     En3 
	BYTE		N17     An3 
	BYTE		N17     Cn4 
	BYTE		N05     An4 
	BYTE		N05     Cn5 
	BYTE	W12
	BYTE		        An4 
	BYTE		N05     Cn5 
	BYTE	W12
	BYTE		TIE     Fn3 
	BYTE		TIE     An3 
	BYTE		TIE     Dn4 
	BYTE		TIE     Fn4 
	BYTE		N17     Fn5 
	BYTE	W12
	BYTE	PEND
// 021   ----------------------------------------
	BYTE	PATT
	 POIN2	voiceofthesacredwind8850_4_013
	BYTE		EOT     Fn3 
	BYTE		        An3 
	BYTE		        Dn4 
	BYTE		        Fn4 
	BYTE	W07
// 022   ----------------------------------------
voiceofthesacredwind8850_4_022:
	BYTE		N88     Dn3   v120
	BYTE		N88     Fn3 
	BYTE		N88     As3 
	BYTE		N88     Dn4 
	BYTE	W24
	BYTE		N23     Gn4 
	BYTE	W24
	BYTE		        As4 
	BYTE	W24
	BYTE		        Dn5 
	BYTE	W24
	BYTE	PEND
// 023   ----------------------------------------
voiceofthesacredwind8850_4_023:
	BYTE		N76     En3   v120
	BYTE		N76     Gn3 
	BYTE		N76     Cn4 
	BYTE		N76     En4 
	BYTE		N23     Cn5 
	BYTE	W24
	BYTE		N28     Gn4 
	BYTE	W36
	BYTE		N11   
	BYTE		N11     Cn5 
	BYTE	W24
	BYTE		N88     Cn3 
	BYTE		N88     En3 
	BYTE		N88     Gn3 
	BYTE		N88     Cn4 
	BYTE		N40     Gn4 
	BYTE		N40     Cn5 
	BYTE	W12
	BYTE	PEND
// 024   ----------------------------------------
voiceofthesacredwind8850_4_024:
	BYTE	W36
	BYTE		N17     Fn4   v120
	BYTE		N17     An4 
	BYTE	W24
	BYTE		N11     An5 
	BYTE	W12
	BYTE		        En5 
	BYTE	W12
	BYTE		TIE     Dn3 
	BYTE		TIE     Fn3 
	BYTE		TIE     An3 
	BYTE		TIE     Dn4 
	BYTE		N11     Gn5 
	BYTE	W12
	BYTE	PEND
// 025   ----------------------------------------
voiceofthesacredwind8850_4_025:
	BYTE		N11     Dn5   v120
	BYTE		N11     Fn5 
	BYTE	W12
	BYTE		N17     Cn5 
	BYTE		N17     En5 
	BYTE	W24
	BYTE		N52     An4 
	BYTE		N52     Dn5 
	BYTE	W52
	BYTE	W01
	BYTE	PEND
	BYTE		EOT     Dn3 
	BYTE		        Fn3 
	BYTE		        An3 
	BYTE		        Dn4 
	BYTE	W07
// 026   ----------------------------------------
voiceofthesacredwind8850_4_026:
	BYTE		N88     Dn3   v120
	BYTE		N88     Fn3 
	BYTE		N88     As3 
	BYTE		N88     Dn4 
	BYTE	W36
	BYTE		N05     Fn5 
	BYTE		N05     An5 
	BYTE	W12
	BYTE		        Dn5 
	BYTE		N05     Fn5 
	BYTE	W12
	BYTE		        As4 
	BYTE		N05     Dn5 
	BYTE	W12
	BYTE		        As4 
	BYTE		N05     Dn5 
	BYTE	W12
	BYTE		        Gn4 
	BYTE		N05     As4 
	BYTE	W12
	BYTE	PEND
// 027   ----------------------------------------
voiceofthesacredwind8850_4_027:
	BYTE		N88     En3   v120
	BYTE		N88     An3 
	BYTE		N88     Cn4 
	BYTE		N88     En4 
	BYTE	W36
	BYTE		N05     An5 
	BYTE		N05     Cn6 
	BYTE	W12
	BYTE		        Fn5 
	BYTE		N05     An5 
	BYTE	W12
	BYTE		        Cn5 
	BYTE		N05     Fn5 
	BYTE	W12
	BYTE		        Cn5 
	BYTE		N05     Fn5 
	BYTE	W12
	BYTE		        An4 
	BYTE		N05     Cn5 
	BYTE	W12
	BYTE	PEND
// 028   ----------------------------------------
voiceofthesacredwind8850_4_028:
	BYTE		N88     Fn3   v120
	BYTE		N88     An3 
	BYTE		N88     Cn4 
	BYTE		N88     Fn4 
	BYTE	W36
	BYTE		N05     An5 
	BYTE		N05     Cn6 
	BYTE	W12
	BYTE		        Fn5 
	BYTE		N05     An5 
	BYTE	W12
	BYTE		        Cn5 
	BYTE		N05     Fn5 
	BYTE	W12
	BYTE		        Cn5 
	BYTE		N05     Fn5 
	BYTE	W12
	BYTE		        An4 
	BYTE		N05     Cn5 
	BYTE	W12
	BYTE	PEND
// 029   ----------------------------------------
voiceofthesacredwind8850_4_029:
	BYTE		N88     Fn3   v120
	BYTE		N88     An3 
	BYTE		N88     Dn4 
	BYTE		N88     Fn4 
	BYTE	W36
	BYTE		N05     An5 
	BYTE		N05     Dn6 
	BYTE	W12
	BYTE		        Fn5 
	BYTE		N05     An5 
	BYTE	W12
	BYTE		        Dn5 
	BYTE		N05     Fn5 
	BYTE	W12
	BYTE		        Dn5 
	BYTE		N05     Fn5 
	BYTE	W12
	BYTE		        An4 
	BYTE		N05     Dn5 
	BYTE	W12
	BYTE	PEND
// 030   ----------------------------------------
	BYTE	PATT
	 POIN2	voiceofthesacredwind8850_4_026
// 031   ----------------------------------------
	BYTE	PATT
	 POIN2	voiceofthesacredwind8850_4_027
// 032   ----------------------------------------
voiceofthesacredwind8850_4_032:
	BYTE		N88     Fn3   v120
	BYTE		N88     An3 
	BYTE		N88     Cn4 
	BYTE		N88     Fn4 
	BYTE	W36
	BYTE		N05     Dn5 
	BYTE		N05     Fn5 
	BYTE	W12
	BYTE		        Cn5 
	BYTE		N05     En5 
	BYTE	W12
	BYTE		        Gn4 
	BYTE		N05     Cn5 
	BYTE	W24
	BYTE		        An4 
	BYTE		N05     Dn5 
	BYTE	W12
	BYTE	PEND
// 033   ----------------------------------------
voiceofthesacredwind8850_4_033:
	BYTE		N88     Dn3   v120
	BYTE		N88     Fn3 
	BYTE		N88     An3 
	BYTE		N88     Dn4 
	BYTE		N05     Fn4 
	BYTE		N05     An4 
	BYTE	W12
	BYTE		        Dn5 
	BYTE		N05     Fn5 
	BYTE	W12
	BYTE		        Cn5 
	BYTE		N05     En5 
	BYTE	W12
	BYTE		        Gn4 
	BYTE		N05     Cn5 
	BYTE	W12
	BYTE		        An4 
	BYTE		N05     Dn5 
	BYTE	W12
	BYTE		        Fn4 
	BYTE		N05     An4 
	BYTE	W24
	BYTE		        Fn4 
	BYTE		N05     An4 
	BYTE	W12
	BYTE	PEND
// 034   ----------------------------------------
	BYTE	PATT
	 POIN2	voiceofthesacredwind8850_4_026
// 035   ----------------------------------------
	BYTE	PATT
	 POIN2	voiceofthesacredwind8850_4_027
// 036   ----------------------------------------
voiceofthesacredwind8850_4_036:
	BYTE		N88     En3   v120
	BYTE		N88     Gn3 
	BYTE		N88     Cn4 
	BYTE		N88     En4 
	BYTE	W36
	BYTE		N05     An5 
	BYTE		N05     Cn6 
	BYTE	W12
	BYTE		        Fn5 
	BYTE		N05     An5 
	BYTE	W12
	BYTE		        Cn5 
	BYTE		N05     Fn5 
	BYTE	W12
	BYTE		        Cn5 
	BYTE		N05     Fn5 
	BYTE	W12
	BYTE		        An4 
	BYTE		N05     Cn5 
	BYTE	W12
	BYTE	PEND
// 037   ----------------------------------------
voiceofthesacredwind8850_4_037:
	BYTE		N32     Fn3   v120
	BYTE		N32     An3 
	BYTE		N32     Dn4 
	BYTE		N32     Fn4 
	BYTE		N05     Dn5 
	BYTE		N05     Fn5 
	BYTE	W12
	BYTE		        Dn5 
	BYTE		N05     Fn5 
	BYTE	W12
	BYTE		        Dn5 
	BYTE		N05     Fn5 
	BYTE	W12
	BYTE		        Fn3 
	BYTE		N05     An3 
	BYTE		N05     Dn4 
	BYTE		N05     Fn4 
	BYTE		N05     Fn5 
	BYTE		N05     An5 
	BYTE	W24
	BYTE		        Fn3 
	BYTE		N05     As3 
	BYTE		N05     Dn4 
	BYTE		N05     Fn4 
	BYTE		N05     Dn5 
	BYTE		N05     Fn5 
	BYTE	W18
	BYTE		N16     Gn3 
	BYTE		N16     Cn4 
	BYTE		N16     En4 
	BYTE		N16     Gn4 
	BYTE		N16     Cn5 
	BYTE		N16     En5 
	BYTE	W18
	BYTE	PEND
// 038   ----------------------------------------
voiceofthesacredwind8850_4_038:
	BYTE		N32     Fn3   v120
	BYTE		N32     As3 
	BYTE		N32     Dn4 
	BYTE		N32     Fn4 
	BYTE		N32     As4 
	BYTE		N32     Dn5 
	BYTE	W36
	BYTE		N04     Fn3 
	BYTE		N04     An3 
	BYTE		N04     Dn4 
	BYTE		N04     Fn4 
	BYTE		N04     Dn5 
	BYTE		N04     Fn5 
	BYTE	W06
	BYTE		        Fn3 
	BYTE		N04     An3 
	BYTE		N04     Dn4 
	BYTE		N04     Fn4 
	BYTE		N04     Dn5 
	BYTE		N04     Fn5 
	BYTE	W18
	BYTE		N05     Fn3 
	BYTE		N05     As3 
	BYTE		N05     Dn4 
	BYTE		N05     Fn4 
	BYTE		N05     As4 
	BYTE		N05     Dn5 
	BYTE	W18
	BYTE		N16     Fn3 
	BYTE		N16     An3 
	BYTE		N16     Cn4 
	BYTE		N16     En4 
	BYTE		N16     Gn4 
	BYTE		N16     Cn5 
	BYTE	W18
	BYTE	PEND
// 039   ----------------------------------------
voiceofthesacredwind8850_4_039:
	BYTE		N32     En3   v120
	BYTE		N32     Gs3 
	BYTE		N32     Bn3 
	BYTE		N32     Dn4 
	BYTE		N32     Gs4 
	BYTE		N32     Bn4 
	BYTE	W36
	BYTE		N04     En3 
	BYTE		N04     Gs3 
	BYTE		N04     Bn3 
	BYTE		N04     Dn4 
	BYTE		N04     Dn5 
	BYTE		N04     Fn5 
	BYTE	W06
	BYTE		        En3 
	BYTE		N04     Gs3 
	BYTE		N04     Bn3 
	BYTE		N04     Dn4 
	BYTE		N04     Dn5 
	BYTE		N04     Fn5 
	BYTE	W18
	BYTE		        En3 
	BYTE		N04     Gs3 
	BYTE		N04     Bn3 
	BYTE		N04     Dn4 
	BYTE		N04     Gs4 
	BYTE		N04     Bn4 
	BYTE	W12
	BYTE		        En3 
	BYTE		N04     Gs3 
	BYTE		N04     Bn3 
	BYTE		N04     Dn4 
	BYTE		N04     Gs4 
	BYTE		N04     Bn4 
	BYTE	W12
	BYTE		N22     En3 
	BYTE		N22     An3 
	BYTE		N22     Cs4 
	BYTE		N22     En4 
	BYTE		N22     An4 
	BYTE		N22     Cs5 
	BYTE	W12
	BYTE	PEND
// 040   ----------------------------------------
voiceofthesacredwind8850_4_040:
	BYTE	W12
	BYTE		N32     Cs3   v120
	BYTE		N32     En3 
	BYTE		N32     An3 
	BYTE		N32     Cs4 
	BYTE	W12
	BYTE		N22     En4 
	BYTE		N22     An4 
	BYTE	W24
	BYTE		N10     An2 
	BYTE		N10     Cs3 
	BYTE		N10     En3 
	BYTE		N10     An3 
	BYTE		N10     Cs4 
	BYTE		N10     En4 
	BYTE	W12
	BYTE		        An2 
	BYTE		N10     Cs3 
	BYTE		N10     En3 
	BYTE		N10     An3 
	BYTE		N10     Cs4 
	BYTE		N10     En4 
	BYTE	W12
	BYTE		        En2 
	BYTE		N10     An2 
	BYTE		N10     Cs3 
	BYTE		N10     En3 
	BYTE		N10     An3 
	BYTE		N10     Cs4 
	BYTE	W12
	BYTE		N44     An2 
	BYTE		N44     Cs3 
	BYTE		N44     En3 
	BYTE		N44     An3 
	BYTE		N44     En4 
	BYTE		N44     An4 
	BYTE	W12
	BYTE	PEND
// 041   ----------------------------------------
voiceofthesacredwind8850_4_041:
	BYTE	W36
	BYTE		N22     En3   v120
	BYTE		N22     An3 
	BYTE		N22     Cs4 
	BYTE		N22     En4 
	BYTE		N22     Cs5 
	BYTE		N22     En5 
	BYTE		N22     An5 
	BYTE	W24
	BYTE		N44     Cs3 
	BYTE		N44     En3 
	BYTE		N44     An3 
	BYTE		N44     Cs4 
	BYTE		N44     Cs5 
	BYTE		N44     En5 
	BYTE		N44     An5 
	BYTE		N44     Cs6 
	BYTE	W36
	BYTE	PEND
// 042   ----------------------------------------
voiceofthesacredwind8850_4_042:
	BYTE	W12
	BYTE		N02     An2   v120
	BYTE		N02     Dn3 
	BYTE		N02     Fn3 
	BYTE		N02     An3 
	BYTE		N02     Dn4 
	BYTE		N02     Fn4 
	BYTE	W12
	BYTE		N05     Dn3 
	BYTE		N05     Fn3 
	BYTE		N05     An3 
	BYTE		N05     Dn4 
	BYTE		N05     An4 
	BYTE		N05     Dn5 
	BYTE	W24
	BYTE		        Dn3 
	BYTE		N05     Fn3 
	BYTE		N05     An3 
	BYTE		N05     Dn4 
	BYTE		N05     An4 
	BYTE		N05     Dn5 
	BYTE	W24
	BYTE		        Dn3 
	BYTE		N05     Fn3 
	BYTE		N05     An3 
	BYTE		N05     Dn4 
	BYTE		N05     An4 
	BYTE		N05     Dn5 
	BYTE	W24
	BYTE	PEND
// 043   ----------------------------------------
voiceofthesacredwind8850_4_043:
	BYTE		N05     Dn3   v120
	BYTE		N05     Fn3 
	BYTE		N05     An3 
	BYTE		N05     Dn4 
	BYTE		N05     An4 
	BYTE		N05     Dn5 
	BYTE	W24
	BYTE		        Dn3 
	BYTE		N05     Fn3 
	BYTE		N05     An3 
	BYTE		N05     Dn4 
	BYTE		N05     An4 
	BYTE		N05     Dn5 
	BYTE	W24
	BYTE		        Dn3 
	BYTE		N05     Fn3 
	BYTE		N05     An3 
	BYTE		N05     Dn4 
	BYTE		N05     An4 
	BYTE		N05     Dn5 
	BYTE	W24
	BYTE		        Dn3 
	BYTE		N05     Fn3 
	BYTE		N05     An3 
	BYTE		N05     Dn4 
	BYTE		N05     An4 
	BYTE		N05     Dn5 
	BYTE	W24
	BYTE	PEND
// 044   ----------------------------------------
voiceofthesacredwind8850_4_044:
	BYTE		N05     En3   v120
	BYTE		N05     Gn3 
	BYTE		N05     Cn4 
	BYTE		N05     En4 
	BYTE		N05     Cn5 
	BYTE		N05     En5 
	BYTE	W24
	BYTE		        En3 
	BYTE		N05     Gn3 
	BYTE		N05     Cn4 
	BYTE		N05     En4 
	BYTE		N05     Cn5 
	BYTE		N05     En5 
	BYTE	W24
	BYTE		        En3 
	BYTE		N05     Gn3 
	BYTE		N05     Cn4 
	BYTE		N05     En4 
	BYTE		N05     Cn5 
	BYTE		N05     En5 
	BYTE	W24
	BYTE		        En3 
	BYTE		N05     Gn3 
	BYTE		N05     Cn4 
	BYTE		N05     En4 
	BYTE		N05     Cn5 
	BYTE		N05     En5 
	BYTE	W24
	BYTE	PEND
// 045   ----------------------------------------
	BYTE	PATT
	 POIN2	voiceofthesacredwind8850_4_044
// 046   ----------------------------------------
voiceofthesacredwind8850_4_046:
	BYTE		N05     Dn3   v120
	BYTE		N05     Fn3 
	BYTE		N05     As3 
	BYTE		N05     Dn4 
	BYTE		N05     Dn5 
	BYTE		N05     Fn5 
	BYTE	W24
	BYTE		        Dn3 
	BYTE		N05     Fn3 
	BYTE		N05     As3 
	BYTE		N05     Dn4 
	BYTE		N05     Dn5 
	BYTE		N05     Fn5 
	BYTE	W24
	BYTE		        Dn3 
	BYTE		N05     Fn3 
	BYTE		N05     As3 
	BYTE		N05     Dn4 
	BYTE		N05     Dn5 
	BYTE		N05     Fn5 
	BYTE	W24
	BYTE		        Dn3 
	BYTE		N05     Fn3 
	BYTE		N05     As3 
	BYTE		N05     Dn4 
	BYTE		N05     Dn5 
	BYTE		N05     Fn5 
	BYTE	W24
	BYTE	PEND
// 047   ----------------------------------------
	BYTE	PATT
	 POIN2	voiceofthesacredwind8850_4_046
// 048   ----------------------------------------
voiceofthesacredwind8850_4_048:
	BYTE		N05     En3   v120
	BYTE		N05     An3 
	BYTE		N05     Cs4 
	BYTE		N05     En4 
	BYTE		N05     En5 
	BYTE		N05     An5 
	BYTE	W24
	BYTE		        En3 
	BYTE		N05     An3 
	BYTE		N05     Cs4 
	BYTE		N05     En4 
	BYTE		N05     En5 
	BYTE		N05     An5 
	BYTE	W24
	BYTE		        En3 
	BYTE		N05     An3 
	BYTE		N05     Cs4 
	BYTE		N05     En4 
	BYTE		N05     En5 
	BYTE		N05     An5 
	BYTE	W24
	BYTE		        En3 
	BYTE		N05     An3 
	BYTE		N05     Cs4 
	BYTE		N05     En4 
	BYTE		N05     En5 
	BYTE		N05     An5 
	BYTE	W24
	BYTE	PEND
// 049   ----------------------------------------
voiceofthesacredwind8850_4_049:
	BYTE		N05     En3   v120
	BYTE		N05     An3 
	BYTE		N05     Cs4 
	BYTE		N05     En4 
	BYTE		N05     En5 
	BYTE		N05     An5 
	BYTE	W24
	BYTE		        En3 
	BYTE		N05     An3 
	BYTE		N05     Cs4 
	BYTE		N05     En4 
	BYTE		N05     En5 
	BYTE		N05     An5 
	BYTE	W12
	BYTE		N22     En3 
	BYTE		N22     An3 
	BYTE		N22     Cs4 
	BYTE		N22     En4 
	BYTE		N22     Cs5 
	BYTE		N22     En5 
	BYTE		N22     An5 
	BYTE	W24
	BYTE		N44     Cs3 
	BYTE		N44     En3 
	BYTE		N44     An3 
	BYTE		N44     Cs4 
	BYTE		N44     Cs5 
	BYTE		N44     En5 
	BYTE		N44     An5 
	BYTE		N44     Cs6 
	BYTE	W36
	BYTE	PEND
// 050   ----------------------------------------
	BYTE	PATT
	 POIN2	voiceofthesacredwind8850_4_042
// 051   ----------------------------------------
	BYTE	PATT
	 POIN2	voiceofthesacredwind8850_4_043
// 052   ----------------------------------------
	BYTE	PATT
	 POIN2	voiceofthesacredwind8850_4_044
// 053   ----------------------------------------
	BYTE	PATT
	 POIN2	voiceofthesacredwind8850_4_044
// 054   ----------------------------------------
	BYTE	PATT
	 POIN2	voiceofthesacredwind8850_4_046
// 055   ----------------------------------------
	BYTE		N05     Cn3   v120
	BYTE		N05     En3 
	BYTE		N05     Gn3 
	BYTE		N05     Cn4 
	BYTE		N05     En5 
	BYTE		N05     Gn5 
	BYTE	W24
	BYTE		        Cn3 
	BYTE		N05     En3 
	BYTE		N05     Gn3 
	BYTE		N05     Cn4 
	BYTE		N05     En5 
	BYTE		N05     Gn5 
	BYTE	W24
	BYTE		        Cn3 
	BYTE		N05     En3 
	BYTE		N05     Gn3 
	BYTE		N05     Cn4 
	BYTE		N05     En5 
	BYTE		N05     Gn5 
	BYTE	W24
	BYTE		        Cn3 
	BYTE		N05     En3 
	BYTE		N05     Gn3 
	BYTE		N05     Cn4 
	BYTE		N05     En5 
	BYTE		N05     Gn5 
	BYTE	W24
// 056   ----------------------------------------
	BYTE		        Fn3 
	BYTE		N05     An3 
	BYTE		N05     Dn4 
	BYTE		N05     Fn4 
	BYTE		N05     Fn5 
	BYTE		N05     An5 
	BYTE	W24
	BYTE		        Fn3 
	BYTE		N05     An3 
	BYTE		N05     Dn4 
	BYTE		N05     Fn4 
	BYTE		N05     Fn5 
	BYTE		N05     An5 
	BYTE	W24
	BYTE		        Fn3 
	BYTE		N05     An3 
	BYTE		N05     Dn4 
	BYTE		N05     Fn4 
	BYTE		N05     Fn5 
	BYTE		N05     An5 
	BYTE	W12
	BYTE		N10     Dn3 
	BYTE		N10     Fn3 
	BYTE		N10     An3 
	BYTE		N10     Dn4 
	BYTE		N10     An4 
	BYTE		N10     Dn5 
	BYTE	W12
	BYTE		        An2 
	BYTE		N10     Dn3 
	BYTE		N10     Fn3 
	BYTE		N10     An3 
	BYTE		N10     Fn4 
	BYTE		N10     An4 
	BYTE	W12
	BYTE		N44     An2 
	BYTE		N44     Dn3 
	BYTE		N44     Fn3 
	BYTE		N44     An3 
	BYTE		N44     Fn4 
	BYTE		N44     An4 
	BYTE		N44     Dn5 
	BYTE	W12
// 057   ----------------------------------------
	BYTE	W36
	BYTE		N22     Dn3 
	BYTE		N22     Fn3 
	BYTE		N22     An3 
	BYTE		N22     Dn4 
	BYTE		N10     Fn4 
	BYTE		N10     An4 
	BYTE		N10     Dn5 
	BYTE	W12
	BYTE		N10   
	BYTE		N10     Fn5 
	BYTE		N10     An5 
	BYTE	W12
	BYTE		N32     Fn2 
	BYTE		N32     An2 
	BYTE		N32     Dn3 
	BYTE		N32     Fn3 
	BYTE		N32     Fn5 
	BYTE		N32     An5 
	BYTE		N32     Dn6 
	BYTE	W36
// 058   ----------------------------------------
	BYTE	W96
// 059   ----------------------------------------
	BYTE	W96
// 060   ----------------------------------------
	BYTE	W96
// 061   ----------------------------------------
	BYTE	W96
// 062   ----------------------------------------
	BYTE		TIE     Dn2 
	BYTE		TIE     Dn3 
	BYTE		TIE     Fn3 
	BYTE		TIE     An3 
	BYTE		TIE     Dn4 
	BYTE	W96
// 063   ----------------------------------------
	BYTE	W96
// 064   ----------------------------------------
	BYTE	W92
	BYTE	W02
	BYTE		EOT     Dn2 
	BYTE		        Dn3 
	BYTE		        Fn3 
	BYTE		        An3 
	BYTE		        Dn4 
	BYTE	W02
// 065   ----------------------------------------
	BYTE		N16     An3 
	BYTE		N16     Cs4 
	BYTE		N16     En4 
	BYTE		N16     An4 
	BYTE	W18
	BYTE		N16   
	BYTE		N16     Cs5 
	BYTE		N16     En5 
	BYTE		N16     An5 
	BYTE	W18
	BYTE		N22     En4 
	BYTE		N22     An4 
	BYTE		N22     Cs5 
	BYTE		N22     En5 
	BYTE	W24
	BYTE		N32     An3 
	BYTE		N32     Cs4 
	BYTE		N32     En4 
	BYTE		N32     An4 
	BYTE	W36
// 066   ----------------------------------------
	BYTE		N92     Fn3 
	BYTE		N92     An3 
	BYTE		N92     Dn4 
	BYTE		N92     Fn4 
	BYTE		N05     An4 
	BYTE		N05     Dn5 
	BYTE		N05     Fn5 
	BYTE	W24
	BYTE		        An4 
	BYTE		N05     Dn5 
	BYTE		N05     Fn5 
	BYTE	W24
	BYTE		        An4 
	BYTE		N05     Dn5 
	BYTE		N05     Fn5 
	BYTE	W24
	BYTE		        An4 
	BYTE		N05     Dn5 
	BYTE		N05     Fn5 
	BYTE	W24
// 067   ----------------------------------------
	BYTE		N92     En3 
	BYTE		N92     Gn3 
	BYTE		N92     Cn4 
	BYTE		N92     En4 
	BYTE		N05     Gn4 
	BYTE		N05     Cn5 
	BYTE		N05     En5 
	BYTE	W24
	BYTE		        Gn4 
	BYTE		N05     Cn5 
	BYTE		N05     En5 
	BYTE	W24
	BYTE		        Gn4 
	BYTE		N05     Cn5 
	BYTE		N05     En5 
	BYTE	W24
	BYTE		        Gn4 
	BYTE		N05     Cn5 
	BYTE		N05     En5 
	BYTE	W24
// 068   ----------------------------------------
	BYTE		N92     Dn3 
	BYTE		N92     Fn3 
	BYTE		N92     As3 
	BYTE		N92     Dn4 
	BYTE		N05     Fn4 
	BYTE		N05     As4 
	BYTE		N05     Dn5 
	BYTE	W24
	BYTE		        Fn4 
	BYTE		N05     As4 
	BYTE		N05     Dn5 
	BYTE	W24
	BYTE		        Fn4 
	BYTE		N05     As4 
	BYTE		N05     Dn5 
	BYTE	W24
	BYTE		        Fn4 
	BYTE		N05     As4 
	BYTE		N05     Dn5 
	BYTE	W24
// 069   ----------------------------------------
voiceofthesacredwind8850_4_069:
	BYTE		N92     Cn3   v120
	BYTE		N92     En3 
	BYTE		N92     An3 
	BYTE		N92     Cn4 
	BYTE		N05     An4 
	BYTE		N05     Cn5 
	BYTE		N05     En5 
	BYTE	W24
	BYTE		        An4 
	BYTE		N05     Cn5 
	BYTE		N05     En5 
	BYTE	W24
	BYTE		        An4 
	BYTE		N05     Cn5 
	BYTE		N05     En5 
	BYTE	W24
	BYTE		        An4 
	BYTE		N05     Cn5 
	BYTE		N05     En5 
	BYTE	W24
	BYTE	PEND
// 070   ----------------------------------------
	BYTE		N92     Dn3 
	BYTE		N92     Fn3 
	BYTE		N92     As3 
	BYTE		N92     Dn4 
	BYTE		N05     As4 
	BYTE		N05     Dn5 
	BYTE		N05     Fn5 
	BYTE	W24
	BYTE		        As4 
	BYTE		N05     Dn5 
	BYTE		N05     Fn5 
	BYTE	W24
	BYTE		        As4 
	BYTE		N05     Dn5 
	BYTE		N05     Fn5 
	BYTE	W24
	BYTE		        As4 
	BYTE		N05     Dn5 
	BYTE		N05     Fn5 
	BYTE	W24
// 071   ----------------------------------------
voiceofthesacredwind8850_4_071:
	BYTE		N92     Dn3   v120
	BYTE		N92     Fn3 
	BYTE		N92     An3 
	BYTE		N92     Dn4 
	BYTE		N05     An4 
	BYTE		N05     Dn5 
	BYTE		N05     Fn5 
	BYTE	W24
	BYTE		        An4 
	BYTE		N05     Dn5 
	BYTE		N05     Fn5 
	BYTE	W24
	BYTE		        An4 
	BYTE		N05     Dn5 
	BYTE		N05     Fn5 
	BYTE	W24
	BYTE		        An4 
	BYTE		N05     Dn5 
	BYTE		N05     Fn5 
	BYTE	W24
	BYTE	PEND
// 072   ----------------------------------------
	BYTE		N92     Dn3 
	BYTE		N92     Gs3 
	BYTE		N92     Bn3 
	BYTE		N92     Dn4 
	BYTE		N05     Gs4 
	BYTE		N05     Bn4 
	BYTE		N05     Dn5 
	BYTE	W24
	BYTE		        Gs4 
	BYTE		N05     Bn4 
	BYTE		N05     Dn5 
	BYTE	W24
	BYTE		        Gs4 
	BYTE		N05     Bn4 
	BYTE		N05     Dn5 
	BYTE	W12
	BYTE		N16     En4 
	BYTE		N16     Gs4 
	BYTE		N16     Bn4 
	BYTE	W18
	BYTE		        Gs4 
	BYTE		N16     Bn4 
	BYTE		N16     Dn5 
	BYTE	W18
// 073   ----------------------------------------
	BYTE		N56     Cs3 
	BYTE		N56     En3 
	BYTE		N56     An3 
	BYTE		N56     Cs4 
	BYTE		N22     Cs5 
	BYTE		N22     En5 
	BYTE		N22     An5 
	BYTE	W24
	BYTE		        An4 
	BYTE		N22     Cs5 
	BYTE		N22     En5 
	BYTE	W24
	BYTE		N10     En4 
	BYTE		N10     An4 
	BYTE		N10     Cs5 
	BYTE	W12
	BYTE		        Cs3 
	BYTE		N10     En3 
	BYTE		N10     An3 
	BYTE		N10     Cs4 
	BYTE		N10     An4 
	BYTE		N10     Cs5 
	BYTE		N10     En5 
	BYTE	W12
	BYTE		        Cs3 
	BYTE		N10     En3 
	BYTE		N10     An3 
	BYTE		N10     Cs4 
	BYTE		N10     An4 
	BYTE		N10     Cs5 
	BYTE		N10     En5 
	BYTE	W12
	BYTE		        Cs3 
	BYTE		N10     En3 
	BYTE		N10     An3 
	BYTE		N10     Cs4 
	BYTE		N10     An4 
	BYTE		N10     Cs5 
	BYTE		N10     En5 
	BYTE	W12
// 074   ----------------------------------------
	BYTE		N92     An2 
	BYTE		N92     Dn3 
	BYTE		N92     Fn3 
	BYTE		N92     An3 
	BYTE		N05     Fn4 
	BYTE		N05     An4 
	BYTE		N05     Dn5 
	BYTE	W24
	BYTE		        Fn4 
	BYTE		N05     An4 
	BYTE		N05     Dn5 
	BYTE	W24
	BYTE		        Fn4 
	BYTE		N05     An4 
	BYTE		N05     Dn5 
	BYTE	W24
	BYTE		        Fn4 
	BYTE		N05     An4 
	BYTE		N05     Dn5 
	BYTE	W24
// 075   ----------------------------------------
	BYTE		N92     Cn3 
	BYTE		N92     En3 
	BYTE		N92     Gn3 
	BYTE		N92     Cn4 
	BYTE		N05     Gn4 
	BYTE		N05     Cn5 
	BYTE		N05     En5 
	BYTE	W24
	BYTE		        Gn4 
	BYTE		N05     Cn5 
	BYTE		N05     En5 
	BYTE	W24
	BYTE		        Gn4 
	BYTE		N05     Cn5 
	BYTE		N05     En5 
	BYTE	W24
	BYTE		        Gn4 
	BYTE		N05     Cn5 
	BYTE		N05     En5 
	BYTE	W24
// 076   ----------------------------------------
	BYTE	PATT
	 POIN2	voiceofthesacredwind8850_4_071
// 077   ----------------------------------------
	BYTE	PATT
	 POIN2	voiceofthesacredwind8850_4_069
// 078   ----------------------------------------
	BYTE		N92     As2   v120
	BYTE		N92     Dn3 
	BYTE		N92     Gn3 
	BYTE		N92     As3 
	BYTE		N05     Gn4 
	BYTE		N05     As4 
	BYTE		N05     Dn5 
	BYTE	W24
	BYTE		        Gn4 
	BYTE		N05     As4 
	BYTE		N05     Dn5 
	BYTE	W24
	BYTE		        Gn4 
	BYTE		N05     As4 
	BYTE		N05     Dn5 
	BYTE	W24
	BYTE		        Gn4 
	BYTE		N05     As4 
	BYTE		N05     Dn5 
	BYTE	W24
// 079   ----------------------------------------
	BYTE	PATT
	 POIN2	voiceofthesacredwind8850_4_071
// 080   ----------------------------------------
	BYTE		N92     As2   v120
	BYTE		N92     Dn3 
	BYTE		N92     Fn3 
	BYTE		N92     As3 
	BYTE		N05     Fn4 
	BYTE		N05     As4 
	BYTE		N05     Dn5 
	BYTE	W24
	BYTE		        Fn4 
	BYTE		N05     As4 
	BYTE		N05     Dn5 
	BYTE	W24
	BYTE		        Fn4 
	BYTE		N05     As4 
	BYTE		N05     Dn5 
	BYTE	W24
	BYTE		        Fn4 
	BYTE		N05     As4 
	BYTE		N05     Dn5 
	BYTE	W24
// 081   ----------------------------------------
	BYTE		N44     An2 
	BYTE		N44     Cs3 
	BYTE		N44     En3 
	BYTE		N44     An3 
	BYTE		N22     En4 
	BYTE		N22     An4 
	BYTE		N22     Cs5 
	BYTE	W24
	BYTE		        An4 
	BYTE		N22     Cs5 
	BYTE		N22     En5 
	BYTE	W24
	BYTE		N16     Cs3 
	BYTE		N16     En3 
	BYTE		N16     An3 
	BYTE		N16     Cs4 
	BYTE		N16     En4 
	BYTE		N16     An4 
	BYTE		N16     Cs5 
	BYTE	W18
	BYTE		        As2 
	BYTE		N16     Dn3 
	BYTE		N16     Fn3 
	BYTE		N16     As3 
	BYTE		N16     Dn4 
	BYTE		N16     Fn4 
	BYTE		N16     As4 
	BYTE	W18
	BYTE		N10     An2 
	BYTE		N10     Cs3 
	BYTE		N10     En3 
	BYTE		N10     An3 
	BYTE		N10     Cs4 
	BYTE		N10     En4 
	BYTE		N10     An4 
	BYTE	W12
// 082   ----------------------------------------
	BYTE		N80     Cs2 
	BYTE		N80     En2 
	BYTE		N80     An2 
	BYTE		N80     Cs3 
	BYTE		N10     Cs4 
	BYTE		N10     En4 
	BYTE	W12
	BYTE		N10   
	BYTE		N10     An4 
	BYTE	W12
	BYTE		        En4 
	BYTE		N10     An4 
	BYTE		N10     Cs5 
	BYTE	W12
	BYTE		N44     Cs5   v127
	BYTE		N44     En5 
	BYTE		N44     An5 
	BYTE	W48
	BYTE		N17     Dn3   v120
	BYTE		N17     Fn3 
	BYTE		N17     An3 
	BYTE		N17     Dn4 
	BYTE		N17     Fn4 
	BYTE		N17     An4 
	BYTE	W12
// 083   ----------------------------------------
	BYTE	PATT
	 POIN2	voiceofthesacredwind8850_4_002
// 084   ----------------------------------------
	BYTE	PATT
	 POIN2	voiceofthesacredwind8850_4_003
// 085   ----------------------------------------
	BYTE	PATT
	 POIN2	voiceofthesacredwind8850_4_004
// 086   ----------------------------------------
	BYTE	PATT
	 POIN2	voiceofthesacredwind8850_4_005
// 087   ----------------------------------------
	BYTE	PATT
	 POIN2	voiceofthesacredwind8850_4_006
	BYTE		EOT     As2 
	BYTE		        Dn3 
	BYTE		        Fn3 
	BYTE		        As3 
	BYTE	W07
// 088   ----------------------------------------
	BYTE	PATT
	 POIN2	voiceofthesacredwind8850_4_007
// 089   ----------------------------------------
	BYTE	PATT
	 POIN2	voiceofthesacredwind8850_4_008
	BYTE		EOT     Fn3 
	BYTE		        An3 
	BYTE		        Dn4 
	BYTE		        Fn4 
	BYTE	W07
// 090   ----------------------------------------
	BYTE	PATT
	 POIN2	voiceofthesacredwind8850_4_009
// 091   ----------------------------------------
	BYTE	PATT
	 POIN2	voiceofthesacredwind8850_4_010
// 092   ----------------------------------------
	BYTE	PATT
	 POIN2	voiceofthesacredwind8850_4_011
	BYTE		EOT     Fn5 
	BYTE	W02
// 093   ----------------------------------------
	BYTE	PATT
	 POIN2	voiceofthesacredwind8850_4_012
// 094   ----------------------------------------
	BYTE	PATT
	 POIN2	voiceofthesacredwind8850_4_013
	BYTE		EOT     Fn3 
	BYTE		        An3 
	BYTE		        Dn4 
	BYTE		        Fn4 
	BYTE	W07
// 095   ----------------------------------------
	BYTE	PATT
	 POIN2	voiceofthesacredwind8850_4_014
// 096   ----------------------------------------
	BYTE	PATT
	 POIN2	voiceofthesacredwind8850_4_015
// 097   ----------------------------------------
	BYTE	PATT
	 POIN2	voiceofthesacredwind8850_4_016
// 098   ----------------------------------------
	BYTE	PATT
	 POIN2	voiceofthesacredwind8850_4_017
// 099   ----------------------------------------
	BYTE	PATT
	 POIN2	voiceofthesacredwind8850_4_018
// 100   ----------------------------------------
	BYTE	PATT
	 POIN2	voiceofthesacredwind8850_4_011
	BYTE		EOT     Fn5 
	BYTE	W02
// 101   ----------------------------------------
	BYTE	PATT
	 POIN2	voiceofthesacredwind8850_4_020
// 102   ----------------------------------------
	BYTE	PATT
	 POIN2	voiceofthesacredwind8850_4_013
	BYTE		EOT     Fn3 
	BYTE		        An3 
	BYTE		        Dn4 
	BYTE		        Fn4 
	BYTE	W07
// 103   ----------------------------------------
	BYTE	PATT
	 POIN2	voiceofthesacredwind8850_4_022
// 104   ----------------------------------------
	BYTE	PATT
	 POIN2	voiceofthesacredwind8850_4_023
// 105   ----------------------------------------
	BYTE	PATT
	 POIN2	voiceofthesacredwind8850_4_024
// 106   ----------------------------------------
	BYTE	PATT
	 POIN2	voiceofthesacredwind8850_4_025
	BYTE		EOT     Dn3 
	BYTE		        Fn3 
	BYTE		        An3 
	BYTE		        Dn4 
	BYTE	W07
// 107   ----------------------------------------
	BYTE	PATT
	 POIN2	voiceofthesacredwind8850_4_026
// 108   ----------------------------------------
	BYTE	PATT
	 POIN2	voiceofthesacredwind8850_4_027
// 109   ----------------------------------------
	BYTE	PATT
	 POIN2	voiceofthesacredwind8850_4_028
// 110   ----------------------------------------
	BYTE	PATT
	 POIN2	voiceofthesacredwind8850_4_029
// 111   ----------------------------------------
	BYTE	PATT
	 POIN2	voiceofthesacredwind8850_4_026
// 112   ----------------------------------------
	BYTE	PATT
	 POIN2	voiceofthesacredwind8850_4_027
// 113   ----------------------------------------
	BYTE	PATT
	 POIN2	voiceofthesacredwind8850_4_032
// 114   ----------------------------------------
	BYTE	PATT
	 POIN2	voiceofthesacredwind8850_4_033
// 115   ----------------------------------------
	BYTE	PATT
	 POIN2	voiceofthesacredwind8850_4_026
// 116   ----------------------------------------
	BYTE	PATT
	 POIN2	voiceofthesacredwind8850_4_027
// 117   ----------------------------------------
	BYTE	PATT
	 POIN2	voiceofthesacredwind8850_4_036
// 118   ----------------------------------------
	BYTE	PATT
	 POIN2	voiceofthesacredwind8850_4_037
// 119   ----------------------------------------
	BYTE	PATT
	 POIN2	voiceofthesacredwind8850_4_038
// 120   ----------------------------------------
	BYTE	PATT
	 POIN2	voiceofthesacredwind8850_4_039
// 121   ----------------------------------------
	BYTE	PATT
	 POIN2	voiceofthesacredwind8850_4_040
// 122   ----------------------------------------
	BYTE	PATT
	 POIN2	voiceofthesacredwind8850_4_041
// 123   ----------------------------------------
	BYTE	PATT
	 POIN2	voiceofthesacredwind8850_4_042
// 124   ----------------------------------------
	BYTE	PATT
	 POIN2	voiceofthesacredwind8850_4_043
// 125   ----------------------------------------
	BYTE	PATT
	 POIN2	voiceofthesacredwind8850_4_044
// 126   ----------------------------------------
	BYTE	PATT
	 POIN2	voiceofthesacredwind8850_4_044
// 127   ----------------------------------------
	BYTE	PATT
	 POIN2	voiceofthesacredwind8850_4_046
// 128   ----------------------------------------
	BYTE	PATT
	 POIN2	voiceofthesacredwind8850_4_046
// 129   ----------------------------------------
	BYTE	PATT
	 POIN2	voiceofthesacredwind8850_4_048
// 130   ----------------------------------------
	BYTE	PATT
	 POIN2	voiceofthesacredwind8850_4_049
// 131   ----------------------------------------
	BYTE	PATT
	 POIN2	voiceofthesacredwind8850_4_042
// 132   ----------------------------------------
	BYTE	PATT
	 POIN2	voiceofthesacredwind8850_4_043
// 133   ----------------------------------------
	BYTE	PATT
	 POIN2	voiceofthesacredwind8850_4_044
// 134   ----------------------------------------
	BYTE	PATT
	 POIN2	voiceofthesacredwind8850_4_044
// 135   ----------------------------------------
	BYTE	PATT
	 POIN2	voiceofthesacredwind8850_4_046
// 136   ----------------------------------------
	BYTE		N05     Cn3   v120
	BYTE		N05     En3 
	BYTE		N05     Gn3 
	BYTE		N05     Cn4 
	BYTE		N05     En5 
	BYTE		N05     Gn5 
	BYTE	W24
	BYTE		        Cn3 
	BYTE		N05     En3 
	BYTE		N05     Gn3 
	BYTE		N05     Cn4 
	BYTE		N05     En5 
	BYTE		N05     Gn5 
	BYTE	W24
	BYTE		        Cn3 
	BYTE		N05     En3 
	BYTE		N05     Gn3 
	BYTE		N05     Cn4 
	BYTE		N05     En5 
	BYTE		N05     Gn5 
	BYTE	W12
	BYTE		        An2 
	BYTE		N05     Cs3 
	BYTE		N05     En3 
	BYTE		N05     An3 
	BYTE		N05     Cs5 
	BYTE		N05     En5 
	BYTE	W12
	BYTE		        An2 
	BYTE		N05     Cs3 
	BYTE		N05     En3 
	BYTE		N05     An3 
	BYTE		N05     An4 
	BYTE		N05     Cs5 
	BYTE	W12
	BYTE		N17     Dn3 
	BYTE		N17     Fn3 
	BYTE		N17     An3 
	BYTE		N17     Dn4 
	BYTE	W12
// 137   ----------------------------------------
	BYTE	PATT
	 POIN2	voiceofthesacredwind8850_4_042
// 138   ----------------------------------------
	BYTE	PATT
	 POIN2	voiceofthesacredwind8850_4_043
// 139   ----------------------------------------
	BYTE	PATT
	 POIN2	voiceofthesacredwind8850_4_044
// 140   ----------------------------------------
	BYTE	PATT
	 POIN2	voiceofthesacredwind8850_4_044
// 141   ----------------------------------------
	BYTE	PATT
	 POIN2	voiceofthesacredwind8850_4_046
// 142   ----------------------------------------
	BYTE	PATT
	 POIN2	voiceofthesacredwind8850_4_046
// 143   ----------------------------------------
	BYTE	PATT
	 POIN2	voiceofthesacredwind8850_4_048
// 144   ----------------------------------------
	BYTE	PATT
	 POIN2	voiceofthesacredwind8850_4_049
// 145   ----------------------------------------
	BYTE	PATT
	 POIN2	voiceofthesacredwind8850_4_042
// 146   ----------------------------------------
	BYTE	PATT
	 POIN2	voiceofthesacredwind8850_4_043
// 147   ----------------------------------------
	BYTE	PATT
	 POIN2	voiceofthesacredwind8850_4_044
// 148   ----------------------------------------
	BYTE	PATT
	 POIN2	voiceofthesacredwind8850_4_044
// 149   ----------------------------------------
	BYTE	PATT
	 POIN2	voiceofthesacredwind8850_4_046
// 150   ----------------------------------------
	BYTE		N05     Cn3   v120
	BYTE		N05     En3 
	BYTE		N05     Gn3 
	BYTE		N05     Cn4 
	BYTE		N05     En5 
	BYTE		N05     Gn5 
	BYTE	W24
	BYTE		        Cn3 
	BYTE		N05     En3 
	BYTE		N05     Gn3 
	BYTE		N05     Cn4 
	BYTE		N05     En5 
	BYTE		N05     Gn5 
	BYTE	W24
	BYTE		        Cn3 
	BYTE		N05     En3 
	BYTE		N05     Gn3 
	BYTE		N05     Cn4 
	BYTE		N05     En5 
	BYTE		N05     Gn5 
	BYTE	W12
	BYTE		        An2 
	BYTE		N05     Cs3 
	BYTE		N05     En3 
	BYTE		N05     An3 
	BYTE		N05     Cs5 
	BYTE		N05     En5 
	BYTE	W12
	BYTE		        An2 
	BYTE		N05     Cs3 
	BYTE		N05     En3 
	BYTE		N05     An3 
	BYTE		N05     An4 
	BYTE		N05     Cs5 
	BYTE	W12
	BYTE		N17     Dn3 
	BYTE		N17     Fn3 
	BYTE		N17     An3 
	BYTE		N17     Dn4 
	BYTE		N17     Fn4 
	BYTE		N17     An4 
	BYTE	W12
// 151   ----------------------------------------
	BYTE	PATT
	 POIN2	voiceofthesacredwind8850_4_002
// 152   ----------------------------------------
	BYTE	PATT
	 POIN2	voiceofthesacredwind8850_4_003
// 153   ----------------------------------------
	BYTE	PATT
	 POIN2	voiceofthesacredwind8850_4_004
// 154   ----------------------------------------
	BYTE	PATT
	 POIN2	voiceofthesacredwind8850_4_005
// 155   ----------------------------------------
	BYTE	PATT
	 POIN2	voiceofthesacredwind8850_4_006
	BYTE		EOT     As2 
	BYTE		        Dn3 
	BYTE		        Fn3 
	BYTE		        As3 
	BYTE	W07
// 156   ----------------------------------------
	BYTE	PATT
	 POIN2	voiceofthesacredwind8850_4_007
// 157   ----------------------------------------
	BYTE	PATT
	 POIN2	voiceofthesacredwind8850_4_008
	BYTE		EOT     Fn3 
	BYTE		        An3 
	BYTE		        Dn4 
	BYTE		        Fn4 
	BYTE	W07
// 158   ----------------------------------------
	BYTE		N03     Fn3   v120
	BYTE		N03     An3 
	BYTE		N03     Dn4 
	BYTE		N03     Fn4 
	BYTE		N03     An4 
	BYTE		N03     Dn5 
	BYTE		N03     Fn5 
	BYTE		N03     An5 
	BYTE	W06
	BYTE		        Fn3 
	BYTE		N03     An3 
	BYTE		N03     Dn4 
	BYTE		N03     Fn4 
	BYTE		N03     An4 
	BYTE		N03     Dn5 
	BYTE		N03     Fn5 
	BYTE		N03     An5 
	BYTE	W30
	BYTE		        An3 
	BYTE		N03     Dn4 
	BYTE		N03     Fn4 
	BYTE		N03     An4 
	BYTE		N03     Dn5 
	BYTE		N03     Fn5 
	BYTE		N03     An5 
	BYTE		N03     Dn6 
	BYTE	W06
	BYTE		        An3 
	BYTE		N03     Dn4 
	BYTE		N03     Fn4 
	BYTE		N03     An4 
	BYTE		N03     Dn5 
	BYTE		N03     Fn5 
	BYTE		N03     An5 
	BYTE		N03     Dn6 
	BYTE	W30
	BYTE		N22     Dn1 
	BYTE		N22     Fn1 
	BYTE		N22     An1 
	BYTE		N22     Dn2 
	BYTE	W24
// 159   ----------------------------------------
	BYTE	W96
// 160   ----------------------------------------
	BYTE	W96
// 161   ----------------------------------------
	BYTE	W96
// 162   ----------------------------------------
	BYTE	W96
// 163   ----------------------------------------
	BYTE	FINE

//**************** Track 5 (Midi-Chn.5) ****************//

voiceofthesacredwind8850_5:
	BYTE	KEYSH   voiceofthesacredwind8850_key+0
// 000   ----------------------------------------
	BYTE	W96
// 001   ----------------------------------------
	BYTE		VOICE   48
	BYTE		VOL     95*voiceofthesacredwind8850_mvl/mxv
	BYTE		PAN     c_v+0
	BYTE	W48
	BYTE		MOD     0
	BYTE		BEND    c_v+0
	BYTE	W36
	BYTE		TIE     Dn3   v092
	BYTE		TIE     Fn3 
	BYTE		TIE     An3 
	BYTE		TIE     Dn4 
	BYTE	W12
// 002   ----------------------------------------
	BYTE	W92
	BYTE	W02
	BYTE		EOT     Dn3 
	BYTE		        Fn3 
	BYTE		        An3 
	BYTE		        Dn4 
	BYTE	W02
// 003   ----------------------------------------
voiceofthesacredwind8850_5_003:
	BYTE		N92     Cn3   v092
	BYTE		N92     En3 
	BYTE		N92     Gn3 
	BYTE		N92     Dn4 
	BYTE	W96
	BYTE	PEND
// 004   ----------------------------------------
voiceofthesacredwind8850_5_004:
	BYTE		N80     As2   v092
	BYTE		N80     Dn3 
	BYTE		N80     Fn3 
	BYTE		N80     Dn4 
	BYTE	W84
	BYTE		N44     En3 
	BYTE		N44     Gn3 
	BYTE		N44     Cn4 
	BYTE		N44     En4 
	BYTE	W12
	BYTE	PEND
// 005   ----------------------------------------
voiceofthesacredwind8850_5_005:
	BYTE	W36
	BYTE		N44     Cn3   v092
	BYTE		N44     En3 
	BYTE		N44     Gn3 
	BYTE		N44     Cn4 
	BYTE	W48
	BYTE		TIE     Dn3 
	BYTE		TIE     Fn3 
	BYTE		TIE     As3 
	BYTE		TIE     Dn4 
	BYTE	W12
	BYTE	PEND
// 006   ----------------------------------------
	BYTE	W92
	BYTE	W02
	BYTE		EOT     Dn3 
	BYTE		        Fn3 
	BYTE		        As3 
	BYTE		        Dn4 
	BYTE	W02
// 007   ----------------------------------------
voiceofthesacredwind8850_5_007:
	BYTE		N80     En3   v092
	BYTE		N80     Gn3 
	BYTE		N80     Cn4 
	BYTE		N80     En4 
	BYTE	W84
	BYTE		TIE     Fn3 
	BYTE		TIE     An3 
	BYTE		TIE     Dn4 
	BYTE		TIE     Fn4 
	BYTE	W12
	BYTE	PEND
// 008   ----------------------------------------
	BYTE	W92
	BYTE	W02
	BYTE		EOT     Fn3 
	BYTE		        An3 
	BYTE		        Dn4 
	BYTE		        Fn4 
	BYTE	W02
// 009   ----------------------------------------
voiceofthesacredwind8850_5_009:
	BYTE		N04     Fn3   v092
	BYTE		N04     An3 
	BYTE		N04     Dn4 
	BYTE		N04     Fn4 
	BYTE	W06
	BYTE		        Fn3 
	BYTE		N04     An3 
	BYTE		N04     Dn4 
	BYTE		N04     Fn4 
	BYTE	W30
	BYTE		        Fn3 
	BYTE		N04     An3 
	BYTE		N04     Dn4 
	BYTE		N04     Fn4 
	BYTE	W06
	BYTE		        Fn3 
	BYTE		N04     An3 
	BYTE		N04     Dn4 
	BYTE		N04     Fn4 
	BYTE	W54
	BYTE	PEND
// 010   ----------------------------------------
voiceofthesacredwind8850_5_010:
	BYTE		N92     Dn3   v092
	BYTE		N92     Fn3 
	BYTE		N92     As3 
	BYTE		N92     Dn4 
	BYTE	W96
	BYTE	PEND
// 011   ----------------------------------------
voiceofthesacredwind8850_5_011:
	BYTE		N92     Dn3   v092
	BYTE		N92     Fn3 
	BYTE		N92     As3 
	BYTE		N92     En4 
	BYTE	W96
	BYTE	PEND
// 012   ----------------------------------------
voiceofthesacredwind8850_5_012:
	BYTE		N80     Cn3   v092
	BYTE		N80     En3 
	BYTE		N80     Gn3 
	BYTE		N80     Cn4 
	BYTE	W84
	BYTE		TIE     Dn3 
	BYTE		TIE     Fn3 
	BYTE		TIE     An3 
	BYTE		TIE     Dn4 
	BYTE	W12
	BYTE	PEND
// 013   ----------------------------------------
	BYTE	W92
	BYTE	W02
	BYTE		EOT     Dn3 
	BYTE		        Fn3 
	BYTE		        An3 
	BYTE		        Dn4 
	BYTE	W02
// 014   ----------------------------------------
	BYTE	PATT
	 POIN2	voiceofthesacredwind8850_5_010
// 015   ----------------------------------------
	BYTE	PATT
	 POIN2	voiceofthesacredwind8850_5_011
// 016   ----------------------------------------
voiceofthesacredwind8850_5_016:
	BYTE		N92     Cn3   v092
	BYTE		N92     En3 
	BYTE		N92     Gn3 
	BYTE		N92     Cn4 
	BYTE	W96
	BYTE	PEND
// 017   ----------------------------------------
voiceofthesacredwind8850_5_017:
	BYTE		N44     En3   v092
	BYTE		N44     An3 
	BYTE		N44     Cs4 
	BYTE		N44     En4 
	BYTE	W48
	BYTE		        An3 
	BYTE		N44     Cs4 
	BYTE		N44     En4 
	BYTE		N44     An4 
	BYTE	W48
	BYTE	PEND
// 018   ----------------------------------------
	BYTE	PATT
	 POIN2	voiceofthesacredwind8850_5_010
// 019   ----------------------------------------
	BYTE	PATT
	 POIN2	voiceofthesacredwind8850_5_011
// 020   ----------------------------------------
	BYTE	PATT
	 POIN2	voiceofthesacredwind8850_5_012
// 021   ----------------------------------------
	BYTE	W92
	BYTE	W02
	BYTE		EOT     Dn3 
	BYTE		        Fn3 
	BYTE		        An3 
	BYTE		        Dn4 
	BYTE	W02
// 022   ----------------------------------------
	BYTE	PATT
	 POIN2	voiceofthesacredwind8850_5_010
// 023   ----------------------------------------
	BYTE	PATT
	 POIN2	voiceofthesacredwind8850_5_016
// 024   ----------------------------------------
voiceofthesacredwind8850_5_024:
	BYTE		N32     Cn3   v092
	BYTE		N32     En3 
	BYTE		N32     Gn3 
	BYTE		N32     Cn4 
	BYTE	W36
	BYTE		N44     En3 
	BYTE		N44     Gn3 
	BYTE		N44     Cn4 
	BYTE		N44     En4 
	BYTE	W48
	BYTE		TIE     Fn3 
	BYTE		TIE     An3 
	BYTE		TIE     Dn4 
	BYTE		TIE     Fn4 
	BYTE	W12
	BYTE	PEND
// 025   ----------------------------------------
	BYTE	W92
	BYTE	W02
	BYTE		EOT     Fn3 
	BYTE		        An3 
	BYTE		        Dn4 
	BYTE		        Fn4 
	BYTE	W02
// 026   ----------------------------------------
voiceofthesacredwind8850_5_026:
	BYTE		N92     Fn3   v092
	BYTE		N92     As3 
	BYTE		N92     Dn4 
	BYTE		N92     Fn4 
	BYTE	W96
	BYTE	PEND
// 027   ----------------------------------------
voiceofthesacredwind8850_5_027:
	BYTE		N92     Gn3   v092
	BYTE		N92     Cn4 
	BYTE		N92     En4 
	BYTE		N92     Gn4 
	BYTE	W96
	BYTE	PEND
// 028   ----------------------------------------
voiceofthesacredwind8850_5_028:
	BYTE		N92     An3   v092
	BYTE		N92     Cn4 
	BYTE		N92     Fn4 
	BYTE		N92     An4 
	BYTE	W96
	BYTE	PEND
// 029   ----------------------------------------
voiceofthesacredwind8850_5_029:
	BYTE		N56     An3   v092
	BYTE		N56     Cn4 
	BYTE		N56     Fn4 
	BYTE		N56     An4 
	BYTE	W60
	BYTE		N32     An3 
	BYTE		N32     Cs4 
	BYTE		N32     Fs4 
	BYTE		N32     An4 
	BYTE	W36
	BYTE	PEND
// 030   ----------------------------------------
voiceofthesacredwind8850_5_030:
	BYTE		N92     As3   v092
	BYTE		N92     Dn4 
	BYTE		N92     Fn4 
	BYTE		N92     As4 
	BYTE	W96
	BYTE	PEND
// 031   ----------------------------------------
	BYTE	PATT
	 POIN2	voiceofthesacredwind8850_5_027
// 032   ----------------------------------------
	BYTE	PATT
	 POIN2	voiceofthesacredwind8850_5_028
// 033   ----------------------------------------
	BYTE	PATT
	 POIN2	voiceofthesacredwind8850_5_028
// 034   ----------------------------------------
	BYTE	PATT
	 POIN2	voiceofthesacredwind8850_5_026
// 035   ----------------------------------------
	BYTE	PATT
	 POIN2	voiceofthesacredwind8850_5_027
// 036   ----------------------------------------
	BYTE	PATT
	 POIN2	voiceofthesacredwind8850_5_028
// 037   ----------------------------------------
voiceofthesacredwind8850_5_037:
	BYTE		N10     Dn4   v092
	BYTE		N10     Fn4 
	BYTE		N10     An4 
	BYTE		N10     Dn5 
	BYTE	W12
	BYTE		        An3 
	BYTE		N10     Dn4 
	BYTE		N10     Fn4 
	BYTE		N10     An4 
	BYTE	W12
	BYTE		        Fn3 
	BYTE		N10     An3 
	BYTE		N10     Dn4 
	BYTE		N10     Fn4 
	BYTE	W12
	BYTE		        Dn3 
	BYTE		N10     Fn3 
	BYTE		N10     An3 
	BYTE		N10     Dn4 
	BYTE	W24
	BYTE		N16     Dn3 
	BYTE		N16     Fn3 
	BYTE		N16     An3 
	BYTE		N16     Dn4 
	BYTE	W18
	BYTE		        Cn3 
	BYTE		N16     En3 
	BYTE		N16     An3 
	BYTE		N16     Cn4 
	BYTE	W18
	BYTE	PEND
// 038   ----------------------------------------
voiceofthesacredwind8850_5_038:
	BYTE		N92     As2   v092
	BYTE		N92     Dn3 
	BYTE		N92     Fn3 
	BYTE		N92     As3 
	BYTE	W96
	BYTE	PEND
// 039   ----------------------------------------
voiceofthesacredwind8850_5_039:
	BYTE		N80     Bn2   v092
	BYTE		N80     En3 
	BYTE		N80     Gs3 
	BYTE		N80     Bn3 
	BYTE	W84
	BYTE		N92     Cs3 
	BYTE		N92     En3 
	BYTE		N92     An3 
	BYTE		N92     Cs4 
	BYTE	W12
	BYTE	PEND
// 040   ----------------------------------------
voiceofthesacredwind8850_5_040:
	BYTE	W84
	BYTE		N68     An3   v092
	BYTE		N68     Cs4 
	BYTE		N68     En4 
	BYTE		N68     An4 
	BYTE	W12
	BYTE	PEND
// 041   ----------------------------------------
voiceofthesacredwind8850_5_041:
	BYTE	W60
	BYTE		N10     Cs4   v092
	BYTE		N10     En4 
	BYTE		N10     Gn4 
	BYTE		N10     Cs5 
	BYTE	W12
	BYTE		        Cs4 
	BYTE		N10     En4 
	BYTE		N10     Gn4 
	BYTE		N10     Cs5 
	BYTE	W12
	BYTE		TIE     Dn3 
	BYTE		TIE     Fn3 
	BYTE		TIE     An3 
	BYTE		TIE     Dn4 
	BYTE		TIE     An4 
	BYTE		TIE     Dn5 
	BYTE	W12
	BYTE	PEND
// 042   ----------------------------------------
	BYTE	W96
// 043   ----------------------------------------
	BYTE	W92
	BYTE	W02
	BYTE		EOT     Dn3 
	BYTE		        Fn3 
	BYTE		        An3 
	BYTE		        Dn4 
	BYTE		        An4 
	BYTE		        Dn5 
	BYTE	W02
// 044   ----------------------------------------
voiceofthesacredwind8850_5_044:
	BYTE		TIE     En3   v092
	BYTE		TIE     Gn3 
	BYTE		TIE     Cn4 
	BYTE		TIE     En4 
	BYTE		TIE     Cn5 
	BYTE		TIE     En5 
	BYTE	W96
	BYTE	PEND
// 045   ----------------------------------------
	BYTE	W92
	BYTE	W02
	BYTE		EOT     En3 
	BYTE		        Gn3 
	BYTE		        Cn4 
	BYTE		        En4 
	BYTE		        Cn5 
	BYTE		        En5 
	BYTE	W02
// 046   ----------------------------------------
voiceofthesacredwind8850_5_046:
	BYTE		TIE     Fn3   v092
	BYTE		TIE     As3 
	BYTE		TIE     Dn4 
	BYTE		TIE     Fn4 
	BYTE		TIE     Dn5 
	BYTE		TIE     Fn5 
	BYTE	W96
	BYTE	PEND
// 047   ----------------------------------------
	BYTE	W92
	BYTE	W02
	BYTE		EOT     Fn3 
	BYTE		        As3 
	BYTE		        Dn4 
	BYTE		        Fn4 
	BYTE		        Dn5 
	BYTE		        Fn5 
	BYTE	W02
// 048   ----------------------------------------
voiceofthesacredwind8850_5_048:
	BYTE		N92     En3   v092
	BYTE		N92     An3 
	BYTE		N92     Cs4 
	BYTE		N92     En4 
	BYTE		N92     Cs5 
	BYTE		N92     En5 
	BYTE	W96
	BYTE	PEND
// 049   ----------------------------------------
voiceofthesacredwind8850_5_049:
	BYTE		N56     Cs3   v092
	BYTE		N56     En3 
	BYTE		N56     An3 
	BYTE		N56     Cs4 
	BYTE		N56     An4 
	BYTE		N56     Cs5 
	BYTE	W60
	BYTE		N10     En3 
	BYTE		N10     An3 
	BYTE		N10     Cs4 
	BYTE		N10     En4 
	BYTE		N10     An4 
	BYTE		N10     Cs5 
	BYTE	W12
	BYTE		        En3 
	BYTE		N10     An3 
	BYTE		N10     Cs4 
	BYTE		N10     En4 
	BYTE		N10     An4 
	BYTE		N10     Cs5 
	BYTE	W12
	BYTE		TIE     Dn3 
	BYTE		TIE     Fn3 
	BYTE		TIE     An3 
	BYTE		TIE     Dn4 
	BYTE		TIE     An4 
	BYTE		TIE     Dn5 
	BYTE	W12
	BYTE	PEND
// 050   ----------------------------------------
	BYTE	W96
// 051   ----------------------------------------
	BYTE	W92
	BYTE	W02
	BYTE		EOT     Dn3 
	BYTE		        Fn3 
	BYTE		        An3 
	BYTE		        Dn4 
	BYTE		        An4 
	BYTE		        Dn5 
	BYTE	W02
// 052   ----------------------------------------
	BYTE	PATT
	 POIN2	voiceofthesacredwind8850_5_044
// 053   ----------------------------------------
	BYTE	W92
	BYTE	W02
	BYTE		EOT     En3 
	BYTE		        Gn3 
	BYTE		        Cn4 
	BYTE		        En4 
	BYTE		        Cn5 
	BYTE		        En5 
	BYTE	W02
// 054   ----------------------------------------
voiceofthesacredwind8850_5_054:
	BYTE		N92     Fn3   v092
	BYTE		N92     As3 
	BYTE		N92     Dn4 
	BYTE		N92     Fn4 
	BYTE		N92     Dn5 
	BYTE		N92     Fn5 
	BYTE	W96
	BYTE	PEND
// 055   ----------------------------------------
	BYTE		        En3 
	BYTE		N92     An3 
	BYTE		N92     Cn4 
	BYTE		N92     En4 
	BYTE		N92     Cn5 
	BYTE		N92     En5 
	BYTE	W96
// 056   ----------------------------------------
	BYTE		N80     Fn3 
	BYTE		N80     An3 
	BYTE		N80     Dn4 
	BYTE		N80     Fn4 
	BYTE		N80     Dn5 
	BYTE		N80     Fn5 
	BYTE	W84
	BYTE		TIE     Dn3 
	BYTE		TIE     Fn3 
	BYTE		TIE     An3 
	BYTE		TIE     Dn4 
	BYTE		TIE     An4 
	BYTE		TIE     Dn5 
	BYTE	W12
// 057   ----------------------------------------
	BYTE	W92
	BYTE	W02
	BYTE		EOT     Dn3 
	BYTE		        Fn3 
	BYTE		        An3 
	BYTE		        Dn4 
	BYTE		        An4 
	BYTE		        Dn5 
	BYTE	W02
// 058   ----------------------------------------
	BYTE	W96
// 059   ----------------------------------------
	BYTE	W96
// 060   ----------------------------------------
	BYTE	W96
// 061   ----------------------------------------
	BYTE	W96
// 062   ----------------------------------------
	BYTE	W96
// 063   ----------------------------------------
	BYTE	W96
// 064   ----------------------------------------
	BYTE	W96
// 065   ----------------------------------------
	BYTE		N92     En3 
	BYTE		N92     An3 
	BYTE	W24
	BYTE		N68     Dn4 
	BYTE	W24
	BYTE		N44     An4 
	BYTE	W24
	BYTE		N20     Cs5 
	BYTE	W24
// 066   ----------------------------------------
voiceofthesacredwind8850_5_066:
	BYTE		N92     An3   v092
	BYTE		N92     Dn4 
	BYTE		N92     Fn4 
	BYTE		N92     An4 
	BYTE	W96
	BYTE	PEND
// 067   ----------------------------------------
	BYTE	PATT
	 POIN2	voiceofthesacredwind8850_5_027
// 068   ----------------------------------------
	BYTE	PATT
	 POIN2	voiceofthesacredwind8850_5_026
// 069   ----------------------------------------
	BYTE		N92     An3   v092
	BYTE		N92     Cn4 
	BYTE		N92     En4 
	BYTE		N92     An4 
	BYTE	W96
// 070   ----------------------------------------
	BYTE	PATT
	 POIN2	voiceofthesacredwind8850_5_026
// 071   ----------------------------------------
	BYTE	PATT
	 POIN2	voiceofthesacredwind8850_5_066
// 072   ----------------------------------------
	BYTE		N92     Bn3   v092
	BYTE		N92     Dn4 
	BYTE		N92     Gs4 
	BYTE		N92     Bn4 
	BYTE	W96
// 073   ----------------------------------------
	BYTE		N56     An3 
	BYTE		N56     Cs4 
	BYTE		N56     En4 
	BYTE		N56     An4 
	BYTE	W60
	BYTE		N10     An3 
	BYTE		N10     Cs4 
	BYTE		N10     En4 
	BYTE		N10     An4 
	BYTE	W12
	BYTE		        An3 
	BYTE		N10     Cs4 
	BYTE		N10     En4 
	BYTE		N10     An4 
	BYTE	W12
	BYTE		        An3 
	BYTE		N10     Cs4 
	BYTE		N10     En4 
	BYTE		N10     An4 
	BYTE	W12
// 074   ----------------------------------------
	BYTE		N92     Fn3 
	BYTE		N92     An3 
	BYTE		N92     Dn4 
	BYTE		N92     Fn4 
	BYTE	W96
// 075   ----------------------------------------
	BYTE	PATT
	 POIN2	voiceofthesacredwind8850_5_027
// 076   ----------------------------------------
	BYTE	PATT
	 POIN2	voiceofthesacredwind8850_5_066
// 077   ----------------------------------------
	BYTE		N92     Cn4   v092
	BYTE		N92     En4 
	BYTE		N92     Gn4 
	BYTE		N92     Cn5 
	BYTE	W96
// 078   ----------------------------------------
	BYTE		        As3 
	BYTE		N92     Dn4 
	BYTE		N92     Gn4 
	BYTE		N92     As4 
	BYTE	W96
// 079   ----------------------------------------
	BYTE	PATT
	 POIN2	voiceofthesacredwind8850_5_066
// 080   ----------------------------------------
	BYTE	PATT
	 POIN2	voiceofthesacredwind8850_5_030
// 081   ----------------------------------------
	BYTE		N44     An3   v092
	BYTE		N44     Cs4 
	BYTE		N44     En4 
	BYTE		N44     An4 
	BYTE	W48
	BYTE		N16     An3 
	BYTE		N16     Cs4 
	BYTE		N16     En4 
	BYTE		N16     An4 
	BYTE	W18
	BYTE		        As3 
	BYTE		N16     Dn4 
	BYTE		N16     Fn4 
	BYTE		N16     As4 
	BYTE	W18
	BYTE		N10     An3 
	BYTE		N10     Cs4 
	BYTE		N10     En4 
	BYTE		N10     An4 
	BYTE	W12
// 082   ----------------------------------------
	BYTE		N80     Cs4 
	BYTE		N80     En4 
	BYTE		N80     An4 
	BYTE		N80     Cs5 
	BYTE	W84
	BYTE		TIE     Dn3 
	BYTE		TIE     Fn3 
	BYTE		TIE     An3 
	BYTE		TIE     Dn4 
	BYTE	W12
// 083   ----------------------------------------
	BYTE	W92
	BYTE	W02
	BYTE		EOT     Dn3 
	BYTE		        Fn3 
	BYTE		        An3 
	BYTE		        Dn4 
	BYTE	W02
// 084   ----------------------------------------
	BYTE	PATT
	 POIN2	voiceofthesacredwind8850_5_003
// 085   ----------------------------------------
	BYTE	PATT
	 POIN2	voiceofthesacredwind8850_5_004
// 086   ----------------------------------------
	BYTE	PATT
	 POIN2	voiceofthesacredwind8850_5_005
// 087   ----------------------------------------
	BYTE	W92
	BYTE	W02
	BYTE		EOT     Dn3 
	BYTE		        Fn3 
	BYTE		        As3 
	BYTE		        Dn4 
	BYTE	W02
// 088   ----------------------------------------
	BYTE	PATT
	 POIN2	voiceofthesacredwind8850_5_007
// 089   ----------------------------------------
	BYTE	W92
	BYTE	W02
	BYTE		EOT     Fn3 
	BYTE		        An3 
	BYTE		        Dn4 
	BYTE		        Fn4 
	BYTE	W02
// 090   ----------------------------------------
	BYTE	PATT
	 POIN2	voiceofthesacredwind8850_5_009
// 091   ----------------------------------------
	BYTE	PATT
	 POIN2	voiceofthesacredwind8850_5_010
// 092   ----------------------------------------
	BYTE	PATT
	 POIN2	voiceofthesacredwind8850_5_011
// 093   ----------------------------------------
	BYTE	PATT
	 POIN2	voiceofthesacredwind8850_5_012
// 094   ----------------------------------------
	BYTE	W92
	BYTE	W02
	BYTE		EOT     Dn3 
	BYTE		        Fn3 
	BYTE		        An3 
	BYTE		        Dn4 
	BYTE	W02
// 095   ----------------------------------------
	BYTE	PATT
	 POIN2	voiceofthesacredwind8850_5_010
// 096   ----------------------------------------
	BYTE	PATT
	 POIN2	voiceofthesacredwind8850_5_011
// 097   ----------------------------------------
	BYTE	PATT
	 POIN2	voiceofthesacredwind8850_5_016
// 098   ----------------------------------------
	BYTE	PATT
	 POIN2	voiceofthesacredwind8850_5_017
// 099   ----------------------------------------
	BYTE	PATT
	 POIN2	voiceofthesacredwind8850_5_010
// 100   ----------------------------------------
	BYTE	PATT
	 POIN2	voiceofthesacredwind8850_5_011
// 101   ----------------------------------------
	BYTE	PATT
	 POIN2	voiceofthesacredwind8850_5_012
// 102   ----------------------------------------
	BYTE	W92
	BYTE	W02
	BYTE		EOT     Dn3 
	BYTE		        Fn3 
	BYTE		        An3 
	BYTE		        Dn4 
	BYTE	W02
// 103   ----------------------------------------
	BYTE	PATT
	 POIN2	voiceofthesacredwind8850_5_010
// 104   ----------------------------------------
	BYTE	PATT
	 POIN2	voiceofthesacredwind8850_5_016
// 105   ----------------------------------------
	BYTE	PATT
	 POIN2	voiceofthesacredwind8850_5_024
// 106   ----------------------------------------
	BYTE	W92
	BYTE	W02
	BYTE		EOT     Fn3 
	BYTE		        An3 
	BYTE		        Dn4 
	BYTE		        Fn4 
	BYTE	W02
// 107   ----------------------------------------
	BYTE	PATT
	 POIN2	voiceofthesacredwind8850_5_026
// 108   ----------------------------------------
	BYTE	PATT
	 POIN2	voiceofthesacredwind8850_5_027
// 109   ----------------------------------------
	BYTE	PATT
	 POIN2	voiceofthesacredwind8850_5_028
// 110   ----------------------------------------
	BYTE	PATT
	 POIN2	voiceofthesacredwind8850_5_029
// 111   ----------------------------------------
	BYTE	PATT
	 POIN2	voiceofthesacredwind8850_5_030
// 112   ----------------------------------------
	BYTE	PATT
	 POIN2	voiceofthesacredwind8850_5_027
// 113   ----------------------------------------
	BYTE	PATT
	 POIN2	voiceofthesacredwind8850_5_028
// 114   ----------------------------------------
	BYTE	PATT
	 POIN2	voiceofthesacredwind8850_5_028
// 115   ----------------------------------------
	BYTE	PATT
	 POIN2	voiceofthesacredwind8850_5_026
// 116   ----------------------------------------
	BYTE	PATT
	 POIN2	voiceofthesacredwind8850_5_027
// 117   ----------------------------------------
	BYTE	PATT
	 POIN2	voiceofthesacredwind8850_5_028
// 118   ----------------------------------------
	BYTE	PATT
	 POIN2	voiceofthesacredwind8850_5_037
// 119   ----------------------------------------
	BYTE	PATT
	 POIN2	voiceofthesacredwind8850_5_038
// 120   ----------------------------------------
	BYTE	PATT
	 POIN2	voiceofthesacredwind8850_5_039
// 121   ----------------------------------------
	BYTE	PATT
	 POIN2	voiceofthesacredwind8850_5_040
// 122   ----------------------------------------
	BYTE	PATT
	 POIN2	voiceofthesacredwind8850_5_041
// 123   ----------------------------------------
	BYTE	W96
// 124   ----------------------------------------
	BYTE	W92
	BYTE	W02
	BYTE		EOT     Dn3 
	BYTE		        Fn3 
	BYTE		        An3 
	BYTE		        Dn4 
	BYTE		        An4 
	BYTE		        Dn5 
	BYTE	W02
// 125   ----------------------------------------
	BYTE	PATT
	 POIN2	voiceofthesacredwind8850_5_044
// 126   ----------------------------------------
	BYTE	W92
	BYTE	W02
	BYTE		EOT     En3 
	BYTE		        Gn3 
	BYTE		        Cn4 
	BYTE		        En4 
	BYTE		        Cn5 
	BYTE		        En5 
	BYTE	W02
// 127   ----------------------------------------
	BYTE	PATT
	 POIN2	voiceofthesacredwind8850_5_046
// 128   ----------------------------------------
	BYTE	W92
	BYTE	W02
	BYTE		EOT     Fn3 
	BYTE		        As3 
	BYTE		        Dn4 
	BYTE		        Fn4 
	BYTE		        Dn5 
	BYTE		        Fn5 
	BYTE	W02
// 129   ----------------------------------------
	BYTE	PATT
	 POIN2	voiceofthesacredwind8850_5_048
// 130   ----------------------------------------
	BYTE	PATT
	 POIN2	voiceofthesacredwind8850_5_049
// 131   ----------------------------------------
	BYTE	W96
// 132   ----------------------------------------
	BYTE	W92
	BYTE	W02
	BYTE		EOT     Dn3 
	BYTE		        Fn3 
	BYTE		        An3 
	BYTE		        Dn4 
	BYTE		        An4 
	BYTE		        Dn5 
	BYTE	W02
// 133   ----------------------------------------
	BYTE	PATT
	 POIN2	voiceofthesacredwind8850_5_044
// 134   ----------------------------------------
	BYTE	W92
	BYTE	W02
	BYTE		EOT     En3 
	BYTE		        Gn3 
	BYTE		        Cn4 
	BYTE		        En4 
	BYTE		        Cn5 
	BYTE		        En5 
	BYTE	W02
// 135   ----------------------------------------
	BYTE	PATT
	 POIN2	voiceofthesacredwind8850_5_054
// 136   ----------------------------------------
	BYTE		N68     En3   v092
	BYTE		N68     An3 
	BYTE		N68     Cn4 
	BYTE		N68     En4 
	BYTE		N68     Cn5 
	BYTE		N68     En5 
	BYTE	W72
	BYTE		N10     En3 
	BYTE		N10     An3 
	BYTE		N10     Cs4 
	BYTE		N10     En4 
	BYTE		N10     An4 
	BYTE		N10     Cs5 
	BYTE	W12
	BYTE		TIE     Dn3 
	BYTE		TIE     Fn3 
	BYTE		TIE     An3 
	BYTE		TIE     Dn4 
	BYTE		TIE     An4 
	BYTE		TIE     Dn5 
	BYTE	W12
// 137   ----------------------------------------
	BYTE	W96
// 138   ----------------------------------------
	BYTE	W92
	BYTE	W02
	BYTE		EOT     Dn3 
	BYTE		        Fn3 
	BYTE		        An3 
	BYTE		        Dn4 
	BYTE		        An4 
	BYTE		        Dn5 
	BYTE	W02
// 139   ----------------------------------------
	BYTE	PATT
	 POIN2	voiceofthesacredwind8850_5_044
// 140   ----------------------------------------
	BYTE	W92
	BYTE	W02
	BYTE		EOT     En3 
	BYTE		        Gn3 
	BYTE		        Cn4 
	BYTE		        En4 
	BYTE		        Cn5 
	BYTE		        En5 
	BYTE	W02
// 141   ----------------------------------------
	BYTE	PATT
	 POIN2	voiceofthesacredwind8850_5_046
// 142   ----------------------------------------
	BYTE	W92
	BYTE	W02
	BYTE		EOT     Fn3 
	BYTE		        As3 
	BYTE		        Dn4 
	BYTE		        Fn4 
	BYTE		        Dn5 
	BYTE		        Fn5 
	BYTE	W02
// 143   ----------------------------------------
	BYTE	PATT
	 POIN2	voiceofthesacredwind8850_5_048
// 144   ----------------------------------------
	BYTE	PATT
	 POIN2	voiceofthesacredwind8850_5_049
// 145   ----------------------------------------
	BYTE	W96
// 146   ----------------------------------------
	BYTE	W92
	BYTE	W02
	BYTE		EOT     Dn3 
	BYTE		        Fn3 
	BYTE		        An3 
	BYTE		        Dn4 
	BYTE		        An4 
	BYTE		        Dn5 
	BYTE	W02
// 147   ----------------------------------------
	BYTE	PATT
	 POIN2	voiceofthesacredwind8850_5_044
// 148   ----------------------------------------
	BYTE	W92
	BYTE	W02
	BYTE		EOT     En3 
	BYTE		        Gn3 
	BYTE		        Cn4 
	BYTE		        En4 
	BYTE		        Cn5 
	BYTE		        En5 
	BYTE	W02
// 149   ----------------------------------------
	BYTE	PATT
	 POIN2	voiceofthesacredwind8850_5_054
// 150   ----------------------------------------
	BYTE		N80     En3   v092
	BYTE		N80     An3 
	BYTE		N80     Cn4 
	BYTE		N80     En4 
	BYTE		N80     Cn5 
	BYTE		N80     En5 
	BYTE	W84
	BYTE		TIE     Dn3 
	BYTE		TIE     Fn3 
	BYTE		TIE     An3 
	BYTE		TIE     Dn4 
	BYTE	W12
// 151   ----------------------------------------
	BYTE	W92
	BYTE	W02
	BYTE		EOT     Dn3 
	BYTE		        Fn3 
	BYTE		        An3 
	BYTE		        Dn4 
	BYTE	W02
// 152   ----------------------------------------
	BYTE	PATT
	 POIN2	voiceofthesacredwind8850_5_003
// 153   ----------------------------------------
	BYTE	PATT
	 POIN2	voiceofthesacredwind8850_5_004
// 154   ----------------------------------------
	BYTE	PATT
	 POIN2	voiceofthesacredwind8850_5_005
// 155   ----------------------------------------
	BYTE	W92
	BYTE	W02
	BYTE		EOT     Dn3 
	BYTE		        Fn3 
	BYTE		        As3 
	BYTE		        Dn4 
	BYTE	W02
// 156   ----------------------------------------
	BYTE	PATT
	 POIN2	voiceofthesacredwind8850_5_007
// 157   ----------------------------------------
	BYTE	W92
	BYTE	W02
	BYTE		EOT     Fn3 
	BYTE		        An3 
	BYTE		        Dn4 
	BYTE		        Fn4 
	BYTE	W02
// 158   ----------------------------------------
	BYTE	PATT
	 POIN2	voiceofthesacredwind8850_5_009
// 159   ----------------------------------------
	BYTE	W96
// 160   ----------------------------------------
	BYTE	W96
// 161   ----------------------------------------
	BYTE	W96
// 162   ----------------------------------------
	BYTE	W96
// 163   ----------------------------------------
	BYTE	FINE

//**************** Track 6 (Midi-Chn.6) ****************//

voiceofthesacredwind8850_6:
	BYTE	KEYSH   voiceofthesacredwind8850_key+0
// 000   ----------------------------------------
	BYTE	W96
// 001   ----------------------------------------
	BYTE		VOICE   98
	BYTE		VOL     68*voiceofthesacredwind8850_mvl/mxv
	BYTE		PAN     c_v-64
	BYTE	W48
	BYTE		MOD     0
	BYTE		BEND    c_v+0
	BYTE	W36
	BYTE		N01     Fn4   v100
	BYTE	W12
// 002   ----------------------------------------
voiceofthesacredwind8850_6_002:
	BYTE	W12
	BYTE		N01     En4   v100
	BYTE	W12
	BYTE		        Gn4 
	BYTE	W12
	BYTE		        Fn4 
	BYTE	W60
	BYTE	PEND
// 003   ----------------------------------------
voiceofthesacredwind8850_6_003:
	BYTE		N01     Fn4   v100
	BYTE	W12
	BYTE		        En4 
	BYTE	W12
	BYTE		        Gn4 
	BYTE	W12
	BYTE		        Cn4 
	BYTE	W24
	BYTE		        En4 
	BYTE	W36
	BYTE	PEND
// 004   ----------------------------------------
voiceofthesacredwind8850_6_004:
	BYTE		N01     Fn4   v100
	BYTE	W12
	BYTE		        En4 
	BYTE	W12
	BYTE		        Gn4 
	BYTE	W12
	BYTE		        Fn4 
	BYTE	W24
	BYTE		        An4 
	BYTE	W24
	BYTE		        Gn4 
	BYTE	W12
	BYTE	PEND
// 005   ----------------------------------------
voiceofthesacredwind8850_6_005:
	BYTE	W12
	BYTE		N01     Dn4   v100
	BYTE	W24
	BYTE		N01   
	BYTE	W48
	BYTE		        Fn4 
	BYTE	W12
	BYTE	PEND
// 006   ----------------------------------------
voiceofthesacredwind8850_6_006:
	BYTE	W36
	BYTE		N01     Dn4   v100
	BYTE	W24
	BYTE		N01   
	BYTE	W36
	BYTE	PEND
// 007   ----------------------------------------
voiceofthesacredwind8850_6_007:
	BYTE		N01     Gn4   v100
	BYTE	W12
	BYTE		N01   
	BYTE	W24
	BYTE		        En4 
	BYTE	W24
	BYTE		        Cs4 
	BYTE	W24
	BYTE		        Fn4 
	BYTE	W12
	BYTE	PEND
// 008   ----------------------------------------
voiceofthesacredwind8850_6_008:
	BYTE	W60
	BYTE		N01     En4   v100
	BYTE	W18
	BYTE		N01   
	BYTE	W18
	BYTE	PEND
// 009   ----------------------------------------
voiceofthesacredwind8850_6_009:
	BYTE		N01     Dn4   v100
	BYTE		N01     Fn4 
	BYTE	W06
	BYTE		        Dn4 
	BYTE		N01     Fn4 
	BYTE	W30
	BYTE		        Dn4 
	BYTE		N01     Fn4 
	BYTE	W06
	BYTE		        Dn4 
	BYTE		N01     Fn4 
	BYTE	W54
	BYTE	PEND
// 010   ----------------------------------------
voiceofthesacredwind8850_6_010:
	BYTE	W60
	BYTE		N01     An4   v100
	BYTE	W12
	BYTE		        As4 
	BYTE	W12
	BYTE		        Fn4 
	BYTE	W12
	BYTE	PEND
// 011   ----------------------------------------
voiceofthesacredwind8850_6_011:
	BYTE	W24
	BYTE		N01     Fn4   v100
	BYTE	W24
	BYTE		        En4 
	BYTE	W12
	BYTE		        Cn4 
	BYTE	W24
	BYTE		N01   
	BYTE	W12
	BYTE	PEND
// 012   ----------------------------------------
voiceofthesacredwind8850_6_012:
	BYTE		N01     En4   v100
	BYTE	W60
	BYTE		        Cn4 
	BYTE	W12
	BYTE		N01   
	BYTE	W12
	BYTE		        Fn4 
	BYTE	W12
	BYTE	PEND
// 013   ----------------------------------------
voiceofthesacredwind8850_6_013:
	BYTE	W12
	BYTE		N01     An4   v100
	BYTE	W12
	BYTE		        En4 
	BYTE	W12
	BYTE		        Gn4 
	BYTE	W12
	BYTE		        Fn4 
	BYTE	W12
	BYTE		        En4 
	BYTE	W24
	BYTE		        Fn4 
	BYTE	W12
	BYTE	PEND
// 014   ----------------------------------------
voiceofthesacredwind8850_6_014:
	BYTE	W60
	BYTE		N01     An4   v100
	BYTE	W12
	BYTE		        As4 
	BYTE	W24
	BYTE	PEND
// 015   ----------------------------------------
voiceofthesacredwind8850_6_015:
	BYTE		N01     En4   v100
	BYTE	W24
	BYTE		        Dn4 
	BYTE	W24
	BYTE		        Cn4 
	BYTE	W12
	BYTE		        As3 
	BYTE	W24
	BYTE		        An3 
	BYTE	W12
	BYTE	PEND
// 016   ----------------------------------------
voiceofthesacredwind8850_6_016:
	BYTE	W24
	BYTE		N01     Fn4   v100
	BYTE	W24
	BYTE		        En4 
	BYTE	W12
	BYTE		        Gn3 
	BYTE	W06
	BYTE		        An3 
	BYTE	W12
	BYTE		        Dn4 
	BYTE	W18
	BYTE	PEND
// 017   ----------------------------------------
voiceofthesacredwind8850_6_017:
	BYTE		N01     Cs4   v100
	BYTE	W12
	BYTE		        An4 
	BYTE	W12
	BYTE		        Gn4 
	BYTE	W12
	BYTE		        As4 
	BYTE	W12
	BYTE		        An4 
	BYTE	W48
	BYTE	PEND
// 018   ----------------------------------------
	BYTE	PATT
	 POIN2	voiceofthesacredwind8850_6_010
// 019   ----------------------------------------
	BYTE	PATT
	 POIN2	voiceofthesacredwind8850_6_011
// 020   ----------------------------------------
	BYTE	PATT
	 POIN2	voiceofthesacredwind8850_6_012
// 021   ----------------------------------------
voiceofthesacredwind8850_6_021:
	BYTE	W12
	BYTE		N01     An4   v100
	BYTE	W12
	BYTE		        En4 
	BYTE	W12
	BYTE		        Gn4 
	BYTE	W12
	BYTE		        Fn4 
	BYTE	W12
	BYTE		        En4 
	BYTE	W24
	BYTE		        Dn4 
	BYTE	W12
	BYTE	PEND
// 022   ----------------------------------------
voiceofthesacredwind8850_6_022:
	BYTE	W24
	BYTE		N01     Gn3   v100
	BYTE	W24
	BYTE		        As3 
	BYTE	W24
	BYTE		        Dn4 
	BYTE	W24
	BYTE	PEND
// 023   ----------------------------------------
voiceofthesacredwind8850_6_023:
	BYTE		N01     Cn4   v100
	BYTE	W24
	BYTE		        Gn3 
	BYTE	W24
	BYTE		N01   
	BYTE	W12
	BYTE		        Cn4 
	BYTE	W24
	BYTE		        Gn3 
	BYTE	W12
	BYTE	PEND
// 024   ----------------------------------------
voiceofthesacredwind8850_6_024:
	BYTE	W36
	BYTE		N01     An3   v100
	BYTE	W24
	BYTE		        An4 
	BYTE	W12
	BYTE		        En4 
	BYTE	W12
	BYTE		        Gn4 
	BYTE	W12
	BYTE	PEND
// 025   ----------------------------------------
voiceofthesacredwind8850_6_025:
	BYTE		N01     Fn4   v100
	BYTE	W12
	BYTE		        En4 
	BYTE	W24
	BYTE		        Dn4 
	BYTE	W24
	BYTE		        En4 
	BYTE	W12
	BYTE		        Fn4 
	BYTE	W12
	BYTE		        An4 
	BYTE	W12
	BYTE	PEND
// 026   ----------------------------------------
	BYTE		        Gn4 
	BYTE		N01     Gn5 
	BYTE	W96
// 027   ----------------------------------------
	BYTE		        As4 
	BYTE		N01     As5 
	BYTE	W96
// 028   ----------------------------------------
	BYTE		        An4 
	BYTE		N01     An5 
	BYTE	W96
// 029   ----------------------------------------
	BYTE		        An4 
	BYTE		N01     An5 
	BYTE	W96
// 030   ----------------------------------------
	BYTE		        Gn4 
	BYTE		N01     Gn5 
	BYTE	W96
// 031   ----------------------------------------
	BYTE		        As4 
	BYTE		N01     As5 
	BYTE	W96
// 032   ----------------------------------------
voiceofthesacredwind8850_6_032:
	BYTE		N01     An4   v100
	BYTE		N01     An5 
	BYTE	W36
	BYTE		        Fn4 
	BYTE		N01     Fn5 
	BYTE	W12
	BYTE		        En4 
	BYTE		N01     En5 
	BYTE	W12
	BYTE		        Cn4 
	BYTE		N01     Cn5 
	BYTE	W24
	BYTE		        Dn4 
	BYTE		N01     Dn5 
	BYTE	W12
	BYTE	PEND
// 033   ----------------------------------------
voiceofthesacredwind8850_6_033:
	BYTE		N01     An3   v100
	BYTE		N01     An4 
	BYTE	W12
	BYTE		        Fn4 
	BYTE		N01     Fn5 
	BYTE	W12
	BYTE		        En4 
	BYTE		N01     En5 
	BYTE	W12
	BYTE		        Cn4 
	BYTE		N01     Cn5 
	BYTE	W12
	BYTE		        Dn4 
	BYTE		N01     Dn5 
	BYTE	W12
	BYTE		        An3 
	BYTE		N01     An4 
	BYTE	W24
	BYTE		        An3 
	BYTE		N01     An4 
	BYTE	W12
	BYTE	PEND
// 034   ----------------------------------------
	BYTE		        Gn4 
	BYTE		N01     Gn5 
	BYTE	W96
// 035   ----------------------------------------
	BYTE		        As4 
	BYTE		N01     As5 
	BYTE	W96
// 036   ----------------------------------------
	BYTE		        An4 
	BYTE		N01     An5 
	BYTE	W96
// 037   ----------------------------------------
voiceofthesacredwind8850_6_037:
	BYTE		N01     An4   v100
	BYTE		N01     An5 
	BYTE	W60
	BYTE		        Dn4 
	BYTE		N01     Dn5 
	BYTE	W18
	BYTE		        Cn4 
	BYTE		N01     Cn5 
	BYTE	W18
	BYTE	PEND
// 038   ----------------------------------------
voiceofthesacredwind8850_6_038:
	BYTE		N01     As3   v100
	BYTE		N01     As4 
	BYTE	W60
	BYTE		        As3 
	BYTE		N01     As4 
	BYTE	W18
	BYTE		        Cn4 
	BYTE		N01     Cn5 
	BYTE	W18
	BYTE	PEND
// 039   ----------------------------------------
voiceofthesacredwind8850_6_039:
	BYTE		N01     Dn4   v100
	BYTE		N01     Dn5 
	BYTE	W60
	BYTE		        Dn4 
	BYTE		N01     Dn5 
	BYTE	W12
	BYTE		        Dn4 
	BYTE		N01     Dn5 
	BYTE	W12
	BYTE		        Cs4 
	BYTE		N01     Cs5 
	BYTE	W12
	BYTE	PEND
// 040   ----------------------------------------
voiceofthesacredwind8850_6_040:
	BYTE	W84
	BYTE		N01     An4   v100
	BYTE		N01     An5 
	BYTE	W12
	BYTE	PEND
// 041   ----------------------------------------
voiceofthesacredwind8850_6_041:
	BYTE	W12
	BYTE		N01     En4   v100
	BYTE		N01     En5 
	BYTE	W12
	BYTE		        Gn4 
	BYTE		N01     Gn5 
	BYTE	W12
	BYTE		        Cs4 
	BYTE		N01     Cs5 
	BYTE	W12
	BYTE		        En4 
	BYTE		N01     En5 
	BYTE	W12
	BYTE		        An3 
	BYTE		N01     An4 
	BYTE	W12
	BYTE		        Cs4 
	BYTE		N01     Cs5 
	BYTE	W12
	BYTE		        Dn4 
	BYTE		N01     Dn5 
	BYTE	W12
	BYTE	PEND
// 042   ----------------------------------------
voiceofthesacredwind8850_6_042:
	BYTE	W84
	BYTE		N01     Fn4   v100
	BYTE		N01     Fn5 
	BYTE	W12
	BYTE	PEND
// 043   ----------------------------------------
voiceofthesacredwind8850_6_043:
	BYTE	W12
	BYTE		N01     Dn4   v100
	BYTE		N01     Dn5 
	BYTE	W12
	BYTE		        En4 
	BYTE		N01     En5 
	BYTE	W12
	BYTE		        Fn4 
	BYTE		N01     Fn5 
	BYTE	W60
	BYTE	PEND
// 044   ----------------------------------------
	BYTE		        En4 
	BYTE		N01     En5 
	BYTE	W96
// 045   ----------------------------------------
voiceofthesacredwind8850_6_045:
	BYTE		N01     Fn4   v100
	BYTE		N01     Fn5 
	BYTE	W12
	BYTE		        En4 
	BYTE		N01     En5 
	BYTE	W24
	BYTE		        Dn4 
	BYTE		N01     Dn5 
	BYTE	W24
	BYTE		        En4 
	BYTE		N01     En5 
	BYTE	W12
	BYTE		        Fn4 
	BYTE		N01     Fn5 
	BYTE	W24
	BYTE	PEND
// 046   ----------------------------------------
voiceofthesacredwind8850_6_046:
	BYTE	W84
	BYTE		N01     As3   v100
	BYTE		N01     As4 
	BYTE	W12
	BYTE	PEND
// 047   ----------------------------------------
voiceofthesacredwind8850_6_047:
	BYTE	W12
	BYTE		N01     An3   v100
	BYTE		N01     An4 
	BYTE	W12
	BYTE		        Cn4 
	BYTE		N01     Cn5 
	BYTE	W12
	BYTE		        As3 
	BYTE		N01     As4 
	BYTE	W60
	BYTE	PEND
// 048   ----------------------------------------
voiceofthesacredwind8850_6_048:
	BYTE		N01     Cs4   v100
	BYTE		N01     Cs5 
	BYTE	W24
	BYTE		        Dn4 
	BYTE		N01     Dn5 
	BYTE	W24
	BYTE		        En4 
	BYTE		N01     En5 
	BYTE	W36
	BYTE		        Cs4 
	BYTE		N01     Cs5 
	BYTE	W12
	BYTE	PEND
// 049   ----------------------------------------
voiceofthesacredwind8850_6_049:
	BYTE	W24
	BYTE		N01     Dn4   v100
	BYTE		N01     Dn5 
	BYTE	W12
	BYTE		        En4 
	BYTE		N01     En5 
	BYTE	W24
	BYTE		        An3 
	BYTE		N01     An4 
	BYTE	W12
	BYTE		        Cs4 
	BYTE		N01     Cs5 
	BYTE	W12
	BYTE		        Dn4 
	BYTE		N01     Dn5 
	BYTE	W12
	BYTE	PEND
// 050   ----------------------------------------
	BYTE	PATT
	 POIN2	voiceofthesacredwind8850_6_042
// 051   ----------------------------------------
voiceofthesacredwind8850_6_051:
	BYTE	W12
	BYTE		N01     Fn4   v100
	BYTE		N01     Fn5 
	BYTE	W12
	BYTE		        Gn4 
	BYTE		N01     Gn5 
	BYTE	W12
	BYTE		        An4 
	BYTE		N01     An5 
	BYTE	W36
	BYTE		        Dn5 
	BYTE		N01     Dn6 
	BYTE	W24
	BYTE	PEND
// 052   ----------------------------------------
voiceofthesacredwind8850_6_052:
	BYTE		N01     Cn5   v100
	BYTE		N01     Cn6 
	BYTE	W60
	BYTE		        En3 
	BYTE		N01     En4 
	BYTE	W12
	BYTE		        Fn3 
	BYTE		N01     Fn4 
	BYTE	W12
	BYTE		        En3 
	BYTE		N01     En4 
	BYTE	W12
	BYTE	PEND
// 053   ----------------------------------------
voiceofthesacredwind8850_6_053:
	BYTE		N01     Gn3   v100
	BYTE		N01     Gn4 
	BYTE	W12
	BYTE		        Fn3 
	BYTE		N01     Fn4 
	BYTE	W24
	BYTE		        En3 
	BYTE		N01     En4 
	BYTE	W24
	BYTE		        Cn4 
	BYTE		N01     Cn5 
	BYTE	W12
	BYTE		        Cn4 
	BYTE		N01     Cn5 
	BYTE	W12
	BYTE		        Bn3 
	BYTE		N01     Bn4 
	BYTE	W12
	BYTE	PEND
// 054   ----------------------------------------
voiceofthesacredwind8850_6_054:
	BYTE		N01     As3   v100
	BYTE		N01     As4 
	BYTE	W24
	BYTE		        Cn4 
	BYTE		N01     Cn5 
	BYTE	W24
	BYTE		        Dn4 
	BYTE		N01     Dn5 
	BYTE	W36
	BYTE		        Cn4 
	BYTE		N01     Cn5 
	BYTE	W12
	BYTE	PEND
// 055   ----------------------------------------
	BYTE	W24
	BYTE		        Dn4 
	BYTE		N01     Dn5 
	BYTE	W24
	BYTE		        En4 
	BYTE		N01     En5 
	BYTE	W12
	BYTE		        Cn4 
	BYTE		N01     Cn5 
	BYTE	W24
	BYTE		        An3 
	BYTE		N01     An4 
	BYTE	W12
// 056   ----------------------------------------
	BYTE		        Dn4 
	BYTE		N01     Dn5 
	BYTE	W48
	BYTE		        An4 
	BYTE		N01     An5 
	BYTE	W24
	BYTE		        Fn4 
	BYTE		N01     Fn5 
	BYTE	W24
// 057   ----------------------------------------
	BYTE		        Dn4 
	BYTE		N01     Dn5 
	BYTE	W12
	BYTE		        Fn4 
	BYTE		N01     Fn5 
	BYTE	W12
	BYTE		        An4 
	BYTE		N01     An5 
	BYTE	W12
	BYTE		        Dn5 
	BYTE		N01     Dn6 
	BYTE	W24
	BYTE		        En5 
	BYTE		N01     En6 
	BYTE	W36
// 058   ----------------------------------------
voiceofthesacredwind8850_6_058:
	BYTE		N01     Dn4   v100
	BYTE		N01     Dn5 
	BYTE	W12
	BYTE		        An4 
	BYTE		N01     An5 
	BYTE	W12
	BYTE		        Dn5 
	BYTE		N01     Dn6 
	BYTE	W12
	BYTE		        An5 
	BYTE		N01     An6 
	BYTE	W60
	BYTE	PEND
// 059   ----------------------------------------
	BYTE	W96
// 060   ----------------------------------------
	BYTE		        An5 
	BYTE		N01     An6 
	BYTE	W12
	BYTE		        Fn5 
	BYTE		N01     Fn6 
	BYTE	W12
	BYTE		        Dn5 
	BYTE		N01     Dn6 
	BYTE	W12
	BYTE		        An4 
	BYTE		N01     An5 
	BYTE	W24
	BYTE		        Dn4 
	BYTE		N01     Dn5 
	BYTE	W24
	BYTE		        An3 
	BYTE		N01     An4 
	BYTE	W12
// 061   ----------------------------------------
	BYTE	W96
// 062   ----------------------------------------
	BYTE	PATT
	 POIN2	voiceofthesacredwind8850_6_058
// 063   ----------------------------------------
	BYTE	W96
// 064   ----------------------------------------
	BYTE		N01     An5   v100
	BYTE		N01     An6 
	BYTE	W12
	BYTE		        Fn5 
	BYTE		N01     Fn6 
	BYTE	W12
	BYTE		        Dn5 
	BYTE		N01     Dn6 
	BYTE	W12
	BYTE		        Fn5 
	BYTE		N01     Fn6 
	BYTE	W12
	BYTE		        Dn5 
	BYTE		N01     Dn6 
	BYTE	W12
	BYTE		        An4 
	BYTE		N01     An5 
	BYTE	W12
	BYTE		        Fn4 
	BYTE		N01     Fn5 
	BYTE	W12
	BYTE		        Dn4 
	BYTE		N01     Dn5 
	BYTE	W12
// 065   ----------------------------------------
	BYTE		        En4 
	BYTE		N01     En5 
	BYTE	W12
	BYTE		        Cs4 
	BYTE		N01     Cs5 
	BYTE	W12
	BYTE		        Gn4 
	BYTE		N01     Gn5 
	BYTE	W12
	BYTE		        En4 
	BYTE		N01     En5 
	BYTE	W12
	BYTE		        An4 
	BYTE		N01     An5 
	BYTE	W12
	BYTE		        En4 
	BYTE		N01     En5 
	BYTE	W12
	BYTE		        Cs5 
	BYTE		N01     Cs6 
	BYTE	W12
	BYTE		        En5 
	BYTE		N01     En6 
	BYTE	W12
// 066   ----------------------------------------
	BYTE		        Fn4 
	BYTE		N01     Fn5 
	BYTE	W36
	BYTE		        An4 
	BYTE		N01     An5 
	BYTE	W36
	BYTE		        Dn5 
	BYTE		N01     Dn6 
	BYTE	W24
// 067   ----------------------------------------
	BYTE		        Dn4 
	BYTE		N01     Dn5 
	BYTE	W12
	BYTE		        As3 
	BYTE		N01     As4 
	BYTE	W12
	BYTE		        Cn4 
	BYTE		N01     Cn5 
	BYTE	W12
	BYTE		        An3 
	BYTE		N01     An4 
	BYTE	W60
// 068   ----------------------------------------
	BYTE		        Dn4 
	BYTE		N01     Dn5 
	BYTE	W48
	BYTE		        As3 
	BYTE		N01     As4 
	BYTE	W48
// 069   ----------------------------------------
	BYTE		        En3 
	BYTE		N01     En4 
	BYTE	W12
	BYTE		        Gn3 
	BYTE		N01     Gn4 
	BYTE	W12
	BYTE		        An3 
	BYTE		N01     An4 
	BYTE	W12
	BYTE		        Cn4 
	BYTE		N01     Cn5 
	BYTE	W60
// 070   ----------------------------------------
voiceofthesacredwind8850_6_070:
	BYTE		N01     Dn3   v100
	BYTE		N01     Dn4 
	BYTE	W12
	BYTE		        Gn3 
	BYTE		N01     Gn4 
	BYTE	W12
	BYTE		        As3 
	BYTE		N01     As4 
	BYTE	W12
	BYTE		        Dn4 
	BYTE		N01     Dn5 
	BYTE	W60
	BYTE	PEND
// 071   ----------------------------------------
voiceofthesacredwind8850_6_071:
	BYTE		N01     Dn3   v100
	BYTE		N01     Dn4 
	BYTE	W12
	BYTE		        Fn3 
	BYTE		N01     Fn4 
	BYTE	W12
	BYTE		        An3 
	BYTE		N01     An4 
	BYTE	W12
	BYTE		        Dn4 
	BYTE		N01     Dn5 
	BYTE	W60
	BYTE	PEND
// 072   ----------------------------------------
voiceofthesacredwind8850_6_072:
	BYTE		N01     Dn3   v100
	BYTE		N01     Dn4 
	BYTE	W12
	BYTE		        Fn3 
	BYTE		N01     Fn4 
	BYTE	W12
	BYTE		        As3 
	BYTE		N01     As4 
	BYTE	W12
	BYTE		        Dn4 
	BYTE		N01     Dn5 
	BYTE	W60
	BYTE	PEND
// 073   ----------------------------------------
	BYTE		        En4 
	BYTE		N01     En5 
	BYTE	W12
	BYTE		        Dn4 
	BYTE		N01     Dn5 
	BYTE	W12
	BYTE		        Cs4 
	BYTE		N01     Cs5 
	BYTE	W12
	BYTE		        An3 
	BYTE		N01     An4 
	BYTE	W60
// 074   ----------------------------------------
	BYTE		        Fn4 
	BYTE		N01     Fn5 
	BYTE	W12
	BYTE		        Dn4 
	BYTE		N01     Dn5 
	BYTE	W12
	BYTE		        Fn4 
	BYTE		N01     Fn5 
	BYTE	W12
	BYTE		        An4 
	BYTE		N01     An5 
	BYTE	W24
	BYTE		        An4 
	BYTE		N01     An5 
	BYTE	W12
	BYTE		        Fn4 
	BYTE		N01     Fn5 
	BYTE	W12
	BYTE		        An4 
	BYTE		N01     An5 
	BYTE	W12
// 075   ----------------------------------------
	BYTE		        Gn4 
	BYTE		N01     Gn5 
	BYTE	W12
	BYTE		        Cn4 
	BYTE		N01     Cn5 
	BYTE	W12
	BYTE		        En4 
	BYTE		N01     En5 
	BYTE	W12
	BYTE		        Gn4 
	BYTE		N01     Gn5 
	BYTE	W36
	BYTE		        En4 
	BYTE		N01     En5 
	BYTE	W12
	BYTE		        Gn4 
	BYTE		N01     Gn5 
	BYTE	W12
// 076   ----------------------------------------
	BYTE		        Fn4 
	BYTE		N01     Fn5 
	BYTE	W12
	BYTE		        As3 
	BYTE		N01     As4 
	BYTE	W12
	BYTE		        Dn4 
	BYTE		N01     Dn5 
	BYTE	W12
	BYTE		        En4 
	BYTE		N01     En5 
	BYTE	W12
	BYTE		        Fn4 
	BYTE		N01     Fn5 
	BYTE	W24
	BYTE		        An4 
	BYTE		N01     An5 
	BYTE	W24
// 077   ----------------------------------------
	BYTE		        Gn4 
	BYTE		N01     Gn5 
	BYTE	W12
	BYTE		        Dn4 
	BYTE		N01     Dn5 
	BYTE	W12
	BYTE		        En4 
	BYTE		N01     En5 
	BYTE	W12
	BYTE		        Cn4 
	BYTE		N01     Cn5 
	BYTE	W60
// 078   ----------------------------------------
	BYTE	PATT
	 POIN2	voiceofthesacredwind8850_6_070
// 079   ----------------------------------------
	BYTE	PATT
	 POIN2	voiceofthesacredwind8850_6_071
// 080   ----------------------------------------
	BYTE	PATT
	 POIN2	voiceofthesacredwind8850_6_072
// 081   ----------------------------------------
	BYTE		N01     En4   v100
	BYTE		N01     En5 
	BYTE	W12
	BYTE		        Dn4 
	BYTE		N01     Dn5 
	BYTE	W12
	BYTE		        Cs4 
	BYTE		N01     Cs5 
	BYTE	W12
	BYTE		        As3 
	BYTE		N01     As4 
	BYTE	W12
	BYTE		        Cs4 
	BYTE		N01     Cs5 
	BYTE	W12
	BYTE		        As3 
	BYTE		N01     As4 
	BYTE	W12
	BYTE		        An3 
	BYTE		N01     An4 
	BYTE	W12
	BYTE		        Gn3 
	BYTE		N01     Gn4 
	BYTE	W12
// 082   ----------------------------------------
	BYTE		        En3 
	BYTE		N01     En4 
	BYTE	W84
	BYTE		        Fn4 
	BYTE	W12
// 083   ----------------------------------------
	BYTE	PATT
	 POIN2	voiceofthesacredwind8850_6_002
// 084   ----------------------------------------
	BYTE	PATT
	 POIN2	voiceofthesacredwind8850_6_003
// 085   ----------------------------------------
	BYTE	PATT
	 POIN2	voiceofthesacredwind8850_6_004
// 086   ----------------------------------------
	BYTE	PATT
	 POIN2	voiceofthesacredwind8850_6_005
// 087   ----------------------------------------
	BYTE	PATT
	 POIN2	voiceofthesacredwind8850_6_006
// 088   ----------------------------------------
	BYTE	PATT
	 POIN2	voiceofthesacredwind8850_6_007
// 089   ----------------------------------------
	BYTE	PATT
	 POIN2	voiceofthesacredwind8850_6_008
// 090   ----------------------------------------
	BYTE	PATT
	 POIN2	voiceofthesacredwind8850_6_009
// 091   ----------------------------------------
	BYTE	PATT
	 POIN2	voiceofthesacredwind8850_6_010
// 092   ----------------------------------------
	BYTE	PATT
	 POIN2	voiceofthesacredwind8850_6_011
// 093   ----------------------------------------
	BYTE	PATT
	 POIN2	voiceofthesacredwind8850_6_012
// 094   ----------------------------------------
	BYTE	PATT
	 POIN2	voiceofthesacredwind8850_6_013
// 095   ----------------------------------------
	BYTE	PATT
	 POIN2	voiceofthesacredwind8850_6_014
// 096   ----------------------------------------
	BYTE	PATT
	 POIN2	voiceofthesacredwind8850_6_015
// 097   ----------------------------------------
	BYTE	PATT
	 POIN2	voiceofthesacredwind8850_6_016
// 098   ----------------------------------------
	BYTE	PATT
	 POIN2	voiceofthesacredwind8850_6_017
// 099   ----------------------------------------
	BYTE	PATT
	 POIN2	voiceofthesacredwind8850_6_010
// 100   ----------------------------------------
	BYTE	PATT
	 POIN2	voiceofthesacredwind8850_6_011
// 101   ----------------------------------------
	BYTE	PATT
	 POIN2	voiceofthesacredwind8850_6_012
// 102   ----------------------------------------
	BYTE	PATT
	 POIN2	voiceofthesacredwind8850_6_021
// 103   ----------------------------------------
	BYTE	PATT
	 POIN2	voiceofthesacredwind8850_6_022
// 104   ----------------------------------------
	BYTE	PATT
	 POIN2	voiceofthesacredwind8850_6_023
// 105   ----------------------------------------
	BYTE	PATT
	 POIN2	voiceofthesacredwind8850_6_024
// 106   ----------------------------------------
	BYTE	PATT
	 POIN2	voiceofthesacredwind8850_6_025
// 107   ----------------------------------------
	BYTE		N01     Gn4   v100
	BYTE		N01     Gn5 
	BYTE	W96
// 108   ----------------------------------------
	BYTE		        As4 
	BYTE		N01     As5 
	BYTE	W96
// 109   ----------------------------------------
	BYTE		        An4 
	BYTE		N01     An5 
	BYTE	W96
// 110   ----------------------------------------
	BYTE		        An4 
	BYTE		N01     An5 
	BYTE	W96
// 111   ----------------------------------------
	BYTE		        Gn4 
	BYTE		N01     Gn5 
	BYTE	W96
// 112   ----------------------------------------
	BYTE		        As4 
	BYTE		N01     As5 
	BYTE	W96
// 113   ----------------------------------------
	BYTE	PATT
	 POIN2	voiceofthesacredwind8850_6_032
// 114   ----------------------------------------
	BYTE	PATT
	 POIN2	voiceofthesacredwind8850_6_033
// 115   ----------------------------------------
	BYTE		N01     Gn4   v100
	BYTE		N01     Gn5 
	BYTE	W96
// 116   ----------------------------------------
	BYTE		        As4 
	BYTE		N01     As5 
	BYTE	W96
// 117   ----------------------------------------
	BYTE		        An4 
	BYTE		N01     An5 
	BYTE	W96
// 118   ----------------------------------------
	BYTE	PATT
	 POIN2	voiceofthesacredwind8850_6_037
// 119   ----------------------------------------
	BYTE	PATT
	 POIN2	voiceofthesacredwind8850_6_038
// 120   ----------------------------------------
	BYTE	PATT
	 POIN2	voiceofthesacredwind8850_6_039
// 121   ----------------------------------------
	BYTE	PATT
	 POIN2	voiceofthesacredwind8850_6_040
// 122   ----------------------------------------
	BYTE	PATT
	 POIN2	voiceofthesacredwind8850_6_041
// 123   ----------------------------------------
	BYTE	PATT
	 POIN2	voiceofthesacredwind8850_6_042
// 124   ----------------------------------------
	BYTE	PATT
	 POIN2	voiceofthesacredwind8850_6_043
// 125   ----------------------------------------
	BYTE		N01     En4   v100
	BYTE		N01     En5 
	BYTE	W96
// 126   ----------------------------------------
	BYTE	PATT
	 POIN2	voiceofthesacredwind8850_6_045
// 127   ----------------------------------------
	BYTE	PATT
	 POIN2	voiceofthesacredwind8850_6_046
// 128   ----------------------------------------
	BYTE	PATT
	 POIN2	voiceofthesacredwind8850_6_047
// 129   ----------------------------------------
	BYTE	PATT
	 POIN2	voiceofthesacredwind8850_6_048
// 130   ----------------------------------------
	BYTE	PATT
	 POIN2	voiceofthesacredwind8850_6_049
// 131   ----------------------------------------
	BYTE	PATT
	 POIN2	voiceofthesacredwind8850_6_042
// 132   ----------------------------------------
	BYTE	PATT
	 POIN2	voiceofthesacredwind8850_6_051
// 133   ----------------------------------------
	BYTE	PATT
	 POIN2	voiceofthesacredwind8850_6_052
// 134   ----------------------------------------
	BYTE	PATT
	 POIN2	voiceofthesacredwind8850_6_053
// 135   ----------------------------------------
	BYTE	PATT
	 POIN2	voiceofthesacredwind8850_6_054
// 136   ----------------------------------------
	BYTE	W24
	BYTE		N01     Dn4   v100
	BYTE		N01     Dn5 
	BYTE	W24
	BYTE		        En4 
	BYTE		N01     En5 
	BYTE	W12
	BYTE		        Cn4 
	BYTE		N01     Cn5 
	BYTE	W12
	BYTE		        Cs4 
	BYTE		N01     Cs5 
	BYTE	W12
	BYTE		        Dn4 
	BYTE		N01     Dn5 
	BYTE	W12
// 137   ----------------------------------------
	BYTE	PATT
	 POIN2	voiceofthesacredwind8850_6_042
// 138   ----------------------------------------
	BYTE	PATT
	 POIN2	voiceofthesacredwind8850_6_043
// 139   ----------------------------------------
	BYTE		N01     En4   v100
	BYTE		N01     En5 
	BYTE	W96
// 140   ----------------------------------------
	BYTE	PATT
	 POIN2	voiceofthesacredwind8850_6_045
// 141   ----------------------------------------
	BYTE	PATT
	 POIN2	voiceofthesacredwind8850_6_046
// 142   ----------------------------------------
	BYTE	PATT
	 POIN2	voiceofthesacredwind8850_6_047
// 143   ----------------------------------------
	BYTE	PATT
	 POIN2	voiceofthesacredwind8850_6_048
// 144   ----------------------------------------
	BYTE	PATT
	 POIN2	voiceofthesacredwind8850_6_049
// 145   ----------------------------------------
	BYTE	PATT
	 POIN2	voiceofthesacredwind8850_6_042
// 146   ----------------------------------------
	BYTE	PATT
	 POIN2	voiceofthesacredwind8850_6_051
// 147   ----------------------------------------
	BYTE	PATT
	 POIN2	voiceofthesacredwind8850_6_052
// 148   ----------------------------------------
	BYTE	PATT
	 POIN2	voiceofthesacredwind8850_6_053
// 149   ----------------------------------------
	BYTE	PATT
	 POIN2	voiceofthesacredwind8850_6_054
// 150   ----------------------------------------
	BYTE	W24
	BYTE		N01     Dn4   v100
	BYTE		N01     Dn5 
	BYTE	W24
	BYTE		        En4 
	BYTE		N01     En5 
	BYTE	W12
	BYTE		        Cn4 
	BYTE		N01     Cn5 
	BYTE	W24
	BYTE		        Fn4 
	BYTE	W12
// 151   ----------------------------------------
	BYTE	PATT
	 POIN2	voiceofthesacredwind8850_6_002
// 152   ----------------------------------------
	BYTE	PATT
	 POIN2	voiceofthesacredwind8850_6_003
// 153   ----------------------------------------
	BYTE	PATT
	 POIN2	voiceofthesacredwind8850_6_004
// 154   ----------------------------------------
	BYTE	PATT
	 POIN2	voiceofthesacredwind8850_6_005
// 155   ----------------------------------------
	BYTE	PATT
	 POIN2	voiceofthesacredwind8850_6_006
// 156   ----------------------------------------
	BYTE	PATT
	 POIN2	voiceofthesacredwind8850_6_007
// 157   ----------------------------------------
	BYTE	PATT
	 POIN2	voiceofthesacredwind8850_6_008
// 158   ----------------------------------------
	BYTE	PATT
	 POIN2	voiceofthesacredwind8850_6_009
// 159   ----------------------------------------
	BYTE	W96
// 160   ----------------------------------------
	BYTE	W96
// 161   ----------------------------------------
	BYTE	W96
// 162   ----------------------------------------
	BYTE	W96
// 163   ----------------------------------------
	BYTE	FINE

//**************** Track 7 (Midi-Chn.7) ****************//

voiceofthesacredwind8850_7:
	BYTE	KEYSH   voiceofthesacredwind8850_key+0
// 000   ----------------------------------------
	BYTE	W96
// 001   ----------------------------------------
	BYTE		VOICE   102
	BYTE		VOL     78*voiceofthesacredwind8850_mvl/mxv
	BYTE		PAN     c_v+63
	BYTE	W48
	BYTE		MOD     0
	BYTE		BEND    c_v+0
	BYTE	W36
	BYTE		N02     Fn5   v100
	BYTE	W12
// 002   ----------------------------------------
voiceofthesacredwind8850_7_002:
	BYTE	W12
	BYTE		N02     En5   v100
	BYTE	W12
	BYTE		        Gn5 
	BYTE	W12
	BYTE		        Fn5 
	BYTE	W60
	BYTE	PEND
// 003   ----------------------------------------
voiceofthesacredwind8850_7_003:
	BYTE		N02     Fn5   v100
	BYTE	W12
	BYTE		        En5 
	BYTE	W12
	BYTE		        Gn5 
	BYTE	W12
	BYTE		        Cn5 
	BYTE	W24
	BYTE		        En5 
	BYTE	W36
	BYTE	PEND
// 004   ----------------------------------------
voiceofthesacredwind8850_7_004:
	BYTE		N02     Fn5   v100
	BYTE	W12
	BYTE		        En5 
	BYTE	W12
	BYTE		        Gn5 
	BYTE	W12
	BYTE		        Fn5 
	BYTE	W24
	BYTE		        An5 
	BYTE	W24
	BYTE		        Gn5 
	BYTE	W12
	BYTE	PEND
// 005   ----------------------------------------
voiceofthesacredwind8850_7_005:
	BYTE	W12
	BYTE		N02     Dn5   v100
	BYTE	W24
	BYTE		N02   
	BYTE	W48
	BYTE		        Fn5 
	BYTE	W12
	BYTE	PEND
// 006   ----------------------------------------
voiceofthesacredwind8850_7_006:
	BYTE	W36
	BYTE		N02     Dn5   v100
	BYTE	W24
	BYTE		N02   
	BYTE	W36
	BYTE	PEND
// 007   ----------------------------------------
voiceofthesacredwind8850_7_007:
	BYTE		N02     Gn5   v100
	BYTE	W12
	BYTE		N02   
	BYTE	W24
	BYTE		        En5 
	BYTE	W24
	BYTE		        Cs5 
	BYTE	W24
	BYTE		        Fn5 
	BYTE	W12
	BYTE	PEND
// 008   ----------------------------------------
voiceofthesacredwind8850_7_008:
	BYTE	W60
	BYTE		N02     En5   v100
	BYTE	W18
	BYTE		N02   
	BYTE	W18
	BYTE	PEND
// 009   ----------------------------------------
voiceofthesacredwind8850_7_009:
	BYTE		N02     Fn5   v100
	BYTE	W06
	BYTE		N02   
	BYTE	W30
	BYTE		N02   
	BYTE	W06
	BYTE		N02   
	BYTE	W54
	BYTE	PEND
// 010   ----------------------------------------
voiceofthesacredwind8850_7_010:
	BYTE	W60
	BYTE		N02     An5   v100
	BYTE	W12
	BYTE		        As5 
	BYTE	W12
	BYTE		        Fn5 
	BYTE	W12
	BYTE	PEND
// 011   ----------------------------------------
voiceofthesacredwind8850_7_011:
	BYTE	W24
	BYTE		N02     Fn5   v100
	BYTE	W24
	BYTE		        En5 
	BYTE	W12
	BYTE		        Cn5 
	BYTE	W24
	BYTE		N02   
	BYTE	W12
	BYTE	PEND
// 012   ----------------------------------------
voiceofthesacredwind8850_7_012:
	BYTE		N02     En5   v100
	BYTE	W60
	BYTE		        Cn5 
	BYTE	W12
	BYTE		N02   
	BYTE	W12
	BYTE		        Fn5 
	BYTE	W12
	BYTE	PEND
// 013   ----------------------------------------
voiceofthesacredwind8850_7_013:
	BYTE	W12
	BYTE		N02     An5   v100
	BYTE	W12
	BYTE		        En5 
	BYTE	W12
	BYTE		        Gn5 
	BYTE	W12
	BYTE		        Fn5 
	BYTE	W12
	BYTE		        En5 
	BYTE	W24
	BYTE		        Fn5 
	BYTE	W12
	BYTE	PEND
// 014   ----------------------------------------
voiceofthesacredwind8850_7_014:
	BYTE	W60
	BYTE		N02     An5   v100
	BYTE	W12
	BYTE		        As5 
	BYTE	W24
	BYTE	PEND
// 015   ----------------------------------------
voiceofthesacredwind8850_7_015:
	BYTE		N02     En5   v100
	BYTE	W24
	BYTE		        Dn5 
	BYTE	W24
	BYTE		        Cn5 
	BYTE	W12
	BYTE		        As4 
	BYTE	W24
	BYTE		        An4 
	BYTE	W12
	BYTE	PEND
// 016   ----------------------------------------
voiceofthesacredwind8850_7_016:
	BYTE	W24
	BYTE		N02     Fn5   v100
	BYTE	W24
	BYTE		        En5 
	BYTE	W12
	BYTE		        Gn4 
	BYTE	W06
	BYTE		        An4 
	BYTE	W12
	BYTE		        Dn5 
	BYTE	W18
	BYTE	PEND
// 017   ----------------------------------------
voiceofthesacredwind8850_7_017:
	BYTE		N02     Cs5   v100
	BYTE	W12
	BYTE		        An5 
	BYTE	W12
	BYTE		        Gn5 
	BYTE	W12
	BYTE		        As5 
	BYTE	W12
	BYTE		        An5 
	BYTE	W48
	BYTE	PEND
// 018   ----------------------------------------
	BYTE	PATT
	 POIN2	voiceofthesacredwind8850_7_010
// 019   ----------------------------------------
	BYTE	PATT
	 POIN2	voiceofthesacredwind8850_7_011
// 020   ----------------------------------------
	BYTE	PATT
	 POIN2	voiceofthesacredwind8850_7_012
// 021   ----------------------------------------
voiceofthesacredwind8850_7_021:
	BYTE	W12
	BYTE		N02     An5   v100
	BYTE	W12
	BYTE		        En5 
	BYTE	W12
	BYTE		        Gn5 
	BYTE	W12
	BYTE		        Fn5 
	BYTE	W12
	BYTE		        En5 
	BYTE	W24
	BYTE		        Dn5 
	BYTE	W12
	BYTE	PEND
// 022   ----------------------------------------
voiceofthesacredwind8850_7_022:
	BYTE	W24
	BYTE		N02     Gn4   v100
	BYTE	W24
	BYTE		        As4 
	BYTE	W24
	BYTE		        Dn5 
	BYTE	W24
	BYTE	PEND
// 023   ----------------------------------------
voiceofthesacredwind8850_7_023:
	BYTE		N02     Cn5   v100
	BYTE	W24
	BYTE		        Gn4 
	BYTE	W24
	BYTE		N02   
	BYTE	W12
	BYTE		        Cn5 
	BYTE	W24
	BYTE		        Gn4 
	BYTE	W12
	BYTE	PEND
// 024   ----------------------------------------
voiceofthesacredwind8850_7_024:
	BYTE	W36
	BYTE		N02     An4   v100
	BYTE	W24
	BYTE		        An5 
	BYTE	W12
	BYTE		        En5 
	BYTE	W12
	BYTE		        Gn5 
	BYTE	W12
	BYTE	PEND
// 025   ----------------------------------------
voiceofthesacredwind8850_7_025:
	BYTE		N02     Fn5   v100
	BYTE	W12
	BYTE		        En5 
	BYTE	W24
	BYTE		        Dn5 
	BYTE	W24
	BYTE		        En5 
	BYTE	W12
	BYTE		        Fn5 
	BYTE	W12
	BYTE		        An5 
	BYTE	W12
	BYTE	PEND
// 026   ----------------------------------------
	BYTE		        Gn4 
	BYTE	W96
// 027   ----------------------------------------
	BYTE		        As4 
	BYTE	W96
// 028   ----------------------------------------
	BYTE		        An4 
	BYTE	W96
// 029   ----------------------------------------
	BYTE		N02   
	BYTE	W96
// 030   ----------------------------------------
	BYTE		        Gn4 
	BYTE	W96
// 031   ----------------------------------------
	BYTE		        As4 
	BYTE	W96
// 032   ----------------------------------------
voiceofthesacredwind8850_7_032:
	BYTE		N02     An4   v100
	BYTE	W36
	BYTE		        Fn4 
	BYTE	W12
	BYTE		        En4 
	BYTE	W12
	BYTE		        Cn4 
	BYTE	W24
	BYTE		        Dn4 
	BYTE	W12
	BYTE	PEND
// 033   ----------------------------------------
voiceofthesacredwind8850_7_033:
	BYTE		N02     An3   v100
	BYTE	W12
	BYTE		        Fn5 
	BYTE	W12
	BYTE		        En5 
	BYTE	W12
	BYTE		        Cn5 
	BYTE	W12
	BYTE		        Dn5 
	BYTE	W12
	BYTE		        An4 
	BYTE	W24
	BYTE		N02   
	BYTE	W12
	BYTE	PEND
// 034   ----------------------------------------
	BYTE		        Gn4 
	BYTE	W96
// 035   ----------------------------------------
	BYTE		        As4 
	BYTE	W96
// 036   ----------------------------------------
	BYTE		        An4 
	BYTE	W96
// 037   ----------------------------------------
voiceofthesacredwind8850_7_037:
	BYTE		N02     An4   v100
	BYTE	W60
	BYTE		        Dn5 
	BYTE	W18
	BYTE		        Cn5 
	BYTE	W18
	BYTE	PEND
// 038   ----------------------------------------
voiceofthesacredwind8850_7_038:
	BYTE		N02     As4   v100
	BYTE	W60
	BYTE		N02   
	BYTE	W18
	BYTE		        Cn5 
	BYTE	W18
	BYTE	PEND
// 039   ----------------------------------------
voiceofthesacredwind8850_7_039:
	BYTE		N02     Dn5   v100
	BYTE	W60
	BYTE		N02   
	BYTE	W12
	BYTE		N02   
	BYTE	W12
	BYTE		        Cs5 
	BYTE	W12
	BYTE	PEND
// 040   ----------------------------------------
	BYTE	W84
	BYTE		        An5 
	BYTE	W12
// 041   ----------------------------------------
voiceofthesacredwind8850_7_041:
	BYTE	W12
	BYTE		N02     En5   v100
	BYTE	W12
	BYTE		        Gn5 
	BYTE	W12
	BYTE		        Cs5 
	BYTE	W12
	BYTE		        En5 
	BYTE	W12
	BYTE		        An4 
	BYTE	W12
	BYTE		        Cs5 
	BYTE	W12
	BYTE		        Dn5 
	BYTE	W12
	BYTE	PEND
// 042   ----------------------------------------
	BYTE	W84
	BYTE		        Fn5 
	BYTE	W12
// 043   ----------------------------------------
voiceofthesacredwind8850_7_043:
	BYTE	W12
	BYTE		N02     Dn5   v100
	BYTE	W12
	BYTE		        En5 
	BYTE	W12
	BYTE		        Fn5 
	BYTE	W60
	BYTE	PEND
// 044   ----------------------------------------
	BYTE		        En5 
	BYTE	W96
// 045   ----------------------------------------
voiceofthesacredwind8850_7_045:
	BYTE		N02     Fn5   v100
	BYTE	W12
	BYTE		        En5 
	BYTE	W24
	BYTE		        Dn5 
	BYTE	W24
	BYTE		        En5 
	BYTE	W12
	BYTE		        Fn5 
	BYTE	W24
	BYTE	PEND
// 046   ----------------------------------------
	BYTE	W84
	BYTE		        As4 
	BYTE	W12
// 047   ----------------------------------------
voiceofthesacredwind8850_7_047:
	BYTE	W12
	BYTE		N02     An4   v100
	BYTE	W12
	BYTE		        Cn5 
	BYTE	W12
	BYTE		        As4 
	BYTE	W60
	BYTE	PEND
// 048   ----------------------------------------
voiceofthesacredwind8850_7_048:
	BYTE		N02     Cs5   v100
	BYTE	W24
	BYTE		        Dn5 
	BYTE	W24
	BYTE		        En5 
	BYTE	W36
	BYTE		        Cs5 
	BYTE	W12
	BYTE	PEND
// 049   ----------------------------------------
voiceofthesacredwind8850_7_049:
	BYTE	W24
	BYTE		N02     Dn5   v100
	BYTE	W12
	BYTE		        En5 
	BYTE	W24
	BYTE		        An4 
	BYTE	W12
	BYTE		        Cs5 
	BYTE	W12
	BYTE		        Dn5 
	BYTE	W12
	BYTE	PEND
// 050   ----------------------------------------
	BYTE	W84
	BYTE		        Fn5 
	BYTE	W12
// 051   ----------------------------------------
voiceofthesacredwind8850_7_051:
	BYTE	W12
	BYTE		N02     Fn5   v100
	BYTE	W12
	BYTE		        Gn5 
	BYTE	W12
	BYTE		        An5 
	BYTE	W36
	BYTE		        Dn6 
	BYTE	W24
	BYTE	PEND
// 052   ----------------------------------------
voiceofthesacredwind8850_7_052:
	BYTE		N02     Cn6   v100
	BYTE	W60
	BYTE		        En5 
	BYTE	W12
	BYTE		        Fn5 
	BYTE	W12
	BYTE		        En5 
	BYTE	W12
	BYTE	PEND
// 053   ----------------------------------------
voiceofthesacredwind8850_7_053:
	BYTE		N02     Gn5   v100
	BYTE	W12
	BYTE		        Fn5 
	BYTE	W24
	BYTE		        En5 
	BYTE	W24
	BYTE		        Cn5 
	BYTE	W12
	BYTE		N02   
	BYTE	W12
	BYTE		        Bn4 
	BYTE	W12
	BYTE	PEND
// 054   ----------------------------------------
voiceofthesacredwind8850_7_054:
	BYTE		N02     As4   v100
	BYTE	W24
	BYTE		        Cn5 
	BYTE	W24
	BYTE		        Dn5 
	BYTE	W36
	BYTE		        Cn5 
	BYTE	W12
	BYTE	PEND
// 055   ----------------------------------------
	BYTE	W24
	BYTE		        Dn5 
	BYTE	W24
	BYTE		        En5 
	BYTE	W12
	BYTE		        Cn5 
	BYTE	W24
	BYTE		        An4 
	BYTE	W12
// 056   ----------------------------------------
	BYTE		        Dn5 
	BYTE	W48
	BYTE		        An5 
	BYTE	W24
	BYTE		        Fn5 
	BYTE	W24
// 057   ----------------------------------------
	BYTE		        Dn5 
	BYTE	W12
	BYTE		        Fn5 
	BYTE	W12
	BYTE		        An5 
	BYTE	W12
	BYTE		        Dn6 
	BYTE	W24
	BYTE		        En6 
	BYTE	W36
// 058   ----------------------------------------
voiceofthesacredwind8850_7_058:
	BYTE		N02     Dn5   v100
	BYTE	W12
	BYTE		        An5 
	BYTE	W12
	BYTE		        Dn6 
	BYTE	W12
	BYTE		        An6 
	BYTE	W60
	BYTE	PEND
// 059   ----------------------------------------
	BYTE	W96
// 060   ----------------------------------------
	BYTE		N02   
	BYTE	W12
	BYTE		        Fn6 
	BYTE	W12
	BYTE		        Dn6 
	BYTE	W12
	BYTE		        An5 
	BYTE	W24
	BYTE		        Dn5 
	BYTE	W24
	BYTE		        An4 
	BYTE	W12
// 061   ----------------------------------------
	BYTE	W96
// 062   ----------------------------------------
	BYTE	PATT
	 POIN2	voiceofthesacredwind8850_7_058
// 063   ----------------------------------------
	BYTE	W96
// 064   ----------------------------------------
	BYTE		N02     An6   v100
	BYTE	W12
	BYTE		        Fn6 
	BYTE	W12
	BYTE		        Dn6 
	BYTE	W12
	BYTE		        Fn6 
	BYTE	W12
	BYTE		        Dn6 
	BYTE	W12
	BYTE		        An5 
	BYTE	W12
	BYTE		        Fn5 
	BYTE	W12
	BYTE		        Dn5 
	BYTE	W12
// 065   ----------------------------------------
	BYTE		        En5 
	BYTE	W12
	BYTE		        Cs5 
	BYTE	W12
	BYTE		        Gn5 
	BYTE	W12
	BYTE		        En5 
	BYTE	W12
	BYTE		        An5 
	BYTE	W12
	BYTE		        En5 
	BYTE	W12
	BYTE		        Cs6 
	BYTE	W12
	BYTE		        En6 
	BYTE	W12
// 066   ----------------------------------------
	BYTE	W36
	BYTE		        An5 
	BYTE	W48
	BYTE		        Dn6 
	BYTE	W12
// 067   ----------------------------------------
	BYTE		        Dn5 
	BYTE	W12
	BYTE		        As4 
	BYTE	W12
	BYTE		        Cn5 
	BYTE	W12
	BYTE		        An4 
	BYTE	W60
// 068   ----------------------------------------
	BYTE		        Dn5 
	BYTE	W48
	BYTE		        As4 
	BYTE	W48
// 069   ----------------------------------------
	BYTE		        En4 
	BYTE	W12
	BYTE		        Gn4 
	BYTE	W12
	BYTE		        An4 
	BYTE	W12
	BYTE		        Cn5 
	BYTE	W60
// 070   ----------------------------------------
voiceofthesacredwind8850_7_070:
	BYTE		N02     Dn4   v100
	BYTE	W12
	BYTE		        Gn4 
	BYTE	W12
	BYTE		        As4 
	BYTE	W12
	BYTE		        Dn5 
	BYTE	W60
	BYTE	PEND
// 071   ----------------------------------------
voiceofthesacredwind8850_7_071:
	BYTE		N02     Dn4   v100
	BYTE	W12
	BYTE		        Fn4 
	BYTE	W12
	BYTE		        An4 
	BYTE	W12
	BYTE		        Dn5 
	BYTE	W60
	BYTE	PEND
// 072   ----------------------------------------
voiceofthesacredwind8850_7_072:
	BYTE		N02     Dn4   v100
	BYTE	W12
	BYTE		        Fn4 
	BYTE	W12
	BYTE		        As4 
	BYTE	W12
	BYTE		        Dn5 
	BYTE	W60
	BYTE	PEND
// 073   ----------------------------------------
	BYTE		        En5 
	BYTE	W12
	BYTE		        Dn5 
	BYTE	W12
	BYTE		        Cs5 
	BYTE	W12
	BYTE		        An4 
	BYTE	W60
// 074   ----------------------------------------
	BYTE		        Fn5 
	BYTE	W12
	BYTE		        Dn5 
	BYTE	W12
	BYTE		        Fn5 
	BYTE	W12
	BYTE		        An5 
	BYTE	W24
	BYTE		N02   
	BYTE	W12
	BYTE		        Fn5 
	BYTE	W12
	BYTE		        An5 
	BYTE	W12
// 075   ----------------------------------------
	BYTE		        Gn5 
	BYTE	W12
	BYTE		        Cn5 
	BYTE	W12
	BYTE		        En5 
	BYTE	W12
	BYTE		        Gn5 
	BYTE	W36
	BYTE		        En5 
	BYTE	W12
	BYTE		        Gn5 
	BYTE	W12
// 076   ----------------------------------------
	BYTE		        Fn5 
	BYTE	W12
	BYTE		        As4 
	BYTE	W12
	BYTE		        Dn5 
	BYTE	W12
	BYTE		        En5 
	BYTE	W12
	BYTE		        Fn5 
	BYTE	W24
	BYTE		        An5 
	BYTE	W24
// 077   ----------------------------------------
	BYTE		        Gn5 
	BYTE	W12
	BYTE		        Dn5 
	BYTE	W12
	BYTE		        En5 
	BYTE	W12
	BYTE		        Cn5 
	BYTE	W60
// 078   ----------------------------------------
	BYTE	PATT
	 POIN2	voiceofthesacredwind8850_7_070
// 079   ----------------------------------------
	BYTE	PATT
	 POIN2	voiceofthesacredwind8850_7_071
// 080   ----------------------------------------
	BYTE	PATT
	 POIN2	voiceofthesacredwind8850_7_072
// 081   ----------------------------------------
	BYTE		N02     En5   v100
	BYTE	W12
	BYTE		        Dn5 
	BYTE	W12
	BYTE		        Cs5 
	BYTE	W12
	BYTE		        As4 
	BYTE	W12
	BYTE		        Cs5 
	BYTE	W12
	BYTE		        As4 
	BYTE	W12
	BYTE		        An4 
	BYTE	W12
	BYTE		        Gn4 
	BYTE	W12
// 082   ----------------------------------------
	BYTE		        En4 
	BYTE	W84
	BYTE		        Fn5 
	BYTE	W12
// 083   ----------------------------------------
	BYTE	PATT
	 POIN2	voiceofthesacredwind8850_7_002
// 084   ----------------------------------------
	BYTE	PATT
	 POIN2	voiceofthesacredwind8850_7_003
// 085   ----------------------------------------
	BYTE	PATT
	 POIN2	voiceofthesacredwind8850_7_004
// 086   ----------------------------------------
	BYTE	PATT
	 POIN2	voiceofthesacredwind8850_7_005
// 087   ----------------------------------------
	BYTE	PATT
	 POIN2	voiceofthesacredwind8850_7_006
// 088   ----------------------------------------
	BYTE	PATT
	 POIN2	voiceofthesacredwind8850_7_007
// 089   ----------------------------------------
	BYTE	PATT
	 POIN2	voiceofthesacredwind8850_7_008
// 090   ----------------------------------------
	BYTE	PATT
	 POIN2	voiceofthesacredwind8850_7_009
// 091   ----------------------------------------
	BYTE	PATT
	 POIN2	voiceofthesacredwind8850_7_010
// 092   ----------------------------------------
	BYTE	PATT
	 POIN2	voiceofthesacredwind8850_7_011
// 093   ----------------------------------------
	BYTE	PATT
	 POIN2	voiceofthesacredwind8850_7_012
// 094   ----------------------------------------
	BYTE	PATT
	 POIN2	voiceofthesacredwind8850_7_013
// 095   ----------------------------------------
	BYTE	PATT
	 POIN2	voiceofthesacredwind8850_7_014
// 096   ----------------------------------------
	BYTE	PATT
	 POIN2	voiceofthesacredwind8850_7_015
// 097   ----------------------------------------
	BYTE	PATT
	 POIN2	voiceofthesacredwind8850_7_016
// 098   ----------------------------------------
	BYTE	PATT
	 POIN2	voiceofthesacredwind8850_7_017
// 099   ----------------------------------------
	BYTE	PATT
	 POIN2	voiceofthesacredwind8850_7_010
// 100   ----------------------------------------
	BYTE	PATT
	 POIN2	voiceofthesacredwind8850_7_011
// 101   ----------------------------------------
	BYTE	PATT
	 POIN2	voiceofthesacredwind8850_7_012
// 102   ----------------------------------------
	BYTE	PATT
	 POIN2	voiceofthesacredwind8850_7_021
// 103   ----------------------------------------
	BYTE	PATT
	 POIN2	voiceofthesacredwind8850_7_022
// 104   ----------------------------------------
	BYTE	PATT
	 POIN2	voiceofthesacredwind8850_7_023
// 105   ----------------------------------------
	BYTE	PATT
	 POIN2	voiceofthesacredwind8850_7_024
// 106   ----------------------------------------
	BYTE	PATT
	 POIN2	voiceofthesacredwind8850_7_025
// 107   ----------------------------------------
	BYTE		N02     Gn4   v100
	BYTE	W96
// 108   ----------------------------------------
	BYTE		        As4 
	BYTE	W96
// 109   ----------------------------------------
	BYTE		        An4 
	BYTE	W96
// 110   ----------------------------------------
	BYTE		N02   
	BYTE	W96
// 111   ----------------------------------------
	BYTE		        Gn4 
	BYTE	W96
// 112   ----------------------------------------
	BYTE		        As4 
	BYTE	W96
// 113   ----------------------------------------
	BYTE	PATT
	 POIN2	voiceofthesacredwind8850_7_032
// 114   ----------------------------------------
	BYTE	PATT
	 POIN2	voiceofthesacredwind8850_7_033
// 115   ----------------------------------------
	BYTE		N02     Gn4   v100
	BYTE	W96
// 116   ----------------------------------------
	BYTE		        As4 
	BYTE	W96
// 117   ----------------------------------------
	BYTE		        An4 
	BYTE	W96
// 118   ----------------------------------------
	BYTE	PATT
	 POIN2	voiceofthesacredwind8850_7_037
// 119   ----------------------------------------
	BYTE	PATT
	 POIN2	voiceofthesacredwind8850_7_038
// 120   ----------------------------------------
	BYTE	PATT
	 POIN2	voiceofthesacredwind8850_7_039
// 121   ----------------------------------------
	BYTE	W84
	BYTE		N02     An5   v100
	BYTE	W12
// 122   ----------------------------------------
	BYTE	PATT
	 POIN2	voiceofthesacredwind8850_7_041
// 123   ----------------------------------------
	BYTE	W84
	BYTE		N02     Fn5   v100
	BYTE	W12
// 124   ----------------------------------------
	BYTE	PATT
	 POIN2	voiceofthesacredwind8850_7_043
// 125   ----------------------------------------
	BYTE		N02     En5   v100
	BYTE	W96
// 126   ----------------------------------------
	BYTE	PATT
	 POIN2	voiceofthesacredwind8850_7_045
// 127   ----------------------------------------
	BYTE	W84
	BYTE		N02     As4   v100
	BYTE	W12
// 128   ----------------------------------------
	BYTE	PATT
	 POIN2	voiceofthesacredwind8850_7_047
// 129   ----------------------------------------
	BYTE	PATT
	 POIN2	voiceofthesacredwind8850_7_048
// 130   ----------------------------------------
	BYTE	PATT
	 POIN2	voiceofthesacredwind8850_7_049
// 131   ----------------------------------------
	BYTE	W84
	BYTE		N02     Fn5   v100
	BYTE	W12
// 132   ----------------------------------------
	BYTE	PATT
	 POIN2	voiceofthesacredwind8850_7_051
// 133   ----------------------------------------
	BYTE	PATT
	 POIN2	voiceofthesacredwind8850_7_052
// 134   ----------------------------------------
	BYTE	PATT
	 POIN2	voiceofthesacredwind8850_7_053
// 135   ----------------------------------------
	BYTE	PATT
	 POIN2	voiceofthesacredwind8850_7_054
// 136   ----------------------------------------
	BYTE	W24
	BYTE		N02     Dn5   v100
	BYTE	W24
	BYTE		        En5 
	BYTE	W12
	BYTE		        Cn5 
	BYTE	W12
	BYTE		        Cs5 
	BYTE	W12
	BYTE		        Dn5 
	BYTE	W12
// 137   ----------------------------------------
	BYTE	W84
	BYTE		        Fn5 
	BYTE	W12
// 138   ----------------------------------------
	BYTE	PATT
	 POIN2	voiceofthesacredwind8850_7_043
// 139   ----------------------------------------
	BYTE		N02     En5   v100
	BYTE	W96
// 140   ----------------------------------------
	BYTE	PATT
	 POIN2	voiceofthesacredwind8850_7_045
// 141   ----------------------------------------
	BYTE	W84
	BYTE		N02     As4   v100
	BYTE	W12
// 142   ----------------------------------------
	BYTE	PATT
	 POIN2	voiceofthesacredwind8850_7_047
// 143   ----------------------------------------
	BYTE	PATT
	 POIN2	voiceofthesacredwind8850_7_048
// 144   ----------------------------------------
	BYTE	PATT
	 POIN2	voiceofthesacredwind8850_7_049
// 145   ----------------------------------------
	BYTE	W84
	BYTE		N02     Fn5   v100
	BYTE	W12
// 146   ----------------------------------------
	BYTE	PATT
	 POIN2	voiceofthesacredwind8850_7_051
// 147   ----------------------------------------
	BYTE	PATT
	 POIN2	voiceofthesacredwind8850_7_052
// 148   ----------------------------------------
	BYTE	PATT
	 POIN2	voiceofthesacredwind8850_7_053
// 149   ----------------------------------------
	BYTE	PATT
	 POIN2	voiceofthesacredwind8850_7_054
// 150   ----------------------------------------
	BYTE	W24
	BYTE		N02     Dn5   v100
	BYTE	W24
	BYTE		        En5 
	BYTE	W12
	BYTE		        Cn5 
	BYTE	W24
	BYTE		        Fn5 
	BYTE	W12
// 151   ----------------------------------------
	BYTE	PATT
	 POIN2	voiceofthesacredwind8850_7_002
// 152   ----------------------------------------
	BYTE	PATT
	 POIN2	voiceofthesacredwind8850_7_003
// 153   ----------------------------------------
	BYTE	PATT
	 POIN2	voiceofthesacredwind8850_7_004
// 154   ----------------------------------------
	BYTE	PATT
	 POIN2	voiceofthesacredwind8850_7_005
// 155   ----------------------------------------
	BYTE	PATT
	 POIN2	voiceofthesacredwind8850_7_006
// 156   ----------------------------------------
	BYTE	PATT
	 POIN2	voiceofthesacredwind8850_7_007
// 157   ----------------------------------------
	BYTE	PATT
	 POIN2	voiceofthesacredwind8850_7_008
// 158   ----------------------------------------
	BYTE	PATT
	 POIN2	voiceofthesacredwind8850_7_009
// 159   ----------------------------------------
	BYTE	W96
// 160   ----------------------------------------
	BYTE	W96
// 161   ----------------------------------------
	BYTE	W96
// 162   ----------------------------------------
	BYTE	W96
// 163   ----------------------------------------
	BYTE	FINE

//**************** Track 8 (Midi-Chn.8) ****************//

voiceofthesacredwind8850_8:
	BYTE	KEYSH   voiceofthesacredwind8850_key+0
// 000   ----------------------------------------
	BYTE	W96
// 001   ----------------------------------------
	BYTE		VOICE   97
	BYTE		VOL     60*voiceofthesacredwind8850_mvl/mxv
	BYTE		PAN     c_v+0
	BYTE	W24
	BYTE		VOL     100*voiceofthesacredwind8850_mvl/mxv
	BYTE	W24
	BYTE		PAN     c_v+0
	BYTE		MOD     0
	BYTE		BEND    c_v+0
	BYTE	W48
// 002   ----------------------------------------
	BYTE	W96
// 003   ----------------------------------------
	BYTE	W96
// 004   ----------------------------------------
	BYTE	W96
// 005   ----------------------------------------
	BYTE	W96
// 006   ----------------------------------------
	BYTE	W96
// 007   ----------------------------------------
	BYTE	W96
// 008   ----------------------------------------
	BYTE	W96
// 009   ----------------------------------------
	BYTE	W96
// 010   ----------------------------------------
	BYTE	W96
// 011   ----------------------------------------
	BYTE	W96
// 012   ----------------------------------------
	BYTE	W96
// 013   ----------------------------------------
	BYTE	W96
// 014   ----------------------------------------
	BYTE	W96
// 015   ----------------------------------------
	BYTE	W96
// 016   ----------------------------------------
	BYTE	W96
// 017   ----------------------------------------
	BYTE	W96
// 018   ----------------------------------------
	BYTE	W96
// 019   ----------------------------------------
	BYTE	W96
// 020   ----------------------------------------
	BYTE	W96
// 021   ----------------------------------------
	BYTE	W96
// 022   ----------------------------------------
	BYTE	W96
// 023   ----------------------------------------
	BYTE	W96
// 024   ----------------------------------------
	BYTE	W96
// 025   ----------------------------------------
	BYTE	W96
// 026   ----------------------------------------
	BYTE	W96
// 027   ----------------------------------------
	BYTE	W96
// 028   ----------------------------------------
	BYTE	W96
// 029   ----------------------------------------
	BYTE	W96
// 030   ----------------------------------------
	BYTE	W96
// 031   ----------------------------------------
	BYTE	W96
// 032   ----------------------------------------
	BYTE	W96
// 033   ----------------------------------------
	BYTE	W96
// 034   ----------------------------------------
	BYTE	W96
// 035   ----------------------------------------
	BYTE	W96
// 036   ----------------------------------------
	BYTE	W96
// 037   ----------------------------------------
	BYTE	W96
// 038   ----------------------------------------
	BYTE	W96
// 039   ----------------------------------------
	BYTE	W96
// 040   ----------------------------------------
	BYTE	W96
// 041   ----------------------------------------
	BYTE	W96
// 042   ----------------------------------------
	BYTE	W96
// 043   ----------------------------------------
	BYTE	W96
// 044   ----------------------------------------
	BYTE	W96
// 045   ----------------------------------------
	BYTE	W96
// 046   ----------------------------------------
	BYTE	W96
// 047   ----------------------------------------
	BYTE	W96
// 048   ----------------------------------------
	BYTE	W96
// 049   ----------------------------------------
	BYTE	W96
// 050   ----------------------------------------
	BYTE	W96
// 051   ----------------------------------------
	BYTE	W96
// 052   ----------------------------------------
	BYTE	W96
// 053   ----------------------------------------
	BYTE	W96
// 054   ----------------------------------------
	BYTE	W96
// 055   ----------------------------------------
	BYTE	W96
// 056   ----------------------------------------
	BYTE	W96
// 057   ----------------------------------------
	BYTE	W96
// 058   ----------------------------------------
	BYTE		TIE     An3   v060
	BYTE		TIE     Dn4 
	BYTE		TIE     Fn4 
	BYTE		TIE     Dn5 
	BYTE	W96
// 059   ----------------------------------------
	BYTE	W96
// 060   ----------------------------------------
	BYTE	W96
// 061   ----------------------------------------
	BYTE	W96
// 062   ----------------------------------------
	BYTE	W96
// 063   ----------------------------------------
	BYTE	W96
// 064   ----------------------------------------
	BYTE	W96
// 065   ----------------------------------------
	BYTE	W92
	BYTE	W02
	BYTE		EOT     An3 
	BYTE		        Dn4 
	BYTE		        Fn4 
	BYTE		        Dn5 
	BYTE	W02
// 066   ----------------------------------------
	BYTE	W96
// 067   ----------------------------------------
	BYTE	W96
// 068   ----------------------------------------
	BYTE	W96
// 069   ----------------------------------------
	BYTE	W96
// 070   ----------------------------------------
	BYTE	W96
// 071   ----------------------------------------
	BYTE	W96
// 072   ----------------------------------------
	BYTE	W96
// 073   ----------------------------------------
	BYTE	W96
// 074   ----------------------------------------
	BYTE	W96
// 075   ----------------------------------------
	BYTE	W96
// 076   ----------------------------------------
	BYTE	W96
// 077   ----------------------------------------
	BYTE	W96
// 078   ----------------------------------------
	BYTE	W96
// 079   ----------------------------------------
	BYTE	W96
// 080   ----------------------------------------
	BYTE	W96
// 081   ----------------------------------------
	BYTE	W96
// 082   ----------------------------------------
	BYTE	W96
// 083   ----------------------------------------
	BYTE	W96
// 084   ----------------------------------------
	BYTE	W96
// 085   ----------------------------------------
	BYTE	W96
// 086   ----------------------------------------
	BYTE	W96
// 087   ----------------------------------------
	BYTE	W96
// 088   ----------------------------------------
	BYTE	W96
// 089   ----------------------------------------
	BYTE	W96
// 090   ----------------------------------------
	BYTE	W96
// 091   ----------------------------------------
	BYTE	W96
// 092   ----------------------------------------
	BYTE	W96
// 093   ----------------------------------------
	BYTE	W96
// 094   ----------------------------------------
	BYTE	W96
// 095   ----------------------------------------
	BYTE	W96
// 096   ----------------------------------------
	BYTE	W96
// 097   ----------------------------------------
	BYTE	W96
// 098   ----------------------------------------
	BYTE	W96
// 099   ----------------------------------------
	BYTE	W96
// 100   ----------------------------------------
	BYTE	W96
// 101   ----------------------------------------
	BYTE	W96
// 102   ----------------------------------------
	BYTE	W96
// 103   ----------------------------------------
	BYTE	W96
// 104   ----------------------------------------
	BYTE	W96
// 105   ----------------------------------------
	BYTE	W96
// 106   ----------------------------------------
	BYTE	W96
// 107   ----------------------------------------
	BYTE	W96
// 108   ----------------------------------------
	BYTE	W96
// 109   ----------------------------------------
	BYTE	W96
// 110   ----------------------------------------
	BYTE	W96
// 111   ----------------------------------------
	BYTE	W96
// 112   ----------------------------------------
	BYTE	W96
// 113   ----------------------------------------
	BYTE	W96
// 114   ----------------------------------------
	BYTE	W96
// 115   ----------------------------------------
	BYTE	W96
// 116   ----------------------------------------
	BYTE	W96
// 117   ----------------------------------------
	BYTE	W96
// 118   ----------------------------------------
	BYTE	W96
// 119   ----------------------------------------
	BYTE	W96
// 120   ----------------------------------------
	BYTE	W96
// 121   ----------------------------------------
	BYTE	W96
// 122   ----------------------------------------
	BYTE	W96
// 123   ----------------------------------------
	BYTE	W96
// 124   ----------------------------------------
	BYTE	W96
// 125   ----------------------------------------
	BYTE	W96
// 126   ----------------------------------------
	BYTE	W96
// 127   ----------------------------------------
	BYTE	W96
// 128   ----------------------------------------
	BYTE	W96
// 129   ----------------------------------------
	BYTE	W96
// 130   ----------------------------------------
	BYTE	W96
// 131   ----------------------------------------
	BYTE	W96
// 132   ----------------------------------------
	BYTE	W96
// 133   ----------------------------------------
	BYTE	W96
// 134   ----------------------------------------
	BYTE	W96
// 135   ----------------------------------------
	BYTE	W96
// 136   ----------------------------------------
	BYTE	W96
// 137   ----------------------------------------
	BYTE	W96
// 138   ----------------------------------------
	BYTE	W96
// 139   ----------------------------------------
	BYTE	W96
// 140   ----------------------------------------
	BYTE	W96
// 141   ----------------------------------------
	BYTE	W96
// 142   ----------------------------------------
	BYTE	W96
// 143   ----------------------------------------
	BYTE	W96
// 144   ----------------------------------------
	BYTE	W96
// 145   ----------------------------------------
	BYTE	W96
// 146   ----------------------------------------
	BYTE	W96
// 147   ----------------------------------------
	BYTE	W96
// 148   ----------------------------------------
	BYTE	W96
// 149   ----------------------------------------
	BYTE	W96
// 150   ----------------------------------------
	BYTE	W96
// 151   ----------------------------------------
	BYTE	W96
// 152   ----------------------------------------
	BYTE	W96
// 153   ----------------------------------------
	BYTE	W96
// 154   ----------------------------------------
	BYTE	W96
// 155   ----------------------------------------
	BYTE	W96
// 156   ----------------------------------------
	BYTE	W96
// 157   ----------------------------------------
	BYTE	W96
// 158   ----------------------------------------
	BYTE	W96
// 159   ----------------------------------------
	BYTE	W96
// 160   ----------------------------------------
	BYTE	W96
// 161   ----------------------------------------
	BYTE	W96
// 162   ----------------------------------------
	BYTE	W96
// 163   ----------------------------------------
	BYTE	FINE

//**************** Track 9 (Midi-Chn.9) ****************//

voiceofthesacredwind8850_9:
	BYTE	KEYSH   voiceofthesacredwind8850_key+0
// 000   ----------------------------------------
	BYTE	W96
// 001   ----------------------------------------
	BYTE		VOICE   122
	BYTE		VOL     90*voiceofthesacredwind8850_mvl/mxv
	BYTE		PAN     c_v+0
	BYTE	W48
	BYTE		MOD     0
	BYTE		BEND    c_v+0
	BYTE	W24
	BYTE		PAN     c_v+0
	BYTE	W24
// 002   ----------------------------------------
	BYTE	W96
// 003   ----------------------------------------
	BYTE	W96
// 004   ----------------------------------------
	BYTE	W96
// 005   ----------------------------------------
	BYTE	W96
// 006   ----------------------------------------
	BYTE	W96
// 007   ----------------------------------------
	BYTE	W96
// 008   ----------------------------------------
	BYTE	W96
// 009   ----------------------------------------
	BYTE	W96
// 010   ----------------------------------------
	BYTE	W96
// 011   ----------------------------------------
	BYTE	W96
// 012   ----------------------------------------
	BYTE	W96
// 013   ----------------------------------------
	BYTE	W96
// 014   ----------------------------------------
	BYTE	W96
// 015   ----------------------------------------
	BYTE	W96
// 016   ----------------------------------------
	BYTE	W96
// 017   ----------------------------------------
	BYTE	W96
// 018   ----------------------------------------
	BYTE	W96
// 019   ----------------------------------------
	BYTE	W96
// 020   ----------------------------------------
	BYTE	W96
// 021   ----------------------------------------
	BYTE	W96
// 022   ----------------------------------------
	BYTE	W96
// 023   ----------------------------------------
	BYTE	W96
// 024   ----------------------------------------
	BYTE	W96
// 025   ----------------------------------------
	BYTE	W96
// 026   ----------------------------------------
	BYTE	W96
// 027   ----------------------------------------
	BYTE	W96
// 028   ----------------------------------------
	BYTE	W96
// 029   ----------------------------------------
	BYTE	W96
// 030   ----------------------------------------
	BYTE	W96
// 031   ----------------------------------------
	BYTE	W96
// 032   ----------------------------------------
	BYTE	W96
// 033   ----------------------------------------
	BYTE	W96
// 034   ----------------------------------------
	BYTE	W96
// 035   ----------------------------------------
	BYTE	W96
// 036   ----------------------------------------
	BYTE	W96
// 037   ----------------------------------------
	BYTE	W96
// 038   ----------------------------------------
	BYTE	W96
// 039   ----------------------------------------
	BYTE	W96
// 040   ----------------------------------------
	BYTE	W96
// 041   ----------------------------------------
voiceofthesacredwind8850_9_041:
	BYTE	W48
	BYTE		TIE     Gn2   v116
	BYTE	W48
	BYTE	PEND
// 042   ----------------------------------------
	BYTE	W68
	BYTE	W03
	BYTE		EOT   
	BYTE	W24
	BYTE	W01
// 043   ----------------------------------------
	BYTE	W96
// 044   ----------------------------------------
	BYTE	W96
// 045   ----------------------------------------
	BYTE	W96
// 046   ----------------------------------------
	BYTE	W96
// 047   ----------------------------------------
	BYTE	W96
// 048   ----------------------------------------
	BYTE	W96
// 049   ----------------------------------------
	BYTE	W96
// 050   ----------------------------------------
	BYTE	W96
// 051   ----------------------------------------
	BYTE	W96
// 052   ----------------------------------------
	BYTE	W96
// 053   ----------------------------------------
	BYTE	W96
// 054   ----------------------------------------
	BYTE	W96
// 055   ----------------------------------------
	BYTE	W96
// 056   ----------------------------------------
	BYTE	W96
// 057   ----------------------------------------
	BYTE	W96
// 058   ----------------------------------------
	BYTE	W92
	BYTE	W01
	BYTE		PAN     c_v-64
	BYTE	W01
	BYTE		        c_v-64
	BYTE	W02
// 059   ----------------------------------------
	BYTE		TIE     As1   v112
	BYTE	W04
	BYTE		PAN     c_v-63
	BYTE	W05
	BYTE		        c_v-62
	BYTE	W06
	BYTE		        c_v-61
	BYTE	W05
	BYTE		        c_v-60
	BYTE	W05
	BYTE		        c_v-59
	BYTE	W05
	BYTE		        c_v-58
	BYTE	W06
	BYTE		        c_v-57
	BYTE	W05
	BYTE		        c_v-56
	BYTE	W05
	BYTE		        c_v-55
	BYTE	W05
	BYTE		        c_v-54
	BYTE	W06
	BYTE		        c_v-53
	BYTE	W05
	BYTE		        c_v-52
	BYTE	W05
	BYTE		        c_v-51
	BYTE	W05
	BYTE		        c_v-50
	BYTE	W06
	BYTE		        c_v-49
	BYTE	W05
	BYTE		        c_v-48
	BYTE	W05
	BYTE		        c_v-47
	BYTE	W05
	BYTE		        c_v-46
	BYTE	W03
// 060   ----------------------------------------
	BYTE	W03
	BYTE		        c_v-45
	BYTE	W05
	BYTE		        c_v-44
	BYTE	W05
	BYTE		        c_v-43
	BYTE	W05
	BYTE		        c_v-42
	BYTE	W06
	BYTE		        c_v-41
	BYTE	W05
	BYTE		        c_v-40
	BYTE	W05
	BYTE		        c_v-39
	BYTE	W05
	BYTE		        c_v-38
	BYTE	W06
	BYTE		        c_v-37
	BYTE	W05
	BYTE		        c_v-36
	BYTE	W05
	BYTE		        c_v-35
	BYTE	W05
	BYTE		        c_v-34
	BYTE	W06
	BYTE		        c_v-33
	BYTE	W05
	BYTE		        c_v-32
	BYTE	W05
	BYTE		        c_v-31
	BYTE	W05
	BYTE		        c_v-30
	BYTE	W06
	BYTE		        c_v-29
	BYTE	W05
	BYTE		        c_v-28
	BYTE	W04
// 061   ----------------------------------------
	BYTE	W01
	BYTE		        c_v-27
	BYTE	W05
	BYTE		        c_v-26
	BYTE	W06
	BYTE		        c_v-25
	BYTE	W05
	BYTE		        c_v-24
	BYTE	W05
	BYTE		        c_v-23
	BYTE	W02
	BYTE		TIE     Dn0 
	BYTE	W03
	BYTE		PAN     c_v-22
	BYTE	W06
	BYTE		        c_v-21
	BYTE	W05
	BYTE		        c_v-20
	BYTE	W05
	BYTE		        c_v-19
	BYTE	W05
	BYTE		        c_v-18
	BYTE	W06
	BYTE		        c_v-17
	BYTE	W05
	BYTE		        c_v-16
	BYTE	W05
	BYTE		        c_v-15
	BYTE	W05
	BYTE		        c_v-14
	BYTE	W06
	BYTE		        c_v-13
	BYTE	W05
	BYTE		        c_v-12
	BYTE	W05
	BYTE		        c_v-11
	BYTE	W05
	BYTE		        c_v-10
	BYTE	W05
	BYTE		EOT     As1 
	BYTE	W01
// 062   ----------------------------------------
	BYTE		PAN     c_v-9
	BYTE	W05
	BYTE		        c_v-8
	BYTE	W05
	BYTE		        c_v-7
	BYTE	W05
	BYTE		        c_v-6
	BYTE	W06
	BYTE		        c_v-5
	BYTE	W05
	BYTE		        c_v-4
	BYTE	W05
	BYTE		        c_v-3
	BYTE	W05
	BYTE		        c_v-2
	BYTE	W06
	BYTE		        c_v-1
	BYTE	W06
	BYTE		        c_v+0
	BYTE	W05
	BYTE		        c_v+1
	BYTE	W05
	BYTE		        c_v+2
	BYTE	W05
	BYTE		        c_v+3
	BYTE	W06
	BYTE		        c_v+4
	BYTE	W05
	BYTE		        c_v+5
	BYTE	W05
	BYTE		        c_v+6
	BYTE	W05
	BYTE		        c_v+7
	BYTE	W06
	BYTE		        c_v+8
	BYTE	W05
	BYTE		        c_v+9
	BYTE	W01
// 063   ----------------------------------------
	BYTE	W04
	BYTE		        c_v+10
	BYTE	W05
	BYTE		        c_v+11
	BYTE	W06
	BYTE		        c_v+12
	BYTE	W05
	BYTE		        c_v+13
	BYTE	W05
	BYTE		        c_v+14
	BYTE	W05
	BYTE		        c_v+15
	BYTE	W06
	BYTE		        c_v+16
	BYTE	W05
	BYTE		        c_v+17
	BYTE	W05
	BYTE		        c_v+18
	BYTE	W05
	BYTE		        c_v+19
	BYTE	W06
	BYTE		        c_v+20
	BYTE	W05
	BYTE		        c_v+21
	BYTE	W05
	BYTE		        c_v+22
	BYTE	W05
	BYTE		        c_v+23
	BYTE	W06
	BYTE		        c_v+24
	BYTE	W05
	BYTE		        c_v+25
	BYTE	W05
	BYTE		        c_v+26
	BYTE	W05
	BYTE		        c_v+27
	BYTE	W03
// 064   ----------------------------------------
	BYTE	W03
	BYTE		        c_v+28
	BYTE	W05
	BYTE		        c_v+29
	BYTE	W05
	BYTE		        c_v+30
	BYTE	W05
	BYTE		        c_v+31
	BYTE	W06
	BYTE		        c_v+32
	BYTE	W05
	BYTE		        c_v+33
	BYTE	W05
	BYTE		        c_v+34
	BYTE	W05
	BYTE		        c_v+35
	BYTE	W06
	BYTE		        c_v+36
	BYTE	W05
	BYTE		        c_v+37
	BYTE	W05
	BYTE		        c_v+38
	BYTE	W05
	BYTE		        c_v+39
	BYTE	W06
	BYTE		        c_v+40
	BYTE	W05
	BYTE		        c_v+41
	BYTE	W05
	BYTE		        c_v+42
	BYTE	W05
	BYTE		        c_v+43
	BYTE	W06
	BYTE		        c_v+44
	BYTE	W05
	BYTE		        c_v+45
	BYTE	W03
	BYTE		EOT     Dn0 
	BYTE	W01
// 065   ----------------------------------------
	BYTE	W01
	BYTE		PAN     c_v+46
	BYTE	W05
	BYTE		        c_v+47
	BYTE	W06
	BYTE		        c_v+48
	BYTE	W05
	BYTE		        c_v+49
	BYTE	W05
	BYTE		        c_v+50
	BYTE	W05
	BYTE		        c_v+51
	BYTE	W06
	BYTE		        c_v+52
	BYTE	W05
	BYTE		        c_v+53
	BYTE	W05
	BYTE		        c_v+54
	BYTE	W05
	BYTE		        c_v+55
	BYTE	W06
	BYTE		        c_v+56
	BYTE	W05
	BYTE		        c_v+57
	BYTE	W05
	BYTE		        c_v+58
	BYTE	W05
	BYTE		        c_v+59
	BYTE	W06
	BYTE		        c_v+60
	BYTE	W05
	BYTE		        c_v+61
	BYTE	W05
	BYTE		        c_v+62
	BYTE	W06
	BYTE		        c_v+63
	BYTE	W05
// 066   ----------------------------------------
	BYTE	W96
// 067   ----------------------------------------
	BYTE		        c_v+0
	BYTE	W96
// 068   ----------------------------------------
	BYTE	W96
// 069   ----------------------------------------
	BYTE	W96
// 070   ----------------------------------------
	BYTE	W96
// 071   ----------------------------------------
	BYTE	W96
// 072   ----------------------------------------
	BYTE	W96
// 073   ----------------------------------------
	BYTE	W96
// 074   ----------------------------------------
	BYTE	W96
// 075   ----------------------------------------
	BYTE	W96
// 076   ----------------------------------------
	BYTE	W96
// 077   ----------------------------------------
	BYTE	W96
// 078   ----------------------------------------
	BYTE	W96
// 079   ----------------------------------------
	BYTE	W96
// 080   ----------------------------------------
	BYTE	W96
// 081   ----------------------------------------
	BYTE	W96
// 082   ----------------------------------------
	BYTE	W96
// 083   ----------------------------------------
	BYTE	W96
// 084   ----------------------------------------
	BYTE	W96
// 085   ----------------------------------------
	BYTE	W96
// 086   ----------------------------------------
	BYTE	W96
// 087   ----------------------------------------
	BYTE	W96
// 088   ----------------------------------------
	BYTE	W96
// 089   ----------------------------------------
	BYTE	W96
// 090   ----------------------------------------
	BYTE	W96
// 091   ----------------------------------------
	BYTE	W96
// 092   ----------------------------------------
	BYTE	W96
// 093   ----------------------------------------
	BYTE	W96
// 094   ----------------------------------------
	BYTE	W96
// 095   ----------------------------------------
	BYTE	W96
// 096   ----------------------------------------
	BYTE	W96
// 097   ----------------------------------------
	BYTE	W96
// 098   ----------------------------------------
	BYTE	W96
// 099   ----------------------------------------
	BYTE	W96
// 100   ----------------------------------------
	BYTE	W96
// 101   ----------------------------------------
	BYTE	W96
// 102   ----------------------------------------
	BYTE	W96
// 103   ----------------------------------------
	BYTE	W96
// 104   ----------------------------------------
	BYTE	W96
// 105   ----------------------------------------
	BYTE	W96
// 106   ----------------------------------------
	BYTE	W96
// 107   ----------------------------------------
	BYTE	W96
// 108   ----------------------------------------
	BYTE	W96
// 109   ----------------------------------------
	BYTE	W96
// 110   ----------------------------------------
	BYTE	W96
// 111   ----------------------------------------
	BYTE	W96
// 112   ----------------------------------------
	BYTE	W96
// 113   ----------------------------------------
	BYTE	W96
// 114   ----------------------------------------
	BYTE	W96
// 115   ----------------------------------------
	BYTE	W96
// 116   ----------------------------------------
	BYTE	W96
// 117   ----------------------------------------
	BYTE	W96
// 118   ----------------------------------------
	BYTE	W96
// 119   ----------------------------------------
	BYTE	W96
// 120   ----------------------------------------
	BYTE	W96
// 121   ----------------------------------------
	BYTE	W96
// 122   ----------------------------------------
	BYTE	PATT
	 POIN2	voiceofthesacredwind8850_9_041
// 123   ----------------------------------------
	BYTE	W68
	BYTE	W03
	BYTE		EOT     Gn2 
	BYTE	W24
	BYTE	W01
// 124   ----------------------------------------
	BYTE	W96
// 125   ----------------------------------------
	BYTE	W96
// 126   ----------------------------------------
	BYTE	W96
// 127   ----------------------------------------
	BYTE	W96
// 128   ----------------------------------------
	BYTE	W96
// 129   ----------------------------------------
	BYTE	W96
// 130   ----------------------------------------
	BYTE	W96
// 131   ----------------------------------------
	BYTE	W96
// 132   ----------------------------------------
	BYTE	W96
// 133   ----------------------------------------
	BYTE	W96
// 134   ----------------------------------------
	BYTE	W96
// 135   ----------------------------------------
	BYTE	W96
// 136   ----------------------------------------
	BYTE	W96
// 137   ----------------------------------------
	BYTE	PATT
	 POIN2	voiceofthesacredwind8850_9_041
// 138   ----------------------------------------
	BYTE	W68
	BYTE	W03
	BYTE		EOT     Gn2 
	BYTE	W24
	BYTE	W01
// 139   ----------------------------------------
	BYTE	W96
// 140   ----------------------------------------
	BYTE	W96
// 141   ----------------------------------------
	BYTE	W96
// 142   ----------------------------------------
	BYTE	W96
// 143   ----------------------------------------
	BYTE	W96
// 144   ----------------------------------------
	BYTE	W96
// 145   ----------------------------------------
	BYTE	W96
// 146   ----------------------------------------
	BYTE	W96
// 147   ----------------------------------------
	BYTE	W96
// 148   ----------------------------------------
	BYTE	W96
// 149   ----------------------------------------
	BYTE	W96
// 150   ----------------------------------------
	BYTE	W96
// 151   ----------------------------------------
	BYTE	W96
// 152   ----------------------------------------
	BYTE	W96
// 153   ----------------------------------------
	BYTE	W96
// 154   ----------------------------------------
	BYTE	W96
// 155   ----------------------------------------
	BYTE	W96
// 156   ----------------------------------------
	BYTE	W96
// 157   ----------------------------------------
	BYTE	W96
// 158   ----------------------------------------
	BYTE	W96
// 159   ----------------------------------------
	BYTE	W96
// 160   ----------------------------------------
	BYTE	W96
// 161   ----------------------------------------
	BYTE	W96
// 162   ----------------------------------------
	BYTE	W96
// 163   ----------------------------------------
	BYTE	FINE

//**************** Track 10 (Midi-Chn.10) ****************//

voiceofthesacredwind8850_10:
	BYTE	KEYSH   voiceofthesacredwind8850_key+0
// 000   ----------------------------------------
	BYTE	W96
// 001   ----------------------------------------
	BYTE		VOICE   1
	BYTE		VOL     108*voiceofthesacredwind8850_mvl/mxv
	BYTE		PAN     c_v+0
	BYTE	W48
	BYTE		MOD     0
	BYTE		BEND    c_v+0
	BYTE	W24
	BYTE		N02     AnM2  v112
	BYTE		N02     Gn1 
	BYTE		N02     Gn2   v127
	BYTE	W12
	BYTE		        AnM2  v112
	BYTE		N02     Cs2   v127
	BYTE	W12
// 002   ----------------------------------------
voiceofthesacredwind8850_10_002:
	BYTE		N02     Fs1   v120
	BYTE	W12
	BYTE		        As1 
	BYTE	W06
	BYTE		        Gs1 
	BYTE	W06
	BYTE		        Fs1 
	BYTE		N02     An6   v112
	BYTE	W12
	BYTE		        AnM2
	BYTE		N02     As1   v120
	BYTE	W06
	BYTE		        Gs1 
	BYTE		N02     An6   v112
	BYTE	W06
	BYTE		        Fs1   v120
	BYTE	W12
	BYTE		        AnM2  v112
	BYTE		N02     As1   v120
	BYTE		N02     An6   v112
	BYTE	W06
	BYTE		        Gs1   v120
	BYTE	W06
	BYTE		        Fs1 
	BYTE	W06
	BYTE		        AnM2  v112
	BYTE		N02     An6 
	BYTE	W06
	BYTE		        As1   v120
	BYTE	W06
	BYTE		        Gs1 
	BYTE	W06
	BYTE	PEND
// 003   ----------------------------------------
voiceofthesacredwind8850_10_003:
	BYTE		N02     AnM2  v112
	BYTE		N02     Fs1   v120
	BYTE	W12
	BYTE		        As1 
	BYTE	W06
	BYTE		        Gs1 
	BYTE	W06
	BYTE		        Fs1 
	BYTE		N02     An6   v112
	BYTE	W12
	BYTE		        AnM2
	BYTE		N02     As1   v120
	BYTE	W06
	BYTE		        Gs1 
	BYTE		N02     An6   v112
	BYTE	W06
	BYTE		        Fs1   v120
	BYTE	W12
	BYTE		        AnM2  v112
	BYTE		N02     As1   v120
	BYTE		N02     An6   v112
	BYTE	W06
	BYTE		        Gs1   v120
	BYTE	W06
	BYTE		        Fs1 
	BYTE	W06
	BYTE		        AnM2  v112
	BYTE		N02     An6 
	BYTE	W06
	BYTE		        As1   v120
	BYTE	W06
	BYTE		        Gs1 
	BYTE	W06
	BYTE	PEND
// 004   ----------------------------------------
voiceofthesacredwind8850_10_004:
	BYTE		N02     AnM2  v112
	BYTE		N02     Fs1   v120
	BYTE	W12
	BYTE		        As1 
	BYTE	W06
	BYTE		        Gs1 
	BYTE	W06
	BYTE		        Fs1 
	BYTE		N02     An6   v112
	BYTE	W12
	BYTE		        AnM2
	BYTE		N02     As1   v120
	BYTE	W06
	BYTE		        Gs1 
	BYTE		N02     An6   v112
	BYTE	W06
	BYTE		        Fs1   v120
	BYTE	W12
	BYTE		        AnM2  v112
	BYTE		N02     As1   v120
	BYTE		N02     An6   v112
	BYTE	W06
	BYTE		        Gs1   v120
	BYTE	W06
	BYTE		        Fs1 
	BYTE		N02     An6   v112
	BYTE	W12
	BYTE		        AnM2
	BYTE		N02     As1   v120
	BYTE		N02     An2   v127
	BYTE		N02     An6   v112
	BYTE	W06
	BYTE		        Gs1   v120
	BYTE	W06
	BYTE	PEND
// 005   ----------------------------------------
voiceofthesacredwind8850_10_005:
	BYTE		N02     Fs1   v120
	BYTE	W12
	BYTE		        As1 
	BYTE	W06
	BYTE		        Gs1 
	BYTE	W06
	BYTE		        AnM2  v112
	BYTE		N02     Fs1   v120
	BYTE	W12
	BYTE		        AnM2  v112
	BYTE		N02     As1   v120
	BYTE		N02     An6   v112
	BYTE	W06
	BYTE		        Gs1   v120
	BYTE	W06
	BYTE		        Fs1 
	BYTE	W12
	BYTE		        AnM2  v112
	BYTE		N02     As1   v120
	BYTE		N02     An6   v112
	BYTE	W06
	BYTE		        Gs1   v120
	BYTE	W06
	BYTE		        AnM2  v112
	BYTE		N02     Fs1   v120
	BYTE		N02     An6   v112
	BYTE	W12
	BYTE		        AnM2
	BYTE		N02     As1   v120
	BYTE		N02     An2   v127
	BYTE	W06
	BYTE		        Gs1   v120
	BYTE	W06
	BYTE	PEND
// 006   ----------------------------------------
voiceofthesacredwind8850_10_006:
	BYTE		N02     Fs1   v120
	BYTE	W12
	BYTE		N02   
	BYTE	W06
	BYTE		        As1 
	BYTE	W06
	BYTE		        AnM2  v112
	BYTE		N02     Fs1   v120
	BYTE		N02     An6   v112
	BYTE	W12
	BYTE		        Fs1   v120
	BYTE	W06
	BYTE		        As1 
	BYTE	W06
	BYTE		        AnM2  v112
	BYTE		N02     Fs1   v120
	BYTE	W12
	BYTE		N02   
	BYTE	W06
	BYTE		        As1 
	BYTE	W06
	BYTE		        AnM2  v112
	BYTE		N02     Fs1   v120
	BYTE		N02     An6   v112
	BYTE	W12
	BYTE		        Fs1   v120
	BYTE	W06
	BYTE		        As1 
	BYTE	W06
	BYTE	PEND
// 007   ----------------------------------------
voiceofthesacredwind8850_10_007:
	BYTE		N02     AnM2  v112
	BYTE		N02     Fs1   v120
	BYTE	W12
	BYTE		N02   
	BYTE	W06
	BYTE		        As1 
	BYTE	W06
	BYTE		        AnM2  v112
	BYTE		N02     Fs1   v120
	BYTE		N02     An6   v112
	BYTE	W12
	BYTE		        Fs1   v120
	BYTE	W06
	BYTE		        As1 
	BYTE	W06
	BYTE		        AnM2  v112
	BYTE		N02     Fs1   v120
	BYTE	W12
	BYTE		N02   
	BYTE	W06
	BYTE		        As1 
	BYTE	W06
	BYTE		        AnM2  v112
	BYTE		N02     Fs1   v120
	BYTE		N02     An6   v112
	BYTE	W12
	BYTE		        Fs1   v120
	BYTE	W06
	BYTE		        As1 
	BYTE	W06
	BYTE	PEND
// 008   ----------------------------------------
voiceofthesacredwind8850_10_008:
	BYTE		N02     AnM2  v112
	BYTE		N02     Fs1   v120
	BYTE	W12
	BYTE		N02   
	BYTE	W06
	BYTE		        As1 
	BYTE	W06
	BYTE		        AnM2  v112
	BYTE		N02     Fs1   v120
	BYTE	W12
	BYTE		N02   
	BYTE		N02     An6   v112
	BYTE	W06
	BYTE		        As1   v120
	BYTE	W06
	BYTE		        AnM2  v112
	BYTE		N02     Fs1   v120
	BYTE	W12
	BYTE		N02   
	BYTE		N02     An6   v112
	BYTE	W06
	BYTE		        As1   v120
	BYTE	W06
	BYTE		        AnM2  v112
	BYTE		N02     Fs1   v120
	BYTE	W06
	BYTE		        An6   v112
	BYTE	W06
	BYTE		        Fs1   v120
	BYTE		N02     Bn1   v100
	BYTE	W06
	BYTE		        Fn1 
	BYTE		N02     As1   v120
	BYTE	W06
	BYTE	PEND
// 009   ----------------------------------------
voiceofthesacredwind8850_10_009:
	BYTE		N02     AnM2  v112
	BYTE		N02     Fs1   v120
	BYTE		N02     An6   v112
	BYTE	W06
	BYTE		        As1   v120
	BYTE	W30
	BYTE		        AnM2  v112
	BYTE		N02     As1   v120
	BYTE		N02     An6   v112
	BYTE	W06
	BYTE		        As1   v120
	BYTE		N02     An6   v112
	BYTE	W30
	BYTE		        AnM2
	BYTE		N02     Gn2 
	BYTE		N02     An6 
	BYTE	W24
	BYTE	PEND
// 010   ----------------------------------------
voiceofthesacredwind8850_10_010:
	BYTE		N02     AnM2  v112
	BYTE		N02     Fs1   v120
	BYTE		N02     Cs2   v127
	BYTE	W12
	BYTE		        As1   v120
	BYTE	W06
	BYTE		        Gs1 
	BYTE	W06
	BYTE		        Fs1 
	BYTE		N02     An6   v112
	BYTE	W12
	BYTE		        AnM2
	BYTE		N02     As1   v120
	BYTE	W06
	BYTE		        Gs1 
	BYTE		N02     An6   v112
	BYTE	W06
	BYTE		        Fs1   v120
	BYTE	W12
	BYTE		        AnM2  v112
	BYTE		N02     As1   v120
	BYTE		N02     An6   v112
	BYTE	W06
	BYTE		        Gs1   v120
	BYTE	W06
	BYTE		        Fs1 
	BYTE	W06
	BYTE		        AnM2  v112
	BYTE		N02     An6 
	BYTE	W06
	BYTE		        As1   v120
	BYTE	W06
	BYTE		        Gs1 
	BYTE	W06
	BYTE	PEND
// 011   ----------------------------------------
	BYTE	PATT
	 POIN2	voiceofthesacredwind8850_10_003
// 012   ----------------------------------------
	BYTE	PATT
	 POIN2	voiceofthesacredwind8850_10_003
// 013   ----------------------------------------
voiceofthesacredwind8850_10_013:
	BYTE		N02     AnM2  v112
	BYTE		N02     Fs1   v120
	BYTE	W12
	BYTE		        As1 
	BYTE	W06
	BYTE		        Gs1 
	BYTE	W06
	BYTE		        Fs1 
	BYTE		N02     An6   v112
	BYTE	W12
	BYTE		        AnM2
	BYTE		N02     As1   v120
	BYTE	W06
	BYTE		        Gs1 
	BYTE		N02     An6   v112
	BYTE	W06
	BYTE		        Fs1   v120
	BYTE	W12
	BYTE		        AnM2  v112
	BYTE		N02     As1   v120
	BYTE		N02     An6   v112
	BYTE	W06
	BYTE		        Gs1   v120
	BYTE	W06
	BYTE		        Fs1 
	BYTE	W06
	BYTE		        AnM2  v112
	BYTE		N02     An6 
	BYTE	W06
	BYTE		        As1   v120
	BYTE		N02     Bn1   v100
	BYTE	W06
	BYTE		        Fn1 
	BYTE		N02     Gs1   v120
	BYTE	W06
	BYTE	PEND
// 014   ----------------------------------------
voiceofthesacredwind8850_10_014:
	BYTE		N02     AnM2  v112
	BYTE		N02     Fs1   v120
	BYTE		N02     An2   v127
	BYTE	W12
	BYTE		        As1   v120
	BYTE	W06
	BYTE		        Gs1 
	BYTE	W06
	BYTE		        Fs1 
	BYTE		N02     An6   v112
	BYTE	W12
	BYTE		        AnM2
	BYTE		N02     As1   v120
	BYTE	W06
	BYTE		        Gs1 
	BYTE		N02     An6   v112
	BYTE	W06
	BYTE		        Fs1   v120
	BYTE	W12
	BYTE		        AnM2  v112
	BYTE		N02     As1   v120
	BYTE		N02     An6   v112
	BYTE	W06
	BYTE		        Gs1   v120
	BYTE	W06
	BYTE		        Fs1 
	BYTE	W06
	BYTE		        AnM2  v112
	BYTE		N02     An6 
	BYTE	W06
	BYTE		        As1   v120
	BYTE	W06
	BYTE		        Gs1 
	BYTE	W06
	BYTE	PEND
// 015   ----------------------------------------
	BYTE	PATT
	 POIN2	voiceofthesacredwind8850_10_003
// 016   ----------------------------------------
	BYTE	PATT
	 POIN2	voiceofthesacredwind8850_10_003
// 017   ----------------------------------------
voiceofthesacredwind8850_10_017:
	BYTE		N02     AnM2  v112
	BYTE		N02     Fs1   v120
	BYTE	W12
	BYTE		        As1 
	BYTE	W06
	BYTE		        Gs1 
	BYTE	W06
	BYTE		        Fs1 
	BYTE		N02     An6   v112
	BYTE	W12
	BYTE		        AnM2
	BYTE		N02     As1   v120
	BYTE	W06
	BYTE		        Gs1 
	BYTE		N02     An6   v112
	BYTE	W06
	BYTE		        AnM2
	BYTE		N02     Fs1   v120
	BYTE	W12
	BYTE		        AnM2  v112
	BYTE		N02     As1   v120
	BYTE	W06
	BYTE		        Gs1 
	BYTE		N02     An6   v112
	BYTE	W06
	BYTE		        AnM2
	BYTE		N02     Fs1   v120
	BYTE	W06
	BYTE		        An6   v112
	BYTE	W06
	BYTE		        AnM2
	BYTE		N02     As1   v120
	BYTE		N02     Bn1   v100
	BYTE	W06
	BYTE		        Fn1 
	BYTE		N02     Gs1   v120
	BYTE	W06
	BYTE	PEND
// 018   ----------------------------------------
	BYTE	PATT
	 POIN2	voiceofthesacredwind8850_10_010
// 019   ----------------------------------------
	BYTE	PATT
	 POIN2	voiceofthesacredwind8850_10_003
// 020   ----------------------------------------
	BYTE	PATT
	 POIN2	voiceofthesacredwind8850_10_003
// 021   ----------------------------------------
	BYTE	PATT
	 POIN2	voiceofthesacredwind8850_10_013
// 022   ----------------------------------------
	BYTE	PATT
	 POIN2	voiceofthesacredwind8850_10_014
// 023   ----------------------------------------
	BYTE	PATT
	 POIN2	voiceofthesacredwind8850_10_003
// 024   ----------------------------------------
	BYTE	PATT
	 POIN2	voiceofthesacredwind8850_10_003
// 025   ----------------------------------------
voiceofthesacredwind8850_10_025:
	BYTE		N02     AnM2  v112
	BYTE		N02     Fs1   v120
	BYTE	W12
	BYTE		        As1 
	BYTE	W06
	BYTE		        Gs1 
	BYTE	W06
	BYTE		        Fs1 
	BYTE		N02     An6   v112
	BYTE	W12
	BYTE		        AnM2
	BYTE		N02     As1   v120
	BYTE	W06
	BYTE		        Gs1 
	BYTE		N02     An6   v112
	BYTE	W06
	BYTE		        AnM2
	BYTE		N02     Fs1   v120
	BYTE		N02     An6   v112
	BYTE	W06
	BYTE		        Cn2   v100
	BYTE	W06
	BYTE		        Gn1 
	BYTE		N02     As1   v120
	BYTE	W06
	BYTE		        AnM2  v112
	BYTE		N02     Gs1   v120
	BYTE		N02     An6   v112
	BYTE	W06
	BYTE		        Fs1   v120
	BYTE		N02     Bn1   v100
	BYTE	W06
	BYTE		        Fn1 
	BYTE	W06
	BYTE		        AnM2  v112
	BYTE		N02     As1   v120
	BYTE		N02     An6   v112
	BYTE	W06
	BYTE		        Gs1   v120
	BYTE		N02     An6   v112
	BYTE	W06
	BYTE	PEND
// 026   ----------------------------------------
voiceofthesacredwind8850_10_026:
	BYTE		N02     AnM2  v112
	BYTE		N02     Fs1   v120
	BYTE		N02     Cs2   v127
	BYTE	W06
	BYTE		        Fs1   v120
	BYTE	W06
	BYTE		        As1 
	BYTE	W06
	BYTE		        Gs1 
	BYTE	W06
	BYTE		        AnM2  v112
	BYTE		N02     Ds1 
	BYTE		N02     Fs1   v120
	BYTE		N02     An6   v112
	BYTE	W06
	BYTE		        Fs1   v120
	BYTE	W06
	BYTE		        As1 
	BYTE	W06
	BYTE		        Gs1 
	BYTE	W06
	BYTE		        AnM2  v112
	BYTE		N02     Fs1   v120
	BYTE	W06
	BYTE		N02   
	BYTE	W06
	BYTE		        As1 
	BYTE	W06
	BYTE		        Gs1 
	BYTE	W06
	BYTE		        AnM2  v112
	BYTE		N02     Ds1 
	BYTE		N02     Fs1   v120
	BYTE		N02     An6   v112
	BYTE	W06
	BYTE		        Fs1   v120
	BYTE	W06
	BYTE		        As1 
	BYTE	W06
	BYTE		        Gs1 
	BYTE	W06
	BYTE	PEND
// 027   ----------------------------------------
voiceofthesacredwind8850_10_027:
	BYTE		N02     AnM2  v112
	BYTE		N02     Fs1   v120
	BYTE	W06
	BYTE		N02   
	BYTE	W06
	BYTE		        As1 
	BYTE	W06
	BYTE		        Gs1 
	BYTE	W06
	BYTE		        AnM2  v112
	BYTE		N02     Ds1 
	BYTE		N02     Fs1   v120
	BYTE		N02     An6   v112
	BYTE	W06
	BYTE		        Fs1   v120
	BYTE	W06
	BYTE		        As1 
	BYTE	W06
	BYTE		        Gs1 
	BYTE	W06
	BYTE		        AnM2  v112
	BYTE		N02     Fs1   v120
	BYTE	W06
	BYTE		N02   
	BYTE	W06
	BYTE		        As1 
	BYTE	W06
	BYTE		        Gs1 
	BYTE	W06
	BYTE		        AnM2  v112
	BYTE		N02     Ds1 
	BYTE		N02     Fs1   v120
	BYTE		N02     An6   v112
	BYTE	W06
	BYTE		        Fs1   v120
	BYTE	W06
	BYTE		        As1 
	BYTE	W06
	BYTE		        Gs1 
	BYTE	W06
	BYTE	PEND
// 028   ----------------------------------------
	BYTE	PATT
	 POIN2	voiceofthesacredwind8850_10_027
// 029   ----------------------------------------
	BYTE	PATT
	 POIN2	voiceofthesacredwind8850_10_027
// 030   ----------------------------------------
voiceofthesacredwind8850_10_030:
	BYTE		N02     AnM2  v112
	BYTE		N02     Fs1   v120
	BYTE		N02     An2   v127
	BYTE	W06
	BYTE		        Fs1   v120
	BYTE	W06
	BYTE		        As1 
	BYTE	W06
	BYTE		        Gs1 
	BYTE	W06
	BYTE		        AnM2  v112
	BYTE		N02     Ds1 
	BYTE		N02     Fs1   v120
	BYTE		N02     An6   v112
	BYTE	W06
	BYTE		        Fs1   v120
	BYTE	W06
	BYTE		        As1 
	BYTE	W06
	BYTE		        Gs1 
	BYTE	W06
	BYTE		        AnM2  v112
	BYTE		N02     Fs1   v120
	BYTE	W06
	BYTE		N02   
	BYTE	W06
	BYTE		        As1 
	BYTE	W06
	BYTE		        Gs1 
	BYTE	W06
	BYTE		        AnM2  v112
	BYTE		N02     Ds1 
	BYTE		N02     Fs1   v120
	BYTE		N02     An6   v112
	BYTE	W06
	BYTE		        Fs1   v120
	BYTE	W06
	BYTE		        As1 
	BYTE	W06
	BYTE		        Gs1 
	BYTE	W06
	BYTE	PEND
// 031   ----------------------------------------
	BYTE	PATT
	 POIN2	voiceofthesacredwind8850_10_027
// 032   ----------------------------------------
	BYTE	PATT
	 POIN2	voiceofthesacredwind8850_10_027
// 033   ----------------------------------------
voiceofthesacredwind8850_10_033:
	BYTE		N02     AnM2  v112
	BYTE		N02     Fs1   v120
	BYTE	W06
	BYTE		N02   
	BYTE	W06
	BYTE		        As1 
	BYTE	W06
	BYTE		        Gs1 
	BYTE	W06
	BYTE		        AnM2  v112
	BYTE		N02     Ds1 
	BYTE		N02     Fs1   v120
	BYTE		N02     An6   v112
	BYTE	W06
	BYTE		        Fs1   v120
	BYTE	W06
	BYTE		        As1 
	BYTE	W06
	BYTE		        Gs1 
	BYTE	W06
	BYTE		        AnM2  v112
	BYTE		N02     Fs1   v120
	BYTE	W06
	BYTE		N02   
	BYTE	W06
	BYTE		        As1 
	BYTE	W06
	BYTE		        Gs1 
	BYTE	W06
	BYTE		        AnM2  v112
	BYTE		N02     Ds1 
	BYTE		N02     Fs1   v120
	BYTE		N02     An6   v112
	BYTE	W06
	BYTE		        Fs1   v120
	BYTE	W06
	BYTE		        AnM2  v112
	BYTE		N02     As1   v120
	BYTE	W06
	BYTE		        Gs1 
	BYTE		N02     An6   v112
	BYTE	W06
	BYTE	PEND
// 034   ----------------------------------------
	BYTE	PATT
	 POIN2	voiceofthesacredwind8850_10_026
// 035   ----------------------------------------
	BYTE	PATT
	 POIN2	voiceofthesacredwind8850_10_027
// 036   ----------------------------------------
	BYTE	PATT
	 POIN2	voiceofthesacredwind8850_10_027
// 037   ----------------------------------------
voiceofthesacredwind8850_10_037:
	BYTE		N02     AnM2  v112
	BYTE		N02     Fs1   v120
	BYTE	W06
	BYTE		N02   
	BYTE	W06
	BYTE		        As1 
	BYTE		N02     An6   v112
	BYTE	W06
	BYTE		        Gs1   v120
	BYTE	W06
	BYTE		        AnM2  v112
	BYTE		N02     Ds1 
	BYTE		N02     Fs1   v120
	BYTE	W06
	BYTE		N02   
	BYTE	W06
	BYTE		        As1 
	BYTE		N02     An6   v112
	BYTE	W06
	BYTE		        AnM2
	BYTE		N02     Cs2   v127
	BYTE		N02     An6   v112
	BYTE	W06
	BYTE		        Fs1   v120
	BYTE	W06
	BYTE		N02   
	BYTE	W06
	BYTE		        AnM2  v112
	BYTE		N02     As1   v120
	BYTE		N02     Fn2   v127
	BYTE		N02     An6   v112
	BYTE	W06
	BYTE		        Gs1   v120
	BYTE	W06
	BYTE		        Fs1 
	BYTE	W06
	BYTE		        AnM2  v112
	BYTE		N02     Fs1   v120
	BYTE		N02     Fn2   v127
	BYTE		N02     An6   v112
	BYTE	W06
	BYTE		        As1   v120
	BYTE	W06
	BYTE		        Gs1 
	BYTE	W06
	BYTE	PEND
// 038   ----------------------------------------
voiceofthesacredwind8850_10_038:
	BYTE		N02     AnM2  v112
	BYTE		N02     Fs1   v120
	BYTE		N02     An2   v127
	BYTE	W06
	BYTE		        Fs1   v120
	BYTE	W06
	BYTE		        As1 
	BYTE	W06
	BYTE		        Gs1 
	BYTE	W06
	BYTE		        AnM2  v112
	BYTE		N02     Ds1 
	BYTE		N02     As1   v120
	BYTE		N02     An6   v112
	BYTE	W06
	BYTE		        Fs1   v120
	BYTE	W06
	BYTE		        As1 
	BYTE		N02     An6   v112
	BYTE	W06
	BYTE		N02   
	BYTE	W06
	BYTE		        AnM2
	BYTE		N02     An6 
	BYTE	W12
	BYTE		        AnM2
	BYTE		N02     Fn2   v127
	BYTE		N02     An6   v112
	BYTE	W18
	BYTE		        AnM2
	BYTE		N02     Fn2   v127
	BYTE		N02     An6   v112
	BYTE	W18
	BYTE	PEND
// 039   ----------------------------------------
voiceofthesacredwind8850_10_039:
	BYTE		N02     AnM2  v112
	BYTE		N02     Fs1   v120
	BYTE		N02     An2   v127
	BYTE	W06
	BYTE		        Fs1   v120
	BYTE	W06
	BYTE		        As1 
	BYTE	W06
	BYTE		        Gs1 
	BYTE	W06
	BYTE		        AnM2  v112
	BYTE		N02     Ds1 
	BYTE		N02     Fs1   v120
	BYTE		N02     An6   v112
	BYTE	W06
	BYTE		        Fs1   v120
	BYTE	W06
	BYTE		        As1 
	BYTE	W06
	BYTE		        Gs1 
	BYTE	W06
	BYTE		        AnM2  v112
	BYTE		N02     Fs1   v120
	BYTE	W06
	BYTE		N02   
	BYTE	W06
	BYTE		        AnM2  v112
	BYTE		N02     As1   v120
	BYTE		N02     An6   v112
	BYTE	W06
	BYTE		        Gs1   v120
	BYTE	W06
	BYTE		        AnM2  v112
	BYTE		N02     Fs1   v120
	BYTE		N02     An6   v112
	BYTE	W06
	BYTE		        Fs1   v120
	BYTE	W06
	BYTE		        AnM2  v112
	BYTE		N02     Ds1 
	BYTE		N02     Cs2   v127
	BYTE		N02     An6   v112
	BYTE	W12
	BYTE	PEND
// 040   ----------------------------------------
voiceofthesacredwind8850_10_040:
	BYTE		N02     Fs1   v120
	BYTE	W06
	BYTE		N02   
	BYTE	W06
	BYTE		        AnM2  v112
	BYTE		N02     As1   v120
	BYTE	W06
	BYTE		        Gs1 
	BYTE	W06
	BYTE		        AnM2  v112
	BYTE		N02     Ds1 
	BYTE		N02     Fs1   v120
	BYTE		N02     An6   v112
	BYTE	W06
	BYTE		        Fs1   v120
	BYTE	W06
	BYTE		        As1 
	BYTE	W06
	BYTE		        Gs1 
	BYTE	W06
	BYTE		        AnM2  v112
	BYTE		N02     Fs1   v120
	BYTE	W06
	BYTE		N02   
	BYTE	W06
	BYTE		        As1 
	BYTE	W06
	BYTE		        Gs1 
	BYTE	W06
	BYTE		        AnM2  v112
	BYTE		N02     Ds1 
	BYTE		N02     Fs1   v120
	BYTE		N02     An6   v112
	BYTE	W06
	BYTE		        Fs1   v120
	BYTE	W06
	BYTE		        As1 
	BYTE	W06
	BYTE		        Gs1 
	BYTE	W06
	BYTE	PEND
// 041   ----------------------------------------
voiceofthesacredwind8850_10_041:
	BYTE		N02     AnM2  v112
	BYTE		N02     Fs1   v120
	BYTE	W06
	BYTE		N02   
	BYTE	W06
	BYTE		        As1 
	BYTE	W06
	BYTE		        Gs1 
	BYTE	W06
	BYTE		        AnM2  v112
	BYTE		N02     Ds1 
	BYTE		N02     Fs1   v120
	BYTE		N02     An6   v112
	BYTE	W06
	BYTE		        Fs1   v120
	BYTE	W06
	BYTE		        As1 
	BYTE	W06
	BYTE		        Gs1 
	BYTE	W06
	BYTE		        AnM2  v112
	BYTE		N02     Fs1   v120
	BYTE		N02     An6   v112
	BYTE	W06
	BYTE		        Fs1   v120
	BYTE		N02     An6   v112
	BYTE	W06
	BYTE		        As1   v120
	BYTE		N02     An6   v112
	BYTE	W06
	BYTE		        Gs1   v120
	BYTE		N02     An6   v112
	BYTE	W06
	BYTE		        AnM2
	BYTE		N02     As1   v120
	BYTE		N02     An6   v112
	BYTE	W06
	BYTE		        Fs1   v120
	BYTE		N02     An6   v112
	BYTE	W06
	BYTE		        AnM2
	BYTE		N02     Ds1 
	BYTE		N02     As1   v120
	BYTE		N02     Cs2   v127
	BYTE		N02     An6   v112
	BYTE	W12
	BYTE	PEND
// 042   ----------------------------------------
voiceofthesacredwind8850_10_042:
	BYTE		N02     Fs1   v120
	BYTE	W06
	BYTE		N02   
	BYTE	W06
	BYTE		        AnM2  v112
	BYTE		N02     As1   v120
	BYTE	W06
	BYTE		        Gs1 
	BYTE	W06
	BYTE		        AnM2  v112
	BYTE		N02     Fs1   v120
	BYTE		N02     An6   v112
	BYTE	W06
	BYTE		        Fs1   v120
	BYTE	W06
	BYTE		        As1 
	BYTE	W06
	BYTE		        Gs1 
	BYTE		N02     An6   v112
	BYTE	W06
	BYTE		        AnM2
	BYTE		N02     Fs1   v120
	BYTE	W06
	BYTE		N02   
	BYTE	W06
	BYTE		        As1 
	BYTE	W06
	BYTE		        Gs1 
	BYTE	W06
	BYTE		        AnM2  v112
	BYTE		N02     Fs1   v120
	BYTE		N02     An6   v112
	BYTE	W06
	BYTE		        Fs1   v120
	BYTE	W06
	BYTE		        As1 
	BYTE	W06
	BYTE		        Gs1 
	BYTE	W06
	BYTE	PEND
// 043   ----------------------------------------
voiceofthesacredwind8850_10_043:
	BYTE		N02     AnM2  v112
	BYTE		N02     Fs1   v120
	BYTE	W06
	BYTE		N02   
	BYTE	W06
	BYTE		        As1 
	BYTE	W06
	BYTE		        Gs1 
	BYTE	W06
	BYTE		        AnM2  v112
	BYTE		N02     Fs1   v120
	BYTE		N02     An6   v112
	BYTE	W06
	BYTE		        Fs1   v120
	BYTE	W06
	BYTE		        As1 
	BYTE	W06
	BYTE		        Gs1 
	BYTE		N02     An6   v112
	BYTE	W06
	BYTE		        AnM2
	BYTE		N02     Fs1   v120
	BYTE	W06
	BYTE		N02   
	BYTE	W06
	BYTE		        As1 
	BYTE	W06
	BYTE		        Gs1 
	BYTE	W06
	BYTE		        AnM2  v112
	BYTE		N02     Fs1   v120
	BYTE		N02     An6   v112
	BYTE	W06
	BYTE		        Fs1   v120
	BYTE	W06
	BYTE		        As1 
	BYTE	W06
	BYTE		        Gs1 
	BYTE	W06
	BYTE	PEND
// 044   ----------------------------------------
	BYTE	PATT
	 POIN2	voiceofthesacredwind8850_10_043
// 045   ----------------------------------------
	BYTE	PATT
	 POIN2	voiceofthesacredwind8850_10_043
// 046   ----------------------------------------
	BYTE	PATT
	 POIN2	voiceofthesacredwind8850_10_043
// 047   ----------------------------------------
	BYTE	PATT
	 POIN2	voiceofthesacredwind8850_10_043
// 048   ----------------------------------------
	BYTE	PATT
	 POIN2	voiceofthesacredwind8850_10_043
// 049   ----------------------------------------
voiceofthesacredwind8850_10_049:
	BYTE		N02     AnM2  v112
	BYTE		N02     Fs1   v120
	BYTE	W06
	BYTE		N02   
	BYTE	W06
	BYTE		        As1 
	BYTE	W06
	BYTE		        Gs1 
	BYTE	W06
	BYTE		        AnM2  v112
	BYTE		N02     Fs1   v120
	BYTE		N02     An6   v112
	BYTE	W06
	BYTE		        Fs1   v120
	BYTE	W06
	BYTE		        As1 
	BYTE	W06
	BYTE		        Gs1 
	BYTE		N02     An6   v112
	BYTE	W06
	BYTE		        AnM2
	BYTE		N02     Fs1   v120
	BYTE	W06
	BYTE		N02   
	BYTE	W06
	BYTE		        AnM2  v112
	BYTE		N02     As1   v120
	BYTE		N02     An6   v112
	BYTE	W06
	BYTE		        Gs1   v120
	BYTE	W06
	BYTE		        AnM2  v112
	BYTE		N02     Fs1   v120
	BYTE		N02     An6   v112
	BYTE	W06
	BYTE		        Fs1   v120
	BYTE	W06
	BYTE		        AnM2  v112
	BYTE		N02     As1   v120
	BYTE		N02     An2   v127
	BYTE		N02     An6   v112
	BYTE	W06
	BYTE		        Gs1   v120
	BYTE	W06
	BYTE	PEND
// 050   ----------------------------------------
	BYTE	PATT
	 POIN2	voiceofthesacredwind8850_10_042
// 051   ----------------------------------------
	BYTE	PATT
	 POIN2	voiceofthesacredwind8850_10_043
// 052   ----------------------------------------
	BYTE	PATT
	 POIN2	voiceofthesacredwind8850_10_043
// 053   ----------------------------------------
	BYTE	PATT
	 POIN2	voiceofthesacredwind8850_10_043
// 054   ----------------------------------------
	BYTE	PATT
	 POIN2	voiceofthesacredwind8850_10_043
// 055   ----------------------------------------
	BYTE	PATT
	 POIN2	voiceofthesacredwind8850_10_043
// 056   ----------------------------------------
	BYTE		N02     AnM2  v112
	BYTE		N02     Fs1   v120
	BYTE	W06
	BYTE		N02   
	BYTE	W06
	BYTE		        As1 
	BYTE	W06
	BYTE		        Gs1 
	BYTE	W06
	BYTE		        AnM2  v112
	BYTE		N02     Fs1   v120
	BYTE		N02     An6   v112
	BYTE	W06
	BYTE		        Fs1   v120
	BYTE	W06
	BYTE		        As1 
	BYTE	W06
	BYTE		        Gs1 
	BYTE		N02     An6   v112
	BYTE	W06
	BYTE		        AnM2
	BYTE		N02     Fs1   v120
	BYTE	W06
	BYTE		N02   
	BYTE	W06
	BYTE		        As1 
	BYTE		N02     An6   v112
	BYTE	W06
	BYTE		        Gs1   v120
	BYTE	W06
	BYTE		        AnM2  v112
	BYTE		N02     Fs1   v120
	BYTE		N02     An6   v112
	BYTE	W06
	BYTE		        Fs1   v120
	BYTE	W06
	BYTE		        AnM2  v112
	BYTE		N02     An1 
	BYTE		N02     As1   v120
	BYTE		N02     Cs2   v127
	BYTE	W12
// 057   ----------------------------------------
	BYTE		        AnM2  v112
	BYTE		N02     An6 
	BYTE	W06
	BYTE		N02   
	BYTE	W06
	BYTE		        Cn2 
	BYTE	W06
	BYTE		        AnM2
	BYTE		N02     An6 
	BYTE	W06
	BYTE		N02   
	BYTE	W06
	BYTE		        Bn1 
	BYTE	W06
	BYTE		        AnM2
	BYTE		N02     An6 
	BYTE	W06
	BYTE		N02   
	BYTE	W06
	BYTE		        Gn1 
	BYTE	W06
	BYTE		        AnM2
	BYTE		N02     An6 
	BYTE	W06
	BYTE		N02   
	BYTE	W06
	BYTE		        Fn1 
	BYTE	W06
	BYTE		        AnM2
	BYTE		N02     An6 
	BYTE	W06
	BYTE		N02   
	BYTE	W06
	BYTE		        AnM2
	BYTE		N02     An6 
	BYTE	W06
	BYTE		N02   
	BYTE	W06
// 058   ----------------------------------------
	BYTE		        AnM2
	BYTE		N02     As1   v120
	BYTE		N02     Cs2   v127
	BYTE	W12
	BYTE		        Fs1   v120
	BYTE	W06
	BYTE		N02   
	BYTE	W06
	BYTE		        AnM2  v112
	BYTE		N02     As1   v120
	BYTE	W12
	BYTE		        Fs1 
	BYTE	W06
	BYTE		N02   
	BYTE	W06
	BYTE		        AnM2  v112
	BYTE		N02     As1   v120
	BYTE	W12
	BYTE		        Fs1 
	BYTE	W06
	BYTE		N02   
	BYTE	W06
	BYTE		        AnM2  v112
	BYTE		N02     As1   v120
	BYTE	W12
	BYTE		        Fs1 
	BYTE	W06
	BYTE		N02   
	BYTE	W06
// 059   ----------------------------------------
voiceofthesacredwind8850_10_059:
	BYTE		N02     AnM2  v112
	BYTE		N02     As1   v120
	BYTE	W12
	BYTE		        Fs1 
	BYTE	W06
	BYTE		N02   
	BYTE	W06
	BYTE		        AnM2  v112
	BYTE		N02     As1   v120
	BYTE	W12
	BYTE		        Fs1 
	BYTE	W06
	BYTE		N02   
	BYTE	W06
	BYTE		        AnM2  v112
	BYTE		N02     As1   v120
	BYTE	W12
	BYTE		        Fs1 
	BYTE	W06
	BYTE		N02   
	BYTE	W06
	BYTE		        AnM2  v112
	BYTE		N02     As1   v120
	BYTE	W12
	BYTE		        Fs1 
	BYTE	W06
	BYTE		N02   
	BYTE	W06
	BYTE	PEND
// 060   ----------------------------------------
	BYTE	PATT
	 POIN2	voiceofthesacredwind8850_10_059
// 061   ----------------------------------------
	BYTE		N02     AnM2  v112
	BYTE		N02     As1   v120
	BYTE	W12
	BYTE		        Fs1 
	BYTE	W06
	BYTE		N02   
	BYTE	W06
	BYTE		        AnM2  v112
	BYTE		N02     As1   v120
	BYTE	W12
	BYTE		        Fs1 
	BYTE	W06
	BYTE		        As1 
	BYTE	W06
	BYTE		        AnM2  v112
	BYTE		N02     Fs1   v120
	BYTE	W06
	BYTE		N02   
	BYTE	W06
	BYTE		        As1 
	BYTE		N02     An6   v112
	BYTE	W06
	BYTE		        Gs1   v120
	BYTE	W06
	BYTE		        AnM2  v112
	BYTE		N02     As1   v120
	BYTE	W12
	BYTE		        Fn1   v112
	BYTE		N02     Fs1   v120
	BYTE	W06
	BYTE		N02   
	BYTE	W06
// 062   ----------------------------------------
	BYTE		        AnM2  v112
	BYTE		N02     As1   v120
	BYTE		N02     An2   v127
	BYTE	W12
	BYTE		        Fs1   v120
	BYTE	W06
	BYTE		N02   
	BYTE	W06
	BYTE		        AnM2  v112
	BYTE		N02     As1   v120
	BYTE	W12
	BYTE		        Fs1 
	BYTE	W06
	BYTE		N02   
	BYTE	W06
	BYTE		        AnM2  v112
	BYTE		N02     As1   v120
	BYTE	W12
	BYTE		        Fs1 
	BYTE	W06
	BYTE		N02   
	BYTE	W06
	BYTE		        AnM2  v112
	BYTE		N02     As1   v120
	BYTE	W12
	BYTE		        Fs1 
	BYTE	W06
	BYTE		N02   
	BYTE	W06
// 063   ----------------------------------------
	BYTE	PATT
	 POIN2	voiceofthesacredwind8850_10_059
// 064   ----------------------------------------
	BYTE		N02     AnM2  v112
	BYTE		N02     As1   v120
	BYTE	W12
	BYTE		        Fs1 
	BYTE	W06
	BYTE		N02   
	BYTE	W06
	BYTE		        AnM2  v112
	BYTE		N02     As1   v120
	BYTE	W12
	BYTE		        Fs1 
	BYTE	W06
	BYTE		N02   
	BYTE	W06
	BYTE		        AnM2  v112
	BYTE		N02     As1   v120
	BYTE	W12
	BYTE		        Fs1 
	BYTE	W06
	BYTE		N02   
	BYTE	W06
	BYTE		        AnM2  v112
	BYTE		N02     As1   v120
	BYTE	W12
	BYTE		        Fs1 
	BYTE	W06
	BYTE		        Gs1 
	BYTE	W06
// 065   ----------------------------------------
	BYTE		        AnM2  v112
	BYTE		N02     As1   v120
	BYTE	W06
	BYTE		        Fs1 
	BYTE	W06
	BYTE		        As1 
	BYTE	W06
	BYTE		        Gs1 
	BYTE	W06
	BYTE		        AnM2  v112
	BYTE		N02     As1   v120
	BYTE	W06
	BYTE		        Fs1 
	BYTE	W06
	BYTE		        Fn2   v127
	BYTE	W06
	BYTE		        As1   v120
	BYTE	W06
	BYTE		        AnM2  v112
	BYTE		N02     Gs1   v120
	BYTE	W06
	BYTE		        As1 
	BYTE	W06
	BYTE		        Gn2   v127
	BYTE		N02     An6   v112
	BYTE	W06
	BYTE		        Fs1   v120
	BYTE	W06
	BYTE		        As1 
	BYTE	W06
	BYTE		        AnM2  v112
	BYTE		N02     Fs1   v120
	BYTE	W06
	BYTE		        En2   v127
	BYTE		N02     An6   v112
	BYTE	W06
	BYTE		        As1   v120
	BYTE	W06
// 066   ----------------------------------------
	BYTE	PATT
	 POIN2	voiceofthesacredwind8850_10_010
// 067   ----------------------------------------
	BYTE	PATT
	 POIN2	voiceofthesacredwind8850_10_003
// 068   ----------------------------------------
	BYTE	PATT
	 POIN2	voiceofthesacredwind8850_10_003
// 069   ----------------------------------------
	BYTE	PATT
	 POIN2	voiceofthesacredwind8850_10_003
// 070   ----------------------------------------
	BYTE	PATT
	 POIN2	voiceofthesacredwind8850_10_014
// 071   ----------------------------------------
	BYTE	PATT
	 POIN2	voiceofthesacredwind8850_10_003
// 072   ----------------------------------------
	BYTE	PATT
	 POIN2	voiceofthesacredwind8850_10_003
// 073   ----------------------------------------
	BYTE		N02     AnM2  v112
	BYTE		N02     Fs1   v120
	BYTE	W12
	BYTE		        As1 
	BYTE	W06
	BYTE		        Gs1 
	BYTE	W06
	BYTE		        Fs1 
	BYTE		N02     An6   v112
	BYTE	W12
	BYTE		        AnM2
	BYTE		N02     As1   v120
	BYTE	W06
	BYTE		        Gs1 
	BYTE		N02     An6   v112
	BYTE	W06
	BYTE		        Fs1   v120
	BYTE	W12
	BYTE		        AnM2  v112
	BYTE		N02     As1   v120
	BYTE		N02     An6   v112
	BYTE	W06
	BYTE		        Gs1   v120
	BYTE		N02     An6   v112
	BYTE	W06
	BYTE		        Fs1   v120
	BYTE	W06
	BYTE		        AnM2  v112
	BYTE		N02     An6 
	BYTE	W06
	BYTE		        As1   v120
	BYTE	W06
	BYTE		        Gs1 
	BYTE		N02     An6   v112
	BYTE	W06
// 074   ----------------------------------------
	BYTE	PATT
	 POIN2	voiceofthesacredwind8850_10_010
// 075   ----------------------------------------
	BYTE	PATT
	 POIN2	voiceofthesacredwind8850_10_003
// 076   ----------------------------------------
	BYTE	PATT
	 POIN2	voiceofthesacredwind8850_10_003
// 077   ----------------------------------------
	BYTE	PATT
	 POIN2	voiceofthesacredwind8850_10_003
// 078   ----------------------------------------
	BYTE	PATT
	 POIN2	voiceofthesacredwind8850_10_014
// 079   ----------------------------------------
	BYTE	PATT
	 POIN2	voiceofthesacredwind8850_10_003
// 080   ----------------------------------------
	BYTE	PATT
	 POIN2	voiceofthesacredwind8850_10_003
// 081   ----------------------------------------
	BYTE		N02     AnM2  v112
	BYTE		N02     Fn2   v127
	BYTE		N02     An6   v112
	BYTE	W18
	BYTE		        As1   v120
	BYTE	W06
	BYTE		        AnM2  v112
	BYTE		N02     Fn2   v127
	BYTE		N02     An6   v112
	BYTE	W12
	BYTE		        AnM2
	BYTE		N02     An6 
	BYTE	W06
	BYTE		        As1   v120
	BYTE		N02     An6   v112
	BYTE	W06
	BYTE		        AnM2
	BYTE		N02     Gn2   v120
	BYTE		N02     An6   v112
	BYTE	W18
	BYTE		        AnM2
	BYTE		N02     Bn1 
	BYTE		N02     Fn2   v127
	BYTE	W18
	BYTE		        AnM2  v112
	BYTE		N02     Gn1 
	BYTE		N02     Ds2   v127
	BYTE	W12
// 082   ----------------------------------------
	BYTE		        AnM2  v112
	BYTE		N02     Gn1 
	BYTE		N02     An2   v127
	BYTE	W72
	BYTE		        AnM2  v112
	BYTE		N02     Gn1 
	BYTE		N02     Gn2   v127
	BYTE	W12
	BYTE		        AnM2  v112
	BYTE		N02     Cs2   v127
	BYTE	W12
// 083   ----------------------------------------
	BYTE	PATT
	 POIN2	voiceofthesacredwind8850_10_002
// 084   ----------------------------------------
	BYTE	PATT
	 POIN2	voiceofthesacredwind8850_10_003
// 085   ----------------------------------------
	BYTE	PATT
	 POIN2	voiceofthesacredwind8850_10_004
// 086   ----------------------------------------
	BYTE	PATT
	 POIN2	voiceofthesacredwind8850_10_005
// 087   ----------------------------------------
	BYTE	PATT
	 POIN2	voiceofthesacredwind8850_10_006
// 088   ----------------------------------------
	BYTE	PATT
	 POIN2	voiceofthesacredwind8850_10_007
// 089   ----------------------------------------
	BYTE	PATT
	 POIN2	voiceofthesacredwind8850_10_008
// 090   ----------------------------------------
	BYTE	PATT
	 POIN2	voiceofthesacredwind8850_10_009
// 091   ----------------------------------------
	BYTE	PATT
	 POIN2	voiceofthesacredwind8850_10_010
// 092   ----------------------------------------
	BYTE	PATT
	 POIN2	voiceofthesacredwind8850_10_003
// 093   ----------------------------------------
	BYTE	PATT
	 POIN2	voiceofthesacredwind8850_10_003
// 094   ----------------------------------------
	BYTE	PATT
	 POIN2	voiceofthesacredwind8850_10_013
// 095   ----------------------------------------
	BYTE	PATT
	 POIN2	voiceofthesacredwind8850_10_014
// 096   ----------------------------------------
	BYTE	PATT
	 POIN2	voiceofthesacredwind8850_10_003
// 097   ----------------------------------------
	BYTE	PATT
	 POIN2	voiceofthesacredwind8850_10_003
// 098   ----------------------------------------
	BYTE	PATT
	 POIN2	voiceofthesacredwind8850_10_017
// 099   ----------------------------------------
	BYTE	PATT
	 POIN2	voiceofthesacredwind8850_10_010
// 100   ----------------------------------------
	BYTE	PATT
	 POIN2	voiceofthesacredwind8850_10_003
// 101   ----------------------------------------
	BYTE	PATT
	 POIN2	voiceofthesacredwind8850_10_003
// 102   ----------------------------------------
	BYTE	PATT
	 POIN2	voiceofthesacredwind8850_10_013
// 103   ----------------------------------------
	BYTE	PATT
	 POIN2	voiceofthesacredwind8850_10_014
// 104   ----------------------------------------
	BYTE	PATT
	 POIN2	voiceofthesacredwind8850_10_003
// 105   ----------------------------------------
	BYTE	PATT
	 POIN2	voiceofthesacredwind8850_10_003
// 106   ----------------------------------------
	BYTE	PATT
	 POIN2	voiceofthesacredwind8850_10_025
// 107   ----------------------------------------
	BYTE	PATT
	 POIN2	voiceofthesacredwind8850_10_026
// 108   ----------------------------------------
	BYTE	PATT
	 POIN2	voiceofthesacredwind8850_10_027
// 109   ----------------------------------------
	BYTE	PATT
	 POIN2	voiceofthesacredwind8850_10_027
// 110   ----------------------------------------
	BYTE	PATT
	 POIN2	voiceofthesacredwind8850_10_027
// 111   ----------------------------------------
	BYTE	PATT
	 POIN2	voiceofthesacredwind8850_10_030
// 112   ----------------------------------------
	BYTE	PATT
	 POIN2	voiceofthesacredwind8850_10_027
// 113   ----------------------------------------
	BYTE	PATT
	 POIN2	voiceofthesacredwind8850_10_027
// 114   ----------------------------------------
	BYTE	PATT
	 POIN2	voiceofthesacredwind8850_10_033
// 115   ----------------------------------------
	BYTE	PATT
	 POIN2	voiceofthesacredwind8850_10_026
// 116   ----------------------------------------
	BYTE	PATT
	 POIN2	voiceofthesacredwind8850_10_027
// 117   ----------------------------------------
	BYTE	PATT
	 POIN2	voiceofthesacredwind8850_10_027
// 118   ----------------------------------------
	BYTE	PATT
	 POIN2	voiceofthesacredwind8850_10_037
// 119   ----------------------------------------
	BYTE	PATT
	 POIN2	voiceofthesacredwind8850_10_038
// 120   ----------------------------------------
	BYTE	PATT
	 POIN2	voiceofthesacredwind8850_10_039
// 121   ----------------------------------------
	BYTE	PATT
	 POIN2	voiceofthesacredwind8850_10_040
// 122   ----------------------------------------
	BYTE	PATT
	 POIN2	voiceofthesacredwind8850_10_041
// 123   ----------------------------------------
	BYTE	PATT
	 POIN2	voiceofthesacredwind8850_10_042
// 124   ----------------------------------------
	BYTE	PATT
	 POIN2	voiceofthesacredwind8850_10_043
// 125   ----------------------------------------
	BYTE	PATT
	 POIN2	voiceofthesacredwind8850_10_043
// 126   ----------------------------------------
	BYTE	PATT
	 POIN2	voiceofthesacredwind8850_10_043
// 127   ----------------------------------------
	BYTE	PATT
	 POIN2	voiceofthesacredwind8850_10_043
// 128   ----------------------------------------
	BYTE	PATT
	 POIN2	voiceofthesacredwind8850_10_043
// 129   ----------------------------------------
	BYTE	PATT
	 POIN2	voiceofthesacredwind8850_10_043
// 130   ----------------------------------------
	BYTE	PATT
	 POIN2	voiceofthesacredwind8850_10_049
// 131   ----------------------------------------
	BYTE	PATT
	 POIN2	voiceofthesacredwind8850_10_042
// 132   ----------------------------------------
	BYTE	PATT
	 POIN2	voiceofthesacredwind8850_10_043
// 133   ----------------------------------------
	BYTE	PATT
	 POIN2	voiceofthesacredwind8850_10_043
// 134   ----------------------------------------
	BYTE	PATT
	 POIN2	voiceofthesacredwind8850_10_043
// 135   ----------------------------------------
	BYTE	PATT
	 POIN2	voiceofthesacredwind8850_10_043
// 136   ----------------------------------------
	BYTE		N02     AnM2  v112
	BYTE		N02     Fs1   v120
	BYTE	W06
	BYTE		N02   
	BYTE	W06
	BYTE		        As1 
	BYTE	W06
	BYTE		        Gs1 
	BYTE	W06
	BYTE		        AnM2  v112
	BYTE		N02     Fs1   v120
	BYTE		N02     An6   v112
	BYTE	W06
	BYTE		        Fs1   v120
	BYTE	W06
	BYTE		        As1 
	BYTE	W06
	BYTE		        Gs1 
	BYTE		N02     An6   v112
	BYTE	W06
	BYTE		        AnM2
	BYTE		N02     Fs1   v120
	BYTE	W06
	BYTE		N02   
	BYTE	W06
	BYTE		        As1 
	BYTE	W06
	BYTE		        Gs1 
	BYTE	W06
	BYTE		        AnM2  v112
	BYTE		N02     An6 
	BYTE	W06
	BYTE		N02   
	BYTE	W06
	BYTE		        AnM2
	BYTE		N02     Cs2   v127
	BYTE		N02     An6   v112
	BYTE	W12
// 137   ----------------------------------------
	BYTE	PATT
	 POIN2	voiceofthesacredwind8850_10_042
// 138   ----------------------------------------
	BYTE	PATT
	 POIN2	voiceofthesacredwind8850_10_043
// 139   ----------------------------------------
	BYTE	PATT
	 POIN2	voiceofthesacredwind8850_10_043
// 140   ----------------------------------------
	BYTE	PATT
	 POIN2	voiceofthesacredwind8850_10_043
// 141   ----------------------------------------
	BYTE	PATT
	 POIN2	voiceofthesacredwind8850_10_043
// 142   ----------------------------------------
	BYTE	PATT
	 POIN2	voiceofthesacredwind8850_10_043
// 143   ----------------------------------------
	BYTE	PATT
	 POIN2	voiceofthesacredwind8850_10_043
// 144   ----------------------------------------
	BYTE	PATT
	 POIN2	voiceofthesacredwind8850_10_049
// 145   ----------------------------------------
	BYTE	PATT
	 POIN2	voiceofthesacredwind8850_10_042
// 146   ----------------------------------------
	BYTE	PATT
	 POIN2	voiceofthesacredwind8850_10_043
// 147   ----------------------------------------
	BYTE	PATT
	 POIN2	voiceofthesacredwind8850_10_043
// 148   ----------------------------------------
	BYTE	PATT
	 POIN2	voiceofthesacredwind8850_10_043
// 149   ----------------------------------------
	BYTE	PATT
	 POIN2	voiceofthesacredwind8850_10_043
// 150   ----------------------------------------
	BYTE		N02     AnM2  v112
	BYTE		N02     Fs1   v120
	BYTE	W06
	BYTE		N02   
	BYTE	W06
	BYTE		        As1 
	BYTE	W06
	BYTE		        Gs1 
	BYTE	W06
	BYTE		        AnM2  v112
	BYTE		N02     Fs1   v120
	BYTE		N02     An6   v112
	BYTE	W06
	BYTE		        Fs1   v120
	BYTE	W06
	BYTE		        As1 
	BYTE	W06
	BYTE		        Gs1 
	BYTE		N02     An6   v112
	BYTE	W06
	BYTE		        AnM2
	BYTE		N02     Fs1   v120
	BYTE	W06
	BYTE		N02   
	BYTE	W06
	BYTE		        As1 
	BYTE	W06
	BYTE		        Gs1 
	BYTE	W06
	BYTE		        AnM2  v112
	BYTE		N02     Gn1 
	BYTE		N02     Gn2   v127
	BYTE	W12
	BYTE		        AnM2  v112
	BYTE		N02     Cs2   v127
	BYTE	W12
// 151   ----------------------------------------
	BYTE	PATT
	 POIN2	voiceofthesacredwind8850_10_002
// 152   ----------------------------------------
	BYTE	PATT
	 POIN2	voiceofthesacredwind8850_10_003
// 153   ----------------------------------------
	BYTE	PATT
	 POIN2	voiceofthesacredwind8850_10_004
// 154   ----------------------------------------
	BYTE	PATT
	 POIN2	voiceofthesacredwind8850_10_005
// 155   ----------------------------------------
	BYTE	PATT
	 POIN2	voiceofthesacredwind8850_10_006
// 156   ----------------------------------------
	BYTE	PATT
	 POIN2	voiceofthesacredwind8850_10_007
// 157   ----------------------------------------
	BYTE	PATT
	 POIN2	voiceofthesacredwind8850_10_008
// 158   ----------------------------------------
	BYTE		N02     AnM2  v112
	BYTE		N02     Fs1   v120
	BYTE		N02     An6   v112
	BYTE	W06
	BYTE		        As1   v120
	BYTE	W30
	BYTE		        AnM2  v112
	BYTE		N02     As1   v120
	BYTE		N02     An6   v112
	BYTE	W06
	BYTE		        As1   v120
	BYTE		N02     An6   v112
	BYTE	W30
	BYTE		        AnM2
	BYTE		TIE     Cs2 
	BYTE		N02     An6 
	BYTE	W24
// 159   ----------------------------------------
	BYTE	W96
// 160   ----------------------------------------
	BYTE	W96
// 161   ----------------------------------------
	BYTE	W92
	BYTE	W03
	BYTE		EOT     Cs2 
	BYTE	W01
// 162   ----------------------------------------
	BYTE	W96
// 163   ----------------------------------------
	BYTE	FINE

//**************** Track 11 (Midi-Chn.11) ****************//

voiceofthesacredwind8850_11:
	BYTE	KEYSH   voiceofthesacredwind8850_key+0
// 000   ----------------------------------------
	BYTE	W96
// 001   ----------------------------------------
	BYTE		VOICE   1
	BYTE		VOL     117*voiceofthesacredwind8850_mvl/mxv
	BYTE		PAN     c_v+0
	BYTE	W48
	BYTE		MOD     0
	BYTE	W24
	BYTE		VOICE   53
	BYTE	W24
// 002   ----------------------------------------
	BYTE		BEND    c_v+0
	BYTE	W96
// 003   ----------------------------------------
	BYTE	W96
// 004   ----------------------------------------
	BYTE	W96
// 005   ----------------------------------------
	BYTE	W96
// 006   ----------------------------------------
	BYTE	W96
// 007   ----------------------------------------
	BYTE	W96
// 008   ----------------------------------------
	BYTE	W96
// 009   ----------------------------------------
voiceofthesacredwind8850_11_009:
	BYTE	W72
	BYTE		N05     An5   v127
	BYTE		N05     Bn5 
	BYTE	W24
	BYTE	PEND
// 010   ----------------------------------------
	BYTE	W96
// 011   ----------------------------------------
	BYTE	W96
// 012   ----------------------------------------
	BYTE	W96
// 013   ----------------------------------------
	BYTE	W96
// 014   ----------------------------------------
	BYTE	W96
// 015   ----------------------------------------
	BYTE	W96
// 016   ----------------------------------------
	BYTE	W96
// 017   ----------------------------------------
	BYTE	W96
// 018   ----------------------------------------
	BYTE	W96
// 019   ----------------------------------------
	BYTE	W96
// 020   ----------------------------------------
	BYTE	W96
// 021   ----------------------------------------
	BYTE	W96
// 022   ----------------------------------------
	BYTE	W96
// 023   ----------------------------------------
	BYTE	W96
// 024   ----------------------------------------
	BYTE	W96
// 025   ----------------------------------------
	BYTE	W96
// 026   ----------------------------------------
	BYTE	W96
// 027   ----------------------------------------
	BYTE	W96
// 028   ----------------------------------------
	BYTE	W96
// 029   ----------------------------------------
	BYTE	W96
// 030   ----------------------------------------
	BYTE	W96
// 031   ----------------------------------------
	BYTE	W96
// 032   ----------------------------------------
	BYTE	W96
// 033   ----------------------------------------
	BYTE	W96
// 034   ----------------------------------------
	BYTE	W96
// 035   ----------------------------------------
	BYTE	W96
// 036   ----------------------------------------
	BYTE	W96
// 037   ----------------------------------------
	BYTE	W96
// 038   ----------------------------------------
	BYTE	W96
// 039   ----------------------------------------
	BYTE	W96
// 040   ----------------------------------------
	BYTE	W96
// 041   ----------------------------------------
	BYTE	W96
// 042   ----------------------------------------
	BYTE	W96
// 043   ----------------------------------------
	BYTE	W96
// 044   ----------------------------------------
	BYTE	W96
// 045   ----------------------------------------
	BYTE	W96
// 046   ----------------------------------------
	BYTE	W96
// 047   ----------------------------------------
	BYTE	W96
// 048   ----------------------------------------
	BYTE	W96
// 049   ----------------------------------------
	BYTE	W96
// 050   ----------------------------------------
	BYTE	W96
// 051   ----------------------------------------
	BYTE	W96
// 052   ----------------------------------------
	BYTE	W96
// 053   ----------------------------------------
	BYTE	W96
// 054   ----------------------------------------
	BYTE	W96
// 055   ----------------------------------------
	BYTE	W96
// 056   ----------------------------------------
	BYTE	W96
// 057   ----------------------------------------
	BYTE	W96
// 058   ----------------------------------------
	BYTE	W96
// 059   ----------------------------------------
	BYTE	W96
// 060   ----------------------------------------
	BYTE	W96
// 061   ----------------------------------------
	BYTE	W96
// 062   ----------------------------------------
	BYTE	W96
// 063   ----------------------------------------
	BYTE	W96
// 064   ----------------------------------------
	BYTE	W96
// 065   ----------------------------------------
	BYTE	W96
// 066   ----------------------------------------
	BYTE	W96
// 067   ----------------------------------------
	BYTE	W96
// 068   ----------------------------------------
	BYTE	W96
// 069   ----------------------------------------
	BYTE	W96
// 070   ----------------------------------------
	BYTE	W96
// 071   ----------------------------------------
	BYTE	W96
// 072   ----------------------------------------
	BYTE	W96
// 073   ----------------------------------------
	BYTE	W96
// 074   ----------------------------------------
	BYTE	W96
// 075   ----------------------------------------
	BYTE	W96
// 076   ----------------------------------------
	BYTE	W96
// 077   ----------------------------------------
	BYTE	W96
// 078   ----------------------------------------
	BYTE	W96
// 079   ----------------------------------------
	BYTE	W96
// 080   ----------------------------------------
	BYTE	W96
// 081   ----------------------------------------
	BYTE	W96
// 082   ----------------------------------------
	BYTE	W96
// 083   ----------------------------------------
	BYTE	W96
// 084   ----------------------------------------
	BYTE	W96
// 085   ----------------------------------------
	BYTE	W96
// 086   ----------------------------------------
	BYTE	W96
// 087   ----------------------------------------
	BYTE	W96
// 088   ----------------------------------------
	BYTE	W96
// 089   ----------------------------------------
	BYTE	W96
// 090   ----------------------------------------
	BYTE	PATT
	 POIN2	voiceofthesacredwind8850_11_009
// 091   ----------------------------------------
	BYTE	W96
// 092   ----------------------------------------
	BYTE	W96
// 093   ----------------------------------------
	BYTE	W96
// 094   ----------------------------------------
	BYTE	W96
// 095   ----------------------------------------
	BYTE	W96
// 096   ----------------------------------------
	BYTE	W96
// 097   ----------------------------------------
	BYTE	W96
// 098   ----------------------------------------
	BYTE	W96
// 099   ----------------------------------------
	BYTE	W96
// 100   ----------------------------------------
	BYTE	W96
// 101   ----------------------------------------
	BYTE	W96
// 102   ----------------------------------------
	BYTE	W96
// 103   ----------------------------------------
	BYTE	W96
// 104   ----------------------------------------
	BYTE	W96
// 105   ----------------------------------------
	BYTE	W96
// 106   ----------------------------------------
	BYTE	W96
// 107   ----------------------------------------
	BYTE	W96
// 108   ----------------------------------------
	BYTE	W96
// 109   ----------------------------------------
	BYTE	W96
// 110   ----------------------------------------
	BYTE	W96
// 111   ----------------------------------------
	BYTE	W96
// 112   ----------------------------------------
	BYTE	W96
// 113   ----------------------------------------
	BYTE	W96
// 114   ----------------------------------------
	BYTE	W96
// 115   ----------------------------------------
	BYTE	W96
// 116   ----------------------------------------
	BYTE	W96
// 117   ----------------------------------------
	BYTE	W96
// 118   ----------------------------------------
	BYTE	W96
// 119   ----------------------------------------
	BYTE	W96
// 120   ----------------------------------------
	BYTE	W96
// 121   ----------------------------------------
	BYTE	W96
// 122   ----------------------------------------
	BYTE	W96
// 123   ----------------------------------------
	BYTE	W96
// 124   ----------------------------------------
	BYTE	W96
// 125   ----------------------------------------
	BYTE	W96
// 126   ----------------------------------------
	BYTE	W96
// 127   ----------------------------------------
	BYTE	W96
// 128   ----------------------------------------
	BYTE	W96
// 129   ----------------------------------------
	BYTE	W96
// 130   ----------------------------------------
	BYTE	W96
// 131   ----------------------------------------
	BYTE	W96
// 132   ----------------------------------------
	BYTE	W96
// 133   ----------------------------------------
	BYTE	W96
// 134   ----------------------------------------
	BYTE	W96
// 135   ----------------------------------------
	BYTE	W96
// 136   ----------------------------------------
	BYTE	W96
// 137   ----------------------------------------
	BYTE	W96
// 138   ----------------------------------------
	BYTE	W96
// 139   ----------------------------------------
	BYTE	W96
// 140   ----------------------------------------
	BYTE	W96
// 141   ----------------------------------------
	BYTE	W96
// 142   ----------------------------------------
	BYTE	W96
// 143   ----------------------------------------
	BYTE	W96
// 144   ----------------------------------------
	BYTE	W96
// 145   ----------------------------------------
	BYTE	W96
// 146   ----------------------------------------
	BYTE	W96
// 147   ----------------------------------------
	BYTE	W96
// 148   ----------------------------------------
	BYTE	W96
// 149   ----------------------------------------
	BYTE	W96
// 150   ----------------------------------------
	BYTE	W96
// 151   ----------------------------------------
	BYTE	W96
// 152   ----------------------------------------
	BYTE	W96
// 153   ----------------------------------------
	BYTE	W96
// 154   ----------------------------------------
	BYTE	W96
// 155   ----------------------------------------
	BYTE	W96
// 156   ----------------------------------------
	BYTE	W96
// 157   ----------------------------------------
	BYTE	W96
// 158   ----------------------------------------
	BYTE	PATT
	 POIN2	voiceofthesacredwind8850_11_009
// 159   ----------------------------------------
	BYTE	W96
// 160   ----------------------------------------
	BYTE	W96
// 161   ----------------------------------------
	BYTE	W96
// 162   ----------------------------------------
	BYTE	W96
// 163   ----------------------------------------
	BYTE	FINE

//******************************************************//
	ALIGN 4

voiceofthesacredwind8850:
	BYTE	11	// NumTrks
	BYTE	0	// NumBlks
	BYTE	voiceofthesacredwind8850_pri	// Priority
	BYTE	voiceofthesacredwind8850_rev	// Reverb.

	POIN2	voiceofthesacredwind8850_grp

	POIN2	voiceofthesacredwind8850_1
	POIN2	voiceofthesacredwind8850_2
	POIN2	voiceofthesacredwind8850_3
	POIN2	voiceofthesacredwind8850_4
	POIN2	voiceofthesacredwind8850_5
	POIN2	voiceofthesacredwind8850_6
	POIN2	voiceofthesacredwind8850_7
	POIN2	voiceofthesacredwind8850_8
	POIN2	voiceofthesacredwind8850_9
	POIN2	voiceofthesacredwind8850_10
	POIN2	voiceofthesacredwind8850_11

	
